<svg id="Layer_1" data-name="Layer 1" xmlns="http://www.w3.org/2000/svg" viewBox="0 0 398.57 230.22"><defs><style>.cls-1{fill:#f2f2f2;opacity:0.9;}.cls-2{fill:#f09843;}.cls-3{opacity:0.5;}.cls-4{fill:#7f93a5;}.cls-5{fill:#d7dce5;}.cls-6{fill:#0b2231;}.cls-7{fill:#637389;}.cls-8{fill:#fff;}.cls-9{fill:#f8f8f8;}.cls-10{fill:#4f5a6d;opacity:0.06;}</style></defs><title>Artboard 87</title><path class="cls-1" d="M86.77,198.38H302.1q4-2.19,8-4.61c34.89-21.19,56.09-42,41.82-84C322,21.86,253.61-5.46,175.58.87,102,6.85,41.8,60.26,39.48,110.53c-1.27,27.37,3.82,42.11,20,54.33C75.93,177.36,80.3,187.76,86.77,198.38Z"/><path class="cls-2" d="M340.32,139.69a.51.51,0,0,1-.42-.23.5.5,0,0,1,.14-.69l19.11-12.59a.5.5,0,1,1,.55.84L340.59,139.6A.46.46,0,0,1,340.32,139.69Z"/><path class="cls-2" d="M340.32,97.39a.52.52,0,0,1-.38-.17.51.51,0,0,1,.06-.71l9.44-8a.49.49,0,0,1,.7.06.48.48,0,0,1-.06.7l-9.44,8A.48.48,0,0,1,340.32,97.39Z"/><path class="cls-2" d="M340.32,72.56a.52.52,0,0,1-.33-.12l-9.39-8.13a.49.49,0,0,1-.05-.7.51.51,0,0,1,.71-.06l9.39,8.13a.5.5,0,0,1,.05.7A.49.49,0,0,1,340.32,72.56Z"/><path class="cls-2" d="M340.32,127.29a.47.47,0,0,1-.28-.09l-17.56-11.85a.5.5,0,0,1-.13-.7.49.49,0,0,1,.69-.13l17.56,11.86a.5.5,0,0,1-.28.91Z"/><path class="cls-2" d="M340.32,152.28a.5.5,0,0,1-.5-.5V45.36a.5.5,0,0,1,.5-.5.51.51,0,0,1,.5.5V151.78A.51.51,0,0,1,340.32,152.28Z"/><g class="cls-3"><path class="cls-4" d="M340.44,198.91a30.51,30.51,0,0,1-29.61-23.71,30.1,30.1,0,0,1-.71-5.49c0-.43,0-.78,0-1.13v-16.8a.5.5,0,0,1,.5-.5h59.67a.5.5,0,0,1,.5.5v16.8c0,.38,0,.75,0,1.13a28.45,28.45,0,0,1-.71,5.49A30.49,30.49,0,0,1,340.44,198.91ZM311.1,152.28v16.3c0,.34,0,.67,0,1a28.87,28.87,0,0,0,.69,5.38,29.33,29.33,0,0,0,57.25,0,28.16,28.16,0,0,0,.68-5.31c0-.37,0-.72,0-1.09v-16.3Z"/><path class="cls-4" d="M369,177.31H311.9a.5.5,0,0,1-.5-.5.5.5,0,0,1,.5-.5H369a.5.5,0,0,1,.5.5A.5.5,0,0,1,369,177.31Z"/><path class="cls-4" d="M370.12,164.58H310.75a.5.5,0,0,1,0-1h59.37a.5.5,0,0,1,0,1Z"/><path class="cls-4" d="M370.12,157.78H310.75a.5.5,0,0,1,0-1h59.37a.5.5,0,0,1,0,1Z"/><path class="cls-4" d="M372.49,152.28H308.38a.5.5,0,0,1-.5-.5.5.5,0,0,1,.5-.5h64.11a.5.5,0,0,1,.5.5A.51.51,0,0,1,372.49,152.28Z"/></g><g class="cls-3"><path class="cls-4" d="M73.93,198.92H29.24a.5.5,0,0,1-.5-.5v-81.2a.5.5,0,0,1,.5-.5H73.93a.5.5,0,0,1,.5.5v81.2A.5.5,0,0,1,73.93,198.92Zm-44.19-1H73.43v-80.2H29.74Z"/><path class="cls-4" d="M70.47,194.82H32.7a.5.5,0,0,1-.5-.5v-73a.5.5,0,0,1,.5-.5H70.47a.5.5,0,0,1,.5.5v73A.5.5,0,0,1,70.47,194.82Zm-37.27-1H70v-72H33.2Z"/><path class="cls-4" d="M51.58,152.12a11.67,11.67,0,1,1,11.68-11.67A11.69,11.69,0,0,1,51.58,152.12Zm0-22.34a10.67,10.67,0,1,0,10.68,10.67A10.68,10.68,0,0,0,51.58,129.78Z"/><path class="cls-4" d="M51.58,145.51a5.07,5.07,0,1,1,5.07-5.06A5.07,5.07,0,0,1,51.58,145.51Zm0-9.13a4.07,4.07,0,1,0,4.07,4.07A4.07,4.07,0,0,0,51.58,136.38Z"/><path class="cls-4" d="M51.58,186.86a11.67,11.67,0,1,1,11.68-11.67A11.69,11.69,0,0,1,51.58,186.86Zm0-22.34a10.67,10.67,0,1,0,10.68,10.67A10.68,10.68,0,0,0,51.58,164.52Z"/><path class="cls-4" d="M51.58,180.26a5.07,5.07,0,1,1,5.07-5.07A5.07,5.07,0,0,1,51.58,180.26Zm0-9.14a4.07,4.07,0,1,0,4.07,4.07A4.07,4.07,0,0,0,51.58,171.12Z"/></g><path class="cls-5" d="M106,198.31h0a2.28,2.28,0,0,1-1.11-2.84l7.44-18.77,7.87,3.08L108.89,197.5A2.28,2.28,0,0,1,106,198.31Z"/><path class="cls-6" d="M107,199.05a2.75,2.75,0,0,1-1.24-.29h0a2.76,2.76,0,0,1-1.35-3.47l7.43-18.77a.5.5,0,0,1,.65-.28l7.87,3.08a.47.47,0,0,1,.29.31.48.48,0,0,1-.05.42l-11.26,17.71A2.75,2.75,0,0,1,107,199.05Zm-.79-1.19a1.76,1.76,0,0,0,2.29-.63L119.4,180l-6.84-2.68-7.25,18.31A1.76,1.76,0,0,0,106.18,197.86Z"/><path class="cls-5" d="M292.62,198.31h0a2.28,2.28,0,0,0,1.11-2.84l-7.44-18.77-7.87,3.08,11.26,17.72A2.29,2.29,0,0,0,292.62,198.31Z"/><path class="cls-6" d="M291.6,199.05a2.76,2.76,0,0,1-2.34-1.29L278,180.05a.48.48,0,0,1-.05-.42.47.47,0,0,1,.29-.31l7.87-3.08a.5.5,0,0,1,.65.28l7.43,18.77a2.76,2.76,0,0,1-1.35,3.47h0A2.75,2.75,0,0,1,291.6,199.05Zm1-.74h0ZM279.17,180l10.93,17.2a1.78,1.78,0,0,0,3.16-1.58L286,177.35Z"/><path class="cls-7" d="M331,25.59H67.55a.92.92,0,0,0-.91.92V181.63a.92.92,0,0,0,.91.92H171.23a2.45,2.45,0,0,1,2.33,1.67h0a2.08,2.08,0,0,0,1.95,1.4h47.55a2.07,2.07,0,0,0,1.95-1.4h0a2.45,2.45,0,0,1,2.33-1.67H331a.92.92,0,0,0,.92-.92V26.51A.92.92,0,0,0,331,25.59Z"/><path class="cls-6" d="M223.06,186.12H175.51a2.56,2.56,0,0,1-2.42-1.74,2,2,0,0,0-1.86-1.33H67.55a1.42,1.42,0,0,1-1.41-1.42V26.51a1.42,1.42,0,0,1,1.41-1.42H331a1.43,1.43,0,0,1,1.42,1.42V181.63a1.43,1.43,0,0,1-1.42,1.42H227.34a2,2,0,0,0-1.86,1.33A2.55,2.55,0,0,1,223.06,186.12ZM67.55,26.09a.41.41,0,0,0-.41.42V181.63a.41.41,0,0,0,.41.42H171.23a3,3,0,0,1,2.81,2,1.55,1.55,0,0,0,1.47,1.06h47.55a1.57,1.57,0,0,0,1.48-1.06,3,3,0,0,1,2.8-2H331a.42.42,0,0,0,.42-.42V26.51a.42.42,0,0,0-.42-.42Z"/><rect class="cls-8" x="125.54" y="-23.84" width="147.49" height="255.83" rx="0.92" ry="0.92" transform="translate(303.36 -95.22) rotate(90)"/><path class="cls-6" d="M326.2,31.33V176.81H72.37V31.33H326.2m.08-1h-254a.92.92,0,0,0-.92.91V176.9a.92.92,0,0,0,.92.91h254a.92.92,0,0,0,.92-.91V31.24a.92.92,0,0,0-.92-.91Z"/><path class="cls-6" d="M326.2,31.33V176.81H72.37V31.33H326.2m.08-1h-254a.92.92,0,0,0-.92.91V176.9a.92.92,0,0,0,.92.91h254a.92.92,0,0,0,.92-.91V31.24a.92.92,0,0,0-.92-.91Z"/><path class="cls-6" d="M326.2,31.33V176.81H72.37V31.33H326.2m.08-1h-254a.92.92,0,0,0-.92.91V176.9a.92.92,0,0,0,.92.91h254a.92.92,0,0,0,.92-.91V31.24a.92.92,0,0,0-.92-.91Z"/><path class="cls-9" d="M100.28,104.07l-17,20.16,17,20.17-17,20.18,11.17,13.24H72.29a.92.92,0,0,1-.92-.92V31.25a.92.92,0,0,1,.92-.92H94.43L83.26,43.57l17,20.16-17,20.17Z"/><polygon class="cls-9" points="136.11 104.07 119.1 124.23 136.11 144.4 119.1 164.58 130.27 177.82 94.43 177.82 83.26 164.58 100.28 144.4 83.26 124.23 100.28 104.07 83.26 83.9 100.28 63.73 83.26 43.57 94.43 30.33 130.27 30.33 119.1 43.57 136.11 63.73 119.1 83.9 136.11 104.07"/><polygon class="cls-9" points="171.96 104.07 154.94 124.23 171.96 144.4 154.94 164.58 166.11 177.82 130.27 177.82 119.1 164.58 136.12 144.4 119.1 124.23 136.12 104.07 119.1 83.9 136.12 63.73 119.1 43.57 130.27 30.33 166.11 30.33 154.94 43.57 171.96 63.73 154.94 83.9 171.96 104.07"/><polygon class="cls-9" points="207.79 104.07 190.78 124.23 207.79 144.4 190.78 164.58 201.95 177.82 166.11 177.82 154.94 164.58 171.96 144.4 154.94 124.23 171.96 104.07 154.94 83.9 171.96 63.73 154.94 43.57 166.11 30.33 201.95 30.33 190.78 43.57 207.79 63.73 190.78 83.9 207.79 104.07"/><polygon class="cls-9" points="243.63 104.07 226.62 124.23 243.63 144.4 226.62 164.58 237.79 177.82 201.95 177.82 190.79 164.58 207.8 144.4 190.79 124.23 207.8 104.07 190.79 83.9 207.8 63.73 190.79 43.57 201.95 30.33 237.79 30.33 226.62 43.57 243.63 63.73 226.62 83.9 243.63 104.07"/><polygon class="cls-9" points="279.47 104.07 262.46 124.23 279.47 144.4 262.46 164.58 273.63 177.82 237.79 177.82 226.62 164.58 243.63 144.4 226.62 124.23 243.63 104.07 226.62 83.9 243.63 63.73 226.62 43.57 237.79 30.33 273.63 30.33 262.46 43.57 279.47 63.73 262.46 83.9 279.47 104.07"/><polygon class="cls-9" points="315.32 104.07 298.3 124.23 315.32 144.4 298.3 164.58 309.47 177.82 273.63 177.82 262.47 164.58 279.48 144.4 262.47 124.23 279.48 104.07 262.47 83.9 279.48 63.73 262.47 43.57 273.63 30.33 309.47 30.33 298.3 43.57 315.32 63.73 298.3 83.9 315.32 104.07"/><path class="cls-10" d="M100.28,104.07l-17,20.16,17,20.17-17,20.18,11.17,13.24H72.29a.92.92,0,0,1-.92-.92V31.25a.92.92,0,0,1,.92-.92H94.43L83.26,43.57l17,20.16-17,20.17Z"/><polygon class="cls-10" points="171.96 104.07 154.94 124.23 171.96 144.4 154.94 164.58 166.11 177.82 130.27 177.82 119.1 164.58 136.12 144.4 119.1 124.23 136.12 104.07 119.1 83.9 136.12 63.73 119.1 43.57 130.27 30.33 166.11 30.33 154.94 43.57 171.96 63.73 154.94 83.9 171.96 104.07"/><polygon class="cls-10" points="243.63 104.07 226.62 124.23 243.63 144.4 226.62 164.58 237.79 177.82 201.95 177.82 190.79 164.58 207.8 144.4 190.79 124.23 207.8 104.07 190.79 83.9 207.8 63.73 190.79 43.57 201.95 30.33 237.79 30.33 226.62 43.57 243.63 63.73 226.62 83.9 243.63 104.07"/><polygon class="cls-10" points="315.32 104.07 298.3 124.23 315.32 144.4 298.3 164.58 309.47 177.82 273.63 177.82 262.47 164.58 279.48 144.4 262.47 124.23 279.48 104.07 262.47 83.9 279.48 63.73 262.47 43.57 273.63 30.33 309.47 30.33 298.3 43.57 315.32 63.73 298.3 83.9 315.32 104.07"/><path class="cls-9" d="M327.21,31.25V176.9a.92.92,0,0,1-.92.92H309.47l-11.16-13.24,17-20.18-17-20.17,17-20.16-17-20.17,17-20.17-17-20.16,11.16-13.24h16.82A.92.92,0,0,1,327.21,31.25Z"/><path class="cls-6" d="M199.23,85a17,17,0,0,1,6.68,1.19,14.55,14.55,0,0,1,4.63,3.09,15.54,15.54,0,0,1,3,4.23,24.66,24.66,0,0,1,1.66,4.61,29,29,0,0,1,.73,4.29c.11,1.34.17,2.4.17,3.17s-.06,1.89-.17,3.21a30.1,30.1,0,0,1-.73,4.29,24.66,24.66,0,0,1-1.66,4.64,15,15,0,0,1-3,4.22,14.67,14.67,0,0,1-4.63,3.09,19,19,0,0,1-13.3,0,14.35,14.35,0,0,1-4.61-3.09,15,15,0,0,1-2.94-4.22,26.16,26.16,0,0,1-1.66-4.64,24.38,24.38,0,0,1-.73-4.29q-.15-2-.15-3.21c0-.77,0-1.83.15-3.17a23.64,23.64,0,0,1,.73-4.29A26.17,26.17,0,0,1,185,93.5,15.18,15.18,0,0,1,188,89.27a14.68,14.68,0,0,1,4.61-3.09A16.72,16.72,0,0,1,199.23,85Zm11.31,20.67a23.25,23.25,0,0,0-1.28-8.55,12.88,12.88,0,0,0-3.08-4.78,8.65,8.65,0,0,0-3.72-2.09,14.15,14.15,0,0,0-3.2-.47,13.94,13.94,0,0,0-3.14.47,8.68,8.68,0,0,0-3.73,2.09,12.88,12.88,0,0,0-3.08,4.78,23.25,23.25,0,0,0-1.28,8.55,23.72,23.72,0,0,0,1.16,8.15,12.91,12.91,0,0,0,2.88,4.75,8.54,8.54,0,0,0,3.67,2.18,13.63,13.63,0,0,0,3.52.52,13.89,13.89,0,0,0,3.54-.52,8.52,8.52,0,0,0,3.7-2.18,12.91,12.91,0,0,0,2.88-4.75A23.72,23.72,0,0,0,210.54,105.66Z"/><path class="cls-6" d="M162.52,125.75v-9.27H142.16v-5.25L160.48,85.4h6.35L148.7,111.29h13.82v-6.82l5.54-.94v7.76h6.3l-1.93,5.19h-4.37v9.27Z"/><path class="cls-6" d="M244.57,125.75v-9.27H224.22v-5.25L242.53,85.4h6.36l-18.14,25.89h13.82v-6.82l5.54-.94v7.76h6.3l-1.93,5.19h-4.37v9.27Z"/><path class="cls-6" d="M326.2,31.33V176.81H72.37V31.33H326.2m.08-1h-254a.92.92,0,0,0-.92.91V176.9a.92.92,0,0,0,.92.91h254a.92.92,0,0,0,.92-.91V31.24a.92.92,0,0,0-.92-.91Z"/><path class="cls-6" d="M326.2,31.33V176.81H72.37V31.33H326.2m.08-1h-254a.92.92,0,0,0-.92.91V176.9a.92.92,0,0,0,.92.91h254a.92.92,0,0,0,.92-.91V31.24a.92.92,0,0,0-.92-.91Z"/><path class="cls-5" d="M367.88,214.57H313.65a.51.51,0,0,1-.5-.5.5.5,0,0,1,.5-.5h54.23a.5.5,0,0,1,.5.5A.5.5,0,0,1,367.88,214.57Z"/><path class="cls-5" d="M296.85,214.57H30.69a.51.51,0,0,1-.5-.5.5.5,0,0,1,.5-.5H296.85a.5.5,0,0,1,.5.5A.51.51,0,0,1,296.85,214.57Z"/><path class="cls-5" d="M342.79,230.22h-287a.5.5,0,0,1-.5-.5.5.5,0,0,1,.5-.5h287a.5.5,0,0,1,.5.5A.51.51,0,0,1,342.79,230.22Z"/><path class="cls-6" d="M398.07,198.92H.5a.5.5,0,0,1,0-1H398.07a.5.5,0,0,1,0,1Z"/></svg>