<svg id="Layer_1" xmlns="http://www.w3.org/2000/svg" viewBox="0 0 399 217">
  <style>
    .st1{fill:#d7dce5}.st2{fill:#0b2231}.st5{fill:#002133}
  </style>
  <path d="M48 200.1c2.8-7.9 5.5-15.6 10.8-21.8 13.6-15.8 23.7-21.1 22.6-39.9-1-15.9-9.7-29.1 2.2-53.5 12.4-25.2 48-19.9 85-66.1C183.8-.1 218.7-8 253.9 10.7c13 6.9 23.9 17.3 31.3 30.1 12.2 21.3 4.5 33.9 9.2 56.8 7.7 37.8 42.2 38.9 52.9 70.7 3.3 10.3 4.2 21.1 2.6 31.8H48z" opacity=".9" fill="#f2f2f2"/>
  <path class="st1" d="M367.9 216.3h-54.2c-.3 0-.5-.2-.5-.5s.2-.5.5-.5h54.2c.3 0 .5.2.5.5s-.2.5-.5.5zm-71 0H30.7c-.3 0-.5-.2-.5-.5s.2-.5.5-.5h266.2c.3 0 .5.2.5.5-.1.3-.3.5-.5.5z"/>
  <path class="st2" d="M398.1 200.7H.5c-.3 0-.5-.2-.5-.5s.2-.5.5-.5h397.6c.3 0 .5.2.5.5s-.3.5-.5.5z"/>
  <path d="M89.3 23.6h227.5c7.5 0 13.6 6.1 13.6 13.6V165c0 7.5-6.1 13.6-13.6 13.6H89.3c-7.5 0-13.6-6.1-13.6-13.6V37.2c0-7.5 6.1-13.6 13.6-13.6z" fill="#004366"/>
  <path class="st2" d="M316.8 179.3H89.2c-7.9 0-14.2-6.4-14.2-14.2V37.2C75 29.4 81.4 23 89.3 23h227.6c7.9 0 14.2 6.4 14.2 14.2v127.9c0 7.9-6.4 14.2-14.3 14.2zM89.3 24.3c-7.2 0-13 5.8-13 12.9v127.9c0 7.2 5.8 13 13 13h227.6c7.2 0 13-5.8 13-13V37.2c0-7.2-5.8-13-13-13H89.3z"/>
  <path d="M330.4 165.1V58.6c-3.3-2.6-7-4.7-10.9-6.3-48.3-20-66.8 50.8-119.9 68.5-36.7 12.3-85.7-14.8-123.9 32V165c0 7.5 6.1 13.6 13.6 13.6h227.6c7.4.1 13.5-6 13.5-13.5z" opacity=".2" fill="#0b2231"/>
  <path class="st1" d="M100.5 47.3h23.2c3.4 0 6.1 2.7 6.1 6.1v23.2c0 3.4-2.7 6.1-6.1 6.1h-23.2c-3.4 0-6.1-2.7-6.1-6.1V53.4c.1-3.4 2.8-6.1 6.1-6.1z"/>
  <path class="st2" d="M123.7 83.3h-23.2c-3.7 0-6.7-3-6.7-6.7V53.3c0-3.7 3-6.7 6.7-6.7h23.2c3.7 0 6.7 3 6.7 6.7v23.2c.1 3.7-2.9 6.7-6.7 6.8.1 0 .1 0 0 0zm-23.2-35.4c-3 0-5.4 2.4-5.4 5.4v23.2c0 3 2.4 5.4 5.4 5.4h23.2c3 0 5.4-2.4 5.4-5.4V53.3c0-3-2.4-5.4-5.4-5.4h-23.2z"/>
  <path class="st5" d="M107.8 83c-.3 0-.6-.3-.6-.6V58.5H94.8c-.3 0-.6-.3-.6-.6s.3-.6.6-.6h12.9c.3 0 .6.3.6.6v24.6c.1.2-.2.5-.5.5z"/>
  <path class="st5" d="M107.6 67.2H94.8c-.3 0-.6-.3-.6-.6s.3-.6.6-.6h12.8c.3 0 .6.3.6.6s-.3.6-.6.6zm0 7.5H94.8c-.3 0-.6-.3-.6-.6s.3-.6.6-.6h12.8c.3 0 .6.3.6.6s-.3.6-.6.6zm21.8-1.6h-12.9c-.3 0-.6-.3-.6-.6V47.9c0-.3.3-.6.6-.6s.6.3.6.6v23.9h12.3c.3 0 .6.3.6.6 0 .4-.3.7-.6.7z"/>
  <path class="st5" d="M129.4 64.4h-12.8c-.3 0-.6-.3-.6-.6s.3-.6.6-.6h12.8c.3 0 .6.3.6.6s-.3.6-.6.6zm0-7.5h-12.8c-.3 0-.6-.3-.6-.6s.3-.6.6-.6h12.8c.3 0 .6.3.6.6s-.3.6-.6.6z"/>
</svg>