<?xml version="1.0" encoding="UTF-8"?>
<svg width="114px" height="9px" viewBox="0 0 114 9" version="1.1" xmlns="http://www.w3.org/2000/svg" xmlns:xlink="http://www.w3.org/1999/xlink">
    <!-- Generator: Sketch 48.1 (47250) - http://www.bohemiancoding.com/sketch -->
    <title>Shape</title>
    <desc>Created with Sketch.</desc>
    <defs></defs>
    <g id="Page-1" stroke="none" stroke-width="1" fill="none" fill-rule="evenodd">
        <g id="card_amex" transform="translate(-170.000000, -63.000000)" fill="#FFFFFF">
            <path d="M175.59,68.19 L174.4,65.19 L173.21,68.19 L175.59,68.19 Z M201.82,67 C201.556003,67.1387677 201.25624,67.1945376 200.96,67.16 L198.85,67.16 L198.85,65.46 L201,65.46 C201.279833,65.4361312 201.561271,65.4807493 201.82,65.59 C202.063456,65.7220508 202.207903,65.9836165 202.19,66.26 C202.217391,66.5490642 202.077686,66.8284743 201.83,66.98 L201.82,67 Z M216.9,68.21 L215.69,65.21 L214.5,68.21 L216.9,68.21 Z M188.79,71.48 L187,71.48 L187,65.52 L184.48,71.46 L183,71.46 L180.47,65.52 L180.47,71.46 L176.93,71.46 L176.27,69.77 L172.64,69.77 L171.97,71.46 L170,71.46 L173.11,63.88 L175.7,63.88 L178.7,71.05 L178.7,63.88 L181.54,63.88 L183.8,69 L185.9,63.86 L188.79,63.86 L188.79,71.44 L188.79,71.48 Z M195.9,71.48 L190.09,71.48 L190.09,63.88 L195.9,63.88 L195.9,65.46 L191.83,65.46 L191.83,66.82 L195.83,66.82 L195.83,68.38 L191.83,68.38 L191.83,69.89 L195.9,69.89 L195.9,71.46 L195.9,71.48 Z M204.1,65.94 C204.124974,66.7921533 203.641773,67.577846 202.87,67.94 C203.209565,68.0711 203.506913,68.2923828 203.73,68.58 C203.977364,69.0094139 204.072501,69.5097667 204,70 L204,71.49 L202.24,71.49 L202.24,70.49 C202.325997,69.9804548 202.241645,69.4567706 202,69 C201.75,68.74 201.36,68.68 200.73,68.68 L198.87,68.68 L198.87,71.44 L197.13,71.44 L197.13,63.88 L201.13,63.88 C201.852856,63.8095896 202.581385,63.9338885 203.24,64.24 C203.83027,64.5858263 204.171805,65.2378487 204.12,65.92 L204.1,65.94 Z M206.88,71.48 L205.11,71.48 L205.11,63.88 L206.88,63.88 L206.88,71.46 L206.88,71.48 Z M227.48,71.48 L225,71.48 L221.7,65.79 L221.7,71.48 L218.16,71.48 L217.48,69.79 L213.87,69.79 L213.21,71.48 L211.21,71.48 C210.293497,71.5324954 209.391705,71.2318981 208.69,70.64 C208.004401,69.8406891 207.669233,68.799145 207.76,67.75 C207.667778,66.665422 208.005361,65.5880281 208.7,64.75 C209.417422,64.0990274 210.375479,63.779675 211.34,63.87 L213,63.87 L213,65.5 L211.35,65.5 C210.846793,65.4481502 210.348032,65.6328764 210,66 C209.630828,66.4940084 209.453194,67.1050679 209.5,67.72 C209.443585,68.3515045 209.613735,68.9824765 209.98,69.5 C210.313923,69.7884122 210.750506,69.9291288 211.19,69.89 L212,69.89 L214.45,63.89 L217,63.89 L220,71.06 L220,63.88 L222.64,63.88 L225.7,69.16 L225.7,63.88 L227.49,63.88 L227.49,71.46 L227.48,71.48 Z M275.68,67.46 C276.06301,67.9047777 276.25048,68.4852131 276.2,69.07 C276.2,70.7 275.2,71.46 273.46,71.46 L270.06,71.46 L270.06,69.83 L273.45,69.83 C273.702205,69.859089 273.956032,69.7911634 274.16,69.64 C274.299675,69.5112564 274.379131,69.3299579 274.379131,69.14 C274.379131,68.9500421 274.299675,68.7687436 274.16,68.64 C273.982618,68.5062532 273.760791,68.4454298 273.54,68.47 C271.91,68.41 269.86,68.47 269.86,66.13 C269.839663,65.4813445 270.105463,64.8565347 270.586883,64.4213309 C271.068303,63.9861272 271.71668,63.7845218 272.36,63.87 L275.86,63.87 L275.86,65.48 L272.66,65.48 C272.414621,65.453785 272.167061,65.5025997 271.95,65.62 C271.767142,65.7577221 271.670211,65.9814797 271.694815,66.209074 C271.71942,66.4366683 271.861933,66.6345401 272.07,66.73 C272.28933,66.8010055 272.51975,66.8315024 272.75,66.82 L273.7,66.82 C274.420535,66.7563845 275.137614,66.9750936 275.7,67.43 L275.68,67.46 Z M282.51,67.46 C282.89301,67.9047777 283.08048,68.4852131 283.03,69.07 C283.03,70.7 282.03,71.46 280.28,71.46 L276.88,71.46 L276.88,69.83 L280.27,69.83 C280.522205,69.859089 280.776032,69.7911634 280.98,69.64 C281.115785,69.513461 281.192013,69.3355956 281.19,69.15 C281.196191,68.9606975 281.119504,68.7781105 280.98,68.65 C280.79866,68.5165192 280.573872,68.4558621 280.35,68.48 C278.72,68.42 276.67,68.48 276.67,66.14 C276.649663,65.4913445 276.915463,64.8665347 277.396883,64.4313309 C277.878303,63.9961272 278.52668,63.7945218 279.17,63.88 L282.68,63.88 L282.68,65.49 L279.47,65.49 C279.227751,65.461925 278.982816,65.510912 278.77,65.63 C278.586424,65.7495239 278.485849,65.962278 278.51,66.18 C278.500157,66.4298005 278.654235,66.6568624 278.89,66.74 C279.108968,66.8125917 279.339687,66.8431281 279.57,66.83 L280.51,66.83 C281.230203,66.7695308 281.946133,66.9878894 282.51,67.44 L282.51,67.46 Z M259.91,67 C259.644641,67.1347964 259.346083,67.1903421 259.05,67.16 L256.93,67.16 L256.93,65.46 L259.08,65.46 C259.363249,65.4309935 259.649184,65.4757785 259.91,65.59 C260.152821,65.7315224 260.292832,65.9998763 260.27,66.28 C260.28619,66.5668626 260.149204,66.8408348 259.91,67 Z M260.97,68 C261.309468,68.1211948 261.605304,68.3404615 261.82,68.63 C262.065465,69.04572 262.167369,69.5306409 262.11,70.01 L262.11,71.52 L260.36,71.52 L260.36,70.57 C260.433869,70.0592557 260.335341,69.5384614 260.08,69.09 C259.82,68.81 259.43,68.75 258.79,68.75 L256.93,68.75 L256.93,71.52 L255.17,71.52 L255.17,63.88 L259.17,63.88 C259.889364,63.8161281 260.612984,63.9401773 261.27,64.24 C261.867972,64.580464 262.217846,65.2335623 262.17,65.92 C262.19587,66.775206 261.707507,67.5628881 260.93,67.92 L260.97,68 Z M263.18,63.94 L269,63.94 L269,65.51 L264.91,65.51 L264.91,66.88 L268.91,66.88 L268.91,68.43 L264.91,68.43 L264.91,69.94 L269,69.94 L269,71.52 L263.17,71.52 L263.17,63.88 L263.18,63.94 Z M251.38,67.44 L249.13,67.44 L249.13,65.45 L251.41,65.45 C252.04,65.45 252.47,65.71 252.47,66.38 C252.471143,66.6615726 252.353524,66.9305792 252.146039,67.1209324 C251.938554,67.3112857 251.660432,67.4053441 251.38,67.38 L251.38,67.44 Z M247.38,70.83 L244.69,67.74 L247.38,64.74 L247.38,70.82 L247.38,70.83 Z M240.45,69.94 L236.15,69.94 L236.15,68.37 L240,68.37 L240,66.82 L236.16,66.82 L236.16,65.45 L240.54,65.45 L242.45,67.65 L240.45,69.88 L240.45,69.94 Z M254.34,66.44 C254.34,68.54 252.82,68.98 251.34,68.98 L249.16,68.98 L249.16,71.52 L245.76,71.52 L243.58,69 L241.34,71.51 L234.42,71.51 L234.42,63.88 L241.42,63.88 L243.57,66.36 L245.79,63.88 L251.38,63.88 C252.76,63.88 254.32,64.28 254.32,66.38 L254.34,66.44 Z" id="Shape"></path>
        </g>
    </g>
</svg>