<?xml version="1.0" encoding="UTF-8"?>
<svg width="32px" height="25px" viewBox="0 0 32 25" version="1.1" xmlns="http://www.w3.org/2000/svg" xmlns:xlink="http://www.w3.org/1999/xlink">
    <!-- Generator: Sketch 48.1 (47250) - http://www.bohemiancoding.com/sketch -->
    <title>Group</title>
    <desc>Created with Sketch.</desc>
    <defs></defs>
    <g id="Page-1" stroke="none" stroke-width="1" fill="none" fill-rule="evenodd">
        <g id="card_mastercard" transform="translate(-252.000000, -127.000000)" fill-rule="nonzero">
            <g id="Group" transform="translate(252.000000, 127.000000)">
                <path d="M6.28,24.47 L6.28,22.89 C6.32051046,22.3830651 5.94631854,21.9375985 5.44,21.89 L5.3,21.89 C4.94436638,21.8708104 4.60536569,22.0422152 4.41,22.34 C4.23570465,22.0502745 3.91789795,21.8779696 3.58,21.89 C3.278245,21.8778668 2.99134641,22.0213161 2.82,22.27 L2.82,22 L2.29,22 L2.29,24.53 L2.81,24.53 L2.81,23 C2.77496825,22.6661229 3.01630118,22.3666913 3.35,22.33 L3.45,22.33 C3.81,22.33 4.02,22.57 4.02,23 L4.02,24.46 L4.53,24.46 L4.53,23 C4.50081373,22.6643175 4.74506408,22.3667762 5.08,22.33 L5.17,22.33 C5.55,22.33 5.75,22.57 5.75,23 L5.75,24.46 L6.28,24.47 Z M14.53,21.95 L13.61,21.95 L13.61,21.18 L13.09,21.18 L13.09,22 L12.56,22 L12.56,22.46 L13.09,22.46 L13.09,23.66 C13.09,24.24 13.3,24.59 13.95,24.59 C14.1931771,24.5919392 14.432094,24.5261505 14.64,24.4 L14.48,23.95 C14.3285737,24.0312101 14.1614729,24.0789532 13.99,24.09 C13.73,24.09 13.61,23.92 13.61,23.67 L13.61,22.4 L14.53,22.4 L14.53,21.95 Z M19.23,21.88 C18.9521702,21.8784755 18.6924657,22.0177374 18.54,22.25 L18.54,22 L18,22 L18,24.53 L18.51,24.53 L18.51,23.1 C18.51,22.68 18.71,22.41 19.07,22.41 C19.1893119,22.4089595 19.3078471,22.4292798 19.42,22.47 L19.59,22 C19.4622286,21.9518168 19.326541,21.9280714 19.19,21.93 L19.23,21.88 Z M12.12,22.15 C11.8187393,21.9676357 11.4721069,21.8740449 11.12,21.88 C10.48,21.88 10.12,22.18 10.12,22.68 C10.12,23.18 10.4,23.34 10.97,23.42 L11.24,23.42 C11.54,23.47 11.7,23.57 11.7,23.72 C11.7,23.87 11.48,24.04 11.1,24.04 C10.7968495,24.0523988 10.4991512,23.95671 10.26,23.77 L10,24.17 C10.319292,24.3925031 10.7009108,24.5080391 11.09,24.5 C11.82,24.5 12.23,24.16 12.23,23.68 C12.23,23.2 11.92,23.01 11.37,22.93 L11.11,22.93 C10.87,22.93 10.66,22.82 10.66,22.66 C10.66,22.5 10.86,22.35 11.16,22.35 C11.4381734,22.3520501 11.7108074,22.4279735 11.95,22.57 L12.12,22.15 Z M19.8,23.21 C19.7716238,23.9041582 20.3062864,24.4922871 21,24.53 L21.13,24.53 C21.4602019,24.5475093 21.7849495,24.4404497 22.04,24.23 L21.77,23.83 C21.5823293,23.9790779 21.3496758,24.0601542 21.11,24.06 C20.639467,24.007509 20.2948004,23.5921415 20.33,23.12 C20.3670555,22.7055352 20.6955352,22.3770555 21.11,22.34 C21.3496758,22.3398458 21.5823293,22.4209221 21.77,22.57 L22.04,22.17 C21.7849495,21.9595503 21.4602019,21.8524907 21.13,21.87 C20.7940492,21.8509497 20.4644356,21.967067 20.2146046,22.1924784 C19.9647736,22.4178898 19.8154837,22.733866 19.8,23.07 L19.8,23.21 Z M16.24,21.88 C15.891263,21.8699869 15.5549244,22.0097549 15.3159928,22.2639782 C15.0770612,22.5182014 14.9583998,22.8625533 14.99,23.21 C14.9680843,23.5390337 15.0781328,23.863245 15.2958141,24.1109513 C15.5134953,24.3586575 15.8208779,24.509454 16.15,24.53 L16.28,24.53 C16.6459458,24.5351513 17.0013082,24.4072209 17.28,24.17 L17.02,23.8 C16.8105958,23.9692284 16.5492345,24.061058 16.28,24.06 C15.8947328,24.0781267 15.5618416,23.7934171 15.52,23.41 L17.41,23.41 L17.41,23.2 C17.4470927,22.8625476 17.3382928,22.5253182 17.1109783,22.273171 C16.8836639,22.0210239 16.5594788,21.8779675 16.22,21.88 L16.24,21.88 Z M16.24,22.35 C16.596968,22.3442238 16.8938188,22.6233522 16.91,22.98 L15.55,22.98 C15.5714885,22.6122905 15.8818415,22.3285392 16.25,22.34 L16.24,22.35 Z M9.38,23.21 L9.38,22 L8.87,22 L8.87,22.3 C8.67070509,22.0537416 8.36651056,21.9164831 8.05,21.93 C7.31546128,21.93 6.72,22.5254613 6.72,23.26 C6.72,23.9945387 7.31546128,24.59 8.05,24.59 C8.36651056,24.6035169 8.67070509,24.4662584 8.87,24.22 L8.87,24.53 L9.38,24.53 L9.38,23.21 Z M7.32,23.21 C7.29092903,22.7731576 7.61423709,22.3922741 8.05,22.35 L8.12,22.35 C8.59496488,22.35 8.98,22.7350351 8.98,23.21 C8.98,23.6849649 8.59496488,24.07 8.12,24.07 C7.90875172,24.0726742 7.70523354,23.9906244 7.55490992,23.8421798 C7.40458629,23.6937353 7.31998307,23.4912652 7.32,23.28 L7.32,23.21 Z M26.89,21.88 C26.609749,21.87877 26.3487739,22.0224954 26.2,22.26 L26.2,22 L25.7,22 L25.7,24.53 L26.21,24.53 L26.21,23.1 C26.21,22.68 26.41,22.41 26.77,22.41 C26.8859548,22.4101364 27.0010025,22.4304389 27.11,22.47 L27.28,22 C27.1559703,21.9508873 27.0233677,21.9270869 26.89,21.93 L26.89,21.88 Z M30.98,24.11 L31.08,24.11 C31.111109,24.1232664 31.1385537,24.1438499 31.16,24.17 L31.16,24.24 C31.1905025,24.3031777 31.1905025,24.3768223 31.16,24.44 C31.1648892,24.4664426 31.1648892,24.4935574 31.16,24.52 L31.08,24.57 C31.0472044,24.5784678 31.0127956,24.5784678 30.98,24.57 C30.8774107,24.5717357 30.7833947,24.5129757 30.74,24.42 C30.7094975,24.3568223 30.7094975,24.2831777 30.74,24.22 L30.79,24.15 C30.8114463,24.1238499 30.838891,24.1032664 30.87,24.09 L30.98,24.09 L30.98,24.11 Z M30.98,24.56 L31.05,24.56 C31.0740643,24.5489239 31.094766,24.5316724 31.11,24.51 C31.1785812,24.4369008 31.1785812,24.3230992 31.11,24.25 C31.11,24.25 31.11,24.25 31.05,24.25 L30.98,24.25 L30.9,24.25 L30.83,24.25 C30.769899,24.326247 30.769899,24.433753 30.83,24.51 C30.8489493,24.5320792 30.8729685,24.5492358 30.9,24.56 L30.98,24.56 Z M30.98,24.25 C31.0020952,24.23925 31.0279048,24.23925 31.05,24.25 C31.0561554,24.2660983 31.0561554,24.2839017 31.05,24.3 L30.99,24.3 L31.07,24.39 L31,24.39 L30.92,24.3 L30.92,24.39 L30.87,24.39 L30.87,24.16 L30.98,24.25 Z M30.92,24.25 L30.92,24.31 L31,24.31 C31,24.31 31,24.31 31,24.31 C31,24.31 31,24.31 31,24.31 L30.92,24.25 Z M24.92,23.17 L24.92,22 L24.41,22 L24.41,22.3 C24.2107051,22.0537416 23.9065106,21.9164831 23.59,21.93 C22.8554613,21.93 22.26,22.5254613 22.26,23.26 C22.26,23.9945387 22.8554613,24.59 23.59,24.59 C23.9065106,24.6035169 24.2107051,24.4662584 24.41,24.22 L24.41,24.53 L24.92,24.53 L24.92,23.17 Z M22.87,23.17 C22.8534681,22.9603401 22.9212179,22.7527422 23.0582408,22.593195 C23.1952637,22.4336478 23.3902482,22.3353222 23.6,22.32 L23.66,22.32 C24.0965703,22.367283 24.4273987,22.7358767 24.4273987,23.175 C24.4273987,23.6141233 24.0965703,23.982717 23.66,24.03 C23.4496586,24.0327144 23.247138,23.9503545 23.0983918,23.8016082 C22.9496455,23.652862 22.8672856,23.4503414 22.87,23.24 L22.87,23.18 L22.87,23.17 Z M30.04,23.17 L30.04,20.88 L29.53,20.88 L29.53,22.21 C29.3307051,21.9637416 29.0265106,21.8264831 28.71,21.84 C27.9754613,21.84 27.38,22.4354613 27.38,23.17 C27.38,23.9045387 27.9754613,24.5 28.71,24.5 C29.0265106,24.5135169 29.3307051,24.3762584 29.53,24.13 L29.53,24.43 L30.04,24.43 L30.04,23.17 Z M27.98,23.17 C27.9634681,22.9603401 28.0312179,22.7527422 28.1682408,22.593195 C28.3052637,22.4336478 28.5002482,22.3353222 28.71,22.32 L28.78,22.32 C29.1995363,22.3845429 29.509233,22.745528 29.509233,23.17 C29.509233,23.594472 29.1995363,23.9554571 28.78,24.02 C28.5687517,24.0226742 28.3652335,23.9406244 28.2149099,23.7921798 C28.0645863,23.6437353 27.9799831,23.4412652 27.98,23.23 L27.98,23.17 Z" id="_Compound_Path_" fill="#FFFFFF"></path>
                <g id="_Group_">
                    <rect id="Rectangle-path" fill="#FF5F00" x="11.95" y="2.65" width="8.34" height="14.99"></rect>
                    <path d="M12.48,10.15 C12.4790103,7.22408504 13.820742,4.45952806 16.12,2.65 C12.2112727,-0.41428708 6.60447808,0.0371507203 3.23637497,3.68734054 C-0.131728153,7.33753035 -0.131728153,12.9624696 3.23637497,16.6126595 C6.60447808,20.2628493 12.2112727,20.7142871 16.12,17.65 C13.814754,15.8453001 12.4715124,13.0776319 12.48,10.15 Z" id="_Path_2" fill="#EB001B"></path>
                    <path d="M30.64,16.06 L30.64,15.75 L30.77,15.75 L30.77,15.69 L30.45,15.69 L30.45,15.75 L30.58,15.75 L30.58,16.06 L30.64,16.06 Z M31.25,16.06 L31.25,15.69 L31.16,15.69 L31.05,15.95 L30.94,15.69 L30.84,15.69 L30.84,16.06 L30.91,16.06 L30.91,15.78 L31.01,16.02 L31.08,16.02 L31.18,15.78 L31.18,16.06 L31.25,16.06 Z" id="Shape" fill="#F79E1B"></path>
                    <path d="M31.54,10.15 C31.5392667,13.7984456 29.4556062,17.1262653 26.1738235,18.7203348 C22.8920407,20.3144044 18.9881896,19.8949156 16.12,17.64 C18.1084095,16.0792214 19.3944472,13.7917132 19.6945875,11.2817892 C19.9947279,8.77186533 19.284326,6.24561993 17.72,4.26 C17.2538052,3.66054457 16.7165392,3.11992069 16.12,2.65 C18.9875503,0.385502923 22.8981618,-0.0379662905 26.183989,1.56019869 C29.4698162,3.15836367 31.5510265,6.49614312 31.54,10.15 Z" id="Shape" fill="#F79E1B"></path>
                </g>
            </g>
        </g>
    </g>
</svg>