<?xml version="1.0" encoding="UTF-8"?>
<svg width="43px" height="15px" viewBox="0 0 43 15" version="1.1" xmlns="http://www.w3.org/2000/svg" xmlns:xlink="http://www.w3.org/1999/xlink">
    <!-- Generator: Sketch 48.1 (47250) - http://www.bohemiancoding.com/sketch -->
    <title>Group</title>
    <desc>Created with Sketch.</desc>
    <defs></defs>
    <g id="Page-1" stroke="none" stroke-width="1" fill="none" fill-rule="evenodd">
        <g id="card_visa" transform="translate(-241.000000, -136.000000)" fill="#FFFFFF">
            <g id="Group" transform="translate(241.000000, 136.000000)">
                <polygon id="Shape" points="13.34 14.2 17.3 1.15 20.83 1.15 16.87 14.2 13.34 14.2"></polygon>
                <path d="M11.76,1.15 L8.58,6.69 C7.94774684,7.65184401 7.44034545,8.69016873 7.07,9.78 C7.12,8.62 6.96,7.2 6.95,6.39 L6.59,1.15 L0.65,1.15 L0.59,1.51 C1.25759171,1.4492536 1.92106051,1.66357745 2.42695078,2.10339996 C2.93284106,2.54322248 3.23733307,3.17044665 3.27,3.84 L4.43,14.2 L8.09,14.2 L15.49,1.2 L11.76,1.15 Z" id="Shape"></path>
                <path d="M39.23,14.2 L39.13,12.26 L34.72,12.26 L33.82,14.2 L30,14.2 L36.95,1.2 L41.66,1.2 L42.84,14.2 L39.23,14.2 Z M38.82,6.5 C38.82,5.5 38.75,4.23 38.82,3.44 L38.77,3.44 C38.56,4.09 37.63,6.03 37.23,6.99 L35.91,9.85 L39,9.85 L38.82,6.5 Z" id="Shape"></path>
                <path d="M24.54,14.57 C22.657813,14.5901312 20.8088921,14.0732658 19.21,13.08 L20.89,10.51 C21.994158,11.3260137 23.3271264,11.7738351 24.7,11.79 C25.3169115,11.8531592 25.9166874,11.5629451 26.25,11.04 C26.74,10.19 26.13,9.74 24.75,8.96 L24.07,8.51 C22.07,7.11 21.14,5.79 22.07,3.51 C22.69,2.03 24.32,0.91 27,0.91 C28.6586252,0.937806657 30.2656855,1.49099951 31.59,2.49 L29.65,4.75 C28.9117789,4.03789845 27.9437987,3.61241266 26.92,3.55 C26.3307815,3.48723104 25.7535261,3.74718711 25.41,4.23 C25.04,4.96 25.53,5.45 26.6,6.12 L27.41,6.64 C29.9,8.2 30.49,9.85 29.87,11.38 C28.8,14.02 26.7,14.61 24.51,14.61 L24.54,14.57 Z" id="Shape"></path>
            </g>
        </g>
    </g>
</svg>