<?xml version="1.0" encoding="UTF-8"?>
<svg width="76px" height="13px" viewBox="0 0 76 13" version="1.1" xmlns="http://www.w3.org/2000/svg" xmlns:xlink="http://www.w3.org/1999/xlink">
    <!-- Generator: Sketch 48.1 (47250) - http://www.bohemiancoding.com/sketch -->
    <title>Group</title>
    <desc>Created with Sketch.</desc>
    <defs>
        <radialGradient cx="50.0295646%" cy="48.8958083%" fx="50.0295646%" fy="48.8958083%" r="49.4452877%" gradientTransform="translate(0.500296,0.488958),scale(1.000000,0.999928),translate(-0.500296,-0.488958)" id="radialGradient-1">
            <stop stop-color="#FFEEE0" offset="1%"></stop>
            <stop stop-color="#FEE9D7" offset="11%"></stop>
            <stop stop-color="#FDDBBF" offset="28%"></stop>
            <stop stop-color="#FBC597" offset="49%"></stop>
            <stop stop-color="#F8A560" offset="74%"></stop>
            <stop stop-color="#F48120" offset="100%"></stop>
        </radialGradient>
    </defs>
    <g id="Page-1" stroke="none" stroke-width="1" fill="none" fill-rule="evenodd">
        <g id="card_discover" transform="translate(-209.000000, -61.000000)" fill-rule="nonzero">
            <g id="Group" transform="translate(209.000000, 61.000000)">
                <path d="M39.68,0.35 C38.032931,0.320566388 36.4416553,0.946767798 35.2563683,2.09079473 C34.0710814,3.23482167 33.3889168,4.80292182 33.36,6.45 C33.2703334,9.0243288 34.7520032,11.3954822 37.1051074,12.4433894 C39.4582116,13.4912966 42.2118345,13.0062448 44.0652366,11.2173599 C45.9186387,9.42847491 46.5009074,6.69375793 45.5369943,4.30501762 C44.5730811,1.91627731 42.2558894,0.351561117 39.68,0.35 Z" id="Shape" fill="url(#radialGradient-1)"></path>
                <path d="M3.76,0.58 L0.36,0.58 L0.36,12.44 L3.75,12.44 C5.28815091,12.5309443 6.80453527,12.0421333 8,11.07 C9.35146097,9.93942684 10.1376587,8.27195633 10.15,6.51 C10.13,3 7.51,0.58 3.76,0.58 Z M6.47,9.49 C5.57672295,10.2054524 4.43889431,10.5428527 3.3,10.43 L2.68,10.43 L2.68,2.59 L3.3,2.59 C4.44836089,2.48148696 5.5917741,2.84218513 6.47,3.59 C7.30351258,4.3627279 7.7689348,5.45356122 7.75,6.59 C7.73277988,7.68992604 7.27104725,8.73603904 6.47,9.49 Z M11.2,0.58 L13.51,0.58 L13.51,12.44 L11.2,12.44 L11.2,0.58 Z M19.17,5.13 C17.78,4.61 17.37,4.27 17.37,3.64 C17.37,3.01 18.1,2.32 19.1,2.32 C19.8447791,2.34494042 20.5357195,2.71442726 20.97,3.32 L22.18,1.74 C21.2215395,0.88090445 19.9770882,0.410223713 18.69,0.42 C17.7440159,0.362701961 16.8154066,0.692582833 16.1175759,1.33383264 C15.4197453,1.97508244 15.012706,2.87255428 14.99,3.82 C14.99,5.45 15.73,6.29 17.91,7.07 C18.4646304,7.24286538 19.0006208,7.47066127 19.51,7.75 C19.9417368,8.00873627 20.2042463,8.47668786 20.2,8.98 C20.1954896,9.44445924 20.0000174,9.88658849 19.6595139,10.2025001 C19.3190105,10.5184116 18.8634948,10.6802544 18.4,10.65 C17.3051284,10.6550926 16.3131289,10.0055691 15.88,9 L14.38,10.44 C15.2388346,11.8828725 16.8115468,12.7476728 18.49,12.7 C19.5623102,12.7731913 20.6160289,12.3924464 21.3938837,11.6507267 C22.1717384,10.909007 22.6021389,9.87457709 22.58,8.8 C22.58,6.94 21.8,6.09 19.17,5.13 Z M23.31,6.51 C23.2961803,8.1707409 23.9546244,9.76647299 25.1355598,10.9342242 C26.3164953,12.1019753 27.9195189,12.7424633 29.58,12.71 C30.587153,12.7084916 31.5800903,12.472241 32.48,12.02 L32.48,9.29 C31.7798292,10.1095063 30.7578653,10.5839896 29.68,10.59 C28.5919498,10.6283715 27.5380633,10.2066592 26.7768288,9.42829697 C26.0155944,8.64993475 25.6174322,7.58692728 25.68,6.5 C25.6422459,5.4413404 26.0323871,4.41207626 26.7623973,3.64443664 C27.4924075,2.87679702 28.5007802,2.43545899 29.56,2.42 C30.6739445,2.43081846 31.7297974,2.91869534 32.46,3.76 L32.46,1 C31.5873694,0.518685116 30.6065649,0.267461511 29.61,0.27 C27.9446778,0.253986544 26.3420517,0.904337118 25.1588156,2.07630426 C23.9755796,3.2482714 23.309923,4.84460079 23.31,6.51 Z M51.23,8.55 L48.06,0.58 L45.53,0.58 L50.57,12.74 L51.82,12.74 L56.94,0.58 L54.43,0.58 L51.23,8.55 Z M57.99,12.44 L64.56,12.44 L64.56,10.43 L60.31,10.43 L60.31,7.23 L64.39,7.23 L64.39,5.22 L60.31,5.22 L60.31,2.59 L64.56,2.59 L64.56,0.58 L57.99,0.58 L57.99,12.44 Z M73.72,4.08 C73.72,1.86 72.19,0.58 69.52,0.58 L66.08,0.58 L66.08,12.44 L68.4,12.44 L68.4,7.67 L68.7,7.67 L71.9,12.44 L74.75,12.44 L71.01,7.44 C72.6593806,7.21224824 73.8466521,5.7402067 73.72,4.08 Z M69.07,6.08 L68.4,6.08 L68.4,2.48 L69.11,2.48 C70.55,2.48 71.34,3.09 71.34,4.24 C71.34,5.39 70.55,6 69.07,6 L69.07,6.08 Z M75.35,1.46 C75.35,1.25 75.21,1.14 74.95,1.14 L74.62,1.14 L74.62,2.14 L74.87,2.14 L74.87,1.73 L75.16,2.14 L75.47,2.14 L75.12,1.7 C75.240998,1.67908684 75.3342523,1.58177804 75.35,1.46 Z M74.91,1.6 L74.91,1.33 C75.04,1.33 75.1,1.38 75.1,1.46 C75.1,1.54 75,1.6 74.91,1.6 Z" id="Shape" fill="#FFFFFF"></path>
            </g>
        </g>
    </g>
</svg>