<svg id="Layer_1" data-name="Layer 1" xmlns="http://www.w3.org/2000/svg" viewBox="0 0 398.57 231.53"><defs><style>.cls-1{fill:#f2f2f2;opacity:0.9;isolation:isolate;}.cls-2{fill:#d7dce5;}.cls-3{fill:#0b2231;}.cls-4{fill:#fff;}.cls-5{opacity:0.25;}</style></defs><title>Artboard 1</title><path class="cls-1" d="M93.59,199.69h202.1q3.78-2.19,7.53-4.64c32.75-21.32,52.64-42.29,39.25-84.54C314.41,22,250.19-5.5,177,.88,107.85,6.9,51.38,60.66,49.2,111.26,48,138.82,52.8,153.66,67.93,166,83.42,178.54,87.52,189,93.59,199.69Z"/><path class="cls-2" d="M367.88,215.88H313.65a.5.5,0,0,1-.5-.5.52.52,0,0,1,.5-.5h54.23a.5.5,0,0,1,0,1Z"/><path class="cls-2" d="M296.85,215.88H30.69a.5.5,0,0,1-.5-.5.52.52,0,0,1,.5-.5H296.85a.52.52,0,0,1,.5.5A.5.5,0,0,1,296.85,215.88Z"/><path class="cls-2" d="M342.79,231.53h-287a.5.5,0,0,1-.5-.5.52.52,0,0,1,.5-.5h287a.52.52,0,0,1,.5.5A.5.5,0,0,1,342.79,231.53Z"/><path class="cls-3" d="M398.07,200.23H.5a.5.5,0,0,1,0-1H398.07a.5.5,0,0,1,0,1Z"/><path class="cls-3" d="M267.68,87.86a1.36,1.36,0,0,1-.19.74,1.84,1.84,0,0,1-.5.54,2.35,2.35,0,0,1-.67.34,2.84,2.84,0,0,1-.7.16l-.06.61h-.81l.05-.62a4,4,0,0,1-.82-.21,2.66,2.66,0,0,1-.75-.43l.19-1.11a2.16,2.16,0,0,0,.65.51,3,3,0,0,0,.81.27l.19-1.91c-.17-.07-.36-.15-.55-.25a2.18,2.18,0,0,1-.54-.35,1.76,1.76,0,0,1-.41-.49,1.27,1.27,0,0,1-.16-.66,1.39,1.39,0,0,1,.17-.72,1.5,1.5,0,0,1,.45-.52,1.92,1.92,0,0,1,.64-.32,2.54,2.54,0,0,1,.72-.13l.05-.6h.83l-.07.65a4.31,4.31,0,0,1,.61.19,2.12,2.12,0,0,1,.56.33l-.15.87-.13-.11-.21-.14-.32-.14a2.18,2.18,0,0,0-.44-.11L266,86a3.54,3.54,0,0,1,1.31.8A1.39,1.39,0,0,1,267.68,87.86ZM264.46,85a.51.51,0,0,0,.19.4,1.63,1.63,0,0,0,.51.3l.13-1.4a1.69,1.69,0,0,0-.58.26A.52.52,0,0,0,264.46,85Zm1.24,3.65a1.81,1.81,0,0,0,.63-.25.55.55,0,0,0,.27-.48.71.71,0,0,0-.14-.42,1.83,1.83,0,0,0-.6-.39Z"/><rect class="cls-4" x="54.98" y="24.33" width="288.61" height="131.7" rx="3.06" ry="3.06"/><path class="cls-3" d="M340.53,156.53H58A3.57,3.57,0,0,1,54.48,153V27.39A3.56,3.56,0,0,1,58,23.83H340.53a3.56,3.56,0,0,1,3.56,3.56V153A3.57,3.57,0,0,1,340.53,156.53ZM58,24.83a2.56,2.56,0,0,0-2.56,2.56h0V153A2.57,2.57,0,0,0,58,155.53H340.53a2.57,2.57,0,0,0,2.56-2.57V27.39a2.56,2.56,0,0,0-2.56-2.56Z"/><g class="cls-5"><path class="cls-3" d="M339.45,152.48H58.74a.5.5,0,0,1-.5-.5V28.18a.5.5,0,0,1,.5-.5H339.45a.5.5,0,0,1,.5.5V152A.5.5,0,0,1,339.45,152.48Zm-280.21-1H339V28.68H59.24Z"/><path class="cls-3" d="M334.94,148.53H63.26a.5.5,0,0,1-.5-.5V32.13a.5.5,0,0,1,.5-.5H334.94a.52.52,0,0,1,.5.5V148a.5.5,0,0,1-.47.53Zm-271.18-1H334.44V32.63H63.76Z"/></g><path class="cls-3" d="M261,83.9H69.47a.5.5,0,0,1,0-1h191V75.12a.5.5,0,0,1,1,0V83.4A.51.51,0,0,1,261,83.9Z"/><path class="cls-3" d="M292.42,61.89h-73a.5.5,0,0,1,0-1h73a.5.5,0,0,1,0,1Z"/><path class="cls-3" d="M301.82,97.45H69.47a.5.5,0,0,1,0-1H301.82a.5.5,0,0,1,0,1Z"/><path class="cls-3" d="M329.1,83.9H282.26a.5.5,0,0,1-.5-.5V71a.5.5,0,0,1,.5-.5H329.1a.5.5,0,0,1,.5.5V83.4A.5.5,0,0,1,329.1,83.9Zm-46.34-1H328.6V71.49H282.76Z"/></svg>