<svg id="Layer_1" data-name="Layer 1" xmlns="http://www.w3.org/2000/svg" viewBox="0 0 242.65 145.493" focusable="false" fill="#fff"><path d="M220.422,72.221a5.8,5.8,0,0,0-2.263.566,7.7,7.7,0,0,0-2.021,2.263c-0.323.889-.566,1.7-0.889,2.587a16.775,16.775,0,0,0-.323,4.284,7.361,7.361,0,0,0,.889,3.961,3.172,3.172,0,0,0,2.587,1.455,7.166,7.166,0,0,0,2.263-.566,4.425,4.425,0,0,0,2.021-2.021A8.8,8.8,0,0,0,224.14,81.6a15.43,15.43,0,0,0,.323-3.961,8.059,8.059,0,0,0-.889-4.284A3.983,3.983,0,0,0,220.422,72.221ZM174.107,85.315a3.851,3.851,0,0,0,.566,2.263,1.815,1.815,0,0,0,1.7.889,6.205,6.205,0,0,0,2.263-.566,2.878,2.878,0,0,0,1.455-1.132,13.914,13.914,0,0,0,1.455-2.587,7.793,7.793,0,0,0,.323-2.829h-1.7a8.871,8.871,0,0,0-4.526.889A3.718,3.718,0,0,0,174.107,85.315ZM117.041,72.221a0.5,0.5,0,0,1-.566-0.323,0.5,0.5,0,0,1-.566-0.323h-1.132a4.1,4.1,0,0,0-3.152,1.132,5.942,5.942,0,0,0-1.7,3.718h8.245V74.4l-0.566-1.132V72.706A1.087,1.087,0,0,1,117.041,72.221ZM49.387,85.315a3.851,3.851,0,0,0,.566,2.263,1.815,1.815,0,0,0,1.7.889,7.753,7.753,0,0,0,2.263-.566,3.391,3.391,0,0,0,1.455-1.132,13.914,13.914,0,0,0,1.455-2.587,7.793,7.793,0,0,0,.323-2.829h-1.7a8.871,8.871,0,0,0-4.526.889A3.717,3.717,0,0,0,49.387,85.315ZM222.2,93.883l0.566-2.263a6.807,6.807,0,0,1-2.829,2.021,7.9,7.9,0,0,1-3.718.889,7.361,7.361,0,0,1-3.961-.889,6.335,6.335,0,0,1-2.829-2.021,16.99,16.99,0,0,1-2.021-4.526,10.364,10.364,0,0,1-.889-3.961,19.619,19.619,0,0,1,1.132-7.113A12.626,12.626,0,0,1,210.8,70.6a9.662,9.662,0,0,1,3.718-3.718,8.048,8.048,0,0,1,4.526-1.132,7.9,7.9,0,0,1,3.718.889,24.255,24.255,0,0,1,3.718,2.587l1.132-10.265h7.679l-5.981,34.918H222.2ZM201.669,77.071a30.061,30.061,0,0,0-1.132,5.981c-0.566,2.829-1.132,6.547-2.021,10.831h-7.6l0.566-1.7c0.889-4.526,1.455-9.053,2.263-13.337,0.566-4.284,1.132-8.81,1.455-13.094h7.113v2.021c-0.323.889-.323,1.455-0.566,2.021a6.808,6.808,0,0,1,2.021-2.263,5.186,5.186,0,0,1,1.7-1.132,12.381,12.381,0,0,0,2.021-.889,2.067,2.067,0,0,1,1.455.323,6.183,6.183,0,0,0-1.7,3.395,22.4,22.4,0,0,0-1.132,4.85,2.8,2.8,0,0,0-2.263.323C202.8,74.808,202.235,75.7,201.669,77.071ZM190.03,75.939a2.8,2.8,0,0,0-.323,1.455v1.455a24.532,24.532,0,0,0-.566,3.395c-0.242,1.374-.323,3.152-0.566,4.85s-0.323,3.152-.566,4.284a9.443,9.443,0,0,1-.889,2.587h-5.9V90.812a5.942,5.942,0,0,1-3.152,2.829,11.892,11.892,0,0,1-4.526.889,9.224,9.224,0,0,1-2.829-.566,4.537,4.537,0,0,1-2.021-1.132A8,8,0,0,1,167.559,90a9.52,9.52,0,0,1-.566-3.152,12.372,12.372,0,0,1,.889-4.85,6.119,6.119,0,0,1,2.021-3.152,21.543,21.543,0,0,1,4.526-2.263,23.311,23.311,0,0,1,5.092-.566h2.829a5.437,5.437,0,0,0,.566-0.889A2.21,2.21,0,0,0,183.24,74a1.538,1.538,0,0,0-1.132-1.7,13.854,13.854,0,0,0-3.718-.566,12.1,12.1,0,0,0-3.395.323c-1.455.323-2.829,0.566-4.526,0.889a9.208,9.208,0,0,1,.323-2.829c0.323-.889.566-2.021,0.889-3.152,1.7-.566,3.395-1.132,4.85-1.455a15.767,15.767,0,0,1,3.718-.323c3.395,0,5.981.566,7.679,2.021a7.591,7.591,0,0,1,2.587,6.224v0.889C190.03,74.565,190.03,75.131,190.03,75.939ZM163.356,93.318c-0.889.323-1.7,0.566-2.829,0.889a13.283,13.283,0,0,1-3.718.323,11.39,11.39,0,0,1-5.416-1.132,9.164,9.164,0,0,1-4.284-3.152,8.248,8.248,0,0,1-2.829-4.526,19.52,19.52,0,0,1-.889-6.224,24.141,24.141,0,0,1,1.455-8.245,26.67,26.67,0,0,1,3.395-6.79,15.97,15.97,0,0,1,5.092-4.526,16.719,16.719,0,0,1,6.79-1.455,24.587,24.587,0,0,1,3.718.566c1.455,0.242,2.829.889,4.85,1.455l-1.132,7.113c-1.455-.566-2.587-1.132-3.395-1.455a12.1,12.1,0,0,0-3.395-.323,8.924,8.924,0,0,0-3.961.889,7.108,7.108,0,0,0-3.152,2.587,9.1,9.1,0,0,0-1.7,3.961,31.2,31.2,0,0,0-.566,5.658,14.419,14.419,0,0,0,.566,3.718,4.993,4.993,0,0,0,1.132,2.263,5.356,5.356,0,0,0,2.263,2.021,7.077,7.077,0,0,0,2.587.566,17.421,17.421,0,0,0,3.152-.566,7.742,7.742,0,0,0,3.395-1.455Zm-27-16.247c-0.566,2.021-1.132,4.526-1.7,7.355a91.857,91.857,0,0,0-1.455,9.376h-7.679l0.566-1.7c0.889-5.658,1.455-10.831,2.021-15.034s1.132-8.245,1.7-11.4h7.113l-0.566,3.961a13.728,13.728,0,0,1,1.7-2.263,5.186,5.186,0,0,1,1.7-1.132,14.138,14.138,0,0,1,2.021-1.132,4.677,4.677,0,0,1,1.7.566,4.749,4.749,0,0,0-.889,2.263c-0.566,1.455-1.132,3.395-2.021,5.981a2.656,2.656,0,0,0-2.263.323A6.015,6.015,0,0,0,136.359,77.071ZM124.4,82.486H109.362a7.119,7.119,0,0,0,.323,2.587,3.936,3.936,0,0,0,.889,1.7,5.44,5.44,0,0,0,2.263,1.132,11.566,11.566,0,0,0,3.152.566,24.587,24.587,0,0,0,3.718-.566,11.311,11.311,0,0,0,3.961-1.7l-1.132,7.113a33.083,33.083,0,0,1-3.395.889,18.791,18.791,0,0,1-4.284.323c-4.284,0-7.355-1.132-9.376-3.152-2.263-2.021-3.395-5.092-3.395-9.376a19.619,19.619,0,0,1,1.132-7.113,13.764,13.764,0,0,1,2.587-5.092,15.541,15.541,0,0,1,3.961-3.395,10.091,10.091,0,0,1,5.092-1.132,25.936,25.936,0,0,1,4.284.566,9.953,9.953,0,0,1,3.395,2.263,10.523,10.523,0,0,1,2.021,2.829,19.476,19.476,0,0,1,.566,4.284v3.961C124.72,80.466,124.72,81.6,124.4,82.486Zm-23.6-9.619H96.51V75.7c-0.323.889-.323,1.7-0.566,2.587v0.889a2.8,2.8,0,0,1-.323,1.455c0,0.889,0,1.455-.323,1.7a3.337,3.337,0,0,0-.566.889v2.263A3.767,3.767,0,0,0,95.3,87.5a3.009,3.009,0,0,0,2.021.566,1.449,1.449,0,0,0,1.132-.323,1.449,1.449,0,0,0,1.132-.323L98.45,93.964a4.963,4.963,0,0,1-2.263.323,9.705,9.705,0,0,1-3.152.323,6.306,6.306,0,0,1-4.526-1.455,7.019,7.019,0,0,1-1.455-4.526,15.764,15.764,0,0,1,.323-3.718c0.323-1.455.566-2.829,0.889-4.284l2.829-19.076H98.45l-0.566,4.284h3.395Zm-15.6-.647a8.831,8.831,0,0,0-2.021-.566H79.779a6.469,6.469,0,0,0-2.587.566,1.734,1.734,0,0,0-.889,1.7,1.449,1.449,0,0,0,.323,1.132,1.032,1.032,0,0,0,.323.889l2.263,1.132A9.342,9.342,0,0,1,83.5,80.466a7.6,7.6,0,0,1,1.132,4.284c0,3.152-.889,5.658-2.829,7.113-2.021,1.7-4.85,2.587-8.487,2.587a19.881,19.881,0,0,1-4.526-.323,8.758,8.758,0,0,1-3.152-.323,21.823,21.823,0,0,0,.566-2.829c0.242-1.132.323-2.263,0.566-3.718,1.455,0.323,2.829.566,3.961,0.889a8.817,8.817,0,0,0,2.587.323,10.017,10.017,0,0,0,3.152-.566A1.514,1.514,0,0,0,77.6,86.2V84.75l-0.566-.566a5.682,5.682,0,0,0-1.455-1.132c-0.566-.243-1.132-0.323-1.7-0.566-1.7-.889-3.152-1.7-3.961-3.152a9.28,9.28,0,0,1-1.455-4.85c0-3.152.889-5.416,2.829-7.113,1.7-1.455,4.284-2.263,7.921-2.263h4.526c1.132,0.323,2.021.323,2.829,0.566ZM63.613,86.77c-0.323,1.132-.323,2.021-0.566,2.829s-0.323,1.7-.566,2.587v1.7H56.5V90.731a5.942,5.942,0,0,1-3.152,2.829,12.371,12.371,0,0,1-4.85.889,9.908,9.908,0,0,1-2.587-.566,4.139,4.139,0,0,1-2.021-1.132,5.608,5.608,0,0,1-1.455-2.829,9.52,9.52,0,0,1-.566-3.152,12.372,12.372,0,0,1,.889-4.85,5.273,5.273,0,0,1,2.263-3.152A21.543,21.543,0,0,1,49.548,76.5a31.2,31.2,0,0,1,5.658-.566h2.829V73.918a1.538,1.538,0,0,0-1.132-1.7,12.342,12.342,0,0,0-3.718-.566,13.925,13.925,0,0,0-3.395.323c-1.374.323-2.829,0.566-4.284,0.889a21.823,21.823,0,0,0,.566-2.829,27.873,27.873,0,0,0,.566-3.152c1.7-.566,3.152-1.132,4.526-1.455a16.4,16.4,0,0,1,3.961-.323c3.395,0,5.981.566,7.679,2.021a7.591,7.591,0,0,1,2.587,6.224,7.119,7.119,0,0,1-.323,2.587c-0.323.889-.323,2.021-0.566,2.829-0.323,1.455-.323,2.829-0.566,3.961A34.011,34.011,0,0,1,63.613,86.77ZM30.069,93.883l4.284-26.431-9.7,26.431H19.237V67.452l-4.85,26.431H7.275l5.981-34.918H24.087v21.9l7.679-21.9h11.4L37.182,93.883H30.069ZM169.9,3.759a73.439,73.439,0,0,0-26.431,4.85,78.739,78.739,0,0,0-22.147,13.66,79.337,79.337,0,0,0-21.9-13.66,74.757,74.757,0,0,0-26.674-4.85A73.125,73.125,0,0,0,44.618,9.417,70.183,70.183,0,0,0,21.581,24.774a71.87,71.87,0,0,0-15.6,23.279A69.343,69.343,0,0,0,0,76.505a67.848,67.848,0,0,0,5.981,28.129,72.115,72.115,0,0,0,15.6,23.036,70.829,70.829,0,0,0,23.036,15.6,67.849,67.849,0,0,0,28.129,5.981,69.66,69.66,0,0,0,26.674-5.092,67.96,67.96,0,0,0,21.9-13.66,69.034,69.034,0,0,0,22.147,13.66,70.89,70.89,0,0,0,54.883-.889,72.115,72.115,0,0,0,23.036-15.6,76.277,76.277,0,0,0,15.6-23.036,71.658,71.658,0,0,0,5.658-28.129,74.751,74.751,0,0,0-5.658-28.452,77.421,77.421,0,0,0-15.6-23.279A71.463,71.463,0,0,0,198.355,9.417,73.249,73.249,0,0,0,169.9,3.759Z" transform="translate(0 -3.759)"></path></svg>