
<svg id="Layer_1" data-name="Layer 1" xmlns="http://www.w3.org/2000/svg" viewBox="0 0 242.65 78.384" focusable="false" fill="#fff"><path d="M202.332,87.787s0.479-1.438,1.656-4.489c1.177-2.833,3.313-8.543,6.407-16.825-0.218.218,0.218-.7,0.959-2.354a48.1,48.1,0,0,0,1.656-4.751l1.177,6.407c1.874,9.24,3.095,15.168,3.792,17.784,0.7,2.833.959,4.272,0.959,4.272h-7.8C207.344,87.787,204.468,87.787,202.332,87.787Zm9.24-49.036a16.076,16.076,0,0,0-6.146,1.177,10.858,10.858,0,0,0-4.272,5.23L172,114.811h20.617a89.507,89.507,0,0,1,3.574-9.24c0.479-1.438.7-2.136,0.7-2.136h25.15a18.816,18.816,0,0,1,.479,2.354c0.218,1.656.959,4.489,1.874,9.023H242.65l-15.866-76.06H211.572Zm-52.828-1.438c-9.72,0-17.784,2.354-23.929,6.887-6.146,4.751-9.24,10.9-9.24,18.263,0,5.448,1.874,9.938,5.928,13.033a48.7,48.7,0,0,0,11.158,7.584,30.784,30.784,0,0,1,8.064,4.969,6.085,6.085,0,0,1,2.136,4.489,5.59,5.59,0,0,1-3.574,5.448,19.331,19.331,0,0,1-8.064,1.874,36.165,36.165,0,0,1-9.72-.959,39.062,39.062,0,0,1-8.761-2.833l-2.615-1.438-2.833,17.043a34.529,34.529,0,0,0,9.458,2.833,71.79,71.79,0,0,0,12.553,1.177c10.2,0.218,18.481-2.136,24.888-6.887a22.9,22.9,0,0,0,9.24-18.96,18.345,18.345,0,0,0-4.01-11.594c-2.615-3.313-6.887-6.407-12.553-9.023a49,49,0,0,1-7.8-4.751c-2.136-1.438-3.095-3.095-3.095-4.751s0.959-3.095,2.833-4.489c1.656-1.438,4.489-2.136,8.543-2.136a42.574,42.574,0,0,1,8.282.7c2.354,0.7,4.489,1.438,6.407,2.136l1.656,0.959,2.615-16.345a53.055,53.055,0,0,0-7.366-2.354A46.35,46.35,0,0,0,158.745,37.313Zm-53.569,77.5,12.074-76.06H97.592l-12.335,76.06h19.919ZM49.733,90.62L47.859,79.985A47.593,47.593,0,0,0,37.659,64.6,51.43,51.43,0,0,0,22.012,54.181l16.127,60.412H58.756L89.79,38.752H68.911ZM40.972,45.115c-0.7-2.615-1.656-4.272-3.313-5.23a14.6,14.6,0,0,0-5.666-1.177H0.218L0,40.146A86.9,86.9,0,0,1,29.16,53.658,57.256,57.256,0,0,1,47.9,79.985Z" transform="translate(0 -37.313)"></path></svg>
