<svg viewBox="0 0 51 41" version="1.1" xmlns="http://www.w3.org/2000/svg" xmlns:xlink="http://www.w3.org/1999/xlink" focusable="false">
  <g stroke="none" stroke-width="1" fill="none" fill-rule="evenodd">
    <path d="M21.9,24.7 C22.9,24.3 23.9,24.1 25,24.1 C26.1,24.1 27.1,24.3 28.1,24.7 C29.1,25.1 29.9,25.7 30.6,26.4 C31.3,27.1 31.9,28 32.3,28.9 C32.7,29.9 32.9,30.9 32.9,32 C32.9,33.1 32.7,34.1 32.3,35.1 C31.9,36.1 31.3,36.9 30.6,37.6 C29.9,38.3 29.1,38.9 28.1,39.3 C27.1,39.7 26.1,39.9 25,39.9 C23.9,39.9 22.9,39.7 21.9,39.3 C20.9,38.9 20.1,38.3 19.4,37.6 C18.7,36.9 18.1,36 17.7,35.1 C17.3,34.1 17.1,33.1 17.1,32 C17.1,30.9 17.3,29.9 17.7,28.9 C18.1,27.9 18.7,27.1 19.4,26.4 C20.1,25.7 21,25.1 21.9,24.7 L21.9,24.7 L21.9,24.7 L21.9,24.7 L21.9,24.7 L21.9,24.7 L21.9,24.7 Z M26,32 L29.5,28.5 C29.6,28.4 29.6,28.3 29.6,28.2 C29.6,28.1 29.6,28 29.5,27.9 L29,27.4 C28.9,27.3 28.8,27.3 28.7,27.3 C28.6,27.3 28.5,27.3 28.4,27.4 L25,30.9 L25,30.9 L21.6,27.4 C21.5,27.3 21.4,27.3 21.3,27.3 C21.2,27.3 21.1,27.3 21,27.4 L20.5,27.9 C20.4,28 20.4,28.1 20.4,28.2 C20.4,28.3 20.4,28.4 20.5,28.5 L23.5,31.5 L24,32 L20.6,35.5 C20.5,35.6 20.5,35.7 20.5,35.8 C20.5,35.9 20.5,36 20.6,36.1 L21.1,36.6 C21.2,36.7 21.3,36.7 21.4,36.7 C21.5,36.7 21.6,36.7 21.7,36.6 L25.1,33.1 L25.1,33.1 L28.5,36.6 C28.6,36.7 28.7,36.7 28.8,36.7 C28.9,36.7 29,36.7 29.1,36.6 L29.6,36.1 C29.7,36 29.7,35.9 29.7,35.8 C29.7,35.7 29.7,35.6 29.6,35.5 L26,32 L26,32 L26,32 L26,32 L26,32 L26,32 L26,32 Z" fill="#fff"></path>
    <path d="M18.6,32 L6.5,32 C2.9,32 0,29.1 0,25.6 L0,6.4 C0,2.9 2.9,0 6.5,0 L42.4,0 C46,0 48.9,2.9 48.9,6.4 L48.9,25.6 C48.9,29.1 46,32 42.4,32 L36.7,32 L32.5,32" stroke="#FFF" stroke-width="2"></path>
    <path d="M6.1,14.4 L11.8,14.4" stroke="#FFF" stroke-width="3"></path>
    <path d="M16.3,14.4 L22,14.4" stroke="#FFF" stroke-width="3"></path>
    <path d="M26.5,14.4 L32.2,14.4" stroke="#FFF" stroke-width="3"></path>
    <path d="M36.8,14.4 L42.5,14.4" stroke="#FFF" stroke-width="3"></path>
  </g>
</svg>