<svg id="Layer_1" data-name="Layer 1" xmlns="http://www.w3.org/2000/svg" viewBox="0 0 238.441 153.01" focusable="false" fill="#fff"><path d="M217.594,63.074h-2.125v-10.8h2.125a8.9,8.9,0,0,1,5.1,1.19,4.449,4.449,0,0,1,1.785,3.91,4.938,4.938,0,0,1-1.785,4.165A8.861,8.861,0,0,1,217.594,63.074Zm5.95,4.165a9.864,9.864,0,0,0,5.95-3.57c1.53-1.53,2.125-3.91,2.125-6.545a10.953,10.953,0,0,0-3.315-8.076c-2.125-1.785-5.355-2.72-9.266-2.72H208.668V82.2h6.885V67.834h0.935L226.349,82.2h8.671ZM184.1,46.328V82.2h19.721V76.25H190.987V66.729h12.581v-5.95H190.987V52.7h12.836V46.328H184.1Zm-10.711,0L163.87,70.555l-9.606-24.227h-7.736L161.745,83.39h3.91l15.556-37.062h-7.82ZM149.164,64.519a18.55,18.55,0,0,1-5.7,13.771,19.5,19.5,0,0,1-27.542,0,18.419,18.419,0,0,1-5.7-13.771A19.445,19.445,0,0,1,129.7,45.053a18.42,18.42,0,0,1,13.771,5.7A18.55,18.55,0,0,1,149.164,64.519Zm-68.769,0A17.278,17.278,0,0,0,86.09,77.7,18.262,18.262,0,0,0,99.521,83.05a22.36,22.36,0,0,0,4.165-.6,12.328,12.328,0,0,0,4.505-1.53V72.85a14.811,14.811,0,0,1-3.91,2.975,12.218,12.218,0,0,1-4.505.935,11.158,11.158,0,0,1-8.671-3.57,11.929,11.929,0,0,1-3.315-8.671,13,13,0,0,1,3.315-8.926,10.93,10.93,0,0,1,8.331-3.57,12.217,12.217,0,0,1,4.505.935,18.283,18.283,0,0,1,4.165,3.315V47.943a13.9,13.9,0,0,0-4.165-1.785,20.132,20.132,0,0,0-4.505-.34,19.251,19.251,0,0,0-13.431,5.355A17.065,17.065,0,0,0,80.395,64.519ZM67.9,60.1a8.229,8.229,0,0,1-4.165-2.125,2.656,2.656,0,0,1-1.19-2.38,4.28,4.28,0,0,1,1.53-2.72,5.4,5.4,0,0,1,3.91-1.19,11.553,11.553,0,0,1,2.975.6,22.7,22.7,0,0,1,2.72,2.38l3.57-4.76a12.577,12.577,0,0,0-5.1-2.975,16.913,16.913,0,0,0-5.355-.935,12.046,12.046,0,0,0-8.076,2.72,10.185,10.185,0,0,0-3.315,7.48,7.435,7.435,0,0,0,2.125,5.7c1.19,1.53,3.57,2.975,6.885,4.165a24.133,24.133,0,0,1,3.315.935,13.884,13.884,0,0,1,1.53,1.19,4.4,4.4,0,0,1,1.53,1.53,3.928,3.928,0,0,1,.6,2.125,4.663,4.663,0,0,1-1.53,3.57,6.007,6.007,0,0,1-3.91,1.53,7.592,7.592,0,0,1-4.505-1.19,10.251,10.251,0,0,1-3.315-3.57l-4.505,4.165a16.1,16.1,0,0,0,5.355,5.355,14.135,14.135,0,0,0,7.14,1.785,12.11,12.11,0,0,0,8.926-3.57,11.687,11.687,0,0,0,3.315-8.331c0-2.72-.6-5.1-2.125-6.545A26.324,26.324,0,0,0,67.9,60.1ZM43.927,46.328h6.885V82.2H43.927V46.328ZM29.647,73.53a9.764,9.764,0,0,1-3.91,2.125,27.256,27.256,0,0,1-5.7.6H18.256V52.618h1.785a34.518,34.518,0,0,1,5.7.6,7.336,7.336,0,0,1,3.91,2.38,12.853,12.853,0,0,1,2.975,3.91,14.31,14.31,0,0,1,.935,5.1,13.181,13.181,0,0,1-.935,4.76A24.616,24.616,0,0,1,29.647,73.53Zm-8.076-27.2H11.115V82.2H21.571a25.515,25.515,0,0,0,7.14-.935,12.314,12.314,0,0,0,5.355-2.975,20.058,20.058,0,0,0,5.1-6.29,19.925,19.925,0,0,0,1.53-7.48c0-5.355-1.785-9.861-5.355-13.176S27.266,46.328,21.571,46.328ZM87.28,148.25H6.61V4.505H236.125V92.061c-5.1,2.975-11.986,6.885-20.656,11.391-8.926,4.505-19.721,9.521-31.962,14.621-12.581,5.1-26.862,10.456-42.758,15.556C124.683,138.984,106.747,143.744,87.28,148.25ZM2.1,0V153.01H240.545V0H2.1Z" transform="translate(-2.105)"></path></svg>