<svg id="Layer_1" data-name="Layer 1" xmlns="http://www.w3.org/2000/svg" viewBox="0 0 242.65 133.569" focusable="false" fill="#fff"><path d="M242.576,111.752a6.464,6.464,0,0,1-3.933,2.894,18.458,18.458,0,0,1-5.194.816H220.166v-6.233h13.283a9.1,9.1,0,0,0,2.375-.519c0.816-.223,1.039-1.039,1.039-2.078,0-2.894-2.894-3.933-8.608-2.894-6.011,1.336-8.9-1.558-8.9-8.311a7.711,7.711,0,0,1,2.894-6.53A11.4,11.4,0,0,1,229,86.819h13.579V92.83H230.332a8.468,8.468,0,0,0-2.6.519,2.1,2.1,0,0,0-1.336,2.078c0,2.6,2.078,3.413,6.53,2.6s7.569,0.3,9.647,3.117v10.611Zm-35.693,3.636H193.6v-6.233h13.283a9.1,9.1,0,0,0,2.375-.519c0.816-.223,1.039-0.816,1.039-2.078,0-2.894-2.894-3.933-8.608-2.894-6.011,1.336-8.9-1.558-8.9-8.311a7.711,7.711,0,0,1,2.894-6.53,11.4,11.4,0,0,1,6.753-2.078h13.8v6.011H203.692a8.468,8.468,0,0,0-2.6.519,2.1,2.1,0,0,0-1.336,2.078c0,3.117,2.894,3.933,8.9,2.6s8.9,1.558,8.9,8.311c0,3.413-1.039,5.714-3.117,7.049A14.1,14.1,0,0,1,206.883,115.388Zm-23-61.59-4.675-11.2L174.53,53.8h9.35Zm5.491,61.59H166.664V86.671h22.707v6.011h-15.88v5.194h15.657v5.714H173.491V109.3h15.88v6.085ZM225.36,66.042h-9.647l-13.06-21.371V66.042h-13.8l-2.894-6.233h-14.1l-2.6,6.233H161.47c-4.675,0-8.088-1.336-10.166-3.636-2.375-2.375-3.413-5.714-3.413-10.463s1.039-8.311,3.413-10.686,5.714-3.636,10.686-3.636h6.53v6.011c-3.636,0-6.753,0-9.647.3s-4.155,3.117-4.155,8.088a11.007,11.007,0,0,0,1.336,5.714c0.816,1.558,2.6,2.375,5.491,2.375h3.117l9.647-22.41h10.166l11.5,26.862V37.7h10.389l12.021,19.813V37.7h7.049V66.042H225.36Zm-74.353,26.64h-8.9v6.53h8.608a5.368,5.368,0,0,0,3.117-.816,2.624,2.624,0,0,0,1.336-2.6c0-1.261-.519-2.375-1.336-2.6A10.057,10.057,0,0,0,151.007,92.682Zm-6.456-26.64H137.5V37.622h7.049v28.42Zm13.505,36.064c1.855,0.816,3.117,1.558,3.636,2.894a12.833,12.833,0,0,1,.816,4.675v5.714h-6.753v-4.675c0-2.375-.519-3.933-1.336-4.675-1.039-.816-2.6-1.039-4.972-1.039h-7.272v10.463h-6.753V86.745H151.6a23.151,23.151,0,0,1,7.792,1.336c2.3,0.816,3.413,3.117,3.413,6.53a9.155,9.155,0,0,1-1.039,4.452A8.5,8.5,0,0,1,158.056,102.106ZM121.548,43.632H112.94v6.233h8.608a6.973,6.973,0,0,0,3.117-.816,2.624,2.624,0,0,0,1.336-2.6,2.286,2.286,0,0,0-1.336-2.375A22.516,22.516,0,0,0,121.548,43.632Zm-0.742,49.049h-8.9v7.272h8.608a4.181,4.181,0,0,0,3.117-1.039,3.305,3.305,0,0,0,1.336-2.894,2.775,2.775,0,0,0-1.336-2.6A5.172,5.172,0,0,0,120.806,92.682Zm8.088-39.625c1.855,0.816,3.117,1.558,3.636,2.894a12.833,12.833,0,0,1,.816,4.675v5.491h-6.753a69.4,69.4,0,0,1-.3-7.272c-0.3-1.855-2.078-2.894-6.011-2.894h-7.272V66.116h-6.827V37.7h16.177a23.151,23.151,0,0,1,7.792,1.336c2.3,0.816,3.413,2.894,3.413,6.233a8.468,8.468,0,0,1-1.336,4.675A11.169,11.169,0,0,1,128.894,53.056Zm-24.042,59.735V89.862l-10.463,11.2Zm-3.339-46.749H78.583V37.622h22.929v6.011H85.632V48.6h15.36v6.011H85.632v5.714h15.88v5.714ZM85.558,100.993l-7.272-8.311H61.071v5.194H76.208v5.714H61.071V109.3H77.989Zm26.343,4.749v9.647H98.618l-8.608-9.647L81.4,115.388H54.244V86.671H81.625L90.233,96.1l8.608-9.424h21.89a16.771,16.771,0,0,1,8.088,2.078c2.375,1.261,3.413,3.933,3.413,7.272,0,5.714-2.375,8.9-7.272,9.127S115.834,105.742,111.9,105.742ZM21.89,53.8l-4.972-11.2L12.466,53.8H21.89ZM73.537,66.042H66.488V43.632l-9.943,22.41H50.534L40.59,43.632v22.41h-13.8l-2.6-6.233H9.869l-2.6,6.233H0l12.244-28.42H22.41l11.5,26.862V37.622h11.2l8.9,19.293L62.11,37.622H73.537v28.42ZM0,143.289V71.83H11.5l2.6-6.53H20.11l2.6,6.53H45.636V66.858l2.078,4.972H59.438l2.078-4.972V71.83h57.138V61.367h1.039a1.111,1.111,0,0,1,1.039.3V71.83h29.459V69.456a20.873,20.873,0,0,0,11.5,2.375h11.724l2.6-6.53h6.011l2.6,6.53H208.59V65.819l3.636,6.011H231.3V31.908H212.226v4.675l-2.6-4.675H190.336v4.675l-2.6-4.675h-26.12a48.078,48.078,0,0,0-5.714.519,20.644,20.644,0,0,0-5.714,1.855V31.908H131.936v2.375a8.523,8.523,0,0,0-3.413-1.855,20.534,20.534,0,0,0-4.155-.519H58.1L53.65,42.074,48.975,31.908H28.124v4.675l-2.375-4.675H8.014L0,50.9V9.721H242.65V80.957H230.109a27.142,27.142,0,0,0-4.452.519,11.706,11.706,0,0,0-4.155,1.855V80.957H202.95a34.269,34.269,0,0,0-4.452.519,8.441,8.441,0,0,0-3.933,1.855V80.957h-33.1v2.375a13.829,13.829,0,0,0-4.452-1.855,31.481,31.481,0,0,0-4.972-.519h-21.89v2.375a7.6,7.6,0,0,0-4.452-2.078,35.655,35.655,0,0,0-5.194-.3H96.021l-5.714,6.233-5.194-6.233H48.307V120.88H84.3l5.714-6.233L95.5,120.88h22.41v-9.424h2.078a29.666,29.666,0,0,0,4.972-.3,9.155,9.155,0,0,0,4.452-1.039v10.686h18.551V110.342h0.816a1.111,1.111,0,0,1,1.039.3,1.451,1.451,0,0,1,.3,1.039v9.127h55.8a42.65,42.65,0,0,0,4.675-.519,10.909,10.909,0,0,0,4.452-1.855v2.375h17.735a30.075,30.075,0,0,0,5.194-.3,13.869,13.869,0,0,0,4.675-1.558v24.265H0v0.074Z" transform="translate(0 -9.721)"></path></svg>