<?xml version="1.0" encoding="UTF-8"?>
<svg width="19px" height="23px" viewBox="0 0 19 23" version="1.1" xmlns="http://www.w3.org/2000/svg" xmlns:xlink="http://www.w3.org/1999/xlink">
    <!-- Generator: Sketch 46.2 (44496) - http://www.bohemiancoding.com/sketch -->
    <title>Fill 2</title>
    <desc>Created with Sketch.</desc>
    <defs></defs>
    <g id="Concept-3" stroke="none" stroke-width="1" fill="none" fill-rule="evenodd">
        <g id="C3_Desk_AllSet_8-Copy" transform="translate(-758.000000, -4667.000000)" fill="#FFFFFF">
            <g id="Group-8" transform="translate(735.000000, 4453.000000)">
                <g id="Group-7" transform="translate(0.000000, 193.000000)">
                    <g id="Group-23">
                        <path d="M34.5,21 L25.3,21 C24.0350001,21 23.0115003,22.0350001 23.0115003,23.3 L23,41.7 C23,42.9650003 24.0234998,44 25.2884997,44 L39.1,44 C40.3650003,44 41.4,42.9650003 41.4,41.7 L41.4,27.9 L34.5,21 Z M36.8,39.4 L27.6,39.4 L27.6,37.1 L36.8,37.1 L36.8,39.4 Z M36.8,34.8 L27.6,34.8 L27.6,32.5 L36.8,32.5 L36.8,34.8 Z M33.35,29.05 L33.35,22.725 L39.675,29.05 L33.35,29.05 Z" id="Fill-2"></path>
                    </g>
                </g>
            </g>
        </g>
    </g>
</svg>