<svg xmlns="http://www.w3.org/2000/svg" width="24" height="25" viewBox="0 0 24 25">
  <path fill="#0d92ff" fill-rule="evenodd" d="M6.023.5c.235 0 .438.09.61.27.172.18.258.394.258.644v3.89c0 .25-.085.462-.257.633-.172.172-.375.258-.61.258-.265 0-.484-.086-.656-.258-.172-.17-.258-.382-.258-.632v-3.89c0-.25.085-.466.257-.645.172-.18.39-.27.656-.27zm11.954 0c.25 0 .464.09.644.27.18.18.27.394.27.644v3.89c0 .25-.09.462-.27.633-.18.172-.393.258-.643.258s-.46-.086-.633-.258c-.172-.17-.258-.382-.258-.632v-3.89c0-.25.086-.466.258-.645.172-.18.383-.27.633-.27zm2.015 2.016h3.094c.266 0 .484.082.656.246.172.164.258.38.258.644v20.18c0 .25-.09.465-.27.644-.18.18-.394.27-.644.27H.938c-.25 0-.47-.09-.657-.27-.186-.18-.28-.394-.28-.644V3.406c0-.594.312-.89.938-.89H4.03v2.79c0 .577.185 1.07.552 1.475.367.407.848.61 1.44.61.58 0 1.052-.202 1.42-.61.367-.405.55-.897.55-1.475v-2.79h8.04v2.79c0 .578.183 1.07.55 1.476.367.407.848.61 1.44.61.58 0 1.052-.202 1.42-.61.367-.405.55-.897.55-1.475v-2.79zm1.992 7.968H2.016v11.579l19.968.046V10.483z"/>
</svg>