<svg xmlns="http://www.w3.org/2000/svg" width="20" height="20" viewBox="0 0 20 20">
  <g fill="none" fill-rule="nonzero">
    <circle cx="10.11" cy="10.2" r="7.7" fill="#FFF"/>
    <path fill="#0073D1" d="M10.11.9C4.975.906.816 5.072.82 10.207c.004 5.135 4.168 9.295 9.303 9.293 5.135-.002 9.297-4.165 9.297-9.3-.006-5.138-4.172-9.3-9.31-9.3zm0 13.86c-.307-.002-.583-.19-.7-.473-.115-.285-.048-.61.17-.827.14-.144.33-.223.53-.22.203-.004.398.076.54.22.22.217.286.546.167.832-.118.285-.398.47-.707.468zm2.21-2.42c-.216.217-.556.25-.81.08-.846-.56-1.944-.56-2.79 0-.254.17-.594.137-.81-.08-.14-.137-.21-.332-.188-.527.022-.195.13-.37.298-.473 1.27-.84 2.92-.84 4.19 0 .167.104.276.278.298.473.02.195-.048.39-.188.527zm1.81-1.82c-.24.214-.6.214-.84 0-1.858-1.478-4.492-1.478-6.35 0-.24.214-.6.214-.84 0-.134-.12-.21-.29-.21-.47s.076-.35.21-.47c2.335-1.88 5.665-1.88 8 0 .138.115.22.284.226.463.005.18-.066.353-.196.477zm1.81-1.8c-.242.226-.618.226-.86 0-2.86-2.44-7.07-2.44-9.93 0-.242.226-.618.226-.86 0-.13-.12-.206-.292-.206-.47s.075-.35.206-.47c3.33-2.853 8.24-2.853 11.57 0 .14.11.227.275.242.453.015.178-.043.354-.162.487z"/>
  </g>
</svg>