<svg width="24" height="25" xmlns="http://www.w3.org/2000/svg">
  <path d="M13.945.5c.688 0 1.36.066 2.016.2.656.132 1.297.323 1.922.573.61.266 1.176.579 1.699.938.523.36 1.02.766 1.488 1.219.453.453.86.945 1.22 1.476.358.532.67 1.102.937 1.711.25.625.441 1.266.574 1.922.133.656.199 1.328.199 2.016 0 .703-.066 1.386-.2 2.05a9.802 9.802 0 0 1-.573 1.887 11.735 11.735 0 0 1-.926 1.688 9.657 9.657 0 0 1-1.23 1.5c-.454.453-.946.863-1.477 1.23a9.02 9.02 0 0 1-1.711.926c-.625.25-1.266.445-1.922.586-.656.14-1.328.21-2.016.21a9.683 9.683 0 0 1-3.351-.573 10.8 10.8 0 0 1-2.906-1.606L1.64 24.5 0 22.86l6.047-6.047a10.8 10.8 0 0 1-1.606-2.907 9.683 9.683 0 0 1-.574-3.351c0-.688.07-1.36.211-2.016.14-.656.336-1.297.586-1.922a9.08 9.08 0 0 1 .914-1.699c.36-.523.774-1.02 1.242-1.488a9.657 9.657 0 0 1 1.5-1.23c.532-.352 1.094-.66 1.688-.927A9.802 9.802 0 0 1 11.895.7C12.559.566 13.242.5 13.945.5zm0 2.18a7.82 7.82 0 0 0-3.047.597 7.804 7.804 0 0 0-2.53 1.7 7.964 7.964 0 0 0-1.712 2.53 7.689 7.689 0 0 0-.61 3.048c0 1.078.204 2.093.61 3.047a7.964 7.964 0 0 0 1.711 2.53 7.964 7.964 0 0 0 2.531 1.712c.954.406 1.97.61 3.047.61a7.689 7.689 0 0 0 3.047-.61 7.964 7.964 0 0 0 2.531-1.711 7.804 7.804 0 0 0 1.7-2.531 7.82 7.82 0 0 0 .597-3.047 7.82 7.82 0 0 0-.597-3.047 7.804 7.804 0 0 0-1.7-2.531 7.804 7.804 0 0 0-2.53-1.7 7.82 7.82 0 0 0-3.048-.597z" fill="#6B7B91" fill-rule="evenodd"/>
</svg>