<svg id="Layer_1" data-name="Layer 1" xmlns="http://www.w3.org/2000/svg" viewBox="0 0 225 301.7"><defs><style>.cls-1,.cls-10{fill:#4f5a6d;}.cls-2{fill:#0b2231;}.cls-3{fill:#fff;}.cls-4{fill:#008cff;}.cls-5{fill:#d7dce5;}.cls-6{opacity:0.25;}.cls-7{fill:#001019;}.cls-8{fill:#0073d1;}.cls-9{fill:none;}.cls-10{opacity:0.06;}</style></defs><title>Artboard 74</title><path class="cls-1" d="M197.19,23.8V301.1H24V23.8A23.3,23.3,0,0,1,47.26.5H173.9A23.3,23.3,0,0,1,197.19,23.8Z"/><path class="cls-2" d="M197.69,301.6H23.46V23.8A23.83,23.83,0,0,1,47.26,0H173.9a23.82,23.82,0,0,1,23.79,23.8Zm-173.23-1H196.69V23.8A22.82,22.82,0,0,0,173.9,1H47.26a22.83,22.83,0,0,0-22.8,22.8Z"/><rect class="cls-3" x="33.56" y="43.34" width="154.03" height="257.76"/><path class="cls-2" d="M188.09,301.6h-155V42.84h155Zm-154-1h153V43.84h-153Z"/><path class="cls-4" d="M197.19,94.85h0A3.85,3.85,0,0,1,201,98.7V117a3.85,3.85,0,0,1-3.85,3.85h0a0,0,0,0,1,0,0v-26a0,0,0,0,1,0,0Z"/><path class="cls-2" d="M197.19,121.34h-.5v-27h.5a4.35,4.35,0,0,1,4.35,4.35V117A4.35,4.35,0,0,1,197.19,121.34Zm.5-25.95V120.3a3.35,3.35,0,0,0,2.85-3.31V98.7A3.35,3.35,0,0,0,197.69,95.39Z"/><path class="cls-5" d="M197.19,149.37h0a3.85,3.85,0,0,1,3.85,3.85V196a3.85,3.85,0,0,1-3.85,3.85h0a0,0,0,0,1,0,0V149.37A0,0,0,0,1,197.19,149.37Z"/><path class="cls-2" d="M197.19,200.33h-.5V148.87h.5a4.35,4.35,0,0,1,4.35,4.35V196A4.35,4.35,0,0,1,197.19,200.33Zm.5-50.42V199.3a3.37,3.37,0,0,0,2.85-3.32V153.22A3.35,3.35,0,0,0,197.69,149.91Z"/><rect class="cls-1" x="78.16" y="20" width="64.83" height="4.81" rx="2.41" ry="2.41"/><path class="cls-2" d="M140.58,25.31h-60a2.91,2.91,0,1,1,0-5.81h60a2.91,2.91,0,1,1,0,5.81Zm-60-4.81a1.91,1.91,0,1,0,0,3.81h60a1.91,1.91,0,1,0,0-3.81Z"/><circle class="cls-5" cx="54.62" cy="22.41" r="3.17"/><path class="cls-2" d="M54.62,26.08a3.68,3.68,0,1,1,3.67-3.67A3.68,3.68,0,0,1,54.62,26.08Zm0-6.35a2.68,2.68,0,1,0,2.67,2.68A2.68,2.68,0,0,0,54.62,19.73Z"/><g class="cls-6"><rect class="cls-7" x="78.16" y="20" width="64.83" height="4.81" rx="2.41" ry="2.41"/></g><rect class="cls-5" x="33.56" y="43.34" width="154.03" height="16.19"/><circle class="cls-5" cx="155.57" cy="152.06" r="18"/><circle class="cls-5" cx="110.57" cy="152.06" r="18"/><circle class="cls-5" cx="65.57" cy="152.06" r="18"/><circle class="cls-5" cx="155.57" cy="102.86" r="18"/><circle class="cls-5" cx="110.57" cy="102.86" r="18"/><circle class="cls-5" cx="65.57" cy="102.86" r="18"/><circle class="cls-8" cx="110.57" cy="262.6" r="18"/><circle class="cls-5" cx="155.57" cy="201.27" r="18"/><circle class="cls-5" cx="110.57" cy="201.27" r="18"/><circle class="cls-5" cx="65.57" cy="201.27" r="18"/><path class="cls-2" d="M188.09,301.6h-155V42.84h155Zm-154-1h153V43.84h-153Z"/><g id="ic_phone_f"><path class="cls-3" d="M105.07,253.92l-2.51,2.51s-.85,3,5.17,9,9,5.17,9,5.17l2.51-2.51-3.33-3.34L113.74,266a12.28,12.28,0,0,1-3.8-2.78,11,11,0,0,1-2.73-3.83l1.19-2.14-3.33-3.33Z"/><rect id="BoundingBox" class="cls-9" x="100.55" y="252.58" width="20.04" height="20.04"/></g><polygon class="cls-10" points="110.44 45.36 106.49 59.53 98 89.99 93.15 107.38 82.45 145.77 76.77 166.15 71.7 184.34 62.06 218.92 39.16 301.1 33.56 301.1 33.56 45.36 110.44 45.36"/><path class="cls-2" d="M188.09,301.6h-155V42.84h155Zm-154-1h153V43.84h-153Z"/><rect class="cls-5" y="300.5" width="225" height="1.2"/></svg>