<svg width="342" height="167" viewBox="0 0 342 167" xmlns="http://www.w3.org/2000/svg">
  <g transform="translate(1)" fill="none" fill-rule="evenodd">
    <path d="M60.67 163.73a2.14 2.14 0 0 1-1-2.67l7-17.65 7.4 2.9L63.44 163a2.15 2.15 0 0 1-2.77.73z" fill="#D7DCE5" fill-rule="nonzero"/>
    <path d="M61.63 164.46a2.51 2.51 0 0 1-1.18-.29 2.62 2.62 0 0 1-1.29-3.29l7-17.66a.49.49 0 0 1 .64-.28l7.4 2.9a.49.49 0 0 1 .24.73l-10.58 16.66a2.63 2.63 0 0 1-2.23 1.23zm5.27-20.4l-6.81 17.18a1.64 1.64 0 0 0 .81 2 1.62 1.62 0 0 0 2.11-.59l10.26-16.14-6.37-2.45z" fill="#0B2231" fill-rule="nonzero"/>
    <path d="M236.21 163.73a2.14 2.14 0 0 0 1-2.67l-7-17.65-7.4 2.9L233.45 163a2.13 2.13 0 0 0 2.76.73z" fill="#D7DCE5" fill-rule="nonzero"/>
    <path d="M235.25 164.46a2.62 2.62 0 0 1-2.22-1.23l-10.59-16.66a.48.48 0 0 1-.05-.42.47.47 0 0 1 .29-.31l7.4-2.9a.51.51 0 0 1 .65.28l7 17.65a2.63 2.63 0 0 1-1.28 3.3 2.58 2.58 0 0 1-1.2.29zm-11.64-17.91l10.26 16.14a1.63 1.63 0 0 0 2.12.59 1.64 1.64 0 0 0 .8-2.05L230 144.06l-6.39 2.49z" fill="#0B2231" fill-rule="nonzero"/>
    <path d="M272.32 1.3H24.56a.86.86 0 0 0-.86.87v145.88c0 .475.385.86.86.86h97.5a2.31 2.31 0 0 1 2.19 1.57 2 2 0 0 0 1.84 1.31h44.71a1.93 1.93 0 0 0 1.83-1.31 2.31 2.31 0 0 1 2.19-1.57h97.5a.86.86 0 0 0 .86-.86V2.17a.86.86 0 0 0-.86-.87z" fill="#63738A" fill-rule="nonzero"/>
    <path d="M170.8 152.29h-44.71a2.42 2.42 0 0 1-2.31-1.65 1.81 1.81 0 0 0-1.72-1.23h-97.5a1.36 1.36 0 0 1-1.36-1.36V2.17A1.36 1.36 0 0 1 24.56.8h247.76c.757 0 1.37.613 1.37 1.37v145.88a1.36 1.36 0 0 1-1.37 1.36h-97.5a1.8 1.8 0 0 0-1.71 1.23 2.44 2.44 0 0 1-2.31 1.65zM24.56 1.8a.37.37 0 0 0-.36.37v145.88a.36.36 0 0 0 .36.36h97.5a2.81 2.81 0 0 1 2.67 1.9 1.42 1.42 0 0 0 1.36 1h44.71a1.44 1.44 0 0 0 1.36-1 2.81 2.81 0 0 1 2.66-1.91h97.5c.2 0 .365-.16.37-.36V2.17a.38.38 0 0 0-.37-.37H24.56z" fill="#0B2231" fill-rule="nonzero"/>
    <rect fill="#FFF" fill-rule="nonzero" transform="rotate(90 148.44 75.1)" x="79.09" y="-45.19" width="138.7" height="240.58" rx=".98"/>
    <path d="M267.73 6.76v136.69H29.13V6.74h238.6v.02zm0-1.02H29.13a1 1 0 0 0-1 1v136.73a1 1 0 0 0 1 1h238.62a1 1 0 0 0 1-1V6.74a1 1 0 0 0-1-1h-.02z" fill="#0B2231" fill-rule="nonzero"/>
    <path d="M267.73 6.76v136.69H29.13V6.74h238.6v.02zm0-1.02H29.13a1 1 0 0 0-1 1v136.73a1 1 0 0 0 1 1h238.62a1 1 0 0 0 1-1V6.74a1 1 0 0 0-1-1h-.02z" fill="#0B2231" fill-rule="nonzero"/>
    <path fill="#0B2231" fill-rule="nonzero" d="M28.22 58.19h239.9v1H28.22z"/>
    <path fill="#CED2D8" fill-rule="nonzero" d="M28.99 69h238.83v1H28.99zM28.99 79.8h238.83v1H28.99zM28.99 90.61h238.83v1H28.99zM28.99 101.41h238.83v1H28.99zM28.99 112.21h238.83v1H28.99zM28.99 123.02h238.83v1H28.99zM28.99 133.82h238.83v1H28.99z"/>
    <path fill="#0B2231" fill-rule="nonzero" d="M68.39 58.69h1v85.09h-1z"/>
    <path fill="#D7DCE5" fill-rule="nonzero" style="mix-blend-mode:multiply" d="M69.08 58.9h199.17v84.99H69.08z"/>
    <path fill="#426CDD" fill-rule="nonzero" d="M68.91 80.36h63.28v10.77H68.91z"/>
    <path d="M132.19 91.63H68.91a.5.5 0 0 1-.5-.5V80.36a.5.5 0 0 1 .5-.5h63.28a.5.5 0 0 1 .5.5v10.77a.5.5 0 0 1-.5.5zm-62.78-1h62.28v-9.77H69.41v9.77z" fill="#0B2231" fill-rule="nonzero"/>
    <path d="M254.84 37a41.64 41.64 0 0 1-10.27 1.1c-14.75 0-14.75-4.89-29.48-4.89-1.43 0-2.71 0-3.89.13v11.91h43.64V37z" fill="#4F5A6D" fill-rule="nonzero" opacity=".06"/>
    <path d="M227.9 26.32a10.6 10.6 0 0 0-10.26 10.26 1.72 1.72 0 0 0 1.92 1.91 10.6 10.6 0 0 0 10.25-10.26 1.72 1.72 0 0 0-1.91-1.91zm-1.74 4.3l-.56.57.56.57-.66.65-.56-.56-.56.55.57.57-.66.65-.56-.56-.56.56.56.56-.65.66-.57-.57-.56.57-.66-.65.57-.57-.56-.56.65-.66.56.56.56-.56-.56-.56.66-.65.56.56.55-.56-.56-.56.66-.65.56.56.57-.57.65.65z" fill="#D7DCE5" fill-rule="nonzero"/>
    <g style="mix-blend-mode:multiply" fill-rule="nonzero">
      <path fill="#D7DCE5" d="M38 15.17h23.45V48H38z"/>
      <path d="M61.45 48.5H38a.5.5 0 0 1-.5-.5V15.17a.5.5 0 0 1 .5-.5h23.45a.5.5 0 0 1 .5.5V48a.5.5 0 0 1-.5.5zm-22.95-1H61V15.67H38.5V47.5z" fill="#0B2231"/>
    </g>
    <rect fill="#637389" fill-rule="nonzero" opacity=".5" x="32.91" y="62.78" width="23.34" height="3" rx="1.5"/>
    <rect fill="#637389" fill-rule="nonzero" opacity=".5" x="66.62" y="19.69" width="44.37" height="5.69" rx="1.55"/>
    <rect fill="#637389" fill-rule="nonzero" opacity=".5" x="32.91" y="84.38" width="23.34" height="3" rx="1.5"/>
    <rect fill="#637389" fill-rule="nonzero" opacity=".5" x="32.91" y="105.99" width="23.34" height="3" rx="1.5"/>
    <rect fill="#637389" fill-rule="nonzero" opacity=".5" x="32.91" y="95.19" width="23.34" height="3" rx="1.5"/>
    <rect fill="#637389" fill-rule="nonzero" opacity=".5" x="32.91" y="73.58" width="23.34" height="3" rx="1.5"/>
    <rect fill="#637389" fill-rule="nonzero" opacity=".5" x="32.91" y="127.6" width="23.34" height="3" rx="1.5"/>
    <rect fill="#637389" fill-rule="nonzero" opacity=".5" x="32.91" y="138.4" width="23.34" height="3" rx="1.5"/>
    <rect fill="#637389" fill-rule="nonzero" opacity=".5" x="32.91" y="116.79" width="23.34" height="3" rx="1.5"/>
    <path d="M49.07 71.25a5.27 5.27 0 0 0-.58-1.89c-.08-.15-.17-.3-.26-.45a5 5 0 0 0-.66-.8l-.17-.16a.38.38 0 0 0-.09-.09 1.37 1.37 0 0 0-.23-.17 3.34 3.34 0 0 0-.7-.48c-.12-.07-.26-.13-.39-.19l-.49-.19-.22-.06a4.47 4.47 0 0 0-.81-.16h-.13a3.44 3.44 0 0 0-.46 0H5.5a5.21 5.21 0 0 0-5.21 5.21v88.87a5.21 5.21 0 0 0 5.21 5.21h38.38c.16.01.32.01.48 0h.11l.39-.06.4-.09.29-.09a5.23 5.23 0 0 0 1.69-1c.14-.12.27-.25.4-.38s.26-.29.38-.44l.09-.13c.07-.084.13-.174.18-.27a.55.55 0 0 0 .09-.14c.053-.083.1-.17.14-.26a2.49 2.49 0 0 0 .16-.33 4.68 4.68 0 0 0 .18-.48c0-.17.09-.34.13-.51.04-.17.06-.34.08-.51.01-.18.01-.36 0-.54V71.78a4.58 4.58 0 0 0 0-.53z" stroke="#0B2231" fill="#4F5A6D" fill-rule="nonzero"/>
    <path fill="#FFF" fill-rule="nonzero" d="M.29 75.75H49.1v80.36H.29z"/>
    <path d="M27.68 163.24h-6a2.12 2.12 0 0 1-2.11-2.11v-.19a2.12 2.12 0 0 1 2.11-2.11h6a2.12 2.12 0 0 1 2.11 2.11v.19a2.12 2.12 0 0 1-2.11 2.11zm-6-3.41a1.11 1.11 0 0 0-1.11 1.11v.19c0 .613.497 1.11 1.11 1.11h6a1.11 1.11 0 0 0 1.11-1.11v-.19a1.11 1.11 0 0 0-1.11-1.11h-6zM18.67 73a1.16 1.16 0 1 1 0-2.32 1.16 1.16 0 0 1 0 2.32zm0-1.31a.16.16 0 0 0-.16.16c0 .17.32.17.32 0a.16.16 0 0 0-.16-.12v-.04zM15.52 73a1.16 1.16 0 1 1-.02-2.32 1.16 1.16 0 0 1 .02 2.32zm0-1.31a.16.16 0 0 0-.16.16c0 .17.31.17.31 0a.16.16 0 0 0-.15-.12v-.04zM33.91 73a1.16 1.16 0 1 1-.02-2.32 1.16 1.16 0 0 1 .02 2.32zm0-1.31a.16.16 0 0 0-.16.16c0 .17.31.17.31 0a.16.16 0 0 0-.15-.12v-.04zM27.65 72.39h-5.91a.5.5 0 1 1 0-1h5.91a.5.5 0 1 1 0 1z" fill="#0B2231" fill-rule="nonzero"/>
    <rect fill="#426CDD" fill-rule="nonzero" x="5.98" y="77.78" width="37.56" height="20.94" rx=".82"/>
    <path fill="#FFF" fill-rule="nonzero" d="M27.65 88.25l-5.03 2.9v-5.81z"/>
    <rect fill="#D7DCE5" fill-rule="nonzero" x="5.98" y="107.79" width="14.14" height="18.07" rx=".82"/>
    <rect fill="#D7DCE5" fill-rule="nonzero" x="22.45" y="107.79" width="14.14" height="18.07" rx=".82"/>
    <path d="M45.23 107.79h-5.59a.73.73 0 0 0-.73.73v16.61c0 .403.327.73.73.73h5.59v-18.07z" fill="#0073D1" fill-rule="nonzero"/>
    <rect fill="#D7DCE5" fill-rule="nonzero" x="5.98" y="103.24" width="19.8" height="2.27" rx=".66"/>
    <rect fill="#D7DCE5" fill-rule="nonzero" x="5.98" y="134.93" width="14.14" height="18.07" rx=".82"/>
    <rect fill="#D7DCE5" fill-rule="nonzero" x="22.45" y="134.93" width="14.14" height="18.07" rx=".82"/>
    <path d="M39.73 134.93h9.37V153h-9.37a.82.82 0 0 1-.82-.82v-16.43a.82.82 0 0 1 .82-.82zM39.73 107.79h9.37v18.07h-9.37a.82.82 0 0 1-.82-.82v-16.43a.82.82 0 0 1 .82-.82z" fill="#D7DCE5" fill-rule="nonzero"/>
    <rect fill="#D7DCE5" fill-rule="nonzero" x="5.98" y="130.38" width="19.8" height="2.27" rx=".66"/>
    <path d="M49.07 71.25a5.27 5.27 0 0 0-.58-1.89c-.08-.15-.17-.3-.26-.45a5 5 0 0 0-.66-.8l-.17-.16a.38.38 0 0 0-.09-.09 1.37 1.37 0 0 0-.23-.17 3.34 3.34 0 0 0-.7-.48c-.12-.07-.26-.13-.39-.19l-.49-.19-.22-.06a4.47 4.47 0 0 0-.81-.16h-.13a3.44 3.44 0 0 0-.46 0H5.5a5.21 5.21 0 0 0-5.21 5.21v88.87a5.21 5.21 0 0 0 5.21 5.21h38.38c.16.01.32.01.48 0h.11l.39-.06.4-.09.29-.09a5.23 5.23 0 0 0 1.69-1c.14-.12.27-.25.4-.38s.26-.29.38-.44l.09-.13c.07-.084.13-.174.18-.27a.55.55 0 0 0 .09-.14c.053-.083.1-.17.14-.26a2.49 2.49 0 0 0 .16-.33 4.68 4.68 0 0 0 .18-.48c0-.17.09-.34.13-.51.04-.17.06-.34.08-.51.01-.18.01-.36 0-.54V71.78a4.58 4.58 0 0 0 0-.53z" stroke="#0B2231"/>
    <path d="M49.07 71.25a5.27 5.27 0 0 0-.58-1.89c-.08-.15-.17-.3-.26-.45a5 5 0 0 0-.66-.8l-.17-.16a.38.38 0 0 0-.09-.09 1.37 1.37 0 0 0-.23-.17 3.34 3.34 0 0 0-.7-.48c-.12-.07-.26-.13-.39-.19l-.49-.19-.22-.06a4.47 4.47 0 0 0-.81-.16h-.13a3.44 3.44 0 0 0-.46 0H5.5a5.21 5.21 0 0 0-5.21 5.21v88.87a5.21 5.21 0 0 0 5.21 5.21h38.38c.16.01.32.01.48 0h.11l.39-.06.4-.09.29-.09a5.23 5.23 0 0 0 1.69-1c.14-.12.27-.25.4-.38s.26-.29.38-.44l.09-.13c.07-.084.13-.174.18-.27a.55.55 0 0 0 .09-.14c.053-.083.1-.17.14-.26a2.49 2.49 0 0 0 .16-.33 4.68 4.68 0 0 0 .18-.48c0-.17.09-.34.13-.51.04-.17.06-.34.08-.51.01-.18.01-.36 0-.54V71.78a4.58 4.58 0 0 0 0-.53z" stroke="#0B2231"/>
    <path d="M124.83 151.31a2 2 0 0 0 1.26.48h36.69V72.16l-17.09 1.46-20.86 77.69z" fill="#0B2231" fill-rule="nonzero" opacity=".15"/>
    <rect fill="#EDEFF2" fill-rule="nonzero" transform="rotate(90 215.765 116.96)" x="166.855" y="46.455" width="97.82" height="141.01" rx="8.26"/>
    <path d="M278 69.05a7.26 7.26 0 0 1 7.25 7.25v81.31a7.26 7.26 0 0 1-7.25 7.25H153.52a7.26 7.26 0 0 1-7.26-7.25V76.3a7.26 7.26 0 0 1 7.26-7.25H278zm0-1H153.52a8.25 8.25 0 0 0-8.26 8.25v81.31a8.25 8.25 0 0 0 8.26 8.25H278a8.25 8.25 0 0 0 8.25-8.25V76.3a8.25 8.25 0 0 0-8.25-8.25z" fill="#0B2231" fill-rule="nonzero"/>
    <!-- iPad screen -->
    <rect fill="#F8F8F8" fill-rule="nonzero" transform="rotate(90 219.225 116.955)" x="175.81" y="62.94" width="86.83" height="108.03" rx="1.2"/>
    <path d="M272 74.54a.19.19 0 0 1 .19.2v84.43a.19.19 0 0 1-.19.2H166.41a.2.2 0 0 1-.2-.2V74.74c0-.11.09-.2.2-.2H272zm0-1H166.41a1.2 1.2 0 0 0-1.2 1.2v84.43a1.19 1.19 0 0 0 1.2 1.2H272a1.19 1.19 0 0 0 1.19-1.2V74.74a1.19 1.19 0 0 0-1.19-1.2zM278.73 112.48a1.44 1.44 0 1 1-.02-2.88 1.44 1.44 0 0 1 .02 2.88zm0-1.87a.44.44 0 1 0-.132.87.44.44 0 0 0 .132-.87zM278.73 124.3a.5.5 0 0 1-.5-.5v-8.39a.5.5 0 0 1 1 0v8.39a.5.5 0 0 1-.5.5z" fill="#0B2231" fill-rule="nonzero"/>
    <path d="M273.23 74.61v84.69a1.1 1.1 0 0 1-.2.63c-.2.275-.52.438-.86.44h-106a1.13 1.13 0 0 1-.68-.31 1.11 1.11 0 0 1-.31-.76V74.61a1.07 1.07 0 0 1 1.08-1.07h105.91a1.06 1.06 0 0 1 1.06 1.07z" fill="#F8F8F8" fill-rule="nonzero"/>
    <path d="M272.17 74.54a.07.07 0 0 1 .06.07v84.69a.05.05 0 0 1-.05 0H166.25a.09.09 0 0 1 0-.07V74.61a.08.08 0 0 1 .08-.07h105.84zm0-1H166.29a1.07 1.07 0 0 0-1.08 1.07v84.69c.002.284.113.556.31.76.185.177.425.287.68.31h106c.34-.002.66-.165.86-.44a1.1 1.1 0 0 0 .2-.63V74.61a1.06 1.06 0 0 0-1.06-1.07h-.03z" fill="#0B2231" fill-rule="nonzero"/>
    <path d="M273.23 134.78v11.94c-10.8 0-10.8-3.58-21.6-3.58s-10.8 3.58-21.61 3.58c-10.81 0-10.8-3.58-21.6-3.58s-10.81 3.58-21.61 3.58c-10.8 0-10.8-3.58-21.6-3.58v-11.95c10.8 0 10.8 3.59 21.6 3.59s10.8-3.59 21.61-3.59c10.81 0 10.8 3.59 21.6 3.59s10.81-3.59 21.61-3.59c10.8 0 10.8 3.59 21.6 3.59z" fill="#4F5A6D" fill-rule="nonzero" opacity=".06"/>
    <path fill="#D7DCE5" fill-rule="nonzero" d="M235.23 123.81h3.1v36.56h-3.1z"/>
    <path fill="#D7DCE5" fill-rule="nonzero" d="M216.16 94h.17c.806 0 1.46.654 1.46 1.46v31.44h-3.1V95.47a1.46 1.46 0 0 1 1.47-1.47z"/>
    <path fill="#D7DCE5" fill-rule="nonzero" d="M257.22 89.14h.17c.806 0 1.46.654 1.46 1.46v36.3h-3.1V90.6a1.46 1.46 0 0 1 1.47-1.46z"/>
    <path fill="#D7DCE5" fill-rule="nonzero" d="M233.35 152.25h6.84v8.13h-6.84z"/>
    <path fill="#D7DCE5" fill-rule="nonzero" d="M214.69 126.9v-3.1h44.16v3.1z"/>

    <!-- Football -->
    <path id="football" d="M196.9 109.32a10.6 10.6 0 0 0-10.26 10.26 1.72 1.72 0 0 0 1.92 1.91 10.6 10.6 0 0 0 10.25-10.26 1.72 1.72 0 0 0-1.91-1.91zm-1.74 4.3l-.56.57.56.57-.66.65-.56-.56-.56.55.57.57-.66.65-.56-.56-.56.56.56.56-.65.66-.57-.57-.56.57-.66-.65.57-.57-.56-.56.65-.66.56.56.56-.56-.56-.56.66-.65.56.56.55-.56-.56-.56.66-.65.56.56.57-.57.65.65z" fill="#426CDD" fill-rule="nonzero"/>
    <path d="M156.14 122a5.07 5.07 0 1 1-.019-10.14 5.07 5.07 0 0 1 .019 10.14zm0-9.13a4.07 4.07 0 1 0 4.06 4.13 4.07 4.07 0 0 0-4.06-4.11v-.02z" fill="#B7C1D2" fill-rule="nonzero"/>
    <path fill="#4F5A6D" fill-rule="nonzero" opacity=".06" d="M165.73 87.23l20.25 72.66h-20.25z"/>
    <path d="M272 74.54a.19.19 0 0 1 .19.2v84.43a.19.19 0 0 1-.19.2H166.41a.2.2 0 0 1-.2-.2V74.74c0-.11.09-.2.2-.2H272zm0-1H166.41a1.2 1.2 0 0 0-1.2 1.2v84.43a1.19 1.19 0 0 0 1.2 1.2H272a1.19 1.19 0 0 0 1.19-1.2V74.74a1.19 1.19 0 0 0-1.19-1.2z" fill="#0B2231" fill-rule="nonzero"/>
    <path fill="#D7DCE5" fill-rule="nonzero" d="M191.42 84.13h-20.1v-5.72h20.1zM216.76 84.13h-25.34v-5.72h25.34zM247.03 84.13h-25.04v-5.72h25.04zM267.13 84.13h-20.1v-5.72h20.1z"/>
    <path fill="#001019" fill-rule="nonzero" opacity=".25" d="M278.91 80.57l6.52 70.88.28-56.92-5.16-12-.82-1.64z"/>
    <g fill-rule="nonzero">
      <path d="M302.52 69.69a1.7 1.7 0 0 0-1-.69s-4.28-1.49-11.83 1.83l-.34.15-.33.14-.34.15-.33.14c-7.55 3.32-9.36 7.48-9.36 7.48a1.68 1.68 0 0 0-.17 1.2.88.88 0 0 0 .05.15l37 84.18.12.26c.19.257.44.464.73.6 0 0 4.22 2.06 12.9-1.75s10-8.31 10-8.31a1.77 1.77 0 0 0 .05-.94l-.1-.27-36.95-84.18a.83.83 0 0 0-.1-.14z" fill="#63738A"/>
      <path d="M320.14 166.37a9 9 0 0 1-3.66-.61 2.39 2.39 0 0 1-.93-.79l-.12-.23-37-84.27c0-.09-.07-.16-.09-.22a2.25 2.25 0 0 1 .2-1.58c.15-.34 2.13-4.43 9.61-7.71l1.34-.59c7.64-3.36 12-1.91 12.19-1.85.518.136.97.456 1.27.9.037.058.07.118.1.18l37.08 84.51a2.37 2.37 0 0 1 0 1.28c-.06.22-1.53 4.77-10.29 8.61a24.18 24.18 0 0 1-9.7 2.37zm-3.22-1.51s4.16 1.89 12.48-1.76 9.7-7.9 9.74-8a1.33 1.33 0 0 0 .05-.67l-.09-.22-37-84.28a1.23 1.23 0 0 0-.7-.46l.05-.26-.08.25s-4.23-1.36-11.47 1.82l-1.34.58c-7.29 3.2-9.09 7.18-9.1 7.22l-.21-.09.2.11a1.26 1.26 0 0 0-.15.83.36.36 0 0 0 0 .09l37 84.22.12.24c.138.158.309.284.5.37v.01z" fill="#0B2231"/>
    </g>
    <g transform="translate(295 88)" fill-rule="nonzero">
      <circle fill="#D7DCE5" cx="3.28" cy="3.71" r="2.42"/>
      <path d="M3.28 6.63A2.93 2.93 0 0 1 .6 4.89a2.9 2.9 0 0 1-.05-2.24 2.92 2.92 0 1 1 3.9 3.74 2.85 2.85 0 0 1-1.17.24zM1.51 4.48a1.92 1.92 0 1 0 0-1.47 2 2 0 0 0 0 1.47z" fill="#0B2231"/>
    </g>
    <g transform="translate(294 108)" fill-rule="nonzero">
      <circle fill="#D7DCE5" cx="3.74" cy="3.32" r="2.42"/>
      <path d="M3.75 6.25a2.93 2.93 0 1 1 2.92-2.996A2.93 2.93 0 0 1 4.92 6a2.87 2.87 0 0 1-1.17.25zM2 4.1a1.92 1.92 0 1 0 3.513-1.55A1.92 1.92 0 0 0 2 4.1z" fill="#0B2231"/>
    </g>
    <g transform="translate(301 123)" fill-rule="nonzero">
      <circle fill="#D7DCE5" cx="3.17" cy="2.97" r="2.42"/>
      <path d="M3.17 5.89A2.92 2.92 0 1 1 4.23.24a3 3 0 0 1 1.62 1.55 2.93 2.93 0 0 1-2.68 4.1zm0-4.85a1.91 1.91 0 1 0 .7.13 2.11 2.11 0 0 0-.7-.17v.04z" fill="#0B2231"/>
    </g>
    <g transform="translate(305 133)" fill-rule="nonzero">
      <circle fill="#D7DCE5" cx="3.93" cy="3.6" r="2.42"/>
      <path d="M3.93 6.53A2.93 2.93 0 1 1 3.921.67a2.93 2.93 0 0 1 .009 5.86zm0-4.85a1.9 1.9 0 0 0-.77.16 1.93 1.93 0 0 0-1 1.06 1.9 1.9 0 0 0 0 1.48 1.92 1.92 0 1 0 1.76-2.7h.01z" fill="#0B2231"/>
    </g>
    <g transform="translate(313 130)" fill-rule="nonzero">
      <circle fill="#D7DCE5" cx="3.39" cy="3.33" r="2.42"/>
      <path d="M3.39 6.25a2.92 2.92 0 0 1-2.73-4 2.93 2.93 0 1 1 3.9 3.74 3 3 0 0 1-1.17.26zm0-4.85A2 2 0 0 0 1.6 2.63c-.2.47-.2 1 0 1.47a1.921 1.921 0 1 0 3.52-1.54 1.89 1.89 0 0 0-1.06-1 1.94 1.94 0 0 0-.67-.16z" fill="#0B2231"/>
    </g>
    <g transform="translate(321 127)" fill-rule="nonzero">
      <circle fill="#D7DCE5" cx="2.93" cy="3.02" r="2.42"/>
      <path d="M2.94 5.94A2.91 2.91 0 0 1 .26 4.19a2.92 2.92 0 1 1 3.85 1.5 2.87 2.87 0 0 1-1.17.25zM1.17 3.79a1.93 1.93 0 1 0 3.547-1.523A1.93 1.93 0 0 0 1.17 3.79z" fill="#0B2231"/>
    </g>
    <g transform="translate(308 139)" fill-rule="nonzero">
      <circle fill="#D7DCE5" cx="3.51" cy="3.49" r="2.42"/>
      <path d="M3.52 6.41a2.93 2.93 0 1 1 2.92-2.996A2.93 2.93 0 0 1 4.69 6.16a2.87 2.87 0 0 1-1.17.25zM1.75 4.26a1.93 1.93 0 0 0 2.53 1 1.93 1.93 0 0 0 1-2.54 1.93 1.93 0 0 0-2.53-1 2 2 0 0 0-1 1.07c-.2.47-.2 1 0 1.47z" fill="#0B2231"/>
    </g>
    <g transform="translate(316 136)" fill-rule="nonzero">
      <circle fill="#D7DCE5" cx="2.97" cy="3.21" r="2.42"/>
      <path d="M3 6.13A2.93 2.93 0 0 1 .32 4.39 3 3 0 0 1 1.82.53a2.93 2.93 0 0 1 2.36 5.36A2.9 2.9 0 0 1 3 6.13zm0-4.84a1.92 1.92 0 0 0-1.79 1.22c-.2.47-.2 1 0 1.47a1.91 1.91 0 0 0 2.53 1 1.92 1.92 0 0 0 1-2.53A1.93 1.93 0 0 0 3 1.29z" fill="#0B2231"/>
    </g>
    <g transform="translate(323 132)" fill-rule="nonzero">
      <circle fill="#D7DCE5" cx="3.52" cy="3.9" r="2.42"/>
      <path d="M3.52 6.82A2.91 2.91 0 0 1 .84 5.07a2.94 2.94 0 1 1 2.68 1.75zm0-4.85a2 2 0 0 0-.77.17 1.93 1.93 0 0 0-1 2.53 2 2 0 0 0 1.07 1c.47.2 1 .2 1.47 0a1.93 1.93 0 0 0-.78-3.69l.01-.01z" fill="#0B2231"/>
    </g>
    <g transform="translate(321 148)" fill-rule="nonzero">
      <circle fill="#D7DCE5" cx="3.14" cy="2.97" r="2.42"/>
      <path d="M3.14 5.9A2.91 2.91 0 0 1 .47 4.15a2.92 2.92 0 1 1 5.4-.12 3 3 0 0 1-1.55 1.62 3 3 0 0 1-1.18.25zm0-4.85a1.92 1.92 0 1 0 .043 3.84A1.93 1.93 0 0 0 4.94 3.67a2 2 0 0 0 0-1.47 1.94 1.94 0 0 0-1.8-1.15z" fill="#0B2231"/>
    </g>
    <g transform="translate(311 145)" fill-rule="nonzero">
      <circle fill="#D7DCE5" cx="3.09" cy="3.37" r="2.42"/>
      <path d="M3.09 6.29A2.91 2.91 0 0 1 .42 4.54 2.91 2.91 0 0 1 1.92.69a2.93 2.93 0 0 1 3.9 3.74 2.91 2.91 0 0 1-1.55 1.61 2.88 2.88 0 0 1-1.18.25zm0-4.85A2 2 0 0 0 1.3 2.67a2 2 0 0 0 0 1.47 2 2 0 0 0 1.07 1c.47.195 1 .195 1.47 0a2 2 0 0 0 1-1.06 2 2 0 0 0 0-1.48 2 2 0 0 0-1.07-1 2.07 2.07 0 0 0-.68-.16z" fill="#0B2231"/>
    </g>
    <g transform="translate(318 142)" fill-rule="nonzero">
      <circle fill="#D7DCE5" cx="3.55" cy="3.09" r="2.42"/>
      <path d="M3.56 6A3 3 0 0 1 .87 4.25a2.93 2.93 0 1 1 3.86 1.5A2.87 2.87 0 0 1 3.56 6zM1.79 3.85a1.92 1.92 0 0 0 2.54 1 1.85 1.85 0 0 0 1-1.06c.2-.47.2-1 0-1.47a1.92 1.92 0 0 0-2.53-1 2 2 0 0 0-1 1.06 1.9 1.9 0 0 0 0 1.48l-.01-.01z" fill="#0B2231"/>
    </g>
    <g transform="translate(326 138)" fill-rule="nonzero">
      <circle fill="#D7DCE5" cx="3.1" cy="3.78" r="2.42"/>
      <path d="M3.1 6.7A2.92 2.92 0 1 1 3.121.86 2.92 2.92 0 0 1 3.1 6.7zm0-4.85a1.84 1.84 0 0 0-.77.17 1.92 1.92 0 1 0 1.47 0 1.94 1.94 0 0 0-.7-.17z" fill="#0B2231"/>
    </g>
    <g transform="translate(316 116)" fill-rule="nonzero">
      <circle fill="#D7DCE5" cx="3.18" cy="3.38" r="2.42"/>
      <path d="M3.18 6.3A2.91 2.91 0 1 1 3.205.48 2.91 2.91 0 0 1 3.18 6.3zm0-4.84a1.94 1.94 0 1 0 0 0z" fill="#0B2231"/>
    </g>
    <g transform="translate(309 101)" fill-rule="nonzero">
      <circle fill="#D7DCE5" cx="3.75" cy="3.74" r="2.42"/>
      <path d="M3.75 6.66a2.91 2.91 0 0 1-2.68-1.75 2.93 2.93 0 0 1 3.74-3.9 2.85 2.85 0 0 1 1.61 1.55 2.92 2.92 0 0 1-1.5 3.85 2.87 2.87 0 0 1-1.17.25zm0-4.85a1.91 1.91 0 0 0-1.76 2.7 1.9 1.9 0 0 0 1.06 1 2 2 0 0 0 1.47 0 1.93 1.93 0 0 0 1-2.54 2 2 0 0 0-1.06-1 1.93 1.93 0 0 0-.71-.16z" fill="#0B2231"/>
    </g>
    <g transform="translate(282 78)" fill-rule="nonzero">
      <circle fill="#D7DCE5" cx="2.5" cy="2.79" r="1.59"/>
      <path d="M2.5 4.88a2.11 2.11 0 1 1 2.029-1.506A2.11 2.11 0 0 1 2.5 4.88zm-1-1.65a1.09 1.09 0 1 0 .56-1.43 1.08 1.08 0 0 0-.56 1.43z" fill="#0B2231"/>
    </g>
    <g transform="translate(292 82)" fill-rule="nonzero">
      <circle fill="#D7DCE5" cx="3.57" cy="3.54" r="2.42"/>
      <path d="M3.57 6.47A3 3 0 0 1 .89 4.72 2.93 2.93 0 0 1 2.39.86a2.9 2.9 0 0 1 2.24 0 2.85 2.85 0 0 1 1.61 1.55 2.92 2.92 0 0 1-1.5 3.85 3 3 0 0 1-1.17.21zm0-4.85a1.91 1.91 0 0 0-1.76 2.69 1.92 1.92 0 1 0 1.76-2.68v-.01z" fill="#0B2231"/>
    </g>
    <g transform="translate(298 94)" fill-rule="nonzero">
      <circle fill="#D7DCE5" cx="2.98" cy="3.88" r="2.42"/>
      <path d="M3 6.81A2.93 2.93 0 0 1 .32 5.06a2.92 2.92 0 1 1 3.85 1.5A2.87 2.87 0 0 1 3 6.81zM1.23 4.66a1.93 1.93 0 1 0 1-2.54 1.92 1.92 0 0 0-1 2.54z" fill="#0B2231"/>
    </g>
    <g transform="translate(298 105)" fill-rule="nonzero">
      <rect fill="#D7DCE5" transform="rotate(-68.7 10.457 10.248)" x="3.052" y="2.843" width="14.81" height="14.81" rx="1.6"/>
      <path d="M13.75 19.85a2 2 0 0 1-.76-.14L2.17 15.49a2.07 2.07 0 0 1-1.16-1.11 2 2 0 0 1 0-1.61L5.19 2A2.09 2.09 0 0 1 6.31.84a2.11 2.11 0 0 1 1.6 0L18.73 5a2.1 2.1 0 0 1 1.19 2.72L15.7 18.54a2.07 2.07 0 0 1-1.11 1.16 2 2 0 0 1-.84.15zM7.15 1.62c-.151 0-.3.03-.44.09a1.14 1.14 0 0 0-.59.61L1.91 13.14a1.07 1.07 0 0 0 0 .84 1 1 0 0 0 .6.58l10.82 4.22c.27.11.57.11.84 0 .27-.115.48-.335.58-.61L19 7.34a1.06 1.06 0 0 0 0-.84 1.1 1.1 0 0 0-.61-.59L7.58 1.7a1.14 1.14 0 0 0-.43-.08z" fill="#0B2231"/>
    </g>
    <g transform="translate(304 111)" fill-rule="nonzero">
      <circle fill="#426CDD" cx="4.45" cy="4.25" r="3.62"/>
      <path d="M4.46 8.37A4.12 4.12 0 0 1 .68 5.9a4.12 4.12 0 1 1 5.43 2.12 4 4 0 0 1-1.65.35zM1.6 5.5a3.11 3.11 0 0 0 4.11 1.6 3.06 3.06 0 0 0 1.65-1.72 3.11 3.11 0 0 0-4.16-4 3.11 3.11 0 0 0-1.6 4.1v.02z" fill="#0B2231"/>
    </g>
    <g transform="translate(284 85)" fill-rule="nonzero">
      <rect fill="#D7DCE5" transform="rotate(-23.7 6.78 10.023)" x="4.42" y=".833" width="4.72" height="18.38" rx="1.65"/>
      <path d="M9.17 19.36a2.17 2.17 0 0 1-2-1.29L1.11 4.26a2.16 2.16 0 0 1 1.11-2.84L3.51.86a2.16 2.16 0 0 1 2.84 1.11l6.06 13.8a2.16 2.16 0 0 1-1.11 2.84l-1.29.56a2.19 2.19 0 0 1-.84.19zM4.39 1.68a1.25 1.25 0 0 0-.46.09l-1.29.57a1.15 1.15 0 0 0-.59 1.52l6.06 13.8c.121.284.352.508.64.62.282.115.598.115.88 0l1.29-.57a1.13 1.13 0 0 0 .61-.64 1.17 1.17 0 0 0 0-.88L5.47 2.39a1.14 1.14 0 0 0-1.08-.71z" fill="#0B2231"/>
    </g>
    <g transform="translate(299 79)" fill-rule="nonzero">
      <rect fill="#D7DCE5" transform="rotate(-23.7 6.756 9.456)" x="4.396" y=".266" width="4.72" height="18.38" rx="1.65"/>
      <path d="M9.15 18.78a2.17 2.17 0 0 1-1.98-1.29L1.11 3.69A2.16 2.16 0 0 1 2.22.85L3.51.28a2.16 2.16 0 0 1 2.84 1.11l6.06 13.8a2.15 2.15 0 0 1 0 1.65A2.12 2.12 0 0 1 11.3 18l-1.29.57c-.269.13-.562.2-.86.21zM4.37 1.1a1.09 1.09 0 0 0-.46.1l-1.29.56a1.15 1.15 0 0 0-.59 1.52l6.06 13.81a1.15 1.15 0 0 0 1.52.59l1.29-.56c.585-.26.85-.945.59-1.53L5.43 1.79a1.13 1.13 0 0 0-.64-.61 1.16 1.16 0 0 0-.42-.08z" fill="#0B2231"/>
    </g>
    <path d="M255.34 45.76H210.7v-26.9h44.64v26.9zm-43.64-1h42.64v-24.9H211.7v24.9z" fill="#CED2D8" fill-rule="nonzero"/>
  </g>
</svg>