<svg id="Layer_1" data-name="Layer 1" xmlns="http://www.w3.org/2000/svg" viewBox="0 0 398.57 231.55"><defs><style>.cls-1{fill:#f2f2f2;opacity:0.9;}.cls-2{opacity:0.5;}.cls-3{fill:#7f93a5;}.cls-4{fill:#4f5a6d;}.cls-10,.cls-5,.cls-8{fill:#0b2231;}.cls-6{opacity:0.4;}.cls-7{fill:#d7dce5;}.cls-8{opacity:0.15;}.cls-9{fill:#fff;}.cls-10{opacity:0.3;}.cls-11{fill:#90d0b6;}.cls-12{fill:#fba756;}.cls-13{fill:#f09843;}</style></defs><title>Artboard 82</title><path class="cls-1" d="M364.18,199.67c-3-7.86-6-15.57-11.74-21.74-14.71-15.78-25.71-21.09-24.43-39.83,1.08-15.9,10.49-29.07-2.41-53.35-13.38-25.16-51.9-19.89-91.92-66C217.27-.16,179.47-8,141.37,10.64a82.66,82.66,0,0,0-33.91,30c-13.18,21.21-4.86,33.79-9.94,56.71-8.37,37.76-45.71,38.79-57.23,70.54a64.16,64.16,0,0,0-2.85,31.75Z"/><g class="cls-2"><path class="cls-3" d="M336.71,200.28H264.5a.5.5,0,0,1-.5-.5V150a.5.5,0,0,1,.5-.5h72.21a.5.5,0,0,1,.5.5v49.8A.5.5,0,0,1,336.71,200.28Zm-71.71-1h71.21v-48.8H265Z"/><path class="cls-3" d="M336.75,159.07H264.46a.5.5,0,0,1-.5-.5.5.5,0,0,1,.5-.5h72.29a.5.5,0,0,1,.5.5A.5.5,0,0,1,336.75,159.07Z"/><path class="cls-3" d="M300.61,166.11a.5.5,0,0,1-.5-.5V155a.5.5,0,0,1,.5-.5.5.5,0,0,1,.5.5v10.66A.5.5,0,0,1,300.61,166.11Z"/><path class="cls-3" d="M306.25,180.45H295a1.3,1.3,0,0,1-1.3-1.3v-9a1.3,1.3,0,0,1,1.3-1.3h11.29a1.3,1.3,0,0,1,1.3,1.3v9A1.3,1.3,0,0,1,306.25,180.45ZM295,169.87a.29.29,0,0,0-.3.3v9a.3.3,0,0,0,.3.3h11.29a.3.3,0,0,0,.3-.3v-9a.29.29,0,0,0-.3-.3Zm6.94,7.79h-2.59a.48.48,0,0,1-.4-.2.53.53,0,0,1-.08-.44l.48-1.59a2.09,2.09,0,0,1-.82-1.66,2.12,2.12,0,1,1,4.23,0,2.09,2.09,0,0,1-.82,1.66l.48,1.59a.46.46,0,0,1-.08.44A.48.48,0,0,1,301.9,177.66Zm-1.92-1h1.25l-.4-1.3a.49.49,0,0,1,.26-.59,1.12,1.12,0,1,0-1,0,.49.49,0,0,1,.26.59Z"/><path class="cls-3" d="M304.9,169.67a.51.51,0,0,1-.5-.5V167a3.73,3.73,0,1,0-7.46,0v2.16a.5.5,0,0,1-.5.5.51.51,0,0,1-.5-.5V167a4.73,4.73,0,1,1,9.46,0v2.16A.5.5,0,0,1,304.9,169.67Z"/></g><polygon class="cls-4" points="148.92 199.17 142.78 199.17 140.47 186.82 151.23 186.82 148.92 199.17"/><path class="cls-5" d="M148.92,199.67h-6.14a.5.5,0,0,1-.49-.41L140,186.92a.47.47,0,0,1,.11-.41.47.47,0,0,1,.38-.19h10.76a.47.47,0,0,1,.38.19.47.47,0,0,1,.11.41l-2.31,12.34A.5.5,0,0,1,148.92,199.67Zm-5.73-1h5.31l2.12-11.35h-9.55Z"/><polygon class="cls-4" points="249.19 199.17 243.04 199.17 240.74 186.82 251.49 186.82 249.19 199.17"/><path class="cls-5" d="M249.18,199.67H243a.51.51,0,0,1-.49-.41l-2.3-12.34a.49.49,0,0,1,.1-.41.51.51,0,0,1,.39-.19h10.75a.51.51,0,0,1,.39.19.49.49,0,0,1,.1.41l-2.3,12.34A.51.51,0,0,1,249.18,199.67Zm-5.72-1h5.31l2.12-11.35h-9.55Z"/><g class="cls-6"><polygon class="cls-5" points="241.74 192.17 250.49 192.17 251.49 186.82 240.74 186.82 241.74 192.17"/><polygon class="cls-5" points="141.47 192.17 150.23 192.17 151.23 186.82 140.47 186.82 141.47 192.17"/></g><rect class="cls-4" x="120.74" y="27.33" width="150.49" height="160.71" rx="6.65" ry="6.65"/><path class="cls-5" d="M264.58,188.55H127.38a7.15,7.15,0,0,1-7.14-7.15V34a7.15,7.15,0,0,1,7.14-7.15h137.2A7.16,7.16,0,0,1,271.73,34V181.4A7.16,7.16,0,0,1,264.58,188.55ZM127.38,27.83A6.16,6.16,0,0,0,121.24,34V181.4a6.16,6.16,0,0,0,6.14,6.15h137.2a6.16,6.16,0,0,0,6.15-6.15V34a6.16,6.16,0,0,0-6.15-6.15Z"/><rect class="cls-7" x="130.95" y="37.47" width="130.06" height="140.43" rx="2.32" ry="2.32"/><path class="cls-5" d="M258.69,178.41H133.27a2.83,2.83,0,0,1-2.82-2.82V39.79A2.83,2.83,0,0,1,133.27,37H258.69a2.83,2.83,0,0,1,2.82,2.82v135.8A2.83,2.83,0,0,1,258.69,178.41ZM133.27,38a1.83,1.83,0,0,0-1.82,1.82v135.8a1.83,1.83,0,0,0,1.82,1.82H258.69a1.83,1.83,0,0,0,1.82-1.82V39.79A1.83,1.83,0,0,0,258.69,38Z"/><rect class="cls-7" x="125.69" y="57.3" width="10.96" height="25.39" rx="2.03" ry="2.03"/><path class="cls-5" d="M134.62,83.19h-6.9a2.53,2.53,0,0,1-2.53-2.53V59.33a2.53,2.53,0,0,1,2.53-2.53h6.9a2.54,2.54,0,0,1,2.53,2.53V80.66A2.54,2.54,0,0,1,134.62,83.19Zm-6.9-25.39a1.53,1.53,0,0,0-1.53,1.53V80.66a1.53,1.53,0,0,0,1.53,1.53h6.9a1.54,1.54,0,0,0,1.53-1.53V59.33a1.54,1.54,0,0,0-1.53-1.53Z"/><path class="cls-8" d="M134.62,57.3h-3.45V82.69h3.45a2,2,0,0,0,2-2V59.33A2,2,0,0,0,134.62,57.3Z"/><rect class="cls-7" x="125.69" y="132.69" width="10.96" height="25.39" rx="2.03" ry="2.03"/><path class="cls-5" d="M134.62,158.58h-6.9a2.53,2.53,0,0,1-2.53-2.53V134.72a2.53,2.53,0,0,1,2.53-2.53h6.9a2.54,2.54,0,0,1,2.53,2.53v21.33A2.54,2.54,0,0,1,134.62,158.58Zm-6.9-25.39a1.53,1.53,0,0,0-1.53,1.53v21.33a1.53,1.53,0,0,0,1.53,1.53h6.9a1.54,1.54,0,0,0,1.53-1.53V134.72a1.54,1.54,0,0,0-1.53-1.53Z"/><path class="cls-8" d="M134.62,132.69h-3.45v25.39h3.45a2,2,0,0,0,2-2V134.72A2,2,0,0,0,134.62,132.69Z"/><path class="cls-5" d="M136.26,64.15H126a.5.5,0,0,1-.5-.5.5.5,0,0,1,.5-.5h10.31a.51.51,0,0,1,.5.5A.5.5,0,0,1,136.26,64.15Z"/><path class="cls-5" d="M136.26,70.5H126a.5.5,0,0,1-.5-.5.5.5,0,0,1,.5-.5h10.31a.5.5,0,0,1,.5.5A.51.51,0,0,1,136.26,70.5Z"/><path class="cls-5" d="M136.26,76.84H126a.5.5,0,0,1,0-1h10.31a.5.5,0,0,1,0,1Z"/><path class="cls-5" d="M136.26,139.55H126a.5.5,0,0,1-.5-.5.5.5,0,0,1,.5-.5h10.31a.5.5,0,0,1,.5.5A.51.51,0,0,1,136.26,139.55Z"/><path class="cls-5" d="M136.26,145.89H126a.5.5,0,1,1,0-1h10.31a.5.5,0,0,1,0,1Z"/><path class="cls-5" d="M136.26,152.23H126a.5.5,0,0,1-.5-.5.5.5,0,0,1,.5-.5h10.31a.51.51,0,0,1,.5.5A.5.5,0,0,1,136.26,152.23Z"/><circle class="cls-4" cx="196.05" cy="68.21" r="11.1"/><path class="cls-5" d="M196.05,79.81a11.6,11.6,0,1,1,11.6-11.6A11.61,11.61,0,0,1,196.05,79.81Zm0-22.2a10.6,10.6,0,1,0,10.6,10.6A10.61,10.61,0,0,0,196.05,57.61Z"/><path class="cls-5" d="M196.08,59.63a.5.5,0,0,1-.5-.5V57.38a.5.5,0,1,1,1,0v1.75A.5.5,0,0,1,196.08,59.63Z"/><path class="cls-5" d="M196.08,79.55a.5.5,0,0,1-.5-.5V77.3a.5.5,0,1,1,1,0v1.75A.5.5,0,0,1,196.08,79.55Z"/><path class="cls-5" d="M187,68.72h-1.76a.51.51,0,0,1-.5-.5.5.5,0,0,1,.5-.5H187a.5.5,0,0,1,.5.5A.51.51,0,0,1,187,68.72Z"/><path class="cls-5" d="M206.92,68.72h-1.76a.51.51,0,0,1-.5-.5.5.5,0,0,1,.5-.5h1.76a.5.5,0,0,1,.5.5A.51.51,0,0,1,206.92,68.72Z"/><line class="cls-4" x1="189.66" y1="61.79" x2="188.42" y2="60.55"/><path class="cls-5" d="M189.66,62.29a.54.54,0,0,1-.36-.14l-1.24-1.24a.51.51,0,0,1,0-.71.5.5,0,0,1,.71,0L190,61.44a.51.51,0,0,1,0,.71A.54.54,0,0,1,189.66,62.29Z"/><line class="cls-4" x1="203.74" y1="75.88" x2="202.5" y2="74.64"/><path class="cls-5" d="M203.74,76.38a.49.49,0,0,1-.35-.15L202.15,75a.48.48,0,0,1,0-.7.5.5,0,0,1,.71,0l1.24,1.24a.5.5,0,0,1,0,.7A.51.51,0,0,1,203.74,76.38Z"/><line class="cls-4" x1="189.66" y1="74.64" x2="188.42" y2="75.88"/><path class="cls-5" d="M188.42,76.38a.51.51,0,0,1-.36-.15.5.5,0,0,1,0-.7l1.24-1.24a.5.5,0,0,1,.71,0,.5.5,0,0,1,0,.7l-1.24,1.24A.5.5,0,0,1,188.42,76.38Z"/><line class="cls-4" x1="203.74" y1="60.55" x2="202.5" y2="61.79"/><path class="cls-5" d="M202.5,62.29a.52.52,0,0,1-.35-.14.5.5,0,0,1,0-.71l1.24-1.24a.5.5,0,0,1,.71,0,.51.51,0,0,1,0,.71l-1.24,1.24A.54.54,0,0,1,202.5,62.29Z"/><path class="cls-9" d="M200.63,65l.4-1.71-1.72.4a5.52,5.52,0,0,0-3.23-1A5.59,5.59,0,1,0,200.63,65Z"/><path class="cls-5" d="M196.08,74.3a6.09,6.09,0,0,1,0-12.17,6,6,0,0,1,3.33,1l1.5-.36a.54.54,0,0,1,.47.14.5.5,0,0,1,.13.47l-.35,1.49a6.08,6.08,0,0,1-5.08,9.43Zm0-11.17a5.09,5.09,0,1,0,4.14,2.13.51.51,0,0,1-.08-.4l.22-.93-.93.22a.5.5,0,0,1-.41-.08A5,5,0,0,0,196.08,63.13Z"/><circle class="cls-7" cx="196.08" cy="68.21" r="2.78"/><path class="cls-5" d="M196.08,71.5a3.29,3.29,0,1,1,3.29-3.29A3.29,3.29,0,0,1,196.08,71.5Zm0-5.57a2.29,2.29,0,1,0,2.29,2.28A2.28,2.28,0,0,0,196.08,65.93Z"/><path class="cls-10" d="M196.11,98a32.8,32.8,0,1,0,32.8,32.8A32.8,32.8,0,0,0,196.11,98Zm8.44,19.37a15.87,15.87,0,0,0-16.88,0l-6.13-6.13a24.39,24.39,0,0,1,29.14,0Zm-21.87,5a15.87,15.87,0,0,0,0,16.88l-6.12,6.13a24.39,24.39,0,0,1,0-29.14Zm5,21.86a15.82,15.82,0,0,0,16.88,0l6.13,6.13a24.39,24.39,0,0,1-29.14,0Zm21.86-5a15.82,15.82,0,0,0,0-16.88l6.13-6.13a24.39,24.39,0,0,1,0,29.14Z"/><circle class="cls-11" cx="196.11" cy="127.18" r="15.86"/><path class="cls-4" d="M196.11,94.38a32.8,32.8,0,1,0,32.8,32.8A32.79,32.79,0,0,0,196.11,94.38Zm0,8.41a24.27,24.27,0,0,1,14.57,4.83l-6.12,6.13a15.89,15.89,0,0,0-16.89,0l-6.13-6.13A24.32,24.32,0,0,1,196.11,102.79Zm-24.38,24.39a24.27,24.27,0,0,1,4.83-14.57l6.13,6.12a15.83,15.83,0,0,0,0,16.89l-6.13,6.13A24.32,24.32,0,0,1,171.73,127.18Zm24.38,24.38a24.32,24.32,0,0,1-14.57-4.83l6.13-6.13a15.83,15.83,0,0,0,16.89,0l6.12,6.13A24.27,24.27,0,0,1,196.11,151.56Zm19.56-9.81-6.13-6.13a15.89,15.89,0,0,0,0-16.89l6.13-6.12a24.39,24.39,0,0,1,0,29.14Z"/><path class="cls-5" d="M196.11,160.47a33.3,33.3,0,1,1,33.3-33.29A33.32,33.32,0,0,1,196.11,160.47Zm0-65.59a32.3,32.3,0,1,0,32.3,32.3A32.33,32.33,0,0,0,196.11,94.88Zm0,57.18a24.75,24.75,0,0,1-14.87-4.93.57.57,0,0,1-.2-.37.53.53,0,0,1,.15-.39l6.13-6.12a.49.49,0,0,1,.62-.07,15.34,15.34,0,0,0,16.35,0,.49.49,0,0,1,.62.07l6.13,6.12a.52.52,0,0,1,.14.39.49.49,0,0,1-.2.37A24.7,24.7,0,0,1,196.11,152.06Zm-13.8-5.39a23.9,23.9,0,0,0,27.61,0l-5.44-5.44a16.3,16.3,0,0,1-16.73,0Zm33.36-4.42a.53.53,0,0,1-.36-.15L209.18,136a.5.5,0,0,1-.06-.62,15.37,15.37,0,0,0,0-16.35.51.51,0,0,1,.07-.62l6.13-6.13a.52.52,0,0,1,.39-.14.49.49,0,0,1,.37.2,24.88,24.88,0,0,1,0,29.73.49.49,0,0,1-.37.2Zm-5.5-6.71,5.44,5.44a23.9,23.9,0,0,0,0-27.61l-5.44,5.44a16.36,16.36,0,0,1,0,16.73Zm-33.61,6.71h0a.49.49,0,0,1-.36-.2,24.88,24.88,0,0,1,0-29.73.49.49,0,0,1,.36-.2.5.5,0,0,1,.39.14l6.13,6.13a.49.49,0,0,1,.07.62,15.34,15.34,0,0,0,0,16.35.49.49,0,0,1-.07.62l-6.13,6.13A.51.51,0,0,1,176.56,142.25Zm.06-28.88a23.9,23.9,0,0,0,0,27.61l5.44-5.44a16.3,16.3,0,0,1,0-16.73Zm27.94.88a.43.43,0,0,1-.27-.08,15.39,15.39,0,0,0-16.35,0,.5.5,0,0,1-.62-.06L181.19,108a.53.53,0,0,1-.15-.39.57.57,0,0,1,.2-.37,24.89,24.89,0,0,1,29.74,0,.49.49,0,0,1,.2.37.52.52,0,0,1-.14.39l-6.13,6.13A.54.54,0,0,1,204.56,114.25Zm-22.25-6.57,5.44,5.44a16.36,16.36,0,0,1,16.73,0l5.44-5.44a23.9,23.9,0,0,0-27.61,0Z"/><circle class="cls-9" cx="196.11" cy="127.18" r="8.68"/><path class="cls-5" d="M196.11,136.36a9.19,9.19,0,1,1,9.19-9.18A9.19,9.19,0,0,1,196.11,136.36Zm0-17.37a8.19,8.19,0,1,0,8.19,8.19A8.19,8.19,0,0,0,196.11,119Z"/><path class="cls-7" d="M367.88,215.9H313.65a.51.51,0,0,1-.5-.5.5.5,0,0,1,.5-.5h54.23a.5.5,0,0,1,.5.5A.5.5,0,0,1,367.88,215.9Z"/><path class="cls-7" d="M296.85,215.9H30.69a.51.51,0,0,1-.5-.5.5.5,0,0,1,.5-.5H296.85a.5.5,0,0,1,.5.5A.51.51,0,0,1,296.85,215.9Z"/><path class="cls-7" d="M342.79,231.55h-287a.5.5,0,0,1-.5-.5.5.5,0,0,1,.5-.5h287a.5.5,0,0,1,.5.5A.51.51,0,0,1,342.79,231.55Z"/><path class="cls-5" d="M398.07,200.25H.5a.5.5,0,0,1-.5-.5.5.5,0,0,1,.5-.5H398.07a.5.5,0,0,1,.5.5A.5.5,0,0,1,398.07,200.25Z"/><path class="cls-12" d="M100.57,180.67H73.35a1.68,1.68,0,0,1-1.59-2.2l4.63-14.41a2.83,2.83,0,0,1,2.69-2H94.85a2.84,2.84,0,0,1,2.69,2l4.63,14.41A1.68,1.68,0,0,1,100.57,180.67Z"/><path class="cls-13" d="M101.62,176.77H72.3l-.54,1.7a1.68,1.68,0,0,0,1.59,2.2h27.22a1.68,1.68,0,0,0,1.6-2.2Z"/><path class="cls-12" d="M83.65,199.23H56.43a1.68,1.68,0,0,1-1.6-2.19l4.63-14.41a2.82,2.82,0,0,1,2.69-2H77.92a2.82,2.82,0,0,1,2.69,2L85.24,197A1.68,1.68,0,0,1,83.65,199.23Z"/><path class="cls-13" d="M84.7,195.34H55.38l-.55,1.7a1.68,1.68,0,0,0,1.6,2.19H83.65A1.68,1.68,0,0,0,85.24,197Z"/><path class="cls-12" d="M117.5,199.23H90.28a1.68,1.68,0,0,1-1.6-2.19l4.63-14.41a2.82,2.82,0,0,1,2.69-2h15.77a2.82,2.82,0,0,1,2.69,2L119.09,197A1.68,1.68,0,0,1,117.5,199.23Z"/><path class="cls-13" d="M118.55,195.34H89.23l-.55,1.7a1.68,1.68,0,0,0,1.6,2.19H117.5a1.68,1.68,0,0,0,1.59-2.19Z"/></svg>