<svg id="Layer_1" data-name="Layer 1" xmlns="http://www.w3.org/2000/svg" viewBox="0 0 398.57 231.15"><defs><style>.cls-1{fill:#f2f2f2;opacity:0.9;}.cls-2{opacity:0.5;}.cls-3{fill:#7f93a5;}.cls-4{fill:#008516;}.cls-5{fill:#00bf1f;}.cls-6{fill:#007210;opacity:0.2;}.cls-7{fill:#bfc9d2;}.cls-8{fill:#4f5a6d;}.cls-9{fill:#0b2231;}.cls-10{fill:#fff;}.cls-11{fill:#d8dde6;}.cls-12{fill:#f8f8f8;}.cls-13{fill:#004366;}.cls-14{fill:#008cff;}.cls-15{fill:#002133;}.cls-16{fill:#d7dce5;}</style></defs><title>Artboard 93</title><path class="cls-1" d="M75,198.58l224.23.83c2.55-1.47-4.79-2.12-1.78-2.21,32-1,60.27-65.36,22.67-89.29C217.36,42.52,236.36-3.15,159.65.17c-56,2.42-77.23,36.89-93.46,74.57-11,25.6-5.68,43.09,6.33,65.53C83.48,160.75,55.47,177.55,75,198.58Z"/><g class="cls-2"><path class="cls-3" d="M273.42,174.09h-148a.5.5,0,0,1-.5-.5V26.85a.5.5,0,0,1,.5-.5.51.51,0,0,1,.5.5V173.09h147.5a.5.5,0,0,1,.5.5A.51.51,0,0,1,273.42,174.09Z"/><path class="cls-3" d="M273.42,105.08a.5.5,0,0,1-.5-.5V26.85a.5.5,0,0,1,.5-.5.51.51,0,0,1,.5.5v77.73A.5.5,0,0,1,273.42,105.08Z"/><path class="cls-3" d="M247,138.93H151.12a.5.5,0,0,1-.5-.5v-34.3a.5.5,0,0,1,.5-.5H247a.5.5,0,0,1,.5.5v34.3A.5.5,0,0,1,247,138.93Zm-95.35-1h94.85v-33.3H151.62Z"/><path class="cls-3" d="M242.36,134.19H155.73a.5.5,0,0,1-.5-.5V108.87a.5.5,0,0,1,.5-.5h86.63a.5.5,0,0,1,.5.5v24.82A.5.5,0,0,1,242.36,134.19Zm-86.13-1h85.63V109.37H156.23Z"/><path class="cls-3" d="M247,104.63H151.12a.5.5,0,0,1-.5-.5.5.5,0,0,1,.5-.5H247a.5.5,0,0,1,.5.5A.5.5,0,0,1,247,104.63Z"/><path class="cls-3" d="M155.69,109.3a.5.5,0,0,1-.35-.15l-4.27-4.26a.51.51,0,0,1,0-.71.5.5,0,0,1,.71,0l4.27,4.27a.5.5,0,0,1,0,.7A.51.51,0,0,1,155.69,109.3Z"/><path class="cls-3" d="M242.28,109.3a.51.51,0,0,1-.36-.15.5.5,0,0,1,0-.7l4.27-4.27a.5.5,0,0,1,.71,0,.51.51,0,0,1,0,.71l-4.27,4.26A.49.49,0,0,1,242.28,109.3Z"/><path class="cls-3" d="M151.43,138.6a.54.54,0,0,1-.36-.14.51.51,0,0,1,0-.71l4.27-4.27a.5.5,0,0,1,.71.71l-4.27,4.27A.54.54,0,0,1,151.43,138.6Z"/><path class="cls-3" d="M246.55,138.6a.54.54,0,0,1-.36-.14l-4.27-4.27a.5.5,0,1,1,.71-.71l4.27,4.27a.51.51,0,0,1,0,.71A.54.54,0,0,1,246.55,138.6Z"/><path class="cls-3" d="M247,75.49H151.12a.5.5,0,0,1-.5-.5V40.69a.5.5,0,0,1,.5-.5H247a.5.5,0,0,1,.5.5V75A.5.5,0,0,1,247,75.49Zm-95.35-1h94.85V41.19H151.62Z"/><path class="cls-3" d="M242.36,70.75H155.73a.5.5,0,0,1-.5-.5V45.43a.5.5,0,0,1,.5-.5h86.63a.5.5,0,0,1,.5.5V70.25A.5.5,0,0,1,242.36,70.75Zm-86.13-1h85.63V45.93H156.23Z"/><path class="cls-3" d="M247,41.19H151.12a.5.5,0,0,1-.5-.5.5.5,0,0,1,.5-.5H247a.5.5,0,0,1,.5.5A.5.5,0,0,1,247,41.19Z"/><path class="cls-3" d="M155.69,45.86a.5.5,0,0,1-.35-.15l-4.27-4.27a.5.5,0,0,1,.71-.71L156.05,45a.51.51,0,0,1,0,.71A.51.51,0,0,1,155.69,45.86Z"/><path class="cls-3" d="M242.28,45.86a.51.51,0,0,1-.36-.15.51.51,0,0,1,0-.71l4.27-4.27a.5.5,0,1,1,.71.71l-4.27,4.27A.49.49,0,0,1,242.28,45.86Z"/><path class="cls-3" d="M151.43,75.16a.51.51,0,0,1-.36-.15.51.51,0,0,1,0-.71L155.34,70a.5.5,0,0,1,.71,0,.5.5,0,0,1,0,.7L151.78,75A.5.5,0,0,1,151.43,75.16Z"/><path class="cls-3" d="M246.55,75.16a.51.51,0,0,1-.36-.15l-4.27-4.27a.5.5,0,0,1,0-.7.5.5,0,0,1,.71,0l4.27,4.26a.51.51,0,0,1,0,.71A.5.5,0,0,1,246.55,75.16Z"/></g><path class="cls-4" d="M303.54,138c.35-1.37.68-2.76.95-4.18a77.76,77.76,0,0,0-1.21-33.13A77.8,77.8,0,0,0,289.74,131a67.3,67.3,0,0,0-1,7.05Z"/><path class="cls-4" d="M260.83,138h26.56a58.77,58.77,0,0,0-.78-12.54c-3.86-21.91-20.84-37.23-20.84-37.23s-10.71,20.21-6.85,42.11A57.56,57.56,0,0,0,260.83,138Z"/><path class="cls-5" d="M256,138h42.35c.1-.64.2-1.29.28-1.94,2.71-22.08-9.05-41.69-9.05-41.69S276,108,271.65,127.34a67.45,67.45,0,0,0-18.73-24.66s-3.73,16.75,2.37,33.5C255.51,136.81,255.75,137.42,256,138Z"/><path class="cls-6" d="M256,138h47.51c.36-1.37.69-2.75,1-4.18,0-.09,0-.17.05-.26H254.43c.26.86.54,1.73.86,2.59C255.51,136.81,255.76,137.42,256,138Z"/><path class="cls-7" d="M296.77,174.07h-34a.51.51,0,0,1-.5-.5v-3.66a16.11,16.11,0,0,1-6.76-13.11V138.08a.5.5,0,0,1,.5-.5h47.55a.51.51,0,0,1,.5.5V156.8a16.12,16.12,0,0,1-6.77,13.11v3.66A.5.5,0,0,1,296.77,174.07Zm-33.52-1h33v-3.26a.5.5,0,0,1,.18-.55A15.08,15.08,0,0,0,303,156.8V138.58H256.49V156.8a15.1,15.1,0,0,0,6.58,12.46.51.51,0,0,1,.2.56l0,0Z"/><path class="cls-7" d="M303.14,146.55H256.41a.5.5,0,0,1,0-1h46.73a.5.5,0,0,1,0,1Z"/><path class="cls-7" d="M303.14,156.87H256.41a.5.5,0,0,1-.5-.5.5.5,0,0,1,.5-.5h46.73a.5.5,0,0,1,.5.5A.51.51,0,0,1,303.14,156.87Z"/><path class="cls-7" d="M296.79,170.18h-34a.5.5,0,0,1-.5-.5.5.5,0,0,1,.5-.5h34a.5.5,0,0,1,.5.5A.51.51,0,0,1,296.79,170.18Z"/><path class="cls-7" d="M291.93,152.72a5.46,5.46,0,0,1-3.41-1.14,4.67,4.67,0,0,0-5.7,0,5.67,5.67,0,0,1-6.82,0,4.66,4.66,0,0,0-5.69,0,5.67,5.67,0,0,1-6.82,0,4.41,4.41,0,0,0-2.85-1,.5.5,0,0,1-.5-.5.5.5,0,0,1,.5-.5,5.38,5.38,0,0,1,3.41,1.14,4.67,4.67,0,0,0,5.7,0,5.66,5.66,0,0,1,6.81,0,4.67,4.67,0,0,0,5.7,0,5.67,5.67,0,0,1,6.82,0,4.69,4.69,0,0,0,5.71,0,5.38,5.38,0,0,1,3.41-1.14.5.5,0,0,1,.5.5.5.5,0,0,1-.5.5,4.41,4.41,0,0,0-2.85,1A5.5,5.5,0,0,1,291.93,152.72Z"/><rect class="cls-8" x="78.2" y="173.59" width="242.18" height="3.56"/><path class="cls-9" d="M320.38,177.65H78.2a.5.5,0,0,1-.5-.5v-3.56a.5.5,0,0,1,.5-.5H320.38a.5.5,0,0,1,.5.5v3.56A.5.5,0,0,1,320.38,177.65Zm-241.68-1H319.88v-2.56H78.7Z"/><rect class="cls-10" x="78.2" y="177.15" width="34.6" height="11.07"/><path class="cls-9" d="M112.79,188.72H78.2a.5.5,0,0,1-.5-.5V177.15a.5.5,0,0,1,.5-.5h34.59a.5.5,0,0,1,.5.5v11.07A.5.5,0,0,1,112.79,188.72Zm-34.09-1h33.59V177.65H78.7Z"/><rect class="cls-10" x="147.39" y="177.15" width="34.6" height="11.07"/><path class="cls-9" d="M182,188.72h-34.6a.5.5,0,0,1-.5-.5V177.15a.5.5,0,0,1,.5-.5H182a.5.5,0,0,1,.5.5v11.07A.5.5,0,0,1,182,188.72Zm-34.1-1h33.6V177.65h-33.6Z"/><rect class="cls-11" x="112.79" y="177.15" width="34.6" height="11.07"/><path class="cls-9" d="M147.39,188.72h-34.6a.5.5,0,0,1-.5-.5V177.15a.5.5,0,0,1,.5-.5h34.6a.5.5,0,0,1,.5.5v11.07A.5.5,0,0,1,147.39,188.72Zm-34.1-1h33.6V177.65h-33.6Z"/><rect class="cls-11" x="181.99" y="177.15" width="34.6" height="11.07"/><path class="cls-9" d="M216.58,188.72H182a.5.5,0,0,1-.5-.5V177.15a.5.5,0,0,1,.5-.5h34.59a.5.5,0,0,1,.5.5v11.07A.5.5,0,0,1,216.58,188.72Zm-34.09-1h33.59V177.65H182.49Z"/><rect class="cls-11" x="251.18" y="177.15" width="34.6" height="11.07"/><path class="cls-9" d="M285.78,188.72h-34.6a.5.5,0,0,1-.5-.5V177.15a.5.5,0,0,1,.5-.5h34.6a.5.5,0,0,1,.5.5v11.07A.5.5,0,0,1,285.78,188.72Zm-34.1-1h33.6V177.65h-33.6Z"/><rect class="cls-10" x="216.58" y="177.15" width="34.6" height="11.07"/><path class="cls-9" d="M251.18,188.72h-34.6a.5.5,0,0,1-.5-.5V177.15a.5.5,0,0,1,.5-.5h34.6a.5.5,0,0,1,.5.5v11.07A.5.5,0,0,1,251.18,188.72Zm-34.1-1h33.6V177.65h-33.6Z"/><rect class="cls-10" x="285.78" y="177.15" width="34.6" height="11.07"/><path class="cls-9" d="M320.38,188.72h-34.6a.5.5,0,0,1-.5-.5V177.15a.5.5,0,0,1,.5-.5h34.6a.5.5,0,0,1,.5.5v11.07A.5.5,0,0,1,320.38,188.72Zm-34.1-1h33.6V177.65h-33.6Z"/><rect class="cls-10" x="95.49" y="188.22" width="34.6" height="11.07"/><path class="cls-9" d="M130.09,199.8H95.49a.5.5,0,0,1-.5-.5V188.22a.51.51,0,0,1,.5-.5h34.6a.5.5,0,0,1,.5.5V199.3A.5.5,0,0,1,130.09,199.8Zm-34.1-1h33.6V188.72H96Z"/><rect class="cls-10" x="164.69" y="188.22" width="34.6" height="11.07"/><path class="cls-9" d="M199.29,199.8h-34.6a.5.5,0,0,1-.5-.5V188.22a.5.5,0,0,1,.5-.5h34.6a.51.51,0,0,1,.5.5V199.3A.5.5,0,0,1,199.29,199.8Zm-34.1-1h33.6V188.72h-33.6Z"/><rect class="cls-11" x="130.09" y="188.22" width="34.6" height="11.07"/><path class="cls-9" d="M164.69,199.8h-34.6a.5.5,0,0,1-.5-.5V188.22a.5.5,0,0,1,.5-.5h34.6a.51.51,0,0,1,.5.5V199.3A.5.5,0,0,1,164.69,199.8Zm-34.1-1h33.6V188.72h-33.6Z"/><rect class="cls-11" x="199.29" y="188.22" width="34.6" height="11.07"/><path class="cls-9" d="M233.88,199.8H199.29a.5.5,0,0,1-.5-.5V188.22a.5.5,0,0,1,.5-.5h34.59a.5.5,0,0,1,.5.5V199.3A.5.5,0,0,1,233.88,199.8Zm-34.09-1h33.59V188.72H199.79Z"/><rect class="cls-11" x="268.48" y="188.22" width="34.6" height="11.07"/><path class="cls-9" d="M303.08,199.8h-34.6a.5.5,0,0,1-.5-.5V188.22a.5.5,0,0,1,.5-.5h34.6a.51.51,0,0,1,.5.5V199.3A.5.5,0,0,1,303.08,199.8Zm-34.1-1h33.6V188.72H269Z"/><rect class="cls-10" x="233.88" y="188.22" width="34.6" height="11.07"/><path class="cls-9" d="M268.48,199.8h-34.6a.5.5,0,0,1-.5-.5V188.22a.51.51,0,0,1,.5-.5h34.6a.5.5,0,0,1,.5.5V199.3A.5.5,0,0,1,268.48,199.8Zm-34.1-1H268V188.72h-33.6Z"/><rect class="cls-10" x="303.08" y="188.22" width="17.3" height="11.07"/><path class="cls-9" d="M320.38,199.8h-17.3a.5.5,0,0,1-.5-.5V188.22a.5.5,0,0,1,.5-.5h17.3a.51.51,0,0,1,.5.5V199.3A.5.5,0,0,1,320.38,199.8Zm-16.8-1h16.3V188.72h-16.3Z"/><rect class="cls-11" x="78.2" y="188.22" width="17.3" height="11.07"/><path class="cls-9" d="M95.49,199.8H78.2a.5.5,0,0,1-.5-.5V188.22a.5.5,0,0,1,.5-.5H95.49a.5.5,0,0,1,.5.5V199.3A.5.5,0,0,1,95.49,199.8Zm-16.79-1H95V188.72H78.7Z"/><polygon class="cls-12" points="202.13 117.51 150.24 173.59 206.33 173.59 206.33 117.51 202.13 117.51"/><polygon class="cls-13" points="97.25 117.51 97.25 173.59 144.73 173.59 196.63 117.51 97.25 117.51"/><polygon class="cls-14" points="196.63 117.51 144.73 173.59 150.24 173.59 202.13 117.51 196.63 117.51"/><path class="cls-15" d="M206.33,174.09H97.25a.5.5,0,0,1-.5-.5V117.51a.5.5,0,0,1,.5-.5H206.33a.51.51,0,0,1,.5.5v56.08A.51.51,0,0,1,206.33,174.09Zm-108.58-1H205.83V118H97.75Z"/><path class="cls-16" d="M367.88,215.5H313.65a.5.5,0,0,1-.5-.5.51.51,0,0,1,.5-.5h54.23a.5.5,0,0,1,.5.5A.5.5,0,0,1,367.88,215.5Z"/><path class="cls-16" d="M296.85,215.5H30.69a.5.5,0,0,1-.5-.5.51.51,0,0,1,.5-.5H296.85a.51.51,0,0,1,.5.5A.5.5,0,0,1,296.85,215.5Z"/><path class="cls-16" d="M342.79,231.15h-287a.5.5,0,0,1-.5-.5.51.51,0,0,1,.5-.5h287a.51.51,0,0,1,.5.5A.5.5,0,0,1,342.79,231.15Z"/><path class="cls-9" d="M398.07,199.85H.5a.5.5,0,0,1-.5-.5.5.5,0,0,1,.5-.5H398.07a.5.5,0,0,1,.5.5A.5.5,0,0,1,398.07,199.85Z"/></svg>