<svg width="453" height="270" viewBox="0 0 453 270" xmlns="http://www.w3.org/2000/svg">
  <title>
    0Email_Expanded
  </title>
  <g id="Final-Production-Files" fill="none" fill-rule="evenodd">
    <g id="0Email_Expanded" fill-rule="nonzero">
      <path d="M53.28.84h346c5.82 0 10.54 4.72 10.54 10.54v248H42.74v-248C42.74 5.56 47.46.84 53.28.84z" id="Shape" fill="#4F5A6D"/>
      <path d="M409.85 259.85H42.74c-.276 0-.5-.224-.5-.5v-248c.027-6.064 4.936-10.973 11-11h346c6.064.027 10.973 4.936 11 11v248c.006.238-.157.448-.39.5zm-366.61-1h366.11V11.39c-.027-5.51-4.49-9.973-10-10h-346c-5.51.027-9.973 4.49-10 10l-.11 247.46z" id="Shape" fill="#0B2231"/>
      <path id="Rectangle-path" fill="#FFF" d="M399.2 23.84v212.5H53.38V23.84z"/>
      <path d="M399.7 236.85H52.88V23.34H399.7v213.51zm-345.82-1H398.7V24.34H53.88v211.51z" id="Shape" fill="#0B2231"/>
      <path id="Rectangle-path" fill="#FFF" d="M399.2 23.84v212.5H53.38V23.84z"/>
      <path d="M399.7 236.85H52.88V23.34H399.7v213.51zm-345.82-1H398.7V24.34H53.88v211.51z" id="Shape" fill="#0B2231"/>
      <path d="M452.07 249.53v6.59c.01 3.962-1.842 7.698-5 10.09-2.184 1.637-4.84 2.52-7.57 2.52H13.14c-2.73 0-5.385-.884-7.57-2.52-3.178-2.385-5.05-6.126-5.05-10.1v-6.58h201.33c0 3.8 3.08 6.88 6.88 6.88h35.12c1.826.005 3.58-.718 4.87-2.01 1.292-1.29 2.015-3.044 2.01-4.87h201.34z" id="Shape" fill="#D7DCE5"/>
      <path d="M439.45 269.24H13.14c-3.484.003-6.826-1.38-9.29-3.842C1.384 262.935 0 259.594 0 256.11v-6.58c0-.276.224-.5.5-.5h201.35c.276 0 .5.224.5.5.006 3.52 2.86 6.374 6.38 6.38h35.12c1.694.005 3.32-.665 4.517-1.863 1.198-1.197 1.868-2.823 1.863-4.517 0-.276.224-.5.5-.5h201.34c.276 0 .5.224.5.5v6.59c0 7.246-5.874 13.12-13.12 13.12zM1 250v6.08c0 6.7 5.43 12.13 12.13 12.13h426.32c6.694 0 12.12-5.426 12.12-12.12V250H251.22c-.253 3.876-3.475 6.888-7.36 6.88h-35.13c-3.88-.006-7.092-3.01-7.36-6.88H1z" id="Shape" fill="#0B2231"/>
      <circle id="Oval" fill="#FEB533" cx="426.64" cy="257.9" r="2.15"/>
      <path d="M426.64 260.55c-1.464 0-2.65-1.186-2.65-2.65s1.186-2.65 2.65-2.65 2.65 1.186 2.65 2.65-1.186 2.65-2.65 2.65zm0-4.29c-.91 0-1.65.74-1.65 1.65 0 .91.74 1.65 1.65 1.65.91 0 1.65-.74 1.65-1.65.003-.44-.17-.862-.48-1.173-.31-.312-.73-.487-1.17-.487v.01z" id="Shape" fill="#0B2231"/>
      <path id="Rectangle-path" fill="#D7DCE5" d="M53.38 22.4H399.2v21.09H53.38z"/>
      <path id="Rectangle-path" fill="#F8F8F8" d="M79.63 61.98h297v15h-297zM79.63 91.98h297v15h-297zM79.63 121.98h297v15h-297zM79.63 151.98h297v15h-297zM79.63 181.98h297v15h-297zM79.63 211.98h297v15h-297z"/>
      <path d="M286.9 117.67v70.27H165.68v-70.27l56.91-33c2.285-1.324 5.105-1.324 7.39 0l56.92 33z" id="Shape" fill="#004366"/>
      <path d="M286.9 188.44H165.68c-.276 0-.5-.224-.5-.5v-70.27c0-.178.096-.34.25-.43l56.91-33c2.442-1.407 5.448-1.407 7.89 0l56.91 33c.154.09.25.252.25.43v70.27c0 .272-.218.495-.49.5zm-120.72-1H286.4V118l-56.66-32.84c-2.132-1.23-4.758-1.23-6.89 0L166.18 118v69.44z" id="Shape" fill="#004366"/>
      <path id="Shape" fill="#0073D1" d="M286.9 187.94l-121.22-70.27v70.27z"/>
      <path d="M286.9 188.44H165.68c-.276 0-.5-.224-.5-.5v-70.27c0-.178.097-.342.25-.43.156-.09.346-.09.5 0l121.22 70.27c.193.114.286.343.228.56-.058.216-.254.368-.478.37zm-120.72-1H285l-118.86-68.9.04 68.9z" id="Shape" fill="#004366"/>
      <path id="Shape" fill="#008CFF" d="M165.68 187.94l121.22-70.27v70.27z"/>
      <path d="M286.9 188.44H165.68c-.224-.002-.42-.154-.478-.37-.058-.217.035-.446.228-.56l121.22-70.27c.154-.09.344-.09.5 0 .153.088.25.252.25.43v70.27c0 .276-.224.5-.5.5zm-119.36-1H286.4v-68.9l-118.86 68.9z" id="Shape" fill="#004366"/>
      <g id="Group" opacity=".06" fill="#4F5A6D">
        <path d="M206.83 22.39H53.38V234.9h22.31z" opacity=".8" id="Shape"/>
      </g>
      <path d="M399.7 235.4H52.88V21.9H399.7v213.5zm-345.82-1H398.7V22.9H53.88v211.5z" id="Shape" fill="#0B2231"/>
      <circle id="Oval" fill="#D7DCE5" cx="226.29" cy="10.9" r="3.17"/>
      <path d="M226.29 14.57c-2.022-.022-3.645-1.675-3.63-3.696.015-2.022 1.662-3.65 3.683-3.644 2.022.008 3.657 1.648 3.657 3.67-.003.98-.396 1.918-1.092 2.606-.696.69-1.64 1.072-2.618 1.064zm0-6.35c-1.468.022-2.643 1.225-2.63 2.693.013 1.468 1.208 2.65 2.676 2.647 1.47-.004 2.658-1.192 2.664-2.66 0-.716-.286-1.402-.796-1.906-.51-.503-1.198-.782-1.914-.774z" id="Shape" fill="#0B2231"/>
    </g>
  </g>
</svg>