<svg id="Layer_1" data-name="Layer 1" xmlns="http://www.w3.org/2000/svg" viewBox="0 0 398.57 232.03"><defs><style>.cls-1{fill:#f2f2f2;}.cls-2{opacity:0.5;}.cls-3{fill:#7f93a5;}.cls-4{fill:#0b2231;}.cls-5{fill:#d8dde6;}.cls-6{fill:#fff;}.cls-7{fill:#52585e;}.cls-8{fill:#637389;}.cls-9{opacity:0.25;}.cls-10,.cls-11{fill:#001019;}.cls-11{opacity:0.15;}.cls-12{fill:#66ce88;}.cls-13{fill:#d7dce5;}.cls-14{fill:#e45845;}</style></defs><title>Artboard 92</title><path class="cls-1" d="M320.11,200.18c27.7-20.2,25.24-69.33,13.71-93-61.33-126-159.38-133.38-187.09-61.06-13.27,34.65-35.22,50.26-54,59.65-25.29,12.64-45,39.13-32.06,94.44Z"/><g class="cls-2"><path class="cls-3" d="M147,156.21H95a3.72,3.72,0,0,1-3.71-3.71V63.86A3.72,3.72,0,0,1,95,60.15H147a3.72,3.72,0,0,1,3.71,3.71V152.5A3.72,3.72,0,0,1,147,156.21ZM95,61.15a2.71,2.71,0,0,0-2.71,2.71V152.5A2.71,2.71,0,0,0,95,155.21H147a2.72,2.72,0,0,0,2.71-2.71V63.86A2.72,2.72,0,0,0,147,61.15Z"/><path class="cls-3" d="M128.87,103.29H113.13a2.66,2.66,0,0,1-1.59-.53,14.84,14.84,0,0,1,0-23.88,2.66,2.66,0,0,1,1.59-.53h15.74a2.66,2.66,0,0,1,1.59.53,14.84,14.84,0,0,1,0,23.88A2.66,2.66,0,0,1,128.87,103.29ZM113.13,79.35a1.71,1.71,0,0,0-1,.33,13.85,13.85,0,0,0,0,22.28,1.71,1.71,0,0,0,1,.33h15.74a1.71,1.71,0,0,0,1-.33,13.85,13.85,0,0,0,0-22.28,1.71,1.71,0,0,0-1-.33Z"/><path class="cls-3" d="M116.07,91.6h-.56a1.39,1.39,0,0,1-1.39-1.39V85a1.39,1.39,0,0,1,1.39-1.39h.56A1.39,1.39,0,0,1,117.46,85v5.23A1.39,1.39,0,0,1,116.07,91.6Zm-.56-7a.39.39,0,0,0-.39.39v5.23a.39.39,0,0,0,.39.39h.56a.39.39,0,0,0,.39-.39V85a.39.39,0,0,0-.39-.39Z"/><path class="cls-3" d="M126.48,91.6h-.55a1.39,1.39,0,0,1-1.39-1.39V85a1.39,1.39,0,0,1,1.39-1.39h.55a1.4,1.4,0,0,1,1.4,1.39v5.23A1.4,1.4,0,0,1,126.48,91.6Zm-.55-7a.38.38,0,0,0-.39.39v5.23a.38.38,0,0,0,.39.39h.55a.39.39,0,0,0,.4-.39V85a.39.39,0,0,0-.4-.39Z"/><path class="cls-3" d="M123.07,99.86h-4.14a.5.5,0,0,1-.5-.5v-2a2.57,2.57,0,0,1,5.14,0v2A.5.5,0,0,1,123.07,99.86Zm-3.64-1h3.14v-1.5a1.57,1.57,0,0,0-3.14,0Z"/><path class="cls-3" d="M128.87,103.29H113.13a2.66,2.66,0,0,1-1.59-.53,14.84,14.84,0,0,1,0-23.88,2.66,2.66,0,0,1,1.59-.53h15.74a2.66,2.66,0,0,1,1.59.53,14.84,14.84,0,0,1,0,23.88A2.66,2.66,0,0,1,128.87,103.29ZM113.13,79.35a1.71,1.71,0,0,0-1,.33,13.85,13.85,0,0,0,0,22.28,1.71,1.71,0,0,0,1,.33h15.74a1.71,1.71,0,0,0,1-.33,13.85,13.85,0,0,0,0-22.28,1.71,1.71,0,0,0-1-.33Z"/><path class="cls-3" d="M116.07,126.46h-.56a1.4,1.4,0,0,1-1.39-1.39v-5.23a1.39,1.39,0,0,1,1.39-1.39h.56a1.39,1.39,0,0,1,1.39,1.39v5.23A1.39,1.39,0,0,1,116.07,126.46Zm-.56-7a.39.39,0,0,0-.39.39v5.23a.4.4,0,0,0,.39.39h.56a.4.4,0,0,0,.39-.39v-5.23a.39.39,0,0,0-.39-.39Z"/><path class="cls-3" d="M126.48,126.46h-.55a1.39,1.39,0,0,1-1.39-1.39v-5.23a1.39,1.39,0,0,1,1.39-1.39h.55a1.4,1.4,0,0,1,1.4,1.39v5.23A1.4,1.4,0,0,1,126.48,126.46Zm-.55-7a.38.38,0,0,0-.39.39v5.23a.39.39,0,0,0,.39.39h.55a.4.4,0,0,0,.4-.39v-5.23a.39.39,0,0,0-.4-.39Z"/><path class="cls-3" d="M123.07,134.72h-4.14a.5.5,0,0,1-.5-.5v-2a2.57,2.57,0,1,1,5.14,0v2A.5.5,0,0,1,123.07,134.72Zm-3.64-1h3.14v-1.51a1.57,1.57,0,0,0-3.14,0Z"/><path class="cls-3" d="M128.87,138.14H113.13a2.66,2.66,0,0,1-1.59-.52,14.85,14.85,0,0,1,0-23.89,2.72,2.72,0,0,1,1.59-.52h15.74a2.72,2.72,0,0,1,1.59.52,14.85,14.85,0,0,1,0,23.89A2.66,2.66,0,0,1,128.87,138.14Zm-15.74-23.93a1.71,1.71,0,0,0-1,.33,13.85,13.85,0,0,0,0,22.28,1.7,1.7,0,0,0,1,.32h15.74a1.7,1.7,0,0,0,1-.32,13.85,13.85,0,0,0,0-22.28,1.71,1.71,0,0,0-1-.33Z"/><path class="cls-3" d="M121,111.42a3,3,0,0,1-2.13-.88,3,3,0,1,1,4.26,0h0A3,3,0,0,1,121,111.42Zm0-5a2,2,0,0,0-1.42,3.43,2.05,2.05,0,0,0,2.84,0h0A2,2,0,0,0,121,106.4Z"/><path class="cls-3" d="M119.25,110.63a.52.52,0,0,1-.35-.14.5.5,0,0,1,0-.71l3.41-3.41a.5.5,0,0,1,.7,0,.5.5,0,0,1,0,.71l-3.4,3.41A.54.54,0,0,1,119.25,110.63Z"/></g><path class="cls-4" d="M278,156.21H226a3.72,3.72,0,0,1-3.71-3.71V63.86A3.72,3.72,0,0,1,226,60.15H278a3.72,3.72,0,0,1,3.72,3.71V152.5A3.72,3.72,0,0,1,278,156.21ZM226,61.15a2.72,2.72,0,0,0-2.71,2.71V152.5a2.72,2.72,0,0,0,2.71,2.71H278a2.72,2.72,0,0,0,2.72-2.71V63.86A2.72,2.72,0,0,0,278,61.15Z"/><circle class="cls-5" cx="252" cy="108.18" r="7.13"/><path class="cls-4" d="M252,115.81a7.63,7.63,0,1,1,7.63-7.63A7.64,7.64,0,0,1,252,115.81Zm0-14.26a6.63,6.63,0,1,0,6.63,6.63A6.64,6.64,0,0,0,252,101.55Z"/><polygon class="cls-5" points="247.16 105.39 252 102.59 256.84 105.39 256.84 110.97 252 113.77 247.16 110.97 247.16 105.39"/><path class="cls-4" d="M252,114.27a.59.59,0,0,1-.25-.07l-4.84-2.79a.52.52,0,0,1-.25-.44v-5.59a.52.52,0,0,1,.25-.43l4.84-2.79a.5.5,0,0,1,.5,0l4.84,2.79a.5.5,0,0,1,.25.43V111a.5.5,0,0,1-.25.44l-4.84,2.79A.52.52,0,0,1,252,114.27Zm-4.34-3.59,4.34,2.51,4.34-2.51v-5l-4.34-2.5-4.34,2.5Z"/><circle class="cls-5" cx="252" cy="108.18" r="3.22"/><path class="cls-4" d="M252,111.9a3.72,3.72,0,1,1,3.72-3.72A3.73,3.73,0,0,1,252,111.9Zm0-6.44a2.72,2.72,0,1,0,2.72,2.72A2.72,2.72,0,0,0,252,105.46Z"/><circle class="cls-5" cx="252" cy="108.18" r="0.18"/><path class="cls-4" d="M252,108.86a.68.68,0,0,1,0-1.36.68.68,0,0,1,0,1.36Zm0-1a.32.32,0,0,0-.32.32.33.33,0,0,0,.32.32.32.32,0,0,0,.32-.32A.32.32,0,0,0,252,107.86Z"/><circle class="cls-6" cx="252" cy="67.41" r="2.51"/><path class="cls-7" d="M252,70.42a3,3,0,0,1-2.12-.88,3,3,0,1,1,4.25,0h0A3,3,0,0,1,252,70.42Zm0-5a2,2,0,0,0-1.42,3.43,2.05,2.05,0,0,0,2.84,0h0A2,2,0,0,0,252,65.4Z"/><circle class="cls-6" cx="252" cy="67.41" r="2.51"/><path class="cls-4" d="M252,70.42a3,3,0,0,1-2.12-.88,3,3,0,1,1,4.25,0h0A3,3,0,0,1,252,70.42Zm0-5a2,2,0,0,0-1.42,3.43,2.05,2.05,0,0,0,2.84,0h0A2,2,0,0,0,252,65.4Z"/><rect class="cls-4" x="249.55" y="66.93" width="4.82" height="1" transform="translate(26.12 197.91) rotate(-45)"/><path class="cls-6" d="M239.42,200.22H205.2a14.3,14.3,0,0,1-14.29-14.28v-4.81a10.54,10.54,0,0,0-10.53-10.53H143.56a1.88,1.88,0,0,1,0-3.76h36.82a14.31,14.31,0,0,1,14.29,14.29v4.81a10.54,10.54,0,0,0,10.53,10.53h34.22A10.54,10.54,0,0,0,250,185.94V146.82a1.88,1.88,0,1,1,3.76,0v39.12A14.3,14.3,0,0,1,239.42,200.22Z"/><path class="cls-4" d="M239.42,200.72H205.2a14.8,14.8,0,0,1-14.79-14.78v-4.81a10,10,0,0,0-10-10H143.55a2.38,2.38,0,0,1,0-4.76h36.83a14.81,14.81,0,0,1,14.79,14.79v4.81a10,10,0,0,0,10,10h34.22a10,10,0,0,0,10-10V146.82a2.38,2.38,0,0,1,4.76,0v39.12A14.8,14.8,0,0,1,239.42,200.72Zm-95.87-33.38a1.38,1.38,0,0,0,0,2.76h36.83a11,11,0,0,1,11,11v4.81a13.8,13.8,0,0,0,13.79,13.78h34.22a13.8,13.8,0,0,0,13.79-13.78V146.82a1.38,1.38,0,1,0-2.76,0v39.12a11,11,0,0,1-11,11H205.2a11,11,0,0,1-11-11v-4.81a13.81,13.81,0,0,0-13.79-13.79Z"/><rect class="cls-6" x="248.28" y="152.65" width="7.21" height="6.05"/><path class="cls-4" d="M255.49,159.2h-7.21a.5.5,0,0,1-.5-.5v-6a.5.5,0,0,1,.5-.5h7.21a.5.5,0,0,1,.5.5v6A.51.51,0,0,1,255.49,159.2Zm-6.71-1H255v-5h-6.21Z"/><path class="cls-4" d="M251.88,121.89a.5.5,0,0,1-.5-.5v-1.46a.5.5,0,0,1,.5-.5.5.5,0,0,1,.5.5v1.46A.5.5,0,0,1,251.88,121.89Z"/><rect class="cls-5" x="248.67" y="121.49" width="6.43" height="2.31"/><path class="cls-4" d="M255.1,124.3h-6.43a.5.5,0,0,1-.5-.5v-2.31a.5.5,0,0,1,.5-.5h6.43a.5.5,0,0,1,.5.5v2.31A.5.5,0,0,1,255.1,124.3Zm-5.93-1h5.43V122h-5.43Z"/><path class="cls-6" d="M259.52,141.17a17.71,17.71,0,0,0-2.42-9.35v-8H246.67v8a17.71,17.71,0,0,0-2.43,9.35c0,5.06-.21,9.32,2.27,11.4a.47.47,0,0,0,.28.09H257a.47.47,0,0,0,.28-.09C259.74,150.49,259.52,146.23,259.52,141.17Z"/><path class="cls-4" d="M257,153.16H246.79a.91.91,0,0,1-.6-.21c-2.48-2.06-2.46-6-2.45-10.64v-1.14a18.16,18.16,0,0,1,2.42-9.5V123.8a.5.5,0,0,1,.5-.5H257.1a.5.5,0,0,1,.5.5v7.87a18.16,18.16,0,0,1,2.42,9.5v1.14c0,4.6,0,8.58-2.45,10.64A.93.93,0,0,1,257,153.16Zm-9.81-28.86v7.52a.5.5,0,0,1-.08.27,17.31,17.31,0,0,0-2.34,9.08v1.14c0,4.53,0,8.11,2.09,9.87l1.84,0H257c2.07-1.74,2.06-5.32,2-9.85v-1.14a17.31,17.31,0,0,0-2.34-9.08.5.5,0,0,1-.08-.27V124.3Z"/><polygon class="cls-8" points="150.55 196.74 150.55 183.04 146.85 183.04 146.85 196.74 133.04 196.74 133.04 183.04 129.34 183.04 129.34 196.74 117.33 196.74 117.33 200.22 162.56 200.22 162.56 196.74 150.55 196.74"/><path class="cls-4" d="M162.57,200.72H117.33a.5.5,0,0,1-.5-.5v-3.48a.5.5,0,0,1,.5-.5h11.51V183a.5.5,0,0,1,.5-.5H133a.5.5,0,0,1,.5.5v13.2h12.81V183a.5.5,0,0,1,.5-.5h3.7a.5.5,0,0,1,.5.5v13.2h11.52a.51.51,0,0,1,.5.5v3.48A.5.5,0,0,1,162.57,200.72Zm-44.74-1h44.24v-2.48H150.55a.5.5,0,0,1-.5-.5v-13.2h-2.7v13.2a.5.5,0,0,1-.5.5H133a.5.5,0,0,1-.5-.5v-13.2h-2.7v13.2a.5.5,0,0,1-.5.5H117.83Z"/><g class="cls-9"><rect class="cls-10" x="146.85" y="187.56" width="3.7" height="3.96"/><rect class="cls-10" x="129.34" y="187.56" width="3.7" height="3.96"/></g><rect class="cls-8" x="121.68" y="25.5" width="36.54" height="162.11" rx="5.34" ry="5.34"/><path class="cls-4" d="M152.87,188.11H127a5.85,5.85,0,0,1-5.84-5.84V30.84A5.85,5.85,0,0,1,127,25h25.85a5.86,5.86,0,0,1,5.85,5.84V182.27A5.86,5.86,0,0,1,152.87,188.11ZM127,26a4.84,4.84,0,0,0-4.84,4.84V182.27a4.84,4.84,0,0,0,4.84,4.84h25.85a4.85,4.85,0,0,0,4.85-4.84V30.84A4.85,4.85,0,0,0,152.87,26Z"/><path class="cls-11" d="M154.16,25.5H125.73a4.05,4.05,0,0,0-4,4.06v154a4.05,4.05,0,0,0,4,4.06h28.43a4.06,4.06,0,0,0,4.06-4.06v-154A4.06,4.06,0,0,0,154.16,25.5ZM127.28,183.69a1.55,1.55,0,0,1-1.56-1.54c-.07-15.21-.12-136-.13-151.07a1.55,1.55,0,0,1,1.54-1.56c5-.05,20.49-.09,25.47-.1A1.55,1.55,0,0,1,154.16,31l.14,151a1.59,1.59,0,0,1-1.58,1.6C147.71,183.59,132.23,183.68,127.28,183.69Z"/><path class="cls-4" d="M127.27,184.19a2.05,2.05,0,0,1-2-2c-.06-13.51-.11-109.6-.13-150.28v-.8a2.05,2.05,0,0,1,2-2c5.44-.06,23.45-.11,25.48-.11h0a2,2,0,0,1,2,2l.14,151h0a2.11,2.11,0,0,1-2.09,2.11c-5,0-20.48.12-25.43.13ZM152.61,29.92h0c-2,0-20,0-25.49.11a1,1,0,0,0-1,1v.8c0,40.68.07,136.76.13,150.27a1,1,0,0,0,1,1.05h0c4.95,0,20.4-.1,25.42-.13a1.11,1.11,0,0,0,1.1-1.11h0l-.14-151a1,1,0,0,0-1-1Z"/><circle class="cls-5" cx="139.95" cy="62.09" r="2.54"/><path class="cls-4" d="M140,65.13a3,3,0,1,1,3-3A3,3,0,0,1,140,65.13Zm0-5.08a2,2,0,1,0,2,2A2,2,0,0,0,140,60.05Z"/><circle class="cls-5" cx="139.95" cy="77.37" r="2.54"/><path class="cls-4" d="M140,80.41a3,3,0,1,1,3-3A3,3,0,0,1,140,80.41Zm0-5.08a2,2,0,1,0,2,2A2,2,0,0,0,140,75.33Z"/><circle class="cls-5" cx="139.95" cy="92.64" r="2.54"/><path class="cls-4" d="M140,95.68a3,3,0,1,1,3-3A3,3,0,0,1,140,95.68Zm0-5.08a2,2,0,1,0,2,2A2,2,0,0,0,140,90.6Z"/><circle class="cls-12" cx="139.95" cy="46.82" r="2.54"/><path class="cls-4" d="M140,49.86a3,3,0,1,1,3-3A3,3,0,0,1,140,49.86Zm0-5.08a2,2,0,1,0,2,2A2,2,0,0,0,140,44.78Z"/><path class="cls-4" d="M152.17,197.24H128.38a.5.5,0,0,1,0-1h23.79a.5.5,0,0,1,0,1Z"/><path class="cls-13" d="M367.88,216.38H313.65a.5.5,0,0,1-.5-.5.51.51,0,0,1,.5-.5h54.23a.5.5,0,0,1,.5.5A.5.5,0,0,1,367.88,216.38Z"/><path class="cls-13" d="M296.85,216.38H30.69a.5.5,0,0,1-.5-.5.51.51,0,0,1,.5-.5H296.85a.51.51,0,0,1,.5.5A.5.5,0,0,1,296.85,216.38Z"/><path class="cls-13" d="M342.79,232h-287a.5.5,0,0,1-.5-.5.51.51,0,0,1,.5-.5h287a.51.51,0,0,1,.5.5A.5.5,0,0,1,342.79,232Z"/><path class="cls-4" d="M398.07,200.73H.5a.5.5,0,0,1-.5-.5.5.5,0,0,1,.5-.5H398.07a.5.5,0,0,1,.5.5A.5.5,0,0,1,398.07,200.73Z"/><path class="cls-14" d="M257.1,131.74H246.67v.07a15,15,0,0,0-1.89,4.68H259a15.29,15.29,0,0,0-1.89-4.68Z"/><path class="cls-4" d="M259.62,137H244.15l.14-.61a16.05,16.05,0,0,1,1.88-4.71v-.36l.5-.07H257.6v.43a16.05,16.05,0,0,1,1.88,4.71Zm-14.2-1h12.93a14.59,14.59,0,0,0-1.57-3.75H247A14.59,14.59,0,0,0,245.42,136Z"/></svg>