<svg id="Layer_1" data-name="Layer 1" xmlns="http://www.w3.org/2000/svg" viewBox="0 0 397.57 231.05"><defs><style>.cls-1{fill:#f2f2f2;opacity:0.9;}.cls-16,.cls-2{opacity:0.5;}.cls-3{fill:#7f93a5;}.cls-4{fill:#001019;}.cls-5{fill:#0b2231;}.cls-6{fill:#fff;}.cls-7{fill:#0073d1;}.cls-8{fill:#002133;}.cls-13,.cls-9{fill:#4f5a6d;}.cls-10,.cls-16{fill:#d7dce5;}.cls-11{fill:#008cff;}.cls-12{fill:#004366;}.cls-13{opacity:0.06;}.cls-14{fill:#f04848;}.cls-15{fill:#feb533;}.cls-17{fill:#0062b2;}.cls-18{fill:#f8f8f8;}.cls-19{fill:#63738a;}.cls-20{fill:#37a896;}.cls-21{fill:#66d1b9;}</style></defs><title>tech_install</title><path class="cls-1" d="M356,199.67c-2.89-7.86-6.15-15.22-11.26-21.74-14.19-18.1-29.19-11.1-35.69-36.1s17.5-43.5,3-63.5c-16.58-22.86-42.89-13.47-81.31-59.59C215-.16,178.69-8,142.12,10.64a80.75,80.75,0,0,0-32.55,30C96.92,61.88,104.9,74.46,100,97.38c-8,37.76-43.87,38.79-54.94,70.54a66.88,66.88,0,0,0-2.73,31.75Z"/><g class="cls-2"><path class="cls-3" d="M313.66,200.24H84.36a.5.5,0,0,1-.5-.5V119.59H77.35a.5.5,0,0,1-.5-.5v-6.51a.51.51,0,0,1,.13-.33l60.57-69.92a.49.49,0,0,1,.38-.17h16.46V3.83a.5.5,0,0,1,.5-.5h24a.51.51,0,0,1,.5.5V38.25l23.13-25.38a.52.52,0,0,1,.37-.16h0a.51.51,0,0,1,.37.16l47.07,51.68,9.36-10.27a.51.51,0,0,1,.74,0l60.12,65.94a.51.51,0,0,1,.13.34v6.35a.5.5,0,0,1-.5.5h-6.06v72.33A.5.5,0,0,1,313.66,200.24Zm-228.8-1h228.3V127.41h-.34a.5.5,0,0,1-.5-.5.51.51,0,0,1,.5-.5h6.9v-5.66L260.1,55.36l-9.34,10.25a.54.54,0,0,1-.38.17h0a.48.48,0,0,1-.38-.15L202.93,14,179.3,39.88a.51.51,0,0,1-.55.13.5.5,0,0,1-.32-.47V4.33h-23V42.66a.5.5,0,0,1-.5.5H138.16l-60.31,69.6v5.83h6.51a.5.5,0,0,1,.5.5Z"/><path class="cls-3" d="M209.88,127.46h0l-9.89,0a.5.5,0,0,1-.5-.5v-6.35a.47.47,0,0,1,.13-.34L250.91,64a.5.5,0,0,1,.74.67l-51.17,56.13v5.67l8.9,0v-9.11a.5.5,0,0,1,.5-.5.5.5,0,0,1,.5.5V127a.55.55,0,0,1-.15.36A.5.5,0,0,1,209.88,127.46Z"/><path class="cls-3" d="M310.38,127.46a.5.5,0,0,1-.35-.14.51.51,0,0,1-.15-.36v-9.73a.5.5,0,0,1,.5-.5h0a.5.5,0,0,1,.5.5v9.22l2.16,0a.46.46,0,0,1,.51.49.49.49,0,0,1-.49.51l-2.67,0Z"/><path class="cls-3" d="M209.87,117.86a.5.5,0,0,1-.34-.13.49.49,0,0,1,0-.7l50.27-55.16a.49.49,0,0,1,.7,0,.48.48,0,0,1,0,.7L210.24,117.7A.49.49,0,0,1,209.87,117.86Z"/><path class="cls-3" d="M157.16,180.06H133.69a.5.5,0,0,1-.5-.5V128.88a.5.5,0,0,1,.5-.5h23.47a.5.5,0,0,1,.5.5v50.68A.5.5,0,0,1,157.16,180.06Zm-23-1h22.47V129.38H134.19Z"/><path class="cls-3" d="M263.32,100.71h-6.5a.5.5,0,0,1-.5-.5V86.05a3.75,3.75,0,0,1,7.5,0v14.16A.5.5,0,0,1,263.32,100.71Zm-6-1h5.5V86.05a2.75,2.75,0,0,0-5.5,0Z"/><path class="cls-3" d="M206.57,200.14a.5.5,0,0,1-.5-.5V127.52a.5.5,0,0,1,.5-.5.5.5,0,0,1,.5.5v72.12A.5.5,0,0,1,206.57,200.14Z"/><path class="cls-3" d="M209.89,200a.5.5,0,0,1-.5-.5V126.58a.5.5,0,0,1,.5-.5.51.51,0,0,1,.5.5v72.94A.5.5,0,0,1,209.89,200Z"/><path class="cls-3" d="M310.37,200a.5.5,0,0,1-.5-.5V126.58a.5.5,0,1,1,1,0v72.94A.5.5,0,0,1,310.37,200Z"/><path class="cls-3" d="M310.36,117.69a.48.48,0,0,1-.36-.17l-50.23-55a.48.48,0,0,1,0-.7.49.49,0,0,1,.7,0l50.23,55a.5.5,0,0,1,0,.71A.53.53,0,0,1,310.36,117.69Z"/><path class="cls-3" d="M178.57,14.39h-23.5a.5.5,0,0,1-.5-.5.51.51,0,0,1,.5-.5h23.5a.5.5,0,0,1,.5.5A.5.5,0,0,1,178.57,14.39Z"/><path class="cls-3" d="M178.57,24.39h-23.5a.5.5,0,0,1-.5-.5.51.51,0,0,1,.5-.5h23.5a.5.5,0,0,1,.5.5A.5.5,0,0,1,178.57,24.39Z"/><path class="cls-3" d="M178.57,34.39h-23.5a.5.5,0,0,1-.5-.5.51.51,0,0,1,.5-.5h23.5a.5.5,0,0,1,.5.5A.5.5,0,0,1,178.57,34.39Z"/><path class="cls-3" d="M175.49,43.14H155.07a.5.5,0,0,1-.5-.5.51.51,0,0,1,.5-.5h20.42a.5.5,0,0,1,.5.5A.5.5,0,0,1,175.49,43.14Z"/><path class="cls-3" d="M249.37,186H237.05a.5.5,0,0,1-.5-.5v-44.1a.5.5,0,0,1,.5-.5h12.32a.5.5,0,0,1,.5.5v44.1A.5.5,0,0,1,249.37,186Zm-11.82-1h11.32v-43.1H237.55Z"/><path class="cls-3" d="M266.37,186H254.06a.5.5,0,0,1-.5-.5v-44.1a.5.5,0,0,1,.5-.5h12.31a.5.5,0,0,1,.5.5v44.1A.5.5,0,0,1,266.37,186Zm-11.81-1h11.31v-43.1H254.56Z"/><path class="cls-3" d="M283.37,186H271.06a.5.5,0,0,1-.5-.5v-44.1a.5.5,0,0,1,.5-.5h12.31a.5.5,0,0,1,.5.5v44.1A.5.5,0,0,1,283.37,186Zm-11.81-1h11.31v-43.1H271.56Z"/><path class="cls-3" d="M287.32,189.7H233.1a.51.51,0,0,1-.5-.5V137.66a.5.5,0,0,1,.5-.5h54.22a.5.5,0,0,1,.5.5V189.2A.5.5,0,0,1,287.32,189.7Zm-53.72-1h53.22V138.16H233.6Z"/><path class="cls-3" d="M201.07,119.56H83.24a.5.5,0,0,1-.5-.5.5.5,0,0,1,.5-.5H201.07a.5.5,0,0,1,.5.5A.5.5,0,0,1,201.07,119.56Z"/><path class="cls-3" d="M146.24,91.39h-8.83a.5.5,0,0,1-.5-.5V84.73a.47.47,0,0,1,.13-.34L180,37.64a.5.5,0,0,1,.74.68l-42.78,46.6v5.47h7.83V82.06a.51.51,0,0,1,.13-.33L202.2,19.39a.49.49,0,0,1,.37-.16.52.52,0,0,1,.37.16l44.83,48a.49.49,0,0,1,0,.7.5.5,0,0,1-.71,0l-44.46-47.6L146.74,82.25v8.64A.5.5,0,0,1,146.24,91.39Z"/><path class="cls-3" d="M310.2,127.42H210.07a.5.5,0,0,1,0-1H310.2a.5.5,0,0,1,0,1Z"/><path class="cls-3" d="M206.74,113.06H77.57a.5.5,0,0,1-.5-.5.51.51,0,0,1,.5-.5H206.74a.5.5,0,0,1,.5.5A.5.5,0,0,1,206.74,113.06Z"/><path class="cls-3" d="M226.74,91.39H146.57a.5.5,0,0,1-.5-.5.51.51,0,0,1,.5-.5h80.17a.5.5,0,0,1,.5.5A.5.5,0,0,1,226.74,91.39Z"/><path class="cls-3" d="M209.82,71.58h-14.5a.5.5,0,0,1-.5-.5V50.67a.5.5,0,0,1,.5-.5h14.5a.5.5,0,0,1,.5.5V71.08A.5.5,0,0,1,209.82,71.58Zm-14-1h13.5V51.17h-13.5Z"/><path class="cls-3" d="M167.14,43.06a.5.5,0,0,1-.5-.5v-8.5a.5.5,0,0,1,.5-.5.51.51,0,0,1,.5.5v8.5A.5.5,0,0,1,167.14,43.06Z"/><path class="cls-3" d="M167.14,24a.5.5,0,0,1-.5-.5V14.14a.5.5,0,0,1,.5-.5.51.51,0,0,1,.5.5v9.34A.51.51,0,0,1,167.14,24Z"/><path class="cls-3" d="M206.24,180.06H84.57a.5.5,0,0,1-.5-.5.51.51,0,0,1,.5-.5H206.24a.5.5,0,0,1,.5.5A.5.5,0,0,1,206.24,180.06Z"/><path class="cls-3" d="M124.14,199.73a.5.5,0,0,1-.5-.5V179.56a.5.5,0,0,1,.5-.5.51.51,0,0,1,.5.5v19.67A.51.51,0,0,1,124.14,199.73Z"/><path class="cls-3" d="M166.76,199.73a.5.5,0,0,1-.5-.5V179.56a.5.5,0,0,1,1,0v19.67A.5.5,0,0,1,166.76,199.73Z"/><path class="cls-3" d="M166.7,186.77H124.45a.5.5,0,0,1,0-1H166.7a.5.5,0,0,1,0,1Z"/><path class="cls-3" d="M166.7,193.52H124.45a.5.5,0,0,1,0-1H166.7a.5.5,0,0,1,0,1Z"/><path class="cls-3" d="M121.31,179.82a.5.5,0,0,1-.5-.5V119a.5.5,0,0,1,.5-.5.5.5,0,0,1,.5.5v60.33A.5.5,0,0,1,121.31,179.82Z"/><path class="cls-3" d="M124.15,179.82a.5.5,0,0,1-.5-.5V119a.5.5,0,0,1,.5-.5.5.5,0,0,1,.5.5v60.33A.5.5,0,0,1,124.15,179.82Z"/><path class="cls-3" d="M87.15,179.82a.5.5,0,0,1-.5-.5V119a.5.5,0,0,1,.5-.5.5.5,0,0,1,.5.5v60.33A.5.5,0,0,1,87.15,179.82Z"/><path class="cls-3" d="M166.7,179.82a.5.5,0,0,1-.5-.5V119a.5.5,0,0,1,1,0v60.33A.5.5,0,0,1,166.7,179.82Z"/><path class="cls-3" d="M169.53,179.82a.5.5,0,0,1-.5-.5V119a.5.5,0,0,1,.5-.5.5.5,0,0,1,.5.5v60.33A.5.5,0,0,1,169.53,179.82Z"/><path class="cls-3" d="M203.7,179.82a.5.5,0,0,1-.5-.5V127.14a.5.5,0,1,1,1,0v52.18A.5.5,0,0,1,203.7,179.82Z"/><path class="cls-3" d="M121,155.52H87.45a.5.5,0,0,1,0-1H121a.5.5,0,1,1,0,1Z"/><path class="cls-3" d="M203.57,155.52h-33.5a.5.5,0,0,1,0-1h33.5a.5.5,0,0,1,0,1Z"/><path class="cls-3" d="M121,177H87.45a.5.5,0,0,1,0-1H121a.5.5,0,1,1,0,1Z"/><path class="cls-3" d="M203.57,177h-33.5a.5.5,0,0,1,0-1h33.5a.5.5,0,0,1,0,1Z"/><path class="cls-3" d="M153.82,152.86H137.07a.51.51,0,0,1-.5-.5V132.64a.51.51,0,0,1,.5-.5h16.75a.5.5,0,0,1,.5.5v19.72A.5.5,0,0,1,153.82,152.86Zm-16.25-1h15.75V133.14H137.57Z"/><path class="cls-3" d="M153.82,176.39H137.07a.5.5,0,0,1-.5-.5V156.18a.51.51,0,0,1,.5-.5h16.75a.5.5,0,0,1,.5.5v19.71A.5.5,0,0,1,153.82,176.39Zm-16.25-1h15.75V156.68H137.57Z"/></g><rect class="cls-4" x="119.95" y="169.68" width="18.09" height="10.34"/><path class="cls-5" d="M138,180.52H120a.5.5,0,0,1-.5-.5V169.68a.5.5,0,0,1,.5-.5H138a.5.5,0,0,1,.5.5V180A.5.5,0,0,1,138,180.52Zm-17.59-1h17.09v-9.34H120.45Z"/><rect class="cls-4" x="241.24" y="169.68" width="18.09" height="10.34"/><path class="cls-5" d="M259.33,180.52H241.24a.5.5,0,0,1-.5-.5V169.68a.5.5,0,0,1,.5-.5h18.09a.5.5,0,0,1,.5.5V180A.5.5,0,0,1,259.33,180.52Zm-17.59-1h17.09v-9.34H241.74Z"/><path class="cls-6" d="M284.65,135.38v43.68a6,6,0,0,1-6,6H266.19a16,16,0,0,0-31.82,0H144.91a16,16,0,0,0-31.82,0h0a6,6,0,0,1-6-6V156.58a1.59,1.59,0,0,1,.17-.52,4.86,4.86,0,0,1,3.41-2.64l25.6-5.36a4.82,4.82,0,0,0,2-1l20.67-16.63a4.72,4.72,0,0,1,3-1.05H278.68A6,6,0,0,1,284.65,135.38Z"/><path class="cls-5" d="M278.68,185.53H266.19a.5.5,0,0,1-.49-.45,15.57,15.57,0,0,0-7.21-11.81,15.35,15.35,0,0,0-8.21-2.36,15.56,15.56,0,0,0-15.41,14.17.5.5,0,0,1-.5.45H144.91a.5.5,0,0,1-.5-.45,15.46,15.46,0,0,0-30.82,0,.51.51,0,0,1-.5.45,6.54,6.54,0,0,1-6.54-6.53V156.58a1.8,1.8,0,0,1,.22-.73,5.35,5.35,0,0,1,3.75-2.92l25.61-5.36a4.37,4.37,0,0,0,1.83-.87l20.66-16.63a5.26,5.26,0,0,1,3.29-1.16H278.68a6.47,6.47,0,0,1,6.47,6.47v43.68A6.47,6.47,0,0,1,278.68,185.53Zm-12-1h12a5.47,5.47,0,0,0,5.47-5.47V135.38a5.48,5.48,0,0,0-5.47-5.47H161.91a4.21,4.21,0,0,0-2.66.94l-20.66,16.63a5.37,5.37,0,0,1-2.26,1.07l-25.6,5.36a4.34,4.34,0,0,0-3,2.36,1.09,1.09,0,0,0-.13.33V179a5.54,5.54,0,0,0,5.09,5.51,16.46,16.46,0,0,1,32.72,0h88.56a16.55,16.55,0,0,1,16.36-14.62,16.31,16.31,0,0,1,8.74,2.51A16.56,16.56,0,0,1,266.65,184.53Z"/><g id="_Group_" data-name="&lt;Group&gt;"><g id="_Group_2" data-name="&lt;Group&gt;"><polygon id="_Path_" data-name="&lt;Path&gt;" class="cls-7" points="244.84 142.59 244.83 148.85 248.96 145.73 244.84 142.59"/></g><g id="_Group_3" data-name="&lt;Group&gt;"><g id="_Group_4" data-name="&lt;Group&gt;"><path id="_Compound_Path_" data-name="&lt;Compound Path&gt;" class="cls-8" d="M201.87,142.2a2.57,2.57,0,0,0-1.15-.77,4.08,4.08,0,0,0-1.43-.28,4.74,4.74,0,0,0-2.53.73,2.91,2.91,0,0,0-1.17,2.71v7.06h1a.93.93,0,0,0,.68-.28.89.89,0,0,0,.28-.67v-2.13l.63.23a4.17,4.17,0,0,0,1.52.21,2.63,2.63,0,0,0,2.18-1.07,5.24,5.24,0,0,0,0-5.74Zm-1.54,4.55a1.36,1.36,0,0,1-1.16.59,1.41,1.41,0,0,1-1.22-.6,2.56,2.56,0,0,1-.42-1.61,2.82,2.82,0,0,1,.4-1.71,1.39,1.39,0,0,1,1.19-.59,1.43,1.43,0,0,1,1.22.59,2.88,2.88,0,0,1,.42,1.71A2.71,2.71,0,0,1,200.33,146.75Z"/></g><g id="_Group_5" data-name="&lt;Group&gt;"><path id="_Compound_Path_2" data-name="&lt;Compound Path&gt;" class="cls-8" d="M243.43,141.79a4.89,4.89,0,0,0-2.73-.67,6.79,6.79,0,0,0-1.21.19,2.35,2.35,0,0,0-1,.53,2.56,2.56,0,0,0-1.14-.57,5.51,5.51,0,0,0-1.27-.15,4.52,4.52,0,0,0-2.24.71,2.9,2.9,0,0,0-1,2.58v4.44h2V144a1.22,1.22,0,0,1,.4-1,1.48,1.48,0,0,1,.91-.3,1.51,1.51,0,0,1,.93.31,1.2,1.2,0,0,1,.4,1v4.82h2V144a1.17,1.17,0,0,1,.41-1,1.54,1.54,0,0,1,1.85,0,1.17,1.17,0,0,1,.41,1v3.85a1,1,0,0,0,.28.71.94.94,0,0,0,.69.26h1.12v-6.24S244.12,142.23,243.43,141.79Z"/></g><g id="_Group_6" data-name="&lt;Group&gt;"><g id="_Group_7" data-name="&lt;Group&gt;"><path id="_Compound_Path_3" data-name="&lt;Compound Path&gt;" class="cls-8" d="M231.19,141.31a.89.89,0,0,0-.69.28.91.91,0,0,0-.28.68v3.84a1.12,1.12,0,0,1-.41,1,1.48,1.48,0,0,1-.92.31,1.39,1.39,0,0,1-.9-.31,1.15,1.15,0,0,1-.39-1V141.3h-2l0,4.41a2.81,2.81,0,0,0,1,2.57,4.49,4.49,0,0,0,2.22.68,4.41,4.41,0,0,0,2.29-.63c.69-.4,1-1.28,1-2.62v-4.4Zm-6.41,0a5.23,5.23,0,0,0-1.48.2,3.33,3.33,0,0,0-1.25.62,3.07,3.07,0,0,0-.9,1.2,4.55,4.55,0,0,0-.32,1.85v3.64h2v-3.87a1.71,1.71,0,0,1,.4-1.24,1.68,1.68,0,0,1,1.21-.39h.65v-2Zm-5.21,0v-1.26a1,1,0,0,0-.28-.68.91.91,0,0,0-.66-.29h-1v8.3q0,1.31,1.08,1.38l.86,0v-5.51h1.16v-2Zm-4.49,5.18a1.09,1.09,0,0,1-.56.67,1.75,1.75,0,0,1-.85.13,1.36,1.36,0,0,1-1.11-.45,2.62,2.62,0,0,1-.5-1.83,2.74,2.74,0,0,1,.5-1.86,1.38,1.38,0,0,1,1-.4,1.39,1.39,0,0,1,1.06.4,2.23,2.23,0,0,1,.27.41l2,0a3.36,3.36,0,0,0-.72-1.45,3.4,3.4,0,0,0-2.63-1,3.1,3.1,0,0,0-2.51,1,4.14,4.14,0,0,0-.88,2.82,4.21,4.21,0,0,0,.9,2.9,3.16,3.16,0,0,0,2.52,1.06,3.65,3.65,0,0,0,2.19-.65,3.16,3.16,0,0,0,1.2-1.81ZM209,142.13a3.38,3.38,0,0,0-2.63-1,3.16,3.16,0,0,0-2.51,1,5.07,5.07,0,0,0,0,5.74,3.17,3.17,0,0,0,2.52,1.05,3.58,3.58,0,0,0,2.21-.66,3,3,0,0,0,1.18-1.79l-1.7,0a1.09,1.09,0,0,1-.26.46,1.2,1.2,0,0,1-.3.22,2.49,2.49,0,0,1-1,.15,1.29,1.29,0,0,1-1.09-.45,1.88,1.88,0,0,1-.43-1.3h4.88a.44.44,0,0,0,0-.19V145A4.33,4.33,0,0,0,209,142.13Zm-4,2.15a1.6,1.6,0,0,1,.43-1.13,1.55,1.55,0,0,1,2.06,0,1.89,1.89,0,0,1,.39,1.13Zm-10,.27a2.38,2.38,0,0,0-.95-.91,3.56,3.56,0,0,0-.74-.28l-.59-.18-.88-.26-.78-.19c-1.09-.25-1.57-.61-1.57-1.13a1,1,0,0,1,.43-.87,1.86,1.86,0,0,1,1.22-.31,2.28,2.28,0,0,1,1.38.38,1.37,1.37,0,0,1,.39.47,1,1,0,0,1,.15.59h1.91a3.18,3.18,0,0,0-1-2.28,4,4,0,0,0-2.67-.79,4.46,4.46,0,0,0-2.79.75,2.68,2.68,0,0,0-1,2.17,3,3,0,0,0,.27,1.31,2.21,2.21,0,0,0,.79.9,7,7,0,0,0,1.93.66l.12,0,.18,0c1.69.38,2.52.84,2.52,1.48a1,1,0,0,1-.45.91,2.43,2.43,0,0,1-1.33.31,2.75,2.75,0,0,1-1.56-.4,1.58,1.58,0,0,1-.64-1.18h-2a3.13,3.13,0,0,0,1.13,2.42,4.26,4.26,0,0,0,2.87.83,4.6,4.6,0,0,0,2.89-.79,2.91,2.91,0,0,0,1-2.37A2.6,2.6,0,0,0,195,144.55Z"/></g></g></g></g><circle class="cls-4" cx="129" cy="186.37" r="13.56"/><path class="cls-5" d="M129,200.43a14.06,14.06,0,1,1,14.05-14.06A14.08,14.08,0,0,1,129,200.43Zm0-27.11a13.06,13.06,0,1,0,13.05,13.05A13.07,13.07,0,0,0,129,173.32Z"/><circle class="cls-4" cx="129" cy="186.37" r="13.56"/><path class="cls-5" d="M129,200.43a14.06,14.06,0,1,1,14.05-14.06A14.08,14.08,0,0,1,129,200.43Zm0-27.11a13.06,13.06,0,1,0,13.05,13.05A13.07,13.07,0,0,0,129,173.32Z"/><circle class="cls-9" cx="129" cy="186.37" r="6.86"/><path class="cls-5" d="M129,193.74a7.37,7.37,0,1,1,7.36-7.37A7.37,7.37,0,0,1,129,193.74ZM129,180a6.37,6.37,0,1,0,6.36,6.36A6.37,6.37,0,0,0,129,180Z"/><path class="cls-10" d="M270.44,135.37h0a.5.5,0,0,1,0-1,.5.5,0,0,1,.5.5A.5.5,0,0,1,270.44,135.37Z"/><path class="cls-11" d="M284.65,135.38v16.86l-25.9,20.6A16,16,0,0,0,234.37,185h-27l69.91-55.62h1.38A6,6,0,0,1,284.65,135.38Z"/><polygon class="cls-12" points="235.28 129.44 257.15 145.46 277.3 129.41 235.28 129.44"/><circle class="cls-4" cx="250.29" cy="186.37" r="13.56"/><path class="cls-5" d="M250.29,200.43a14.06,14.06,0,1,1,14-14.06A14.07,14.07,0,0,1,250.29,200.43Zm0-27.11a13.06,13.06,0,1,0,13,13.05A13.07,13.07,0,0,0,250.29,173.32Z"/><circle class="cls-9" cx="250.29" cy="186.37" r="6.86"/><path class="cls-5" d="M250.29,193.74a7.37,7.37,0,1,1,7.36-7.37A7.38,7.38,0,0,1,250.29,193.74Zm0-13.73a6.37,6.37,0,1,0,6.36,6.36A6.38,6.38,0,0,0,250.29,180Z"/><path class="cls-10" d="M176.2,153.36V134a.56.56,0,0,0-.56-.56h-14a.59.59,0,0,0-.36.13l-14.62,12a.57.57,0,0,0-.2.43v7.37a.55.55,0,0,0,.55.55h28.6A.56.56,0,0,0,176.2,153.36Z"/><path class="cls-13" d="M158.38,136l12.57,18h4.68a.57.57,0,0,0,.57-.56V134a.55.55,0,0,0-.55-.55h-14a.48.48,0,0,0-.28.1Z"/><rect class="cls-14" x="281.99" y="163.74" width="2.67" height="11.89"/><path class="cls-5" d="M284.65,176.13H282a.5.5,0,0,1-.5-.5V163.74a.5.5,0,0,1,.5-.5h2.66a.5.5,0,0,1,.5.5v11.89A.5.5,0,0,1,284.65,176.13Zm-2.16-1h1.66V164.24h-1.66Z"/><rect class="cls-15" x="281.99" y="163.74" width="2.67" height="5.94"/><path class="cls-5" d="M284.65,170.18H282a.5.5,0,0,1-.5-.5v-5.94a.5.5,0,0,1,.5-.5h2.66a.5.5,0,0,1,.5.5v5.94A.5.5,0,0,1,284.65,170.18Zm-2.16-1h1.66v-4.94h-1.66Z"/><rect class="cls-15" x="107.05" y="163.74" width="2.12" height="5.94"/><path class="cls-5" d="M109.17,170.18h-2.12a.5.5,0,0,1-.5-.5v-5.94a.5.5,0,0,1,.5-.5h2.12a.5.5,0,0,1,.5.5v5.94A.5.5,0,0,1,109.17,170.18Zm-1.62-1h1.12v-4.94h-1.12Z"/><polygon class="cls-15" points="109.99 163.74 109.99 169.68 108.93 174.71 107.05 174.71 107.05 163.74 109.99 163.74"/><path class="cls-5" d="M108.93,175.21h-1.88a.5.5,0,0,1-.5-.5v-11a.5.5,0,0,1,.5-.5H110a.5.5,0,0,1,.5.5v5.94s0,.07,0,.1l-1.06,5A.51.51,0,0,1,108.93,175.21Zm-1.38-1h1l1-4.58v-5.39h-1.94Z"/><path class="cls-16" d="M236.5,179.1h-.16a.5.5,0,0,1-.5-.5.5.5,0,0,1,.5-.5h.16a.5.5,0,0,1,.5.5A.5.5,0,0,1,236.5,179.1Z"/><polygon class="cls-9" points="107.05 169.68 109.99 169.68 108.93 174.71 107.05 174.71 107.05 169.68"/><path class="cls-5" d="M108.93,175.21h-1.88a.5.5,0,0,1-.5-.5v-5a.5.5,0,0,1,.5-.5H110a.47.47,0,0,1,.38.19.49.49,0,0,1,.11.42l-1.06,5A.5.5,0,0,1,108.93,175.21Zm-1.38-1h1l.85-4h-1.82Z"/><rect class="cls-11" x="138.27" y="122.24" width="152.25" height="4.29"/><path class="cls-5" d="M290.52,127H138.27a.51.51,0,0,1-.5-.5v-4.29a.5.5,0,0,1,.5-.5H290.52a.5.5,0,0,1,.5.5v4.29A.5.5,0,0,1,290.52,127Zm-151.75-1H290v-3.29H138.77Z"/><path class="cls-5" d="M290.52,127H138.27a.5.5,0,0,1-.5-.5v-4.29a.5.5,0,0,1,.5-.5H290.52a.5.5,0,0,1,.5.5v4.29A.5.5,0,0,1,290.52,127Zm-151.75-1H290v-3.29H138.77Z"/><path class="cls-17" d="M201.6,115.17h86.78a2.15,2.15,0,0,1,2.15,2.15v0a2.15,2.15,0,0,1-2.15,2.15H201.6a0,0,0,0,1,0,0v-4.29A0,0,0,0,1,201.6,115.17Z"/><path class="cls-5" d="M288.37,120H201.6a.5.5,0,0,1-.5-.5v-4.29a.5.5,0,0,1,.5-.5h86.77a2.65,2.65,0,1,1,0,5.29Zm-86.27-1h86.27a1.65,1.65,0,1,0,0-3.29H202.1Z"/><path class="cls-6" d="M290.52,117.31a2.15,2.15,0,0,1-2.15,2.15h-5.2v-4.29h5.2a2.15,2.15,0,0,1,2.15,2.14Z"/><path class="cls-5" d="M288.37,120h-5.2a.51.51,0,0,1-.5-.5v-4.29a.5.5,0,0,1,.5-.5h5.2a2.65,2.65,0,1,1,0,5.29Zm-4.7-1h4.7a1.65,1.65,0,0,0,1.65-1.65,1.63,1.63,0,0,0-.48-1.16,1.65,1.65,0,0,0-1.17-.48h-4.7Z"/><rect class="cls-6" x="174.3" y="122.24" width="8.1" height="7.17"/><path class="cls-5" d="M182.4,129.91h-8.1a.5.5,0,0,1-.5-.5v-7.17a.5.5,0,0,1,.5-.5h8.1a.5.5,0,0,1,.5.5v7.17A.5.5,0,0,1,182.4,129.91Zm-7.6-1h7.1v-6.17h-7.1Z"/><rect class="cls-18" x="176.62" y="122.24" width="3.45" height="7.17"/><path class="cls-5" d="M182.4,129.91h-8.1a.5.5,0,0,1-.5-.5v-7.17a.5.5,0,0,1,.5-.5h8.1a.5.5,0,0,1,.5.5v7.17A.5.5,0,0,1,182.4,129.91Zm-7.6-1h7.1v-6.17h-7.1Z"/><rect class="cls-6" x="268.26" y="122.24" width="8.1" height="7.17"/><path class="cls-5" d="M276.36,129.91h-8.1a.5.5,0,0,1-.5-.5v-7.17a.5.5,0,0,1,.5-.5h8.1a.5.5,0,0,1,.5.5v7.17A.5.5,0,0,1,276.36,129.91Zm-7.6-1h7.1v-6.17h-7.1Z"/><rect class="cls-6" x="221.28" y="122.24" width="8.1" height="7.17"/><path class="cls-5" d="M229.38,129.91h-8.1a.5.5,0,0,1-.5-.5v-7.17a.5.5,0,0,1,.5-.5h8.1a.5.5,0,0,1,.5.5v7.17A.5.5,0,0,1,229.38,129.91Zm-7.6-1h7.1v-6.17h-7.1Z"/><path class="cls-5" d="M229.38,129.91h-8.1a.5.5,0,0,1-.5-.5v-7.17a.5.5,0,0,1,.5-.5h8.1a.5.5,0,0,1,.5.5v7.17A.5.5,0,0,1,229.38,129.91Zm-7.6-1h7.1v-6.17h-7.1Z"/><path class="cls-5" d="M276.36,129.91h-8.1a.5.5,0,0,1-.5-.5v-7.17a.5.5,0,0,1,.5-.5h8.1a.5.5,0,0,1,.5.5v7.17A.5.5,0,0,1,276.36,129.91Zm-7.6-1h7.1v-6.17h-7.1Z"/><path class="cls-5" d="M180.21,185.53a.5.5,0,0,1-.5-.5V129.41a.5.5,0,0,1,.5-.5.5.5,0,0,1,.5.5V185A.5.5,0,0,1,180.21,185.53Z"/><rect class="cls-19" x="174.41" y="159.03" width="1.79" height="5.8" rx="0.54" ry="0.54"/><path class="cls-19" d="M175.65,165.33H175a1,1,0,0,1-1-1v-4.72a1,1,0,0,1,1-1h.7a1,1,0,0,1,1,1v4.72A1,1,0,0,1,175.65,165.33Zm-.7-5.8,0,4.76.74,0a0,0,0,0,0,0,0v-4.72Z"/><path class="cls-6" d="M290.52,117.31a2.15,2.15,0,0,1-2.15,2.15h-5.2v-4.29h5.2a2.15,2.15,0,0,1,2.15,2.14Z"/><path class="cls-5" d="M288.37,120h-5.2a.51.51,0,0,1-.5-.5v-4.29a.5.5,0,0,1,.5-.5h5.2a2.65,2.65,0,1,1,0,5.29Zm-4.7-1h4.7a1.65,1.65,0,0,0,1.65-1.65,1.63,1.63,0,0,0-.48-1.16,1.65,1.65,0,0,0-1.17-.48h-4.7Z"/><path class="cls-5" d="M288.37,120H201.6a.5.5,0,0,1-.5-.5v-4.29a.5.5,0,0,1,.5-.5h86.77a2.65,2.65,0,1,1,0,5.29Zm-86.27-1h86.27a1.65,1.65,0,1,0,0-3.29H202.1Z"/><rect class="cls-6" x="270.93" y="115.17" width="2.61" height="6.99"/><path class="cls-5" d="M273.54,122.66h-2.61a.5.5,0,0,1-.5-.5v-7a.5.5,0,0,1,.5-.5h2.61a.5.5,0,0,1,.5.5v7A.5.5,0,0,1,273.54,122.66Zm-2.11-1H273v-6h-1.61Z"/><rect class="cls-6" x="224.02" y="115.17" width="2.61" height="6.99"/><path class="cls-5" d="M226.63,122.66H224a.5.5,0,0,1-.5-.5v-7a.5.5,0,0,1,.5-.5h2.61a.5.5,0,0,1,.5.5v7A.5.5,0,0,1,226.63,122.66Zm-2.11-1h1.61v-6h-1.61Z"/><path class="cls-9" d="M115.06,178.6a15.65,15.65,0,0,0-2,6.43,6,6,0,0,1-6-6v-.4Z"/><path class="cls-5" d="M113.09,185.53a6.52,6.52,0,0,1-6.54-6.53v-.4a.5.5,0,0,1,.5-.5h8a.51.51,0,0,1,.43.24.5.5,0,0,1,0,.5,15.39,15.39,0,0,0-1.91,6.23A.49.49,0,0,1,113.09,185.53Zm-5.54-6.43a5.55,5.55,0,0,0,5.08,5.42,16.23,16.23,0,0,1,1.6-5.42Z"/><path class="cls-5" d="M278.68,185.53H266.19a.5.5,0,0,1-.49-.45,15.57,15.57,0,0,0-7.21-11.81,15.35,15.35,0,0,0-8.21-2.36,15.56,15.56,0,0,0-15.41,14.17.5.5,0,0,1-.5.45H144.91a.5.5,0,0,1-.5-.45,15.46,15.46,0,0,0-30.82,0,.51.51,0,0,1-.5.45,6.54,6.54,0,0,1-6.54-6.53V156.58a1.8,1.8,0,0,1,.22-.73,5.35,5.35,0,0,1,3.75-2.92l25.61-5.36a4.37,4.37,0,0,0,1.83-.87l20.66-16.63a5.26,5.26,0,0,1,3.29-1.16H278.68a6.47,6.47,0,0,1,6.47,6.47v43.68A6.47,6.47,0,0,1,278.68,185.53Zm-12-1h12a5.47,5.47,0,0,0,5.47-5.47V135.38a5.48,5.48,0,0,0-5.47-5.47H161.91a4.21,4.21,0,0,0-2.66.94l-20.66,16.63a5.37,5.37,0,0,1-2.26,1.07l-25.6,5.36a4.34,4.34,0,0,0-3,2.36,1.09,1.09,0,0,0-.13.33V179a5.54,5.54,0,0,0,5.09,5.51,16.46,16.46,0,0,1,32.72,0h88.56a16.55,16.55,0,0,1,16.36-14.62,16.31,16.31,0,0,1,8.74,2.51A16.56,16.56,0,0,1,266.65,184.53Z"/><path class="cls-20" d="M71.92,199.68a218.29,218.29,0,0,1,4.27-40.51c2-10.12-10.07,40.51-10.07,40.51Z"/><path class="cls-20" d="M62,199.68A187.91,187.91,0,0,0,58.37,165c-1.72-8.67,8.63,34.7,8.63,34.7Z"/><path class="cls-20" d="M54.27,199.68a96.88,96.88,0,0,0-1.94-24.92c-1.28-6.19,6.86,24.68,6.86,24.68Z"/><polygon class="cls-21" points="70.39 199.68 67.47 158.52 64.55 199.68 70.39 199.68"/><polygon class="cls-21" points="62.99 199.68 60.07 158.52 57.15 199.68 62.99 199.68"/><path class="cls-10" d="M367.38,215.9H313.15a.51.51,0,0,1-.5-.5.5.5,0,0,1,.5-.5h54.23a.5.5,0,0,1,.5.5A.5.5,0,0,1,367.38,215.9Z"/><path class="cls-10" d="M296.35,215.9H30.19a.51.51,0,0,1-.5-.5.5.5,0,0,1,.5-.5H296.35a.5.5,0,0,1,.5.5A.51.51,0,0,1,296.35,215.9Z"/><path class="cls-10" d="M342.29,231.55h-287a.51.51,0,0,1-.5-.5.5.5,0,0,1,.5-.5h287a.5.5,0,0,1,.5.5A.51.51,0,0,1,342.29,231.55Z"/><path class="cls-5" d="M397.57,200.25H0a.5.5,0,0,1-.5-.5.5.5,0,0,1,.5-.5H397.57a.5.5,0,0,1,.5.5A.5.5,0,0,1,397.57,200.25Z"/></svg>