<svg id="Layer_1" data-name="Layer 1" xmlns="http://www.w3.org/2000/svg" viewBox="0 0 225 301.59"><defs><style>.cls-1,.cls-9{fill:#4f5a6d;}.cls-2{fill:#0b2231;}.cls-3{fill:#fff;}.cls-4{fill:#008cff;}.cls-5{fill:#d7dce5;}.cls-6{opacity:0.25;}.cls-7{fill:#001019;}.cls-8{fill:#0073d1;}.cls-9{opacity:0.06;}</style></defs><title>Artboard 73</title><path class="cls-1" d="M173.9.5H47.26A23.3,23.3,0,0,0,24,23.8V301.09H197.19V23.8A23.3,23.3,0,0,0,173.9.5Z"/><path class="cls-2" d="M197.69,301.59H23.46V23.8A23.82,23.82,0,0,1,47.26,0H173.9a23.82,23.82,0,0,1,23.79,23.8Zm-173.23-1H196.69V23.8A22.83,22.83,0,0,0,173.9,1H47.26a22.82,22.82,0,0,0-22.8,22.8Z"/><rect class="cls-3" x="33.56" y="43.34" width="154.03" height="257.75"/><path class="cls-2" d="M188.09,301.59h-155V42.84h155Zm-154-1h153V43.84h-153Z"/><path class="cls-4" d="M197.19,94.84h0A3.85,3.85,0,0,1,201,98.69V117a3.85,3.85,0,0,1-3.85,3.85h0a0,0,0,0,1,0,0v-26A0,0,0,0,1,197.19,94.84Z"/><path class="cls-2" d="M197.19,121.33h-.5v-27h.5a4.35,4.35,0,0,1,4.35,4.35V117A4.35,4.35,0,0,1,197.19,121.33Zm.5-25.95V120.3a3.36,3.36,0,0,0,2.85-3.32V98.69A3.36,3.36,0,0,0,197.69,95.38Z"/><path class="cls-5" d="M197.19,149.37h0a3.85,3.85,0,0,1,3.85,3.85V196a3.85,3.85,0,0,1-3.85,3.85h0a0,0,0,0,1,0,0V149.37A0,0,0,0,1,197.19,149.37Z"/><path class="cls-2" d="M197.19,200.33h-.5V148.87h.5a4.35,4.35,0,0,1,4.35,4.35V196A4.35,4.35,0,0,1,197.19,200.33Zm.5-50.43v49.39a3.36,3.36,0,0,0,2.85-3.31V153.22A3.36,3.36,0,0,0,197.69,149.9Z"/><rect class="cls-1" x="78.16" y="19.99" width="64.83" height="4.81" rx="2.41" ry="2.41"/><path class="cls-2" d="M140.58,25.31h-60a2.91,2.91,0,0,1,0-5.82h60a2.91,2.91,0,0,1,0,5.82Zm-60-4.82a1.91,1.91,0,0,0,0,3.82h60a1.91,1.91,0,0,0,0-3.82Z"/><circle class="cls-5" cx="54.62" cy="22.4" r="3.17"/><path class="cls-2" d="M54.62,26.07a3.67,3.67,0,1,1,3.67-3.67A3.68,3.68,0,0,1,54.62,26.07Zm0-6.34a2.67,2.67,0,1,0,2.67,2.67A2.67,2.67,0,0,0,54.62,19.73Z"/><g class="cls-6"><rect class="cls-7" x="78.16" y="19.99" width="64.83" height="4.81" rx="2.41" ry="2.41"/></g><rect class="cls-8" x="44.71" y="244.88" width="84.54" height="22.19" rx="11.09" ry="11.09"/><rect class="cls-8" x="44.71" y="185.1" width="101.6" height="22.19" rx="11.09" ry="11.09"/><rect class="cls-8" x="44.71" y="95.42" width="115.79" height="22.19" rx="11.09" ry="11.09"/><rect class="cls-5" x="101.1" y="214.99" width="75.33" height="22.19" rx="11.09" ry="11.09"/><rect class="cls-5" x="65.74" y="274.77" width="110.69" height="22.19" rx="11.09" ry="11.09"/><rect class="cls-5" x="76.52" y="155.2" width="99.91" height="22.19" rx="11.09" ry="11.09"/><rect class="cls-5" x="60.28" y="125.31" width="116.15" height="22.19" rx="11.09" ry="11.09"/><rect class="cls-5" x="76.52" y="65.53" width="99.91" height="22.19" rx="11.09" ry="11.09"/><polygon class="cls-9" points="110.44 43.34 95.92 95.42 89.74 117.61 87.59 125.31 81.41 147.5 77.32 162.15 77.32 162.17 76.69 164.41 76.67 164.47 70.93 185.1 64.74 207.29 54.23 245 48.78 264.55 38.59 301.09 33.56 301.09 33.56 43.34 110.44 43.34"/><polygon class="cls-2" points="188.09 301.59 38.59 301.59 38.59 300.59 187.09 300.59 187.09 43.84 34.06 43.84 34.06 301.09 33.06 301.09 33.06 42.84 188.09 42.84 188.09 301.59"/><rect class="cls-2" x="33.56" y="300.59" width="5.03" height="1"/><rect class="cls-5" y="299.63" width="225" height="1"/></svg>