<?xml version="1.0" encoding="utf-8"?>
<!-- Generator: Adobe Illustrator 19.1.0, SVG Export Plug-In . SVG Version: 6.00 Build 0)  -->
<svg version="1.1" id="Layer_1" xmlns="http://www.w3.org/2000/svg" xmlns:xlink="http://www.w3.org/1999/xlink" x="0px" y="0px"
	 viewBox="0 0 165 163" style="enable-background:new 0 0 165 163;" xml:space="preserve">
<style type="text/css">
	.st0{fill:#FFFFFF;}
	.st1{fill:#F15D2A;}
	.st2{clip-path:url(#SVGID_2_);}
	.st3{clip-path:url(#SVGID_4_);}
	.st4{clip-path:url(#SVGID_6_);fill:url(#SVGID_7_);}
	.st5{clip-path:url(#SVGID_9_);}
	.st6{clip-path:url(#SVGID_11_);}
	.st7{clip-path:url(#SVGID_13_);fill:url(#SVGID_14_);}
	.st8{clip-path:url(#SVGID_16_);}
	.st9{clip-path:url(#SVGID_18_);}
	.st10{clip-path:url(#SVGID_20_);fill:url(#SVGID_21_);}
	.st11{clip-path:url(#SVGID_23_);}
	.st12{clip-path:url(#SVGID_25_);}
	.st13{clip-path:url(#SVGID_27_);fill:url(#SVGID_28_);}
	.st14{clip-path:url(#SVGID_30_);}
	.st15{clip-path:url(#SVGID_32_);}
	.st16{clip-path:url(#SVGID_34_);fill:url(#SVGID_35_);}
	.st17{fill:#00863F;}
	.st18{fill:none;stroke:#00863F;}
	.st19{fill:none;stroke:#F15D2A;stroke-width:1.3;}
	.st20{fill:none;stroke:#F15D2A;}
</style>
<rect x="36" y="150" class="st0" width="3.3" height="12.7"/>
<g>
	<polyline class="st0" points="41.4,150 44.2,150 49.1,158 49.2,158 49,150 52.1,150 52.1,162.8 49.3,162.8 44.5,155 44.4,155 
		44.5,162.8 41.4,162.8 41.4,150 	"/>
	<path class="st0" d="M64.5,153.7c-0.1-0.4-0.2-1.2-1.2-1.2c-0.6,0-1.1,0.4-1.1,1c0,0.8,0.3,0.9,2.6,1.9c2.4,1.1,3,2.2,3,3.7
		c0,1.9-1.1,3.9-4.4,3.9c-3.7,0-4.6-2.4-4.6-4v-0.4H62c0,1.5,0.9,1.7,1.3,1.7c0.8,0,1.2-0.6,1.2-1.2c0-0.8-0.5-1.1-2.5-1.9
		c-0.9-0.4-3.1-1.3-3.1-3.6c0-2.4,2.3-3.8,4.5-3.8c1.3,0,2.6,0.5,3.4,1.4c0.8,0.9,0.8,1.8,0.8,2.5H64.5"/>
</g>
<polyline class="st0" points="69.8,150 76.9,150 76.9,152.9 72.9,152.9 72.9,154.9 76.8,154.9 76.8,157.7 72.9,157.7 72.9,159.9 
	76.9,159.9 76.9,162.8 69.8,162.8 69.8,150 "/>
<g>
	<path class="st0" d="M82.5,160.9l-0.7,1.8h-3.5l5.1-12.7H86l5.1,12.7h-3.5l-0.6-1.8H82.5 M83.4,158.3h2.7l-1.3-4.4h-0.1L83.4,158.3
		z"/>
	<path class="st0" d="M97.4,153.7c-0.1-0.4-0.2-1.2-1.2-1.2c-0.6,0-1.1,0.4-1.1,1c0,0.8,0.3,0.9,2.6,1.9c2.4,1.1,3,2.2,3,3.7
		c0,1.9-1.1,3.9-4.4,3.9c-3.7,0-4.6-2.4-4.6-4v-0.4h3.2c0,1.5,0.9,1.7,1.3,1.7c0.8,0,1.2-0.6,1.2-1.2c0-0.8-0.5-1.1-2.5-1.9
		c-0.9-0.4-3.1-1.3-3.1-3.6c0-2.4,2.3-3.8,4.5-3.8c1.3,0,2.6,0.5,3.4,1.4c0.8,0.9,0.8,1.8,0.8,2.5H97.4"/>
	<path class="st0" d="M108.9,149.8c3.9,0,6.7,3.1,6.7,6.6c0,3.5-2.8,6.6-6.8,6.6c-4,0-6.7-3.2-6.7-6.5c0-0.8,0.1-1.8,0.5-2.7
		C103.3,152.2,105.3,149.8,108.9,149.8 M108.9,160.1c2.3,0,3.4-2.1,3.4-3.7c0-1.7-1.1-3.8-3.5-3.8c-2.3,0-3.5,1.9-3.5,3.7
		C105.4,158.3,106.8,160.1,108.9,160.1z"/>
</g>
<polyline class="st0" points="117.5,150 120.3,150 125.2,158 125.2,158 125.1,150 128.2,150 128.2,162.8 125.4,162.8 120.5,155 
	120.5,155 120.6,162.8 117.5,162.8 117.5,150 "/>
<polyline class="st1" points="142.7,148.6 139.2,152.8 135.6,148.6 139.2,144.4 142.7,148.6 "/>
<polyline class="st1" points="28,148.6 24.5,152.8 21,148.6 24.5,144.4 28,148.6 "/>
<g>
	<defs>
		<polyline id="SVGID_1_" points="84.2,60 56.6,12.1 100.3,-13.1 127.9,34.7 84.2,60 		"/>
	</defs>
	<clipPath id="SVGID_2_">
		<use xlink:href="#SVGID_1_"  style="overflow:visible;"/>
	</clipPath>
	<g class="st2">
		<defs>
			<polyline id="SVGID_3_" points="84.2,60 56.6,12.1 100.3,-13.1 128,34.7 84.2,60 			"/>
		</defs>
		<clipPath id="SVGID_4_">
			<use xlink:href="#SVGID_3_"  style="overflow:visible;"/>
		</clipPath>
		<g class="st3">
			<defs>
				<path id="SVGID_5_" d="M91.8,0.6c-0.9,0.3-2,1.2-2.8,2.3c-0.8,1-1.7,2.4-2.6,3.8s-2.1,3.2-3.2,4.3c-1,1.1-1.9,2.6-2.7,3.6
					c-0.8,1-1,2-2.1,3.7C77.3,20,76.1,23,76.1,23l26,22.6c2.5-1.2,4.2-2,5-3.9c0.8-1.9,1.2-3,0.8-5.1c-0.5-2-1.7-5.6-2.1-8.7
					c-0.4-3-0.8-3.3-1.1-7s-0.3-5.2-1.1-8.6c-0.8-3.4-0.3-3.8-1.9-6.5c-1-1.7-2-2.7-3.4-3.6c-1.6-1.1-2.5-1.2-3.5-1.5
					c-0.7-0.2-1.4-0.4-2.1-0.4C92.3,0.5,92.1,0.5,91.8,0.6"/>
			</defs>
			<clipPath id="SVGID_6_">
				<use xlink:href="#SVGID_5_"  style="overflow:visible;"/>
			</clipPath>
			
				<linearGradient id="SVGID_7_" gradientUnits="userSpaceOnUse" x1="1.091394e-11" y1="163.0026" x2="1.0001" y2="163.0026" gradientTransform="matrix(-27.6163 -47.8327 47.8327 -27.6163 -7690.6528 4548.7935)">
				<stop  offset="0" style="stop-color:#008C47"/>
				<stop  offset="0.1067" style="stop-color:#008C47"/>
				<stop  offset="0.1274" style="stop-color:#008A46"/>
				<stop  offset="0.5384" style="stop-color:#006930"/>
				<stop  offset="0.8407" style="stop-color:#005422"/>
				<stop  offset="1" style="stop-color:#004C1C"/>
			</linearGradient>
			<polygon class="st4" points="127.9,34.4 100.3,-13.5 56.6,11.8 84.2,59.6 			"/>
		</g>
	</g>
</g>
<g>
	<defs>
		<rect id="SVGID_8_" x="92.2" y="2.4" width="5.9" height="3.8"/>
	</defs>
	<clipPath id="SVGID_9_">
		<use xlink:href="#SVGID_8_"  style="overflow:visible;"/>
	</clipPath>
	<g class="st5">
		<defs>
			<rect id="SVGID_10_" x="92.2" y="2.4" width="5.9" height="3.8"/>
		</defs>
		<clipPath id="SVGID_11_">
			<use xlink:href="#SVGID_10_"  style="overflow:visible;"/>
		</clipPath>
		<g class="st6">
			<defs>
				<path id="SVGID_12_" d="M92.1,4.5c0,1.1,1.3,1.9,2.9,1.9c1.6,0,2.9-0.9,2.9-1.9c0-1.1-1.3-1.9-2.9-1.9
					C93.4,2.5,92.1,3.4,92.1,4.5"/>
			</defs>
			<clipPath id="SVGID_13_">
				<use xlink:href="#SVGID_12_"  style="overflow:visible;"/>
			</clipPath>
			
				<radialGradient id="SVGID_14_" cx="1.818989e-11" cy="163" r="1" gradientTransform="matrix(2.4738 0 0 2.4738 95.1553 -398.893)" gradientUnits="userSpaceOnUse">
				<stop  offset="0" style="stop-color:#ADD0B6"/>
				<stop  offset="0.1067" style="stop-color:#ADD0B6"/>
				<stop  offset="0.3328" style="stop-color:#72A983"/>
				<stop  offset="0.6514" style="stop-color:#24804D"/>
				<stop  offset="0.8823" style="stop-color:#006A33"/>
				<stop  offset="1" style="stop-color:#00632B"/>
			</radialGradient>
			<rect x="92.1" y="2.5" class="st7" width="5.9" height="3.8"/>
		</g>
	</g>
</g>
<g>
	<defs>
		<rect id="SVGID_15_" x="51.5" y="17.1" width="56.2" height="43.8"/>
	</defs>
	<clipPath id="SVGID_16_">
		<use xlink:href="#SVGID_15_"  style="overflow:visible;"/>
	</clipPath>
	<g class="st8">
		<defs>
			<rect id="SVGID_17_" x="51.5" y="17.1" width="56.2" height="43.8"/>
		</defs>
		<clipPath id="SVGID_18_">
			<use xlink:href="#SVGID_17_"  style="overflow:visible;"/>
		</clipPath>
		<g class="st9">
			<defs>
				<path id="SVGID_19_" d="M59.5,18.6c-2.6,1.8-5.4,4.8-6.3,9.2c-0.9,4.4-1.5,10.7-0.5,15.2c1.1,4.5,3.9,8.7,5.7,10.5
					c1.8,1.8,4.8,4.4,9.6,5.7c4.5,1.2,6.5,1.4,9.6,1.3c4.5-0.1,9-0.6,9-0.6c1-0.1,3.3-0.1,5.6,0.5c1.5,0.4,4.2,0.5,5.7,0.2
					c1.5-0.3,3.5-1.2,4.7-2.3c1.2-1.1,2.4-1.8,3.6-4.1c1.5-2.9,1.7-5.1,0.6-6.9c-1.6-2.8-4.1-4.8-6.2-6.8s-4.2-4.4-6.6-7.1
					c-2.4-2.7-4.8-5.7-7.1-7.5s-7.5-5.1-9.6-6.2c-2.1-1.1-6-2.3-8.6-2.6c-1.1-0.1-2.3-0.2-3.4-0.2C63.3,17,61.3,17.4,59.5,18.6"/>
			</defs>
			<clipPath id="SVGID_20_">
				<use xlink:href="#SVGID_19_"  style="overflow:visible;"/>
			</clipPath>
			
				<linearGradient id="SVGID_21_" gradientUnits="userSpaceOnUse" x1="-1.273293e-11" y1="163.0038" x2="0.9998" y2="163.0038" gradientTransform="matrix(-56.1728 0 0 -56.1728 107.702 9195.3154)">
				<stop  offset="0" style="stop-color:#008C47"/>
				<stop  offset="5.615000e-03" style="stop-color:#008C47"/>
				<stop  offset="0.1704" style="stop-color:#007C3D"/>
				<stop  offset="0.415" style="stop-color:#00672F"/>
				<stop  offset="0.6426" style="stop-color:#005925"/>
				<stop  offset="0.8445" style="stop-color:#00501E"/>
				<stop  offset="1" style="stop-color:#004C1C"/>
			</linearGradient>
			<rect x="51.7" y="17" class="st10" width="56.2" height="43.8"/>
		</g>
	</g>
</g>
<g>
	<defs>
		<rect id="SVGID_22_" x="53.8" y="17.7" width="53.2" height="40"/>
	</defs>
	<clipPath id="SVGID_23_">
		<use xlink:href="#SVGID_22_"  style="overflow:visible;"/>
	</clipPath>
	<g class="st11">
		<defs>
			<rect id="SVGID_24_" x="53.8" y="17.7" width="53.2" height="40"/>
		</defs>
		<clipPath id="SVGID_25_">
			<use xlink:href="#SVGID_24_"  style="overflow:visible;"/>
		</clipPath>
		<g class="st12">
			<defs>
				<path id="SVGID_26_" d="M64.9,17.6c-1.7,0.1-2.8,0.3-4.2,1.1c-1.6,1-3.2,2.4-4.3,4.2c-0.8,1.3-1.4,2.5-1.7,3.5
					c-0.4,1.6-0.8,3.8-0.6,5.6c0.5,3.7,1.5,5.4,2.3,7.2c0.8,1.8,3,5.1,4.4,6.5c1.4,1.4,2.7,2.4,5.4,4.2c2.7,1.8,4.5,2.4,7.6,3.3
					c3.3,0.9,8,1.4,11.6,1.8c3.6,0.4,5.3,0.6,7.5,1.1c2.3,0.5,4.4,1,6.2,1.4c1.4,0.3,2.2,0.1,4.1-1.1c1.2-0.8,2.1-1.7,2.7-2.7
					c0.6-1.1,1.3-2.8,1.2-3.9c-0.2-2.2-0.8-2.7-1.7-3.9c-0.9-1.2-2.3-2.9-3.8-4.1c-1.4-1.2-3.9-3.6-5.4-5.1
					c-1.5-1.5-3.5-4.1-5.3-5.7c-1.8-1.7-4.8-4.9-7.3-6.6c-2.5-1.7-4.5-2.9-6.9-4.2c-2.5-1.2-4.2-1.7-6-2.1c-1.9-0.4-3.9-0.5-5-0.5
					C65.2,17.6,64.9,17.6,64.9,17.6"/>
			</defs>
			<clipPath id="SVGID_27_">
				<use xlink:href="#SVGID_26_"  style="overflow:visible;"/>
			</clipPath>
			
				<linearGradient id="SVGID_28_" gradientUnits="userSpaceOnUse" x1="5.716404e-04" y1="162.9985" x2="1.0006" y2="162.9985" gradientTransform="matrix(53.1791 0 0 53.1791 53.8896 -8630.4814)">
				<stop  offset="0" style="stop-color:#89C980"/>
				<stop  offset="3.370700e-02" style="stop-color:#89C980"/>
				<stop  offset="3.896213e-02" style="stop-color:#90CB80"/>
				<stop  offset="6.650443e-02" style="stop-color:#B0D57C"/>
				<stop  offset="9.772798e-02" style="stop-color:#CBDF79"/>
				<stop  offset="0.133" style="stop-color:#E0E676"/>
				<stop  offset="0.1741" style="stop-color:#F0EC73"/>
				<stop  offset="0.225" style="stop-color:#FBF172"/>
				<stop  offset="0.2964" style="stop-color:#FFF470"/>
				<stop  offset="0.4944" style="stop-color:#FFF570"/>
				<stop  offset="0.705" style="stop-color:#FFF470"/>
				<stop  offset="0.7835" style="stop-color:#FBF172"/>
				<stop  offset="0.8399" style="stop-color:#F0EC74"/>
				<stop  offset="0.8857" style="stop-color:#E0E677"/>
				<stop  offset="0.925" style="stop-color:#CADF7B"/>
				<stop  offset="0.96" style="stop-color:#AFD57F"/>
				<stop  offset="0.9909" style="stop-color:#8ECB84"/>
				<stop  offset="1" style="stop-color:#83C885"/>
			</linearGradient>
			<rect x="53.9" y="17.6" class="st13" width="53.2" height="40"/>
		</g>
	</g>
</g>
<g>
	<defs>
		<polyline id="SVGID_29_" points="55.1,34.5 71,15.6 90.2,31.7 74.3,50.6 55.1,34.5 		"/>
	</defs>
	<clipPath id="SVGID_30_">
		<use xlink:href="#SVGID_29_"  style="overflow:visible;"/>
	</clipPath>
	<g class="st14">
		<defs>
			<polyline id="SVGID_31_" points="55.1,34.5 71,15.6 90.2,31.7 74.3,50.6 55.1,34.5 			"/>
		</defs>
		<clipPath id="SVGID_32_">
			<use xlink:href="#SVGID_31_"  style="overflow:visible;"/>
		</clipPath>
		<g class="st15">
			<defs>
				<path id="SVGID_33_" d="M66.8,25.5c-1.3,0.3-1.6,0.6-2.4,1.2c-0.8,0.6-1.3,2.4-1.1,3.5c0.2,1.2,0.7,3.3,2.1,5
					c0.9,1,3.2,3,5.2,4.2c2.1,1.1,4.2,1.8,5.8,1.9c2,0.1,3.5-0.3,4.4-1c1-0.8,1.4-1.7,1.5-2.6c0.1-1,0-2.3-1.4-4.3
					c-1.8-2.5-3.5-4.6-5.5-5.8c-1.5-0.9-3.3-1.9-5-2.1c-0.7-0.1-1.3-0.1-1.8-0.1C68,25.3,67.4,25.4,66.8,25.5"/>
			</defs>
			<clipPath id="SVGID_34_">
				<use xlink:href="#SVGID_33_"  style="overflow:visible;"/>
			</clipPath>
			
				<linearGradient id="SVGID_35_" gradientUnits="userSpaceOnUse" x1="-2.728484e-11" y1="163.0082" x2="1.0002" y2="163.0082" gradientTransform="matrix(15.8833 -18.9289 18.9289 15.8833 -3020.7202 -2546.3914)">
				<stop  offset="0" style="stop-color:#00863F"/>
				<stop  offset="0.1067" style="stop-color:#00863F"/>
				<stop  offset="0.1209" style="stop-color:#00873F"/>
				<stop  offset="0.4499" style="stop-color:#71AB4D"/>
				<stop  offset="0.7154" style="stop-color:#BCCE5E"/>
				<stop  offset="0.9047" style="stop-color:#EDE76A"/>
				<stop  offset="1" style="stop-color:#FFF570"/>
			</linearGradient>
			<polygon class="st16" points="74.4,50.8 90.3,31.9 71.1,15.7 55.2,34.7 			"/>
		</g>
	</g>
</g>
<polyline class="st17" points="16.9,56.7 28.9,56.7 22.7,50.8 16.9,56.7 "/>
<polyline class="st17" points="42.6,56.7 54.5,56.7 48.4,50.7 "/>
<polyline class="st17" points="123.8,56.7 135.8,56.7 129.6,50.7 "/>
<polyline class="st1" points="41.6,50.7 29.7,50.7 35.9,56.7 "/>
<polyline class="st1" points="122.7,50.7 110.8,50.7 117,56.7 "/>
<polyline class="st1" points="148.4,50.7 136.5,50.7 142.7,56.7 "/>
<path class="st17" d="M22.3,70.8l3,5.8h-6.1L22.3,70.8 M22.3,61.2L10.1,85l5.5,1.2l2.3-5.1h8.7l2.3,5.1l5.8-1.2L22.3,61.2L22.3,61.2
	z"/>
<path class="st18" d="M22.3,70.8l3,5.8h-6.1L22.3,70.8z M22.3,61.2L10.1,85l5.5,1.2l2.3-5.1h8.7l2.3,5.1l5.8-1.2L22.3,61.2
	L22.3,61.2z"/>
<polyline class="st17" points="38.2,84.8 38.1,84.8 30.1,66.7 35,65.8 38.3,74.7 41.5,65.8 46.6,66.6 38.2,84.8 "/>
<polygon class="st18" points="38.2,84.8 38.1,84.8 30.1,66.7 35,65.8 38.3,74.7 41.5,65.8 46.6,66.6 "/>
<path class="st17" d="M50.7,75.8c0-2.5,2-4.5,4.3-4.5c2.3,0,4.4,2,4.4,4.5c0,2.5-2,4.5-4.4,4.5C52.8,80.2,50.7,78.3,50.7,75.8
	 M55.1,85.3c5.1,0,9.6-4,9.6-9.5c0-5.5-4.5-9.5-9.6-9.5c-5,0-9.5,4-9.5,9.5C45.5,81.3,50,85.3,55.1,85.3"/>
<path class="st18" d="M50.7,75.8c0-2.5,2-4.5,4.3-4.5c2.3,0,4.4,2,4.4,4.5c0,2.5-2,4.5-4.4,4.5C52.8,80.2,50.7,78.3,50.7,75.8z
	 M55.1,85.3c5.1,0,9.6-4,9.6-9.5c0-5.5-4.5-9.5-9.6-9.5c-5,0-9.5,4-9.5,9.5C45.5,81.3,50,85.3,55.1,85.3z"/>
<path class="st17" d="M80,71.7c-0.7-1-1.8-1.7-3-2c-2.2-0.6-4.6,0.7-5.1,3.2c-0.6,2.7,0.5,5.3,3.1,5.9c1.2,0.3,2.4,0.2,3.5-0.5
	l1.9,4.4c-1.7,1.2-4.7,1.2-6.6,0.7c-5.7-1.4-8.2-6.6-7.1-11.2c1.3-5.7,6.1-8.6,11.5-7.3c2.1,0.5,4.1,1.8,5.4,3.6L80,71.7"/>
<path class="st18" d="M80,71.7c-0.7-1-1.8-1.7-3-2c-2.2-0.6-4.6,0.7-5.1,3.2c-0.6,2.7,0.5,5.3,3.1,5.9c1.2,0.3,2.4,0.2,3.5-0.5
	l1.9,4.4c-1.7,1.2-4.7,1.2-6.6,0.7c-5.7-1.4-8.2-6.6-7.1-11.2c1.3-5.7,6.1-8.6,11.5-7.3c2.1,0.5,4.1,1.8,5.4,3.6L80,71.7z"/>
<path class="st17" d="M87.8,79.7c0-1.5,1.2-2.3,2.6-2.3c1.4,0,2.6,0.9,2.6,2.3c0,1.5-1.2,2.4-2.6,2.4C89,82,87.8,81.1,87.8,79.7
	 M85.2,72.7c1.4-0.7,3-1.1,4.5-1.1c2.2,0,3.3,0.5,3.3,3c0,0.2,0,0.4,0,0.6c-1.1-0.8-2.6-1.4-3.9-1.4c-3.3,0-6.1,2.3-6.1,5.9
	c0,3.8,2.1,6.5,6,6.5c1.8,0,3.3-0.5,4.3-2h0.1v1.8l4.5-0.6V73.4c0-4.4-2.9-6.3-7.2-6.3c-1.4,0-3.4,0.3-4.7,0.8L85.2,72.7z"/>
<path class="st18" d="M87.8,79.7c0-1.5,1.2-2.3,2.6-2.3c1.4,0,2.6,0.9,2.6,2.3c0,1.5-1.2,2.4-2.6,2.4C89,82,87.8,81.1,87.8,79.7z
	 M85.2,72.7c1.4-0.7,3-1.1,4.5-1.1c2.2,0,3.3,0.5,3.3,3c0,0.2,0,0.4,0,0.6c-1.1-0.8-2.6-1.4-3.9-1.4c-3.3,0-6.1,2.3-6.1,5.9
	c0,3.8,2.1,6.5,6,6.5c1.8,0,3.3-0.5,4.3-2h0.1v1.8l4.5-0.6V73.4c0-4.4-2.9-6.3-7.2-6.3c-1.4,0-3.4,0.3-4.7,0.8L85.2,72.7z"/>
<path class="st17" d="M104.4,77.4c-0.9-2.3,0.1-5,2.3-5.9c2.2-0.8,4.6,0.5,5.5,2.9c0.9,2.3-0.1,5-2.3,5.9
	C107.8,81.1,105.3,79.7,104.4,77.4 M109.4,67.2c-1.5-0.7-3.4-0.6-4.9,0c-4.8,1.8-6.6,7.4-4.8,12.3c1.8,4.8,6.8,7.3,11.4,5.5
	c1.9-0.7,3.4-2.1,3.7-4.2l0.1,0l0.9,2.4L120,81l-8.5-23.2l-4.7,2.4L109.4,67.2z"/>
<path class="st18" d="M104.4,77.4c-0.9-2.3,0.1-5,2.3-5.9c2.2-0.8,4.6,0.5,5.5,2.9c0.9,2.3-0.1,5-2.3,5.9
	C107.8,81.1,105.3,79.7,104.4,77.4z M109.4,67.2c-1.5-0.7-3.4-0.6-4.9,0c-4.8,1.8-6.6,7.4-4.8,12.3c1.8,4.8,6.8,7.3,11.4,5.5
	c1.9-0.7,3.4-2.1,3.7-4.2l0.1,0l0.9,2.4L120,81l-8.5-23.2l-4.7,2.4L109.4,67.2z"/>
<path class="st17" d="M125.8,75.4c0-2.5,2-4.5,4.3-4.5c2.3,0,4.4,2,4.4,4.5c0,2.5-2,4.5-4.4,4.5C127.9,79.9,125.8,77.9,125.8,75.4
	 M130.2,84.9c5.1,0,9.6-4,9.6-9.5c0-5.5-4.5-9.5-9.6-9.5c-5,0-9.5,4-9.5,9.5C120.6,80.9,125.1,84.9,130.2,84.9"/>
<path class="st18" d="M125.8,75.4c0-2.5,2-4.5,4.3-4.5c2.3,0,4.4,2,4.4,4.5c0,2.5-2,4.5-4.4,4.5C127.9,79.9,125.8,77.9,125.8,75.4z
	 M130.2,84.9c5.1,0,9.6-4,9.6-9.5c0-5.5-4.5-9.5-9.6-9.5c-5,0-9.5,4-9.5,9.5C120.6,80.9,125.1,84.9,130.2,84.9z"/>
<path class="st17" d="M142.6,79.2c1,1.1,2.3,1.6,3.8,1.6c0.9,0,2.3-0.1,2.3-1.4c0-2.5-8,0-8-7.3c0-4,3.1-5.8,6.5-5.8
	c2.1,0,4.2,1,5.7,2.5l-2.9,3c-0.7-0.6-1.8-1-2.7-1c-0.6,0-1.8,0.1-1.8,1.1c0,3,8,0,8,7.4c0,3.9-3.4,6-6.7,6c-2.9,0-4.5-0.6-6.8-2.4
	L142.6,79.2"/>
<path class="st18" d="M142.6,79.2c1,1.1,2.3,1.6,3.8,1.6c0.9,0,2.3-0.1,2.3-1.4c0-2.5-8,0-8-7.3c0-4,3.1-5.8,6.5-5.8
	c2.1,0,4.2,1,5.7,2.5l-2.9,3c-0.7-0.6-1.8-1-2.7-1c-0.6,0-1.8,0.1-1.8,1.1c0,3,8,0,8,7.4c0,3.9-3.4,6-6.7,6c-2.9,0-4.5-0.6-6.8-2.4
	L142.6,79.2z"/>
<g>
	<polyline class="st1" points="31,87.3 31.1,87.3 41.8,121.2 33.1,122.7 29.4,106.5 29.3,106.5 20.7,123.1 20.6,123.1 11.5,107.2 
		11.4,107.2 9,123.5 0,122.6 8.3,88.1 8.4,88.1 20.4,108.4 31,87.3 	"/>
</g>
<path class="st1" d="M48.9,110.9V110c0-3.3,2.7-6.4,6.2-6.4c1.4,0,2.7,0.2,3.6,1L48.9,110.9 M68.3,104.9c-2.5-4.7-7.7-7.8-13.2-7.8
	c-7.6,0-13.9,6.3-13.9,13.9c0,6.1,5.8,13.2,14.3,13.2c4.6,0,8.5-1.6,12.1-3.9l-4.2-5.9c-2.2,1.7-4.8,3-7.7,3c-1.5,0-3.4-0.5-4.3-1.8
	L68.3,104.9z"/>
<polyline class="st1" points="77.9,106.7 70.7,94.4 79.4,93.7 83.5,101.7 89.8,94.7 97.6,97.7 87.5,107.7 94.8,120.4 86,121.6 
	83.4,113.4 75.2,120.5 67.3,117.1 77.9,106.7 "/>
<path class="st1" d="M108.5,122.8l-8,0.9l-0.7-24.1l8-0.9L108.5,122.8 M108.8,92.4l-5,4.7l-5.9-3.7l4.9-4.8L108.8,92.4z"/>
<path class="st1" d="M130.7,102.1c-1.4-1.2-3.4-1.8-5.2-1.8c-3.6,0-6.6,2.6-6.6,6.1c0,3.9,2.6,7.1,6.8,7.1c1.9,0,3.6-0.5,5.1-1.8
	l4.4,5.5c-2.1,2.2-6.7,3.3-9.6,3.3c-9.1,0-14.6-6.3-14.6-13.1c0-8.3,6.1-14,14.6-14c3.3,0,6.8,1.1,9.4,3.1L130.7,102.1"/>
<path class="st1" d="M142.8,109.4c0-3.6,3.1-6.4,6.7-6.4c3.6,0,6.7,2.8,6.7,6.4c0,3.6-3.1,6.4-6.7,6.4
	C146,115.8,142.8,113,142.8,109.4 M149.5,123c7.8,0,14.8-5.7,14.8-13.5c0-7.8-7-13.5-14.8-13.5c-7.8,0-14.7,5.7-14.7,13.5
	C134.8,117.3,141.7,123,149.5,123"/>
<polyline class="st1" points="40,86.9 40.4,87.7 37,88.5 37.7,91.6 40.3,90.9 40.5,91.7 37.8,92.3 38.8,96.3 37.9,96.6 35.9,87.9 
	40,86.9 "/>
<polygon class="st19" points="40,86.9 40.4,87.7 37,88.5 37.7,91.6 40.3,90.9 40.5,91.7 37.8,92.3 38.8,96.3 37.9,96.6 35.9,87.9 
	"/>
<path class="st1" d="M42.5,90.7L42.5,90.7c0.4-1.1,1.1-1.4,2.3-1.4L44.5,90c-0.1,0-0.2,0-0.3,0c-0.8,0-1.7,1-1.6,2.5l0.2,3.1
	L42,95.9l-0.4-6.3l0.9-0.3L42.5,90.7"/>
<path class="st20" d="M42.5,90.7L42.5,90.7c0.4-1.1,1.1-1.4,2.3-1.4L44.5,90c-0.1,0-0.2,0-0.3,0c-0.8,0-1.7,1-1.6,2.5l0.2,3.1
	L42,95.9l-0.4-6.3l0.9-0.3L42.5,90.7z"/>
<path class="st1" d="M50.9,92.3c0.4,1.6-0.6,3.4-2.4,3.8c-1.8,0.4-3.5-0.8-3.9-2.3c-0.4-1.7,0.6-3.4,2.4-3.8
	C48.8,89.5,50.5,90.7,50.9,92.3 M45.3,93.6c0.3,1.2,1.6,2.1,3,1.8c1.4-0.3,2.1-1.7,1.8-2.9c-0.3-1.2-1.6-2.1-3-1.8
	C45.8,90.9,45,92.3,45.3,93.6"/>
<path class="st19" d="M50.9,92.3c0.4,1.6-0.6,3.4-2.4,3.8c-1.8,0.4-3.5-0.8-3.9-2.3c-0.4-1.7,0.6-3.4,2.4-3.8
	C48.8,89.5,50.5,90.7,50.9,92.3z M45.3,93.6c0.3,1.2,1.6,2.1,3,1.8c1.4-0.3,2.1-1.7,1.8-2.9c-0.3-1.2-1.6-2.1-3-1.8
	C45.8,90.9,45,92.3,45.3,93.6z"/>
<path class="st1" d="M52.2,93.9l0.6-5.2l0.7,0l-0.1,0.9l0,0c0.4-0.5,1.2-0.7,1.8-0.6c1,0.2,1.3,0.5,1.7,1.2c0.5-0.5,1.2-0.7,1.9-0.6
	c1.1,0.2,2,0.9,1.8,2.1l-0.8,4.1l-0.7-0.1l0.7-4c0.1-0.7-0.3-1.3-1.1-1.5c-1.1-0.2-1.7,0.3-1.9,1.3l-0.5,3.3l-0.7-0.1l0.6-3.8
	c0.1-0.7-0.4-1.3-1.1-1.4c-1.1-0.2-1.7,0.3-1.9,1.3L52.9,94L52.2,93.9"/>
<path class="st19" d="M52.2,93.9l0.6-5.2l0.7,0l-0.1,0.9l0,0c0.4-0.5,1.2-0.7,1.8-0.6c1,0.2,1.3,0.5,1.7,1.2
	c0.5-0.5,1.2-0.7,1.9-0.6c1.1,0.2,2,0.9,1.8,2.1l-0.8,4.1l-0.7-0.1l0.7-4c0.1-0.7-0.3-1.3-1.1-1.5c-1.1-0.2-1.7,0.3-1.9,1.3
	l-0.5,3.3l-0.7-0.1l0.6-3.8c0.1-0.7-0.4-1.3-1.1-1.4c-1.1-0.2-1.7,0.3-1.9,1.3L52.9,94L52.2,93.9z"/>
<path class="st0" d="M52.5,145l-0.7,1.9h-3.5l5.1-12.8H56l5.1,12.8h-3.5l-0.6-1.9H52.5 M53.4,142.4h2.7l-1.3-4.4h-0.1L53.4,142.4z"
	/>
<polyline class="st0" points="62.4,134 65.7,134 65.7,144 69.5,144 69.5,146.8 62.4,146.8 62.4,134 "/>
<polyline class="st0" points="72.3,134 74,142.3 74.1,142.3 75.9,134 78.4,134 80.3,142.4 80.3,142.4 82.1,134 85.4,134 82,146.8 
	79.1,146.8 77.2,138.5 77.2,138.5 75.2,146.8 72.3,146.8 69,134 72.3,134 "/>
<path class="st0" d="M88.4,145l-0.7,1.9h-3.5l5.1-12.8H92l5.1,12.8h-3.5l-0.6-1.9H88.4 M89.3,142.4H92l-1.3-4.4h-0.1L89.3,142.4z"/>
<polyline class="st0" points="99,142.2 95.2,134 98.8,134 100.7,139.2 102.6,134 106.1,134 102.3,142.2 102.3,146.8 99,146.8 
	99,142.2 "/>
<path class="st0" d="M111.8,137.8c-0.1-0.4-0.2-1.2-1.2-1.2c-0.6,0-1.1,0.4-1.1,1c0,0.8,0.3,0.9,2.6,2c2.4,1.1,3,2.2,3,3.7
	c0,1.9-1.1,3.9-4.5,3.9c-3.7,0-4.6-2.4-4.6-4.1v-0.4h3.2c0,1.5,0.9,1.7,1.3,1.7c0.8,0,1.2-0.6,1.2-1.2c0-0.8-0.5-1.1-2.5-1.9
	c-0.9-0.4-3.1-1.3-3.1-3.7c0-2.4,2.3-3.8,4.5-3.8c1.3,0,2.6,0.5,3.5,1.5c0.8,0.9,0.8,1.8,0.8,2.5H111.8"/>
</svg>
