<?xml version="1.0" encoding="utf-8"?>
<!-- Generator: Adobe Illustrator 19.1.0, SVG Export Plug-In . SVG Version: 6.00 Build 0)  -->
<svg version="1.1" id="Layer_1" xmlns="http://www.w3.org/2000/svg" xmlns:xlink="http://www.w3.org/1999/xlink" x="0px" y="0px"
	 viewBox="0 0 164.3 162.3" style="enable-background:new 0 0 164.3 162.3;" xml:space="preserve">
<style type="text/css">
	.st0{fill:#562219;}
	.st1{fill:#F15D2A;}
	.st2{clip-path:url(#SVGID_2_);}
	.st3{clip-path:url(#SVGID_4_);fill:url(#SVGID_5_);}
	.st4{clip-path:url(#SVGID_7_);}
	.st5{clip-path:url(#SVGID_9_);fill:url(#SVGID_10_);}
	.st6{clip-path:url(#SVGID_12_);}
	.st7{clip-path:url(#SVGID_14_);fill:url(#SVGID_15_);}
	.st8{clip-path:url(#SVGID_17_);}
	.st9{clip-path:url(#SVGID_19_);fill:url(#SVGID_20_);}
	.st10{clip-path:url(#SVGID_22_);}
	.st11{clip-path:url(#SVGID_24_);fill:url(#SVGID_25_);}
	.st12{fill:#00863F;}
	.st13{fill:none;stroke:#00863F;}
	.st14{fill:none;stroke:#F15D2A;stroke-width:1.3;}
	.st15{fill:none;stroke:#F15D2A;}
</style>
<g>
	<g>
		<path class="st0" d="M36,149.5h3.3v12.7H36V149.5z"/>
		<path class="st0" d="M41.4,149.5h2.8l4.9,8l0,0l-0.1-8h3.1v12.7h-2.8l-4.9-7.7l0,0l0.1,7.7h-3.1V149.5z"/>
		<path class="st0" d="M64.5,153.3c-0.1-0.4-0.2-1.2-1.2-1.2c-0.6,0-1.1,0.4-1.1,1c0,0.8,0.3,0.9,2.6,1.9c2.4,1.1,3,2.2,3,3.7
			c0,1.9-1.1,3.9-4.4,3.9c-3.7,0-4.6-2.4-4.6-4v-0.4H62c0,1.5,0.9,1.7,1.3,1.7c0.8,0,1.2-0.6,1.2-1.2c0-0.8-0.5-1.1-2.5-1.9
			c-0.9-0.4-3.1-1.3-3.1-3.7c0-2.4,2.3-3.8,4.5-3.8c1.3,0,2.6,0.5,3.4,1.4c0.8,0.9,0.8,1.8,0.8,2.5H64.5z"/>
		<path class="st0" d="M69.8,149.5h7.1v2.9h-4v2h3.8v2.9h-3.8v2.2h4v2.9h-7.1V149.5z"/>
		<path class="st0" d="M82.5,160.4l-0.7,1.8h-3.5l5.1-12.7H86l5.1,12.7h-3.5l-0.6-1.8H82.5z M83.4,157.9h2.7l-1.3-4.4h0h0
			L83.4,157.9z"/>
		<path class="st0" d="M97.4,153.3c-0.1-0.4-0.2-1.2-1.2-1.2c-0.6,0-1.1,0.4-1.1,1c0,0.8,0.3,0.9,2.6,1.9c2.4,1.1,3,2.2,3,3.7
			c0,1.9-1.1,3.9-4.4,3.9c-3.7,0-4.6-2.4-4.6-4v-0.4h3.2c0,1.5,0.9,1.7,1.3,1.7c0.8,0,1.2-0.6,1.2-1.2c0-0.8-0.5-1.1-2.5-1.9
			c-0.9-0.4-3.1-1.3-3.1-3.7c0-2.4,2.3-3.8,4.5-3.8c1.3,0,2.6,0.5,3.4,1.4c0.8,0.9,0.8,1.8,0.8,2.5H97.4z"/>
		<path class="st0" d="M108.9,149.3c3.9,0,6.7,3.1,6.7,6.6c0,3.5-2.8,6.6-6.8,6.6c-4,0-6.7-3.2-6.7-6.5c0-0.8,0.1-1.8,0.5-2.7
			C103.3,151.7,105.3,149.3,108.9,149.3z M108.9,159.7c2.3,0,3.4-2.1,3.4-3.7c0-1.7-1.1-3.8-3.5-3.8c-2.3,0-3.5,1.9-3.5,3.7
			C105.4,157.8,106.8,159.7,108.9,159.7z"/>
		<path class="st0" d="M117.5,149.5h2.8l4.9,8l0,0l-0.1-8h3.1v12.7h-2.8l-4.9-7.7l0,0l0.1,7.7h-3.1V149.5z"/>
	</g>
</g>
<g>
	<g>
		<g>
			<polygon class="st1" points="142.7,148.1 139.2,152.3 135.6,148.1 139.2,143.9 			"/>
		</g>
	</g>
	<g>
		<g>
			<polygon class="st1" points="28,148.1 24.5,152.3 21,148.1 24.5,143.9 			"/>
		</g>
	</g>
</g>
<g>
	<g>
		<defs>
			<path id="SVGID_1_" d="M91.8,0.1c-0.9,0.3-2,1.2-2.8,2.3l0,0c-0.8,1-1.7,2.4-2.6,3.8l0,0c-0.9,1.5-2.1,3.2-3.2,4.3l0,0
				c-1,1.1-1.9,2.6-2.7,3.6l0,0c-0.8,1-1,2-2.1,3.7l0,0c-1.1,1.7-2.3,4.7-2.3,4.7l0,0l26,22.6c2.5-1.2,4.2-2,5-3.9l0,0
				c0.8-1.9,1.2-3,0.8-5.1l0,0c-0.5-2-1.7-5.6-2.1-8.7l0,0c-0.5-3-0.8-3.3-1.1-7l0,0c-0.3-3.7-0.3-5.2-1.1-8.6l0,0
				c-0.8-3.4-0.3-3.8-1.9-6.5l0,0c-1-1.7-2-2.7-3.4-3.6l0,0c-1.6-1.1-2.5-1.2-3.5-1.5l0,0C94,0.2,93.3,0,92.6,0l0,0
				C92.3,0,92.1,0,91.8,0.1"/>
		</defs>
		<clipPath id="SVGID_2_">
			<use xlink:href="#SVGID_1_"  style="overflow:visible;"/>
		</clipPath>
		<g class="st2">
			<defs>
				<rect id="SVGID_3_" x="64.7" y="-2.3" transform="matrix(0.5 0.866 -0.866 0.5 66.0085 -68.4445)" width="55.2" height="50.5"/>
			</defs>
			<clipPath id="SVGID_4_">
				<use xlink:href="#SVGID_3_"  style="overflow:visible;"/>
			</clipPath>
			
				<linearGradient id="SVGID_5_" gradientUnits="userSpaceOnUse" x1="-182.3178" y1="492.9788" x2="-181.7836" y2="492.9788" gradientTransform="matrix(-51.6985 -89.5443 -89.5443 51.6985 34823.9609 -41764.9141)">
				<stop  offset="0" style="stop-color:#008C47"/>
				<stop  offset="0.1067" style="stop-color:#008C47"/>
				<stop  offset="0.1265" style="stop-color:#008A46"/>
				<stop  offset="0.538" style="stop-color:#006930"/>
				<stop  offset="0.8406" style="stop-color:#005422"/>
				<stop  offset="1" style="stop-color:#004C1C"/>
			</linearGradient>
			<polygon class="st3" points="84.2,59.5 56.6,11.7 100.3,-13.6 127.9,34.3 			"/>
		</g>
	</g>
	<g>
		<defs>
			<path id="SVGID_6_" d="M92.1,4c0,1.1,1.3,1.9,2.9,1.9l0,0C96.7,5.9,98,5,98,4l0,0c0-1.1-1.3-1.9-2.9-1.9l0,0
				C93.4,2.1,92.1,2.9,92.1,4"/>
		</defs>
		<clipPath id="SVGID_7_">
			<use xlink:href="#SVGID_6_"  style="overflow:visible;"/>
		</clipPath>
		<g class="st4">
			<defs>
				<rect id="SVGID_8_" x="92.2" y="1.9" width="5.9" height="3.8"/>
			</defs>
			<clipPath id="SVGID_9_">
				<use xlink:href="#SVGID_8_"  style="overflow:visible;"/>
			</clipPath>
			
				<radialGradient id="SVGID_10_" cx="-190.7257" cy="476.8949" r="0.4505" gradientTransform="matrix(5.4915 0 0 -5.4915 1142.5262 2622.7258)" gradientUnits="userSpaceOnUse">
				<stop  offset="0" style="stop-color:#ADD0B6"/>
				<stop  offset="0.1067" style="stop-color:#ADD0B6"/>
				<stop  offset="0.3391" style="stop-color:#71A882"/>
				<stop  offset="0.6543" style="stop-color:#237F4D"/>
				<stop  offset="0.8831" style="stop-color:#006A33"/>
				<stop  offset="1" style="stop-color:#00632B"/>
			</radialGradient>
			<rect x="92.2" y="1.9" class="st5" width="5.9" height="3.8"/>
		</g>
	</g>
	<g>
		<defs>
			<path id="SVGID_11_" d="M59.5,18.1c-2.6,1.8-5.4,4.8-6.3,9.2l0,0c-0.9,4.4-1.5,10.7-0.5,15.2l0,0c1.1,4.5,3.9,8.7,5.7,10.5l0,0
				c1.8,1.8,4.8,4.4,9.6,5.7l0,0c4.5,1.2,6.5,1.4,9.6,1.3l0,0c4.5-0.1,9-0.6,9-0.6l0,0c1-0.1,3.3-0.1,5.6,0.5l0,0
				c1.5,0.4,4.2,0.5,5.7,0.2l0,0c1.5-0.3,3.5-1.2,4.7-2.3l0,0c1.2-1.1,2.4-1.8,3.6-4.1l0,0c1.5-2.9,1.7-5.1,0.6-6.9l0,0
				c-1.6-2.8-4.1-4.8-6.2-6.8l0,0c-2.1-2-4.2-4.4-6.6-7.1l0,0c-2.4-2.7-4.8-5.7-7.1-7.5l0,0c-2.3-1.8-7.5-5.1-9.6-6.2l0,0
				c-2.1-1.1-6-2.3-8.6-2.6l0,0c-1.1-0.1-2.3-0.2-3.4-0.2l0,0C63.3,16.6,61.3,16.9,59.5,18.1"/>
		</defs>
		<clipPath id="SVGID_12_">
			<use xlink:href="#SVGID_11_"  style="overflow:visible;"/>
		</clipPath>
		<g class="st6">
			<defs>
				<rect id="SVGID_13_" x="51.5" y="16.6" width="56.2" height="43.8"/>
			</defs>
			<clipPath id="SVGID_14_">
				<use xlink:href="#SVGID_13_"  style="overflow:visible;"/>
			</clipPath>
			
				<linearGradient id="SVGID_15_" gradientUnits="userSpaceOnUse" x1="-181.8041" y1="492.6252" x2="-181.3682" y2="492.6252" gradientTransform="matrix(-128.8262 0 0 128.8262 -23313.4805 -63424.5352)">
				<stop  offset="0" style="stop-color:#008C47"/>
				<stop  offset="5.615230e-03" style="stop-color:#008C47"/>
				<stop  offset="0.1699" style="stop-color:#007C3D"/>
				<stop  offset="0.4148" style="stop-color:#00672F"/>
				<stop  offset="0.6425" style="stop-color:#005925"/>
				<stop  offset="0.8446" style="stop-color:#00501E"/>
				<stop  offset="1" style="stop-color:#004C1C"/>
			</linearGradient>
			<rect x="51.5" y="16.6" class="st7" width="56.2" height="43.8"/>
		</g>
	</g>
	<g>
		<defs>
			<path id="SVGID_16_" d="M64.9,17.1c-1.7,0.1-2.8,0.3-4.2,1.1l0,0c-1.6,1-3.2,2.4-4.3,4.2l0,0c-0.8,1.3-1.4,2.5-1.7,3.5l0,0
				c-0.4,1.6-0.8,3.8-0.6,5.6l0,0c0.5,3.7,1.5,5.4,2.3,7.2l0,0c0.8,1.8,3,5.1,4.4,6.5l0,0c1.4,1.4,2.7,2.4,5.4,4.2l0,0
				c2.7,1.8,4.5,2.4,7.6,3.3l0,0c3.3,0.9,8,1.4,11.6,1.8l0,0c3.6,0.5,5.3,0.6,7.5,1.1l0,0c2.3,0.5,4.4,1,6.2,1.4l0,0
				c1.4,0.3,2.2,0.1,4.1-1.1l0,0c1.2-0.8,2.1-1.7,2.7-2.7l0,0c0.6-1.1,1.3-2.8,1.2-3.9l0,0c-0.2-2.2-0.8-2.7-1.7-3.9l0,0
				c-0.9-1.2-2.3-2.9-3.8-4.1l0,0c-1.4-1.2-3.9-3.6-5.4-5.1l0,0c-1.5-1.5-3.5-4.1-5.3-5.7l0,0c-1.8-1.7-4.8-4.9-7.3-6.6l0,0
				c-2.5-1.7-4.5-2.9-6.9-4.2l0,0c-2.5-1.2-4.2-1.7-6-2.1l0,0c-1.9-0.4-3.9-0.5-5-0.5l0,0C65.2,17.1,64.9,17.1,64.9,17.1"/>
		</defs>
		<clipPath id="SVGID_17_">
			<use xlink:href="#SVGID_16_"  style="overflow:visible;"/>
		</clipPath>
		<g class="st8">
			<defs>
				<rect id="SVGID_18_" x="53.8" y="17.2" width="53.2" height="40"/>
			</defs>
			<clipPath id="SVGID_19_">
				<use xlink:href="#SVGID_18_"  style="overflow:visible;"/>
			</clipPath>
			
				<linearGradient id="SVGID_20_" gradientUnits="userSpaceOnUse" x1="-181.3295" y1="491.9212" x2="-180.8769" y2="491.9212" gradientTransform="matrix(117.4873 0 0 -117.4873 21357.7656 57831.7109)">
				<stop  offset="0" style="stop-color:#89C980"/>
				<stop  offset="3.370670e-02" style="stop-color:#89C980"/>
				<stop  offset="3.896669e-02" style="stop-color:#90CB80"/>
				<stop  offset="6.650044e-02" style="stop-color:#B0D57C"/>
				<stop  offset="9.771611e-02" style="stop-color:#CBDF79"/>
				<stop  offset="0.133" style="stop-color:#E0E676"/>
				<stop  offset="0.1741" style="stop-color:#F0EC73"/>
				<stop  offset="0.225" style="stop-color:#FBF172"/>
				<stop  offset="0.2964" style="stop-color:#FFF470"/>
				<stop  offset="0.4944" style="stop-color:#FFF570"/>
				<stop  offset="0.7054" style="stop-color:#FFF470"/>
				<stop  offset="0.7838" style="stop-color:#FBF172"/>
				<stop  offset="0.8401" style="stop-color:#F0EC74"/>
				<stop  offset="0.8858" style="stop-color:#E0E677"/>
				<stop  offset="0.9251" style="stop-color:#CADF7B"/>
				<stop  offset="0.96" style="stop-color:#AFD57F"/>
				<stop  offset="0.9908" style="stop-color:#8FCB84"/>
				<stop  offset="1" style="stop-color:#83C885"/>
			</linearGradient>
			<rect x="53.8" y="17.2" class="st9" width="53.2" height="40"/>
		</g>
	</g>
	<g>
		<defs>
			<path id="SVGID_21_" d="M66.8,25c-1.3,0.3-1.6,0.6-2.4,1.2l0,0c-0.8,0.6-1.3,2.4-1.1,3.5l0,0c0.2,1.2,0.7,3.3,2.1,5l0,0
				c0.9,1,3.2,3,5.2,4.2l0,0c2.1,1.1,4.2,1.8,5.8,1.9l0,0c2,0.1,3.5-0.3,4.4-1l0,0c1-0.8,1.4-1.7,1.5-2.6l0,0c0.1-1,0-2.3-1.4-4.3
				l0,0c-1.8-2.5-3.5-4.6-5.5-5.8l0,0c-1.5-0.9-3.3-1.9-5-2.1l0,0c-0.7-0.1-1.3-0.1-1.8-0.1l0,0C68,24.8,67.4,24.9,66.8,25"/>
		</defs>
		<clipPath id="SVGID_22_">
			<use xlink:href="#SVGID_21_"  style="overflow:visible;"/>
		</clipPath>
		<g class="st10">
			<defs>
				
					<rect id="SVGID_23_" x="60.3" y="20.1" transform="matrix(-0.6428 0.7661 -0.7661 -0.6428 144.3558 -2.0871)" width="24.7" height="25.1"/>
			</defs>
			<clipPath id="SVGID_24_">
				<use xlink:href="#SVGID_23_"  style="overflow:visible;"/>
			</clipPath>
			
				<linearGradient id="SVGID_25_" gradientUnits="userSpaceOnUse" x1="-183.6949" y1="491.7675" x2="-182.9436" y2="491.7675" gradientTransform="matrix(21.1364 -25.1894 -25.1894 -21.1364 16334.7012 5809.1064)">
				<stop  offset="0" style="stop-color:#00863F"/>
				<stop  offset="0.1067" style="stop-color:#00863F"/>
				<stop  offset="0.1341" style="stop-color:#008840"/>
				<stop  offset="0.4574" style="stop-color:#74AC4E"/>
				<stop  offset="0.7188" style="stop-color:#BDCF5E"/>
				<stop  offset="0.9056" style="stop-color:#EDE76A"/>
				<stop  offset="1" style="stop-color:#FFF570"/>
			</linearGradient>
			<polygon class="st11" points="55.1,34 71,15.1 90.2,31.2 74.3,50.1 			"/>
		</g>
	</g>
	<polygon class="st12" points="16.9,56.3 28.9,56.3 22.7,50.3 	"/>
	<polyline class="st12" points="42.6,56.2 54.5,56.2 48.4,50.2 	"/>
	<polyline class="st12" points="123.8,56.2 135.8,56.2 129.6,50.3 	"/>
	<polyline class="st1" points="41.6,50.2 29.7,50.2 35.9,56.2 	"/>
	<polyline class="st1" points="122.7,50.2 110.8,50.2 117,56.2 	"/>
	<polyline class="st1" points="148.4,50.2 136.5,50.2 142.7,56.2 	"/>
	<path class="st12" d="M22.3,70.3l3,5.8h-6.1L22.3,70.3z M22.3,60.8L10.1,84.5l5.5,1.2l2.3-5.1h8.7l2.3,5.1l5.8-1.2L22.3,60.8
		L22.3,60.8z"/>
	<path class="st13" d="M22.3,70.3l3,5.8h-6.1L22.3,70.3z M22.3,60.8L10.1,84.5l5.5,1.2l2.3-5.1h8.7l2.3,5.1l5.8-1.2L22.3,60.8
		L22.3,60.8z"/>
	<polygon class="st12" points="38.2,84.4 38.1,84.4 30.1,66.2 35,65.3 38.3,74.2 41.5,65.3 46.6,66.1 	"/>
	<polygon class="st13" points="38.2,84.4 38.1,84.4 30.1,66.2 35,65.3 38.3,74.2 41.5,65.3 46.6,66.1 	"/>
	<path class="st12" d="M50.7,75.3c0-2.5,2-4.5,4.3-4.5c2.3,0,4.4,2,4.4,4.5c0,2.5-2,4.5-4.4,4.5C52.8,79.8,50.7,77.8,50.7,75.3
		 M55.1,84.8c5.1,0,9.6-4,9.6-9.5c0-5.5-4.5-9.5-9.6-9.5c-5,0-9.5,4-9.5,9.5C45.5,80.8,50,84.8,55.1,84.8"/>
	<path class="st13" d="M50.7,75.3c0-2.5,2-4.5,4.3-4.5c2.3,0,4.4,2,4.4,4.5c0,2.5-2,4.5-4.4,4.5C52.8,79.8,50.7,77.8,50.7,75.3z
		 M55.1,84.8c5.1,0,9.6-4,9.6-9.5c0-5.5-4.5-9.5-9.6-9.5c-5,0-9.5,4-9.5,9.5C45.5,80.8,50,84.8,55.1,84.8z"/>
	<path class="st12" d="M80,71.2c-0.7-1-1.8-1.7-3-2c-2.2-0.6-4.6,0.7-5.1,3.2c-0.6,2.7,0.5,5.3,3.1,5.9c1.2,0.3,2.4,0.2,3.5-0.5
		l1.9,4.4c-1.7,1.2-4.7,1.2-6.6,0.7c-5.7-1.4-8.2-6.6-7.1-11.2c1.3-5.7,6.1-8.6,11.5-7.3c2.1,0.5,4.1,1.8,5.4,3.6L80,71.2z"/>
	<path class="st13" d="M80,71.2c-0.7-1-1.8-1.7-3-2c-2.2-0.6-4.6,0.7-5.1,3.2c-0.6,2.7,0.5,5.3,3.1,5.9c1.2,0.3,2.4,0.2,3.5-0.5
		l1.9,4.4c-1.7,1.2-4.7,1.2-6.6,0.7c-5.7-1.4-8.2-6.6-7.1-11.2c1.3-5.7,6.1-8.6,11.5-7.3c2.1,0.5,4.1,1.8,5.4,3.6L80,71.2z"/>
	<path class="st12" d="M87.8,79.2c0-1.5,1.2-2.3,2.6-2.3c1.4,0,2.6,0.9,2.6,2.3c0,1.5-1.2,2.4-2.6,2.4C89,81.5,87.8,80.7,87.8,79.2
		 M85.2,72.3c1.4-0.7,3-1.1,4.5-1.1c2.2,0,3.3,0.5,3.3,3c0,0.2,0,0.4,0,0.6c-1.1-0.8-2.6-1.4-3.9-1.4c-3.3,0-6.1,2.3-6.1,5.9
		c0,3.8,2.1,6.5,6,6.5c1.8,0,3.3-0.5,4.3-2h0.1v1.8l4.5-0.6V72.9c0-4.4-2.9-6.3-7.2-6.3c-1.4,0-3.4,0.3-4.7,0.8L85.2,72.3z"/>
	<path class="st13" d="M87.8,79.2c0-1.5,1.2-2.3,2.6-2.3c1.4,0,2.6,0.9,2.6,2.3c0,1.5-1.2,2.4-2.6,2.4C89,81.5,87.8,80.7,87.8,79.2z
		 M85.2,72.3c1.4-0.7,3-1.1,4.5-1.1c2.2,0,3.3,0.5,3.3,3c0,0.2,0,0.4,0,0.6c-1.1-0.8-2.6-1.4-3.9-1.4c-3.3,0-6.1,2.3-6.1,5.9
		c0,3.8,2.1,6.5,6,6.5c1.8,0,3.3-0.5,4.3-2h0.1v1.8l4.5-0.6V72.9c0-4.4-2.9-6.3-7.2-6.3c-1.4,0-3.4,0.3-4.7,0.8L85.2,72.3z"/>
	<path class="st12" d="M104.4,76.9c-0.9-2.3,0.1-5,2.3-5.9c2.2-0.8,4.6,0.5,5.5,2.9c0.9,2.3-0.1,5-2.3,5.9
		C107.8,80.6,105.3,79.2,104.4,76.9 M109.4,66.7c-1.5-0.7-3.4-0.6-4.9,0c-4.8,1.8-6.6,7.4-4.8,12.3c1.8,4.8,6.8,7.3,11.4,5.5
		c1.9-0.7,3.4-2.1,3.7-4.2l0.1,0l0.9,2.4l4.4-2.3l-8.5-23.2l-4.7,2.4L109.4,66.7z"/>
	<path class="st13" d="M104.4,76.9c-0.9-2.3,0.1-5,2.3-5.9c2.2-0.8,4.6,0.5,5.5,2.9c0.9,2.3-0.1,5-2.3,5.9
		C107.8,80.6,105.3,79.2,104.4,76.9z M109.4,66.7c-1.5-0.7-3.4-0.6-4.9,0c-4.8,1.8-6.6,7.4-4.8,12.3c1.8,4.8,6.8,7.3,11.4,5.5
		c1.9-0.7,3.4-2.1,3.7-4.2l0.1,0l0.9,2.4l4.4-2.3l-8.5-23.2l-4.7,2.4L109.4,66.7z"/>
	<path class="st12" d="M125.8,74.9c0-2.5,2-4.5,4.3-4.5c2.3,0,4.4,2,4.4,4.5c0,2.5-2,4.5-4.4,4.5C127.9,79.4,125.8,77.4,125.8,74.9
		 M130.2,84.4c5.1,0,9.6-4,9.6-9.5c0-5.5-4.5-9.5-9.6-9.5c-5,0-9.5,4-9.5,9.5C120.6,80.4,125.1,84.4,130.2,84.4"/>
	<path class="st13" d="M125.8,74.9c0-2.5,2-4.5,4.3-4.5c2.3,0,4.4,2,4.4,4.5c0,2.5-2,4.5-4.4,4.5C127.9,79.4,125.8,77.4,125.8,74.9z
		 M130.2,84.4c5.1,0,9.6-4,9.6-9.5c0-5.5-4.5-9.5-9.6-9.5c-5,0-9.5,4-9.5,9.5C120.6,80.4,125.1,84.4,130.2,84.4z"/>
	<path class="st12" d="M142.6,78.7c1,1.1,2.3,1.6,3.8,1.6c0.9,0,2.3-0.1,2.3-1.4c0-2.5-8,0-8-7.3c0-4,3.1-5.8,6.5-5.8
		c2.1,0,4.2,1,5.7,2.5l-2.9,3c-0.7-0.6-1.8-1-2.7-1c-0.6,0-1.8,0.1-1.8,1.1c0,3,8,0,8,7.4c0,3.9-3.4,6-6.7,6c-2.9,0-4.5-0.6-6.8-2.4
		L142.6,78.7z"/>
	<path class="st13" d="M142.6,78.7c1,1.1,2.3,1.6,3.8,1.6c0.9,0,2.3-0.1,2.3-1.4c0-2.5-8,0-8-7.3c0-4,3.1-5.8,6.5-5.8
		c2.1,0,4.2,1,5.7,2.5l-2.9,3c-0.7-0.6-1.8-1-2.7-1c-0.6,0-1.8,0.1-1.8,1.1c0,3,8,0,8,7.4c0,3.9-3.4,6-6.7,6c-2.9,0-4.5-0.6-6.8-2.4
		L142.6,78.7z"/>
	<polygon class="st1" points="31,86.8 31.1,86.8 41.8,120.7 33.1,122.2 29.4,106 29.3,106 20.7,122.6 20.6,122.6 11.5,106.7 
		11.4,106.7 9,123 0,122.2 8.3,87.6 8.4,87.6 20.4,107.9 	"/>
	<path class="st1" d="M48.9,110.4v-0.9c0-3.3,2.7-6.4,6.2-6.4c1.4,0,2.7,0.2,3.6,1L48.9,110.4z M68.3,104.5
		c-2.5-4.7-7.7-7.8-13.2-7.8c-7.6,0-13.9,6.3-13.9,13.9c0,6.1,5.8,13.2,14.3,13.2c4.6,0,8.5-1.6,12.1-3.9l-4.2-5.9
		c-2.2,1.7-4.8,3-7.7,3c-1.5,0-3.4-0.5-4.3-1.8L68.3,104.5z"/>
	<polygon class="st1" points="77.9,106.2 70.7,93.9 79.4,93.2 83.5,101.2 89.8,94.3 97.6,97.2 87.5,107.3 94.8,119.9 86,121.1 
		83.4,113 75.2,120 67.3,116.6 	"/>
	<path class="st1" d="M108.5,122.3l-8,0.9l-0.7-24.1l8-0.9L108.5,122.3z M108.8,91.9l-5,4.7l-5.9-3.7l4.9-4.8L108.8,91.9z"/>
	<path class="st1" d="M130.7,101.6c-1.4-1.2-3.4-1.8-5.2-1.8c-3.6,0-6.6,2.6-6.6,6.1c0,3.9,2.6,7.1,6.8,7.1c1.9,0,3.6-0.5,5.1-1.8
		l4.4,5.5c-2.1,2.2-6.7,3.3-9.6,3.3c-9.1,0-14.6-6.3-14.6-13.1c0-8.3,6.1-14,14.6-14c3.3,0,6.8,1.1,9.4,3.1L130.7,101.6z"/>
	<path class="st1" d="M142.8,109c0-3.6,3.1-6.4,6.7-6.4c3.6,0,6.7,2.8,6.7,6.4c0,3.6-3.1,6.4-6.7,6.4
		C146,115.3,142.8,112.5,142.8,109 M149.5,122.5c7.8,0,14.8-5.7,14.8-13.5c0-7.8-7-13.5-14.8-13.5c-7.8,0-14.7,5.7-14.7,13.5
		C134.8,116.8,141.7,122.5,149.5,122.5"/>
	<polygon class="st1" points="40,86.5 40.4,87.2 37,88 37.7,91.1 40.3,90.5 40.5,91.2 37.8,91.9 38.8,95.8 37.9,96.1 35.9,87.4 	"/>
	<polygon class="st14" points="40,86.5 40.4,87.2 37,88 37.7,91.1 40.3,90.5 40.5,91.2 37.8,91.9 38.8,95.8 37.9,96.1 35.9,87.4 	
		"/>
	<path class="st1" d="M42.5,90.2L42.5,90.2c0.4-1.1,1.1-1.4,2.3-1.4l-0.3,0.7c-0.1,0-0.2,0-0.3,0c-0.8,0-1.7,1-1.6,2.5l0.2,3.1
		L42,95.5l-0.4-6.3l0.9-0.3L42.5,90.2z"/>
	<path class="st15" d="M42.5,90.2L42.5,90.2c0.4-1.1,1.1-1.4,2.3-1.4l-0.3,0.7c-0.1,0-0.2,0-0.3,0c-0.8,0-1.7,1-1.6,2.5l0.2,3.1
		L42,95.5l-0.4-6.3l0.9-0.3L42.5,90.2z"/>
	<path class="st1" d="M50.9,91.8c0.4,1.6-0.6,3.4-2.4,3.8c-1.8,0.4-3.5-0.8-3.9-2.3c-0.4-1.7,0.6-3.4,2.4-3.8
		C48.8,89,50.5,90.2,50.9,91.8 M45.3,93.1c0.3,1.2,1.6,2.1,3,1.8c1.4-0.3,2.1-1.7,1.8-2.9c-0.3-1.2-1.6-2.1-3-1.8
		C45.8,90.4,45,91.8,45.3,93.1"/>
	<path class="st14" d="M50.9,91.8c0.4,1.6-0.6,3.4-2.4,3.8c-1.8,0.4-3.5-0.8-3.9-2.3c-0.4-1.7,0.6-3.4,2.4-3.8
		C48.8,89,50.5,90.2,50.9,91.8z M45.3,93.1c0.3,1.2,1.6,2.1,3,1.8c1.4-0.3,2.1-1.7,1.8-2.9c-0.3-1.2-1.6-2.1-3-1.8
		C45.8,90.4,45,91.8,45.3,93.1z"/>
	<path class="st1" d="M52.2,93.4l0.6-5.2l0.7,0l-0.1,0.9l0,0c0.4-0.5,1.2-0.7,1.8-0.6c1,0.2,1.3,0.5,1.7,1.2
		c0.5-0.5,1.2-0.7,1.9-0.6c1.1,0.2,2,0.9,1.8,2.1l-0.8,4.1l-0.7-0.1l0.7-4c0.1-0.7-0.3-1.3-1.1-1.5c-1.1-0.2-1.7,0.3-1.9,1.3
		l-0.5,3.3l-0.7-0.1l0.6-3.8c0.1-0.7-0.4-1.3-1.1-1.4c-1.1-0.2-1.7,0.3-1.9,1.3l-0.4,3.2L52.2,93.4z"/>
	<path class="st14" d="M52.2,93.4l0.6-5.2l0.7,0l-0.1,0.9l0,0c0.4-0.5,1.2-0.7,1.8-0.6c1,0.2,1.3,0.5,1.7,1.2
		c0.5-0.5,1.2-0.7,1.9-0.6c1.1,0.2,2,0.9,1.8,2.1l-0.8,4.1l-0.7-0.1l0.7-4c0.1-0.7-0.3-1.3-1.1-1.5c-1.1-0.2-1.7,0.3-1.9,1.3
		l-0.5,3.3l-0.7-0.1l0.6-3.8c0.1-0.7-0.4-1.3-1.1-1.4c-1.1-0.2-1.7,0.3-1.9,1.3l-0.4,3.2L52.2,93.4z"/>
</g>
<g>
	<path class="st0" d="M52.5,144.5l-0.7,1.8h-3.5l5.1-12.8H56l5.1,12.8h-3.5l-0.6-1.8H52.5z M53.4,141.9h2.7l-1.3-4.4h0h0L53.4,141.9
		z"/>
	<path class="st0" d="M62.4,133.6h3.3v9.9h3.8v2.9h-7V133.6z"/>
	<path class="st0" d="M72.3,133.6l1.7,8.3h0l1.9-8.3h2.5l1.8,8.3h0l1.7-8.3h3.3L82,146.3h-2.9l-1.9-8.3h0l-1.9,8.3h-3L69,133.6H72.3
		z"/>
	<path class="st0" d="M88.4,144.5l-0.7,1.8h-3.5l5.1-12.8H92l5.1,12.8h-3.5l-0.6-1.8H88.4z M89.3,141.9H92l-1.3-4.4h0h0L89.3,141.9z
		"/>
	<path class="st0" d="M99,141.7l-3.8-8.1h3.5l1.9,5.1l1.9-5.1h3.5l-3.8,8.1v4.6H99V141.7z"/>
	<path class="st0" d="M111.8,137.3c-0.1-0.4-0.2-1.2-1.2-1.2c-0.6,0-1.1,0.4-1.1,1c0,0.8,0.3,0.9,2.6,2c2.4,1.1,3,2.2,3,3.7
		c0,1.9-1.1,3.9-4.5,3.9c-3.7,0-4.6-2.4-4.6-4.1v-0.4h3.2c0,1.5,0.9,1.7,1.3,1.7c0.8,0,1.2-0.6,1.2-1.2c0-0.8-0.5-1.1-2.5-1.9
		c-0.9-0.4-3.1-1.3-3.1-3.7c0-2.4,2.3-3.8,4.5-3.8c1.3,0,2.6,0.5,3.5,1.5c0.8,0.9,0.8,1.8,0.8,2.5H111.8z"/>
</g>
</svg>
