<?xml version="1.0" standalone="no"?>
<!DOCTYPE svg PUBLIC "-//W3C//DTD SVG 1.1//EN" "http://www.w3.org/Graphics/SVG/1.1/DTD/svg11.dtd" >
<svg>
<metadata>
Created by FontForge 20090622 at Thu Oct  6 16:08:43 2016
 By deploy user
Copyright (c) 2014 by Charter Communications. All rights reserved.
</metadata>
<defs>
<font id="Rutledge-Light" horiz-adv-x="771" >
  <font-face 
    font-family="Rutledge Light"
    font-weight="300"
    font-style="italic"
    font-stretch="normal"
    units-per-em="1000"
    panose-1="0 0 0 0 0 0 0 0 0 0"
    ascent="767"
    descent="-233"
    x-height="461"
    cap-height="691"
    bbox="-11 -241 1054 885"
    underline-thickness="50"
    underline-position="-50"
    slope="-8"
    unicode-range="U+000D-U+25CA"
  />
<missing-glyph horiz-adv-x="550" 
 />
    <glyph glyph-name=".notdef" horiz-adv-x="550" 
 />
    <glyph glyph-name="NULL" horiz-adv-x="0" 
 />
    <glyph glyph-name="NULL" horiz-adv-x="0" 
 />
    <glyph glyph-name="nonmarkingreturn" unicode="&#xd;" horiz-adv-x="550" 
 />
    <glyph glyph-name="space" unicode=" " horiz-adv-x="253" 
 />
    <glyph glyph-name="f" unicode="f" horiz-adv-x="351" 
d="M253 672q-36 0 -57.5 -21.5t-21.5 -79.5v-110h126l-16 -40h-110v-421h-45v421h-113v40h113v103q0 30 4 56.5t17.5 47t37.5 32t65 11.5q24 0 45 -6.5t35 -14.5l-16 -38q-10 7 -25.5 13.5t-38.5 6.5z" />
    <glyph glyph-name="g" unicode="g" horiz-adv-x="549" 
d="M461 461v-495q0 -30 -10.5 -60.5t-32 -56t-54.5 -41.5t-78 -16q-32 0 -57 6.5t-43.5 17t-32 23t-22.5 23.5l35 23q14 -18 40 -35.5t73 -17.5q64 0 100 38t36 96v86q-34 -20 -79 -39.5t-96 -19.5q-42 0 -77.5 15t-61 44.5t-39.5 72t-14 98.5q0 118 49 182t143 64
q38 0 78.5 -14t85.5 -40l27 46h30zM415 363q-6 4 -23 14.5t-41 22t-52.5 20t-57.5 8.5q-46 0 -75 -21.5t-45.5 -53t-22.5 -67t-6 -63.5q0 -26 7 -58.5t24 -62t45.5 -49.5t72.5 -20q26 0 55 9.5t54 21.5t43 23t22 15v261z" />
    <glyph glyph-name="h" unicode="h" horiz-adv-x="537" 
d="M452 0h-45v319q0 48 -22.5 78.5t-77.5 30.5q-52 0 -97.5 -21.5t-80.5 -43.5v-363h-44v738h44v-327q35 20 80 39t97 19q43 0 71.5 -11.5t45 -31.5t23 -48t6.5 -62v-316z" />
    <glyph glyph-name="i" unicode="i" horiz-adv-x="235" 
d="M139 0h-43v461h43v-461zM150 608q0 -14 -9 -23t-23 -9q-15 0 -24 9t-9 23q0 13 9 22.5t24 9.5q14 0 23 -9t9 -23z" />
    <glyph glyph-name="j" unicode="j" horiz-adv-x="317" 
d="M221 -68q0 -26 -7 -51.5t-23.5 -45t-43 -31.5t-65.5 -12q-30 0 -66 15l7 44q12 -8 26.5 -13.5t29.5 -5.5q51 0 74 27t23 75v527h45v-529zM232 608q0 -14 -9.5 -23t-23.5 -9t-23 9t-9 23q0 13 9 22.5t23 9.5t23.5 -9t9.5 -23z" />
    <glyph glyph-name="k" unicode="k" horiz-adv-x="486" 
d="M167 247l303 -247h-64l-277 228v-228h-44v738h44v-473l242 196h62z" />
    <glyph glyph-name="l" unicode="l" horiz-adv-x="222" 
d="M134 0h-44v738l44 -7v-731z" />
    <glyph glyph-name="m" unicode="m" horiz-adv-x="859" 
d="M452 0h-45v319q0 48 -23 78.5t-77 30.5q-32 0 -63.5 -10t-57 -22t-41.5 -22.5l-16 -10.5v-363h-44v461h29l25 -43q8 5 24 13.5t37.5 17t48.5 14.5t57 6q51 0 79.5 -20t45.5 -49q16 11 38.5 23t49 22.5t55 17t55.5 6.5q43 0 71 -11.5t44.5 -32t23 -49t6.5 -61.5v-315h-44
v319q0 48 -23 78.5t-78 30.5q-30 0 -61.5 -10t-57 -22t-42 -22t-16.5 -11v-363z" />
    <glyph glyph-name="n" unicode="n" horiz-adv-x="537" 
d="M129 0h-44v461h29l25 -43l24.5 13.5t37.5 17t48.5 14.5t56.5 6q43 0 71.5 -13t45 -34.5t23 -49.5t6.5 -58v-314h-45v319q0 48 -22.5 78.5t-77.5 30.5q-32 0 -63.5 -10t-57 -22t-41.5 -22.5l-16 -10.5v-363z" />
    <glyph glyph-name="o" unicode="o" horiz-adv-x="553" 
d="M277 469q48 0 89.5 -17.5t72.5 -49t48.5 -75.5t17.5 -96q0 -53 -17.5 -96.5t-48 -75t-72.5 -49t-90 -17.5q-49 0 -91 17.5t-72.5 49t-48 75t-17.5 96.5q0 52 17.5 95.5t48 75t72.5 49.5t91 18zM91 231q0 -44 14 -80t39 -62.5t59 -41t74 -14.5q39 0 73 14.5t58.5 41
t39 62.5t14.5 80q0 43 -14.5 79t-39 62.5t-58.5 41t-73 14.5q-40 0 -74 -14.5t-59 -41t-39 -62.5t-14 -79z" />
    <glyph glyph-name="p" unicode="p" horiz-adv-x="546" 
d="M85 -205v666h29l28 -46q88 54 163 54q193 0 193 -252q0 -56 -15 -98t-41 -70t-61.5 -42t-75.5 -14q-24 0 -48 5.5t-47 14.5t-43.5 19.5t-37.5 20.5v-258h-44zM305 428q-30 0 -59.5 -9t-54 -20.5t-41.5 -22t-21 -13.5v-261q3 -3 20.5 -14t43 -23t55.5 -22t57 -10
q43 0 72 19t46 47t24 60t7 58q0 35 -5.5 72.5t-22 68t-45.5 50.5t-76 20z" />
    <glyph glyph-name="q" unicode="q" horiz-adv-x="546" 
d="M461 461v-658l-46 -8v257q-16 -10 -36.5 -20.5t-43 -19t-46.5 -14t-48 -5.5q-41 0 -76 15.5t-61 44.5t-41 70.5t-15 93.5q0 121 48 186.5t145 65.5q74 0 163 -54l28 46h29zM415 363q-4 3 -20.5 13.5t-40.5 22t-53.5 20.5t-59.5 9q-47 0 -76 -22.5t-45.5 -55t-22 -69
t-5.5 -64.5q0 -21 7 -52.5t24 -61t45.5 -50t72.5 -20.5q27 0 57 10t55.5 22t42.5 23t19 14v261z" />
    <glyph glyph-name="r" unicode="r" horiz-adv-x="380" 
d="M129 0h-44v461h29l25 -43q45 25 84.5 38t81.5 13q33 0 59 -9l-16 -39q-13 7 -43 7q-31 0 -61 -9.5t-54.5 -21t-41 -22l-19.5 -12.5v-363z" />
    <glyph glyph-name="s" unicode="s" horiz-adv-x="408" 
d="M204 267q37 -13 67 -25.5t50.5 -28.5t31.5 -37.5t11 -52.5q0 -21 -9.5 -44t-29 -42t-49.5 -31.5t-71 -12.5q-33 0 -60.5 5.5t-48.5 12.5t-34.5 14t-17.5 11l9 50q6 -5 19.5 -14t33 -17.5t44 -15t53.5 -6.5q19 0 39.5 5t37 16t27 27.5t10.5 39.5q0 22 -10.5 37.5
t-27.5 26.5t-40 19.5l-48 17.5q-67 24 -106 55t-39 79q0 19 8.5 39t27 36.5t47 27t68.5 10.5q48 0 82.5 -10.5t54.5 -21.5l-15 -44q-4 2 -15 8t-27 12.5t-36 11.5t-43 5q-57 0 -81.5 -23t-24.5 -50q0 -23 23 -45t89 -45z" />
    <glyph glyph-name="t" unicode="t" horiz-adv-x="350" 
d="M129 421h-113v40h113v168l45 7v-175h126l-16 -40h-110v-285q0 -45 20 -74t73 -29q35 0 61 18l6 -43q-31 -16 -71 -16q-48 0 -74.5 17t-40 40t-16.5 48t-3 41v15v268z" />
    <glyph glyph-name="u" unicode="u" horiz-adv-x="535" 
d="M406 461h44v-461h-27l-27 44q-9 -6 -25.5 -14.5t-38.5 -17t-48.5 -14t-55.5 -5.5q-43 0 -70.5 13t-43.5 34.5t-22.5 49.5t-6.5 59v312h44v-319q0 -48 22 -78.5t76 -30.5q32 0 63.5 10t57 22t41.5 22t17 10v364z" />
    <glyph glyph-name="v" unicode="v" horiz-adv-x="454" 
d="M387 461h44l-182 -461h-44l-182 461h45l159 -408z" />
    <glyph glyph-name="w" unicode="w" horiz-adv-x="745" 
d="M679 461h43l-163 -461h-44l-142 395l-142 -395h-47l-161 461h43l142 -408l142 408h45l143 -408z" />
    <glyph glyph-name="y" unicode="y" horiz-adv-x="477" 
d="M62 -162q39 6 63.5 22t41 38t27.5 48l23 52l-194 463h48l168 -414l170 414h45l-213 -512q-24 -57 -61.5 -97.5t-104.5 -56.5z" />
    <glyph glyph-name="z" unicode="z" horiz-adv-x="476" 
d="M421 461v-51l-325 -369h327v-41h-370v49l325 372h-312v40h355z" />
    <glyph glyph-name="x" unicode="x" horiz-adv-x="444" 
d="M247 231l174 -231h-53l-147 198l-147 -198h-51l172 231l-171 230h52l145 -197l146 197h53z" />
    <glyph glyph-name="c" unicode="c" horiz-adv-x="473" 
d="M262 33q54 0 89.5 16.5t63.5 34.5l11 -44q-27 -17 -69 -32t-94 -15t-92 18t-67.5 50t-41.5 75.5t-14 94.5v7q0 49 15 91.5t43 73.5t67.5 48.5t89.5 17.5q51 0 92.5 -15.5t70.5 -32.5l-11 -45q-26 18 -62.5 35t-90.5 17q-20 0 -49 -6t-56 -26t-46 -57.5t-19 -100.5v-9
q0 -62 20 -100t48 -59.5t56.5 -29t45.5 -7.5z" />
    <glyph glyph-name="A" unicode="A" horiz-adv-x="685" 
d="M669 0h-48l-96 217h-366l-96 -217h-47l305 691h43zM511 257l-169 380l-169 -380h338z" />
    <glyph glyph-name="B" unicode="B" horiz-adv-x="546" 
d="M90 691h166q100 0 153.5 -45.5t53.5 -123.5q0 -60 -33.5 -101.5t-93.5 -55.5q81 -14 122 -61.5t41 -120.5q0 -85 -59 -134t-168 -49h-182v691zM134 381h125q73 0 115.5 40t42.5 103q0 58 -42.5 92.5t-115.5 34.5h-125v-270zM278 41q81 0 127.5 38.5t46.5 110.5
q0 70 -46.5 110t-127.5 40h-144v-299h144z" />
    <glyph glyph-name="C" unicode="C" horiz-adv-x="618" 
d="M368 34q60 0 107 17.5t89 49.5l7 -45q-30 -21 -60 -33.5t-57 -19t-49 -8.5t-35 -2q-87 0 -147 33t-97.5 85t-54.5 114t-17 121q0 70 21 134t61 113t99 78t135 29q12 0 33.5 -2t48.5 -8.5t57 -18.5t59 -33l-6 -45q-41 32 -86 48.5t-108 16.5q-47 0 -95 -18t-86 -56.5
t-62 -97.5t-24 -140q0 -82 24.5 -141t63 -97t86 -56t93.5 -18z" />
    <glyph glyph-name="D" unicode="D" horiz-adv-x="716" 
d="M90 691h237q78 0 140 -28.5t105.5 -76t66.5 -110t23 -129.5q0 -71 -22.5 -134t-65.5 -110t-106 -75t-144 -28h-234v691zM323 41q48 0 99.5 17.5t94.5 54.5t70.5 95t27.5 139q0 79 -28 136.5t-70.5 94.5t-94 55t-98.5 18h-190v-610h189z" />
    <glyph glyph-name="E" unicode="E" horiz-adv-x="511" 
d="M464 0h-374v691h374l-7 -40h-323v-263h252l-7 -41h-245v-306h330v-41z" />
    <glyph glyph-name="F" unicode="F" horiz-adv-x="506" 
d="M134 0h-44v691h369l-7 -40h-318v-263h247l-7 -41h-240v-347z" />
    <glyph glyph-name="G" unicode="G" horiz-adv-x="670" 
d="M601 339v-286q-7 -5 -26.5 -15t-48 -20t-65 -17.5t-77.5 -7.5q-90 0 -153 33t-102.5 85t-57 114t-17.5 121q0 70 21.5 134t63.5 113t103.5 78t141.5 29q13 0 35.5 -2t50 -8t59 -18.5t63.5 -33.5l-7 -44q-43 32 -89.5 48t-111.5 16q-50 0 -99.5 -18t-90 -56.5t-65.5 -97.5
t-25 -140q0 -82 25.5 -141t66 -97t90.5 -56t98 -18q54 0 94.5 11t76.5 32v220h-129l8 42h167z" />
    <glyph glyph-name="H" unicode="H" horiz-adv-x="695" 
d="M562 691h43v-691h-43v344h-428v-344h-44v691h44v-305h428v305z" />
    <glyph glyph-name="I" unicode="I" horiz-adv-x="224" 
d="M134 0h-44v691h44v-691z" />
    <glyph glyph-name="J" unicode="J" horiz-adv-x="390" 
d="M257 691h43v-509q0 -32 -9 -63.5t-29 -57.5t-52 -44t-78 -23q-31 -3 -60 1t-56 17l7 45q17 -11 41 -17.5t47 -6.5q30 0 57 10.5t46.5 29.5t31 46.5t11.5 60.5v511z" />
    <glyph glyph-name="K" unicode="K" horiz-adv-x="580" 
d="M564 0h-61l-369 352v-352h-44v691h44v-313l348 313h61l-361 -326z" />
    <glyph glyph-name="L" unicode="L" horiz-adv-x="443" 
d="M134 41h293v-41h-337v691h44v-650z" />
    <glyph glyph-name="M" unicode="M" horiz-adv-x="828" 
d="M672 691h68v-691h-44v626l-258 -626h-47l-259 626v-626h-44v691h69l257 -631z" />
    <glyph glyph-name="N" unicode="N" horiz-adv-x="725" 
d="M637 691v-691h-39l-466 609l-1 -609h-43v691h39l466 -609v609h44z" />
    <glyph glyph-name="O" unicode="O" 
d="M386 700q85 0 147.5 -31.5t103 -82t60.5 -113.5t20 -126q0 -64 -20 -127t-60.5 -113.5t-103 -82t-147.5 -31.5q-86 0 -148.5 31.5t-103 82t-60.5 113.5t-20 127q0 63 20 126t60.5 113.5t103 82t148.5 31.5zM386 34q48 0 98.5 16.5t92.5 53.5t68.5 97t26.5 146
q0 82 -25.5 141.5t-66.5 98.5t-92 57.5t-102 18.5t-102.5 -18.5t-92 -57.5t-66 -98.5t-25.5 -141.5q0 -86 26.5 -146t68.5 -97t92.5 -53.5t98.5 -16.5z" />
    <glyph glyph-name="P" unicode="P" horiz-adv-x="542" 
d="M273 691q106 0 166 -51.5t60 -145.5t-60 -145.5t-166 -51.5h-139v-297h-44v691h183zM278 337q81 0 128 41t47 116q0 76 -47 116.5t-128 40.5h-144v-314h144z" />
    <glyph glyph-name="Q" unicode="Q" 
d="M717 347q0 -42 -8.5 -84.5t-26.5 -82t-45 -73.5t-63 -59l115 -146h-56l-94 124q-34 -16 -71 -24.5t-82 -8.5q-86 0 -148.5 31.5t-103 82t-60.5 113.5t-20 127t20 127t60.5 113t103 81.5t148.5 31.5q85 0 147.5 -31.5t103 -81.5t60.5 -113t20 -127zM100 347
q0 -86 26.5 -145.5t68.5 -96.5t92.5 -53.5t98.5 -16.5t98.5 16.5t92.5 53.5t68.5 96.5t26.5 145.5q0 82 -25.5 141.5t-66.5 98.5t-92 57.5t-102 18.5t-102.5 -18.5t-92 -57.5t-66 -98.5t-25.5 -141.5z" />
    <glyph glyph-name="R" unicode="R" horiz-adv-x="543" 
d="M317 287l60.5 -84l62.5 -85.5l53.5 -72.5l33.5 -45h-55q-14 21 -37 52.5l-50 67.5l-55.5 74l-52.5 72q-11 15 -22 24t-26.5 14t-38 6.5t-56.5 1.5v-312h-44v691h183q106 0 167 -48t60 -142q0 -45 -16 -80.5t-44.5 -59.5t-68 -36.5t-85.5 -12.5q7 -3 14.5 -8.5t16.5 -16.5
zM278 352q81 0 128 37t47 112q0 76 -47 113t-128 37h-144v-299h144z" />
    <glyph glyph-name="S" unicode="S" horiz-adv-x="528" 
d="M284 376q55 -21 93 -43.5t62 -47t34.5 -52t10.5 -57.5q0 -46 -21.5 -80.5t-55.5 -57t-74.5 -34t-77.5 -11.5q-74 0 -122.5 14.5t-88.5 44.5l7 50q35 -26 88 -47.5t121 -17.5q23 0 53 8t57 24.5t45.5 41.5t18.5 60q0 60 -41 94.5t-116 64.5l-66 27t-70.5 37.5t-56.5 55
t-23 78.5q0 45 19 77.5t49.5 53.5t67.5 31t73 10q57 0 102.5 -17t75.5 -42l-6 -45q-8 8 -22.5 19t-35.5 21.5t-48 17.5t-59 7t-62 -9t-53.5 -25.5t-38 -41t-14.5 -54.5q0 -29 12.5 -51t35.5 -40t55.5 -33.5t71.5 -30.5z" />
    <glyph glyph-name="T" unicode="T" horiz-adv-x="555" 
d="M255 651h-239v40h523l-7 -40h-233v-651h-44v651z" />
    <glyph glyph-name="U" unicode="U" horiz-adv-x="708" 
d="M620 226q0 -53 -15.5 -91t-40 -64t-54.5 -41t-59.5 -23.5t-54.5 -11t-39 -2.5t-39.5 2.5t-55 10.5t-60.5 23.5t-55.5 41t-40.5 63.5t-16 92v465h44v-463q0 -51 19 -87.5t50 -59.5t71 -33.5t81 -10.5q40 0 80 10.5t71 33.5t50.5 59t19.5 87v464h44v-465z" />
    <glyph glyph-name="V" unicode="V" horiz-adv-x="656" 
d="M593 691h47l-291 -691h-40l-293 691h47l265 -628z" />
    <glyph glyph-name="W" unicode="W" horiz-adv-x="984" 
d="M921 691h47l-220 -691h-28l-228 636l-228 -636h-28l-220 691h47l188 -594l208 594h65l209 -594z" />
    <glyph glyph-name="X" unicode="X" horiz-adv-x="628" 
d="M342 369l270 -369h-54l-244 334l-243 -334h-55l272 369l-236 322h53l209 -287l209 287h53z" />
    <glyph glyph-name="Y" unicode="Y" horiz-adv-x="538" 
d="M522 691l-231 -392v-299h-44v299l-231 392h45l208 -350l208 350h45z" />
    <glyph glyph-name="Z" unicode="Z" horiz-adv-x="584" 
d="M536 691v-40l-437 -610h438v-41h-490v40l439 611h-439v40h489z" />
    <glyph glyph-name="one" unicode="1" horiz-adv-x="316" 
d="M170 691h47v-691h-45v637l-90 -72v56z" />
    <glyph glyph-name="two" unicode="2" horiz-adv-x="590" 
d="M478 522q0 31 -13.5 56.5t-36 44t-51.5 28.5t-59 10q-29 0 -56 -7.5t-52.5 -19t-49 -25.5l-43.5 -27v52q42 26 95 45.5t107 19.5q41 0 77.5 -14t63.5 -38.5t43 -57t16 -68.5q0 -49 -31 -99t-88 -105l-280 -275h379v-42h-428v49l303 301q58 58 81 98.5t23 73.5z" />
    <glyph glyph-name="three" unicode="3" horiz-adv-x="563" 
d="M349 366q64 -23 99 -69.5t35 -109.5q0 -40 -18.5 -75t-50.5 -61.5t-74 -42t-90 -15.5q-51 0 -98.5 13t-90.5 38v50l35 -21t39.5 -20t48 -15t60.5 -6q42 0 78 12.5t62.5 33.5t41.5 49.5t15 61.5q0 31 -13.5 59t-38 50t-60 35t-80.5 13h-81v40h80q40 1 74.5 10.5t59.5 27.5
t39 43t14 58q0 28 -15 53t-41 43.5t-60 29t-72 10.5q-57 0 -96 -12.5t-71 -28.5v46q35 17 76.5 25.5t86.5 8.5q48 0 90.5 -14t74.5 -37.5t50.5 -55.5t18.5 -68q0 -54 -33.5 -96t-94.5 -63z" />
    <glyph glyph-name="four" unicode="4" horiz-adv-x="630" 
d="M420 184h-349v40l336 467h47l-338 -468h304v131l44 7v-138h102l-13 -39h-89v-184h-44v184z" />
    <glyph glyph-name="five" unicode="5" horiz-adv-x="580" 
d="M503 208q0 -46 -19 -85t-51.5 -68t-75.5 -45.5t-91 -16.5q-99 0 -189 54v48q21 -14 40.5 -25.5t41.5 -20t48.5 -13t61.5 -4.5q41 0 76 14.5t60.5 38.5t40 56t14.5 67q0 81 -50 127.5t-141 46.5q-24 0 -44.5 -4.5t-35.5 -10t-24 -10.5t-10 -6h-31v340h346l-7 -40h-295
v-246q24 8 49.5 13.5t51.5 5.5q54 0 97.5 -16t73.5 -45t46.5 -68.5t16.5 -86.5z" />
    <glyph glyph-name="six" unicode="6" horiz-adv-x="625" 
d="M71 217q0 81 33.5 154t87.5 134.5t121.5 111t135.5 83.5v-49q-72 -38 -126.5 -79t-92.5 -81t-60.5 -77t-30.5 -67q34 30 78 47t98 17q49 0 93 -16.5t76 -44.5t51 -66.5t19 -81.5t-19 -81t-51 -66.5t-76 -45t-93 -16.5q-52 0 -96.5 17.5t-77.5 48t-51.5 71t-18.5 87.5z
M118 205q0 -39 16.5 -70.5t44 -54.5t63 -35.5t73.5 -12.5q41 0 77 13t63 36t42.5 54t15.5 66t-15.5 66t-42.5 54t-63 36.5t-77 13.5q-35 0 -70.5 -11t-63.5 -32t-45.5 -52t-17.5 -71z" />
    <glyph glyph-name="seven" unicode="7" horiz-adv-x="550" 
d="M174 0l274 651h-393v40h440v-40l-272 -651h-49z" />
    <glyph glyph-name="eight" unicode="8" horiz-adv-x="601" 
d="M390 368q63 -23 101.5 -71t38.5 -109q0 -40 -18 -75.5t-49.5 -62t-73 -42t-89.5 -15.5q-47 0 -89 15.5t-73 42t-49 62t-18 75.5q0 61 38.5 109t101.5 71q-33 14 -58 38t-39 54q-14 53 -14 64q0 36 15.5 68t42.5 56t63.5 38t78.5 14t78.5 -14t63.5 -38t42.5 -56t15.5 -68
q0 -51 -29.5 -92.5t-80.5 -63.5zM142 521q0 -29 13 -53.5t34.5 -42.5t50 -28.5t60.5 -10.5t61 10.5t50.5 28.5t34.5 42.5t13 53.5q0 28 -12 54t-33 45t-50.5 30.5t-63.5 11.5q-35 0 -64 -11.5t-50 -30.5t-32.5 -45t-11.5 -54zM300 32q38 0 72 12.5t60 34t41 50t15 60.5
t-15 60.5t-40.5 49.5t-59.5 33.5t-73 12.5q-38 0 -72.5 -12.5t-60 -33.5t-40.5 -49.5t-15 -60.5t15.5 -60.5t41 -50t59.5 -34t72 -12.5z" />
    <glyph glyph-name="nine" unicode="9" horiz-adv-x="625" 
d="M554 475q0 -81 -33.5 -154t-87.5 -134.5t-121.5 -111t-135.5 -83.5v49q72 38 126.5 79t92.5 81t60.5 77t30.5 67q-34 -30 -78 -47t-98 -17q-50 0 -93.5 16.5t-75.5 44.5t-51 66t-19 82q0 43 19 81t51 66.5t75.5 45t93.5 16.5q52 0 96.5 -17.5t77.5 -48t51.5 -71.5
t18.5 -87zM507 487q0 39 -16.5 70.5t-44 54.5t-63 35.5t-73.5 12.5q-41 0 -77 -13t-63 -36t-42.5 -54t-15.5 -66t15.5 -66t42.5 -54t63 -36.5t77 -13.5q35 0 70.5 11t63.5 32t45.5 52t17.5 71z" />
    <glyph glyph-name="zero" unicode="0" horiz-adv-x="661" 
d="M331 700q73 0 123.5 -32t81 -82.5t44 -113.5t13.5 -125q0 -63 -13.5 -126.5t-44 -114t-81 -82t-123.5 -31.5q-74 0 -124.5 31.5t-81.5 82t-44 114t-13 126.5q0 62 13 125t44 113.5t81.5 82.5t124.5 32zM331 32q16 0 38.5 3.5t47 14t48 31.5t42.5 55.5t30.5 85.5t11.5 123
q0 74 -12.5 126.5t-32.5 87.5t-45 55.5t-49 30.5t-45 13t-34 3t-34.5 -3t-46 -13t-49 -30.5t-45 -55.5t-33 -87.5t-12.5 -126.5q0 -72 11.5 -123t30.5 -85.5t43 -55.5t48.5 -31.5t47 -14t39.5 -3.5z" />
    <glyph glyph-name="at" unicode="@" horiz-adv-x="894" 
d="M447 611q85 0 157.5 -27.5t125.5 -76t83.5 -114.5t30.5 -144q0 -88 -45.5 -139.5t-130.5 -51.5q-14 0 -30 2t-31.5 8t-29.5 16.5t-23 27.5q-35 -29 -77.5 -41.5t-84.5 -9.5q-18 1 -41 9.5t-44 26.5t-36.5 47.5t-18.5 72.5q-3 45 9 83.5t36 66.5t58 44t75 17h147l19 -32
v-227q0 -6 2.5 -18.5t11.5 -24.5t27.5 -21.5t50.5 -9.5q30 0 52 12.5t36.5 34t21.5 49.5t7 58q0 70 -27.5 131t-75.5 105.5t-113.5 70t-141.5 25.5t-141 -25.5t-112.5 -70t-74.5 -105.5t-27 -131q0 -73 26 -134t73 -104.5t112.5 -68t143.5 -24.5q46 0 90 11t84 31l16 -31
q-42 -20 -89 -31t-101 -11q-88 0 -161 26.5t-125.5 74.5t-81.5 114.5t-29 146.5q0 78 30 144t83.5 114.5t126 76t157.5 27.5zM549 389h-117q-60 0 -93.5 -36.5t-36.5 -96.5q-6 -72 26 -112t92 -40q34 0 70.5 15.5t58.5 38.5v231z" />
    <glyph glyph-name="registered" unicode="&#xae;" horiz-adv-x="894" 
d="M466 301l35 -48.5l36.5 -49l31 -42t18.5 -26.5h-31l-55.5 77l-56.5 77q-7 9 -13.5 14t-15.5 8t-22 3.5t-33 0.5v-180h-25v401h106q26 0 50 -6.5t42 -20t29 -34.5t11 -50q0 -51 -32 -80t-92 -29q9 -4 17 -15zM447 339q45 0 71.5 21t26.5 66q0 43 -27.5 64t-73.5 21h-84
v-172h87zM77 335q0 70 29 131t79 107t117 72.5t144 26.5t144.5 -26.5t118 -72.5t79.5 -107t29 -131t-29 -131.5t-79.5 -107t-118 -72t-144.5 -26.5t-144 26.5t-117 72t-79 107t-29 131.5zM446 650q-72 0 -134.5 -24.5t-109.5 -67.5t-74 -100t-27 -122t27 -122t74 -100
t109.5 -67.5t134.5 -24.5t135 24.5t110 67.5t74 100t27 122t-27 122t-74 100t-110 67.5t-135 24.5z" />
    <glyph glyph-name="copyright" unicode="&#xa9;" horiz-adv-x="894" 
d="M568 167q-35 -23 -68.5 -30t-47.5 -7q-50 0 -85 19.5t-57 49.5t-31.5 66t-9.5 70q0 40 12 77.5t35 65.5t57.5 45t78.5 17q15 0 47 -6t67 -30l-3 -26q-23 18 -50 28t-62 10q-27 0 -55 -10.5t-50 -32.5t-36 -56.5t-14 -81.5t14 -81.5t36.5 -56.5t50 -32.5t54.5 -10.5
q34 0 61 10.5t53 28.5zM446 672q77 0 144.5 -26.5t118 -72.5t79.5 -107t29 -131t-29 -131.5t-79.5 -107t-118 -72t-144.5 -26.5t-144 26.5t-117 72t-79 107t-29 131.5t29 131t79 107t117 72.5t144 26.5zM101 336q0 -65 27 -122t74 -100t109.5 -67.5t134.5 -24.5t135 24.5
t110 67.5t74 100t27 122t-27 122t-74 100t-110 67.5t-135 24.5t-134.5 -24.5t-109.5 -67.5t-74 -100t-27 -122z" />
    <glyph glyph-name="trademark" unicode="&#x2122;" horiz-adv-x="897" 
d="M842 297h-26v336l-148 -336h-27l-148 336v-336h-25v372h39l148 -340l147 340h40v-372zM355 669v-23h-137v-349h-25v349h-138v23h300z" />
    <glyph glyph-name="dollar" unicode="$" horiz-adv-x="521" 
d="M276 376q106 -43 150.5 -91t44.5 -109q0 -50 -22.5 -84.5t-57 -56.5t-74.5 -32t-76 -10l-5 -65h-48l7 67q-45 5 -79.5 19t-65.5 37l7 51q30 -23 63.5 -40.5t78.5 -22.5l29 308q-27 12 -55.5 27.5t-52 36.5t-38 49.5t-14.5 66.5q0 45 17 77t44.5 53t61.5 31t69 11l6 65h46
l-6 -68q42 -5 73.5 -19.5t55.5 -35.5l-6 -45q-13 14 -44.5 33t-82.5 24zM112 531q0 -48 31.5 -78.5t88.5 -56.5l25 257q-26 -3 -51.5 -12t-46.5 -24.5t-34 -37t-13 -48.5zM245 36q21 0 51.5 7t58.5 23t48 41.5t20 63.5q0 30 -10 52.5t-29.5 40.5t-47.5 33.5t-64 30.5z" />
    <glyph glyph-name="question" unicode="?" horiz-adv-x="466" 
d="M247 0h-55v67h55v-67zM198 148q0 48 1.5 85.5t10.5 69.5t29.5 62.5t58.5 65.5q29 26 51.5 52.5t22.5 58.5q0 56 -38 85t-94 29q-27 0 -54 -7.5t-51.5 -19.5t-46.5 -26.5t-38 -27.5v51q59 38 104.5 55.5t95.5 17.5q76 0 121 -41t45 -113q0 -37 -19.5 -67t-46.5 -59
q-32 -29 -53 -52.5t-33 -51.5t-17 -67t-5 -100h-44z" />
    <glyph glyph-name="exclam" unicode="!" horiz-adv-x="156" 
d="M63 148l-10 543h50l-10 -543h-30zM106 0h-56v67h56v-67z" />
    <glyph glyph-name="less" unicode="&#x3c;" horiz-adv-x="566" 
d="M91 359l425 -207v-48l-466 233v44l466 233v-48z" />
    <glyph glyph-name="greater" unicode="&#x3e;" horiz-adv-x="566" 
d="M475 359l-425 207v48l466 -233v-44l-466 -233v48z" />
    <glyph glyph-name="slash" unicode="/" horiz-adv-x="594" 
d="M521 691h46l-494 -779h-46z" />
    <glyph glyph-name="percent" unicode="%" horiz-adv-x="904" 
d="M345 481q0 -33 -7.5 -66t-25 -59.5t-45.5 -43t-69 -16.5q-43 0 -71.5 16.5t-45.5 43t-24 59.5t-7 66t7 66.5t24 60t45.5 43t71.5 16.5q41 0 69 -16.5t45.5 -43t25 -60t7.5 -66.5zM198 333q9 0 27 4t36 19t31.5 44.5t13.5 81.5q0 50 -12.5 79.5t-30 44.5t-35.5 19.5
t-30 4.5t-31 -4.5t-37 -19.5t-30.5 -44.5t-12.5 -79.5q0 -52 13.5 -81.5t32 -44.5t37 -19t28.5 -4zM268 0h-48l410 674h48zM854 198q0 -33 -7 -66t-24 -60t-45.5 -43.5t-70.5 -16.5t-70.5 16.5t-45.5 43.5t-24 60t-7 66t7 66.5t24 60t45.5 43.5t70.5 17t70.5 -17t45.5 -43.5
t24 -60t7 -66.5zM707 51q10 0 28.5 4t36.5 19t31.5 44.5t13.5 80.5q0 50 -12.5 79.5t-30.5 44.5t-36.5 19.5t-30.5 4.5t-31 -4.5t-36 -19.5t-29.5 -44.5t-12.5 -79.5q0 -51 13.5 -80.5t31.5 -44.5t36 -19t28 -4z" />
    <glyph glyph-name="plus" unicode="+" horiz-adv-x="614" 
d="M564 386v-43h-235v-213h-45v213h-234v43h234v214h45v-214h235z" />
    <glyph glyph-name="asciitilde" unicode="~" horiz-adv-x="557" 
d="M507 411q0 -14 -3 -35.5t-14.5 -42.5t-33.5 -36t-60 -15q-23 0 -57.5 10.5t-69.5 23l-66 23t-48 10.5q-20 0 -32.5 -6t-19.5 -16t-9 -24t-2 -30h-42q0 14 3 36t14 42.5t33.5 35.5t60.5 15q26 0 60.5 -10.5t69 -23l64.5 -23t48 -10.5q21 0 33 6t18.5 16t8.5 24t2 30h42z
" />
    <glyph glyph-name="braceleft" unicode="{" horiz-adv-x="416" 
d="M50 322q45 1 71 28.5t26 69.5v134q0 70 35 103.5t119 33.5h65v-41h-72q-54 0 -75.5 -21t-21.5 -69v-140q0 -46 -23 -74.5t-55 -43.5q32 -15 55 -44t23 -75v-139q0 -48 21.5 -69.5t75.5 -21.5h72v-41h-65q-84 0 -119 33.5t-35 103.5v134q0 42 -26 70.5t-71 28.5v40z" />
    <glyph glyph-name="braceright" unicode="}" horiz-adv-x="416" 
d="M366 281q-45 -1 -71 -28.5t-26 -69.5v-134q0 -70 -35 -103.5t-119 -33.5h-65v41h72q54 0 75.5 21t21.5 69v140q0 46 23 74.5t55 43.5q-32 15 -55 44t-23 75v139q0 48 -21.5 69.5t-75.5 21.5h-72v41h65q84 0 119 -33.5t35 -103.5v-134q0 -42 26 -70.5t71 -28.5v-40z" />
    <glyph glyph-name="bracketleft" unicode="[" horiz-adv-x="351" 
d="M50 -88v821h251v-41h-201v-739h201v-41h-251z" />
    <glyph glyph-name="bracketright" unicode="]" horiz-adv-x="351" 
d="M301 -88h-251v41h200v739h-200v41h251v-821z" />
    <glyph glyph-name="parenleft" unicode="(" horiz-adv-x="328" 
d="M220 -78q-79 75 -124.5 176.5t-45.5 219.5t45.5 219.5t124.5 176.5h58q-7 -5 -23 -20.5t-36 -40.5t-42 -59t-39.5 -76t-29 -92.5t-11.5 -107.5q0 -74 18.5 -137t46 -113t59 -87t57.5 -59h-58z" />
    <glyph glyph-name="parenright" unicode=")" horiz-adv-x="328" 
d="M108 714q81 -75 125.5 -176.5t44.5 -219.5t-44.5 -219.5t-125.5 -176.5h-58q10 8 39.5 38.5t61 81.5t56 120.5t24.5 155.5q0 75 -19 137.5t-46.5 112t-59 86.5t-56.5 60h58z" />
    <glyph glyph-name="guilsinglleft" unicode="&#x2039;" horiz-adv-x="308" 
d="M258 0h-51l-157 231l157 230h51l-151 -230z" />
    <glyph glyph-name="guilsinglright" unicode="&#x203a;" horiz-adv-x="308" 
d="M50 0l151 231l-151 230h50l158 -230l-158 -231h-50z" />
    <glyph glyph-name="bar" unicode="|" horiz-adv-x="139" 
d="M50 738h39v-901h-39v901z" />
    <glyph glyph-name="degree" unicode="&#xb0;" horiz-adv-x="402" 
d="M201 371q-32 0 -59.5 11t-47.5 30t-32 44.5t-12 54.5t12 54.5t32 44.5t47.5 30t59.5 11q31 0 59 -11t48 -30t32 -44.5t12 -54.5t-12 -54.5t-32 -44.5t-48 -30t-59 -11zM201 616q-22 0 -41.5 -8.5t-34 -22.5t-23 -33t-8.5 -41q0 -21 8.5 -40t23 -33.5t34 -22.5t41.5 -8
t41.5 8t34 22.5t23 33.5t8.5 40q0 22 -8.5 41t-23 33t-34 22.5t-41.5 8.5z" />
    <glyph glyph-name="underscore" unicode="_" horiz-adv-x="638" 
d="M50 -58v31h538v-31h-538z" />
    <glyph glyph-name="hyphen" unicode="-" horiz-adv-x="382" 
d="M50 273v51h282v-51h-282z" />
    <glyph glyph-name="endash" unicode="&#x2013;" horiz-adv-x="728" 
d="M50 273v39h628v-39h-628z" />
    <glyph glyph-name="emdash" unicode="&#x2014;" horiz-adv-x="988" 
d="M50 273v39h888v-39h-888z" />
    <glyph glyph-name="asterisk" unicode="*" horiz-adv-x="387" 
d="M337 609l-118 -61l118 -61l-15 -22l-115 61v-121h-28v121l-115 -61l-14 22l118 61l-118 62l14 22l115 -62v121h28v-121l116 61z" />
    <glyph glyph-name="periodcentered" unicode="&#xb7;" horiz-adv-x="216" 
d="M50 353q0 23 17 38.5t41 15.5q25 0 41.5 -15.5t16.5 -38.5q0 -22 -16.5 -37.5t-41.5 -15.5q-24 0 -41 15.5t-17 37.5z" />
    <glyph glyph-name="bullet" unicode="&#x2022;" horiz-adv-x="304" 
d="M50 368q0 19 8 36t22 30t32.5 20t39.5 7t40 -7t32.5 -20t21.5 -30t8 -36q0 -20 -8 -37t-21.5 -29.5t-32.5 -20t-40 -7.5t-39.5 7.5t-32.5 20t-22 29.5t-8 37z" />
    <glyph glyph-name="ellipsis" unicode="&#x2026;" horiz-adv-x="561" 
d="M50 0v67h56v-67h-56zM455 0v67h56v-67h-56zM253 0v67h56v-67h-56z" />
    <glyph glyph-name="colon" unicode=":" horiz-adv-x="156" 
d="M106 461v-66h-56v66h56zM106 0h-56v67h56v-67z" />
    <glyph glyph-name="semicolon" unicode=";" horiz-adv-x="188" 
d="M138 395h-56v66h56v-66zM50 -87l28 154h60l-54 -154h-34z" />
    <glyph glyph-name="comma" unicode="," horiz-adv-x="188" 
d="M50 -87l28 154h60l-54 -154h-34z" />
    <glyph glyph-name="period" unicode="." horiz-adv-x="156" 
d="M106 0h-56v67h56v-67z" />
    <glyph glyph-name="quotedblleft" unicode="&#x201c;" horiz-adv-x="341" 
d="M291 691l-27 -154h-62l56 154h33zM138 691l-28 -154h-60l55 154h33z" />
    <glyph glyph-name="quotedblright" unicode="&#x201d;" horiz-adv-x="316" 
d="M178 536l26 155h62l-56 -155h-32zM138 691l-55 -155h-33l28 155h60z" />
    <glyph glyph-name="quoteleft" unicode="&#x2018;" horiz-adv-x="188" 
d="M138 691l-28 -154h-60l55 154h33z" />
    <glyph glyph-name="quoteright" unicode="&#x2019;" horiz-adv-x="188" 
d="M50 537l28 154h60l-55 -154h-33z" />
    <glyph glyph-name="b" unicode="b" horiz-adv-x="546" 
d="M129 738v-330l37 21t42.5 20t46.5 14.5t50 5.5q61 0 99 -25t59 -60.5t28 -74t7 -65.5q0 -73 -17.5 -121t-45 -77t-62 -41t-68.5 -12q-38 0 -79.5 14t-86.5 40l-27 -47h-27v738h44zM129 102q2 -3 19.5 -14t43.5 -23.5t56 -22t57 -9.5q25 0 51 10t48 34t36 64.5t14 102.5
q0 7 -2 23.5t-7.5 37t-15.5 42t-26.5 40t-40.5 30t-57 11.5q-29 0 -58 -8.5t-53.5 -20t-42 -22t-22.5 -14.5v-261z" />
    <glyph glyph-name="a" unicode="a" horiz-adv-x="503" 
d="M233 469q29 0 61.5 -5.5t60 -20t45.5 -39t18 -62.5v-342h-25l-24 38q-39 -26 -80.5 -35.5t-70.5 -9.5q-37 0 -68.5 10.5t-54.5 29.5t-36 45t-13 58q0 88 79.5 127.5t249.5 40.5v44q0 25 -14.5 41t-36 25.5t-46.5 13.5t-46 4q-25 0 -49 -5t-43 -12t-32 -13.5t-17 -10.5
l-12 41q31 17 71.5 27t82.5 10zM218 33q30 0 71 15.5t86 53.5v161q-108 0 -166.5 -15.5t-84.5 -36.5t-30 -42t-4 -33q0 -26 11 -45t29 -32t41 -19.5t47 -6.5z" />
    <glyph glyph-name="e" unicode="e" horiz-adv-x="503" 
d="M252 428q-30 0 -57 -11.5t-48 -32.5t-35.5 -52t-18.5 -70h318q-10 78 -54 122t-105 44zM263 33q53 0 88 15t63 34l12 -43q-34 -18 -72 -32t-92 -14q-33 0 -71 12t-69.5 40.5t-52.5 76t-21 119.5q1 52 17.5 94.5t44.5 72t64.5 45.5t78.5 16q39 0 73.5 -15t62 -42.5
t45.5 -66.5t23 -87l-28 -37h-336q0 -30 10 -63.5t31 -61t53 -45.5t76 -18z" />
    <glyph glyph-name="d" unicode="d" horiz-adv-x="546" 
d="M241 -7q-34 0 -68.5 12t-62 41t-45 77t-17.5 121q0 27 7 65.5t28 74t58.5 60.5t99.5 25q25 0 49.5 -5.5t47 -14.5t42.5 -20l37 -21v330l44 -7v-731h-27l-29 47q-89 -54 -164 -54zM241 428q-35 0 -63 -16.5t-47 -42.5t-29 -59t-10 -66q0 -62 14 -102.5t35.5 -64.5t48 -34
t51.5 -10q27 0 57 9.5t56 22t43.5 23.5t19.5 14v261q-5 4 -22.5 14.5t-42 22t-54 20t-57.5 8.5z" />
    <glyph glyph-name="ampersand" unicode="&#x26;" horiz-adv-x="629" 
d="M579 0h-47l-66 82q-48 -48 -98 -68.5t-95 -20.5q-39 0 -78.5 12t-72 35.5t-52.5 58t-20 79.5q0 38 19 73.5t54 61.5l100 73l-53 64q-31 38 -38.5 64.5t-8.5 43.5q0 41 15.5 68.5t38 43.5t48.5 22.5t48 6.5q69 0 110 -38.5t41 -101.5q0 -71 -94 -135l-56 -45l188 -230
q17 24 27.5 53t18.5 65h46q-11 -51 -27 -87.5t-38 -67.5zM253 410l84 62q22 17 36 39.5t14 48.5q0 46 -32.5 73.5t-80.5 27.5q-51 0 -81 -27.5t-30 -73.5q0 -17 5.5 -33t19.5 -36zM273 37q38 0 82.5 19t82.5 61l-193 238l-110 -86q-42 -36 -42 -90q0 -25 12 -50t35 -45.5
t56.5 -33.5t76.5 -13z" />
    <glyph glyph-name="numbersign" unicode="#" horiz-adv-x="708" 
d="M658 431h-157l-15 -161h137v-42h-141l-20 -228h-42l19 228h-185l-20 -228h-43l21 228h-162v42h165l14 161h-144v41h149l18 219h44l-21 -219h186l20 219h43l-20 -219h154v-41zM442 270l16 161h-186l-14 -161h184z" />
    <glyph glyph-name="equal" unicode="=" horiz-adv-x="614" 
d="M50 228v44h514v-44h-514zM564 446h-514v43h514v-43z" />
    <glyph glyph-name="quotesingle" unicode="'" horiz-adv-x="188" 
d="M50 537l28 154h60l-54 -154h-34z" />
    <glyph glyph-name="quotedbl" unicode="&#x22;" horiz-adv-x="341" 
d="M50 537l28 154h60l-54 -154h-34zM202 537l27 154h62l-55 -154h-34z" />
    <glyph glyph-name="ogonek" unicode="&#x2db;" horiz-adv-x="270" 
d="M164 -38q-15 -3 -27.5 -11.5t-21.5 -20.5t-14 -25.5t-5 -25.5q0 -11 3 -18q11 -26 43 -26q28 0 61 21l17 -37q-44 -24 -84 -24q-27 0 -48.5 11t-30.5 33q-7 13 -7 36q0 32 22.5 65t70.5 56z" />
    <glyph glyph-name="ntilde" unicode="&#xf1;" horiz-adv-x="535" 
d="M195 594q-24 0 -31 -16t-8 -35h-29q0 12 2.5 28t10 30.5t21.5 25t37 10.5q16 0 37.5 -8t43.5 -17.5l41 -17.5t30 -8q22 0 29 14t8 37h29q0 -12 -2.5 -28t-10 -30.5t-21.5 -24.5t-37 -10q-14 0 -35 8l-43 17l-41.5 17t-30.5 8zM309 469q43 0 71.5 -13t45 -34.5t23 -49.5
t6.5 -58v-314h-45v319q0 48 -22.5 78.5t-77.5 30.5q-32 0 -63.5 -10t-57 -22t-41.5 -22.5l-16 -10.5v-363h-44v461h29l25 -43q2 0 3 1l25 13.5t37.5 16.5t47 14t54.5 6z" />
    <glyph glyph-name="Ntilde" unicode="&#xd1;" horiz-adv-x="733" 
d="M289 806q-24 0 -31 -16.5t-8 -34.5h-29q0 12 2.5 28t10 30.5t21.5 24.5t37 10q16 0 37.5 -8l43.5 -17l41 -17t30 -8q22 0 29 14t8 37h29q0 -12 -2.5 -28t-10 -30.5t-21.5 -25t-37 -10.5q-14 0 -35 8t-43 17.5l-41.5 17.5t-30.5 8zM640 691v-691h-39l-467 609v-609h-43
v691h39l466 -609v609h44z" />
    <glyph glyph-name="ugrave" unicode="&#xf9;" horiz-adv-x="541" 
d="M284 543l-62 131h66q2 -8 8.5 -38t21.5 -93h-34zM453 461v-461h-27l-27 44q-9 -6 -25.5 -14.5t-38.5 -17t-48.5 -14t-55.5 -5.5q-43 0 -70.5 13t-43.5 34.5t-22.5 49.5t-6.5 59v312h44v-319q0 -48 22 -78.5t76 -30.5q32 0 63.5 10t57 22t41.5 22t17 10v364h44z" />
    <glyph glyph-name="uacute" unicode="&#xfa;" horiz-adv-x="541" 
d="M256 543h-34l30 131h66zM453 461v-461h-27l-27 44q-9 -6 -25.5 -14.5t-38.5 -17t-48.5 -14t-55.5 -5.5q-43 0 -70.5 13t-43.5 34.5t-22.5 49.5t-6.5 59v312h44v-319q0 -48 22 -78.5t76 -30.5q32 0 63.5 10t57 22t41.5 22t17 10v364h44z" />
    <glyph glyph-name="ucircumflex" unicode="&#xfb;" horiz-adv-x="541" 
d="M229 543h-52l72 112h40l73 -112h-53l-40 82zM453 461v-461h-27l-27 44q-9 -6 -25.5 -14.5t-38.5 -17t-48.5 -14t-55.5 -5.5q-43 0 -70.5 13t-43.5 34.5t-22.5 49.5t-6.5 59v312h44v-319q0 -48 22 -78.5t76 -30.5q32 0 63.5 10t57 22t41.5 22t17 10v364h44z" />
    <glyph glyph-name="udieresis" unicode="&#xfc;" horiz-adv-x="541" 
d="M395 543h-68v80h68v-80zM214 543h-68v80h68v-80zM453 461v-461h-27l-27 44q-9 -6 -25.5 -14.5t-38.5 -17t-48.5 -14t-55.5 -5.5q-43 0 -70.5 13t-43.5 34.5t-22.5 49.5t-6.5 59v312h44v-319q0 -48 22 -78.5t76 -30.5q32 0 63.5 10t57 22t41.5 22t17 10v364h44z" />
    <glyph glyph-name="Ucircumflex" unicode="&#xdb;" horiz-adv-x="714" 
d="M318 755h-53l73 112h40l73 -112h-53l-40 82zM623 691v-465q0 -53 -15.5 -91t-40 -64t-54.5 -41t-59.5 -23.5t-54.5 -11t-39 -2.5t-39.5 2.5t-55 10.5t-60.5 23.5t-55.5 41t-40.5 63.5t-16 92v465h44v-463q0 -51 19 -87.5t50 -59.5t71 -33.5t81 -10.5q40 0 80 10.5
t71 33.5t50.5 59t19.5 87v464h44z" />
    <glyph glyph-name="Uacute" unicode="&#xda;" horiz-adv-x="714" 
d="M344 755h-34q15 63 21.5 92.5t8.5 37.5h66zM623 691v-465q0 -53 -15.5 -91t-40 -64t-54.5 -41t-59.5 -23.5t-54.5 -11t-39 -2.5t-39.5 2.5t-55 10.5t-60.5 23.5t-55.5 41t-40.5 63.5t-16 92v465h44v-463q0 -51 19 -87.5t50 -59.5t71 -33.5t81 -10.5q40 0 80 10.5t71 33.5
t50.5 59t19.5 87v464h44z" />
    <glyph glyph-name="Ugrave" unicode="&#xd9;" horiz-adv-x="714" 
d="M372 755l-62 130h66q2 -8 8.5 -37.5t21.5 -92.5h-34zM623 691v-465q0 -53 -15.5 -91t-40 -64t-54.5 -41t-59.5 -23.5t-54.5 -11t-39 -2.5t-39.5 2.5t-55 10.5t-60.5 23.5t-55.5 41t-40.5 63.5t-16 92v465h44v-463q0 -51 19 -87.5t50 -59.5t71 -33.5t81 -10.5
q40 0 80 10.5t71 33.5t50.5 59t19.5 87v464h44z" />
    <glyph glyph-name="Udieresis" unicode="&#xdc;" horiz-adv-x="714" 
d="M482 755h-68v80h68v-80zM302 755h-68v80h68v-80zM623 691v-465q0 -53 -15.5 -91t-40 -64t-54.5 -41t-59.5 -23.5t-54.5 -11t-39 -2.5t-39.5 2.5t-55 10.5t-60.5 23.5t-55.5 41t-40.5 63.5t-16 92v465h44v-463q0 -51 19 -87.5t50 -59.5t71 -33.5t81 -10.5q40 0 80 10.5
t71 33.5t50.5 59t19.5 87v464h44z" />
    <glyph glyph-name="oslash" unicode="&#xf8;" horiz-adv-x="555" 
d="M411 428q45 -32 70 -81.5t25 -115.5q0 -53 -17.5 -96.5t-48 -75t-72.5 -49t-90 -17.5q-29 0 -55 6.5t-49 17.5l-36 -63h-48l49 84q-42 32 -66 81t-24 112q0 52 17.5 95.5t48 75t72.5 49.5t91 18q32 0 97 -20l37 64h48zM92 231q0 -51 18 -90.5t50 -65.5l194 337
q-31 16 -76 16q-40 0 -74 -14.5t-59 -41t-39 -62.5t-14 -79zM278 33q39 0 73 14.5t58.5 41t39 62.5t14.5 80q0 51 -20 92.5t-53 67.5l-195 -339q37 -19 83 -19z" />
    <glyph glyph-name="ocircumflex" unicode="&#xf4;" horiz-adv-x="553" 
d="M235 543h-52l72 112h40l73 -112h-53l-40 82zM277 469q48 0 89.5 -17.5t72.5 -49t48.5 -75.5t17.5 -96q0 -53 -17.5 -96.5t-48 -75t-72.5 -49t-90 -17.5q-49 0 -91 17.5t-72.5 49t-48 75t-17.5 96.5q0 52 17.5 95.5t48 75t72.5 49.5t91 18zM91 231q0 -44 14 -80t39 -62.5
t59 -41t74 -14.5q39 0 73 14.5t58.5 41t39 62.5t14.5 80q0 43 -14.5 79t-39 62.5t-58.5 41t-73 14.5q-40 0 -74 -14.5t-59 -41t-39 -62.5t-14 -79z" />
    <glyph glyph-name="oacute" unicode="&#xf3;" horiz-adv-x="553" 
d="M263 543h-35l31 131h66zM277 469q48 0 89.5 -17.5t72.5 -49t48.5 -75.5t17.5 -96q0 -53 -17.5 -96.5t-48 -75t-72.5 -49t-90 -17.5q-49 0 -91 17.5t-72.5 49t-48 75t-17.5 96.5q0 52 17.5 95.5t48 75t72.5 49.5t91 18zM91 231q0 -44 14 -80t39 -62.5t59 -41t74 -14.5
q39 0 73 14.5t58.5 41t39 62.5t14.5 80q0 43 -14.5 79t-39 62.5t-58.5 41t-73 14.5q-40 0 -74 -14.5t-59 -41t-39 -62.5t-14 -79z" />
    <glyph glyph-name="ograve" unicode="&#xf2;" horiz-adv-x="553" 
d="M290 543l-62 131h66l31 -131h-35zM277 469q48 0 89.5 -17.5t72.5 -49t48.5 -75.5t17.5 -96q0 -53 -17.5 -96.5t-48 -75t-72.5 -49t-90 -17.5q-49 0 -91 17.5t-72.5 49t-48 75t-17.5 96.5q0 52 17.5 95.5t48 75t72.5 49.5t91 18zM91 231q0 -44 14 -80t39 -62.5t59 -41
t74 -14.5q39 0 73 14.5t58.5 41t39 62.5t14.5 80q0 43 -14.5 79t-39 62.5t-58.5 41t-73 14.5q-40 0 -74 -14.5t-59 -41t-39 -62.5t-14 -79z" />
    <glyph glyph-name="odieresis" unicode="&#xf6;" horiz-adv-x="553" 
d="M401 543h-68v81h68v-81zM221 543h-68v81h68v-81zM277 469q48 0 89.5 -17.5t72.5 -49t48.5 -75.5t17.5 -96q0 -53 -17.5 -96.5t-48 -75t-72.5 -49t-90 -17.5q-49 0 -91 17.5t-72.5 49t-48 75t-17.5 96.5q0 52 17.5 95.5t48 75t72.5 49.5t91 18zM91 231q0 -44 14 -80
t39 -62.5t59 -41t74 -14.5q39 0 73 14.5t58.5 41t39 62.5t14.5 80q0 43 -14.5 79t-39 62.5t-58.5 41t-73 14.5q-40 0 -74 -14.5t-59 -41t-39 -62.5t-14 -79z" />
    <glyph glyph-name="otilde" unicode="&#xf5;" horiz-adv-x="553" 
d="M199 595q-24 0 -31 -16.5t-8 -35.5h-29q0 12 2.5 28t10 31t21.5 25t37 10q16 0 37.5 -8t43.5 -17.5l41 -17.5t30 -8q22 0 29 14.5t8 37.5h29q0 -12 -2.5 -28t-10 -31t-21.5 -25t-37 -10q-14 0 -35 8t-43 17.5l-41.5 17.5t-30.5 8zM277 469q48 0 89.5 -17.5t72.5 -49
t48.5 -75.5t17.5 -96q0 -53 -17.5 -96.5t-48 -75t-72.5 -49t-90 -17.5q-49 0 -91 17.5t-72.5 49t-48 75t-17.5 96.5q0 52 17.5 95.5t48 75t72.5 49.5t91 18zM91 231q0 -44 14 -80t39 -62.5t59 -41t74 -14.5q39 0 73 14.5t58.5 41t39 62.5t14.5 80q0 43 -14.5 79t-39 62.5
t-58.5 41t-73 14.5q-40 0 -74 -14.5t-59 -41t-39 -62.5t-14 -79z" />
    <glyph glyph-name="Oslash" unicode="&#xd8;" 
d="M580 640q69 -54 103 -131t34 -162q0 -64 -20 -127t-60.5 -113.5t-103 -82t-147.5 -31.5q-46 0 -85.5 9.5t-71.5 26.5l-42 -72h-52l55 96q-35 25 -60.5 58.5t-42.5 72.5t-25 80.5t-8 82.5q0 63 20 126t60.5 113.5t103 82t148.5 31.5q46 0 85 -9.5t71 -26.5l42 73h52z
M522 629q-64 34 -136 34q-51 0 -102.5 -18.5t-92 -57.5t-66 -98.5t-25.5 -141.5q0 -96 32 -158t80 -99zM386 34q48 0 98.5 16.5t92.5 53.5t68.5 97t26.5 146q0 93 -31.5 156t-80.5 101l-310 -538q33 -17 68 -24.5t68 -7.5z" />
    <glyph glyph-name="Ocircumflex" unicode="&#xd4;" 
d="M345 756h-52l72 112h40l73 -112h-53l-40 82zM386 701q85 0 147.5 -31.5t103 -82t60.5 -113.5t20 -126q0 -64 -20 -127t-60.5 -113.5t-103 -82t-147.5 -31.5q-86 0 -148.5 31.5t-103 82t-60.5 113.5t-20 127q0 63 20 126t60.5 113.5t103 82t148.5 31.5zM386 35
q48 0 98.5 16.5t92.5 53.5t68.5 97t26.5 146q0 82 -25.5 141.5t-66.5 98.5t-92 57.5t-102 18.5t-102.5 -18.5t-92 -57.5t-66 -98.5t-25.5 -141.5q0 -86 26.5 -146t68.5 -97t92.5 -53.5t98.5 -16.5z" />
    <glyph glyph-name="Otilde" unicode="&#xd5;" 
d="M309 806q-24 0 -31 -16.5t-8 -34.5h-29q0 12 2.5 28t10 30.5t21.5 24.5t37 10q16 0 37.5 -8l43.5 -17l41 -17t30 -8q22 0 29 14t8 37h29q0 -12 -2.5 -28t-10 -30.5t-21.5 -25t-37 -10.5q-14 0 -35 8t-43 17.5l-41.5 17.5t-30.5 8zM386 700q85 0 147.5 -31.5t103 -82
t60.5 -113.5t20 -126q0 -64 -20 -127t-60.5 -113.5t-103 -82t-147.5 -31.5q-86 0 -148.5 31.5t-103 82t-60.5 113.5t-20 127q0 63 20 126t60.5 113.5t103 82t148.5 31.5zM386 34q48 0 98.5 16.5t92.5 53.5t68.5 97t26.5 146q0 82 -25.5 141.5t-66.5 98.5t-92 57.5t-102 18.5
t-102.5 -18.5t-92 -57.5t-66 -98.5t-25.5 -141.5q0 -86 26.5 -146t68.5 -97t92.5 -53.5t98.5 -16.5z" />
    <glyph glyph-name="Ograve" unicode="&#xd2;" 
d="M399 755l-62 130h66l30 -130h-34zM386 700q85 0 147.5 -31.5t103 -82t60.5 -113.5t20 -126q0 -64 -20 -127t-60.5 -113.5t-103 -82t-147.5 -31.5q-86 0 -148.5 31.5t-103 82t-60.5 113.5t-20 127q0 63 20 126t60.5 113.5t103 82t148.5 31.5zM386 34q48 0 98.5 16.5
t92.5 53.5t68.5 97t26.5 146q0 82 -25.5 141.5t-66.5 98.5t-92 57.5t-102 18.5t-102.5 -18.5t-92 -57.5t-66 -98.5t-25.5 -141.5q0 -86 26.5 -146t68.5 -97t92.5 -53.5t98.5 -16.5z" />
    <glyph glyph-name="Oacute" unicode="&#xd3;" 
d="M373 755h-34l30 130h66zM386 700q85 0 147.5 -31.5t103 -82t60.5 -113.5t20 -126q0 -64 -20 -127t-60.5 -113.5t-103 -82t-147.5 -31.5q-86 0 -148.5 31.5t-103 82t-60.5 113.5t-20 127q0 63 20 126t60.5 113.5t103 82t148.5 31.5zM386 34q48 0 98.5 16.5t92.5 53.5
t68.5 97t26.5 146q0 82 -25.5 141.5t-66.5 98.5t-92 57.5t-102 18.5t-102.5 -18.5t-92 -57.5t-66 -98.5t-25.5 -141.5q0 -86 26.5 -146t68.5 -97t92.5 -53.5t98.5 -16.5z" />
    <glyph glyph-name="Odieresis" unicode="&#xd6;" 
d="M510 755h-68v80h68v-80zM330 755h-68v80h68v-80zM386 700q85 0 147.5 -31.5t103 -82t60.5 -113.5t20 -126q0 -64 -20 -127t-60.5 -113.5t-103 -82t-147.5 -31.5q-86 0 -148.5 31.5t-103 82t-60.5 113.5t-20 127q0 63 20 126t60.5 113.5t103 82t148.5 31.5zM386 34
q48 0 98.5 16.5t92.5 53.5t68.5 97t26.5 146q0 82 -25.5 141.5t-66.5 98.5t-92 57.5t-102 18.5t-102.5 -18.5t-92 -57.5t-66 -98.5t-25.5 -141.5q0 -86 26.5 -146t68.5 -97t92.5 -53.5t98.5 -16.5z" />
    <glyph glyph-name="iacute" unicode="&#xed;" horiz-adv-x="241" 
d="M106 544h-35l31 130h66zM99 461h43v-461h-43v461z" />
    <glyph glyph-name="Idieresis" unicode="&#xcf;" horiz-adv-x="230" 
d="M240 835v-80h-69v80h69zM-9 835h68v-80h-68v80zM93 691h44v-691h-44v691z" />
    <glyph glyph-name="Icircumflex" unicode="&#xce;" horiz-adv-x="230" 
d="M207 755h-52l-40 82l-41 -82h-52l72 112h41zM93 691h44v-691h-44v691z" />
    <glyph glyph-name="Iacute" unicode="&#xcd;" horiz-adv-x="230" 
d="M100 755h-34q15 63 21.5 93t8.5 37h66zM93 691h44v-691h-44v691z" />
    <glyph glyph-name="Igrave" unicode="&#xcc;" horiz-adv-x="230" 
d="M129 755l-63 130h66l31 -130h-34zM93 691h44v-691h-44v691z" />
    <glyph glyph-name="eacute" unicode="&#xe9;" horiz-adv-x="503" 
d="M238 543h-34l31 131h66zM429 221h-336q0 -30 10 -63.5t31 -61t53 -45.5t76 -18q53 0 88 15t63 34l12 -43q-34 -18 -72 -32t-92 -14q-33 0 -71 12t-69.5 40.5t-52.5 76t-21 119.5q0 52 16.5 94.5t44.5 72t65 45.5t79 16q39 0 73.5 -15t62 -42.5t45.5 -66.5t23 -87z
M411 262q-10 78 -54 122t-105 44q-30 0 -57 -11.5t-48 -32.5t-35.5 -52t-18.5 -70h318z" />
    <glyph glyph-name="egrave" unicode="&#xe8;" horiz-adv-x="503" 
d="M265 543l-62 131h66l30 -131h-34zM429 221h-336q0 -30 10 -63.5t31 -61t53 -45.5t76 -18q53 0 88 15t63 34l12 -43q-34 -18 -72 -32t-92 -14q-33 0 -71 12t-69.5 40.5t-52.5 76t-21 119.5q0 52 16.5 94.5t44.5 72t65 45.5t79 16q39 0 73.5 -15t62 -42.5t45.5 -66.5
t23 -87zM411 262q-10 78 -54 122t-105 44q-30 0 -57 -11.5t-48 -32.5t-35.5 -52t-18.5 -70h318z" />
    <glyph glyph-name="ecircumflex" unicode="&#xea;" horiz-adv-x="503" 
d="M212 543h-53l73 113h40l73 -113h-53l-40 83zM429 221h-336q0 -30 10 -63.5t31 -61t53 -45.5t76 -18q53 0 88 15t63 34l12 -43q-34 -18 -72 -32t-92 -14q-33 0 -71 12t-69.5 40.5t-52.5 76t-21 119.5q0 52 16.5 94.5t44.5 72t65 45.5t79 16q39 0 73.5 -15t62 -42.5
t45.5 -66.5t23 -87zM411 262q-10 78 -54 122t-105 44q-30 0 -57 -11.5t-48 -32.5t-35.5 -52t-18.5 -70h318z" />
    <glyph glyph-name="edieresis" unicode="&#xeb;" horiz-adv-x="503" 
d="M376 543h-68v81h68v-81zM195 543h-68v81h68v-81zM429 221h-336q0 -30 10 -63.5t31 -61t53 -45.5t76 -18q53 0 88 15t63 34l12 -43q-34 -18 -72 -32t-92 -14q-33 0 -71 12t-69.5 40.5t-52.5 76t-21 119.5q0 52 16.5 94.5t44.5 72t65 45.5t79 16q39 0 73.5 -15t62 -42.5
t45.5 -66.5t23 -87zM411 262q-10 78 -54 122t-105 44q-30 0 -57 -11.5t-48 -32.5t-35.5 -52t-18.5 -70h318z" />
    <glyph glyph-name="acircumflex" unicode="&#xe2;" horiz-adv-x="506" 
d="M193 543h-53l73 112h40l73 -112h-53l-40 82zM233 469q29 0 61.5 -5.5t60 -20t45.5 -39t18 -62.5v-342h-25l-24 38q-39 -26 -80.5 -35.5t-70.5 -9.5q-37 0 -68.5 10.5t-54.5 29.5t-36 45t-13 58q0 88 79.5 127.5t249.5 40.5v44q0 25 -14.5 41t-36 25.5t-46.5 13.5t-46 4
q-25 0 -49 -5t-43 -12t-32 -13.5t-17 -10.5l-12 41q31 17 71.5 27t82.5 10zM375 263q-105 0 -163 -15t-85 -35t-32 -42t-5 -35q0 -26 11 -45t29 -32t41 -19.5t47 -6.5q30 0 71 15.5t86 53.5v161z" />
    <glyph glyph-name="atilde" unicode="&#xe3;" horiz-adv-x="506" 
d="M157 594q-25 0 -32 -16t-7 -35h-30q0 12 3 28t10.5 30.5t21.5 25t37 10.5q15 0 36.5 -8t43 -17.5l41 -17.5t30.5 -8q22 0 29 14t8 37h30q0 -12 -3 -28t-10.5 -30.5t-22 -24.5t-36.5 -10q-14 0 -34.5 8l-42.5 17l-41.5 17t-30.5 8zM233 469q29 0 61.5 -5.5t60 -20
t45.5 -39t18 -62.5v-342h-25l-24 38q-39 -26 -80.5 -35.5t-70.5 -9.5q-37 0 -68.5 10.5t-54.5 29.5t-36 45t-13 58q0 88 79.5 127.5t249.5 40.5v44q0 25 -14.5 41t-36 25.5t-46.5 13.5t-46 4q-25 0 -49 -5t-43 -12t-32 -13.5t-17 -10.5l-12 41q31 17 71.5 27t82.5 10z
M375 263q-105 0 -163 -15t-85 -35t-32 -42t-5 -35q0 -26 11 -45t29 -32t41 -19.5t47 -6.5q30 0 71 15.5t86 53.5v161z" />
    <glyph glyph-name="aacute" unicode="&#xe1;" horiz-adv-x="506" 
d="M220 543h-35l31 131h66zM233 469q29 0 61.5 -5.5t60 -20t45.5 -39t18 -62.5v-342h-25l-24 38q-39 -26 -80.5 -35.5t-70.5 -9.5q-37 0 -68.5 10.5t-54.5 29.5t-36 45t-13 58q0 88 79.5 127.5t249.5 40.5v44q0 25 -14.5 41t-36 25.5t-46.5 13.5t-46 4q-25 0 -49 -5t-43 -12
t-32 -13.5t-17 -10.5l-12 41q31 17 71.5 27t82.5 10zM375 263q-105 0 -163 -15t-85 -35t-32 -42t-5 -35q0 -26 11 -45t29 -32t41 -19.5t47 -6.5q30 0 71 15.5t86 53.5v161z" />
    <glyph glyph-name="agrave" unicode="&#xe0;" horiz-adv-x="506" 
d="M247 543l-62 131h66l30 -131h-34zM233 469q29 0 61.5 -5.5t60 -20t45.5 -39t18 -62.5v-342h-25l-24 38q-39 -26 -80.5 -35.5t-70.5 -9.5q-37 0 -68.5 10.5t-54.5 29.5t-36 45t-13 58q0 88 79.5 127.5t249.5 40.5v44q0 25 -14.5 41t-36 25.5t-46.5 13.5t-46 4
q-25 0 -49 -5t-43 -12t-32 -13.5t-17 -10.5l-12 41q31 17 71.5 27t82.5 10zM375 263q-105 0 -163 -15t-85 -35t-32 -42t-5 -35q0 -26 11 -45t29 -32t41 -19.5t47 -6.5q30 0 71 15.5t86 53.5v161z" />
    <glyph glyph-name="aring" unicode="&#xe5;" horiz-adv-x="506" 
d="M233 543q-20 0 -37 7.5t-30 20.5t-20.5 30.5t-7.5 37.5q0 19 7.5 36.5t20.5 30.5t30 20.5t37 7.5t37.5 -7.5t30.5 -20.5t20.5 -30.5t7.5 -36.5q0 -40 -28 -68t-68 -28zM233 708q-29 0 -49 -20t-20 -49t20 -49t49 -20t49 20t20 49t-20 49t-49 20zM233 469q29 0 61.5 -5.5
t60 -20t45.5 -39t18 -62.5v-342h-25l-24 38q-39 -26 -80.5 -35.5t-70.5 -9.5q-37 0 -68.5 10.5t-54.5 29.5t-36 45t-13 58q0 88 79.5 127.5t249.5 40.5v44q0 25 -14.5 41t-36 25.5t-46.5 13.5t-46 4q-25 0 -49 -5t-43 -12t-32 -13.5t-17 -10.5l-12 41q31 17 71.5 27t82.5 10
zM375 263q-105 0 -163 -15t-85 -35t-32 -42t-5 -35q0 -26 11 -45t29 -32t41 -19.5t47 -6.5q30 0 71 15.5t86 53.5v161z" />
    <glyph glyph-name="adieresis" unicode="&#xe4;" horiz-adv-x="506" 
d="M363 543h-68v80h68v-80zM183 543h-68v80h68v-80zM233 469q29 0 61.5 -5.5t60 -20t45.5 -39t18 -62.5v-342h-25l-24 38q-39 -26 -80.5 -35.5t-70.5 -9.5q-37 0 -68.5 10.5t-54.5 29.5t-36 45t-13 58q0 88 79.5 127.5t249.5 40.5v44q0 25 -14.5 41t-36 25.5t-46.5 13.5
t-46 4q-25 0 -49 -5t-43 -12t-32 -13.5t-17 -10.5l-12 41q31 17 71.5 27t82.5 10zM375 263q-105 0 -163 -15t-85 -35t-32 -42t-5 -35q0 -26 11 -45t29 -32t41 -19.5t47 -6.5q30 0 71 15.5t86 53.5v161z" />
    <glyph glyph-name="Aring" unicode="&#xc5;" horiz-adv-x="685" 
d="M669 0h-48l-96 217h-366l-96 -217h-47l296 670q-29 9 -47 33.5t-18 56.5q0 19 7.5 36.5t20.5 30.5t30 20.5t37 7.5t37.5 -7.5t30.5 -20.5t20.5 -30.5t7.5 -36.5q0 -32 -18 -56.5t-47 -33.5zM274 760q0 -29 20 -49t49 -20q28 0 48 20t20 49t-20 48.5t-49 19.5
q-28 0 -48 -19.5t-20 -48.5zM511 257l-169 380l-169 -380h338z" />
    <glyph glyph-name="Acircumflex" unicode="&#xc2;" horiz-adv-x="685" 
d="M302 755h-53l73 112h40l73 -112h-53l-40 82zM669 0h-48l-96 217h-366l-96 -217h-47l305 691h43zM511 257l-169 380l-169 -380h338z" />
    <glyph glyph-name="Aacute" unicode="&#xc1;" horiz-adv-x="685" 
d="M328 755h-34q15 63 21.5 92.5t8.5 37.5h66zM669 0h-48l-96 217h-366l-96 -217h-47l305 691h43zM511 257l-169 380l-169 -380h338z" />
    <glyph glyph-name="Atilde" unicode="&#xc3;" horiz-adv-x="685" 
d="M262 806q-25 0 -32 -16.5t-7 -34.5h-30q0 12 3 28t10.5 30.5t21.5 24.5t37 10q15 0 36.5 -8t43 -17l41 -17t30.5 -8q22 0 29 14t8 37h30q0 -12 -3 -28t-10.5 -30.5t-22 -25t-36.5 -10.5q-14 0 -34.5 8t-42.5 17.5l-41.5 17.5t-30.5 8zM669 0h-48l-96 217h-366l-96 -217
h-47l305 691h43zM511 257l-169 380l-169 -380h338z" />
    <glyph glyph-name="Agrave" unicode="&#xc0;" horiz-adv-x="685" 
d="M356 755l-62 130h66q2 -8 8.5 -37.5t21.5 -92.5h-34zM669 0h-48l-96 217h-366l-96 -217h-47l305 691h43zM511 257l-169 380l-169 -380h338z" />
    <glyph glyph-name="Adieresis" unicode="&#xc4;" horiz-adv-x="685" 
d="M466 755h-68v80h68v-80zM286 755h-68v80h68v-80zM669 0h-48l-96 217h-366l-96 -217h-47l305 691h43zM511 257l-169 380l-169 -380h338z" />
    <glyph glyph-name="Ecircumflex" unicode="&#xca;" horiz-adv-x="514" 
d="M467 0h-374v691h374l-7 -40h-323v-263h252l-7 -41h-245v-306h330v-41zM240 755h-53l73 112h40l73 -112h-53l-40 82z" />
    <glyph glyph-name="Egrave" unicode="&#xc8;" horiz-adv-x="514" 
d="M467 41v-41h-374v691h374l-7 -40h-323v-263h252l-7 -41h-245v-306h330zM294 755l-62 130h66q2 -8 8.5 -37.5t21.5 -92.5h-34z" />
    <glyph glyph-name="Edieresis" unicode="&#xcb;" horiz-adv-x="514" 
d="M467 41v-41h-374v691h374l-7 -40h-323v-263h252l-7 -41h-245v-306h330zM401 755h-68v80h68v-80zM220 755h-68v80h68v-80z" />
    <glyph glyph-name="Eacute" unicode="&#xc9;" horiz-adv-x="514" 
d="M467 41v-41h-374v691h374l-7 -40h-323v-263h252l-7 -41h-245v-306h330zM266 755h-34q15 63 21.5 92.5t8.5 37.5h66z" />
    <glyph glyph-name="igrave" unicode="&#xec;" horiz-adv-x="230" 
d="M135 544l-62 130h66q2 -7 8.5 -37t21.5 -93h-34zM99 461h43v-461h-43v461z" />
    <glyph glyph-name="icircumflex" unicode="&#xee;" horiz-adv-x="230" 
d="M207 544h-52l-40 82l-41 -82h-52l72 112h41zM99 461h43v-461h-43v461z" />
    <glyph glyph-name="idieresis" unicode="&#xef;" horiz-adv-x="230" 
d="M170 624h68v-80h-68v80zM-11 624h69v-80h-69v80zM99 461h43v-461h-43v461z" />
    <glyph glyph-name="dotlessi" unicode="&#x131;" horiz-adv-x="342" 
d="M300 0h-51v414h-220v52h271v-466z" />
    <glyph glyph-name="Ydieresis" unicode="&#x178;" horiz-adv-x="538" 
d="M393 755h-68v80h68v-80zM213 755h-68v80h68v-80zM522 691l-231 -392v-299h-44v299l-231 392h45l208 -350l208 350h45z" />
    <glyph glyph-name="ydieresis" unicode="&#xff;" horiz-adv-x="477" 
d="M363 538h-68v80h68v-80zM182 538h-68v80h68v-80zM454 462l-213 -512q-24 -57 -61.5 -97.5t-104.5 -56.5l-13 43q39 6 63.5 22t41 38t27.5 48l23 52l-194 463h48l168 -414l170 414h45z" />
    <glyph glyph-name="Ccedilla" unicode="&#xc7;" horiz-adv-x="618" 
d="M341 -60q23 0 37 -7t21.5 -17t10 -19.5t2.5 -14.5q0 -13 -5.5 -26.5t-16 -25t-27.5 -18.5t-39 -7h-80v34h80q23 0 37.5 10.5t16.5 26.5v4q0 8 -6 18t-31 10h-64l14 93q-59 15 -100 51.5t-67 84.5t-37.5 103t-11.5 106q0 70 19 134t55.5 113t90.5 78t124 29q12 0 32.5 -2
t45.5 -8.5t52 -18.5t52 -33l-6 -45q-37 32 -78.5 48.5t-98.5 16.5q-43 0 -86 -18t-77.5 -56.5t-56 -97.5t-21.5 -140q0 -82 21.5 -141t56 -97t77.5 -56t86 -18q54 0 98 17.5t81 49.5l7 -45q-26 -21 -53 -33t-52.5 -19t-46.5 -9t-33 -2q-11 0 -20.5 0.5t-18.5 1.5l-9 -55h25z
" />
    <glyph glyph-name="uni03A9" unicode="&#x3a9;" horiz-adv-x="711" 
d="M445 87q60 32 92 100t32 162q0 44 -12 93t-37.5 90.5t-66 68.5t-96.5 27t-96 -24.5t-66 -65t-38.5 -91.5t-12.5 -105q0 -87 32.5 -155t89.5 -100v-87h-216v67h165q-43 19 -76 55q-29 31 -52 83.5t-23 134.5q0 77 22 141.5t61 110.5t93.5 71.5t119.5 25.5q64 0 117 -24
t91 -68.5t58.5 -106.5t20.5 -137q0 -88 -24 -144.5t-54 -86.5q-34 -37 -78 -55h170v-67h-216v87z" />
    <glyph glyph-name="ccedilla" unicode="&#xe7;" horiz-adv-x="447" 
d="M236 -7l-8 -53h25q22 0 36 -7t21.5 -17t10 -19.5t2.5 -14.5q0 -13 -5.5 -26.5t-16 -25t-27 -18.5t-38.5 -7h-80v34h80q23 0 37 10.5t16 26.5q0 1 0.5 2t0.5 3q0 8 -7 17.5t-30 9.5h-65l14 90q-72 16 -112 76t-40 148v16q0 49 14 91.5t39.5 73.5t62 48.5t81.5 17.5
q48 0 85 -15.5t65 -32.5l-11 -45q-23 18 -56.5 35t-82.5 17q-16 0 -42 -7t-50.5 -27t-42.5 -57.5t-18 -98.5v-16q0 -61 18 -98t42.5 -57.5t50.5 -27t42 -6.5q49 0 81.5 17t57.5 34l11 -44q-28 -17 -65 -32t-85 -15h-11z" />
    <glyph glyph-name="cedilla" unicode="&#xb8;" horiz-adv-x="268" 
d="M50 -168h80q23 0 37 10.5t17 26.5v4q0 8 -6 18.5t-31 10.5h-64l15 97l33 -6l-9 -59h25q23 0 37 -7.5t21.5 -17t10 -19.5t2.5 -15q0 -12 -5.5 -26t-16 -25t-27.5 -18.5t-39 -7.5h-80v34z" />
    <glyph glyph-name="mu" unicode="&#xb5;" horiz-adv-x="435" 
d="M385 461v-461h-27l-24 44q-9 -6 -23.5 -14.5t-34.5 -16.5t-43.5 -14t-50.5 -6q-29 0 -50.5 9t-37.5 23v-230h-44v666h44v-319q0 -48 20 -78.5t68 -30.5q28 0 56.5 10t51 22t37 22t15.5 10v364h43z" />
    <glyph glyph-name="integral" unicode="&#x222b;" horiz-adv-x="374" 
d="M50 -19h32q75 0 75 84v673q0 66 32.5 102.5t92.5 36.5h42v-54h-31q-75 0 -75 -84v-673q0 -66 -32.5 -102.5t-92.5 -36.5h-43v54z" />
    <glyph glyph-name="asciicircum" unicode="^" horiz-adv-x="285" 
d="M142 770l-40 -82h-52l72 112h41l72 -112h-52z" />
    <glyph glyph-name="sterling" unicode="&#xa3;" horiz-adv-x="511" 
d="M141 351h-91v44h91v54q0 246 214 246q37 0 65 -6.5t41 -12.5l-8 -51q-11 6 -35.5 13t-62.5 7q-94 0 -130 -67q-17 -30 -21 -66.5t-4 -68.5v-48h144l-17 -44h-127v-301h246v-50h-305v351z" />
    <glyph glyph-name="tilde" unicode="&#x2dc;" horiz-adv-x="444" 
d="M50 577q0 14 2.5 33.5t11.5 37.5t26 30.5t46 12.5q23 0 46 -9t45 -20.5t44 -20.5t43 -9q22 0 31.5 13.5t10.5 46.5h38q0 -14 -3 -33.5t-12 -37.5t-26 -30.5t-45 -12.5q-22 0 -45 9.5t-45.5 20.5t-44.5 20.5t-41 9.5q-43 0 -44 -61h-38z" />
    <glyph glyph-name="breve" unicode="&#x2d8;" horiz-adv-x="377" 
d="M90 692q2 -40 30 -67.5t68 -27.5t68 27.5t30 67.5h41q-1 -29 -12 -53.5t-30 -43t-44 -29t-53 -10.5t-53 10.5t-44 29t-30 43t-11 53.5h40z" />
    <glyph glyph-name="ordmasculine" unicode="&#xba;" horiz-adv-x="418" 
d="M209 697q34 0 63 -13.5t50.5 -36.5t33.5 -55t12 -69t-12 -69t-33.5 -55t-50.5 -36.5t-63 -13.5t-63 13.5t-50.5 36.5t-33.5 55t-12 69t12 69t33.5 55t50.5 36.5t63 13.5zM209 389q24 0 44.5 10t35 28t23 42.5t8.5 53.5t-8.5 53.5t-23 42.5t-35 28t-44.5 10t-44.5 -10
t-35 -28t-23 -42.5t-8.5 -53.5t8.5 -53.5t23 -42.5t35 -28t44.5 -10z" />
    <glyph glyph-name="ring" unicode="&#x2da;" horiz-adv-x="291" 
d="M146 692q20 0 37.5 -7.5t30 -20.5t20 -30.5t7.5 -36.5q0 -40 -27.5 -68t-67.5 -28t-68 28t-28 68q0 19 7.5 36.5t20.5 30.5t30.5 20.5t37.5 7.5zM146 528q29 0 49 20t20 49t-20 49t-49 20t-49 -20t-20 -49t20 -49t49 -20z" />
    <glyph glyph-name="germandbls" unicode="&#xdf;" horiz-adv-x="524" 
d="M50 536q0 103 50.5 157t147.5 54q43 0 77.5 -12.5t59 -36t38 -56.5t13.5 -73q0 -139 -113 -166l-29 -7l29 -3q151 -15 151 -177q0 -48 -15.5 -87.5t-44 -67.5t-68.5 -43.5t-88 -15.5q-9 0 -34 1.5t-48 9.5l4 54q18 -9 41.5 -11.5t37.5 -2.5q73 0 116.5 43.5t43.5 118.5
q0 78 -46.5 113.5t-149.5 35.5h-7v54h15q69 0 109.5 40t40.5 109q0 29 -10 53.5t-27.5 42.5t-42 28t-53.5 10q-141 0 -141 -187v-514h-57v536z" />
    <glyph glyph-name="dieresis" unicode="&#xa8;" horiz-adv-x="349" 
d="M299 612h-68v80h68v-80zM118 612h-68v80h68v-80z" />
    <glyph glyph-name="acute" unicode="&#xb4;" horiz-adv-x="183" 
d="M50 537l26 154h57l-52 -154h-31z" />
    <glyph glyph-name="grave" unicode="`" horiz-adv-x="186" 
d="M102 538l-52 154h60l26 -154h-34z" />
    <glyph glyph-name="Euro" unicode="&#x20ac;" horiz-adv-x="730" 
d="M680 55q-26 -21 -53 -33t-52.5 -19t-46.5 -9t-33 -2q-68 0 -118 25t-84.5 65t-54.5 91t-27 104h-161l19 40h138q-1 8 -1 14.5v13.5q0 9 0.5 17.5t0.5 17.5h-109l19 40h95q9 58 31.5 109t58.5 88.5t84.5 59.5t108.5 22q12 0 32.5 -2t45.5 -8.5t52 -18.5t52 -33l-6 -45
q-37 32 -78.5 48.5t-98.5 16.5q-38 0 -76 -14t-70.5 -43t-56 -74t-32.5 -106h339l-18 -40h-326q0 -8 -0.5 -17t-0.5 -18v-14.5t1 -13.5h296l-18 -40h-274q9 -64 32.5 -110t56 -76t71 -44t76.5 -14q54 0 98 17.5t81 49.5z" />
    <glyph glyph-name="fraction" unicode="&#x2044;" horiz-adv-x="555" 
d="M456 682h49l-406 -682h-49z" />
    <glyph glyph-name="lozenge" unicode="&#x25ca;" horiz-adv-x="500" 
d="M50 261l200 323l200 -323l-200 -323zM101 261l149 -245l149 245l-149 243z" />
    <glyph glyph-name="summation" unicode="&#x2211;" horiz-adv-x="613" 
d="M50 -179l322 401l-322 400v62h513v-59h-443l324 -403l-324 -404h443v-58h-513v61z" />
    <glyph glyph-name="product" unicode="&#x220f;" horiz-adv-x="613" 
d="M504 623h-395v-864h-59v923h513v-923h-59v864z" />
    <glyph glyph-name="radical" unicode="&#x221a;" horiz-adv-x="616" 
d="M50 453h65l114 -355l194 600h143v-50h-100l-210 -648h-47z" />
    <glyph glyph-name="daggerdbl" unicode="&#x2021;" horiz-adv-x="454" 
d="M203 157h-153v48h153v245h-153v48h153v157h48v-157h153v-48h-153v-245h153v-48h-153v-157h-48v157z" />
    <glyph glyph-name="guillemotright" unicode="&#xbb;" horiz-adv-x="439" 
d="M246 226l-141 -226h-55l135 226l-135 225h55zM389 226l-141 -226h-55l136 226l-135 225h54z" />
    <glyph glyph-name="guillemotleft" unicode="&#xab;" horiz-adv-x="439" 
d="M389 0h-55l-140 226l140 225h55l-135 -225zM111 226l135 -226h-55l-141 226l141 225h55z" />
    <glyph glyph-name="approxequal" unicode="&#x2248;" horiz-adv-x="523" 
d="M151 402q-29 0 -42 -16t-14 -53h-45q0 16 3.5 37.5t15 41.5t32 34t54.5 14q28 0 57 -10.5t57.5 -23.5t55 -23.5t50.5 -10.5q28 0 40 16t13 53h45q0 -15 -4 -37t-15 -42t-31.5 -34t-54.5 -14q-28 0 -55 10.5t-54 23.5t-54 23.5t-54 10.5zM375 226q28 0 40 15.5t13 53.5h45
q0 -16 -4 -37.5t-15 -41.5t-31.5 -34t-54.5 -14q-27 0 -55 10.5t-56 23.5t-55 23.5t-51 10.5q-29 0 -42 -16.5t-14 -52.5h-45q0 16 3.5 37.5t15 41.5t32 34t54.5 14q28 0 56.5 -10.5t57 -23.5t55.5 -23.5t51 -10.5z" />
    <glyph glyph-name="pi" unicode="&#x3c0;" horiz-adv-x="619" 
d="M400 410h-156v-410h-59v410h-6q-26 0 -39 -3.5t-22 -11.5q-8 -8 -11 -21.5t-3 -41.5v-7l-54 -13v18q0 36 7 59.5t22 38.5q7 7 14.5 12.5t18 9t24.5 5t34 1.5h399l-22 -46h-88v-410h-59v410z" />
    <glyph glyph-name="logicalnot" unicode="&#xac;" horiz-adv-x="535" 
d="M426 402h-376v59h435v-260h-59v201z" />
    <glyph glyph-name="yen" unicode="&#xa5;" horiz-adv-x="584" 
d="M324 299v-88h210v-39h-210v-172h-44v172h-230v39h230v88h-230v39h209l-189 353h45l187 -350l187 350h45l-189 -353h189v-39h-210z" />
    <glyph glyph-name="greaterequal" unicode="&#x2265;" horiz-adv-x="438" 
d="M50 51h338v-51h-338v51zM388 320v-38l-338 -184v50l288 153l-288 153v50z" />
    <glyph glyph-name="lessequal" unicode="&#x2264;" horiz-adv-x="438" 
d="M50 51h338v-51h-338v51zM388 454l-288 -153l288 -154v-50l-338 185v38l338 184v-50z" />
    <glyph glyph-name="infinity" unicode="&#x221e;" horiz-adv-x="872" 
d="M356 223q-53 -53 -128 -53q-37 0 -69.5 13.5t-56.5 36.5t-38 54.5t-14 66.5q0 36 14 67t38 54t56.5 36.5t69.5 13.5q35 0 68 -12.5t58 -37.5l82 -82l82 82q25 25 57.5 37t68.5 13q37 0 69.5 -13.5t56.5 -36.5t38 -54t14 -67q0 -35 -14 -66.5t-38 -54.5t-56.5 -36.5
t-69.5 -13.5q-76 0 -129 53l-79 79zM641 224q27 0 50 9.5t40 25t27 37t10 45.5t-10 45.5t-26.5 37.5t-39.5 25t-48 9t-48 -9t-40 -26l-82 -83l80 -79q17 -17 39 -27t48 -10zM228 224q53 0 90 37l80 81l-82 81q-17 17 -40 26t-48 9q-26 0 -48.5 -9t-39.5 -25t-26.5 -37.5
t-9.5 -45.5t9.5 -45.5t26.5 -37t39.5 -25t48.5 -9.5z" />
    <glyph glyph-name="plusminus" unicode="&#xb1;" horiz-adv-x="454" 
d="M404 325v-48h-153v-157h-48v157h-153v48h153v157h48v-157h153zM64 51h326v-51h-326v51z" />
    <glyph glyph-name="notequal" unicode="&#x2260;" horiz-adv-x="574" 
d="M187 205h-137v49h167l103 168h-270v49h299l130 213h32l-129 -213h142v-49h-172l-102 -168h274v-49h-304l-125 -205h-33z" />
    <glyph glyph-name="section" unicode="&#xa7;" horiz-adv-x="549" 
d="M63 -106q56 -45 104.5 -56.5t86.5 -11.5q28 0 59 8t57 23.5t43 39t17 53.5q0 51 -37 86.5t-122 67.5q-37 13 -70.5 29t-59.5 38t-41.5 50.5t-15.5 65.5v7q1 61 42 106l4 4l-4 3q-56 47 -56 113v7q1 45 21 77.5t51 54t69 32t76 10.5q36 0 84 -11t96 -47l-12 -53
q-42 37 -86 48.5t-79 11.5q-28 0 -55.5 -7.5t-49 -22t-35 -36t-13.5 -49.5q0 -30 13 -52.5t34.5 -40t49.5 -30.5t59 -25q102 -39 147 -84.5t45 -108.5v-6q-2 -59 -43 -103l-3 -4l4 -3q56 -50 56 -117v-7q-2 -47 -26 -81.5t-59 -57.5t-76 -34t-76 -11q-136 0 -212 61z
M389 120q26 29 26 63v6q0 20 -6.5 38.5t-24 36.5t-48 36t-79.5 37l-3 1l-34.5 14.5t-34.5 16.5l-3 2l-3 -3q-13 -14 -20.5 -31.5t-7.5 -38.5q0 -53 42.5 -86t113.5 -59q22 -8 40.5 -16.5t35.5 -18.5l3 -1z" />
    <glyph glyph-name="paragraph" unicode="&#xb6;" horiz-adv-x="610" 
d="M419 633h-122v-864h-59v557h-5q-38 0 -71 14.5t-58 39t-39.5 58t-14.5 71.5t14.5 71.5t39.5 58t58 39t71 14.5h327v-59h-82v-864h-59v864z" />
    <glyph glyph-name="dagger" unicode="&#x2020;" horiz-adv-x="588" 
d="M538 516v-57h-215v-625h-58v625h-215v57h215v226h58v-226h215z" />
    <glyph glyph-name="circumflex" unicode="&#x2c6;" horiz-adv-x="286" 
d="M143 662l-40 -82h-53l72 112h41l73 -112h-53z" />
    <glyph glyph-name="cent" unicode="&#xa2;" horiz-adv-x="480" 
d="M412 39q-10 -7 -21 -13t-22 -11q-20 -9 -49.5 -17.5t-65.5 -8.5q-33 0 -40 4l-39 -156l-41 13l39 156q-57 24 -90 79.5t-33 133.5v15q0 51 15 93.5t42 73t64.5 47.5t82.5 17q8 0 16.5 -0.5t16.5 -1.5l36 147l41 -14l-35 -142q19 -4 40 -15q11 -5 22 -11t21 -13l-15 -50
q-9 7 -30 19.5t-50 22.5l-91 -366q7 -4 33 -4q25 0 47.5 6t40.5 14.5t30.5 17l19.5 13.5zM109 219q0 -23 4 -47t13 -46t23.5 -40t35.5 -30l90 359q-4 1 -8 1h-8q-82 0 -121 -66q-10 -17 -15.5 -34.5t-8.5 -33.5t-4 -28.5t-1 -19.5v-15z" />
    <glyph glyph-name="backslash" unicode="\" horiz-adv-x="604" 
d="M125 682h57l268 -682h-57z" />
    <glyph glyph-name="questiondown" unicode="&#xbf;" horiz-adv-x="489" 
d="M286 419h-53v67h53v-67zM242 -170q24 0 48.5 7.5t47 19t42.5 26t35 28.5v-51q-51 -38 -94.5 -55.5t-88.5 -17.5q-69 0 -110.5 43t-41.5 115q0 22 6.5 40.5t18 35.5t26 33.5l29.5 34.5l29 36t25 40.5t17.5 52t6.5 70.5v50h43v-50q0 -42 -6.5 -73t-19.5 -57t-32.5 -52
l-45.5 -59q-23 -26 -38.5 -48.5t-15.5 -54.5q0 -54 30.5 -84t88.5 -30z" />
    <glyph glyph-name="exclamdown" unicode="&#xa1;" horiz-adv-x="185" 
d="M105 338l12 -543h-54l12 543h30zM117 486v-67h-54v67h54z" />
    <glyph glyph-name="oe" unicode="&#x153;" horiz-adv-x="968" 
d="M818 222h-304q0 -30 9 -63.5t27.5 -61t47.5 -45.5t69 -18q48 0 80 15t57 34l11 -43q-31 -18 -66.5 -32t-83.5 -14q-22 0 -47.5 6.5t-50 21t-45 38.5t-33.5 60q-26 -60 -75 -93t-112 -33q-45 0 -83 17.5t-66.5 49t-44.5 75t-16 96.5q0 52 16 95.5t44.5 75t66.5 49.5t83 18
q63 0 111.5 -33.5t74.5 -91.5q23 60 67.5 92.5t101.5 32.5q36 0 68.5 -15t57.5 -42.5t41 -66.5t20 -87zM302 34q35 0 65.5 14.5t53 41t35 62.5t12.5 80q0 43 -12.5 79t-35 62.5t-53 41t-65.5 14.5q-36 0 -66.5 -14.5t-53 -41t-35 -62.5t-12.5 -79q0 -44 12.5 -80t35 -62.5
t53 -41t66.5 -14.5zM799 263q-4 39 -16.5 70t-31.5 52t-43.5 32.5t-51.5 11.5t-51 -11.5t-43 -32.5t-31.5 -52t-16.5 -70h285z" />
    <glyph glyph-name="OE" unicode="&#x152;" horiz-adv-x="1054" 
d="M615 651v-263h229l-7 -41h-222v-306h300v-41h-344v122q-27 -57 -74 -93t-122 -36q-69 0 -115 31.5t-74 82t-40 114t-12 126.5q0 62 12 125t40 113.5t74 82.5t115 32q74 0 121.5 -37t74.5 -94v122h344v-40h-300zM375 32q15 0 35 3.5t42 14t43 31.5t38 55.5t27.5 85.5
t10.5 123q0 74 -11.5 126.5t-29.5 87.5t-40 55.5t-44 30.5t-41 13t-30 3q-12 0 -31 -3t-41 -13t-44.5 -30.5t-40.5 -55.5t-29.5 -87.5t-11.5 -126.5q0 -108 22.5 -170t54 -94t65 -40.5t56.5 -8.5z" />
    <glyph glyph-name="ae" unicode="&#xe6;" horiz-adv-x="772" 
d="M697 220h-304q0 -30 9 -63.5t27.5 -61t47.5 -45.5t69 -18q48 0 80 15t57 34l11 -43q-31 -18 -66.5 -32t-83.5 -14q-38 0 -80 18t-73 64q-33 -31 -60.5 -47.5t-51 -24t-41.5 -9t-31 -1.5q-34 0 -63 10.5t-50 29.5t-33 45t-12 58q0 88 72.5 127.5t226.5 40.5v44
q0 37 -35 60.5t-95 23.5q-23 0 -44 -5t-37.5 -12t-28.5 -13.5t-17 -10.5l-11 42q29 17 65.5 26.5t75.5 9.5q27 0 54 -6t50 -17t39.5 -27t22.5 -35q26 42 64.5 63.5t84.5 21.5q36 0 68.5 -15t57.5 -42.5t41 -66.5t20 -87zM348 262q-94 0 -145.5 -14.5t-76 -35t-29 -42
t-4.5 -35.5q0 -26 10 -45t26 -32t36.5 -19.5t41.5 -6.5q27 0 64.5 15.5t76.5 53.5v161zM678 261q-4 39 -16.5 70t-31.5 52t-43.5 32.5t-51.5 11.5t-51 -11.5t-43 -32.5t-31.5 -52t-16.5 -70h285z" />
    <glyph glyph-name="AE" unicode="&#xc6;" horiz-adv-x="1121" 
d="M691 651v-263h229l-7 -41h-221v-22v-284h299v-41h-347v217h-331l-172 -217h-55l552 691h353v-40h-300zM646 637l-303 -380h303v380z" />
    <glyph glyph-name="quotesinglbase" unicode="&#x201a;" horiz-adv-x="205" 
d="M67 -87l26 154h57l-51 -154h-32z" />
    <glyph glyph-name="hungarumlaut" unicode="&#x2dd;" horiz-adv-x="333" 
d="M208 691h58l-53 -155h-30zM97 536h-31l26 155h57z" />
    <glyph glyph-name="quotedblbase" unicode="&#x201e;" horiz-adv-x="264" 
d="M172 67h58l-53 -155h-30zM61 -88h-31l26 155h57z" />
    <glyph glyph-name="dotaccent" unicode="&#x2d9;" horiz-adv-x="251" 
d="M90 692h69v-80h-69v80z" />
    <glyph glyph-name="caron" unicode="&#x2c7;" horiz-adv-x="311" 
d="M157 610l40 82h53l-72 -112h-41l-73 112h53z" />
    <glyph glyph-name="divide" unicode="&#xf7;" horiz-adv-x="508" 
d="M218 106h70v-82h-70v82zM498 252v-37h-488v37h488zM288 361h-70v82h70v-82z" />
    <glyph glyph-name="florin" unicode="&#x192;" horiz-adv-x="511" 
d="M36 -156q6 -2 12 -2.5t15 -0.5q26 0 42.5 10.5t26.5 27t15 35.5t8 37l72 384h-112l11 60h112l23 120q7 35 15.5 67t25 56t44 38.5t72.5 14.5q18 0 33 -3.5t32 -11.5l-10 -60q-42 11 -47 11q-26 0 -41.5 -8.5t-24.5 -22.5t-14 -32.5t-9 -38.5l-16 -81l-10 -49h126l-12 -60
h-126l-70 -372q-8 -43 -18 -78.5t-29 -61t-50 -40t-80 -14.5q-15 0 -25 0.5t-19 2.5z" />
    <glyph glyph-name="ordfeminine" unicode="&#xaa;" horiz-adv-x="427" 
d="M209 695q31 0 55 -7.5t41 -19.5t26 -27t9 -30v-258h-32l-16 31l-16 -10t-17 -9q-15 -7 -33.5 -12.5t-37.5 -5.5q-51 0 -81 28.5t-30 76.5q0 30 12.5 51t32.5 35t44.5 21.5t48 11t43 4t29.5 0.5h5v27q0 3 -2 12t-10.5 18.5t-25.5 16.5t-48 7t-53.5 -9.5l-42.5 -18.5
q-3 9 -7 23t-4 15q9 5 37 17t73 12zM292 537h-17q-16 0 -41.5 -2t-49.5 -10.5t-41.5 -24t-17.5 -42.5q0 -31 18 -50.5t47 -19.5q20 0 38.5 6.5t32.5 14.5l15 9t16 12v107z" />
    <glyph glyph-name="perthousand" unicode="&#x2030;" horiz-adv-x="1090" 
d="M283 419q-32 -74 -110 -74q-45 0 -71 22t-38.5 52t-16 60t-3.5 46t3.5 46t16 60t38.5 52t71 22t71 -22t39 -52t16.5 -60t3.5 -46q0 -14 -3 -44.5t-17 -61.5zM173 380q13 0 28.5 5t29.5 20t23.5 43.5t9.5 75.5q0 49 -10.5 78.5t-24.5 44.5t-30 19.5t-26 4.5q-31 0 -49 -17
t-27.5 -40t-12 -48.5t-2.5 -41.5q0 -47 9.5 -75.5t23.5 -43.5t29.5 -20t28.5 -5zM533 688l-244 -686h-46l245 686h45zM602 354q45 0 71 -22t38.5 -52t16 -60t3.5 -46q0 -14 -2.5 -44.5t-16.5 -61.5q-33 -74 -110 -74q-45 0 -71 22t-39 52t-16.5 60t-3.5 46t3.5 46t16.5 60
t39 52t71 22zM602 30q13 0 28.5 5t29.5 20t23.5 43t9.5 75q0 49 -10.5 78.5t-25 44.5t-30 19.5t-25.5 4.5q-31 0 -49 -17t-27.5 -40t-12 -48.5t-2.5 -41.5q0 -47 9.5 -75t23.5 -43t29.5 -20t28.5 -5zM924 354q45 0 71 -22t39 -52t16.5 -60t3.5 -46q0 -14 -3 -44.5t-17 -61.5
q-32 -74 -110 -74q-45 0 -71 22t-38.5 52t-16 60t-3.5 46t3.5 46t16 60t38.5 52t71 22zM924 30q13 0 28.5 5t29.5 20t23.5 43t9.5 75q0 49 -10.5 78.5t-24.5 44.5t-30 19.5t-26 4.5q-31 0 -49 -17t-27.5 -40t-12 -48.5t-2.5 -41.5q0 -47 9.5 -75t23.5 -43t29.5 -20t28.5 -5z
" />
    <glyph glyph-name="Delta" unicode="&#x2206;" horiz-adv-x="498" 
d="M449 97h-394l180 363h36zM100 113h304l-151 325z" />
    </font>
</defs>
</svg>
