<?xml version="1.0" encoding="utf-8"?>
<!-- Generator: Adobe Illustrator 20.0.0, SVG Export Plug-In . SVG Version: 6.00 Build 0)  -->
<svg version="1.1" id="Layer_1" xmlns="http://www.w3.org/2000/svg" xmlns:xlink="http://www.w3.org/1999/xlink" x="0px" y="0px"
	 viewBox="0 0 673.5 885" style="enable-background:new 0 0 673.5 885;" xml:space="preserve">
<style type="text/css">
	.st0{fill:#747474;}
	.st1{fill:#C3AA5B;}
	.st2{fill:#373737;}
	.st3{fill:#B61800;}
	.st4{fill:#FFE1B0;}
	.st5{fill:#A8A8A8;}
	.st6{fill:#FFFFFF;}
	.st7{fill:#4F2800;}
	.st8{fill:#3F438C;}
	.st9{fill:none;stroke:#000000;stroke-miterlimit:10;}
</style>
<g>
	<path class="st0" d="M414.2,814l-0.4-0.6v-11l33.2-11.2l3.9,9.2l-1.2,0.2l-1.3,0.2l-1.4,0.2l-1.4,0l-1.3,0.1l-1.2,0.2l-1.1,0.3
		l-0.9,0.3l-0.8,0.4l-0.7,0.5l-0.6,0.5l-0.5,0.6l-0.4,0.7l-0.2,0.7l-0.1,0.8l0,0.9l0.1,0.9l0.2,1l0.4,1.1l0.5,1.1l0.6,1.2l0.7,1.3
		l0.9,1.3l-2.3,1.5l-4.1,2.6l-1.8,1.2l-1.7,1l-1.6,0.9l-1.5,0.8l-1.4,0.6l-1.3,0.4l-1.2,0.3l-1.1,0.1l-1.1-0.1l-1.1-0.4l-1-0.6
		l-1-0.8l-1-1.1l-1-1.4l-1-1.6l-1-1.9L414.2,814z M414.2,814"/>
	<path class="st1" d="M413.8,813.3l0.4,0.6l1,2.2l1,1.9l1,1.6l1,1.4l1,1.1l1,0.8l1,0.6l1.1,0.4l1.1,0.1l1.1-0.1l1.2-0.3l1.3-0.4
		l1.4-0.6l1.5-0.8l1.6-0.9l1.7-1l1.8-1.2l4.1-2.6l2.3-1.5l-0.9-1.3l-0.7-1.3l-0.6-1.2l-0.5-1.1l-0.4-1.1l-0.2-1l-0.1-0.9l0-0.9
		l0.1-0.8l0.2-0.7l0.4-0.7l0.5-0.6l0.6-0.5l0.7-0.5l0.8-0.4l0.9-0.3l1.1-0.3l1.2-0.2l1.3-0.1l1.4,0l1.4-0.2l1.3-0.2l1.2-0.2l1.1-0.1
		l1-0.1l0.9,0l0.9,0l0.8,0.1l0.7,0.2l0.6,0.3l0.5,0.4l0.4,0.5l0.3,0.6l0.2,0.7l0.1,0.9l0.1,1l0,1.2l-0.1,1.3l-0.2,1.5l-0.3,1.7
		l0.9-0.1l0.8-0.1l0.8,0l0.7,0l0.7,0.1l0.6,0.1l0.6,0.2l0.6,0.2l0.6,0.3l0.6,0.3l0.6,0.4l0.6,0.4l0.6,0.5l0.6,0.6l0.7,0.6l0.7,0.7
		l1.7,1.6l0.9,0.9l1,0.9l2.3,1.4l2.2,1.4l2.1,1.3l2,1.3l1.8,1.3l1.8,1.2l1.7,1.2l1.6,1.1l1.5,1.1l1.5,1l1.4,0.9l1.4,0.8l1.4,0.8
		l1.4,0.7l1.4,0.6l1.4,0.5l1.4,0.4l1.4,0.3l1.5,0.2l1.5,0.1l-1.8,0.2l-3.2,0.6L497,837l-2.6,0.8l-2.3,0.9l-2,0.9l-1.8,1l-1.7,1
		l-1.5,1l-1.4,1l-1.4,1l-1.3,0.9l-1.3,0.9l-1.4,0.8l-1.4,0.7l-1.6,0.6l-1.7,0.5l-1.9,0.4l-2.1,0.2l-2.3,0.1l-2.8-1.6l-2.6-1.3
		l-2.4-1.1l-2.3-1l-2.1-0.8l-2-0.6l-1.9-0.5l-1.8-0.4l-1.7-0.2l-1.7-0.1l-1.6-0.1l-1.6,0l-1.5,0.1l-1.5,0.1l-1.5,0.1l-1.5,0.1
		l-1.6,0.1l-1.6,0.1l-1.6,0.1l-1.7,0l-1,0l-1.1-0.1l-1.1-0.1l-1.1-0.1l-1.2-0.2l-1.2-0.2l-1.2-0.3l-1.2-0.3l-1.2-0.4l-1.1-0.4
		l-1.1-0.5l-1.1-0.5l-1.1-0.6l-1-0.6l-1-0.7l-0.9-0.8l-0.8-0.8l-0.8-0.9l-0.7-1l-0.6-1.1l0.3-3.3l0.9-3.8l1.5-4.2l-0.8-0.6l-0.6-0.7
		l-0.5-0.7l-0.4-0.7l-0.2-0.8l-0.1-0.8l0-0.8l0.1-0.8l0.2-0.7l0.2-0.7l0.3-0.6l0.3-0.5l0.4-0.4l0.4-0.3l0.4-0.2l0.4-0.1l0.4,0.1
		l0.4,0.3L413.8,813.3z M413.8,813.3"/>
	<path class="st2" d="M409.9,833.1l0.6,1.1l0.7,1l0.8,0.9l0.8,0.8l0.9,0.8l1,0.7l1,0.6l1.1,0.6l1.1,0.5l1.1,0.5l1.1,0.4l1.2,0.4
		l1.2,0.3l1.2,0.3l1.2,0.2l1.2,0.2l1.1,0.1l1.1,0.1l1.1,0.1l1,0l1.7,0l1.6-0.1l1.6-0.1l1.6-0.1l1.5-0.1l1.5-0.1l1.5-0.1l1.5-0.1
		l1.6,0l1.6,0.1l1.7,0.1l1.7,0.2l1.8,0.4l1.9,0.5l2,0.6l2.1,0.8l2.3,1l2.4,1.1l2.6,1.3l2.8,1.6l2.3-0.1l2.1-0.2l1.9-0.4l1.7-0.5
		l1.6-0.6l1.4-0.7l1.4-0.8l1.3-0.9l1.3-0.9l1.4-1l1.4-1l1.5-1l1.7-1l1.8-1l2-0.9l2.3-0.9l2.6-0.8l2.9-0.7l3.2-0.6l1.8-0.2l1.8-0.2
		l1,0.1l1.1,0.2l1.2,0.3l1.2,0.4l1.2,0.6l1.2,0.7l1.1,0.8l1,0.9l0.9,0.9l0.7,1l0.5,1.1l0.3,1.2l0,1.2l-0.3,1.3l-0.7,1.3l-1.1,1.4
		l-1.5,1.4l-2,1.5l-2.5,1.5l-3,1.5l-4.9,1.3l-4.4,1l-4,0.6l-3.6,0.3l-3.3,0l-3-0.2l-2.8-0.4l-2.6-0.6l-2.5-0.7l-2.4-0.8l-2.4-0.9
		l-2.4-1l-2.5-1l-2.6-0.9l-2.8-0.9l-3.1-0.8l-3.3-0.7l-3.7-0.5l-4.1-0.3l-4.5-0.1l-1.5,0l-3.9,0.1l-2.3,0l-2.4,0l-2.5-0.1l-2.6-0.2
		l-2.6-0.4l-2.5-0.5l-2.4-0.7l-2.2-0.9l-2-1.2l-1.8-1.5l-1.5-1.8l-1.1-2.1l-0.7-2.5L409.9,833.1z M409.9,833.1"/>
	<path class="st3" d="M334.9,133.7l1,0.7l1,0.6l1,0.5l1,0.5l1,0.4l1,0.4l1,0.3l1.1,0.3l1.1,0.3l1.1,0.3l1.1,0.3l1.1,0.3l1.1,0.3
		l1.2,0.3l1.2,0.4l1.2,0.4l1.2,0.5l1.2,0.5l1.3,0.6l1.3,0.7l2-0.6l1.8-0.4l1.7-0.3l1.5-0.2l1.4-0.1l1.3-0.1l1.2,0l1.2,0.1l1.2,0.1
		l1.1,0.2l1.1,0.2l1.1,0.3l1.2,0.3l1.2,0.3l1.3,0.3l1.4,0.3l1.5,0.3l1.6,0.3l1.8,0.3l2.6,0.1l2.3,0.4l2.1,0.6l1.9,0.8l1.8,1l1.6,1.2
		l1.5,1.4l1.5,1.6l1.4,1.7l1.4,1.9l1.4,2l1.4,2.1l1.4,2.2l1.5,2.3l1.6,2.4l1.7,2.5l1.8,2.5l2,2.6l2.2,2.6l2.4,2.6l1.7,1.7l1.9,1.7
		l2.1,1.8l2.2,1.8l2.4,1.8l2.5,1.8l2.6,1.8l2.7,1.9l5.7,3.9l3,2l3,2.1l3,2.1l3,2.2l3,2.3l3,2.3l3,2.4l2.9,2.5l2.8,2.6l2.8,2.7
		l-0.2,0.4l-0.5,1.3l-0.9,1.7l-1.2,1.7l-1.4,1.7L467,228l-1.8,1.7l-2,1.8l-2.2,1.8l-2.3,1.8l-2.5,1.9l-2.6,1.9l-2.6,2l-2.7,2.1
		l-2.8,2.1l-2.8,2.2l-2.8,2.3l-2.8,2.4l-1.4,1.2l-1.4,1.2l-2.8,2.5l-2.7,2.6l-2.5-2.8l-2.2-2.5l-2-2.2l-1.8-2l-1.6-1.8l-1.4-1.5
		l-1.3-1.3l-1.1-1.2l-1-1l-0.9-0.9l-0.8-0.7l-0.7-0.6l-0.6-0.5l-0.6-0.5l-0.5-0.4l-0.5-0.4l-0.5-0.3l-0.5-0.3l-0.5-0.4l-1.1-0.8
		l-0.6,3.1L405,247l-1,5.7l-0.9,5.1l-0.7,4.6l-0.6,4.2l-0.5,3.7l-0.4,3.4l-0.3,3.1l-0.2,2.8l-0.2,2.6l-0.1,2.5l-0.1,2.4l0,2.4l0,2.4
		l0,2.5l0,2.6l0,2.8l-0.5,6.2l-0.2,6.1l0.1,6l0.3,6l0.6,5.9l0.8,5.8l0.9,5.8l1,5.8l1.1,5.7l1.2,5.7l2.5,11.5l1.2,5.7l1.1,5.8
		l1.1,5.8l0.9,5.9l0.8,5.9l0.6,6l0.4,6l0.1,6.1l-1.4,2.7l-1.3,2.6l-1.2,2.6l-1.2,2.5l-1.2,2.4l-1,1.9l-0.3,0.5l-1.4,2.3l-1.6,2.2
		l-1.8,2.1l-2,2l-2.3,1.9l-2.7,1.8l-3.1,1.7l-3.5,1.6l-4,1.4l-4.5,1.3l-5,1.2l-5.7,1.1l-6.3,0.9l-7,0.8l0-1.8l0-0.8l0-0.8l0-0.8
		l0-0.8l-0.1-0.7l-0.1-0.7l-0.1-0.8l-0.1-0.8l-0.2-0.8l-0.2-0.8l-0.3-0.9l-0.3-1l-0.4-1l-0.4-1.1l-0.5-1.2l-0.6-1.3l-0.6-1.4
		l-0.7-1.5l-1.6-22.2l-0.1-1.5l-0.2-1.6l-0.4-1.6l-0.5-1.7l-0.6-1.8l-0.7-1.9l-0.7-2.1l-0.8-2.3l-0.8-2.5l-0.8-2.7l-0.8-2.9
		l-0.8-3.2l-0.8-3.5l-0.7-3.8l-0.7-4.2L339,372l-0.5-4.9l-0.4-5.3l-0.2-5.8l-0.1-6.2l-0.1-7.2l-0.2-7.2l-0.4-7.3l-0.5-7.4l-0.6-7.4
		l-0.8-7.4l-0.9-7.5l-1-7.5l-1.1-7.5l-1.2-7.4l-1.3-7.4l-1.4-7.4l-1.5-7.3l-1.6-7.2l-1.6-7.2l-1.7-7.1l-1.8-7l-1.8-6.9l-1.9-6.7
		l-1.9-6.6l-1.5-5l-1.1-4.5l-0.7-4l-0.3-3.6l0-3.3l0.2-2.9l0.5-2.6l0.7-2.4l0.8-2.1l0.8-1.5l0.2-0.4l1-1.8l1.1-1.7l1.1-1.6l1.1-1.5
		l1-1.5l0.9-1.5l0.8-1.6l0.6-1.7l0.4-1.8l0.1-2l-0.1-0.1l-0.2-0.3l-0.2-0.4l-0.2-0.6l-0.2-0.7l-0.2-0.8l-0.2-0.9l-0.2-1l-0.1-1
		l-0.1-1.1l0-1.1l0-1.1l0.1-1.1l0.2-1l0.3-1l0.5-0.9l0.6-0.8l0.8-0.7l0.9-0.6l1.1-0.5l0-2.2l-0.1-2.1l-0.1-2l-0.1-1.9l-0.2-1.8
		l-0.2-1.7l-0.2-1.6l-0.2-1.5l-0.4-2.9l-0.2-1.3l-0.1-1.3l2.6,1l2.2,0.9l1.8,0.9l1.5,0.8l1.2,0.8l0.9,0.7l0.7,0.7l0.5,0.7l0.3,0.7
		l0.2,0.7l0.1,0.8l0,0.8l-0.1,0.9l-0.1,0.9l-0.1,1L334.9,133.7z M334.9,133.7"/>
	<path class="st4" d="M323.2,120.4l0.1,1.3l0.2,1.3l0.4,2.9l0.2,1.5l0.2,1.6l0.2,1.7l0.2,1.8l0.1,1.9l0.1,2l0.1,2.1l0,2.2l-1.1,0.5
		l-0.9,0.6l-0.8,0.7l-0.6,0.8l-0.5,0.9l-0.3,1l-0.2,1l-0.1,1.1l0,1.1l0,1.1l0.1,1.1l0.1,1l0.2,1l0.2,0.9l0.2,0.8l0.2,0.7l0.2,0.6
		l0.2,0.4l0.2,0.3l0.1,0.1l-0.1,2l-0.4,1.8l-0.6,1.7l-0.8,1.6l-0.9,1.5l-1,1.5l-1.1,1.5l-1.1,1.6l-1.1,1.7l-1,1.8l-0.2,0.4l-0.6-0.2
		l-0.7-0.3l-0.7-0.3l-0.6-0.2l-0.6-0.2l-0.6-0.2l-0.5-0.2l-0.5-0.2l-0.5-0.2l-0.4-0.2l-0.4-0.2l-0.4-0.2l-0.3-0.2l-0.3-0.3l-0.3-0.3
		l-0.3-0.4l-0.3-0.4l-0.3-0.5l-0.2-0.6l-0.2-0.6l-0.2-0.8l-0.1-0.8l-0.1-0.8l-0.1-0.8l-0.1-0.8l-0.1-0.8l-0.1-0.8l-0.2-0.8l-0.2-0.8
		l-0.3-0.8l-0.4-0.8l-0.6-0.8l-0.7-0.8l-0.9-0.8l-1.1-0.8l-1.3-0.8l-1.5-0.8l-1.8-0.8l-2.1-0.8l-2.4-0.8l-2.1-1l-2-1l-1.9-1l-1.8-1
		l-1.7-1l-1.6-1l-1.5-1.1l-1.4-1.1l-1.3-1.1l-1.2-1.2l-1.1-1.2l-1-1.3l-0.9-1.4l-0.8-1.4l-0.7-1.5l-0.6-1.6l-0.4-1.7l-0.3-1.8
		l-0.2-1.9l-0.1-2l2.2,1.9l2.3,1.8l2.4,1.7l2.4,1.6l2.5,1.4l2.5,1.3l2.5,1.1l2.4,1l2.4,0.8l2.3,0.6l2.2,0.4l2,0.1l1.9-0.1l1.7-0.4
		l1.5-0.6l1-0.6l1.1-0.6l1.2-0.6l1.3-0.7l1.4-0.8l1.4-0.9l1.5-1l1.5-1.1l1.5-1.2l1.5-1.4l1.5-1.6l1.5-1.8l1.4-2l1.4-2.3l1.3-2.6
		l1.2-2.9l1.1-3.2l-0.3,0.9l-0.2,0.9l-0.1,1l-0.1,1l0,1l0,1.1l0.1,1.1L323.2,120.4z M323.2,120.4"/>
	<path class="st3" d="M314,173.2l-0.8,1.5l-0.8,2.1l-0.7,2.4l-0.5,2.6l-0.2,2.9l0,3.3l0.3,3.6l0.7,4l1.1,4.5l1.5,5l1.9,6.6l1.9,6.7
		l1.8,6.9l1.8,7l1.7,7.1l1.6,7.2l1.6,7.2l1.5,7.3l1.4,7.4l1.3,7.4l1.2,7.4l1.1,7.5l1,7.5l0.9,7.5l0.8,7.4l0.6,7.4l0.5,7.4l0.4,7.3
		l0.2,7.2l0.1,7.2l0.1,6.2l0.2,5.8l0.4,5.3l0.5,4.9l0.6,4.5l0.7,4.2l0.7,3.8l0.8,3.5l0.8,3.2l0.8,2.9l0.8,2.7l0.8,2.5l0.8,2.3
		l0.7,2.1l0.7,1.9l0.6,1.8l0.5,1.7l0.4,1.6l0.2,1.6l0.1,1.5l1.6,22.2v19.8l-2,1.3l-3.4,1l-4.7,0.7l-5.8,0.4l-6.7,0.1l-7.4-0.2
		l-8-0.6l-8.4-0.9l-8.7-1.2l-8.8-1.6l-8.7-2l-8.5-2.3l-8.1-2.7l-7.6-3.1l-6.9-3.5l-6-3.9L236,433l-3.3-4.1l-0.5-0.6l-2.4-5.1
		l-0.9-5.5l0.1-2.4l0.2-2.7l0.3-3l0.4-3.2l0.4-3.4l0.5-3.5l0.5-3.6l0.6-3.7l0.6-3.7l0.6-3.7l1.8-10.7l0.5-3.3l0.5-3.1l0.4-2.9
		l0.4-2.6l0.3-2.3l0.2-1.9l0.1-1.5l-1-6.6l-1-6.2l-1.1-5.9l-1.2-5.6l-1.2-5.4l-1.2-5.1l-1.2-4.8l-1.2-4.6l-1.2-4.4l-1.2-4.2l-1.1-4
		l-1-3.8l-1-3.6l-0.9-3.5l-0.8-3.3l-0.7-3.2l-0.5-3.1l-0.4-3l-0.3-2.9l-0.1-2.8l-1.6,1.7l-1.3,1.4l-1.1,1.2l-0.9,0.9l-0.8,0.8
		l-1.3,1.3l-0.6,0.6l-0.6,0.6l-0.6,0.7l-0.7,0.8l-0.8,1l-0.9,1.2l-1,1.5l-1.2,1.8l-1.5,2.2l-1.7,2.6l-2,3L198,297l-2.7,4.1l-0.4-0.1
		l-0.4-0.2l-0.4-0.4l-0.4-0.5l-0.4-0.7l-0.6-0.8l-0.7-1l-0.9-1.1L190,295l-1.4-1.4l-1.7-1.6l-2.1-1.7l-2.5-1.8l-2.9-2l-3.4-2.1
		l-4-2.3l-4.5-2.4l-5.1-2.5l-5.8-2.7l-5.1-2.2l-1.4-0.6l6.5-9.5l5.9-8.8l5.4-8.2l4.8-7.6l4.3-7.1l3.9-6.5l3.5-6l3.1-5.6l2.7-5.1
		l2.4-4.7l2.2-4.3l2-4l3.5-7.1l1.6-3.1l1.5-2.9l1.5-2.7l1.5-2.6l1.6-2.4l1.7-2.3l0.6-0.8l0.7-0.7l0.8-0.6l0.9-0.5l1.1-0.5l1.2-0.5
		l1.4-0.5l1.6-0.6l1.9-0.7l2.1-0.8l2.4-1l2.7-1.1l3-1.4l3.4-1.6l3.7-1.9l4.1-2.2l4.5-2.5l5-2.9l5.4-3.3l5.9-3.7l0.1-1.3l0.1-1.1
		l0.1-0.9l0.1-0.8l0.2-0.7l0.2-0.7l0.2-0.6l0.3-0.6l0.3-0.6l0.3-0.7l0.3-0.7l0.3-0.8l0.4-0.9l0.4-1l0.4-1.2l0.4-1.4l0.4-1.6l0.4-1.8
		l0.4-2.1l1,1l0.1,2l0.2,1.9l0.3,1.8l0.4,1.7l0.6,1.6l0.7,1.5l0.8,1.4l0.9,1.4l1,1.3l1.1,1.2l1.2,1.2l1.3,1.1l1.4,1.1l1.5,1.1l1.6,1
		l1.7,1l1.8,1l1.9,1l2,1l2.1,1l2.4,0.8l2.1,0.8l1.8,0.8l1.5,0.8l1.3,0.8l1.1,0.8l0.9,0.8l0.7,0.8l0.6,0.8l0.4,0.8l0.3,0.8l0.2,0.8
		l0.2,0.8l0.1,0.8l0.1,0.8l0.1,0.8l0.1,0.8l0.1,0.8l0.1,0.8l0.2,0.8l0.2,0.6l0.2,0.6l0.3,0.5l0.3,0.4l0.3,0.4l0.3,0.3l0.3,0.3
		l0.3,0.2l0.4,0.2l0.4,0.2l0.4,0.2l0.5,0.2l0.5,0.2l0.5,0.2l0.6,0.2l0.6,0.2l0.6,0.2l0.7,0.3l0.7,0.3L314,173.2z M314,173.2"/>
	<path class="st5" d="M350.7,435.9l0.7,1.5l0.6,1.4l0.6,1.3l0.5,1.2l0.4,1.1l0.4,1l0.3,1l0.3,0.9l0.2,0.8l0.2,0.8l0.1,0.8l0.1,0.8
		l0.1,0.7l0.1,0.7l0,0.8l0,0.8l0,0.8l0,0.8l0,1.8l7-0.8l6.3-0.9l5.7-1.1l5-1.2l4.5-1.3l4-1.4l3.5-1.6l3.1-1.7l2.7-1.8l2.3-1.9l2-2
		l1.8-2.1l1.6-2.2l1.4-2.3l0.3-0.5l0.8,2l1,3l1,3.7l1.1,4.4l1.1,5l1.2,5.7l1.3,6.4l6.5,31.8l2,9.5l2.1,10.1l2.3,10.7l2.5,11.3
		l2.7,11.9l2.9,12.5l3.1,13.1l3.3,13.6l3.5,14.2l-3.4,1.4l-3.8,1.5l-4.1,1.5l-4.4,1.5l-4.7,1.5l-5,1.5l-5.2,1.5l-5.4,1.4l-5.6,1.3
		l-5.7,1.2l-5.8,1.1l-5.9,1l-5.9,0.8l-5.9,0.7l-5.9,0.5l-5.9,0.3l-5.8,0l-5.7-0.2l-5.5-0.5l-5.4-0.8l0-1.9l0-2.7l0-3.3l0-3.9
		l-0.1-4.4l-0.1-4.9l-0.2-5.2l-0.2-5.5l-0.3-5.6l-0.3-5.7l-0.4-5.7l-0.5-5.6l-0.6-5.5l-0.7-5.2l-0.8-4.9l-0.9-4.5l-1-4l-1.1-3.4
		l-1.2-2.7l-1.4-1.9l-1,3.3l-1,3.6l-1,3.9l-1,4.2l-1,4.4l-0.9,4.5l-0.9,4.7l-0.9,4.7l-0.8,4.8l-0.7,4.8l-0.7,4.8l-0.6,4.7l-0.5,4.6
		l-0.4,4.4l-0.3,4.2l-0.2,4l-0.1,3.7l0,3.4l0.2,3l0.3,2.6l-5.8,1l-2.4,1l-4.9,1.6l-5,1.3l-5.1,1l-5.1,0.8l-5.1,0.5l-5.1,0.3l-5,0
		l-5-0.2l-4.8-0.3l-4.7-0.5l-4.5-0.7l-4.3-0.8l-4.1-0.9l-3.9-1l-3.6-1.1l-3.3-1.1l-2.9-1.2l-2.5-1.2l-2.1-1.2l1.9-15.9l1.5-15.1
		l1.2-14.2l0.8-13.4l0.6-12.7l0.3-11.9l0.1-11.2l-0.1-10.5l-0.2-9.8l-0.4-9.1l-0.4-8.5l-0.5-7.9l-0.5-7.3l-0.5-6.7l-0.4-6.1
		l-0.3-5.6l-0.2-5.1l0-4.6l0.2-4.1l0.3-3.1l3.3,4.1l4.9,4.3l6,3.9l6.9,3.5l7.6,3.1l8.1,2.7l8.5,2.3l8.7,2l8.8,1.6l8.7,1.2l8.4,0.9
		l8,0.6l7.4,0.2l6.7-0.1l5.8-0.4l4.7-0.7l3.4-1l2-1.3V435.9z M350.7,435.9"/>
	<path class="st4" d="M435.7,253.3l1.4-1.2l2.8-2.4l2.8-2.3l2.8-2.2l2.8-2.1l2.7-2.1l2.6-2l2.6-1.9l2.5-1.9l2.3-1.8l2.2-1.8l2-1.8
		l1.8-1.7l1.6-1.7l1.4-1.7l1.2-1.7l0.9-1.7l0.5-1.3l1.5,0.6l1.4,0.6l1.2,0.7l1.1,0.7l1.1,0.7l1.6-1.2l1.9-1.2l2.1-1.1l2.4-1.1
		l2.6-1.1l2.8-1.1l3-1.1l3.3-1.2l7.2-2.5l3.9-1.4l4.1-1.5l4.3-1.6l4.5-1.8l4.6-1.9l4.8-2.1l5-2.3l5.1-2.5l5.3-2.7l5.9-3.2l0.2,2
		l0.4,2.1l0.5,2l0.6,1.9l0.7,1.8l0.8,1.7l0.9,1.6l1,1.5l1.1,1.4l1.1,1.3l1.1,1.2l1.2,1.1l1.2,1l1.2,0.9l1.1,0.8l-2.3,1.4l-2.3,1.6
		l-2.3,1.8l-2.3,1.9l-2.4,2l-2.5,2.2l-2.6,2.3l-2.7,2.4l-2.8,2.5l-3,2.5l-3.2,2.6l-3.4,2.7l-3.7,2.7l-3.9,2.7l-4.2,2.8l-4.5,2.8
		l-4.8,2.8l-5.2,2.7l-5.6,2.7l-6,2.7l-2.1,1l-1.9,0.9l-1.7,0.9l-1.5,0.8l-1.3,0.8l-1.2,0.7l-1,0.7l-0.9,0.6l-0.8,0.5l-0.8,0.4
		l-0.7,0.4l-0.7,0.3l-0.7,0.2l-0.7,0.1l-0.8,0l-0.8-0.1l-0.9-0.2l-1-0.3l-1.2-0.4l-1.3-0.5l-4.7-1.8l-4.2-1.6l-3.8-1.4l-3.4-1.3
		l-3-1.1l-2.7-0.9l-2.4-0.8l-2.1-0.7l-1.8-0.6l-1.6-0.5l-1.4-0.4l-1.2-0.4l-1.1-0.3l-1-0.3l-0.9-0.3l-0.8-0.2l-0.8-0.2l-0.8-0.3
		l-0.8-0.3L435.7,253.3z M435.7,253.3"/>
	<path class="st4" d="M600.5,187.7l-3.1,2.2l-2.9,2.1l-2.7,2l-2.5,1.9l-2.2,1.8l-1.9,1.7l-1.5,1.5l-1.1,1.4l-0.3,0l-0.4,0l-1.3-0.5
		l-1.2-0.6l-1.2-0.7l-1.2-0.8l-1.1-0.9l-1.1-1l-1-1.1l-0.9-1.1l-0.9-1.2l-0.8-1.2l-0.7-1.2l-0.6-1.3l-0.5-1.3l-0.4-1.2l-0.2-1.2
		l-0.1-1.2l0-1.1l0.2-1.1l0.3-1l0.5-0.9l1.2-0.8l1-0.8l0.9-0.8l0.8-0.7l0.6-0.7l0.5-0.7l0.4-0.7l0.3-0.7l0.3-0.7l0.2-0.7l0.2-0.7
		l0.2-0.7l0.1-0.7l0.1-0.7l0.2-0.8l0.2-0.8l0.2-0.8l0.3-0.9l0.3-0.9l0.4-1l0.3-0.7l0.5-0.7l0.6-0.8l0.6-0.8l0.7-0.9l0.8-0.9l0.8-0.9
		l0.9-0.9l0.9-1l0.9-1l0.9-1l0.8-1l0.8-1l0.7-1.1l0.7-1.1l0.6-1.1l0.5-1.1l0.4-1.1l0.2-1.1l0.1-1.1l0-1.3l0.1-1.2l0.2-1.1l0.3-1
		l0.3-1l0.4-0.9l0.5-0.8l0.5-0.7l0.5-0.6l0.6-0.5l0.6-0.4l0.6-0.3l0.6-0.2l0.6-0.1l0.6,0l0.6,0.1l0.6,0.2l0.6,0.3l0.5,0.4l0.5,0.5
		l0.2,0.2l0.2,0.3l0.2,0.3l0.2,0.4l0.2,0.4l0.2,0.5l0.1,0.6l0.1,0.6l0,0.7l0,0.8l-0.1,0.8l-0.2,0.9l-0.2,1l-0.3,1.1l-0.4,1.2
		l-0.5,1.3l-0.6,1.4l-0.8,1.5l-0.9,1.6l-1,1.7l0,1.2l0.8-0.2l0.8-0.2l0.8-0.2l0.8-0.2l0.9-0.2l1.9-0.4l1.1-0.2l1.2-0.2l1.3-0.3
		l1.5-0.3l1.7-0.4l1.9-0.5l2.1-0.6l2.3-0.6l3-0.9l0.2-0.4l0.4-0.9l0.4-0.7l0.4-0.6l0.4-0.5l0.4-0.4l0.4-0.3l0.4-0.2l0.4-0.1l0.4,0
		l0.4,0.1l0.4,0.2l0.5,0.2l0.5,0.3l0.5,0.3l0.5,0.3l0,0.6l-0.1,0.7l-0.1,0.8l-0.2,1l-0.2,1.1l-0.3,1.1l-0.3,1.2l-0.3,1.3l1.2-1.4
		l1.1-1.4l1-1.4l0.9-1.3l0.8-1.3l0.7-1.3l0.4-0.7l0.1-0.1l0.1-0.2l0.1-0.2l0.6-1.2l0.6-1.1l0.5-1l0.5-1l0.5-0.9l0.5-0.8l0.5-0.7
		l0.5-0.5l0.5-0.4l0.6-0.3l0.6-0.2l0.7,0l0.8,0.1l0.3,0l0.3,0l0.3,0.1l0.3,0.1l0.3,0.1l0.3,0.2l0.2,0.2l0.2,0.2l0.2,0.3l0.2,0.3
		l0.1,0.3l0.1,0.4l0.1,0.4l0,0.5l0,0.5l-0.1,0.5l-0.1,0.6l-0.2,0.6l-0.2,0.7l-0.3,0.7l0.2-0.1l0.2-0.1l0.3-0.2l0.3-0.3l0.4-0.3
		l0.4-0.4l0.5-0.4l0.5-0.4l0.5-0.4l0.6-0.4l0.6-0.4l0.6-0.3l0.6-0.3l0.6-0.2l0.6-0.1l0.6,0l0.6,0.1l0.6,0.2l0.6,0.4l0.3,0.3v0.3
		l-0.1,0.5l-1,1.5l-0.6,0.9l-0.5,0.8l-0.5,0.8l-0.5,0.7l-0.5,0.7l-0.5,0.7l-0.5,0.6l-0.5,0.6l-0.6,0.6l-0.6,0.6l-0.7,0.7l-0.8,0.7
		l-0.9,0.7l-1,0.8l-1.1,0.9l-1.2,0.9l-1.3,1l-1.5,1.1l-1.5,2.3l-1.9,2.4l-2.2,2.4l-2.5,2.4l-2.8,2.4l-3,2.5l-3.1,2.4l-3.2,2.4
		l-3.3,2.4l-3.3,2.4l-3.3,2.3L600.5,187.7z M600.5,187.7"/>
	<path class="st6" d="M629.7,147.6l-0.4,0.7l-0.7,1.3l-0.8,1.3l-0.9,1.3l-1,1.4l-1.1,1.4l-1.2,1.4l0.3-1.3l0.3-1.2l0.3-1.1l0.2-1.1
		l0.2-1l0.1-0.8l0.1-0.7l0.6-0.1l0.5-0.1l0.5-0.1l0.4-0.1l0.4-0.1l0.3-0.1l0.3-0.1l0.2-0.1l0.2-0.1l0.2-0.1l0.2-0.1l0.1-0.1l0.1-0.1
		l0.1-0.1l0.1-0.1l0.1-0.1L629.7,147.6z M629.7,147.6"/>
	<path d="M569.9,181.3l-0.5,0.9l-0.3,1l-0.2,1.1l0,1.1l0.1,1.2l0.2,1.2l0.4,1.2l0.5,1.3l0.6,1.3l0.7,1.2l0.8,1.2l0.9,1.2l0.9,1.1
		l1,1.1l1.1,1l1.1,0.9l1.2,0.8l1.2,0.7l1.2,0.6l1.3,0.5l0.4,0l0.3,0l0.3,0.1l0.2,0.1l0.1,0.1l0.1,0.2l0,0.2l-0.1,0.2l-0.1,0.3
		l-0.2,0.3l-0.3,0.3l-0.3,0.3l-0.4,0.4l-0.5,0.4l-0.6,0.4l-0.6,0.4l-0.7,0.5l-0.8,0.5l-0.9,0.5l-1,0.5l-0.3-0.1l-1.2-0.4l-1.2-0.6
		l-1.2-0.7l-1.2-0.9l-1.2-1l-1.1-1.1l-1.1-1.2l-1-1.3l-1-1.4l-0.9-1.4l-0.8-1.5l-0.8-1.5l-0.7-1.5l-0.6-1.5l-0.4-1.5l-0.3-1.5
		l-0.2-1.4l-0.1-1.4l0.1-1.3l0.2-1.2l0.8-0.8l0.8-0.7l0.7-0.6l0.7-0.5l0.6-0.4l0.6-0.3l0.5-0.2l0.5-0.2l0.4-0.1l0.4,0l0.4,0l0.3,0.1
		l0.3,0.1l0.2,0.1l0.2,0.2l0.2,0.2l0.1,0.2l0.1,0.2l0.1,0.2L569.9,181.3z M569.9,181.3"/>
	<path class="st7" d="M302.4,29l2.6-0.2l2.3,0.3l2.1,0.7l1.9,1.1l1.7,1.5l1.5,1.8l1.3,2l1.2,2.2l1,2.4l0.9,2.5l0.7,2.6l0.6,2.6
		l0.5,2.6l0.3,2.6l0.2,2.5l0.2,2.4l0.1,2.2l0,2l0.1,0.6l0.1,0.6l0.1,0.5l0.1,0.4l0.1,0.3l0.1,0.3l0.1,0.3l0.1,0.2l0.1,0.2l0.1,0.2
		l0.1,0.2l0.2,0.2l0.2,0.2l0.2,0.3l0.2,0.3l0.3,0.4l0.3,0.4l0.4,0.5l0.4,0.6l0.5,0.7l-0.3,0.3l-0.3,0.4l-0.3,0.4l-0.2,0.5l-0.2,0.5
		l-0.2,0.6l-0.2,0.7l-0.1,0.7l-0.1,0.8l-0.1,0.9l0,1l3,23.3l-0.7,4.2l-0.9,3.8l-1,3.5l-1.1,3.2l-1.2,2.9l-1.3,2.6l-1.4,2.3l-1.4,2
		l-1.5,1.8l-1.5,1.6l-1.5,1.4l-1.5,1.2l-1.5,1.1l-1.5,1l-1.4,0.9l-1.4,0.8l-1.3,0.7l-1.2,0.6l-1.1,0.6l-1,0.6l-1.5,0.6l-1.7,0.4
		l-1.9,0.1l-2-0.1l-2.2-0.4l-2.3-0.6l-2.4-0.8l-2.4-1l-2.5-1.1L280,133l-2.5-1.4l-2.4-1.6l-2.4-1.7l-2.3-1.8l-2.2-1.9l-1-1l-1-1
		l-1.9-2l-1.7-2.1l-1.5-2.1l-1.2-2.2l-1.1-2l-0.5-0.9l-0.4-0.8l-0.4-0.8l-0.4-0.8l-0.4-0.8l-0.4-0.8l-0.4-0.9l-0.4-0.9l-0.4-1
		l-0.5-1.1l-0.5-1.2l-0.6-1.4l-0.6-1.5l-0.7-1.7l-3.8-9l0-1.2l-0.1-1.2l-0.1-1.2l-0.2-1.2l-0.2-1.2l-0.3-1.2l-0.3-1.2l-0.3-1.2
		l-0.3-1.2l-0.3-1.2l-0.3-1.2l-0.3-1.1l-0.3-1.1l-0.3-1.1l-0.3-1l-0.2-1l-0.2-0.9l-0.1-0.8l-0.1-0.7l0-0.7l-0.6-2.7l-0.4-2.5
		l-0.2-2.3l-0.1-2.1l0.1-1.9l0.3-1.8l0.4-1.6l0.5-1.5l0.6-1.3l0.7-1.2l0.8-1.1l0.8-0.9l0.9-0.8l0.9-0.7l0.9-0.6l0.9-0.5l0.9-0.4
		l0.9-0.3l0.8-0.3l0.7-0.2l1.5-1.5l1.3-1.4l1.2-1.2l1.1-1.1l0.9-1l0.8-1l0.7-0.9l0.7-0.9l0.6-0.8l0.5-0.8l0.5-0.9l0.4-0.9l0.4-0.9
		l0.4-1l0.4-1.1l0.4-1.2l0.4-1.3l0.4-1.4l0.4-1.6l0.5-1.8l1.4,0.9l1.2,0.8l1.1,0.7l1.1,0.7l1,0.6l0.9,0.5l0.9,0.5l0.9,0.4l0.9,0.4
		l0.9,0.4l0.9,0.4l1,0.3l1.1,0.3l1.2,0.3l1.3,0.3l1.4,0.3l1.6,0.4l1.7,0.4l1.9,0.4L292,29l4.8,0.6L302.4,29z M251.4,85.7l0,0.9
		l0.1,1l0.1,1.1l0.2,1.3l0.1,0.7l0.3,1.1l0.4,1.4l0.6,1.7l0.7,1.9l0.8,2.1l0.9,2.2l1.1,2.3l1.2,2.4l1.2,2.4l1.3,2.4l1.4,2.3l1.5,2.2
		l1.5,2.1l1.6,1.9l1.6,1.6l1.6,1.3l1.6,1l1.6,0.6l1.7,0.2l0.7,0l0.5-0.1l0.3-0.3l0.1-0.4l0-0.5l-0.2-0.6l-0.3-0.7l-0.4-0.8l-0.4-0.8
		l-0.5-0.9l-1-1.7l-0.4-0.8l-0.4-0.8l-0.3-0.7l-0.2-0.6l-0.1-0.5l0-0.4l0.2-0.3l0.5-0.3l0.5-0.4l0.6-0.5l0.7-0.5l0.7-0.5l0.8-0.5
		l0.8-0.6l0.9-0.6l1-0.5l1-0.5l1.1-0.5l1.1-0.4l1.2-0.4l1.2-0.3l1.3-0.3l1.3-0.2l1.4-0.1l1.5,0l1.5,0.2l1.2-0.8l1.1-0.7l1-0.6l1-0.5
		l0.9-0.4l0.9-0.3l0.8-0.2l0.8-0.2l0.8-0.1l0.8-0.1l0.8-0.1l0.8-0.1l0.8-0.1l0.8-0.1l0.8-0.1l0.9-0.2l0.9-0.2l1-0.3l1-0.3l1.1-0.4
		l1.1-0.5l0.9-0.2l0.7,0.1l0.6,0.3l0.5,0.5l0.4,0.7l0.3,0.8l0.2,1l0.1,1l0.1,1.1l0.1,1.1l0.1,1.1l0.1,1l0.1,1l0.2,0.8l0.3,0.7
		l0.4,0.5l0.5,0.3l0.6,0.1l0.8-0.2l1.6-0.5l1.3-1.2l1.1-1.8l0.9-2.3l0.6-2.7l0.4-3.1l0.2-3.4l0-3.6l-0.2-3.7l-0.4-3.7l-0.5-3.7
		l-0.7-3.6l-0.9-3.4l-1-3.1l-1.2-2.7l-1.3-2.3l-1.4-1.8l-1.6-1.2l-1.7-0.6l-1.8,0.2l-0.4,0l-0.3,0l-0.3,0l-0.2,0l-0.2-0.1l-0.1-0.1
		l-0.1-0.2l-0.1-0.3l-0.1-0.3l-0.1-0.4l0-0.5l0-0.6l-0.1-1.6l-0.1-1l-0.1-1.1l-0.1-1.3l-0.1-1.4l-0.2-1.6l-0.2-1.7l-0.2-1.2
		l-0.4-1.2l-0.7-1.2l-0.9-1.1l-1.1-1l-1.3-0.9l-1.4-0.8l-1.6-0.7l-1.7-0.5l-1.8-0.3l-1.9-0.1l-2,0.1l-2,0.4l-2,0.7l-2.1,1l-2,1.3
		l-2,1.6l-2,2l-1.9,2.4l-1.8,2.8l-1-0.7l-1.3-0.6l-1.6-0.5l-1.8-0.4l-1.9-0.2l-2.1-0.1l-2.1,0.1l-2.1,0.3l-2.1,0.5l-2,0.7l-1.9,1
		l-1.7,1.2l-1.4,1.5l-1.1,1.7l-0.8,2l-0.4,2.4l0.1,2.7l0.6,3l1.1,3.4l1.7,3.7l-0.6,0.8l-0.6,0.7l-0.5,0.6l-0.5,0.6l-0.4,0.6
		l-0.4,0.5l-0.3,0.5l-0.3,0.5l-0.2,0.5l-0.2,0.6l-0.2,0.6l-0.1,0.6l-0.1,0.7l0,0.8L251.4,85.7z M301.9,125.2l0.7,0.4l0.6,0.4
		l0.7,0.3l0.7,0.2l0.8,0.1l0.8,0l0.8-0.2l0.8-0.3l0.8-0.5l0.7-0.7l0.7-0.9l0.6-1.1l0.5-1.4l0.4-1.6l0.3-1.9l0.2-2.2l0.1-2.5
		l-0.1-2.8l-0.2-3.2l-0.4-3.5l-5.2,1.9l-2.2,0.8l-2.1,0.7l-1.9,0.7l-1.7,0.6l-1.6,0.5l-1.5,0.5l-1.4,0.4l-1.4,0.4l-1.4,0.4l-1.4,0.3
		l-1.4,0.3l-1.4,0.3l-1.5,0.3l-1.6,0.3l-1.7,0.3l-1.8,0.3l-2,0.3l-2.1,0.3l0.6,2.2l0.6,2.1l0.7,2l0.7,1.8l0.7,1.7l0.7,1.5l0.7,1.4
		l0.7,1.2l0.8,1.1l0.8,0.9l0.8,0.7l0.9,0.6l0.9,0.4l1,0.2l1,0l1-0.2l1.1-0.3l1.2-0.5l1.2-0.7l1.3-0.9l0.5-0.5l0.5-0.5l0.4-0.5
		l0.3-0.5l0.3-0.5l0.2-0.5l0.1-0.5l0.1-0.5l0-0.5l-0.1-0.5l-0.2-0.4l-0.3-0.4l-0.3-0.4l-0.4-0.3l-0.5-0.3l-0.6-0.3l-0.7-0.2
		l-0.8-0.2l-0.9-0.1l-1,0l0.5-0.4l0.9-0.7l0.4-0.3l0.4-0.3l0.4-0.3l0.4-0.2l0.4-0.2l0.4-0.2l0.4-0.2l0.5-0.2l0.5-0.1l0.6-0.1
		l0.6-0.1l0.7-0.1l0.8-0.1l0.9,0l1,0l1.1,0l1.2,0l-0.9,1.4l-0.4,0.6l-0.3,0.5l-0.3,0.5l-0.2,0.5l-0.2,0.4l-0.1,0.4l-0.1,0.4l0,0.3
		l0,0.3l0.1,0.3l0.2,0.3l0.2,0.3l0.3,0.3l0.4,0.3l0.4,0.3l0.5,0.4L301.9,125.2z M301.9,125.2"/>
	<path class="st4" d="M252.4,97.5l0.7,1.7l0.6,1.5l0.6,1.4l0.5,1.2l0.5,1.1l0.4,1l0.4,0.9l0.4,0.9l0.4,0.8l0.4,0.8l0.4,0.8l0.4,0.8
		l0.4,0.8l0.5,0.9l1.1,2l-0.8-0.6l-0.7-0.5l-0.6-0.5l-0.6-0.4l-0.5-0.4l-0.5-0.4L256,111l-0.4-0.4l-0.4-0.4l-0.3-0.4l-0.3-0.5
		l-0.3-0.5l-0.4-0.5l-0.4-0.6l-0.4-0.7l-0.4-0.7l-0.5-0.8l-0.6-0.9l-0.6-1l-0.7-1.1l-0.9-1.5l-0.8-1.4l-0.7-1.3l-0.6-1.2l-0.5-1.1
		l-0.3-1l-0.3-0.9l-0.2-0.9l-0.1-0.8l0-0.7l0.1-0.6l0.1-0.5l0.2-0.5l0.2-0.4l0.3-0.3l0.3-0.3l0.3-0.2l0.3-0.2l0.4-0.1l0.4-0.1
		L252.4,97.5z M252.4,97.5"/>
	<path class="st4" d="M326.4,100.5l-3-23.3l0-1l0.1-0.9l0.1-0.8l0.1-0.7l0.2-0.7l0.2-0.6l0.2-0.5l0.2-0.5l0.3-0.4l0.3-0.4l0.3-0.3
		l0.3-0.3l0.3-0.3l0.3-0.2l0.3-0.2l0.3-0.2l0.3-0.2l0.3-0.2l0.3-0.2l0.3-0.2l1.1-0.2l1,0.3l0.9,0.7l0.7,1.1l0.6,1.4l0.5,1.7l0.4,1.9
		l0.2,2.1l0.1,2.2l0,2.3l-0.1,2.4l-0.3,2.4l-0.4,2.3l-0.5,2.3l-0.7,2.1l-0.8,2l-0.9,1.8l-1.1,1.5l-1.2,1.2L326.4,100.5z
		 M326.4,100.5"/>
	<path class="st8" d="M566.5,212.5l-1.1-0.8l-1.2-0.9l-1.2-1l-1.2-1.1l-1.1-1.2l-1.1-1.3l-1.1-1.4l-1-1.5l-0.9-1.6l-0.8-1.7
		l-0.7-1.8l-0.6-1.9l-0.5-2l-0.4-2.1l-0.2-2l0-0.2l0-2.3l0.1-0.3l0.2-0.3l0.2-0.4l0.3-0.4l0.4-0.4l0.5-0.4l0.5-0.4l0.5-0.4l0.6-0.4
		l0.6-0.3l0.6-0.3l0.6-0.3l0.6-0.2l0.6-0.2l0.5-0.1l0.5-0.1l0.4,0l0.4,0l0.3,0.1l0.2,0.2l-0.2,1.2l-0.1,1.3l0.1,1.4l0.2,1.4l0.3,1.5
		l0.4,1.5l0.6,1.5l0.7,1.5l0.8,1.5l0.8,1.5l0.9,1.4l1,1.4l1,1.3l1.1,1.2l1.1,1.1l1.2,1l1.2,0.9l1.2,0.7l1.2,0.6l1.2,0.4l0.3,0.1
		l0.2,0.2l0.1,0.3l0,0.4l-0.1,0.4l-0.2,0.5l-0.3,0.5l-0.4,0.6l-0.4,0.6l-0.5,0.6l-0.5,0.6l-0.5,0.5l-0.5,0.5l-0.5,0.4l-0.5,0.4
		l-0.5,0.3l-0.5,0.2l-0.4,0.1l-0.4-0.1l-0.3-0.2l-0.9-0.4l-1-0.5l-1-0.6L566.5,212.5z M566.5,212.5"/>
	<path class="st0" d="M286,811.3l0.4-14.6l26.7-2l4,14.2l-0.4-0.8l-0.5-0.7l-0.6-0.6l-0.7-0.5l-0.8-0.4l-0.8-0.3l-0.9-0.2l-1-0.2
		l-1.1-0.2l-1.2-0.1l-1.3-0.1l-1.4-0.1l-1.5-0.1l-1.6-0.2l-1.7-0.2l-1.9-0.2l-1.8-0.2l-1.6-0.1l-1.4,0l-1.3,0.1l-1.1,0.1l-1,0.2
		l-0.9,0.3l-0.8,0.4l-0.7,0.5l-0.6,0.6l-0.5,0.7l-0.5,0.8l-0.4,0.8l-0.4,0.9l-0.4,1L286,811.3z M286,811.3"/>
	<path class="st1" d="M286,811.3l0.3-1.1l0.4-1l0.4-0.9l0.4-0.8l0.5-0.8l0.5-0.7l0.6-0.6l0.7-0.5l0.8-0.4l0.9-0.3l1-0.2l1.1-0.1
		l1.3-0.1l1.4,0l1.6,0.1l1.8,0.2l1.9,0.2l1.7,0.2l1.6,0.2l1.5,0.1l1.4,0.1l1.3,0.1l1.2,0.1l1.1,0.2l1,0.2l0.9,0.2l0.8,0.3l0.8,0.4
		l0.7,0.5l0.6,0.6l0.5,0.7l0.4,0.8l0.3,1l0.3,1.1l0.2,1.3l0.1,1.5l0,1.6l0.8,2.6l0.6,2.5l0.4,2.4l0.2,2.3l0,2.2l-0.1,2.1l-0.2,2
		l-0.3,1.9l-0.4,1.8l-0.5,1.8l-0.5,1.7l-0.5,1.7l-1.1,3.2l-0.5,1.6l-0.5,1.5l-0.4,1.5l-0.3,1.5l-0.2,1.5l-0.1,1.5l-0.6,1.5l-0.6,1.2
		l-0.6,1l-0.6,0.8l-0.6,0.6l-0.6,0.4l-0.6,0.3l-0.6,0.1l-0.5,0l-0.5-0.1l-0.5-0.2l-0.5-0.3l-0.4-0.3l-0.4-0.4l-0.3-0.4l-0.3-0.4
		L306,856l-0.2-0.4l-0.1-0.4l-0.1-0.8l-0.4-0.7l-0.6-0.6l-0.9-0.6l-1.1-0.5l-1.3-0.4l-1.4-0.3l-1.6-0.3l-1.7-0.2l-1.9-0.1l-2-0.1
		l-2.1,0l-2.1,0.1l-2.2,0.1l-2.2,0.2l-2.3,0.3l-2.3,0.3l-2.3,0.4l-2.3,0.5l-2.2,0.5l-0.5,0.1l-0.5,0.1l-0.4,0.2l-0.4,0.2l-0.4,0.2
		l-0.4,0.2l-0.4,0.1l-0.4,0.1l-0.4,0.1l-0.3,0.1l-0.3,0l-0.3,0l-0.3,0l-0.3-0.1l-0.3-0.1l-0.3-0.2l-0.3-0.2l-0.3-0.3l-0.4-0.4
		l-0.4-0.5l-0.1-1.1l0.1-1.2l0.4-1.3l0.6-1.4l0.8-1.5l0.9-1.6l1.1-1.7l1.2-1.8l1.3-1.9l2.8-4l1.4-2.1l1.4-2.1l1.4-2.2l1.3-2.2
		l1.3-2.2l1.2-2.3l1-2.3l0.9-2.3l0.7-2.3l0.4-1.4l0.4-1.3L286,811.3z M286,811.3"/>
	<path class="st4" d="M313.1,794.7l-26.7,2l-0.3-5.6l-0.8-6l-1.3-6.4l-1.7-6.7l-2-7l-2.2-7.3l-2.4-7.5l-5.1-15.5l-2.6-8l-2.5-8.1
		l-2.3-8.1l-2.1-8.2l-1.8-8.2l-1.4-8.1l-1-8.1l-0.5-8l0.1-7.9l0.8-7.7l1.5-7.5l0.5-2.7l0.4-2.5l0.4-2.3l0.3-2.2l0.2-2l0.2-1.9
		l0.1-1.8l0.1-1.6l0.1-1.5l0-1.3l0-1.2l0-1.1l0-0.9l-0.1-0.8l-0.1-0.7l-0.1-0.5l-0.1-0.4l0-0.3l0-0.2l0-0.1l4.7,0.5l4.8,0.3l5,0.2
		l5,0l5.1-0.3l5.1-0.5l5.1-0.8l5.1-1l5-1.3l4.9-1.6l2.4-1l-1.2,4.7l-1.1,4.3l-1,4l-0.9,3.7l-0.7,3.4l-0.6,3.1l-0.5,2.9l-0.4,2.7
		l-0.3,2.6l-0.2,2.4l-0.1,2.3l0,2.3l0.1,2.2l0.2,2.2l0.3,2.3l0.4,2.3l0.5,2.4l0.6,2.5l0.7,2.6l0.8,2.8l1.1,4.8l0.8,5.3l0.5,5.7
		l0.2,6l0,6.3l-0.2,6.5l-0.3,6.7l-0.4,6.9l-0.5,6.9l-0.5,7l-0.5,6.9l-0.4,6.9l-0.3,6.7l-0.2,6.6l0,6.3l0.3,6l0.5,5.7l0.8,5.3
		l1.2,4.8L313.1,794.7z M313.1,794.7"/>
	<path class="st4" d="M447,791.1l-33.2,11.2l-4-18.2l-1.1-4.9l-1-4.4l-0.9-4l-0.8-3.6l-0.8-3.2l-0.7-3l-0.7-2.7l-0.7-2.6l-0.7-2.4
		l-0.7-2.3l-0.7-2.3l-0.8-2.4l-0.8-2.4l-0.9-2.6l-1-2.8l-1.1-3l-1.2-3.3l-2.6-3.1l-2.4-3.3l-2.2-3.6l-2-3.8l-1.8-4l-1.6-4.3
		l-1.4-4.5l-1.2-4.7l-1-4.8l-0.9-5l-0.8-5.1l-0.6-5.3l-0.5-5.4l-0.4-5.5l-0.3-5.6l-0.2-5.7l-0.2-5.8l-0.1-5.8l-0.1-5.9l0-5.9
		l-6.9-15.4l5.9-0.5l5.9-0.7l5.9-0.8l5.9-1l5.8-1.1l5.7-1.2l5.6-1.3l5.4-1.4l5.2-1.5l5-1.5l0.5,3.4l0.4,3.1l0.3,2.9l0.1,2.7l0,2.4
		l-0.1,2.2l-0.1,2l-0.2,1.9l-0.3,1.7l-0.3,1.5l-0.3,1.4l-0.3,1.3l-0.3,1.2l-0.3,1.1l-0.3,1l-0.2,1l-0.2,0.9l-0.1,0.9l0,0.9l0.1,0.8
		l1.6,4.3l1.4,5.1l1.3,5.8l1.1,6.5l1,7.1l0.9,7.6l0.8,8l0.8,8.3l1.5,17.3l0.8,8.8l0.9,8.8l0.9,8.7l1,8.5l1.2,8.3l1.3,8l1.5,7.6
		l1.7,7.1l2,6.5L447,791.1z M447,791.1"/>
	<path class="st2" d="M265.4,852.7l0.4,0.5l0.4,0.4l0.3,0.3l0.3,0.2l0.3,0.2l0.3,0.1l0.3,0.1l0.3,0l0.3,0l0.3,0l0.3-0.1l0.4-0.1
		l0.4-0.1l0.4-0.1l0.4-0.2l0.4-0.2l0.4-0.2l0.4-0.2l0.5-0.1l0.5-0.1l2.2-0.5l2.3-0.5l2.3-0.4l2.3-0.3l2.3-0.3l2.2-0.2l2.2-0.1
		l2.1-0.1l2.1,0l2,0.1l1.9,0.1l1.7,0.2l1.6,0.3l1.4,0.3l1.3,0.4l1.1,0.5l0.9,0.6l0.6,0.6l0.4,0.7l0.1,0.8l0.1,0.4l0.2,0.4l0.2,0.4
		l0.3,0.4l0.3,0.4l0.4,0.4l0.4,0.3l0.5,0.3l0.5,0.2l0.5,0.1l0.5,0l0.6-0.1l0.6-0.3l0.6-0.4l0.6-0.6l0.6-0.8l0.6-1l0.6-1.2l0.6-1.5
		l0,1.1l0,1.1l0,1.1l0,1.1l-0.1,1.1l-0.2,1l-0.3,1l-0.5,0.9l-0.6,0.9l-0.8,0.8l-1,0.7l-1.3,0.6l-1.5,0.6l-1.8,0.5l-2.1,0.4l-2.4,0.2
		l-2.8,0.1l-3.1,0l-3.5-0.1l-3.9-0.3l-2.3-0.2l-2.1-0.2l-2-0.3l-1.8-0.3l-1.7-0.3l-1.6-0.3l-1.4-0.4l-1.3-0.4l-1.2-0.5l-1.1-0.5
		l-1-0.6l-0.9-0.6l-0.8-0.7l-0.7-0.8l-0.7-0.9l-0.6-0.9l-0.5-1l-0.5-1.1l-0.4-1.2L265.4,852.7z M265.4,852.7"/>
	<path class="st4" d="M156.5,274.6l5.8,2.7l5.1,2.5l4.5,2.4l4,2.3l3.4,2.1l2.9,2l2.5,1.8l2.1,1.7l1.7,1.6l1.4,1.4l1.1,1.3l0.9,1.1
		l-3.5,3.2l-3.2,2.9l-3,2.6l-2.8,2.4l-2.6,2.1l-2.4,1.9l-2.2,1.6l-2.1,1.4l-1.9,1.2l-1.8,1.1l-1.7,0.9l-1.6,0.7l-1.5,0.6l-1.4,0.5
		l-1.4,0.4l-1.3,0.3l-1.3,0.2l-1.3,0.1l-1.3,0.1l-1.3,0l-1,0l-0.9-0.1l-0.9-0.1l-0.8-0.2l-0.8-0.3l-0.9-0.4l-0.9-0.5l-1-0.6
		l-1.1-0.8l-1.2-0.9l-1.3-1.1l-1.5-1.2l-1.7-1.4l-4.1-3.3l-2.4-2l-2.7-2.2l-3-2.4l-3.4-2.6l-3.7-2.9l-2.6-2l-2.8-2.3l-3-2.6
		l-3.1-2.9l-3.2-3.1l-3.2-3.2l-3.3-3.3l-3.3-3.4l-3.2-3.4l-3.2-3.4l-3-3.3l-2.9-3.2l-2.8-3.1l-2.6-2.9l-2.3-2.6l-3.8-4.3l-1.5-1.6
		l-1.1-1.2l-0.7-0.8l-1.1-1.1l-1.2-1.1l-1.3-1.2l-1.4-1.2l-1.5-1.2l-1.6-1.2l-1.6-1.2l-3.4-2.5l-1.8-1.3l-1.8-1.4l-1.8-1.4l-1.8-1.4
		l-1.7-1.5l-1.7-1.5l-1.7-1.6l-1.6-1.6l-1.5-1.7l-1.5-1.7l-1.4-1.8l-1.1-0.1l-1.2-0.3l-1.3-0.5l-1.3-0.7l-1.4-0.8l-1.4-0.9l-1.4-1.1
		l-1.4-1.2l-1.4-1.2l-1.4-1.3l-1.3-1.3l-1.2-1.4l-1.2-1.4l-1.1-1.4l-0.9-1.3l-0.8-1.3l-0.7-1.2l-0.5-1.1l-0.3-1l-0.1-0.9l0.6-0.5
		l0.5-0.5l0.5-0.4L17,196l0.5-0.3l0.5-0.2l0.5-0.1l0.5,0l0.5,0.1l0.5,0.2l0.6,0.3l0.6,0.4l0.7,0.5l0.8,0.6l0.9,0.8l0.9,0.9l1,1
		l1.2,1.2l1.3,1.3l1.4,1.5l0-1.9l0-1.7l0-1.6l0-1.4l0-1.3l0-1.2l0-1l0.1-0.9l0.1-0.8l0.1-0.7l0.1-0.6l0.1-0.5l0.1-0.4l0.2-0.3
		l0.2-0.3l0.2-0.2l0.2-0.2l0.2-0.1l0.3-0.1l0.3,0l0.9,0l0.7,0l0.6,0.1l0.5,0.1l0.5,0.2l0.4,0.3l0.3,0.4l0.3,0.5l0.2,0.6l0.2,0.7
		l0.2,0.9l0.2,1l0.2,1.2l0.5,2.9l0.3,1.7l0.2,0.9l0-0.1l0.1-0.2l0.1-0.2l0.2-0.2l0.2-0.2l0.2-0.2l0.3-0.1l0.3-0.1l0.3-0.1l0.4,0
		l0.4,0l0.5,0.1l0.5,0.1l0.6,0.2l0.6,0.2l0.7,0.3l0.7,0.3l0.8,0.4l0.3-1.7l0.3-1.5l0.3-1.4l0.4-1.2l0.4-1.1l0.4-1l0.4-0.8l0.5-0.7
		l0.5-0.6l0.6-0.5l0.7-0.4l0.7-0.3l0.8-0.2l0.9,0l0.9,0.4l0.7,0.6l0.5,0.8l0.3,0.9l0.2,1.1l0.1,1.3l0,1.4l-0.1,1.5l-0.1,1.6
		l-0.2,1.7l-0.2,1.8l-0.2,1.9l-0.2,1.9l-0.1,1.7l0,0l0.1,0.1l0.1,0.1l0.1,0.1l0.2,0.1l0.2,0.1l0.2,0.2l0.3,0.2l0.3,0.2l0.4,0.2
		l0.5,0.3l0.5,0.3l0.6,0.3l0.7,0.4l0.8,0.4l0.2-1.9l0.2-1.7l0.3-1.4l0.3-1.2l0.3-1l0.3-0.8l0.3-0.6l0.4-0.4l0.4-0.3l0.4-0.2l0.4-0.1
		l0.4,0l0.4,0.1l0.4,0.1l0.4,0.1l0.8,0.3l0.6,0.3l0.4,0.3l0.3,0.4l0.2,0.4l0.1,0.5l0,0.6l0,0.7l-0.1,0.8l-0.1,0.9l-0.1,1.1l-0.1,1.3
		l0,1.4l0,1.6l0.1,1.5l3,1.5l1.6,0.8l1.4,0.6l1.2,0.5l1.1,0.5l1,0.4l0.9,0.4l0.8,0.5l0.7,0.5l0.7,0.6l0.7,0.7l0.7,0.9l0.8,1l0.8,1.3
		l0.9,1.5l1,1.8l1.1,2.1l1.3,2.4l1.5,2.8l1.7,3.2l2.4,2.7l2.7,2.5l3,2.3l3.3,2.2l3.5,2.1l3.7,2l3.9,2l4,1.9l4.1,1.9l4.2,1.9l4.2,1.9
		l4.2,2l4.2,2.1l4.2,2.2l4.1,2.3l3.9,2.4l2.1,1.5l1.3-1.5L156.5,274.6z M156.5,274.6"/>
	<path class="st4" d="M251.4,86.6l0-0.9l0-0.8l0-0.8l0.1-0.7l0.1-0.6l0.2-0.6l0.2-0.6l0.2-0.5l0.3-0.5l0.3-0.5l0.4-0.5l0.4-0.6
		l0.5-0.6l0.5-0.6l0.6-0.7l0.6-0.8l-1.7-3.7l-1.1-3.4l-0.6-3l-0.1-2.7l0.4-2.4l0.8-2l1.1-1.7l1.4-1.5l1.7-1.2l1.9-1l2-0.7l2.1-0.5
		l2.1-0.3l2.1-0.1l2.1,0.1l1.9,0.2l1.8,0.4l1.6,0.5l1.3,0.6l1,0.7l1.8-2.8l1.9-2.4l2-2l2-1.6l2-1.3l2.1-1l2-0.7l2-0.4l2-0.1l1.9,0.1
		l1.8,0.3l1.7,0.5l1.6,0.7l1.4,0.8l1.3,0.9l1.1,1l0.9,1.1l0.7,1.2l0.4,1.2l0.2,1.2l0.2,1.7l0.2,1.6l0.1,1.4l0.1,1.3l0.1,1.1l0.1,1
		l0.1,1.6l0,0.6l0,0.5l0.1,0.4l0.1,0.3l0.1,0.3l0.1,0.2l0.1,0.1l0.2,0.1l0.2,0l0.3,0l0.3,0l0.4,0l1.8-0.2l1.7,0.6l1.6,1.2l1.4,1.8
		l1.3,2.3L320,72l1,3.1l0.9,3.4l0.7,3.6l0.5,3.7l0.4,3.7l0.2,3.7l0,3.6l-0.2,3.4l-0.4,3.1l-0.6,2.7l-0.9,2.3l-1.1,1.8l-1.3,1.2
		l-1.6,0.5l-0.8,0.2l-0.6-0.1l-0.5-0.3l-0.4-0.5l-0.3-0.7l-0.2-0.8l-0.1-1l-0.1-1l-0.1-1.1l-0.1-1.1l-0.1-1.1l-0.1-1l-0.2-1
		l-0.3-0.8l-0.4-0.7l-0.5-0.5l-0.6-0.3l-0.7-0.1l-0.9,0.2l-1.1,0.5l-1.1,0.4l-1,0.3l-1,0.3l-0.9,0.2l-0.9,0.2l-0.8,0.1l-0.8,0.1
		l-0.8,0.1l-0.8,0.1l-0.8,0.1l-0.8,0.1l-0.8,0.1l-0.8,0.2l-0.8,0.2l-0.9,0.3l-0.9,0.4l-1,0.5l-1,0.6l-1.1,0.7l-1.2,0.8l-1.5-0.2
		l-1.5,0l-1.4,0.1l-1.3,0.2l-1.3,0.3l-1.2,0.3L282,107l-1.1,0.4l-1.1,0.5l-1,0.5l-1,0.5l-0.9,0.6l-0.8,0.6l-0.8,0.5l-0.7,0.5
		l-0.7,0.5l-0.6,0.5l-0.5,0.4l-0.5,0.3l-0.2,0.3l0,0.4l0.1,0.5l0.2,0.6l0.3,0.7l0.4,0.8l0.4,0.8l1,1.7l0.5,0.9l0.4,0.8l0.4,0.8
		l0.3,0.7l0.2,0.6l0,0.5l-0.1,0.4l-0.3,0.3l-0.5,0.1l-0.7,0l-1.7-0.2l-1.6-0.6l-1.6-1l-1.6-1.3l-1.6-1.6l-1.6-1.9l-1.5-2.1l-1.5-2.2
		l-1.4-2.3l-1.3-2.4l-1.2-2.4l-1.2-2.4l-1.1-2.3l-0.9-2.2l-0.8-2.1l-0.7-1.9l-0.6-1.7l-0.4-1.4l-0.3-1.1l-0.1-0.7l-0.2-1.3l-0.1-1.1
		L251.4,86.6z M251.4,86.6"/>
	<path class="st4" d="M302.6,125.6l-0.7-0.4l-0.6-0.4l-0.5-0.4l-0.4-0.3l-0.4-0.3l-0.3-0.3l-0.2-0.3l-0.2-0.3l-0.1-0.3l0-0.3l0-0.3
		l0.1-0.4l0.1-0.4l0.2-0.4l0.2-0.5l0.3-0.5l0.3-0.5l0.4-0.6l0.9-1.4l-1.2,0l-1.1,0l-1,0l-0.9,0l-0.8,0.1l-0.7,0.1l-0.6,0.1l-0.6,0.1
		l-0.5,0.1l-0.5,0.2l-0.4,0.2l-0.4,0.2l-0.4,0.2l-0.4,0.2l-0.4,0.3l-0.4,0.3l-0.4,0.3l-0.9,0.7l-0.5,0.4l1,0l0.9,0.1l0.8,0.2
		l0.7,0.2l0.6,0.3l0.5,0.3l0.4,0.3l0.3,0.4l0.3,0.4l0.2,0.4l0.1,0.5l0,0.5l-0.1,0.5l-0.1,0.5l-0.2,0.5l-0.3,0.5l-0.3,0.5l-0.4,0.5
		l-0.5,0.5l-0.5,0.5l-1.3,0.9l-1.2,0.7l-1.2,0.5l-1.1,0.3l-1,0.2l-1,0l-1-0.2l-0.9-0.4l-0.9-0.6l-0.8-0.7l-0.8-0.9l-0.8-1.1
		l-0.7-1.2l-0.7-1.4l-0.7-1.5l-0.7-1.7l-0.7-1.8l-0.7-2l-0.6-2.1l-0.6-2.2l2.1-0.3l2-0.3l1.8-0.3l1.7-0.3l1.6-0.3l1.5-0.3l1.4-0.3
		l1.4-0.3l1.4-0.3l1.4-0.4l1.4-0.4l1.4-0.4l1.5-0.5l1.6-0.5l1.7-0.6l1.9-0.7l2.1-0.7l2.2-0.8l5.2-1.9l0.4,3.5l0.2,3.2l0.1,2.8
		l-0.1,2.5l-0.2,2.2l-0.3,1.9l-0.4,1.6l-0.5,1.4l-0.6,1.1l-0.7,0.9l-0.7,0.7l-0.8,0.5l-0.8,0.3l-0.8,0.2l-0.8,0l-0.8-0.1l-0.7-0.2
		l-0.7-0.3L302.6,125.6z M302.6,125.6"/>
	<path class="st9" d="M414.2,814l-0.4-0.6 M413.8,813.3l-0.4-0.4 M413.4,812.9l-0.4-0.3 M413,812.6l-0.4-0.1 M412.6,812.5l-0.4,0.1
		 M412.1,812.6l-0.4,0.2 M411.7,812.8l-0.4,0.3 M411.3,813.1l-0.4,0.4 M410.9,813.5l-0.3,0.5 M410.6,814l-0.3,0.6 M410.3,814.6
		l-0.2,0.7 M410.1,815.3l-0.2,0.7 M409.9,816l-0.1,0.8 M409.9,816.8l0,0.8 M409.9,817.6l0.1,0.8 M410,818.3l0.2,0.8 M410.2,819.1
		l0.4,0.7 M410.6,819.9l0.5,0.7 M411.1,820.6l0.6,0.7 M411.7,821.2l0.8,0.6 M412.5,821.8L411,826 M411,826l-0.9,3.8 M410.2,829.8
		l-0.3,3.3 M410.5,834.2l-0.6-1.1 M411.2,835.1l-0.7-1 M412,836.1l-0.8-0.9 M412.8,836.9l-0.8-0.8 M413.7,837.7l-0.9-0.8
		 M414.7,838.4l-1-0.7 M415.7,839l-1-0.6 M416.8,839.6l-1.1-0.6 M417.8,840.2l-1.1-0.5 M419,840.6l-1.1-0.5 M420.1,841l-1.1-0.4
		 M421.2,841.4l-1.2-0.4 M422.4,841.7l-1.2-0.3 M423.6,842l-1.2-0.3 M424.7,842.2l-1.2-0.2 M425.9,842.4l-1.2-0.2 M427,842.5
		l-1.1-0.1 M428.1,842.6l-1.1-0.1 M429.2,842.7l-1.1-0.1 M430.3,842.7l-1,0 M432,842.7l-1.7,0 M433.6,842.6l-1.6,0.1 M435.2,842.5
		l-1.6,0.1 M436.8,842.3l-1.6,0.1 M438.3,842.2l-1.5,0.1 M439.9,842.1l-1.5,0.1 M441.4,842l-1.5,0.1 M442.9,841.9l-1.5,0.1
		 M444.5,841.9l-1.6,0 M446.1,842l-1.6-0.1 M447.8,842.1l-1.7-0.1 M449.5,842.4l-1.7-0.2 M451.3,842.7l-1.8-0.4 M453.2,843.2
		l-1.9-0.5 M455.2,843.8l-2-0.6 M457.4,844.6l-2.1-0.8 M459.6,845.5l-2.3-1 M462,846.7l-2.4-1.1 M464.6,848l-2.6-1.3 M467.4,849.6
		l-2.8-1.6 M469.7,849.5l-2.3,0.1 M471.8,849.2l-2.1,0.2 M473.7,848.9l-1.9,0.4 M475.4,848.3l-1.7,0.5 M476.9,847.7l-1.6,0.6
		 M478.4,847l-1.4,0.7 M479.7,846.2l-1.4,0.8 M481.1,845.3l-1.3,0.9 M482.4,844.4l-1.3,0.9 M483.7,843.4l-1.4,1 M485.2,842.5l-1.4,1
		 M486.7,841.5l-1.5,1 M488.3,840.5l-1.7,1 M490.2,839.6l-1.8,1 M492.2,838.6l-2,0.9 M494.5,837.8l-2.3,0.9 M497,837l-2.6,0.8
		 M499.9,836.3L497,837 M503.1,835.7l-3.2,0.6 M504.9,835.5l-1.8,0.2 M504.9,835.5l-1.5-0.1 M503.4,835.4l-1.5-0.2 M501.9,835.2
		l-1.4-0.3 M500.4,834.9l-1.4-0.4 M499,834.6l-1.4-0.5 M497.6,834.1l-1.4-0.6 M496.2,833.5l-1.4-0.7 M494.8,832.8l-1.4-0.8
		 M493.5,832l-1.4-0.8 M492,831.2l-1.4-0.9 M490.6,830.3l-1.5-1 M489.1,829.3l-1.5-1.1 M487.6,828.2l-1.6-1.1 M486,827.1l-1.7-1.2
		 M484.3,825.9l-1.8-1.2 M482.6,824.7l-1.8-1.3 M480.7,823.4l-2-1.3 M478.8,822.1l-2.1-1.3 M476.7,820.8l-2.2-1.4 M474.5,819.4
		l-2.3-1.4 M472.2,818l-1-0.9 M471.2,817.1l-0.9-0.9 M468.6,814.7l-0.7-0.7 M467.8,814l-0.7-0.6 M467.2,813.3l-0.6-0.6 M466.5,812.8
		l-0.6-0.5 M465.9,812.3l-0.6-0.4 M465.3,811.8l-0.6-0.4 M464.8,811.4l-0.6-0.3 M464.2,811.1l-0.6-0.3 M463.6,810.8l-0.6-0.2
		 M463,810.6l-0.6-0.2 M462.4,810.4l-0.6-0.1 M461.8,810.3l-0.7-0.1 M461.1,810.2l-0.7,0 M460.4,810.2l-0.8,0 M459.7,810.2l-0.8,0.1
		 M458.8,810.2l-0.9,0.1 M457.9,810.3l0.3-1.7 M458.2,808.6l0.2-1.5 M458.5,807.1l0.1-1.3 M458.6,805.7l0-1.2 M458.6,804.6l-0.1-1
		 M458.6,803.6l-0.1-0.9 M458.4,802.7l-0.2-0.7 M458.2,802l-0.3-0.6 M457.9,801.4l-0.4-0.5 M457.5,800.9l-0.5-0.4 M457,800.6
		l-0.6-0.3 M456.4,800.3l-0.7-0.2 M455.7,800.1l-0.8-0.1 M454.9,800l-0.9,0 M454.1,800l-0.9,0 M453.1,800.1l-1,0.1 M452.1,800.2
		l-1.1,0.1 M450.9,800.3l-1.2,0.2 M449.7,800.5l-1.3,0.2 M448.4,800.6l-1.4,0.2 M447.1,800.8l-1.4,0 M445.7,800.9l-1.3,0.1
		 M444.4,801l-1.2,0.2 M443.2,801.2l-1.1,0.3 M442.2,801.4l-0.9,0.3 M441.2,801.7l-0.8,0.4 M440.4,802.1l-0.7,0.5 M439.7,802.6
		l-0.6,0.5 M439.1,803.1l-0.5,0.6 M438.6,803.7l-0.4,0.7 M438.3,804.4l-0.2,0.7 M438,805.2l-0.1,0.8 M437.9,806l0,0.9 M437.9,806.8
		l0.1,0.9 M438,807.8l0.2,1 M438.2,808.8l0.4,1.1 M438.6,809.9l0.5,1.1 M439.1,811l0.6,1.2 M439.7,812.2l0.7,1.3 M440.4,813.5
		l0.9,1.3 M441.3,814.8l-2.3,1.5 M435,818.9l-1.8,1.2 M433.2,820.1l-1.7,1 M431.5,821.1l-1.6,0.9 M429.9,822.1l-1.5,0.8
		 M428.4,822.8l-1.4,0.6 M427,823.4l-1.3,0.4 M425.8,823.9l-1.2,0.3 M424.5,824.1l-1.1,0.1 M423.4,824.2l-1.1-0.1 M422.3,824
		l-1.1-0.4 M421.2,823.6l-1-0.6 M420.2,823l-1-0.8 M419.2,822.2l-1-1.1 M418.2,821.1l-1-1.4 M417.3,819.8l-1-1.6 M416.3,818.1
		l-1-1.9 M415.3,816.2l-1-2.2 M334.9,133.7l1,0.7 M335,132.7l-0.1,1.1 M335.1,131.7l-0.1,1 M335.2,130.8l-0.1,0.9 M335.3,129.9
		l-0.1,0.9 M335.3,129.1l0,0.8 M335.3,128.3l0.1,0.8 M335.1,127.6l0.2,0.7 M334.8,126.9l0.3,0.7 M334.3,126.1l0.5,0.7 M333.6,125.4
		l0.7,0.7 M332.6,124.7l0.9,0.7 M331.4,123.9l1.2,0.8 M329.9,123.1l1.5,0.8 M328,122.2l1.8,0.9 M325.8,121.3l2.2,0.9 M323.2,120.4
		l2.6,1 M323.4,121.6l-0.1-1.3 M323.5,122.9l-0.2-1.3 M324.1,127.3l-0.2-1.5 M324.3,129l-0.2-1.6"/>
	<path class="st9" d="M324.5,130.7l-0.2-1.7 M324.7,132.5l-0.2-1.8 M324.8,134.4l-0.1-1.9 M324.9,136.3l-0.1-2 M325,138.4l-0.1-2.1
		 M325,140.7l0-2.2 M325,140.7l-1.1,0.5 M323.9,141.1l-0.9,0.6 M323,141.7l-0.8,0.7 M322.3,142.4l-0.6,0.8 M321.7,143.3l-0.5,0.9
		 M321.2,144.2l-0.3,1 M320.9,145.2l-0.2,1 M320.6,146.2l-0.1,1.1 M320.5,147.2l0,1.1 M320.5,148.3l0,1.1 M320.5,149.4l0.1,1.1
		 M320.6,150.5l0.1,1 M320.7,151.5l0.2,1 M320.9,152.4l0.2,0.9 M321.1,153.3l0.2,0.8 M321.4,154.1l0.2,0.7 M321.6,154.8l0.2,0.6
		 M321.8,155.4l0.2,0.4 M322,155.8l0.2,0.3 M322.2,156.1l0.1,0.1 M322.4,156.2l-0.1,2 M322.2,158.1l-0.4,1.8 M321.8,159.9l-0.6,1.7
		 M321.2,161.6l-0.8,1.6 M320.5,163.2l-0.9,1.5 M319.5,164.7l-1,1.5 M318.5,166.2l-1.1,1.5 M317.5,167.8l-1.1,1.6 M316.4,169.4
		l-1.1,1.7 M315.3,171l-1,1.8 M314.2,172.8l-0.2,0.4 M314,173.2l-0.8,1.5 M313.3,174.7l-0.8,2.1 M312.4,176.9l-0.7,2.4 M311.8,179.3
		l-0.5,2.6 M311.3,181.9l-0.2,2.9 M311.1,184.8l0,3.3 M311.1,188.1l0.3,3.6 M311.4,191.7l0.7,4 M312.1,195.8l1.1,4.5 M313.2,200.2
		l1.5,5 M314.7,205.2l1.9,6.6 M316.6,211.8l1.9,6.7 M318.5,218.5l1.8,6.9 M320.3,225.4l1.8,7 M322.1,232.3l1.7,7.1 M323.8,239.4
		l1.6,7.2 M325.4,246.6l1.6,7.2 M327,253.8l1.5,7.3 M328.4,261.1l1.4,7.4 M329.8,268.5l1.3,7.4 M331.1,275.9l1.2,7.4 M332.3,283.4
		l1.1,7.5 M333.4,290.8l1,7.5 M334.4,298.3l0.9,7.5 M335.3,305.8l0.8,7.4 M336,313.2l0.6,7.4 M336.7,320.6l0.5,7.4 M337.2,328
		l0.4,7.3 M337.5,335.3l0.2,7.2 M337.8,342.5l0.1,7.2 M337.8,349.7l0.1,6.2 M337.9,356l0.2,5.8 M338.2,361.7l0.4,5.3 M338.5,367.1
		l0.5,4.9 M339,372l0.6,4.5 M339.6,376.5l0.7,4.2 M340.3,380.7l0.7,3.8 M341,384.5l0.8,3.5 M341.8,388l0.8,3.2 M342.6,391.2l0.8,2.9
		 M343.5,394.2l0.8,2.7 M344.3,396.8l0.8,2.5 M345.1,399.3l0.8,2.3 M345.9,401.5l0.7,2.1 M346.7,403.6l0.7,1.9 M347.3,405.5l0.6,1.8
		 M347.9,407.3l0.5,1.7 M348.4,409l0.4,1.6 M348.8,410.6l0.2,1.6 M349,412.2l0.1,1.5 M350.7,435.9l0.7,1.5 M351.4,437.4l0.6,1.4
		 M352.1,438.8l0.6,1.3 M352.6,440.1l0.5,1.2 M353.1,441.3l0.4,1.1 M353.6,442.4l0.4,1 M353.9,443.4l0.3,1 M354.3,444.4l0.3,0.9
		 M354.5,445.3l0.2,0.8 M354.8,446.1l0.2,0.8 M354.9,446.9l0.1,0.8 M355.1,447.7l0.1,0.8 M355.2,448.4l0.1,0.7 M355.3,449.2l0.1,0.7
		 M355.3,449.9l0,0.8 M355.3,450.7l0,0.8 M355.4,451.4l0,0.8 M355.4,452.2l0,0.8 M355.3,454.9l7-0.8 M362.3,454.1l6.3-0.9
		 M368.7,453.2l5.7-1.1 M374.3,452.1l5-1.2 M379.4,450.9l4.5-1.3 M383.9,449.6l4-1.4 M387.8,448.2l3.5-1.6 M391.3,446.6l3.1-1.7
		 M394.4,445l2.7-1.8 M397,443.2l2.3-1.9 M399.4,441.3l2-2 M401.4,439.3l1.8-2.1 M403.2,437.3l1.6-2.2 M404.8,435.1l1.4-2.3
		 M406.2,432.8l0.3-0.5 M406.5,432.4l1-1.9 M407.5,430.5l1.2-2.4 M408.8,428.1l1.2-2.5 M410,425.6l1.2-2.6 M411.2,423l1.3-2.6
		 M412.5,420.4l1.4-2.7 M413.8,411.5l0.1,6.1 M413.4,405.5l0.4,6 M412.8,399.5l0.6,6 M412,393.6l0.8,5.9 M411.1,387.8l0.9,5.9
		 M410,381.9l1.1,5.8 M408.9,376.2l1.1,5.8 M407.7,370.4l1.2,5.7 M404,353.2l1.2,5.7 M402.8,347.5l1.1,5.7 M401.8,341.7l1,5.8
		 M400.9,335.9l0.9,5.8 M400.1,330.1l0.8,5.8 M399.6,324.2l0.6,5.9 M399.3,318.2l0.3,6 M399.2,312.2l0.1,6 M399.4,306.1l-0.2,6.1
		 M399.9,299.9l-0.5,6.2 M399.9,297.1l0,2.8 M399.9,294.5l0,2.6 M399.9,292l0,2.5 M399.9,289.6l0,2.4 M399.9,287.2l0,2.4 M400,284.8
		l-0.1,2.4 M400.1,282.3l-0.1,2.5 M400.3,279.6l-0.2,2.6 M400.5,276.8l-0.2,2.8 M400.9,273.7l-0.3,3.1 M401.3,270.3l-0.4,3.4
		 M401.8,266.6l-0.5,3.7 M402.4,262.4l-0.6,4.2 M403.2,257.8l-0.7,4.6 M404,252.7l-0.9,5.1 M405,247l-1,5.7 M406.2,240.6L405,247
		 M406.8,237.5l-0.6,3.1 M408.4,238.7l-0.5-0.4 M408.9,239l-0.5-0.3 M409.3,239.4l-0.5-0.3 M409.8,239.7l-0.5-0.4 M410.3,240.1
		l-0.5-0.4 M410.9,240.6l-0.6-0.5 M411.5,241.1l-0.6-0.5 M412.2,241.7l-0.7-0.6 M413,242.5l-0.8-0.7 M413.9,243.3l-0.9-0.9
		 M414.9,244.3l-1-1 M416,245.5l-1.1-1.2 M417.3,246.8l-1.3-1.3 M418.8,248.4l-1.4-1.5 M420.4,250.1l-1.6-1.8 M422.2,252.1l-1.8-2
		 M424.2,254.4l-2-2.2 M426.4,256.9l-2.2-2.5 M428.9,259.7l-2.5-2.8 M431.6,257.1l-2.7,2.6 M434.3,254.5l-2.8,2.5 M435.7,253.3
		l-1.4,1.2 M437.1,252.1l-1.4,1.2 M439.9,249.7l-2.8,2.4 M442.7,247.4l-2.8,2.3 M445.5,245.2l-2.8,2.2 M448.3,243.1l-2.8,2.1
		 M451,241l-2.7,2.1 M453.7,239l-2.6,2 M456.2,237.1l-2.6,1.9 M458.7,235.2l-2.5,1.9 M461,233.4l-2.3,1.8 M463.2,231.6l-2.2,1.8
		 M465.2,229.8l-2,1.8 M467,228l-1.8,1.7 M468.7,226.3L467,228 M470.1,224.6l-1.4,1.7 M471.3,222.9l-1.2,1.7"/>
	<path class="st9" d="M472.2,221.3l-0.9,1.7 M472.7,220l-0.5,1.3 M472.8,219.6l-0.2,0.4 M470.1,216.9l2.8,2.7 M467.2,214.3l2.8,2.6
		 M464.3,211.8l2.9,2.5 M461.4,209.4l3,2.4 M458.4,207.1l3,2.3 M455.4,204.8l3,2.3 M452.3,202.7l3,2.2 M449.3,200.5l3,2.1
		 M446.3,198.5l3,2.1 M443.4,196.5l3,2 M434.9,190.7l2.7,1.9 M432.3,188.9l2.6,1.8 M429.8,187.1l2.5,1.8 M427.4,185.3l2.4,1.8
		 M425.1,183.5l2.2,1.8 M423.1,181.8l2.1,1.8 M421.2,180l1.9,1.7 M419.5,178.3l1.7,1.7 M417.1,175.6l2.4,2.6 M414.9,173l2.2,2.6
		 M412.9,170.4l2,2.6 M411,167.9l1.8,2.5 M409.3,165.4l1.7,2.5 M407.7,163l1.6,2.4 M406.3,160.6l1.5,2.3 M404.8,158.4l1.4,2.2
		 M403.5,156.3l1.4,2.1 M402.1,154.2l1.4,2 M400.7,152.3l1.4,1.9 M399.3,150.6l1.4,1.7 M397.9,149l1.5,1.6 M396.3,147.6l1.5,1.4
		 M394.7,146.4l1.6,1.2 M392.9,145.3l1.8,1 M391,144.5l1.9,0.8 M388.9,143.9l2.1,0.6 M386.5,143.5l2.3,0.4 M384,143.4l2.6,0.1
		 M382.2,143.1l1.8,0.3 M380.5,142.8l1.6,0.3 M379,142.5l1.5,0.3 M377.6,142.2l1.4,0.3 M376.3,141.9l1.3,0.3 M375.1,141.6l1.2,0.3
		 M373.9,141.3l1.2,0.3 M372.7,141l1.1,0.3 M371.6,140.8l1.1,0.2 M370.5,140.6l1.1,0.2 M369.3,140.5l1.2,0.1 M368.1,140.4l1.2,0.1
		 M366.9,140.4l1.2,0 M365.5,140.4l1.3-0.1 M364.1,140.6l1.4-0.1 M362.6,140.8l1.5-0.2 M360.9,141.2l1.7-0.3 M359.1,141.6l1.8-0.4
		 M357.1,142.2l2-0.6 M355.9,141.4l1.3,0.7 M354.6,140.8l1.3,0.6 M353.4,140.3l1.2,0.5 M352.1,139.8l1.2,0.5 M351,139.4l1.2,0.4
		 M349.8,139l1.2,0.4 M348.6,138.7l1.2,0.3 M347.5,138.4l1.1,0.3 M346.4,138.2l1.1,0.3 M345.3,137.9l1.1,0.3 M344.2,137.6l1.1,0.3
		 M343.1,137.4l1.1,0.3 M342.1,137.1l1.1,0.3 M341,136.8l1,0.3 M340,136.4l1,0.4 M339,136l1,0.4 M337.9,135.6l1,0.5 M336.9,135
		l1,0.5 M335.9,134.4l1,0.6 M597.4,189.8l3.1-2.2 M600.5,187.7l3.2-2.3 M603.7,185.4l3.3-2.3 M607,183.1l3.3-2.4 M610.3,180.7
		l3.3-2.4 M613.6,178.3l3.2-2.4 M616.8,175.9l3.1-2.4 M619.9,173.4l3-2.5 M622.9,171l2.8-2.4 M625.6,168.5l2.5-2.4 M628.2,166.1
		l2.2-2.4 M630.4,163.7l1.9-2.4 M632.3,161.3l1.5-2.3 M633.9,159l1.5-1.1 M635.3,157.9l1.3-1 M636.7,156.9l1.2-0.9 M637.9,155.9
		l1.1-0.9 M638.9,155l1-0.8 M639.9,154.2l0.9-0.7 M640.8,153.5l0.8-0.7 M641.6,152.8l0.7-0.7 M642.3,152.1l0.6-0.6 M642.9,151.5
		l0.6-0.6 M643.5,150.9l0.5-0.6 M644,150.3l0.5-0.6 M644.6,149.6l0.5-0.7 M645.1,149l0.5-0.7 M645.6,148.3l0.5-0.7 M646.1,147.6
		l0.5-0.8 M646.6,146.8l0.5-0.8 M647.1,146l0.6-0.9 M648.8,143l-0.1,0.5 M648.8,142.7v0.3 M648.8,142.7l-0.3-0.3 M648.5,142.4
		l-0.6-0.4 M647.9,142l-0.6-0.2 M647.3,141.8l-0.6-0.1 M646.7,141.6l-0.6,0 M646.1,141.6l-0.6,0.1 M645.5,141.7l-0.6,0.2
		 M644.8,141.9l-0.6,0.3 M644.2,142.2l-0.6,0.3 M643.6,142.5l-0.6,0.4 M643,142.9l-0.6,0.4 M642.4,143.3l-0.5,0.4 M641.9,143.7
		l-0.5,0.4 M641.4,144.1l-0.5,0.4 M640.9,144.5l-0.4,0.4 M640.5,144.9l-0.4,0.3 M640.1,145.2l-0.3,0.3 M639.7,145.5l-0.3,0.2
		 M639.4,145.8l-0.2,0.1 M639.2,145.9l-0.2,0.1 M639.4,145.2l-0.3,0.7 M639.6,144.6l-0.2,0.7 M639.8,143.9l-0.2,0.6 M639.9,143.3
		l-0.1,0.6 M640,142.8l-0.1,0.5 M640,142.3l0,0.5 M640,141.9l0,0.5 M640,141.4l0.1,0.4 M639.9,141.1l0.1,0.4 M639.7,140.7l0.1,0.3
		 M639.6,140.4l0.2,0.3 M639.4,140.2l0.2,0.3 M639.1,139.9l0.2,0.2 M638.9,139.8l0.2,0.2 M638.7,139.6l0.3,0.2 M638.4,139.5l0.3,0.1
		 M638.1,139.4l0.3,0.1 M637.9,139.3l0.3,0.1 M637.6,139.3l0.3,0 M637.3,139.2l0.3,0 M636.6,139.1l0.8,0.1 M635.9,139.1l0.7,0
		 M635.2,139.3l0.6-0.2 M634.7,139.6l0.6-0.3 M634.1,140l0.5-0.4 M633.6,140.6l0.5-0.5 M633.1,141.2l0.5-0.7 M632.6,142l0.5-0.8
		 M632.1,142.9l0.5-0.9 M631.6,143.8l0.5-1 M631.1,144.9l0.5-1 M630.5,146l0.6-1.1 M629.9,147.1l0.6-1.2 M629.8,147.3l0.1-0.2
		 M629.7,147.5l0.1-0.2 M629.7,147.6l0.1-0.1 M629.3,148.4l0.4-0.7 M628.6,149.6l0.7-1.3 M627.8,150.9l0.8-1.3 M626.9,152.3l0.9-1.3
		 M626,153.7l1-1.4 M624.9,155l1.1-1.4 M623.8,156.4l1.2-1.4 M624.1,155.2l-0.3,1.3 M624.4,154l-0.3,1.2 M624.7,152.8l-0.3,1.1
		 M624.9,151.8l-0.2,1.1 M625.1,150.8l-0.2,1 M625.2,150l-0.1,0.8 M625.3,149.2l-0.1,0.7 M625.3,148.7l0,0.6 M624.8,148.3l0.5,0.3
		 M624.4,148l0.5,0.3 M623.9,147.7l0.5,0.3 M623.4,147.5l0.5,0.2 M623,147.4l0.4,0.2 M622.5,147.3l0.4,0.1 M622.1,147.3l0.4,0
		 M621.7,147.4l0.4-0.1 M621.2,147.5l0.4-0.2 M620.8,147.8l0.4-0.3 M620.4,148.2l0.4-0.4 M619.9,148.7l0.4-0.5 M619.5,149.3l0.4-0.6
		 M619.1,150l0.4-0.7 M618.6,150.9l0.4-0.9 M618.5,151.3l0.2-0.4 M613.2,152.9l2.3-0.6"/>
	<path class="st9" d="M611.1,153.4l2.1-0.6 M609.3,153.9l1.9-0.5 M607.6,154.3l1.7-0.4 M606.1,154.6l1.5-0.3 M604.8,154.9l1.3-0.3
		 M603.6,155.1l1.2-0.2 M602.5,155.3l1.1-0.2 M599.7,155.9l0.9-0.2 M598.9,156l0.8-0.2 M598.1,156.2l0.8-0.2 M597.3,156.4l0.8-0.2
		 M596.5,156.7l0.8-0.2 M596.5,155.4l0,1.2 M596.5,155.4l1-1.7 M597.5,153.7l0.9-1.6 M598.4,152.1l0.8-1.5 M599.2,150.7l0.6-1.4
		 M599.8,149.3l0.5-1.3 M600.3,148l0.4-1.2 M600.8,146.8l0.3-1.1 M601.1,145.8l0.2-1 M601.4,144.8l0.2-0.9 M601.5,143.8l0.1-0.8
		 M601.6,143l0-0.8 M601.7,142.2l0-0.7 M601.6,141.6l-0.1-0.6 M601.6,140.9l-0.1-0.6 M601.4,140.4l-0.2-0.5 M601.3,139.9l-0.2-0.4
		 M601.1,139.5l-0.2-0.4 M600.9,139.1l-0.2-0.3 M600.7,138.8l-0.2-0.3 M600.5,138.5l-0.2-0.2 M599.7,137.8l0.5,0.5 M599.2,137.4
		l0.5,0.4 M598.6,137.1l0.6,0.3 M598.1,136.9l0.6,0.2 M597.5,136.8l0.6,0.1 M596.8,136.9l0.6,0 M596.2,137l0.6-0.1 M595.6,137.2
		l0.6-0.2 M595,137.5l0.6-0.3 M594.4,138l0.6-0.4 M593.8,138.5l0.6-0.5 M593.3,139.1l0.5-0.6 M592.8,139.8l0.5-0.7 M592.3,140.6
		l0.5-0.8 M591.9,141.4l0.4-0.9 M591.6,142.4l0.3-1 M591.3,143.4l0.3-1 M591.1,144.6l0.2-1.1 M590.9,145.8l0.1-1.2 M590.9,147.1
		l0-1.3 M590.8,148.1l0.1-1.1 M590.6,149.2l0.2-1.1 M590.2,150.3l0.4-1.1 M589.7,151.4l0.5-1.1 M589.1,152.4l0.6-1.1 M588.5,153.5
		l0.7-1.1 M587.7,154.5l0.7-1.1 M587,155.6l0.8-1 M586.1,156.6l0.8-1 M585.3,157.6l0.9-1 M584.4,158.6l0.9-1 M583.5,159.6l0.9-1
		 M582.7,160.5l0.9-0.9 M581.9,161.5l0.8-0.9 M581.1,162.3l0.8-0.9 M580.4,163.2l0.7-0.9 M579.7,164l0.6-0.8 M579.2,164.8l0.6-0.8
		 M578.7,165.5l0.5-0.7 M578.4,166.2l0.3-0.7 M577.9,167.2l0.4-1 M577.6,168.2l0.3-0.9 M577.3,169.1l0.3-0.9 M577.1,169.9l0.2-0.8
		 M576.9,170.7l0.2-0.8 M576.7,171.5l0.2-0.8 M576.6,172.2l0.1-0.7 M576.5,172.9l0.1-0.7 M576.3,173.6l0.2-0.7 M576.1,174.2l0.2-0.7
		 M575.9,174.9l0.2-0.7 M575.6,175.5l0.3-0.7 M575.3,176.2l0.3-0.7 M574.9,176.8l0.4-0.7 M574.4,177.5l0.5-0.7 M573.7,178.2l0.6-0.7
		 M573,178.9l0.8-0.7 M572.1,179.7l0.9-0.8 M571.1,180.5l1-0.8 M569.9,181.3l1.2-0.8 M569.9,181.3l-0.5,0.9 M569.4,182.2l-0.3,1
		 M569.1,183.2l-0.2,1.1 M568.9,184.3l0,1.1 M568.9,185.4l0.1,1.2 M569,186.6l0.2,1.2 M569.3,187.8l0.4,1.2 M569.6,189.1l0.5,1.3
		 M570.1,190.3l0.6,1.3 M570.7,191.6l0.7,1.2 M571.4,192.8l0.8,1.2 M572.1,194l0.9,1.2 M573,195.2l0.9,1.1 M573.9,196.4l1,1.1
		 M574.9,197.5l1.1,1 M576,198.5l1.1,0.9 M577.1,199.4l1.2,0.8 M578.2,200.3l1.2,0.7 M579.4,201l1.2,0.6 M580.7,201.7l1.3,0.5
		 M581.9,202.2l0.4,0 M582.3,202.2l0.3,0 M582.6,202.2l1.1-1.4 M583.7,200.9l1.5-1.5 M585.2,199.3l1.9-1.7 M587,197.7l2.2-1.8
		 M589.2,195.9l2.5-1.9 M591.7,194l2.7-2 M594.5,191.9l2.9-2.1 M302.4,29l2.6-0.2 M296.7,29.6l5.7-0.6 M292,29l4.8,0.6 M289.9,28.5
		L292,29 M288,28.1l1.9,0.4 M286.3,27.7l1.7,0.4 M284.7,27.4l1.6,0.4 M283.3,27l1.4,0.3 M282,26.7l1.3,0.3 M280.9,26.4l1.2,0.3
		 M279.8,26l1.1,0.3 M278.8,25.7l1,0.3 M277.8,25.3l0.9,0.4 M276.9,25l0.9,0.4 M276,24.5l0.9,0.4 M275.2,24.1l0.9,0.4 M274.3,23.6
		l0.9,0.5 M273.3,23.1l0.9,0.5 M272.3,22.4l1,0.6 M271.3,21.8l1.1,0.7 M270.2,21l1.1,0.7 M268.9,20.2l1.2,0.8 M267.6,19.3l1.4,0.9
		 M267.1,21.1l0.5-1.8 M266.7,22.6l0.4-1.6 M266.3,24.1l0.4-1.4 M265.9,25.4l0.4-1.3 M265.5,26.5l0.4-1.2 M265.2,27.6l0.4-1.1
		 M264.8,28.6l0.4-1 M264.4,29.5l0.4-0.9 M264,30.4l0.4-0.9 M263.5,31.3l0.5-0.9 M263,32.1l0.5-0.8 M262.4,32.9l0.6-0.8 M261.8,33.8
		l0.7-0.9 M261,34.7l0.7-0.9 M260.2,35.7l0.8-1 M259.2,36.7l0.9-1 M258.2,37.8l1.1-1.1 M257,39.1l1.2-1.2 M255.7,40.4l1.3-1.4
		 M254.2,42l1.5-1.5 M253.5,42.2l0.7-0.2 M252.7,42.4l0.8-0.3 M251.8,42.8l0.9-0.3 M250.9,43.2l0.9-0.4 M250,43.7l0.9-0.5
		 M249.1,44.3l0.9-0.6 M248.2,45l0.9-0.7 M247.3,45.9l0.9-0.8 M246.4,46.8l0.8-0.9 M245.6,47.9l0.8-1.1 M244.9,49l0.7-1.2
		 M244.3,50.4l0.6-1.3 M243.8,51.8l0.5-1.5 M243.4,53.4l0.4-1.6 M243.1,55.2l0.3-1.8 M243,57.2l0.1-1.9 M243,59.3l-0.1-2.1
		 M243.3,61.5l-0.2-2.3 M243.7,64l-0.4-2.5 M244.3,66.7l-0.6-2.7 M244.3,67.3l0-0.7 M244.4,68.1l-0.1-0.7 M244.5,68.9l-0.1-0.8
		 M244.7,69.8l-0.2-0.9 M245,70.7l-0.2-1 M245.2,71.8l-0.3-1 M245.5,72.8l-0.3-1.1 M245.8,73.9l-0.3-1.1 M246.2,75.1l-0.3-1.1
		 M246.5,76.2l-0.3-1.2 M246.8,77.4l-0.3-1.2 M247.2,78.7l-0.3-1.2 M247.5,79.9l-0.3-1.2 M247.8,81.1l-0.3-1.2 M248,82.4l-0.3-1.2"
		/>
	<path class="st9" d="M248.3,83.6l-0.2-1.2 M248.4,84.9l-0.2-1.2 M248.5,86.1l-0.1-1.2 M248.6,87.3l-0.1-1.2 M248.6,88.4l0-1.2
		 M252.4,97.5l0.7,1.7 M253.1,99.2l0.6,1.5 M253.7,100.7l0.6,1.4 M254.3,102.1l0.5,1.2 M254.8,103.3l0.5,1.1 M255.3,104.4l0.4,1
		 M255.7,105.4l0.4,0.9 M256.2,106.3l0.4,0.9 M256.6,107.2l0.4,0.8 M256.9,108l0.4,0.8 M257.3,108.8l0.4,0.8 M257.7,109.6l0.4,0.8
		 M258.1,110.4l0.4,0.8 M258.6,111.2l0.5,0.9 M261.3,116.3l-1.2-2.2 M262.8,118.5l-1.5-2.1 M264.4,120.6l-1.7-2.1 M266.3,122.6
		l-1.9-2 M267.3,123.6l-1-1 M268.3,124.6l-1-1 M270.5,126.5l-2.2-1.9 M272.7,128.3l-2.3-1.8 M275.1,130l-2.4-1.7 M277.5,131.6
		l-2.4-1.6 M280,133l-2.5-1.4 M282.5,134.3L280,133 M284.9,135.5l-2.5-1.1 M287.3,136.4l-2.4-1 M289.7,137.2l-2.4-0.8 M292,137.8
		l-2.3-0.6 M294.1,138.2l-2.2-0.4 M296.2,138.3l-2-0.1 M298,138.2l-1.9,0.1 M299.7,137.8l-1.7,0.4 M301.1,137.2l-1.5,0.6
		 M302.2,136.6l-1,0.6 M303.3,136l-1.1,0.6 M304.5,135.4l-1.2,0.6 M305.8,134.7l-1.3,0.7 M307.2,134l-1.4,0.8 M308.6,133.1l-1.4,0.9
		 M310.1,132.2l-1.5,1 M311.5,131.1l-1.5,1.1 M313,129.8l-1.5,1.2 M314.5,128.4l-1.5,1.4 M316,126.8l-1.5,1.6 M317.5,125l-1.5,1.8
		 M318.9,122.9l-1.4,2 M320.2,120.6l-1.4,2.3 M321.5,118l-1.3,2.6 M322.7,115.2l-1.2,2.9 M323.8,112l-1.1,3.2 M324.8,108.6l-1,3.5
		 M325.6,104.7l-0.9,3.8 M326.4,100.5l-0.7,4.2 M323.4,77.2l3,23.3 M323.4,77.2l0-1 M323.4,76.2l0.1-0.9 M323.5,75.3l0.1-0.8
		 M323.5,74.5l0.1-0.7 M323.7,73.8l0.2-0.7 M323.8,73.1l0.2-0.6 M324,72.5l0.2-0.5 M324.2,72l0.2-0.5 M324.4,71.5l0.3-0.4 M324.7,71
		l0.3-0.4 M325,70.7l0.3-0.3 M325.3,70.3l-0.5-0.7 M324.8,69.6l-0.4-0.6 M324.4,69l-0.4-0.5 M324,68.5l-0.3-0.4 M323.7,68l-0.3-0.4
		 M323.4,67.6l-0.2-0.3 M323.1,67.3l-0.2-0.3 M322.9,67l-0.2-0.2 M322.7,66.8l-0.2-0.2 M322.6,66.6l-0.1-0.2 M322.4,66.4l-0.1-0.2
		 M322.3,66.1l-0.1-0.2 M322.2,65.9l-0.1-0.2 M322.1,65.7l-0.1-0.3 M322,65.4l-0.1-0.3 M321.9,65.1l-0.1-0.3 M321.9,64.8l-0.1-0.4
		 M321.8,64.4l-0.1-0.5 M321.7,63.9l-0.1-0.6 M321.6,63.4l-0.1-0.6 M321.5,60.8l0,2 M321.4,58.6l0.1,2.2 M321.2,56.2l0.2,2.4
		 M321,53.7l0.2,2.5 M320.7,51.1l0.3,2.6 M320.2,48.5l0.5,2.6 M319.6,45.9l0.6,2.6 M318.9,43.3l0.7,2.6 M318.1,40.8l0.9,2.5
		 M317.1,38.4l1,2.4 M315.9,36.2l1.2,2.2 M314.6,34.2l1.3,2 M313,32.4l1.5,1.8 M311.3,31l1.7,1.5 M309.4,29.8l1.9,1.1 M307.3,29.1
		l2.1,0.7 M305,28.8l2.3,0.3 M251.4,86.6l0-0.9 M251.4,85.7l0-0.8 M251.4,84.8l0-0.8 M251.4,84.1l0.1-0.7 M251.5,83.4l0.1-0.6
		 M251.6,82.8l0.2-0.6 M251.8,82.2l0.2-0.6 M252,81.6l0.2-0.5 M252.2,81.1l0.3-0.5 M252.5,80.6l0.3-0.5 M252.8,80.1l0.4-0.5
		 M253.2,79.5l0.4-0.6 M253.6,79l0.5-0.6 M254.1,78.4l0.5-0.6 M254.6,77.7l0.6-0.7 M255.2,77l0.6-0.8 M255.8,76.3l-1.7-3.7
		 M254.1,72.5l-1.1-3.4 M253,69.2l-0.6-3 M252.4,66.1l-0.1-2.7 M252.3,63.5l0.4-2.4 M252.7,61.1l0.8-2 M253.5,59.1l1.1-1.7
		 M254.6,57.3l1.4-1.5 M256,55.9l1.7-1.2 M257.7,54.6l1.9-1 M259.5,53.7l2-0.7 M261.5,53l2.1-0.5 M263.6,52.5l2.1-0.3 M265.7,52.2
		l2.1-0.1 M267.9,52.1l2.1,0.1 M269.9,52.2l1.9,0.2 M271.9,52.4l1.8,0.4 M273.6,52.8l1.6,0.5 M275.2,53.3l1.3,0.6 M276.5,53.9l1,0.7
		 M277.5,54.7l1.8-2.8 M279.3,51.9l1.9-2.4 M281.2,49.5l2-2 M283.2,47.5l2-1.6 M285.2,45.8l2-1.3 M287.3,44.5l2.1-1 M289.3,43.5
		l2-0.7 M291.4,42.9l2-0.4 M293.4,42.5l2-0.1 M295.3,42.3l1.9,0.1 M297.2,42.4l1.8,0.3 M299.1,42.7l1.7,0.5 M300.8,43.2l1.6,0.7
		 M302.4,43.9l1.4,0.8 M303.8,44.7l1.3,0.9 M305.1,45.6l1.1,1 M306.1,46.7l0.9,1.1 M307,47.8l0.7,1.2 M307.7,49l0.4,1.2 M308.1,50.2
		l0.2,1.2 M308.3,51.4l0.2,1.7 M308.5,53.2l0.2,1.6 M308.6,54.7l0.1,1.4 M308.8,56.2l0.1,1.3 M308.9,57.4l0.1,1.1 M309,58.5l0.1,1
		 M309.1,61l0,0.6 M309.1,61.6l0,0.5 M309.2,62.1l0.1,0.4 M309.2,62.5l0.1,0.3 M309.3,62.9l0.1,0.3 M309.4,63.1l0.1,0.2 M309.5,63.3
		l0.1,0.1 M309.6,63.4l0.2,0.1 M309.8,63.5l0.2,0 M310,63.6l0.3,0 M310.3,63.6l0.3,0 M310.6,63.6l0.4,0 M311,63.5l1.8-0.2
		 M312.8,63.4l1.7,0.6 M314.5,63.9l1.6,1.2 M316.1,65.1l1.4,1.8 M317.6,66.9l1.3,2.3 M318.9,69.3L320,72 M320,72l1,3.1 M321.1,75.1
		l0.9,3.4 M321.9,78.5l0.7,3.6 M322.6,82l0.5,3.7 M323.2,85.7l0.4,3.7 M323.5,89.4l0.2,3.7 M323.7,93.1l0,3.6 M323.6,96.6l-0.2,3.4
		 M323.4,100l-0.4,3.1 M323,103.1l-0.6,2.7 M322.3,105.8l-0.9,2.3"/>
	<path class="st9" d="M321.5,108.1l-1.1,1.8 M320.4,109.9l-1.3,1.2 M319.1,111.1l-1.6,0.5 M317.5,111.6l-0.8,0.2 M316.7,111.8
		l-0.6-0.1 M316.1,111.7l-0.5-0.3 M315.6,111.4l-0.4-0.5 M315.2,110.8l-0.3-0.7 M315,110.1l-0.2-0.8 M314.8,109.2l-0.1-1
		 M314.6,108.3l-0.1-1 M314.5,107.3l-0.1-1.1 M314.4,106.2l-0.1-1.1 M314.3,105.1l-0.1-1.1 M314.3,104l-0.1-1 M314.1,103l-0.2-1
		 M313.9,102l-0.3-0.8 M313.7,101.2l-0.4-0.7 M313.3,100.5l-0.5-0.5 M312.9,99.9l-0.6-0.3 M312.3,99.6l-0.7-0.1 M311.5,99.5
		l-0.9,0.2 M310.6,99.7l-1.1,0.5 M309.5,100.2l-1.1,0.4 M308.4,100.6l-1,0.3 M307.4,101l-1,0.3 M306.4,101.2l-0.9,0.2 M305.5,101.4
		l-0.9,0.2 M304.6,101.6l-0.8,0.1 M303.8,101.7l-0.8,0.1 M302.9,101.8l-0.8,0.1 M302.2,101.8l-0.8,0.1 M301.4,101.9l-0.8,0.1
		 M300.6,102l-0.8,0.1 M299.8,102.1l-0.8,0.1 M299,102.2l-0.8,0.2 M298.2,102.4l-0.8,0.2 M297.4,102.6l-0.9,0.3 M296.5,102.9
		l-0.9,0.4 M295.6,103.3l-1,0.5 M294.6,103.8l-1,0.6 M293.6,104.4l-1.1,0.7 M292.5,105.1l-1.2,0.8 M291.4,105.9l-1.5-0.2
		 M289.9,105.8l-1.5,0 M288.4,105.7l-1.4,0.1 M287,105.8l-1.3,0.2 M285.7,106l-1.3,0.3 M284.4,106.2l-1.2,0.3 M283.1,106.6L282,107
		 M282,107l-1.1,0.4 M280.8,107.4l-1.1,0.5 M279.8,107.9l-1,0.5 M278.7,108.4l-1,0.5 M277.8,109l-0.9,0.6 M276.9,109.5l-0.8,0.6
		 M276,110.1l-0.8,0.5 M275.3,110.6l-0.7,0.5 M274.5,111.2l-0.7,0.5 M273.9,111.7l-0.6,0.5 M273.3,112.1l-0.5,0.4 M272.7,112.5
		l-0.5,0.3 M272.3,112.8l-0.2,0.3 M272.1,113.1l0,0.4 M272,113.5l0.1,0.5 M272.1,114l0.2,0.6 M272.4,114.7l0.3,0.7 M272.7,115.4
		l0.4,0.8 M273.1,116.2l0.4,0.8 M274.5,118.7l0.5,0.9 M274.9,119.5l0.4,0.8 M275.3,120.4l0.4,0.8 M275.7,121.1l0.3,0.7 M276,121.9
		l0.2,0.6 M276.1,122.5l0,0.5 M276.2,123.1l-0.1,0.4 M276,123.5l-0.3,0.3 M275.7,123.8l-0.5,0.1 M275.2,123.9l-0.7,0 M274.5,123.9
		l-1.7-0.2 M272.8,123.7l-1.6-0.6 M271.2,123.1l-1.6-1 M269.5,122.1l-1.6-1.3 M267.9,120.7l-1.6-1.6 M266.3,119.1l-1.6-1.9
		 M264.8,117.2l-1.5-2.1 M263.2,115.2l-1.5-2.2 M261.8,113l-1.4-2.3 M260.4,110.6l-1.3-2.4 M259.1,108.2l-1.2-2.4 M257.8,105.8
		l-1.2-2.4 M256.7,103.4l-1.1-2.3 M255.6,101.1l-0.9-2.2 M254.7,98.8l-0.8-2.1 M253.9,96.7l-0.7-1.9 M253.2,94.8l-0.6-1.7
		 M252.6,93.2l-0.4-1.4 M252.2,91.8l-0.3-1.1 M251.9,90.7l-0.1-0.7 M251.8,90l-0.2-1.3 M251.6,88.7l-0.1-1.1 M251.5,87.6l-0.1-1
		 M302.6,125.6l-0.7-0.4 M301.9,125.2l-0.6-0.4 M301.4,124.8l-0.5-0.4 M300.9,124.5l-0.4-0.3 M300.4,124.1l-0.4-0.3 M300.1,123.8
		l-0.3-0.3 M299.8,123.5l-0.2-0.3 M299.6,123.1l-0.2-0.3 M299.4,122.8l-0.1-0.3 M299.3,122.5l0-0.3 M299.3,122.2l0-0.3 M299.3,121.8
		l0.1-0.4 M299.4,121.5l0.1-0.4 M299.5,121.1l0.2-0.4 M299.7,120.6l0.2-0.5 M300,120.2l0.3-0.5 M300.2,119.7l0.3-0.5 M300.6,119.1
		l0.4-0.6 M301.9,117.2l-1.2,0 M300.7,117.2l-1.1,0 M299.6,117.2l-1,0 M298.7,117.2l-0.9,0 M297.8,117.3l-0.8,0.1 M297,117.3
		l-0.7,0.1 M296.3,117.4l-0.6,0.1 M295.7,117.5l-0.6,0.1 M295.2,117.6l-0.5,0.1 M294.6,117.8l-0.5,0.2 M294.2,117.9l-0.4,0.2
		 M293.7,118.1l-0.4,0.2 M293.3,118.3l-0.4,0.2 M293,118.5l-0.4,0.2 M292.6,118.8l-0.4,0.3 M292.2,119l-0.4,0.3 M291.8,119.3
		l-0.4,0.3 M290.5,120.4l-0.5,0.4 M290,120.8l1,0 M291,120.8l0.9,0.1 M291.9,120.9l0.8,0.2 M292.8,121.1l0.7,0.2 M293.5,121.3
		l0.6,0.3 M294.1,121.5l0.5,0.3 M294.6,121.8l0.4,0.3 M295.1,122.2l0.3,0.4 M295.4,122.6l0.3,0.4 M295.7,123l0.2,0.4 M295.9,123.4
		l0.1,0.5 M295.9,123.9l0,0.5 M296,124.4l-0.1,0.5 M295.9,124.9l-0.1,0.5 M295.8,125.4l-0.2,0.5 M295.5,125.9l-0.3,0.5 M295.3,126.5
		l-0.3,0.5 M294.9,127l-0.4,0.5 M294.5,127.5l-0.5,0.5 M294.1,128l-0.5,0.5 M293.6,128.5l-1.3,0.9 M292.3,129.5l-1.2,0.7
		 M291.1,130.2l-1.2,0.5 M289.9,130.8l-1.1,0.3 M288.8,131.1l-1,0.2 M287.8,131.2l-1,0 M286.8,131.2l-1-0.2 M285.8,131l-0.9-0.4
		 M284.9,130.6l-0.9-0.6 M284.1,130l-0.8-0.7 M283.2,129.3l-0.8-0.9 M282.4,128.4l-0.8-1.1 M281.6,127.3l-0.7-1.2 M280.9,126.1
		l-0.7-1.4 M280.2,124.7l-0.7-1.5 M279.5,123.2l-0.7-1.7 M278.8,121.5l-0.7-1.8 M278.1,119.7l-0.7-2 M277.5,117.7l-0.6-2.1
		 M276.8,115.7l-0.6-2.2 M276.2,113.4l2.1-0.3 M278.3,113.1l2-0.3 M280.3,112.8l1.8-0.3 M282.1,112.5l1.7-0.3 M283.8,112.2l1.6-0.3
		 M285.3,111.9l1.5-0.3 M286.8,111.6l1.4-0.3 M288.2,111.3l1.4-0.3 M289.6,111l1.4-0.3 M291,110.7l1.4-0.4 M292.3,110.3l1.4-0.4
		 M293.7,109.9l1.4-0.4 M295.2,109.4l1.5-0.5 M296.7,108.9l1.6-0.5 M298.3,108.4l1.7-0.6 M300,107.8l1.9-0.7 M301.9,107.1l2.1-0.7
		 M304,106.4l2.2-0.8 M311.4,103.7l0.4,3.5 M311.8,107.2l0.2,3.2 M312,110.4l0.1,2.8 M312,113.2l-0.1,2.5"/>
	<path class="st9" d="M311.9,115.7l-0.2,2.2 M311.7,117.9l-0.3,1.9 M311.4,119.8l-0.4,1.6 M311,121.5l-0.5,1.4 M310.4,122.8
		l-0.6,1.1 M309.8,124l-0.7,0.9 M309.2,124.9l-0.7,0.7 M308.4,125.6l-0.8,0.5 M307.7,126.1l-0.8,0.3 M306.9,126.4l-0.8,0.2
		 M306.1,126.6l-0.8,0 M305.4,126.6l-0.8-0.1 M304.6,126.5l-0.7-0.2 M303.9,126.3l-0.7-0.3 M303.2,126l-0.6-0.4 M495.4,215.3
		l3.3-1.2 M492.4,216.5l3-1.1 M489.5,217.6l2.8-1.1 M486.9,218.6l2.6-1.1 M484.6,219.7l2.4-1.1 M482.5,220.8l2.1-1.1 M480.6,222
		l1.9-1.2 M479,223.2l1.6-1.2 M477.9,222.6l1.1,0.7 M476.8,221.9l1.1,0.7 M475.5,221.2l1.2,0.7 M474.1,220.6l1.4,0.6 M472.7,220
		l1.5,0.6 M436.5,253.6l-0.8-0.3 M437.3,253.9l-0.8-0.3 M438.1,254.2l-0.8-0.3 M438.8,254.4l-0.8-0.2 M439.6,254.7l-0.8-0.2
		 M440.5,254.9l-0.9-0.3 M441.5,255.2l-1-0.3 M442.5,255.5l-1.1-0.3 M443.8,255.9l-1.2-0.4 M445.2,256.3l-1.4-0.4 M446.8,256.8
		l-1.6-0.5 M448.6,257.4l-1.8-0.6 M450.7,258.1l-2.1-0.7 M453.1,258.9l-2.4-0.8 M455.8,259.8l-2.7-0.9 M458.8,260.9l-3-1.1
		 M462.2,262.2l-3.4-1.3 M466,263.6l-3.8-1.4 M470.2,265.2l-4.2-1.6 M474.8,267l-4.7-1.8 M476.1,267.6l-1.3-0.5 M477.3,268l-1.2-0.4
		 M478.3,268.2l-1-0.3 M479.2,268.4l-0.9-0.2 M480.1,268.5l-0.8-0.1 M480.8,268.5l-0.8,0 M481.6,268.4l-0.7,0.1 M482.3,268.2
		l-0.7,0.2 M483,267.9l-0.7,0.3 M483.7,267.6l-0.7,0.4 M484.4,267.1l-0.8,0.4 M485.3,266.6l-0.8,0.5 M486.2,266l-0.9,0.6
		 M487.2,265.4l-1,0.7 M488.3,264.6l-1.2,0.7 M489.6,263.9l-1.3,0.8 M491.1,263l-1.5,0.8 M492.8,262.1l-1.7,0.9 M494.7,261.2
		l-1.9,0.9 M496.8,260.2l-2.1,1 M502.8,257.5l-6,2.7 M508.3,254.8l-5.6,2.7 M513.5,252.1l-5.2,2.7 M518.4,249.3l-4.8,2.8
		 M522.9,246.6l-4.5,2.8 M527.1,243.8l-4.2,2.8 M531,241.1l-3.9,2.7 M534.7,238.4l-3.7,2.7 M538.1,235.7l-3.4,2.7 M541.3,233.1
		l-3.2,2.6 M544.3,230.5l-3,2.5 M547.2,228.1l-2.8,2.5 M549.9,225.7l-2.7,2.4 M552.4,223.4l-2.6,2.3 M554.9,221.2l-2.5,2.2
		 M557.3,219.2l-2.4,2 M559.6,217.3l-2.3,1.9 M562,215.5l-2.3,1.8 M564.2,213.9l-2.3,1.6 M566.5,212.5l-2.3,1.4 M565.4,211.7
		l1.1,0.8 M564.3,210.9l1.2,0.9 M563.1,209.9l1.2,1 M561.9,208.8l1.2,1.1 M560.8,207.7l1.1,1.2 M559.6,206.4l1.1,1.3 M558.6,205.1
		l1.1,1.4 M557.6,203.6l1,1.5 M556.6,202l0.9,1.6 M555.8,200.4l0.8,1.7 M555,198.6l0.7,1.8 M554.4,196.7l0.6,1.9 M553.9,194.8l0.5,2
		 M553.5,192.7l0.4,2.1 M553.4,190.7l0.2,2 M542.1,196.6l5.3-2.7 M537,199.1l5.1-2.5 M532,201.4l5-2.3 M527.2,203.5l4.8-2.1
		 M522.5,205.4l4.6-1.9 M518.1,207.2l4.5-1.8 M513.8,208.8l4.3-1.6 M509.7,210.3l4.1-1.5 M505.8,211.7l3.9-1.4 M286.4,796.7
		l-0.4,14.6 M286.4,810.1l-0.3,1.1 M286.7,809.1l-0.4,1 M287.1,808.1l-0.4,0.9 M287.5,807.3l-0.4,0.8 M288,806.6l-0.5,0.8
		 M288.5,805.9l-0.5,0.7 M289.1,805.3l-0.6,0.6 M289.8,804.8l-0.7,0.5 M290.6,804.4l-0.8,0.4 M291.4,804.1l-0.9,0.3 M292.4,803.9
		l-1,0.2 M293.5,803.8l-1.1,0.1 M294.8,803.7l-1.3,0.1 M296.2,803.7l-1.4,0 M297.8,803.8l-1.6-0.1 M299.6,803.9l-1.8-0.2
		 M301.5,804.2l-1.9-0.2 M303.2,804.4l-1.7-0.2 M304.8,804.6l-1.6-0.2 M306.3,804.7l-1.5-0.1 M307.7,804.8l-1.4-0.1 M309,804.9
		l-1.3-0.1 M310.2,805.1l-1.2-0.1 M311.3,805.2l-1.1-0.2 M312.3,805.4l-1-0.2 M313.3,805.7l-0.9-0.2 M314.1,806l-0.8-0.3
		 M314.9,806.4l-0.8-0.4 M315.6,806.8l-0.7-0.5 M316.2,807.4l-0.6-0.6 M316.7,808.1l-0.5-0.7 M317.1,808.9l-0.4-0.8 M313.1,794.7
		l4,14.2 M286.4,796.7l26.7-2 M447,791.1l3.9,9.2 M413.8,802.3l33.2-11.2 M413.8,813.3v-11 M422.9,643.1l1.6,4.3 M422.8,642.3
		l0.1,0.8 M422.8,641.4l0,0.9 M422.9,640.6l-0.1,0.9 M423,639.7l-0.2,0.9 M423.2,638.7l-0.2,1 M423.5,637.7l-0.3,1 M423.8,636.6
		l-0.3,1.1 M424.1,635.4l-0.3,1.2 M424.4,634.1l-0.3,1.3 M424.7,632.7l-0.3,1.4 M425,631.2l-0.3,1.5 M425.3,629.5l-0.3,1.7
		 M425.5,627.6l-0.2,1.9 M425.6,625.6l-0.1,2 M425.7,623.3l-0.1,2.2 M425.7,620.9l0,2.4 M425.5,618.2l0.1,2.7 M425.3,615.3l0.3,2.9
		 M424.9,612.2l0.4,3.1 M424.3,608.8l0.5,3.4 M419.4,610.3l5-1.5 M414.2,611.8l5.2-1.5 M408.8,613.2l5.4-1.4 M403.2,614.5l5.6-1.3
		 M397.5,615.7l5.7-1.2 M391.7,616.9l5.8-1.1 M385.8,617.9l5.9-1 M379.9,618.7l5.9-0.8 M374,619.4l5.9-0.7 M368.1,619.8l5.9-0.5
		 M375,635.2l-6.9-15.4 M375.1,641.1l0-5.9 M375.1,647l-0.1-5.9 M375.2,652.8l-0.1-5.8 M375.4,658.6l-0.2-5.8 M375.6,664.3l-0.2-5.7
		 M376,669.9l-0.3-5.6 M376.4,675.4l-0.4-5.5 M376.9,680.8l-0.5-5.4 M377.5,686.1l-0.6-5.3 M378.3,691.3l-0.8-5.1 M379.2,696.2
		l-0.9-5 M380.2,701.1l-1-4.8 M381.5,705.7l-1.2-4.7 M382.8,710.2l-1.4-4.5 M384.4,714.5l-1.6-4.3 M386.1,718.5l-1.8-4 M388.1,722.3
		l-2-3.8 M390.3,725.9l-2.2-3.6"/>
	<path class="st9" d="M392.7,729.2l-2.4-3.3 M395.3,732.3l-2.6-3.1 M396.5,735.6l-1.2-3.3 M397.6,738.5l-1.1-3 M398.6,741.3l-1-2.8
		 M399.5,743.9l-0.9-2.6 M400.3,746.3l-0.8-2.4 M401.1,748.7l-0.8-2.4 M401.8,751l-0.7-2.3 M402.5,753.3l-0.7-2.3 M403.2,755.7
		l-0.7-2.4 M403.9,758.3l-0.7-2.6 M404.6,761l-0.7-2.7 M405.3,764l-0.7-3 M406.1,767.2l-0.8-3.2 M406.9,770.8l-0.8-3.6 M407.8,774.8
		l-0.9-4 M408.8,779.2l-1-4.4 M409.9,784.1l-1.1-4.9 M444.8,785.3l2.2,5.8 M442.8,778.8l2,6.5 M441.1,771.7l1.7,7.1 M439.6,764.1
		l1.5,7.6 M438.3,756.2l1.3,8 M437.1,747.9l1.2,8.3 M436,739.3l1,8.5 M435.1,730.6l0.9,8.7 M434.2,721.8l0.9,8.8 M433.4,713l0.8,8.8
		 M431.1,687.5l0.8,8.3 M430.3,679.5l0.8,8 M429.4,671.9l0.9,7.6 M428.4,664.9l1,7.1 M427.3,658.4l1.1,6.5 M426,652.5l1.3,5.8
		 M424.6,647.4l1.4,5.1 M409.9,833.1l0.2,2.9 M410.1,836l0.7,2.5 M410.8,838.5l1.1,2.1 M411.9,840.6l1.5,1.8 M413.3,842.4l1.8,1.5
		 M415.1,843.9l2,1.2 M417.1,845.1l2.2,0.9 M419.3,846l2.4,0.7 M421.7,846.7l2.5,0.5 M424.2,847.3l2.6,0.4 M426.8,847.6l2.6,0.2
		 M429.3,847.8l2.5,0.1 M431.8,847.9l2.4,0 M434.3,848l2.3,0 M440.4,847.9l1.5,0 M442,847.9l4.5,0.1 M446.5,848l4.1,0.3
		 M450.5,848.3l3.7,0.5 M454.2,848.8l3.3,0.7 M457.6,849.5l3.1,0.8 M460.6,850.3l2.8,0.9 M463.4,851.2l2.6,0.9 M466.1,852.1l2.5,1
		 M468.6,853.1l2.4,1 M471,854.1l2.4,0.9 M473.5,855l2.4,0.8 M475.9,855.8l2.5,0.7 M478.4,856.5l2.6,0.6 M481,857.1l2.8,0.4
		 M483.8,857.5l3,0.2 M486.8,857.7l3.3,0 M490.1,857.7l3.6-0.3 M493.8,857.4l4-0.6 M497.8,856.7l4.4-1 M502.2,855.8l4.9-1.3
		 M507.1,854.4l3-1.5 M510.1,853l2.5-1.5 M512.6,851.5l2-1.5 M514.6,850l1.5-1.4 M516.1,848.6l1.1-1.4 M517.1,847.2l0.7-1.3
		 M517.8,845.9l0.3-1.3 M518.1,844.6l0-1.2 M518.1,843.4l-0.3-1.2 M517.9,842.2l-0.5-1.1 M517.3,841.1l-0.7-1 M516.6,840.1l-0.9-0.9
		 M515.7,839.1l-1-0.9 M514.7,838.2l-1.1-0.8 M513.5,837.5l-1.2-0.7 M512.3,836.8l-1.2-0.6 M511.1,836.3l-1.2-0.4 M509.9,835.8
		l-1.2-0.3 M508.7,835.5l-1.1-0.2 M507.7,835.3l-1-0.1 M506.7,835.2l-1.8,0.2 M258.8,646.7l0.5-2.7 M257.3,654.2l1.5-7.5
		 M256.6,661.9l0.8-7.7 M256.5,669.8l0.1-7.9 M256.9,677.8l-0.5-8 M257.9,685.9l-1-8.1 M259.3,694l-1.4-8.1 M261.1,702.2l-1.8-8.2
		 M263.2,710.4l-2.1-8.2 M265.5,718.5l-2.3-8.1 M268,726.6l-2.5-8.1 M270.5,734.6l-2.6-8 M278.1,757.6l-2.4-7.5 M280.4,764.9
		l-2.2-7.3 M282.3,771.9l-2-7 M284,778.6l-1.7-6.7 M285.3,785l-1.3-6.4 M286.1,791.1l-0.8-6 M286.4,796.7l-0.3-5.6 M311.5,790.4
		l1.6,4.3 M310.3,785.6l1.2,4.8 M309.5,780.3l0.8,5.3 M308.9,774.6l0.5,5.7 M308.7,768.6l0.3,6 M308.6,762.3l0,6.3 M308.8,755.8
		l-0.2,6.6 M309.1,749l-0.3,6.7 M309.5,742.1l-0.4,6.9 M310,735.2l-0.5,6.9 M310.5,728.2l-0.5,7 M311,721.3l-0.5,6.9 M311.4,714.4
		l-0.4,6.9 M311.8,707.7l-0.3,6.7 M312,701.1l-0.2,6.5 M312,694.8l0,6.3 M311.8,688.8l0.2,6 M311.4,683.2l0.5,5.7 M310.6,677.9
		l0.8,5.3 M309.5,673.1l1.1,4.8 M308.7,670.3l0.8,2.8 M308,667.6l0.7,2.6 M307.4,665.1l0.6,2.5 M306.9,662.7l0.5,2.4 M306.5,660.4
		l0.4,2.3 M306.2,658.2l0.3,2.3 M306,655.9l0.2,2.2 M305.9,653.7l0.1,2.2 M305.9,651.4l0,2.3 M306,649.1l-0.1,2.3 M306.2,646.6
		l-0.2,2.4 M306.5,644.1l-0.3,2.6 M306.9,641.3l-0.4,2.7 M307.4,638.4l-0.5,2.9 M308.1,635.2l-0.6,3.1 M308.8,631.9l-0.7,3.4
		 M309.7,628.2l-0.9,3.7 M310.6,624.2l-1,4 M311.7,619.9l-1.1,4.3 M312.9,615.2l-1.2,4.7 M312.9,615.2l-2.4,1 M310.5,616.2l-4.9,1.6
		 M305.6,617.8l-5,1.3 M300.6,619.1l-5.1,1 M295.6,620.1l-5.1,0.8 M290.5,620.9l-5.1,0.5 M285.3,621.4l-5.1,0.3 M280.3,621.7l-5,0
		 M275.2,621.7l-5-0.2 M270.3,621.6l-4.8-0.3 M265.4,621.2l-4.7-0.5 M260.7,620.8L260.7,620.8 M260.7,621l0-0.2 M260.8,621.3l0-0.3
		 M260.8,621.7l-0.1-0.4 M260.9,622.2l-0.1-0.5 M261,622.9l-0.1-0.7 M261,623.7l-0.1-0.8 M261.1,624.6l0-0.9 M261.1,625.7l0-1.1
		 M261.1,626.9l0-1.2 M261.1,628.2l0-1.3 M261,629.7l0.1-1.5 M260.9,631.3l0.1-1.6 M260.8,633.1l0.1-1.8 M260.6,635l0.2-1.9
		 M260.4,637l0.2-2 M260.1,639.2l0.3-2.2 M259.7,641.6l0.4-2.3 M259.3,644.1l0.4-2.5 M248.2,88.5l0.4-0.1 M247.9,88.6l0.4-0.1
		 M247.5,88.8l0.3-0.2 M247.2,89.1l0.3-0.2 M246.9,89.3l0.3-0.3 M246.6,89.7l0.3-0.3 M246.4,90.1l0.2-0.4 M246.2,90.6l0.2-0.5
		 M246.1,91.1l0.1-0.5 M246,91.8l0.1-0.6 M246,92.4l0-0.7 M246.1,93.2l-0.1-0.8 M246.3,94.1l-0.2-0.9 M246.5,95l-0.3-0.9 M246.9,96
		l-0.3-1 M247.3,97.1l-0.5-1.1 M247.9,98.4l-0.6-1.2 M248.6,99.7l-0.7-1.3 M249.4,101.1l-0.8-1.4"/>
	<path class="st9" d="M250.3,102.6l-0.9-1.5 M251,103.6l-0.7-1.1 M251.6,104.6l-0.6-1 M252.2,105.5l-0.6-0.9 M252.7,106.3l-0.5-0.8
		 M253.1,107l-0.4-0.7 M253.5,107.7l-0.4-0.7 M253.9,108.3l-0.4-0.6 M254.2,108.8l-0.4-0.5 M254.6,109.3l-0.3-0.5 M254.9,109.8
		l-0.3-0.5 M255.2,110.2l-0.3-0.4 M255.6,110.6l-0.4-0.4 M256,111l-0.4-0.4 M256.4,111.4L256,111 M256.8,111.8l-0.5-0.4
		 M257.4,112.2l-0.5-0.4 M257.9,112.7l-0.6-0.4 M258.6,113.1l-0.6-0.5 M259.3,113.6l-0.7-0.5 M260.1,114.2l-0.8-0.6 M302.2,156.6
		l0.7,0.8 M302.9,157.5l0.6,0.8 M303.5,158.3l0.4,0.8 M303.9,159.1l0.3,0.8 M304.3,160l0.2,0.8 M304.5,160.8l0.2,0.8 M304.6,161.6
		l0.1,0.8 M304.7,162.5l0.1,0.8 M304.8,163.3l0.1,0.8 M304.9,164.1l0.1,0.8 M304.9,164.9l0.1,0.8 M305,165.7l0.1,0.8 M305.2,166.5
		l0.2,0.8 M305.4,167.3l0.2,0.6 M305.6,167.9l0.2,0.6 M305.8,168.5l0.3,0.5 M306.1,169l0.3,0.4 M306.3,169.4l0.3,0.4 M306.6,169.8
		l0.3,0.3 M306.9,170.1l0.3,0.3 M307.3,170.4l0.3,0.2 M307.6,170.7l0.4,0.2 M308,170.9l0.4,0.2 M308.4,171.1l0.4,0.2 M308.8,171.3
		l0.5,0.2 M309.3,171.4l0.5,0.2 M309.8,171.6l0.5,0.2 M310.3,171.8l0.6,0.2 M310.8,172l0.6,0.2 M311.4,172.2l0.6,0.2 M312.1,172.4
		l0.7,0.3 M312.8,172.7l0.7,0.3 M313.5,173l0.6,0.2 M323.2,120.4l-0.1-1.2 M323.1,119.2l-0.1-1.1 M323.1,118l0-1.1 M323,116.9l0-1
		 M323,115.9l0.1-1 M323.1,114.9l0.1-1 M323.3,113.9l0.2-0.9 M323.5,113l0.3-0.9 M268.4,126.6l-0.1-2 M268.6,128.5l-0.2-1.9
		 M268.9,130.3l-0.3-1.8 M269.3,132l-0.4-1.7 M269.9,133.6l-0.6-1.6 M270.6,135.1l-0.7-1.5 M271.4,136.5l-0.8-1.4 M272.3,137.9
		l-0.9-1.4 M273.3,139.2l-1-1.3 M274.4,140.4l-1.1-1.2 M275.6,141.6l-1.2-1.2 M277,142.7l-1.3-1.1 M278.4,143.8l-1.4-1.1 M280,144.9
		l-1.5-1.1 M281.6,146l-1.6-1 M283.3,147l-1.7-1 M285.2,148l-1.8-1 M287.1,149l-1.9-1 M289.1,150l-2-1 M291.2,151.1l-2.1-1
		 M291.2,151.1l2.4,0.8 M293.5,151.8l2.1,0.8 M295.6,152.6l1.8,0.8 M297.4,153.4l1.5,0.8 M298.9,154.2l1.3,0.8 M300.2,155l1.1,0.8
		 M301.3,155.8l0.9,0.8 M265.4,852.7l0.4,0.5 M265.7,854.1l-0.4-1.4 M266.1,855.3l-0.4-1.2 M266.6,856.4l-0.5-1.1 M267.1,857.5
		l-0.5-1 M267.7,858.4l-0.6-0.9 M268.4,859.3l-0.7-0.9 M269.1,860.1l-0.7-0.8 M269.9,860.8l-0.8-0.7 M270.8,861.4l-0.9-0.6
		 M271.8,862l-1-0.6 M272.9,862.5l-1.1-0.5 M274.1,863l-1.2-0.5 M275.4,863.4l-1.3-0.4 M276.8,863.7l-1.4-0.4 M278.4,864.1l-1.6-0.3
		 M280.1,864.4l-1.7-0.3 M281.9,864.6l-1.8-0.3 M283.9,864.9l-2-0.3 M286,865.1l-2.1-0.2 M288.3,865.4l-2.3-0.2 M288.3,865.4
		l3.9,0.3 M292.2,865.6l3.5,0.1 M295.7,865.8l3.1,0 M298.9,865.7l2.8-0.1 M301.6,865.6l2.4-0.2 M304.1,865.4l2.1-0.4 M306.2,865
		l1.8-0.5 M308,864.6l1.5-0.6 M309.5,864l1.3-0.6 M310.7,863.4l1-0.7 M311.8,862.6l0.8-0.8 M312.6,861.8l0.6-0.9 M313.2,861l0.5-0.9
		 M313.7,860.1l0.3-1 M314,859.1l0.2-1 M314.3,858.1l0.1-1.1 M314.4,857l0-1.1 M314.4,855.9l0-1.1 M314.4,854.8l0-1.1 M314.4,853.7
		l0-1.1 M314.3,852.6l-0.6,1.5 M313.7,854l-0.6,1.2 M313.2,855.3l-0.6,1 M312.6,856.3l-0.6,0.8 M312,857.1l-0.6,0.6 M311.4,857.7
		l-0.6,0.4 M310.8,858.1l-0.6,0.3 M310.2,858.4l-0.6,0.1 M309.7,858.6l-0.5,0 M309.1,858.6l-0.5-0.1 M308.6,858.5l-0.5-0.2
		 M308.1,858.3l-0.5-0.3 M307.7,858l-0.4-0.3 M307.2,857.7l-0.4-0.4 M306.9,857.3l-0.3-0.4 M306.5,856.9l-0.3-0.4 M306.2,856.5
		L306,856 M306,856l-0.2-0.4 M305.8,855.6l-0.1-0.4 M305.7,855.2l-0.1-0.8 M305.6,854.5l-0.4-0.7 M305.2,853.7l-0.6-0.6
		 M304.6,853.1l-0.9-0.6 M303.7,852.6l-1.1-0.5 M302.7,852.1l-1.3-0.4 M301.4,851.7l-1.4-0.3 M300,851.3l-1.6-0.3 M298.4,851.1
		l-1.7-0.2 M296.7,850.9l-1.9-0.1 M294.8,850.7l-2-0.1 M292.8,850.7l-2.1,0 M290.8,850.7l-2.1,0.1 M288.6,850.8l-2.2,0.1
		 M286.4,850.9l-2.2,0.2 M284.2,851.1l-2.3,0.3 M281.9,851.4l-2.3,0.3 M279.6,851.7l-2.3,0.4 M277.3,852.1l-2.3,0.5 M275.1,852.6
		l-2.2,0.5 M272.4,853.2l0.5-0.1 M271.9,853.4l0.5-0.1 M271.5,853.5l0.4-0.2 M271,853.7l0.4-0.2 M270.6,853.8l0.4-0.2 M270.2,854
		l0.4-0.2 M269.9,854.1l0.4-0.1 M269.5,854.3l0.4-0.1 M269.1,854.4l0.4-0.1 M268.8,854.4l0.3-0.1 M268.4,854.5l0.3,0 M268.1,854.5
		l0.3,0 M267.8,854.5l0.3,0 M267.4,854.4l0.3,0.1 M267.1,854.3l0.3,0.1 M266.8,854.1l0.3,0.2 M266.4,853.9l0.3,0.2 M266.1,853.5
		l0.3,0.3 M265.7,853.2l0.4,0.4 M330.3,532.2l-1,3.3 M330.3,532.2l1.4,1.9 M331.6,534.1l1.2,2.7 M332.9,536.8l1.1,3.4 M334,540.2
		l1,4 M335,544.1l0.9,4.5 M335.8,548.6l0.8,4.9 M336.6,553.5l0.7,5.2 M337.2,558.7l0.6,5.5 M337.8,564.2l0.5,5.6 M338.3,569.8
		l0.4,5.7 M338.7,575.5l0.3,5.7"/>
	<path class="st9" d="M339,581.3l0.3,5.6 M339.3,586.9l0.2,5.5 M339.5,592.3l0.2,5.2 M339.6,597.6l0.1,4.9 M339.7,602.4l0.1,4.4
		 M339.8,606.9l0,3.9 M339.8,610.8l0,3.3 M339.9,614.1l0,2.7 M339.9,616.8l0,1.9 M339.9,618.7l5.4,0.8 M345.2,619.4l5.5,0.5
		 M350.8,619.9l5.7,0.2 M356.5,620.1l5.8,0 M362.2,620.1l5.9-0.3 M424.3,608.8l4.7-1.5 M429.1,607.3l4.4-1.5 M433.5,605.7l4.1-1.5
		 M437.6,604.2l3.8-1.5 M441.4,602.8l3.4-1.4 M441.3,587.1l3.5,14.2 M438,573.5l3.3,13.6 M434.9,560.4l3.1,13.1 M432,547.9l2.9,12.5
		 M429.4,536l2.7,11.9 M426.9,524.7l2.5,11.3 M424.6,514l2.3,10.7 M422.5,503.9l2.1,10.1 M420.5,494.3l2,9.5 M412.7,456.2l1.3,6.4
		 M411.4,450.5l1.2,5.7 M410.3,445.5l1.1,5 M409.2,441.1l1.1,4.4 M408.2,437.4l1,3.7 M407.3,434.4l1,3 M406.5,432.4l0.8,2
		 M350.7,455.7v-19.8 M348.7,457l2-1.3 M345.2,458l3.4-1 M340.6,458.7l4.7-0.7 M334.8,459.1l5.8-0.4 M328.1,459.2l6.7-0.1
		 M320.7,459l7.4,0.2 M312.7,458.4l8,0.6 M304.3,457.5l8.4,0.9 M295.6,456.3l8.7,1.2 M286.8,454.7l8.8,1.6 M278,452.7l8.7,2
		 M269.5,450.4l8.5,2.3 M261.4,447.7l8.1,2.7 M253.8,444.6l7.6,3.1 M247,441.1l6.9,3.5 M241,437.3l6,3.9 M236,433l4.9,4.3
		 M232.8,428.9l3.3,4.1 M232.4,432l0.3-3.1 M232.3,436.2l0.2-4.1 M232.3,440.8l0-4.6 M232.5,445.9l-0.2-5.1 M232.8,451.5l-0.3-5.6
		 M233.2,457.6l-0.4-6.1 M233.7,464.3l-0.5-6.7 M234.1,471.5l-0.5-7.3 M234.6,479.4l-0.5-7.9 M235,487.8l-0.4-8.5 M235.4,496.9
		l-0.4-9.1 M235.6,506.7l-0.2-9.8 M235.7,517.2l-0.1-10.5 M235.6,528.4l0.1-11.2 M235.3,540.3l0.3-11.9 M234.8,552.9l0.6-12.7
		 M233.9,566.4l0.8-13.4 M232.8,580.6l1.2-14.2 M231.3,595.7l1.5-15.1 M229.4,611.6l1.9-15.9 M231.5,612.8l-2.1-1.2 M234.1,614
		l-2.5-1.2 M237,615.2l-2.9-1.2 M240.2,616.3l-3.3-1.1 M243.8,617.4l-3.6-1.1 M247.7,618.4l-3.9-1 M251.8,619.3l-4.1-0.9
		 M256.2,620.1l-4.3-0.8 M260.7,620.7l-4.5-0.7 M318.7,614.2l-5.8,1 M318.4,611.6l0.3,2.6 M318.2,608.6l0.2,3 M318.2,605.3l0,3.4
		 M318.3,601.6l-0.1,3.7 M318.5,597.6l-0.2,4 M318.8,593.4l-0.3,4.2 M319.2,589l-0.4,4.4 M319.7,584.4l-0.5,4.6 M320.3,579.8
		l-0.6,4.7 M320.9,575l-0.7,4.8 M321.7,570.2l-0.7,4.8 M322.5,565.4l-0.8,4.8 M323.3,560.7l-0.9,4.7 M324.2,556l-0.9,4.7
		 M325.2,551.5l-0.9,4.5 M326.1,547.1l-1,4.4 M327.2,543l-1,4.2 M328.2,539l-1,3.9 M329.2,535.4l-1,3.6 M576.6,207.8l0.3,0.1
		 M575.4,207.4l1.2,0.4 M574.2,206.9l1.2,0.6 M573,206.1l1.2,0.7 M571.8,205.3l1.2,0.9 M570.6,204.3l1.2,1 M569.5,203.2l1.1,1.1
		 M568.4,202l1.1,1.2 M567.4,200.7l1,1.3 M566.4,199.3l1,1.4 M565.5,197.9l0.9,1.4 M564.6,196.5l0.8,1.5 M563.9,195l0.8,1.5
		 M563.2,193.5l0.7,1.5 M562.7,192l0.6,1.5 M562.2,190.5l0.4,1.5 M561.9,189l0.3,1.5 M561.7,187.6l0.2,1.4 M561.6,186.2l0.1,1.4
		 M561.7,184.9l-0.1,1.3 M561.9,183.6l-0.2,1.2 M561.7,183.4l0.2,0.2 M561.4,183.3l0.3,0.1 M561,183.3l0.4,0 M560.6,183.3l0.4,0
		 M560.1,183.4l0.5-0.1 M559.5,183.5l0.5-0.1 M558.9,183.7l0.6-0.2 M558.4,183.9l0.6-0.2 M557.8,184.2l0.6-0.3 M557.2,184.5l0.6-0.3
		 M556.6,184.9l0.6-0.3 M556,185.2l0.6-0.4 M555.5,185.6l0.5-0.4 M554.9,186l0.5-0.4 M554.5,186.4l0.5-0.4 M554.1,186.8l0.4-0.4
		 M553.8,187.2l0.3-0.4 M553.5,187.5l0.2-0.4 M553.4,187.9l0.2-0.3 M553.3,188.2l0.1-0.3 M553.3,188.2l0,2.3 M553.4,190.5l0,0.2
		 M566.5,212.5l1.1,0.7 M567.6,213.1l1,0.6 M568.7,213.7l1,0.5 M569.7,214.2l0.9,0.4 M570.9,214.8l-0.3-0.2 M571.3,214.8l-0.4-0.1
		 M571.7,214.8l-0.4,0.1 M572.2,214.6l-0.5,0.2 M572.7,214.3l-0.5,0.3 M573.2,214l-0.5,0.4 M573.8,213.5l-0.5,0.4 M574.3,213
		l-0.5,0.5 M574.8,212.5l-0.5,0.5 M575.3,211.9l-0.5,0.6 M575.8,211.4l-0.5,0.6 M576.2,210.8l-0.4,0.6 M576.6,210.2l-0.4,0.6
		 M576.9,209.7l-0.3,0.5 M577.1,209.2l-0.2,0.5 M577.3,208.7l-0.1,0.4 M577.3,208.4l0,0.4 M577.2,208.1l0.1,0.3 M577,207.9l0.2,0.2
		 M625.3,149.2l0.6-0.1 M629.6,147.7l0.1-0.1 M629.5,147.9l0.1-0.1 M629.4,148l0.1-0.1 M629.3,148.1l0.1-0.1 M629.2,148.1l0.1-0.1
		 M629,148.2l0.1-0.1 M628.9,148.3l0.2-0.1 M628.7,148.4l0.2-0.1 M628.5,148.5l0.2-0.1 M628.2,148.5l0.2-0.1 M627.9,148.6l0.3-0.1
		 M627.6,148.7l0.3-0.1 M627.2,148.8l0.4-0.1 M626.8,148.9l0.4-0.1 M626.4,149l0.5-0.1 M625.9,149.1l0.5-0.1 M569.8,181.1l0,0.2
		 M569.8,180.9l0.1,0.2 M569.7,180.7l0.1,0.2 M569.6,180.5l0.1,0.2 M569.4,180.3l0.2,0.2 M569.2,180.1l0.2,0.2 M569,180l0.2,0.1
		 M568.7,179.8l0.3,0.1 M568.4,179.8l0.3,0.1 M568,179.7l0.4,0 M567.6,179.8l0.4,0 M567.2,179.9l0.4-0.1 M566.7,180l0.5-0.2
		 M566.2,180.3l0.5-0.2"/>
	<path class="st9" d="M565.6,180.6l0.6-0.3 M564.9,181l0.6-0.4 M564.3,181.5l0.7-0.5 M563.5,182.1l0.7-0.6 M562.8,182.8l0.8-0.7
		 M561.9,183.6l0.8-0.8 M577.9,207.4l-1,0.5 M578.8,206.9l-0.9,0.5 M579.6,206.4l-0.8,0.5 M580.3,205.9l-0.7,0.5 M581,205.5
		l-0.6,0.4 M581.5,205.1l-0.6,0.4 M582,204.7l-0.5,0.4 M582.4,204.4l-0.4,0.4 M582.7,204l-0.3,0.3 M583,203.7l-0.3,0.3 M583.2,203.4
		l-0.2,0.3 M583.3,203.2l-0.1,0.3 M583.3,202.9l-0.1,0.2 M583.3,202.7l0,0.2 M583.2,202.6l0.1,0.2 M583.1,202.4l0.1,0.1
		 M582.9,202.3l0.2,0.1 M582.6,202.2l0.3,0.1 M275.8,833.1l-1.4,2.1 M271.6,839.2l-1.3,1.9 M270.3,841.1l-1.2,1.8 M269.1,842.9
		l-1.1,1.7 M268,844.6l-0.9,1.6 M267.1,846.2l-0.8,1.5 M266.3,847.7l-0.6,1.4 M265.7,849.2l-0.4,1.3 M265.4,850.5l-0.1,1.2
		 M265.2,851.7l0.1,1.1 M314.4,851l-0.1,1.5 M314.6,849.5l-0.2,1.5 M314.9,848l-0.3,1.5 M315.3,846.5l-0.4,1.5 M315.7,844.9
		l-0.5,1.5 M316.2,843.4l-0.5,1.6 M317.9,838.5l-0.5,1.7 M318.4,836.7l-0.5,1.7 M318.9,835l-0.5,1.8 M319.3,833.1l-0.4,1.8
		 M319.6,831.2l-0.3,1.9 M319.9,829.2l-0.2,2 M320,827.1l-0.1,2.1 M319.9,825l0,2.2 M319.8,822.7l0.2,2.3 M319.4,820.4l0.4,2.4
		 M318.8,817.9l0.6,2.5 M318.1,815.3l0.8,2.6 M318.1,815.3l0-1.6 M318,813.7l-0.1-1.5 M317.9,812.2l-0.2-1.3 M317.7,811l-0.3-1.1
		 M317.5,809.9l-0.3-1 M286,811.3l-0.3,1.2 M285.7,812.5l-0.4,1.3 M285.3,813.8l-0.4,1.4 M284.9,815.3l-0.7,2.3 M284.2,817.6
		l-0.9,2.3 M283.4,819.8l-1,2.3 M282.3,822.1l-1.2,2.3 M281.2,824.4l-1.3,2.2 M279.9,826.6l-1.3,2.2 M278.6,828.8l-1.4,2.2
		 M277.2,831l-1.4,2.1 M327.7,99.7l-1.3,0.9 M328.9,98.5l-1.2,1.2 M329.9,97l-1.1,1.5 M330.9,95.2l-0.9,1.8 M331.7,93.2l-0.8,2
		 M332.3,91.1l-0.7,2.1 M332.9,88.8l-0.5,2.3 M333.3,86.5l-0.4,2.3 M333.5,84.1l-0.3,2.4 M333.7,81.8l-0.1,2.4 M333.7,79.5l0,2.3
		 M333.6,77.2l0.1,2.2 M333.4,75.2l0.2,2.1 M333,73.3l0.4,1.9 M332.5,71.6l0.5,1.7 M331.9,70.2l0.6,1.4 M331.2,69.2l0.7,1.1
		 M330.3,68.5l0.9,0.7 M329.3,68.2l1,0.3 M328.2,68.3l1.1-0.2 M327.9,68.5l0.3-0.2 M327.5,68.7l0.3-0.2 M327.2,68.9l0.3-0.2
		 M326.9,69.1l0.3-0.2 M326.5,69.3l0.3-0.2 M326.2,69.5l0.3-0.2 M325.9,69.7l0.3-0.2 M325.6,70l0.3-0.3 M325.3,70.3l0.3-0.3
		 M266.9,125.7l0.4-2.1 M266.4,127.5l0.4-1.8 M266,129.1l0.4-1.6 M265.6,130.5l0.4-1.4 M265.3,131.7l0.4-1.2 M264.9,132.8l0.4-1
		 M264.5,133.7l0.4-0.9 M264.2,134.5l0.3-0.8 M263.9,135.2l0.3-0.7 M263.6,135.9l0.3-0.7 M263.3,136.5l0.3-0.6 M263.1,137.1l0.3-0.6
		 M262.8,137.8l0.2-0.6 M262.6,138.4l0.2-0.7 M262.5,139.2l0.2-0.7 M262.3,140l0.1-0.8 M262.2,141l0.1-0.9 M262.1,142.1l0.1-1.1
		 M262.1,143.3l0.1-1.3 M262.1,143.3l-5.9,3.7 M256.2,147l-5.4,3.3 M250.7,150.3l-5,2.9 M245.8,153.2l-4.5,2.5 M241.3,155.8
		l-4.1,2.2 M237.1,158l-3.7,1.9 M233.4,159.8l-3.4,1.6 M230.1,161.4l-3,1.4 M227.1,162.8l-2.7,1.1 M224.4,163.9l-2.4,1 M222,164.9
		l-2.1,0.8 M219.9,165.7l-1.9,0.7 M218,166.4l-1.6,0.6 M216.4,167l-1.4,0.5 M215,167.5l-1.2,0.5 M213.8,168l-1.1,0.5 M212.7,168.5
		l-0.9,0.5 M211.8,169.1l-0.8,0.6 M211,169.7l-0.7,0.7 M210.3,170.4l-0.6,0.8 M209.6,171.2l-1.7,2.3 M207.9,173.5l-1.6,2.4
		 M206.3,176l-1.5,2.6 M204.8,178.5l-1.5,2.7 M203.3,181.2l-1.5,2.9 M201.8,184.1l-1.6,3.1 M196.7,194.4l-2,4 M194.8,198.3l-2.2,4.3
		 M192.6,202.7l-2.4,4.7 M190.1,207.4l-2.7,5.1 M187.4,212.5l-3.1,5.6 M184.3,218.1l-3.5,6 M180.9,224.1l-3.9,6.5 M177,230.6
		l-4.3,7.1 M172.7,237.7l-4.8,7.6 M167.9,245.3l-5.4,8.2 M162.5,253.5l-5.9,8.8 M156.6,262.3l-6.5,9.5 M150,271.8l1.4,0.6
		 M156.5,274.6l5.8,2.7 M162.3,277.2l5.1,2.5 M167.4,279.8l4.5,2.4 M172,282.2l4,2.3 M175.9,284.4l3.4,2.1 M179.3,286.5l2.9,2
		 M182.3,288.5l2.5,1.8 M184.8,290.4l2.1,1.7 M186.9,292.1l1.7,1.6 M188.6,293.6l1.4,1.4 M190,295l1.1,1.3 M191.1,296.3l0.9,1.1
		 M192,297.4l0.7,1 M192.8,298.4l0.6,0.8 M193.3,299.2l0.4,0.7 M193.8,299.9l0.4,0.5 M194.1,300.4l0.4,0.4 M194.5,300.8l0.4,0.2
		 M194.9,301l0.4,0.1 M195.3,301.1l2.7-4.1 M198,297l2.3-3.5 M200.3,293.4l2-3 M202.3,290.4l1.7-2.6 M204,287.8l1.5-2.2
		 M205.5,285.7l1.2-1.8 M206.7,283.9l1-1.5 M207.7,282.4l0.9-1.2 M208.6,281.2l0.8-1 M209.4,280.2l0.7-0.8 M210.1,279.4l0.6-0.7
		 M210.7,278.8l0.6-0.6 M211.3,278.1l0.6-0.6 M213.2,276.3l0.8-0.8 M214,275.5l0.9-0.9 M215,274.6l1.1-1.2 M216.1,273.4l1.3-1.4
		 M217.4,272l1.6-1.7 M219,270.3l0.1,2.8 M219,273.1l0.3,2.9 M219.3,276l0.4,3 M219.7,279l0.5,3.1 M220.3,282.1l0.7,3.2
		 M220.9,285.3l0.8,3.3 M221.7,288.6l0.9,3.5 M222.6,292.1l1,3.6"/>
	<path class="st9" d="M223.6,295.7l1,3.8 M224.6,299.5l1.1,4 M225.7,303.4l1.2,4.2 M226.9,307.6l1.2,4.4 M228.1,312l1.2,4.6
		 M229.3,316.6l1.2,4.8 M230.5,321.4l1.2,5.1 M231.7,326.5l1.2,5.4 M232.9,331.9l1.2,5.6 M234,337.5l1.1,5.9 M235.1,343.4l1,6.2
		 M236.2,349.7l1,6.6 M237.2,356.2l-0.1,1.5 M237.1,357.8l-0.2,1.9 M236.9,359.7l-0.3,2.3 M236.7,362l-0.4,2.6 M236.3,364.6
		l-0.4,2.9 M235.9,367.5l-0.5,3.1 M235.4,370.6l-0.5,3.3 M233.1,384.6l-0.6,3.7 M232.5,388.4l-0.6,3.7 M231.9,392.1l-0.6,3.7
		 M231.3,395.8l-0.5,3.6 M230.8,399.4l-0.5,3.5 M230.3,403l-0.4,3.4 M229.9,406.4l-0.4,3.2 M229.5,409.6l-0.3,3 M229.3,412.5
		l-0.2,2.7 M229.1,415.3l-0.1,2.4 M229,417.7l0.9,5.5 M229.9,423.2l2.4,5.1 M232.3,428.3l0.5,0.6 M25.7,212.6l1.4,1.2 M27.1,213.8
		l1.4,1.1 M28.5,214.8l1.4,0.9 M30,215.8l1.4,0.8 M31.3,216.6l1.3,0.7 M32.7,217.2l1.3,0.5 M34,217.7l1.2,0.3 M35.2,218l1.1,0.1
		 M36.3,218.2l1.4,1.8 M37.7,220l1.5,1.7 M39.1,221.7l1.5,1.7 M40.6,223.4l1.6,1.6 M42.2,225l1.7,1.6 M43.9,226.6l1.7,1.5
		 M45.6,228.1l1.7,1.5 M47.3,229.6l1.8,1.4 M49.1,231.1l1.8,1.4 M50.9,232.4l1.8,1.4 M52.6,233.8l1.8,1.3 M57.8,237.7l1.6,1.2
		 M59.4,238.9l1.6,1.2 M61,240.1l1.5,1.2 M62.5,241.3l1.4,1.2 M63.9,242.4l1.3,1.2 M65.3,243.6l1.2,1.1 M66.5,244.7l1.1,1.1
		 M67.6,245.9l0.7,0.8 M68.3,246.6l1.1,1.2 M69.4,247.8l1.5,1.6 M74.7,253.8l2.3,2.6 M77,256.4l2.6,2.9 M79.6,259.3l2.8,3.1
		 M82.3,262.3l2.9,3.2 M85.3,265.5l3,3.3 M88.3,268.9l3.2,3.4 M91.5,272.3l3.2,3.4 M94.7,275.7l3.3,3.4 M97.9,279l3.3,3.3
		 M101.2,282.4l3.2,3.2 M104.4,285.6l3.2,3.1 M107.6,288.6l3.1,2.9 M110.7,291.5l3,2.6 M113.6,294.1l2.8,2.3 M116.4,296.5l2.6,2
		 M119.1,298.5l3.7,2.9 M122.8,301.4l3.4,2.6 M126.1,304l3,2.4 M129.2,306.4l2.7,2.2 M131.9,308.6l2.4,2 M138.4,313.9l1.7,1.4
		 M140.1,315.3l1.5,1.2 M141.6,316.5l1.3,1.1 M142.9,317.5l1.2,0.9 M144.1,318.4l1.1,0.8 M145.2,319.2l1,0.6 M146.2,319.8l0.9,0.5
		 M147.1,320.3l0.9,0.4 M148,320.7l0.8,0.3 M148.8,321.1l0.8,0.2 M149.6,321.3l0.9,0.1 M150.5,321.4l0.9,0.1 M151.4,321.5l1,0
		 M152.4,321.5l1.3,0 M153.7,321.5l1.3-0.1 M155,321.5l1.3-0.1 M156.3,321.4l1.3-0.2 M157.7,321.2l1.3-0.3 M159,320.9l1.4-0.4
		 M160.4,320.6l1.4-0.5 M161.8,320.1l1.5-0.6 M163.3,319.5l1.6-0.7 M164.9,318.8l1.7-0.9 M166.6,317.9l1.8-1.1 M168.3,316.9l1.9-1.2
		 M170.3,315.6l2.1-1.4 M172.3,314.2l2.2-1.6 M174.6,312.6l2.4-1.9 M177,310.7l2.6-2.1 M179.5,308.6l2.8-2.4 M182.3,306.2l3-2.6
		 M185.3,303.6l3.2-2.9 M188.6,300.7l3.5-3.2 M151.4,272.4l-1.3,1.5 M150.1,273.9l-2.1-1.5 M147.9,272.4L144,270 M144,270l-4.1-2.3
		 M139.9,267.7l-4.2-2.2 M135.8,265.6l-4.2-2.1 M131.6,263.5l-4.2-2 M127.3,261.5l-4.2-1.9 M123.1,259.6l-4.2-1.9 M118.9,257.6
		l-4.1-1.9 M114.8,255.7l-4-1.9 M110.7,253.8l-3.9-2 M106.8,251.8l-3.7-2 M103.1,249.8l-3.5-2.1 M99.6,247.7l-3.3-2.2 M96.4,245.5
		l-3-2.3 M93.4,243.2l-2.7-2.5 M90.7,240.7l-2.4-2.7 M86.6,234.8l1.7,3.2 M85.2,232.1l1.5,2.8 M83.9,229.7l1.3,2.4 M82.7,227.6
		l1.1,2.1 M81.7,225.8l1,1.8 M80.8,224.3l0.9,1.5 M80,223.1l0.8,1.3 M79.2,222l0.8,1 M78.5,221.1l0.7,0.9 M77.8,220.4l0.7,0.7
		 M77.1,219.8l0.7,0.6 M76.3,219.3l0.7,0.5 M75.5,218.8l0.8,0.5 M74.7,218.4l0.9,0.4 M73.7,218l1,0.4 M72.6,217.5l1.1,0.5 M71.4,217
		l1.2,0.5 M70,216.3l1.4,0.6 M68.4,215.5l1.6,0.8 M65.4,214l-0.1-1.5 M65.3,212.5l0-1.6 M65.3,210.9l0-1.4 M65.4,209.4l0.1-1.3
		 M65.4,208.2l0.1-1.1 M65.5,207.1l0.1-0.9 M65.6,206.2l0.1-0.8 M65.7,205.3l0-0.7 M65.8,204.7l0-0.6 M65.7,204.1l-0.1-0.5
		 M65.6,203.6l-0.2-0.4 M65.4,203.1l-0.3-0.4 M65.1,202.8l-0.4-0.3 M64.7,202.4l-0.6-0.3 M64.1,202.1l-0.8-0.3 M62.9,201.7l0.4,0.1
		 M62.5,201.6l0.4,0.1 M62.2,201.5l0.4,0.1 M61.8,201.5l0.4,0 M61.4,201.6l0.4-0.1 M61,201.8l0.4-0.2 M60.6,202.1l0.4-0.3
		 M60.3,202.6l0.4-0.4 M59.9,203.2l0.3-0.6 M59.6,203.9l0.3-0.8 M59.3,204.9l0.3-1 M59,206.1l0.3-1.2 M58.7,207.5l0.3-1.4
		 M58.5,209.2l0.2-1.7 M58.3,211.1l0.2-1.9 M58.3,211.1l-0.8-0.4 M57.5,210.7l-0.7-0.4 M56.8,210.3l-0.6-0.3 M56.2,210l-0.5-0.3
		 M55.7,209.7l-0.5-0.3 M55.2,209.5l-0.4-0.2 M54.8,209.2l-0.3-0.2 M54.5,209l-0.3-0.2 M54.2,208.8l-0.2-0.2 M54,208.7l-0.2-0.1
		 M53.8,208.5l-0.2-0.1 M53.6,208.4l-0.1-0.1 M53.5,208.3l-0.1-0.1 M53.4,208.2L53.4,208.2 M53.3,208.1L53.3,208.1 M53.3,208
		l0.1-1.7 M53.4,206.3l0.2-1.9 M53.6,204.4l0.2-1.9 M53.8,202.5l0.2-1.8"/>
	<path class="st9" d="M54,200.7l0.2-1.7 M54.2,199l0.1-1.6 M54.3,197.3l0.1-1.5 M54.4,195.8l0-1.4 M54.4,194.4l-0.1-1.3 M54.3,193.1
		l-0.2-1.1 M54.1,192l-0.3-0.9 M53.8,191.1l-0.5-0.8 M53.3,190.3l-0.7-0.6 M52.6,189.7l-0.9-0.4 M50.8,189.4l0.9,0 M50,189.6
		l0.8-0.2 M49.3,189.9l0.7-0.3 M48.7,190.2l0.7-0.4 M48.1,190.7l0.6-0.5 M47.5,191.3l0.5-0.6 M47.1,192l0.5-0.7 M46.6,192.8l0.4-0.8
		 M46.2,193.8l0.4-1 M45.8,194.9l0.4-1.1 M45.5,196.2l0.4-1.2 M45.1,197.5l0.3-1.4 M44.8,199.1l0.3-1.5 M44.5,200.7l0.3-1.7
		 M44.5,200.7l-0.8-0.4 M43.7,200.3l-0.7-0.3 M42.9,200l-0.7-0.3 M42.3,199.7l-0.6-0.2 M41.6,199.5l-0.6-0.2 M41.1,199.4l-0.5-0.1
		 M40.6,199.2l-0.5-0.1 M40.1,199.2l-0.4,0 M39.7,199.2l-0.4,0 M39.3,199.2l-0.3,0.1 M39,199.2l-0.3,0.1 M38.7,199.3l-0.3,0.1
		 M38.4,199.4l-0.2,0.2 M38.2,199.6l-0.2,0.2 M38,199.8l-0.2,0.2 M37.9,200l-0.1,0.2 M37.7,200.2l-0.1,0.2 M37.6,200.4L37.6,200.4
		 M37.6,200.5l-0.2-0.9 M37.5,199.7l-0.3-1.7 M36.7,195.1l-0.2-1.2 M36.5,193.9l-0.2-1 M36.3,192.9l-0.2-0.9 M36.1,192l-0.2-0.7
		 M35.9,191.3l-0.2-0.6 M35.7,190.7l-0.3-0.5 M35.4,190.2l-0.3-0.4 M35.1,189.8l-0.4-0.3 M34.7,189.5l-0.5-0.2 M34.2,189.3l-0.5-0.1
		 M33.7,189.1l-0.6-0.1 M33.1,189.1l-0.7,0 M32.3,189l-0.9,0 M31.2,189.1l0.3,0 M30.9,189.1l0.3-0.1 M30.7,189.2l0.2-0.1
		 M30.5,189.4l0.2-0.2 M30.3,189.6l0.2-0.2 M30.1,189.9l0.2-0.3 M29.9,190.2l0.2-0.3 M29.8,190.6l0.1-0.4 M29.7,191.1l0.1-0.5
		 M29.6,191.7l0.1-0.6 M29.5,192.4l0.1-0.7 M29.4,193.2l0.1-0.8 M29.4,194.1l0.1-0.9 M29.3,195.2l0-1 M29.3,196.3l0-1.2 M29.3,197.6
		l0-1.3 M29.2,199l0-1.4 M29.2,200.6l0-1.6 M29.2,202.3l0-1.7 M29.2,204.2l0-1.9 M29.2,204.2l-1.4-1.5 M27.8,202.7l-1.3-1.3
		 M26.5,201.4l-1.2-1.2 M25.4,200.2l-1-1 M24.3,199.1l-0.9-0.9 M23.4,198.2l-0.9-0.8 M22.5,197.5l-0.8-0.6 M21.8,196.8l-0.7-0.5
		 M21.1,196.3l-0.6-0.4 M20.4,195.9l-0.6-0.3 M19.8,195.7l-0.5-0.2 M19.3,195.5l-0.5-0.1 M18.8,195.4l-0.5,0 M18.3,195.4l-0.5,0.1
		 M17.9,195.6l-0.5,0.2 M17.4,195.8L17,196 M17,196l-0.5,0.4 M16.5,196.4l-0.5,0.4 M16,196.8l-0.5,0.5 M15.5,197.3l-0.6,0.5
		 M14.9,197.8l0.1,0.9 M15,198.7l0.3,1 M15.3,199.8l0.5,1.1 M15.8,200.9l0.7,1.2 M16.4,202.1l0.8,1.3 M17.2,203.4l0.9,1.3
		 M18.2,204.7l1.1,1.4 M19.2,206.1l1.2,1.4 M20.4,207.4l1.2,1.4 M21.6,208.8l1.3,1.3 M22.9,210.1l1.4,1.3 M24.3,211.4l1.4,1.2
		 M470.2,816.2l-1.7-1.6 M439,816.3l-4.1,2.6 M323.5,122.9l0.4,2.9 M350.7,435.9l-1.6-22.2 M355.4,453.1l0,1.8 M407.7,370.4
		l-2.5-11.5 M406.8,237.5l1.1,0.8 M443.4,196.5l-5.7-3.9 M647.7,145l1-1.5 M618.5,151.3l-3,0.9 M602.5,155.3l-1.9,0.4 M252.4,97.5
		l-3.8-9 M259,112.1l1.1,2 M309,59.5l0.1,1.6 M273.5,117l1,1.7 M301,118.5l0.9-1.4 M291.4,119.7l-0.9,0.7 M306.2,105.6l5.2-1.9
		 M505.8,211.7l-7.2,2.5 M553.4,190.7l-5.9,3.2 M413.8,802.3l-4-18.2 M433.4,713l-1.5-17.3 M436.5,848l3.9-0.1 M270.5,734.6
		l5.1,15.5 M414,462.5l6.5,31.8 M274.4,835.2l-2.8,4 M316.2,843.4l1.1-3.2 M200.2,187.3l-3.5,7.1 M151.4,272.4l5.1,2.2 M211.9,277.6
		l1.3-1.3 M233.1,384.6l1.8-10.7 M54.4,235.1l3.4,2.5 M70.9,249.5l3.8,4.3 M134.3,310.6l4.1,3.3 M68.4,215.5l-3-1.5 M37.2,197.9
		l-0.5-2.9 M410.7,217.2l-1.7,8.6 M326.3,139.5l1.1-1.1 M43.4,206.7l0.3-1.8 M67.6,227.3l-0.7-3.1 M65.6,216.4l-0.2-2.1 M66.3,221.3
		l-0.4-2.6 M38.2,203.7l-0.4-2.1 M66.8,224.2l-0.6-2.9 M39.3,208.6l-0.6-2.6 M623,159.1l-0.4,1.3 M623.4,157.7l-0.4,1.3
		 M623.8,156.4l-0.4,1.3 M620.3,166.9l-0.5,1.1 M620.8,165.7l-0.5,1.2 M621.7,163.1l-0.5,1.3 M622.1,161.8l-0.5,1.3 M619.3,169.1
		l-0.5,1 M621.2,164.4l-0.5,1.3 M619.8,168l-0.5,1.1 M57.8,225.3l0-3.5 M42.6,211.5l0.2-1.2 M43,209l0.4-2.3 M44.1,202.6l0.3-1.8
		 M43.8,204.6l0.4-2 M58,215.8l0.1-2.5 M42.1,214.1l0.5-2.6 M58.1,213.3l0.2-2.2 M57.9,218.7l0.1-2.8 M65.4,214.4l0-0.4
		 M293.9,173.4l-0.3,1.4 M294,172l-0.1,1.4 M480.8,224.6l0.8,0.7 M294,170.7l0,1.3 M328.3,140.8l-1.1-0.2 M329,141.3l-0.8-0.5
		 M329.5,142.1l-0.5-0.8 M329.8,143.1l-0.3-1 M328.9,150.8l0.4-1.8 M328.5,152.6l0.4-1.9 M328,154.6l0.4-1.9 M327.6,156.5l0.4-1.9
		 M327.3,158.3l0.3-1.9 M327.1,160.2l0.2-1.8 M329.7,166.8l-0.4,1.5 M330.1,165.2l-0.4,1.5 M330.6,163.7l-0.5,1.5 M331.1,162.1
		l-0.5,1.6 M331.6,160.5l-0.5,1.6 M332.1,159l-0.5,1.6 M332.7,157.4l-0.5,1.6 M333.2,155.8l-0.5,1.6 M333.7,154.2l-0.5,1.6
		 M334.2,152.6l-0.5,1.6 M334.6,151.1l-0.4,1.5 M335,149.6l-0.4,1.5"/>
	<path class="st9" d="M335.4,148.1l-0.4,1.5 M335.7,146.6l-0.3,1.5 M335.9,145.2l-0.2,1.4 M336,143.8l-0.2,1.4 M336.1,142.5
		l-0.1,1.3 M336.1,141.2l0,1.3 M335.9,140l0.1,1.2 M335.3,137.4l0.4,1.5 M335.1,136.1l0.2,1.3 M335,134.9l0.1,1.2 M334.9,133.7
		l0,1.1 M329.8,143.4L329.8,143.4 M274.5,123.9l-1-0.2 M57.8,221.8l0.1-3.2 M479,223.2l1,0.7 M293.8,169.4l0.1,1.3 M293.6,168.2
		l0.3,1.3 M290.1,153.8l-0.4,0.7 M479.9,223.9l0.9,0.7 M293.3,166.9l0.3,1.2 M290.9,161.3l0.5,1.1 M326.9,161.9l0.1-1.7
		 M290.1,159.3l0.4,1 M327,163.5l0-1.6 M329.3,168.3l-1-0.9 M291.4,162.3l0.5,1.1 M327.2,165l-0.2-1.5 M292.4,164.6l0.5,1.2
		 M291.9,163.4l0.5,1.1 M292.8,165.7l0.4,1.2 M327.6,166.3l-0.4-1.3 M289.5,157.5l0.3,0.9 M328.3,167.4l-0.7-1.1 M331.4,130.2
		l-0.1-0.5 M331.4,131.8l0-0.6 M331.3,129.7l-0.1-0.4 M331.1,133.1l0.2-0.7 M329.9,135.5l0.5-0.8 M331.3,132.5l0.1-0.6 M289.3,156.7
		l0.2,0.8 M289.4,155.1l-0.1,0.7 M289.7,158.4l0.3,0.9 M290.5,160.3l0.5,1 M331,128.5l-0.1-0.4 M329.8,143.4l0-0.3 M331.1,128.9
		l-0.1-0.4 M331.2,129.3l-0.1-0.4 M330.4,134.7l0.4-0.8 M330.8,133.9l0.3-0.7 M329.2,136.4l0.7-0.9 M331.5,131.2l0-0.5 M331.5,130.7
		l-0.1-0.5 M328.4,137.4l0.8-1 M37.8,201.6l-0.2-1.1 M330.8,127.8l0-0.3 M330.9,128.1l-0.1-0.3 M618.8,170.1l-0.5,0.9 M325,140.7
		l1.3-1.2 M38.7,206.1l-0.2-1.2 M327.5,138.4l1-1 M409,225.8l-1.5,7.8 M289.6,154.4l-0.3,0.7 M289.3,155.9l0,0.8 M335.7,138.9
		l0.2,1.1 M65.9,218.8l-0.3-2.3 M329.3,149l0.5-5.6 M622.6,160.4l-0.4,1.3 M407.5,233.6l-0.7,3.9 M262,144.7l0-1.4 M305.7,855.2
		l0-0.3 M53.3,208.3l0-0.2 M161.6,284l-3.1-3.2 M38.5,204.9l-0.2-1.2 M151.7,275l-0.2-0.1 M43.7,204.9l0.1-0.3 M42.8,210.2L43,209
		 M53.4,213.2l-0.1-1 M53.4,214.2l-0.1-1 M54.1,218.1l-0.4-1.9 M54.7,219.9l-0.6-1.9 M155.2,277.8l-3.6-2.8 M158.6,280.8l-3.3-3
		 M53.3,212.2l0-2 M53.3,210.2l0.1-2 M53.7,216.2l-0.3-2 M612.2,165.4l0.4-0.6 M593.7,157.7l1-0.4 M616.1,158.2l0.3-0.4
		 M270.2,159.6l-1.7-1.4 M615.8,158.6l0.3-0.5 M591.5,172.8l1.4-0.4 M610.2,167.6l0.6-0.5 M609.5,168l0.6-0.4 M615.5,159.2l0.3-0.5
		 M614.9,160.3l0.3-0.6 M597.3,171.5l1.5-0.3 M612.6,164.8l0.4-0.6 M614.3,161.6l0.3-0.6 M584.8,176.1l0.8-0.7 M613,164.2l0.4-0.6
		 M613.4,163.5l0.3-0.6 M615.2,159.7l0.3-0.6 M263.4,152.2l-0.5-1.2 M265.9,155.7l-1-1.2 M613.7,162.9l0.3-0.6 M614,162.2l0.3-0.6
		 M598.8,171.2l1.5-0.3 M594.4,172.1l1.5-0.3 M600.3,170.9l1.5-0.3 M264.1,153.3l-0.7-1.2 M603.2,170.3l1.4-0.3 M262,146.1l0-1.4
		 M262.5,149.8l-0.3-1.2 M262.3,148.6l-0.2-1.2 M262.9,151l-0.4-1.2 M262.1,147.4l-0.1-1.3 M605.8,169.6l1.2-0.4 M611.8,166l0.5-0.6
		 M587.7,174.2l1.2-0.5 M608.9,168.4l0.7-0.4 M608.1,168.8l0.7-0.3 M590.1,173.2l1.3-0.4 M588.9,173.7l1.3-0.5 M595.6,156.9l0.9-0.3
		 M585.6,175.4l1-0.6 M592.6,158.1l1.1-0.5 M583.6,177.8l0.5-0.9 M594.7,157.3l0.9-0.3 M604.6,170l1.3-0.4 M584.2,176.9l0.7-0.8
		 M607,169.2l1.1-0.4 M610.7,167.1l0.5-0.5 M611.3,166.6l0.5-0.6 M592.9,172.4l1.5-0.3 M586.6,174.7l1.1-0.6 M595.8,171.8l1.5-0.3
		 M293.6,174.8l-4.1-2.4 M276.7,164.3l-2.4-1.7 M274.3,162.6l-2.2-1.6 M272.1,161l-1.9-1.5 M289.6,172.3l-3.7-2.3 M285.9,170.1
		l-3.4-2.1 M282.5,168l-3-1.9 M279.5,166.1l-2.7-1.8 M601.8,170.6l1.4-0.3 M264.9,154.5l-0.8-1.2 M267.1,156.9l-1.2-1.2
		 M268.6,158.2l-1.4-1.3 M614.6,161l0.3-0.6 M616.4,157.7l0.5-1.7 M617.8,153.1l0.4-1.2 M618.2,151.9l0.3-0.6 M151.5,274.9l-1.4-1
		 M616.8,156l0.5-1.5 M617.3,154.5l0.5-1.4"/>
</g>
</svg>
