<?xml version="1.0" encoding="utf-8"?>
<!-- Generator: Adobe Illustrator 20.0.0, SVG Export Plug-In . SVG Version: 6.00 Build 0)  -->
<svg version="1.1" id="Layer_1" xmlns="http://www.w3.org/2000/svg" xmlns:xlink="http://www.w3.org/1999/xlink" x="0px" y="0px"
	 viewBox="0 0 243 792" style="enable-background:new 0 0 243 792;" xml:space="preserve">
<style type="text/css">
	.st0{fill:#4E4E4E;}
	.st1{fill:#542C00;}
	.st2{fill:#DCB187;}
	.st3{fill:#282828;}
	.st4{fill:#FFFFFF;}
	.st5{fill:#8A6829;}
	.st6{fill:#00A7A8;}
	.st7{fill:none;stroke:#000000;stroke-miterlimit:10;}
</style>
<g>
	<path class="st0" d="M116.1,59.4l-0.1-0.3l-0.1-0.3l0-0.3l0-0.3l0-0.2l0-0.2l0-0.2l0-0.2l0-0.2l0-0.2l0.1-0.2l0.1-0.2l0.1-0.2
		l0.1-0.1l0.1-0.1l0.2-0.1l0.2-0.1l0.2-0.2l0.2-0.2l0.3-0.2l14.3,0l0.5,0.3l0.4,0.2l0.3,0.2l0.3,0.2l0.2,0.2l0.2,0.2l0.1,0.2
		l0.1,0.2l0,0.2l0,0.2l0,0.2l0,0.2l0,0.2l-0.1,0.2l-0.1,0.3l-0.1,0.3l-0.1,0.3l-0.8,2.4l-0.9,1.5l-0.2,0.3l-0.2,0.3l-0.2,0.2
		l-0.2,0.2l-0.1,0.2l-0.1,0.2l-0.2,0.1l-0.2,0.1l-0.2,0.1l-0.2,0.1l-0.2,0.1l-0.2,0.1l-0.2,0l-0.3,0l-0.3,0l-0.3,0l-0.4,0l-0.4,0
		l-6.6,0l-0.3,0l-0.2,0l-0.2,0l-0.2,0l-0.2,0l-0.2,0l-0.1,0l-0.1,0l-0.1-0.1l-0.1-0.1l-0.1-0.1l-0.1-0.1l-0.1-0.1l-0.1-0.1l-0.1-0.2
		l-0.1-0.2l-0.1-0.2l-0.1-0.2L116.1,59.4z M116.1,59.4"/>
	<path class="st1" d="M80.4,60.9l-0.1-0.5l3.4-0.6l0,0l0,0.3l0,0.3l0,0.3l0,0.2l0,0.2l-0.1,0.2l-0.1,0.3l-0.1,0.3l-0.1,0.3l-0.2,0.3
		l-0.2,0.4l-0.2,0.4l-0.2,0.5l-0.3,0.5l-0.3-0.1L81.6,64l-0.3-0.2l-0.2-0.3l-0.2-0.4l-0.2-0.4l-0.1-0.4l-0.1-0.5l-0.1-0.5L80.4,60.9
		z M80.4,60.9"/>
	<path class="st2" d="M80.3,60.4l0.1,0.5l0.1,0.5l0.1,0.5l0.1,0.5l0.1,0.4l0.2,0.4l0.2,0.4l0.2,0.3l0.3,0.2l0.3,0.2l0.3,0.1l0.3-0.5
		l0.2-0.5l0.2-0.4l0.2-0.4l0.2-0.3l0.1-0.3l0.1-0.3l0.1-0.3l0.1-0.2l0-0.2l0-0.2l0-0.3l0-0.3l0-0.3l0,0l7.4-1.3l0.1,0.2l0.1,0.2
		l0.1,0.4l0.8,2.5l1,1.6l0.2,0.3l0.2,0.3l0.2,0.3l0.2,0.3l0.2,0.2l0.2,0.2l0.2,0.2l0.2,0.2l0.3,0.2l0.3,0.1l0.3,0.1l0.3,0.1l0.3,0
		l0.3,0l0.3,0l0.4,0l0.4,0l0.4,0l6.6,0l0.3,0l0.3,0l0.2,0l0.2,0l0.2,0l0.2,0l0.2-0.1l0.2-0.1l0.2-0.1l0.2-0.1l0.2-0.2l0.2-0.2
		l0.1-0.2l0.1-0.2l0.1-0.2l0.1-0.2l0.1-0.2l0.1-0.2l2.5-4.3l0.1-0.5l0.1-0.3l0-0.3l0-0.3l0-0.3l0-0.3l0-0.3l0-0.3l0-0.3l0-0.1
		l0.3-0.2l0.3-0.2l0.3-0.1l0.4-0.1l0.4-0.1l0.4,0l0.4,0l0.4,0.1l0.4,0.1l0.3,0.1l0.3,0.2l0.3,0.2l0,0.1l0,0.3l0,0.3l0,0.3l0,0.3
		l0,0.3l0,0.3l0,0.3l0.1,0.3l0.1,0.5l2.5,4.3l0.1,0.2l0.1,0.2l0.1,0.2l0.1,0.2l0.1,0.2l0.1,0.2l0.2,0.2l0.2,0.2l0.2,0.1l0.2,0.1
		l0.2,0.1l0.2,0.1l0.2,0l0.2,0l0.2,0l0.2,0l0.3,0l0.3,0l6.6,0l0.4,0l0.4,0l0.4,0l0.3,0l0.3,0l0.3,0l0.3-0.1l0.3-0.1l0.3-0.1l0.3-0.2
		l0.2-0.2l0.2-0.2l0.2-0.2l0.2-0.2l0.2-0.3l0.2-0.3l0.2-0.3l0.2-0.3l1-1.6l0.8-2.5l0.1-0.4l0.1-0.2l7.2,1.8l0,0.2l0.1,0.3l0.1,0.3
		l0.1,0.2l0.1,0.2l0.1,0.2l0.2,0.2l0.2,0.2l0.2,0.2l0.2,0.2l0.2,0.2l0.3,0.3l0.3,0.4l0.1-1.3l0.1-1.1l0.1-1l0.1-0.9l0.2-0.8l0.2-0.7
		l0.2-0.6l0.2-0.5l0.2-0.4l0.2-0.3l0.2-0.3l0.2-0.2l0.2-0.2l0.2-0.1l0.2-0.1l0.2,0l0.2,0l0.2,0l0.2,0l0.2,0l0.3,0.3l0.3,0.3l0.2,0.3
		l0.2,0.3l0.2,0.3l0.1,0.3l0.1,0.3l0.1,0.3l0.1,0.4l0.1,0.4l0,0.5l0,0.6l0,0.6l0,0.7l0,0.8l-0.1,1l-0.1,1.1l-0.1,1.2l-0.4,5.1
		l-0.1,1.1l-0.1,1.1l-0.1,1.1l-0.1,1.1l-0.2,1.1l-0.2,1.1l-0.2,1l-0.3,1l-0.3,0.9l-0.3,0.8l-0.4,0.8l-0.5,0.7l-0.5,0.6l-0.6,0.5
		l-0.6,0.4l-0.7,0.3l-0.8,0.1l-0.9,0l-0.1,1.5l-0.2,1.3l-0.2,1.2l-0.3,1.1l-0.3,1l-0.4,1l-0.5,0.9l-0.6,0.9l-0.7,0.9l-0.8,0.9
		l-0.9,1l-1,1l-1.2,1.1l-1.3,1.2l-1.5,1.3l-3.4,3.1l-2,1.8l-2.2,2l-2.4,2.2l-1.6,0.6l-1.5,0.5l-1.4,0.4l-1.4,0.3l-1.3,0.2l-1.2,0.1
		l-1.1,0l-1.1,0l-1-0.1l-0.9-0.1l-0.9-0.2l-0.8-0.2l-0.8-0.2l-0.7-0.3l-0.7-0.3l-0.6-0.3l-0.6-0.3l-1.1-0.5l-1.8-1.7l-1.6-1.5
		l-2.7-2.6l-1.2-1.1l-1.1-1l-0.9-0.9l-0.9-0.9l-0.8-0.9l-0.7-0.8l0,0l-0.7-0.8l-0.6-0.9L90,94.2l-0.6-1l-0.6-1.1L88.3,91l-0.6-1.3
		L87,88.2l-0.7-1.6l-0.8-1.8l-0.4-0.1l-0.5-0.1l-0.5-0.2l-0.6-0.3l-0.6-0.4l-0.6-0.5l-0.6-0.6L81,82.1l-0.6-0.9l-0.6-1L79.2,79
		l-0.5-1.4L78.1,76l-0.4-1.8l-0.3-2.1l-0.3-2.3L77,67.2l0-2.8l0.1-3.1l0.2-3.4l0.1-0.2l0.1-0.1l0.1-0.1l0.1-0.1l0.1-0.1l0.1,0l0.1,0
		l0.1,0l0.1,0l0.1,0l0.8,0.2l0.3,0.3l0.1,0.1l0.1,0.1l0.1,0.1l0.1,0.1l0.1,0.1l0.1,0.1l0,0.1l0,0.1l0,0l0,0l0,0.1l0,0.1l0,0.1l0,0.1
		l0,0.1l0,0.1l0,0.1l0,0.1l0,0.4l0,0.5L80.3,60.4z M80.3,60.4"/>
	<path d="M83.7,59.8l-3.4,0.6l0-0.5l0-0.5l3.5-0.9l7.3-1.8L91,57.2l0,0.3l0,0.3l0,0.3l0.1,0.2l0.1,0.2L83.7,59.8z M83.7,59.8"/>
	<path class="st1" d="M136.9,95.3l0.9-1l0.8-0.9l0.7-0.9l0.6-0.9l0.5-0.9l0.4-1l0.3-1l0.3-1.1l0.2-1.2l0.2-1.3l0.1-1.5l0.9,0
		l0.8-0.1l0.7-0.3l0.6-0.4l0.6-0.5l0.5-0.6l0.5-0.7l0.4-0.8l0.3-0.8l0.3-0.9l0.3-1l0.2-1l0.2-1.1l0.2-1.1l0.1-1.1l0.1-1.1l0.1-1.1
		l0.1-1.1l0.4-5.1l0.1-1.2l0.1-1.1l0.1-1l0-0.8l0-0.7l0-0.6l0-0.6l0-0.5l-0.1-0.4l-0.1-0.4l-0.1-0.3l-0.1-0.3l-0.1-0.3l-0.2-0.3
		l-0.2-0.3l-0.2-0.3l-0.3-0.3l-0.3-0.3l-0.2,0l-0.2,0l-0.2,0l-0.2,0l-0.2,0l-0.2,0.1l-0.2,0.1l-0.2,0.2l-0.2,0.2l-0.2,0.3l-0.2,0.3
		l-0.2,0.4l-0.2,0.5l-0.2,0.6l-0.2,0.7l-0.2,0.8l-0.1,0.9l-2.9-0.9l0-0.1l-0.1-0.7l-0.1-0.8l-0.1-1l-0.1-1.1l-0.1-1.3l0-0.2
		l-1.2-3.6l-0.6-3.5l-0.6-3.3l-0.7-3L137,38l-0.8-2.4l-0.9-2.2l-0.9-1.9l-1-1.7l-1-1.5l-1-1.3l-1-1.2l-1-1l-1-0.9l-1-0.8l-1-0.6
		l-1-0.6l-0.9-0.5l-0.9-0.4l-0.9-0.4l-0.8-0.4l-0.8-0.1l-0.7-0.1l-0.7-0.1l-0.6,0l-0.5,0l-0.5,0l-0.5,0l-0.4,0.1l-0.4,0.1l-0.4,0.2
		l-0.4,0.2l-0.4,0.2l-0.4,0.3l-0.4,0.4l-0.4,0.4l-0.4,0.5l-0.4,0.5l-0.5,0.6l-0.5,0.7l-0.5,0.8l-1.4-0.7l-1.3-0.6l-1.1-0.4l-1-0.3
		l-0.9-0.2l-0.8-0.1l-0.7,0l-0.6,0.1l-0.6,0.2l-0.5,0.2l-0.5,0.3l-0.4,0.4l-0.4,0.4l-0.4,0.5l-0.4,0.5l-0.5,0.6l-0.5,0.6L99.4,27
		l-0.6,0.6l-0.7,0.6l-0.6,0.5l-0.5,0.5l-0.4,0.5l-0.4,0.5L96,31l-0.3,0.5l-0.2,0.5l-0.2,0.5l-0.2,0.6l-0.1,0.6l-0.1,0.6l-0.1,0.6
		l-0.1,0.6L94.5,36l-0.1,0.6l-0.1,0.6l-0.1,0.6l-0.2,0.6l-0.2,0.6l-0.2,0.6L92.8,40l-0.6,0.5l-0.6,0.4l-0.5,0.4l-0.5,0.4l-0.5,0.4
		l-0.4,0.4l-0.4,0.4l-0.4,0.4l-0.4,0.5l-0.4,0.5l-0.4,0.6l-0.4,0.7l-0.4,0.8L86.5,47l-0.4,1l-0.4,1.2l-0.4,1.3L84.8,52l-0.5,1.7
		l0,0.2L84,56.5l-0.1,0.6l0,0.6l0,0.5l0,0.4l-3.5,0.9l0-0.4l0-0.1l0-0.1l0-0.1l0-0.1l0-0.1l0-0.1l0-0.1l0-0.1l0,0l0,0l0-0.1l0-0.1
		l-0.1-0.1l-0.1-0.1L79.7,58l-0.1-0.1l-0.1-0.1l-0.1-0.1L79,57.4l-0.8-0.2l-0.1,0l-0.1,0l-0.1,0l-0.1,0l-0.1,0l-0.1,0.1l-0.1,0.1
		l-0.1,0.1l-0.1,0.1l-0.1,0.2L77,61.2l-0.1,3.1l0,2.8l0.2,2.6l0.3,2.3l0.3,2.1l0.4,1.8l0.5,1.6l0.5,1.4l0.6,1.2l0.6,1l0.6,0.9
		l0.6,0.7l0.6,0.6l0.6,0.5l0.6,0.4l0.6,0.3l0.5,0.2l0.5,0.1l0.4,0.1l0.8,1.8l0.7,1.6l0.6,1.4l0.6,1.3l0.6,1.2l0.6,1.1l0.6,1l0.6,0.9
		l0.6,0.9l0.7,0.8l0,0l0,0l0,0.1l0,0.1l0,0.2l0,0.2l0,0.3l0,0.3l0,0.4l0,0.5l0,0.6l0,0.7l0,0.8l0,0.9l0.1,1l0.1,1.1l0.1,1.2l0.1,1.3
		l0.1,1.5l0.1,1.6l-0.5,1.5l-0.4,1.3l-0.4,1.2l-0.3,1.1l-0.3,1l-0.2,0.9l-0.2,0.9l-0.2,0.8l-0.2,0.7l-0.2,0.7l-0.2,0.7l-0.3,0.6
		l-0.3,0.6l-0.4,0.6L88,123l-0.6,0.7l-0.7,0.7l-0.8,0.7l-0.9,0.8l-1.1,0.9l-0.9-0.1l-0.8,0l-0.8,0l-0.8,0.1l-0.7,0.1l-0.7,0.1
		l-1.2,0.2l-0.5,0.1l-0.5,0l-0.4,0l-0.4,0l-0.3-0.1l-0.3-0.1l-0.2-0.2l-0.2-0.3l-0.1-0.4l-0.1-0.5l0-0.6l0-0.7l0.1-1.3l0.1-1.1
		l0-0.9l0-0.8l0-0.6l-0.1-0.6l-0.1-0.5l-0.2-0.5l-0.3-0.5l-0.3-0.5l-0.4-0.6l-1.1-1.5l-0.7-1l-0.8-1.2l-0.9-1.4l-1-1.6l-1.1-1.9
		l0-0.6l0-0.5l0-0.5l0-0.4l-0.1-0.3l-0.1-0.2l-0.1-0.2l-0.1-0.2l-0.1-0.1l-0.1-0.1l-0.1-0.1l-0.1-0.1l-0.1-0.1l-0.1-0.1l-0.1-0.1
		l-0.1-0.1l0-0.2l0-0.2l0-0.3l0-0.3l0.6-0.1l0.5-0.2l0.4-0.3l0.3-0.4l0.2-0.5l0.2-0.5l0.1-0.6l0-0.7L69.5,99l-0.1-0.9l-0.2-1
		l-0.3-1.1l-0.3-1.2l-0.3-1.4l-0.4-1.5L67,88.6l-0.5-1.8l0.2-2.5l0.1-2.2l0.1-2l0-1.8l0-1.6l0-1.4l0-1.3l0-1.2l0-1.2l0-1.1l0-1.2
		l0-1.2l0.1-1.3l0.1-1.4l0.2-1.6l0.3-1.8l0.4-2l0.5-2.2l0.6-2.5l0.7-2.9l1.7-4.2l1.5-3.8l2.6-6.4l1.1-2.7l1-2.4l0.9-2.1l0.8-1.9
		l0.8-1.7l0.8-1.5l0.8-1.4l0.8-1.3l0.8-1.2l0.9-1.1l1-1.1l1.1-1.1l1.2-1.1l1.4-1.2l1.5-1.3l1.7-1.4l2.4-2l2.1-1.7l1.9-1.5l1.7-1.3
		l1.6-1l1.4-0.8l1.3-0.6l1.2-0.5l1.2-0.3l1.1-0.1l1.1,0l1.1,0.1l1.1,0.2l1.1,0.4l1.2,0.5l1.3,0.5l1.4,0.6l1.5,0.7l1.7,0.7l1.9,0.8
		l1.1-0.4l1-0.4l0.9-0.4l0.8-0.4l0.8-0.3l0.7-0.2l0.7-0.2l0.6-0.1l0.6,0l0.6,0.1l0.6,0.3l0.6,0.4l0.6,0.5l0.7,0.7l0.7,0.9l0.8,1
		l0.9,1.2l0.9,1.4l1,1.7l1.1,1.9l1.7,2.8l1.5,2.5l3.7,6l1,1.6l0.9,1.4l0.8,1.3l0.7,1.2l0.6,1.1l0.5,1l0.5,1l0.4,1l0.4,1l0.4,1.1
		l0.4,1.2l0.4,1.3l0.4,1.4l0.4,1.5l0.5,1.7l0.9,2.3l0.8,2.1l0.8,1.9l0.7,1.7l0.7,1.5l0.6,1.4l0.5,1.3l0.5,1.2l0.4,1.1l0.4,1.1
		l0.3,1.1l0.3,1.1l0.2,1.2l0.1,1.3l0.1,1.4l0,1.5l0,1.7l-0.1,1.8l-0.1,2l-0.2,2.3l-0.1,0.8l-0.1,0.9l-0.2,1l-0.2,1.1l-0.2,1.1
		l-0.3,1.1l-0.3,1.2l-0.3,1.2l-0.3,1.2l-1,3.6l-0.3,1.1l-0.3,1.1l-0.3,1.1l-0.2,1l-0.2,0.9l-0.2,0.8l-0.1,0.8l-0.1,0.7l0.4,0.4
		l0.3,0.4l0.3,0.3l0.2,0.3l0.2,0.3l0.2,0.3l0.1,0.3l0.1,0.2l0.1,0.2l0.1,0.2l0.1,0.2l0.2,0.2l0.2,0.2l0.2,0.1l0.3,0.1l0.3,0.1
		l0.4,0.1l0.5,0.1l0.6,0.1l0.6,0.1l-1,1l-0.8,0.9l-0.6,0.8l-0.4,0.8l-0.3,0.7l-0.1,0.6l0,0.5l0.2,0.5l0.3,0.4l0.4,0.4l0.5,0.3
		l0.6,0.3l0.7,0.2l0.8,0.2l0.8,0.2l0.9,0.2l0.9,0.1l0.9,0.1l0.9,0.1l0.9,0.1l-0.6,1.1l-0.5,1l-0.5,0.8l-0.5,0.7l-0.5,0.5l-0.5,0.4
		l-0.5,0.3l-0.5,0.2l-0.5,0.1l-0.5,0l-0.4,0l-0.4-0.1l-0.4-0.1l-0.4-0.1l-0.4-0.2l-0.4-0.2l-0.4-0.2l-0.4-0.1l-0.4-0.1l-0.3,0
		l-0.3,0l-0.2,0l-0.2,0l-0.1,0.1l-0.1,0.1l0,0.1l0,0.1l0,0.1l0,0.2l0,0.2l0.1,0.4l0.1,0.2l0.1,0.3l0.1,0.3l0,0.3l0,0.3l0,0.4l0,0.4
		l-0.1,0.9l-0.1,0.8l-0.1,0.8l-0.2,0.7l-0.2,0.6l-0.2,0.5l-0.2,0.4l-0.3,0.4l-0.3,0.3l-0.4,0.2l-0.4,0.2l-0.4,0.1l-0.5,0.1l-0.5,0.1
		l-0.6,0l-0.6,0l-0.7,0l-0.8-0.1l-0.8-0.1l-0.9-0.1l-0.6-0.6l-0.6-0.5l-0.5-0.4l-0.5-0.3l-0.4-0.3l-0.4-0.2l-0.4-0.2l-0.4-0.3
		l-0.4-0.3l-0.4-0.3l-0.4-0.4l-0.5-0.5l-0.5-0.6l-0.5-0.7l-0.6-0.8l-0.6-1l-0.7-1.2l-0.8-1.4l-0.9-1.6l-1-1.8l0-1.7l0-1.6l0-1.5
		l0-1.3l0-1.2l0-1.1l0-1l0-1.7l0-0.7l0-0.6l0-0.5l0-0.5l0-0.4l0-0.3l0.1-0.3l0.1-0.3l0.1-0.2l0.1-0.2L136.9,95.3z M136.9,95.3"/>
	<path class="st3" d="M79.3,126.9l0.7-0.1l0.7-0.1l0.8-0.1l0.8,0l0.8,0l0.9,0.1l1.1-0.9l0.9-0.8l0.8-0.7l0.7-0.7L88,123l0.5-0.6
		l0.4-0.6l0.3-0.6l0.3-0.6l0.2-0.7l0.2-0.7l0.2-0.7l0.2-0.8l0.2-0.9l0.2-0.9l0.3-1l0.3-1.1l0.4-1.2l0.4-1.3l0.5-1.5l2.6,3l2.4,2.5
		l2.2,2.1l2,1.8l1.9,1.4l1.8,1l1.7,0.7l1.6,0.4l1.6,0.1l1.4,0.1l1.2,0.1l1.1,0l1,0l0.9,0l0.8-0.1l0.7-0.1l0.6-0.1l0.6-0.2l0.5-0.2
		l0.5-0.2l0.5-0.2l0.4-0.3l0.5-0.3l0.5-0.3l0.5-0.3l0.5-0.3l0.6-0.3l0.7-0.3l0.8-0.4l1-0.4l1-0.5l1-0.6l1-0.7l1.1-0.8l1.2-0.9l1.3-1
		l1.4-1.2l1.5-1.3l1.6-1.5l1,1.8l0.9,1.6l0.8,1.4l0.7,1.2l0.6,1l0.6,0.8l0.5,0.7l0.5,0.6l0.5,0.5l0.4,0.4l0.4,0.3l0.4,0.3l0.4,0.3
		l0.4,0.2l0.4,0.2l0.4,0.3l0.5,0.3l0.5,0.4l0.6,0.5l0.6,0.6l0.9,0.1l0.8,0.1l0.8,0.1l0.7,0l0.6,0l0.6,0l0.5-0.1l0.5-0.1l0.4-0.1
		l0.4-0.2l0.4-0.2l0.3-0.3l0.3-0.4l0.2-0.4l0.2-0.5l0.2-0.6l0.2-0.7l0.1-0.8l0.1-0.8l0.1-0.9l2,1.1l2,1l2,0.9l2.1,0.8l2.1,0.7
		l2.1,0.7l2.1,0.6l2.1,0.6l2,0.6l2,0.6l2,0.6l2,0.7l1.9,0.7l1.9,0.8l1.8,0.9l1.8,1l1.7,1.1l1.6,1.2l1.5,1.3l1.4,1.5l2,6.1l1.8,5.5
		l1.6,5.1l1.5,4.8l1.3,4.5l1.2,4.4l1.1,4.3l1.1,4.3l1,4.5l1,4.7l1.1,5l1.1,5.5l1.2,6l1.2,6.6l8.5,45.4l2.3,12.2l-0.7,8.2l-0.7,7.1
		l-0.7,6.2l-0.7,5.5l-0.7,4.8l-0.8,4.3l-0.9,3.9l-1.1,3.7l-1.2,3.6l-1.4,3.7l-1.7,3.9l-1.9,4.2l-2.2,4.7l-2.5,5.3l-2.8,6l-3.2,6.9
		l-3.5,7.9l-4,9l-4.4,10.3l-4.9,11.8l-0.6-2.3l-0.6-2l-0.5-1.7l-0.5-1.5l-0.5-1.3l-0.5-1.1l-0.5-1l-0.6-0.9l-0.7-0.8l-0.8-0.8
		l-0.9-0.8l-1-0.8l-1.2-0.9L173,368l-1.5-1.2l-1.7-1.4l-2-1.7l-2.2-2l-2.5-2.3l-2.8-2.6l2.2-0.9l2.5-1l2.9-1.1l1.2-4.1l1.1-3.7
		l1.1-3.4l1-3.1l0.9-2.9l3.2-9.9l0.7-2.2l0.7-2.2l0.7-2.2l0.7-2.3l0.7-2.3l0.7-2.4l0.7-2.6l0.7-2.7l0.7-3l0.7-3.2l0.8-3.5l-0.2-5.1
		l-0.2-4.3l-0.2-3.6l-0.2-3l-0.2-2.4l-0.2-1.9l-0.3-1.5l-7.2-46.3v30.6l0.4,7.1l0.3,6.4l0.3,5.8l0.2,5.2l0.1,4.8l0,4.4l0,4l-0.1,3.8
		l-0.2,3.6l-0.3,3.5l-0.4,3.5L175,316l-0.6,3.6l-0.7,3.8l-0.7,4l-0.8,4.3l-3.1,15.6l-1.2,6.3l-2.9,1.1l-2.5,1l-2.2,0.9l-1.8,0.8
		l-1.5,0.7l-1.3,0.7l-1,0.6l-0.8,0.6l-0.7,0.6l-0.5,0.6l-0.5,0.6l-0.4,0.6l-0.4,0.6l-0.4,0.7l-0.5,0.8l-0.5,0.9l-0.7,1l-0.8,1.1
		l-1,1.2l-1.2,1.4l-9.5-0.1l-8.6-0.2l-7.8-0.3l-7.1-0.4l-6.4-0.5l-5.8-0.6l-5.3-0.7l-4.9-0.8l-4.5-0.9l-4.2-1.1l-3.9-1.2l-3.7-1.3
		l-3.6-1.4l-3.6-1.5l-3.6-1.6l-3.7-1.8l-3.8-1.9l-4.1-2l-4.4-2.1l-4.7-2.2l-0.3-7.2l-0.4-6.6l1-4.4l0.9-4.1l0.8-3.8l0.7-3.5l0.6-3.3
		l0.5-3.2l0.5-3.1l0.5-3l0.4-3l0.4-3l0.4-3.1l0.9-6.5l0.5-3.5l0.5-3.8l0.6-4l0.6-4.4l0.7-4.7l0.8-5.2l0.5-2.8l0.6-6.1l0-0.3v-25.2
		l-4.8,24.7l-0.2,1.7l-0.2,1.5l-0.2,1.3l-0.2,1.2l-0.2,1.1l-0.3,1l-0.3,0.9l-0.3,0.9l-0.4,1l-0.8,2.2l-0.5,1.3l-0.5,1.5l-0.6,1.7
		l-0.6,2l-0.7,2.2l-0.8,2.6l-0.8,2.9l-0.9,1.8l-0.8,1.7l-0.6,1.7l-0.4,1.8l-0.3,1.9l-0.1,2l0,2.2l0.1,2.4l0.2,2.6l0.3,2.9l0.3,3.2
		l0.8,7.6l0.4,4.4l0.4,4.9L42,328l0.4,6l0.4,6.6l0.3,7.2l-3.8-0.4l-3.3-0.3l-2.7-0.1l-2.3,0l-1.8,0.1l-1.4,0.2l-1.1,0.4l-0.8,0.6
		l-0.5,0.7l-0.3,0.9l-0.1,1.1l0.1,1.3l0.2,1.5l0.5,3.6l0.3,2.1l0.2,2.4l0.1,2.6l0,2.8l-0.2,3.1l-2.8-8.4l-2.4-7.6l-2-6.8l-1.6-6.1
		l-1.3-5.5l-1-4.9l-0.8-4.4l-0.6-4l-0.4-3.7l-0.3-3.4l-0.2-3.2l-0.2-3.1l-0.2-3.1l-0.2-3.1l-0.2-3.2l-0.5-2.9l-0.4-2.6l-0.3-2.4
		l-0.2-2.2l-0.1-2l0-1.9l0-1.8l0.1-1.7l0.2-1.7l0.2-1.8l0.3-1.8l0.3-1.9l0.8-4.3l0.4-2.5l0.5-2.7l0.5-3l0.5-3.3l0.5-3.7l0.5-4.1
		l1-3.7L18,241l0.8-3.1l0.8-2.9l0.7-2.8l0.6-2.7l0.6-2.6l0.5-2.5l0.5-2.5l0.4-2.5l0.4-2.5l0.3-2.5l0.2-2.6l0.6-7.6l0.6-6.7l0.5-5.8
		l0.5-5.1l0.5-4.4l0.5-3.8l0.6-3.3l0.6-2.9l0.7-2.6l0.7-2.4l0.8-2.3l0.9-2.2l1.1-2.3l1.2-2.4l1.4-2.6l1.5-2.9l1.7-3.3l1.9-3.8
		l2.1-4.4l0.4-0.7l0.4-0.7l0.4-0.6l0.4-0.6l0.4-0.5l0.5-0.5l0.5-0.4l0.5-0.4l0.4-0.4l0.4-0.3l0.4-0.3l0.4-0.2l0.4-0.2l0.3-0.2
		l0.3-0.1l0.3-0.1l0.2-0.1l0.2-0.1l0.1,0l0,0l4-1.3l3.6-1.2l3.2-1.1l2.8-1l2.5-0.9l2.3-0.9l2.1-0.9l1.9-0.9l1.7-0.9l1.6-1l0,0.7
		l0,0.6l0.1,0.5l0.1,0.4l0.2,0.3l0.2,0.2l0.3,0.1l0.3,0.1l0.4,0l0.4,0l0.5,0l0.5-0.1L79.3,126.9z M79.3,126.9"/>
	<path class="st2" d="M136.4,108.7l0,1.7l-1.6,1.5l-1.5,1.3l-1.4,1.2l-1.3,1l-1.2,0.9l-1.1,0.8l-1,0.7l-1,0.6l-1,0.5l-1,0.4
		l-0.8,0.4l-0.7,0.3l-0.6,0.3l-0.5,0.3l-0.5,0.3l-0.5,0.3l-0.5,0.3l-0.4,0.3l-0.5,0.2l-0.5,0.2l-0.5,0.2l-0.6,0.2l-0.6,0.1l-0.7,0.1
		l-0.8,0.1l-0.9,0l-1,0l-1.1,0l-1.2-0.1l-1.4-0.1l-1.6-0.1l-1.6-0.4l-1.7-0.7l-1.8-1l-1.9-1.4l-2-1.8l-2.2-2.1l-2.4-2.5l-2.6-3
		l-0.1-1.6l-0.1-1.5l-0.1-1.3l-0.1-1.2l-0.1-1.1l-0.1-1l0-0.9l0-0.8l0-0.7l0-0.6l0-0.5l0-0.4l0-0.3l0-0.3l0-0.2l0-0.2l0-0.1l0-0.1
		l0,0l0.7,0.8l0.8,0.9l0.9,0.9l0.9,0.9l1.1,1l1.2,1.1l2.7,2.6l1.6,1.5l1.8,1.7l1.1,0.5l0.6,0.3l0.6,0.3l0.7,0.3l0.7,0.3l0.8,0.2
		l0.8,0.2l0.9,0.2l0.9,0.1l1,0.1l1.1,0l1.1,0l1.2-0.1l1.3-0.2l1.4-0.3l1.4-0.4l1.5-0.5l1.6-0.6l2.4-2.2l2.2-2l2-1.8l3.4-3.1l1.5-1.3
		l1.3-1.2l1.2-1.1l1-1l-0.1,0.2l-0.1,0.2l-0.1,0.2l-0.1,0.3l-0.1,0.3l0,0.3l0,0.4l0,0.5l0,0.5l0,0.6l0,0.7l0,1.7l0,1l0,1.1l0,1.2
		l0,1.3l0,1.5L136.4,108.7z M136.4,108.7"/>
	<path class="st2" d="M83.8,58.2l0-0.5l0-0.6l0.1-0.6l0.3-2.7l0-0.2l0.5-1.7l0.5-1.5l0.4-1.3l0.4-1.2l0.4-1l0.4-0.9l0.4-0.8l0.4-0.7
		l0.4-0.6l0.4-0.5l0.4-0.5l0.4-0.4l0.4-0.4l0.4-0.4l0.5-0.4l0.5-0.4l0.5-0.4l0.6-0.4l0.6-0.5l0.7-0.5l0.2-0.6l0.2-0.6l0.2-0.6
		l0.1-0.6l0.1-0.6l0.1-0.6l0.1-0.6l0.1-0.6l0.1-0.6l0.1-0.6l0.1-0.6l0.2-0.6l0.2-0.5l0.2-0.5L96,31l0.3-0.5l0.4-0.5l0.4-0.5l0.5-0.5
		l0.6-0.5l0.7-0.6l0.6-0.6l0.5-0.6l0.5-0.6l0.5-0.6l0.4-0.5l0.4-0.5l0.4-0.4l0.4-0.4l0.5-0.3l0.5-0.2l0.6-0.2l0.6-0.1l0.7,0l0.8,0.1
		l0.9,0.2l1,0.3l1.1,0.4l1.3,0.6l1.4,0.7l0.5-0.8l0.5-0.7l0.5-0.6l0.4-0.5l0.4-0.5l0.4-0.4l0.4-0.4l0.4-0.3l0.4-0.2l0.4-0.2l0.4-0.2
		l0.4-0.1l0.4-0.1l0.5,0l0.5,0l0.5,0l0.6,0l0.7,0.1l0.7,0.1l0.8,0.1l0.8,0.4l0.9,0.4l0.9,0.4l0.9,0.5l1,0.6l1,0.6l1,0.8l1,0.9l1,1
		l1,1.2l1,1.3l1,1.5l1,1.7l0.9,1.9l0.9,2.2L137,38l0.8,2.7l0.7,3l0.6,3.3l0.6,3.5l1.2,3.6l0,0.2l0.1,1.3l0.1,1.1l0.1,1l0.1,0.8
		l0.1,0.7l0,0.1l-6.7-2.1l-0.1-0.3l-0.1-0.3l-0.2-0.3l-0.2-0.3l-0.3-0.2l-0.3-0.2l-0.4-0.3l-0.4-0.3l-0.7-0.4l-14.8,0l-0.5,0.3
		l-0.3,0.2l-0.3,0.2l-0.2,0.2l-0.2,0.2l-0.2,0.2l-0.4-0.2l-0.4-0.2l-0.4-0.1l-0.5-0.1l-0.5-0.1l-0.5,0l-0.5,0l-0.5,0.1l-0.5,0.1
		l-0.4,0.1l-0.4,0.2l-0.4,0.2l-0.2-0.2l-0.2-0.2l-0.2-0.2l-0.3-0.2l-0.3-0.2l-0.5-0.3l-14.8,0L93,54.9l-0.4,0.3l-0.4,0.3l-0.3,0.2
		l-0.3,0.2l-0.2,0.3l-0.2,0.3l-0.1,0.3l-7.3,1.8L83.8,58.2z M83.8,58.2"/>
	<path class="st4" d="M49.6,256.3l0.2-1.7l4.8-24.7V255l0,0.3l-0.6,6.1l-0.5,2.8l-0.8,5.2l-0.7,4.7l-0.6,4.4l-0.6,4l-0.5,3.8
		l-0.5,3.5l-0.9,6.5l-0.4,3.1l-0.4,3l-0.4,3l-0.5,3l-0.5,3.1l-0.5,3.2l-0.6,3.3l-0.7,3.5l-0.8,3.8l-0.9,4.1l-1,4.4l-0.4-6l-0.4-5.4
		l-0.4-4.9l-0.4-4.4l-0.8-7.6l-0.3-3.2l-0.3-2.9l-0.2-2.6l-0.1-2.4l0-2.2l0.1-2l0.3-1.9l0.4-1.8l0.6-1.7l0.8-1.7l0.9-1.8l0.8-2.9
		l0.8-2.6l0.7-2.2l0.6-2l0.6-1.7l0.5-1.5l0.5-1.3l0.8-2.2l0.4-1l0.3-0.9l0.3-0.9l0.3-1l0.2-1.1l0.2-1.2l0.2-1.3L49.6,256.3z
		 M49.6,256.3"/>
	<path d="M133.6,753.6l-6.1-7.8l1.2-15.7l0.8,2.2l0.7,2l0.6,1.8l0.5,1.7l0.5,1.5l0.4,1.5l0.3,1.4l0.3,1.4l0.2,1.4l0.2,1.5l0.2,1.6
		l0.1,1.7l0.1,1.8L133.6,753.6z M133.6,753.6"/>
	<path class="st5" d="M133.6,753.6l0-2l-0.1-1.8l-0.1-1.7l-0.2-1.6L133,745l-0.2-1.4l-0.3-1.4l-0.3-1.4l-0.4-1.5l-0.5-1.5l-0.5-1.7
		l-0.6-1.8l-0.7-2l-0.8-2.2l-0.8-2.4l5.6,2.8l3.1,1.5l2.7,1.3l2.3,1.1l2,0.8l1.7,0.6l1.5,0.5l1.3,0.3l1.2,0.1l1.1-0.1l1-0.2l1-0.3
		l1.1-0.5l1.2-0.6l2.8-1.5l1.7-0.9l2-1l-0.1,1.6l0,1.5l0,1.3l0.1,1.3l0.1,1.2l0.2,1.1l0.2,1.1l0.3,1.1l0.3,1.2l0.4,1.2l0.4,1.3
		l0.5,1.5l0.5,1.6l0.5,1.8l0.6,2l0.6,2.2l0.6,2.5l0.7,2.7l0.7,3.1l0.7,3.4l-0.7,4.1l-0.8,3.5l-1,2.9l-1.1,2.3l-1.2,1.8l-1.3,1.3
		l-1.5,0.8l-2.5,0.1l-2.3-0.1l-2.2-0.2l-2-0.4l-1.9-0.5l-1.7-0.6l-1.6-0.8l-1.5-0.8l-1.3-0.9l-1.2-1l-1.2-1l-1.1-1.1l-1-1.1
		l-1.6-1.8l-0.6-0.7l-0.5-0.6l-0.4-0.6l-0.4-0.5l-0.3-0.5l-0.3-0.4l-0.3-0.4l-0.2-0.4l-0.2-0.4l-0.2-0.4l-0.1-0.4l-0.1-0.5l-0.1-0.5
		L134,766l-0.1-0.6l-0.1-0.6l-0.1-0.7l-0.2-1.6l0.1-1.3l0-2.8l0-2.5L133.6,753.6z M133.6,753.6"/>
	<path d="M145.3,779.7l1.5,0.8l1.6,0.8l1.7,0.6l1.9,0.5l2,0.4l2.2,0.2l2.3,0.1l2.5-0.1l1.5-0.8l1.3-1.3l1.2-1.8l1.1-2.3l1-2.9
		l0.8-3.5l0.7-4.1l-0.2,2.2l-0.2,2l-0.2,1.8l-0.2,1.7l-0.2,1.5l-0.2,1.4l-0.2,1.3l-0.2,1.2l-0.2,1.1l-0.2,1l-0.3,0.9l-0.3,0.8
		l-0.3,0.8l-0.4,0.7l-0.4,0.7l-0.5,0.7l-0.6,0.7l-0.6,0.7l-0.7,0.7l-0.8,0.8l-1.2-0.1l-1.2-0.1l-1.1,0l-1,0l-1,0l-0.9,0l-0.9,0.1
		l-0.8,0.1l-0.8,0l-0.8,0l-0.8,0l-0.8,0l-0.8,0l-0.8-0.1l-0.8-0.1l-0.9-0.2l-0.9-0.2l-0.9-0.3l-1-0.4l-1.1-0.5l-1.7-1.4l-0.7-0.6
		l-0.6-0.5l-0.5-0.5l-0.4-0.4l-0.4-0.4l-0.4-0.4l-0.3-0.4l-0.3-0.4l-0.3-0.4l-0.3-0.4l-0.4-0.5l-0.4-0.5l-1.5-2l-0.7-0.9l-0.8-1
		l-0.9-1.1l-0.3-0.9l-0.2-0.8l-0.2-0.7l-0.1-0.6l-0.1-0.6l0-0.5l0-0.5l0-0.5l0.1-0.5l0.1-0.5l0.1-0.5l0.1-0.6l0.1-0.6l0.2-0.7
		l0.2-0.7l0.2-0.8l0.2-0.9l0.1-1l0.1-1.1l0.2,1.6l0.1,0.7l0.1,0.6l0.1,0.6l0.1,0.5l0.1,0.5l0.1,0.5l0.1,0.4l0.2,0.4l0.2,0.4l0.2,0.4
		l0.3,0.4l0.3,0.4l0.3,0.5l0.4,0.5l0.4,0.6l0.5,0.6l0.6,0.7l1.6,1.8l1,1.1l1.1,1.1l1.2,1l1.2,1L145.3,779.7z M145.3,779.7"/>
	<path d="M117.9,64.5l-0.1-0.2l-0.1-0.2l-2.5-4.3l-0.1-0.5l-0.1-0.3l0-0.3l0-0.3l0-0.3l0-0.3l0-0.3l0-0.3l0-0.3l0-0.1l0-0.1l0.1-0.3
		l0.1-0.3l0.2-0.2l0.2-0.2l0.2-0.2l0.2-0.2l0.2-0.2l0.3-0.2l0.3-0.2l0.5-0.3l14.8,0l0.7,0.4l0.4,0.3l0.4,0.3l0.3,0.2l0.3,0.2
		l0.2,0.3l0.2,0.3l0.1,0.3l0.1,0.3l0,0.3l0,0.3l0,0.3l-0.1,0.2l-0.1,0.2l-0.1,0.2l-0.1,0.2l-0.1,0.4l-0.8,2.5l-1,1.6l-0.2,0.3
		l-0.2,0.3l-0.2,0.3l-0.2,0.3l-0.2,0.2l-0.2,0.2l-0.2,0.2l-0.2,0.2l-0.3,0.2l-0.3,0.1l-0.3,0.1l-0.3,0.1l-0.3,0l-0.3,0l-0.3,0
		l-0.4,0l-0.4,0l-0.4,0l-6.6,0l-0.3,0l-0.3,0l-0.2,0l-0.2,0l-0.2,0l-0.2,0l-0.2-0.1l-0.2-0.1l-0.2-0.1l-0.2-0.1l-0.2-0.2l-0.2-0.2
		l-0.1-0.2l-0.1-0.2l-0.1-0.2L117.9,64.5z M116,59.1l0.1,0.3l2.4,4.2l0.1,0.2l0.1,0.2l0.1,0.2l0.1,0.2l0.1,0.1l0.1,0.1l0.1,0.1
		l0.1,0.1l0.1,0.1l0.1,0.1l0.1,0l0.1,0l0.2,0l0.2,0l0.2,0l0.2,0l0.2,0l0.3,0l6.6,0l0.4,0l0.4,0l0.3,0l0.3,0l0.3,0l0.2,0l0.2-0.1
		l0.2-0.1l0.2-0.1l0.2-0.1l0.2-0.1l0.2-0.1l0.1-0.2l0.1-0.2l0.2-0.2l0.2-0.2l0.2-0.3l0.2-0.3l0.9-1.5l0.8-2.4l0.1-0.3l0.1-0.3
		l0.1-0.3l0.1-0.2l0-0.2l0-0.2l0-0.2l0-0.2l0-0.2l-0.1-0.2l-0.1-0.2l-0.2-0.2l-0.2-0.2l-0.3-0.2l-0.3-0.2l-0.4-0.2l-0.5-0.3l-14.3,0
		l-0.3,0.2l-0.2,0.2l-0.2,0.2l-0.2,0.1l-0.2,0.1l-0.1,0.1l-0.1,0.1l-0.1,0.2l-0.1,0.2l-0.1,0.2l0,0.2l0,0.2l0,0.2l0,0.2l0,0.2l0,0.2
		l0,0.3l0,0.3L116,59.1z M116,59.1"/>
	<path class="st5" d="M51.9,758.1l0.2-1.2l0.3-1.4l0.3-1.5l1.1-3.8l1-3.4l0.9-3l0.9-2.7l0.8-2.4l0.7-2.1l0.6-1.8l0.6-1.6l0.5-1.4
		l0.4-1.3l0.4-1.1l0.3-1l0.2-0.9l0.1-0.9l0.1-0.9l0-0.9l-0.1-0.9l-0.1-1l-0.2-1.1l-0.3-1.2l1.5,1.2l1.5,0.8l1.6,0.5l1.6,0.3l4.1,0.4
		l3.7,0.3l3.3,0.3l3,0.2l2.6,0.1l2.3,0l2,0l1.7-0.1l1.5-0.2l1.2-0.2l1-0.3l0.8-0.4l-0.1,1.7l-0.1,1.1l-0.1,0.6l-0.2,1.9l-0.2,2.2
		l-0.2,1.8l-0.2,1.6l-0.2,1.3l-0.2,1.1l-0.2,0.9l-0.2,0.8l-0.2,0.7l-0.2,0.6l-0.4,1.1l-0.2,0.5l-0.2,0.6l-0.2,0.6l-0.2,0.7l-0.1,0.9
		l-0.1,1.1l-0.1,1.3l-0.2,0.5l-0.2,0.6l-0.2,0.7l-0.2,0.8l-0.1,0.9l-0.1,1l-0.1,1.1l-0.1,1.3l-0.1,1.4l-0.1,1.5l-0.1,1.7l-0.1,1.8
		l0,1l0,0.9l-1,2l-1,1.8l-1,1.5l-1,1.3l-1,1.1l-1.1,0.9l-1.1,0.8l-1.1,0.7l-1.1,0.6l-1.2,0.5l-1.2,0.5l-1.3,0.4l-1.7-0.1l-1.6-0.1
		l-1.5,0l-1.4,0l-1.3,0l-1.2,0l-2.2,0.1l-1,0l-0.9,0l-1.8-0.9l-0.8-0.4l-0.7-0.4l-0.6-0.4l-0.5-0.4l-0.5-0.4l-0.4-0.4l-0.4-0.5
		l-0.4-0.5l-0.4-0.6l-0.3-0.7l-0.3-0.8l-0.3-0.9l-0.4-1l-0.4-1.2l-0.4-1.3l-0.5-1.5L51.9,758.1z M51.9,758.1"/>
	<path d="M183.1,384.9l-0.4-0.4l-0.4-0.4l-0.4-0.3l-0.4-0.3l-0.4-0.3l-0.4-0.2l-0.4-0.2l-0.4-0.2l-0.3-0.2l-0.3-0.2l-0.2-0.3
		l-0.2-0.3l-0.1-0.3l0-0.4l0.1-0.4l0.2-0.5l0.3-0.5l0.4-0.6l0.6-0.7l0.7-0.8l0.5,1.5l0.5,1.7l0.6,2L183.1,384.9z M183.1,384.9"/>
	<path class="st6" d="M179,382.1l0.3,0.2l-0.7,15.5l-0.6,13.7l-0.6,12.1l-0.6,10.7l-0.5,9.3l-0.5,8.2l-1.2,19.1l-0.3,5l-0.2,4.6
		l-0.2,4.4l-0.1,4.2l0,4.3l0,4.5l0.1,4.8l0.2,5.3l0.3,5.9l0.3,6.7l0.4,7.6l-1.5,19.3l-0.4,5.4l-0.4,4.9l-0.3,4.5l-0.3,4.1l-0.2,3.8
		l-0.2,3.5l-0.2,3.3l-0.1,3.1l-0.1,3l-0.1,2.9l-0.1,2.8l0,2.9l0,2.9l0,3l0,3.1l0.1,3.3l0.1,3.6l-0.7,8.8l-0.7,7.9l-0.7,7.1l-0.6,6.4
		l-1.6,15.9l-0.4,4.4l-0.4,4.1l-0.3,3.9l-0.2,3.7l-0.1,3.6l-0.1,3.6l0,3.7l0.1,3.9l0.2,4.1l0.3,4.4l0.4,4.8l0.5,5.3l0.7,5.9
		l-0.1,1.2l-0.2,1.2l-0.2,1.1l-0.2,1l-0.2,1l-0.2,1l-0.3,0.9l-0.3,0.9l-0.3,0.9l-0.3,0.9l-0.3,0.9l-0.3,0.9l-0.3,1l-0.3,1l-0.3,1.1
		l-0.2,1.1l-0.2,1.2l-0.2,1.3l-0.2,1.4l-0.1,1.5l-2.3,1l-2,1l-1.7,0.9l-2.8,1.5l-1.2,0.6l-1.1,0.5l-1,0.3l-1,0.2l-1.1,0.1l-1.2-0.1
		l-1.3-0.3l-1.5-0.5l-1.7-0.6l-2-0.8l-2.3-1.1l-2.7-1.3l-3.1-1.5l-5.6-2.8l-2-1l-1.3-7.5l-0.5-3.1l-0.5-2.8l-0.4-2.6l-0.3-2.4
		l-0.3-2.3l-0.2-2.2l-0.1-2.3l-0.1-2.3l0-2.5l0.1-2.7l0.1-2.9l0.2-3.3l0.2-3.7l0.3-4.1l0.4-4.7l1.4-17.8l0.5-6.5l0.3-6.2l0.2-6
		l0.1-5.7l0-5.5l-0.1-5.2l-0.1-5l-0.2-4.8l-0.2-4.5l-0.2-4.3l-0.3-4.1l-0.3-3.9l-0.5-7.1l-0.2-3.3l-0.2-3.1l-0.1-2.9l0-2.7l0-2.5
		l0.1-2.3l-0.7-2.8l-0.5-2.8l-0.4-2.7l-0.2-2.7l-0.1-2.6l0-2.6l0.1-2.5l0.1-2.4l0.1-2.4l0.2-2.3l0.1-2.2l0.1-2.2l0.1-2.1l0-2
		l-0.1-1.9l-0.2-1.8l-0.4-1.7l-0.5-1.7l-0.7-1.6l-0.9-1.5l-1.3-7.1l-1.2-6.4l-2.8-15.3l-0.8-4.1l-0.7-3.8l-0.6-3.5l-0.6-3.4
		l-0.5-3.3l-0.5-3.3l-0.5-3.5l-0.5-3.7l-0.5-3.9l-0.5-4.3l-0.5-4.8l-0.5-5.3l-0.6-6l-0.6-6.7l-0.7-7.5l-0.7,8.6l-0.7,7.3l-0.7,6.2
		L103,459l-0.7,4.5l-0.7,3.9l-0.6,3.4l-0.6,3.1l-0.6,3l-0.5,3l-0.5,3.2l-0.4,3.5l-0.3,4l-0.2,4.7l-0.2,5.5l-0.1,6.5l0,7.7l0.1,9
		l0.2,10.4l0.4,12.1l-0.7,9.4l-0.5,8.1l-0.3,7l-0.1,6l0,5.2l0.1,4.5l0.2,3.9l0.3,3.5l0.3,3.2l0.7,6.2l0.3,3.2l0.3,3.5l0.2,4l0.1,4.5
		l0,5.2l-0.1,6.1l-0.3,7.1l-0.5,8.2l-0.7,9.5l0.6,5.8l0.2,2.5l0.2,2.3l0.2,2.1l0.1,2l0.1,2l0,2l0,2.1l0,2.2l-0.1,2.4l-0.1,2.6
		l-0.2,2.9l-0.2,3.2l-0.3,3.6l-0.3,4.1l-1.7,21.9l-0.1,0.9l-0.1,0.8l-0.1,0.7l-0.2,0.7l-0.3,0.6l-0.4,0.6l-0.5,0.5l-0.7,0.4
		l-0.8,0.4l-1,0.3l-1.2,0.2l-1.5,0.2l-1.7,0.1l-2,0l-2.3,0l-2.6-0.1l-3-0.2l-3.3-0.3l-3.7-0.3l-4.1-0.4l-1.6-0.3l-1.6-0.5l-1.5-0.8
		l-1.5-1.2l-1.5-1.6l-1.4-2l-0.3-6.7l-0.3-5.7l-0.3-4.9l-0.2-4.1l-0.2-3.5l-0.5-7.9l-0.1-2.2l-0.1-2.1l-0.1-2.2l-0.1-2.3l-0.1-2.6
		l0-3l0-3.5l0-4.1l0-4.9l0-20.2l-1.1-5.9l-0.9-5.3l-0.8-4.8l-0.7-4.3l-0.6-3.8l-0.5-3.4l-0.4-3.1l-0.3-2.8l-0.2-2.6l-0.1-2.4
		l-0.1-2.2l0-2.1l0.1-2.1l0.1-2.1l0.1-2.2l0.2-2.3l0.2-2.4l0.2-2.6l0.3-2.9l0.3-3.2l0.4-6.5l0.2-6l0.1-5.7l-0.1-5.5l-0.3-5.3
		l-0.4-5.3l-0.6-5.3l-0.7-5.4l-0.8-5.7l-0.9-6l-2.2-13.5l-1.2-7.6l-1.3-8.4l-1.3-9.2l-1.4-10.1l-1.4-11.1l-1.5-12.2l-1.5-13.5
		l-1.5-14.8l-0.9-3.4l-0.7-3.1l-0.6-2.9l-0.5-2.6l-0.4-2.4l-0.3-2.3l-0.2-2.1l-0.1-2l-0.1-2l0-1.9l0-1.9l0.1-3.8l0-2l0-2.1l0-2.3
		l-0.1-2.4l-0.2-2.6l-0.2-2.8l-0.3-3.1l1.3,1.3l1.3,1.2l1.4,1l1.4,0.9l1.4,0.7l1.4,0.6l1.4,0.4l1.4,0.3l1.4,0.1l1.4-0.1l1.3-0.2
		l1.3-0.4l1.3-0.5l1.3-0.7l1.2-0.8l1.2-1l1.1-1.1l1.1-1.3l1-1.4l1.9,0.9l1.7,0.7l1.6,0.6l1.4,0.4l1.3,0.3l1.2,0.2l1.1,0.1l1,0
		l0.9-0.1l0.8-0.2l0.7-0.3l0.6-0.3l0.6-0.4l0.5-0.4l0.4-0.5l0.4-0.5l0.3-0.5l0.3-0.5l0.3-0.5l0.2-0.5l0-0.3l0-0.3l0-0.3l0-0.3l0-0.3
		l0-0.2l0-0.2l0-0.2l-0.1-0.2l-0.1-0.2l-0.1-0.2l-0.1-0.2l-0.1-0.1l-0.2-0.1l-0.2-0.1l-0.2-0.1l-0.2-0.1l-0.3-0.1l-0.3-0.1l-0.4,0
		l-1.5-0.4l-1.4-0.4l-1.2-0.3l-1.1-0.3l-1-0.3l-0.9-0.3l-0.9-0.4l-0.8-0.4l-0.8-0.5l-0.9-0.5l-0.9-0.6l-1-0.7l-1.1-0.8l-1.3-1
		l-1.4-1.1l-3.4-2.6l-2.1-1.6l-2.3-1.8l-2.6-2l4.7,2.2l4.4,2.1l4.1,2l3.8,1.9l3.7,1.8l3.6,1.6l3.6,1.5l3.6,1.4l3.7,1.3l3.9,1.2
		l4.2,1.1l4.5,0.9l4.9,0.8l5.3,0.7l5.8,0.6l6.4,0.5l7.1,0.4l7.8,0.3l8.6,0.2l9.5,0.1l-0.7,0.3l-0.7,0.3l-0.8,0.3l-0.9,0.3l-0.9,0.2
		l-1,0.2l-1,0.2l-1,0.2l-1,0.2l-1,0.2l-1,0.2l-0.9,0.2l-0.9,0.3l-0.8,0.3l-0.7,0.3l-0.6,0.4l-0.5,0.4l-0.4,0.5l-0.3,0.5l-0.1,0.6
		l0.4,0.9l0.4,0.8l0.4,0.7l0.5,0.6l0.5,0.5l0.6,0.3l0.6,0.2l0.7,0.1l0.7,0.1l0.8,0l0.8-0.1l0.9-0.2l1-0.3l1.1-0.3l1.1-0.4l1.2-0.5
		l1.3-0.5l1.4-0.6l1.5-0.6l1.6-0.7l2.9,1.4l2.6,1.3l2.4,1.1l2.1,1l1.9,0.9l1.7,0.8l1.5,0.7l1.4,0.5l1.2,0.4l1.2,0.3l1.1,0.2l1,0.1
		l1,0l1-0.1l1-0.2l1.1-0.3l1.2-0.4l1.3-0.5l1.4-0.6L179,382.1z M179,382.1"/>
	<path class="st2" d="M178.8,381.8l0.2,0.3l-1.6,0.7l-1.4,0.6l-1.3,0.5l-1.2,0.4l-1.1,0.3l-1,0.2l-1,0.1l-1,0l-1-0.1l-1.1-0.2
		l-1.2-0.3L165,384l-1.4-0.5l-1.5-0.7l-1.7-0.8l-1.9-0.9l-2.1-1L154,379l-2.6-1.3l-2.9-1.4l-1.6,0.7l-1.5,0.6l-1.4,0.6l-1.3,0.5
		l-1.2,0.5l-1.1,0.4l-1.1,0.3l-1,0.3l-0.9,0.2l-0.8,0.1l-0.8,0l-0.7-0.1l-0.7-0.1l-0.6-0.2l-0.6-0.3l-0.5-0.5l-0.5-0.6l-0.4-0.7
		l-0.4-0.8l-0.4-0.9l0.1-0.6l0.3-0.5l0.4-0.5l0.5-0.4l0.6-0.4l0.7-0.3l0.8-0.3l0.9-0.3l0.9-0.2l1-0.2l1-0.2l1-0.2l1-0.2l1-0.2l1-0.2
		l0.9-0.2l0.9-0.3l0.8-0.3l0.7-0.3l0.7-0.3l1.2-1.4l1-1.2l0.8-1.1l0.7-1l0.5-0.9l0.5-0.8l0.4-0.7l0.4-0.6l0.4-0.6l0.5-0.6l0.5-0.6
		l0.7-0.6l0.8-0.6l1-0.6l1.3-0.7l1.5-0.7l1.8-0.8l2.8,2.6l2.5,2.3l2.2,2l2,1.7l1.7,1.4l1.5,1.2l1.3,1.1l1.2,0.9l1,0.8l0.9,0.8
		l0.8,0.8l0.7,0.8l0.6,0.9l0.5,1l0.5,1.1l0.5,1.3l-0.7,0.8l-0.6,0.7l-0.4,0.6l-0.3,0.5l-0.2,0.5l-0.1,0.4l0,0.4l0.1,0.3L178.8,381.8
		z M178.8,381.8"/>
	<path d="M62.1,774l0.9,0l1,0l2.2-0.1l1.2,0l1.3,0l1.4,0l1.5,0l1.6,0.1l1.7,0.1l1.3-0.4l1.2-0.5l1.2-0.5l1.1-0.6l1.1-0.7l1.1-0.8
		l1.1-0.9l1-1.1l1-1.3l1-1.5l1-1.8l1-2l0.1,0.9l0.1,0.8l0.1,0.8l0.1,0.7l0,0.7l0,0.7l-0.1,0.7l-0.2,0.8L88,769l-0.4,0.8l-0.6,0.9
		l-0.7,1l-0.9,1.1l-1.1,1.2l-1.4,1.3l-1.6,1.4l-1.9,1.5l-2.2,1.7l-1.4,0.4l-1.4,0.3l-1.3,0.2l-1.3,0.2l-1.2,0.1l-1.2,0.1l-1.1,0
		l-1.1,0l-1-0.1l-1-0.1l-0.9-0.2l-0.8-0.2l-0.8-0.2l-0.7-0.3l-0.7-0.3l-0.6-0.3l-0.6-0.3l-0.5-0.3l-0.4-0.4l-0.4-0.4l-0.9-2.2
		l-0.9-1.9l-0.8-1.7l-0.7-1.5l-0.7-1.3l-0.6-1.2l-0.5-1.1l-0.5-1l-0.4-0.9l-0.3-0.8l-0.3-0.8l-0.2-0.8l-0.1-0.8l-0.1-0.8l0-0.9
		l0.1-1l0.1-1.1l1.1,3.6l0.5,1.5l0.4,1.3l0.4,1.2l0.4,1l0.3,0.9l0.3,0.8l0.3,0.7l0.4,0.6l0.4,0.5l0.4,0.5l0.4,0.4l0.5,0.4l0.5,0.4
		l0.6,0.4l0.7,0.4l0.8,0.4L62.1,774z M62.1,774"/>
	<path d="M93.6,729.1l0.2-1.9l-0.2,1.7l-0.2,1.6l-0.6,6l-0.1,1.3l-0.1,1.2l-0.1,1.2l-0.1,1.1l-0.1,1l0,0.9l0,0.7l0,0.6l0.1,0.5
		l0.1,0.4l0.1,0.2l-3.1,2.3l0.2-0.6l0.2-0.5l0.1-1.3l0.1-1.1l0.1-0.9l0.2-0.7l0.2-0.6l0.2-0.6l0.2-0.5l0.4-1.1l0.2-0.6l0.2-0.7
		l0.2-0.8l0.2-0.9l0.2-1.1l0.2-1.3l0.2-1.6l0.2-1.8L93.6,729.1z M93.6,729.1"/>
	<path class="st4" d="M182.4,276.2l0.3,1.5l0.2,1.9l0.2,2.4l0.2,3l0.2,3.6l0.2,4.3l0.2,5.1l-0.8,3.5l-0.7,3.2l-0.7,3l-0.7,2.7
		l-0.7,2.6l-0.7,2.4l-0.7,2.3l-0.7,2.3l-0.7,2.2l-0.7,2.2l-0.7,2.2l-3.2,9.9l-0.9,2.9l-1,3.1l-1.1,3.4l-1.1,3.7l-1.2,4.1l1.2-6.3
		l3.1-15.6l0.8-4.3l0.7-4l0.7-3.8l0.6-3.6l0.5-3.5l0.4-3.5l0.3-3.5l0.2-3.6l0.1-3.8l0-4l0-4.4l-0.1-4.8l-0.2-5.2L176,274l-0.3-6.4
		l-0.4-7.1v-30.6L182.4,276.2z M182.4,276.2"/>
	<path d="M144.3,60.1l-0.1,1l-2.5-0.6l-7.2-1.8l0.1-0.2l0.1-0.2l0.1-0.2l0-0.3l0-0.3l0-0.3l6.7,2.1L144.3,60.1z M144.3,60.1"/>
	<path class="st1" d="M144.2,61.1l-0.1,1.1l-0.1,1.3l-0.3-0.4l-0.3-0.3l-0.2-0.2l-0.2-0.2l-0.2-0.2l-0.2-0.2l-0.2-0.2l-0.1-0.2
		l-0.1-0.2l-0.1-0.2l-0.1-0.3l-0.1-0.3l0-0.2L144.2,61.1z M144.2,61.1"/>
	<path d="M113.3,55l0.5,0.1l0.5,0.1l0.4,0.1l0.4,0.2l0.4,0.2l-0.2,0.2l-0.2,0.2l-0.1,0.3l-0.1,0.3l0,0.1l-0.3-0.2l-0.3-0.2l-0.3-0.1
		l-0.4-0.1l-0.4-0.1l-0.4,0l-0.4,0l-0.4,0.1l-0.4,0.1l-0.3,0.1l-0.3,0.2l-0.3,0.2l0-0.2l-0.1-0.3l-0.1-0.3l-0.2-0.2l-0.2-0.2
		l0.4-0.2l0.4-0.2l0.4-0.1l0.5-0.1l0.5-0.1l0.5,0L113.3,55z M113.3,55"/>
	<path d="M110.7,56.7l0,0.2l0,0.1l0,0.3l0,0.3l0,0.3l0,0.3l0,0.3l0,0.3l0,0.3l-0.1,0.3l-0.1,0.5l-2.5,4.3l-0.1,0.2l-0.1,0.2
		l-0.1,0.2l-0.1,0.2l-0.1,0.2l-0.1,0.2l-0.2,0.2l-0.2,0.2l-0.2,0.1l-0.2,0.1l-0.2,0.1l-0.2,0.1l-0.2,0l-0.2,0l-0.2,0l-0.2,0l-0.3,0
		l-0.3,0l-6.6,0l-0.4,0l-0.4,0l-0.4,0l-0.3,0l-0.3,0l-0.3,0l-0.3-0.1l-0.3-0.1L95,65.6l-0.3-0.2l-0.2-0.2l-0.2-0.2L94,64.9l-0.2-0.2
		l-0.2-0.3l-0.2-0.3l-0.2-0.3l-0.2-0.3l-1-1.6l-0.8-2.5L91.3,59l-0.1-0.2l-0.1-0.2l-0.1-0.2L91,58l0-0.3l0-0.3l0-0.3l0.1-0.3
		l0.1-0.3l0.2-0.3l0.2-0.3l0.3-0.2l0.3-0.2l0.4-0.3l0.4-0.3l0.7-0.4l14.8,0l0.5,0.3l0.3,0.2l0.3,0.2l0.2,0.2l0.2,0.2l0.2,0.2
		l0.2,0.2l0.2,0.2l0.1,0.3L110.7,56.7z M106.8,64.3l0.1-0.2L107,64l0.1-0.2l0.1-0.2l2.4-4.2l0.1-0.3l0.1-0.3l0-0.3l0-0.3l0-0.2
		l0-0.2l0-0.2l0-0.2l0-0.2l0-0.2l-0.1-0.2l-0.1-0.2l-0.1-0.2l-0.1-0.1l-0.1-0.1l-0.2-0.1l-0.2-0.1l-0.2-0.2l-0.2-0.2l-0.3-0.2
		l-14.3,0l-0.5,0.3L93.1,56l-0.3,0.2l-0.3,0.2l-0.2,0.2l-0.2,0.2L92,57L92,57.1l0,0.2l0,0.2l0,0.2l0,0.2l0,0.2l0.1,0.2l0.1,0.3
		l0.1,0.3l0.1,0.3l0.8,2.4L94,63l0.2,0.3l0.2,0.3l0.2,0.2l0.2,0.2l0.1,0.2l0.1,0.2l0.2,0.1l0.2,0.1l0.2,0.1l0.2,0.1l0.2,0.1L96,65
		l0.2,0l0.3,0l0.3,0l0.3,0l0.4,0l0.4,0l6.6,0l0.3,0l0.2,0l0.2,0l0.2,0l0.2,0l0.2,0l0.1,0l0.1,0l0.1-0.1l0.1-0.1l0.1-0.1l0.1-0.1
		l0.1-0.1L106.8,64.3z M106.8,64.3"/>
	<path class="st2" d="M69.8,363.8l0.4,0l0.3,0.1l0.3,0.1l0.2,0.1l0.2,0.1l0.2,0.1l0.2,0.1l0.1,0.1l0.1,0.2l0.1,0.2l0.1,0.2l0.1,0.2
		l0,0.2l0,0.2l0,0.2l0,0.3l0,0.3l0,0.3l0,0.3l0,0.3l-0.2,0.5l-0.3,0.5l-0.3,0.5l-0.3,0.5l-0.4,0.5l-0.4,0.5l-0.5,0.4l-0.6,0.4
		l-0.6,0.3l-0.7,0.3l-0.8,0.2l-0.9,0.1l-1,0l-1.1-0.1l-1.2-0.2l-1.3-0.3l-1.4-0.4l-1.6-0.6l-1.7-0.7l-1.9-0.9l-1,1.4l-1.1,1.3
		l-1.1,1.1l-1.2,1l-1.2,0.8l-1.3,0.7l-1.3,0.5l-1.3,0.4l-1.3,0.2l-1.4,0.1l-1.4-0.1l-1.4-0.3l-1.4-0.4l-1.4-0.6l-1.4-0.7l-1.4-0.9
		l-1.4-1l-1.3-1.2l-1.3-1.3l-1.3-1.5l-0.1-0.4l-0.2-0.4l-0.2-0.4l-0.3-0.5l-0.3-0.5l-0.3-0.5l-0.4-0.5l-0.8-1.1l-0.1-2.6l-0.2-2.4
		l-0.3-2.1l-0.5-3.6l-0.2-1.5l-0.1-1.3l0.1-1.1l0.3-0.9l0.5-0.7l0.8-0.6l1.1-0.4l1.4-0.2l1.8-0.1l2.3,0l2.7,0.1l3.3,0.3l3.8,0.4
		l2.6,2l2.3,1.8l2.1,1.6l3.4,2.6l1.4,1.1l1.3,1l1.1,0.8l1,0.7l0.9,0.6l0.9,0.5l0.8,0.5l0.8,0.4l0.9,0.4l0.9,0.3l1,0.3l1.1,0.3
		l1.2,0.3l1.4,0.4L69.8,363.8z M69.8,363.8"/>
	<path d="M28.8,368.1l0.1,0.4l0.1,0.3l0,0.3l0,0.3l-0.1,0.2l-0.2,0.2l-0.2,0.2l-0.3,0.1l-0.4,0.1l-0.5,0l-0.6,0l-0.7,0l0.2-3.1
		l0-2.8l0.8,1.1l0.4,0.5l0.3,0.5l0.3,0.5l0.3,0.5l0.2,0.4L28.8,368.1z M28.8,368.1"/>
	<path class="st0" d="M106.9,64.1l-0.1,0.2l-0.1,0.1l-0.1,0.1l-0.1,0.1l-0.1,0.1l-0.1,0.1l-0.1,0.1l-0.1,0l-0.1,0l-0.2,0l-0.2,0
		l-0.2,0l-0.2,0l-0.2,0l-0.3,0l-6.6,0l-0.4,0l-0.4,0l-0.3,0l-0.3,0l-0.3,0L96,65l-0.2-0.1l-0.2-0.1l-0.2-0.1l-0.2-0.1l-0.2-0.1
		l-0.2-0.1l-0.1-0.2l-0.1-0.2l-0.2-0.2l-0.2-0.2l-0.2-0.3L94,63l-0.9-1.5l-0.8-2.4l-0.1-0.3l-0.1-0.3l-0.1-0.3L92,58l0-0.2l0-0.2
		l0-0.2l0-0.2l0-0.2L92,57l0.1-0.2l0.2-0.2l0.2-0.2l0.3-0.2l0.3-0.2l0.4-0.2l0.5-0.3l14.3,0l0.3,0.2l0.2,0.2l0.2,0.2l0.2,0.1
		l0.2,0.1l0.1,0.1l0.1,0.1l0.1,0.2l0.1,0.2l0.1,0.2l0,0.2l0,0.2l0,0.2l0,0.2l0,0.2l0,0.2l0,0.3l0,0.3l-0.1,0.3l-0.1,0.3l-2.4,4.2
		l-0.1,0.2L107,64L106.9,64.1z M106.9,64.1"/>
	<path class="st7" d="M116,59.1l0.1,0.3 M115.9,58.8l0.1,0.3 M115.8,57.6l0,0.2 M115.9,58.2l0,0.3 M80.4,60.9l-0.1-0.5 M83.7,59.8
		l-3.4,0.6 M83.7,59.8L83.7,59.8 M83.7,60.1l0-0.3 M83.7,60.4l0-0.3 M83.7,60.6l0-0.3 M83.7,60.9l0-0.2 M83.6,61.1l0-0.2 M83.5,61.4
		l0.1-0.2 M83.5,61.6l0.1-0.3 M83.4,61.9l0.1-0.3 M83.2,62.2l0.1-0.3 M83.1,62.5l0.2-0.3 M82.9,62.9l0.2-0.4 M82.7,63.3l0.2-0.4
		 M82.5,63.7l0.2-0.5 M82.2,64.2l0.3-0.5 M82.2,64.2l-0.3-0.1 M81.8,64.2L81.6,64 M81.6,64l-0.3-0.2 M81.3,63.8l-0.2-0.3 M81.1,63.5
		l-0.2-0.4 M80.9,63.1l-0.2-0.4 M80.8,62.7l-0.1-0.4 M80.6,62.3l-0.1-0.5 M80.5,61.8l-0.1-0.5 M80.4,61.4l-0.1-0.5 M115.9,58.5
		l0,0.3 M115.8,57.8l0,0.2 M115.8,57.2l0,0.2 M115.8,57.4l0,0.2 M115.8,58l0,0.2 M79.9,126.8l-0.7,0.1 M75.2,126.4l-0.1-0.4
		 M75.1,126l-0.1-0.5 M74.5,117.6l0.3,0.5 M74.2,117l0.3,0.5 M81.4,126.7l-0.8,0.1 M77.5,127.1l-0.5,0 M75,125.6l0-0.6 M83,126.7
		l-0.8,0 M75.2,119.6l0,0.6 M75.1,119l0.1,0.6 M75,118.5l0.1,0.5 M74.8,118.1l0.2,0.5 M75.2,121l0,0.9 M75.2,120.3l0,0.8
		 M75.2,121.9l-0.1,1.1 M75,125l0-0.7 M75.1,123l-0.1,1.3 M67.9,105l0.1,0.2 M67.8,104.9l0.1,0.1 M67.7,104.8L67.7,104.8
		 M67.6,104.7L67.6,104.7 M67.5,104.6L67.5,104.6 M67.4,104.5L67.4,104.5 M67.3,104.4L67.3,104.4 M67.2,104.3l0.1,0.1 M67.2,104.2
		l0.1,0.1 M67.1,104l0,0.2 M67.1,103.8l0,0.2 M67.1,103.5l0,0.3 M67.1,103.2l0,0.3 M67.8,103.1l-0.6,0.1 M68.3,102.9l-0.5,0.2
		 M68.7,102.6l-0.4,0.3 M69.1,102.2l-0.3,0.4 M69.3,101.8l-0.2,0.5 M69.5,101.2l-0.2,0.5 M69.5,100.6l-0.1,0.6 M69.5,99.9l0,0.7
		 M69.5,99l0.1,0.8 M69.3,98.1l0.1,0.9 M69.1,97.1l0.2,1 M68.9,95.9l0.3,1.1 M68.6,94.7l0.3,1.2 M68.2,93.3l0.3,1.4 M67.8,91.8
		l0.4,1.5 M66.5,86.7l0.5,1.8 M66.5,86.7l0.2-2.5 M66.6,84.2l0.1-2.2 M66.8,82l0.1-2 M66.8,80l0-1.8 M66.9,78.2l0-1.6 M66.8,76.7
		l0-1.4 M66.8,75.2l0-1.3 M66.8,73.9l0-1.2 M66.7,72.7l0-1.2 M149.2,123.9l-0.8-0.1 M66.7,71.6l0-1.1 M66.7,70.4l0-1.2 M66.7,69.2
		l0-1.2 M66.7,68l0.1-1.3 M66.8,66.7l0.1-1.4 M66.9,65.3l0.2-1.6 M67.1,63.7l0.3-1.8 M148.4,123.8l-0.9-0.1 M147.5,123.7l-0.6-0.6
		 M146.9,123.2l-0.6-0.5 M146.3,122.7l-0.5-0.4 M145.8,122.4l-0.5-0.3 M145.3,122l-0.4-0.3 M144.9,121.8l-0.4-0.2 M144.4,121.5
		l-0.4-0.2 M144,121.3l-0.4-0.3 M143.7,121l-0.4-0.3 M143.3,120.7l-0.4-0.3 M142.9,120.4l-0.4-0.4 M142.4,120l-0.5-0.5 M142,119.5
		l-0.5-0.6 M141.5,118.9l-0.5-0.7 M141,118.2l-0.6-0.8 M140.4,117.4l-0.6-1 M139.7,116.4l-0.7-1.2 M139,115.2l-0.8-1.4 M138.2,113.9
		l-0.9-1.6 M137.3,112.3l-1-1.8 M136.3,110.5l0-1.7 M136.4,108.7l0-1.6 M136.4,107.1l0-1.5 M136.4,105.7l0-1.3 M136.4,104.4l0-1.2
		 M136.4,103.1l0-1.1 M136.4,102.1l0-1 M136.4,99.4l0-0.7 M136.4,98.7l0-0.6 M136.4,98.1l0-0.5 M136.4,97.6l0-0.5 M136.4,97.1l0-0.4
		 M136.4,96.7l0-0.3 M136.4,96.4l0.1-0.3 M136.5,96.1l0.1-0.3 M136.6,95.8l0.1-0.2 M136.7,95.6l0.1-0.2 M136.8,95.4l0.1-0.2
		 M137.8,94.3l-0.9,1 M138.6,93.4l-0.8,0.9 M139.3,92.4l-0.7,0.9 M139.8,91.5l-0.6,0.9 M140.3,90.6l-0.5,0.9 M140.7,89.6l-0.4,1
		 M141,88.6l-0.3,1 M141.3,87.5l-0.3,1.1 M141.5,86.3l-0.2,1.2 M141.7,84.9l-0.2,1.3 M141.8,83.5l-0.1,1.5 M141.8,83.5l0.9,0
		 M142.7,83.5l0.8-0.1 M143.5,83.4l0.7-0.3 M144.2,83.1l0.6-0.4 M144.8,82.7l0.6-0.5 M145.4,82.3l0.5-0.6 M145.9,81.7l0.5-0.7
		 M146.3,81l0.4-0.8 M146.7,80.2l0.3-0.8 M147.1,79.4l0.3-0.9 M147.4,78.4l0.3-1 M147.6,77.5l0.2-1 M147.9,76.5l0.2-1.1 M148.1,75.4
		l0.2-1.1 M148.2,74.3l0.1-1.1 M148.4,73.2l0.1-1.1 M148.5,72l0.1-1.1 M148.6,70.9l0.1-1.1 M83.8,58.2l0-0.5 M80.3,60.4l0-0.5
		 M80.3,59.9l0-0.5 M80.3,59.5l0-0.4 M80.2,58.9l0,0.1 M80.2,58.8l0,0.1 M80.1,58.7L80.1,58.7 M80.1,58.7L80.1,58.7 M80.1,58.6
		L80.1,58.6 M80.1,58.5L80.1,58.5 M80.1,58.5L80.1,58.5 M80.1,58.4L80.1,58.4 M80,58.4L80,58.4 M80,58.3L80,58.3 M80,58.3L80,58.3
		 M79.9,58.2L79.9,58.2 M79.9,58.2L79.9,58.2 M79.8,58.1L79.8,58.1 M79.7,58L79.7,58 M79.6,57.9L79.6,57.9 M79.5,57.8l0.1,0.1
		 M79.4,57.7l0.1,0.1 M60,130.8l-3.2,1.1 M62.9,129.8l-2.8,1 M24.4,204.4l-0.6,7.6 M25,197.7l-0.6,6.7 M25.5,191.8l-0.5,5.8
		 M13.3,318.8l-0.3-3.4 M13,315.4l-0.2-3.2 M12.7,312.2l-0.2-3.1 M12.6,309.1l-0.2-3.1 M12.4,306.1l-0.2-3.1"/>
	<path class="st7" d="M12.2,303l-0.2-3.2 M49.6,256.3l0.2-1.7 M39.4,288.5l0.4-1.8 M49.4,257.8l0.2-1.5 M39.3,299.6l-0.2-2.6
		 M15.3,251.4l1-3.7 M68.2,107.3l0,0.6 M68.2,106.7l0,0.5 M68.2,106.3l0,0.5 M68.2,105.9l0,0.4 M68.1,105.6l0.1,0.3 M68,105.3
		l0.1,0.2 M68,105.1l0.1,0.2 M72,114l0.7,1 M71.2,112.8L72,114 M70.3,111.4l0.9,1.4 M69.3,109.8l1,1.6 M68.2,107.9l1.1,1.9
		 M73.8,116.4l0.4,0.6 M80.6,126.7l-0.7,0.1 M84,56.5l-0.1,0.6 M75.9,127.1l-0.3-0.1 M76.6,127.2l-0.4,0 M76.2,127.2l-0.3-0.1
		 M78.1,127.1l-0.5,0.1 M83.9,126.7l-0.9-0.1 M54.6,255v-25.2 M12.9,268.2l-0.4,2.5 M130.5,64.7l-0.2,0.1 M14.3,259.2l-0.5,3.3
		 M53.6,264.3l-0.8,5.2 M110.8,56.9l0-0.2 M14.8,255.5l-0.5,3.7 M106.8,64.3l0.1-0.2 M106.9,64.1L107,64 M11.3,276.9l-0.3,1.8
		 M129.9,64.9l-0.2,0.1 M67.4,62l0.4-2 M68.2,57.7l0.6-2.5 M68.8,55.2l0.7-2.9 M71.1,48.1l-1.7,4.2 M72.7,44.4l-1.5,3.8 M76.3,35.2
		l-1.1,2.7 M77.3,32.8l-1,2.4 M78.2,30.7l-0.9,2.1 M79,28.8l-0.8,1.9 M79.8,27.1L79,28.8 M80.6,25.6l-0.8,1.5 M81.4,24.2l-0.8,1.4
		 M82.2,22.9l-0.8,1.3 M83.1,21.7l-0.8,1.2 M84,20.6l-0.9,1.1 M85,19.5l-1,1.1 M86.1,18.4L85,19.5 M87.3,17.3l-1.2,1.1 M88.6,16.1
		l-1.4,1.2 M90.2,14.8l-1.5,1.3 M91.9,13.3l-1.7,1.4 M94.2,11.4l-2.4,2 M96.4,9.7l-2.1,1.7 M98.3,8.2l-1.9,1.5 M100.1,7l-1.7,1.3
		 M101.6,5.9l-1.6,1 M103.1,5.1l-1.4,0.8 M104.4,4.4l-1.3,0.6 M105.6,4l-1.2,0.5 M106.8,3.7L105.6,4 M107.9,3.5l-1.1,0.1 M109,3.5
		l-1.1,0 M110.1,3.6L109,3.5 M111.1,3.9l-1.1-0.2 M112.3,4.2l-1.1-0.4 M113.5,4.7l-1.2-0.5 M114.8,5.2l-1.3-0.5 M116.2,5.9l-1.4-0.6
		 M117.7,6.5l-1.5-0.7 M119.4,7.3l-1.7-0.7 M121.2,8l-1.9-0.8 M121.2,8l1.1-0.4 M122.3,7.6l1-0.4 M123.3,7.2l0.9-0.4 M124.2,6.8
		l0.8-0.4 M125,6.4l0.8-0.3 M125.7,6.1l0.7-0.2 M126.4,5.9l0.7-0.2 M127.1,5.7l0.6-0.1 M127.7,5.6l0.6,0 M128.3,5.6l0.6,0.1
		 M128.9,5.7l0.6,0.3 M129.5,6l0.6,0.4 M130.1,6.4l0.6,0.5 M130.8,6.9l0.7,0.7 M131.5,7.6l0.7,0.9 M132.2,8.5l0.8,1 M133,9.5
		l0.9,1.2 M133.8,10.8l0.9,1.4 M134.8,12.2l1,1.7 M135.8,13.9l1.1,1.9 M137,15.8l1.7,2.8 M138.7,18.6l1.5,2.5 M143.9,27.1l1,1.6
		 M144.8,28.6l0.9,1.4 M145.7,30.1l0.8,1.3 M146.4,31.4l0.7,1.2 M147.1,32.5l0.6,1.1 M147.7,33.6l0.5,1 M148.2,34.7l0.5,1
		 M148.7,35.7l0.4,1 M149.2,36.7l0.4,1 M149.6,37.7l0.4,1.1 M150,38.8l0.4,1.2 M150.4,39.9l0.4,1.3 M150.8,41.2l0.4,1.4 M151.2,42.6
		l0.4,1.5 M151.6,44.1l0.5,1.7 M152.1,45.9l0.9,2.3 M153,48.2l0.8,2.1 M153.9,50.2l0.8,1.9 M155.4,53.8l0.7,1.5 M156,55.3l0.6,1.4
		 M156.6,56.7l0.5,1.3 M157.2,58l0.5,1.2 M157.7,59.2l0.4,1.1 M158.1,60.3l0.4,1.1 M158.5,61.5l0.3,1.1 M158.8,62.6l0.3,1.1
		 M159,63.7l0.2,1.2 M159.2,64.9l0.1,1.3 M159.4,66.2l0.1,1.4 M159.5,67.6l0,1.5 M159.5,69.1l0,1.7 M159.5,70.7l-0.1,1.8
		 M159.5,72.5l-0.1,2 M159.3,74.6l-0.2,2.3 M159.2,76.9l-0.1,0.8 M159.1,77.7l-0.1,0.9 M158.9,78.6l-0.2,1 M158.8,79.6l-0.2,1.1
		 M158.6,80.7l-0.2,1.1 M158.3,81.8l-0.3,1.1 M158,82.9l-0.3,1.2 M157.7,84.1l-0.3,1.2 M157.4,85.3l-0.3,1.2 M156.1,90.1l-0.3,1.1
		 M155.8,91.2l-0.3,1.1 M155.5,92.3l-0.3,1.1 M155.2,93.4l-0.2,1 M155,94.4l-0.2,0.9 M154.8,95.3l-0.2,0.8 M154.6,96.2l-0.1,0.8
		 M154.5,96.9l-0.1,0.7 M154.4,97.6l0.4,0.4 M154.8,97.9l0.3,0.4 M155.2,98.3l0.3,0.3 M155.4,98.6l0.2,0.3 M155.7,98.9l0.2,0.3
		 M155.9,99.2l0.2,0.3 M156,99.5l0.1,0.3 M156.2,99.8l0.1,0.2 M156.3,100l0.1,0.2 M156.4,100.2l0.1,0.2 M156.5,100.4l0.1,0.2
		 M156.7,100.6l0.2,0.2 M156.8,100.8l0.2,0.2 M157,101l0.2,0.1 M157.2,101.1l0.3,0.1 M157.5,101.2l0.3,0.1 M157.8,101.4l0.4,0.1
		 M158.2,101.5l0.5,0.1 M158.7,101.6l0.6,0.1 M159.3,101.7l0.6,0.1 M159.9,101.7l-1,1 M158.9,102.7l-0.8,0.9 M158,103.7l-0.6,0.8
		 M157.4,104.5l-0.4,0.8 M157,105.3l-0.3,0.7 M156.7,106l-0.1,0.6 M156.6,106.6l0,0.5 M156.6,107.1l0.2,0.5 M156.8,107.6l0.3,0.4
		 M157.1,108.1l0.4,0.4 M157.5,108.4l0.5,0.3 M158,108.8l0.6,0.3 M158.6,109l0.7,0.2 M159.3,109.3l0.8,0.2 M160.1,109.5l0.8,0.2
		 M160.9,109.7l0.9,0.2 M161.7,109.8l0.9,0.1 M162.6,110l0.9,0.1 M163.5,110.1l0.9,0.1 M164.5,110.2l0.9,0.1 M165.4,110.3l-0.6,1.1
		 M164.8,111.4l-0.5,1 M164.3,112.4l-0.5,0.8 M163.8,113.2l-0.5,0.7 M163.3,113.8l-0.5,0.5 M162.8,114.4l-0.5,0.4 M162.3,114.8
		l-0.5,0.3 M161.8,115.1l-0.5,0.2 M161.3,115.3l-0.5,0.1"/>
	<path class="st7" d="M160.9,115.4l-0.5,0 M160.4,115.4l-0.4,0 M160,115.4l-0.4-0.1 M159.5,115.3l-0.4-0.1 M159.1,115.2l-0.4-0.1
		 M158.6,115l-0.4-0.2 M158.2,114.9l-0.4-0.2 M157.8,114.7l-0.4-0.2 M157.4,114.6l-0.4-0.1 M157,114.4l-0.4-0.1 M156.6,114.3l-0.3,0
		 M156.3,114.3l-0.3,0 M156,114.3l-0.2,0 M155.5,114.4l0.1-0.1 M155.5,114.4L155.5,114.4 M155.5,114.5L155.5,114.5 M155.4,114.6
		l0,0.1 M155.4,114.7l0,0.1 M155.4,114.8l0,0.2 M155.4,115l0,0.2 M155.6,115.6l0.1,0.2 M155.7,115.9l0.1,0.3 M155.7,116.1l0.1,0.3
		 M155.8,116.4l0,0.3 M155.9,116.7l0,0.3 M155.9,117.1l0,0.4 M155.9,117.4l0,0.4 M155.9,117.8l-0.1,0.9 M155.8,118.7l-0.1,0.8
		 M155.7,119.6l-0.1,0.8 M155.5,120.3l-0.2,0.7 M155.4,121l-0.2,0.6 M155.2,121.6l-0.2,0.5 M155,122.1l-0.2,0.4 M154.7,122.6
		l-0.3,0.4 M154.4,122.9l-0.3,0.3 M154.1,123.2l-0.4,0.2 M153.8,123.5l-0.4,0.2 M153.4,123.7l-0.4,0.1 M152.9,123.8l-0.5,0.1
		 M152.4,123.9l-0.5,0.1 M151.9,124l-0.6,0 M151.3,124l-0.6,0 M150.6,124l-0.7,0 M149.9,124l-0.8-0.1 M149.1,64.7l0.1-1.2
		 M149.2,63.5l0.1-1.1 M149.3,62.4l0.1-1 M149.3,61.5l0-0.8 M149.4,60.6l0-0.7 M149.4,59.9l0-0.6 M149.4,59.3l0-0.6 M149.4,58.7
		l0-0.5 M149.3,58.2l-0.1-0.4 M149.3,57.8l-0.1-0.4 M149.2,57.4l-0.1-0.3 M149.1,57.1l-0.1-0.3 M149,56.8l-0.1-0.3 M148.8,56.5
		l-0.2-0.3 M148.6,56.2l-0.2-0.3 M148.4,55.9l-0.2-0.3 M148.2,55.6l-0.3-0.3 M148,55.3l-0.3-0.3 M147.4,55l0.2,0 M147.2,55l0.2,0
		 M147,55l0.2,0 M146.8,55l0.2,0 M146.5,55l0.2,0 M146.3,55.1l0.2-0.1 M146.1,55.2l0.2-0.1 M145.9,55.4l0.2-0.2 M145.7,55.6l0.2-0.2
		 M145.5,55.9l0.2-0.3 M145.3,56.3l0.2-0.3 M145.1,56.7l0.2-0.4 M144.9,57.2l0.2-0.5 M144.8,57.8l0.2-0.6 M144.6,58.5l0.2-0.7
		 M141.4,59.2l-0.1-0.7 M141.3,58.5l-0.1-0.8 M141.2,57.7l-0.1-1 M141.1,56.7l-0.1-1.1 M141,55.6l-0.1-1.3 M139.7,50.5l1.2,3.6
		 M139.1,47l-0.6-3.3 M138.5,43.7l-0.7-3 M137.8,40.7L137,38 M137,38l-0.8-2.4 M136.1,35.6l-0.9-2.2 M135.3,33.4l-0.9-1.9
		 M77.4,57.7l-0.1,0.2 M85.1,84.8l0.4,0.1 M77,67.2l0.2,2.6 M79.8,80.2l0.6,1 M146.7,780.5l-1.5-0.8 M153.9,782.8l-2-0.4
		 M136.8,771.5l0.5,0.6 M156,783.1l-2.2-0.2 M148.3,781.3l-1.6-0.8 M150,781.9l-1.7-0.6 M135.6,770l0.3,0.5 M143.9,778.8l-1.2-1
		 M160.9,783l-2.5,0.1 M140.4,775.7l-1-1.1 M134.2,767l0.1,0.5 M134.1,766.5l0.1,0.5 M134.6,768.3l0.2,0.4 M133.8,764.7l0.1,0.6
		 M133.7,764l0.1,0.7 M141.5,776.8l-1.1-1.1 M142.7,777.8l-1.2-1 M136.3,770.9l0.4,0.6 M145.3,779.7l-1.3-0.9 M160.9,783l1.5-0.8
		 M134.4,767.9l0.2,0.4 M134.3,767.4l0.1,0.4 M135.9,770.4l0.4,0.5 M134,766l0.1,0.5 M133.9,765.4l0.1,0.6 M137.3,772.1l0.6,0.7
		 M135.3,769.5l0.3,0.4 M162.4,782.2l1.3-1.3 M151.9,782.5l-1.9-0.5 M158.4,783.1l-2.3-0.1 M163.7,781l1.2-1.8 M164.9,779.2l1.1-2.3
		 M135,769.1l0.3,0.4 M134.8,768.7l0.2,0.4 M133.6,751.6l0,2 M133.6,753.6l-6.1-7.8 M128.7,730.1l-1.2,15.7 M128.7,730.1l0.8,2.2
		 M129.5,732.3l0.7,2 M130.1,734.2l0.6,1.8 M130.7,736l0.5,1.7 M131.3,737.7l0.5,1.5 M131.7,739.2l0.4,1.5 M132.1,740.7l0.3,1.4
		 M132.5,742.1l0.3,1.4 M132.8,743.6l0.2,1.4 M133,745l0.2,1.5 M133.2,746.5l0.2,1.6 M133.4,748.1l0.1,1.7 M133.5,749.8l0.1,1.8
		 M166,776.8l1-2.9 M167,773.9l0.8-3.5 M167.8,770.4l0.7-4.1 M168.5,766.3l-0.2,2.2 M168.4,768.5l-0.2,2 M168.2,770.5l-0.2,1.8
		 M168.1,772.3l-0.2,1.7 M167.9,774l-0.2,1.5 M167.7,775.5l-0.2,1.4 M167.6,776.9l-0.2,1.3 M167.4,778.1l-0.2,1.2 M167.2,779.3
		l-0.2,1.1 M167,780.3l-0.2,1 M166.8,781.3l-0.3,0.9 M166.5,782.2l-0.3,0.8 M166.2,783l-0.3,0.8 M165.8,783.8l-0.4,0.7 M165.4,784.6
		l-0.4,0.7 M165,785.3l-0.5,0.7 M164.5,786l-0.6,0.7 M164,786.7l-0.6,0.7 M163.3,787.4l-0.7,0.7 M162.7,788.1l-0.8,0.8 M161.9,788.9
		l-1.2-0.1 M160.7,788.8l-1.2-0.1 M159.5,788.7l-1.1,0 M158.4,788.7l-1,0 M157.4,788.7l-1,0 M156.4,788.8l-0.9,0 M155.5,788.8
		l-0.9,0.1 M154.6,788.9l-0.8,0.1 M153.8,788.9l-0.8,0 M153,789l-0.8,0 M152.2,789l-0.8,0 M151.4,789l-0.8,0 M150.6,789l-0.8,0
		 M149.8,789l-0.8-0.1 M149,788.9l-0.8-0.1 M148.2,788.7l-0.9-0.2 M147.3,788.6l-0.9-0.2 M146.4,788.3l-0.9-0.3 M145.4,788l-1-0.4
		 M144.4,787.6l-1.1-0.5 M141,785.1l0.7,0.6 M140.5,784.6l0.6,0.5 M139.9,784.1l0.5,0.5 M139.5,783.7l0.4,0.4 M139.1,783.3l0.4,0.4
		 M138.7,782.9l0.4,0.4 M138.4,782.6l0.3,0.4 M138.1,782.2l0.3,0.4 M137.8,781.8l0.3,0.4 M137.4,781.4l0.3,0.4 M137.1,780.9l0.4,0.5
		 M136.7,780.4l0.4,0.5 M134.5,777.5l0.7,0.9"/>
	<path class="st7" d="M133.8,776.5l0.8,1 M132.9,775.4l0.9,1.1 M132.6,774.5l0.3,0.9 M132.4,773.8l0.2,0.8 M132.2,773.1l0.2,0.7
		 M132.1,772.4l0.1,0.6 M132,771.9l0.1,0.6 M131.9,771.3l0,0.5 M131.9,770.8l0,0.5 M132,770.3l0,0.5 M132,769.8l-0.1,0.5
		 M132.1,769.3l-0.1,0.5 M132.3,768.8l-0.1,0.5 M132.4,768.3l-0.1,0.6 M132.5,767.7l-0.1,0.6 M132.7,767l-0.2,0.7 M132.9,766.3
		l-0.2,0.7 M133,765.5l-0.2,0.8 M133.2,764.5l-0.2,0.9 M133.3,763.5l-0.1,1 M133.5,762.4l-0.1,1.1 M117.8,64.3l0.1,0.2 M117.9,64.5
		l0.1,0.2 M118.1,64.7l0.1,0.2 M51.9,758.1l0.2-1.2 M52.1,756.9l0.3-1.4 M52.4,755.5l0.3-1.5 M52.7,754l1.1-3.8 M53.7,750.3l1-3.4
		 M54.7,746.9l0.9-3 M55.7,743.9l0.9-2.7 M56.5,741.2l0.8-2.4 M57.3,738.9l0.7-2.1 M58,736.8l0.6-1.8 M58.6,735l0.6-1.6 M59.2,733.4
		l0.5-1.4 M61.2,724.1l-0.1-1 M59.7,732l0.4-1.3 M60.1,730.7l0.4-1.1 M60.5,729.6l0.3-1 M60.8,728.6l0.2-0.9 M61,727.6l0.1-0.9
		 M61.1,726.7l0.1-0.9 M61.2,725.9l0-0.9 M61.2,725l-0.1-0.9 M61,723.1l-0.2-1.1 M60.9,722l-0.3-1.2 M89.6,747.9l-0.2,0.7
		 M89.4,748.6l-0.2,0.8 M89.3,749.3l-0.1,0.9 M89.1,750.2l-0.1,1 M89,751.2l-0.1,1.1 M88.9,752.4l-0.1,1.3 M88.8,753.6l-0.1,1.4
		 M88.6,755l-0.1,1.5 M88.5,756.6l-0.1,1.7 M88.4,758.3l-0.1,1.8 M88.2,760.1l0,1 M88.2,761.1l0,0.9 M183.1,384.9l-0.4-0.4
		 M182.7,384.5l-0.4-0.4 M182.2,384.1l-0.4-0.3 M181.8,383.8l-0.4-0.3 M181.4,383.5l-0.4-0.3 M180.9,383.2l-0.4-0.2 M180.5,383
		l-0.4-0.2 M180.1,382.8l-0.4-0.2 M179.7,382.5l-0.3-0.2 M179.3,382.3l-0.3-0.2 M179,382.1l-0.2-0.3 M178.8,381.8l-0.2-0.3
		 M178.6,381.5l-0.1-0.3 M178.5,381.2l0-0.4 M178.5,380.9l0.1-0.4 M178.6,380.5l0.2-0.5 M178.8,380l0.3-0.5 M179.2,379.5l0.4-0.6
		 M179.6,378.9l0.6-0.7 M180.2,378.2l0.7-0.8 M180.9,377.4l0.5,1.5 M181.4,378.9l0.5,1.7 M181.9,380.6l0.6,2 M182.4,382.6l0.6,2.3
		 M63,774l-0.9,0 M59.5,772.6l0.8,0.4 M58.9,772.3l0.7,0.4 M58.3,771.9l0.6,0.4 M57.7,771.5l0.5,0.4 M57.3,771.1l0.5,0.4
		 M56.8,770.7l0.4,0.4 M56.4,770.2l0.4,0.5 M56,769.7l0.4,0.5 M55.7,769.1l0.4,0.6 M55.3,768.4l0.3,0.7 M55,767.6l0.3,0.8
		 M54.7,766.7l0.3,0.9 M54.3,765.7l0.4,1 M53.9,764.5l0.4,1.2 M53.5,763.2l0.4,1.3 M53,761.7l0.5,1.5 M62.1,722l-1.5-1.2
		 M63.6,722.8l-1.5-0.8 M65.2,723.4l-1.6-0.5 M66.8,723.7l-1.6-0.3 M66.8,723.7l4.1,0.4 M70.9,724.1l3.7,0.3 M74.7,724.4l3.3,0.3
		 M78,724.6l3,0.2 M80.9,724.8l2.6,0.1 M83.6,724.9l2.3,0 M85.9,725l2,0 M87.9,724.9l1.7-0.1 M89.6,724.8l1.5-0.2 M91,724.7l1.2-0.2
		 M92.3,724.4l1-0.3 M93.3,724.1l0.8-0.4 M93.9,725.5l0.1-1.7 M93.9,725.5l-0.1,1.1 M93.8,726.6l-0.1,0.6 M93.6,729.1l0.2-1.9
		 M93.4,731.3l0.2-2.2 M93.1,733.1l0.2-1.8 M92.9,734.7l0.2-1.6 M92.6,736l0.2-1.3 M92.4,737.1l0.2-1.1 M92.2,738.1l0.2-0.9
		 M91.9,738.9l0.2-0.8 M91.7,739.5l0.2-0.7 M91.5,740.1l0.2-0.6 M90.9,741.7l0.2-0.5 M90.7,742.3l0.2-0.6 M90.5,742.9l0.2-0.6
		 M90.4,743.7l0.2-0.7 M90.2,744.6l0.1-0.9 M90.1,745.6l0.1-1.1 M90,746.9l0.1-1.3 M90,746.9l-0.2,0.5 M89.8,747.3l-0.2,0.6
		 M88.2,762l-1,2 M87.2,764.1l-1,1.8 M86.1,765.8l-1,1.5 M85.1,767.3l-1,1.3 M84.1,768.6l-1,1.1 M83,769.7l-1.1,0.9 M82,770.6
		l-1.1,0.8 M80.9,771.4l-1.1,0.7 M79.8,772.1l-1.1,0.6 M78.6,772.7l-1.2,0.5 M77.5,773.2l-1.2,0.5 M76.2,773.6l-1.3,0.4 M75,774.1
		l-1.7-0.1 M73.3,773.9l-1.6-0.1 M71.7,773.8l-1.5,0 M70.2,773.8l-1.4,0 M68.8,773.8l-1.3,0 M67.5,773.8l-1.2,0 M64,773.9l-1,0
		 M140.9,54.2l0,0.2 M131.1,376.4l0.4,0.9 M131.2,375.8l-0.1,0.6 M131.5,375.3l-0.3,0.5 M131.9,374.8l-0.4,0.5 M132.4,374.4
		l-0.5,0.4 M133,374.1l-0.6,0.4 M133.7,373.7l-0.7,0.3 M134.5,373.4l-0.8,0.3 M135.4,373.2l-0.9,0.3 M136.3,372.9l-0.9,0.2
		 M137.2,372.7l-1,0.2 M138.2,372.5l-1,0.2 M139.2,372.2l-1,0.2 M140.2,372l-1,0.2 M141.2,371.8l-1,0.2 M142.2,371.6l-1,0.2
		 M143.1,371.4l-0.9,0.2 M144,371.1l-0.9,0.3 M144.8,370.9l-0.8,0.3 M145.6,370.5l-0.7,0.3 M146.2,370.2l-0.7,0.3 M147.4,368.8
		l-1.2,1.4 M148.5,367.6l-1,1.2 M149.3,366.5l-0.8,1.1 M149.9,365.5l-0.7,1 M150.5,364.6l-0.5,0.9 M150.9,363.8l-0.5,0.8
		 M151.3,363.1l-0.4,0.7 M151.7,362.5l-0.4,0.6 M152.1,361.9l-0.4,0.6 M152.6,361.3l-0.5,0.6 M153.1,360.7l-0.5,0.6 M153.8,360.2
		l-0.7,0.6 M154.6,359.6l-0.8,0.6 M155.7,359l-1,0.6 M156.9,358.3l-1.3,0.7 M158.4,357.6l-1.5,0.7 M160.3,356.8l-1.8,0.8
		 M160.3,356.8l2.8,2.6 M163,359.4l2.5,2.3 M165.5,361.7l2.2,2 M167.7,363.6l2,1.7"/>
	<path class="st7" d="M169.7,365.3l1.7,1.4 M171.5,366.8l1.5,1.2 M173,368l1.3,1.1 M174.3,369.1l1.2,0.9 M175.5,370l1,0.8
		 M176.5,370.8l0.9,0.8 M177.4,371.6l0.8,0.8 M178.1,372.4l0.7,0.8 M178.8,373.2l0.6,0.9 M179.4,374.1l0.5,1 M179.9,375l0.5,1.1
		 M180.4,376.1l0.5,1.3 M179,382.1l-1.6,0.7 M177.5,382.8l-1.4,0.6 M176.1,383.4l-1.3,0.5 M174.8,383.9l-1.2,0.4 M173.7,384.3
		l-1.1,0.3 M172.6,384.7l-1,0.2 M171.5,384.9l-1,0.1 M170.5,385l-1,0 M169.5,385l-1-0.1 M168.5,384.9l-1.1-0.2 M167.4,384.7
		l-1.2-0.3 M166.3,384.4L165,384 M165,384l-1.4-0.5 M163.6,383.5l-1.5-0.7 M162.1,382.8l-1.7-0.8 M160.4,382l-1.9-0.9 M158.5,381.1
		l-2.1-1 M156.4,380.1L154,379 M154,379l-2.6-1.3 M151.4,377.7l-2.9-1.4 M146.9,377l1.6-0.7 M145.4,377.6l1.5-0.6 M144.1,378.2
		l1.4-0.6 M142.8,378.7l1.3-0.5 M141.6,379.2l1.2-0.5 M140.4,379.6l1.1-0.4 M139.4,380l1.1-0.3 M138.4,380.2l1-0.3 M137.5,380.4
		l0.9-0.2 M136.6,380.6l0.8-0.1 M135.9,380.6l0.8,0 M135.1,380.5l0.7,0.1 M134.5,380.4l0.7,0.1 M133.9,380.1l0.6,0.2 M133.3,379.8
		l0.6,0.3 M132.8,379.3l0.5,0.5 M132.3,378.8l0.5,0.6 M131.8,378.1l0.4,0.7 M131.4,377.3l0.4,0.8 M133.6,761.1l-0.1,1.3
		 M133.6,758.4l0,2.8 M182.4,276.2l0.3,1.5 M175.3,229.9l7.2,46.3 M175.3,260.5v-30.6 M175.7,267.6l-0.4-7.1 M176,274l-0.3-6.4
		 M176.3,279.7L176,274 M176.4,285l-0.2-5.2 M176.6,289.7l-0.1-4.8 M176.6,294.1l0-4.4 M176.5,298.2l0-4 M176.4,302l0.1-3.8
		 M176.2,305.6l0.2-3.6 M175.9,309.1l0.3-3.5 M175.5,312.5l0.4-3.5 M175,316l0.5-3.5 M174.5,319.6l0.6-3.6 M173.8,323.4l0.7-3.8
		 M173.1,327.4l0.7-4 M172.2,331.7l0.8-4.3 M167.9,353.7l1.2-6.3 M169.1,349.7l-1.2,4.1 M170.2,346l-1.1,3.7 M171.3,342.5l-1.1,3.4
		 M172.3,339.4l-1,3.1 M173.2,336.5l-0.9,2.9 M177.1,324.3l-0.7,2.2 M177.7,322.1l-0.7,2.2 M178.4,319.9l-0.7,2.2 M179.1,317.6
		l-0.7,2.3 M179.7,315.3l-0.7,2.3 M180.4,312.9l-0.7,2.4 M181.1,310.3l-0.7,2.6 M181.8,307.6l-0.7,2.7 M182.5,304.6l-0.7,3
		 M183.2,301.4l-0.7,3.2 M184,297.9l-0.8,3.5 M183.8,292.8l0.2,5.1 M183.6,288.5l0.2,4.3 M183.4,284.9l0.2,3.6 M183.2,282l0.2,3
		 M182.9,279.6l0.2,2.4 M182.7,277.7l0.2,1.9 M134.3,31.5l-1-1.7 M133.4,29.8l-1-1.5 M132.4,28.3l-1-1.3 M131.3,26.9l-1-1.2
		 M130.3,25.8l-1-1 M129.3,24.8l-1-0.9 M128.3,23.9l-1-0.8 M127.2,23.1l-1-0.6 M126.2,22.5l-1-0.6 M125.3,21.9l-0.9-0.5 M124.3,21.5
		l-0.9-0.4 M123.4,21l-0.9-0.4 M122.6,20.6l-0.8-0.4 M121.7,20.2l-0.8-0.1 M121,20.2l-0.7-0.1 M120.3,20.1l-0.7-0.1 M119.6,20
		l-0.6,0 M119,20l-0.5,0 M118.5,20l-0.5,0 M118,20l-0.5,0 M117.5,20l-0.4,0.1 M117.1,20.1l-0.4,0.1 M116.7,20.2l-0.4,0.2
		 M116.3,20.4l-0.4,0.2 M115.9,20.6l-0.4,0.2 M115.5,20.8l-0.4,0.3 M115.2,21.1l-0.4,0.4 M114.8,21.5l-0.4,0.4 M114.4,21.9l-0.4,0.5
		 M114,22.4l-0.4,0.5 M113.6,22.9l-0.5,0.6 M113.1,23.5l-0.5,0.7 M112.6,24.2l-0.5,0.8 M112,24.9l-1.4-0.7 M144.4,59.2l0.2-0.8
		 M144.3,60.1l0.1-0.9 M144.2,61.1l0.1-1 M144,62.3l0.1-1.1 M143.9,63.5l0.1-1.3 M143.9,63.5l-0.3-0.4 M143.6,63.2l-0.3-0.3
		 M143.4,62.9l-0.2-0.2 M143.1,62.6l-0.2-0.2 M142.9,62.4l-0.2-0.2 M142.7,62.3l-0.2-0.2 M142.5,62.1l-0.2-0.2 M142.3,61.9l-0.1-0.2
		 M142.2,61.8l-0.1-0.2 M142.1,61.6l-0.1-0.2 M141.9,61.3l-0.1-0.3 M141.8,61l-0.1-0.3 M141.7,60.7l0-0.2 M110.6,24.2l-1.3-0.6
		 M109.3,23.7l-1.1-0.4 M108.2,23.2l-1-0.3 M107.2,22.9l-0.9-0.2 M106.3,22.7l-0.8-0.1 M105.5,22.6l-0.7,0 M104.8,22.6l-0.6,0.1
		 M104.2,22.6l-0.6,0.2 M103.6,22.8l-0.5,0.2 M103.1,23.1l-0.5,0.3 M102.7,23.4l-0.4,0.4 M102.2,23.8l-0.4,0.4 M101.8,24.2l-0.4,0.5
		 M101.4,24.7l-0.4,0.5 M100.9,25.2l-0.5,0.6 M100.5,25.8l-0.5,0.6 M100,26.4L99.4,27 M99.4,27l-0.6,0.6 M98.8,27.6l-0.7,0.6
		 M98.1,28.2l-0.6,0.5 M97.6,28.8l-0.5,0.5 M97.1,29.3l-0.4,0.5 M96.6,29.9l-0.4,0.5 M96.3,30.4L96,31 M96,31l-0.3,0.5 M95.7,31.5
		l-0.2,0.5 M95.5,32.1l-0.2,0.5 M95.3,32.6l-0.2,0.6 M95.1,33.2l-0.1,0.6 M94.9,33.7l-0.1,0.6 M94.8,34.3l-0.1,0.6 M94.7,34.8
		l-0.1,0.6 M94.6,35.4L94.5,36 M94.5,36l-0.1,0.6 M94.4,36.5l-0.1,0.6 M94.2,37.1l-0.1,0.6 M94.1,37.7l-0.2,0.6 M93.9,38.3l-0.2,0.6
		 M93.7,38.9l-0.2,0.6 M93.5,39.5L92.8,40 M92.8,40l-0.6,0.5 M92.2,40.4l-0.6,0.4 M91.6,40.8l-0.5,0.4 M91.1,41.2l-0.5,0.4
		 M90.6,41.6l-0.5,0.4 M90.1,41.9l-0.4,0.4 M89.6,42.3l-0.4,0.4 M89.2,42.7l-0.4,0.4 M88.8,43.1l-0.4,0.5 M88.4,43.5l-0.4,0.5
		 M88.1,44.1l-0.4,0.6 M87.7,44.6l-0.4,0.7 M87.3,45.3l-0.4,0.8"/>
	<path class="st7" d="M86.9,46.1L86.5,47 M86.5,47l-0.4,1 M86.1,48l-0.4,1.2 M85.7,49.2l-0.4,1.3 M85.3,50.5L84.8,52 M84.8,52
		l-0.5,1.7 M84.3,53.7l0,0.2 M84.3,53.8L84,56.5 M83.8,57.7l0-0.6 M95.6,722.3l0.3-0.6 M95.2,722.8l0.4-0.6 M94.7,723.3l0.5-0.5
		 M94.1,723.8l0.7-0.4 M56.8,700l-0.2-4.1 M56.6,695.9l-0.2-3.5 M55.9,684.5l-0.1-2.2 M55.7,682.3l-0.1-2.1 M55.6,680.2l-0.1-2.2
		 M55.5,678.1l-0.1-2.3 M55.5,675.8l-0.1-2.6 M55.4,673.1l0-3 M55.4,670.1l0-3.5 M55.3,666.6l0-4.1 M55.3,662.5l0-4.9 M55.3,637.4
		l-1.1-5.9 M54.2,631.5l-0.9-5.3 M53.3,626.2l-0.8-4.8 M52.5,621.4l-0.7-4.3 M51.8,617.1l-0.6-3.8 M51.2,613.3l-0.5-3.4 M50.8,609.9
		l-0.4-3.1 M50.4,606.8l-0.3-2.8 M50.1,604l-0.2-2.6 M49.9,601.4l-0.1-2.4 M49.8,599l-0.1-2.2 M49.7,596.8l0-2.1 M49.7,594.7
		l0.1-2.1 M49.7,592.6l0.1-2.1 M49.9,590.5l0.1-2.2 M50,588.3l0.2-2.3 M50.2,586.1l0.2-2.4 M50.4,583.6l0.2-2.6 M50.6,581l0.3-2.9
		 M50.9,578.1l0.3-3.2 M51.2,574.9l0.4-6.5 M51.6,568.4l0.2-6 M51.8,562.4l0.1-5.7 M51.9,556.7l-0.1-5.5 M51.8,551.2l-0.3-5.3
		 M51.5,545.9l-0.4-5.3 M51.1,540.7l-0.6-5.3 M50.5,535.4l-0.7-5.4 M49.8,529.9l-0.8-5.7 M48.9,524.2l-0.9-6 M45.8,504.7l-1.2-7.6
		 M44.6,497.1l-1.3-8.4 M43.3,488.8l-1.3-9.2 M42,479.6l-1.4-10.1 M40.6,469.5l-1.4-11.1 M39.1,458.3l-1.5-12.2 M37.7,446.1
		l-1.5-13.5 M36.2,432.6l-1.5-14.8 M92.6,745.4l0.1,0.2 M92.7,745.6l-3.1,2.3 M93.8,727.2l-0.2,1.7 M93.6,728.9l-0.2,1.6
		 M92.9,736.5l-0.1,1.3 M92.8,737.9l-0.1,1.2 M92.6,739.1l-0.1,1.2 M92.6,740.3l-0.1,1.1 M92.5,741.3l-0.1,1 M92.4,742.3l0,0.9
		 M92.4,743.1l0,0.7 M92.4,743.9l0,0.6 M92.4,744.5l0.1,0.5 M92.5,745l0.1,0.4 M43.1,347.7l-0.3-7.2 M26.2,370.2l-2.8-8.4
		 M20.9,229.6l0.6-2.6 M21.5,227l0.5-2.5 M22.1,224.5l0.5-2.5 M26.1,186.7l-0.5,5.1 M26.6,182.3l-0.5,4.4 M27.1,178.5l-0.5,3.8
		 M45.1,271.9l0.6-1.7 M46.2,268.7l0.5-1.3 M43,278.6l0.8-2.6 M41.2,283.3l0.9-1.8 M43.7,276l0.7-2.2 M39.2,290.4l0.3-1.9
		 M42.8,140.1l0.4-0.7 M43.2,139.4l0.4-0.6 M49.3,134.4L49.3,134.4 M53.3,133.1l-4,1.3 M56.9,131.9l-3.6,1.2 M39.1,296.9l-0.1-2.4
		 M49,260.2l0.2-1.2 M49.2,259.1l0.2-1.3 M19.6,235l0.7-2.8 M20.3,232.2l0.6-2.7 M30.5,164.9l-0.8,2.3 M31.4,162.7l-0.9,2.2
		 M32.5,160.4l-1.1,2.3 M33.7,158l-1.2,2.4 M27.7,175.2l-0.6,3.3 M28.3,172.2l-0.6,2.9 M28.9,169.6l-0.7,2.6 M29.7,167.2l-0.7,2.4
		 M39.5,302.5l-0.3-2.9 M13.7,322.5l-0.4-3.7 M45.6,270.2l0.5-1.5 M47.9,135l0.3-0.2 M48.3,134.8l0.3-0.1 M48.5,134.6l0.3-0.1
		 M48.8,134.5l0.2-0.1 M49,134.5l0.2-0.1 M49.2,134.4L49.2,134.4 M43.6,138.8l0.4-0.6 M44.1,138.2l0.4-0.5 M44.5,137.7l0.5-0.5
		 M45,137.2l0.5-0.4 M45.4,136.8l0.5-0.4 M45.9,136.4l0.4-0.4 M48.5,262.2l0.3-1 M47.5,265.1l0.4-1 M39.9,305.7l-0.3-3.2
		 M42.1,281.5l0.8-2.9 M22.5,222l0.4-2.5 M22.9,219.5l0.4-2.5 M23.3,217.1l0.3-2.5 M23.6,214.5l0.2-2.6 M48.2,263.2l0.3-0.9
		 M47.9,264.1l0.3-0.9 M44.4,273.8l0.6-2 M39.9,286.7l0.6-1.7 M39,292.4l0.1-2 M39,294.6l0-2.2 M41.5,322.6l-0.4-4.9 M42,328
		l-0.4-5.4 M42.4,333.9l-0.4-6 M42.8,340.5l-0.4-6.6 M113.8,55.1l-0.5-0.1 M23.4,361.7l-2.4-7.6 M21,354.2l-2-6.8 M19,347.4
		l-1.6-6.1 M17.4,341.3l-1.3-5.5 M16.1,335.8l-1-4.9 M15.1,330.9l-0.8-4.4 M14.3,326.5l-0.6-4 M35.1,155.4l-1.4,2.6 M36.6,152.5
		l-1.5,2.9 M38.4,149.1l-1.7,3.3 M40.3,145.3l-1.9,3.8 M42.4,140.9l-2.1,4.4 M42.4,140.9l0.4-0.7 M112.9,55l-0.5,0 M46.3,136
		l0.4-0.3 M46.8,135.7l0.4-0.3 M47.2,135.4l0.4-0.2 M47.6,135.2l0.4-0.2 M65.4,128.9l-2.5,0.9 M113.6,56.2l0.4,0.1 M67.7,128
		l-2.3,0.9 M69.7,127.1l-2.1,0.9 M71.6,126.2l-1.9,0.9 M73.4,125.3l-1.7,0.9 M75,124.3l-1.6,1 M111.5,55.2l-0.4,0.1 M112.9,56.1
		l0.4,0 M114.2,55.2l-0.5-0.1 M115.1,55.5l-0.4-0.2 M114.7,55.4l-0.4-0.1 M114.6,56.7l0.3,0.2 M157.8,118.9l-2-1.1 M159.9,119.9
		l-2-1 M161.9,120.7l-2-0.9 M163.9,121.5l-2.1-0.8 M166,122.3l-2.1-0.7 M168.1,123l-2.1-0.7 M170.1,123.6l-2.1-0.6 M172.2,124.2
		l-2.1-0.6 M174.2,124.8l-2-0.6 M176.3,125.4l-2-0.6 M178.3,126.1l-2-0.6 M180.2,126.7l-2-0.7 M182.1,127.5l-1.9-0.7 M184,128.2
		l-1.9-0.8 M185.8,129.1l-1.8-0.9 M187.6,130.1l-1.8-1 M189.2,131.1l-1.7-1.1 M190.9,132.3l-1.6-1.2 M192.4,133.6l-1.5-1.3
		 M193.8,135.1l-1.4-1.5 M195.8,141.1l-2-6.1 M197.7,146.7l-1.8-5.5 M199.3,151.8l-1.6-5.1 M200.8,156.5l-1.5-4.8 M202.1,161
		l-1.3-4.5 M203.3,165.4l-1.2-4.4 M204.5,169.7l-1.1-4.3"/>
	<path class="st7" d="M205.6,174.1l-1.1-4.3 M206.6,178.5l-1-4.5 M207.6,183.2l-1-4.7 M208.7,188.3l-1.1-5 M209.8,193.7l-1.1-5.5
		 M210.9,199.7l-1.2-6 M212.2,206.3l-1.2-6.6 M223,263.9l-2.3-12.2 M222.3,272.1l0.7-8.2 M221.7,279.3l0.7-7.1 M221,285.5l0.7-6.2
		 M220.3,291l0.7-5.5 M219.6,295.8l0.7-4.8 M218.7,300.1l0.8-4.3 M217.8,304l0.9-3.9 M216.7,307.8l1.1-3.7 M215.5,311.4l1.2-3.6
		 M214,315.1l1.4-3.7 M212.3,318.9l1.7-3.9 M210.4,323.1l1.9-4.2 M208.3,327.8l2.2-4.7 M205.8,333.1l2.5-5.3 M203,339l2.8-6
		 M199.8,345.9l3.2-6.9 M196.3,353.8l3.5-7.9 M192.3,362.8l4-9 M187.9,373.2l4.4-10.3 M183.1,384.9l4.9-11.8 M115,56.7l0,0.1
		 M114.3,56.5l0.3,0.2 M114,56.3l0.3,0.1 M113.2,56.2l0.4,0.1 M112.5,56.2l0.4,0 M112.1,56.2l0.4-0.1 M111.8,56.3l0.4-0.1
		 M111.4,56.5l0.3-0.1 M111.1,56.7l0.3-0.2 M110.7,56.7l-0.1-0.3 M110.7,56.4l-0.1-0.3 M110.5,56.2l-0.2-0.2 M110.4,56l-0.2-0.2
		 M110.6,55.5l-0.4,0.2 M111,55.3l-0.4,0.2 M111.9,55.1l-0.5,0.1 M112.4,55l-0.5,0.1 M113.3,55l-0.5,0 M115.5,55.8l-0.4-0.2
		 M115.5,55.8l-0.2,0.2 M115.2,56.2l-0.1,0.3 M115.1,56.5l-0.1,0.3 M88.2,762l0.1,0.9 M88.3,762.9l0.1,0.8 M88.3,763.7l0.1,0.8
		 M88.4,764.5l0.1,0.7 M88.5,765.2l0,0.7 M88.6,765.9l0,0.7 M88.6,766.7l-0.1,0.7 M88.5,767.4l-0.2,0.8 M88.3,768.2L88,769 M88,769
		l-0.4,0.8 M87.6,769.8l-0.6,0.9 M87.1,770.7l-0.7,1 M86.3,771.7l-0.9,1.1 M85.4,772.8l-1.1,1.2 M84.3,773.9l-1.4,1.3 M82.9,775.2
		l-1.6,1.4 M81.3,776.6l-1.9,1.5 M79.4,778.1l-2.2,1.7 M77.2,779.7l-1.4,0.4 M75.8,780.1l-1.4,0.3 M74.4,780.4l-1.3,0.2 M73.1,780.6
		l-1.3,0.2 M71.8,780.8l-1.2,0.1 M70.6,780.9l-1.2,0.1 M69.4,781l-1.1,0 M68.3,781l-1.1,0 M67.2,780.9l-1-0.1 M66.2,780.8l-1-0.1
		 M65.3,780.7l-0.9-0.2 M64.4,780.6l-0.8-0.2 M63.5,780.4l-0.8-0.2 M62.7,780.1l-0.7-0.3 M62,779.9l-0.7-0.3 M61.3,779.6l-0.6-0.3
		 M60.7,779.3l-0.6-0.3 M60.1,779l-0.5-0.3 M59.6,778.6l-0.4-0.4 M59.2,778.2l-0.4-0.4 M58.8,777.9l-0.9-2.2 M57.9,775.7l-0.9-1.9
		 M57,773.8l-0.8-1.7 M56.2,772.1l-0.7-1.5 M55.5,770.5l-0.7-1.3 M54.8,769.2l-0.6-1.2 M54.2,768l-0.5-1.1 M53.7,766.9l-0.5-1
		 M53.2,766l-0.4-0.9 M52.8,765.1l-0.3-0.8 M52.5,764.3l-0.3-0.8 M52.2,763.5l-0.2-0.8 M52,762.7l-0.1-0.8 M51.8,761.9l-0.1-0.8
		 M51.8,761l0-0.9 M51.7,760.1l0.1-1 M51.8,759.2l0.1-1.1 M69.8,363.8l0.4,0 M70.2,363.9l0.3,0.1 M70.5,363.9l0.3,0.1 M70.8,364
		l0.2,0.1 M71,364.1l0.2,0.1 M71.2,364.2l0.2,0.1 M71.4,364.3l0.2,0.1 M71.6,364.5l0.1,0.1 M71.7,364.6l0.1,0.2 M71.8,364.8l0.1,0.2
		 M71.9,364.9l0.1,0.2 M72,365.1l0.1,0.2 M72,365.3l0,0.2 M72.1,365.6l0,0.2 M72.1,365.8l0,0.2 M72.1,366l0,0.3 M72.1,366.3l0,0.3
		 M72.1,366.6l0,0.3 M72.1,366.8l0,0.3 M72,367.1l0,0.3 M71.8,367.9l0.2-0.5 M71.5,368.5l0.3-0.5 M71.2,369l0.3-0.5 M70.9,369.5
		l0.3-0.5 M70.5,370l0.4-0.5 M70.1,370.5l0.4-0.5 M69.6,370.9l0.5-0.4 M69.1,371.3l0.6-0.4 M68.4,371.6l0.6-0.3 M67.7,371.9l0.7-0.3
		 M66.9,372.1l0.8-0.2 M66,372.2l0.9-0.1 M65.1,372.3l1,0 M64,372.2l1.1,0.1 M62.8,372l1.2,0.2 M61.4,371.7l1.3,0.3 M60,371.3
		l1.4,0.4 M58.4,370.7l1.6,0.6 M56.7,370l1.7,0.7 M54.8,369.1l1.9,0.9 M53.8,370.6l1-1.4 M52.7,371.8l1.1-1.3 M51.6,373l1.1-1.1
		 M50.4,373.9l1.2-1 M49.2,374.7l1.2-0.8 M48,375.4l1.3-0.7 M46.7,375.9l1.3-0.5 M45.4,376.3l1.3-0.4 M44,376.5l1.3-0.2 M42.7,376.5
		l1.4-0.1 M41.3,376.4l1.4,0.1 M39.9,376.2l1.4,0.3 M38.5,375.7l1.4,0.4 M37.1,375.2l1.4,0.6 M35.7,374.5l1.4,0.7 M34.3,373.6
		l1.4,0.9 M33,372.5l1.4,1 M31.6,371.4l1.3,1.2 M30.3,370l1.3,1.3 M29,368.5l1.3,1.5 M29,368.5l-0.1-0.4 M28.8,368.1l-0.2-0.4
		 M28.6,367.7l-0.2-0.4 M28.4,367.3l-0.3-0.5 M28.1,366.9l-0.3-0.5 M27.8,366.4l-0.3-0.5 M27.5,365.9l-0.4-0.5 M26.4,364.2l-0.1-2.6
		 M26.2,361.6l-0.2-2.4 M26,359.3l-0.3-2.1 M25.2,353.6l-0.2-1.5 M25,352.1l-0.1-1.3 M25,350.9l0.1-1.1 M25.1,349.8l0.3-0.9
		 M25.3,348.9l0.5-0.7 M25.8,348.2l0.8-0.6 M26.6,347.6l1.1-0.4 M27.7,347.2l1.4-0.2 M29.2,347l1.8-0.1 M31,346.9l2.3,0 M33.3,346.9
		l2.7,0.1 M36,347.1l3.3,0.3 M39.3,347.3l3.8,0.4 M43.1,347.7l2.6,2 M45.7,349.7l2.3,1.8 M48,351.5l2.1,1.6 M53.5,355.7l1.4,1.1
		 M54.9,356.8l1.3,1 M56.2,357.7l1.1,0.8 M57.3,358.6l1,0.7 M58.3,359.3l0.9,0.6 M59.3,359.9l0.9,0.5 M60.1,360.4l0.8,0.5 M61,360.9
		l0.8,0.4 M61.8,361.3l0.9,0.4"/>
	<path class="st7" d="M62.7,361.7l0.9,0.3 M63.6,362l1,0.3 M64.6,362.4l1.1,0.3 M65.7,362.7l1.2,0.3 M66.9,363l1.4,0.4 M68.3,363.4
		l1.5,0.4 M117.7,64l0.1,0.2 M78,57.2L78,57.2 M77.9,57.2L77.9,57.2 M77.8,57.2L77.8,57.2 M77.8,57.3L77.8,57.3 M141.7,60.5l2.5,0.6
		 M78.2,57.2l0.8,0.2 M78.2,57.2l-0.1,0 M78.1,57.2L78.1,57.2 M45,321.7l-0.8,3.8 M13.8,262.5l-0.5,3 M18,241l0.8-3.1 M18.8,237.9
		l0.8-2.9 M40.4,285l0.8-1.7 M48.8,261.3l0.2-1.1 M82.2,126.7l-0.8,0 M41.1,317.7l-0.4-4.4 M163.5,747.1l-0.5-1.5 M164,748.7
		l-0.5-1.6 M164.6,750.5l-0.5-1.8 M165.2,752.5l-0.6-2 M165.8,754.7l-0.6-2.2 M166.4,757.1l-0.6-2.5 M167.1,759.9l-0.7-2.7
		 M167.8,762.9l-0.7-3.1 M168.5,766.3l-0.7-3.4 M161.9,741.9l-0.3-1.1 M77.1,127.2l-0.4,0 M75.6,126.9l-0.2-0.2 M75.4,126.7
		l-0.2-0.3 M161.3,738.4l-0.1-1.2 M162.3,743l-0.3-1.2 M162.7,744.3l-0.4-1.2 M163.1,745.6l-0.4-1.3 M161.4,739.6l-0.2-1.1
		 M161.7,740.7l-0.2-1.1 M161,734.7l0-1.5 M161.1,736l0-1.3 M161.1,737.3l-0.1-1.3 M127.9,727.7l0.8,2.4 M161.1,733.2l0.1-1.6
		 M133.6,755.9l0,2.5 M133.6,753.6l0,2.2 M136.6,732l-3.1-1.5 M139.3,733.2l-2.7-1.3 M141.6,734.3l-2.3-1.1 M143.6,735.2l-2-0.8
		 M145.3,735.8l-1.7-0.6 M146.8,736.3l-1.5-0.5 M148.1,736.5l-1.3-0.3 M149.2,736.6l-1.2-0.1 M150.3,736.6l-1.1,0.1 M151.3,736.4
		l-1,0.2 M152.4,736l-1,0.3 M153.4,735.6l-1.1,0.5 M154.6,735l-1.2,0.6 M159.2,732.6l-1.7,0.9 M161.2,731.6l-2,1 M29.1,368.8
		l-0.1-0.3 M29.1,369.1l0-0.3 M29.1,369.4l0-0.3 M29,369.6l0.1-0.2 M28.9,369.8l0.2-0.2 M28.6,370l0.2-0.2 M28.3,370.1l0.3-0.1
		 M27.9,370.2l0.4-0.1 M27.5,370.2l0.5,0 M26.9,370.2l0.6,0 M26.2,370.2l0.7,0 M26.2,370.2l0.2-3.1 M26.4,367.1l0-2.8 M112.9,122.9
		l-1.2-0.1 M111.7,122.8l-1.4-0.1 M110.3,122.7l-1.6-0.1 M108.7,122.6l-1.6-0.4 M107,122.2l-1.7-0.7 M105.4,121.5l-1.8-1
		 M103.6,120.4l-1.9-1.4 M101.7,119l-2-1.8 M99.7,117.3l-2.2-2.1 M97.5,115.1l-2.4-2.5 M95.2,112.6l-2.6-3 M92.5,109.6l-0.1-1.6
		 M92.4,108l-0.1-1.5 M92.3,106.5l-0.1-1.3 M92.2,105.2l-0.1-1.2 M92.2,104l-0.1-1.1 M92.1,102.9l-0.1-1 M92.1,101.9l0-0.9 M92,101
		l0-0.8 M92,100.2l0-0.7 M91.9,99.6l0-0.6 M91.9,99l0-0.5 M91.9,98.5l0-0.4 M91.9,98.1l0-0.3 M91.9,97.7l0-0.3 M91.9,97.4l0-0.2
		 M91.9,97.2l0-0.2 M91.9,97l0-0.1 M91.9,96.9L91.9,96.9 M91.9,96.8L91.9,96.8 M91.9,96.8L91.9,96.8 M93.4,98.5l-0.8-0.9 M94.2,99.4
		l-0.9-0.9 M95.2,100.3l-0.9-0.9 M96.2,101.3l-1.1-1 M97.4,102.4l-1.2-1.1 M101.7,106.6l-1.6-1.5 M103.5,108.3l-1.8-1.7
		 M105.1,109.1l-0.6-0.3 M105.8,109.4l-0.6-0.3 M106.4,109.7l-0.7-0.3 M107.1,110l-0.7-0.3 M107.9,110.2l-0.8-0.2 M108.7,110.4
		l-0.8-0.2 M109.6,110.6l-0.9-0.2 M110.5,110.8l-0.9-0.1 M111.5,110.9l-1-0.1 M112.6,110.9l-1.1,0 M113.7,110.9l-1.1,0 M114.9,110.8
		l-1.2,0.1 M116.2,110.6l-1.3,0.2 M117.5,110.3l-1.4,0.3 M118.9,109.9l-1.4,0.4 M120.5,109.5l-1.5,0.5 M122.1,108.9l-1.6,0.6
		 M124.4,106.7l-2.4,2.2 M126.6,104.7l-2.2,2 M128.6,103l-2,1.8 M133.4,98.6l-1.5,1.3 M134.7,97.4l-1.3,1.2 M135.9,96.3l-1.2,1.1
		 M136.9,95.3l-1,1 M134.7,112l1.6-1.5 M133.3,113.3l1.5-1.3 M131.9,114.5l1.4-1.2 M130.6,115.5l1.3-1 M129.5,116.4l1.2-0.9
		 M128.4,117.2l1.1-0.8 M127.3,117.9l1-0.7 M126.3,118.5l1-0.6 M125.3,119l1-0.5 M124.4,119.4l1-0.4 M124.4,119.4l-0.8,0.4
		 M123.6,119.8l-0.7,0.3 M122.9,120.1l-0.6,0.3 M122.3,120.5l-0.5,0.3 M121.8,120.8l-0.5,0.3 M121.3,121.1l-0.5,0.3 M120.8,121.4
		l-0.5,0.3 M120.4,121.7l-0.4,0.3 M119.9,121.9l-0.5,0.2 M119.5,122.2l-0.5,0.2 M119,122.4l-0.5,0.2 M118.5,122.5l-0.6,0.2
		 M117.9,122.7l-0.6,0.1 M117.3,122.8l-0.7,0.1 M116.6,122.9l-0.8,0.1 M115.9,123l-0.9,0 M115,123l-1,0 M114,123l-1.1,0 M54.6,255
		l0,0.3 M165,354.9l-2.5,1 M167.9,353.7l-2.9,1.1 M162.4,355.9l-2.2,0.9 M99.3,614.2l0.1,4.5 M99.5,618.8l0,5.2 M99.5,624l-0.1,6.1
		 M99.3,630.1l-0.3,7.1 M99,637.1l-0.5,8.2 M98.5,645.3l-0.7,9.5 M98.4,660.6l0.2,2.5 M98.7,663.1l0.2,2.3 M98.9,665.4l0.2,2.1
		 M99.1,667.5l0.1,2 M99.2,669.6l0.1,2 M99.3,671.6l0,2 M99.3,673.6l0,2.1 M96.9,571l-0.1,6 M96.8,577l0,5.2 M96.8,582.2l0.1,4.5
		 M96.9,586.7l0.2,3.9 M97.2,590.6l0.3,3.5 M97.4,594.1l0.3,3.2 M98.5,603.5l0.3,3.2 M98.8,606.8l0.3,3.5 M99.1,610.3l0.2,4
		 M56.2,354.1l3.8,1.9 M60.1,355.9l3.7,1.8 M57.4,710.6l-0.3-5.7 M57.1,704.9l-0.3-4.9 M63.8,357.7l3.6,1.6 M67.3,359.3l3.6,1.5
		 M70.9,360.8l3.6,1.4"/>
	<path class="st7" d="M97.8,524l0.2,10.4 M98,534.5l0.4,12.1 M98.4,546.5l-0.7,9.4 M124.1,588.6l-0.2-3.3 M123.9,585.4l-0.2-3.1
		 M113.5,494.7l-0.7-3.8 M112.9,490.9l-0.6-3.5 M112.2,487.3l-0.6-3.4 M111.7,483.9l-0.5-3.3 M111.1,480.6l-0.5-3.3 M110.7,477.3
		l-0.5-3.5 M110.2,473.8l-0.5-3.7 M109.7,470.2l-0.5-3.9 M109.3,466.2l-0.5-4.3 M108.8,461.9l-0.5-4.8 M108.3,457.1l-0.5-5.3
		 M107.8,451.8l-0.6-6 M107.2,445.8l-0.6-6.7 M106.6,439l-0.7-7.5 M105.9,431.5l-0.7,8.6 M105.2,440.1l-0.7,7.3 M104.4,447.4
		l-0.7,6.2 M103.7,453.7L103,459 M103,459l-0.7,4.5 M102.3,463.5l-0.7,3.9 M101.6,467.3l-0.6,3.4 M97.7,500.9l-0.1,6.5 M100.9,470.8
		l-0.6,3.1 M100.3,473.9l-0.6,3 M99.8,476.9l-0.5,3 M99.3,479.9l-0.5,3.2 M98.8,483.1l-0.4,3.5 M98.4,486.6l-0.3,4 M97.7,555.9
		l-0.5,8.1 M97.2,564l-0.3,7 M98.1,490.7l-0.2,4.7 M97.9,495.4l-0.2,5.5 M97.6,507.4l0,7.7 M97.7,515.1l0.1,9 M121.2,530.6l-0.7-1.6
		 M120.5,529l-0.9-1.5 M119.6,527.6l-1.3-7.1 M170.8,616.2l-0.7,7.9 M170.1,624.1l-0.7,7.1 M60.6,720.8l-1.5-1.6 M59.1,719.2l-1.4-2
		 M57.7,717.2l-0.3-6.7 M99.3,675.7l0,2.2 M99.3,677.9l-0.1,2.4 M99.2,680.2l-0.1,2.6 M99.1,682.8l-0.2,2.9 M98.9,685.7l-0.2,3.2
		 M98.7,688.9l-0.3,3.6 M98.4,692.6l-0.3,4.1 M96.3,719.4l0.1-0.9 M96.2,720.2l0.1-0.8 M96.1,721l0.1-0.7 M95.9,721.7l0.2-0.7
		 M118.3,520.4l-1.2-6.4 M114.3,498.8l-0.8-4.1 M123.8,572l-0.7-2.8 M123,569.2l-0.5-2.8 M122.5,566.4l-0.4-2.7 M122.1,563.7
		l-0.2-2.7 M121.9,561l-0.1-2.6 M121.8,558.4l0-2.6 M121.8,555.8l0.1-2.5 M122.4,535.8l-0.2-1.8 M121.8,553.3l0.1-2.4 M122,550.9
		l0.1-2.4 M122.1,548.5l0.2-2.3 M122.2,546.2l0.1-2.2 M122.4,544l0.1-2.2 M122.5,541.8l0.1-2.1 M122.5,539.7l0-2 M122.5,537.7
		l-0.1-1.9 M122.2,534l-0.4-1.7 M121.8,532.2l-0.5-1.7 M123.8,582.3l-0.1-2.9 M123.7,579.5l0-2.7 M123.6,576.8l0-2.5 M123.6,574.3
		l0.1-2.3 M122.5,706l0.3,2.3 M122.3,703.7l0.2,2.2 M122.2,701.5l0.1,2.3 M122.2,699.2l0.1,2.3 M122.2,696.7l0,2.5 M122.2,694
		l-0.1,2.7 M122.3,691.1l-0.1,2.9 M122.5,687.8l-0.2,3.3 M122.8,684.1l-0.2,3.7 M123.1,680l-0.3,4.1 M124.9,657.5l0.5-6.5
		 M123.4,675.3l-0.4,4.7 M125.3,651l0.3-6.2 M125.2,603.8l-0.3-4.1 M125.6,644.8l0.2-6 M125.9,638.8l0.1-5.7 M126,633.1l0-5.5
		 M126,627.6l-0.1-5.2 M123.1,710.7l0.4,2.6 M122.8,708.3l0.3,2.4 M125.9,622.4l-0.1-5 M125.8,617.4l-0.2-4.8 M125.6,612.6l-0.2-4.5
		 M125.4,608.1l-0.2-4.3 M124.9,599.7l-0.3-3.9 M124,716.1l0.5,3.1 M123.5,713.3l0.5,2.8 M169.4,631.2l-0.6,6.4 M167.2,653.6
		l-0.4,4.4 M166.8,658l-0.4,4.1 M166.5,662.1l-0.3,3.9 M166.9,697.9l0.5,5.3 M166.2,665.9l-0.2,3.7 M166,669.6l-0.1,3.6
		 M165.8,673.3l-0.1,3.6 M165.8,676.9l0,3.7 M165.8,680.6l0.1,3.9 M165.9,684.5l0.2,4.1 M166.1,688.6l0.3,4.4 M166.5,693.1l0.4,4.8
		 M167.5,703.2l0.7,5.9 M168.1,709l-0.1,1.2 M168,710.3l-0.2,1.2 M167.9,711.4l-0.2,1.1 M167.7,712.5l-0.2,1 M167.5,713.6l-0.2,1
		 M167.2,714.6l-0.2,1 M167,715.5l-0.3,0.9 M166.7,716.4l-0.3,0.9 M166.4,717.4l-0.3,0.9 M164,726.5l-0.2,1.3 M166.2,718.3l-0.3,0.9
		 M165.9,719.2l-0.3,0.9 M165.6,720.1l-0.3,0.9 M165.3,721.1l-0.3,1 M165,722.1l-0.3,1 M164.7,723.1l-0.3,1.1 M164.5,724.1l-0.2,1.1
		 M164.2,725.3l-0.2,1.2 M163.8,727.7l-0.2,1.4 M163.7,729.1l-0.1,1.5 M163.5,730.5l-2.3,1 M127.9,727.7l-2-1 M34.7,417.9l-0.9-3.4
		 M33.8,414.5l-0.7-3.1 M33.1,411.3l-0.6-2.9 M32.5,408.5l-0.5-2.6 M32.1,405.8l-0.4-2.4 M31.7,403.4l-0.3-2.3 M31.4,401.1l-0.2-2.1
		 M31.3,399l-0.1-2 M31.2,396.9l-0.1-2 M31.1,395l0-1.9 M31.1,393.1l0-1.9 M31.2,387.4l0-2 M31.2,385.3l0-2.1 M31.2,383.2l0-2.3
		 M31.1,381l-0.1-2.4 M31,378.6l-0.2-2.6 M30.9,375.9l-0.2-2.8 M30.6,373.1l-0.3-3.1 M43.1,347.7l4.7,2.2 M47.8,349.9l4.4,2.1
		 M52.2,352.1l4.1,2 M74.5,362.2l3.7,1.3 M78.2,363.5l3.9,1.2 M82.1,364.7l4.2,1.1 M86.3,365.7l4.5,0.9 M90.7,366.7l4.9,0.8
		 M95.6,367.5l5.3,0.7 M100.9,368.2l5.8,0.6 M106.8,368.8l6.4,0.5 M113.2,369.3l7.1,0.4 M120.3,369.7l7.8,0.3 M128.1,370l8.6,0.2
		 M136.7,370.1l9.5,0.1 M179.3,382.3l-0.7,15.5 M178.7,397.8l-0.6,13.7 M178.1,411.5l-0.6,12.1 M177.5,423.6l-0.6,10.7 M176.9,434.3
		l-0.5,9.3 M176.4,443.6l-0.5,8.2 M174.7,470.8l-0.3,5 M174.4,475.9l-0.2,4.6 M174.2,480.5l-0.2,4.4 M174,484.8l-0.1,4.2
		 M173.9,489.1l0,4.3 M173.9,493.3l0,4.5 M173.9,497.8l0.1,4.8 M174,502.6l0.2,5.3 M174.2,507.9l0.3,5.9 M174.5,513.8l0.3,6.7
		 M174.8,520.4l0.4,7.6 M173.7,547.3l-0.4,5.4 M173.3,552.7l-0.4,4.9 M173,557.6l-0.3,4.5 M172.6,562l-0.3,4.1 M172.3,566.1
		l-0.2,3.8"/>
	<path class="st7" d="M172.1,569.9l-0.2,3.5 M171.9,573.5l-0.2,3.3 M171.7,576.7l-0.1,3.1 M171.6,579.9l-0.1,3 M171.5,582.8
		l-0.1,2.9 M171.4,585.7l-0.1,2.8 M171.3,588.6l0,2.9 M171.3,591.4l0,2.9 M171.3,594.3l0,3 M171.3,597.3l0,3.1 M171.4,600.5l0.1,3.3
		 M171.4,603.8l0.1,3.6 M171.5,607.4l-0.7,8.8 M46.3,314.8l-0.6,3.3 M46.8,311.6l-0.5,3.2 M47.3,308.5l-0.5,3.1 M48.2,302.5l-0.4,3
		 M47.8,305.5l-0.5,3 M48.6,299.5l-0.4,3 M49,296.4l-0.4,3.1 M45.7,318.1l-0.7,3.5 M43.4,329.5l-1,4.4 M44.2,325.5l-0.9,4.1
		 M50.9,282.6l-0.5,3.8 M52.1,274.2l-0.6,4.4 M54.6,229.9l-4.8,24.7 M50.4,286.4l-0.5,3.5 M51.4,278.6l-0.6,4 M52.8,269.5l-0.7,4.7
		 M54.1,261.5l-0.5,2.8 M54.7,255.4l-0.6,6.1 M77.7,57.3L77.7,57.3 M77.6,57.4l-0.1,0.1 M77.5,57.5l-0.1,0.1 M77.2,57.8L77,61.2
		 M77,61.2l-0.1,3.1 M76.9,64.4l0,2.8 M77.1,69.8l0.3,2.3 M77.4,72.1l0.3,2.1 M77.7,74.1l0.4,1.8 M78.1,76l0.5,1.6 M78.6,77.6
		l0.5,1.4 M79.2,79l0.6,1.2 M80.4,81.2l0.6,0.9 M81,82.1l0.6,0.7 M81.7,82.8l0.6,0.6 M82.3,83.4l0.6,0.5 M82.9,83.9l0.6,0.4
		 M83.5,84.2l0.6,0.3 M84.1,84.5l0.5,0.2 M84.7,84.7l0.5,0.1 M86.3,86.6l-0.8-1.8 M87,88.2l-0.7-1.6 M87.7,89.7L87,88.2 M88.3,91
		l-0.6-1.3 M88.9,92.1L88.3,91 M89.4,93.2l-0.6-1.1 M90,94.2l-0.6-1 M90.6,95.1L90,94.2 M91.2,95.9l-0.6-0.9 M91.9,96.8l-0.7-0.8
		 M92.5,109.6l-0.5,1.5 M92,111.1l-0.4,1.3 M91.5,112.4l-0.4,1.2 M91.2,113.6l-0.3,1.1 M90.9,114.7l-0.3,1 M90.6,115.8l-0.2,0.9
		 M90.4,116.7l-0.2,0.9 M90.2,117.5l-0.2,0.8 M90,118.3l-0.2,0.7 M89.8,119.1l-0.2,0.7 M89.6,119.8l-0.2,0.7 M89.4,120.4l-0.3,0.6
		 M89.2,121.1l-0.3,0.6 M88.8,121.7l-0.4,0.6 M88.4,122.4L88,123 M88,123l-0.6,0.7 M87.4,123.7l-0.7,0.7 M86.7,124.4l-0.8,0.7
		 M85.9,125.1l-0.9,0.8 M85,125.9l-1.1,0.9 M13.3,265.5l-0.5,2.7 M10.5,284l0,1.8 M11.1,278.8l-0.2,1.8 M10.8,291.9l0.3,2.4
		 M10.5,285.8l0,1.9 M134.7,57.2l6.7,2.1 M83.8,58.6l0-0.4 M83.8,58.6l-3.5,0.9 M141.4,59.3l2.9,0.9 M141.4,59.3L141.4,59.3
		 M11.7,275l-0.3,1.9 M11.5,296.9l0.5,2.9 M11.1,294.2l0.4,2.6 M10.6,289.7l0.2,2.2 M10.5,287.7l0.1,2 M10.7,282.2l-0.1,1.7
		 M10.8,280.5l-0.2,1.7 M15.3,251.4l-0.5,4.1 M131.2,63.9l-0.2,0.2 M131.6,63.4l0.2-0.3 M129.5,65l-0.3,0 M130.8,64.4l-0.2,0.1
		 M127.8,65.1l0.4,0 M128.9,65.1l-0.3,0 M131.1,64.1l-0.1,0.2 M131.4,63.6l0.2-0.3 M130.1,64.9l-0.2,0.1 M134.5,58.8l7.2,1.8
		 M133.5,59.2l-0.8,2.4 M130.3,64.8l-0.2,0.1 M91.1,56.8l-7.3,1.8 M134.5,58.8l0.1-0.2 M134.5,58.5l0.1-0.2 M134.6,58.3l0.1-0.2
		 M134.7,58.1l0-0.3 M134.7,57.8l0-0.3 M134.7,57.5l0-0.3 M91.1,56.8L91,57.2 M91,57.2l0,0.3 M91,57.5l0,0.3 M91,57.8l0,0.3 M91,58
		l0.1,0.2 M91.1,58.3l0.1,0.2 M91.2,58.5l-7.4,1.3 M131.4,63.6l-0.2,0.2 M130.6,64.6l-0.2,0.1 M128.2,65.1l0.4,0 M130.9,64.3
		l-0.1,0.2 M129.2,65.1l-0.3,0 M129.7,65l-0.2,0 M116.9,55.8l-0.2,0.2 M133.2,56.4l0.2,0.2 M116.2,56.4l-0.1,0.1 M110.8,57L110.8,57
		 M114.9,56.9l0,0.1 M114.9,57l0,0.3 M114.9,57.3l0,0.3 M114.9,57.6l0,0.3 M114.9,57.8l0,0.3 M114.9,58.1l0,0.3 M114.9,58.4l0,0.3
		 M115,58.6l0,0.3 M115,58.9l0.1,0.3 M115.1,59.2l0.1,0.5 M118.2,64.9l0.1,0.2 M118.3,65.1l0.1,0.2 M118.5,65.2l0.2,0.2 M118.6,65.4
		l0.2,0.2 M118.8,65.6l0.2,0.1 M119,65.7l0.2,0.1 M119.2,65.8l0.2,0.1 M119.5,65.9l0.2,0.1 M119.7,65.9l0.2,0 M119.9,66l0.2,0
		 M120.2,66l0.2,0 M120.4,66l0.2,0 M120.6,66l0.3,0 M120.9,66l0.3,0 M127.8,66l0.4,0 M128.2,66l0.4,0 M128.6,66l0.4,0 M128.9,66
		l0.3,0 M129.3,66l0.3,0 M129.6,66l0.3,0 M129.9,65.9l0.3-0.1 M130.2,65.9l0.3-0.1 M130.5,65.8l0.3-0.1 M130.8,65.6l0.3-0.2
		 M131,65.5l0.2-0.2 M131.3,65.3l0.2-0.2 M131.5,65.1l0.2-0.2 M131.7,64.9l0.2-0.2 M131.9,64.7l0.2-0.3 M132,64.4l0.2-0.3
		 M132.2,64.1l0.2-0.3 M132.4,63.8l0.2-0.3 M133.5,61.9l0.8-2.5 M134.4,59.4l0.1-0.4 M134.4,59l0.1-0.2 M91.2,58.5l0.1,0.2
		 M91.2,58.7l0.1,0.2 M91.3,59l0.1,0.4 M91.3,59.4l0.8,2.5 M93.1,63.5l0.2,0.3 M93.3,63.8l0.2,0.3 M93.5,64.1l0.2,0.3 M93.7,64.4
		l0.2,0.3 M93.9,64.6l0.2,0.2 M94,64.9l0.2,0.2 M94.2,65.1l0.2,0.2 M94.5,65.3l0.2,0.2 M94.7,65.5l0.3,0.2 M95,65.6l0.3,0.1
		 M95.2,65.7l0.3,0.1 M95.5,65.8l0.3,0.1 M95.8,65.9l0.3,0 M96.1,65.9l0.3,0 M96.4,66l0.3,0 M96.8,66l0.4,0"/>
	<path class="st7" d="M97.1,66l0.4,0 M97.5,66l0.4,0 M104.5,66l0.3,0 M104.8,66l0.3,0 M105.1,66l0.2,0 M105.3,66l0.2,0 M105.6,66
		l0.2,0 M105.8,65.9l0.2,0 M106,65.9l0.2-0.1 M106.2,65.8l0.2-0.1 M106.5,65.8l0.2-0.1 M106.7,65.6l0.2-0.1 M106.9,65.5l0.2-0.2
		 M107.1,65.4l0.2-0.2 M107.2,65.2l0.1-0.2 M107.4,65l0.1-0.2 M107.5,64.8l0.1-0.2 M107.7,64.7l0.1-0.2 M107.8,64.5l0.1-0.2
		 M107.9,64.2l0.1-0.2 M110.6,59.7l0.1-0.5 M110.7,59.2l0.1-0.3 M110.7,58.9l0-0.3 M110.8,58.6l0-0.3 M110.8,58.3l0-0.3 M110.8,58.1
		l0-0.3 M110.9,57.8l0-0.3 M110.9,57.5l0-0.3 M110.8,57.3l0-0.3 M133.4,56.6l0.2,0.2 M108.2,55.4l0.3,0.2 M108.2,55.4l-14.3,0
		 M94.1,63.3L94,63 M132.2,55.8l0.4,0.2 M133.5,58.8l-0.1,0.3 M120.9,65.1l0.3,0 M120.7,65.1l0.2,0 M120.4,65.1l0.2,0 M120.4,65.1
		l-0.2,0 M120.2,65.1l-0.2,0 M120.1,65l-0.2,0 M119.9,65l-0.1,0 M119.8,65l-0.1,0 M119.6,64.9l-0.1-0.1 M119.5,64.9l-0.1-0.1
		 M119.4,64.8l-0.1-0.1 M119.3,64.7l-0.1-0.1 M119.2,64.6l-0.1-0.1 M119.1,64.5l-0.1-0.1 M119,64.3l-0.1-0.2 M118.8,64.2l-0.1-0.2
		 M118.6,63.8l0.1,0.2 M118.5,63.6l0.1,0.2 M115.9,56.9l-0.1,0.2 M116,56.7l-0.1,0.2 M116.1,56.5l-0.1,0.2 M116.4,56.2l-0.1,0.1
		 M116.5,56.1l-0.2,0.1 M116.7,55.9l-0.2,0.1 M117.2,55.6l-0.2,0.2 M117.5,55.5l-0.3,0.2 M117.5,55.5l14.3,0 M131.8,55.5l0.5,0.3
		 M132.6,56l0.3,0.2 M132.9,56.2l0.3,0.2 M133.6,56.8l0.1,0.2 M133.7,57l0.1,0.2 M133.7,57.2l0,0.2 M133.8,57.3l0,0.2 M133.8,57.5
		l0,0.2 M133.8,57.7l0,0.2 M133.7,57.9l0,0.2 M133.7,58.1l-0.1,0.2 M133.6,58.3l-0.1,0.3 M133.6,58.6l-0.1,0.3 M115.7,55.6l-0.2,0.2
		 M115.9,55.4l-0.2,0.2 M116.2,55.2l-0.2,0.2 M116.4,55l-0.3,0.2 M116.7,54.8l-0.3,0.2 M117.2,54.5l-0.5,0.3 M132,54.6l-14.8,0
		 M132.7,55l-0.7-0.4 M133.1,55.2l-0.4-0.3 M133.5,55.5l-0.4-0.3 M133.8,55.7l-0.3-0.2 M134.1,56l-0.3-0.2 M134.3,56.2l-0.2-0.3
		 M134.5,56.5l-0.2-0.3 M134.6,56.9l-0.1-0.3 M134.7,57.2l-0.1-0.3 M110.2,55.7l-0.2-0.2 M110,55.5l-0.2-0.2 M109.8,55.3l-0.2-0.2
		 M109.5,55.2l-0.3-0.2 M109.3,55l-0.3-0.2 M109,54.8l-0.5-0.3 M108.5,54.5l-14.8,0 M93.7,54.5L93,54.9 M93,54.9l-0.4,0.3
		 M92.6,55.2l-0.4,0.3 M92.2,55.4l-0.3,0.2 M91.9,55.7l-0.3,0.2 M91.6,55.9l-0.2,0.3 M91.4,56.2l-0.2,0.3 M91.2,56.5l-0.1,0.3
		 M109.9,58l0,0.2 M95.2,64.7l0.2,0.1 M109.6,56.5l0.1,0.2 M94.6,64.1l0.1,0.2 M106,64.9l0.1,0 M92.2,58.8l0.1,0.3 M109,55.9
		l0.2,0.1 M108.5,55.6l0.2,0.2 M107.1,63.8L107,64 M106.3,64.8l0.1-0.1 M109.9,57.3l0,0.2 M109.9,57.5l0,0.2 M95.8,64.9L96,65
		 M104.8,65l-0.3,0 M105.1,65l-0.2,0 M105.5,65l0.2,0 M105.7,65l0.2,0 M106.1,64.9l0.1-0.1 M106.2,64.8l0.1-0.1 M109.8,56.8l0.1,0.2
		 M109.7,56.7l0.1,0.2 M92.3,59.1l0.8,2.4 M94.3,63.6l-0.2-0.3 M94.3,63.6l0.2,0.2 M94.5,63.8l0.2,0.2 M94.8,64.2l0.1,0.2
		 M94.9,64.4l0.2,0.1 M95.1,64.5l0.2,0.1 M95.4,64.8l0.2,0.1 M95.6,64.8l0.2,0.1 M96,65l0.2,0 M96.2,65l0.3,0 M96.5,65l0.3,0
		 M96.8,65l0.3,0 M97.5,65.1l-0.4,0 M97.9,65.1l-0.4,0 M105.3,65l-0.2,0 M105.3,65l0.2,0 M105.8,65l0.1,0 M106.4,64.7l0.1-0.1
		 M106.5,64.6l0.1-0.1 M106.7,64.4l0.1-0.1 M107.2,63.5l-0.1,0.2 M109.7,59l-0.1,0.3 M109.8,58.7l-0.1,0.3 M109.8,58.5l0,0.3
		 M109.9,58.2l0,0.3 M109.9,57.7l0,0.2 M109.9,57.2l0,0.2 M109.8,57l0,0.2 M109.5,56.4l0.1,0.1 M109.3,56.2l0.1,0.1 M109.2,56.1
		l0.2,0.1 M108.8,55.8l0.2,0.2 M94,55.5l-0.5,0.3 M93.5,55.7L93.1,56 M93.1,56l-0.3,0.2 M92.8,56.2l-0.3,0.2 M92.5,56.4l-0.2,0.2
		 M92.3,56.6l-0.2,0.2 M92.2,56.8L92,57 M92,57L92,57.1 M92,57.1l0,0.2 M91.9,57.3l0,0.2 M91.9,57.5l0,0.2 M91.9,57.6l0,0.2
		 M92,57.8l0,0.2 M92,58l0.1,0.2 M92.1,58.3l0.1,0.3 M92.1,58.5l0.1,0.3 M92.6,97.6l-0.7-0.8 M115.9,57l0,0.2 M116.1,59.4l2.4,4.2
		 M67.8,91.8L67,88.6 M136.4,101.1l0-1.7 M79.4,57.7L79,57.4 M73.8,116.4l-1.1-1.5 M67.8,60l0.5-2.2 M72.7,44.4l2.6-6.4 M143.9,27.1
		l-3.7-6 M154.7,52.1l0.7,1.7 M155.8,114.3l-0.2,0 M155.5,115.2l0.1,0.4 M149.1,64.7l-0.4,5.1 M139.1,47l0.6,3.5 M139.4,774.6
		l-1.6-1.8 M133.5,762.4l0.2,1.6 M143.4,787.1l-1.7-1.4 M135.2,778.4l1.5,2 M62.1,774l-1.8-0.9 M53,761.7l-1.1-3.6 M91.5,740.1
		l-0.4,1.1 M66.2,773.8l-2.2,0.1 M169.1,347.4l3.1-15.6"/>
	<path class="st7" d="M176.4,326.5l-3.2,9.9 M55.9,684.5l0.5,7.9 M55.3,637.4l0,20.2 M48,518.2l-2.2-13.5 M92.9,736.5l0.6-6
		 M47.5,265.1l-0.8,2.2 M39.9,305.7l0.8,7.6 M220.7,251.7l-8.5-45.4 M111.1,56.7l-0.3,0.2 M115.3,56l-0.2,0.2 M27.1,365.4l-0.8-1.1
		 M25.7,357.2l-0.5-3.6 M50.1,353l3.4,2.6 M115.2,59.7l2.5,4.3 M16.2,247.7L18,241 M79.3,126.9l-1.2,0.2 M127.9,727.7l5.6,2.8
		 M154.6,735l2.8-1.5 M97.4,102.4l2.7,2.6 M103.5,108.3l1.1,0.5 M128.6,103l3.4-3.1 M97.9,654.8l0.6,5.8 M97.8,597.3l0.7,6.2
		 M124.1,588.6l0.5,7.1 M114.3,498.8l2.8,15.3 M96.4,718.6l1.7-21.9 M124.9,657.5l-1.4,17.8 M125.8,726.7l-1.3-7.5 M167.2,653.6
		l1.6-15.9 M31.1,391.2l0.1-3.8 M174.7,470.8l1.2-19.1 M173.7,547.3l1.5-19.3 M49,296.4l0.9-6.5 M11.7,275l0.8-4.3 M131.8,63
		l0.9-1.5 M92.2,61.9l1,1.6 M127.8,66l-6.6,0 M132.6,63.5l1-1.6 M104.5,66l-6.6,0 M108.1,64l2.5-4.3 M121.2,65.1l6.6,0 M93.1,61.5
		L94,63 M104.5,65.1l-6.6,0 M107.2,63.5l2.4-4.2 M157.1,86.5l-1,3.6 M111.8,65.5l-0.3,2.7 M111.5,68.2l-0.3,2.4 M111.2,70.6
		l-0.3,2.1 M110.9,72.7l-0.3,1.8 M110.6,74.5l-0.2,1.5 M110.4,76.1l-0.2,1.3 M110.2,77.4l-0.2,1.1 M110,78.4l-0.1,0.9 M109.9,79.3
		l-0.1,0.7 M112.1,81.7l0.7,0.1 M109.8,80l0,0.5 M109.8,80.5l0.1,0.4 M109.9,80.9l0.1,0.3 M110,81.2l0.2,0.2 M110.2,81.4l0.3,0.1
		 M110.6,81.6l0.4,0.1 M111,81.6l0.5,0.1 M111.4,81.7l0.6,0 M92.7,745.6l0.2,0.1 M156.6,114.3l-0.4-0.1 M80.2,57.7L80.2,57.7
		 M84,56.5L84,56.5 M112.4,59l-0.3,3.5 M112.1,62.4l-0.3,3.1 M139.7,50.5L139.7,50.5"/>
</g>
</svg>
