<?xml version="1.0" encoding="utf-8"?>
<!-- Generator: Adobe Illustrator 20.0.0, SVG Export Plug-In . SVG Version: 6.00 Build 0)  -->
<svg version="1.1" id="Layer_1" xmlns="http://www.w3.org/2000/svg" xmlns:xlink="http://www.w3.org/1999/xlink" x="0px" y="0px"
	 viewBox="0 0 376.5 874.5" style="enable-background:new 0 0 376.5 874.5;" xml:space="preserve">
<style type="text/css">
	.st0{fill:#E1E3E7;}
	.st1{fill:#F0E4C9;}
	.st2{fill:#5C6870;}
	.st3{fill:#2D343A;}
	.st4{fill:#F4EFDC;}
	.st5{fill:#63513F;}
	.st6{fill:#ECDBC5;}
	.st7{fill:#FFFFFF;}
	.st8{fill:none;stroke:#000000;stroke-miterlimit:10;}
</style>
<g>
	<path class="st0" d="M313.3,383.5l0.3,0.9l0.9,4.1v3.1l-3.8,6.9l-2.4-0.3v-5.5l-1.4-2.8l-1.9-0.7l-2.5-0.4l-0.6,1.6l-1.3,0.7
		l-1.2-0.5l-1.4-0.6l-0.1-1.2l-0.7,0.6l-1.4,0.5l-1.1-0.3l-1.3-1l-0.3-0.9V387h-1.1l-0.9-0.6l-1.1-2.1l0.3-1.2l-0.8-1.4l-1.7-0.8
		l-2.9,0.7l-1-0.4l-0.3-0.5l4.6-6.9l0.8-0.8l0.8-0.8l2.6-0.9h2l4.4-0.5l4.3,0.8l3.3,1.7l2.5,2.7l2.1,4.5l1.4,0.8L313.3,383.5z
		 M305,384l2-2.2l0.8-2.3l-0.1-2.5l-0.6-1.2l-1.3-1.6l-1.5-1.1l-2.7-0.7l-3.3,0.3l-1.5,0.7l-1.8,1.6l-0.8,1.7v2.8l0.2,0.6l0.5,1.7
		l1.6,1.8l2.5,1.1l3.1,0.4L305,384z M305,384"/>
	<path class="st1" d="M313.3,383.5l-0.7-2.3l-1.4-0.8l-2.1-4.5l-2.5-2.7l-3.3-1.7l-4.3-0.8l-4.4,0.5h-2l-2.6,0.9l-0.8,0.8l1.5-7.2
		l1.2-13.2l2.3-11.5l2.6-20.2l5.2-26.3h0.6l3.9-6.2l5.5-3.7l6.1-2.7l10.2-1.4h6.6l1.3,5.9v14.3l-2.8,21.3l-6.8,18.5l-6.4,19
		l-4.1,14.3L313.3,383.5z M313.3,383.5"/>
	<path class="st1" d="M283.9,381.2l1,0.4l2.9-0.7l1.7,0.8l0.8,1.4l-0.3,1.2l1.1,2.1l0.9,0.6h1.1v0.7l0.3,0.9l1.3,1l1.1,0.3l1.4-0.5
		l0.7-0.6l0.1,1.2l1.4,0.6l1.2,0.5l1.3-0.7l0.6-1.6l2.5,0.4l1.9,0.7l1.4,2.8v5.5v5.1l-1.6,3.3l-4.7,5.2l-3.4,4.6l-3.4,2.8l-2.5,6.3
		l-1.7,3.5l-0.4,1.2l-2,3.5l-3.1,2.7l-2.6,1.5h-1.7l-1.2-2.3l1.1-3.5l2-2.4l1.7-2.6l1-3.5l0.7-3.2l2-5.7l-1.9,1.5l-1.9,2.7l-0.7-1.2
		l-1.8-1.6l-1.7-0.6h-3.9l-0.3-0.7l-1.2,1.1l-1.5,2.3l-2.4,4.3l-2.6,3.1l-4.3,7.1l-2.7,6.9l-1.6,2.7l-2,0.8l-2.8-0.9l-2.1-1.5
		l-0.7-2.5l1-3.3l3.5-5.6l4-9.1l2.6-4.9l1.8-2.1l1.4-2.1l0.5-2.2l-0.8-1.9l-1.4-0.9l-2.7,0.6l-3.4,1.5l-2,1.4l-3.5,2.7l-2.2,2.5
		l-2.6,2.3l-3.1,0.6l-1.9-1.1l-1.5-1.8l-0.4-2.4l0.7-2.5l1.6-2.2l4.7-3.8l5.5-4.9l4-1.8l4.9-1.6l-0.9-6.4l1.1-6.5l6.4,0.8h6.4
		l4.9-0.9L283.9,381.2z M283.9,381.2"/>
	<path class="st2" d="M291.7,280.6l-1.2-0.8l7-2.3l10.7-4.9l6.4-1.6l5.9-4.3l4.6-2.2l3.5-0.4l1.9,2.3l1.5,4.9l4,5.3l1,2.6l-0.2,1.5
		h-2.1h-6.6l-10.2,1.4l-6.1,2.7l-5.5,3.7l-3.9,6.2h-0.6h-2.4l-2-6.3L291.7,280.6z M291.7,280.6"/>
	<path class="st2" d="M328.7,264l-3.5,0.4l-4.6,2.2l-5.9,4.3l-6.4,1.6l-10.7,4.9l-7,2.3l-6.1,0.3l-3.3-0.6l-5-6.1l-2.5-7l-1.4-6.7
		l-1.2-2.3l-2.9-4.7l-2-4.8l-3.5-5.6l-2.3-2.4l-3.3,0.4l-2,2.4l0.5,9.9l-0.5,17.1l2.1,31.2l-2.8,15.8l4,22.4V357l4.1,5.4l0.6,19.8
		l-1.1,6.5l0.9,6.4l-4.9,1.6l-4,1.8l-5.5,4.9l-4.7,3.8l-1.6,2.2l-0.7,2.5l0.4,2.4l1.5,1.8l1.9,1.1l3.1-0.6l2.6-2.3l2.2-2.5l3.5-2.7
		l2-1.4l3.4-1.5l2.7-0.6l1.4,0.9l0.8,1.9l-0.5,2.2l-1.4,2.1l-1.8,2.1l-2.6,4.9l-4,9.1l-3.5,5.6l-1,3.3l0.7,2.5l2.1,1.5l2.8,0.9
		l2-0.8l1.6-2.7l2.7-6.9l4.3-7.1l2.6-3.1l0.8,3l-1.7,5.6l-2.9,6l-1.3,5l-11.3,8.2l-16.4,8.2l-9.9,3l-6.5,4.8l-18.9,2.7h-10.3
		l-12.4-1.7l0-1.1l-1.7-43l-1.9-15.3l2.3-24.9V368l-1.7-25l2.1-16.1l-1.8-20.5l1.2-21.3l-1-20.6l0.8-15.4l-2.2-22l0.7-32.4l1.7-11.6
		l4.4-10.9l6.6-9.8v-2.9l-2.3-2.9l0.8-1.3l5.2-4.1l3.9-2.1l0.8-1.2l1.1-0.9l1.8,1.3l6.8,7.7l6.8,6.7h1.5l-1-8l-1.7-9.4l-3-9.8
		l11.3,3.3l8.7,4l6.9,1.7l9.7,3.3l10.6,3.8l7.6,3.5l11.3,3.3l1.5,6.4l11.1,23.2l12.7,22.4l0.9,8l3.8,2.3l2.4,4.5l3.1,3.1l1.9,6.3
		l4.5,6.7l4.7,10.8l8.8,3.8l0.9,2l-0.9,2.8L328.7,264z M328.7,264"/>
	<path class="st3" d="M178.5,183.1l-1.7,11.6l-17.1-17.2l-8.8-7.8l1.9-5.6l-3.8-5.4l-5.4-8.5l-1.3-7.5l4.8,5.6l9.9,6.4l13.4,4h10.3
		l6.7-2.2l2.3,2.9v2.9l-6.6,9.8L178.5,183.1z M178.5,183.1"/>
	<path class="st2" d="M142.2,142.8l1.3,7.5l5.4,8.5h-7.2l-10.4,3.6l-8.3,6.1l-2,3.9v-11.8l4.9-16.2l2.4-5.4l2.4-5.4l5.3-7.9l3.9-4.4
		l5.8-1l1.1,0.2l-1.5,11.2l-3.8,7.1L142.2,142.8z M142.2,142.8"/>
	<path class="st2" d="M149,158.7l3.8,5.4l-1.9,5.6l8.8,7.8l17.1,17.2l-0.7,32.4l2.2,22l-0.8,15.4l1,20.6l-1.2,21.3l1.8,20.5
		l-2.1,16.1l1.7,25v14.7l-2.3,24.9l1.9,15.3l1.7,43l-11,0.6h-19.9l-13.8-2.3l-11.3-3.3l-10.8-6.2l-5.8-2.9l1-2.8l-1-2.8l-0.9-0.5
		v-2.1l5.6,5.6l3.8,2.2l3.6-0.5l1.1-1v-3.5l-3.2-4l-7.3-6.2l-5-6.3l-5.4-5l11.4,8.1l11.2,10.6l3.4-1.5l1.6-3.3l-1-4.3l-4.9-5.5
		l-8.1-7.5l-5.4-3.9l-2.7-2.5v-2.9l2-1h4.4l6.4,1.8l5.1,2.9h2.9l2.6-1.3v-3.5l-1.3-2.6l-9.7-5.3l-7.5-3.1h-4.4l1.9-4.3l4.3-5.9
		l0.1-10.3v-22.1l3.6-24l-7.5-23.1l-14.6-63.8l-4.4,5.9l-2.4,7l-3.7,8l-8.7,11.9l-2.5,6.1l-8.2,10.4l-2.9,3.4l-4.3,0.8L46,298.8
		l-19.8-2l-5.7,1.3l-8.6,2.7l1.6-9.4L17,277l6.4-14.9L39.2,233l9.3-20l6.8-21l2.5-11.5l3.3-7.4l17-11.6l13.5-7.5l27.8-11.7l9-3.4
		l-2.4,5.4l-4.9,16.2v11.8l2-3.9l8.3-6.1l10.4-3.6H149z M149,158.7"/>
	<path class="st1" d="M187.2,156.6l-6.7,2.2h-10.3l-13.4-4l-9.9-6.4l-4.8-5.6l-0.7-4.1l3.8-7.1l1.5-11.2l1-7.7l-2.4-18.2l-2-2.1
		l-2.3-3.8l-2.3-4.6l-1.8-4.8l-1.2-4.3l0.6-5.1v-2.3l1-1.1l3.9-2.1h3.7l3.7,2.4l3.1,3.1l1.4,3.4l0.7,4.4v4.4l-0.4,14.2l1.1,11.7
		l4.3,8.5l5.4,5.5l8,6.2l14.8,6l5.7,1.5h7.4l0.5,2v3.7l-1.8,5.6l-1.1,0.9l-0.8,1.2l-3.9,2.1l-5.2,4.1L187.2,156.6z M187.2,156.6"/>
	<path class="st1" d="M106.6,443.7l-0.7-0.6l-6.7-5.7l-3.6-4.6l-2.8-2.4l-3.8-2.3l1.3,2.7l3,4.2l4.5,4.8l6.4,5l2.3,1.3l0.9,0.5
		l1,2.8l-1,2.8h-0.9h-1.7l-5.9-3.1l-3.3-3l-9.1-7.5l-3.6-4.6l-12.2-5.2l-11.1-19.1l-5-12.2l-16.8-33.5l-11.5-19.7l-4.9-12.3
		L19,320.8l2.4-2.8l16.7-3l11.7-1.2l3.9,2.1l1.9,2.2l4.7,9.1l3.5,11.2l3.3,16.3l8.4,19.6l4.2,16.4l6.8,6.7h3.8l7.9-1.6h9.6l-1.9,4.3
		h4.4l7.5,3.1l9.7,5.3l1.3,2.6v3.5l-2.6,1.3h-2.9l-5.1-2.9l-6.4-1.8h-4.4l-2,1v2.9l2.7,2.5l5.4,3.9l8.1,7.5l4.9,5.5l1,4.3l-1.6,3.3
		l-3.4,1.5l-11.2-10.6L99.8,425l5.4,5l5,6.3l7.3,6.2l3.2,4v3.5l-1.1,1l-3.6,0.5l-3.8-2.2L106.6,443.7z M106.6,443.7"/>
	<path d="M128.5,830.6l1-1.6l8.7-17.9l1.2-1.8l-0.4-2.5l2.8-2.7l6.5-1.4l15.4,0.6l11.2,3.5l5.7,3.8l-5.3,7.7l-0.7,3.2l0.3,4.8
		l-1.3,2.6v3.1l-0.4,4l-1.6,4.3l-1.6,2l-2.4,1.7l-2.5,0.8h-9.4l-12.7-0.3h-8.5l-3.1-2.3l-1.9-5L128.5,830.6z M128.5,830.6"/>
	<path class="st4" d="M128.5,830.6l1.1,6.7l1.9,5l3.1,2.3h8.5l12.7,0.3h9.4l2.5-0.8l2.4-1.7l1.6-2l1.6-4.3l0.4-4v-3.1l1.3-2.6
		l-0.3-4.8l0.7-3.2l5.3-7.7l1,0.7v6.6l-1.9,4.8l-4.1,5v8.6l-2.3,11.5l-5,7.3l-8.6,3.2h-15.8l-8.9-1.5l-5.4-3.1l-3.1-5.6v-7.3l1-8.6
		L128.5,830.6z M128.5,830.6"/>
	<path class="st3" d="M180.6,810.6l-5.7-3.8l-11.2-3.5l-15.4-0.6l-6.5,1.4l-2.8,2.7l-0.4,0.4l-2.3-5.4l-2.6-2.6l-5.1-8.1l-3.3-11.3
		l2-7.1l4.8-10.7l7.6-7l-8.4-22.8l-4.4-26.9l-7-30.1l-3.2-16.6l2.4-7v-9.6l2.2-11.6v-8.8l1.2-9.5l1.8-6.4l-2.4-16l-6.3-12.5
		l-1.4-16.9v-24.3l-8.6-47.8l1.9-16.8l-1-19.8h0.9l5.8,2.9l10.8,6.2l11.3,3.3l13.8,2.3h19.9l11-0.6l0,1.1l12.4,1.7h10.3l18.9-2.7
		l6.5-4.8l9.9-3l16.4-8.2l11.3-8.2l1,1.1l2.7,1.1l2.7-1.2l0.8-2.1l1.2,4.2l9.9,43.8v14.7l2.9,34.4l4.4,38l-1.7,7.9l-3.4,9.7v22.9
		l3.5,3.8v5.1l-2.2,5.5v4.4h3.7l2.5,1.5l6.6,18.7l-0.5,14.7V682l4.2,9.4l2.4,17.5l4.3,20.9l4.4,14.8v6.6l-4.1,7.8l-4.4,2.7v2.2
		l7,5.3l3.5,4.8v6.6l1.8,12.4l-4.4-3.9h-8.1l-8.3,3l-7.4,9.2l-10.4,8.2l-4.1-1.7l-7.3-6.1l-5.8-6.6l-2.2-11.6l2.9-12.2v-11.8
		l-15.8-24l-5-17.7l-1.7-11.6l-2.5-41.1l-1.1-10.2l-1.4-7.2l1.1-4.3l-0.8-5.8v-8.1l-1.6-4.9l-1.1-7.3l-1.2-5l-3.4-4.8v-8.8l-1.3-8
		L227,588l-1.5-7.2l-3.7-10.4l-1.8-6.4l-3.5-6.5l-2.8-6.8l-2.3-10l-1.5-12.4l-2.8-9.1l-5.5-10.4l-3.1-6.7l-2.9-2.3l-2.9,0.7L190,504
		l-1.2,9.5l-3,9.9l1.5,9.4l-2.3,5.4l-2.7,17.5v33.1l-2.9,3.4v9.6l-4.9,19.2l3.3,24l-2.5,22.7l2.2,9.3l2,53.7V749l3.4,9.7l7.3,14.4
		l2.9,9.9l-1.3,8l-5.5,12l-4.8,8.3L180.6,810.6z M180.6,810.6"/>
	<path class="st0" d="M283,422l-0.1-0.2l-0.7-1.5l-1.9-1.1l-2.7-1.1l-1.4-0.4h-0.7l-0.1-0.3l0.7-1.9l0.4-0.3h3.9l1.7,0.6l1.8,1.6
		l0.7,1.2l0.2,0.3l-0.6,1.5l-0.9,1.4H283z M283,422"/>
	<path class="st1" d="M275.5,417.7h0.7l1.4,0.4l2.7,1.1l1.9,1.1l0.7,1.5l-2,3.4l-1.1,2.3l-1.5,1.4l-2.8,6.8l-2.6,5.1l-0.8,2.1
		l-2.7,1.2l-2.7-1.1l-1-1.1l1.3-5l2.9-6l1.7-5.6l1.6-4.1l1.9-3.1L275.5,417.7z M275.5,417.7"/>
	<path class="st5" d="M220.5,68.9l0.2,0.6l-0.1,0.4l-2.7-0.8h-3.1l-2.7,0.3l-2.5,0.5l-0.8-0.4l-0.4-1l0.6-1l2.6-1.3h3.9l2.8,0.9
		L220.5,68.9z M220.5,68.9"/>
	<path class="st1" d="M220.5,68.9l-2.3-1.8l-2.8-0.9h-3.9l-2.6,1.3l-0.6,1l0.4,1l0.8,0.4l2.5-0.5l2.7-0.3h3.1l2.7,0.8l-0.9,2.4
		l-2.3,4.6l0.9,2.8l1.1,6.5V95l-0.4,1.2l-1.7,1.4l-3,1l-3.3,0.5l-0.6,1.1l-5.2,1.1l-6.8-1.8l-1.2,0.2l-7.5,0.7l-7.1,2.9H179
		l-7.6-4.1l-7.9-8.7l-2.5-4.7l-1.2-4.8l1.8-4l1-5.8l-0.6-5.1l6.3-9.9l-1.4-8l2.5-12l3.1-7.3l8.7-3.8l7,1.7l4.4,0.9l5.7,2.7l6.2,2.3
		l2.4,1.8l2.7,1.3l3.3-0.4l1,1.7l1,1.1l0.8,2.8l1,5.8l1,1.9l0.8,0.3l0.4,8.5l-0.2,4.3l0.9,5.1L220.5,68.9z M196.9,68.4l3.6-0.7
		l-2.5-1.8l-4.2-1.2h-5.5l-7.5,1.9l-5.5,2l5-1h6.4l6.7,0.9H196.9z M196.9,68.4"/>
	<path class="st5" d="M212.9,35.3l-3.3,0.4l-2.7-1.3l-2.4-1.8l-6.2-2.3l-5.7-2.7l-4.4-0.9l-7-1.7l-8.7,3.8l-3.1,7.3l-2.5,12l1.4,8
		l-6.3,9.9l0.6,5.1l-1,5.8l-1.8,4l-2.3,1.8H156l-2.1-0.8v-4.4l-0.7-4.4l-1.4-3.4l-3.1-3.1l-3.7-2.4h-3.7l-3.9,2.1l-1,1.1v2.3
		l-1.8-2.3l-2.2-7l-1.2-7.3v-8.8l0.8-3.6l4.9-8.2l6.4-6L150,22l8.8-5.3l8.7-4l5.1-0.8h8.8l8.8,1.1l10.3,3.9l10,8.7l5.9,9.3l2.4,12.1
		l-0.2,1.9l-0.8-0.3l-1-1.9l-1-5.8l-0.8-2.8l-1-1.1L212.9,35.3z M212.9,35.3"/>
	<path class="st6" d="M153.9,81.9l2.1,0.8h1.5l2.3-1.8l1.2,4.8l2.5,4.7l7.9,8.7l7.6,4.1h3.7l7.1-2.9l7.5-0.7l1.2-0.2l6.8,1.8
		l5.2-1.1l0.6-1.1l3.3-0.5l3-1l1.7-1.4l-3.2,9.2l-1.3,5.7l-4.1,6.1l-1.9,6.3l-1.3,7.6l-0.1,0.4l-2.7,2.5l-4.1,1.6h-7.4l-5.7-1.5
		l-14.8-6l-8-6.2l-5.4-5.5l-4.3-8.5l-1.1-11.7L153.9,81.9z M153.9,81.9"/>
	<path class="st2" d="M200.8,137.6l-0.5-2l4.1-1.6l2.7-2.5l0.1-0.4h1.3l1.8,4l3,9.8l1.7,9.4l1,8h-1.5l-6.8-6.7l-6.8-7.7l-1.8-1.3
		l1.8-5.6V137.6z M200.8,137.6"/>
	<path class="st2" d="M46,298.8l10.7,1.4v1.5l-1.1,5.8v10.7l-1.9-2.2l-3.9-2.1L38,315l-16.7,3l-2.4,2.8l-2.5,1.6l-2.2-2l-2.5-19.7
		l8.6-2.7l5.7-1.3L46,298.8z M46,298.8"/>
	<path class="st4" d="M349.9,831.5l0.9,0.9l1.1,12.1l-1.9,3.4l-6.1,2.1l-9.8,1.6l-7.7,0.3l-8.8-0.8l-6.5-2.1l-8-4.1l-4.7-4.4
		l-0.8-4.9l-1.3-4.6l-2.8-2.7l-5.9-2.1l-7.5-4l-7.8-4.2l-0.4-0.3l-1.2-2.1l-1.4-13.9l3.9,6.2l3.5,3l5.1,2.6l5.1,2.1l4.3,4.8l2.3,3.3
		l3,2.1l2.3,3.1l2.9,2.8l5.5,3.8l6.1,3.1l5.8,1h3.9l13.7-1.4l6.9-1.1l4.8-1.2l1.3-2L349.9,831.5z M349.9,831.5"/>
	<path d="M273.2,807.8l-3.9-6.2l7.3,6.1l4.1,1.7l10.4-8.2l7.4-9.2l8.3-3h8.1l4.4,3.9l4.4,6.2l6.7,7.8l4.7,7.7l10.8,11.3l4,5.5
		l-0.4,2.4l-1.3,2l-4.8,1.2l-6.9,1.1l-13.7,1.4h-3.9l-5.8-1l-6.1-3.1l-5.5-3.8l-2.9-2.8l-2.3-3.1l-3-2.1l-2.3-3.3l-4.3-4.8l-5.1-2.1
		l-5.1-2.6L273.2,807.8z M273.2,807.8"/>
	<path class="st7" d="M307,381.7l-2,2.2l-2.7,1.1l-3.1-0.4l-2.5-1.1l-1.6-1.8l-0.5-1.7l6.7-1.6L307,381.7z M307,381.7"/>
	<path class="st7" d="M294.5,380.1l-0.2-0.6v-2.8l0.8-1.7l6.1,3.5L294.5,380.1z M294.5,380.1"/>
	<path class="st7" d="M295.1,374.9l1.8-1.6l1.5-0.7l3.3-0.3l-0.4,6L295.1,374.9z M295.1,374.9"/>
	<path class="st7" d="M301.7,372.4l2.7,0.7l1.5,1.1l1.3,1.6l0.6,1.2l0.1,2.5l-0.8,2.3l-5.7-3.3L301.7,372.4z M301.7,372.4"/>
	<path class="st5" d="M200.5,67.7l-3.6,0.7h-3.5l-6.7-0.9h-6.4l-5,1l5.5-2l7.5-1.9h5.5l4.2,1.2L200.5,67.7z M200.5,67.7"/>
	<path class="st8" d="M313.6,384.4l-0.3-0.9 M313.3,383.5l-0.7-2.3 M311.2,380.4l1.4,0.8 M309,375.9l2.1,4.5 M306.6,373.2l2.5,2.7
		 M303.3,371.5l3.3,1.7 M298.9,370.7l4.3,0.8 M294.5,371.2l4.4-0.5 M292.5,371.2h2 M289.9,372.2l2.6-0.9 M289.1,373l0.8-0.8
		 M288.2,373.9l0.8-0.8 M283.6,380.7l4.6-6.9 M283.9,381.2l-0.3-0.5 M285,381.6l-1-0.4 M287.8,380.9l-2.9,0.7 M289.5,381.7l-1.7-0.8
		 M290.3,383.1l-0.8-1.4 M290,384.3l0.3-1.2 M291.1,386.4l-1.1-2.1 M292.1,387l-0.9-0.6 M293.2,387h-1.1 M293.2,387.8V387
		 M293.4,388.6l-0.3-0.9 M294.8,389.6l-1.3-1 M295.8,390l-1.1-0.3 M297.2,389.4l-1.4,0.5 M297.9,388.8l-0.7,0.6 M299.4,390.6
		l-1.4-0.6 M300.6,391.1l-1.2-0.5 M301.8,390.4l-1.3,0.7 M302.4,388.8l-0.6,1.6 M304.9,389.3l-2.5-0.4 M306.8,389.9l-1.9-0.7
		 M308.3,392.7l-1.4-2.8 M308.3,398.2v-5.5 M310.6,398.5l-2.4-0.3 M314.4,391.6l-3.8,6.9 M314.4,388.6v3.1 M314.4,388.6l-0.9-4.1
		 M305,384l2-2.2 M302.2,385l2.7-1.1 M299.1,384.6l3.1,0.4 M296.6,383.6l2.5,1.1 M295,381.7l1.6,1.8 M294.3,379.5l0.2,0.6
		 M294.3,376.6v2.8 M295.1,374.9l-0.8,1.7 M296.9,373.3l-1.8,1.6 M298.4,372.7l-1.5,0.7 M301.7,372.4l-3.3,0.3 M304.4,373.1
		l-2.7-0.7 M305.9,374.2l-1.5-1.1 M307.2,375.8l-1.3-1.6 M307.7,376.9l-0.6-1.2 M307.8,379.4l-0.1-2.5 M307,381.7l0.8-2.3
		 M325.2,264.4l3.5-0.4 M320.6,266.6l4.6-2.2 M314.6,271l5.9-4.3 M308.2,272.5l6.4-1.6 M297.5,277.4l10.7-4.9 M290.5,279.8l7-2.3
		 M291.7,280.6l-1.2-0.8 M297.5,288.2l-5.7-7.6 M299.4,294.6l-2-6.3 M301.8,294.6h-2.4 M302.4,294.6h-0.6 M311.8,284.7l-5.5,3.7
		 M317.9,282l-6.1,2.7 M328.1,280.6l-10.2,1.4 M334.7,280.6h-6.6 M336.8,280.6h-2.1 M336.8,280.6l0.2-1.5 M336.1,276.5l1,2.6
		 M332.1,271.2l4,5.3 M330.6,266.3l1.5,4.9 M328.7,264l1.9,2.3 M142.2,142.8l1.3,7.5 M149,158.7l-5.4-8.5 M149,158.7l3.8,5.4
		 M152.7,164.2l-1.9,5.6 M150.9,169.7l8.8,7.8 M159.7,177.5l17.1,17.2 M176.8,194.7l1.7-11.6 M178.5,183.1l4.4-10.9 M182.9,172.2
		l6.6-9.8 M189.5,162.4v-2.9 M189.5,159.5l-2.3-2.9 M180.6,158.8l6.7-2.2 M170.3,158.8h10.3 M156.9,154.8l13.4,4 M147,148.3l9.9,6.4
		 M142.2,142.8l4.8,5.6 M106.6,445.8v-2.1 M106.6,443.7l-0.7-0.6 M105.9,443l-6.7-5.7 M99.2,437.3l-3.6-4.6 M95.6,432.6l-2.8-2.4
		 M92.8,430.2l-3.8-2.3 M89.1,427.9l1.3,2.7 M90.4,430.6l3,4.2 M93.3,434.8l4.5,4.8 M97.9,439.6l6.4,5 M104.3,444.5l2.3,1.3
		 M128.5,830.6l1-1.6 M128.5,830.6l1.1,6.7 M129.6,837.4l1.9,5 M131.5,842.3l3.1,2.3 M134.6,844.6h8.5 M143.1,844.6l12.7,0.3
		 M155.8,844.9h9.4 M165.1,844.9l2.5-0.8 M167.6,844.1l2.4-1.7 M170,842.4l1.6-2 M171.6,840.4l1.6-4.3 M173.2,836.1l0.4-4
		 M173.6,832.1v-3.1 M173.6,828.9l1.3-2.6 M174.9,826.3l-0.3-4.8 M174.6,821.5l0.7-3.2 M174.9,806.8l5.7,3.8 M163.7,803.3l11.2,3.5
		 M148.3,802.7l15.4,0.6 M141.8,804.2l6.5-1.4 M139,806.9l2.8-2.7 M139.4,809.4l-0.4-2.5 M138.2,811.2l1.2-1.8 M294,341.1l2.6-20.2
		 M291.7,352.6l2.3-11.5 M290.5,365.8l1.2-13.2 M289.1,373l1.5-7.2 M313.3,383.5l2.5-9.6 M315.8,373.9l4.1-14.3 M319.9,359.6l6.4-19
		 M326.4,340.6l6.8-18.5 M333.2,322.2l2.8-21.3 M336,300.8v-14.3 M336,286.5l-1.3-5.9 M181.7,817.9l-1.9,4.8 M181.7,811.3v6.6
		 M180.6,810.6l1,0.7 M127.5,832.2l1-1.6 M126.5,840.8l1-8.6 M126.5,848.1v-7.3 M129.7,853.7l-3.1-5.6 M135.1,856.8l-5.4-3.1
		 M143.9,858.3l-8.9-1.5 M159.8,858.3h-15.8 M168.4,855.2l-8.6,3.2 M173.4,847.9l-5,7.3 M175.7,836.4l-2.3,11.5 M175.7,827.7v8.6
		 M179.8,822.7l-4.1,5 M196.9,68.4l3.6-0.7 M200.5,67.7l-2.5-1.8 M198,65.9l-4.2-1.2 M193.8,64.7h-5.5 M188.2,64.7l-7.5,1.9
		 M180.7,66.5l-5.5,2 M175.2,68.5l5-1 M180.2,67.4h6.4 M186.7,67.4l6.7,0.9 M193.4,68.4h3.5 M283,422l-0.1-0.2 M283,422h0.3
		 M284.2,420.5l0.6-1.5 M284.8,419l-0.2-0.3 M284.6,418.6l-0.7-1.2 M283.9,417.4l-1.8-1.6 M282.1,415.8l-1.7-0.6 M276.5,415.2
		l-0.4,0.3 M276.1,415.5l-0.7,1.9 M275.3,417.4l0.1,0.3 M276.2,417.7h-0.7 M277.6,418l-1.4-0.4 M280.4,419.1l-2.7-1.1 M282.3,420.2
		l-1.9-1.1 M282.9,421.7l-0.7-1.5 M220.5,68.9l0.2,0.6 M220.5,68.9l-2.3-1.8 M218.2,67.1l-2.8-0.9 M215.4,66.2h-3.9 M211.5,66.2
		l-2.6,1.3 M208.9,67.5l-0.6,1 M208.3,68.5l0.4,1 M208.7,69.5l0.8,0.4 M209.5,69.9l2.5-0.5 M212.1,69.4l2.7-0.3 M214.8,69.1h3.1
		 M217.9,69.1l2.7,0.8 M220.7,69.5l-0.1,0.4 M209.6,35.7l3.3-0.4 M212.9,35.3l1,1.7 M214,37l1,1.1 M214.9,38.1l0.8,2.8 M215.8,40.9
		l1,5.8 M216.7,46.7l1,1.9 M217.8,48.7l0.8,0.3 M218.8,47l-0.2,1.9"/>
	<path class="st8" d="M216.4,34.9l2.4,12.1 M210.5,25.6l5.9,9.3 M200.5,16.9l10,8.7 M190.2,13l10.3,3.9 M181.4,11.9l8.8,1.1
		 M181.4,11.9h-8.8 M172.6,11.9l-5.1,0.8 M167.5,12.7l-8.7,4 M158.8,16.6L150,22 M150,22l-6.7,4.5 M143.3,26.5l-6.4,6 M136.8,32.5
		l-4.9,8.2 M131.9,40.7l-0.8,3.6 M131.1,44.3v8.8 M131.1,53.1l1.2,7.3 M132.4,60.4l2.2,7 M134.6,67.4l1.8,2.3 M136.4,69.7v-2.3
		 M136.4,67.4l1-1.1 M137.5,66.3l3.9-2.1 M141.3,64.2h3.7 M145,64.2l3.7,2.4 M148.7,66.6l3.1,3.1 M151.8,69.7l1.4,3.4 M153.2,73.1
		l0.7,4.4 M153.9,77.5v4.4 M153.9,81.9l2.1,0.8 M156,82.7h1.5 M157.4,82.7l2.3-1.8 M159.8,81l1.8-4 M161.6,76.9l1-5.8 M162.6,71.1
		l-0.6-5.1 M168.3,56.1l-1.4-8 M166.8,48.1l2.5-12 M169.4,36.1l3.1-7.3 M172.5,28.8l8.7-3.8 M181.3,25l7,1.7 M188.2,26.7l4.4,0.9
		 M192.6,27.6l5.7,2.7 M198.4,30.3l6.2,2.3 M204.6,32.6l2.4,1.8 M206.9,34.4l2.7,1.3 M200.8,137.6l-0.5-2 M200.8,141.3v-3.7
		 M199,146.9l1.8-5.6 M199,146.9l1.8,1.3 M200.8,148.2l6.8,7.7 M207.6,155.9l6.8,6.7 M214.5,162.6h1.5 M215.9,162.6l-1-8 M215,154.5
		l-1.7-9.4 M213.2,145.1l-3-9.8 M210.2,135.3l-1.8-4 M208.5,131.2h-1.3 M207.2,131.2l-0.1,0.4 M207.1,131.6l-2.7,2.5 M204.4,134
		l-4.1,1.6 M56.6,301.6v-1.5 M56.6,300.1L46,298.8 M46,298.8l-19.8-2 M26.2,296.7l-5.7,1.3 M20.5,298.1l-8.6,2.7 M11.9,300.7
		l2.5,19.7 M14.4,320.4l2.2,2 M16.6,322.4l2.5-1.6 M19,320.8l2.4-2.8 M21.4,318l16.7-3 M38,315l11.7-1.2 M49.7,313.8l3.9,2.1
		 M53.6,315.8l1.9,2.2 M55.5,318.1v-10.7 M55.5,307.4l1.1-5.8 M220.6,69.9l-0.9,2.4 M219.7,66.8l0.8,2.2 M218.8,61.7l0.9,5.1
		 M219,57.4l-0.2,4.3 M218.6,48.9l0.4,8.5 M219.7,72.3l-2.3,4.6 M217.4,76.9l0.9,2.8 M218.3,79.6l1.1,6.5 M219.4,86.2V95 M219.4,95
		l-0.4,1.2 M215.8,105.4l-1.3,5.7 M214.5,111.2l-4.1,6.1 M210.4,117.3l-1.9,6.3 M208.5,123.6l-1.3,7.6 M210.2,135.3l11.3,3.3
		 M221.5,138.6l8.7,4 M230.2,142.6l6.9,1.7 M237.1,144.3l9.7,3.3 M246.8,147.6l10.6,3.8 M257.4,151.3l7.6,3.5 M265,154.8l11.3,3.3
		 M276.3,158.1l1.5,6.4 M277.8,164.6l11.1,23.2 M288.8,187.8l12.7,22.4 M301.5,210.2l0.9,8 M302.4,218.3l3.8,2.3 M306.2,220.6
		l2.4,4.5 M308.6,225.1l3.1,3.1 M311.7,228.2l1.9,6.3 M313.6,234.6l4.5,6.7 M318.2,241.3l4.7,10.8 M322.9,252l8.8,3.8 M331.7,255.8
		l0.9,2 M332.5,257.9l-0.9,2.8 M331.6,260.7l-2.9,3.3 M308.3,403.4v-5.1 M306.6,406.7l1.6-3.3 M301.9,411.9l4.7-5.2 M298.5,416.4
		l3.4-4.6 M295.1,419.2l3.4-2.8 M292.6,425.5l2.5-6.3 M290.8,429l1.7-3.5 M290.4,430.2l0.4-1.2 M288.4,433.7l2-3.5 M285.3,436.4
		l3.1-2.7 M282.8,437.8l2.6-1.5 M281.1,437.8h1.7 M279.9,435.5l1.2,2.3 M281.1,432l-1.1,3.5 M283,429.6l-2,2.4 M284.7,427l-1.7,2.6
		 M285.7,423.4l-1,3.5 M286.4,420.2l-0.7,3.2 M286.5,415.9l1.9-1.5 M284.6,418.6l1.9-2.7 M197.8,147.8l1.1-0.9 M197.1,149.1l0.8-1.2
		 M193.2,151.2l3.9-2.1 M188,155.3l5.2-4.1 M187.2,156.6l0.8-1.3 M106.6,445.8l0.9,0.5 M107.5,446.3l1,2.8 M108.5,449l-1,2.8
		 M107.5,451.8h-0.9 M106.6,451.8l1,19.8 M107.6,471.6l-1.9,16.8 M114.3,536.2v24.3 M114.3,560.5l1.4,16.9 M115.7,577.4l6.3,12.5
		 M121.9,589.9l2.4,16 M124.4,605.9l-1.8,6.4 M122.6,612.2l-1.2,9.5 M121.4,621.7v8.8 M121.4,630.6l-2.2,11.6 M119.2,642.1v9.6
		 M119.2,651.7l-2.4,7 M116.8,658.6l3.2,16.6 M120,675.3l7,30.1 M127.1,705.3l4.4,26.9 M131.4,732.2l8.4,22.8 M139.8,755l-7.6,7
		 M132.2,761.9l-4.8,10.7 M127.4,772.7l-2,7.1 M125.4,779.8l3.3,11.3 M128.7,791.1l5.1,8.1 M133.7,799.2l2.6,2.6 M136.3,801.8
		l2.3,5.4 M138.6,807.3l0.4-0.4 M181.7,811.3l4.8-8.3 M186.4,803l5.5-12 M191.9,791l1.3-8 M193.2,783l-2.9-9.9 M190.3,773.1
		l-7.3-14.4 M183,758.7l-3.4-9.7 M179.6,749v-18.4 M179.6,730.6l-2-53.7 M177.6,676.9l-2.2-9.3 M175.4,667.6l2.5-22.7 M178,644.9
		l-3.3-24 M174.6,620.9l4.9-19.2 M179.5,601.6v-9.6 M179.5,592.1l2.9-3.4 M182.4,588.7v-33.1 M182.4,555.6l2.7-17.5 M185,538.2
		l2.3-5.4 M187.4,532.8l-1.5-9.4 M185.8,523.3l3-9.9 M188.8,513.5l1.2-9.5 M190,504l2.8-3.5 M192.7,500.5l2.9-0.7 M195.6,499.8
		l2.9,2.3 M198.5,502.1l3.1,6.7 M201.6,508.7l5.5,10.4 M207.1,519.2l2.8,9.1 M209.9,528.3l1.5,12.4 M211.4,540.7l2.3,10
		 M213.7,550.8l2.8,6.8 M216.4,557.6l3.5,6.5 M219.9,564.1l1.8,6.4 M221.7,570.4l3.7,10.4 M225.4,580.8l1.5,7.2 M227,588l1.4,2.6
		 M228.3,590.6l1.3,8 M229.7,598.6v8.8 M229.7,607.4l3.4,4.8 M233.1,612.2l1.2,5 M234.3,617.2l1.1,7.3 M235.4,624.5l1.6,4.9"/>
	<path class="st8" d="M237,629.4v8.1 M237,637.5l0.8,5.8 M237.8,643.3l-1.1,4.3 M236.7,647.6l1.4,7.2 M238.1,654.8l1.1,10.2
		 M239.2,665l2.5,41.1 M241.7,706.2l1.7,11.6 M243.4,717.8l5,17.7 M248.4,735.5l15.8,24 M264.1,759.5v11.8 M264.1,771.3l-2.9,12.2
		 M261.3,783.4l2.2,11.6 M263.5,795l5.8,6.6 M273.2,807.8l-3.9-6.2 M276.7,810.8l-3.5-3 M281.8,813.4l-5.1-2.6 M286.9,815.5
		l-5.1-2.1 M291.1,820.3l-4.3-4.8 M293.4,823.6l-2.3-3.3 M296.4,825.7l-3-2.1 M298.7,828.9l-2.3-3.1 M301.6,831.7l-2.9-2.8
		 M307,835.5l-5.5-3.8 M313.1,838.5l-6.1-3.1 M318.9,839.6l-5.8-1 M322.8,839.6h-3.9 M336.5,838.1l-13.7,1.4 M343.4,837l-6.9,1.1
		 M348.2,835.9l-4.8,1.2 M349.5,833.8l-1.3,2 M349.9,831.5l-0.4,2.4 M350.8,832.4l-0.9-0.9 M351.9,844.5l-1.1-12.1 M350,847.8
		l1.9-3.4 M343.9,849.9l6.1-2.1 M334.1,851.5l9.8-1.6 M326.4,851.8l7.7-0.3 M317.6,851l8.8,0.8 M311.2,848.9l6.5,2.1 M303.1,844.8
		l8,4.1 M298.4,840.4l4.7,4.4 M297.6,835.5l0.8,4.9 M296.3,831l1.3,4.6 M293.5,828.3l2.8,2.7 M287.6,826.2l5.9,2.1 M280.1,822.2
		l7.5,4 M272.3,818l7.8,4.2 M271.9,817.6l0.4,0.3 M270.7,815.6l1.2,2.1 M269.3,801.6l1.4,13.9 M106.6,451.8h-1.7 M104.9,451.8
		l-5.9-3.1 M99,448.7l-3.3-3 M95.8,445.8l-9.1-7.5 M86.7,438.3l-3.6-4.6 M59.8,409.4l-5-12.2 M37.9,363.6l-11.5-19.7 M26.4,343.9
		l-4.9-12.3 M21.5,331.6L19,320.8 M90.3,397.4l7.9-1.6 M290,625.4v-5.1 M315.4,744.5l-4.4-14.8 M265.9,441.8l-11.3,8.2 M107.2,411.4
		l-2,1 M128.3,139l-9,3.4 M72,285.5l2.5-6.1 M177.3,306.4l1.2-21.3 M178.3,249.1l-2.2-22 M147.9,112.6l-1,7.7 M63.8,338.4l3.3,16.3
		 M86.9,259.5l2.4-7 M276.7,807.8l4.1,1.7 M55.5,318.1l4.7,9.1 M131.3,162.3l10.4-3.6 M310.9,729.7l-4.3-20.9 M314,769.3l-7-5.3
		 M280.7,809.5l10.4-8.2 M57.7,180.5L55.3,192 M276.2,414.5l-1.2,1.1 M248.7,403.4l5.5-4.9 M258.5,357l4.1,5.4 M280.9,382.1l3-0.9
		 M244,407.3l4.7-3.8 M261.5,439.3l-1.6,2.7 M255.1,441.9l-2.1-1.5 M258.5,339.2V357 M255.2,269.8l2.1,31.2 M266.3,406.8l-1.4-0.9
		 M276.5,415.2l-0.3-0.7 M284.4,280l-3.3-0.6 M260.7,419.9l2.6-4.9 M263.2,382.2l6.4,0.8 M273,440.7l2.6-5.1 M275.5,417.7l-0.1,0.3
		 M270.1,430.9l1.7-5.6 M248.5,416.7l-3.1,0.6 M138.8,83.9l2.3,4.6 M117.5,442.5l3.2,4 M135.4,464.2l-11.3-3.3 M119.7,451l-3.6,0.5
		 M192.5,468.7l-12.4-1.7 M17,277l-3.6,14.3 M128.3,139l-2.4,5.4 M273,440.7l-0.8,2.1 M284.1,503.5v-14.7 M273.6,266.4l-1.4-6.7
		 M112.1,389.9l0.1-10.3 M108.4,310.5l7.5,23.1 M254.6,450.1l-16.4,8.2 M254.5,316.7l4,22.4 M256.9,409.3l-3.5,2.7 M149.2,466.6
		l-13.8-2.3 M113.3,454.7l-5.8-2.9 M266.6,410.9l0.5-2.2 M169.1,466.6h-19.9 M264.1,432.4l-2.7,6.9 M124.1,461l-10.8-6.2 M281,425.1
		l2-3.4 M349.9,831.5l-4-5.5 M145.7,120.2l-5.8,1 M290.5,279.8l-6.1,0.3 M141.5,138.7l0.7,4.1 M177.1,343l2.1-16.1 M306.9,761.7
		l4.4-2.7 M319.2,793l-1.8-12.4 M257.3,301l-2.8,15.8 M269.6,383h6.4 M276.1,383l4.9-0.9 M263.1,395.1l-0.9-6.4 M254.2,398.5l4-1.8
		 M267.1,408.7l-0.8-1.9 M266.1,248l-3.5-5.6 M304.3,691.3L300,682 M291.1,801.2l7.4-9.2 M180.1,465.9l-1.7-43 M143.5,92.2l2,2.1
		 M123,168.4l8.3-6.1 M178.8,382.7V368 M125.7,442.2l-3.4,1.5 M111.6,411.4h-4.4 M116,451.5l-3.8-2.2 M287.1,537.9l-2.9-34.4
		 M137.1,79.1l1.8,4.8 M117.7,403.3l9.7,5.3 M107.8,395.9l4.3-5.9 M179.1,326.9l-1.8-20.5 M67.1,354.7l8.4,19.6 M135.9,74.8l1.2,4.3
		 M265.9,441.8l1.3-5 M105.9,400.2l1.9-4.3 M78.1,161.6l-17,11.6 M267.2,436.9l2.9-6 M125.9,144.3l-4.9,16.2 M55.3,192l-6.8,21
		 M262.2,406.5l-3.4,1.5 M180.1,465.9l-11,0.6 M335.1,814.7l-4.7-7.7 M119.4,142.3L91.6,154 M56.6,300.1l4.3-0.8 M60.3,327.2
		l3.5,11.2 M48.5,213l-9.3,20 M112.3,357.6v22.1 M252.2,438l1-3.3 M112.2,449.2l-5.6-5.6 M23.4,262.2L17,277 M126,416.1h-2.9
		 M265.2,413l1.4-2.1 M128.7,414.8l-2.6,1.3 M317.5,780.6V774 M200.2,135.7h-7.4 M251.2,414.4l-2.6,2.3 M83.2,267.5l3.7-8
		 M89.3,252.6l4.4-5.9 M306.8,789.1h8.1 M98.2,395.9h9.6 M105.9,400.2h4.4 M127.4,408.7l1.3,2.6 M105.2,430l5,6.3 M178.8,368
		l-1.7-25 M177.6,264.6l0.8-15.4 M61,173.1l-3.3,7.4 M253.2,434.6l3.5-5.6 M262.6,362.4l0.6,19.8 M273.4,417.9l-2.4,4.3
		 M262.6,242.4l-2.3-2.4 M257.8,442.8l-2.8-0.9 M258.2,396.8l4.9-1.6 M281.1,279.4l-5-6.1 M126.3,434.6l1,4.3 M242.4,409.5l1.6-2.2
		 M300,682v-11.8 M105.2,415.3l2.7,2.5 M306.7,708.8l-2.4-17.5 M121,160.5v11.8 M228.3,461.2l-6.5,4.8 M274.9,415.6l-1.5,2.3
		 M136.4,69.7l-0.6,5.1 M136.1,125.7l-5.3,7.9 M291.5,635.2h-3.7 M105.2,412.3v2.9"/>
	<path class="st8" d="M145.3,131.6l-3.8,7.1 M242,414.3l-0.4-2.4 M120.7,450l-1.1,1 M317.5,774l-3.5-4.8 M202.8,468.7h-10.3
		 M290,620.2l-3.5-3.8 M271.8,425.3l1.6-4.1 M272.3,442.8l-2.7,1.2 M269.6,444l-2.7-1.1 M86.4,397.4h3.8 M258.9,407.9l-2,1.4
		 M278.4,428.8l1.5-1.4 M275.6,435.6l2.8-6.8 M273.4,421.1l1.9-3.1 M123.1,416.1l-5.1-2.9 M178.5,285.1l-1-20.6 M314.9,789.1
		l4.4,3.9 M91.6,154l-13.5,7.5 M63.8,295.9l8.2-10.4 M113.3,421.6l8.1,7.5 M74.5,279.4l8.7-11.9 M276.1,273.4l-2.5-7 M13.5,291.3
		l-1.6,9.4 M298.5,792.1l8.3-3 M323.7,799.2l-4.4-6.2 M127.4,438.9l-1.6,3.3 M121,172.3l2-3.9 M141.8,158.7h7.2 M330.4,807l-6.7-7.8
		 M243.6,416.2l-1.5-1.8 M268.1,252.8l-2-4.8 M255.6,252.7l-0.5,17.1 M253.4,412l-2.2,2.5 M257.1,240.3l-2,2.4 M260.4,240l-3.3,0.4
		 M279.8,427.4l1.1-2.3 M264.9,405.9l-2.7,0.6 M271,257.5l-2.9-4.7 M263.4,415.1l1.8-2.1 M262.2,388.8l1.1-6.5 M121.4,429.1l4.9,5.5
		 M139.9,121.2l-3.9,4.4 M118,413.2l-6.4-1.8 M141.2,88.5l2.3,3.8 M61,299.3l2.9-3.4 M192.9,135.7l-5.7-1.5 M110.3,400.2l7.5,3.1
		 M110.2,436.3l7.3,6.2 M145.5,94.4l2.4,18.2 M130.7,133.6l-2.4,5.4 M107.9,417.7l5.4,3.9 M115.8,333.6l-3.6,24 M39.2,233
		l-15.8,29.1 M221.8,466.1l-18.9,2.7 M128.7,411.3v3.5 M99.8,425l5.4,5 M120.7,446.5v3.5 M300,670.2l0.5-14.7 M311.3,759l4.1-7.8
		 M269.3,801.6l7.3,6.1 M178.4,422.9l-1.9-15.3 M238.1,458.3l-9.9,3 M306.9,763.9v-2.2 M75.4,374.3l4.2,16.4 M79.6,390.7l6.8,6.7
		 M255.1,242.7l0.5,9.9 M315.4,751.1v-6.6 M294,636.7l-2.5-1.5 M180.1,467l0-1.1 M256.7,429l4-9.1 M271,422.2l-2.6,3.1 M272.2,259.7
		l-1.2-2.3 M241.6,412l0.7-2.5 M274.2,445l-1.2-4.2 M259.9,442l-2,0.8 M176.5,407.6l2.3-24.9 M176.2,227.2l0.7-32.4 M266.9,442.9
		l-1-1.1 M286.5,593.6l3.4-9.7 M289.8,583.8l1.7-7.9 M300.6,655.5l-6.6-18.7 M287.8,635.2v-4.4 M287.8,630.8l2.2-5.5 M252.9,440.4
		l-0.7-2.5 M245.5,417.3l-1.9-1.1 M268.4,425.3l-4.3,7.1 M211.1,99.2l-0.6,1.1 M219,96.2l-3.2,9.2 M297.9,390l-0.1-1.2 M271.8,425.3
		l-0.8-3 M145.7,120.2l1.1,0.2 M307,381.7l-5.7-3.3 M301.3,378.4l-6.1-3.5 M301.3,378.4l0.4-6 M294.5,380.1l0.5,1.7 M301.3,378.4
		l-6.7,1.6 M210.5,100.3l-5.2,1.1 M197.4,99.7l1.2-0.2 M205.3,101.3l-6.8-1.8 M302.4,294.6l3.9-6.2 M175.3,818.3l5.3-7.7
		 M129.5,829.1l8.7-17.9 M301.8,294.6l-5.2,26.3 M283.3,422l0.9-1.4 M161.9,66l6.3-9.9 M286.4,420.2l2-5.7 M105.7,488.5l8.6,47.8
		 M83.1,433.7l-12.2-5.2 M70.9,428.5l-11.1-19.1 M54.7,397.2l-16.8-33.5 M108.4,310.5l-14.6-63.8 M111.2,433.1l11.2,10.6
		 M111.2,433.1L99.8,425 M274.2,445l9.9,43.8 M286.5,593.6v22.9 M291.5,575.9l-4.4-38 M145.3,131.6l1.5-11.2 M187.2,134.1l-14.8-6
		 M345.9,826l-10.8-11.3 M276.5,415.2h3.9 M145.5,94.4l2.5,1.5 M212.2,93.6v3.5 M148,95.9h3.7 M151.7,95.9l1.6-1.6 M210.4,86.2
		l1.9,7.4 M212.2,97.1l-1.1,2.1 M283.3,419.3l-2.3-1.4 M280.9,417.9l-2.9-1.1 M284,420.9l-0.7-1.6 M207.9,79.5l2.5,6.7 M206.5,73.6
		l1.4,5.9"/>
</g>
</svg>
