<?xml version="1.0" encoding="utf-8"?>
<!-- Generator: Adobe Illustrator 20.0.0, SVG Export Plug-In . SVG Version: 6.00 Build 0)  -->
<svg version="1.1" id="Layer_1" xmlns="http://www.w3.org/2000/svg" xmlns:xlink="http://www.w3.org/1999/xlink" x="0px" y="0px"
	 viewBox="0 0 402 877.5" style="enable-background:new 0 0 402 877.5;" xml:space="preserve">
<style type="text/css">
	.st0{fill:#5F5622;}
	.st1{fill:#B4B79E;}
	.st2{fill:#214A71;}
	.st3{fill:#F4D1AD;}
	.st4{fill:#303030;}
	.st5{fill:#EEE5D3;}
	.st6{fill:none;stroke:#000000;stroke-miterlimit:10;}
</style>
<g>
	<path class="st0" d="M169,805.7l1.5,7.7l-4.2,1.9l-4.6,1.4l-8.6,2.6l-17.2,2.5l-9.4,0.8l-9.2,2.3l-16.9,4.6l-17.4,3.4l-8,0.3
		l-8.2-1.5l-16.3-3.8l-7.6-3.5l-4.5-2.3l-2.7-3.8l2.5-1.8l5.6-2.3l5.2-1.4l2.9-1.1l2.6-0.5l5.9-0.8l11.6-2.2l10.5-4.4l2.4-1.3
		l2.3-2.3l5-4.1l4.1-4.1l3.3-5l4.2-4.3l5.4-3l3.2,4.1l3.7,3.6l4.2,3.1l4.5,2.6l4.8,2l5,1.4l5.2,0.8l5.2,0.1l5.2-0.5l5.1-1.2l4.9-1.8
		l4.6-2.4l1.7,1l0.9,2l0.6,3.3L169,805.7z M169,805.7"/>
	<path class="st1" d="M166.3,815.3l4.2-1.9l-0.5,7.8l-0.6,2.1l-1.4,1.5l-3.3,1.5l-14.9,3.1l-7.8,1.1l-8,0.4l-15.4,2.2l-7.3,1.5
		l-7.5,2.9l-15.1,3.8l-4,0.6l-3.3-0.1l-7.4,0l-4.1-0.1l-3.3-0.4l-3.9-0.1l-3.4-0.9l-4.2-1.1l-3.2-0.8l-7.3-2.8l-3.8-1.6l-1.9-0.9
		l-1.1-0.9l-3.2-2.8l-1.5-1.6l0-1.7l0.6-5.5l1.9-2.4l2.7,3.8l4.5,2.3l7.6,3.5l16.3,3.8l8.2,1.5l8-0.3l17.4-3.4l16.9-4.6l9.2-2.3
		l9.4-0.8l17.2-2.5l8.6-2.6L166.3,815.3z M166.3,815.3"/>
	<path class="st2" d="M112.5,783.7l-3.2-4.1l-0.5-0.4l0.5-1.8l0.4-2.3l-0.5-5.3l-0.6-4.6L108,763l0.2-3l-0.3-10.3l-0.7-10.1l-0.4-5
		l0.2-5.8l0.7-9.8l-0.4-9.7l-0.1-5.1l-0.4-4.6l-1.6-2.8l-0.9-5.1l-0.5-9.8l0.6-19.2l1.5-8.8l1.9-9.7l0.7-9.8l-2.3-9.5l-1.3-8.8
		l-0.4-9.9l-0.5-4.1l0-4.5l0.6-10.4l2.5-17l1.6-8.5l0.6-8.2l-1,0l0.4-6.1l-0.3-7.3l0-7.5l-0.9-7.8l-0.9-32.7l0.5-14.3l2.8-14.4
		l3.9-29.3l0.8,0.2l1.3-0.3l2.2-0.1l4.7-0.3l4.5-0.5l4.7-0.8l0.8,0l1,0.8l1.1,2l2.8,3.9l2.7,4.2l3.5,4.3l8.1,6.4l4.1,3l5.7,3.4
		l5.5,2l5.6,1.3l5.9,1.6l2.9,2.5l5.2,1.3l11.6,2.7l22.5,4.7l22.6,5.1l11.9,1.1l5.1,0l6.9,1.4l11.1,0.8l11.8-0.2l5.1-0.6l3.8-0.9
		l-0.4,2.6l-2.7,4.9l-1.8,6.6l-4.3,11.9l-1.8,5.3l-0.6,6.7l-0.5,12.2l4.7,3.5l2.6,1.1l5.8-0.7l-0.5,2.6l-2.6,12.9l-2.3,15.2
		l-2.1,14.4l-1.5,14.4l-2.2,14.9l-1.1,7.8l-1.6,8.1l-1.4,7.5l-0.3,7.6l0.6,7.6l1.6,6.4l-2.5,18.5l-2.9,38.9l-4.8,18.6l-8.5,19.9
		l-2.1,10l-0.7,9.1l-1.7,20.8l-1.3,5.1l-3.3,4.6l-3.3,4.3l-1.3,1.8l-2.6,1.4l-2.9-1.8l-6.2-5.7l-6.5-3l-6.5-2.4l-6.5-1.9l-7-0.9
		l-6.3,0.2l-3.4,1.8l-1.3-2.4L204,790l-0.4-2.6l0.1-3.2l0.4-2.6l1-2.9l1.8-6l3.3-11.3l0.7-2.7l0.3-1.9l1.1-1.7l1-7.9l0.5-18.5
		l-1.7-17l0.1-7.5l0.9-8.9l1.3-7.6l0.6-8.5l1.9-12.6l-0.5-12.3l-1.2-12.2l-1.6-6.7l0.1-5.7l-0.2-12.3l-3.8-11.8l-1.1-11.7l-1.5-6.5
		l0.3-5.8l-1.4-7.3l-0.9-7.5l-1.3-7.2l-2.4,1.2l-0.9,2.2L200,567l-2.7,8.1l-5.8,17.5l-2.6,9.4l-3.2,8.9l-4.2,8.8l-2.2,4.7l-2.5,3.5
		l-2.7,13.3l0.3,8.2l0.7,6.8l-0.3,15.4l0,4.1l0.5,4.1l0.8,6.6l-1,23.7l-0.3,13.1l0.9,12.7l-1.5,14.4l-2.8,14.9l-1.8,7.1l-1.2,6.1
		l-1.1,6.9l-0.9,3l-1.7,3.2l-4.6,2.4l-4.9,1.8l-5.1,1.2l-5.2,0.5l-5.2-0.1l-5.2-0.8l-5-1.4l-4.8-2l-4.5-2.6l-4.2-3.1L112.5,783.7z
		 M112.5,783.7"/>
	<path class="st0" d="M243.8,840.2l-2.2,6.8l-3.7,2.9l-4,1.6l-4.2,1l-3.9,0.2l-7.9,0l-7.9-0.8l-15.7-2.9l-8-1.8l-3.9-0.6l-4.7,0.4
		l2.3-3.3l3.4-6.8l4.2-6.7l7.5-12.5l6.1-13.2l2.9-6.6l2.3-2.1l3.4-1.8l6.3-0.2l7,0.9l6.5,1.9l6.5,2.4l6.5,3l6.2,5.7l2.9,1.8l1.3,1.5
		l0.3,1.8l0.1,7.2l-0.1,1.2l-3.3,5l-3,7.2L243.8,840.2z M243.8,840.2"/>
	<path class="st1" d="M237.9,849.8l3.7-2.9l-0.8,3.2l-1.7,4l-3.1,2.7l-3.3,2l-6.7,2.1l-6.6,1.3l-3.1,0.6l-3.6-0.1l-7.3-0.3l-3.1-0.1
		l-3.6-0.7l-7.2-2.1l-6.5-0.8l-7.1-2.2l0.4,0l-1.1-0.7l-0.7-1.9l0.2-4l1.1-3.1l4.7-0.4l3.9,0.6l8,1.8l15.7,2.9l7.9,0.8l7.9,0
		l3.9-0.2l4.2-1L237.9,849.8z M237.9,849.8"/>
	<path class="st3" d="M114.5,434.4l-0.8-0.2l0.5-2.3l1.1-1.3l3.4-3.4l7.8-4.9l3.6-1.1l1.8-0.7l0.2,2.7l0,7.2l-0.2,1.9l-4.7,0.8
		l-4.5,0.5L118,434l-2.2,0.1L114.5,434.4z M114.5,434.4"/>
	<path class="st4" d="M132.6,432.4l-0.8,0l0.2-1.9l0-7.2l-0.2-2.7l-1.8,0.7l-3.6,1.1l-7.8,4.9l-3.4,3.4l-1.1,1.3l-0.5,2.3l-1.7-2.7
		l0.1-2.8l-1.9-5l-3.8-9.4l-4.6-9.6l-1.9-11l-1.5-4.9l-0.1-4.8l-0.8-9.6l-0.7-10.1l1-10.8l1.3-18.5l5.3-19.9l3.1-9l2.9-10l2.6-9.4
		l1.2-9.8l-1.5,0.4l-0.3-1.2l0.1-8.4l0.9-5.8l-0.2-5.8l0.7-10.7l3.8-12.4l2-4.9l1.2-5.7l5.2-12l4.9-11.1l3.8-11.4l1.5-4.8l3.2-5.4
		l9.7-8.5l10-5.9l5.7-3.1l6.2-1.7l10.5-2.6l-0.9,2.5l0.1,2.9l0.1,1.2l-0.6,1.8l-1.8,2.5l2.3,0.4l2.9-0.9l2.9-1.3l2.9-0.9l2.3-0.6
		l1.2-0.4l0.6,0l1,0.4l1.6,2.5l2.3,2.1l5.1,2.2l5.1,4l2.3,1.2l2.2,2.2l0.7,3l0.4,3l0.4,5.4l0.7,6l0.2,11.6l1.5,1.2l2.2-2.2l4.9-4.3
		l5.5-3.7l1.2-1l3.6-3.1l5.5-3.9l5.2-4.6l6.1-2.7l1.3-0.6l0.7-0.4l0.7-0.1l-0.9-1l2.4-0.4l2.2-0.7l0.7-2.4l1.3,0.8l1.6,0.3l2.8-0.1
		l5.4-1.7l5.1-3.8l2.4-1.6l2.5-3.6l1.8,1.5l4.6,7.5l1.9,3.5l1.7,1.7l2.3,1.2l4.3,1.3l1.9,0.2l0.5,0l-0.2-0.5l-0.6-1.4l0.8-3.9
		l-0.1-4.4l0.9-8.5l0.6-3.7l1.3-4.3l0.4-4.4l0.1-2l0-0.9l0.7-1.1l3.5,2.9l5.3,2.3l5,3l4.8,3.2l4.7,3.7l5.4,2.3l2.5,1.5l3.7,1.2l5,3
		l2.5,1.7l2.2,2.4l4.2,4.1l5.2,4.7l5.6,10.4l3.6,4.6l1.9,2.4l0.3,1.4l0.5,0.5l-0.1,2l0.7,7.1l3.6,7l4.5,13.1l6,27.3l-0.1,13.9
		l1.5,13.6l1.8,14l-0.4,15.3l1.2,13.8l-1,6.3l0.6,7.6l-0.4,13.9l0,2.5l-1.6,3.5l-0.4,7.6l-0.1,14l-3.2,14l-2.2,6.4l-1.9,7.7
		l-1.3,3.8l-2.5,3.2l-2.6,7.4l0,2.3l-1.3,2.6l-1.8,4.4l-3.3,9.7l-1.1,4.6l-2.2,4.6l-0.7,4.7l-1.6,5.3l-4.5,19.1l-2.5,8.9l-2,10.1
		l-2.3,9.2l-1.6,0.7l-5.4,0l-1-1.4l-1.5-0.4l-2.8-1.7l-6-1.5l-12.1-3.7l-5.9-2l-3-1.5l-3-0.5l-5.9-1.6l-2.9-0.9l-1.5-0.5l-0.9-2.4
		l1.8-6.6l2.7-4.9l0.4-2.6l-3.8,0.9l-5.1,0.6l-11.8,0.2l-11.1-0.8l-6.9-1.4l-5.1,0l-11.9-1.1l-22.6-5.1l-22.5-4.7l-11.6-2.7
		l-5.2-1.3l-2.9-2.5l-5.9-1.6l-5.6-1.3l-5.5-2l-5.7-3.4l-4.1-3l-8.1-6.4l-3.5-4.3l-2.7-4.2l-2.8-3.9l-1.1-2L132.6,432.4z
		 M132.6,432.4"/>
	<path class="st3" d="M289.8,509l4.3-11.9l0.9,2.4l1.5,0.5l2.9,0.9l5.9,1.6l3,0.5l3,1.5l5.9,2l12.1,3.7l6,1.5l2.8,1.7l1.5,0.4l1,1.4
		l-0.9,0.2l-0.7,1.8l-1.6,9.3l-0.5,4.5l-0.5,2.7l-2,2.3l-4.5,1.8l-4.5-0.7l-1.8-0.5l-1.6,2.3l-5.4,0.9l-1.8,0l-2-2.1l-0.9-0.2
		l-0.5,1.8l-2.5,1.6l-4.5,0.7l-2.7-1.1l-2.4-0.7l0.5-2.6l-5.8,0.7l-2.6-1.1l-4.7-3.5l0.5-12.2l0.6-6.7L289.8,509z M289.8,509"/>
	<path class="st5" d="M180.9,158.7l0.9-2.5l4-4.8l3.1-5.4l10.5-6.2l5.7-3.4l4.5-4l-0.8,1.5l0.9,0.9l1.6,1.9l1,2.2l0,3.5l0.4,1.2
		l0.4,2.3l-0.1,4.7l-1.4,1.8l-0.5,1.6l-1.2,3.2l-1.3,3.2l-1.7,3l-0.4,1.6l0.9,1.5l2.4,2.4l4.4,5.3l4.9,5l5.6,4.6l1.6,3.1l0.9,1.5
		l0.3,1.6l1.4,3.1l0.8,1.6l0.4,1.1l0.9,1.2l-1.2,1l-5.5,3.7l-4.9,4.3l-2.2,2.2l-1.5-1.2l-0.2-11.6l-0.7-6l-0.4-5.4l-0.4-3l-0.7-3
		l-2.2-2.2l-2.3-1.2l-5.1-4l-5.1-2.2l-2.3-2.1l-1.6-2.5l-1-0.4l-0.6,0l-1.2,0.4l-2.3,0.6l-2.9,0.9l-2.9,1.3l-2.9,0.9l-2.3-0.4
		l1.8-2.5l0.6-1.8l-0.1-1.2L180.9,158.7z M180.9,158.7"/>
	<path class="st4" d="M234.5,193.7l-3.6,3.1l-0.9-1.2l-0.4-1.1l-0.8-1.6l-1.4-3.1l-0.3-1.6l-0.9-1.5l-1.6-3.1l-5.6-4.6l-4.9-5
		l-4.4-5.3l-2.4-2.4l-0.9-1.5l0.4-1.6l1.7-3l1.3-3.2l1.2-3.2l0.5-1.6l1.4-1.8l-1.3,8.9l0.1,2.4l1.1,2.4l1.1,2.2l1.4,1.9l3.6,2.5
		l4.4,2.4l4.2,2.8l2.3,1.3l2.3,0.8l4.1,1.4l5,0.3l9.9,0.5l1.8,0l0.9,1l-0.7,0.1l-0.7,0.4l-1.3,0.6l-6.1,2.7l-5.2,4.6L234.5,193.7z
		 M234.5,193.7"/>
	<path class="st3" d="M258.5,176.8l-0.7,2.4l-4.6,1.2l-1.8,0l-9.9-0.5l-5-0.3l-4.1-1.4l-2.3-0.8l-2.3-1.3l-4.2-2.8l-4.4-2.4
		l-3.6-2.5l-1.4-1.9l-1.1-2.2l-1.1-2.4l-0.1-2.4l1.3-8.9l0.1-4.7l-0.4-2.3l-0.4-1.2l0-3.5l-1-2.2l-1.6-1.9l-0.9-0.9l0.8-1.5
		l-1.8-0.9l-0.4-1.6l-1.6-3.1l-1.4-3.1l-0.6-4.3l-0.6-3.3l-0.2-1.6l-2-1.4l-2-2.6l0-4l1.2-3.2l-1-3.2l-2.4-7.3l-0.7-7.2L197,84
		l1.6-1l3.6-2.6l-0.1,1.7l1.4,0.8l0.8,0l0.6-1.6l0.7-4.6l5.5-0.6l-0.2,0.9l-0.1,0.9l0,0.9l0.1,0.9l0.2,0.9l0.3,0.9l0.3,0.9l0.4,0.8
		l0.5,0.8l0.6,0.7l0.7,0.7l0.7,0.6l1.4,0.4l1.4,0.4l1.4,0.3l1.4,0.3l1.4,0.2l1.4,0.2l1.4,0.2l1.4,0.1l1.5,0.1l1.5,0l1.5,0l1.5,0
		l0.8-0.5l0.8-0.6l0.7-0.6l0.7-0.7l0.6-0.7l0.6-0.7l0.5-0.8l0.5-0.8l0.4-0.8l0.4-0.9l0.3-0.9l0.3-0.9l0.3-1l7.6,1.5l-0.2,1.3
		l0.1,1.4l-0.1,2.7l0.3,2.6l0.6,1.4l0.7,1.3l1.1,0.7l1.4,0.7l2.8,0.8l1.2,0.4l4.3,0.8l6,0.6l2.8,0.3l1.5,0l1.4-0.3l1.2-0.5l0.6-0.4
		l0.6-0.6l0.6-0.6l0.5-0.6l0.5-0.7l0.4-0.7l0.4-0.7l0.4-0.7l0.3-0.8l0.3-0.8l0.2-0.8l0.2-0.8l0.1-0.8l16.9,8.4l1.7-0.1l1.4,0.8
		L301,94l3.9,6.2l0.2,3.6l-1.3,3.8l-5,4.9l-3.4,7.2l-0.4,2.9l-0.5,1.5l-2.2,0.7l-0.7,0l-2.5,0l-1,0.6l0.8,5.8l-0.7,8.8l-0.3,5
		l-0.4,2.5l-1,2.2l-1.6,4.7l-2.8,3.5l-8.1,6.5l-0.3,1.2l-1.2,0.4l-2.2,0.9l-4.1,2.4l-2.5,1.6l-1.6,2.1L258.5,176.8z M258.5,176.8"/>
	<path class="st3" d="M295.2,93.5l-1.7,0.1l-16.9-8.4l-0.1,0.8l-0.2,0.8l-0.2,0.8l-0.3,0.8l-0.3,0.8l-0.4,0.7l-0.4,0.7l-0.4,0.7
		l-0.5,0.7l-0.5,0.6l-0.6,0.6l-0.6,0.6l-0.6,0.4l-1.2,0.5l-1.4,0.3l-1.5,0l-2.8-0.3l-6-0.6l-4.3-0.8l-1.2-0.4l-2.8-0.8l-1.4-0.7
		l-1.1-0.7l-0.7-1.3l-0.6-1.4l-0.3-2.6l0.1-2.7l-0.1-1.4l0.2-1.3l-7.6-1.5l-0.3,1l-0.3,0.9l-0.3,0.9l-0.4,0.9l-0.4,0.8l-0.5,0.8
		l-0.5,0.8l-0.6,0.7l-0.6,0.7l-0.7,0.7l-0.7,0.6l-0.8,0.6l-0.8,0.5l-1.5,0l-1.5,0l-1.5,0l-1.5-0.1l-1.4-0.1l-1.4-0.2l-1.4-0.2
		l-1.4-0.2l-1.4-0.3l-1.4-0.3l-1.4-0.4l-1.4-0.4l-0.7-0.6l-0.7-0.7l-0.6-0.7l-0.5-0.8l-0.4-0.8l-0.3-0.9l-0.3-0.9l-0.2-0.9l-0.1-0.9
		l0-0.9l0.1-0.9l0.2-0.9l-5.5,0.6l0.2-1.1l0-2.4l0.2-0.6l5.1-0.6l0.1-0.6l0.2-0.6l0.2-0.5l0.3-0.5l0.4-0.4l0.4-0.4l0.5-0.3l0.5-0.3
		l0.5-0.2l0.6-0.1l0.6,0l0.6,0l18.3,2.8l0.5,0.1l0.5,0.2l0.5,0.2l0.5,0.3l0.4,0.3l0.4,0.4l0.4,0.4l0.3,0.4l0.3,0.5l0.2,0.5l0.2,0.5
		l0.1,0.5l8.4,1.7l0.2-0.6l0.2-0.5l0.3-0.5l0.4-0.5l0.4-0.4l0.5-0.4l0.5-0.3l0.5-0.2l0.6-0.2l0.6-0.1l0.6,0l0.6,0.1l20.4,3.2
		l0.6,0.2l0.6,0.3l0.6,0.3l0.5,0.4l0.5,0.4l0.5,0.5l0.4,0.5l0.4,0.6l0.3,0.6l0.2,0.6l0.2,0.6l0.1,0.7l12.7,6.3l4.7,4.1L295.2,93.5z
		 M295.2,93.5"/>
	<path d="M295.2,93.5l-0.2-0.8l-4.7-4.1l-1.2-3.1l0-8.3l0.2-11.3l0.8-5.7l-0.2-4.8l-0.8-5.6l-0.4-3.2l-1.2-2.4l-3.6-4.8l-2.6-2.2
		l-2.4-1.2l-5.6-0.8L257,35.3l-11.2-0.6l-5.6-0.8l-3.2-0.8l-2-1.6l-1.4-1l-1.6,0l-2.4,0.8l-1.6,0.4l-3,3l-4.6,3.8l-3.1,4.2l-3.3,5.2
		l-2.9,5.4l-2.1,5.4l-1.3,5.6l0,3.2l-0.8,2.4l-0.7,2.6l-0.2,0.6l0,2.4l-0.2,1.1l-0.7,4.6l-0.6,1.6l-0.8,0l-1.4-0.8l0.1-1.7l-0.8-1
		l-0.2-2.6l0.8-4l0.2-4.2l0.8-4.2l2.1-8.2l0.6-4.2l1.6-4.8l4.6-7.7l3-3l3.8-2.8l7.2-5.4l3.2-3.2l4.6-2.2l2.9-2.3l3.8-1.7l7.6-2.1
		l3.8-0.6l3.8,0.2l7.7,0.8l6.9,1.3l1.5,0.4l2.1,1.3l3.5,2.3l6.8,4.6l1.4,0.8l3.1,3.1l1.2,2.1l1.8,2.9l2.7,3.1l2.3,3.5l1.6,4.3
		l2.8,7.8l1.8,3.7l0.6,3.9l-0.4,15.8l-0.3,8L301,94l-4.4,0.3L295.2,93.5z M295.2,93.5"/>
	<path class="st3" d="M211.2,72.1l-5.1,0.6l0.7-2.6l0.8-2.4l0-3.2l1.3-5.6l2.1-5.4l2.9-5.4l3.3-5.2l3.1-4.2l4.6-3.8l3-3l1.6-0.4
		l2.4-0.8l1.6,0l1.4,1l2,1.6l3.2,0.8l5.6,0.8l11.2,0.6l16.1-0.1l5.6,0.8l2.4,1.2l2.6,2.2l3.6,4.8l1.2,2.4l0.4,3.2l0.8,5.6l0.2,4.8
		l-0.8,5.7L289,77.2l0,8.3l1.2,3.1l-12.7-6.3l-0.1-0.7l-0.2-0.6l-0.2-0.6l-0.3-0.6l-0.4-0.6l-0.4-0.5l-0.5-0.5l-0.5-0.4l-0.5-0.4
		l-0.6-0.3l-0.6-0.3l-0.6-0.2l-20.4-3.2l-0.6-0.1l-0.6,0l-0.6,0.1l-0.6,0.2l-0.5,0.2l-0.5,0.3l-0.5,0.4l-0.4,0.4l-0.4,0.5l-0.3,0.5
		l-0.2,0.5l-0.2,0.6l-8.4-1.7l-0.1-0.5l-0.2-0.5l-0.2-0.5l-0.3-0.5l-0.3-0.4l-0.4-0.4l-0.4-0.4l-0.4-0.3l-0.5-0.3l-0.5-0.2l-0.5-0.2
		l-0.5-0.1l-18.3-2.8l-0.6,0l-0.6,0l-0.6,0.1l-0.5,0.2l-0.5,0.3l-0.5,0.3l-0.4,0.4l-0.4,0.4l-0.3,0.5l-0.2,0.5l-0.2,0.6L211.2,72.1z
		 M211.2,72.1"/>
	<path class="st5" d="M259.8,177.7l-1.3-0.8l3.4-3.9l1.6-2.1l2.5-1.6l4.1-2.4l2.2-0.9l1.2-0.4l0.3-1.2l3.9,1.2l1.8,1.5l-2.5,3.6
		l-2.4,1.6l-5.1,3.8l-5.4,1.7l-2.8,0.1L259.8,177.7z M259.8,177.7"/>
	<path class="st4" d="M281.4,168.6l-1.8-1.5l-1.8-1.5l-3.9-1.2l8.1-6.5l2.8-3.5l1.6-4.7l1-2.2l0.4-2.5l0.3-5l0.7-8.8l-0.8-5.8l1-0.6
		l2.5,0l-0.2,0.7l1.4,1.8l2,3.3l1.6,6.6l0.7,1.3l0,2.2l0.4,3.7l0.4,1.5l1,1l2.6,1.3l0.9,0.8l-0.7,1.1l0,0.9l-0.1,2l-0.4,4.4
		l-1.3,4.3l-0.6,3.7l-0.9,8.5l0.1,4.4l-0.8,3.9l0.6,1.4l0.2,0.5l-0.5,0l-1.9-0.2l-4.3-1.3l-2.3-1.2l-1.7-1.7l-1.9-3.5L281.4,168.6z
		 M281.4,168.6"/>
	<path class="st6" d="M170.5,813.4l-1.5-7.7 M166.3,815.3l4.2-1.9 M161.7,816.7l4.6-1.4 M153.1,819.3l8.6-2.6 M135.9,821.8l17.2-2.5
		 M126.5,822.7l9.4-0.8 M117.4,824.9l9.2-2.3 M100.5,829.5l16.9-4.6 M83.1,832.9l17.4-3.4 M75.1,833.1l8-0.3 M66.9,831.7l8.2,1.5
		 M50.6,827.8l16.3,3.8 M43,824.4l7.6,3.5 M38.6,822.1l4.5,2.3 M35.9,818.3l2.7,3.8 M35.9,818.3l2.5-1.8 M38.4,816.5l5.6-2.3
		 M43.9,814.2l5.2-1.4 M49.1,812.7l2.9-1.1 M52,811.6l2.6-0.5 M54.6,811.1l5.9-0.8 M60.5,810.4l11.6-2.2 M72.1,808.2l10.5-4.4
		 M82.6,803.8l2.4-1.3 M85.1,802.5l2.3-2.3 M87.4,800.2l5-4.1 M92.4,796.1l4.1-4.1 M96.5,792l3.3-5 M99.7,787l4.2-4.3 M103.9,782.7
		l5.4-3 M109.3,779.7l3.2,4.1 M112.5,783.7l3.7,3.6 M116.3,787.4l4.2,3.1 M120.4,790.5l4.5,2.6 M124.9,793.1l4.8,2 M129.7,795.1
		l5,1.4 M134.7,796.6l5.2,0.8 M139.9,797.3l5.2,0.1 M145.1,797.5l5.2-0.5 M150.3,796.9l5.1-1.2 M155.4,795.8l4.9-1.8 M160.3,794
		l4.6-2.4 M166.5,792.6l-1.7-1 M167.4,794.6l-0.9-2 M168.1,797.9l-0.6-3.3 M169,805.7l-1-7.8 M243.8,840.2l-2.2,6.8 M237.9,849.8
		l3.7-2.9 M233.9,851.4l4-1.6 M229.8,852.4l4.2-1 M225.8,852.5l3.9-0.2 M218,852.5l7.9,0 M210.1,851.7l7.9,0.8 M194.4,848.8
		l15.7,2.9 M186.4,847l8,1.8 M182.5,846.3l3.9,0.6 M177.8,846.8l4.7-0.4 M177.8,846.8l2.3-3.3 M180.1,843.5l3.4-6.8 M183.5,836.7
		l4.2-6.7 M187.7,830l7.5-12.5 M195.2,817.6l6.1-13.2 M201.3,804.4l2.9-6.6 M204.2,797.7l2.3-2.1 M206.4,795.6l3.4-1.8 M209.8,793.7
		l6.3-0.2 M216.1,793.5l7,0.9 M223.1,794.4l6.5,1.9 M229.6,796.4l6.5,2.4 M236.2,798.8l6.5,3 M242.6,801.7l6.2,5.7 M248.8,807.4
		l2.9,1.8 M251.7,809.2l1.3,1.5 M253.1,810.7l0.3,1.8 M253.4,812.5l0.1,7.2 M253.5,819.8l-0.1,1.2 M250,826l-3,7.2 M247,833.2
		l-3.2,7 M295,92.7l0.2,0.8 M293.5,93.6l1.7-0.1 M276.5,85.2l16.9,8.4 M276.4,86l0.1-0.8 M276.2,86.8l0.2-0.8 M276,87.6l0.2-0.8
		 M275.8,88.3l0.3-0.8 M275.5,89.1l0.3-0.8 M275.1,89.9l0.4-0.7 M274.7,90.6l0.4-0.7 M274.3,91.3l0.4-0.7 M273.8,91.9l0.5-0.7
		 M273.3,92.6l0.5-0.6 M272.7,93.2l0.6-0.6 M272.1,93.8l0.6-0.6 M271.5,94.2l0.6-0.4 M270.4,94.7l1.2-0.5 M268.9,95l1.4-0.3
		 M267.4,95l1.5,0 M264.6,94.7l2.8,0.3 M258.6,94.1l6,0.6 M254.3,93.3l4.3,0.8 M253.1,92.9l1.2,0.4 M250.2,92.1l2.8,0.8 M248.9,91.3
		l1.4,0.7 M247.8,90.6l1.1,0.7 M247.1,89.3l0.7,1.3 M246.5,87.9l0.6,1.4 M246.1,85.3l0.3,2.6 M246.2,82.6l-0.1,2.7 M246.2,81.1
		l0.1,1.4 M246.3,79.8l-0.2,1.3 M238.7,78.3l7.6,1.5 M238.5,79.3l0.3-1 M238.2,80.2l0.3-0.9 M237.9,81.1l0.3-0.9 M237.5,82l0.4-0.9
		 M237,82.8l0.4-0.8 M236.5,83.6l0.5-0.8 M236,84.4l0.5-0.8 M235.4,85.2l0.6-0.7 M234.8,85.9l0.6-0.7 M234.1,86.5l0.7-0.7
		 M233.4,87.2l0.7-0.6 M232.6,87.7l0.8-0.6 M231.8,88.3l0.8-0.5 M230.4,88.3l1.5,0 M228.9,88.3l1.5,0 M227.5,88.3l1.5,0 M226,88.2
		l1.5,0.1 M224.6,88.1l1.4,0.1 M223.1,87.9l1.4,0.2 M221.7,87.7l1.4,0.2 M220.2,87.5l1.4,0.2 M218.8,87.2l1.4,0.3 M217.4,86.9
		l1.4,0.3 M216,86.5l1.4,0.4 M214.6,86.1l1.4,0.4 M213.9,85.6l0.7,0.6 M213.2,84.9l0.7,0.7 M212.6,84.2l0.6,0.7 M212.1,83.4l0.5,0.8
		 M211.6,82.6l0.4,0.8 M211.3,81.7l0.3,0.9 M211,80.8l0.3,0.9 M210.9,79.9l0.2,0.9 M210.8,78.9l0.1,0.9 M210.9,78l0,0.9 M211,77.1
		l-0.1,0.9 M211.2,76.1l-0.2,0.9 M205.8,76.7l5.5-0.6 M205.8,76.7l0.2-1.1 M205.9,75.7l0-2.4 M206,73.2l0.2-0.6 M206.1,72.7l5.1-0.6
		 M211.2,72.1l0.1-0.6 M211.3,71.5l0.2-0.6 M211.5,70.9l0.2-0.5 M211.7,70.4l0.3-0.5 M212,69.9l0.4-0.4 M212.4,69.5l0.4-0.4
		 M212.8,69.1l0.5-0.3 M213.3,68.7l0.5-0.3 M213.8,68.5l0.5-0.2 M214.3,68.3l0.6-0.1 M214.9,68.2l0.6,0 M215.5,68.1l0.6,0
		 M216.1,68.2l18.3,2.8 M234.4,70.9l0.5,0.1 M234.9,71.1l0.5,0.2 M235.4,71.2l0.5,0.2 M235.9,71.4l0.5,0.3 M236.4,71.7l0.4,0.3
		 M236.8,72l0.4,0.4 M237.2,72.4l0.4,0.4 M237.6,72.8l0.3,0.4 M237.9,73.3l0.3,0.5 M238.2,73.7l0.2,0.5 M238.4,74.2l0.2,0.5
		 M238.6,74.8l0.1,0.5 M238.7,75.3l8.4,1.7 M247.1,77l0.2-0.6 M247.2,76.5l0.2-0.5 M247.5,75.9l0.3-0.5 M247.8,75.4l0.4-0.5
		 M248.1,75l0.4-0.4 M248.5,74.5l0.5-0.4 M249,74.2l0.5-0.3 M249.5,73.9l0.5-0.2 M250,73.6l0.6-0.2 M250.6,73.5l0.6-0.1 M251.1,73.4
		l0.6,0 M251.7,73.4l0.6,0.1 M272.7,76.6l-20.4-3.2 M272.7,76.6l0.6,0.2 M273.3,76.8l0.6,0.3 M273.9,77.1l0.6,0.3 M274.5,77.4
		l0.5,0.4 M275.1,77.8l0.5,0.4 M275.6,78.2l0.5,0.5 M276,78.7l0.4,0.5 M276.4,79.2l0.4,0.6"/>
	<path class="st6" d="M276.8,79.8l0.3,0.6 M277.1,80.4l0.2,0.6 M277.3,81l0.2,0.6 M277.5,81.6l0.1,0.7 M277.6,82.3l12.7,6.3
		 M290.3,88.6l4.7,4.1 M164.9,791.6l1.7-3.2 M109.3,779.7l-0.5-0.4 M109.3,777.5l0.4-2.3 M109.8,775.2l-0.5-5.3 M109.3,769.9
		l-0.6-4.6 M108.7,765.3L108,763 M108,763l0.2-3 M108.2,760l-0.3-10.3 M107.9,749.7l-0.7-10.1 M107.1,739.6l-0.4-5 M106.7,734.6
		l0.2-5.8 M106.9,728.8l0.7-9.8 M107.6,719l-0.4-9.7 M107.2,709.3l-0.1-5.1 M107.1,704.2l-0.4-4.6 M106.6,699.6l-1.6-2.8
		 M105.1,696.8l-0.9-5.1 M104.2,691.7l-0.5-9.8 M103.7,681.9l0.6-19.2 M104.3,662.7l1.5-8.8 M105.7,653.9l1.9-9.7 M107.7,644.1
		l0.7-9.8 M108.4,634.3l-2.3-9.5 M106.1,624.8l-1.3-8.8 M104.8,616l-0.4-9.9 M104.4,606.2l-0.5-4.1 M103.9,602.1l0-4.5 M103.9,597.6
		l0.6-10.4 M104.5,587.2l2.5-17 M107,570.3l1.6-8.5 M108.6,561.8l0.6-8.2 M109.2,553.5l-1,0 M108.7,547.4l-0.3-7.3 M108.3,540.2
		l0-7.5 M108.3,532.7l-0.9-7.8 M107.4,524.9l-0.9-32.7 M106.5,492.2l0.5-14.3 M107,477.9l2.8-14.4 M109.8,463.5l3.9-29.3
		 M113.7,434.3l0.8,0.2 M114.5,434.4l1.3-0.3 M115.8,434.1l2.2-0.1 M118,434l4.7-0.3 M122.6,433.7l4.5-0.5 M127.1,433.2l4.7-0.8
		 M131.8,432.4l0.8,0 M132.6,432.4l1,0.8 M133.7,433.1l1.1,2 M134.8,435.2l2.8,3.9 M137.6,439.1l2.7,4.2 M140.3,443.3l3.5,4.3
		 M143.8,447.6l8.1,6.4 M151.9,454l4.1,3 M156,456.9l5.7,3.4 M161.7,460.3l5.5,2 M167.2,462.4l5.6,1.3 M172.8,463.7l5.9,1.6
		 M178.7,465.3l2.9,2.5 M181.6,467.8l5.2,1.3 M186.8,469.1l11.6,2.7 M198.4,471.8l22.5,4.7 M220.8,476.5l22.6,5.1 M243.4,481.6
		l11.9,1.1 M255.4,482.6l5.1,0 M260.4,482.7l6.9,1.4 M267.3,484l11.1,0.8 M278.4,484.8l11.8-0.2 M290.1,484.6l5.1-0.6 M299.1,483
		l-0.4,2.6 M298.7,485.6l-2.7,4.9 M295.9,490.5l-1.8,6.6 M294.1,497.1l-4.3,11.9 M289.8,509l-1.8,5.3 M288,514.3l-0.6,6.7
		 M287.4,521.1l-0.5,12.2 M286.9,533.2l4.7,3.5 M291.7,536.7l2.6,1.1 M294.2,537.8l5.8-0.7 M299.5,539.7l0.5-2.6 M296.9,552.6
		l2.6-12.9 M294.6,567.7l2.3-15.2 M292.4,582.1l2.1-14.4 M290.9,596.5l1.5-14.4 M288.7,611.4l2.2-14.9 M287.6,619.2l1.1-7.8
		 M286,627.3l1.6-8.1 M284.6,634.8l1.4-7.5 M284.4,642.3l0.3-7.6 M285,650l-0.6-7.6 M286.6,656.3L285,650 M284.1,674.8l2.5-18.5
		 M276.5,732.3l4.8-18.6 M268,752.2l8.5-19.9 M265.9,762.2l2.1-10 M265.2,771.3l0.7-9.1 M263.5,792.1l1.7-20.8 M262.1,797.2l1.3-5.1
		 M258.8,801.7l3.3-4.6 M255.5,806.1l3.3-4.3 M254.3,807.8l1.3-1.8 M251.7,809.2l2.6-1.4 M206.4,795.6l-1.3-2.4 M205.1,793.2
		L204,790 M204,790l-0.4-2.6 M203.6,787.4l0.1-3.2 M203.7,784.1l0.4-2.6 M204.1,781.5l1-2.9 M205.1,778.6l1.8-6 M206.9,772.6
		l3.3-11.3 M210.2,761.3l0.7-2.7 M210.9,758.7l0.3-1.9 M211.2,756.8l1.1-1.7 M212.3,755.1l1-7.9 M213.3,747.2l0.5-18.5 M213.9,728.7
		l-1.7-17 M212.2,711.8l0.1-7.5 M212.3,704.2l0.9-8.9 M213.2,695.4l1.3-7.6 M214.5,687.7l0.6-8.5 M217.1,666.6l-1.9,12.6
		 M216.6,654.3l0.5,12.3 M215.4,642.2l1.2,12.2 M213.8,635.4l1.6,6.7 M213.9,629.8l-0.1,5.7 M213.7,617.5l0.2,12.3 M209.9,605.7
		l3.8,11.8 M208.8,593.9l1.1,11.7 M207.3,587.5l1.5,6.5 M207.6,581.7l-0.3,5.8 M206.2,574.4l1.4,7.3 M205.4,566.9l0.9,7.5
		 M204,559.7l1.3,7.2 M201.7,560.9l2.4-1.2 M200.7,563.1l0.9-2.2 M200,567l0.8-3.9 M197.3,575.1l2.7-8.1 M191.5,592.6l5.8-17.5
		 M188.9,602l2.6-9.4 M185.7,610.9l3.2-8.9 M181.6,619.8l4.2-8.8 M179.4,624.5l2.2-4.7 M176.8,628l2.5-3.5 M174.2,641.2l2.7-13.3
		 M174.5,649.4l-0.3-8.2 M175.2,656.3l-0.7-6.8 M174.9,671.7l0.3-15.4 M174.9,675.8l0-4.1 M175.4,679.9l-0.5-4.1 M176.2,686.5
		l-0.8-6.6 M175.2,710.3l1-23.7 M174.9,723.4l0.3-13.1 M175.9,736.1l-0.9-12.7 M174.3,750.5l1.5-14.4 M171.5,765.4l2.8-14.9
		 M169.7,772.5l1.8-7.1 M168.5,778.6l1.2-6.1 M167.5,785.4l1.1-6.9 M166.6,788.4l0.9-3 M289,85.5l1.2,3.1 M206.1,72.7l0.7-2.6
		 M206.8,70l0.8-2.4 M207.6,67.6l0-3.2 M207.7,64.4l1.3-5.6 M209,58.8l2.1-5.4 M211.1,53.4l2.9-5.4 M213.9,48l3.3-5.2 M217.2,42.8
		l3.1-4.2 M220.3,38.6l4.6-3.8 M227.9,31.8l1.6-0.4 M229.5,31.4l2.4-0.8 M232,30.6l1.6,0 M233.6,30.6l1.4,1 M234.9,31.6l2,1.6
		 M236.9,33.2l3.2,0.8 M240.1,34l5.6,0.8 M245.7,34.7l11.2,0.6 M273.1,35.2l5.6,0.8 M278.7,36l2.4,1.2 M281.2,37.2l2.6,2.2
		 M283.8,39.4l3.6,4.8 M287.4,44.2l1.2,2.4 M288.6,46.6l0.4,3.2 M289,49.8l0.8,5.6 M289.8,55.4l0.2,4.8 M290.1,60.2l-0.8,5.7
		 M289.2,65.9L289,77.2 M132,430.5l-0.2,1.9 M131.9,420.6l0.2,2.7 M130.1,421.3l1.8-0.7 M126.5,422.4l3.6-1.1 M118.7,427.3l7.8-4.9
		 M115.3,430.6l3.4-3.4 M114.2,432l1.1-1.3 M113.7,434.3l0.5-2.3"/>
	<path class="st6" d="M113.7,434.3l-1.7-2.7 M112,431.5l0.1-2.8 M112.1,428.7l-1.9-5 M110.2,423.7l-3.8-9.4 M106.4,414.3l-4.6-9.6
		 M101.8,404.7l-1.9-11 M99.9,393.7l-1.5-4.9 M98.4,388.9l-0.1-4.8 M98.3,384.1l-0.8-9.6 M97.5,374.5l-0.7-10.1 M96.8,364.4l1-10.8
		 M97.8,353.6l1.3-18.5 M99.2,335l5.3-19.9 M104.5,315.2l3.1-9 M107.6,306.2l2.9-10 M110.5,296.2l2.6-9.4 M113.1,286.9l1.2-9.8
		 M114.3,277l-1.5,0.4 M112.8,277.5l-0.3-1.2 M112.6,267.9l0.9-5.8 M113.5,262.1l-0.2-5.8 M113.3,256.3l0.7-10.7 M114,245.7
		l3.8-12.4 M117.8,233.3l2-4.9 M119.9,228.5l1.2-5.7 M121.1,222.7l5.2-12 M126.3,210.7l4.9-11.1 M131.2,199.6l3.8-11.4 M135,188.2
		l1.5-4.8 M136.5,183.4l3.2-5.4 M139.6,178l9.7-8.5 M149.3,169.5l10-5.9 M159.3,163.6l5.7-3.1 M165,160.5l6.2-1.7 M171.2,158.8
		l10.5-2.6 M181.7,156.2l-0.9,2.5 M180.9,158.7l0.1,2.9 M180.9,161.7l0.1,1.2 M181.1,162.8l-0.6,1.8 M180.4,164.6l-1.8,2.5
		 M178.6,167.1l2.3,0.4 M181,167.5l2.9-0.9 M183.9,166.7l2.9-1.3 M186.8,165.3l2.9-0.9 M189.7,164.5l2.3-0.6 M192.1,163.9l1.2-0.4
		 M193.2,163.4l0.6,0 M193.8,163.4l1,0.4 M194.8,163.9l1.6,2.5 M196.4,166.4l2.3,2.1 M198.7,168.5l5.1,2.2 M203.7,170.7l5.1,4
		 M208.8,174.7l2.3,1.2 M211.1,175.9l2.2,2.2 M213.3,178.1l0.7,3 M214,181.1l0.4,3 M214.4,184.1l0.4,5.4 M214.8,189.4l0.7,6
		 M215.4,195.4l0.2,11.6 M215.6,207l1.5,1.2 M217,208.2l2.2-2.2 M219.3,206l4.9-4.3 M224.2,201.6l5.5-3.7 M229.7,197.9l1.2-1
		 M230.9,196.9l3.6-3.1 M234.5,193.7l5.5-3.9 M240,189.9l5.2-4.6 M245.2,185.3l6.1-2.7 M251.2,182.6l1.3-0.6 M252.6,182l0.7-0.4
		 M253.3,181.6l0.7-0.1 M254,181.4l-0.9-1 M253.2,180.4l2.4-0.4 M255.5,179.9l2.2-0.7 M257.7,179.2l0.7-2.4 M258.5,176.8l1.3,0.8
		 M259.8,177.7l1.6,0.3 M261.4,177.9l2.8-0.1 M264.2,177.8l5.4-1.7 M269.6,176.1l5.1-3.8 M274.7,172.3l2.4-1.6 M277.1,170.7l2.5-3.6
		 M279.6,167.1l1.8,1.5 M281.4,168.6l4.6,7.5 M286,176.2l1.9,3.5 M287.9,179.7l1.7,1.7 M289.6,181.4l2.3,1.2 M291.9,182.6l4.3,1.3
		 M296.2,183.9l1.9,0.2 M298.1,184.1l0.5,0 M298.6,184.1l-0.2-0.5 M298.3,183.6l-0.6-1.4 M297.7,182.2l0.8-3.9 M298.5,178.3
		l-0.1-4.4 M298.4,173.9l0.9-8.5 M299.3,165.5l0.6-3.7 M300,161.7l1.3-4.3 M301.3,157.4l0.4-4.4 M301.7,153l0.1-2 M301.8,151l0-0.9
		 M301.8,150.1l0.7-1.1 M302.5,148.9l3.5,2.9 M306,151.8l5.3,2.3 M311.3,154.1l5,3 M316.3,157.1l4.8,3.2 M321.2,160.3l4.7,3.7
		 M325.8,164l5.4,2.3 M331.2,166.3l2.5,1.5 M333.7,167.8l3.7,1.2 M337.4,169l5,3 M342.5,172l2.5,1.7 M345,173.7l2.2,2.4 M347.2,176
		l4.2,4.1 M351.4,180.1l5.2,4.7 M356.6,184.8l5.6,10.4 M362.2,195.2l3.6,4.6 M365.8,199.8l1.9,2.4 M367.7,202.2l0.3,1.4 M368,203.6
		l0.5,0.5 M368.5,204.1l-0.1,2 M368.4,206l0.7,7.1 M369.1,213.1l3.6,7 M372.8,220.1l4.5,13.1 M377.3,233.3l6,27.3 M383.3,260.6
		l-0.1,13.9 M383.3,274.5l1.5,13.6 M384.7,288.2l1.8,14 M386.5,302.2l-0.4,15.3 M386.2,317.5l1.2,13.8 M387.3,331.2l-1,6.3
		 M386.4,337.5l0.6,7.6 M387,345.1l-0.4,13.9 M386.6,358.9l0,2.5 M386.6,361.5l-1.6,3.5 M385,364.9l-0.4,7.6 M384.6,372.5l-0.1,14
		 M384.6,386.5l-3.2,14 M381.3,400.5l-2.2,6.4 M379.1,406.9l-1.9,7.7 M377.1,414.5l-1.3,3.8 M375.9,418.4l-2.5,3.2 M373.3,421.6
		l-2.6,7.4 M370.7,428.9l0,2.3 M370.7,431.2l-1.3,2.6 M369.4,433.9l-1.8,4.4 M367.6,438.3l-3.3,9.7 M364.3,448l-1.1,4.6
		 M363.2,452.6l-2.2,4.6 M360.9,457.2l-0.7,4.7 M360.3,461.9l-1.6,5.3 M358.7,467.2l-4.5,19.1 M354.2,486.4l-2.5,8.9 M351.7,495.3
		l-2,10.1 M349.7,505.4l-2.3,9.2 M347.4,514.6l-1.6,0.7 M339.5,513.8l1,1.4 M338,513.5l1.5,0.4 M335.2,511.8l2.8,1.7 M329.2,510.3
		l6,1.5 M317.2,506.7l12.1,3.7 M311.3,504.6l5.9,2 M308.3,503.2l3,1.5 M305.3,502.6l3,0.5 M299.4,501l5.9,1.6 M296.5,500.1l2.9,0.9
		 M295,499.5l1.5,0.5 M294.1,497.1l0.9,2.4 M277.8,165.6l1.8,1.5 M258.5,176.8l3.4-3.9 M261.9,173l1.6-2.1 M263.5,170.9l2.5-1.6
		 M266,169.3l4.1-2.4 M270.2,166.9l2.2-0.9 M272.4,166l1.2-0.4 M273.6,165.6l0.3-1.2 M273.9,164.4l3.9,1.2 M230,195.7l0.9,1.2
		 M229.6,194.6l0.4,1.1 M228.8,193l0.8,1.6 M227.4,189.8l1.4,3.1 M227.2,188.2l0.3,1.6 M226.2,186.7l0.9,1.5 M224.6,183.6l1.6,3.1
		 M219,179.1l5.6,4.6 M214,174.1l4.9,5 M209.6,168.8l4.4,5.3 M207.2,166.4l2.4,2.4 M206.3,164.9l0.9,1.5 M206.7,163.3l-0.4,1.6
		 M208.4,160.3l-1.7,3 M209.8,157.1l-1.3,3.2 M211,153.9l-1.2,3.2 M211.5,152.3l-0.5,1.6 M212.9,150.6l-1.4,1.8 M212.9,150.6
		l-1.3,8.9 M211.6,159.5l0.1,2.4 M211.7,161.9l1.1,2.4 M212.9,164.2l1.1,2.2 M214,166.4l1.4,1.9 M215.5,168.4l3.6,2.5"/>
	<path class="st6" d="M219.1,170.9l4.4,2.4 M223.5,173.3l4.2,2.8 M227.7,176.1l2.3,1.3 M230,177.5l2.3,0.8 M232.4,178.2l4.1,1.4
		 M236.5,179.6l5,0.3 M241.5,179.9l9.9,0.5 M251.4,180.4l1.8,0 M301.6,148.2l0.9,0.8 M273.9,164.4l8.1-6.5 M282,157.9l2.8-3.5
		 M284.8,154.3l1.6-4.7 M286.4,149.6l1-2.2 M287.4,147.4l0.4-2.5 M287.8,144.9l0.3-5 M288.1,139.9l0.7-8.8 M288,125.3l1-0.6
		 M289,124.7l2.5,0 M291.6,124.8l-0.2,0.7 M291.4,125.5l1.4,1.8 M292.8,127.3l2,3.3 M294.8,130.6l1.6,6.6 M296.4,137.2l0.7,1.3
		 M297.1,138.5l0,2.2 M297.1,140.7l0.4,3.7 M297.5,144.3l0.4,1.5 M297.9,145.9l1,1 M298.9,146.9l2.6,1.3 M213,145.9l-0.1,4.7
		 M181.7,156.2l4-4.8 M185.7,151.4l3.1-5.4 M188.8,146l10.5-6.2 M199.3,139.8l5.7-3.4 M205,136.4l4.5-4 M209.5,132.5l-0.8,1.5
		 M208.8,134l0.9,0.9 M209.6,134.8l1.6,1.9 M211.2,136.7l1,2.2 M212.2,142.4l0.4,1.2 M212.6,143.6l0.4,2.3 M205,81.3l0.7-4.6
		 M295.2,93.5l1.4,0.8 M296.6,94.3L301,94 M301,94l3.9,6.2 M304.9,100.2l0.2,3.6 M305.1,103.8l-1.3,3.8 M303.8,107.6l-5,4.9
		 M298.8,112.4l-3.4,7.2 M295.3,119.7l-0.4,2.9 M295,122.6l-0.5,1.5 M294.4,124l-2.2,0.7 M292.3,124.8l-0.7,0 M253.2,180.4l4.6-1.2
		 M209.5,132.5l-1.8-0.9 M207.8,131.6l-0.4-1.6 M207.4,130l-1.6-3.1 M205.8,126.9l-1.4-3.1 M204.4,123.8l-0.6-4.3 M203.8,119.6
		l-0.6-3.3 M203.2,116.3l-0.2-1.6 M203,114.7l-2-1.4 M201,113.3l-2-2.6 M199,110.6l0-4 M199,106.6l1.2-3.2 M200.3,103.3l-1-3.2
		 M199.3,100.1l-2.4-7.3 M196.9,92.9l-0.7-7.2 M196.2,85.6L197,84 M197,84l1.6-1 M198.6,83l3.6-2.6 M202.3,80.4l-0.1,1.7
		 M202.2,82.1l1.4,0.8 M203.6,82.9l0.8,0 M204.4,82.9l0.6-1.6 M302.9,86.1L301,94 M202.3,80.4l-0.8-1 M201.5,79.4l-0.2-2.6
		 M201.3,76.8l0.8-4 M202.1,72.8l0.2-4.2 M202.3,68.6l0.8-4.2 M203.2,64.4l2.1-8.2 M205.2,56.3l0.6-4.2 M205.9,52.1l1.6-4.8
		 M207.5,47.3l4.6-7.7 M212.1,39.6l3-3 M215.1,36.6l3.8-2.8 M218.9,33.8l7.2-5.4 M226.2,28.5l3.2-3.2 M229.4,25.3l4.6-2.2 M234,23.1
		l2.9-2.3 M236.9,20.8l3.8-1.7 M240.7,19.1l7.6-2.1 M248.3,17l3.8-0.6 M252.1,16.4l3.8,0.2 M256,16.6l7.7,0.8 M263.6,17.3l6.9,1.3
		 M270.5,18.7l1.5,0.4 M272.1,19l2.1,1.3 M274.2,20.4l3.5,2.3 M277.7,22.7l6.8,4.6 M284.4,27.3l1.4,0.8 M288.9,31.1l1.2,2.1
		 M290,33.2l1.8,2.9 M291.8,36.1l2.7,3.1 M294.5,39.2l2.3,3.5 M296.9,42.7l1.6,4.3 M298.5,46.9l2.8,7.8 M301.2,54.7l1.8,3.7
		 M303,58.4l0.6,3.9 M303.6,62.3l-0.4,15.8 M303.2,78.1l-0.3,8 M340.5,515.3l-0.9,0.2 M339.6,515.5l-0.7,1.8 M338.9,517.3l-1.6,9.3
		 M337.3,526.5l-0.5,4.5 M336.8,531.1l-0.5,2.7 M336.4,533.8l-2,2.3 M334.3,536l-4.5,1.8 M329.8,537.8l-4.5-0.7 M325.4,537.1
		l-1.8-0.5 M323.6,536.7l-1.6,2.3 M322,538.9l-5.4,0.9 M316.6,539.8l-1.8,0 M314.8,539.8l-2-2.1 M312.8,537.7l-0.9-0.2 M311.9,537.5
		l-0.5,1.8 M311.5,539.3l-2.5,1.6 M309,540.9l-4.5,0.7 M304.5,541.5l-2.7-1.1 M301.9,540.4l-2.4-0.7 M176.7,849.9l1.1-3.1
		 M240.8,850.1l0.8-3.2 M240.8,850.1l-1.7,4 M239,854.1l-3.1,2.7 M235.9,856.8l-3.3,2 M232.7,858.8l-6.7,2.1 M226,860.9l-6.6,1.3
		 M219.4,862.3l-3.1,0.6 M216.2,862.8l-3.6-0.1 M212.7,862.8l-7.3-0.3 M205.4,862.4l-3.1-0.1 M202.2,862.4l-3.6-0.7 M198.7,861.6
		l-7.2-2.1 M191.5,859.5l-6.5-0.8 M185,858.7l-7.1-2.2 M177.9,856.5l0.4,0 M178.3,856.5l-1.1-0.7 M177.2,855.8l-0.7-1.9
		 M176.5,853.9l0.2-4 M34,820.6l1.9-2.4 M170,821.2l0.5-7.8 M169.4,823.2l0.6-2.1 M168,824.8l1.4-1.5 M164.7,826.3l3.3-1.5
		 M149.8,829.4l14.9-3.1 M142,830.5l7.8-1.1 M134.1,830.9l8-0.4 M118.7,833.1l15.4-2.2 M111.4,834.6l7.3-1.5 M103.9,837.4l7.5-2.9
		 M88.9,841.2l15.1-3.8 M84.9,841.9l4-0.6 M81.6,841.8l3.3,0.1 M74.2,841.8l7.4,0 M70.1,841.8l4.1,0.1 M66.8,841.3l3.3,0.4
		 M62.9,841.3l3.9,0.1 M59.5,840.3l3.4,0.9 M55.3,839.2l4.2,1.1 M52.1,838.4l3.2,0.8 M44.8,835.7l7.3,2.8 M41.1,834l3.8,1.6
		 M39.2,833.1l1.9,0.9 M38.1,832.2l1.1,0.9 M34.9,829.4l3.2,2.8 M33.4,827.8l1.5,1.6 M33.4,826.1l0,1.7 M33.4,826.1l0.6-5.5
		 M253.4,821l-3.3,5 M108.8,779.3l0.5-1.8 M108.2,553.5l0.4-6.1 M295.2,484l3.8-0.9 M284.1,674.8l-2.9,38.9 M224.9,34.8l3-3
		 M257,35.3l16.1-0.1 M289,77.2l0,8.3 M132.1,423.3l0,7.2 M112.5,276.3l0.1-8.4 M345.9,515.3l-5.4,0 M288.8,131.1l-0.8-5.8
		 M212.2,138.9l0,3.5 M285.8,28l3.1,3.1"/>
</g>
</svg>
