<?xml version="1.0" encoding="utf-8"?>
<!-- Generator: Adobe Illustrator 20.0.0, SVG Export Plug-In . SVG Version: 6.00 Build 0)  -->
<svg version="1.1" id="Layer_1" xmlns="http://www.w3.org/2000/svg" xmlns:xlink="http://www.w3.org/1999/xlink" x="0px" y="0px"
	 viewBox="0 0 292.5 871.5" style="enable-background:new 0 0 292.5 871.5;" xml:space="preserve">
<style type="text/css">
	.st0{fill:#282828;}
	.st1{fill:#000228;}
	.st2{fill:#575757;}
	.st3{fill:#D8BCAC;}
	.st4{fill:#4E433F;}
	.st5{fill:#4E423E;}
	.st6{fill:#A31400;}
	.st7{fill:#FFFFF5;}
	.st8{fill:none;stroke:#000000;stroke-miterlimit:10;}
</style>
<g>
	<path class="st0" d="M194.4,845l-0.7-0.9l-0.9-1l-1.1-1l-1.4-1.1l-1.7-1.2l-2-1.3l-2.3-1.4l-2.7-1.5l-3.1-1.6l-3.6-1.8l-4.1-1.9
		l-4.6-2.1l-2.6-1.1l-0.4-0.2l-0.4-0.2l-0.3-0.2l-0.3-0.2l-0.2-0.2L162,826l-0.2-0.2l-0.1-0.3l-0.1-0.3l-0.1-0.3l-0.1-0.4l0-0.5
		l0-0.5l0-0.6l0-0.7l0.1-0.8l0.1-0.9l0.1-1l0.1-1.1l0.1-1.3l0.2-1.1l0.4-2.5l0.4-2.9l1.6-10.5l0.2-0.2l0.2-0.2l0.2-0.1l0.2-0.1
		l0.2-0.1l0.1-0.1l0.1-0.1l0.1-0.1l0.1-0.1l0.1,0l0.1,0l0.2,0l0.2,0l0.2,0l0.2,0l0.2,0l0.2,0l0.3,0l0.3,0l0.3,0l0.3,0.1l0.3,0.1
		l0.3,0.1l0.3,0.1l0.3,0.1l0.3,0.2l0.3,0.2l0.4,0.2l0.9,0.5l0.5,0.3l0.1,0l0,0l1-0.4l0.9-0.4l0.8-0.4l0.7-0.3l0.6-0.3l0.5-0.3
		l0.5-0.3l0.4-0.3l0.3-0.3l0.3-0.2l0.2-0.2l0.2-0.2l0.1-0.2l0.1-0.1l0.1-0.1l0.1-0.1l0-0.1l0-0.1l0,0l0,0l2-0.5l2.3-0.6l2.6-0.6
		l3-0.7l3.4-0.8l2.6,0l2.4,0.1l2.2,0.1l2,0.1l1.8,0.2l1.6,0.2l1.4,0.3l1.3,0.3l1.2,0.4l1.1,0.5l1,0.5l0.9,0.6l0.8,0.6l0.8,0.7
		l0.8,0.8l0.8,0.9l0.8,0.9l0.8,1l0.8,1.1l0.9,1.2l1.4,2.6l1.2,2.3l0.5,0.9l5.3,7.2l0.2,0.2l1,0.9l0.7,0.8l0.6,0.7l0.6,0.6l0.6,0.6
		l0.5,0.5l0.5,0.4l0.5,0.4l0.5,0.4l0.5,0.3l0.5,0.3l0.5,0.3l0.5,0.3l0.5,0.3l0.6,0.3l0.6,0.3l0.7,0.3l1.5,0.7l0.9,0.4l1.6,1.3
		l0.6,0.8l1.2,1.5l1.1,1.4l1,1.3l0.9,1.2l0.8,1.1l0.8,1.1l0.5,1.5l0.4,1.4l0.4,1.3l0.3,1.2l0.2,1.1l0.2,1l0.1,0.9l0,0.8l0,0.8l0,0.7
		l-0.1,0.7l-0.1,0.7l-0.2,0.6l-0.2,0.6l-0.2,0.6l-0.2,0.6l-0.2,0.7l-0.2,0.7l-0.2,0.7l-0.2,0.8l-2,1.1l-1.2,0.7L243,855l-1,0.5
		l-0.9,0.5l-0.9,0.4l-0.8,0.4l-0.8,0.3l-0.7,0.3l-0.7,0.3l-0.7,0.2l-0.7,0.2l-0.7,0.2l-0.8,0.2l-0.8,0.2l-0.9,0.2l-1,0.2l-1.1,0.2
		l-2.5,0.4l-0.8,0.4l-0.7,0.3l-0.7,0.3l-0.7,0.2l-0.7,0.2l-0.7,0.1l-0.7,0.1l-0.7,0.1l-0.7,0l-0.8,0l-0.9,0l-0.9,0l-1-0.1l-1.1-0.1
		l-1.2-0.1l-1.6-0.3l-1.7-0.5l-1.8-0.7l-1.9-0.9l-2.1-1.1l-2.3-1.3l-2.5-1.6l-2.8-1.8l-3.1-2.1L196,850l-0.1-0.8l-0.1-0.8l-0.2-0.8
		l-0.3-0.8l-0.4-0.8L194.4,845z M194.4,845"/>
	<path class="st1" d="M262.7,331.5l0.4,0.6l0.4,0.6l0.4,0.6l-0.2,2.4l-0.6,4l-0.7,3.3l-0.8,2.7l-0.9,2.3l0.1,1.3l0.1,1.2l0,1.1
		l-0.1,1l-0.2,0.9l-0.2,0.8l-0.3,0.8l-0.3,0.7l-0.4,0.6l-0.4,0.5l-0.4,0.5l-0.5,0.4l-0.5,0.3l-0.5,0.3l-0.5,0.2L256,359l-0.5,0.1
		l-0.4,0.1l-0.4,0.1l-0.4,0l0-0.1l-0.1-0.4l-0.2-0.6l-0.4-0.7l-0.5-0.8l-0.6-0.9l-0.8-1l-0.9-1l-1.1-1l-1.3-1l-1.4-0.9l-1.6-0.8
		l-1.8-0.6l-2.1-0.4l-2.3-0.2l-2.5,0l-2.8,0.3l-3,0.7l-3.3,1l-3.6,1.4l-0.3,0.1l-0.3,0.1l-0.2,0.1l-0.2,0.1l-0.2,0l-0.2,0l-0.2,0
		l-0.1,0l-0.1,0l-0.1,0l-0.1,0l-0.1,0l-0.1,0l-0.2,0l-0.2,0l-0.2,0l-0.2,0l-0.2,0l-0.3,0l-0.3,0l0.3-1.9l0.3-1.8l0.3-1.6l0.2-1.5
		l0.2-1.3l0.2-1.2l0.1-1.2l0.1-1.1l0.1-1.1l0.1-1.1l0.1-1.1l0.1-1.2l0.1-1.3l0.1-1.4l0.2-4.9l0.1-2l0.1-2.2l0.1-2.5l3.7-0.5l3.4-0.4
		l3.2-0.3l3-0.2l2.7-0.1l2.5,0l2.3,0.1l2.2,0.1l2,0.2l1.8,0.3l1.7,0.3l1.5,0.4l1.4,0.4l1.3,0.5l1.1,0.5l1,0.6l1,0.6l0.9,0.6l0.8,0.6
		l0.7,0.6l0,0.7l0.1,0.7l0.2,0.6l0.2,0.6l0.2,0.6l0.3,0.6l0.3,0.6L262.7,331.5z M262.7,331.5"/>
	<path class="st2" d="M94.4,797.2L91,786.3l-3.1-11l-2.9-11l-2.7-11l-2.4-10.9l-2.2-10.8l-2-10.6l-1.8-10.3l-1.6-10l-1.4-9.6
		l-1.3-9.2l-1.1-8.7l-0.9-8.1l-0.8-7.5l-0.6-6.8l-0.5-6.1l-0.4-5.3l-0.3-4.4l-0.2-3.5l0-2.5l-3.1-25.1l-2.7-21.4l-2.3-18l-2-15
		L53,537.5l-3.3-23.9l-0.6-4.8l-0.4-3.8l-0.3-3.1l-0.1-2.8l0-2.8l0.1-3.1l0.2-6.2l0-6.5l0-3.4l0-1.4l0-1.3l0-1.2l0-1.1l0-1l0-1
		l0-0.9l0-0.9l0-0.9l0-0.9l0-1l0-1L49,461l0,0l0,0l0,0l0,0l0,0l0,0l0,0l0,0l0-7.8l0.5,0.7l0.4,0.7l0.4,0.6l0.4,0.5l0.4,0.5l0.4,0.4
		l0.4,0.4l0.5,0.3l0.5,0.3l0.5,0.3l0.5,0.2l0.5,0.2l0.6,0.2l0.6,0.2l0.6,0.2l0.7,0.2l0.7,0.2l0.7,0.2l0.8,0.2l0.8,0.2l2.4,0.2
		l2.2,0.1l2,0l1.8-0.1l1.6-0.2l1.5-0.2l1.3-0.3l1.2-0.4l1.1-0.4l1-0.5l0.9-0.6l0.8-0.6l0.8-0.7l0.7-0.7l0.7-0.8l0.7-0.8l0.7-0.9
		l1.4-1.9l0.8-1l1.2,2.1l1.2,1.8l1.1,1.6l1.1,1.5l1,1.3l1,1.1l0.9,0.9l0.9,0.8l0.9,0.6l0.8,0.5l0.8,0.4l0.7,0.3l0.7,0.2l0.7,0.1
		l0.7,0l0.6,0l0.6-0.1L99,463l0.6-0.2l0.7-0.6l0.5-0.6l0.4-0.6l0.3-0.6l3.3,0.9l3,0.8l2.8,0.7l2.5,0.6l2.3,0.5l2.2,0.5l2.1,0.4
		l2,0.3l2,0.3l2,0.2l2,0.2l2.1,0.1l2.2,0.1l2.4,0.1l2.6,0l2.9,0l3.1,0l11.5,0l1.4,0.3l1.3,0.2l1.3,0.2l1.3,0.2l1.3,0.1l1.2,0.1
		l1.2,0l1.2,0l1.2,0l1.2-0.1l1.3-0.1l1.3-0.2l1.3-0.2l1.4-0.2l1.4-0.3l1.5-0.3l1.5-0.4l1.6-0.4l1.7-0.4l1-0.3l0.7-0.2l0.8-0.3
		l0.8-0.4l0.8-0.4l0.8-0.5l0.8-0.6l0.8-0.7l0.8-0.8l0.8-0.9l0.8-1.1l0.8-1.2l0.7-1.3l0.7-1.5l0.6-1.6l0.5-1.8l3.3,0.8l3.1,0.6
		l2.9,0.5l2.6,0.3l2.4,0.2l2.2,0.1l2-0.1l1.8-0.2l1.7-0.3l1.5-0.3l1.3-0.4l1.2-0.5l1-0.5l0.9-0.6l0.8-0.6l0.7-0.7l0.6-0.7l0.5-0.7
		l0.4-0.7l0.3-0.7l1.3,9l1.6,11.1l1.4,10l1.2,9l0,14l0,6.1l0,5.5l0,5.1l-0.1,4.8l-0.1,4.5l-0.1,4.3l-0.2,4.2l-0.2,4.2l-0.3,4.2
		l-0.4,4.4l-0.4,4.6l-0.5,4.9l-0.6,5.3l-0.7,5.8l-0.8,6.4l-0.9,7l-2.1,16.3l0,14.3l0,3.8l0,3.3l0,2.9l0,2.5l-0.1,2.2l-0.1,1.9
		l-0.1,1.6l-0.1,1.3l-0.2,1.1l-0.2,0.9l-0.2,0.7l-0.2,0.6l-0.3,0.5l-0.3,0.4l1,9l0.8,8.5l0.6,8l0.4,7.6l0.3,7.3l0.1,3.5l-0.9,6
		l-0.8,5.3l-0.6,4.7l-0.5,4.1l-0.4,3.6l-0.3,3.2l-0.3,2.9L219,712l-0.2,2.5l-0.1,2.4l-0.1,2.4l-0.2,5l-0.1,2.8l-0.1,3.1l-0.2,3.4
		l-0.2,3.9l-0.3,4.4l-0.4,5l-0.5,5.6l-1.3,8.3l-4.5,28.2l-1,2.9l-0.9,2.9l-1.2-0.4l-1.3-0.3l-1.4-0.3l-1.6-0.2l-1.8-0.2l-2-0.1
		l-2.2-0.1l-2.4-0.1l-2.6,0l-3.4,0.8l-3,0.7l-2.6,0.6l-2.3,0.6l-2,0.5l0,0l0,0l0,0.1l0,0.1l-0.1,0.1l-0.1,0.1l-0.1,0.1l-0.1,0.2
		l-0.2,0.2l-0.2,0.2l-0.3,0.2l-0.3,0.3l-0.4,0.3l-0.5,0.3l-0.5,0.3l-0.6,0.3l-0.7,0.3l-0.8,0.4l-0.9,0.4l-1,0.4l0,0l-0.1,0l-0.5-0.3
		l-0.9-0.5l-0.4-0.2l-0.3-0.2l-0.3-0.2l-0.3-0.1l-0.3-0.1l-0.3-0.1l-0.3-0.1l-0.3-0.1l-0.3,0l-0.3,0l-0.3,0l-0.2,0l-0.2,0l-0.2,0
		l-0.2,0l-0.2,0l-0.2,0l-0.1,0l-0.1,0l-0.1,0.1l-0.1,0.1l-0.1,0.1l-0.1,0.1l-0.2,0.1l-0.2,0.1l-0.2,0.1l-0.2,0.2l-0.2,0.2l1.7-10.9
		l0-8.3l0.1-7.5l0.1-6.8l0.2-6.1l0.2-5.5l0.2-4.9l0.2-4.3l0.2-3.8l0.2-3.4l0.1-3l0.1-2.6l0-2.3l-0.1-2.1l-0.2-1.9l-0.3-1.8l-0.4-1.7
		l-0.5-1.6l-0.7-1.6l-0.8-1.7l-1-1.8l-0.1-7.2l0-6.2l0.1-5.3l0.2-4.6l0.3-4.1l0.4-3.8l0.4-3.6l0.5-3.6l0.6-3.7l1.5-8.7l0.9-5.3
		l1-6.1l1.1-7.1l-6.4-25.5l-1.3-5.4l-1.2-5.2l-1.1-4.9l-1.1-4.7l-1-4.6l-0.9-4.5l-0.8-4.4l-0.7-4.4l-0.6-4.4l-0.5-4.5l-0.4-4.6
		l-0.4-4.8l-0.3-5l-0.2-5.2l-0.1-5.5l0-5.9l-2.4-7.5l-2.1-6.3l-1.9-5.2l-1.7-4.1l-1.5-3.1l-1.3-2.2l-1.2-1.3l-1-0.5l-0.9,0.2
		l-0.8,0.9l-0.7,1.5l-0.6,2l-0.5,2.4l-0.5,2.8l-0.5,3.1l-0.4,3.3l-0.5,3.4l-0.5,3.5l-0.5,3.5l-0.6,3.5l-1.6,8.5l-1.5,8l-7.3,38.5
		l-1,5.1l-0.9,4.8l-0.9,4.5l-0.9,4.2l-0.8,4l-0.8,3.8l-0.8,3.7l-0.8,3.5l1.6,9.1l1.4,8.3l1.3,7.6l1.1,7l1,6.5l0.9,6.1l0.8,5.9
		l0.7,5.7l0.6,5.7l0.6,5.8l0.5,6l0.5,6.3l0.5,6.7l0.5,7.3l0.5,7.9l3.3,53.5l-5.6,0.1l-5,0.2l-4.5,0.3l-3.9,0.4l-3.4,0.5l-3,0.6
		l-2.5,0.7l-2.1,0.7l-1.8,0.8l-1.5,0.8l-1.2,0.8l-0.9,0.8l-0.7,0.7l-0.5,0.7l-0.4,0.6l-0.3,0.5L94.4,797.2z M94.4,797.2"/>
	<path class="st2" d="M80.6,453.7l-0.7,0.8l-0.7,0.8l-0.7,0.7l-0.8,0.7l-0.8,0.6l-0.9,0.6l-1,0.5l-1.1,0.4l-1.2,0.4l-1.3,0.3
		l-1.5,0.2l-1.6,0.2l-1.8,0.1l-2,0l-2.2-0.1l-2.4-0.2l-0.8-0.2l-0.8-0.2l-0.7-0.2l-0.7-0.2l-0.7-0.2l-0.6-0.2l-0.6-0.2l-0.6-0.2
		l-0.5-0.2l-0.5-0.2l-0.5-0.3l-0.5-0.3l-0.5-0.3l-0.4-0.4l-0.4-0.4l-0.4-0.5l-0.4-0.5l-0.4-0.6l-0.4-0.7l-0.5-0.7l0-4.4l0,0.8
		l0.1,0.7l0.2,0.7l0.3,0.6l0.4,0.5l0.4,0.5l0.5,0.4l0.5,0.4l0.6,0.3l0.6,0.3l0.7,0.3l0.7,0.2l0.7,0.2l0.7,0.2l0.7,0.2l0.7,0.2
		l0.7,0.2l0.7,0.2l0.6,0.2l0.6,0.2l2.6,0l2.3-0.1l2.1-0.1l1.8-0.1l1.6-0.2l1.4-0.2l1.2-0.3l1.1-0.3l0.9-0.3l0.8-0.4l0.7-0.4l0.6-0.5
		l0.5-0.5l0.5-0.6l0.4-0.6l0.4-0.7l0.4-0.7l0.4-0.8l0.4-0.8l0.5-0.9l0-0.8l0-0.7l0.1-0.5l0.1-0.4l0.1-0.3l0.1-0.2l0.1-0.1l0.1,0
		l0.1,0.1l0.1,0.1l0.1,0.2l0.1,0.2l0.1,0.3l0.1,0.3l0.1,0.3l0.1,0.3l0.1,0.3l0.1,0.3l0,0.3l0,0.2l1.3,2.3l-0.8,1l-1.4,1.9
		L80.6,453.7z M80.6,453.7"/>
	<path class="st3" d="M165.1,104.3l-0.1,0.4l-0.2,0.4l-0.2,0.5l-0.2,0.5l-0.2,0.5l-0.2,0.5l-0.3,0.5l-0.3,0.5l-1.4,2.7l-0.7,1.4
		l-0.8,1.4l-0.8,1.4l-0.9,1.4l-1,1.3l-1,1.3l-1.1,1.2l-1.2,1.2l-1.4,1.1l-1.5,1l-1.7,1l-1.8,0.9l-2,0.8l-2.2,0.6l-2.4,0.5l-2.6,0.4
		l-2.8,0.2l-3,0.1l-0.7-0.1l-0.7-0.1l-0.8-0.1l-0.8-0.1l-0.8-0.2l-0.9-0.2l-0.9-0.2l-0.9-0.3l-0.9-0.3l-0.9-0.4l-0.9-0.4l-1.8-0.9
		l-1.9-1l-1.9-1.2l-1.9-1.4l-1.9-1.7l-1.9-1.9l-1.9-2.2l-1.8-2.4l0-0.5l0-0.4l-0.6-0.6l-0.5-0.6l-0.5-0.7l-0.5-0.7l-0.4-0.8
		l-0.4-0.8l-0.3-0.9l-0.3-0.9l-0.3-0.9l-0.2-1l-0.2-1l-0.2-1l-0.2-1l-0.1-1.1l-0.1-1.1l-0.1-1.1l-0.1-1.1l0-1.1l0-1.1l0-1.1
		l-0.1-0.1l-0.1-0.2l-0.1-0.3l-0.1-0.3l-0.1-0.4l-0.1-0.5l-0.1-0.5l0-0.6l0-0.6l0-0.7l0-0.7l0-0.7l0-0.7l0-0.7l0-0.7l0-0.7l0-0.7
		l0-0.7l0-1.2L103,81l-0.1-1.3l-0.1-1.2l-0.1-1.1l-0.1-1.1l-0.1-1.1l0-1.1l0-1.1l0-1.2l0.1-1.3l0.1-1.5l0.2-1.6l0.2-1.8l0.2-2
		l0.3-2.3l0.3-2.5l0.4-2.9l0.4-3.2l1.1-7.5l0.1-0.5l0.2-0.6l0.3-0.8l0.5-0.9l0.6-1l0.7-1l0.9-1.1l1-1.1l1.1-1.1l1.3-1.1l1.4-1.1
		l1.6-1.1l1.7-1l1.9-0.9l2-0.9l2.1-0.7l2.3-0.6l2.5-0.5l2.6-0.3l2.8-0.1l3.6,0l1.8,0l1.8,0l1.8,0.1l1.7,0.1l1.7,0.1l1.7,0.2l1.7,0.3
		l1.6,0.3l1.6,0.4l1.6,0.5l1.5,0.6l1.5,0.7l1.4,0.8l1.4,0.9l1.3,1l1.2,1.2l1.2,1.3l1.1,1.4l0.6,2l0.9,3.4l0.4,1.5l0.4,1.3l0.3,1.3
		l0.3,1.3l0.2,1.3l0.2,1.3l0.2,1.4l0.1,1.5l0.1,1.7l0.1,1.9l0.1,2.1l0.1,2.4l0,2.7l0,3.1l0,3.5l0,3.9l0,4.4l0,0.8l0,0.7l-0.1,0.6
		l-0.1,0.6l-0.1,0.5l-0.1,0.5l-0.1,0.4l-0.1,0.4l-0.1,0.4l-0.1,0.4l-0.1,0.4l-0.1,0.4l-0.1,0.4l-0.1,0.4l-0.1,0.4l-0.1,0.4l-0.1,0.5
		l-0.1,0.5l0,0.5l0,0.6l0,0.5l0,0.5l0.1,0.4l0.1,0.4l0,1.2l0,0.5l0,0.5l0,0.4l0,0.4l0,0.4l0,0.3l0,0.3l0,0.3l0,0.2l-0.1,0.2
		l-0.1,0.2l-0.1,0.2l-0.1,0.2l-0.1,0.2l-0.1,0.2l-0.1,0.2l-0.2,0.2l-0.2,0.2l0,0.6l0,0.6l0,0.5l0,0.5l0,0.5l0,0.5l-0.1,0.5l-0.1,0.5
		l-0.1,0.5l-0.1,0.4l-0.1,0.4L165.1,104.3z M144.1,57.1l-3.8,3.3l4.2-1.1l8.2,1.2l5.1,2.7l-1.6-3.3l-4.6-2.8H144.1z M129.8,58.2
		l-10.2-1.5l-8.5,4.1l-2.8,2.9l11-4.6l11.1,1.8L129.8,58.2z M129.8,58.2"/>
	<path class="st1" d="M262.8,319.4l-0.5,1.3l-0.4,1.2l-0.3,1.1l-0.3,1l-0.2,0.9l-0.1,0.8l0,0.8l-0.7-0.6l-0.8-0.6l-0.9-0.6l-1-0.6
		l-1-0.6l-1.1-0.5l-1.3-0.5l-1.4-0.4l-1.5-0.4l-1.7-0.3l-1.8-0.3l-2-0.2l-2.2-0.1l-2.3-0.1l-2.5,0l-2.7,0.1l-3,0.2l-3.2,0.3
		l-3.4,0.4l-3.7,0.5l-0.1,2.5l-0.1,2.2l-0.1,2l-0.2,4.9l-0.1,1.4l-0.1,1.3l-0.1,1.2l-0.1,1.1l-0.1,1.1l-0.1,1.1l-0.1,1.1l-0.1,1.2
		l-0.2,1.2l-0.2,1.3l-0.2,1.5l-0.3,1.6l-0.3,1.8l-0.3,1.9l0,0l0.3-0.1l0.3,0l0.2,0l0.2,0l0.2,0l0.2,0l0.2,0l0.1,0l0.1,0l0.1,0l0.1,0
		l0.1,0l0.1,0l0.2,0l0.2,0l0.2,0l0.2-0.1l0.2-0.1l0.3-0.1l0.3-0.1l-1.7,10.6l-0.5,3.3l-0.5,3.1l-0.5,3l-0.5,2.9l-0.6,2.8l-0.6,2.7
		l-0.6,2.6l-0.7,2.5l-0.7,2.5l-0.8,2.4l-0.9,2.3l-0.9,2.3l-1,2.2l-1.1,2.1l-1.2,2.1l-1.3,2.1l-1.5,2l-0.4,0.6l-0.4,0.5l-0.3,0.5
		l-0.3,0.4l-0.3,0.4l-0.2,0.4l-0.2,0.3l-0.2,0.3l-0.1,0.3l-0.1,0.3l-0.1,0.3l-0.1,0.4l-0.1,0.4l0,0.4l0,0.5l0,0.5l0,0.6l0,0.6l0,0.7
		l0,0.8l-0.3,0.1l-0.3,0.2l-0.4,0.4l-0.4,0.5l-0.4,0.7l-0.5,0.8l-0.5,1l-0.5,1.2l-0.6,1.3l-0.6,1.5l-0.6,1.7l-0.7,1.9l-0.7,2.1
		l-0.7,2.3l-0.8,2.5l-0.8,2.7l-0.8,3l-0.9,3.2l-0.9,3.4l-0.4,1.6l-0.5,2.1l-0.5,1.9l-0.5,1.8l-0.6,1.6l-0.7,1.5l-0.7,1.3l-0.8,1.2
		l-0.8,1.1l-0.8,0.9l-0.8,0.8l-0.8,0.7l-0.8,0.6l-0.8,0.5l-0.8,0.4l-0.8,0.4l-0.8,0.3l-0.7,0.2l-1,0.3l-1.7,0.4l-1.6,0.4l-1.5,0.4
		l-1.5,0.3l-1.4,0.3l-1.4,0.2l-1.3,0.2l-1.3,0.2l-1.3,0.1l-1.2,0.1l-1.2,0l-1.2,0l-1.2,0l-1.2-0.1l-1.3-0.1l-1.3-0.2l-1.3-0.2
		l-1.3-0.2l-1.4-0.3l-11.5,0l-3.1,0l-2.9,0l-2.6,0l-2.4-0.1l-2.2-0.1l-2.1-0.1l-2-0.2l-2-0.2l-2-0.3l-2-0.3l-2.1-0.4l-2.2-0.5
		l-2.3-0.5l-2.5-0.6l-2.8-0.7l-3-0.8l-3.3-0.9l0.2-0.6l0.1-0.5l0-0.5l-0.1-0.5l-0.1-0.5l-0.2-0.5l-0.2-0.5l-0.2-0.5l-0.2-0.4
		l-0.3-0.4l-0.2-0.4l-0.2-0.4l-0.2-0.3l-0.2-0.3l-0.1-0.3l-1.4-1.8l-1.3-1.7l-1.1-1.5l-1-1.4l-0.9-1.2l-0.8-1.1l-0.7-1l-0.6-0.9
		l-0.5-0.8l-0.5-0.8l-0.4-0.7l-0.4-0.7l-0.4-0.6l-0.3-0.6l-0.3-0.6l-0.7-1.4l-0.4-0.7l-0.4-0.8l-0.1-0.1l-0.5-0.9l-0.5-0.8l-0.5-0.8
		l-0.5-0.8l-0.6-0.7l-0.6-0.7l-0.6-0.7l-0.6-0.7l-0.7-0.7l-0.7-0.7l-0.8-0.7l-0.8-0.8l-0.9-0.8l-0.9-0.8l-1-0.9l-1.1-0.9l-1.1-1
		l-2.5-2.2l-0.9-0.3l-0.9-0.3l-0.9-0.2l-0.8-0.2l-0.8-0.2l-0.8-0.2l-0.8-0.2l-0.8-0.3l-0.7-0.3l-0.7-0.3l-0.7-0.3l-0.7-0.4l-0.6-0.4
		l-0.6-0.5l-0.6-0.5l-0.6-0.6l-0.6-0.7l-0.5-0.8l-0.5-0.8l-0.5-0.9l-0.7-1.4l-0.6-1.3l-0.5-1.2l-0.5-1.2l-0.4-1.2l-0.4-1.2l-0.3-1.3
		l-0.3-1.4l-0.3-1.6l-0.2-1.8l-0.2-2l-0.2-2.2l-0.2-2.5l-0.2-2.9l-0.2-3.2l-0.2-3.7l-0.2-4.1l-0.7-15.3l0.3,0l0.2-0.1l0.2-0.1
		l0.2-0.2l0.2-0.3l0.1-0.4l0.1-0.5l0.1-0.7l0.1-0.9l0.1-1.1l0.1-1.4l0-1.7l0-2l0-2.3l0-2.6l0-3l0-3.4l0-12.9l0,0l0-0.1l-0.1-0.2
		l-0.2-0.2l-0.3-0.3l-0.4-0.3l-0.6-0.3l-0.8-0.3L50,326l-1.3-0.2l-1.6-0.2l-1.9-0.1l-2.3-0.1l-2.7,0l-3.1,0.1l-3.5,0.2l-4,0.3
		l-4.5,0.5l-5,0.6l-5.5,0.8l-0.3,0l-0.2,0L14,328l-0.2,0.1l0.2-9.8l0.4-9.7l0.7-9.7l0.9-9.6l1.1-9.5l1.3-9.3l1.5-9.2l1.6-9l1.7-8.7
		l1.8-8.5l1.4-6.3l0.8-3.8l0.7-3.4l0.6-3.1l0.5-2.8l0.5-2.6l0.4-2.3l0.4-2.2l0.4-2l0.4-1.9l0.4-1.8l0.5-1.8l0.5-1.8l0.6-1.8l0.7-1.9
		l0.8-2l0.9-2.2l1-2.4l1.2-2.6l1.4-2.8l1.6-3.1l1.5-3l1.9-2.8l2.4-2.6l3-2.5l3.8-2.5l4.6-2.6l5.5-2.7l6.6-2.9l7.8-3.2l9-3.5
		l10.4-3.9l-0.5,0.7l-0.5,0.7l-0.4,0.6l-0.4,0.6l-0.3,0.6l-0.3,0.6l-0.2,0.6l-0.2,0.7l-0.1,0.7l-0.1,0.8l-0.1,0.9l-0.1,1l0,1.1
		l0,1.2l0,1.4l0,5.3l0.3,2.3l0.3,2.1l0.2,1.9l0.2,1.7l0.2,1.5l0.1,1.4l0.1,1.3l0.1,1.2l0.1,1.1l0,1.1l0,1l0,1l0,1l0,1.1l0,2.3l0,1.3
		l0,1.4l1.1-0.5l1-0.4l0.9-0.4l0.9-0.4l0.8-0.3l0.7-0.3l0.7-0.3l0.6-0.3l0.6-0.3l0.6-0.4l0.6-0.4l0.6-0.4l0.6-0.5l0.6-0.5l0.7-0.6
		l0.7-0.6l0.8-0.7l0.9-0.8l1-0.9l1-0.9l0.7-1.1l0.6-1l0.5-0.9l0.5-0.7l0.4-0.6l0.4-0.6l0.4-0.5l0.4-0.4l0.3-0.4l0.3-0.3l0.3-0.3
		l0.3-0.2l0.3-0.2l0.3-0.2l0.4-0.2l0.4-0.2l0.4-0.3l0.5-0.3l0.5-0.3l0.6-0.4l1.2,4.3l0.1,0.2l0.4,0.7l0.3,0.6l0.3,0.5l0.3,0.5
		l0.3,0.4l0.3,0.4l0.4,0.3l0.4,0.3l0.4,0.3l0.5,0.3l0.5,0.3l1.3,0.8l0.8,0.5l0.8,0.6l0.9,0.6l1-0.7l0.4-0.3l0.4-0.3l0.4-0.2l0.3-0.2
		l0.3-0.2l0.3-0.1l0.2-0.1l0.2-0.1l0.2-0.1l0.2-0.1l0.2-0.1l0.2,0l0.2,0l0.2,0l0.2,0l0.2,0l0.2,0l0.3,0l2.4,1.4l0.6,0.4l0.6,0.3
		l0.5,0.3l0.4,0.2l0.4,0.2l0.3,0.2l0.3,0.1l0.2,0.1l0.2,0.1l0.2,0.1l0.1,0l0.1,0l0.1,0l0.1,0l3.4-2.4l0.9-0.6l0.8-0.6l0.7-0.5
		l0.6-0.4l0.5-0.4l0.4-0.3l0.4-0.3l0.3-0.2l0.2-0.2l0.2-0.2l0.1-0.2l0.1-0.1l0.1-0.1l0-0.1l0-0.1l0-0.1l0-0.1l1.2-0.5l1.2-0.5
		l1.1-0.5l1-0.5l0.9-0.6l0.8-0.6l0.7-0.6l0.7-0.6l0.6-0.6l0.5-0.5l0.4-0.5l0.4-0.5l0.3-0.5l0.3-0.4l0.2-0.4l0.2-0.3l0.1-0.3l0.1-0.2
		l0.1-0.1l0,0l0.6,0.3l0.5,0.3l0.5,0.3l0.4,0.3l0.4,0.3l0.4,0.3l0.4,0.3l0.4,0.4l0.4,0.4l0.4,0.4l0.4,0.5l0.5,0.6l0.5,0.6l0.6,0.7
		l0.6,0.8l0.7,0.9l0.7,1l0.8,1.2l1.9,2.7l1.6,0.8l0.7,0.3l0.6,0.3l0.5,0.3l0.5,0.3l0.4,0.3l0.4,0.2l0.3,0.2l0.3,0.2l0.3,0.3l0.3,0.3
		l0.2,0.3l0.2,0.3l0.2,0.3l0.2,0.4l0.2,0.4l0.2,0.4l0.2,0.5l0.2,0.5l1.4-1l0.1-0.1l0.1-0.2l0.1-0.2l0.1-0.2l0.1-0.3l0.1-0.3l0.2-0.3
		l0.3-0.7l0.3-0.6l0.3-0.6l0.2-0.7l0.2-0.7l0.2-0.8l0.1-0.9l0.1-1.1l0-1.3l0-1.5l-0.1-1.7l-0.1-2l-0.2-2.3l-0.2-2.6l-0.3-3l-0.4-3.3
		l-0.4-3.8l-0.5-4.2l-0.6-4.7l-0.6-5.2l8.9,3l3.8,1.3l3.5,1.2l3.1,1.1l2.9,1l2.6,1l2.4,0.9l2.3,0.9l2.1,0.9l2.1,0.9l2,1l2.1,1
		l2.1,1.1l2.2,1.2l2.4,1.3l2.5,1.4l2.8,1.6l3,1.7l0.8,0.5l0.4,0.2l0.3,0.2l0.3,0.2l0.3,0.2l0.2,0.2l0.2,0.2l0.2,0.2l0.2,0.2l0.2,0.2
		l0.2,0.2l0.2,0.2l0.1,0.2l0.1,0.2l0.1,0.2l0.2,0.3l0.2,0.3l0.2,0.3l0.2,0.3l0.2,0.4l1.3,2.5l1.1,2.3l1,2.3l0.8,2.3l0.7,2.3l0.7,2.4
		l0.6,2.5l0.6,2.7l0.6,3l0.6,3.3l0.6,3.7l1.5,8.8l0.9,5.2l1.1,5.8l1.2,6.5l1.4,7.2l1.6,8l1.8,8.8l1.1,6.7l1,6l0.9,5.4l0.8,4.9
		l0.6,4.4l0.6,3.9l0.5,3.5l0.4,3.2l0.3,2.9l0.3,2.6l0.2,2.4l0.2,2.2l0.2,2.1l0.1,2.1l0.3,4.2l0.1,2.2l0.2,2.4l0.2,2.5l0.2,2.8
		l-0.8,1.6L262.8,319.4z M222.8,322.3l1.4-18l0.6-7.7l0.5-6.8l0.4-6l0.4-5.3l0.3-4.6l0.2-3.9l0.2-3.3l0.1-2.8l0.1-2.3l0-1.8l0-1.4
		l-0.1-1.1l-0.1-0.8l-0.2-0.5l-4-4.1V322.3z M156.4,375.6v-0.5h-2.3l-0.3-1.1l-0.8-0.8l-1.1-0.3l-1.1,0.3l-0.8,0.8l-0.3,1.1l0.3,1.1
		l0.8,0.8l1.1,0.3l1.1-0.3l0.8-0.8l0.2-0.7H156.4z M148.4,289.2l0-0.6l-0.6-1l-1-0.6l-1.2,0l-1,0.6l-0.6,1l0,1.2l0.6,1l1,0.6l1.2,0
		l1-0.6l0.6-1v-0.1h2.3v-0.5H148.4z M138.4,195.4l-0.3,1.1l0.3,1.1l0.8,0.8l1.1,0.3l1.1-0.3l0.8-0.8l0.2-0.7h2.4v-0.5h-2.3l-0.3-1.1
		l-0.8-0.8l-1.1-0.3l-1.1,0.3L138.4,195.4z M145.6,246.2h2.4v-0.5h-2.3l-0.3-1.1l-0.8-0.8l-1.1-0.3l-1.1,0.3l-0.8,0.8l-0.3,1.1
		l0.3,1.1l0.8,0.8l1.1,0.3l1.1-0.3l0.8-0.8L145.6,246.2z M160.1,411h-2.5l-0.3-1.1l-0.8-0.8l-1.1-0.3l-1.1,0.3l-0.8,0.8l-0.3,1.1
		l0.3,1.1l0.8,0.8l1.1,0.3l1.1-0.3l0.8-0.8l0.2-0.7h2.6V411z M151.9,332l-0.3-1.1l-0.8-0.8l-1.1-0.3l-1.1,0.3l-0.8,0.8l-0.3,1.1
		l0.3,1.1l0.8,0.8l1.1,0.3l1.1-0.3l0.8-0.8l0.2-0.6h2.4V332H151.9z M151.9,332"/>
	<path class="st3" d="M67.9,418.4l0.8,0.2l0.8,0.2l0.9,0.2l0.9,0.3l0.9,0.3l2.5,2.2l1.1,1l1.1,0.9l1,0.9l0.9,0.8l0.9,0.8l0.8,0.8
		l0.8,0.7l0.7,0.7l0.7,0.7l0.6,0.7l0.6,0.7l0.6,0.7l0.6,0.7l0.5,0.8l0.5,0.8l0.5,0.8l0.5,0.9l0.1,0.1l0.4,0.8l0.4,0.7l0.7,1.4
		l0.3,0.6l0.3,0.6l0.4,0.6l0.4,0.7l0.4,0.7l0.5,0.8l0.5,0.8l0.6,0.9l0.7,1l0.8,1.1l0.9,1.2l1,1.4l1.1,1.5l1.3,1.7l1.4,1.8l0.1,0.3
		l0.2,0.3l0.2,0.3l0.2,0.4l0.2,0.4l0.3,0.4l0.2,0.4l0.2,0.5l0.2,0.5l0.2,0.5l0.1,0.5l0.1,0.5l0,0.5l-0.1,0.5l-0.2,0.6l-0.3,0.6
		l-0.4,0.6l-0.5,0.6l-0.7,0.6L99,463l-0.6,0.1l-0.6,0.1l-0.6,0l-0.7,0l-0.7-0.1l-0.7-0.2l-0.7-0.3l-0.8-0.4l-0.8-0.5l-0.9-0.6
		l-0.9-0.8l-0.9-0.9l-1-1.1l-1-1.3l-1.1-1.5l-1.1-1.6l-1.2-1.8l-1.2-2.1l-1.3-2.3l0-0.2l0-0.3l-0.1-0.3l-0.1-0.3l-0.1-0.3l-0.1-0.3
		l-0.1-0.3l-0.1-0.3l-0.1-0.2l-0.1-0.2l-0.1-0.1l-0.1-0.1l-0.1,0l-0.1,0.1l-0.1,0.2l-0.1,0.3l-0.1,0.4l-0.1,0.5l0,0.7l0,0.8
		l-0.5,0.9l-0.4,0.8l-0.4,0.8l-0.4,0.7l-0.4,0.7l-0.4,0.6l-0.5,0.6l-0.5,0.5l-0.6,0.5l-0.7,0.4l-0.8,0.4l-0.9,0.3l-1.1,0.3l-1.2,0.3
		l-1.4,0.2l-1.6,0.2l-1.8,0.1l-2.1,0.1l-2.3,0.1l-2.6,0l-0.6-0.2l-0.6-0.2l-0.7-0.2l-0.7-0.2l-0.7-0.2l-0.7-0.2l-0.7-0.2l-0.7-0.2
		l-0.7-0.2l-0.7-0.3l-0.6-0.3l-0.6-0.3l-0.5-0.4l-0.5-0.4l-0.4-0.5l-0.4-0.5l-0.3-0.6l-0.2-0.7l-0.1-0.7l0-0.8l-0.1-0.1l-0.1,0
		l-0.1,0l-0.1,0l-0.1,0l-0.1,0l-0.1,0l-0.1,0l-0.1,0l-0.1,0l-0.1,0l-0.1,0l-0.1,0l-0.1,0L48,448l-0.1-0.1l-0.1-0.1l-0.1-0.1
		l-0.1-0.1l-0.1-0.1l0,0.2l0,0.1l0,0.1l0,0.1l-0.6-0.9l-0.5-0.8l-0.5-0.7l-0.5-0.6l-0.4-0.6l-0.8-1l-0.3-0.5l-0.3-0.4l-0.3-0.4
		l-0.3-0.4l-0.3-0.5l-0.3-0.5l-0.3-0.5l-0.3-0.6l-0.3-0.6l-0.3-0.7l-0.3-0.8l-0.3-0.8l-0.3-0.9l-0.2-0.6l-0.2-0.5l-0.2-0.5l-0.2-0.4
		l-0.2-0.4l-0.2-0.4l-0.2-0.4l-0.2-0.4l-0.2-0.4l-0.2-0.4l-0.3-0.4l-0.3-0.5l-0.3-0.5l-0.4-0.6l-0.4-0.7l-0.5-0.7l-0.6-0.8l-0.6-0.9
		l-1.5-2.1l-0.1,0l-0.1-0.1l-0.1-0.2l-0.1-0.2l-0.1-0.3l-0.1-0.4l-0.1-0.4l-0.1-0.5l-0.1-0.5l-0.1-0.6l-0.1-0.6l-0.1-0.7l-0.1-0.7
		l-0.1-0.7l-0.1-0.8l-0.1-0.8l-0.1-0.8l0-0.9l0-0.9l0-0.9l0-0.7l0-0.6l0-0.6l0-0.5l0-0.5l0-0.5l0-0.5l0-0.4l0-0.4l0-0.5l-0.1-0.5
		l-0.1-0.5l-0.1-0.5l-0.1-0.6l-0.1-0.6l-0.1-0.7l-0.1-0.8l-0.5-2.8l-1.5-4.4l-1.4-3.9l-4.9-13.8l-0.6-1.8l-0.5-1.6l-0.5-1.4
		l-0.4-1.2l-0.3-1.1l-0.2-0.9l-0.2-0.9l-0.1-0.8l-0.1-0.8l-0.1-0.8l0-0.8l0-0.9l0-1l-0.8-0.6l-0.7-0.5l-0.6-0.5l-0.6-0.5l-0.5-0.4
		l-0.5-0.4l-0.4-0.4l-0.4-0.4l-0.4-0.4l-0.4-0.4l-0.4-0.4l-0.4-0.5l1.5-0.5l1.6-0.5l1.7-0.5l1.8-0.5l1.9-0.4l2-0.4l2.1-0.3l2.1-0.2
		l2.1-0.2l2.2-0.1l2.2,0l2.2,0.1l2.1,0.2l2.1,0.3l2,0.4l2,0.6l1.9,0.7l1.8,0.9l1.7,1l1.6,1.2l-0.3,0l0.7,15.3l0.2,4.1l0.2,3.7
		l0.2,3.2l0.2,2.9l0.2,2.5l0.2,2.2l0.2,2l0.2,1.8l0.3,1.6l0.3,1.4l0.3,1.3l0.4,1.2l0.4,1.2l0.5,1.2l0.5,1.2l0.6,1.3l0.7,1.4l0.5,0.9
		l0.5,0.8l0.5,0.8l0.6,0.7l0.6,0.6l0.6,0.5l0.6,0.5l0.6,0.4l0.7,0.4l0.7,0.3l0.7,0.3l0.7,0.3l0.8,0.3l0.8,0.2L67.9,418.4z
		 M67.9,418.4"/>
	<path class="st1" d="M105,133l0.5-0.6l0.5-0.5l0.5-0.4l0.5-0.4l0.5-0.4l0.4-0.3l0.4-0.3l0.4-0.3l-0.3,3.2l-0.2,2.9l-0.1,2.7l0,2.4
		l0.1,2.2l0.1,2l0.2,1.8l0.2,1.6l0.3,1.5l0.3,1.3l0.4,1.2l0.4,1l0.5,0.9l0.5,0.8l0.5,0.7l0.5,0.7l0.5,0.6l0.5,0.6l0.5,0.5l0.5,0.5
		l0.1,0.9l0.1,0.8l0.1,0.7l0.1,0.6l0.1,0.6l0.1,0.5l0.2,0.5l0.2,0.4l0.2,0.4l0.2,0.4l0.2,0.4l0.3,0.4l0.3,0.5l0.3,0.5l0.4,0.6
		l0.4,0.6l0.4,0.7l0.5,0.8l0.5,0.9l0.6,1.1l-0.6,0.4l-0.5,0.3l-0.5,0.3l-0.4,0.3l-0.4,0.2l-0.4,0.2l-0.3,0.2l-0.3,0.2l-0.3,0.2
		l-0.3,0.3l-0.3,0.3l-0.3,0.4l-0.4,0.4l-0.4,0.5l-0.4,0.6l-0.4,0.6l-0.5,0.7l-0.5,0.9l-0.6,1l-0.7,1.1l-1,0.9l-1,0.9l-0.9,0.8
		l-0.8,0.7l-0.7,0.6l-0.7,0.6l-0.6,0.5l-0.6,0.5l-0.6,0.4l-0.6,0.4l-0.6,0.4l-0.6,0.3l-0.6,0.3l-0.7,0.3l-0.7,0.3l-0.8,0.3l-0.9,0.4
		l-0.9,0.4l-1,0.4l-1.1,0.5l0-1.4l0-1.3l0-2.3l0-1.1l0-1l0-1l0-1l0-1.1l-0.1-1.1l-0.1-1.2l-0.1-1.3l-0.1-1.4l-0.2-1.5l-0.2-1.7
		l-0.2-1.9l-0.3-2.1l-0.3-2.3l0-5.3l0-1.4l0-1.2l0-1.1l0.1-1l0.1-0.9l0.1-0.8l0.1-0.7l0.2-0.7l0.2-0.6l0.3-0.6l0.3-0.6l0.4-0.6
		l0.4-0.6l0.5-0.7l0.5-0.7l0.6-0.8l0.7-0.9l0.6-2l0.6-1.8l0.6-1.6l0.6-1.5l0.6-1.3l0.6-1.2l0.6-1.1l0.5-0.9l0.5-0.8l0.5-0.7L105,133
		z M105,133"/>
	<path class="st3" d="M108.6,129.7l0.4-0.3l-0.1-0.6l-0.1-0.7l-0.1-0.8l-0.1-0.9l0-1l0-1l0-1l0-1.1l0-1.1l0-1.1l0-1.1l0.1-1l0.1-1
		l0.1-0.9l0.1-1.7l0-0.7l0-0.6l1.8,2.4l1.9,2.2l1.9,1.9l1.9,1.7l1.9,1.4l1.9,1.2l1.9,1l1.8,0.9l0.9,0.4l0.9,0.4l0.9,0.3l0.9,0.3
		l0.9,0.2l0.9,0.2l0.8,0.2l0.8,0.1l0.8,0.1l0.7,0.1l0.7,0.1l3-0.1l2.8-0.2l2.6-0.4l2.4-0.5l2.2-0.6l2-0.8l1.8-0.9l1.7-1l1.5-1
		l1.4-1.1l1.2-1.2l1.1-1.2l1-1.3l1-1.3l0.9-1.4l0.8-1.4l0.8-1.4l0.7-1.4l1.4-2.7l-0.2,1.6l-0.1,1.5l-0.1,1.4l-0.1,1.3l0,1.2l0,1.1
		l0,1l0,0.9l0,0.9l0,0.8l0.1,0.7l0.1,0.6l0.1,0.6l0.1,0.5l0.1,0.5l0.1,0.4l0.1,0.4l0,0.3l0,0.3l0,0.2l0,0.8l0,0.9l0,0.9l0,0.9l0,0.9
		l0.1,0.9l0.1,0.9l0.1,0.9l0.1,0.9l0.1,0.9l0.1,0.8l0.2,0.8l0.2,0.7l0.2,0.7l0.2,0.6l0.3,0.6l0.3,0.5l0.3,0.4l0.4,0.4l0.4,0.3l0,2.6
		l-0.1,2.4l-0.2,2.3l-0.3,2.1l-0.4,2l-0.5,1.9l-0.6,1.8l-0.7,1.7l-0.7,1.7l-0.8,1.6l-0.9,1.6l-1,1.6l-1,1.6l-1.1,1.6l-1.2,1.7
		l-1.3,1.8l-2.7,3.8l-1.5,2l-1.5,2.2l0,0.1l0,0.1l0,0.1l0,0.1l-0.1,0.1l-0.1,0.1l-0.1,0.2l-0.2,0.2l-0.2,0.2l-0.3,0.2l-0.4,0.3
		l-0.4,0.3l-0.5,0.4l-0.6,0.4l-0.7,0.5l-0.8,0.6l-0.9,0.6l-3.4,2.4l-0.1,0l-0.1,0l-0.1,0l-0.1,0l-0.2-0.1l-0.2-0.1l-0.2-0.1
		l-0.3-0.1l-0.3-0.2l-0.4-0.2l-0.4-0.2l-0.5-0.3l-0.6-0.3l-0.6-0.4l-2.4-1.4l-0.3,0l-0.2,0l-0.2,0l-0.2,0l-0.2,0l-0.2,0l-0.2,0
		l-0.2,0.1l-0.2,0.1l-0.2,0.1l-0.2,0.1l-0.2,0.1l-0.3,0.1l-0.3,0.2l-0.3,0.2l-0.4,0.2l-0.4,0.3l-0.4,0.3l-1,0.7l-0.9-0.6l-0.8-0.6
		l-0.8-0.5l-1.3-0.8l-0.5-0.3l-0.5-0.3l-0.4-0.3l-0.4-0.3L123,179l-0.3-0.4l-0.3-0.4l-0.3-0.5l-0.3-0.5l-0.3-0.6l-0.4-0.7l-0.1-0.2
		l-1.2-4.3l-0.6-1.1l-0.5-0.9l-0.5-0.8l-0.4-0.7l-0.4-0.6l-0.4-0.6l-0.3-0.5l-0.3-0.5l-0.3-0.4l-0.2-0.4l-0.2-0.4l-0.2-0.4l-0.2-0.4
		l-0.2-0.5l-0.1-0.5l-0.1-0.6l-0.1-0.6l-0.1-0.7l-0.1-0.8l-0.1-0.9l-0.5-0.5l-0.5-0.5l-0.5-0.6l-0.5-0.6l-0.5-0.7l-0.5-0.7l-0.5-0.8
		l-0.5-0.9l-0.4-1l-0.4-1.2l-0.3-1.3l-0.3-1.5l-0.2-1.6l-0.2-1.8l-0.1-2l-0.1-2.2l0-2.4l0.1-2.7l0.2-2.9L108.6,129.7z M108.6,129.7"
		/>
	<path class="st3" d="M213.3,397.7l1-2.2l0.9-2.3l0.9-2.3l0.8-2.4l0.7-2.5l0.7-2.5l0.6-2.6l0.6-2.7l0.6-2.8l0.5-2.9l0.5-3l0.5-3.1
		l0.5-3.3l1.7-10.6l3.6-1.4l3.3-1l3-0.7l2.8-0.3l2.5,0l2.3,0.2l2.1,0.4l1.8,0.6l1.6,0.8l1.4,0.9l1.3,1l1.1,1l0.9,1l0.8,1l0.6,0.9
		l0.5,0.8l0.4,0.7l0.2,0.6l0.1,0.4l0,0.1h-1.8l-2.3,6.3l-2.1,5.7l-1.9,5.1l-1.7,4.5l-1.5,4l-1.3,3.5l-1.1,3l-1,2.6l-0.9,2.2
		l-0.7,1.8l-0.6,1.5l-0.5,1.2l-0.4,0.9l-0.3,0.7l-0.2,0.5l-0.2,0.3l0,2.1l-0.1,2l-0.2,1.8l-0.2,1.7l-0.3,1.6l-0.3,1.5l-0.4,1.4
		l-0.4,1.3l-0.5,1.2l-0.5,1.1l-0.5,1.1l-0.6,1l-0.6,1l-0.6,1l-0.6,1l-0.6,1l-0.6,1l-0.6,1l-0.6,1.1l-0.6,1.1l0,1l0,1l-0.1,1l-0.1,1
		l-0.1,0.9l-0.1,0.9l-0.2,0.9l-0.2,0.9l-0.2,0.8l-0.2,0.8l-0.2,0.8l-0.2,0.7l-0.2,0.7l-0.2,0.6l-0.2,0.6l-0.2,0.5l-0.2,0.5l-0.2,0.4
		l-0.2,0.4l-0.2,0.3l-1.3,1.5l-1.4,1.2l-1.4,1l-1.5,0.8l-1.5,0.7l-1.5,0.5l-1.6,0.3l-1.6,0.2l-1.6,0.1l-1.6,0l-1.6-0.1l-1.6-0.2
		l-1.6-0.2l-1.6-0.3l-1.5-0.3l-1.5-0.3l-1.5-0.3l-1.4-0.3l-1.4-0.3l-1.2-0.2l0.4-1.6l0.9-3.4l0.9-3.2l0.8-3l0.8-2.7l0.8-2.5l0.7-2.3
		l0.7-2.1l0.7-1.9l0.6-1.7l0.6-1.5l0.6-1.3l0.5-1.2l0.5-1l0.5-0.8l0.4-0.7l0.4-0.5l0.4-0.4l0.3-0.2l0.3-0.1l0-0.8l0-0.7l0-0.6l0-0.6
		l0-0.5l0-0.5l0-0.4l0.1-0.4l0.1-0.4l0.1-0.3l0.1-0.3l0.1-0.3l0.2-0.3l0.2-0.3l0.2-0.4l0.3-0.4l0.3-0.4l0.3-0.5l0.4-0.5l0.4-0.6
		l1.5-2l1.3-2.1l1.2-2.1L213.3,397.7z M213.3,397.7"/>
	<path class="st1" d="M164.9,171.3l-0.4-0.4l-0.4-0.4l-0.4-0.3l-0.4-0.3l-0.4-0.3l-0.4-0.3L162,169l-0.5-0.3l-0.6-0.3l0,0l-0.1,0.1
		l-0.1,0.2l-0.1,0.3l-0.2,0.3l-0.2,0.4l-0.3,0.4l-0.3,0.5l-0.4,0.5l-0.4,0.5l-0.5,0.5l-0.6,0.6l-0.7,0.6l-0.7,0.6l-0.8,0.6l-0.9,0.6
		l-1,0.5l-1.1,0.5l-1.2,0.5l-1.2,0.5l1.5-2.2l1.5-2l2.7-3.8l1.3-1.8l1.2-1.7l1.1-1.6l1-1.6l1-1.6l0.9-1.6l0.8-1.6l0.7-1.7l0.7-1.7
		l0.6-1.8l0.5-1.9l0.4-2l0.3-2.1l0.2-2.3l0.1-2.4l0-2.6l-0.4-0.3l-0.4-0.4l-0.3-0.4l-0.3-0.5l-0.3-0.6l-0.2-0.6l-0.2-0.7l-0.2-0.7
		l-0.2-0.8l-0.1-0.8l-0.1-0.9l-0.1-0.9l-0.1-0.9l-0.1-0.9l-0.1-0.9l0-0.9l0-0.9l0-0.9l0-0.9l0-0.8l0.4,0.1l0.5,0.2l0.5,0.2l0.6,0.2
		l0.6,0.2l0.6,0.3l0.6,0.3l0.6,0.3l0.6,0.4l0.6,0.4l0.6,0.5l0.6,0.6l0.6,0.6l0.6,0.7l0.6,0.8l0.5,0.9l0.5,0.9l0.5,1l0.4,1.1l0.3,1.2
		l0.1,0.3l0.1,0.4l0.1,0.4l0.1,0.4l0.2,0.5l0.2,0.5l0.2,0.5l0.2,0.5l0.3,0.5l0.3,0.5l0.3,0.5l0.3,0.5l0.3,0.4l0.4,0.4l0.4,0.4
		l0.4,0.4l0.4,0.3l0.5,0.3l0.5,0.2l0.5,0.2l0.6,5.2l0.6,4.7l0.5,4.2l0.4,3.8l0.4,3.3l0.3,3l0.2,2.6l0.2,2.3l0.1,2l0.1,1.7l0,1.5
		l0,1.3l-0.1,1.1l-0.1,0.9l-0.2,0.8l-0.2,0.7l-0.2,0.7l-0.3,0.6l-0.3,0.6l-0.3,0.7l-0.2,0.3l-0.1,0.3l-0.1,0.3l-0.1,0.2l-0.1,0.2
		l-0.1,0.2l-0.1,0.1l-1.4,1l-0.2-0.5l-0.2-0.5L179,186l-0.2-0.4l-0.2-0.4l-0.2-0.3l-0.2-0.3l-0.2-0.3l-0.3-0.3l-0.3-0.3l-0.3-0.2
		l-0.3-0.2l-0.4-0.2l-0.4-0.3l-0.5-0.3l-0.5-0.3l-0.6-0.3l-0.7-0.3l-1.6-0.8l-1.9-2.7l-0.8-1.2l-0.7-1l-0.7-0.9l-0.6-0.8l-0.6-0.7
		l-0.5-0.6l-0.5-0.6l-0.4-0.5L164.9,171.3z M164.9,171.3"/>
	<path class="st4" d="M167.9,54.8l-0.1-1.5l-0.2-1.4l-0.2-1.3l-0.2-1.3l-0.3-1.3l-0.3-1.3l-0.4-1.3l-0.4-1.5l-0.9-3.4l-0.6-2
		l0.3-0.1l0.3-0.1l0.3-0.1l0.3-0.1l0.2-0.1l0.2-0.1l0.2-0.1l0.6-0.2l0.7-0.2l0.6-0.1l0.6-0.1l0.5-0.1l0.4,0l0.4,0l0.4,0l0.3,0.1
		l0.3,0.1l0.2,0.1l0.2,0.1l0.2,0.1l0.1,0.1l0.1,0.1l0.1,0.1l0.1,0.1l0,0.1l0.9,2.2l0.8,2.2l0.7,2.1l0.5,2l0.4,2l0.4,1.9l0.3,1.8
		l0.2,1.7l0.1,1.6l0.1,1.5l0,1.4l0,1.3l-0.1,1.1l-0.1,1l-0.1,0.9l-0.1,0.7l-0.1,0.6l-0.1,0.4l-0.1,0.2l0,0.1l-0.6,0.7l-0.5,0.6
		l-0.5,0.6l-0.4,0.6l-0.4,0.6l-0.4,0.6l-0.3,0.6l-0.3,0.6l-0.3,0.6l-0.3,0.6l-0.3,0.7l-0.3,0.7l-0.3,0.7l-0.3,0.8l-0.9,2.9l-0.4,1.1
		l-0.4,1.2l-0.5,1.3l0-4.4l0-3.9l0-3.5l0-3.1l0-2.7l-0.1-2.4l-0.1-2.1l-0.1-1.9L167.9,54.8z M167.9,54.8"/>
	<path d="M48.8,458.2l0-0.3l0-0.4l0-0.4l-0.1-0.5l-0.1-0.6l-0.1-0.7l-0.1-0.8l-0.1-0.9l-0.2-1l-0.2-1.1l-0.5-2.7l0-0.2l0-0.1l0-0.1
		l0-0.1l0-0.1l0-0.1l0-0.1l0-0.1l0-0.1l0,0l0,0l0-0.1l0-0.1l0-0.1l0-0.1l0-0.2l0.1,0.1l0.1,0.1l0.1,0.1l0.1,0.1L48,448l0.1,0.1
		l0.1,0l0.1,0l0.1,0l0.1,0l0.1,0l0.1,0l0.1,0l0.1,0l0.1,0l0.1,0l0.1,0l0.1,0l0.1,0l0.1,0.1l0,4.4l0,7.8l0,0l0,0l0,0l0,0l0,0l0,0l0,0
		l0,0l0,0l0,0l0,0l0,0l-0.1,0l-0.1,0l-0.1,0l-0.1,0l-0.1,0l-0.1,0l-0.1,0l-0.1,0l0-0.1l0-0.1l0-0.1l0-0.1l0-0.1l0-0.1l0-0.1l0-0.1
		l0-0.1l0-0.1l0-0.1l0-0.1l0-0.1l0-0.1l0-0.1l0-0.1l0-0.1l0-0.1l0-0.1l0.1-0.1l0.1-0.1l0.1-0.1l0.1-0.1l0.1-0.1l0.1-0.2l0-0.2
		L48.8,458.2z M48.8,458.2"/>
	<path class="st3" d="M103.2,86.4l0,0.7l0,0.7l0,0.7l0,0.7l0,0.7l0,0.6l0,0.6l0.1,0.5l0.1,0.5l0.1,0.4l0.1,0.3l0.1,0.3l0.1,0.2
		l0.1,0.1l-0.7,0l-0.7-0.1l-0.6-0.2l-0.6-0.2l-0.5-0.3l-0.5-0.3L100,92l-0.4-0.4l-0.4-0.4l-0.3-0.4l-0.3-0.4l-0.2-0.4l-0.2-0.4
		L98,89.4L97.9,89l-0.1-0.3l-0.1-0.3l-0.1-0.2l0-0.2l0-0.1l-0.1-0.3l-0.1-0.3l-0.1-0.4l-0.1-0.4L97,86l-0.1-0.5L96.8,85l-0.1-0.5
		l-0.1-0.6l-0.1-0.6l-0.1-0.6l-0.1-0.6l-0.4-2.3l-0.1-0.5l-0.1-0.5l-0.1-0.5l-0.1-0.4l-0.2-0.8L95,76.4l-0.2-0.7l-0.2-0.7l-0.2-0.6
		l-0.1-0.6l-0.1-0.6l-0.1-0.5L94,72.3l-0.1-0.5l-0.1-0.4l0-0.4l0-0.4l0-0.4l0-0.3l0-0.3l0-0.3l0-0.2l0-0.2l0-0.2l0.2-0.6l0.2-0.5
		l0.2-0.4l0.2-0.3l0.2-0.2l0.2-0.2l0.2-0.1l0.2-0.1l0.2,0l0.2,0l0.2,0l0.2,0l0.2,0l0.2,0.1l0.1,0.1l0.1,0l0.1,0l0.1,0l0,0l0.5,0.5
		l0.5,0.5l0.4,0.6l0.4,0.6l0.3,0.6l0.3,0.7l0.3,0.7l0.3,0.7l0.2,0.7l0.2,0.8l0.2,0.8l0.2,0.8l0.2,0.9l0.4,1.8l0.2,1l0.2,1l0.3,1
		l0.3,1.1l0.3,1.1l0,1.2l0,0.7l0,0.7l0,0.7L103.2,86.4z M103.2,86.4"/>
	<path class="st4" d="M102.6,80.2l-0.3-1l-0.2-1l-0.2-1l-0.4-1.8l-0.2-0.9l-0.2-0.8l-0.2-0.8l-0.2-0.8l-0.2-0.7l-0.3-0.7L99.8,70
		l-0.3-0.7l-0.3-0.6l-0.4-0.6l-0.4-0.6L97.8,67l-0.5-0.5l0-0.1l-0.4-2.6l-0.3-2.5l-0.2-2.3l-0.2-2.2l-0.1-2l0-1.9l0-1.8l0.1-1.7
		l0.2-1.5l0.2-1.4l0.3-1.3l0.3-1.2l0.3-1.2l0.4-1.1l0.4-1l0.4-0.9l0.4-0.9l0.5-0.8l0.5-0.8l0.5-0.7l1.4-2.6l1.5-2.4l1.6-2.2l1.7-2
		l1.8-1.8l1.9-1.6l2-1.5l2-1.3l2-1.2l2-1l2-0.9l1.9-0.7l1.8-0.6l1.7-0.5l1.6-0.4l1.5-0.3l1.4-0.2l1.2-0.2l1-0.1l0.8,0l3.5,0.4
		l3.3,0.6l3.1,0.7l2.9,0.8l2.7,0.9l2.6,1l2.4,1.1l2.2,1.1l2,1.2l1.8,1.2l1.7,1.2l1.5,1.2l1.3,1.1l1.1,1.1l1,1l0.8,0.9l0.6,0.8
		l0.4,0.7l0.3,0.6l0.1,0.4l-0.2,0.7l-0.2,0.6l-0.2,0.6l-0.2,0.5l-0.2,0.4l-0.2,0.4l-0.2,0.4l-0.2,0.3l-0.2,0.3l-0.2,0.2l-0.2,0.2
		l-0.2,0.2l-0.2,0.1l-0.2,0.1l-0.2,0.1l-0.2,0.1l-0.3,0.1l-0.3,0.1l-0.3,0.1l-0.3,0.1l-1.1-1.4l-1.2-1.3l-1.2-1.2l-1.3-1l-1.4-0.9
		l-1.4-0.8l-1.5-0.7l-1.5-0.6l-1.6-0.5l-1.6-0.4l-1.6-0.3l-1.7-0.3l-1.7-0.2l-1.7-0.1l-1.7-0.1l-1.8-0.1l-1.8,0l-1.8,0l-3.6,0
		l-2.8,0.1l-2.6,0.3l-2.5,0.5l-2.3,0.6l-2.1,0.7l-2,0.9l-1.9,0.9l-1.7,1l-1.6,1.1l-1.4,1.1l-1.3,1.1l-1.1,1.1l-1,1.1l-0.9,1.1
		l-0.7,1l-0.6,1l-0.5,0.9l-0.3,0.8l-0.2,0.6l-0.1,0.5l-1.1,7.5l-0.4,3.2l-0.4,2.9l-0.3,2.5l-0.3,2.3l-0.2,2l-0.2,1.8l-0.2,1.6
		l-0.1,1.5l-0.1,1.3l0,1.2l0,1.1l0,1.1l0.1,1.1l0.1,1.1l0.1,1.1l0.1,1.2L103,81l0.2,1.4l-0.3-1.1L102.6,80.2z M102.6,80.2"/>
	<path class="st0" d="M131.1,849.6l-0.7,1.3l-0.8,1.1l-0.8,0.9l-0.9,0.5l-1.1,0.5l-1.2,0.4l-1.3,0.4l-1.4,0.3l-1.5,0.3l-1.6,0.2
		l-1.7,0.1l-1.8,0.1l-1.9,0l-2,0l-2.1-0.1l-2.2-0.1l-2.3-0.2l-2.4-0.2l-2.5-0.3l-2.5-0.4l-2.6-0.4l-2.7-0.5l-2.7-0.5l-1-1.1
		l-0.9-1.2l-0.8-1.3l-0.7-1.3l-0.6-1.3l-0.5-1.3l-0.3-2.6l-0.1-1.1l-0.1-1l-0.1-0.9l-0.1-0.8l-0.1-0.8l-0.1-0.7l0-0.6l0-0.6l0-0.6
		l0-0.6l0-0.6l0-0.6l0-0.6l0-0.6l0-0.7l0.1-0.8l0.1-0.8l0.1-0.9l0.8-2.9l0.8-2.6l0.8-2.3l0.7-2l0.7-1.7l0.6-1.5l0.6-1.2l0.6-1
		l0.5-0.9l0.5-0.7l0.4-0.6l0.4-0.5l0.3-0.4l0.5-0.5l0.2-0.2l0.1-0.2l0.1-0.2l0-0.3l-0.1-1.4l-0.1-1.3l0-1.1l0-1l0-0.9l0-0.8l0-0.7
		l0-0.6l0-0.5l0-0.5l0-0.4l0-0.4l0-0.3l0-0.3l0-0.3l0-0.3l0-0.3l0-0.3l0-0.3l0-0.3l0.2-0.2l0.2-0.3l0.2-0.4l0.3-0.5l0.4-0.6l0.5-0.7
		l0.7-0.7l0.9-0.8l1.2-0.8l1.5-0.8l1.8-0.8l2.1-0.7l2.5-0.7l3-0.6l3.4-0.5l3.9-0.4l4.5-0.3l5-0.2l5.6-0.1l0.4,2.3l0.4,2.3l0.4,2.3
		l0.4,2.3l0.3,2.2l0.3,2.2l0.3,2.1l0.2,2.1l0.2,2l0.2,1.9l0.2,1.8l0.2,1.7l0.1,1.6l0,5.2l-0.1,4.7l-0.2,4.3l-0.3,3.9l-0.4,3.5
		l-0.4,3.1l-0.5,2.8l-0.6,2.4l-0.6,2.1l-0.7,1.8L131.1,849.6z M131.1,849.6"/>
	<path class="st2" d="M223.7,446.8l-0.3,0.7l-0.4,0.7l-0.5,0.7l-0.6,0.7l-0.7,0.7l-0.8,0.6l-0.9,0.6l-1,0.5l-1.2,0.5l-1.3,0.4
		l-1.5,0.3l-1.7,0.3l-1.8,0.2l-2,0.1l-2.2-0.1l-2.4-0.2l-2.6-0.3l-2.9-0.5l-3.1-0.6l-3.3-0.8l0.5-1.9l0.5-2.1l1.2,0.2l1.4,0.3
		l1.4,0.3l1.5,0.3l1.5,0.3l1.5,0.3l1.6,0.3l1.6,0.2l1.6,0.2l1.6,0.1l1.6,0l1.6-0.1l1.6-0.2l1.6-0.3l1.5-0.5l1.5-0.7l1.5-0.8l1.4-1
		l1.4-1.2l1.3-1.5L223.7,446.8z M223.7,446.8"/>
	<path class="st1" d="M43,357l-2-0.4l-2.1-0.3l-2.1-0.2l-2.2-0.1l-2.2,0l-2.2,0.1l-2.1,0.2l-2.1,0.2l-2.1,0.3l-2,0.4l-1.9,0.4
		l-1.8,0.5l-1.7,0.5l-1.6,0.5l-1.5,0.5L13,359l-1-1.2l-0.6-0.7l-0.7-0.8l-0.7-0.8l-0.2-0.3L9.6,355l-0.2-0.2l-0.1-0.2l-0.1-0.2
		l-0.1-0.2L9,354l0-0.2l0-0.2l0-0.2l0-0.2l0-0.2l0-0.3l0-0.3l0-0.3l0-0.3l0-0.4l0-0.4l0-0.5l0-0.5l0.7-3.3l0.6-2.9l0.5-2.6l1.2-6.1
		l0.3-1.5l0.3-1.3l0.2-1.1l0.2-0.9l0.2-0.7l0.2-0.6l0.2-0.4l0.2-0.3l0.2-0.2L14,328l0.2-0.1l0.2,0l0.3,0l5.5-0.8l5-0.6l4.5-0.5
		l4-0.3l3.5-0.2l3.1-0.1l2.7,0l2.3,0.1l1.9,0.1l1.6,0.2L50,326l1.1,0.3l0.8,0.3l0.6,0.3l0.4,0.3l0.3,0.3l0.2,0.2l0.1,0.2l0,0.1l0,0
		l0,12.9l0,3.4l0,3l0,2.6l0,2.3l0,2l0,1.7l-0.1,1.4l-0.1,1.1l-0.1,0.9l-0.1,0.7l-0.1,0.5l-0.1,0.4l-0.2,0.3l-0.2,0.2l-0.2,0.1
		l-0.2,0.1l-1.6-1.2l-1.7-1l-1.8-0.9l-1.9-0.7L43,357z M43,357"/>
	<path class="st3" d="M172.9,88.6l-0.6,1l-0.7,1.1l-0.8,1.1l-0.9,1.2l-0.2,0.1l-0.2,0.1l-0.2,0.1l-0.2,0.1l-0.2,0.1l-0.2,0l-0.2,0
		l-0.2,0l-0.2,0l-0.2-0.1l-0.2-0.1l-0.2-0.1l-0.2-0.2l-0.2-0.2l-0.1-0.3l-0.1-0.3l-0.1-0.4l-0.1-0.4l0-0.5l0-0.5l0-0.6l0-0.5
		l0.1-0.5l0.1-0.5l0.1-0.4l0.1-0.4l0.1-0.4l0.1-0.4l0.1-0.4l0.1-0.4l0.1-0.4l0.1-0.4l0.1-0.4l0.1-0.4l0.1-0.5l0.1-0.5l0.1-0.6
		l0.1-0.6l0-0.7l0-0.8l0.5-1.3l0.4-1.2l0.4-1.1l0.9-2.9l0.3-0.8l0.3-0.7l0.3-0.7l0.3-0.7l0.3-0.6l0.3-0.6l0.3-0.6l0.3-0.6l0.4-0.6
		l0.4-0.6l0.4-0.6l0.5-0.6l0.5-0.6l0.2,0l0.2,0l0.2,0l0.2,0L176,66l0.2,0.1l0.2,0.2l0.2,0.2l0.2,0.3l0.2,0.3l0.1,0.4l0.1,0.5
		l0.1,0.6l0,0.7l0,0.8l-0.1,0.9l-0.2,1l-0.2,1.1l-0.3,1.2l-0.4,1.4l0,0.7l0,0.7l0,0.7l0,0.7l0,0.7l-0.1,0.8l-0.1,0.8l-0.1,0.8
		l-0.2,0.8l-0.2,0.8l-0.3,0.9l-0.3,0.9l-0.4,0.9l-0.4,1l-0.5,1L172.9,88.6z M172.9,88.6"/>
	<path class="st1" d="M226.9,266.7l-0.2,3.3l-0.2,3.9l-0.3,4.6l-0.4,5.3l-0.4,6l-0.5,6.8l-0.6,7.7l-1.4,18v-70.5l4,4.1l0.2,0.5
		l0.1,0.8l0.1,1.1l0,1.4l0,1.8l-0.1,2.3L226.9,266.7z M226.9,266.7"/>
	<path class="st5" d="M140.3,60.5l3.8-3.3h7.4l4.6,2.8l1.6,3.3l-5.1-2.7l-8.2-1.2L140.3,60.5z M140.3,60.5"/>
	<path class="st6" d="M156.4,375.1v0.5H154l0.1-0.5H156.4z M156.4,375.1"/>
	<path class="st7" d="M154.1,375.1l-0.1,0.5l-0.2,0.7l-0.8,0.8l-1.1,0.3l-1.1-0.3l-0.8-0.8l-0.3-1.1l0.3-1.1l0.8-0.8l1.1-0.3
		l1.1,0.3l0.8,0.8L154.1,375.1z M154.1,375.1"/>
	<path class="st7" d="M148.4,288.6l0,0.6l0,0.5v0.1l-0.6,1l-1,0.6l-1.2,0l-1-0.6l-0.6-1l0-1.2l0.6-1l1-0.6l1.2,0l1,0.6L148.4,288.6z
		 M148.4,288.6"/>
	<path class="st6" d="M148.4,289.2h2.3v0.5h-2.3L148.4,289.2z M148.4,289.2"/>
	<path class="st7" d="M138.1,196.6l0.3-1.1l0.8-0.8l1.1-0.3l1.1,0.3l0.8,0.8l0.3,1.1l-0.1,0.5l-0.2,0.7l-0.8,0.8l-1.1,0.3l-1.1-0.3
		l-0.8-0.8L138.1,196.6z M138.1,196.6"/>
	<path class="st6" d="M142.7,196.6h2.3v0.5h-2.4L142.7,196.6z M142.7,196.6"/>
	<path class="st6" d="M148.1,246.2h-2.4l0.1-0.5h2.3V246.2z M148.1,246.2"/>
	<path class="st7" d="M145.8,245.7l-0.1,0.5l-0.2,0.7l-0.8,0.8l-1.1,0.3l-1.1-0.3l-0.8-0.8l-0.3-1.1l0.3-1.1l0.8-0.8l1.1-0.3
		l1.1,0.3l0.8,0.8L145.8,245.7z M145.8,245.7"/>
	<path class="st5" d="M119.6,56.7l10.2,1.5l0.8,2.7l-11.1-1.8l-11,4.6l2.8-2.9L119.6,56.7z M119.6,56.7"/>
	<path class="st6" d="M157.6,411h2.5v0.5h-2.6L157.6,411z M157.6,411"/>
	<path class="st7" d="M153.1,411l0.3-1.1l0.8-0.8l1.1-0.3l1.1,0.3l0.8,0.8l0.3,1.1l-0.1,0.5l-0.2,0.7l-0.8,0.8l-1.1,0.3l-1.1-0.3
		l-0.8-0.8L153.1,411z M153.1,411"/>
	<path class="st7" d="M151.6,330.9l0.3,1.1l-0.1,0.5l-0.2,0.6l-0.8,0.8l-1.1,0.3l-1.1-0.3l-0.8-0.8l-0.3-1.1l0.3-1.1l0.8-0.8
		l1.1-0.3l1.1,0.3L151.6,330.9z M151.6,330.9"/>
	<path class="st6" d="M151.9,332h2.3v0.5h-2.4L151.9,332z M151.9,332"/>
	<path class="st8" d="M193.7,844.1l0.7,0.9 M262.7,331.5l0.4,0.6 M79.9,454.5l0.7-0.8 M261.7,329.8l0.3,0.6 M140.3,60.5l3.8-3.3
		 M94.4,797.2L91,786.3 M156.4,375.1v0.5 M67.9,418.4l0.8,0.2 M178.6,833.9l3.1,1.6 M165,104.7l0.1-0.4 M261.1,328l0.2,0.6
		 M262.8,319.4l-0.5,1.3 M262.3,320.7l-0.4,1.2 M71.5,459.5l1.3-0.3 M261.1,325l-0.1,0.8 M195.7,848.4l0.1,0.8 M84.7,452l1.2,1.8
		 M105,133l0.5-0.6 M105.5,132.4l0.5-0.5 M104.5,133.6l0.5-0.6 M102.9,136.1l0.5-0.9 M232.8,822.5l0.5,0.3 M233.2,822.8l0.5,0.3
		 M233.7,823.1l0.5,0.3 M234.3,823.4l0.5,0.3 M234.8,823.6l0.6,0.3 M102.3,137.1l0.6-1.1 M235.4,823.9l0.6,0.3 M98.7,146.6l0.6-2
		 M100,142.8l0.6-1.6 M236,824.2l0.7,0.3 M106.9,131.1l0.5-0.4 M103.4,135.2l0.5-0.8 M104,134.3l0.5-0.7 M105.9,131.9l0.5-0.4
		 M106.4,131.5l0.5-0.4 M107.8,130.3l0.4-0.3 M228.5,818.5l0.6,0.7 M229.1,819.2l0.6,0.6 M229.7,819.9l0.6,0.6 M101.2,139.6l0.6-1.3
		 M230.3,820.4l0.5,0.5 M230.8,820.9l0.5,0.4 M231.3,821.4l0.5,0.4 M99.4,144.6l0.6-1.8 M101.8,138.3l0.6-1.2 M231.8,821.8l0.5,0.4
		 M100.6,141.1l0.6-1.5 M232.3,822.1l0.5,0.3 M227.8,817.8l0.7,0.8 M107.3,130.7l0.4-0.3 M108.2,130l0.4-0.3 M108.6,129.7l0.4-0.3
		 M238.2,825.2l0.9,0.4 M40.8,180.6l-1.6,3.1 M32.7,199.4l-0.5,1.8 M32.2,201.1l-0.5,1.8 M31.7,202.9l-0.4,1.8 M31.3,204.8l-0.4,1.9
		 M30.9,206.7l-0.4,2 M30.5,208.7l-0.4,2.2 M30.1,210.8l-0.4,2.3 M29.7,213.1l-0.5,2.6 M39.3,183.7l-1.4,2.8 M37.9,186.5l-1.2,2.6
		 M33.9,195.6l-0.7,1.9 M33.3,197.5l-0.6,1.8 M36.7,189.1l-1,2.4 M35.6,191.5l-0.9,2.2 M34.7,193.6l-0.8,2 M29.2,215.7l-0.5,2.8
		 M28.7,218.5l-0.6,3.1 M28,221.6l-0.7,3.4 M27.3,225.1l-0.8,3.8 M216.4,801.4l0.8,1.1 M43.8,442.9l0.3,0.5 M35.8,427.1l0.6,0.8
		 M217.3,802.5l0.9,1.2 M213.3,397.7l1-2.2 M85.7,432.9l0.5,0.8 M164.9,171.3l-0.4-0.4 M153.6,554.7l-0.1-5.5 M40.7,436.7l0.3,0.8
		 M154.6,174.9l0.9-0.6 M96.9,149l-0.5,0.7 M42.6,441.2l0.3,0.5 M166,148.3l-0.4,2 M178.5,142.3L178,142 M104.6,102.1l-0.2-1
		 M146.5,180.5l0.7-0.5 M163,113.8l0,1.2 M39.7,433.8l0.2,0.4 M221.7,341l0.1-1.1 M167.9,54.8l-0.1-1.5 M235.8,167.3l0.2,0.2
		 M217.1,861.2l1.1,0.1 M148.9,529.4l-1.9-5.2 M164.1,621.6l-1.3-5.4 M163.5,123.1l0.1,0.4 M22,377.1l-0.5-1.6 M234.4,166.4l0.3,0.2
		 M159.6,170.5l0.3-0.5 M102.3,79.2l0.3,1 M212.2,399.8l1.1-2.1 M228.3,538.5l-0.3,4.2 M254.3,359.3h-1.8 M48.8,457.9l0,0.3
		 M165.1,136.8l0.3,0.6 M209,858.8l1.9,0.9 M219.9,635.4l1,9 M48.8,448.5l0.1,0 M49.1,453.1l0-4.4 M148.4,288.6l0,0.6 M261.6,284.8
		l0.4,3.2 M103.2,86.4l0,0.7 M199.7,150l2.9,1 M181.1,464.4l-1,0.3 M103.6,92.6l0.1,0.3 M53.1,457.4l0.5,0.3 M48.6,448.4L48.6,448.4
		 M114.7,175.1l0.4-0.4 M131.1,849.6l-0.7,1.3 M223.4,447.5l0.3-0.7 M223.7,442.8l-0.2,0.4 M108.7,126.2l0-1 M48.6,474.6l0,1.3
		 M43,357l-2-0.4 M48.4,461.1l0.1,0 M239.1,348.9l2.3,0.2 M138.1,196.6l0.3-1.1 M181.3,186.3l-0.1,0.2 M170.3,799.7l0.4,0.2
		 M175.8,64.4l-0.1,0.4 M48.7,470.3l0,1 M85.2,839.8l0.1,0.9 M226.8,429.8l0,1 M81.2,444.8l0.1,0.2 M166.7,723l0.4,1.7 M48.9,464.7
		l0,1 M235.8,404.9l-0.1,2 M172.3,89.6l0.6-1 M85,836.9l0,0.6 M64.6,455.8l2.1-0.1 M48.6,475.9l0,1.4 M48.7,468.5l0,0.9 M262.3,343
		l-0.8,2.7 M225.3,438.7l-0.2,0.7 M166.9,749.9l-0.2,4.9 M166.4,766.3l-0.1,6.8 M82.1,447.1l0,0.3 M118.5,620.9l-0.8,3.8
		 M226.4,433.7l-0.1,0.9 M174.8,84.7l0.3-0.9 M175.5,51l0.3,1.8 M175.2,49.1l0.4,1.9 M31.7,413.2l0-0.7 M85.1,838.9l0.1,0.8
		 M113.2,463.5l2.3,0.5 M48.9,461.1L48.9,461.1 M176,76.8l0-0.7 M123.9,125.7l0.9,0.4 M148.1,246.2h-2.4 M148.1,245.7v0.5
		 M145.8,245.7h2.3 M145.8,245.7l-0.1,0.5 M176.1,61.3l-0.1,1 M167.6,735.4l-0.1,3 M142.2,28.8l-1.8-0.1 M31.1,405.2l-0.1-0.7
		 M185.9,794.6l-2.6,0.6 M85.2,829.5l-0.1,0.9 M116.8,788.2l-3.9,0.4 M234.3,414.7l-0.4,1.3 M48.8,461.1L48.8,461.1 M49.3,450.1
		l0.2,0.7 M88.4,850.6l-0.8-1.3 M94,798.1l0-0.3 M227.6,547.1l-0.4,4.6 M191.9,452.9l-0.6,1.6 M105.5,106l-0.3-0.9 M160.5,162.3
		l-1,1.6 M201.9,420l0.5-1.2 M157.4,592.2l-0.8-4.4 M167.8,53.3l-0.2-1.4 M98.7,146.6l-0.7,0.9 M226.7,556.7l-0.6,5.3 M197.2,433.3
		l0.8-2.5 M226.1,562l-0.7,5.8 M224.7,574.2l-0.9,7 M227.2,551.7l-0.5,4.9 M13.5,328.6l0.2-0.3 M39.1,432.2l0.2,0.4 M42.9,441.6
		l0.3,0.4 M199.6,793.3l2,0.1 M159.5,163.9l-1.1,1.6 M94,798.4l0-0.3 M36.9,428.7l0.4,0.7 M48.7,456.6l0.1,0.5 M196.1,850.9l3.1,2.1
		 M97.9,189.5l0.9-0.4"/>
	<path class="st8" d="M222.9,352.7l-0.2,0 M61.6,604.1l-2.7-21.4 M48,448.1L48,448.1 M256.5,358.8L256,359 M257.5,358.2l-0.5,0.3
		 M106.9,42.4l-0.5,0.9 M156.4,375.6H154 M236.9,400.4l-0.4,0.9 M124.6,180.3l0.5,0.3 M178,184.4l-0.3-0.3 M214.3,860.8l1.6,0.3
		 M103.7,186.7l0.6-0.4 M135.6,814.2l0,5.2 M168.5,93.5l0.2,0 M104.3,186.3l0.6-0.4 M222.7,668.6l0.3,7.3 M223,675.9l0.1,3.5
		 M221.7,618.8l0,2.9 M173.9,466.2l-1.4,0.3 M126.7,853.9l-1.2,0.4 M51.7,456.4l0.4,0.4 M163.6,126l0,0.9 M112.4,35.9l-1.3,1.1
		 M260.7,352.6l-0.2,0.9 M167.4,92.9l0.2,0.2 M260.2,354.4l-0.3,0.8 M154.1,375.1l-0.1,0.5 M154.1,375.1h2.3 M221.6,624.3l-0.1,2.2
		 M167.3,467.2l-1.2,0.1 M109.2,182.3l1-0.9 M144,288.5l0.6-1 M166.8,89.2l0,0.5 M214.1,155.6l2,1 M105.9,44.7l-0.1,0.5 M48.5,455.4
		l0.1,0.7 M33.3,423.8l-0.1-0.2 M96,53l0-1.8 M260.7,349.3l0.1,1.2 M257,358.5l-0.5,0.2 M221.7,621.8l0,2.5 M48.8,457.6l0,0.4
		 M97.6,87.9l-0.1-0.3 M255.1,359.2l-0.4,0.1 M161.1,467.2l-1.3-0.1 M109.5,789.1l-3,0.6 M100.5,36.5l1.4-2.6 M122,603.4l-0.9,4.8
		 M119.6,56.7l10.2,1.5 M167.3,741.7l-0.2,3.8 M248.4,351.8l1.3,1 M217.6,448.1l-1.5,0.7 M226.5,432.7l-0.1,0.9 M161.5,824.5
		l0.1,0.4 M161.7,819.4l-0.1,1 M9,351.4l0,0.4 M140.5,183.9l0.2,0.1 M108.4,63.8l2.8-2.9 M70.1,455.4l1.4-0.2 M152.9,377.1l-1.1,0.3
		 M234.7,413.4l-0.4,1.4 M84.9,835.7l0,0.6 M193.4,447.2l0.4-1.6 M174.4,85.6l0.4-0.9 M119.3,616.9l-0.8,4 M175.7,64.8l-0.1,0.2
		 M222,449.5l0.6-0.7 M172.1,800.7L172.1,800.7 M104,790.4l-2.1,0.7 M81.4,445l0.1,0.2 M205.2,412.6l0-0.5 M166.7,754.8l-0.2,5.5
		 M167.6,732.7l-0.1,2.6 M123.7,465.5l2,0.2 M157.6,411h2.5 M235,411.9l-0.3,1.5 M108.8,117.9l0.1-1 M94.2,797.5l-0.2,0.2
		 M38.9,356.3l-2.1-0.2 M95.3,795.6l-0.4,0.6 M94.7,447.5l-0.9-1.2 M125.7,465.7l2,0.2 M245.3,350.2l1.6,0.8 M48.8,465.7l0,1
		 M100.1,791.9l-1.5,0.8 M48.3,461.1l0.1,0 M168.5,798.9l0.3,0.1 M181,795.8l-2,0.5 M140.9,184l0.1,0 M45,357.6l-2-0.6 M48.2,461.1
		l0.1,0 M133.5,796.6l0.3,2.2 M31.6,409.3l0-0.4 M48.8,461.1L48.8,461.1 M62.3,455.8l2.3-0.1 M60.9,414.9l0.6,0.5 M95.2,66.5
		l0.2-0.1 M239.1,825.6l1.6,1.3 M261.3,328.6l0.2,0.6 M95.6,66.3l0.2,0 M153.1,411l0.3-1.1 M102.9,67.4l-0.2,1.6 M79.9,742.4
		l-2.2-10.8 M179,796.6L179,796.6 M62.2,415.9l0.6,0.4 M163.5,108.1l0.3-0.5 M261.8,321.9l-0.3,1.1 M83.5,449.9l1.2,2.1
		 M261.2,324.1l-0.2,0.9 M85,764.3l-2.7-11 M97.1,463.2l0.6,0 M70.4,419.1l0.9,0.3 M262,330.4l0.3,0.6 M95.8,463.1l0.7,0.1
		 M196.6,148.9l3.1,1.1 M32.9,422.9l-0.1-0.4 M33,423.2l-0.1-0.4 M220.7,634l-0.2,0.6 M32.2,419.6l-0.1-0.7 M221.7,653l0.6,8
		 M166.8,89.8l0,0.6 M48.3,448.2L48.3,448.2 M221.4,629.9l-0.1,1.3 M220.9,644.5l0.8,8.5 M54.7,549.7L53,537.5 M171.1,466.7
		l-1.3,0.2 M167.5,36.4l-0.2,0.4 M176,182.9l-0.5-0.3 M112.4,178.4l0.5-0.9 M171.9,70.6l-0.3,0.6 M100,37.3l0.5-0.7 M222.3,661
		l0.4,7.6 M249.1,842.7l0.1,0.9 M248.4,849.2l-0.2,0.6 M117.6,641l1.4,8.3 M249.2,843.6l0,0.8 M99.5,38.1l0.5-0.8 M122.8,855
		l-1.5,0.3 M113,177.5l0.5-0.7 M164.9,38.4l-0.3,0.1 M101.9,187.7l0.6-0.3 M116,173.8l0.3-0.2 M102.5,187.4l0.6-0.3 M115.7,174
		l0.3-0.3 M243,384.7l-1.3,3.5 M130.5,28.8l-2.6,0.3 M48.9,448.5l0.1,0 M249.2,844.4l0,0.8 M249.2,845.2l0,0.7 M113.4,176.8l0.4-0.6
		 M101.2,188.1l0.7-0.3 M248.1,371.2l-1.9,5.1 M166.3,138.7l0.4,0.3 M121.4,176.6l0.3,0.6 M166.8,91.4l0.1,0.4 M222.5,159.8l2.4,1.3
		 M221.6,626.5l-0.1,1.9 M49.8,513.6l-0.6-4.8 M157.6,411l-0.1,0.5 M160.1,411.4h-2.6 M160.1,411v0.5 M85.3,840.7l0.1,1 M129.8,466
		l2.2,0.1 M167.1,745.6l-0.2,4.3 M261.5,345.7l-0.9,2.3 M161.5,822.1l0,0.7 M108.6,124.3l0-1 M161.4,822.8l0,0.6 M161.6,825.2
		l0.1,0.3 M161.9,817l-0.1,1.3 M188.9,793.9l-3,0.7 M48.5,461.1L48.5,461.1 M108.8,128l-0.1-0.8 M161.6,820.4l-0.1,0.9 M169,799.1
		l0.3,0.1 M49.1,460.9L49.1,460.9 M48.7,467.6l0,0.9 M192.4,793.2l-3.4,0.8 M31.6,408.8l0-0.4 M226.3,434.6l-0.2,0.9 M235.9,402.8
		l0,2.1 M166.2,773.1l-0.1,7.5 M263,339.7l-0.7,3.3 M105.3,105.1l-0.2-1 M220.2,375.4l0.5-2.9 M74.7,421.8l1.1,1 M200.1,424.5
		l0.6-1.7 M93.9,799.5l0-0.3 M52.5,361.2l-0.2,0.1 M90.2,852.9l-1-1.1 M188.4,459.5l-0.8,0.9 M176.3,139.7l-0.3-0.5 M167.2,49.3
		l-0.3-1.3 M176,139.3l-0.3-0.5 M145.5,246.9l-0.8,0.8 M175.8,138.8l-0.2-0.5 M235.3,167l0.2,0.2 M175.4,65.9l-0.2,0 M104.8,103.1
		l-0.2-1 M176.4,66.3l-0.2-0.2"/>
	<path class="st8" d="M163.1,119.8l0.1,0.7 M236.5,167.9l0.2,0.2 M202.4,418.8l0.5-1 M89.2,851.8l-0.9-1.2 M104,95.6l0-1.1
		 M87.6,849.4l-0.7-1.3 M86.3,846.7l-0.5-1.3 M28.8,396.6l-1.4-3.9 M186.7,461.3l-0.8,0.7 M192.4,793.2l2.6,0 M222,337.7l0.1-1.2
		 M194.7,442.2l0.9-3.2 M202.9,417.9l0.5-0.8 M176,75.5l0.4-1.4 M196.4,436.1l0.8-2.7 M40.4,435.8l0.3,0.9 M108.3,145.2l0.2,1.8
		 M39.4,433l0.2,0.4 M199.4,426.4l0.7-1.9 M168.6,32.7l0.1,0.4 M86.9,848l-0.6-1.3 M203.3,793.7l1.6,0.2 M204.9,793.9l1.4,0.3
		 M204.5,415.5l0.3-0.2 M158.3,165.5l-1.2,1.7 M189.9,457.3l-0.8,1.2 M158.3,596.7l-0.9-4.5 M107.4,110.1l-0.5-0.7 M154.9,574.4
		l-0.4-4.6 M52.9,453.9l0.7,0.3 M13.3,329.1l0.2-0.4 M93.8,805l0-0.9 M228,542.8l-0.4,4.4 M93.9,800.5l0-0.4 M108.6,129.7l-0.3,3.2
		 M228.6,534.4l-0.2,4.2 M43.2,442.1l0.3,0.4 M234,166.2l0.4,0.2 M48.2,460.8L48.2,460.8 M227.3,859.9l0.8-0.4 M228.9,525.9
		l-0.1,4.3 M48,460L48,460 M53,327.1l0.3,0.3 M197.4,793.2l2.2,0.1 M218.1,803.7l1.4,2.6 M108.5,147l0.2,1.6 M236.2,167.6l0.2,0.2
		 M35.2,426.2l0.6,0.9 M48,460.1L48,460.1 M204.2,415.9l0.4-0.4 M138.7,514.3l-0.7,1.5 M114.9,162.7l0.1,0.5 M15.1,298.9l0.9-9.6
		 M86.1,826.6l0.8-2.6 M173.4,131.9l-0.5-0.9 M191.3,454.5l-0.7,1.5 M148.7,178.8l0.4-0.3 M179.8,143.2l-0.5-0.2 M154.4,569.7
		l-0.4-4.8 M225.9,860.5l0.7-0.3 M49,448.5l0.1,0.1 M48.7,448.4L48.7,448.4 M48.5,448.3L48.5,448.3 M48.5,448.3L48.5,448.3
		 M48.4,448.3L48.4,448.3 M48.3,448.3L48.3,448.3 M48.2,448.2L48.2,448.2 M48.2,448.2L48.2,448.2 M48.1,448.1L48.1,448.1 M48,448
		L48,448 M47.9,448L47.9,448 M47.8,447.9L47.8,447.9 M47.7,447.8L47.7,447.8 M47.6,447.7L47.6,447.7 M47.5,447.6l0.1,0.1
		 M47.5,447.8L47.5,447.8 M47.5,447.8L47.5,447.8 M47.5,447.9L47.5,447.9 M47.5,447.9L47.5,447.9 M47.5,448L47.5,448 M47.4,448
		L47.4,448 M47.4,448.1L47.4,448.1 M47.4,448.1L47.4,448.1 M47.4,448.2L47.4,448.2 M47.4,448.3L47.4,448.3 M47.4,448.3L47.4,448.3
		 M47.4,448.4L47.4,448.4 M47.4,448.5L47.4,448.5 M47.4,448.6l0,0.1 M47.9,451.6l0.2,1.1 M48.1,452.7l0.2,1 M48.2,453.7l0.1,0.9
		 M48.4,454.6l0.1,0.8 M48.6,456.1l0.1,0.6 M48.7,457.1l0,0.4 M48.8,458.2l0,0.2 M48.8,458.5l0,0.2 M48.7,458.7l-0.1,0.2
		 M48.7,458.8l-0.1,0.1 M48.6,459l-0.1,0.1 M48.5,459.1l-0.1,0.1 M48.4,459.2l-0.1,0.1 M48.3,459.2l-0.1,0.1 M48.1,459.3l0,0.1
		 M48.1,459.5l0,0.1 M48.1,459.6l0,0.1 M48.1,459.7l0,0.1 M48.1,459.8L48.1,459.8 M48.1,459.9L48.1,459.9 M48.1,460.1L48.1,460.1
		 M48.1,460.2L48.1,460.2 M48.1,460.3L48.1,460.3 M48.1,460.4L48.1,460.4 M48.1,460.4L48.1,460.4 M48.1,460.6L48.1,460.6
		 M48.2,460.7L48.2,460.7 M48.2,460.9L48.2,460.9 M48.2,461L48.2,461 M48.6,461.1L48.6,461.1 M48.7,461.1L48.7,461.1 M48.9,461.1
		L48.9,461.1 M49,461L49,461 M49,461L49,461 M49,461L49,461 M49,461L49,461 M49.1,461L49.1,461 M49.1,461L49.1,461 M49.1,461
		L49.1,461 M49.1,461L49.1,461 M49.1,460.9L49.1,460.9 M153.7,175.4l1-0.5 M236.8,168.3l0.1,0.2 M94,798.7l0-0.3 M136.9,520.1
		l-0.5,2.8 M165.6,150.3l-0.5,1.9 M37.7,429.9l0.3,0.5 M168.6,37.5l0.5-0.1 M49.8,451.4l0.4,0.5 M160.3,606.1l-1.1-4.7 M163.4,122.7
		l0.1,0.4 M113.7,158.5l0.5,0.5 M144.6,247.7l-1.1,0.3 M222.1,336.5l0.1-1.3 M47.1,325.6l1.6,0.2 M169.5,37.4l0.4,0 M110.6,154.5
		l0.5,0.8 M159.3,601.3l-1-4.6 M220.7,808.5l0.5,0.9 M161.5,168.7l-0.6-0.3 M14.4,327.9l0.3,0 M135,532.7l-0.5,3.5 M53.3,327.3
		l0.2,0.2 M83.4,429.9l0.6,0.7 M170.6,37.5l0.3,0.1 M215.3,393.2l0.9-2.3 M136.4,522.9l-0.5,3.1 M20.2,327.1l5-0.6 M44.9,444.4
		l0.4,0.6 M153.4,543.3l-2.4-7.5 M224.6,861l0.7-0.2 M102.9,81.3l0.3,1.1 M208.2,406l1.5-2 M100.6,72.2l0.2,0.8 M84.6,431.4l0.6,0.7
		 M98.3,67.6l0.4,0.6 M113.2,157.9l0.5,0.5 M145.7,181l0.8-0.6 M39.6,433.4l0.2,0.4 M158.3,172.1l0.5-0.5 M108.1,138.5l0,2.4
		 M164.9,40.5l-0.6-2 M185.9,462l-0.8,0.6 M229.1,511.5l0,5.1 M41.6,439l0.3,0.6 M166.5,143.9l-0.2,2.3 M214.9,799.5l0.8,0.9
		 M85.1,432.1l0.5,0.8 M149.6,178.1l0.2-0.2 M52.3,453.6l0.6,0.3 M144,126.8l2.2-0.6 M177.6,141.6l-0.4-0.4 M166.9,48l-0.3-1.3
		 M177.3,141.1l-0.3-0.4 M176.9,140.7l-0.3-0.5 M19.6,366.9l0-0.9 M154.1,565l-0.3-5 M156.7,587.8l-0.7-4.4 M20,261.3l1.6-9
		 M148.9,18.4l2.6,1 M225.4,567.8l-0.8,6.4 M139.4,513.4l-0.8,0.9 M223.9,861.1l0.7-0.1 M220.2,861.3l0.9,0 M95.4,66.4l0.2-0.1
		 M181.7,835.6l2.7,1.5 M261,325.8l0,0.8 M70.1,459.7l1.5-0.2 M263.4,317.9l-0.6,1.5 M64.9,417.4l0.7,0.3 M66.6,460l1.8-0.1"/>
	<path class="st8" d="M178.9,796.7l0.1-0.1 M144.5,59.4l-4.2,1.1 M262.3,330.9l0.3,0.6 M172.1,800.7l1-0.4 M165.7,100.6l0-0.5
		 M263,332.1l0.4,0.6 M91,460.3l0.9,0.8 M192.9,843.1l0.9,1 M263.4,332.7l0.4,0.6 M103.3,63.5l-0.2,2 M260.9,326.6l0,0.7 M226.7,270
		l0.2-3.3 M87.9,775.3l-2.9-11 M196,850l0.1,0.9 M79.2,455.3l0.7-0.8 M104.3,55.8l-0.4,2.9 M222.8,251.8l4,4.1 M102.5,74.1l0,1.1
		 M165.4,103.4l0.1-0.4 M191.8,842.1l1.1,1 M164.8,105.2l0.2-0.4 M162.4,813.4l-0.4,2.5 M173.1,800.3l0.9-0.4 M195.8,849.2l0.1,0.8
		 M58.3,411l0.5,0.9 M226.6,466.9l1.4,10 M102.6,77.4l0.1,1.1 M162,815.9l-0.2,1.1 M177.9,797.7l0.3-0.2 M261,327.3l0.1,0.7
		 M178.8,796.8l0.1-0.1 M226.9,256.4l-0.2-0.5 M176.6,798.5l0.5-0.3 M174.8,799.5l0.7-0.3 M157.3,409.8l0.3,1.1 M87,455.5l1.1,1.5
		 M157.3,412.1l-0.8,0.8 M184.4,837.1l2.3,1.4 M82.2,447.7l1.3,2.3 M255.6,359.1l-0.4,0.1 M168.7,33.1l-0.2,0.7 M168.5,467.1
		l-1.3,0.1 M101.7,459.9l0.1-0.5 M236.5,401.3l-0.3,0.7 M110.1,181.4l1-0.9 M221.2,631.3l-0.2,1.1 M100.5,188.4l0.7-0.3
		 M261.1,281.3l0.5,3.5 M221.2,352.7l-0.2,0 M158.6,466.9l-1.3-0.2 M244.5,380.8l-1.5,4 M164.8,467.3l-1.2,0 M262.5,293.4l0.2,2.4
		 M172.5,466.5l-1.4,0.2 M111.2,37l-1.1,1.1 M130.3,851l-0.8,1.1 M254.7,359.2l-0.4,0 M107.5,41.4l-0.6,1 M240.6,391.2l-1,2.6
		 M127.7,718.8l0.5,7.3 M179.7,187.5l-0.2-0.5 M103.2,87.1l0,0.7 M221.7,615.5l0,3.3 M241.7,388.2l-1.1,3 M123.1,30.1l-2.1,0.7
		 M115,174.7l0.3-0.4 M134.9,832.2l-0.4,3.5 M244.5,831.8l-1-1.3 M167,92.1l0.1,0.3 M215.9,861.1l1.2,0.1 M144,289.7l0-1.2
		 M245.5,833l-0.9-1.2 M169.9,799.5l0.3,0.2 M31.7,409.7l0-0.5 M31.3,406.5l-0.1-0.6 M73.9,454.6l0.9-0.3 M169.3,799.2l0.3,0.1
		 M109,114.3l0-0.7 M163.1,826.7l0.4,0.2 M224.8,440.1l-0.2,0.6 M109,113.6l0-0.6 M224.1,441.9l-0.2,0.5 M121.3,787.8l-4.5,0.3
		 M225.7,437.2l-0.2,0.8 M225.5,438l-0.2,0.8 M138.3,182.7l0.5,0.3 M108.7,120l0-1.1 M162.5,826.4l0.3,0.2 M162.2,826.2l0.2,0.2
		 M243.4,349.6l1.8,0.6 M31.7,411.3l0-0.5 M108.6,121.1l0-1.1 M207.3,407.1l0.4-0.5 M117.7,624.7l-0.8,3.7 M176,62.3l-0.1,0.9
		 M85.2,830.4l-0.1,0.8 M171.5,800.4l0.5,0.3 M31,404.6l-0.1-0.8 M108.7,119l0.1-1 M85,837.5l0.1,0.7 M112.9,788.6l-3.4,0.5
		 M195.8,452l3.1,0.6 M166.5,760.2l-0.2,6.1 M161.5,821.3l-0.1,0.8 M85.1,838.2l0.1,0.8 M134.2,801.1l0.3,2.1 M241.4,349.1l2.1,0.4
		 M160.8,34.7l-1.3-1 M109,112.9l1.8,2.4 M224.6,440.7l-0.2,0.6 M222.6,448.8l0.5-0.7 M48.7,469.4l0,0.9 M175.3,82.9l0.2-0.8
		 M161.8,818.3l-0.1,1.1 M169.6,799.4l0.3,0.2 M223.9,442.4l-0.2,0.4 M165.5,719.7l0.7,1.6 M263.6,335.7l-0.6,4 M8.9,352.4l0,0.3
		 M226.6,431.8l-0.1,1 M205.2,412.1l0-0.5 M167.5,728.3l0.1,2.1 M137.8,182.3l0.6,0.3 M176.2,57.5l0,1.4 M76.8,453l0.5-0.5
		 M126.3,787.6l-5,0.2 M14.9,359l-1.5,0.5 M142.7,196.6h2.3 M225.1,439.4l-0.2,0.7 M226.1,435.5l-0.2,0.9 M108.6,123.2l0-1.1
		 M209,453.6l2-0.1 M163.8,827l2.6,1.1 M164.7,718.1l0.8,1.7 M31.7,411.9l0-0.6 M225.9,436.3l-0.2,0.8 M168.2,798.8l0.3,0.1
		 M224.4,441.3l-0.2,0.5 M235.7,406.9l-0.2,1.8 M153.8,376.2l-0.8,0.8 M154,375.6l-0.2,0.7 M153.8,374l0.3,1.1 M152.9,373.1l0.8,0.8
		 M151.8,372.8l1.1,0.3 M150.7,373.1l1.1-0.3 M149.8,374l0.8-0.8 M149.5,375.1l0.3-1.1 M149.8,376.2l-0.3-1.1 M150.7,377.1l-0.8-0.8
		 M151.8,377.4l-1.1-0.3 M161.4,823.4l0,0.5 M131.8,127.9l0.7,0.1 M85.4,841.7l0.1,1.1 M233.8,349.3l2.8-0.3 M141.5,194.6l0.8,0.8
		 M48.6,473.4l0,1.2 M31.7,412.5l0-0.6 M133.5,543.2l-1.6,8.5 M216.1,448.8l-1.5,0.5 M175.7,81.3l0.1-0.8 M163.4,826.8l0.4,0.2
		 M42.3,177.6l-1.5,3 M25.1,235.2l1.4-6.3 M23.3,243.6l1.8-8.5 M21.6,252.4l1.7-8.7 M18.5,270.5l1.5-9.2 M17.2,279.8l1.3-9.3
		 M16,289.3l1.1-9.5 M14.4,308.6l0.7-9.7 M14,318.4l0.4-9.7 M13.8,328.1l0.2-9.8 M13.8,328.1L14,328 M14,328l0.2-0.1 M14.2,327.9
		l0.2,0 M14.7,327.9l5.5-0.8 M25.2,326.5l4.5-0.5 M29.7,326l4-0.3 M33.7,325.7l3.5-0.2 M37.2,325.5l3.1-0.1 M40.2,325.4l2.7,0
		 M42.9,325.4l2.3,0.1 M45.2,325.4l1.9,0.1 M48.7,325.8L50,326 M50,326l1.1,0.3 M51.1,326.2l0.8,0.3 M51.9,326.5l0.6,0.3
		 M52.5,326.8l0.4,0.3 M53.5,327.6l0.1,0.2 M53.5,327.7l0,0.1 M53.6,327.8L53.6,327.8 M53.6,340.7l0,3.4 M53.6,344.1l0,3
		 M53.6,347.1l0,2.6 M53.5,349.8l0,2.3 M53.5,352.1l0,2 M53.5,354l0,1.7 M53.4,355.7l-0.1,1.4 M53.4,357l-0.1,1.1 M53.3,358.2
		l-0.1,0.9 M53.2,359.1l-0.1,0.7"/>
	<path class="st8" d="M53.1,359.8l-0.1,0.5 M53,360.3l-0.1,0.4 M52.8,360.7l-0.2,0.3 M52.7,361l-0.2,0.2 M52.3,361.3l-0.2,0.1
		 M52.1,361.3l-0.3,0 M52.5,376.7l0.2,4.1 M52.8,380.8l0.2,3.7 M53,384.4l0.2,3.2 M53.1,387.7l0.2,2.9 M53.3,390.6l0.2,2.5
		 M53.5,393.1l0.2,2.2 M53.7,395.3l0.2,2 M54,397.3l0.2,1.8 M54.2,399.1l0.3,1.6 M54.5,400.7l0.3,1.4 M54.8,402.1l0.3,1.3
		 M55.1,403.4l0.4,1.2 M55.5,404.6l0.4,1.2 M56,405.9l0.5,1.2 M56.4,407.1l0.5,1.2 M57,408.3l0.6,1.3 M57.6,409.6l0.7,1.4 M58.8,412
		l0.5,0.8 M59.3,412.8l0.5,0.8 M59.8,413.6l0.6,0.7 M60.4,414.3l0.6,0.6 M61.5,415.4l0.6,0.5 M62.8,416.3l0.7,0.4 M63.5,416.7
		l0.7,0.3 M64.2,417.1l0.7,0.3 M65.6,417.7l0.8,0.3 M66.4,417.9l0.8,0.2 M67.1,418.2l0.8,0.2 M68.7,418.6l0.8,0.2 M69.6,418.9
		l0.9,0.2 M71.3,419.4l0.9,0.3 M75.9,422.8l1.1,0.9 M76.9,423.7l1,0.9 M78,424.6l0.9,0.8 M78.9,425.4l0.9,0.8 M79.8,426.2l0.8,0.8
		 M80.6,427l0.8,0.7 M81.3,427.8l0.7,0.7 M82.1,428.5l0.7,0.7 M82.7,429.2l0.6,0.7 M84,430.6l0.6,0.7 M86.2,433.7l0.5,0.8
		 M86.7,434.6l0.5,0.9 M87.2,435.4l0.1,0.1 M87.3,435.6l0.4,0.8 M88.2,437.1l-0.4-0.7 M89.2,439.1l-0.3-0.6 M89.6,439.8l-0.3-0.6
		 M89.9,440.4l-0.4-0.6 M90.3,441.1l-0.4-0.7 M90.7,441.8l-0.4-0.7 M91.2,442.5l-0.5-0.8 M91.8,443.3l-0.5-0.8 M92.4,444.2l-0.6-0.9
		 M93.1,445.2l-0.7-1 M93.8,446.3l-0.8-1.1 M95.8,448.9l-1-1.4 M96.9,450.4l-1.1-1.5 M98.2,452.1l-1.3-1.7 M99.6,453.9l-1.4-1.8
		 M99.7,454.2l-0.1-0.3 M99.9,454.5l-0.2-0.3 M100.1,454.8l-0.2-0.3 M100.3,455.2l-0.2-0.4 M100.5,455.6l-0.2-0.4 M100.8,456
		l-0.3-0.4 M101,456.4l-0.2-0.4 M101.3,456.9l-0.2-0.5 M101.5,457.3l-0.2-0.5 M101.6,457.8l-0.2-0.5 M101.8,458.3l-0.1-0.5
		 M101.8,458.9l-0.1-0.5 M101.8,459.4l0-0.5 M101.5,460.5l0.2-0.6 M101.5,460.5l3.3,0.9 M104.9,461.4l3,0.8 M107.9,462.2l2.8,0.7
		 M110.6,462.9l2.5,0.6 M115.5,464.1l2.2,0.5 M117.7,464.5l2.1,0.4 M119.7,464.9l2,0.3 M121.7,465.2l2,0.3 M127.7,465.9l2.1,0.1
		 M132.1,466.1l2.4,0.1 M134.5,466.2l2.6,0 M137.1,466.2l2.9,0 M139.9,466.2l3.1,0 M157.3,466.7l-1.3-0.2 M159.9,467l-1.3-0.2
		 M162.3,467.2l-1.2-0.1 M163.6,467.3l-1.2,0 M166,467.3l-1.2,0 M169.8,466.9l-1.3,0.2 M175.3,465.9l-1.5,0.3 M176.8,465.6l-1.5,0.4
		 M178.4,465.2l-1.6,0.4 M180.1,464.7l-1.7,0.4 M181.8,464.2l-0.7,0.2 M182.6,464l-0.8,0.3 M183.4,463.6l-0.8,0.4 M184.2,463.2
		l-0.8,0.4 M185,462.6l-0.8,0.5 M187.5,460.5l-0.8,0.8 M189.1,458.5l-0.8,1.1 M190.6,456l-0.7,1.3 M192.4,451.2l-0.5,1.8
		 M192.9,449.3l-0.5,1.9 M192.9,449.3l0.5-2.1 M193.8,445.6l0.9-3.4 M195.6,439l0.8-3 M198,430.8l0.7-2.3 M198.7,428.5l0.7-2.1
		 M200.7,422.8l0.6-1.5 M201.3,421.3l0.6-1.3 M203.4,417l0.4-0.7 M203.8,416.4l0.4-0.5 M204.9,415.3l0.3-0.1 M205.2,415.2l0-0.8
		 M205.2,414.4l0-0.7 M205.2,413.7l0-0.6 M205.2,413.1l0-0.6 M205.3,411.6l0-0.4 M205.3,411.2l0.1-0.4 M205.4,410.8l0.1-0.4
		 M205.4,410.4l0.1-0.3 M205.5,410.1l0.1-0.3 M205.7,409.7l0.1-0.3 M205.8,409.4l0.2-0.3 M206,409.1l0.2-0.3 M206.2,408.7l0.2-0.4
		 M206.4,408.4l0.3-0.4 M206.7,408l0.3-0.4 M207,407.5l0.3-0.5 M207.7,406.6l0.4-0.6 M209.6,404l1.3-2.1 M211,401.9l1.2-2.1
		 M214.4,395.5l0.9-2.3 M216.2,390.9l0.8-2.4 M217,388.5l0.7-2.5 M217.7,386.1l0.7-2.5 M218.4,383.5l0.6-2.6 M219,380.9l0.6-2.7
		 M219.6,378.2l0.6-2.8 M220.7,372.5l0.5-3 M221.2,369.4l0.5-3.1 M221.7,366.3l0.5-3.3 M223.9,352.4l-0.3,0.1 M223.6,352.5l-0.3,0.1
		 M223.3,352.6l-0.2,0.1 M223.1,352.6l-0.2,0.1 M222.7,352.7l-0.2,0 M222.5,352.7l-0.2,0 M222.4,352.8l-0.1,0 M222.2,352.8l-0.1,0
		 M222.1,352.7l-0.1,0 M221.9,352.7l-0.1,0 M221.8,352.7l-0.1,0 M221.7,352.7l-0.1,0 M221.5,352.7l-0.2,0 M221.3,352.7l-0.2,0
		 M221,352.7l-0.2,0 M220.8,352.7l-0.2,0 M220.5,352.7l-0.3,0 M220.2,352.7l-0.3,0.1 M219.9,352.8L219.9,352.8 M220,352.7l0.3-1.9
		 M220.3,350.8l0.3-1.8 M220.6,349l0.3-1.6 M220.9,347.4l0.2-1.5 M221.1,345.9l0.2-1.3 M221.3,344.6l0.2-1.2 M221.5,343.3l0.1-1.2
		 M221.6,342.2l0.1-1.1 M221.9,339.9l0.1-1.1 M221.9,338.8l0.1-1.1 M222.2,335.3l0.1-1.4 M222.4,329l0.1-2 M222.5,327l0.1-2.2
		 M222.6,324.8l0.1-2.5 M222.8,322.3v-70.5 M227,257.2l-0.1-0.8 M227.1,258.3l-0.1-1.1 M227.1,259.7l0-1.4 M227.1,261.6l0-1.8
		 M227,263.9l0.1-2.3 M226.9,266.7l0.1-2.8 M226.5,274l0.2-3.9 M226.2,278.6l0.3-4.6 M225.8,283.8l0.4-5.3 M225.3,289.9l0.4-6
		 M224.8,296.7l0.5-6.8 M224.2,304.3l0.6-7.7 M222.8,322.3l3.7-0.5 M226.4,321.8l3.4-0.4"/>
	<path class="st8" d="M229.9,321.4l3.2-0.3 M233,321.1l3-0.2 M236,320.9l2.7-0.1 M238.7,320.8l2.5,0 M241.3,320.8l2.3,0.1
		 M243.6,320.9l2.2,0.1 M245.8,321l2,0.2 M247.7,321.2l1.8,0.3 M249.6,321.5l1.7,0.3 M251.2,321.8l1.5,0.4 M252.7,322.2l1.4,0.4
		 M254.1,322.6l1.3,0.5 M255.4,323.1l1.1,0.5 M256.5,323.6l1,0.6 M257.6,324.2l1,0.6 M258.5,324.8l0.9,0.6 M259.4,325.4l0.8,0.6
		 M260.2,326l0.7,0.6 M261.5,323.1l-0.3,1 M264.2,316.4l-0.8,1.6 M264,313.6l0.2,2.8 M263.8,311l0.2,2.5 M263.6,308.7l0.2,2.4
		 M263.5,306.4l0.1,2.2 M263.1,300.2l0.1,2.1 M262.9,298l0.2,2.1 M262.8,295.8l0.2,2.2 M262.3,290.8l0.3,2.6 M262,288l0.3,2.9
		 M260.6,277.3l0.6,3.9 M259.9,273l0.6,4.4 M259.2,268.1l0.8,4.9 M258.3,262.6l0.9,5.4 M257.3,256.6l1,6 M256.1,249.9l1.1,6.7
		 M254.3,241.1l1.8,8.8 M252.7,233.1l1.6,8 M251.3,225.9l1.4,7.2 M250.1,219.5l1.2,6.5 M249,213.7l1.1,5.8 M248.1,208.5l0.9,5.2
		 M246,196l0.6,3.7 M245.4,192.6l0.6,3.3 M244.8,189.6l0.6,3 M244.2,186.9l0.6,2.7 M243.6,184.3l0.6,2.5 M242.9,182l0.7,2.4
		 M242.2,179.7l0.7,2.3 M241.4,177.4l0.8,2.3 M240.4,175.1l1,2.3 M239.3,172.8l1.1,2.3 M238,170.3l1.3,2.5 M237.8,169.9l0.2,0.4
		 M237.6,169.6l0.2,0.3 M237.5,169.3l0.2,0.3 M237.3,169l0.2,0.3 M237.1,168.7l0.2,0.3 M237,168.5l0.1,0.2 M236.7,168.1l0.1,0.2
		 M236.4,167.8l0.2,0.2 M236,167.4l0.2,0.2 M235.6,167.1l0.2,0.2 M235.1,166.8l0.3,0.2 M234.8,166.6l0.3,0.2 M230.2,164l3,1.7
		 M227.4,162.5l2.8,1.6 M224.9,161.1l2.5,1.4 M220.3,158.6l2.2,1.2 M218.2,157.5l2.1,1.1 M216.1,156.5l2.1,1 M212,154.6l2.1,0.9
		 M209.9,153.7l2.1,0.9 M207.6,152.8l2.3,0.9 M205.2,151.9l2.4,0.9 M202.6,151l2.6,1 M193.1,147.7l3.5,1.2 M189.3,146.4l3.8,1.3
		 M180.4,143.4l0.6,5.2 M181,148.6l0.6,4.7 M181.5,153.3l0.5,4.2 M182,157.5l0.4,3.8 M182.8,164.6l0.3,3 M183.1,167.5l0.2,2.6
		 M183.3,170.1l0.2,2.3 M183.5,172.4l0.1,2 M183.7,174.4l0.1,1.7 M183.7,176.1l0,1.5 M183.8,177.6l0,1.3 M183.7,178.8l-0.1,1.1
		 M183.7,179.9l-0.1,0.9 M183.6,180.9l-0.2,0.8 M183.4,181.7l-0.2,0.7 M183.2,182.4l-0.2,0.7 M183,183.1l-0.3,0.6 M182.7,183.7
		l-0.3,0.6 M182.4,184.3l-0.3,0.7 M182.1,185l-0.2,0.3 M181.9,185.3l-0.1,0.3 M181.8,185.6l-0.1,0.3 M181.6,185.8l-0.1,0.2
		 M181.5,186l-0.1,0.2 M181.2,186.5L181.2,186.5 M181.1,186.5l-1.4,1 M179.5,187l-0.2-0.5 M179.2,186.5L179,186 M179,186l-0.2-0.4
		 M178.8,185.7l-0.2-0.4 M178.6,185.3l-0.2-0.3 M178.4,185l-0.2-0.3 M178.2,184.7l-0.2-0.3 M177.7,184.1l-0.3-0.3 M177.4,183.9
		l-0.3-0.2 M177.1,183.6l-0.3-0.2 M176.8,183.4l-0.4-0.2 M176.4,183.1l-0.4-0.3 M175.5,182.6l-0.5-0.3 M174.9,182.3l-0.6-0.3
		 M174.3,182l-0.7-0.3 M170.2,178.1l-0.8-1.2 M169.3,177l-0.7-1 M168.6,175.9l-0.7-0.9 M167.9,175l-0.6-0.8 M167.3,174.2l-0.6-0.7
		 M166.7,173.4l-0.5-0.6 M166.2,172.8l-0.5-0.6 M165.8,172.2l-0.4-0.5 M165.3,171.7l-0.4-0.4 M164.5,170.9l-0.4-0.4 M164.1,170.5
		l-0.4-0.3 M163.7,170.2l-0.4-0.3 M163.3,169.9l-0.4-0.3 M162.9,169.6l-0.4-0.3 M162.5,169.3L162,169 M162,169l-0.5-0.3
		 M160.9,168.4L160.9,168.4 M160.8,168.6l0.1-0.1 M160.8,168.8l0.1-0.2 M160.6,169l0.1-0.3 M160.5,169.3l0.2-0.3 M160.2,169.7
		l0.2-0.4 M160,170.1l0.3-0.4 M159.2,171l0.4-0.5 M158.8,171.5l0.4-0.5 M157.7,172.6l0.6-0.6 M157,173.2l0.7-0.6 M156.3,173.8
		l0.7-0.6 M155.5,174.3l0.8-0.6 M152.6,176l1.1-0.5 M151.5,176.5l1.2-0.5 M150.2,176.9l1.2-0.5 M150.2,177.1l0-0.1 M150.2,177.2
		l0-0.1 M150.2,177.3l0-0.1 M150.1,177.4l0-0.1 M150.1,177.6l0.1-0.1 M150,177.7l0.1-0.1 M149.8,177.9l0.1-0.2 M149.4,178.3l0.2-0.2
		 M149.1,178.5l0.3-0.2 M148.3,179.1l0.4-0.3 M147.8,179.5l0.5-0.4 M147.2,180l0.6-0.4 M144.8,181.7l0.9-0.6 M141.3,184.1
		L141.3,184.1 M141.2,184.1l0.1,0 M140.7,184l0.2,0.1 M140.3,183.8l0.2,0.1 M140,183.6l0.3,0.1 M139.7,183.4l0.3,0.2 M139.3,183.2
		l0.4,0.2 M138.8,183l0.4,0.2 M137.1,182l0.6,0.4 M134.4,180.6l0.3,0 M134.2,180.6l0.2,0 M133.9,180.6l0.2,0 M133.7,180.6l0.2,0
		 M133.5,180.6l0.2,0 M133.3,180.7l0.2,0 M133.1,180.7l0.2,0 M133,180.8l0.2-0.1 M132.8,180.8l0.2-0.1 M132.5,180.9l0.2-0.1
		 M132.3,181l0.2-0.1 M132.1,181.2l0.2-0.1 M131.8,181.3l0.3-0.1 M131.5,181.5l0.3-0.2 M131.2,181.7l0.3-0.2 M130.8,181.9l0.4-0.2
		 M130.4,182.2l0.4-0.3 M130,182.5l0.4-0.3 M128,182.5l0.9,0.6 M127.2,181.9l0.8,0.6 M126.4,181.4l0.8,0.5 M124.1,180l0.5,0.3
		 M123.7,179.7l0.4,0.3 M123.3,179.4l0.4,0.3 M123,179l0.4,0.3 M122.6,178.7l0.3,0.4 M122.3,178.2l0.3,0.4 M122,177.8l0.3,0.5"/>
	<path class="st8" d="M121.7,177.2l0.3,0.5 M121,175.9l0.4,0.7 M120.9,175.7l0.1,0.2 M119.8,171.4l1.2,4.3 M119.2,171.8l0.6-0.4
		 M118.7,172.1l0.5-0.3 M118.2,172.4l0.5-0.3 M117.8,172.6l0.4-0.3 M117.4,172.9l0.4-0.2 M117,173.1l0.4-0.2 M116.6,173.3l0.3-0.2
		 M116.3,173.5l0.3-0.2 M115.3,174.3l0.3-0.3 M114.3,175.6l0.4-0.5 M113.9,176.1l0.4-0.6 M111.8,179.3l0.6-1 M111.2,180.5l0.7-1.1
		 M108.3,183l0.9-0.8 M107.5,183.7l0.8-0.7 M106.8,184.4l0.7-0.6 M106.1,184.9l0.7-0.6 M105.5,185.4l0.6-0.5 M104.9,185.9l0.6-0.5
		 M103.1,187.1l0.6-0.4 M99.7,188.7l0.8-0.3 M98.9,189.1l0.9-0.4 M96.9,189.9l1-0.4 M95.7,190.4l1.1-0.5 M95.7,188.9l0,1.4
		 M95.7,187.6l0,1.3 M95.8,184.2l0,1.1 M95.8,183.2l0,1 M95.8,182.1l0,1 M95.7,181.1l0,1 M95.7,180l0,1.1 M95.6,178.9l0.1,1.1
		 M95.6,177.8l0.1,1.2 M95.5,176.5l0.1,1.3 M95.3,175.1l0.1,1.4 M95.2,173.6l0.2,1.5 M95,171.9l0.2,1.7 M94.8,170l0.2,1.9 M94.5,168
		l0.3,2.1 M94.2,165.7l0.3,2.3 M94.2,159.1l0,1.4 M94.3,157.8l0,1.2 M94.3,156.7l0,1.1 M94.4,155.7l-0.1,1 M94.4,154.9l-0.1,0.9
		 M94.5,154.1l-0.1,0.8 M94.7,153.4l-0.1,0.7 M94.9,152.7l-0.2,0.7 M95.1,152.1l-0.2,0.6 M95.3,151.5l-0.3,0.6 M95.6,150.9l-0.3,0.6
		 M96,150.3l-0.4,0.6 M96.4,149.7l-0.4,0.6 M97.4,148.3l-0.5,0.7 M97.4,148.3L87,152.2 M87,152.2l-9,3.5 M78,155.7l-7.8,3.2
		 M70.2,158.9l-6.6,2.9 M63.6,161.8l-5.5,2.7 M58.1,164.5l-4.6,2.6 M53.5,167.1l-3.8,2.5 M49.7,169.6l-3,2.5 M46.7,172.2l-2.4,2.6
		 M44.3,174.8l-1.9,2.8 M142.4,195.4l0.3,1.1 M145,196.6v0.5 M145,197h-2.4 M142.6,197l-0.2,0.7 M142.4,197.7l-0.8,0.8 M141.5,198.5
		l-1.1,0.3 M140.4,198.9l-1.1-0.3 M139.3,198.5l-0.8-0.8 M138.4,197.7l-0.3-1.1 M138.4,195.4l0.8-0.8 M139.3,194.6l1.1-0.3
		 M140.4,194.3l1.1,0.3 M145.6,246.2l-0.2,0.7 M143.5,248l-1.1-0.3 M142.3,247.7l-0.8-0.8 M141.5,246.9l-0.3-1.1 M141.2,245.7
		l0.3-1.1 M141.5,244.6l0.8-0.8 M142.3,243.8l1.1-0.3 M143.5,243.5l1.1,0.3 M144.6,243.8l0.8,0.8 M145.5,244.6l0.3,1.1 M148.4,289.2
		h2.3 M150.7,289.2v0.5 M150.7,289.7h-2.3 M148.4,289.7v0.1 M148.4,289.8l-0.6,1 M147.8,290.8l-1,0.6 M146.8,291.4l-1.2,0
		 M145.6,291.4l-1-0.6 M144.6,290.8l-0.6-1 M144.6,287.5l1-0.6 M145.7,287l1.2,0 M146.9,287l1,0.6 M147.9,287.6l0.6,1 M151.6,330.9
		l0.3,1.1 M151.9,332h2.3 M154.2,332v0.5 M154.2,332.6h-2.4 M151.7,332.6l-0.2,0.6 M151.6,333.2l-0.8,0.8 M150.7,334l-1.1,0.3
		 M149.6,334.3l-1.1-0.3 M148.5,334l-0.8-0.8 M147.6,333.2l-0.3-1.1 M147.3,332l0.3-1.1 M147.6,330.9l0.8-0.8 M148.5,330.1l1.1-0.3
		 M149.6,329.8l1.1,0.3 M150.7,330.1l0.8,0.8 M157.5,411.4l-0.2,0.7 M156.5,412.9l-1.1,0.3 M155.4,413.2l-1.1-0.3 M154.2,412.9
		l-0.8-0.8 M153.4,412.1l-0.3-1.1 M153.4,409.8l0.8-0.8 M154.2,409l1.1-0.3 M155.4,408.7l1.1,0.3 M156.5,409l0.8,0.8 M123,598.3
		l-1,5.1 M179,796.4L179,796.4 M79,449.9l0.4-0.8 M161.4,824l0,0.5 M166.1,721.3l0.5,1.6 M161.9,825.8l0.2,0.2 M172,800.6L172,800.6
		 M175.8,80.5l0.1-0.8 M163.7,716.3l1,1.8 M84.9,834.5l0,0.6 M108.7,127.1l-0.1-0.9 M209.8,449.9l-1.6,0 M167.4,738.4l-0.2,3.4
		 M220.5,450.8l0.8-0.6 M175.9,79.7L176,79 M235.5,408.7l-0.2,1.7 M223.3,443.6l-1.3,1.5 M161.5,824.9l0.1,0.3 M155.3,31.3l-1.5-0.6
		 M74.8,454.3l0.8-0.4 M226.7,430.8l-0.1,1 M166.1,780.7l0,8.3 M77.8,451.9l0.4-0.6 M31.4,407l-0.1-0.5 M130.2,127.7l0.8,0.1
		 M204.3,453.4l2.4,0.2 M85.1,832l0,0.7 M251.6,354.8l0.8,1 M132,787.5l-5.6,0.1 M85.1,831.2l-0.1,0.8 M233.4,417.2l-0.5,1.1
		 M132.8,792.1l0.4,2.3 M176,54.4l0.1,1.6 M109.1,112.4l0-0.4 M120.2,612.7l-0.9,4.2 M131.8,551.8l-1.5,8 M183.3,795.3l-2.3,0.6
		 M78.2,451.3l0.4-0.7 M71.5,455.2l1.2-0.3 M68.5,455.6l1.6-0.2 M232.9,418.3l-0.5,1.1 M121.1,608.2l-0.9,4.5 M168.8,799l0.3,0.1
		 M91,786.3l-3.1-11 M225,455.8l1.6,11.1 M228,476.8l1.2,9 M165.7,101.6l0-0.5 M162.8,810.4l-0.4,2.9 M94.3,462.6l0.7,0.3
		 M177.5,798l0.3-0.3 M179,796.5L179,796.5 M97.3,66.5L97.3,66.5 M175.5,799.2l0.6-0.3 M261.5,329.2l0.2,0.6 M178.7,796.9l0.1-0.1
		 M144.1,57.1h7.4 M164,107.1l0.2-0.5 M102.6,70.4l-0.1,1.3 M178.2,797.5l0.2-0.2 M178.4,797.3l0.2-0.2 M99,463l0.6-0.2
		 M195.3,846.7l0.3,0.8 M104.8,52.7l-0.4,3.2 M60,459.7l2.4,0.2 M165.8,98.9l0-0.6 M223.3,443.6l0.5,3.3 M188.8,839.8l1.7,1.2
		 M102.5,75.2l0.1,1.1 M103,81l0.2,1.4 M190.4,841l1.4,1.1 M94,68.7l0.2-0.6 M165.5,103l0.1-0.5 M176.1,798.8l0.5-0.3"/>
	<path class="st8" d="M194.4,845l0.5,0.9 M94.9,66.7l0.2-0.2 M75.7,721l-1.8-10.3 M64.6,460l2,0 M170.9,830.2l4.1,1.9 M178.6,797.1
		l0.1-0.2 M102.7,78.5l0.1,1.2 M186.8,838.5l2,1.3 M90.1,459.3l0.9,0.9 M85.9,453.9l1.1,1.6 M95.1,462.9l0.7,0.2 M164.7,105.6
		l0.2-0.5 M195.5,847.5l0.2,0.8 M132.4,846.2l-0.7,1.8 M118,855.6l-1.8,0.1 M96.5,46.6l0.3-1.3 M248,838.1l0.4,1.3 M164.6,38.5
		l-0.3,0.1 M248.4,839.4l0.3,1.2 M164.5,134.7l0.2,0.7 M248.7,840.6l0.2,1.1 M168.2,83.4l-0.1,0.5 M97.1,86.5L97,86 M163.8,693
		l0.3-4.1 M164,688.9l0.4-3.8 M93,853.5l-2.7-0.5 M168.7,93.5l0.2,0 M168,84.4l-0.1,0.4 M163.8,129.6l0.1,0.9 M32.6,422l-0.1-0.5
		 M216.6,752.6l-1.3,8.3 M163.5,702.9l0.1-5.3 M95.6,78.3l-0.1-0.4 M49.1,453.1l0.5,0.7 M247.1,835.1l0.5,1.5 M106.1,44.1l-0.2,0.6
		 M220.2,635l-0.3,0.4 M56.6,564.7l-2-15 M236,402.5l-0.2,0.3 M100.3,462.2l0.5-0.6 M103.2,84.2l0,0.7 M110,38.2l-1,1.1 M172.1,70
		l-0.3,0.6 M33.2,423.5l-0.1-0.3 M167.5,93.1l0.2,0.1 M120.4,656.9l1.1,7 M126.2,699.7l0.5,6 M167.9,93.4l0.2,0.1 M250.2,365.6
		l-2.1,5.7 M126.7,705.7l0.5,6.3 M100.8,854.7l-2.5-0.4 M119.1,649.3l1.3,7.6 M134.1,838.9l-0.5,2.8 M164.9,136.2l0.2,0.6
		 M248.9,841.7l0.2,1 M98.2,40.7l0.4-0.9 M52.2,456.8l0.5,0.3 M51.3,456l0.4,0.4 M103.7,93l0.1,0.3 M125.5,854.3l-1.3,0.4
		 M133,844.1l-0.6,2.1 M101.2,461.1l0.3-0.6 M99.6,462.8l0.7-0.6 M103.5,92.2l0.1,0.4 M97.4,42.8l0.4-1.1 M100.8,461.6l0.4-0.6
		 M102,93.1l-0.6-0.2 M168.3,82.8l-0.1,0.6 M166.3,37.9l-0.2,0.1 M103.3,89.9l0,0.6 M238,397.7l-0.6,1.5 M247.1,835.1l-0.8-1.1
		 M131.8,848.1l-0.7,1.6 M243.5,830.5l-1.1-1.4 M165.4,137.4l0.3,0.5 M241.3,827.7l-0.6-0.8 M121,30.9l-2,0.9 M121.5,663.9l1,6.5
		 M124.9,688.2l0.6,5.7 M93.8,69.3l0-0.2 M32.3,420.3l-0.1-0.7 M50,454.4l0.4,0.6 M128.2,726l0.5,7.9 M50.4,455l0.4,0.5
		 M238.7,395.9l-0.7,1.8 M106.4,43.3l-0.3,0.8 M221.1,632.4l-0.2,0.9 M55.1,458.4l0.6,0.2 M129.5,852l-0.8,0.9 M260.5,353.6
		l-0.2,0.8 M96.1,56.9l-0.1-2 M165.4,38.3l-0.3,0.1 M169.7,93.1l0.2-0.1 M260.8,351.6l-0.1,1 M259.6,355.9l-0.4,0.6 M252.5,359.3
		l-2.3,6.3 M260,355.2l-0.3,0.7 M57,458.9l0.7,0.2 M164.7,135.5l0.2,0.7 M124.2,854.7l-1.4,0.3 M221.7,611.7l0,3.8 M258.4,357.5
		l-0.5,0.4 M167.1,37l-0.2,0.3 M212.7,860.3l1.7,0.5 M103.2,855l-2.5-0.3 M168.1,93.4l0.2,0 M220.9,633.3l-0.2,0.7 M163.6,697.6
		l0.2-4.6 M135.2,828.4l-0.3,3.9 M260.6,348l0.1,1.3 M256,359l-0.5,0.1 M221.5,628.4l-0.1,1.6 M109,39.3l-0.9,1.1 M96.2,49.5
		l0.2-1.5 M257.9,357.9l-0.5,0.3 M96.1,51.2l0.1-1.7 M247.6,851.8l-0.2,0.8 M96.3,48l0.2-1.4 M99.1,38.9l0.5-0.8 M236.2,402
		l-0.2,0.5 M249.2,845.9l-0.1,0.7 M54.1,457.9l0.5,0.2 M249.1,846.6l-0.1,0.7 M117.1,32.7l-1.7,1 M95.6,853.9l-2.7-0.5 M237.4,399.2
		l-0.5,1.2 M165.7,137.9l0.3,0.4 M248,850.4l-0.2,0.7 M247.8,851.1l-0.2,0.7 M210.9,859.7l1.8,0.7 M259.2,356.5l-0.4,0.5 M202,854.8
		l2.5,1.6 M163.7,127.8l0,0.9 M113.9,34.8l-1.4,1.1 M258.8,357l-0.4,0.5 M133.3,28.7l-2.8,0.1 M103.4,90.6l0,0.6 M166.9,37.3
		l-0.2,0.2 M166,138.3l0.4,0.4 M50.9,455.5l0.4,0.5 M103.4,91.2l0.1,0.5 M239.6,393.8l-0.9,2.2 M119,31.7l-1.9,0.9 M167.3,86.7
		l-0.1,0.4 M49.2,449.4l0.1,0.7 M13,330.3l0.2-0.7 M45.3,445l0.5,0.6 M21.4,375.5l-0.5-1.4 M180.4,143.4l-0.5-0.2 M12.8,331.2
		l0.2-0.9 M151.1,535.8l-2.1-6.3 M207.7,794.5l1.2,0.4 M215.7,800.4l0.8,1 M208.8,794.9l1.1,0.5 M219.5,806.3l1.2,2.3 M229.2,499.9
		l0,6.1 M153.5,549.2l0-5.9 M153.8,560l-0.2-5.2 M57.7,455.4l0.7,0.2 M163.1,112.6l-0.1,1.3 M161.5,611l-1.1-4.9 M51.2,452.9
		l0.5,0.4 M201.6,793.5l1.8,0.2 M156,21.7l2,1.2 M10.3,343.8l0.5-2.6 M57.1,455.2l0.7,0.2 M50.7,452.4l0.5,0.4 M166.3,146.2
		l-0.3,2.1 M93.8,801.4l0-0.5 M38.6,431.4l0.2,0.4 M94,799.2l0-0.3 M163.2,157.4l-0.8,1.6 M179.4,143l-0.5-0.3 M115.2,163.6l0.2,0.4
		 M115.4,164.1l0.2,0.4 M22.6,378.9l-0.6-1.8 M156,583.4l-0.6-4.4 M94,799l0-0.3 M226.6,860.3l0.7-0.3 M93.8,804.1l0-0.8
		 M112.1,156.8l0.5,0.6 M100.3,71.4l0.2,0.7 M93.8,801l0-0.4 M223.2,861.2l0.7-0.1 M163.5,123.5l0,0.3 M38.9,431.8l0.2,0.4
		 M39.9,434.2l0.2,0.5 M174.3,134.1l-0.4-1.1 M221.8,861.3l0.7,0 M98.7,68.1l0.4,0.6 M56.4,455l0.7,0.2 M104,94.5l0-1.1 M93.9,800.2
		l0-0.3 M147,524.3l-1.7-4.1 M46.3,446.3l0.5,0.8 M143.8,517.1l-1.3-2.2 M38.1,430.4l0.3,0.5 M108.1,141l0.1,2.2 M176.9,71.8l0.2-1
		 M42.3,440.7l0.3,0.5"/>
	<path class="st8" d="M93.9,807.2l0-1.1 M104.1,97.8l-0.1-1.1 M111.1,155.4l0.5,0.7 M93.8,802l0-0.5 M219.2,861.3l0.9,0 M30.4,400.9
		l-1.5-4.4 M58.4,455.5l0.6,0.2 M228.7,530.2l-0.2,4.2 M42.1,440.2l0.3,0.5 M229,521.4l-0.1,4.5 M114.8,162.1l0.1,0.6 M41.8,439.6
		l0.3,0.6 M93.8,802.6l0-0.6 M153.8,20.6l2.2,1.1 M209.9,795.4l1,0.5 M210.9,795.9l0.9,0.6 M112.6,157.4l0.5,0.6 M13.6,328.3
		l0.2-0.2 M145.3,520.2l-1.5-3.1 M175.2,65.9l-0.2,0 M218.2,861.2l1,0.1 M153.2,172.7l-1.5,2 M114.7,161.5l0.1,0.6 M108.7,148.6
		l0.3,1.5 M226.8,816.9l1,0.9 M142.5,514.9l-1.2-1.3 M222.5,861.3l0.7-0.1 M155.4,578.9l-0.5-4.5 M210.8,789.1l-1,2.9 M39.2,432.6
		l0.2,0.4 M175.5,138.3l-0.2-0.5 M175.3,137.8l-0.2-0.5 M175.1,137.3l-0.2-0.5 M137.4,517.7l-0.5,2.4 M163.3,109.7l-0.1,1.5
		 M206.4,794.2l1.3,0.3 M36.4,427.9l0.5,0.7 M54.3,454.4l0.7,0.2 M163.2,120.5l0.1,0.6 M49.5,450.8l0.3,0.6 M20.1,370.9l-0.2-0.9
		 M162.4,159l-0.9,1.6 M163.3,121.7l0.1,0.5 M168.3,63l-0.1-2.4 M134,539.8l-0.6,3.5 M19.9,370l-0.1-0.8 M151.4,19.5l2.4,1.1
		 M19.8,369.2l-0.1-0.8 M41.3,438.3l0.3,0.7 M135.9,525.9l-0.4,3.3 M135.5,529.2l-0.5,3.4 M166.2,45.4l-0.4-1.5 M93.8,803.3l0-0.7
		 M162.7,616.2l-1.2-5.2 M45.8,445.6l0.5,0.7 M51.7,453.2l0.6,0.3 M37.3,429.3l0.4,0.6 M41,437.6l0.3,0.8 M40.1,434.7l0.2,0.5
		 M115.1,163.2l0.2,0.5 M151.6,123.6l1.5-1 M174.6,135.3l-0.3-1.2 M134.5,536.2l-0.5,3.5 M141.3,513.6l-1-0.5 M140.3,513.1l-0.9,0.2
		 M195,793.2l2.4,0.1 M211.8,796.5l0.8,0.6 M212.6,797.1l0.8,0.7 M43.5,442.5l0.3,0.4 M213.4,797.9l0.8,0.8 M214.1,798.6l0.8,0.9
		 M9.1,350l0.7-3.3 M229.1,516.6l-0.1,4.8 M157.2,167.2l-1.3,1.8 M54.9,454.6l0.7,0.2 M167.4,50.5l-0.2-1.3 M55.7,454.8l0.7,0.2
		 M138,515.7l-0.6,2 M221,861.3l0.8,0 M229.1,506l0,5.5 M95.2,77.1L95,76.4 M98.6,90.5l-0.2-0.4 M97.8,88.7l-0.1-0.3 M233.9,416
		l-0.5,1.2 M99.6,91.7l-0.4-0.4 M97,86l-0.1-0.5 M95.8,79.9l-0.1-0.5 M169.3,93.3l0.2-0.1 M97.4,87.6l-0.1-0.3 M93.8,70.2l0-0.3
		 M97.6,88.2l0-0.2 M232.3,419.4l-0.6,1 M235.3,410.4l-0.3,1.6 M102.6,93.3l-0.6-0.2 M223.5,443.2l-0.2,0.3 M99.2,91.3l-0.3-0.4
		 M93.8,69.6l0-0.3 M96.6,83.9l-0.1-0.6 M166.8,90.4l0,0.5 M94.3,73.8l-0.1-0.6 M93.9,71.3l0-0.4 M100.4,92.3L100,92 M167.7,85.6
		l-0.1,0.4 M103.5,91.7l0.1,0.5 M95.7,78.8l-0.1-0.5 M100,92l-0.4-0.4 M98,89.4L97.9,89 M98.2,89.7L98,89.4 M231.8,420.5l-0.6,1
		 M97.9,89l-0.1-0.3 M96.5,83.3l-0.1-0.6 M98.4,90.1l-0.2-0.4 M231.2,421.5l-0.6,1 M101.4,92.9l-0.5-0.3 M230.6,422.5l-0.6,1
		 M230,423.5l-0.6,1 M96.9,85.5L96.8,85 M229.3,424.5l-0.6,1 M167.1,92.4l0.1,0.3 M167.1,87.5l-0.1,0.4 M94,72.3l-0.1-0.5 M95,76.4
		l-0.2-0.7 M93.8,69.9l0-0.3 M94.6,75.1l-0.2-0.6 M175,65.9l-0.5,0.6 M171.6,71.2l-0.3,0.7 M93.9,68.8l0-0.2 M168.9,93.4l0.2-0.1
		 M151.9,332l-0.1,0.5 M228.7,425.5l-0.6,1 M97.2,86.9l-0.1-0.4 M228.1,426.5l-0.6,1.1 M169.5,93.2l0.2-0.1 M227.4,427.6l-0.6,1.1
		 M226.8,428.7l0,1 M167.9,84.8l-0.1,0.4 M97.3,87.3l-0.1-0.4 M96.8,85l-0.1-0.5 M97.6,88l0-0.1 M98.9,90.9l-0.3-0.4 M103.3,93.4
		l-0.7-0.1 M95.5,77.9l-0.2-0.8 M168.3,34.4l-0.2,0.6 M148.4,289.2l0,0.5 M173.1,68.3l-0.4,0.6 M172.8,68.9l-0.3,0.6 M167.6,86
		l-0.1,0.4 M171.3,71.9l-0.3,0.7 M166.1,38l0.6-0.2 M174.4,66.5l-0.5,0.6 M166.8,90.9l0,0.5 M172.4,69.4l-0.3,0.6 M167.8,85.3
		l-0.1,0.4 M167.2,87.1l-0.1,0.4 M169.6,77l-0.4,1.1 M246.2,376.3l-1.7,4.5 M52.6,457.1l0.5,0.3 M121.3,855.2l-1.6,0.2 M168.3,82.2
		l-0.1,0.6 M242.4,829.2l-1.2-1.5 M204.6,856.4l2.3,1.3 M220.5,634.6l-0.3,0.5 M97.8,41.7l0.4-1 M97.1,44l0.3-1.2 M246.3,834.1
		l-0.8-1.1 M260.8,350.5l0,1.1 M49.2,508.9l-0.4-3.8 M127.9,29.1l-2.5,0.5 M163.6,125.1l0,0.9 M166.9,88.3l-0.1,0.5 M166.7,37.5
		l-0.2,0.2 M167.3,36.7l-0.2,0.3 M127.2,712l0.5,6.7 M247.6,836.7l0.4,1.4 M33.6,424l-0.1-0.1 M119.7,855.4l-1.7,0.1 M59.2,459.5
		l0.8,0.2 M56.3,458.7l0.7,0.2 M249,847.3l-0.2,0.6 M248.8,847.9l-0.2,0.6 M248.6,848.5l-0.2,0.6 M115.4,33.7l-1.6,1.1 M248.2,849.8
		l-0.2,0.7 M206.9,857.7l2.1,1.1 M199.2,853l2.8,1.8 M97.3,66.5l-0.4-2.6 M135.4,824.1l-0.2,4.3 M125.6,693.9l0.6,5.8 M114.2,855.7
		l-2,0 M169.1,93.4l0.2-0.1 M167.5,665.6l0.9-5.3 M168.4,660.3l1-6.1 M134.5,835.7l-0.4,3.1 M169.4,654.2l1.1-7.1 M128.7,852.9
		l-0.9,0.5 M167.9,35.5l-0.2,0.4 M96.8,45.2l0.3-1.2 M222.2,685.5l-0.8,5.3 M33.7,424.1l-0.1,0 M105.6,855.3l-2.4-0.2"/>
	<path class="st8" d="M166.1,38l-0.2,0.1 M96.9,63.8l-0.3-2.5 M103.3,88.6l0,0.7 M167.2,92.7l0.2,0.2 M164.8,681.6l0.5-3.6
		 M54.6,458.2l0.6,0.2 M165.3,678l0.6-3.7 M104,93.4l-0.7,0 M116,631.9l1.6,9.1 M103.2,85.6l0,0.7 M220.8,695.4l-0.5,4.1
		 M221.4,690.8l-0.6,4.7 M220.3,699.5l-0.4,3.6 M223.1,679.5l-0.9,6 M219.8,703.2l-0.3,3.2 M219.5,706.4l-0.3,2.9 M219.3,709.4
		L219,712 M163.7,128.7l0.1,0.9 M219,712l-0.2,2.5 M218.9,714.5l-0.1,2.4 M168.3,81.4l0,0.7 M218.8,716.9l-0.1,2.4 M135.5,819.4
		l-0.1,4.7 M164.4,685.2l0.4-3.6 M98.6,39.8l0.4-0.9 M165.7,38.2l-0.2,0.1 M96.4,82.7l-0.1-0.6 M218.5,724.4l-0.1,2.8 M218.4,727.2
		l-0.1,3.1 M218.2,730.2l-0.2,3.4 M218.1,733.7l-0.2,3.9 M32.5,421.5l-0.1-0.6 M116.1,855.7l-1.9,0 M163.7,716.3l-0.1-7.2
		 M94.2,73.3l-0.1-0.5 M217.8,737.6l-0.3,4.4 M170.8,73.3l-0.3,0.8 M217.5,741.9l-0.4,5 M32.1,419l-0.1-0.7 M217.1,746.9l-0.5,5.6
		 M173.5,67.7l-0.4,0.6 M163.6,124.3l0,0.8 M122.5,670.4l0.9,6.1 M168.8,79.3l-0.5,1.3 M107.9,855.5l-2.3-0.2 M167.7,93.3l0.2,0.1
		 M133.6,841.6l-0.6,2.4 M164.2,133.1l0.1,0.8 M48.5,502l-0.1-2.8 M32.4,420.9l-0.1-0.6 M165.2,38.4l-0.3,0.1 M48.3,499.2l0-2.8
		 M48.3,496.5l0.1-3.1 M166.5,37.7l-0.2,0.2 M31.8,416.7l-0.1-0.8 M32,418.2l-0.1-0.8 M125.4,29.5l-2.3,0.6 M31.9,417.5l-0.1-0.8
		 M32.8,422.5l-0.1-0.5 M31.8,415.8l0-0.9 M96.5,61.4l-0.2-2.3 M167.4,86.4l-0.1,0.4 M163.6,126.9l0,0.9 M64.7,629.3l-3.1-25.1
		 M168.5,33.8l-0.2,0.6 M112.2,855.7l-2.1-0.1 M209.7,792l-0.9,2.9 M103.3,89.3l0,0.7 M98.2,854.4l-2.6-0.4 M53.6,457.7l0.5,0.2
		 M164,132.2l0.1,0.9 M93.9,69.1l0-0.2 M163.6,709.1l0-6.2 M48.7,505.1l-0.3-3.1 M174,67.1l-0.4,0.6 M93.9,70.9l0-0.4 M168.1,35
		l-0.2,0.5 M168.4,80.7l0,0.8 M93.8,70.6l0-0.4 M58.9,582.7l-2.3-18 M31.7,415l0-0.9 M96.3,59.1l-0.2-2.2 M93.9,71.8l-0.1-0.4
		 M94.1,72.8L94,72.3 M57.7,459.1l0.7,0.2 M58.4,459.3l0.8,0.2 M97.7,88.4l-0.1-0.2 M103.2,83.6l0,0.7 M100.9,92.7l-0.5-0.3
		 M94.5,74.4l-0.1-0.6 M163.9,131.4l0.1,0.9 M127.8,853.4l-1.1,0.5 M124.2,682.4l0.7,5.7 M33.4,423.9l-0.1-0.2 M174.7,47.1l0.4,2
		 M174.2,45.1l0.5,2 M173.5,43l0.7,2.1 M172.8,40.8l0.8,2.2 M171.8,38.6l0.9,2.2 M171.8,38.4l0,0.1 M171.7,38.3l0.1,0.1 M171.7,38.1
		l0.1,0.1 M171.6,38l0.1,0.1 M171.4,37.9l0.1,0.1 M171.3,37.8l0.2,0.1 M171.1,37.7l0.2,0.1 M170.8,37.6l0.2,0.1 M170.3,37.4l0.3,0.1
		 M169.9,37.4l0.4,0 M169.1,37.4l0.4,0 M168,37.6l0.6-0.1 M167.4,37.7l0.6-0.1 M166.7,37.8l0.7-0.2 M165.9,38.1l-0.2,0.1
		 M166.6,46.7l-0.4-1.3 M167.6,51.8l-0.2-1.3 M168,56.5l-0.1-1.7 M168.1,58.4l-0.1-1.9 M168.2,60.5l-0.1-2.1 M168.3,65.7l0-2.7
		 M168.3,68.8l0-3.1 M168.3,72.3l0-3.5 M168.4,76.3l0-3.9 M168.4,80.7l0-4.4 M169.2,78.1l-0.4,1.2 M171.1,72.6l-0.3,0.7 M175.6,65.2
		l-0.6,0.7 M175.6,65.1L175.6,65.1 M175.8,63.9l-0.1,0.6 M175.9,63.1l-0.1,0.7 M176.2,60.2l-0.1,1.1 M176.2,58.9l0,1.3 M176.1,56
		l0.1,1.5 M175.8,52.7l0.2,1.7 M168.1,83.9l-0.1,0.5 M167,87.9l-0.1,0.4 M103.2,84.9l0,0.7 M168.3,93.5l0.2,0 M103.8,93.2l0.1,0.2
		 M103.2,87.8l0,0.7 M95.7,79.3l-0.1-0.5 M123.4,676.5l0.8,5.9 M110.1,855.6l-2.2-0.1 M55.7,458.5l0.6,0.2 M164.3,133.9l0.2,0.8
		 M49.6,453.8l0.4,0.7 M31.7,414.1l0-0.9 M102.6,80.2l0.3,1.1 M102.1,78.2l0.2,1 M101.8,77.2l0.2,1 M101.2,74.6l0.2,0.9 M101,73.7
		l0.2,0.8 M100.8,72.9l0.2,0.8 M100.1,70.7l0.3,0.7 M99.8,70l0.3,0.7 M99.5,69.4l0.3,0.7 M99.1,68.7l0.3,0.6 M97.8,67l0.5,0.5
		 M97.3,66.5l0.5,0.5 M97.2,66.5L97.2,66.5 M97.1,66.5L97.1,66.5 M97,66.5l0.1,0 M96.9,66.4l0.1,0.1 M96.7,66.4l0.2,0.1 M96.5,66.3
		l0.2,0 M96.3,66.3l0.2,0 M96.1,66.3l0.2,0 M95.9,66.3l0.2,0 M94.7,66.9l0.2-0.2 M94.5,67.3l0.2-0.3 M94.3,67.6l0.2-0.4 M94.1,68.1
		l0.2-0.5 M94.8,75.7l-0.2-0.7 M96.7,84.4l-0.1-0.6 M103.9,93.4l0.1,0.1 M96,54.9l0-1.9 M108.2,40.4l-0.7,1 M166.9,88.8l-0.1,0.5
		 M167.7,36l-0.2,0.4 M166.9,91.8l0.1,0.4 M102.6,76.3l0.1,1.1 M65.1,639.6l-0.3-4.4 M82.7,450.9l0.8-1 M177.1,798.2l0.4-0.3
		 M92.7,461.7l0.8,0.5 M98.4,463.1L99,463 M174,799.9l0.8-0.4 M166.4,828.2l4.6,2.1 M194.9,845.9l0.4,0.8 M156.1,59.9l1.6,3.3
		 M179,796.4L179,796.4 M97.8,463.2l0.6-0.1 M263.8,333.3l-0.2,2.4 M76.9,457.3l0.8-0.6 M175,832.2l3.6,1.8 M91.9,461l0.9,0.6
		 M97.3,66.5L97.3,66.5 M77.7,731.6l-2-10.6 M226.6,816.7l0.2,0.2 M221.3,809.5l5.3,7.2"/>
	<path class="st8" d="M62.5,459.9l2.2,0.1 M64.9,635.2l-0.2-3.5 M103.9,58.7l-0.3,2.5 M64.7,631.7l0-2.5 M164.3,106.6l0.2-0.5
		 M165.1,104.3l0.1-0.4 M165.7,101.1l0-0.5 M102.7,69l-0.1,1.5 M70.8,691.1l-1.3-9.2 M67.5,665.2l-0.8-7.5 M102.9,79.7L103,81
		 M66.7,657.7l-0.6-6.8 M72.2,700.7l-1.4-9.6 M165.3,103.9l0.1-0.4 M165.6,102.1l0.1-0.5 M80.6,453.7l0.7-0.9 M103.6,61.2l-0.3,2.3
		 M103.1,65.5l-0.2,1.8 M72.8,459.2l1.2-0.4 M96.5,463.2l0.7,0 M102.5,71.8l0,1.2 M75.1,458.4l1-0.5 M165.8,100.1l0-0.5 M76.1,457.9
		l0.9-0.6 M164.5,106.1l0.2-0.5 M77.7,456.7l0.8-0.7 M93.5,462.2l0.8,0.4 M68.4,459.9l1.6-0.2 M102.5,73l0,1.1 M74,458.8l1.1-0.4
		 M78.5,456l0.7-0.7 M82.2,447.4l0,0.2 M82.1,446.8l0.1,0.3 M82,446.5l0.1,0.3 M81.9,446.2l0.1,0.3 M81.7,445.8l0.1,0.3 M81.6,445.5
		l0.1,0.3 M81.5,445.2l0.1,0.3 M81.1,444.7l0.1,0.1 M80.9,444.6l0.1,0.1 M80.8,444.6l0.1,0 M80.7,444.6l0.1-0.1 M80.6,444.8l0.1-0.2
		 M80.5,445.1l0.1-0.3 M80.4,445.5l0.1-0.4 M80.3,446l0.1-0.5 M80.3,446.7l0-0.7 M80.3,447.5l0-0.8 M79.8,448.4l0.5-0.9 M79.4,449.2
		l0.4-0.8 M78.6,450.6l0.4-0.7 M77.4,452.5l0.5-0.6 M76.3,453.5l0.6-0.5 M75.6,453.9l0.7-0.4 M72.8,454.9l1.1-0.3 M66.7,455.7
		l1.8-0.1 M59.7,455.9l2.6,0 M59.1,455.7l0.6,0.2 M53.6,454.2l0.7,0.2 M50.2,451.9l0.4,0.5 M49.1,448.6l0,0.8 M152.7,60.5l-8.2-1.2
		 M88.1,456.9l1,1.3 M89.1,458.2l1,1.1 M157.8,63.2l-5.1-2.7 M161.7,825.5l0.1,0.3 M162,826l0.2,0.2 M162.8,826.5l0.3,0.2
		 M230.6,859.1l1.1-0.2 M231.6,859l1-0.2 M232.6,858.8l0.9-0.2 M233.5,858.6l0.8-0.2 M234.3,858.5l0.8-0.2 M235.1,858.3l0.7-0.2
		 M235.8,858.1l0.7-0.2 M236.5,857.9l0.7-0.2 M237.2,857.7l0.7-0.3 M237.9,857.4l0.7-0.3 M238.6,857.1l0.8-0.3 M239.4,856.8l0.8-0.4
		 M240.2,856.4l0.9-0.4 M241.1,856l0.9-0.5 M242,855.5l1-0.5 M243,855l1.1-0.6 M244.1,854.4l1.2-0.7 M167.9,798.8l0.3,0
		 M167.6,798.8l0.3,0 M167.3,798.8l0.3,0 M167.1,798.8l0.2,0 M166.9,798.8l0.2,0 M166.7,798.8l0.2,0 M166.5,798.9l0.2,0
		 M166.3,798.9l0.2,0 M166.2,798.9l0.2,0 M166,798.9l0.1,0 M165.9,799l0.1,0 M165.8,799.1l0.1-0.1 M165.6,799.1l0.1-0.1
		 M165.5,799.2l0.1-0.1 M165.3,799.3l0.1-0.1 M165.2,799.4l0.2-0.1 M165,799.5l0.2-0.1 M164.8,799.6l0.2-0.1 M164.6,799.8l0.2-0.2
		 M164.4,800l0.2-0.2 M69.5,681.9l-1.1-8.7 M68.4,673.3l-0.9-8.1 M73.8,710.7l-1.6-10 M82.3,753.3l-2.4-10.9 M151.5,57.1l4.6,2.8
		 M65.5,644.8l-0.4-5.3 M66,650.9l-0.5-6.1 M165.8,99.5l0-0.6 M165.5,102.5l0.1-0.5 M163.8,107.6l0.3-0.5 M106.7,27.3l1.8-1.8
		 M218.5,451.9l1-0.5 M214.5,453.2l1.5-0.3 M192.4,451.2l3.3,0.8 M198.8,452.6l2.9,0.5 M201.7,453.1l2.6,0.3 M206.8,453.6l2.2,0.1
		 M211,453.6l1.8-0.2 M212.9,453.4l1.7-0.3 M216,452.8l1.3-0.4 M217.4,452.4l1.2-0.5 M219.6,451.4l0.9-0.6 M221.3,450.2l0.7-0.7
		 M223,448.2l0.4-0.7 M221.9,445l-1.4,1.2 M220.5,446.3l-1.4,1 M214.6,449.3l-1.6,0.3 M213,449.6l-1.6,0.2 M211.4,449.9l-1.6,0.1
		 M208.2,449.9l-1.6-0.1 M206.6,449.8l-1.6-0.2 M205,449.6l-1.6-0.2 M203.5,449.4l-1.6-0.3 M201.9,449.1l-1.5-0.3 M200.4,448.8
		l-1.5-0.3 M198.9,448.4l-1.5-0.3 M197.4,448.1l-1.4-0.3 M196,447.8l-1.4-0.3 M194.6,447.5l-1.2-0.2 M158.2,32.7l-1.4-0.8
		 M152.3,30.2l-1.6-0.4 M167.1,724.6l0.3,1.8 M94.9,796.2l-0.3,0.5 M135.1,809.1l0.2,1.8 M41,356.6l-2.1-0.3 M142.7,196.6l-0.1,0.5
		 M128.5,127.3l0.9,0.2 M84.9,836.3l0,0.6 M48.6,471.3l0,1 M167.3,726.4l0.2,1.9 M85,832.7l0,0.6 M109.1,129.3l-0.1-0.6 M34.6,356
		l-2.2,0 M84.9,835.1l0,0.6 M223.9,352.4l3.6-1.4 M167.6,730.4l0,2.3 M48.6,472.3l0,1.1 M85,833.3l0,0.6 M227.5,351l3.3-1
		 M116.4,19.9l2-1 M124.9,126.1l0.9,0.4 M156.8,32l-1.5-0.7 M9,352.1l0,0.3 M19.6,365l-0.8-0.6 M144,28.9l-1.7-0.1 M132,787.5
		l0.4,2.3 M134.4,803.2l0.2,2.1 M175.5,82.1l0.2-0.8 M48.8,466.7l0,0.9 M252.4,355.7l0.6,0.9 M94.4,797.2l-0.2,0.3 M94.6,796.8
		l-0.2,0.4 M24,356.8l-2,0.4 M109,112.9l0-0.5 M147.4,29.3l-1.7-0.2 M135.3,810.9l0.2,1.7 M46.9,358.3l-1.9-0.7 M249.6,352.8l1.1,1
		 M171.6,90.7l0.7-1.1 M108.6,125.3l0-1 M230.8,350l3-0.7 M32.5,356l-2.2,0.1 M96.5,794.2l-0.7,0.7 M253,356.7l0.5,0.8 M20.1,357.6
		l-1.8,0.5 M166.7,141.5l-0.1,2.4 M165.1,152.2l-0.6,1.8 M164.5,154l-0.7,1.7 M163.9,155.7l-0.7,1.7 M161.5,160.6l-1,1.6
		 M151.7,174.8l-1.5,2.2 M178.9,142.7l-0.4-0.3 M178,142l-0.4-0.4 M176.6,140.2l-0.3-0.5 M175,136.9l-0.1-0.4"/>
	<path class="st8" d="M174.9,136.4l-0.1-0.4 M174.7,136l-0.1-0.4 M174.7,135.6l-0.1-0.3 M173.9,133l-0.5-1 M172.9,131l-0.5-0.9
		 M172.4,130.1l-0.6-0.8 M171.8,129.4l-0.6-0.7 M171.2,128.7l-0.6-0.6 M170.6,128l-0.6-0.6 M170,127.5l-0.6-0.5 M169.3,127l-0.6-0.4
		 M168.7,126.5l-0.6-0.4 M168,126.1l-0.6-0.3 M167.4,125.8l-0.6-0.3 M166.8,125.5l-0.6-0.3 M166.1,125.2l-0.6-0.2 M165.6,125
		l-0.6-0.2 M165,124.8l-0.5-0.2 M164.5,124.6l-0.5-0.2 M164,124.4l-0.4-0.1 M125.8,126.5l0.9,0.3 M22,357.1l-1.9,0.4 M48.8,359.1
		l-1.8-0.9 M30.3,356.1l-2.1,0.2 M28.2,356.2l-2.1,0.2 M110.9,115.4l1.9,2.2 M119.4,59.2l-11,4.6 M130.5,60.9l-11.1-1.8
		 M246.9,350.9l1.4,0.9 M52.1,361.3l-1.6-1.2 M127.6,127.1l0.9,0.2 M254.1,358.8l0.1,0.4 M253.9,358.2l0.2,0.6 M254.3,359.1l0,0.1
		 M250.7,353.8l0.9,1 M101.9,791.2l-1.8,0.8 M116.8,628.4l-0.8,3.5 M97.5,793.5l-0.9,0.8 M95.8,794.9l-0.5,0.7 M129,15.4l1.4-0.2
		 M106.5,789.8l-2.5,0.7 M134.7,805.2l0.2,2 M98.6,792.7l-1.2,0.8 M145.7,29.1l-1.7-0.1 M110.5,23.9l2-1.5 M162.1,35.8l-1.2-1.2
		 M220,352.7l0.3,0 M125.8,16.2l1.6-0.4 M164.3,38.6l-1.1-1.4 M122.1,124.8l1.8,0.9 M13.2,329.6l0.2-0.6 M12.5,332.3l0.2-1.1
		 M12.3,333.6l0.3-1.3 M12,335.1l0.3-1.5 M9.7,346.7l0.6-2.9 M9.1,350l0,0.5 M9.1,350.5l0,0.5 M9,351l0,0.4 M9,351.8l0,0.3
		 M8.9,352.7l0,0.3 M8.9,353l0,0.2 M8.9,353.2l0,0.2 M8.9,353.4l0,0.2 M8.9,353.6l0,0.2 M9,353.8l0,0.2 M9,354l0.1,0.2 M9.1,354.2
		l0.1,0.2 M9.2,354.4l0.1,0.2 M9.3,354.6l0.1,0.2 M9.4,354.8l0.2,0.2 M9.6,355l0.2,0.3 M10,355.6l-0.2-0.3 M10.8,356.4l-0.7-0.8
		 M11.4,357.1l-0.7-0.8 M12,357.8l-0.6-0.7 M13.5,359.5L13,359 M16.6,358.5l-1.6,0.5 M18.3,358l-1.7,0.5 M26.1,356.5l-2.1,0.3
		 M36.8,356.1l-2.2-0.1 M50.5,360.1l-1.7-1 M150.7,29.8l-1.6-0.3 M103.4,31.5l1.6-2.2 M163.2,37.1l-1.2-1.3 M159.5,33.6l-1.4-0.9
		 M153.8,30.7l-1.6-0.5 M149,29.5l-1.7-0.3 M140.4,28.8l-1.8,0 M138.7,28.7l-1.8,0 M104.1,96.7l0-1.1 M104.2,98.9l-0.1-1.1
		 M104.3,100l-0.1-1.1 M104.5,101l-0.1-1.1 M105,104.1l-0.2-1 M105.8,106.9l-0.3-0.9 M106.2,107.7l-0.3-0.9 M106.6,108.6l-0.4-0.8
		 M107,109.3l-0.4-0.8 M107.9,110.8l-0.5-0.7 M108.5,111.4l-0.5-0.6 M109.1,112l-0.6-0.6 M112.7,117.5l1.9,1.9 M114.6,119.5l1.9,1.7
		 M116.5,121.1l1.9,1.4 M118.4,122.6l1.9,1.2 M120.3,123.8l1.9,1 M126.7,126.8l0.9,0.3 M129.4,127.5l0.8,0.2 M131,127.8l0.8,0.1
		 M132.5,128l0.7,0.1 M133.2,128l3-0.1 M136.2,128l2.8-0.2 M139,127.7l2.6-0.4 M141.6,127.3l2.4-0.5 M146.1,126.2l2-0.8
		 M148.1,125.4l1.8-0.9 M149.9,124.5l1.7-1 M153.1,122.5l1.4-1.1 M154.5,121.4l1.2-1.2 M155.7,120.2l1.1-1.2 M156.8,119l1-1.3
		 M157.9,117.7l1-1.3 M158.8,116.3l0.9-1.4 M159.7,115l0.8-1.4 M160.5,113.6l0.8-1.4 M161.3,112.2l0.7-1.4 M166,98.1l-0.2,0.2
		 M166.1,97.9l-0.2,0.2 M166.3,97.8l-0.1,0.2 M166.4,97.6l-0.1,0.2 M166.5,97.4l-0.1,0.2 M166.6,97.3l-0.1,0.2 M166.7,97.1l-0.1,0.2
		 M166.7,96.9l-0.1,0.2 M166.8,96.7l-0.1,0.2 M166.8,96.4l0,0.2 M166.9,96.2l0,0.3 M166.9,95.9l0,0.3 M166.9,95.6l0,0.3 M167,95.2
		l0,0.4 M167,94.8l0,0.4 M167,94.4l0,0.4 M167,93.9l0,0.5 M167,93.4l0,0.5 M111.1,60.9l8.5-4.1 M129.8,58.2l0.8,2.7 M124.1,16.7
		l1.7-0.5 M163.6,124.1l0,0.2 M163.6,123.8l0,0.3 M163.4,122.2l0.1,0.5 M163.2,121.1l0.1,0.6 M163.1,119l0,0.8 M163,118.1l0,0.9
		 M163,117.2l0,0.9 M163,116.2l0,1 M163,115l0,1.1 M163.2,111.2l-0.1,1.4 M163.5,108.1l-0.2,1.6 M108.8,116.9l0.1-0.9 M108.6,122.2
		l0-1.1 M108.9,128.7l-0.1-0.7 M108.4,132.9l-0.2,2.9 M108.2,135.8l-0.1,2.7 M108.2,143.2l0.1,2 M109,150.1l0.3,1.3 M109.3,151.4
		l0.4,1.2 M109.7,152.6l0.4,1 M110.2,153.6l0.5,0.9 M111.6,156.1l0.5,0.7 M114.3,159l0.1,0.9 M114.4,159.9l0.1,0.8 M114.5,160.8
		l0.1,0.7 M115.6,164.5l0.2,0.4 M115.8,164.9l0.2,0.4 M116,165.3l0.3,0.4 M116.3,165.7l0.3,0.5 M116.6,166.1l0.3,0.5 M116.9,166.6
		l0.4,0.6 M117.3,167.2l0.4,0.6 M117.7,167.8l0.4,0.7 M118.1,168.6l0.5,0.8 M118.6,169.4l0.5,0.9 M119.2,170.3l0.6,1.1 M175.1,83.8
		l0.3-0.9 M108.6,25.5l1.9-1.6 M114.4,21.1l2-1.2 M174,86.6l0.4-1 M236.6,349l2.5,0 M253.5,357.5l0.4,0.7 M84.9,833.9l0,0.6
		 M134.9,807.2l0.2,1.9 M31.2,405.9l-0.1-0.6 M101.8,33.9l1.5-2.4 M105,29.3l1.7-2 M169.9,93l0.9-1.2 M133.9,798.9l0.3,2.2
		 M135.4,812.6l0.1,1.6 M132.4,789.8l0.4,2.3 M133.2,794.4l0.4,2.3 M31.6,408.4l0-0.5"/>
	<path class="st8" d="M176,78.2l0-0.7 M31.7,410.7l0-0.5 M176,76.1l0-0.7 M112.4,22.4l2-1.3 M31.5,407.5l-0.1-0.5 M31.5,407.9
		l-0.1-0.5 M127.5,15.7l1.5-0.3 M93.9,799.8l0-0.3 M93.9,806.1l0-1 M94,808.5l-0.1-1.3 M94,809.9l-0.1-1.4 M94,810.2l0-0.3
		 M93.9,810.4l0.1-0.2 M93.8,810.6l0.1-0.2 M93.6,810.8l0.2-0.2 M92.7,811.7l0.3-0.4 M92.3,812.2l0.4-0.5 M91.9,812.8l0.4-0.6
		 M91.4,813.5l0.5-0.7 M90.9,814.3l0.5-0.9 M90.3,815.4l0.6-1 M89.7,816.6l0.6-1.2 M89,818.1l0.6-1.5 M88.3,819.8l0.7-1.7
		 M87.6,821.7l0.7-2 M86.9,824l0.8-2.3 M85.2,829.5l0.8-2.9 M176,79l0-0.7 M31.7,410.2l0-0.5 M223.7,446.8l1.3,9 M132.6,14.9l0.8,0
		 M17.5,363.4l-0.6-0.5 M168.3,32.1l0.3,0.6 M167.9,31.4l0.4,0.7 M167.3,30.6l0.6,0.8 M166.5,29.7l0.8,0.9 M165.5,28.6l1,1
		 M164.4,27.6l1.1,1.1 M163.1,26.4l1.3,1.1 M161.6,25.3l1.5,1.2 M159.9,24.1l1.7,1.2 M158,22.9l1.8,1.2 M146.1,17.5l2.7,0.9
		 M143.2,16.7l2.9,0.8 M140.1,15.9l3.1,0.7 M136.8,15.3l3.3,0.6 M133.4,14.9l3.5,0.4 M131.6,15l1-0.1 M130.4,15.2l1.2-0.2
		 M122.3,17.3l1.8-0.6 M120.4,18.1l1.9-0.7 M118.4,18.9l2-0.9 M170.8,91.8l0.8-1.1 M18.1,363.9l-0.6-0.5 M18.8,364.4l-0.7-0.5
		 M176,77.5l0-0.7 M173.5,87.6l0.5-1 M16.9,362.9l-0.5-0.4 M16.4,362.5l-0.5-0.4 M15.9,362.1l-0.4-0.4 M15.5,361.7l-0.4-0.4
		 M15.1,361.3l-0.4-0.4 M14.7,360.9l-0.4-0.4 M14.3,360.4l-0.4-0.4 M13.9,360l-0.4-0.5 M172.9,88.6l0.6-1 M98,147.5l-0.6,0.8
		 M175.6,65.9l-0.2,0 M177.1,70.8l0.1-0.9 M177.2,67.9l-0.1-0.5 M176.2,66.1L176,66 M177.2,69.2l0-0.7 M177.1,67.5l-0.1-0.4
		 M176.4,74.1l0.3-1.2 M177.2,69.9l0-0.8 M176.8,66.7l-0.2-0.3 M176.7,72.9l0.2-1.1 M19.6,366l0-1 M19.6,367.7l0-0.8 M19.7,368.5
		l-0.1-0.8 M20.3,371.8l-0.2-0.9 M20.6,372.9l-0.3-1.1 M21,374.1l-0.4-1.2 M38.4,430.9l0.3,0.4 M40.2,435.2l0.2,0.6 M46.9,447.1
		l0.6,0.9 M176,66l-0.2-0.1 M175.8,65.9l-0.2,0 M177,67.1l-0.2-0.3 M177.2,68.5l-0.1-0.6 M176.6,66.5l-0.2-0.2 M162.8,810.4
		l1.6-10.5 M222.8,322.3l1.4-18 M236.7,824.5l1.5,0.7 M49.1,453.1l0,7.8 M72.2,419.7l2.5,2.2 M33.7,424.1l1.5,2.1 M234,166.2
		l-0.8-0.5 M44.1,443.4l0.8,1 M126.4,181.4l-1.3-0.8 M48.6,487.2l0-6.5 M47.5,447.6l0,0.2 M134.7,180.5l2.4,1.4 M88.9,438.5
		l-0.7-1.4 M47.4,448.9l0.5,2.7 M263.2,302.3l0.3,4.2 M49.8,513.6l3.3,23.9 M48.6,480.6l0-3.4 M47.4,448.7l0,0.2 M48.1,460.5l0,0.1
		 M101.4,75.4l0.4,1.8 M164.9,40.5l0.9,3.4 M12,335.1l-1.2,6.1 M81.3,452.8l1.4-1.9 M167.5,665.6l-1.5,8.7 M85.8,845.4l-0.3-2.6
		 M170.6,799.9l0.9,0.5 M30.4,400.9l0.5,2.8 M109,114.3l-0.1,1.7 M49,461l-0.2,3.6 M53.6,340.7l0-12.9 M52.5,376.7l-0.7-15.3
		 M154.6,466.2l-11.5,0 M154.6,466.2l1.4,0.3 M223.9,352.4l-1.7,10.6 M222.4,329l-0.2,4.9 M248.1,208.5l-1.5-8.8 M189.3,146.4
		l-8.9-3 M182.4,161.2l0.4,3.3 M173.7,181.7l-1.6-0.8 M172.1,180.9l-1.9-2.7 M141.4,184.1l3.4-2.4 M141.2,184.1l-0.1,0 M130,182.5
		l-1,0.7 M95.7,187.6l0-2.3 M245.4,853.7l2-1.1 M219.1,447.3l-1.5,0.8 M163.9,131.4l-0.1-0.9 M166.1,789l-1.7,10.9 M103.2,83.6
		l0-1.2 M215.3,760.9l-4.5,28.2 M128.7,734l3.3,53.5 M221.7,611.7l0-14.3 M221.8,597.5l2.1-16.3 M22.6,378.9l4.9,13.8 M225.2,860.8
		l0.7-0.2 M229.2,485.9l0,14 M155.9,169l-2.7,3.8 M96.3,82.1l-0.4-2.3 M218.7,719.3l-0.2,5 M48.4,493.4l0.2-6.2 M105.8,45.2
		l-1.1,7.5 M228.1,859.5l2.5-0.4 M166.7,141.5l0-2.6 M123,598.3l7.3-38.5 M133.3,28.7l3.6,0 M12,357.8l1,1.2 M162.1,110.8l1.4-2.7
		 M167,93.4l0-1.2 M93.6,810.8l-0.5,0.5 M164.1,621.6l6.4,25.5 M94.2,160.4l0,5.3 M170.5,74.1l-0.9,2.9 M235.8,403L235.8,403
		 M129.6,91.5l-1.8-2.7 M127.9,88.8l3.3-4.9 M129.6,91.5h11.1 M59.7,278.9l0.7-5 M63.8,255l0.2-0.5 M60.4,273.9l0.6-4.3 M55.8,307.4
		l1.1-8.5 M57.9,291.4l0.9-6.6 M56.9,298.9l1-7.5 M61,269.6l0.6-3.6 M61.6,266l0.5-3 M62.1,262.9l0.4-2.5 M62.5,260.5l0.4-2
		 M62.9,258.5l0.3-1.5 M63.3,257l0.3-1.1 M63.6,255.8l0.3-0.8 M53.3,327.3l1.3-10.5 M58.8,284.7l0.8-5.8 M54.6,316.8l1.2-9.5
		 M149.9,180.2l-1,1.2 M216,799.5l0.6,1.2 M160.5,384.7l1.2,12 M155.7,318l0.1,2.4 M145,185.9l-0.6,0.6 M144.3,186.5l-0.6,0.6
		 M143.7,187.1l-0.6,0.5 M216.6,800.7l1.5,3 M143.8,346.8l0.7,11.1 M149.7,245.5l1,13.8 M136.1,223l0.7,13.1 M155.9,323.1l0,3
		 M64.1,254.5l16.3-18 M109.4,129.1l-0.4,0.3 M137.9,258l0.5,9 M235.9,402.8l-0.1,0.2 M141,305.3l0,0.3"/>
	<path class="st8" d="M164.8,424.8l0.8,7.1 M142.5,188.1l-0.6,0.4 M141.9,188.5l-0.7,0.4 M147.2,210.9l1.3,18.5 M140.4,298.5
		l0.2,2.4 M141,304.8l0.1,0.5 M154.3,301.6l0.4,4.5 M154.7,306.1l0.3,3.7 M162.9,407.3l1,9.3 M155.9,329.7l0,4.4 M153.7,296l0.5,5.6
		 M152.5,280.9l0.7,8.3 M145.8,189.8l1.4,21.2 M147.1,183.5l-0.8,0.9 M155.3,312.9l0.2,2.7 M147.9,182.5l-0.8,1 M141.1,305.7
		L141.1,305.7 M155.8,320.5l0.1,2.6 M148.9,181.4l-0.9,1.1 M140.5,189.4l-0.8,0.4 M138.9,190.2l-0.9,0.4 M155.9,339.4l1.7,16.7
		 M148.5,229.4l1.2,16 M171.2,463.7l0.6,1.4 M143.1,187.6l-0.6,0.5 M170.1,460.7l0.5,1.6 M168.6,454.2l0.5,2.5 M155.5,315.6l0.2,2.4
		 M135.4,208.4l0.7,14.6 M167.5,447.5l0.6,3.7 M138.9,274.7l0.4,6.6 M235.7,403.1L235.7,403.1 M140.7,302.7l0.1,1.3 M163.9,416.6
		l0.9,8.2 M165.5,431.9l0.7,6.1 M168.1,451.2l0.5,3.1 M155,309.8l0.3,3.1 M138,190.6l-1,0.5 M161.8,396.7l1.1,10.6 M151.7,271
		l0.8,9.9 M171.8,465.1l0.7,1.4 M169.6,458.9l0.5,1.8 M139.7,189.8l-0.8,0.4 M170.6,462.2l0.6,1.4 M166.3,438l0.6,5.2 M134.6,192.2
		l0.8,16.3 M145.6,185.2l-0.7,0.7 M166.9,443.1l0.6,4.4 M140.6,300.9l0.2,1.8 M157.6,356.2l1.5,15 M169.1,456.8l0.5,2.1
		 M141.1,184.1L141.1,184.1 M139.3,281.3l0.3,5.6 M159.2,371.2l1.4,13.5 M139.6,287l0.3,4.7 M137,191.1l-1.1,0.5 M135.8,191.6
		l-1.2,0.6 M139.9,291.6l0.3,3.8 M140.9,304l0.1,0.9 M146.3,184.4l-0.7,0.8 M151,178.8l-1.1,1.4 M137.4,247.7l0.5,10.2 M141.1,305.6
		l0,0.1 M136.8,236.1l0.6,11.6 M153.2,289.2l0.6,6.8 M138.4,266.9l0.4,7.8 M140.2,295.5l0.2,3.1 M141.2,188.9l-0.7,0.4 M150.7,259.3
		l0.9,11.7 M155.9,326.1l0,3.6 M155.9,334.1l0,5.4 M144.5,357.9l0.7,10 M141.1,305.6l1,15.1 M145.2,367.9l0.6,9 M142.1,320.8
		l0.9,13.7 M84.4,832.8l0.1-0.1 M145.8,376.9l0.6,8.2 M148.6,411.4l0.6,5.6 M147,392.5l0.5,6.8 M146.4,385.1l0.6,7.4 M153.7,451.7
		l1,7.1 M154.8,458.7l1.2,7.7 M147.5,399.3l0.5,6.3 M148,405.5l0.6,5.9 M150.4,427.9l0.7,5.5 M149.2,417l0.6,5.5 M149.8,422.5
		l0.7,5.4 M151.9,439.1l0.9,6 M152.8,445.2l0.9,6.5 M151.2,433.4l0.8,5.7 M143,334.4l0.8,12.3 M147.7,88.2l1.8,4.3"/>
</g>
</svg>
