<?xml version="1.0" encoding="utf-8"?>
<!-- Generator: Adobe Illustrator 20.1.0, SVG Export Plug-In . SVG Version: 6.00 Build 0)  -->
<svg version="1.1" id="Layer_1" xmlns="http://www.w3.org/2000/svg" xmlns:xlink="http://www.w3.org/1999/xlink" x="0px" y="0px"
	 viewBox="0 0 319 681" style="enable-background:new 0 0 319 681;" xml:space="preserve">
<style type="text/css">
	.st0{fill:#447E9E;}
	.st1{fill:#97886B;}
	.st2{fill:#F9FFFF;}
	.st3{fill:#FFE2A9;}
	.st4{fill:#B3C7C4;}
	.st5{fill:#76A0D6;}
	.st6{fill:#686E6B;}
	.st7{fill:none;stroke:#000000;stroke-miterlimit:10;}
</style>
<g>
	<path class="st0" d="M70.8,617.7l11.3,2l9.9,5.8l10.3,4.9l11.5-0.3l9.8-2l0.5,2.3l0.1,2.4l-17.8,2.4l-17.8,2.2l-17.8,2.1l-17.9-0.2
		l-17.7-2.5l9.8-3.4l10-2.8l8.9-5.3L70.8,617.7z M70.8,617.7"/>
	<path class="st1" d="M82.1,619.7l-11.3-2l12.1-23.2l1.2-26.1l2.4-26.1l3.6-25.9l3.8-25.9l-0.8-31l1.6-30.9l3.8-30.7l4.9,2.6
		l5.7-0.6l2.4-1.7l1.1-2.7l-0.9-2.7l-1.6-2.4l-2.4-3.8l-1.6-4.2l-0.7-4.4l-0.6-4.5l0.2-4.5l2.9-1.9l1.2,4.7l0.8,4.8l1.4,4.6l3.4,3.4
		l4.8-0.3l-0.2-5.9l-1-5.8l-1.4-5.8l0-5.9l-1-5.8l-2.3-5.4l-3.5-4.7l3.2-10.9l3.5-10.8l11.4,14.7l17.7,5.6l18.5-2l17.9-5l16.3-9.1
		l2.4-2.1l12,6.5l13.5,1.5l11.4-7.4l2.8,10l1.8,10.2l0.8,10.3l-0.3,10.4l-2.7,10l-0.1,35.8l-2.2,35.7l3.3,35.6l0.1,35.8l-2.1,35.7
		l-2.8,35.6l-4.8,35.4l-2.3-2.1l-9.1-4.8l-10.3-1l-9.9,3l-2.7,1.6l-4.7-33.3l1-33.6l2.1-33.5l-0.7-33.6l-4.2-33.3l-6.6-33l-8.1-32.6
		l-14.9,31.8l-12.8,32.7l-10.5,33.5l-1.9,35.1l-4.2,34.9l-7,34.4l0.3,35.1l-1.5,0.3l-9.8,2l-11.5,0.3L92,625.5L82.1,619.7z
		 M82.1,619.7"/>
	<path class="st2" d="M35.1,636.8l17.7,2.5l17.9,0.2l17.8-2.1l17.8-2.2l17.8-2.4l0.6,2.6l-0.7,7.2l-18.6,2.1l-18.7,1.7l-18.6,2.2
		l-18.7,0.6l-17.9-5.6L35.1,636.8z M35.1,636.8"/>
	<path class="st3" d="M104.8,373.4l0.6,4.5l0.7,4.4l1.6,4.2l2.4,3.8l1.6,2.4l0.9,2.7l-1.1,2.7l-2.4,1.7l-5.7,0.6l-4.9-2.6l-1.5-2
		l-2.3-3.5l-3.1-2.9l-2.6-3.3l-1.7-3.9L87,378l-0.6-4.2l-0.6-8.6l0.8-8.6l1.4-8.5l-0.4-8.6l0.3-8.6l-0.1-15.8l-1.7-15.8l0.2-15.8
		l1.7-15.8l0.5-12.3l3.3-11.9l2.7-12l0.6-12.3v-2.3L98,218l5.5,2l5.4,2.1l5.5,2l5.6,1.7l5.7,1.4l0.2,2.4l-2.4,10.6l-1.3,10.8
		l-0.9,10.8l-1.6,10.7l-2.8,10.5l-0.8,9.2l-2.1,9l-2.9,8.8l-2.7,8.8l-2.4,8.9l-0.1,9.2l4.4,8.1l3.5,4.7l2.3,5.4l1,5.8l0,5.9l1.4,5.8
		l1,5.8l0.2,5.9l-4.8,0.3l-3.4-3.4l-1.4-4.6l-0.8-4.8L108,367l-2.9,1.9L104.8,373.4z M104.8,373.4"/>
	<path class="st4" d="M92.1,218.4l-3-1.1l-2.3-2.2l5.7,1.1l2.7,0.9v2.3L92.1,218.4z M92.1,218.4"/>
	<path class="st3" d="M158.3,103l-0.3-0.8l-0.3-0.8l-0.2-0.8l-0.2-0.9l-0.2-0.9l-0.2-0.9l-0.1-0.9l-0.1-0.9l-0.1-1l-0.1-1l-0.1-1.1
		l-0.1-1.1l0-1.1l0-1.1l0-1.1l0-1.1l0.1-1.1l0.1-1.1l0.1-1l0.1-1l0-0.4l0-0.4l0-0.4l0-0.4l0-0.4l0-0.4l0.6-3.9l1-3.8l0.6-3.9
		l0.2-3.9l1.1-3.8l0.1-5.4l1.1-5.2L165,47l5.3-0.8l5.3,0.8l5,2l3.2-0.9l3.3-0.7l3.3-0.4l3.3-0.2l3.3,0.1l2.4,1.8l2,2.3l2,2.3
		l2.1,2.2l-0.4,5.8l-0.3,5.8l0.9,5.8l0.6,5.8l0.1,5.8l2,0.6l0.5-2.6l0.5-2.7l0.9-2.5l1.7-2.1l2.1-1.7l2-0.9l0.5-0.2l2.4,1.3l0.6,2.6
		l0,2.7l-0.4,2.7l-1.6,5.2l-1.2,2.4l-1.5,2.2l-1.8,2l-2.1,1.7l-2.6,0.5l-0.1-0.1l-0.1-0.1l-0.1-0.1l-0.1-0.1l-2.1,4.5l-2.8,4.1
		l-3.4,3.6l-3.9,3.1l-4.3,2.6l-4.4,2.4l-4.5,2.1l-4.9,0.6l-5-0.4l-4.8-1.3l-4.1-2.8l-2.5-4.3l-0.8-1.6l-0.8-1.6l-0.3-0.7l-0.3-0.8
		l-0.3-0.8L158.3,103z M158.3,103"/>
	<path class="st2" d="M195.6,646.4l-0.2-8l8.1,0.5l8.1-0.1l8.1,0.7l8.1,0l7.7-2.4l-1.6,7.8l-6.8,4.2l-7.9-0.7l-8,0l-8,0.3
		L195.6,646.4z M195.6,646.4"/>
	<path class="st0" d="M211.5,638.9l-8.1,0.1l-8.1-0.5l1.3-4.2l2-3.9l0.5-4.4l0.7-4.3l9.9-3l10.3,1l9.1,4.8l1.7,4.5l2.1,4.3l2.4,4.1
		l-7.7,2.4l-8.1,0L211.5,638.9z M211.5,638.9"/>
	<path class="st5" d="M158.3,116.3l2.8-2.2l-0.1,2.5l0.2,3.6l-2.1,6l-1,6.3l0.4,6.4l2.1,6l3.8,5.1l4.2,4.8l3.9,5l-0.6,0.9l-4.5-3.9
		l-5.1-3l-5.6-2l-5.5-2.4l-3.4-4.9l-3.9-0.5L140,145l-3.2,2.2l3-7.1l4.2-6.5l4.3-5.3l0.6-0.7l5.5-5.4l1.6-3.2L158.3,116.3z
		 M158.3,116.3"/>
	<path class="st6" d="M208.3,85l-2-0.6l-0.1-5.8l-0.6-5.8l-0.9-5.8l0.3-5.8l0.4-5.8l-2.1-2.2l-2-2.3l-2-2.3l-2.4-1.8l-3.3-0.1
		l-3.3,0.2l-3.3,0.4l-3.3,0.7l-3.2,0.9l-5-2l-5.3-0.8L165,47l-3.3,4.2l-1.1,5.2l-0.1,5.4l-1.1,3.8l-0.2,3.9l-0.6,3.9l-1,3.8L157,81
		l-0.5-1l0.3-10.6l0.6-10.5l0.9-10.5l2.4-5.8l4-4.8l5.4-3.2l5.9-2.1l6.2-1l6.2,0.1l6.1,1.3l5.8,2.3l5.3,3.3l4.6,4.2l3.5,5.2l2.3,5.8
		l0.9,6.2l0,6.3l-0.7,6.2l-2,0.9l-2.1,1.7l-1.7,2.1l-0.9,2.5l-0.5,2.7L208.3,85z M208.3,85"/>
	<path class="st5" d="M279.6,188.7l3.5,9.9l4.2,9.7l-2.1,0.3l-6.6,1l-8,3.6l-7.9,3.9l-7.9,3.8l-7,3.4l1.8,4.3l-2.1,10.2l-2.3,10.9
		l-3.4,21l-3.9,20.7l-2.4,3.1l-8.7,8.8l-5.4,4.6L201,325.5l-2.4,2.1l-16.3,9.1l-17.9,5l-18.5,2l-17.7-5.6l-11.4-14.7l4.1-18.5
		l3.9-18.5l2.4-18.8l0.3-18.9l-1.7-18.9l-0.2-2.4l-5.7-1.4l-5.6-1.7l-5.5-2l-5.4-2.1l-5.5-2l-2.8-0.9l-2.7-0.9l-5.7-1.1l4.2-14
		l4.1-14l4-14l5-13.7l6.6-13l1.3-1.8l1.7-1.4l2-1l11-4.4l10.9-4.7l10.9-4.8l-4.3,5.3l-4.2,6.5l-3,7.1l3.2-2.2l3.8-0.9l3.9,0.5
		l3.4,4.9l5.5,2.4l5.6,2l5.1,3l4.5,3.9l-3.1,5.2l-2.3,5l4.7-7.8l7-6.2l8.4-4.1l7.4-5.7l6.9-6.3l4.8,0.7l4.7,1.3l4.8-0.3l4.8-0.8
		l-0.7-9.5l-0.4-9.6l13.9,5l13.6,5.8l12.7,7.5l6.4,8.4l5.1,9.2l3.6,9.9l2.5,10.2L279.6,188.7z M198.2,205.7l17.7,1.1l5.3-18.5
		l4.3-18.8l-18.7-3.3l-19-1.1l-4.6,17.4l-1.8,17.9L198.2,205.7z M198.2,205.7"/>
	<path class="st5" d="M210.4,142.8l-4.7-1.3l-4.8-0.7l-6.9,6.3l-7.4,5.7l-8.4,4.1l-7,6.2l-4.7,7.8l2.3-5l3.1-5.2l0.6-0.9l6.1-7.3
		l7.4-6l6.6-6.9l5.4-7.8l4.8-8.3l4.1-8.6l0-4.8l0.1-1.2l1.4,0.6l1.1,1.1l1.3,2.9l1.6,2.7l2,2.5l2.3,2.2l2.5,1.9l0.4,9.6l0.7,9.5
		l-4.8,0.8L210.4,142.8z M210.4,142.8"/>
	<path class="st3" d="M237.9,325.2v0.8l-11.4,7.4l-13.5-1.5l-12-6.5l20.5-17.6l4.2,3.9l4.2,4.2l3.7,4.7l3.6,4.8L237.9,325.2z
		 M237.9,325.2"/>
	<path class="st3" d="M163.6,113.7l4.1,2.8l4.8,1.3l5,0.4l4.9-0.6l4.5-2.1l4.4-2.4l4.3-2.6l3.9-3.1l3.4-3.6l2.8-4.1l2.1-4.5l0.1,0.1
		l0.1,0.1l0.1,0.1l0.1,0.1l-0.7,4.8l-0.6,4.8l-0.2,3.6l-0.1,1.2l0,4.8l-4.1,8.6l-4.8,8.3l-5.4,7.8l-6.6,6.9l-7.4,6l-6.1,7.3l-3.9-5
		l-4.2-4.8l-3.8-5.1l-2.1-6l-0.4-6.4l1-6.3l2.1-6l-0.2-3.6l0.1-2.5l0-1.2l0-3.6L163.6,113.7z M163.6,113.7"/>
	<path class="st3" d="M262.7,217.1l7.9-3.9l8-3.6l6.6-1l5.3,18.5l4.4,18.8l0,10.4l-4.2,9.4l-6.7,7.9l-6.3,10.2l-7.5,9.2l-8.7,8.1
		l-9.2,7.5l-7.9,8.9l-4.5-3.4l-4.7-3.2l-4.3-3.7l-4-4l8.7-8.8l2.4-3.1l5.2-6.6l6.6-10.5l5.9-10.9l6.6-10.5l-0.5-6.6l-3.7-5.4l-4.2-5
		l-3.5-5.6l-0.8-1.7l-1.8-4.3l7-3.4L262.7,217.1z M262.7,217.1"/>
	<path class="st6" d="M230.8,307.2l4.3,3.7l4.7,3.2l4.5,3.4l-1.5,5.8l-5,1.9l-0.7,0.2l-3.6-4.8l-3.7-4.7l-4.2-4.2l-4.2-3.9l5.4-4.6
		L230.8,307.2z M230.8,307.2"/>
	<path class="st5" d="M215.9,206.8l-17.7-1.1l-16.9-5.3l1.8-17.9l4.6-17.4l19,1.1l18.7,3.3l-4.3,18.8L215.9,206.8z M215.9,206.8"/>
	<path class="st7" d="M70.8,617.7l11.3,2 M63.8,625.2l7.1-7.6 M54.9,630.6l8.9-5.3 M44.9,633.4l10-2.8 M35.1,636.8l9.8-3.4
		 M35.1,636.8l17.7,2.5 M52.8,639.3l17.9,0.2 M70.7,639.5l17.8-2.1 M88.5,637.4l17.8-2.2 M106.3,635.2l17.8-2.4 M124,630.5l0.1,2.4
		 M123.5,628.2l0.5,2.3 M113.8,630.2l9.8-2 M102.3,630.4l11.5-0.3 M92,625.5l10.3,4.9 M82.1,619.7l9.9,5.8 M105.4,377.8l-0.6-4.5
		 M111.4,398.1l1.1-2.7 M105.1,368.9l2.9-1.9 M92.1,218.4l-3-1.1 M105.4,644.6l-18.7,1.7 M241.3,519.8l-2.1,35.7 M241.3,484
		l0.1,35.8 M158.1,102.2l0.3,0.8 M158.3,103l0.3,0.8 M159.3,105.4l0.3,0.7 M211.5,638.9l-8.1,0.1 M203.4,639l-8.1-0.5 M195.4,638.5
		l0.2,8 M158.3,116.3l2.8-2.2 M206.3,84.4l2,0.6 M279.6,188.7l3.5,9.9 M283.1,198.5l4.2,9.7 M205.8,141.5l4.7,1.3 M237.9,326.1v-0.8
		 M147.8,144.5l3.4,4.9 M84.1,568.3l-1.2,26.1 M90.1,516.3l-3.6,25.9 M94,490.4l-3.8,25.9 M210.3,77.2l1.7-2.1 M166.4,170.9l4.7-7.8
		 M163.6,113.7l4.1,2.8 M214.9,91.4l-1.8,2 M107.7,386.5l-1.6-4.2 M198.2,205.7l17.7,1.1 M89.1,217.3l-2.3-2.2 M196.7,634.3
		l-1.3,4.2 M156.3,90.8l0,1.1 M156.4,92.9l0.1,1.1 M157,97.9l0.2,0.9 M156.5,94l0.1,1 M156.4,91.9l0.1,1.1 M206.3,78.6l0.1,5.8
		 M156.8,97l0.1,0.9 M157.2,98.8l0.2,0.9 M211.1,648.6l8,0 M265.5,149.3l5.1,9.2 M116,355l-2.3-5.4 M117,360.8l-1-5.8 M117,366.7
		l0-5.9 M118.4,372.5l-1.4-5.8 M119.3,378.3l-1-5.8 M262.7,217.1l7.9-3.9 M270.6,213.2l8-3.6 M278.6,209.6l6.6-1 M159.6,106.1
		l0.8,1.6 M158.5,73.4l0.6-3.9 M157.5,77.1l1-3.8 M87.8,315.2l0.1,15.8 M105.9,327.5l2.4-8.9 M113.9,301.1l2.1-9 M105.8,336.7
		l0.1-9.2 M156.7,69.4L156.5,80 M156.5,80l0.5,1 M157,81l0.6-3.9 M159.2,69.5l0.2-3.9 M159.4,65.6l1.1-3.8 M160.5,61.8l0.1-5.4
		 M160.6,56.5l1.1-5.2 M161.7,51.2L165,47 M165,47l5.3-0.8 M170.4,46.2l5.3,0.8 M175.7,47l5,2 M180.7,49l3.2-0.9 M183.9,48.1
		l3.3-0.7 M187.2,47.4l3.3-0.4 M190.5,47l3.3-0.2 M193.8,46.8l3.3,0.1 M197.1,47l2.4,1.8 M199.5,48.8l2,2.3 M201.5,51.1l2,2.3
		 M203.5,53.3l2.1,2.2 M205.6,55.5l-0.4,5.8 M205.2,61.2l-0.3,5.8 M204.8,67l0.9,5.8 M205.7,72.8l0.6,5.8 M208.3,85l0.5-2.6
		 M208.9,82.4l0.5-2.7 M209.4,79.7l0.9-2.5 M212,75.1l2.1-1.7 M214.1,73.4l2-0.9 M216.1,72.5l0.7-6.2 M216.8,66.3l0-6.3 M216.7,60
		l-0.9-6.2 M215.9,53.8l-2.3-5.8 M213.6,48l-3.5-5.2 M210,42.8l-4.6-4.2 M200.1,35.2l-5.8-2.3 M194.4,32.9l-6.1-1.3 M188.2,31.6
		l-6.2-0.1 M182,31.5l-6.2,1 M175.8,32.5l-5.9,2.1 M169.9,34.6l-5.4,3.2 M164.6,37.8l-4,4.8 M160.6,42.6l-2.4,5.8 M158.2,48.4
		l-0.9,10.5 M157.3,58.9l-0.6,10.5 M35.1,636.8l-3.6,6.8 M171.1,163.1l7-6.2 M258.1,241l3.7,5.4 M197.9,131.7l-5.4,7.8 M192.4,139.5
		l-6.6,6.9 M125.8,229.5l1.7,18.9 M161.1,109.3l0,3.6 M161.1,113l0,1.2 M161.1,114.1l-0.1,2.5 M161,116.6l0.2,3.6 M161.1,120.3
		l-2.1,6 M159,126.3l-1,6.3 M158.1,132.6l0.4,6.4 M158.4,138.9l2.1,6 M160.5,144.9l3.8,5.1 M164.3,150.1l4.2,4.8 M168.5,154.8l3.9,5
		 M178.5,152.5l-6.1,7.3 M185.9,146.5l-7.4,6 M202.6,123.5l-4.8,8.3 M206.7,114.8l-4.1,8.6 M206.7,114.8l0-4.8 M206.8,110l0.1-1.2
		 M206.8,108.8l0.2-3.6 M207.1,105.2l0.6-4.8 M207.7,100.4l0.7-4.8 M208.2,95.6l0.1,0.1 M208.1,95.5l0.1,0.1 M208,95.3l0.1,0.1
		 M207.9,95.2l0.1,0.1 M205.7,99.7l2.1-4.5 M202.9,103.8l2.8-4.1 M199.5,107.5l3.4-3.6 M195.6,110.5l3.9-3.1 M191.4,113.1l4.3-2.6
		 M187,115.4l4.4-2.4 M182.4,117.5l4.5-2.1 M177.5,118.1l4.9-0.6 M172.5,117.8l5,0.4 M167.8,116.4l4.8,1.3 M161.1,109.3l2.5,4.3
		 M95.1,217.1l-2.7-0.9 M156.5,85.5l-0.1,1.1 M156.4,86.6l-0.1,1.1 M156.4,87.6l0,1.1 M156.3,88.7l0,1.1 M156.6,95.1l0.1,1
		 M206.8,108.8l1.4,0.6 M108.3,318.6l2.7-8.8 M157.4,99.6l0.2,0.9 M157.8,101.3l0.3,0.8 M158.6,103.8l0.3,0.8 M158.9,104.6l0.3,0.8
		 M160.4,107.7l0.8,1.6 M211,95.1l-2.6,0.5 M217.6,86.7l-1.2,2.4 M109.9,376.4l1.4,4.6 M237.9,291.4l-2.4,3.1 M230.8,307.2l4.3,3.7
		 M110.1,390.3l-2.4-3.8 M116.8,323.2l-3.5,10.8 M113.3,334l-3.2,10.9 M113.7,349.6l-3.5-4.7 M219,73.6l0.6,2.6 M216.6,72.3l2.4,1.3
		 M216.1,72.5l0.5-0.2 M127.5,248.4l-0.3,18.9 M242.8,323.3l-5,1.9 M237.2,325.5l-3.6-4.8 M237.9,325.2l-0.7,0.2 M244.4,317.5
		l-1.5,5.8 M239.8,314.1l4.5,3.4 M235.1,310.9l4.7,3.2 M226.8,303.2l4,4 M221.4,307.9l5.4-4.6 M225.6,311.7l-4.2-3.9 M229.9,316
		l-4.2-4.2 M233.6,320.7l-3.7-4.7 M199.9,621.7l-0.7,4.3 M199.2,626l-0.5,4.4 M198.7,630.4l-2,3.9 M219.6,639.6l-8.1-0.7
		 M227.7,639.7l-8.1,0"/>
	<path class="st7" d="M235.4,637.3l-7.7,2.4 M233,633.2l2.4,4.1 M230.9,628.9l2.1,4.3 M229.2,624.5l1.7,4.5 M229.2,624.5l-9.1-4.8
		 M220.1,619.7l-10.3-1 M209.8,618.7l-9.9,3 M85.8,365.3l0.6,8.6 M235.5,294.4l-8.7,8.8 M243.2,284.7l-5.2,6.6 M261.6,301.1
		l-9.2,7.5 M242.4,346.3l0.8,10.3 M240.7,336l1.8,10.2 M237.9,326.1l2.8,10 M87,378l0.4,4.2 M114.4,224.1l-5.5-2 M108.9,222.2
		l-5.4-2.1 M237.9,448.4l3.3,35.6 M240.1,412.8l-2.2,35.7 M240.2,377l-0.1,35.8 M249.7,274.2l-6.6,10.5 M115.5,142.2l11-4.4
		 M49.3,649.2l-17.9-5.6 M88.1,267.9l-1.7,15.8 M219.6,78.9l-0.4,2.7 M111,309.8l2.9-8.8 M221.2,188.3l4.3-18.8 M213.1,93.4
		l-2.1,1.7 M201,140.8l4.8,0.7 M168.7,166l-2.3,5 M116,292.1l0.8-9.2 M97.1,395.8l1.5,2 M246.4,133.4l12.7,7.5 M232.9,127.6
		l13.6,5.8 M68.1,648.6l-18.7,0.6 M120.9,304.7l-4.1,18.5 M137.9,488.4l10.5-33.5 M290.6,227l4.4,18.8 M87.4,382.2l1.7,3.9
		 M178.2,156.9l8.4-4.1 M151.2,149.4l5.5,2.4 M156.6,151.8l5.6,2 M162.2,153.8l5.1,3 M167.3,156.9l4.5,3.9 M94.5,231.7l0.6-12.3
		 M109.1,371.7l0.8,4.8 M284.1,273.5l-6.3,10.2 M290.7,265.6l-6.7,7.9 M255.6,263.4l-5.9,10.9 M164.4,341.6l17.9-5 M145.9,343.6
		l18.5-2 M128.2,337.9l17.7,5.6 M116.8,323.2l11.4,14.7 M247.5,238.8l2.1-10.2 M87.6,339.7l0.4,8.6 M94.8,428.5l-1.6,30.9
		 M112.5,395.5l-0.9-2.7 M195.6,646.4l7.6,2.5 M203.2,648.9l8-0.3 M219.1,648.6l7.9,0.7 M227.1,649.3l6.8-4.2 M241.9,270.7l3.4-21
		 M181.3,200.4l16.9,5.3 M215.9,206.8l5.3-18.5 M206.8,166.2l18.7,3.3 M187.8,165.2l19,1.1 M187.8,165.2l-4.6,17.4 M183.2,182.5
		l-1.8,17.9 M122.1,250.9l-0.9,10.8 M121.3,261.7l-1.6,10.7 M119.7,272.5l-2.8,10.5 M86.6,356.7l-0.8,8.6 M88,348.2l-1.4,8.5
		 M89.1,386.1l2.6,3.3 M98,218l-2.8-0.9 M88.1,267.9l0.5-12.3 M219.5,76.2l0,2.7 M125.8,229.5l-2.4,10.6 M274.2,168.3l2.5,10.2
		 M86.7,646.4l-18.6,2.2 M253.8,235.9l4.2,5 M250.4,230.4l3.5,5.6 M94.8,392.3l2.3,3.5 M113.6,143.2l2-1 M245.2,249.7l2.3-10.9
		 M212.9,332l-12-6.5 M226.5,333.5l-13.5-1.5 M237.9,326.1l-11.4,7.4 M137.4,133.1l10.9-4.8 M125.6,227.2l0.2,2.4 M184.1,423l6.6,33
		 M190.8,455.9l4.2,33.3 M172.4,159.9l-0.6,0.9 M239.2,555.5l-2.8,35.6 M86.5,542.2l-2.4,26.1 M127.2,267.3l-2.4,18.8 M270.6,158.5
		l3.6,9.9 M215.3,142.5l4.8-0.8 M156.7,96.1l0.1,0.9 M285.2,208.5l2.1-0.3 M157,81l0,0.4 M156.9,81.4l0,0.4 M156.9,81.8l0,0.4
		 M156.8,82.2l0,0.4 M156.8,82.6l0,0.4 M156.8,83l0,0.4 M156.7,83.4l-0.1,1 M156.6,84.5l-0.1,1 M156.3,89.8l0,1.1 M157.6,100.5
		l0.2,0.8 M216.4,89.2l-1.5,2.2 M93.2,459.5l0.8,31 M237.9,291.4l3.9-20.7 M247.8,224.3l1.8,4.3 M247.8,224.3l7-3.4 M254.8,220.9
		l7.9-3.8 M276.7,178.5l2.9,10.1 M259.1,140.9l6.4,8.4 M219,122.6l13.9,5 M219,122.6l0.4,9.6 M219.4,132.2l0.7,9.5 M210.4,142.8
		l4.8-0.3 M194,147.1l6.9-6.3 M186.6,152.8l7.4-5.7 M171.8,160.8l-3.1,5.2 M143.9,144.1l3.9,0.5 M140,145l3.8-0.9 M136.8,147.2
		l3.2-2.2 M139.8,140.1l-3,7.1 M144,133.6l-4.2,6.5 M148.3,128.3l-4.3,5.3 M126.6,137.8l10.9-4.7 M111.9,144.6l1.7-1.4 M110.6,146.3
		l1.3-1.8 M104,159.4l6.6-13 M99,173.1l5-13.7 M95,187.1l4-14 M91,201.1l4.1-14 M86.7,215.1l4.2-14 M92.4,216.2l-5.7-1.1 M103.5,220
		l-5.5-2 M120,225.8l-5.6-1.7 M125.6,227.2l-5.7-1.4 M124.8,286.1l-3.9,18.5 M182.3,336.6l16.3-9.1 M198.6,327.5l2.4-2.1
		 M210.6,113.4l1.6,2.7 M216.5,120.7l2.5,1.9 M95.1,219.4v-2.3 M91.8,243.7l2.7-12 M88.6,255.6l3.3-11.9 M86.4,283.6l-0.2,15.8
		 M86.2,299.5l1.7,15.8 M87.9,331.1l-0.3,8.6 M86.3,373.9L87,378 M91.7,389.4l3.1,2.9 M109.1,399.8l2.4-1.7 M111.6,392.7l-1.6-2.4
		 M106.2,382.3l-0.7-4.4 M104.8,373.4l0.2-4.5 M108,367l1.2,4.7 M111.3,381.1l3.4,3.4 M114.7,384.5l4.8-0.3 M119.6,384.2l-0.2-5.9
		 M110.1,344.8l-4.4-8.1 M123.4,240.1l-1.3,10.8 M208.2,109.4l1.1,1.1 M148.4,454.9l12.8-32.7 M161.2,422.2l14.9-31.8 M261.8,246.4
		l0.5,6.6 M124.7,592.7l7-34.4 M156,119l2.3-2.7 M154.4,122.2l1.6-3.2 M148.9,127.6l-0.6,0.7 M249.6,228.6l0.8,1.7 M231.5,626.6
		l-2.3-2.1 M98.6,397.8l-3.8,30.7 M214.2,118.5l2.3,2.2 M212.3,116.1l2,2.5 M209.3,110.5l1.3,2.9 M125,627.9l-0.3-35.1 M295,256.2
		l-4.2,9.4 M294.9,245.8l0,10.4 M285.2,208.5l5.3,18.5 M262.2,252.9l-6.6,10.5 M252.3,308.6l-7.9,8.9 M270.3,292.9l-8.7,8.1
		 M277.8,283.7l-7.5,9.2 M95.1,219.4l-3-1 M131.7,558.3l4.2-34.9 M233.9,645.1l1.6-7.8 M243.2,356.6l-0.3,10.4 M123.5,628.2l1.5-0.3
		 M154.4,122.2l-5.5,5.4 M82.9,594.4l-12.1,23.2 M136,523.5l1.9-35.1 M176,390.4l8.1,32.6 M195,489.3l0.7,33.6 M195.7,522.9
		l-2.1,33.5 M193.6,556.4l-1,33.6"/>
	<path class="st7" d="M192.6,590l4.7,33.3 M199.9,621.7l-2.7,1.6 M236.4,591.1l-4.8,35.4 M242.9,367l-2.7,10 M124,642.6l-18.6,2.1
		 M124,642.6l0.7-7.2 M124.7,635.4l-0.6-2.6 M98.6,397.8l4.9,2.6 M103.4,400.4l5.7-0.6 M221.4,307.9L201,325.5 M205.4,38.6l-5.3-3.3
		 M219.2,81.6l-1.6,5.2 M246.9,224.7l0.9-0.4 M166.3,171.1l0.1-0.2 M246.9,224.7l-2.9-6.7 M242,211.1l-1.2-7.2 M122.3,179.1
		l2.6-10.9 M244,218.1l-2.1-7 M121.3,201.4l-0.2-11.2 M247.5,238.8L233,264.5 M121.1,190.2l1.2-11.1 M125.6,227.2l0.3-3.9
		 M125.9,223.2l-3-10.8 M176,390.4l-5.3-10.8 M122.9,212.5l-1.6-11.1"/>
</g>
</svg>
