<?xml version="1.0" encoding="utf-8"?>
<!-- Generator: Adobe Illustrator 20.0.0, SVG Export Plug-In . SVG Version: 6.00 Build 0)  -->
<svg version="1.1" id="Layer_1" xmlns="http://www.w3.org/2000/svg" xmlns:xlink="http://www.w3.org/1999/xlink" x="0px" y="0px"
	 viewBox="0 0 331.5 867" style="enable-background:new 0 0 331.5 867;" xml:space="preserve">
<style type="text/css">
	.st0{fill:#FFD5A8;}
	.st1{fill:#000434;}
	.st2{fill:#230500;}
	.st3{fill:#C4915B;}
	.st4{fill:#FFFFFF;}
	.st5{fill:#424242;}
	.st6{fill:#341900;}
	.st7{fill:#575757;}
	.st8{fill:#C18C77;}
	.st9{fill:none;stroke:#000000;stroke-miterlimit:10;}
</style>
<g>
	<path class="st0" d="M150.5,136l0.2-0.9l0-0.6l0.1-0.6l0.1-0.7l0.1-0.8l0.2-0.8l0.2-0.8l0.3-0.9l0.3-0.9l0.3-0.9l0.3-0.9l0.4-0.9
		l0.4-0.9l0.4-0.9l0.4-0.9l0.4-0.8l0.5-0.8l0.5-0.8l0.5-0.7l0.5-0.6l0.5-0.6l0.1-0.1l0.2-0.2l0.2-0.3l0.2-0.4l0.2-0.4l0.2-0.5
		l0.2-0.6l0.2-0.7l0.2-0.8l0.2-0.9l0.2-0.9l0.2-1l0.2-1.1l0.1-1.2l0.1-1.3l0.1-1.4l0.1-1.5l0-1.6l0-1.7l0.6,1.3l0.7,1.4l0.7,1.5
		l0.8,1.6l2.7,5.3l1,2l0.6,1.1l0.6,1.1l0.6,1.1l0.7,1.1l0.7,1.1l0.7,1.1l0.7,1.1l0.8,1l0.8,1l0.8,0.9l0.8,0.9l0.9,0.8l0.9,0.7
		l0.9,0.7l1,0.6l1,0.5l1,0.4l1.1,0.3l1.1,0.2l1.1,0l1.6-0.1l1.5-0.1l1.5-0.2l1.5-0.3l1.4-0.4l1.4-0.5l1.4-0.6l1.3-0.6l1.3-0.7
		l1.3-0.7l1.2-0.8l1.2-0.8l1.2-0.9l1.1-0.9l1.1-0.9l1.1-0.9l1.1-0.9l1-0.9l1-1l1-0.9l0.9-0.9l1-0.9l1-1l1-1l1-1.1l1-1.1l1-1.2l1-1.2
		l1-1.3l-0.3,0.6l-0.3,0.7l-0.3,0.8l-0.2,0.8l-0.2,0.9l-0.2,1l-0.1,1l-0.1,1l-0.1,1l0,1l0,1l0,0.9l0.1,0.9l0.1,0.8l0.1,0.7l0.1,0.6
		l0.1,0.5l0.1,0.4l0.2,0.3l0.2,0.1l0.2,0l0.2,0.1l0.3,0.1l0.4,0.1l0.4,0.2l0.5,0.2l0.5,0.2l0.5,0.2l0.5,0.3l0.5,0.3l0.5,0.3l0.5,0.3
		l0.5,0.3l0.5,0.3l0.4,0.3l0.4,0.3l0.3,0.3l0.2,0.3l0.1,0.2l0.1,0.2l0.8,2.2l0.5,2.2l0.1,2.1l-0.2,2.1l-0.5,2.1l-0.7,2l-0.9,1.9
		l-1.1,1.9l-1.3,1.8l-1.5,1.7l-1.6,1.6l-1.7,1.4l-1.7,1.3l-1.7,1.2l-1.7,1l-1.7,0.9l-1.7,0.7l-1.6,0.6l-1.5,0.4l-1.3,0.2h-2.2
		l-3.3,7l-0.1,4.4l-0.2,4.3L197,177l-0.2,0.8l-0.7,0.7l-1.1,0.7l-1.4,0.6l-1.7,0.5l-2,0.4l-2.2,0.3l-2.4,0.1l-2.6-0.1l-2.7-0.3
		l-2.7-0.5l-2.7-0.7l-2.7-1l-2.6-1.3l-2.5-1.6l-2.4-1.9l-2.2-2.3l-1.9-2.7l-1.7-3.1l-1.3-3.5l0.6-1.7l0.6-1.7l0.7-1.7l0.7-1.8
		l0.8-1.8l0.8-1.9l0.9-1.9l-0.8-0.1l-0.9-0.2l-0.9-0.3L159,149l-0.9-0.5l-0.9-0.6l-0.9-0.7l-0.8-0.7l-0.8-0.8l-0.8-0.9l-0.7-0.9
		l-0.6-0.9l-0.6-1l-0.5-1l-0.4-1l-0.3-1l-0.2-1l-0.1-1L150.5,136z M150.5,136"/>
	<path class="st1" d="M150.7,135.1l-0.2,0.9l0,1l0.1,1l0.2,1l0.3,1l0.4,1l0.5,1l0.6,1l0.6,0.9l0.7,0.9l0.8,0.9l0.8,0.8l0.8,0.7
		l0.9,0.7l0.9,0.6l0.9,0.5l0.9,0.4l0.9,0.3l0.9,0.2l0.8,0.1l-0.9,1.9l-0.8,1.9l-0.8,1.8l-0.7,1.8l-0.7,1.7l-0.6,1.7l-0.6,1.7
		l-0.6,1.6l-0.5,1.6l-0.5,1.6l-0.5,1.6l-0.5,1.6l-0.5,1.6l-0.4,1.6l-0.4,1.7l-0.4,1.7l-0.4,1.7l-1.4,5.5l-0.9,2.1l-0.8,2.3l-0.8,2.6
		l-0.7,2.9l-0.6,3.3l-0.6,3.6l-0.5,4l-0.5,4.4l-0.4,4.8l-0.4,5.2l-0.3,5.7l-0.3,6.1l-0.3,6.6l-0.2,7.1l-0.2,7.6l-0.1,8.2l-0.1,8.8
		l-0.1,9.4l0,10l0,10.6l0,1.7l0,1.8l0,1.8l0.1,1.8l0.1,1.8l0.1,1.8l0.1,1.8l0.1,1.8l0.2,1.7l0.2,1.6l0,0.2l0.2,1.3l0.2,1.5l0.3,1.4
		l0.3,1.3l0.3,1.1l0.3,1l0.4,0.9l0.4,0.7l0.4,0.5l0.5,0.3l-1.1,3.8l-1,3.5l-0.9,3.3l-0.8,3.2l-0.8,3.3l-0.7,3.4l-0.7,3.7l-0.6,4
		l-0.6,4.5l-0.6,5.1l-0.6,5.8l-0.7,6.6l-0.7,7.5l-0.8,8.5l-0.8,9.6l-0.9,10.9l-4.6,57.9l-2.6-0.3l-4.7-0.6l-4.2-0.8l-3.5-0.9l-2.8-1
		l-4.3-1l-4.3-1.1l-4.2-1.1l-4.2-1.1l-4.1-1.2l-4-1.2l-4-1.3l-3.8-1.3l-3.7-1.4l-3.6-1.4l-3.4-1.5l-3.3-1.5l-3.1-1.6l-2.9-1.6
		l-2.7-1.7l-2.4-1.7l-2.2-1.8l-1.9-1.8l-1.7-1.9l-1.4-1.9L37,451.3l0,0l0-0.1l0-0.1l0-0.1l0-0.1l0-0.1l-0.1-0.1l-0.1-0.1l-0.2-0.1
		l-0.2-0.1l-0.3-0.1l-0.4-0.1l-0.4-0.1l-0.5-0.1l-0.6-0.1l-0.7,0l-0.8,0l-1,0l-1.1,0l-0.4-1.3l-0.4-1.5l-0.4-1.6l-0.4-1.8l-0.4-1.9
		l-0.4-2l-0.8-4.2l-0.4-2.2l-0.4-2.2l-0.4-2.2l-0.5-2.2l-0.5-2.1l-0.5-2.1l-0.5-2l-0.6-1.9l-0.6-1.8l-0.6-1.7l-0.7-1.5l-0.7-1.4
		l-0.4-2.4l-0.4-3.2l-0.3-3.8l-0.3-4.4l-0.2-5l-0.1-5.4l0-5.8l0-6.1l0.1-6.4l0.2-6.6l0.3-6.7l0.4-6.7l0.5-6.7l0.6-6.6l0.7-6.4
		l0.8-6.2l0.9-5.9l1-5.5l1.1-5l1.2-4.5l0.6-4.5l0.7-5l0.8-5.4l0.9-5.9l1-6.2l1.1-6.5l1.2-6.8l1.3-7l1.5-7.1l1.6-7.2l1.7-7.3l1.8-7.2
		l1.9-7.2l2-7.1l2.1-6.9l2.3-6.7l2.4-6.4l2.5-6.1l2.7-5.7l2.8-5.3l3.7-9.7l1.2-3l1.1-2.8l1.1-2.7l1.1-2.6l1.1-2.4l1.1-2.2l1.1-2.1
		l1.2-1.9l1.2-1.7l1.3-1.5l1.3-1.4l1.4-1.2l1.5-1l1.5-0.8l1.6-0.6l1.7-0.3l1.8-0.1l2.5-0.8l2.7-0.8l2.9-0.8l3.1-0.8l3.3-0.8l3.5-0.8
		l3.6-0.8l3.7-0.8l3.8-0.8l3.9-0.9l3.9-0.9l3.9-0.9l3.9-1l3.9-1.1l3.8-1.1l3.7-1.2l3.6-1.3l3.5-1.4l1.9-0.8l0.2-0.1l0.2-0.1l0.3,0
		l0.3,0l0.3,0l0.3,0l0.3,0l0.3,0l0.3,0l0.6,0l0.3,0l0.3,0l0.3,0l0.3,0l0.3,0l0.2,0l0.2,0l0.2-0.1l0.2-0.1l0.1-0.1l-0.5,0.6l-0.5,0.6
		l-0.5,0.7l-0.5,0.8l-0.5,0.8l-0.4,0.8l-0.4,0.9l-0.4,0.9l-0.4,0.9l-0.4,0.9l-0.3,0.9L152,129l-0.3,0.9l-0.3,0.9l-0.2,0.8l-0.2,0.8
		l-0.1,0.8l-0.1,0.7l-0.1,0.6L150.7,135.1z M150.7,135.1"/>
	<path class="st1" d="M146.1,331.2l1.1-3.8l1.2-2l1.3-2.5l1.4-2.9l1.5-3.3l1.5-3.6l1.6-4l1.7-4.3l1.7-4.6l1.8-4.9l1.8-5.1l1.9-5.3
		l1.9-5.5l1.9-5.7l2-5.9l2-6l2-6.1l2-6.2l2-6.2l4.9-15.1l0.9-2.7l1-2.7l1-2.8l1-2.8l1-2.9l1-2.9l1-3l1-3.1l1-3.2l0.9-3.3l0.9-3.4
		l0.8-3.5l0.7-3.6l0.6-3.7l0.6-3.8l0.4-4l0.3-4.1l0.2-4.3l0.1-4.4l3.3-7h2.2l1.3-0.2l1.5-0.4l1.6-0.6l1.7-0.7l1.7-0.9l1.7-1l1.7-1.2
		l1.7-1.3l1.7-1.4l1.6-1.6l1.5-1.7l1.3-1.8l1.1-1.9l0.9-1.9l0.7-2l0.5-2.1l0.2-2.1l-0.1-2.1l-0.5-2.2L224,128l1.6,1.3l0.7,0.6
		l0.7,0.6l0.7,0.5l0.7,0.5l0.7,0.5l0.7,0.5l0.8,0.5l0.8,0.5l0.9,0.6l1,0.6l1,0.6l1.1,0.6l1.2,0.7l1.3,0.7l1.5,0.8l1.6,0.8l1.8,0.9
		l1.9,0.9l0.9,0.6l1.3,0.8l1.8,1l2.1,1.2l2.4,1.3l5.4,2.9l2.9,1.6l3,1.7l3,1.7l3,1.7l2.9,1.7l2.8,1.7l2.6,1.7l2.3,1.7l2,1.6l1.7,1.5
		l1.3,1.4l0.8,1.3l0.3,1.1l2.6,4l2.3,5.3l2.1,6.4l1.9,7.4l1.6,8.3l1.4,9l1.3,9.6l1.1,10.1l0.9,10.4l0.8,10.6l0.6,10.7l0.5,10.6
		l0.4,10.3l0.3,10l0.2,9.5l0.1,8.8l0.1,8.1l0,7.2l0,6.1l0,4.9l-0.9,3.7l-1,4.5l-2.4,11l-1.4,6.4l-1.5,6.8l-1.7,7.2l-1.8,7.5l-2,7.8
		l-2.1,7.9l-2.2,8l-2.4,7.9l-2.5,7.8l-2.7,7.7l-2.8,7.4l-2.9,7l-3.1,6.6l-3.2,6.1l-3.4,5.5l-3.5,4.8l-0.2,0.3l-0.2,0.3l-0.2,0.3
		l-0.2,0.3l-0.2,0.2l-0.2,0.2l-0.2,0.2l-0.2,0.2l-0.2,0.2l-0.2,0.2l-0.2,0.2l-0.2,0.2l-0.3,0.2l-0.3,0.2l-0.4,0.2l-0.4,0.2l-0.5,0.2
		l-0.5,0.2l-0.6,0.2l-0.7,0.3l-2.7-2.2l-2.4-2.1l-2.1-1.9l-1.9-1.8l-1.7-1.7l-1.5-1.6l-1.3-1.5l-1.1-1.4l-1-1.3l-0.8-1.3l-0.7-1.2
		l-0.6-1.1l-0.5-1.1l-0.4-1l-0.4-0.9l-0.3-0.9l-0.3-0.9l-0.3-0.8l-0.3-0.8l-0.4,0.2l-0.7,0.5l-0.9,0.7l-1.1,1l-1.3,1.2l-3.1,2.9
		l-1.8,1.7l-1.9,1.7l-2,1.8l-2.1,1.8l-2.2,1.8l-2.2,1.8l-2.3,1.7l-2.3,1.6l-2.3,1.5l-2.3,1.3l-2.3,1.1l-2.2,0.9l-2.2,0.6l-2.2,0.1
		l-2.5,0.1l-3.3,0.1l-3.9,0.1l-4.5,0.1l-5,0.1l-5.4,0h-5.7l-5.9,0l-6.1-0.1l-6.1-0.2l-6-0.2l-5.8-0.3l-5.6-0.4l-2.6-0.3l4.6-57.9
		l0.9-10.9l0.8-9.6l0.8-8.5l0.7-7.5l0.7-6.6l0.6-5.8l0.6-5.1l0.6-4.5l0.6-4l0.7-3.7l0.7-3.4l0.8-3.3l0.8-3.2l0.9-3.3L146.1,331.2z
		 M241.3,413.5l0.9-0.1l0.7-0.4l0.6-0.6l0.5-0.9l0.4-1.1l0.3-1.2l0.3-1.4l0.2-1.6l0.2-1.7l0.2-1.8l0.3-3.9l0.2-2l0.2-2.1l0.3-2.1
		l0.3-2.1l0.4-2.1l0.5-2.1l0.6-2l0.7-2l0.2-0.8l0.2-1.3l0.3-1.7l0.3-2.1l0.3-2.4l0.3-2.7l0.3-2.9l0.3-3.1l0.3-3.2l0.3-3.2l0.3-3.2
		l0.3-3.2l0.3-3.1l0.3-2.9l0.2-2.7l0.2-2.4l0.2-2l0.1-1.6l0.1-1.2l0-0.7l-2.5,11.7l-1.1,5.4l-1.1,5.1l-1,4.8l-0.9,4.5l-0.8,4.3
		l-0.8,4.1l-0.7,3.9l-0.6,3.7l-0.6,3.5l-0.5,3.4l-0.4,3.2l-0.4,3.1l-0.3,3l-0.3,2.9l-0.2,2.8l-0.1,2.8l-0.1,2.8L241.3,413.5z
		 M222.6,434.3l1.3-0.6l1.2-1.7l1.1-2.7l1.1-3.5l1-4.3l0.9-4.9l0.8-5.4l0.7-5.7l0.7-6l0.6-6.1l0.5-6.1l0.3-6l0.2-5.7l0.1-5.4l0-4.9
		l-0.1-4.3l-0.2-3.5l-0.4-2.7l-0.5-1.7l-0.7-0.6l-1,0.6l-1,1.7l-1,2.7l-1,3.5l-1,4.3l-0.9,4.9l-0.9,5.4l-0.8,5.7l-0.8,6l-0.7,6.1
		l-0.6,6.1l-0.5,6l-0.4,5.7l-0.2,5.4l-0.1,4.9l0.1,4.3l0.2,3.5l0.4,2.7l0.6,1.7L222.6,434.3z M222.6,434.3"/>
	<path class="st2" d="M148.4,325.4l-1.2,2l-3.2-10l0-0.2l-0.2-1.6l-0.2-1.7l-0.1-1.8l-0.1-1.8l-0.1-1.8l-0.1-1.8l-0.1-1.8l0-1.8
		l0-1.8l0-1.7l0-10.6l0-10l0.1-9.4l0.1-8.8l0.1-8.2l0.2-7.6l0.2-7.1l0.3-6.6l0.3-6.1l0.3-5.7l0.4-5.2l0.4-4.8l0.5-4.4l0.5-4l0.6-3.6
		l0.6-3.3l0.7-2.9l0.8-2.6l0.8-2.3l0.9-2.1l1.4-5.5l0.4-1.7l0.4-1.7l0.4-1.7l0.4-1.6l0.5-1.6l0.5-1.6l0.5-1.6l0.5-1.6l0.5-1.6
		l0.6-1.6l1.3,3.5l1.7,3.1l1.9,2.7l2.2,2.3l2.4,1.9l2.5,1.6l2.6,1.3l2.7,1l2.7,0.7l2.7,0.5l2.7,0.3l2.6,0.1l2.4-0.1l2.2-0.3l2-0.4
		l1.7-0.5l1.4-0.6l1.1-0.7l0.7-0.7l0.2-0.8l-0.4,4l-0.6,3.8l-0.6,3.7l-0.7,3.6l-0.8,3.5l-0.9,3.4l-0.9,3.3l-1,3.2l-1,3.1l-1,3
		l-1,2.9l-1,2.9l-1,2.8l-1,2.8l-1,2.7l-0.9,2.7l-4.9,15.1l-2,6.2l-2,6.2l-2,6.1l-2,6l-2,5.9l-1.9,5.7l-1.9,5.5l-1.9,5.3l-1.8,5.1
		l-1.8,4.9l-1.7,4.6l-1.7,4.3l-1.6,4l-1.5,3.6l-1.5,3.3l-1.4,2.9L148.4,325.4z M148.4,325.4"/>
	<path class="st3" d="M130.2,471.7l2.6,0.3l5.6,0.4l5.8,0.3l6,0.2l6.1,0.2l6.1,0.1l5.9,0h5.7l5.4,0l5-0.1l4.5-0.1l3.9-0.1l3.3-0.1
		l2.5-0.1l2.2-0.1l2.2-0.6l2.2-0.9l2.3-1.1l2.3-1.3l2.3-1.5l2.3-1.6l2.3-1.7l2.2-1.8l2.2-1.8l2.1-1.8l2-1.8l1.9-1.7l1.8-1.7l3.1-2.9
		l1.3-1.2l1.1-1l0.9-0.7l0.7-0.5l0.4-0.2l0.3,0.8l0.3,0.8l0.3,0.9l0.3,0.9l0.4,0.9l0.4,1l0.5,1.1l0.6,1.1l0.7,1.2l0.8,1.3l1,1.3
		l1.1,1.4l1.3,1.5l1.5,1.6l1.7,1.7l1.9,1.8l2.1,1.9l2.4,2.1l2.7,2.2v5.6l8.5,54.9l-5.2,67.3l0.9,1.5l0.8,1.4l0.7,1.3l0.6,1.3
		l0.5,1.2l0.3,1.2l0.2,1.2l0.1,1.1l0.1,1.1l0,1.1l-0.1,1.1l-0.2,1.1l-0.3,1l-0.3,1l-0.4,1.1l-0.4,1.1l-0.5,1.1l-0.5,1.1l-0.6,1.1
		l-0.6,1.2l8.6,82.5v9.8l7.3,38.7l0,2.1l0,1.9l0,1.7l0,1.6l0,1.4l-0.1,1.3l-0.1,1.2l-0.1,1.2l-0.1,1.1l-0.1,1.1l-0.2,1.1l-0.2,1.1
		l-0.2,1.1l-0.2,1.1l-0.2,1.2l-0.3,1.3l-1,4.6l-0.4,1.9l-1.7,0.2l-1.8,0.7l-1.9,1l-2,1.3l-2.1,1.6l-2.2,1.7L259,791l-2.3,1.9
		l-2.4,1.9l-2.5,1.8l-2.6,1.7l-2.7,1.5l-2.8,1.3l-2.9,1l-3,0.6l-3.1,0.2l-3.3-0.3l-3.4-0.9l-3.5-1.5l-3.6-2.1l-1.2-0.6l-1.1-1.8
		l-1-2.9l-1-3.8l-0.9-4.7l-0.8-5.4l-0.8-6l-0.8-6.5l-0.7-6.9l-0.7-7.2l-1.4-14.7l-0.7-7.3l-0.7-7.1l-0.8-6.8l-0.8-6.4l-0.9-5.9
		l-0.9-5.3l-1-4.5l-1.1-3.7l-1.7-5.9l-1.6-5.7l-1.5-5.4l-1.4-5.2l-1.3-5l-1.2-4.8l-1.1-4.6l-1.1-4.4l-1-4.3l-0.9-4.2l-0.9-4.1
		l-0.9-4l-0.8-4l-3.2-15.6l-0.8-4l-0.9-4l-0.9-4.1l-1.7-3l-1.8-3.3l-1.8-3.5l-1.8-3.7l-1.8-3.9l-1.8-4l-1.8-4.1l-1.7-4.2l-1.7-4.3
		l-1.7-4.3l-1.6-4.3l-1.6-4.3l-1.5-4.3l-1.5-4.2l-1.4-4.1l-1.3-3.9l-1.3-3.8l-1.2-3.6l-1.1-3.4l-1-3.1l-4.6,16.9l1.5,2.7l1.3,2.7
		l1,2.7l0.8,2.7l0.5,2.7l0.3,2.7l0.2,2.6l0,2.5l-0.2,2.5l-0.3,2.4l-0.4,2.3l-0.5,2.2l-0.6,2l-0.7,1.9l-0.8,1.8l-0.8,1.6l-0.8,1.4
		l-0.8,1.2l-0.8,1l-0.8,0.8l0.8,2.6l0.6,2.4l0.5,2.2l0.4,2l0.3,1.8l0.2,1.6l0.1,1.5l0,1.3l-0.1,1.2l-0.2,1.1l-0.2,1.1l-0.3,1
		l-0.4,0.9l-0.4,0.9l-0.5,0.9l-0.5,0.9l-0.5,0.9l-0.6,0.9l-0.6,1l-0.6,1.1l0.1,4l0.3,5.1l0.5,6l0.7,6.7l0.8,7.4l0.9,7.9l1,8.3
		l1.1,8.6l1.1,8.8l5.4,41.9l0.9,7.1l0.8,6.4l0.7,5.6l0.5,4.7l0.3,3.6l0.1,2.4l-0.3,3.8l-0.2,3.6l-0.1,3.4l0,3.2l0.1,3.1l0.2,2.9
		l0.2,2.7l0.3,2.6l0.3,2.4l0.4,2.2l0.4,2.1l0.4,1.9l0.4,1.7l0.4,1.6l0.4,1.4l0.4,1.3l0.4,1.1l0.3,1l0.3,0.9l1.8,6.1v7l-2.1-2
		L159,797l-2.9-1.9l-3.3-1.8l-3.5-1.7l-3.8-1.6l-3.9-1.5l-4-1.4l-4.1-1.2l-4.1-1l-4-0.8l-3.9-0.6l-3.7-0.4l-3.5-0.2l-3.2,0.1
		l-2.9,0.3l-2.5,0.6l-2,0.9l-1.5,1.3l-1,1.6l-7.3,4.2l-6.6-5.3l-0.7-2.7l-0.7-2.6l-0.7-2.5l-1.3-4.7l-0.6-2.3l-0.6-2.2l-0.6-2.2
		l-0.5-2.2l-0.5-2.2l-0.4-2.2l-0.4-2.2l-0.3-2.2l-0.2-2.3l-0.2-2.3l-0.1-2.4l0-2.5l0.1-2.6l0.2-2.7l0.3-2.9l-5-33.2l-1.3-8.8
		l-0.5-3.6l-0.5-3.2l-0.4-2.8l-0.3-2.5l-0.3-2.2l-0.2-2l-0.2-1.8l-0.2-1.7l-0.2-1.7l-0.2-1.7l-0.2-1.7l-0.2-1.8l-0.2-2l-5.4-16.3
		l-4.8-15l-4.2-13.7l-3.7-12.6l-3.2-11.5l-2.7-10.5l-2.3-9.5l-1.9-8.7l-1.5-7.9l-1.2-7.2l-0.9-6.6l-0.7-6l-0.4-5.6l-0.3-5.2
		l-0.1-4.9l0-4.6l0-4.5l0.2-8.8l0-4.5l0.4-5.6l0.3-5.2l0.3-4.8l0.2-4.5l0.1-4.1l0.1-3.8l0-3.5l0-3.2l-0.1-2.9l-0.1-2.6l-0.1-2.3
		l-0.1-2.1l-0.2-1.8l-0.2-1.6l-0.1-1.4l-0.1-1.2l-0.1-1l-0.1-0.8l-0.1-0.6l0-0.5l0,0l10.2-12.6l1.4,1.9l1.7,1.9l1.9,1.8l2.2,1.8
		l2.4,1.7l2.7,1.7l2.9,1.6l3.1,1.6l3.3,1.5l3.4,1.5l3.6,1.4l3.7,1.4l3.8,1.3l4,1.3l4,1.2l4.1,1.2l4.2,1.1l4.2,1.1l4.3,1.1l4.3,1
		l2.8,1l3.5,0.9l4.2,0.8l4.7,0.6L130.2,471.7z M130.2,471.7"/>
	<path class="st4" d="M241.3,413.5l0-2.7l0.1-2.8l0.1-2.8l0.2-2.8l0.3-2.9l0.3-3l0.4-3.1l0.4-3.2l0.5-3.4l0.6-3.5l0.6-3.7l0.7-3.9
		l0.8-4.1l0.8-4.3l0.9-4.5l1-4.8l1.1-5.1l1.1-5.4l2.5-11.7l0,0.7l-0.1,1.2l-0.1,1.6l-0.2,2l-0.2,2.4l-0.2,2.7l-0.3,2.9l-0.3,3.1
		l-0.3,3.2l-0.3,3.2l-0.3,3.2l-0.3,3.2l-0.3,3.1l-0.3,2.9l-0.3,2.7l-0.3,2.4l-0.3,2.1l-0.3,1.7l-0.2,1.3l-0.2,0.8l-0.7,2l-0.6,2
		l-0.5,2.1l-0.4,2.1l-0.3,2.1l-0.3,2.1l-0.2,2.1l-0.2,2l-0.3,3.9l-0.2,1.8l-0.2,1.7l-0.2,1.6l-0.3,1.4l-0.3,1.2l-0.4,1.1l-0.5,0.9
		L243,413l-0.7,0.4L241.3,413.5z M241.3,413.5"/>
	<path d="M159,817.9l-0.1,1.4l-0.1,1.2l-0.1,1.1l-0.2,1l-0.2,0.9l-0.2,0.8l-0.2,0.7l-0.2,0.6l-0.2,0.6l-0.3,0.5l-0.3,0.4l-0.3,0.3
		l-0.3,0.3l-0.3,0.2l-0.3,0.2l-0.2,0.1l-2.6,0.1l-2.6,0.2l-2.6,0.3l-2.6,0.4l-2.6,0.5l-2.6,0.6l-2.6,0.7l-2.6,0.7l-2.5,0.8l-2.5,0.8
		l-2.4,0.8l-2.4,0.8l-2.3,0.8l-2.2,0.8l-2.2,0.8l-2.1,0.7l-2,0.7l-1.9,0.6l-1.8,0.5l-1.7,0.4l-4.3,1l-4,0.8l-3.7,0.6l-3.5,0.4
		l-3.2,0.3l-3,0.1l-2.8,0l-2.5-0.1l-2.3-0.2l-2.1-0.2l-1.9-0.3l-1.7-0.3l-1.5-0.3l-1.3-0.3l-1.1-0.3l-1.6-0.5l-0.5-0.1l-0.3,0
		l-0.5-2l-0.4-1.9l-0.2-1.8l-0.1-1.7l0-1.7l0.2-1.6l0.2-1.5l2.1,0.6l2.3,0.6l2.4,0.5l2.5,0.5l2.6,0.4l2.7,0.3l2.8,0.3l2.8,0.2
		l2.8,0.1l2.8,0.1l2.8,0l2.8-0.1l2.7-0.1l2.6-0.2l2.5-0.3l2.4-0.4l2.2-0.5l2.1-0.6l1.9-0.7l1.7-0.7l1.4-0.9l1.3-0.8l1.3-0.8l1.3-0.7
		l1.2-0.6l1.2-0.6l1.1-0.5l1.1-0.5l1.1-0.4l1-0.4l1-0.3l0.9-0.3l0.9-0.2l0.9-0.2l0.8-0.2l0.8-0.1l0.8-0.1l0.7-0.1l0.7,0l0.7,0l1.2,0
		l1.3,0l1.3,0l1.4,0l1.4,0l1.4,0l1.4-0.1l1.4-0.1l1.4-0.1l1.4-0.1l1.3-0.1l1.3-0.2l1.2-0.2l1.1-0.2l1-0.3l0.9-0.3l0.7-0.4l0.6-0.4
		l0.4-0.4L159,817.9z M159,817.9"/>
	<path class="st5" d="M159,817.9l-0.3,0.5l-0.4,0.4l-0.6,0.4l-0.7,0.4l-0.9,0.3l-1,0.3l-1.1,0.2l-1.2,0.2l-1.3,0.2l-1.3,0.1
		l-1.4,0.1l-1.4,0.1l-1.4,0.1l-1.4,0.1l-1.4,0l-1.4,0l-1.4,0l-1.3,0l-1.3,0l-1.2,0l-0.7,0l-0.7,0l-0.7,0.1l-0.8,0.1l-0.8,0.1
		l-0.8,0.2l-0.9,0.2l-0.9,0.2l-0.9,0.3l-1,0.3l-1,0.4l-1.1,0.4l-1.1,0.5l-1.1,0.5l-1.2,0.6l-1.2,0.6l-1.3,0.7l-1.3,0.8l-1.3,0.8
		l-1.4,0.9l-1.7,0.7l-1.9,0.7l-2.1,0.6l-2.2,0.5l-2.4,0.4l-2.5,0.3l-2.6,0.2l-2.7,0.1l-2.8,0.1l-2.8,0l-2.8-0.1l-2.8-0.1l-2.8-0.2
		l-2.8-0.3l-2.7-0.3l-2.6-0.4l-2.5-0.5l-2.4-0.5l-2.3-0.6l-2.1-0.6l0.3-1.4l0.4-1.3l0.4-1.2l0.5-1.1l0.5-1l0.5-0.9l0.5-0.8l0.5-0.6
		l0.4-0.5l0.4-0.4l0.3-0.3l0.2-0.1l0.1,0l0.1,1l0.4,0.9l0.6,0.7l0.9,0.6l1.1,0.5l1.3,0.4l1.4,0.3l1.6,0.2l1.7,0.1l1.9,0l2-0.1l2-0.2
		l2.1-0.2l2.2-0.3l2.2-0.4l2.2-0.4l2.2-0.5l2.2-0.5l2.2-0.6l4.7-1.4l1.3-0.4l1.4-0.4l1.4-0.4l1.4-0.5l1.4-0.5l1.4-0.5l1.4-0.5
		l1.3-0.5l1.3-0.5l1.2-0.5l1.2-0.5l1.1-0.6l1-0.6l0.9-0.6l0.7-0.6l0.6-0.6l0.5-0.6l0.3-0.6l4.2,1.5l4.2,1.4l4.1,1.3l3.9,1.1l3.7,0.8
		l3.3,0.5l3,0.2l2.5-0.2l2-0.7l1.5-1.2l0,1.6L159,817.9z M159,817.9"/>
	<path class="st5" d="M72,819.5l3.5-1.9l3.2-1.8l2.8-1.7l2.5-1.6l2.2-1.4l1.9-1.3l1.7-1.2l1.4-1.1l1.2-1l1-0.9l0.8-0.8l0.6-0.7
		l0.5-0.6l0.3-0.5l0.2-0.4l0.1-0.4l0.1-0.3l0-0.2l0-0.1l0,0l1.1-0.5l1.7,0l2.3,0.4l2.7,0.7l3.1,1l3.5,1.2l3.8,1.4l4,1.5l4.1,1.5
		l4.2,1.5l-0.3,0.6l-0.5,0.6l-0.6,0.6l-0.7,0.6l-0.9,0.6l-1,0.6l-1.1,0.6l-1.2,0.5l-1.2,0.5l-1.3,0.5l-1.3,0.5l-1.4,0.5l-1.4,0.5
		l-1.4,0.5l-1.4,0.5l-1.4,0.4l-1.4,0.4l-1.3,0.4l-4.7,1.4l-2.2,0.6l-2.2,0.5l-2.2,0.5l-2.2,0.4l-2.2,0.4l-2.2,0.3l-2.1,0.2l-2,0.2
		l-2,0.1l-1.9,0l-1.7-0.1l-1.6-0.2l-1.4-0.3l-1.3-0.4l-1.1-0.5l-0.9-0.6l-0.6-0.7l-0.4-0.9L72,819.5z M72,819.5"/>
	<path class="st3" d="M126.7,810.2l-4.2-1.5l-4.1-1.5l-4-1.5l-3.8-1.4l-3.5-1.2l-3.1-1l-2.7-0.7l-2.3-0.4l-1.7,0l-1.1,0.5l5.1-13.9
		l1-1.6l1.5-1.3l2-0.9l2.5-0.6l2.9-0.3l3.2-0.1l3.5,0.2l3.7,0.4l3.9,0.6l4,0.8l4.1,1l4.1,1.2l4,1.4l3.9,1.5l3.8,1.6l3.5,1.7l3.3,1.8
		l2.9,1.9l2.5,1.9l2.1,2l-4.5,3.3v10.5l-1.5,1.2l-2,0.7l-2.5,0.2l-3-0.2l-3.3-0.5l-3.7-0.8l-3.9-1.1l-4.1-1.3l-4.2-1.4L126.7,810.2z
		 M126.7,810.2"/>
	<path class="st4" d="M144,317.4l3.2,10l-0.5-0.3l-0.4-0.5l-0.4-0.7l-0.4-0.9l-0.3-1l-0.3-1.1l-0.3-1.3l-0.3-1.4l-0.2-1.5L144,317.4
		z M144,317.4"/>
	<path class="st3" d="M272.9,782.7h14.1l0.7,0.8l0.6,0.7l0.5,0.7l0.4,0.7l0.3,0.7l0.3,0.7l0.2,0.7l0.1,0.7l0,0.7l0,0.7l-0.1,0.7
		l-0.1,0.7l-0.2,0.7l-0.2,0.7l-0.2,0.8l-0.3,0.8l-0.3,0.8l-0.3,0.8l-0.3,0.8l-0.3,0.9l0.6,0.6l0.5,0.5l0.5,0.5l0.4,0.5l0.3,0.5
		l0.3,0.5l0.2,0.5l0.2,0.5l0.1,0.6l0.1,0.7l0,0.7l0,0.8l-0.1,1l-0.1,1.1l-0.1,1.2l-0.2,1.4l-0.2,1.6l-0.2,1.7l-0.6,4.1l-0.5,0.3
		l-0.9,0.1l-1.2-0.1l-1.5-0.2l-1.8-0.3l-2-0.4l-4.5-1l-2.5-0.5l-2.6-0.5l-2.6-0.4l-2.6-0.4l-2.6-0.3l-2.6-0.1l-2.5,0l-2.4,0.2
		l-2.2,0.4l-2,0.7l-1.8,1l-1.6,1.3l0,0.4l0,0.5l-0.1,0.5L249,818l-0.1,0.5l-0.2,0.6l-0.2,0.6l-0.3,0.6l-0.3,0.6l-0.4,0.6l-0.4,0.5
		l-0.5,0.5l-0.6,0.5l-0.6,0.4l-0.7,0.4l-0.7,0.3l-0.8,0.3l-0.9,0.2l-0.9,0.1l-1,0l0,5.4l-0.6-3.1l-0.7-2.9l-0.8-2.7l-0.9-2.5
		l-0.9-2.3l-1-2.1l-1-2l-1.1-1.8l-1.1-1.7l-1.1-1.5l-1.1-1.4l-1.1-1.3l-1.1-1.1l-1.1-1l-1.1-0.9l-1-0.8l-1-0.8l-1-0.7l-0.9-0.6
		l-0.8-0.6l3.6,2.1l3.5,1.5l3.4,0.9l3.3,0.3l3.1-0.2l3-0.6l2.9-1l2.8-1.3l2.7-1.5l2.6-1.7l2.5-1.8l2.4-1.9l2.3-1.9l2.2-1.9l2.2-1.7
		l2.1-1.6l2-1.3l1.9-1l1.8-0.7L272.9,782.7z M272.9,782.7"/>
	<path class="st5" d="M240.3,830l0-5.4l1,0l0.9-0.1l0.9-0.2l0.8-0.3l0.7-0.3l0.7-0.4l0.6-0.4l0.6-0.5l0.5-0.5l0.4-0.5l0.4-0.6
		l0.3-0.6l0.3-0.6l0.2-0.6l0.2-0.6l0.1-0.5l0.1-0.5l0.1-0.5l0-0.5l0-0.4l1.6-1.3l0.5,2.2l0.5,2l0.5,1.8l0.5,1.7l0.5,1.5l0.5,1.4
		l0.5,1.3l0.6,1.1l0.6,1l0.6,0.9l0.7,0.9l0.8,0.8l0.8,0.7l0.9,0.7l1,0.6l1.1,0.6l1.2,0.6l1.3,0.6l1.4,0.6l1.5,0.6l0.7,0.2l0.7,0.1
		l0.7,0.1l0.8,0l0.8,0l0.8-0.1l0.8-0.1l0.8-0.1l0.8-0.1l0.8-0.2l0.8-0.2l0.8-0.2l1.6-0.3l0.7-0.2l0.7-0.1l0.7-0.1l0.6-0.1l0.6-0.1
		l0.6,0l0.4,0l0.4-0.1l0.5-0.2l0.5-0.3l0.5-0.4l0.5-0.5l0.5-0.7l0.5-0.8l0.5-0.9l0.5-0.9l0.5-1l0.5-1.1l0.4-1.2l0.4-1.3l0.4-1.4
		l0.3-1.4l0.2-1.5l0.2-1.6l0.1-1.6l0-1.7l0,0.3l0,0.4l0,0.4l0,0.4l0.1,0.5l0.1,0.5l0.1,0.6l0.1,0.6l0.2,0.6l0.2,0.7l0.3,0.7l0.3,0.8
		l0.4,0.8l0.5,0.9l0.5,0.9l0.6,0.9l0.7,1l0.8,1l0.9,1.1l1,1.1l0,1.3l0.1,1.4l0.1,1.5l0.1,1.5l0.1,1.6l-0.1,1l-0.3,0.9l-0.5,0.8
		l-0.6,0.7l-0.8,0.6l-0.9,0.5l-1,0.4l-1.1,0.3l-1.2,0.3l-1.3,0.2l-1.4,0.1l-1.4,0.1l-1.4,0.1l-1.5,0l-1.5,0l-1.5,0l-2.9,0l-1.4,0
		l-1.3,0l-3,0l-2.7,0l-2.4,0l-2.2,0l-1.9,0l-1.7-0.1l-1.5-0.1l-1.3-0.1l-1.1-0.2l-1-0.2l-0.9-0.2l-0.7-0.3l-0.7-0.3l-0.6-0.4
		l-0.5-0.4l-0.5-0.5l-0.5-0.6l-0.5-0.6l-0.5-0.7l-0.6-0.8l-0.4-0.4l-0.4-0.5l-0.5-0.5l-0.6-0.5l-0.6-0.5l-0.6-0.5l-0.7-0.5l-0.7-0.5
		l-0.7-0.5l-0.7-0.5l-0.7-0.5l-0.6-0.4l-0.6-0.4l-0.6-0.4l-0.5-0.3l-0.4-0.3l-0.4-0.2l-0.3-0.2L240.3,830L240.3,830z M240.3,830"/>
	<path class="st5" d="M250.7,814.9l1.8-1l2-0.7l2.2-0.4l2.4-0.2l2.5,0l2.6,0.1l2.6,0.3l2.6,0.4l2.6,0.4l2.6,0.5l2.5,0.5l4.5,1l2,0.4
		l1.8,0.3l1.5,0.2l1.2,0.1l0.9-0.1l0.5-0.3l0,1.7l-0.1,1.6l-0.2,1.6l-0.2,1.5l-0.3,1.4l-0.4,1.4l-0.4,1.3l-0.4,1.2l-0.5,1.1l-0.5,1
		l-0.5,0.9l-0.5,0.9l-0.5,0.8l-0.5,0.7l-0.5,0.5l-0.5,0.4l-0.5,0.3l-0.5,0.2L282,835l-0.4,0l-0.6,0l-0.6,0.1l-0.6,0.1l-0.7,0.1
		l-0.7,0.1l-0.7,0.2l-1.6,0.3l-0.8,0.2l-0.8,0.2l-0.8,0.2l-0.8,0.1l-0.8,0.1l-0.8,0.1l-0.8,0.1l-0.8,0l-0.8,0l-0.7-0.1l-0.7-0.1
		l-0.7-0.2l-1.5-0.6l-1.4-0.6l-1.3-0.6l-1.2-0.6l-1.1-0.6l-1-0.6l-0.9-0.7l-0.8-0.7l-0.8-0.8l-0.7-0.9l-0.6-0.9l-0.6-1l-0.6-1.1
		l-0.5-1.3l-0.5-1.4l-0.5-1.5l-0.5-1.7l-0.5-1.8l-0.5-2L250.7,814.9z M250.7,814.9"/>
	<path d="M297,837.8l0.1,1.6l0.1,1.6l0,1.6l-0.1,1.5l-0.2,1.5l-0.3,1.4l-0.4,1.4l-0.6,1.3l-0.7,1.2l-0.9,1l-1.1,0.9l-1.3,0.7
		L290,854l-1.8,0.3l-2.1,0.1l-1.2,0.2l-1.4,0.2L282,855l-1.7,0.1l-1.8,0.1l-1.9,0.1l-1.9,0l-2,0l-2-0.1l-2-0.1l-2-0.2l-2-0.2
		l-1.9-0.3L261,854l-1.8-0.5l-1.7-0.5l-1.6-0.6l-1.4-0.7l-1.3-0.8l-1.1-0.9l-0.6-0.4l-0.5-0.4l-0.4-0.5l-0.3-0.5l-0.3-0.5l-0.2-0.5
		l-0.1-0.5l-0.1-0.5l-0.1-0.6l-0.1-0.6l-0.1-1.1l-0.1-0.6l-0.1-0.6l-0.1-0.6l-0.1-0.5l-0.2-0.5l-0.3-0.5l-0.3-0.5l-0.4-0.5l-0.9-0.9
		l-0.9-0.9l-0.8-0.8l-0.7-0.8l-0.6-0.7l-0.6-0.7l-0.5-0.6l-0.5-0.6l-0.4-0.5l-0.3-0.5l-0.3-0.4l-0.2-0.4l-0.2-0.4l-0.2-0.4l-0.1-0.3
		l-0.1-0.3l-0.1-0.3l0-0.3l0.1,0l0.2,0.1l0.3,0.2l0.4,0.2l0.4,0.3l0.5,0.3l0.6,0.4l0.6,0.4l0.6,0.4l0.7,0.5l0.7,0.5l0.7,0.5l0.7,0.5
		l0.7,0.5l0.6,0.5l0.6,0.5l0.6,0.5l0.5,0.5l0.4,0.5l0.4,0.4l0.6,0.8l0.5,0.7l0.5,0.6l0.5,0.6l0.5,0.5l0.5,0.4l0.6,0.4l0.7,0.3
		l0.7,0.3l0.9,0.2l1,0.2l1.1,0.2l1.3,0.1l1.5,0.1l1.7,0.1l1.9,0l2.2,0l2.4,0l2.7,0l3,0l1.3,0l1.4,0l2.9,0l1.5,0l1.5,0l1.5,0l1.4-0.1
		l1.4-0.1l1.4-0.1l1.3-0.2l1.2-0.3l1.1-0.3l1-0.4l0.9-0.5l0.8-0.6l0.6-0.7l0.5-0.8l0.3-0.9L297,837.8z M297,837.8"/>
	<path d="M229,27.1l1.1,1.4l1,1.4l1,1.5l0.9,1.5l0.9,1.6l0.8,1.7l0.7,1.9l0.6,2l0.5,2.2l0.4,2.3l0.3,2.5l0.1,2.8l0,3l-0.2,3.2
		l-0.4,3.5l-0.5,3.8l-0.7,4.1h-1.4l-0.5,0l-0.5,0.1l-0.5,0.1l-0.5,0.2l-0.5,0.2l-0.4,0.3l-0.4,0.3l-0.4,0.4l-0.4,0.5l-0.4,0.6
		l-0.4,0.6l-0.4,0.7l-0.4,0.8l-0.4,0.8l-0.4,0.9l-0.4,1l-0.4,1.1l-0.4,1.2l-0.5,1.3l-0.5,1.4v-5.1l0.5-1.8l0.4-1.7l0.3-1.5l0.3-1.4
		l0.2-1.2l0.1-1.1l0.1-1l0-0.9l-0.1-0.9l-0.1-0.8l-0.2-0.7l-0.2-0.7l-0.3-0.7l-0.3-0.6l-0.4-0.6l-0.4-0.6l-0.4-0.7l-0.4-0.7
		l-0.5-0.7l-0.5-0.8l0,0l-0.1-0.1l-0.4-0.6l-0.4-0.6l-0.3-0.6l-0.2-0.6l-0.1-0.6l-0.1-0.6l0-0.6l0-0.6l0.1-0.6l0.1-0.6l0.1-0.6
		l0.2-0.6l0.2-0.5l0.2-0.5l0.2-0.5l0.1-0.5L223,46l0.1-0.4l0.1-0.4l0-0.3l-0.1-0.2l-0.1-0.3l-0.1-0.3l-0.1-0.4l-0.1-0.5l-0.1-0.5
		l-0.2-0.6l-0.2-0.6l-0.3-0.7l-0.4-0.7l-0.4-0.7l-0.5-0.7l-0.6-0.7l-0.7-0.7l-0.9-0.7l-1-0.7l-1.2-0.7l-1.3-0.7l-1.5-0.6l-1.7,0
		l-3.2,0l-1.6,0l-1.6,0l-1.6,0l-1.6,0l-1.6,0l-1.7-0.1l-1.7-0.1l-1.7-0.1l-1.8-0.1l-1.9-0.2l-1.9-0.2l-2-0.2l-2.1-0.3l-2.2-0.3
		l-2.3-0.4l-2.4-0.4l-2.5-0.5l-0.3,0l-0.4,0.1l-0.5,0.1l-0.5,0.2l-0.6,0.2l-0.6,0.3l-0.7,0.4l-0.7,0.5l-0.7,0.6l-0.7,0.7l-0.7,0.8
		l-0.7,0.9l-0.6,1.1l-0.6,1.2l-0.5,1.4l-0.5,1.5l-0.4,1.7l-0.3,1.9l-0.2,2l-0.1,2.2l-0.8,0.2l-0.7,0.2l-0.7,0.2l-0.6,0.3l-0.6,0.3
		l-0.5,0.3l-0.5,0.3l-0.4,0.4l-0.4,0.4l-0.3,0.4l-0.3,0.5l-0.3,0.5l-0.2,0.6l-0.2,0.7l-0.2,0.8l-0.1,0.8l-0.1,0.9l-0.1,1l0,1.1
		l0,1.2l-0.6,0.9l-0.3,0.4l-0.2,0.3l-0.2,0.3l-0.2,0.3l-0.2,0.2l-0.1,0.2l-0.1,0.2l-0.1,0.2l-0.1,0.2l-0.1,0.1l-0.1,0.1l-0.1,0.2
		l-0.4,0.5l-0.2,0.2l-0.2,0.2l-0.2,0.3l-0.3-0.5l-0.2-0.5l-0.2-0.5l-0.2-0.4l-0.2-0.4l-0.2-0.4l-0.1-0.4l-0.1-0.3l-0.1-0.3l-0.1-0.3
		l-0.1-0.3l-0.1-0.2l0-0.2l0-0.2l0-0.2l0-0.2l0-0.2l0-0.2l0-0.2l0-0.2l0-0.1l0-0.4l0-0.9l0-1.2l0-1.5l0-1.8l0.1-2.1l0.2-2.3l0.3-2.4
		l0.5-2.6l0.6-2.7l0.8-2.8l1-2.8l1.2-2.9l1.5-2.8l1.8-2.8l2-2.7l2.4-2.6l2.7-2.4l3.1-2.2l3.4-2l0.7-0.5l1-0.6l1.2-0.7l1.5-0.7
		l1.7-0.7l1.9-0.7l2.2-0.6l2.3-0.5l2.5-0.4l2.7-0.2l2.8,0l3,0.2l3.1,0.4l3.2,0.7l3.3,1.1l3.3,1.5l3.4,1.9l3.4,2.3l3.5,2.8l3.5,3.3
		l1.1,1.4l1.1,1.3L229,27.1z M229,27.1"/>
	<path class="st0" d="M202.2,33.6l1.6,0l1.6,0l1.6,0l1.6,0l3.2,0l1.7,0l1.5,0.6l1.3,0.7l1.2,0.7l1,0.7l0.9,0.7l0.7,0.7l0.6,0.7
		l0.5,0.7l0.4,0.7l0.4,0.7l0.3,0.7l0.2,0.6l0.2,0.6l0.1,0.5l0.1,0.5l0.1,0.4l0.1,0.3l0.1,0.3l0.1,0.2l0,0.3l-0.1,0.4L223,46
		l-0.1,0.4l-0.1,0.5l-0.2,0.5l-0.2,0.5l-0.2,0.5l-0.2,0.6l-0.1,0.6l-0.1,0.6l-0.1,0.6l0,0.6l0,0.6l0.1,0.6l0.1,0.6l0.2,0.6l0.3,0.6
		l0.4,0.6l0.4,0.6l0.1,0.1l0,0l0.5,0.8l0.5,0.7l0.4,0.7l0.4,0.7l0.4,0.6l0.4,0.6l0.3,0.6l0.3,0.7l0.2,0.7l0.2,0.7l0.1,0.8l0.1,0.9
		l0,0.9l-0.1,1l-0.1,1.1l-0.2,1.2l-0.3,1.4l-0.3,1.5l-0.4,1.7l-0.5,1.8l0,0.1L225,75l-0.1,0.3l-0.2,0.4l-0.2,0.5l-0.3,0.6l-0.3,0.7
		l-0.3,0.8l-0.3,0.9l-0.3,0.9l-0.3,1l-0.3,1l-0.3,1.1l-0.3,1.1l-0.3,1.1l-0.2,1.2l-0.2,1.2l-0.1,1.2l-0.1,1.2l0,1.2l-0.3,0.5
		l-0.3,0.5l-0.3,0.4l-0.3,0.4l-0.3,0.4l-0.3,0.4l-0.3,0.4l-0.3,0.3l-0.4,0.3L218,95l-0.4,0.2l-0.5,0.2l-0.5,0.1l-0.6,0l-0.6,0
		l-0.7-0.1l-0.8-0.2L213,95l-0.9-0.3l-1-0.4l-0.2-0.1l-0.2-0.1l-0.2-0.2l-0.2-0.2l-0.2-0.3l-0.2-0.3l-0.2-0.3l-0.2-0.4l-0.2-0.4
		l-0.2-0.4l-0.2-0.4l-0.3-0.4l-0.3-0.4l-0.3-0.5l-0.3-0.5l-0.3-0.5l-0.4-0.5l-0.4-0.5l-0.2-0.3l-0.2-0.2l-0.2-0.2l-0.2-0.2l-0.2-0.2
		l-0.2-0.2l-0.3-0.2l-0.3-0.2l-0.4-0.2l-0.4-0.2l-0.5-0.2l-0.6-0.2l-0.7-0.2l-0.8-0.2l-0.9-0.2l-1.1-0.2l-1.2-0.3l-1.4-0.3l-1.5-0.3
		l-1.7-0.3l-1.9-0.3l-0.3,0l-0.4,0l-0.7,0l-0.4,0l-0.4,0l-0.4,0l-0.4,0l-0.4,0l-0.4,0l-0.4,0l-0.4-0.1l-0.4-0.1l-0.5-0.1l-0.5-0.1
		l-0.5-0.1l-0.5-0.2l-0.5-0.2l-0.5-0.2l-0.5-0.2l-3.2,0l-1.4,0l-1.3,0l-1.3,0l-1.2,0l-1.1,0l-1,0.1l-0.9,0.1l-0.8,0.1l-0.7,0.1
		l-0.6,0.1l-0.6,0.2l-0.5,0.2l-0.4,0.2l-0.3,0.3l-0.3,0.3l-0.2,0.3l-0.1,0.4l0,0.4l-0.1,0.1l-0.1,0.2l-0.1,0.3l0,0.3l0,0.4l0,0.5
		l0,0.5l0,0.6l0,0.6l0,0.6l0,0.6l-0.1,0.6l-0.1,0.6l-0.1,0.5l-0.1,0.5l-0.1,0.4l-0.2,0.4l-0.2,0.3l-0.3,0.2l-0.3,0.1l-0.1,0l-0.2,0
		l-0.2,0l-0.2,0l-0.3,0l-0.3-0.1l-0.3-0.1l-0.3-0.1l-0.3-0.1l-0.4-0.1l-0.4-0.1l-0.4-0.2l-0.3-0.2l-0.3-0.2l-0.3-0.2l-0.3-0.3
		l-0.3-0.3l-0.3-0.3l-0.2-0.3l-0.2-0.3l0-0.1l-0.1-0.1l-0.1-0.2l-0.1-0.2l-0.1-0.3l-0.1-0.3l-0.1-0.4l-0.2-0.4l-0.2-0.5l-0.2-0.5
		l-0.2-0.6l-0.2-0.6l-0.2-0.7l-0.1-0.7l-0.1-0.7l-0.1-0.8l-0.1-0.8l-0.1-0.8l0-0.9l0-0.9l-0.1-0.9l-0.1-1l-0.1-1l0-1l0-1l0-1.1
		l0-1.1l0-1.1l0-1.1l0.1-1.1l0.1-1l0.1-1l0.1-1l0.1-1l0.2-1l0.2-0.9l0.2-0.9l0.2-0.8l0.2-0.8l0.2-0.7l0-1.2l0-1.1l0.1-1l0.1-0.9
		l0.1-0.8l0.2-0.8l0.2-0.7l0.2-0.6l0.3-0.5l0.3-0.5l0.3-0.4l0.4-0.4l0.4-0.4l0.5-0.3l0.5-0.3l0.6-0.3l0.6-0.3l0.7-0.2l0.7-0.2
		l0.8-0.2l0.1-2.2l0.2-2l0.3-1.9l0.4-1.7l0.5-1.5l0.5-1.4l0.6-1.2l0.6-1.1l0.7-0.9l0.7-0.8l0.7-0.7l0.7-0.6l0.7-0.5l0.7-0.4l0.6-0.3
		l0.6-0.2l0.5-0.2l0.5-0.1l0.4-0.1l0.3,0l2.5,0.5l2.4,0.4l2.3,0.4l2.2,0.3l2.1,0.3l2,0.2l1.9,0.2l1.9,0.2l1.8,0.1l1.7,0.1l1.7,0.1
		l1.7,0.1L202.2,33.6z M217.6,60.1l-0.3-0.3l-0.3-0.3l-0.3-0.4l-0.4-0.4l-0.4-0.5l-0.5-0.5l-0.6-0.5l-0.7-0.5l-0.8-0.5l-0.9-0.4
		l-1-0.4l-1.1-0.3l-1.2-0.3l-1.4-0.2l-1.5-0.1l-1.7,0l-1.9,0.1l-2.1,0.2l-2.3,0.3l-2.5,0.5l0.5,0.4l0.6,0.3l0.7,0.2l0.8,0.2l0.8,0.1
		l0.9,0.1l0.9,0l1,0l1,0l2,0l1,0l0.9,0l0.9,0l0.8,0.1l0.8,0.1l0.7,0.2l0.6,0.2l0.5,0.3l0.4,0.4l0.2,0.1l0.2,0.2l0.3,0.2l0.3,0.2
		l0.3,0.2l0.4,0.2l0.4,0.2l0.4,0.2l0.4,0.1l0.4,0.1l0.4,0.1l0.4,0.1l0.4,0.1l0.3,0.1l0.3,0l0.3,0l0.2,0l0.2,0l0.1-0.1L217.6,60.1z
		 M166.7,52.6l0.3,0.2l0.5,0.2l0.6,0.2l0.7,0.2l0.8,0.2l0.9,0.2l1,0.2l1,0.2l1.1,0.2l1.1,0.2l1.1,0.2l1.2,0.1l1.2,0.1l1.2,0.1
		l1.2,0.1l1.1,0.1l1.1,0.1l1,0.1l1,0l0.9,0l-0.3-0.4l-0.5-0.4l-0.7-0.4l-0.8-0.4l-1-0.4l-1.1-0.4l-1.2-0.3l-1.2-0.3l-1.3-0.3
		l-1.3-0.3l-1.3-0.2l-1.3-0.2l-1.2-0.1l-1.2,0l-1.1,0l-1,0.1l-0.8,0.2l-0.7,0.2l-0.5,0.3L166.7,52.6z M166.7,52.6"/>
	<path class="st6" d="M219.9,93l0.3-0.4l0.3-0.4l0.3-0.5l0.3-0.5l0-1.2l0.1-1.2l0.1-1.2l0.2-1.2l0.2-1.2l0.3-1.1l0.3-1.1l0.3-1.1
		l0.3-1l0.3-1l0.3-0.9l0.3-0.9l0.3-0.8l0.3-0.7l0.3-0.6l0.2-0.5l0.2-0.4L225,75l0.1-0.2l0-0.1v5.1l0,0.7l0,0.7L225,82l-0.1,0.8
		l-0.1,0.8l-0.1,0.8l-0.2,0.8l-0.2,0.8l-0.2,0.8l-0.2,0.7l-0.3,1.5l-0.2,0.7l-0.2,0.7l-0.1,0.6l-0.1,0.6L223,92l-0.1,0.5l0,0.5
		l0,0.4l0,0.1l0,0.1l0,1.3l-0.1,1.4l-0.2,1.4l-0.4,1.4l-0.5,1.4l-0.6,1.4l-0.7,1.4l-0.7,1.3l-0.8,1.3l-0.9,1.3l-0.9,1.3l-1,1.3
		l-1,1.2l-1,1.2l-1,1.1l-1,1.1l-1,1l-1,1l-1,0.9l-0.9,0.9l-1,0.9l-1,1l-1,0.9L204,122l-1.1,0.9l-1.1,0.9l-1.1,0.9l-1.2,0.9l-1.2,0.8
		l-1.2,0.8l-1.3,0.7l-1.3,0.7l-1.3,0.6l-1.4,0.6l-1.4,0.5l-1.4,0.4l-1.5,0.3l-1.5,0.2l-1.5,0.1l-1.6,0.1l-1.1,0l-1.1-0.2l-1.1-0.3
		l-1-0.4l-1-0.5l-1-0.6l-0.9-0.7l-0.9-0.7l-0.9-0.8l-0.8-0.9l-0.8-0.9l-0.8-1l-0.8-1l-0.7-1.1l-0.7-1.1l-0.7-1.1l-0.7-1.1l-0.6-1.1
		l-0.6-1.1l-0.6-1.1l-1-2l-2.7-5.3l-0.8-1.6l-0.7-1.5l-0.7-1.4l-0.6-1.3l-0.6-1.3l-0.5-1.2l-0.4-1.2l-0.4-1.2l-0.3-1.2l-0.3-1.2
		l-0.2-1.2l-0.2-1.3l-0.2-1.3l-0.1-1.4l-0.1-1.5l0-1.6l0.2-0.1l0.2-0.1l0.2-0.1l0.1-0.2l0.1-0.2l0.1-0.2l0.1-0.2l0.1-0.2l0.1-0.2
		l0-0.2l0-0.2l0-0.2l0-0.2l0-0.3l-0.2-1.5l-0.2-1.1l-0.1-1.1l-0.1-1.1l-0.1-1.1l-0.1-1.1l-0.1-1.1l-0.1-1.1l-0.1-1.1l-0.1-1l-0.1-1
		l-0.1-1.9l0-0.9l0-0.8l-0.1-0.8l-0.1-0.7l-0.1-0.7l-0.1-0.6l-0.1-0.5l-0.1-0.5l0.2-0.3l0.2-0.2l0.2-0.2l0.4-0.5l0.1-0.2l0.1-0.1
		l0.1-0.1l0.1-0.2l0.1-0.2l0.1-0.2l0.1-0.2l0.2-0.2l0.2-0.3l0.2-0.3l0.2-0.3l0.3-0.4l0.6-0.9l-0.2,0.7l-0.2,0.8l-0.2,0.8l-0.2,0.9
		l-0.2,0.9l-0.2,1l-0.1,1l-0.1,1l-0.1,1l-0.1,1l-0.1,1.1l0,1.1l0,1.1l0,1.1l0,1.1l0,1l0,1l0.1,1l0.1,1l0.1,0.9l0,0.9l0,0.9l0.1,0.8
		l0.1,0.8l0.1,0.8l0.1,0.7l0.1,0.7l0.2,0.7l0.2,0.6l0.2,0.6l0.2,0.5l0.2,0.5l0.2,0.4l0.1,0.4l0.1,0.3l0.1,0.3l0.1,0.2l0.1,0.2
		l0.1,0.1l0,0.1l0.2,0.3l0.2,0.3l0.3,0.3l0.3,0.3l0.3,0.3l0.3,0.2l0.3,0.2l0.3,0.2l0.4,0.2l0.4,0.1l0.4,0.1l0.3,0.1l0.3,0.1l0.3,0.1
		l0.3,0.1l0.3,0l0.2,0l0.2,0l0.2,0l0.1,0l0.3-0.1l0.3-0.2l0.2-0.3l0.2-0.4l0.1-0.4l0.1-0.5l0.1-0.5l0.1-0.6l0.1-0.6l0-0.6l0-0.6
		l0-0.6l0-0.6l0-0.5l0-0.5l0-0.4l0-0.3l0.1-0.3l0.1-0.2l0.1-0.1l0-0.4l0.1-0.4l0.2-0.3l0.3-0.3l0.3-0.3l0.4-0.2l0.5-0.2l0.6-0.2
		l0.6-0.1l0.7-0.1l0.8-0.1l0.9-0.1l1-0.1l1.1,0l1.2,0l1.3,0l1.3,0l1.4,0l3.2,0l0.5,0.2l0.5,0.2l0.5,0.2l0.5,0.2l0.5,0.1l0.5,0.1
		l0.5,0.1l0.4,0.1l0.4,0.1l0.4,0l0.4,0l0.4,0l0.4,0l0.4,0l0.4,0l0.4,0l0.7,0l0.4,0l0.3,0l1.9,0.3l1.7,0.3l1.5,0.3l1.4,0.3l1.2,0.3
		l1.1,0.2l0.9,0.2l0.8,0.2l0.7,0.2l0.6,0.2l0.5,0.2l0.4,0.2l0.4,0.2l0.3,0.2l0.3,0.2l0.2,0.2l0.2,0.2l0.2,0.2l0.2,0.2l0.2,0.2
		l0.2,0.3l0.4,0.5l0.4,0.5l0.3,0.5l0.3,0.5l0.3,0.5l0.3,0.4l0.3,0.4l0.2,0.4l0.2,0.4l0.2,0.4l0.2,0.4l0.2,0.3l0.2,0.3l0.2,0.3
		l0.2,0.2l0.2,0.2l0.2,0.1l0.2,0.1l1,0.4L213,95l0.9,0.2l0.8,0.2l0.7,0.1l0.6,0l0.6,0l0.5-0.1l0.5-0.2L218,95l0.4-0.2l0.4-0.3
		l0.3-0.3l0.3-0.4l0.3-0.4L219.9,93z M191.5,99.1l1.9-0.3l1.7-0.4l1.6-0.5l1.5-0.5l1.3-0.5l1.1-0.5l0.9-0.4l0.6-0.4l0.4-0.2
		l-0.8-0.9l-0.8-0.8l-0.7-0.7l-0.7-0.6l-0.7-0.6l-0.7-0.5l-0.8-0.4l-0.9-0.3l-1-0.3l-1.1-0.2l-1.3-0.1l-1.4-0.1l-1.6,0l-1.9,0
		l-2.1,0.1l-2.4,0.1l-2.7,0.1l-3,0.2l-3.4,0.2l-3.7,0.2l2,2.3l2.1,1.9l2.1,1.5l2.1,1.2l2.2,0.9l2.2,0.6l2.1,0.3l2.1,0.1l2-0.1
		L191.5,99.1z M191.5,99.1"/>
	<path class="st0" d="M155.7,64.2l0.3,0.5l0.1,0.5l0.1,0.5l0.1,0.6l0.1,0.7l0.1,0.7l0.1,0.8l0,0.8l0,0.9l0.1,1.9l0.1,1l0.1,1
		l0.1,1.1l0.1,1.1l0.1,1.1l0.1,1.1l0.1,1.1l0.1,1.1l0.1,1.1l0.2,1.1l0.2,1.5l0,0.3l0,0.2l0,0.2l0,0.2l0,0.2l-0.1,0.2l-0.1,0.2
		l-0.1,0.2l-0.1,0.2l-0.1,0.2l-0.1,0.2l-0.2,0.1l-0.2,0.1l-0.2,0.1l-0.2,0.1l-0.2,0.1l-0.3,0l-0.3,0l-0.3,0l-0.3-0.1l-0.2-0.1
		l-0.2-0.1l-0.2-0.2l-0.2-0.2l-0.2-0.2l-0.1-0.2l-0.1-0.3l-0.1-0.3l-0.1-0.3l-0.1-0.3l0-0.3l0-0.3l0-0.3l0-0.3l0-0.3l0-0.3l0.1-0.2
		l0.1-0.2l0.1-0.2l0-0.3l0-0.3l0-0.4l0-0.4l-0.1-0.4l-0.1-0.5l-0.1-0.5l-0.1-0.5l-0.1-0.5l-0.3-1.1l-0.1-0.5l-0.1-0.5l-0.1-0.5
		l-0.1-0.5l-0.1-0.5l-0.1-0.5l0-0.5l0-0.4l-0.3-0.5l-0.2-0.6l-0.2-0.7l-0.2-0.8l-0.2-0.8l-0.2-0.9l-0.1-0.9l-0.1-0.9l-0.1-0.9
		l-0.1-0.9l0-0.9l0-0.9l0-0.9l0.1-0.8l0.1-0.8l0.1-0.7l0.2-0.6l0.2-0.6l0.2-0.5l0.2-0.2l0.1-0.1l0.1-0.1l0.1-0.1l0.1-0.1l0.2-0.1
		l0.2-0.1l0.2,0l0.2,0l0.2,0l0.2,0l0.2,0l0.2,0l0.1,0l0.1,0.1l0.1,0.1l0.1,0.1l0.1,0.1l0.1,0.1l0,0.1l0,0.1l0,0.2l0,0.2l0,0.2l0,0.2
		l0,0.2l0,0.2l0,0.2l0,0.2l0.1,0.2l0.1,0.3l0.1,0.3l0.1,0.3l0.1,0.3l0.1,0.4l0.2,0.4l0.2,0.4l0.2,0.4l0.2,0.5L155.7,64.2z
		 M155.7,64.2"/>
	<path class="st0" d="M228,93.2l-0.2,0.3l-0.2,0.3l-0.2,0.3l-0.2,0.2l-0.2,0.2l-0.2,0.2l-0.2,0.1l-0.5,0l-0.5,0l-0.4,0l-0.4,0
		l-0.3,0l-0.3-0.1l-0.2-0.1l-0.2-0.1l-0.2-0.1l-0.1-0.1l-0.1-0.1l-0.1-0.1l-0.1-0.1L223,94l0-0.1l0-0.1l0-0.1l0-0.1l0-0.1l0-0.1
		l0-0.4l0-0.5L223,92l0.1-0.6l0.1-0.6l0.1-0.6l0.2-0.7l0.2-0.7l0.3-1.5l0.2-0.7l0.2-0.8l0.2-0.8l0.2-0.8l0.1-0.8l0.1-0.8L225,82
		l0.1-0.8l0-0.7l0-0.7l0.5-1.4l0.5-1.3l0.4-1.2l0.4-1.1l0.4-1l0.4-0.9l0.4-0.8l0.4-0.8l0.4-0.7l0.4-0.6l0.4-0.6l0.4-0.5l0.4-0.4
		l0.4-0.3l0.4-0.3l0.5-0.2l0.5-0.2l0.5-0.1l0.5-0.1l0.5,0h1.4l0.5,0.4l0.4,0.5l0.3,0.6l0.3,0.6l0.2,0.7l0.2,0.7l0.1,0.7l0,0.8l0,0.8
		l0,0.8l-0.1,0.8l-0.1,0.8l-0.2,0.8l-0.2,0.7l-0.2,0.7l-0.2,0.7l-0.3,0.6l-0.3,0.6l-0.3,0.5l-0.3,0.5l-0.2,0.3l-0.2,0.3l-0.2,0.3
		l-0.1,0.4l-0.1,0.4l-0.1,0.4l-0.1,0.4l-0.1,0.4l-0.1,0.4l-0.1,0.4l-0.1,0.4l-0.1,0.4l-0.2,0.4l-0.2,0.4l-0.2,0.4l-0.2,0.4l-0.2,0.3
		l-0.2,0.3l-0.2,0.3l-0.2,0.3l-0.5,0.5l-0.5,0.5l-0.4,0.5l-0.4,0.5l-0.4,0.4l-0.3,0.4l-0.3,0.4l-0.3,0.4l-0.2,0.4l-0.2,0.4l-0.2,0.4
		l-0.2,0.4L228,93.2z M228,93.2"/>
	<path class="st7" d="M223.9,433.7l-1.3,0.6l-0.8-0.6l-0.6-1.7l-0.4-2.7l-0.2-3.5l-0.1-4.3l0.1-4.9l0.2-5.4l0.4-5.7l0.5-6l0.6-6.1
		l0.7-6.1l0.8-6l0.8-5.7l0.9-5.4l0.9-4.9l1-4.3l1-3.5l1-2.7l1-1.7l1-0.6l0.7,0.6l0.5,1.7l0.4,2.7l0.2,3.5l0.1,4.3l0,4.9l-0.1,5.4
		l-0.2,5.7l-0.3,6l-0.5,6.1l-0.6,6.1l-0.7,6l-0.7,5.7l-0.8,5.4l-0.9,4.9l-1,4.3l-1.1,3.5L225,432L223.9,433.7z M223.9,433.7"/>
	<path class="st8" d="M193.3,98.7l-1.9,0.3l-2,0.2l-2,0.1l-2.1-0.1l-2.1-0.3l-2.2-0.6l-2.2-0.9l-2.1-1.2l-2.1-1.5l-2.1-1.9l-2-2.3
		l3.7-0.2l3.4-0.2l3-0.2l2.7-0.1l2.4-0.1l2.1-0.1l1.9,0l1.6,0l1.4,0.1l1.3,0.1l1.1,0.2l1,0.3l0.9,0.3l0.8,0.4l0.7,0.5l0.7,0.6
		l0.7,0.6l0.7,0.7l0.8,0.8l0.8,0.9l-0.4,0.2l-0.6,0.4l-0.9,0.4l-1.1,0.5l-1.3,0.5l-1.5,0.5l-1.6,0.5L193.3,98.7z M197.9,96.3
		l1.9-0.6l2-0.7l-0.1-0.2l-0.2-0.3l-0.2-0.3l-0.3-0.4l-0.4-0.4l-0.5-0.4l-0.6-0.4l-0.8-0.4l-0.9-0.4l-1.1-0.4l-1.3-0.4l-1.5-0.3
		l-1.7-0.3l-1.9-0.2l-2.2-0.1l-2.5,0l-2.7,0.1l-3,0.2l-3.4,0.3l-3.7,0.4l0.7,0.7l0.8,0.7L175,93l1,0.6l1.1,0.6l1.2,0.6l1.3,0.5
		l1.4,0.5l1.4,0.4l1.5,0.4l1.6,0.3l1.6,0.2l1.7,0.1l1.7,0l1.8-0.1l1.8-0.2l1.9-0.3L197.9,96.3z M197.9,96.3"/>
	<path d="M217.4,59.8l0.3,0.3l0,0.1l-0.1,0.1l-0.2,0l-0.2,0l-0.3,0l-0.3,0l-0.3-0.1l-0.4-0.1l-0.4-0.1l-0.4-0.1l-0.4-0.1l-0.4-0.1
		l-0.4-0.2l-0.4-0.2l-0.4-0.2l-0.3-0.2l-0.3-0.2l-0.3-0.2l-0.2-0.2l-0.2-0.1l-0.4-0.4l-0.5-0.3l-0.6-0.2l-0.7-0.2l-0.8-0.1l-0.8-0.1
		l-0.9,0l-0.9,0l-1,0l-2,0l-1,0l-1,0l-0.9,0l-0.9-0.1l-0.8-0.1l-0.8-0.2l-0.7-0.2l-0.6-0.3l-0.5-0.4l2.5-0.5l2.3-0.3l2.1-0.2
		l1.9-0.1l1.7,0l1.5,0.1l1.4,0.2l1.2,0.3l1.1,0.3l1,0.4l0.9,0.4l0.8,0.5l0.7,0.5l0.6,0.5l0.5,0.5l0.4,0.5l0.4,0.4l0.3,0.4
		L217.4,59.8z M217.4,59.8"/>
	<path class="st4" d="M199.8,95.8l-1.9,0.6l-1.9,0.4l-1.9,0.3l-1.8,0.2l-1.8,0.1l-1.7,0l-1.7-0.1l-1.6-0.2l-1.6-0.3l-1.5-0.4
		l-1.4-0.4l-1.4-0.5l-1.3-0.5l-1.2-0.6l-1.1-0.6l-1-0.6l-0.9-0.7l-0.8-0.7l-0.7-0.7l3.7-0.4l3.4-0.3l3-0.2l2.7-0.1l2.5,0l2.2,0.1
		l1.9,0.2l1.7,0.3l1.5,0.3l1.3,0.4l1.1,0.4l0.9,0.4l0.8,0.4l0.6,0.4l0.5,0.4l0.4,0.4l0.3,0.4l0.2,0.3l0.2,0.3l0.1,0.2L199.8,95.8z
		 M199.8,95.8"/>
	<path d="M167,52.8l-0.3-0.2l0.3-0.4l0.5-0.3l0.7-0.2l0.8-0.2l1-0.1l1.1,0l1.2,0l1.2,0.1l1.3,0.2l1.3,0.2l1.3,0.3l1.3,0.3l1.2,0.3
		l1.2,0.3l1.1,0.4l1,0.4l0.8,0.4l0.7,0.4l0.5,0.4l0.3,0.4l-0.9,0l-1,0l-1-0.1l-1.1-0.1l-1.1-0.1l-1.2-0.1l-1.2-0.1l-1.2-0.1
		l-1.2-0.1l-1.1-0.2l-1.1-0.2l-1.1-0.2l-1-0.2l-1-0.2l-0.9-0.2l-0.8-0.2l-0.7-0.2l-0.6-0.2L167,52.8z M167,52.8"/>
	<path class="st9" d="M150.5,136l0.2-0.9 M151.5,141l-0.4-1 M150.8,139l-0.2-1 M202.2,33.6l1.6,0 M200.5,33.6l1.6,0 M151.1,140
		l-0.3-1 M198.9,33.5l1.7,0.1 M152,142l-0.5-1 M176.1,30.8l0.3,0 M150.6,138l-0.1-1 M205.4,33.7l1.6,0 M152.5,142.9l-0.6-1
		 M203.8,33.7l1.6,0 M148.4,325.4l-1.2,2 M147.2,327.4l-1.1,3.8 M146.1,331.2l-1,3.5 M145.1,334.6l-0.9,3.3 M144.1,337.9l-0.8,3.2
		 M143.3,341.1l-0.8,3.3 M142.5,344.4l-0.7,3.4 M141.8,347.8l-0.7,3.7 M141.1,351.5l-0.6,4 M140.5,355.5l-0.6,4.5 M139.9,360
		l-0.6,5.1 M139.2,365l-0.6,5.8 M138.6,370.8l-0.7,6.6 M137.9,377.4l-0.7,7.5 M137.2,384.8l-0.8,8.5 M136.5,393.3l-0.8,9.6
		 M135.7,402.9l-0.9,10.9 M130.2,471.7l2.6,0.3 M132.8,472l5.6,0.4 M138.4,472.4l5.8,0.3 M144.2,472.7l6,0.2 M150.2,473l6.1,0.2
		 M156.3,473.2l6.1,0.1 M162.3,473.3l5.9,0 M168.2,473.3h5.7 M174,473.3l5.4,0 M179.4,473.3l5-0.1 M184.4,473.2l4.5-0.1 M189,473.1
		l3.9-0.1 M192.9,473l3.3-0.1 M196.2,472.9l2.5-0.1 M200.9,472.8l2.2-0.6 M203.1,472.2l2.2-0.9 M205.3,471.3l2.3-1.1 M207.6,470.2
		l2.3-1.3 M209.9,468.9l2.3-1.5 M212.2,467.5l2.3-1.6 M214.5,465.9l2.3-1.7 M216.8,464.2l2.2-1.8 M219,462.4l2.2-1.8 M221.1,460.6
		l2.1-1.8 M223.2,458.8l2-1.8 M225.2,457l1.9-1.7 M227.1,455.2l1.8-1.7 M231.9,450.6l1.3-1.2 M233.2,449.4l1.1-1 M234.3,448.4
		l0.9-0.7 M235.2,447.7l0.7-0.5 M235.9,447.2l0.4-0.2 M235.6,445.3l0.7,1.8 M235.1,443.4l0.5,1.9 M234.8,441.5l0.3,2 M234.7,439.4
		l0.1,2 M234.7,437.3l-0.1,2.1 M234.9,435.2l-0.2,2.1 M235.2,433.1l-0.3,2.1 M235.7,431l-0.4,2.1 M236.2,428.9l-0.5,2.1
		 M236.7,426.8l-0.6,2 M237.3,424.9l-0.6,2 M238,423l-0.6,1.9 M238.6,421.2L238,423 M239.2,419.6l-0.6,1.6 M239.8,418.1l-0.6,1.5
		 M240.3,416.7l-0.5,1.3 M240.7,415.6l-0.4,1.1 M241,414.7l-0.3,0.9 M241.3,414l-0.2,0.7 M241.3,413.5l-0.1,0.4 M241.3,413.5l0-2.7
		 M241.4,410.8l0.1-2.8 M241.4,408l0.1-2.8 M241.6,405.2l0.2-2.8 M241.8,402.4l0.3-2.9 M242,399.5l0.3-3 M242.4,396.5l0.4-3.1
		 M242.7,393.4l0.4-3.2 M243.2,390.2l0.5-3.4 M243.7,386.8l0.6-3.5 M244.3,383.3l0.6-3.7 M244.9,379.6l0.7-3.9 M245.6,375.7l0.8-4.1
		 M246.4,371.7l0.8-4.3 M247.2,367.4l0.9-4.5 M248.1,362.8l1-4.8 M249.1,358l1.1-5.1 M250.2,353l1.1-5.4 M253.8,336.6l0-0.7
		 M253.7,337.8l0.1-1.2 M253.6,339.5l0.1-1.6 M253.4,341.5l0.2-2 M253.2,343.9l0.2-2.4 M253,346.6l0.2-2.7 M252.8,349.5l0.3-2.9
		 M252.5,352.5l0.3-3.1 M252.2,355.7l0.3-3.2 M251.9,358.9l0.3-3.2 M251.6,362.2l0.3-3.2 M251.2,365.4l0.3-3.2 M250.9,368.4l0.3-3.1
		 M250.6,371.3l0.3-2.9 M250.3,374l0.3-2.7 M250,376.5l0.3-2.4 M249.7,378.6l0.3-2.1 M249.5,380.3l0.3-1.7 M249.3,381.5l0.2-1.3
		 M249.1,382.3l0.2-0.8 M248.3,384.3l0.7-2 M247.8,386.3l0.6-2 M247.3,388.4l0.5-2.1 M246.9,390.5l0.4-2.1 M246.6,392.6l0.3-2.1
		 M246.3,394.7l0.3-2.1 M246.1,396.8l0.2-2.1 M245.9,398.9l0.2-2 M245.5,404.5l0.2-1.8 M245.3,406.2l0.2-1.7 M245.1,407.8l0.2-1.6
		 M244.8,409.2l0.3-1.4 M244.5,410.5l0.3-1.2 M244.1,411.5l0.4-1.1 M243.6,412.4l0.5-0.9 M243,413l0.6-0.6 M242.2,413.4l0.7-0.4
		 M241.3,413.5l0.9-0.1 M236.6,447.9l-0.3-0.8 M236.8,448.7l-0.3-0.8 M237.1,449.5l-0.3-0.9 M237.4,450.4l-0.3-0.9 M237.8,451.4
		l-0.4-0.9 M238.2,452.4l-0.4-1 M238.7,453.4l-0.5-1.1 M239.3,454.6l-0.6-1.1 M240,455.8l-0.7-1.2 M240.9,457l-0.8-1.3 M241.8,458.4
		l-1-1.3 M243,459.8l-1.1-1.4 M244.3,461.3l-1.3-1.5 M245.8,463l-1.5-1.6 M247.5,464.7l-1.7-1.7 M249.4,466.5l-1.9-1.8 M251.5,468.5
		l-2.1-1.9 M253.9,470.5l-2.4-2.1 M256.6,472.7l-2.7-2.2 M257.2,472.5l-0.7,0.3 M257.8,472.2l-0.6,0.2 M258.3,472l-0.5,0.2
		 M258.8,471.8l-0.5,0.2 M259.2,471.6l-0.4,0.2 M259.5,471.4l-0.4,0.2 M259.8,471.2l-0.3,0.2 M260.1,471l-0.3,0.2 M260.3,470.8
		l-0.2,0.2 M260.6,470.6l-0.2,0.2 M260.7,470.4l-0.2,0.2 M260.9,470.2l-0.2,0.2 M261.1,470l-0.2,0.2 M261.2,469.8l-0.2,0.2
		 M261.4,469.6l-0.2,0.2 M261.6,469.3l-0.2,0.2 M261.7,469.1l-0.2,0.3 M261.9,468.8l-0.2,0.3 M262.1,468.5l-0.2,0.3 M262.3,468.1
		l-0.2,0.3 M265.9,463.3l-3.5,4.8 M269.2,457.8l-3.4,5.5 M272.5,451.7l-3.2,6.1 M275.6,445.1l-3.1,6.6 M278.5,438l-2.9,7
		 M281.3,430.6l-2.8,7.4 M283.9,423l-2.7,7.7 M286.4,415.2l-2.5,7.8 M288.8,407.2l-2.4,7.9 M291,399.2l-2.2,8 M293.1,391.3l-2.1,7.9
		 M295.1,383.6l-2,7.8 M296.9,376l-1.8,7.5 M298.6,368.8l-1.7,7.2 M300.1,362l-1.5,6.8 M301.5,355.6l-1.4,6.4 M304.9,340l-1,4.5
		 M305.8,336.3l-0.9,3.7 M305.8,336.3l0-4.9 M305.8,331.4l0-6.1 M305.8,325.3l0-7.2 M305.7,318.1l-0.1-8.1 M305.6,310.1l-0.1-8.8"/>
	<path class="st9" d="M305.5,301.2l-0.2-9.5 M305.3,291.7l-0.3-10 M305,281.8l-0.4-10.3 M304.6,271.4l-0.5-10.6 M304.1,260.8
		l-0.6-10.7 M303.5,250.2l-0.8-10.6 M302.7,239.6l-0.9-10.4 M301.8,229.1l-1.1-10.1 M300.8,219l-1.3-9.6 M299.5,209.4l-1.4-9
		 M298.1,200.4l-1.6-8.3 M296.4,192.1l-1.9-7.4 M294.6,184.6l-2.1-6.4 M292.5,178.2l-2.3-5.3 M290.1,173l-2.6-4 M287.5,169l-0.3-1.1
		 M287.2,167.9l-0.8-1.3 M286.4,166.6l-1.3-1.4 M285.2,165.2l-1.7-1.5 M283.5,163.7l-2-1.6 M281.4,162.1l-2.3-1.7 M279.1,160.4
		l-2.6-1.7 M276.5,158.7l-2.8-1.7 M273.7,157l-2.9-1.7 M270.8,155.3l-3-1.7 M267.8,153.5l-3-1.7 M264.7,151.8l-3-1.7 M261.7,150.1
		l-2.9-1.6 M253.3,145.6l-2.4-1.3 M250.9,144.3l-2.1-1.2 M248.8,143.1l-1.8-1 M247.1,142.1l-1.3-0.8 M245.7,141.3l-0.9-0.6
		 M244.8,140.7l-1.9-0.9 M242.9,139.8l-1.8-0.9 M241.2,138.9l-1.6-0.8 M239.5,138.1l-1.5-0.8 M238.1,137.3l-1.3-0.7 M236.7,136.6
		l-1.2-0.7 M235.5,136l-1.1-0.6 M234.4,135.3l-1-0.6 M233.3,134.7l-1-0.6 M232.4,134.1l-0.9-0.6 M231.5,133.6l-0.8-0.5 M230.6,133
		l-0.8-0.5 M229.9,132.5l-0.7-0.5 M229.1,132l-0.7-0.5 M228.4,131.5l-0.7-0.5 M227.7,130.9l-0.7-0.5 M227,130.4l-0.7-0.6
		 M226.3,129.8l-0.7-0.6 M224,128l0.8,2.2 M224.8,130.2l0.5,2.2 M225.3,132.3l0.1,2.1 M225.4,134.5l-0.2,2.1 M225.2,136.6l-0.5,2.1
		 M224.8,138.6l-0.7,2 M224.1,140.6l-0.9,1.9 M223.1,142.5l-1.1,1.9 M222,144.4l-1.3,1.8 M220.7,146.2l-1.5,1.7 M219.2,147.8
		l-1.6,1.6 M217.7,149.4l-1.7,1.4 M216,150.8l-1.7,1.3 M214.3,152.2l-1.7,1.2 M212.6,153.4l-1.7,1 M210.8,154.4l-1.7,0.9
		 M209.1,155.3l-1.7,0.7 M207.4,156l-1.6,0.6 M205.9,156.6l-1.5,0.4 M204.4,157l-1.3,0.2 M203.1,157.2h-2.2 M200.9,157.2l-3.3,7
		 M197.6,164.2l-0.1,4.4 M197.5,168.6l-0.2,4.3 M197.3,172.9L197,177 M197,177l-0.4,4 M196.5,181l-0.6,3.8 M196,184.8l-0.6,3.7
		 M195.3,188.6l-0.7,3.6 M194.6,192.1l-0.8,3.5 M193.8,195.6l-0.9,3.4 M192.9,199l-0.9,3.3 M192,202.2l-1,3.2 M191.1,205.4l-1,3.1
		 M190.1,208.5l-1,3 M189.1,211.5l-1,2.9 M188.1,214.4l-1,2.9 M187.1,217.3l-1,2.8 M186,220.1l-1,2.8 M185.1,222.8l-1,2.7
		 M184.1,225.6l-0.9,2.7 M178.3,243.4l-2,6.2 M176.3,249.6l-2,6.2 M174.3,255.8l-2,6.1 M172.3,261.8l-2,6 M170.3,267.8l-2,5.9
		 M168.4,273.7l-1.9,5.7 M166.4,279.4l-1.9,5.5 M164.5,284.9l-1.9,5.3 M162.7,290.3l-1.8,5.1 M160.8,295.4l-1.8,4.9 M159.1,300.3
		l-1.7,4.6 M157.3,304.9l-1.7,4.3 M155.7,309.2l-1.6,4 M154.1,313.2l-1.5,3.6 M152.5,316.8l-1.5,3.3 M151.1,320.1l-1.4,2.9
		 M149.7,322.9l-1.3,2.5 M222.6,434.3l1.3-0.6 M221.8,433.7l0.8,0.6 M221.2,432.1l0.6,1.7 M220.8,429.4l0.4,2.7 M220.6,425.8
		l0.2,3.5 M220.5,421.6l0.1,4.3 M220.6,416.7l-0.1,4.9 M220.8,411.3l-0.2,5.4 M221.2,405.6l-0.4,5.7 M221.7,399.6l-0.5,6
		 M222.2,393.5l-0.6,6.1 M222.9,387.4l-0.7,6.1 M223.7,381.4l-0.8,6 M224.5,375.6l-0.8,5.7 M225.4,370.2l-0.9,5.4 M226.3,365.4
		l-0.9,4.9 M227.3,361.1l-1,4.3 M228.2,357.5l-1,3.5 M229.2,354.9l-1,2.7 M230.2,353.2l-1,1.7 M231.2,352.6l-1,0.6 M231.8,353.2
		l-0.7-0.6 M232.4,354.9l-0.5-1.7 M232.7,357.5l-0.4-2.7 M233,361.1l-0.2-3.5 M233.1,365.3l-0.1-4.3 M233.1,370.2l0-4.9 M233,375.6
		l0.1-5.4 M232.7,381.4l0.2-5.7 M232.4,387.3l0.3-6 M231.9,393.5l0.5-6.1 M231.4,399.6l0.6-6.1 M230.7,405.6l0.7-6 M230,411.3
		l0.7-5.7 M229.2,416.7l0.8-5.4 M228.2,421.6l0.9-4.9 M227.2,425.8l1-4.3 M226.2,429.4l1.1-3.5 M225,432l1.1-2.7 M223.9,433.7
		l1.2-1.7 M159,817.9l-0.1,1.4 M158.8,818.4l0.3-0.5 M158.4,818.8l0.4-0.4 M157.8,819.2l0.6-0.4 M157,819.6l0.7-0.4 M156.2,819.9
		l0.9-0.3 M155.2,820.2l1-0.3 M154.1,820.4l1.1-0.2 M152.9,820.6l1.2-0.2 M151.7,820.8l1.3-0.2 M150.4,820.9l1.3-0.1 M149,821.1
		l1.4-0.1 M147.6,821.2l1.4-0.1 M146.2,821.2l1.4-0.1 M144.7,821.3l1.4-0.1 M143.3,821.3l1.4,0 M141.9,821.3l1.4,0 M140.5,821.4
		l1.4,0 M139.2,821.4l1.3,0 M137.9,821.4l1.3,0 M136.7,821.4l1.2,0 M136.1,821.4l0.7,0 M135.4,821.4l0.7,0 M134.7,821.5l0.7-0.1
		 M133.9,821.6l0.8-0.1 M133.1,821.7l0.8-0.1 M132.3,821.9l0.8-0.2 M131.4,822l0.9-0.2 M130.5,822.3l0.9-0.2 M129.5,822.6l0.9-0.3
		 M128.5,822.9l1-0.3 M127.5,823.2l1-0.4 M126.4,823.7l1.1-0.4 M125.3,824.1l1.1-0.5 M124.2,824.6l1.1-0.5 M123,825.2l1.2-0.6
		 M121.8,825.9l1.2-0.6 M120.5,826.6l1.3-0.7 M119.2,827.3l1.3-0.8 M117.9,828.2l1.3-0.8 M116.5,829.1l1.4-0.9 M114.8,829.8l1.7-0.7
		 M113,830.5l1.9-0.7 M110.9,831l2.1-0.6 M108.7,831.5l2.2-0.5 M106.3,831.9l2.4-0.4 M103.8,832.2l2.5-0.3 M101.2,832.4l2.6-0.2
		 M98.5,832.6l2.7-0.1 M95.7,832.6l2.8-0.1 M92.9,832.6l2.8,0"/>
	<path class="st9" d="M90,832.5l2.8,0.1 M87.2,832.4l2.8,0.1 M84.4,832.2l2.8,0.2 M81.6,831.9l2.8,0.3 M78.9,831.6l2.7,0.3
		 M76.3,831.2l2.6,0.4 M73.7,830.7l2.5,0.5 M71.3,830.2l2.4,0.5 M69.1,829.7l2.3,0.6 M67,829.1l2.1,0.6 M66.7,830.6l0.2-1.5
		 M66.6,832.1l0.2-1.6 M66.5,833.8l0-1.7 M66.6,835.5l-0.1-1.7 M66.8,837.4l-0.2-1.8 M67.2,839.3l-0.4-1.9 M67.7,841.2l-0.5-2
		 M68,841.3l-0.3,0 M68.5,841.4l-0.5-0.1 M71.1,842.2l-1.1-0.3 M72.4,842.5l-1.3-0.3 M73.9,842.8l-1.5-0.3 M75.5,843.1l-1.7-0.3
		 M77.4,843.4l-1.9-0.3 M79.5,843.6l-2.1-0.2 M81.8,843.7l-2.3-0.2 M84.3,843.8l-2.5-0.1 M87.1,843.8l-2.8,0 M90.1,843.6l-3,0.1
		 M93.3,843.3l-3.2,0.3 M96.8,842.9l-3.5,0.4 M100.6,842.3l-3.7,0.6 M104.6,841.5l-4,0.8 M108.8,840.5l-4.3,1 M110.5,840.1l-1.7,0.4
		 M112.3,839.6l-1.8,0.5 M114.2,839l-1.9,0.6 M116.2,838.3l-2,0.7 M118.3,837.6l-2.1,0.7 M120.4,836.8l-2.2,0.8 M122.6,836l-2.2,0.8
		 M124.9,835.2l-2.3,0.8 M127.3,834.3l-2.4,0.8 M129.7,833.5l-2.4,0.8 M132.2,832.7l-2.5,0.8 M134.7,831.9l-2.5,0.8 M137.3,831.2
		l-2.6,0.7 M139.8,830.5l-2.6,0.7 M142.4,829.9l-2.6,0.6 M145.1,829.4l-2.6,0.5 M147.7,828.9l-2.6,0.4 M150.4,828.6l-2.6,0.3
		 M153,828.4l-2.6,0.2 M155.6,828.3l-2.6,0.1 M155.9,828.2l-0.2,0.1 M156.1,828.1l-0.3,0.2 M156.4,827.8l-0.3,0.2 M156.7,827.6
		l-0.3,0.3 M156.9,827.2l-0.3,0.3 M157.2,826.8l-0.3,0.4 M157.4,826.3l-0.3,0.5 M157.7,825.8l-0.2,0.6 M157.9,825.1l-0.2,0.6
		 M158.1,824.4l-0.2,0.7 M158.3,823.6l-0.2,0.8 M158.5,822.7l-0.2,0.9 M158.7,821.6l-0.2,1 M158.8,820.5l-0.1,1.1 M158.9,819.3
		l-0.1,1.2 M72,819.5l3.5-1.9 M72,819.5l0.1,1 M72.2,820.5l0.4,0.9 M72.6,821.4l0.6,0.7 M73.2,822.1l0.9,0.6 M74.1,822.7l1.1,0.5
		 M75.2,823.2l1.3,0.4 M76.4,823.6l1.4,0.3 M77.9,823.9l1.6,0.2 M79.5,824.1l1.7,0.1 M81.2,824.2l1.9,0 M83,824.2l2-0.1 M85,824.1
		l2-0.2 M87,823.9l2.1-0.2 M89.2,823.7l2.2-0.3 M91.3,823.4l2.2-0.4 M93.5,823l2.2-0.4 M95.7,822.6l2.2-0.5 M98,822.1l2.2-0.5
		 M100.2,821.6l2.2-0.6 M107,819.6l1.3-0.4 M108.3,819.1l1.4-0.4 M109.7,818.7l1.4-0.4 M111.1,818.3l1.4-0.5 M112.5,817.8l1.4-0.5
		 M114,817.3l1.4-0.5 M115.4,816.8l1.4-0.5 M116.7,816.3l1.3-0.5 M118.1,815.8l1.3-0.5 M119.4,815.3l1.2-0.5 M120.6,814.8l1.2-0.5
		 M121.7,814.2l1.1-0.6 M122.8,813.7l1-0.6 M123.8,813.1l0.9-0.6 M124.6,812.5l0.7-0.6 M125.3,811.9l0.6-0.6 M126,811.4l0.5-0.6
		 M126.4,810.8l0.3-0.6 M126.7,810.2l-4.2-1.5 M122.5,808.6l-4.1-1.5 M118.4,807.1l-4-1.5 M114.4,805.6l-3.8-1.4 M110.6,804.3
		l-3.5-1.2 M107.1,803.1l-3.1-1 M104,802.1l-2.7-0.7 M101.3,801.4l-2.3-0.4 M99,801.1l-1.7,0 M97.3,801.1l-1.1,0.5 M96.2,801.6
		L96.2,801.6 M96.2,801.7l0-0.1 M96.2,801.8l0-0.2 M96.1,802.1l0.1-0.3 M95.9,802.5l0.1-0.4 M95.7,802.9l0.2-0.4 M95.3,803.4
		l0.3-0.5 M94.9,804.1l0.5-0.6 M94.3,804.8l0.6-0.7 M93.5,805.6l0.8-0.8 M92.5,806.5l1-0.9 M91.3,807.5l1.2-1 M89.9,808.6l1.4-1.1
		 M88.2,809.8l1.7-1.2 M86.3,811.2l1.9-1.3 M84.1,812.6l2.2-1.4 M81.6,814.2l2.5-1.6 M78.8,815.8l2.8-1.7 M75.6,817.6l3.2-1.8
		 M147.2,327.4l-3.2-10 M144.1,318.7l-0.2-1.3 M144.4,320.2l-0.2-1.5 M144.6,321.6l-0.3-1.4 M144.9,322.9l-0.3-1.3 M145.2,324
		l-0.3-1.1 M145.5,325l-0.3-1 M145.9,325.9l-0.4-0.9 M146.3,326.6l-0.4-0.7 M146.7,327.1l-0.4-0.5 M147.2,327.4l-0.5-0.3
		 M272.9,782.7h14.1 M272.9,782.7l-1.7,0.2 M271.2,782.9l-1.8,0.7 M269.3,783.6l-1.9,1 M267.5,784.6l-2,1.3 M265.5,785.9l-2.1,1.6
		 M263.4,787.4l-2.2,1.7 M261.3,789.2L259,791 M259,791l-2.3,1.9 M256.7,792.9l-2.4,1.9 M254.3,794.8l-2.5,1.8 M251.7,796.7
		l-2.6,1.7 M249.1,798.4l-2.7,1.5 M246.4,799.9l-2.8,1.3 M243.6,801.2l-2.9,1 M240.6,802.2l-3,0.6 M237.6,802.8l-3.1,0.2 M234.4,803
		l-3.3-0.3 M231.2,802.7l-3.4-0.9 M227.8,801.8l-3.5-1.5 M224.3,800.3l-3.6-2.1 M221.6,798.8l-0.8-0.6 M222.5,799.4l-0.9-0.6
		 M223.4,800.1l-1-0.7 M224.4,800.8l-1-0.8 M225.5,801.7l-1-0.8 M226.6,802.6l-1.1-0.9 M227.7,803.6l-1.1-1 M228.8,804.8l-1.1-1.1
		 M229.9,806.1l-1.1-1.3 M231,807.4l-1.1-1.4 M232.1,809l-1.1-1.5 M233.2,810.6l-1.1-1.7 M234.3,812.4l-1.1-1.8 M235.3,814.4l-1-2
		 M236.3,816.5l-1-2.1 M237.3,818.8l-0.9-2.3 M238.1,821.3l-0.9-2.5 M238.9,824l-0.8-2.7 M239.7,826.9l-0.7-2.9 M240.3,830l-0.6-3.1
		 M240.3,824.7l0,5.4 M240.3,824.7l1,0 M241.3,824.6l0.9-0.1 M242.2,824.5l0.9-0.2 M243.1,824.3l0.8-0.3 M243.9,824l0.7-0.3
		 M244.7,823.7l0.7-0.4 M245.3,823.3l0.6-0.4 M245.9,822.9l0.6-0.5 M246.5,822.4l0.5-0.5 M247,821.9l0.4-0.5 M247.4,821.3l0.4-0.6"
		/>
	<path class="st9" d="M247.8,820.8l0.3-0.6 M248.1,820.2l0.3-0.6 M248.4,819.7l0.2-0.6 M248.6,819.1l0.2-0.6 M248.8,818.5l0.1-0.5
		 M249,818l0.1-0.5 M249.1,817.5l0.1-0.5 M249.1,817l0-0.5 M249.1,816.5l0-0.4 M249.1,816.1l1.6-1.3 M250.7,814.9l1.8-1
		 M252.5,813.9l2-0.7 M254.5,813.2l2.2-0.4 M256.8,812.8l2.4-0.2 M259.1,812.6l2.5,0 M261.6,812.5l2.6,0.1 M264.2,812.7l2.6,0.3
		 M266.8,812.9l2.6,0.4 M269.5,813.3l2.6,0.4 M272.1,813.8l2.6,0.5 M274.6,814.3l2.5,0.5 M281.7,815.8l2,0.4 M283.7,816.2l1.8,0.3
		 M285.4,816.5l1.5,0.2 M286.9,816.8l1.2,0.1 M288.2,816.8l0.9-0.1 M289.1,816.7l0.5-0.3 M290.4,810.6l-0.2,1.7 M290.6,809.1
		l-0.2,1.6 M290.7,807.7l-0.2,1.4 M290.9,806.4l-0.1,1.2 M291,805.4l-0.1,1.1 M291,804.4l-0.1,1 M291,803.6l0,0.8 M291,802.8l0,0.7
		 M290.9,802.2l0.1,0.7 M290.8,801.6l0.1,0.6 M290.6,801.1l0.2,0.5 M290.4,800.6l0.2,0.5 M290.1,800.1l0.3,0.5 M289.7,799.7l0.3,0.5
		 M289.3,799.2l0.4,0.5 M288.9,798.7l0.5,0.5 M288.4,798.2l0.5,0.5 M287.8,797.7l0.6,0.6 M288.1,796.8l-0.3,0.9 M288.4,796l-0.3,0.8
		 M288.7,795.2l-0.3,0.8 M289,794.4l-0.3,0.8 M289.3,793.6l-0.3,0.8 M289.5,792.8l-0.2,0.8 M289.7,792.1l-0.2,0.7 M289.9,791.4
		l-0.2,0.7 M290,790.6l-0.1,0.7 M290,789.9l-0.1,0.7 M290,789.2l0,0.7 M290,788.5l0,0.7 M289.9,787.8l0.1,0.7 M289.7,787.1l0.2,0.7
		 M289.4,786.3l0.3,0.7 M289.1,785.6l0.3,0.7 M288.7,784.9l0.4,0.7 M288.2,784.2l0.5,0.7 M287.6,783.4l0.6,0.7 M286.9,782.7l0.7,0.8
		 M297.1,839.4l-0.1-1.6 M297,837.8l-0.1,1 M296.9,838.8l-0.3,0.9 M296.6,839.7l-0.5,0.8 M296.1,840.5l-0.6,0.7 M295.5,841.1
		l-0.8,0.6 M294.8,841.7l-0.9,0.5 M293.9,842.2l-1,0.4 M292.9,842.6l-1.1,0.3 M291.7,842.9l-1.2,0.3 M290.5,843.1l-1.3,0.2
		 M289.2,843.3l-1.4,0.1 M287.9,843.5l-1.4,0.1 M286.5,843.6l-1.4,0.1 M285.1,843.6l-1.5,0 M283.6,843.7l-1.5,0 M282.1,843.7l-1.5,0
		 M277.8,843.6l-1.4,0 M276.4,843.6l-1.3,0 M275.1,843.6l-3,0 M272.1,843.6l-2.7,0 M269.4,843.6l-2.4,0 M266.9,843.6l-2.2,0
		 M264.8,843.6l-1.9,0 M262.9,843.5l-1.7-0.1 M261.2,843.5l-1.5-0.1 M259.7,843.4l-1.3-0.1 M258.4,843.2l-1.1-0.2 M257.3,843.1
		l-1-0.2 M256.3,842.9l-0.9-0.2 M255.5,842.7l-0.7-0.3 M254.7,842.4l-0.7-0.3 M254.1,842.1l-0.6-0.4 M253.5,841.7l-0.5-0.4
		 M253,841.2l-0.5-0.5 M252.4,840.7l-0.5-0.6 M251.9,840.1l-0.5-0.6 M251.4,839.5l-0.5-0.7 M250.9,838.8l-0.6-0.8 M250.3,838
		l-0.4-0.4 M250,837.5l-0.4-0.5 M249.5,837l-0.5-0.5 M249,836.5l-0.6-0.5 M248.5,836l-0.6-0.5 M247.9,835.5l-0.6-0.5 M247.2,835
		l-0.7-0.5 M246.6,834.5l-0.7-0.5 M245.9,833.9l-0.7-0.5 M245.2,833.4l-0.7-0.5 M244.5,832.9l-0.7-0.5 M243.9,832.4l-0.6-0.4
		 M243.2,832l-0.6-0.4 M242.6,831.6l-0.6-0.4 M242.1,831.2l-0.5-0.3 M241.6,830.9l-0.4-0.3 M241.1,830.6l-0.4-0.2 M240.8,830.3
		l-0.3-0.2 M240.5,830.2l-0.2-0.1 M240.4,830.1L240.4,830.1 M240.3,830.3l0-0.3 M240.4,830.5l-0.1-0.3 M240.5,830.8l-0.1-0.3
		 M240.7,831.2l-0.1-0.3 M240.8,831.5l-0.2-0.4 M241,831.9l-0.2-0.4 M241.3,832.3l-0.2-0.4 M241.6,832.8l-0.3-0.4 M241.9,833.2
		l-0.3-0.5 M242.3,833.8l-0.4-0.5 M242.8,834.3l-0.5-0.6 M243.3,835l-0.5-0.6 M243.9,835.6l-0.6-0.7 M244.5,836.3l-0.6-0.7
		 M245.2,837.1l-0.7-0.8 M246,837.9l-0.8-0.8 M246.8,838.8l-0.9-0.9 M247.8,839.7l-0.9-0.9 M247.8,839.7l0.4,0.5 M248.2,840.2
		l0.3,0.5 M248.5,840.7l0.3,0.5 M248.7,841.2l0.2,0.5 M248.9,841.7l0.1,0.5 M249.1,842.2l0.1,0.6 M249.2,842.8l0.1,0.6 M249.3,843.4
		l0.1,0.6 M249.4,845.1l0.1,0.6 M249.5,845.6l0.1,0.6 M249.6,846.2l0.1,0.5 M249.7,846.7l0.1,0.5 M249.8,847.3l0.2,0.5 M250,847.8
		l0.3,0.5 M250.3,848.3l0.3,0.5 M250.6,848.8l0.4,0.5 M251,849.2l0.5,0.4 M251.5,849.6l0.6,0.4 M252.1,850l1.1,0.9 M253.2,850.9
		l1.3,0.8 M254.5,851.7l1.4,0.7 M255.9,852.4l1.6,0.6 M257.5,853l1.7,0.5 M259.2,853.6l1.8,0.5 M261,854l1.9,0.4 M262.8,854.4
		l1.9,0.3 M264.8,854.7l2,0.2 M266.8,854.9l2,0.2 M268.8,855.1l2,0.1 M270.8,855.2l2,0.1 M272.8,855.3l2,0 M274.8,855.3l1.9,0
		 M276.7,855.3l1.9-0.1 M278.6,855.2l1.8-0.1 M280.3,855.1l1.7-0.1 M282,855l1.5-0.2 M283.5,854.8l1.4-0.2 M284.9,854.6l1.2-0.2
		 M286.1,854.4l2.1-0.1 M288.2,854.3l1.8-0.3 M290,854l1.6-0.5 M291.5,853.4l1.3-0.7 M292.9,852.7l1.1-0.9 M294,851.9l0.9-1
		 M294.9,850.8l0.7-1.2 M295.6,849.7l0.6-1.3 M296.2,848.4l0.4-1.4 M296.6,847.1l0.3-1.4 M296.9,845.6l0.2-1.5 M297,844.1l0.1-1.5
		 M297.1,842.6l0-1.6 M297.1,841l-0.1-1.6 M219.9,93l0.3-0.4 M191.5,99.1l1.9-0.3 M210.8,94.2l0.2,0.1 M37.5,499.1l0.3-5.2
		 M210.3,93.7l0.2,0.2 M202,95.4l0.4-0.2"/>
	<path class="st9" d="M175.7,30.9l0.4-0.1 M210.5,93.9l0.2,0.2 M219.6,93.4l0.3-0.4 M143.3,260.9l0.1-8.2 M143.1,289l0-10
		 M210.6,94.1l0.2,0.1 M143.2,269.7l0.1-8.8 M219.3,93.8l0.3-0.4 M185.4,99.2l2.1,0.1 M37.8,493.9l0.3-4.8 M201.4,95.8l0.6-0.4
		 M219,94.1l0.3-0.4 M207.4,89l0.3,0.5 M207,88.5l0.4,0.5 M218.7,94.5l0.3-0.3 M207.8,89.4l0.3,0.5 M208.9,91.2l0.2,0.4 M209.7,92.8
		l0.2,0.3 M218.4,94.7l0.4-0.3 M218,95l0.4-0.2 M208.6,90.8l0.3,0.4 M224.5,76.2l0.2-0.5 M217.5,95.2L218,95 M216,95.5l0.6,0
		 M217.1,95.3l0.5-0.2 M210.1,93.4l0.2,0.3 M208.4,90.3l0.3,0.4 M215.3,95.5l0.6,0 M162.4,149.9l-0.8-0.1 M214.6,95.4l0.7,0.1
		 M209.5,92.4l0.2,0.4 M209.3,92.1l0.2,0.4 M213.8,95.2l0.8,0.2 M213,95l0.9,0.2 M212,94.7L213,95 M195.1,98.3l1.6-0.5 M187.5,99.3
		l2-0.1 M160.7,149.7l-0.9-0.3 M189.5,99.3l2-0.2 M183.2,98.9l2.1,0.3 M193.3,98.7l1.7-0.4 M181.1,98.3l2.2,0.6 M196.7,97.8l1.5-0.5
		 M216.6,95.4l0.5-0.1 M157.2,147.9l-0.9-0.7 M224.2,76.8l0.3-0.6 M209.1,91.6l0.2,0.4 M224,77.5l0.3-0.7 M158.1,148.5l-0.9-0.6
		 M223.7,78.3l0.3-0.8 M223.3,79.2l0.3-0.9 M220.6,91.7l0.3-0.5 M220.4,92.1l0.3-0.5 M220.1,92.6l0.3-0.4 M72.8,689.9l-0.4-2.8
		 M256.6,478.3l8.5,54.9 M260.7,601.9l0.8,1.4 M209.9,93.1l0.2,0.3 M159,149l-0.9-0.5 M225.1,74.8L225.1,74.8 M225,75l0.1-0.2
		 M200.5,96.2l0.9-0.4 M159.8,149.4L159,149 M199.4,96.7l1.1-0.5 M224.9,75.3L225,75 M224.7,75.7l0.2-0.4 M268.8,716l7.3,38.7
		 M265,533.2l-5.2,67.3 M256.6,472.7v5.6 M260.2,623.6l8.6,82.5 M72.1,455.9l3.6,1.4 M259.8,600.5l0.9,1.5 M261.5,603.3l0.7,1.3
		 M70.5,669.8l-0.2-2 M262.2,604.6l0.6,1.3 M206.4,87.8l0.2,0.3 M262.8,605.9l0.5,1.2 M70.6,671.7l-0.2-1.8 M263.2,607.2l0.3,1.2
		 M263.6,608.3l0.2,1.2 M70.8,673.4l-0.2-1.7 M263.8,609.5l0.1,1.1 M176.8,96.2l2.1,1.2 M264,610.6l0.1,1.1 M70.9,675.1l-0.2-1.7
		 M264,611.7l0,1.1 M264,612.8l-0.1,1.1 M71.1,676.8l-0.2-1.7 M263.9,613.8l-0.2,1.1 M263.7,614.9l-0.3,1 M71.3,678.5l-0.2-1.7
		 M263.4,615.9l-0.3,1 M71.8,682.4l-0.2-2 M263.1,617l-0.4,1.1 M262.8,618.1l-0.4,1.1 M262.3,619.1l-0.5,1.1 M93.9,791.9l-6.6-5.3
		 M261.9,620.2l-0.5,1.1 M161.6,149.9l-0.9-0.2 M261.3,621.3l-0.6,1.1 M72.1,684.6l-0.3-2.2 M260.8,622.5l-0.6,1.2 M174.7,94.7
		l2.1,1.5 M71.5,680.4l-0.2-1.8 M72.4,687.1l-0.3-2.5 M178.9,97.4l2.2,0.9 M276.2,756.7l0,1.9 M268.8,706.1v9.8 M38.2,464.6
		l-0.1-2.3 M276.2,754.6l0,2.1 M276.2,758.6l0,1.7 M276.1,760.4l0,1.6 M73.2,693.1l-0.5-3.2 M276.1,762l0,1.4 M172.6,92.8l2.1,1.9
		 M276.1,763.4l-0.1,1.3 M73.8,696.8l-0.5-3.6 M276,764.7l-0.1,1.2 M275.9,766l-0.1,1.2 M275.8,767.1l-0.1,1.1 M151.9,119.8l0.2-0.1
		 M275.7,768.2l-0.1,1.1 M275.6,769.3l-0.2,1.1 M275.4,770.4l-0.2,1.1 M275.2,771.4l-0.2,1.1 M275,772.5l-0.2,1.1 M274.8,773.7
		l-0.2,1.2 M274.6,774.9l-0.3,1.3 M273.3,780.8l-0.4,1.9 M175.3,31l0.5-0.1 M143.1,279l0.1-9.4 M38.3,467.2l-0.1-2.6 M174.7,31.2
		l0.5-0.2 M38.4,470.1l-0.1-2.9 M38.4,473.2l0-3.2 M174.1,31.5l0.6-0.2 M38.4,476.7l0-3.5 M173.5,31.8l0.6-0.3 M38.3,480.5l0.1-3.8
		 M172.8,32.2l0.7-0.4 M38.2,484.6l0.1-4.1 M38,489.1l0.2-4.5 M172.1,32.7l0.7-0.5 M50.2,442.6l1.9,1.8 M157.2,162.4l1.3,3.5
		 M48.6,440.7l1.7,1.9 M37,504.7l0.4-5.6 M289.6,816.8l0,0.4 M289.6,816.4l0,0.3 M68.7,454.4l3.4,1.5 M171.4,33.3l0.7-0.6
		 M65.4,452.9l3.3,1.5 M151.7,119.9l0.2-0.1 M62.3,451.3l3.1,1.6 M170.7,33.9l0.7-0.7 M59.4,449.6l2.9,1.6 M56.8,447.9l2.7,1.7
		 M170,34.8l0.7-0.8 M54.3,446.2l2.4,1.7 M206,87.4l0.2,0.2 M52.1,444.4l2.2,1.8 M37,451.3L37,451.3 M47.2,438.7l1.4,1.9
		 M289.6,817.1l0,0.4 M289.6,817.5l0,0.4 M289.6,818l0.1,0.5 M289.7,818.5l0.1,0.5 M289.8,819l0.1,0.6 M289.9,819.5l0.1,0.6
		 M290,820.1l0.2,0.6 M290.2,820.8l0.2,0.7 M290.5,821.4l0.3,0.7 M290.7,822.2l0.3,0.8 M291.1,822.9l0.4,0.8 M291.5,823.7l0.5,0.9
		 M292,824.6l0.5,0.9 M292.5,825.5l0.6,0.9 M293.1,826.4l0.7,1 M293.8,827.4l0.8,1 M294.6,828.4l0.9,1.1 M295.5,829.5l1,1.1
		 M170.6,90.5l2,2.3 M208.1,89.9l0.3,0.5 M143.1,299.6l0-10.6 M206.6,88l0.4,0.5 M198.1,97.3l1.3-0.5 M118.7,470.1l4.2,0.8
		 M207,33.7l1.6,0 M165.5,93l0.1,0 M112.4,468.1l2.8,1 M115.2,469.2l3.5,0.9 M165.1,92.9l0.2,0 M158.9,86.8l0.2,0.5 M164.3,92.8
		l0.3,0.1 M159.9,89.7l0.1,0.1 M164,92.7l0.3,0.1 M159.7,89.3l0.1,0.2 M163.6,92.6l0.3,0.1 M159.8,89.5l0.1,0.2 M159.6,89l0.1,0.3"
		/>
	<path class="st9" d="M157.7,69l-0.1,1.1 M164.6,92.8l0.3,0 M157.5,74.3l0,1 M157.5,75.4l0,1 M157.8,68l-0.1,1 M211.8,33.6l1.7,0
		 M152,129l0.3-0.9 M161.5,91.6l0.3,0.2 M152.3,128.1l0.3-0.9 M159.5,88.6l0.1,0.3 M159.4,88.2l0.1,0.4 M163.3,92.5l0.3,0.1
		 M162.9,92.4l0.4,0.1 M157.7,78.4l0.1,0.9 M162.6,92.2l0.4,0.1 M157.6,76.4l0.1,1 M162.2,92l0.4,0.2 M157.6,77.4l0.1,1 M161.9,91.8
		l0.3,0.2 M151.7,129.9l0.3-0.9 M158.6,62.2l-0.2,0.9 M158.1,64.9l-0.1,1 M230.1,28.4l-1.1-1.4 M151.2,131.6l0.2-0.8 M157.9,66.9
		l-0.1,1 M231.2,29.8l-1-1.4 M232.2,31.3l-1-1.5 M158,65.9l-0.1,1 M233.1,32.8l-0.9-1.5 M150.9,133.2l0.1-0.8 M164.8,92.9l0.2,0
		 M165.3,92.9l0.2,0 M151.1,132.4l0.2-0.8 M220.8,798.2l-1.2-0.6 M234.8,36.2l-0.8-1.7 M219.5,797.6l-1.1-1.8 M157.5,72.2l0,1.1
		 M157.6,71.1l0,1.1 M157.6,70.1l0,1.1 M157.5,73.3l0,1.1 M237.2,47.1l-0.3-2.5 M237,44.6l-0.4-2.3 M216.3,123.5l0.2,0 M201.6,684.5
		l-1.6-5.7 M143.9,317.1l-0.2-1.6 M237.3,52.8l0-3 M203.3,690.4l-1.7-5.9 M218.4,795.7l-1-2.9 M217.4,792.9l-1-3.8 M150.8,133.9
		l0.1-0.7 M216.4,789l-0.9-4.7 M215.5,784.4l-0.8-5.4 M235.5,38.1l-0.7-1.9 M214.7,779l-0.8-6 M213.9,772.9l-0.8-6.5 M158.4,63.1
		l-0.2,0.9 M213.1,766.4l-0.7-6.9 M212.4,759.5l-0.7-7.2 M236.1,40.1l-0.6-2 M151.4,130.8l0.3-0.9 M210.2,737.6l-0.7-7.3
		 M209.5,730.3l-0.7-7.1 M236.6,42.2l-0.5-2.2 M208.8,723.2l-0.8-6.8 M208,716.3l-0.8-6.4 M234,34.5l-0.9-1.6 M207.2,709.9l-0.9-5.9
		 M150.7,135.1l0-0.6 M206.3,703.9l-0.9-5.3 M205.4,698.6l-1-4.5 M204.4,694.1l-1.1-3.7 M237.4,49.8l-0.1-2.8 M150.5,137l0-1
		 M155.6,167.2l0.5-1.6 M147.9,543.4l1.3,2.7 M200,678.8l-1.5-5.4 M198.5,673.4l-1.4-5.2 M158.9,61.4l-0.2,0.8 M197.1,668.3l-1.3-5
		 M195.8,663.3l-1.2-4.8 M237.1,56.1l0.2-3.2 M194.6,658.6l-1.1-4.6 M193.5,654l-1.1-4.4 M150.7,134.5l0.1-0.6 M192.5,649.5l-1-4.3
		 M191.5,645.2l-0.9-4.2 M236.8,59.6l0.4-3.5 M190.5,641.1l-0.9-4.1 M189.6,637l-0.9-4 M159.1,60.6l-0.2,0.8 M188.8,633l-0.8-4
		 M236.2,63.3l0.5-3.8 M158.3,64l-0.2,1 M184.7,613.4l-0.8-4 M156.1,165.6l0.5-1.6 M183.9,609.4l-0.9-4 M156.7,164l0.6-1.6
		 M183,605.4l-0.9-4.1 M156.5,37.9l-0.8,2.8 M182.1,601.3l-1.7-3 M161.5,151.9l0.9-1.9 M178.6,595l-1.8-3.5 M180.4,598.2l-1.8-3.3
		 M157.5,35l-1,2.8 M176.8,591.4l-1.8-3.7 M175.1,587.7l-1.8-3.9 M160.7,153.7l0.8-1.9 M173.3,583.8l-1.8-4 M158.7,32.2l-1.2,2.9
		 M171.5,579.8l-1.8-4.1 M159.9,155.5l0.8-1.8 M169.7,575.7l-1.7-4.2 M159,87.3l0.2,0.5 M168,571.4l-1.7-4.3 M159.2,157.3l0.7-1.8
		 M166.3,567.1l-1.7-4.3 M160.2,29.4l-1.5,2.8 M164.6,562.8l-1.6-4.3 M158.5,159l0.7-1.7 M163,558.5l-1.6-4.3 M161.4,554.1l-1.5-4.3
		 M157.8,160.7l0.6-1.7 M159.8,549.9l-1.5-4.2 M162,26.6l-1.8,2.8 M158.3,545.7l-1.4-4.1 M157.2,162.4l0.6-1.7 M156.9,541.6
		l-1.3-3.9 M159.2,87.8l0.2,0.4 M155.6,537.7l-1.3-3.8 M159.3,59.9l-0.2,0.7 M154.3,533.9l-1.2-3.6 M153.1,530.3l-1.1-3.4
		 M152,526.9l-1-3.1 M235.5,67.4l0.7-4.1 M151,523.8l-4.6,16.9 M146.4,540.7l1.5,2.7 M149.2,546.1l1,2.7 M155.1,168.8l0.5-1.6
		 M150.2,548.9l0.8,2.7 M166.4,21.3l-2.4,2.6 M150.9,551.6l0.5,2.7 M154.7,170.4l0.5-1.6 M151.5,554.3l0.3,2.7 M151.8,556.9l0.2,2.6
		 M154.2,172.1l0.5-1.6 M152,559.5l0,2.5 M169.1,18.9l-2.7,2.4 M151.9,562.1l-0.2,2.5 M153.8,173.7l0.4-1.6 M151.8,564.5l-0.3,2.4
		 M158.7,86.2l0.2,0.6 M151.5,566.9l-0.4,2.3 M153.3,175.4l0.4-1.7 M151,569.2l-0.5,2.2 M172.1,16.6l-3.1,2.2 M150.5,571.4l-0.6,2
		 M152.9,177.1l0.4-1.7 M149.9,573.4l-0.7,1.9 M158.6,85.6l0.2,0.6 M149.2,575.3l-0.8,1.8 M152.4,178.8l0.4-1.7 M148.4,577.1
		l-0.8,1.6 M164,23.9l-2,2.7 M147.6,578.7l-0.8,1.4 M146.8,580.1l-0.8,1.2 M146,581.3l-0.8,1 M161.2,91.4l0.3,0.2 M145.2,582.3
		l-0.8,0.8 M225.7,23l-3.5-3.3 M158,61.8l-0.2,0.3 M144.4,583.2l0.8,2.6 M145.2,585.7l0.6,2.4 M158.2,61.5l-0.2,0.3 M145.8,588.1
		l0.5,2.2 M160.9,91.1l0.3,0.3 M146.3,590.3l0.4,2 M146.8,592.2l0.3,1.8 M147,594l0.2,1.6 M158.5,61.2l-0.2,0.3 M147.2,595.6
		l0.1,1.5 M160.6,90.8l0.3,0.3 M147.3,597.1l0,1.3 M147.3,598.4l-0.1,1.2 M147.2,599.7l-0.2,1.1 M158.7,60.8l-0.3,0.4 M147.1,600.8
		l-0.2,1.1 M160.4,90.5l0.3,0.3 M146.8,601.9l-0.3,1 M146.5,602.8l-0.4,0.9 M146.2,603.8l-0.4,0.9 M145.7,604.7l-0.5,0.9
		 M160.1,90.2l0.2,0.3 M145.3,605.6l-0.5,0.9 M144.8,606.5l-0.5,0.9 M144.3,607.4l-0.6,0.9 M160,89.9l0.2,0.3 M143.7,608.3l-0.6,1
		 M143.2,609.3l-0.6,1.1 M175.6,14.6l-3.4,2 M135.1,125.7l-3.9,1.1"/>
	<path class="st9" d="M157.4,748.6l-0.2,3.6 M157.7,744.9l-0.3,3.8 M157.6,742.5l0.1,2.4 M147.9,664.4l1.1,8.8 M157.3,738.9l0.3,3.6
		 M146.8,655.8l1.1,8.6 M156.8,734.2l0.5,4.7 M145.8,647.5l1,8.3 M156.1,728.6l0.7,5.6 M144.9,639.6l0.9,7.9 M155.4,722.2l0.8,6.4
		 M144.2,632.2l0.8,7.4 M154.4,715.1l0.9,7.1 M143.5,625.5l0.7,6.7 M143,619.5l0.5,6 M142.7,614.4l0.3,5.1 M142.6,610.4l0.1,4
		 M157.1,752.2l-0.1,3.4 M159.1,804.2v10.5 M163.6,793.9v7 M138.9,124.6l-3.8,1.1 M157,755.7l0,3.2 M157,758.9l0.1,3.1 M142.6,123.4
		l-3.7,1.2 M157.1,762l0.2,2.9 M157.2,764.9l0.2,2.7 M146.3,122.1l-3.6,1.3 M157.5,767.6l0.3,2.6 M157.7,770.1l0.3,2.4 M149.8,120.7
		l-3.5,1.4 M158.1,772.5l0.4,2.2 M158.4,774.7l0.4,2.1 M119.5,129.6l-3.9,0.9 M158.8,776.8l0.4,1.9 M256,829.8l0.7,0.9 M159.2,778.7
		l0.4,1.7 M123.4,128.7l-3.9,0.9 M159.7,780.4l0.4,1.6 M160.1,782l0.4,1.4 M127.3,127.7l-3.9,0.9 M160.5,783.5l0.4,1.3 M160.9,784.8
		l0.4,1.1 M75.4,142.9l-1.3,1.5 M161.3,785.9l0.3,1 M161.6,786.9l0.3,0.9 M155.9,64.8l-0.3-0.5 M74.2,144.4l-1.2,1.7 M163.6,800.9
		l-4.5,3.3 M167.4,84.8l0-0.4 M226.9,67.1l0.1-1.1 M228,93.2l-0.2,0.3 M76.8,141.5l-1.3,1.4 M78.1,140.3l-1.4,1.2 M226.9,62.3
		l-0.2-0.7 M79.6,139.4l-1.5,1 M227,63.1l-0.1-0.8 M81.1,138.6l-1.5,0.8 M225.2,74.7l0.5-1.8 M82.8,138.1l-1.6,0.6 M226.5,60.9
		l-0.3-0.7 M84.5,137.7l-1.7,0.3 M232.8,86.9l-0.2,0.3 M57.3,180.8l-2.7,5.7 M54.7,186.5l-2.5,6.1 M256.7,830.7l0.8,0.8
		 M159.1,816.4l-0.1,1.5 M159.1,814.8l0,1.6 M226.1,71.2l0.3-1.5 M226.4,69.7l0.3-1.4 M155.4,63.7l-0.2-0.5 M166.5,92.1l0.1-0.4
		 M226.2,60.2l-0.3-0.6 M86.3,137.6l-1.8,0.1 M19.7,363l-0.2,6.6 M227.1,64.9l0-0.9 M227,65.9l0.1-1 M27.7,298.4l-0.6,4.5
		 M226.7,68.3l0.2-1.2 M28.4,293.4l-0.7,5 M29.3,287.9l-0.8,5.4 M30.2,282.1l-0.9,5.9 M31.2,275.9l-1,6.2 M32.4,269.4l-1.1,6.5
		 M33.6,262.6l-1.2,6.8 M34.9,255.6l-1.3,7 M36.4,248.5l-1.5,7.1 M225.7,72.9l0.4-1.7 M37.9,241.3l-1.6,7.2 M39.6,234l-1.7,7.3
		 M227.1,64l-0.1-0.9 M41.4,226.8l-1.8,7.2 M226.7,61.6l-0.2-0.7 M43.3,219.6l-1.9,7.2 M45.3,212.6l-2,7.1 M47.5,205.7l-2.1,6.9
		 M232.6,87.2l-0.2,0.3 M49.8,199l-2.3,6.7 M281,835l-0.6,0.1 M52.2,192.6l-2.4,6.4 M258.3,832.2l0.9,0.7 M25.8,307.4l-1.1,5
		 M24.7,312.4l-1,5.5 M166.7,91.7l0.1-0.5 M60.1,175.5l-2.8,5.3 M233,86.5l-0.2,0.3 M27.2,433.3l0.4,2.2 M26.7,431.1l0.4,2.2
		 M20,356.3l-0.3,6.7 M20.4,349.6l-0.4,6.7 M166.4,92.5l0.2-0.4 M20.9,342.9l-0.5,6.7 M21.4,336.4l-0.6,6.6 M22.1,329.9l-0.7,6.4
		 M22.9,323.8l-0.8,6.2 M232.4,87.5l-0.2,0.3 M23.7,317.9l-0.9,5.9 M21.9,413.5l0.7,1.5 M22.5,415.1l0.6,1.7 M263.8,835.2l1.4,0.6
		 M27,302.8l-1.2,4.5 M37.1,451.2L37.1,451.2 M234.5,82.6l-0.1,0.4 M257.5,831.4l0.8,0.7 M233.3,85.8l-0.2,0.4 M28.4,439.6l0.4,2
		 M28.8,441.6l0.4,1.9 M233.5,85.4l-0.2,0.4 M29.1,443.5l0.4,1.8 M29.5,445.3l0.4,1.6 M233.6,85l-0.2,0.4 M29.9,446.9l0.4,1.5
		 M233.8,84.6l-0.1,0.4 M30.2,448.4l0.4,1.3 M262.5,834.7l1.3,0.6 M26.3,428.9l0.4,2.2 M233.9,84.2l-0.1,0.4 M25.8,426.7l0.5,2.2
		 M25.3,424.6l0.5,2.1 M67,829.1l0.3-1.4 M234,83.8l-0.1,0.4 M67.3,827.7l0.4-1.3 M24.8,422.5l0.5,2.1 M67.7,826.4l0.4-1.2
		 M68.1,825.2l0.5-1.1 M24.3,420.5l0.5,2 M68.6,824.1l0.5-1 M280.4,835l-0.6,0.1 M69.1,823.2l0.5-0.9 M23.7,418.6l0.6,1.9
		 M69.6,822.3l0.5-0.8 M217.4,59.8l0.3,0.3 M70.1,821.5l0.5-0.6 M23.1,416.8l0.6,1.8 M70.5,820.9l0.4-0.5 M233.1,86.2l-0.2,0.4
		 M71,820.4l0.4-0.4 M36.7,450.3l0.2,0.1 M71.3,820l0.3-0.3 M234.3,83l-0.1,0.4 M71.7,819.7l0.2-0.1 M260.2,833.5l1.1,0.6
		 M71.9,819.6l0.1,0 M36.9,450.5l0.1,0.1 M21.2,412.1l0.7,1.4 M216.8,59.1l0.3,0.4 M37,451.3l10.2-12.6 M265.2,835.8l1.5,0.6
		 M37.1,451.2L37.1,451.2 M234.6,82.2l-0.1,0.4 M37.1,451.1L37.1,451.1 M217.1,59.5l0.3,0.3 M37.1,451L37.1,451 M234.7,81.8
		l-0.1,0.4 M37.1,450.9l0,0.1 M37.1,450.7l0,0.1 M234.9,81.5l-0.1,0.4 M37,450.6l0.1,0.1 M281.6,835l-0.6,0 M285,832.7l-0.5,0.7
		 M167.5,84.4l0.1-0.4 M234.2,83.4l-0.1,0.4 M288.7,824.2l-0.4,1.4 M159.1,814.8l-1.5,1.2 M235,81.1l-0.2,0.3 M155.6,816.7l-2.5,0.2
		 M157.6,816l-2,0.7 M287,829.1l-0.5,1 M36.5,450.2l0.2,0.1 M153,816.9l-3-0.2 M36.2,450.1l0.3,0.1 M150.1,816.8l-3.3-0.5
		 M228.6,92.1l-0.2,0.4 M146.7,816.3l-3.7-0.8 M35.9,450l0.4,0.1 M143.1,815.4l-3.9-1.1 M289,822.7l-0.3,1.4 M139.2,814.4l-4.1-1.3
		 M35.4,449.9l0.4,0.1 M135.1,813.1l-4.2-1.4 M216.4,58.7l0.4,0.4"/>
	<path class="st9" d="M130.9,811.7l-4.2-1.5 M34.9,449.8l0.5,0.1 M228.4,92.5l-0.2,0.4 M34.3,449.7l0.6,0.1 M235.4,80.5l-0.2,0.3
		 M33.5,449.7l0.7,0 M32.7,449.6l0.8,0 M285.5,832l-0.5,0.8 M31.7,449.6l1,0 M235.2,80.8l-0.2,0.3 M30.6,449.7l1.1,0 M165.4,48.9
		l0.8-0.2 M255.4,828.8l0.6,0.9 M155.7,64.2l-0.2-0.5 M225.5,59l-0.4-0.6 M234.1,67.4h1.4 M225.9,59.6l-0.4-0.6 M164.7,49.1l0.7-0.2
		 M165.6,93l0.3-0.1 M165.9,92.9l0.3-0.2 M289.5,818.1l-0.1,1.6 M283.9,833.9l-0.5,0.4 M209.4,55l1.2,0.3 M210.6,55.2l1.1,0.3
		 M208,54.8l1.4,0.2 M287.5,828l-0.5,1.1 M206.4,54.7l1.5,0.1 M196,55.7l2.5-0.5 M196.7,177.8l0.2-0.8 M196.1,178.5l0.7-0.7
		 M195,179.2l1.1-0.7 M202.8,54.7l1.9-0.1 M193.6,179.8l1.4-0.6 M191.9,180.4l1.7-0.5 M187.6,181.1l2.2-0.3 M185.2,181.2l2.4-0.1
		 M284.4,833.4l-0.5,0.5 M182.7,181.2l2.6,0.1 M180,180.9l2.7,0.3 M198.5,55.3l2.3-0.3 M177.3,180.4l2.7,0.5 M174.6,179.7l2.7,0.7
		 M171.9,178.7l2.7,1 M211.7,55.6l1,0.4 M228.8,91.7l-0.2,0.4 M216,58.2l0.4,0.5 M200.8,54.9l2.1-0.2 M189.9,180.8l2-0.4
		 M229.1,91.3l-0.2,0.4 M229.3,90.9l-0.3,0.4 M215.5,57.8l0.5,0.5 M229.6,90.5l-0.3,0.4 M229.9,90l-0.3,0.4 M232.2,87.7l-0.5,0.5
		 M230.3,89.6l-0.4,0.4 M214.3,56.8l0.7,0.5 M230.7,89.1l-0.4,0.5 M286,831.1l-0.5,0.9 M231.1,88.7l-0.4,0.5 M213.5,56.4l0.8,0.5
		 M231.6,88.2l-0.5,0.5 M214.9,57.3l0.6,0.5 M166.1,92.7l0.2-0.3 M204.7,54.6l1.7,0 M286.5,830.2l-0.5,0.9 M228.2,92.8l-0.2,0.3
		 M227.9,93.5l-0.2,0.3 M212.7,55.9l0.9,0.4 M227.7,93.8l-0.2,0.3 M227.5,94l-0.2,0.2 M227.3,94.3l-0.2,0.2 M287.9,826.8l-0.4,1.2
		 M227.1,94.5l-0.2,0.2 M289.2,821.3l-0.2,1.5 M226.9,94.7l-0.2,0.1 M259.2,832.8l1,0.6 M261.3,834.1l1.2,0.6 M158.6,165.9l1.7,3.1
		 M289.4,819.7l-0.2,1.6 M96.2,801.5l5.1-13.9 M169.3,177.4l2.6,1.3 M166.7,175.8l2.5,1.6 M164.4,173.9l2.4,1.9 M288.3,825.5
		l-0.4,1.3 M162.2,171.6l2.2,2.3 M160.2,168.9l1.9,2.7 M37.2,453.2l-0.1-0.8 M101.2,787.7l-7.3,4.2 M37.6,456.8l-0.1-1.4 M217.8,124
		l0.5,0.2 M111.8,131.3l-3.7,0.8 M38.1,462.3l-0.1-2.1 M87.4,786.6l-0.7-2.7 M86.6,783.9l-0.7-2.6 M85.9,781.3l-0.7-2.5
		 M218.8,124.4l0.5,0.2 M83.9,774.1l-0.6-2.3 M83.3,771.8l-0.6-2.2 M219.3,124.7l0.5,0.3 M82.7,769.6l-0.6-2.2 M82.1,767.4l-0.5-2.2
		 M81.6,765.2l-0.5-2.2 M81.1,763.1l-0.4-2.2 M219.9,124.9l0.5,0.3 M80.7,760.9l-0.4-2.2 M80.4,758.7l-0.3-2.2 M80.1,756.4l-0.2-2.3
		 M79.8,754.2l-0.2-2.3 M79.7,751.8l-0.1-2.4 M79.6,749.4l0-2.5 M199.8,95.8l-1.9,0.6 M79.6,746.9l0.1-2.6 M79.6,744.3l0.2-2.7
		 M220.4,125.2l0.5,0.3 M79.8,741.5l0.3-2.9 M151.5,58.5l-0.2,0.2 M160.5,52.2l0.3-0.5 M200.1,92.8l-0.7-0.6 M164.1,49.4l0.7-0.2
		 M64.9,651.6l-4.8-15 M70.3,667.9l-5.4-16.3 M75.7,457.3l3.7,1.4 M60,636.6l-4.2-13.7 M163.5,49.6l0.6-0.3 M55.8,622.9l-3.7-12.6
		 M156.8,119.4l0.2-0.1 M52.1,610.4l-3.2-11.5 M162.9,49.9l0.6-0.3 M48.9,598.9l-2.7-10.5 M200.8,93.5l-0.7-0.7 M46.2,588.4
		l-2.3-9.5 M162.4,50.2l0.5-0.3 M43.9,578.9l-1.9-8.7 M42,570.3l-1.5-7.9 M161.9,50.5l0.5-0.3 M40.4,562.4l-1.2-7.2 M201.6,94.3
		l-0.8-0.8 M39.2,555.2l-0.9-6.6 M161.5,50.9l0.4-0.4 M38.3,548.6l-0.7-6 M37.7,542.6l-0.4-5.6 M161.1,51.3l0.4-0.4 M37.2,537
		l-0.3-5.2 M36.9,531.9l-0.1-4.9 M160.8,51.7l0.3-0.4 M36.8,527l0-4.6 M36.8,522.4l0-4.5 M160,53.4l0.2-0.6 M37,509.2l0-4.5
		 M216,123.1l0.2,0.3 M159.8,54l0.2-0.7 M37.3,454.2l-0.1-1 M201.7,95.1l-2,0.7 M160.2,52.8l0.3-0.5 M159.7,54.8l0.2-0.8
		 M159.5,55.6l0.1-0.8 M37.9,460.2l-0.2-1.8 M37.8,458.4l-0.2-1.6 M37.5,455.4l-0.1-1.2 M215.8,122.7l0.1,0.4 M37.1,452.4l-0.1-0.6
		 M37.1,451.8l0-0.5 M159.4,56.5l0.1-0.9 M217,123.7l0.4,0.1 M79.4,458.7l3.8,1.3 M216.5,123.5l0.2,0.1 M216.7,123.6l0.3,0.1
		 M83.3,460.1l4,1.3 M159.3,58.7l0-1.1 M87.2,461.4l4,1.2 M91.3,462.6l4.1,1.2 M159.4,57.5l0.1-1 M95.4,463.8l4.2,1.1 M218.3,124.2
		l0.5,0.2 M99.6,465l4.2,1.1 M166.2,46.4l0.2-2 M103.8,466.1l4.3,1.1 M166.4,44.4l0.3-1.9 M108.1,467.1l4.3,1 M159.3,59.9l0-1.2
		 M168.7,36.8l0.6-1.1 M168.1,38l0.6-1.2 M216.1,123.4l0.2,0.1 M167.6,39.3l0.5-1.4 M167.1,40.8l0.5-1.5 M127.6,471.5l2.6,0.3
		 M169.3,35.7l0.7-0.9 M122.9,470.8l4.7,0.6 M217.4,123.8l0.4,0.2 M221,125.5l0.5,0.3 M166.7,42.5l0.4-1.7 M178.9,31.3l2.4,0.4
		 M181.3,31.7l2.3,0.4 M166.2,48.6l0.1-2.2 M202.4,95.2l-0.8-0.9 M115.6,130.4l-3.8,0.8 M197.2,33.5l1.7,0.1 M195.4,33.4l1.7,0.1
		 M193.6,33.2l1.8,0.1 M191.8,33.1l1.9,0.2"/>
	<path class="st9" d="M189.9,32.9l1.9,0.2 M187.9,32.6l2,0.2 M185.8,32.4l2.1,0.3 M215.7,122.1l0.1,0.5 M183.6,32l2.2,0.3
		 M223.9,127.7l0.1,0.2 M223.8,127.5l0.1,0.2 M222,126.1l0.5,0.3 M222.8,93.5l0-0.4 M176.4,30.8l2.5,0.5 M222.8,93.1l0-0.5
		 M222.9,92.6L223,92 M221.5,125.8l0.5,0.3 M223,92l0.1-0.6 M222.5,126.4l0.4,0.3 M222.9,126.7l0.4,0.3 M223.3,127l0.3,0.3
		 M223.6,127.2l0.2,0.3 M151.3,58.8l-0.2,0.5 M151.6,58.4l-0.1,0.1 M157.6,85.5l0.1-0.2 M157.6,85.3l0-0.2 M156.9,86.5l0.2-0.1
		 M144,317.4l0-0.2 M156.7,91.1l0.2,1.3 M214.1,112.1l-1,1.1 M157.3,86l0.1-0.2 M157.2,86.2l0.1-0.2 M157.1,86.3l0.1-0.2
		 M157.4,85.9l0.1-0.2 M155.8,86.9l0.3,0 M156.1,86.9l0.2-0.1 M156.3,86.8l0.2-0.1 M156.5,86.7l0.2-0.1 M297,837.8l-0.1-1.6
		 M296.9,836.3l-0.1-1.5 M157.5,85.7l0.1-0.2 M296.7,834.8l-0.1-1.5 M156.7,86.6l0.2-0.1 M296.6,833.3l-0.1-1.4 M155.5,86.9l0.3,0
		 M296.6,832l0-1.3 M209.1,117.3l-0.9,0.9 M210,116.4l-1,0.9 M159.9,102.4l0.6,1.3 M156.9,92.5l0.2,1.3 M195.8,127.9l-1.3,0.7
		 M194.5,128.5l-1.3,0.6 M198.3,126.4l-1.2,0.8 M197.1,127.1l-1.3,0.7 M211,115.4l-1,1 M161.1,105.1l0.7,1.5 M159.3,101.1l0.6,1.3
		 M215.1,110.9l-1,1.2 M157.1,93.7l0.2,1.2 M157.6,96.2l0.3,1.2 M158,97.4l0.4,1.2 M157.3,95l0.3,1.2 M184.6,131.3l-1.6,0.1
		 M191.9,129.7l-1.4,0.5 M158.4,98.6l0.4,1.2 M193.2,129.1l-1.4,0.6 M165.3,113.5l1,2 M212,114.3l-1,1 M199.5,125.5l-1.2,0.8
		 M200.7,124.7l-1.2,0.9 M201.8,123.8l-1.1,0.9 M161.9,106.6l0.8,1.6 M186.1,131.1l-1.5,0.1 M187.6,130.9l-1.5,0.2 M189,130.6
		l-1.5,0.3 M156.6,89.7l0.1,1.4 M158.8,99.9l0.5,1.2 M160.5,103.7l0.7,1.4 M213.1,113.2l-1,1.1 M190.5,130.2l-1.4,0.4 M222.9,43.7
		l0.1,0.4 M215.5,120.8l0.1,0.7 M223,44.1l0.1,0.3 M187.4,83.3l0.4,0 M223,44.4l0.1,0.3 M279.1,835.3l-0.7,0.1 M283.4,834.4
		l-0.5,0.3 M223.1,44.7l0.1,0.2 M186.9,83.3l0.4,0.1 M215.5,114.1l-0.1,1 M202.9,85.8l0.6,0.2 M202.2,85.6l0.7,0.2 M215.6,113.1
		l-0.1,1 M201.4,85.4l0.8,0.2 M279.8,835.1l-0.7,0.1 M269.6,836.8l-0.8,0 M200.4,85.1l0.9,0.2 M215.7,112.2l-0.2,1 M199.4,84.9
		l1.1,0.2 M198.2,84.6l1.2,0.3 M215.9,111.3l-0.2,0.9 M196.8,84.4l1.4,0.3 M223.2,55.4L223.2,55.4 M223.3,55.5L223.3,55.5
		 M195.3,84.1l1.5,0.3 M216.4,109.7l-0.3,0.8 M154.7,145.6l-0.8-0.9 M206.2,87.6l0.2,0.2 M217.1,108.4l-0.3,0.6 M221,88.9l0.1-1.2
		 M155.5,146.5l-0.8-0.8 M226.1,77.2l0.4-1.2 M222.3,19.7l-3.5-2.8 M226.8,24.4l-1.1-1.4 M225.6,78.5l0.5-1.3 M218.8,17l-3.4-2.3
		 M211,94.3l1,0.4 M153.2,143.9l-0.6-0.9 M153.9,144.8l-0.7-0.9 M220.9,90l0.1-1.2 M223,80.1l0.3-0.9 M226.5,76l0.4-1.1 M222.7,81
		l0.3-1 M227,74.9l0.4-1 M227.4,73.9l0.4-0.9 M222.4,82.1l0.3-1 M227.8,73l0.4-0.8 M228.2,72.2l0.4-0.8 M222.1,83.1l0.3-1.1
		 M228.7,71.4l0.4-0.7 M229.1,70.7l0.4-0.6 M221.8,84.2l0.3-1.1 M229.5,70.1l0.4-0.6 M229.9,69.5l0.4-0.5 M221.6,85.4l0.3-1.1
		 M230.4,69l0.4-0.4 M230.8,68.6l0.4-0.3 M221.3,86.5l0.2-1.2 M231.2,68.3l0.4-0.3 M231.7,68l0.5-0.2 M221.1,87.7l0.2-1.2
		 M232.1,67.8l0.5-0.2 M232.6,67.6l0.5-0.1 M233.1,67.5l0.5-0.1 M233.6,67.4l0.5,0 M220.9,91.2l0-1.2 M193.3,8.9l-2.7,0.2
		 M190.6,9.2l-2.5,0.4 M188.1,9.6l-2.3,0.5 M185.7,10.1l-2.2,0.6 M183.6,10.8l-1.9,0.7 M181.6,11.5l-1.7,0.7 M179.9,12.2l-1.5,0.7
		 M178.4,12.9l-1.2,0.7 M177.2,13.5l-1,0.6 M176.3,14.1l-0.7,0.5 M157.7,62.3l-0.1,0.2 M157.8,80.2l0,0.9 M157.9,62.1l-0.2,0.2
		 M154.6,46l-0.3,2.4 M154.3,48.4l-0.2,2.3 M158,82.7l0.1,0.8 M154.1,50.7l-0.1,2.1 M154,52.7l0,1.8 M157.9,81.9l0.1,0.8
		 M153.9,54.5l0,1.5 M153.9,56.1l0,1.2 M157.9,81.1l0.1,0.8 M154,57.3l0,0.9 M154,58.2l0,0.4 M221.7,100.5l-0.6,1.4 M157.2,63.1
		l-0.1,0.1 M157.1,63.2l-0.1,0.1 M157,63.3l-0.1,0.2 M156.5,64l-0.2,0.2 M156.3,64.2l-0.2,0.2 M156.1,64.5l-0.2,0.3 M222.2,99.1
		l-0.5,1.4 M219.7,104.5l-0.8,1.3 M154.1,60l0-0.2 M154.1,59.8l0-0.2 M216.1,109.7l-1,1.2 M154.1,59.6l0-0.2 M154,59.4l0-0.2
		 M217.1,108.4l-1,1.3 M154,59.2l0-0.2 M154,59l0-0.2 M218,107.2l-0.9,1.3 M154,58.8l0-0.2 M270.4,836.8l-0.8,0 M222.9,93.7l0,1.3
		 M267.4,836.6l-0.7-0.2 M273.6,836.4l-0.8,0.1 M282.4,834.9L282,835 M282.9,834.7l-0.5,0.2 M272.8,836.6l-0.8,0.1 M274.4,836.3
		l-0.8,0.2 M275.2,836.1l-0.8,0.2 M268.1,836.7l-0.7-0.1 M271.2,836.8l-0.8,0.1 M282,835l-0.4,0 M272,836.7l-0.8,0.1 M222.5,97.7
		l-0.4,1.4 M186.5,83.2l0.4,0.1"/>
	<path class="st9" d="M222.8,43.2l0.1,0.5 M215.4,119.9l0.1,0.8 M222.7,42.6l0.1,0.5 M186,83.1l0.5,0.1 M222.5,42l0.2,0.6
		 M222.3,41.4l0.2,0.6 M185.6,83l0.5,0.1 M222,40.7l0.3,0.7 M215.4,119l0.1,0.9 M221.7,40l0.4,0.7 M185.1,82.9l0.5,0.1 M221.2,39.3
		l0.4,0.7 M220.7,38.5l0.5,0.7 M184.7,82.7l0.5,0.2 M220.1,37.8l0.6,0.7 M222.9,95l-0.1,1.4 M222.8,96.4l-0.2,1.4 M193.6,83.8
		l1.7,0.3 M191.7,83.4l1.9,0.3 M183.3,82l0.5,0.2 M214.9,34.3l1.3,0.7 M216.3,34.9l1.2,0.7 M184.2,82.5l0.5,0.2 M217.4,35.6l1,0.7
		 M215.3,117.1l0,1 M218.4,36.3l0.9,0.7 M183.8,82.3l0.5,0.2 M219.3,37.1l0.7,0.7 M215.3,118.1l0,0.9 M213.5,33.6l1.5,0.6
		 M216.7,109l-0.3,0.7 M216.2,110.4l-0.2,0.8 M156.3,147.2l-0.8-0.7 M268.8,836.8l-0.7-0.1 M225.2,79.8l0.5-1.4 M143.8,315.5
		l-0.2-1.7 M196.1,8.9l-2.8,0 M143.6,313.8l-0.1-1.8 M158.1,83.5l0.1,0.7 M143.5,312l-0.1-1.8 M143.4,310.3l-0.1-1.8 M143.3,308.5
		l-0.1-1.8 M143.2,306.6l-0.1-1.8 M229,27.1l-1.1-1.4 M143.1,304.8l0-1.8 M143.1,303l0-1.8 M143.1,301.3l0-1.7 M228,25.7l-1.1-1.3
		 M199.1,9.1l-3-0.2 M143.5,252.7l0.2-7.6 M143.6,245.1l0.2-7.1 M202.2,9.5l-3.1-0.4 M143.9,237.9l0.3-6.6 M158.4,84.9l0.2,0.7
		 M144.1,231.3l0.3-6.1 M205.4,10.3l-3.2-0.7 M144.4,225.2l0.3-5.7 M144.8,219.5l0.4-5.2 M208.6,11.3l-3.3-1.1 M145.2,214.3l0.4-4.8
		 M145.6,209.6l0.5-4.4 M212,12.8l-3.3-1.5 M146.1,205.2l0.5-4 M158.3,84.2l0.1,0.7 M146.6,201.2l0.6-3.6 M215.4,14.7l-3.4-1.9
		 M147.2,197.6l0.6-3.3 M147.9,194.3l0.7-2.9 M155.7,40.7l-0.6,2.7 M148.6,191.4l0.8-2.6 M149.3,188.8l0.8-2.3 M276,835.9l-0.8,0.2
		 M150.1,186.5l0.9-2.1 M155.1,43.4l-0.5,2.6 M157.3,62.9l-0.1,0.2 M221.1,101.8l-0.7,1.4 M204,86.2l0.4,0.2 M157.4,62.7l-0.1,0.2
		 M203.5,86l0.5,0.2 M157.6,62.5l-0.1,0.2 M155.2,63.2l-0.2-0.4 M218.9,105.8l-0.9,1.3 M215.6,121.5l0.1,0.6 M191.4,83.4l0.3,0
		 M157.8,79.3l0,0.9 M215.3,116.1l0,1 M155,62.8l-0.2-0.4 M191,83.4l0.4,0 M154.1,60.3l0-0.2 M154.2,60.5l-0.1-0.2 M215.4,115.1
		l-0.1,1 M220.4,103.2l-0.7,1.3 M154.3,60.8l-0.1-0.3 M189.9,83.4l0.4,0 M154.3,61l-0.1-0.3 M189.5,83.4l0.4,0 M154.4,61.4l-0.1-0.3
		 M189.1,83.4l0.4,0 M154.5,61.7l-0.1-0.3 M188.7,83.4l0.4,0 M154.7,62l-0.1-0.4 M187.8,83.4l0.4,0 M278.4,835.4l-0.7,0.2
		 M154.8,62.4l-0.2-0.4 M160,89.8L160,89.8 M188.3,83.4l0.4,0 M131.2,126.8l-3.9,1 M166.7,52.6l0.3,0.2 M167,52.8l0.5,0.2 M167.5,53
		l0.6,0.2 M168,53.2l0.7,0.2 M168.7,53.4l0.8,0.2 M169.5,53.6l0.9,0.2 M170.4,53.8l1,0.2 M171.3,53.9l1,0.2 M172.4,54.1l1.1,0.2
		 M173.4,54.3l1.1,0.2 M174.5,54.5l1.1,0.2 M175.7,54.6l1.2,0.1 M176.8,54.8l1.2,0.1 M178,54.9l1.2,0.1 M179.2,55l1.2,0.1
		 M180.3,55.1l1.1,0.1 M181.5,55.2l1.1,0.1 M182.6,55.3l1,0.1 M183.6,55.3l1,0 M184.6,55.4l0.9,0 M185.2,55l0.3,0.4 M184.7,54.6
		l0.5,0.4 M184,54.2l0.7,0.4 M183.1,53.9l0.8,0.4 M182.2,53.5l1,0.4 M181.1,53.1l1.1,0.4 M179.9,52.8l1.2,0.3 M178.7,52.5l1.2,0.3
		 M177.4,52.2l1.3,0.3 M176.1,51.9l1.3,0.3 M174.8,51.7l1.3,0.2 M173.5,51.5l1.3,0.2 M172.3,51.4l1.2,0.1 M171.1,51.4l1.2,0
		 M170,51.4l1.1,0 M169.1,51.5l1-0.1 M168.2,51.6l0.8-0.2 M167.5,51.9l0.7-0.2 M167,52.2l0.5-0.3 M166.7,52.6l0.3-0.4 M222.8,93.6
		L222.8,93.6 M222.9,93.7L222.9,93.7 M222.9,93.7L222.9,93.7 M222.9,93.8L222.9,93.8 M223,93.9L223,93.9 M223,94L223,94 M223.1,94.1
		L223.1,94.1 M223.2,94.2L223.2,94.2 M223.3,94.3L223.3,94.3 M223.4,94.3l-0.1-0.1 M223.5,94.4l-0.1-0.1 M223.7,94.5l-0.2-0.1
		 M223.9,94.6l-0.2-0.1 M224.2,94.6l-0.2-0.1 M224.5,94.7l-0.3-0.1 M224.8,94.7l-0.3,0 M225.2,94.8l-0.4,0 M225.6,94.8l-0.4,0
		 M226.1,94.8l-0.5,0 M226.6,94.8l-0.5,0 M235.6,80.1l-0.3,0.5 M235.9,79.6l-0.3,0.5 M236.2,79l-0.3,0.6 M236.4,78.4l-0.3,0.6
		 M236.7,77.7l-0.2,0.7 M236.9,77l-0.2,0.7 M237.1,76.2l-0.2,0.7 M237.2,75.5l-0.2,0.8 M237.3,74.7l-0.1,0.8 M237.4,73.9l-0.1,0.8
		 M237.5,73.1l0,0.8 M237.5,72.3l0,0.8 M237.4,71.6l0,0.8 M237.3,70.9l0.1,0.7 M237.2,70.2l0.2,0.7 M237,69.5l0.2,0.7 M236.7,68.9
		l0.3,0.6 M236.4,68.3l0.3,0.6 M236,67.8l0.4,0.5 M235.5,67.4l0.5,0.4 M225.1,80.5l0-0.7 M225.1,81.3l0-0.7 M225,82l0.1-0.8
		 M224.9,82.8L225,82 M224.8,83.6l0.1-0.8 M224.7,84.3l0.1-0.8 M224.5,85.1l0.2-0.8 M224.3,85.9l0.2-0.8 M224.2,86.6l0.2-0.8
		 M224,87.4l0.2-0.7 M223.5,89.5l0.2-0.7 M223.3,90.2l0.2-0.7 M223.2,90.8l0.1-0.6"/>
	<path class="st9" d="M223.1,91.5l0.1-0.6 M155.9,64.8l0.1,0.5 M156,65.2l0.1,0.5 M156.1,65.7l0.1,0.6 M156.2,66.3l0.1,0.7
		 M156.2,67l0.1,0.7 M156.3,67.8l0.1,0.8 M156.3,68.6l0,0.8 M156.4,69.4l0,0.9 M156.5,72.2l0.1,1 M156.6,73.2l0.1,1 M156.7,74.3
		l0.1,1.1 M156.7,75.3l0.1,1.1 M156.8,76.4l0.1,1.1 M156.9,77.5l0.1,1.1 M157,78.5l0.1,1.1 M157.1,79.6l0.1,1.1 M157.2,80.7l0.1,1.1
		 M157.3,81.8l0.2,1.1 M157.5,82.8l0.2,1.5 M157.7,84.8l0-0.2 M157.7,85l0-0.2 M157.7,85.2l0-0.2 M156.5,86.7l0,1.6 M156.6,88.3
		l0.1,1.5 M166.3,115.6l0.6,1.1 M166.9,116.7l0.6,1.1 M167.5,117.8l0.6,1.1 M168.1,119l0.7,1.1 M168.8,120.1l0.7,1.1 M169.4,121.2
		l0.7,1.1 M170.1,122.3l0.7,1.1 M170.9,123.4l0.8,1 M171.6,124.4l0.8,1 M172.4,125.4l0.8,0.9 M173.2,126.3l0.8,0.9 M174.1,127.2
		l0.9,0.8 M174.9,128l0.9,0.7 M175.8,128.8l0.9,0.7 M176.8,129.4l1,0.6 M177.7,130l1,0.5 M178.7,130.5l1,0.4 M179.8,130.9l1.1,0.3
		 M180.8,131.1l1.1,0.2 M181.9,131.3l1.1,0 M202.9,122.9l-1.1,0.9 M204,122l-1.1,0.9 M205.1,121L204,122 M206.1,120.1l-1,0.9
		 M207.2,119.1l-1,1 M208.2,118.2l-1,0.9 M205.8,87.2l0.2,0.2 M205.6,87.1l0.2,0.2 M205.3,86.9l0.2,0.2 M205.1,86.7l0.3,0.2
		 M204.8,86.5l0.3,0.2 M204.4,86.3l0.4,0.2 M178.7,82l1.4,0 M177.4,82.1l1.3,0 M176.1,82.1l1.3,0 M174.9,82.1l1.2,0 M173.9,82.1
		l1.1,0 M172.9,82.2l1-0.1 M172,82.3l0.9-0.1 M171.2,82.4l0.8-0.1 M170.4,82.5l0.7-0.1 M169.8,82.6l0.6-0.1 M169.2,82.8l0.6-0.2
		 M168.7,83l0.5-0.2 M168.3,83.2l0.4-0.2 M168,83.4l0.3-0.3 M167.8,83.7l0.3-0.3 M167.6,84l0.2-0.3 M167.3,84.8L167.3,84.8
		 M167.3,85l0.1-0.2 M167.2,85.3l0.1-0.3 M167.2,85.6l0-0.3 M167.2,86l0-0.4 M167.1,86.5l0-0.5 M167.1,87.1l0-0.5 M167.1,87.6l0-0.6
		 M167.1,88.2l0-0.6 M167.1,88.9l0-0.6 M167,89.5l0-0.6 M167,90.1l0.1-0.6 M166.9,90.6l0.1-0.6 M166.8,91.2l0.1-0.5 M174.4,90.3
		l-3.7,0.2 M177.7,90.1l-3.4,0.2 M180.7,89.9l-3,0.2 M183.4,89.8l-2.7,0.1 M185.8,89.7l-2.4,0.1 M187.9,89.6l-2.1,0.1 M189.8,89.6
		l-1.9,0 M191.5,89.7l-1.6,0 M192.9,89.8l-1.4-0.1 M194.2,89.9l-1.3-0.1 M195.3,90.1l-1.1-0.2 M196.3,90.4l-1-0.3 M197.1,90.7
		l-0.9-0.3 M197.9,91.1l-0.8-0.4 M198.7,91.6l-0.7-0.5 M199.4,92.1l-0.7-0.6 M154,58.5l0,0.1 M223.2,45.2l0-0.3 M223.1,45.6l0.1-0.4
		 M223,46l0.1-0.4 M222.9,46.4L223,46 M222.8,46.9l0.1-0.5 M222.6,47.4l0.2-0.5 M222.4,47.9l0.2-0.5 M222.3,48.4l0.2-0.5 M222.1,49
		l0.2-0.6 M222,49.5l0.1-0.6 M221.9,50.1l0.1-0.6 M221.8,50.7l0.1-0.6 M221.8,51.3l0-0.6 M221.8,51.9l0-0.6 M221.8,52.5l-0.1-0.6
		 M222,53.1l-0.1-0.6 M222.1,53.7l-0.2-0.6 M222.4,54.3l-0.3-0.6 M222.8,54.8l-0.4-0.6 M223.2,55.4l-0.4-0.6 M223.8,56.3l-0.5-0.8
		 M224.3,57l-0.5-0.7 M224.7,57.7l-0.4-0.7 M225.1,58.3l-0.4-0.7 M211.8,58.3l0.2,0.1 M212,58.5l0.2,0.2 M212.2,58.6l0.3,0.2
		 M212.5,58.8l0.3,0.2 M212.8,59l0.3,0.2 M213.2,59.1l0.4,0.2 M213.5,59.3l0.4,0.2 M213.9,59.5l0.4,0.2 M214.3,59.6l0.4,0.1
		 M214.7,59.8l0.4,0.1 M215.1,59.9l0.4,0.1 M215.5,60l0.4,0.1 M215.9,60.1l0.4,0.1 M216.3,60.2l0.3,0.1 M216.6,60.3l0.3,0
		 M216.9,60.3l0.3,0 M217.1,60.4l0.2,0 M217.4,60.4l0.2,0 M217.5,60.3l0.1-0.1 M217.6,60.2l0-0.1 M196,55.7l0.5,0.4 M196.6,56.1
		l0.6,0.3 M197.2,56.4l0.7,0.2 M197.9,56.6l0.8,0.2 M198.7,56.8l0.8,0.1 M199.5,56.9l0.9,0.1 M200.4,57l0.9,0 M201.4,57.1l1,0
		 M202.3,57.1l1,0 M205.3,57.1l1,0 M206.3,57.1l0.9,0 M207.2,57.1l0.9,0 M208.1,57.2l0.8,0.1 M208.9,57.2l0.8,0.1 M209.7,57.3
		l0.7,0.2 M210.3,57.5l0.6,0.2 M210.9,57.7l0.5,0.3 M211.4,58l0.4,0.4 M152.6,127.2l0.4-0.9 M153,126.2l0.4-0.9 M153.4,125.3
		l0.4-0.9 M153.8,124.4l0.4-0.9 M154.2,123.6l0.4-0.8 M154.7,122.7l0.5-0.8 M155.1,121.9l0.5-0.8 M155.6,121.1l0.5-0.7 M156.1,120.4
		l0.5-0.6 M156.6,119.8l0.5-0.6 M157.1,119.2l-0.1,0.1 M156.7,119.5l0.2-0.1 M156.5,119.5l0.2,0 M156.2,119.5l0.2,0 M156,119.6
		l0.3,0 M155.7,119.6l0.3,0 M155.4,119.6l0.3,0 M155.1,119.6l0.3,0 M154.8,119.6l0.3,0 M153.9,119.6l0.3,0 M153.6,119.6l0.3,0
		 M153.3,119.6l0.3,0 M153,119.6l0.3,0 M152.7,119.7l0.3,0 M152.4,119.7l0.3,0 M152.2,119.8l0.3,0 M108,132.1l-3.6,0.8 M104.4,132.9
		l-3.5,0.8 M100.9,133.6l-3.3,0.8 M97.6,134.4l-3.1,0.8 M94.5,135.2l-2.9,0.8 M91.5,136l-2.7,0.8 M88.8,136.8l-2.5,0.8 M73,146.2
		l-1.2,1.9"/>
	<path class="st9" d="M71.8,148.1l-1.1,2.1 M70.6,150.1l-1.1,2.2 M69.5,152.4l-1.1,2.4 M68.4,154.8l-1.1,2.6 M67.3,157.3l-1.1,2.7
		 M66.2,160l-1.1,2.8 M65,162.9l-1.2,3 M19.5,369.6l-0.1,6.4 M19.4,376l0,6.1 M19.4,382.1l0,5.8 M19.4,387.9l0.1,5.4 M19.6,393.3
		l0.2,5 M19.8,398.3l0.3,4.4 M20,402.7l0.3,3.8 M20.3,406.6l0.4,3.2 M20.7,409.7l0.4,2.4 M197.9,96.3l-1.9,0.4 M196,96.8l-1.9,0.3
		 M194.1,97.1l-1.8,0.2 M192.3,97.2l-1.8,0.1 M190.5,97.3l-1.7,0 M188.8,97.3l-1.7-0.1 M187.1,97.2l-1.6-0.2 M185.5,97l-1.6-0.3
		 M183.9,96.7l-1.5-0.4 M182.4,96.3l-1.4-0.4 M181,95.9l-1.4-0.5 M179.6,95.4l-1.3-0.5 M178.3,94.8l-1.2-0.6 M177.2,94.2l-1.1-0.6
		 M176.1,93.6l-1-0.6 M175,93l-0.9-0.7 M174.1,92.3l-0.8-0.7 M173.3,91.6l-0.7-0.7 M172.6,90.9l3.7-0.4 M176.3,90.5l3.4-0.3
		 M179.7,90.2l3-0.2 M182.7,90l2.7-0.1 M185.5,90l2.5,0 M187.9,90l2.2,0.1 M190.1,90.1l1.9,0.2 M192.1,90.4l1.7,0.3 M193.8,90.6
		l1.5,0.3 M195.2,91l1.3,0.4 M196.5,91.4l1.1,0.4 M197.6,91.8l0.9,0.4 M198.5,92.2l0.8,0.4 M199.3,92.7l0.6,0.4 M199.9,93.1l0.5,0.4
		 M200.5,93.5l0.4,0.4 M200.9,93.9l0.3,0.4 M201.2,94.3l0.2,0.3 M201.4,94.6l0.2,0.3 M201.6,94.9l0.1,0.2 M289.6,816.4l0,1.7
		 M254.8,827.8l0.6,1 M254.2,826.7l0.6,1.1 M253.7,825.4l0.5,1.3 M253.2,824l0.5,1.4 M252.7,822.5l0.5,1.5 M252.2,820.8l0.5,1.7
		 M251.7,819l0.5,1.8 M251.2,817l0.5,2 M250.7,814.9l0.5,2.2 M154,58.5l0-0.1 M154,58.4l-0.1-0.1 M153.9,58.3l-0.1-0.1 M153.8,58.2
		l-0.1-0.1 M153.7,58.1l-0.1-0.1 M153.6,58l-0.1-0.1 M153.4,57.9l-0.1,0 M153.3,57.9l-0.2,0 M153.1,57.9l-0.2,0 M153,57.8l-0.2,0
		 M152.8,57.8l-0.2,0 M152.6,57.9l-0.2,0 M152.5,57.9l-0.2,0 M152.3,57.9l-0.2,0.1 M152.1,58l-0.2,0.1 M152,58.1l-0.1,0.1
		 M151.8,58.2l-0.1,0.1 M151.7,58.3l-0.1,0.1 M151.1,59.2l-0.2,0.6 M150.9,59.8l-0.2,0.6 M150.8,60.4l-0.1,0.7 M150.7,61.2l-0.1,0.8
		 M150.6,61.9l-0.1,0.8 M150.5,62.8l0,0.9 M150.5,63.6l0,0.9 M150.5,64.5l0,0.9 M150.5,65.4l0.1,0.9 M150.6,66.4l0.1,0.9
		 M150.6,67.3l0.1,0.9 M150.8,68.2l0.1,0.9 M150.9,69.1l0.2,0.9 M151,69.9l0.2,0.8 M151.2,70.7l0.2,0.8 M151.4,71.5l0.2,0.7
		 M151.7,72.2l0.2,0.6 M151.9,72.8l0.3,0.5 M152.2,73.4l0,0.4 M152.2,73.8l0,0.5 M152.2,74.3l0.1,0.5 M152.3,74.8l0.1,0.5
		 M152.4,75.3l0.1,0.5 M152.5,75.8l0.1,0.5 M152.6,76.3l0.1,0.5 M152.8,76.9l0.1,0.5 M153.2,78.5l0.1,0.5 M153.3,79l0.1,0.5
		 M153.4,79.5l0.1,0.5 M153.5,80l0.1,0.5 M153.6,80.5l0.1,0.4 M153.7,80.9l0,0.4 M153.7,81.3l0,0.4 M153.8,81.7l0,0.3 M153.8,82
		l0,0.3 M153.7,82.3l-0.1,0.2 M153.6,82.5l-0.1,0.2 M153.5,82.7l-0.1,0.2 M153.5,83l0,0.3 M153.4,83.2l0,0.3 M153.4,83.5l0,0.3
		 M153.4,83.8l0,0.3 M153.4,84.1l0,0.3 M153.5,84.4l0,0.3 M153.5,84.7l0.1,0.3 M153.6,85l0.1,0.3 M153.7,85.3l0.1,0.3 M153.8,85.5
		l0.1,0.3 M153.9,85.8l0.1,0.2 M154,86.1l0.2,0.2 M154.2,86.3l0.2,0.2 M154.3,86.5l0.2,0.2 M154.5,86.6l0.2,0.1 M154.7,86.8l0.2,0.1
		 M155,86.9l0.3,0.1 M155.2,86.9l0.3,0 M161.5,798.9l2.1,2 M159,797l2.5,1.9 M156,795.1l2.9,1.9 M152.8,793.3l3.3,1.8 M149.3,791.6
		l3.5,1.7 M145.5,790l3.8,1.6 M141.6,788.5l3.9,1.5 M137.6,787.1l4,1.4 M133.5,785.9l4.1,1.2 M129.4,784.9l4.1,1 M125.4,784l4,0.8
		 M121.5,783.4l3.9,0.6 M117.8,783l3.7,0.4 M114.3,782.8l3.5,0.2 M111.1,782.9l3.2-0.1 M108.2,783.2l2.9-0.3 M105.7,783.9l2.5-0.6
		 M103.7,784.8l2-0.9 M102.2,786.1l1.5-1.3 M101.2,787.7l1-1.6 M157.3,119.1l-0.1,0.1 M159.9,102.4l0,1.7 M159.9,104.1l0,1.6
		 M159.8,105.8l-0.1,1.5 M159.7,107.3l-0.1,1.4 M159.7,108.7l-0.1,1.3 M159.5,110l-0.1,1.2 M159.4,111.3l-0.2,1.1 M159.2,112.4
		l-0.2,1 M159.1,113.4l-0.2,0.9 M158.9,114.4l-0.2,0.9 M158.7,115.2l-0.2,0.8 M158.5,116l-0.2,0.7 M158.3,116.7l-0.2,0.6
		 M158.1,117.3l-0.2,0.5 M158,117.8l-0.2,0.4 M157.8,118.2l-0.2,0.4 M157.6,118.6l-0.2,0.3 M157.4,118.9l-0.2,0.2 M130.2,471.7
		l4.6-57.9 M198.6,472.9l2.2-0.1 M228.8,453.6l3.1-2.9 M251.3,347.6l2.5-11.7 M245.9,398.9l-0.3,3.9 M301.5,355.6l2.4-11
		 M258.8,148.5l-5.4-2.9 M225.5,129.2L224,128 M178.3,243.4l4.9-15.1 M68.5,841.4l1.6,0.5 M107,819.6l-4.7,1.4 M277.1,814.8l4.5,1
		 M289.6,816.4l0.6-4.1 M280.6,843.7l-2.9,0 M249.3,843.9l0.1,1.1 M73.8,696.8l1.3,8.8 M273.3,780.8l1-4.6 M80,738.7l-5-33.2
		 M208.5,33.7l3.2,0 M211.7,752.3l-1.4-14.7 M184.7,613.4L188,629 M152.4,178.8l-1.4,5.5 M158.7,60.8l0.6-0.9"/>
	<path class="st9" d="M161.8,787.8l1.8,6.1 M27.6,435.4l0.8,4.2 M85.2,778.8l-1.3-4.7 M36.8,517.9l0.2-8.8 M162.6,108.2l2.7,5.3
		 M276,835.9l1.6-0.3 M156.5,64l0.4-0.5 M225.2,74.7v5.1 M191,83.4l-0.7,0 M224,87.4l-0.3,1.5 M156.4,70.3l0.1,1.9 M157.7,84.7
		l0-0.3 M183.3,82l-3.2,0 M203.3,57.1l2,0 M154.8,119.6l-0.6,0 M151.7,119.9l-1.9,0.8 M60.1,175.5l3.7-9.7 M152.9,77.4l0.3,1.1
		 M149,673.2l5.4,41.9 M211,94.3l0.2,0 M202.4,95.2l0.1-0.1 M69,334.8l-0.4,2.6 M70,324.1l-0.1,2.8 M65.2,349.8l-0.9,2.4
		 M69.8,326.9l-0.2,2.7 M225.2,74.2v0.5 M69.6,329.6l-0.3,2.7 M70,321.3l0,2.8 M61.1,359.3l-1.2,2.4 M66.1,347.3l-0.8,2.4
		 M63.3,354.5l-1.1,2.4 M62.3,356.9l-1.2,2.4 M59.9,361.6l-1.3,2.4 M64.3,352.2l-1,2.4 M69.4,332.2l-0.4,2.6 M67.5,342.4l-0.7,2.5
		 M68.6,337.4l-0.5,2.5 M68.1,339.9l-0.6,2.5 M66.8,344.9l-0.8,2.4 M45.5,389l-0.5,2.4 M43.8,400.1l-0.1,1.9 M49.8,377.3l-1.1,2.3
		 M51,375.2l-1.3,2.2 M44.3,395.9l-0.2,2.2 M155.4,828.4l-0.2,0 M155.6,828.3l-0.2,0.1 M54.1,371.2l-1.6,2 M43.7,402.1l-0.1,1.8
		 M44,398.1l-0.2,2.1 M45,391.3l-0.4,2.3 M46.1,386.6l-0.6,2.4 M46.8,384.3l-0.7,2.4 M67.7,841.2l-0.2,0.1 M47.7,381.9l-0.8,2.4
		 M43.5,408.3l0,1 M43.5,407l0,1.3 M43.6,405.6l0,1.5 M52.5,373.1l-1.4,2.1 M48.6,379.6l-1,2.3 M43.5,409.3l0,0.8 M43.6,403.9
		l-0.1,1.6 M44.6,393.7l-0.3,2.3 M48.9,424l0.5,1.7 M45.8,416.3l0.6,1.4 M46.5,417.7l0.6,1.5 M49.6,434l-0.5,1.6 M48.2,437.2
		l-1.1,1.5 M43.5,410.2l0.1,0.7 M50,430.7l-0.1,1.7 M47.7,420.7l0.6,1.6 M48.3,422.3l0.5,1.6 M44.7,413.8l0.5,1.2 M44.2,412.7
		l0.5,1.1 M47.1,419.2l0.6,1.5 M49.9,429l0.1,1.7 M43.8,411.7l0.4,1 M49.9,432.4l-0.3,1.7 M45.2,415l0.6,1.3 M49,435.6l-0.8,1.6
		 M49.7,427.3l0.2,1.7 M49.3,425.6l0.4,1.7 M43.6,410.9l0.2,0.9 M81.2,262.1l-0.3,3.6 M223.2,44.9l0.1,0.1 M82.7,216.6l0,4.5
		 M82.6,221.1l-0.1,4.7 M78.6,276.6L78,277 M79.6,273.8l-0.5,1.7 M82.6,225.8l-0.1,4.8 M82.4,235.4l-0.1,4.8 M81.7,254l-0.2,4.2
		 M79.1,275.5l-0.6,1.1 M82.3,240.2l-0.2,4.7 M80.9,265.7l-0.4,3.2 M81.9,249.6l-0.2,4.4 M82.7,208.2l0,4.1 M82.7,204.4l0,3.8
		 M82.7,212.3l0,4.3 M81.5,258.2l-0.3,3.9 M82.5,230.6l-0.1,4.8 M80.5,268.9l-0.4,2.7 M80.1,271.6l-0.5,2.2 M82.1,244.9l-0.2,4.6
		 M251.8,316.5l-0.5-2.6 M252.8,321.6l-0.5-2.5 M253.3,324l-0.4-2.4 M253.9,328.5l-0.3-2.2 M251.3,313.9l-0.5-2.6 M253.6,326.3
		l-0.4-2.3 M253.8,335.9l0.2-1.6 M252.3,319.1l-0.5-2.6 M254.1,332.5l-0.1-1.9 M254,334.3l0.1-1.8 M254.1,330.6l-0.2-2.1
		 M249.4,285.8l0.3-1.2 M249.2,287.9l0.1-1 M249.3,286.9l0.2-1.1 M76.8,278l-1.5,1.7 M78.6,276.6l-1.7,1.4 M250.8,311.3l-0.5-2.7
		 M250.3,308.6l-0.5-2.7 M72,286.2l-0.7,2.6 M248.9,290.3l0.3-2.4 M248.7,292.8l0.2-2.5 M248.7,295.3l0-2.6 M248.8,297.9l-0.1-2.6
		 M249.1,300.6l-0.2-2.6 M249.4,303.2l-0.3-2.7 M249.8,305.9l-0.4-2.7 M250.5,281.7l0.5-1.6 M249.7,284.5l0.3-1.3 M250,283.2
		l0.4-1.5 M251,280.1l0.6-1.7 M251.5,278.5l0.6-1.8 M252.1,276.6l0.7-1.9 M252.8,274.7l0.7-2.1 M253.5,272.6l0.7-2.2 M254.3,270.4
		l0.8-2.3 M255,268.1l0.8-2.5 M255.8,265.6l0.8-2.6 M256.6,263l0.8-2.7 M257.5,260.3l0.8-2.9 M258.3,257.4l0.8-3 M259.1,254.4
		l0.8-3.2 M259.9,251.2l0.8-3.3 M260.6,248l0.7-3.4 M74,281.6l-1.1,2.2 M75.3,279.7l-1.3,2 M72.9,283.8l-0.9,2.4 M71.3,288.8
		l-0.6,2.7 M70.7,291.5l-0.5,2.8 M70.2,294.2l-0.3,2.8 M69.9,297.1l-0.2,2.8 M69.6,299.9l-0.1,2.8 M69.5,302.8l-0.1,2.8 M69.4,305.5
		l0,2.7 M69.5,308.2l0.1,2.6 M69.5,310.8l0.1,2.4 M69.6,313.1l0.1,2.2 M69.7,315.3l0.1,1.9 M69.8,317.3l0.1,1.7 M69.9,318.9l0.1,1.4
		 M70,320.3l0,1 M58.5,364l-1.4,2.4 M57.1,366.4l-1.5,2.4 M55.6,368.8l-1.6,2.4"/>
</g>
</svg>
