<?xml version="1.0" encoding="utf-8"?>
<!-- Generator: Adobe Illustrator 20.0.0, SVG Export Plug-In . SVG Version: 6.00 Build 0)  -->
<svg version="1.1" id="Layer_1" xmlns="http://www.w3.org/2000/svg" xmlns:xlink="http://www.w3.org/1999/xlink" x="0px" y="0px"
	 viewBox="0 0 318 870" style="enable-background:new 0 0 318 870;" xml:space="preserve">
<style type="text/css">
	.st0{fill:#425571;}
	.st1{fill:#FCDEB5;}
	.st2{fill:#9D7A4F;}
	.st3{fill:#373737;}
	.st4{fill:#426F8E;}
	.st5{fill:#FFFFFF;}
	.st6{fill:none;stroke:#000000;stroke-miterlimit:10;}
</style>
<g>
	<path class="st0" d="M177.6,846.9l-2.2,5.1l-17.3,4.2h-30.2l-19.8-7l-9.2-10.5l-2.5,1.5l-10.1-7.4l1.3-7l10,1.1l1.9,2.1l17.5,10.1
		l19.3,3.1l20.3-1.9l18.9-4.9L177.6,846.9z M177.6,846.9"/>
	<path class="st1" d="M177.6,50.2l2.1,8.6l-0.4,20.4l1,4.8l-1.6,4.5l-4.2,4.8l0.1,7.4l-2.1,11l-7.3,17.5l-1.6,0.2l-4.6,5.6l2.2-12.2
		L161,118l-2.1-1.6l-4.4-0.8l-9.5-1.5l7,4.5l-5.5,17.6l-5.2,8.5l-4.8-16.6l-4.2-3.1l-5.5,0.7l2.8,7.7l2.2,15.8l0.3,5.9l-12.5-18.4
		l-1.1-8.4l-7.9,0.2l-14.3,2.5l-7.6-5.1l1.6-18.4l1.7-7.5l3-6.2l-2.5-3.1l-1.6-10.6l0.8-4.9l2.5-4.4l4.4-1.2l4,1.4l2.9,2.5l3.9,5.8
		l3.8,1.5l8.2-17.9l-1.8-3.4l0.3-10.1l7.1-10.9l7.8-3.3l4.2-3.8v3.8l5.3-2.1l2.5-2.3l4.9,5.2l-6.1,1.9l7.8-0.6l4.1,1.1l6.6,6.2
		l0.8-2.4l1.5,3.5l1.2-2l9.9,7.4L177.6,50.2z M177.6,50.2"/>
	<path class="st2" d="M113.1,80.7l-3.8-1.5l-3.9-5.8l-2.9-2.5l-4-1.4l-4.4,1.2L91.6,75l-0.8,4.9l1.6,10.6l2.5,3.1l-3,6.2l-1.7,7.5
		l-1.6-12.1l0.6-29.6l5.8-25.7L106.5,23l12.7-6.5l-1-4l3.5,2.1l-2.3-3.7l5.9,3.2l-0.5-3.7l5.5,3.2l-0.8-3.2l3.6,2.7l3.6-2.8
		l-0.5,4.4l7.5-1.1l-3.7,2.1l13.1,2.7L174.9,31l5,7.8l5.5,4.4l-4.6-0.9l1.6,4l-2-0.7l-0.8,4.7l-1.9-0.9l-0.1,0.8l-0.1,0.8l-9.9-7.4
		l-1.2,2l-1.5-3.5l-0.8,2.4l-6.6-6.2l-4.1-1.1l-7.8,0.6l6.1-1.9l-4.9-5.2l-2.5,2.3l-5.3,2.1v-3.8l-4.2,3.8l-7.8,3.3l-7.1,10.9
		l-0.3,10.1l1.8,3.4L113.1,80.7z M113.1,80.7"/>
	<path class="st3" d="M145,114.1l9.5,1.5l-2.1,1.7l-0.4,1.2L145,114.1z M145,114.1"/>
	<path class="st4" d="M97.4,827l-10-1.1l-1.7-0.2v-9.1L80.2,792l5.6-15.5l-5.2-24.6l-11.2-92.3L55.7,545.4l-5.1-101.5l1.2-14.2
		l31.7-8.9l102,0.8l25.2-1.6l8.9,4l9.3,32.4l18,129.8l-1.7,39.1l8.3,16.9L253,791.8l-3.5,6.9l5.6,10l-2.9,1.1L205,836l-6.3,2.5
		l-19.4-8.5l-5.4-9.9l3.9-5.2l-3.5-8.2l5.7-13.8l-2.7-27.3l2-151l-30.3-67l-7.8,62.4l-0.4,32.4L130.4,669l6.9,9.1l12.5,77.3v18.1
		L134.1,789l7.8,5.2l8.2,17.3l-2,0.6l-17.9,5.4l-31,11.6L97.4,827z M97.4,827"/>
	<path class="st0" d="M196.6,174.5l6.1,10.5l1.7,36.4l2.3,60.8l-22.9-2.5l-22.1-5.7l-4.5-13.2l2.6-13.4l4-46.9l1.1-3.7l0.3-3.7
		l10.3-14.1l4.2-10.9L196.6,174.5z M196.6,174.5"/>
	<path class="st5" d="M206.6,282.2l-2.3-60.8l-1.7-36.4l32,78.2l8.8,13.8l4.2,15.4l-2.2,0.5l-4.4-4.3l-11.6-3.9L206.6,282.2z
		 M206.6,282.2"/>
	<path class="st1" d="M179.7,168.2l-4.2,10.9l-10.3,14.1l-0.3,3.7l-1.1,3.7l-4,46.9l-2.6,13.4l-2.2,11.5l-6.1,13.7l-18.2,25.1
		l-1.1,1.5l-19.5,1.4l-1-0.7l-9.7-6.7l-4.5-3.1l-4.6-5l-7.4-7.9l-3.2-3.4L93.6,257l16.1-9.6l9.7-12.6l5.8-7.6l13.1-44.2l-6-22.1
		l-0.3-5.9l-0.3-5.9l-2.2-15.8l-2.8-7.7l5.5-0.7l4.2,3.1l4.8,16.6l5.2-8.5l5.5-17.6l0.4-1.2l2.1-1.7l4.4,0.8l2.1,1.6l0.2,4.6
		l-2.2,12.2l4.6-5.6l1.6-0.2l1.6-0.2l2.9,1.7l0.9,3.4l-1.2,6.6l3.6,2.5l2.5,5.8l3.4,2.7l2.7,3.9v6.6L179.7,168.2z M179.7,168.2"/>
	<path class="st0" d="M157.1,260.9l4.5,13.2l-6.7-1.7L157.1,260.9z M157.1,260.9"/>
	<path class="st1" d="M161.6,274l22.1,5.7l22.9,2.5l22.9,2.5l11.6,3.9l4.4,4.3l2,21.8l-6,12.4l-4.8,4.1l-25.8-3.1l-11.9-2.5
		l-27.3-14l-18.8-9.6l-4.5-0.3l-17.7,9.3l18.2-25.1l6.1-13.7L161.6,274z M161.6,274"/>
	<path class="st0" d="M40.8,307.9l-15-71.9l43.4,47.8l4.3,2.8l-5.4,4.5l-1.3,2l0.9,2.5l2.9,1.1l-1.6,0.8l-3.3,4.3l0.6,2.9l2.8,1.6
		l-0.4,0.5l0.7,3.7l2.6,0.5l11.5-0.4l-4,1.8l-0.4,2.4l3.1,2l10.1,0.1l16.5-3.7l1,0.7l19.5-1.4l1.1-1.5l17.7-9.3l4.5,0.3l18.8,9.6
		l12.8,55.8l-2,33.4l3.1,20.8l-102-0.8l-31.7,8.9l-1.2,14.2l-5.7-2.4L40.8,307.9z M40.8,307.9"/>
	<path class="st5" d="M25.9,236l-6.6-9.7l0.7-25.8l8.1-27.5l6.8-8.3l10-3l23.7,8.6L83.5,181l15.4,21.5l0.9,4.1l19.6,28.2l-9.7,12.6
		L93.6,257l-14.1,30.1l0.2,3.4l-6.1-4l-4.3-2.8L25.9,236z M25.9,236"/>
	<path class="st0" d="M44.9,161.8l-10,3l-6.8,8.3L20,200.5l-0.7,25.8l-4.9-17l1.3-22.6l6.1-13.7l8.9-9.1l11-7.5l26.9,13.9
		L44.9,161.8z M44.9,161.8"/>
	<path class="st0" d="M68.6,170.3l-26.9-13.9l31.9-18.6l1.7-18.3l7.5-11.5l7.5-0.7l-1.6,18.4l7.6,5.1l14.3-2.5l7.9-0.2l1.1,8.4
		l12.5,18.4l0.3,5.9l6,22.1l-13.1,44.2l-5.8,7.6l-19.6-28.2l-0.9-4.1L83.5,181L68.6,170.3z M68.6,170.3"/>
	<path class="st0" d="M297.5,831.6l0.4,2.3l-14.7,13.4l-26.8-1.8L228,835.1l-23,0.9l47.2-26.1l8.1,8.9l20.4,6.8L297.5,831.6z
		 M297.5,831.6"/>
	<path class="st0" d="M205,836l23-0.9l28.4,10.4l26.8,1.8l14.7-13.4l1.4,8.9l-2.5,7.4l-8,6.5h-45.2l-23.9-8.1l-10.7,4.3l-27-5.1
		l-2.8-5.1l0.1-12.8l19.4,8.5L205,836z M205,836"/>
	<path class="st1" d="M73.6,286.6l6.1,4l-0.2-3.4l3.2,3.4l-11.9,6.1l-2.9-1.1l-0.9-2.5l1.3-2L73.6,286.6z M73.6,286.6"/>
	<path class="st1" d="M99.2,306.6l9.7,6.7L92.4,317l-10.1-0.1l-3.1-2l0.4-2.4l4-1.8l7.7-1.2L99.2,306.6z M99.2,306.6"/>
	<path class="st1" d="M82.7,290.5l7.4,7.9l-10.8,3.9l-9.1,2.6l-0.9,1.3l-2.8-1.6l-0.6-2.9l3.3-4.3l1.6-0.8L82.7,290.5z M82.7,290.5"
		/>
	<path class="st1" d="M91.3,309.5l-7.7,1.2l-11.5,0.4l-2.6-0.5l-0.7-3.7l0.4-0.5l0.9-1.3l9.1-2.6l10.8-3.9l4.6,5l4.5,3.1L91.3,309.5
		z M91.3,309.5"/>
	<path class="st0" d="M185.5,421.6l-3.1-20.8l2-33.4l-12.8-55.8l27.3,14l11.9,2.5l5.2,41.9l3.6,26l2.7,29.1l-2.8-1.3l-8.9-4
		L185.5,421.6z M185.5,421.6"/>
	<path class="st0" d="M99.3,829.1l31-11.6l17.9-5.4l11.3,15.1l15.8,8.3l-18.9,4.9l-20.3,1.9l-19.3-3.1L99.3,829.1z M99.3,829.1"/>
	<path class="st6" d="M177.6,846.9l-2.2,5.1 M109.4,79.2l3.8,1.5 M177.6,50.2l2.1,8.6 M179.6,58.8l-0.4,20.4 M179.3,79.2l1,4.8
		 M178.7,88.4l-4.2,4.8 M174.5,93.3l0.1,7.4 M174.6,100.6l-2.1,11 M172.5,111.6l-7.3,17.5 M154.4,115.7l-9.5-1.5 M96.3,840.3
		l-10.1-7.4 M98.8,838.7l-2.5,1.5 M108,849.2l-9.2-10.5 M87.5,825.9l10,1.1 M127.8,856.2l-19.8-7 M119.5,59.4l1.8,3.4 M121.3,62.7
		l-8.2,17.9 M206.6,282.2l-2.3-60.8 M204.3,221.4l-1.7-36.4 M202.6,185l-6.1-10.5 M196.6,174.5l-16.9-6.3 M179.7,168.2l-4.2,10.9
		 M175.5,179l-10.3,14.1 M165.2,193.1l-0.3,3.7 M164.9,196.8l-1.1,3.7 M163.8,200.5l-4,46.9 M159.7,247.4l-2.6,13.4 M161.6,274
		l-4.5-13.2 M183.7,279.7l-22.1-5.7 M206.6,282.2l-22.9-2.5 M34.9,164.8l10-3 M44.9,161.8l23.7,8.6 M25.9,236l15,71.9 M40.8,307.9
		l4.1,133.6 M44.9,441.5l5.7,2.4 M50.6,443.9l1.2-14.2 M25.9,236l-6.6-9.7 M68.6,170.3l-26.9-13.9 M30.7,164l11-7.5 M21.8,173.1
		l8.9-9.1 M15.7,186.7l6.1-13.7 M14.4,209.3l1.3-22.6 M19.3,226.3l-4.9-17 M20,200.5l-0.7,25.8 M28.1,173.1L20,200.5 M34.9,164.8
		l-6.8,8.3 M297.9,833.9l-0.4-2.3 M297.5,831.6l-16.8-6.1 M280.7,825.5l-20.4-6.8 M260.3,818.8l-8.1-8.9 M205,836l47.2-26.1
		 M205,836l23-0.9 M228,835.1l28.4,10.4 M256.4,845.5l26.8,1.8 M283.2,847.3l14.7-13.4 M98.9,202.5l0.9,4.1 M83.5,181l15.4,21.5
		 M68.6,170.3L83.5,181 M25.9,236l43.4,47.8 M69.3,283.7l4.3,2.8 M73.6,286.6l6.1,4 M79.6,290.6l-0.2-3.4 M79.5,287.1L93.6,257
		 M93.6,257l16.1-9.6 M109.7,247.4l9.7-12.6 M99.8,206.6l19.6,28.2 M202.6,185l32,78.2 M234.7,263.2l8.8,13.8 M243.5,277l4.2,15.4
		 M247.7,292.5l-2.2,0.5 M50.6,443.9l5.1,101.5 M55.7,545.4l13.7,114.1 M69.4,659.5l11.2,92.3 M80.6,751.9l5.2,24.6 M85.8,776.5
		L80.2,792 M80.2,792l5.6,24.6 M85.8,816.6v9.1 M85.8,825.7l1.7,0.2 M137.3,678.1l-6.9-9.1 M150.1,811.4l-8.2-17.3 M141.9,794.2
		l-7.8-5.2 M130.4,669l10.4-26.8 M140.8,642.3l0.4-32.4 M141.2,609.9l7.8-62.4 M149.1,547.6l30.3,67 M179.4,614.5l-2,151
		 M177.3,765.6l2.7,27.3 M180,792.8l-5.7,13.8 M174.4,806.6l3.5,8.2 M177.8,814.8l-3.9,5.2 M173.9,820l5.4,9.9 M97.4,827l1.9,2.1
		 M119.4,234.8l5.8-7.6 M132.1,155l-0.3-5.9 M152,118.6l0.4-1.2 M165.2,129.1l1.6-0.2 M157.1,260.9l-2.2,11.5 M130.6,311.1l-1.1,1.5
		 M108.9,313.3l-9.7-6.7 M90.1,298.5l-7.4-7.9 M229.5,284.8l-22.9-2.5 M92.4,317l-10.1-0.1 M82.3,316.9l-3.1-2 M79.2,314.9l0.4-2.4
		 M79.6,312.5l4-1.8 M83.6,310.7l7.7-1.2 M91.3,309.5l7.9-2.9 M83.6,310.7l-11.5,0.4 M72.1,311.1l-2.6-0.5 M69.6,310.6l-0.7-3.7
		 M68.9,306.9l0.4-0.5 M70.2,305l9.1-2.6 M79.3,302.4l10.8-3.9 M69.3,306.3l-2.8-1.6 M66.4,304.7l-0.6-2.9 M65.9,301.8l3.3-4.3
		 M69.2,297.5l1.6-0.8 M70.7,296.7l-2.9-1.1 M67.8,295.6l-0.9-2.5 M66.9,293.1l1.3-2 M185.5,421.6l-3.1-20.8 M182.4,400.8l2-33.4
		 M184.4,367.4l-12.8-55.8 M141.2,144.7l5.2-8.5 M146.4,136.2l5.5-17.6 M152.3,117.4l2.1-1.7 M154.4,115.7l4.4,0.8 M158.8,116.5
		l2.1,1.6 M161,118l0.2,4.6 M161.2,122.6l-2.2,12.2 M158.9,134.9l4.6-5.6 M170.6,134l-1.2,6.6 M169.4,140.6l3.6,2.5 M175.4,148.9
		l3.4,2.7 M178.8,151.6l2.7,3.9 M181.5,155.5v6.6 M181.5,162.1l-1.8,6.1 M90.1,107.3l1.7-7.5 M91.9,99.8l3-6.2 M105.4,73.3l3.9,5.8
		 M90.1,107.3l-1.6-12.1 M129.4,312.6l-19.5,1.4 M109.9,314l-1-0.7 M94.7,303.4l-4.6-5 M219.6,424l2.8,1.3 M171.7,311.7l27.3,14
		 M161.6,274l-6.7-1.7 M69.3,306.3l0.9-1.3 M70.7,296.7l11.9-6.1 M148.1,812l2-0.6 M179.3,829.9l19.4,8.5 M88.6,95.2l0.6-29.6
		 M89.2,65.6l5.8-25.7 M132.1,155l-12.5-18.4 M119.5,136.6l-1.1-8.4 M118.4,128.2l-7.9,0.2 M110.5,128.4l-14.3,2.5 M96.2,130.9
		l-7.6-5.1 M90.1,107.3l-1.6,18.4 M177.6,50.2l-0.1,0.8 M105.4,73.3l-2.9-2.5 M99.2,306.6l-4.5-3.1 M82.7,290.5l-3.2-3.4
		 M252.2,809.9l2.9-1.1 M102.5,70.8l-4-1.4 M98.5,69.4l-4.4,1.2 M94.1,70.6L91.6,75 M91.6,75l-0.8,4.9 M90.8,79.9l1.6,10.6
		 M92.4,90.5l2.5,3.1 M83.5,420.8l102,0.8 M185.5,421.6l25.2-1.6 M210.7,420l8.9,4 M222.4,425.3l-2.7-29.1 M130.6,311.1l17.7-9.3
		 M219.7,396.1l-3.6-26 M216.1,370.1l-5.2-41.9 M148.3,301.7l4.5,0.3 M152.9,302l18.8,9.6 M199,325.7l11.9,2.5 M210.9,328.2
		l25.8,3.1 M236.7,331.3l4.8-4.1 M241.5,327.1l6-12.4 M247.5,314.7l-2-21.8 M245.5,292.9l-4.4-4.3 M241.1,288.6l-11.6-3.9
		 M108.9,313.3L92.4,317 M90.1,107.3l-7.5,0.7 M82.7,108l-7.5,11.5 M75.2,119.5l-1.7,18.3 M73.5,137.8l-31.9,18.6 M125.3,227.2
		l13.1-44.2 M138.4,183l-6-22.1 M132.4,160.9l-0.3-5.9 M131.8,149.1l-2.2-15.8 M129.6,133.3l-2.8-7.7 M126.7,125.7l5.5-0.7
		 M132.2,125l4.2,3.1 M136.4,128.1l4.8,16.6 M163.5,129.3l1.6-0.2"/>
	<path class="st6" d="M173,143.1l2.5,5.8 M166.8,128.9l2.9,1.7 M169.7,130.6l0.9,3.4 M68.2,291.1l5.4-4.5 M198.7,838.4l6.3-2.5
		 M255.2,808.8l-5.6-10 M249.5,798.8l3.5-6.9 M228.9,456.4l-9.3-32.4 M253,791.8l0.4-149.6 M253.4,642.2l-8.3-16.9 M245.2,625.2
		l1.7-39.1 M246.9,586.2l-18-129.8 M134.1,789l15.7-15.5 M149.9,773.5v-18.1 M149.9,755.4l-12.5-77.3 M179.3,829.9l-0.1,12.8
		 M179.2,842.7l2.8,5.1 M182,847.8l27,5.1 M209,852.9l10.7-4.3 M219.7,848.6l23.9,8.1 M296.8,850.2l2.5-7.4 M299.3,842.8l-1.4-8.9
		 M95.1,39.9L106.5,23 M106.5,23l12.7-6.5 M119.3,16.5l-1-4 M118.2,12.6l3.5,2.1 M121.8,14.7l-2.3-3.7 M119.5,11l5.9,3.2
		 M125.4,14.2l-0.5-3.7 M136.8,10.3l-0.5,4.4 M124.9,10.4l5.5,3.2 M130.4,13.6l-0.8-3.2 M129.5,10.4l3.6,2.7 M133.2,13.1l3.6-2.8
		 M136.2,14.7l7.5-1.1 M143.7,13.6l-3.7,2.1 M140,15.8l13.1,2.7 M153.1,18.4L174.9,31 M174.9,31l5,7.8 M179.9,38.8l5.5,4.4
		 M185.4,43.2l-4.6-0.9 M180.8,42.3l1.6,4 M182.4,46.3l-2-0.7 M180.4,45.6l-0.8,4.7 M179.6,50.3l-1.9-0.9 M177.6,49.4l-0.1,0.8
		 M177.5,51.1l-9.9-7.4 M167.6,43.6l-1.2,2 M166.4,45.6l-1.5-3.5 M164.8,42.1l-0.8,2.4 M164,44.5l-6.6-6.2 M157.4,38.3l-4.1-1.1
		 M153.3,37.2l-7.8,0.6 M145.5,37.8l6.1-1.9 M151.6,35.9l-4.9-5.2 M126.9,38.4l-7.1,10.9 M119.9,49.3l-0.3,10.1 M243.6,856.7h45.2
		 M288.8,856.7l8-6.5 M130.6,311.1l18.2-25.1 M148.8,286l6.1-13.7 M152,118.6l-7-4.5 M127.8,856.2h30.2 M86.1,832.8l1.3-7
		 M99.3,829.1l31-11.6 M175.4,852l-17.3,4.2 M116.8,839.1l19.3,3.1 M175.3,835.4l2.4,11.5 M130.2,817.5l17.9-5.4 M99.3,829.1
		l17.5,10.1 M136.1,842.2l20.3-1.9 M156.4,840.3l18.9-4.9 M159.5,827.1l15.8,8.3 M148.1,812l11.3,15.1 M51.8,429.7l31.7-8.9
		 M126.9,38.4l7.8-3.3 M134.8,35.1l4.2-3.8 M139,31.3v3.8 M139,35.1l5.3-2.1 M144.2,33l2.5-2.3 M180.3,84l-1.6,4.5 M105.7,101.2
		l1.3-1 M170.3,84.9l-1.7,2.2 M168.6,87.1l-0.2,1.2 M168.1,89.6l3.2,13.3 M171.3,102.9l0.1,3.9 M171.3,106.8l-2.4,2.4 M168.9,109.2
		l-3.6-0.1 M156.4,99.7l-2.3,2.1 M154.1,101.7l0.5,2.8 M154.5,104.5l2.9,2 M87.1,124.8l1.4,1 M90.1,201.2l9.8,5.4 M88.3,148.1
		l24.9,22.9 M168.4,88.3l-0.2,1.2 M102.6,101.2h3.1 M105.3,260.5l4.4-13.1 M139,149.3l2.2-4.6 M174.6,100.6l0,0.2 M88.3,148.1
		l-14.7-10.3 M87.1,124.8l-2.7-7 M157.4,106.4l8,2.6 M102.6,101.2l-7.7-7.6 M149.1,547.6l15.4-62.4"/>
</g>
</svg>
