<?xml version="1.0" encoding="utf-8"?>
<!-- Generator: Adobe Illustrator 20.0.0, SVG Export Plug-In . SVG Version: 6.00 Build 0)  -->
<svg version="1.1" id="Layer_1" xmlns="http://www.w3.org/2000/svg" xmlns:xlink="http://www.w3.org/1999/xlink" x="0px" y="0px"
	 viewBox="0 0 375 870" style="enable-background:new 0 0 375 870;" xml:space="preserve">
<style type="text/css">
	.st0{fill:#010D62;}
	.st1{fill:#AF6D24;}
	.st2{fill:#FFD290;}
	.st3{fill:#021EA9;}
	.st4{fill:#EAEAEA;}
	.st5{fill:#C5C5C5;}
	.st6{fill:#D69108;}
	.st7{fill:#FFFFFF;}
	.st8{fill:#CDDCE5;}
	.st9{fill:none;stroke:#000000;stroke-miterlimit:10;}
</style>
<g>
	<path class="st0" d="M239.4,598.7l-0.6-1.1l-2.3-6l-2.2-6.3l-2-6.5l-1.9-6.6l-1.7-6.6l-1.6-6.6l-1.5-6.6l-1.3-6.5l-1.2-6.3
		l-1.1-6.1l-1-5.8l-0.9-5.4l-0.8-5l-1.3-8.5l-0.5-3.4l-0.5-2.8l-0.4-2l-1.8,7.7l-1.9,7.8l-2,7.9l-2,8l-2.1,7.9l-2.1,7.8l-2.1,7.7
		l-2.1,7.5l-2.1,7.2l-2,6.9l-1.9,6.5l-1.8,6.1l-1.7,5.6l-1.5,5l-1.4,4.4l-1.2,3.7l-0.9,3l-0.7,2.2l-0.4,1.4l-0.2,0.5l-1.5,11.1
		l-1.4,10.6l-1.2,10.2l-1.1,9.7l-0.9,9.3l-0.8,8.8l-0.7,8.3l-0.6,7.7l-0.5,7.2l-0.4,6.7l-0.3,6.1l-0.2,5.5l-0.2,4.9l-0.1,4.3
		l-0.1,3.7l0,3l0,2.4l1.6,3.1l1.4,3l1.2,3l-0.2,0.1l-0.5,0.2l-0.8,0.3l-1.1,0.4l-1.5,0.5l-1.8,0.5l-2.1,0.6l-2.4,0.6l-2.6,0.7
		l-2.9,0.7l-3.2,0.7l-3.5,0.7l-3.7,0.7l-4,0.7l-4.3,0.7l-4.5,0.6l-4.8,0.6l-5,0.5l-5.2,0.4l-5.5,0.3l-1.7-8.8l-1.5-10.7l-1.1-11.1
		l-0.7-11.3l-0.4-11.4l-0.1-11.3l0.1-11.1l0.3-10.8l0.5-10.4l0.6-9.9l0.7-9.2l0.7-8.4l0.7-7.4l2.1-7.9l1.4-8.6l0.7-9.1l0.1-9.6
		l-0.4-9.9l-0.8-10.1l-0.6-5.1l-0.1-0.3l-0.3-0.9l-0.5-1.4l-0.6-1.9l-0.7-2.4l-0.9-2.9l-1-3.3l-1-3.7l-1.1-4.1l-1.2-4.4l-1.2-4.7
		l-1.2-5l-1.2-5.3l-1.2-5.5l-1.2-5.7l-1.2-5.9l-1.1-6l-1-6.1l-0.9-6.2l-0.4-3.1l-1.7-5.3l-2.2-3.7l-2.9-6l-2.4-6l-1.9-6.1l-1.5-6
		l-1.1-6l-0.7-5.9l-0.4-5.7l-0.1-5.5l4.8,2.5l13.2,1.6l16,1.6l15.5,1.3l14.9,1l7.3,0.4l0.9,1.1l0.6-1.1l5.5,0.3l13.7,0.5l13,0.3
		l12.3,0.1l11.6-0.1l10.8-0.3l9.9-0.4l9.1-0.5l8.1-0.6l7.2-0.6l6.2-0.6l5.1-0.6l4-0.6l2.9-0.6l1.7-0.5l0.5-0.4l-0.4-1.7l1.7,5.7
		l-0.7-2.4l8.6,29.7l0.6,2.4l1.2,4.5l1,4.2l0.9,3.9l0.8,3.6l0.7,3.3l0.6,2.9l0.5,2.6l0.4,2.3l0.3,1.9l0.3,1.6l0.2,1.2l0.1,0.9
		l4.7,22.8l12.6,61.4l0.1,2.2l0,2.2l-0.1,2.1l-0.2,2l-0.3,2l-0.3,1.9l-0.4,1.8l-0.4,1.7l-0.4,1.6l-0.5,1.5l-0.5,1.4l-0.5,1.2
		l-2.1,5.4l-0.6,1.7l-0.5,1.4l-0.5,1.3l-0.4,1.2l-0.4,1.2l-0.4,1.3l-0.4,1.4l-0.5,1.7l-0.5,2l-2.2,8.5l-1,3.9l-1.2,4.6l-1.5,5.4
		l-1.7,6.2l-2,7.1l-2.3,8.1l-1.4,3.7l-1.4,3.8l-1.3,3.9l-1.3,4l-1.2,4l-1.2,4l-1.1,3.9l-1,3.9l-1,3.7l-0.9,3.6l-0.8,3.4l-0.8,3.2
		l-0.7,3l-0.6,2.7l-1.4,6l-0.3,1.2l-0.2,0.7l-0.1,0.2l-0.5,2.9l-0.5,3l-0.4,3l-0.4,3.1l-0.4,3.1l-0.3,3.1L275,746l-0.1,1.5l-2.6,0.5
		l-2.7,0.4l-2.8,0.4l-2.9,0.3l-3,0.2l-3,0.2l-3.1,0.1l-3.2,0l-3.2-0.1l-3.3-0.2l-3.3-0.3l-3.3-0.4l-3.3-0.5l-3.4-0.6l-3.4-0.8
		l-3.4-0.9l-3.4-1l-3.3-1.2l-3.3-1.3l-3.3-1.5l0.7-6.1l1.6-11.3l1.8-11l1.9-10.7l2-10.3l2.1-9.9l2.2-9.5l2.2-9l2.2-8.5l2.2-8
		l2.1-7.4l2-6.8l1.9-6.1l1.8-5.4l1.6-4.7l0.7-1.5l0.5-1.5l0.4-1.5l0.2-1.6l0-1.6l-0.1-1.5l-0.2-1.5l-0.3-1.5l-0.4-1.4l-0.5-1.4
		l-0.5-1.3L239.4,598.7z M239.4,598.7"/>
	<path class="st1" d="M133.4,138.5l-9.2-4.9l-7.1-5.8l-4.3-5.5l0,0l0.1-0.1l0.1-0.2l0.2-0.3l0.2-0.3l0.3-0.4l0.3-0.4l0.4-0.4
		l0.4-0.4l0.5-0.5l0.5-0.5l0.6-0.5l0.6-0.4l0.7-0.4l0.7-0.4l0.8-0.4l0.8-0.3l0.9-0.3l0.9-0.2l1-0.1l1.2-0.2l2.1-0.6l2.1-0.9l1.9-1.1
		l1.8-1.3l1.6-1.5l1.5-1.7l1.2-1.9l1-2l0.8-2.1l0.5-2.2l0.3-2.2l-0.1-2l0-2.3l0.1-2.5l0.3-2.8l0.5-3l0.6-3.1l0.9-3.3l1.1-3.4
		l1.4-3.5l1.7-3.5l2-3.5l2.4-3.5l2.8-3.5l3.2-3.4l0.9-0.6l1-0.8l1.1-0.9l1.1-1.1l1.1-1.3l1.1-1.5l1.1-1.8l1.1-2l1-2.3l1-2.5l0.9-2.8
		l0.8-3.1l0.7-3.5l0.1-0.7l0.2-0.6l0.2-0.5l0.2-0.4l0.2-0.3l0.2-0.3l0.2-0.2l0.3-0.2l0.3-0.1l0.3-0.1l0.4,0l0.4,0l0.5,0l0.5,0.1
		l0.6,0.1l0.6,0.1l0.9,0.5l0.9,0.6l0.8,0.8l0.7,1l0.7,1.2l0.5,1.5l0.4,1.8l0.3,2.1l0.1,2.4l-4.6,2.1l-4.8,2.9l-5.1,3.7L159,53
		l-0.2,1.8l-0.4,4.1l-0.4,4.6l-0.4,4.9l-0.3,5.2l-0.2,5.3l0,5.4l0.1,5.4l0.4,5.3l0.6,5.1l0.9,4.8l1.2,4.4l1.6,3.9l2,3.3l2.4,2.6
		l2.9,1.9l1.3,1.5l1.4,1.6l1.4,1.8l1.3,1.9l1.2,2.1l1.1,2.2l1,2.3l0.8,2.4l0.6,2.5l0.3,2.6l0,2.6L179,147l-0.7,2.7l-1.1,2.7
		l-2.9-2.5l-1.1-0.5l-1.4-0.6l-1.6-0.7l-1.8-0.8l-2.1-0.8l-2.2-0.9l-2.4-0.9l-2.5-0.9l-2.7-0.9l-2.8-0.8l-2.8-0.8l-2.9-0.7l-2.9-0.6
		l-3-0.5l-2.9-0.4l-2.9-0.2L133.4,138.5z M133.4,138.5"/>
	<path class="st2" d="M159,53l5.3-4.7l5.1-3.7l4.8-2.9l4.6-2.1l4.4-1.4l4.1-0.7l3.9-0.2l3.6,0.3l3.4,0.7l3.1,1.1l2.8,1.3l2.6,1.5
		l2.3,1.7l2,1.7l1.7,1.7l1.4,1.6l1.2,1.4l0.9,1.2l0.6,0.9l0.3,0.5l1.8,5.2l2,6.7l1.5,6.4l1.1,6.1l0.7,5.8l0.4,5.5l0,5.1l-0.2,4.8
		l-0.4,4.5l-0.6,4.1l-0.8,3.7l-0.8,3.4l-0.9,3l-0.9,2.6l-0.9,2.3l-0.8,1.9l-0.7,1.5l-0.6,1.1l-0.4,0.6l-0.1,0.2l-2.3,2.3l-2.4,1.9
		l-2.5,1.5l-2.6,1.2L204,135l-2.7,0.6l-2.7,0.3l-2.6,0.1l-2.6-0.1l-2.5-0.3l-2.4-0.4l-2.3-0.5l-2.1-0.6l-2-0.7l-1.8-0.7l-1.5-0.7
		l-1.3-0.7l-1-0.6l-0.7-0.5l-0.3-0.4l-1.2-2.1l-1.3-1.9l-1.4-1.8l-1.4-1.6l-1.3-1.5l-2.9-1.9l-2.4-2.6l-2-3.3l-1.6-3.9l-1.2-4.4
		l-0.9-4.8l-0.6-5.1l-0.4-5.3l-0.1-5.4l0-5.4l0.2-5.3l0.3-5.2l0.4-4.9l0.4-4.6l0.4-4.1L159,53z M159,53"/>
	<path class="st1" d="M183.2,38.2l-4.4,1.4l-0.1-2.4l-0.3-2.1l-0.4-1.8l-0.5-1.5l-0.7-1.2l-0.7-1l-0.8-0.8l-0.9-0.6l-0.9-0.5
		l-0.6-0.1l-0.6-0.1l-0.5-0.1l-0.5,0l-0.4,0l-0.4,0l-0.3,0.1l-0.3,0.1l-0.3,0.2l-0.2,0.2l-0.2,0.3l-0.2,0.3l-0.2,0.4l-0.2,0.5
		l-0.2,0.6l-0.2,0.6l-0.2,0.7l-0.2,0.8l-0.2,0.9l-0.2,1l-0.8,3.1l-0.9,2.8l-1,2.5l-1,2.3l-1.1,2l-1.1,1.8l-1.1,1.5l-1.1,1.3
		l-1.1,1.1l-1.1,0.9l-1,0.8l-0.9,0.6l-3.2,3.4l-2.8,3.5l-2.4,3.5l-2,3.5l-1.7,3.5l-1.4,3.5l-1.1,3.4l-0.9,3.3l-0.6,3.1l-0.5,3
		l-0.3,2.8l-0.1,2.5l0,2.3l0.1,2l-0.3,2.2l-0.5,2.2l-0.8,2.1l-1,2l-1.2,1.9l-1.5,1.7l-1.6,1.5l-1.8,1.3l-1.9,1.1l-2.1,0.9l-2.1,0.6
		l-1.2,0.2l-1,0.1l-0.9,0.2l-0.9,0.3l-0.8,0.3l-0.8,0.4l-0.7,0.4l-0.7,0.4l-0.6,0.4l-0.6,0.5l-0.5,0.5l-0.5,0.5l-0.4,0.4l-0.4,0.4
		l-0.3,0.4l-0.3,0.4l-0.2,0.3L113,122l-0.1,0.2l-0.1,0.1l0,0l-0.9-1.1l-3.4-7.3l-1.8-7.8l-0.3-8.3l1-8.5l2.1-8.7l3.1-8.7l3.9-8.6
		l4.6-8.3l5.1-8l5.5-7.4l5.7-6.8l5.7-6l5.6-5.1l5.3-4.1l4.9-2.9l7.2-2.3l6.7-1.4l6.3-0.6l5.8,0.1l5.3,0.7l4.9,1.3l2.2,0.9l0.3,1.5
		l0.2,1.6L198,18l0,1.6l0,1.6l-0.1,1.6l-0.2,1.6l-0.2,1.6l-0.2,1.5l-0.3,1.5l-0.3,1.4l-0.3,1.3l-0.3,1.2l-0.3,1.1l-0.3,1l-0.2,0.8
		l-0.2,0.7l-0.2,0.5l-0.1,0.3l0,0.1l-3.6-0.3l-3.9,0.2L183.2,38.2z M183.2,38.2"/>
	<path class="st1" d="M198.2,38.4l-3.4-0.7l0-0.1l0.1-0.3l0.2-0.5l0.2-0.7l0.2-0.8l0.3-1l0.3-1.1l0.3-1.2l0.3-1.3l0.3-1.4l0.3-1.5
		l0.2-1.5l0.2-1.6l0.2-1.6l0.1-1.6l0-1.6l0-1.6l-0.1-1.6l-0.2-1.6l-0.3-1.5l2.2,0.9l4.1,2.1l3.6,2.4l3.3,2.6l2.9,2.8l2.5,2.8
		l2.2,2.8l1.8,2.7l1.5,2.5l6.8,11.6l5.8,10.5l4.8,9.6l3.9,8.7l3.1,7.8l2.4,7l1.8,6.3l1.2,5.6l0.7,5l0.2,4.5l-0.1,4l-0.4,3.6
		l-0.7,3.3l-0.8,3l-0.9,2.7l-0.9,2.6l-0.8,2.5l-0.7,2.4l-0.5,2.4l-0.2,2.5l-0.2,0.3l-0.7,0.9l-1.2,1.5l-1.6,1.9l-2,2.2l-2.4,2.4
		l-2.8,2.5l-3.2,2.5l-3.5,2.4l-0.1,0l-0.3-0.1l-0.4-0.1l-0.5-0.2l-0.6-0.3l-0.7-0.5l-0.8-0.6l-0.8-0.8l-0.9-0.9l-0.9-1.1l-0.9-1.3
		l-0.9-1.5l-0.8-1.8l-0.8-2l-0.7-2.3l-0.6-2.6l-0.5-2.9l-0.4-3.2l-0.3-3.6l-0.1-3.9l0.1-0.2l0.4-0.6l0.6-1.1l0.7-1.5l0.8-1.9
		l0.9-2.3l0.9-2.6l0.9-3l0.8-3.4l0.8-3.7l0.6-4.1l0.4-4.5l0.2-4.8l0-5.1l-0.4-5.5l-0.7-5.8l-1.1-6.1l-1.5-6.4l-2-6.7l-1.8-5.2
		l-0.3-0.5l-0.6-0.9l-0.9-1.2l-1.2-1.4l-1.4-1.6l-1.7-1.7l-2-1.7l-2.3-1.7l-2.6-1.5l-2.8-1.3L198.2,38.4z M198.2,38.4"/>
	<path class="st2" d="M214.2,129.6l2.3-2.3l0.1,3.9l0.3,3.6l0.4,3.2l0.5,2.9l0.6,2.6l0.7,2.3l0.8,2l0.8,1.8l0.9,1.5l0.9,1.3l0.9,1.1
		l0.9,0.9l0.8,0.8l0.8,0.6l0.7,0.5l0.6,0.3l0.5,0.2l0.4,0.1l0.3,0.1l0.1,0l-3.8,2.2l-4.1,2l-4.4,1.6l-4.6,1.1l-4.8,0.5l-5-0.2
		l-5.2-1l-5.4-1.9l-5.5-2.8l-5.6-3.9l-2.9-2.5l1.1-2.7l0.7-2.7l0.3-2.6l0-2.6l-0.3-2.6l-0.6-2.5l-0.8-2.4l-1-2.3l-1.1-2.2l0.3,0.4
		l0.7,0.5l1,0.6l1.3,0.7l1.5,0.7l1.8,0.7l2,0.7l2.1,0.6l2.3,0.5l2.4,0.4l2.5,0.3l2.6,0.1l2.6-0.1l2.7-0.3l2.7-0.6l2.6-0.8l2.6-1.2
		l2.5-1.5L214.2,129.6z M214.2,129.6"/>
	<path class="st3" d="M174.4,149.8l2.9,2.5l2.9,2.5l5.6,3.9l5.5,2.8l5.4,1.9l5.2,1l5,0.2l4.8-0.5l4.6-1.1l4.4-1.6l4.1-2l3.8-2.2
		l3.5-2.4l3.2-2.5l2.8-2.5l2.4-2.4l2-2.2l1.6-1.9l1.2-1.5l0.7-0.9l0.2-0.3l5.7,1.4l5.2,1.4l4.7,1.5l4.3,1.5l3.8,1.5l3.4,1.5l3,1.5
		l2.7,1.4l2.3,1.4l2,1.4l1.7,1.3l1.4,1.2l1.2,1.1l0.9,1l0.7,0.9l0.5,0.8l0.4,0.6l0.2,0.4l0.1,0.3l0,0.1l2.5,5.5l2.2,5.6l2,5.7
		l1.8,5.8l1.6,5.7l1.4,5.7l1.3,5.6l1.1,5.5l1,5.3l0.8,5l0.7,4.8l0.6,4.5l0.5,4.1l0.4,3.7l0.3,3.2l0.2,2.8l0.1,2.2l0.1,1.6l0,1l0,0.3
		l2,11.6l1.8,10.7l1.6,9.9l1.5,9.1l1.3,8.3l1.2,7.6l1,6.9l0.9,6.2l0.8,5.5l0.7,4.9l0.5,4.3l0.5,3.7l0.4,3.2l0.3,2.7l0.2,2.2l0.2,1.7
		l0.1,1.3l0.1,0.9l0,0.5l0,0.2l0.8,4.9l0.7,4.8l0.6,4.7l0.5,4.5l0.4,4.4l0.3,4.2l0.2,4.1l0.2,3.9l0.1,3.6l0.1,3.4l0,3.2l0,2.9l0,2.6
		l-0.1,2.3l-0.1,2l-0.1,1.7l-0.1,1.3l-0.1,1l-0.1,0.6l0,0.2l-0.6,3.9l-0.4,3.8l-0.2,3.7l0,3.6l0.2,3.5l0.3,3.4l0.5,3.3l0.6,3.1
		l0.7,2.9l0.7,2.7l0.7,2.6l0.8,2.3l0.8,2.1l0.7,1.9l0.7,1.6l0,1.3l0.1,1.2l0.2,1.2l0.2,1.1l0.3,1l0.1,0.2l-0.9,0.2l-0.7,0.1
		l-0.9,0.1l-1,0.1l-2.5,0.1l-1.5,0.1l-1.6,0.1l-1.7,0.1l-1.9,0.2l-2,0.2l-2.1,0.2l-2.1,0.3l-2.2,0.3l-2.3,0.4l-2.3,0.4l-2.4,0.5
		l-2.4,0.6l-0.2-1l-0.9-2l-0.7-2l-0.5-2l-0.4-2l-0.2-1.9l-0.1-1.9l0-1.8l0.1-1.8l0.2-1.7l0.2-1.6l0.3-1.5l0.3-1.4l0.3-1.3l0.3-1.1
		l-1.5-2.9l-1.5-3.3l-1.5-3.6l-1.4-3.9l-1.4-4l-1.4-4.2l-1.3-4.3l-1.2-4.3l-1.2-4.3l-1.1-4.2l-1-4l-1-3.8l-0.9-3.6l-0.8-3.3
		l-1.3-5.5l-0.5-2.1l-0.4-1.5l-1.5,3.3l-1.2,3.5l-0.9,3.7l-0.6,3.8l-0.4,3.9l-0.2,3.9l0,3.9l0.1,3.9l0.3,3.8l0.4,3.7l0.4,3.5
		l0.5,3.3l0.5,3.1l0.5,2.8l0.5,2.5l0.5,2.1l0.4,1.7l-0.5,0.4l-1.7,0.5l-2.9,0.6l-4,0.6l-5.1,0.6l-6.2,0.6l-7.2,0.6l-8.1,0.6
		l-9.1,0.5l-9.9,0.4l-10.8,0.3l-11.6,0.1l-12.3-0.1l-13-0.3l-13.7-0.5l-5.5-0.3l-1.6-0.1l-7.3-0.4l-14.9-1l-15.5-1.3l-16-1.6
		l-13.2-1.6l-4.8-2.5l0.1-5.3l0.3-5l0.4-4.6l0.6-4.3l0.6-3.8l0.6-3.4l0.6-2.9l0.6-2.3l2.1-3.7l3.8-6.6l1.7-2.9l1.5-2.7l1.4-2.4
		l1.3-2.2l1.2-2l1-1.8l0.9-1.6l0.8-1.4l0.7-1.2l0.6-1l0.6-0.8l0.5-0.7l0.4-0.5l0.3-0.4l0,0l0.1,0l0.2,0l0.3,0l0.4,0.1l0.5,0.1l0.5,0
		l0.6,0l0.7,0l0.7,0l0.8,0l0.8,0l0.9-0.1l0.9-0.1l1-0.1l1-0.2l1-0.2l1.1-0.3l1.1-0.3l1.1-0.4l1.2-0.5l1.4-0.5l1.5-0.6l1.7-0.6
		l1.8-0.7l1.8-0.7l1.9-0.7l1.9-0.7l1.9-0.7l1.9-0.7l1.9-0.7l1.8-0.6l1.7-0.6l1.6-0.5l1.4-0.4l1.2-0.3l0.4,0l0.5,0l0.5,0l0.5,0.1
		l0.6,0.1l0.6,0.1l0.6,0.1l0.7,0.1l0.7,0.1l0.7,0.1l0.7,0.1l0.7,0.2l0.7,0.2l0.7,0.2l0.6,0.2l0.7,0.3l0.8,0.3l0.9,0.3l0.9,0.3l1,0.4
		l1.1,0.4l1.1,0.3l1.2,0.3l1.3,0.3l1.3,0.3l1.3,0.2l1.4,0.2l1.4,0.2l1.4,0.1l1.4,0l0.3-0.1l0.3-0.1l0.3-0.2l0.3-0.2l0.3-0.2l0.3-0.3
		l0.2-0.3l0.2-0.3l0.1-0.3l0-0.4l0-0.4l-0.1-0.4l-0.2-0.4l-0.3-0.5l-0.4-0.5l-0.5-0.5l-0.7-0.5l-0.7-0.3l-0.9-0.4l-1-0.4l-1.1-0.5
		l-1.3-0.5l-1.4-0.5l-1.5-0.6l-1.6-0.6l-1.7-0.6l-1.8-0.6l-1.9-0.6l-2-0.6l-2.1-0.7l-2.1-0.7l-1.5-0.5l0,0l-0.1,0l-0.1,0l-0.1,0
		l-0.1,0l-0.1,0l-0.1-0.1l-0.2-0.1l-0.4-0.3l-0.1-0.2l-0.1-0.2l-0.1-0.2l0-0.3l0-0.3l0-0.3l0.1-0.4l0.1-0.4l0.1-0.7l0,0.3l1.9-0.2
		l10.8-0.9l0.5,0.2l0.6,0.2l0.7,0.3l0.8,0.3l0.9,0.3l1,0.4l1.1,0.4l1.2,0.4l1.3,0.4l1.4,0.4l1.5,0.4l1.5,0.4l1.6,0.4l1.6,0.4
		l1.7,0.3l1.7,0.3l1.8,0.3l0.4-0.1l0.4-0.1l0.4-0.2l0.4-0.2l0.4-0.3l0.3-0.3l0.3-0.3l0.2-0.4l0.1-0.4l0.1-0.4l0-0.5l-0.1-0.5
		l-0.3-0.5l-0.4-0.5l-0.5-0.6l-0.7-0.6l-0.9-0.6l-1-0.6l-0.6-0.2l-0.7-0.2l-0.8-0.3l-0.9-0.3l-1-0.4l-1.1-0.4l-1.2-0.4l-1.3-0.5
		l-1.4-0.5l-1.4-0.6l-1.5-0.6l-1.6-0.6l-1.6-0.7l-1.7-0.7l-1.7-0.8l-1.7-0.8l-0.6-0.1l-0.7-0.1l-0.8-0.1l-1-0.1l-1.1-0.1l-1.3-0.1
		l-1.5-0.1l-1.7,0l-1.9,0l-2.1,0l0.2-0.1l0.3-0.1l0.5-0.1l0.6-0.1l0.7-0.2l0.8-0.2l0.8-0.2l0.9-0.2l0.9-0.2l1-0.2l1-0.2l1-0.2l1-0.1
		l1-0.1l1-0.1l1-0.1l0.9,0l0.9,0l0.8,0.1l0.4,0.2l0.5,0.3l0.6,0.3l0.7,0.3l0.8,0.4l0.9,0.4l1,0.4l1.1,0.4l1.1,0.4l1.2,0.4l1.3,0.4
		l1.3,0.4l1.4,0.4l1.5,0.4l1.5,0.3l1.6,0.3l1.6,0.3l0.4-0.1l0.4-0.1l0.4-0.1l0.4-0.2l0.4-0.2l0.4-0.2l0.4-0.3l0.4-0.3l0.3-0.3
		l0.3-0.4l0.2-0.4l0.2-0.5l0,0l0-0.1l0-0.2l0-0.2l0-0.2l0-0.3l-0.1-0.3l-0.1-0.3l-0.1-0.4l-0.2-0.4l-0.3-0.4l-0.3-0.4l-0.4-0.4
		l-0.5-0.4l-0.6-0.4l-0.7-0.4l-0.8-0.3l-0.9-0.3l-1-0.3l-1.2-0.2l-2-0.6l-2.4-0.8l-2.8-0.9l-3.3-1l-3.7-1.2l-4.2-1.3l-14.8,2.3
		l13.7-4.5l0.1,0l0.2,0l0.3,0l0.4,0l0.5,0l0.6,0.1l0.7,0.1l0.8,0.1l0.9,0.1l0.9,0.1l1,0.1l1,0.1l1,0.1l1.1,0.1l1.1,0.1l1.1,0l1.1,0
		l1.1,0l1.1,0l1,0l0.7-0.2l0.7-0.3l0.8-0.3l0.8-0.4l0.7-0.4l0.6-0.4l0.5-0.5l0.4-0.5l0.2-0.5l0-0.6l-0.3-0.6l-0.6-0.6l-0.9-0.7
		l-1.3-0.7l-1.6-0.7l-2.1-0.7l-0.9,0.1l-1.1,0.1l-1.2,0l-1.4,0l-1.7,0l-1.9,0l-2.1,0l-2.4,0l-2.7,0l-3,0l-0.1,0.1l-0.5,0.3l-0.9,0.4
		l-1.2,0.6l-1.5,0.7l-1.8,0.8l-2.1,0.9l-2.3,1l-2.5,1l-2.7,1.1l-2.8,1.1l-2.9,1.1l-3,1.1l-3.1,1.1l-3.1,1.1l-1.6,0.5l0,0l-0.1,0
		l-0.1,0.1l-0.1,0.1l-0.2,0.1l-0.2,0.1l-0.3,0.1l-0.3,0.2l-0.4,0.2l-0.4,0.2l-0.5,0.2l-0.5,0.2l-0.6,0.2l-0.6,0.2l-0.7,0.2l-0.8,0.2
		l-0.8,0.2l-0.9,0.2l-0.9,0.2l-1,0.2l2.2-1.4l2.3-2.1l2.3-3l0-0.1l0-0.3l-0.1-0.5l-0.1-0.8l-0.2-1l-0.3-1.4l-0.4-1.7l-0.5-2.2
		l-0.7-2.6l-0.8-3.1l-1-3.6l-1.2-4.1l-1.4-4.7l-1.7-5.3l-1.9-6l-2.2-6.7l-2.5-7.4l-2.8-8.2l-3.1-9l-3.5-9.8l-0.4,0.1l-0.6,0.2
		l-0.7,0.3l-0.8,0.4l-1,0.4l-1.1,0.5l-1.2,0.7l-1.3,0.8l-1.4,0.9l-1.4,1l-1.5,1.2l-1.6,1.3l-1.6,1.5l-1.6,1.7l-1.7,1.9l-1.7,2.1
		l-1.7,2.3l-1.7,2.5l0.3,1.3l0.4,1.6l0.5,1.9l0.6,2.1l0.7,2.4l0.8,2.6l0.9,2.7l1.1,2.9l1.2,3l1.3,3.1l1.4,3.1l1.5,3.2L91,294
		l1.7,3.2l1.4,3.6l1.3,3.2l1.3,2.9l1.2,2.6l1.1,2.3l1.1,2l1,1.7l0.9,1.5l0.8,1.2l0.8,1l0.7,0.8l0.6,0.7l0.6,0.5l0.5,0.4l0.4,0.3
		l0.3,0.2l0.3,0.1l0.2,0.1l0.1,0l0,0l1.7,1.7l1.8,1.4l1.9,1l2,0.5l2.1,0l2.1-0.7l1-0.2l0.9-0.2l0.9-0.2l0.8-0.2l0.8-0.2l0.7-0.2
		l0.6-0.2l0.6-0.2l0.5-0.2l0.5-0.2l0.4-0.2l0.4-0.2l0.3-0.2l0.3-0.1l0.2-0.1l0.2-0.1l0.1-0.1l0.1-0.1l0.1,0l0,0l1.2,2.4l1,2.5
		l0.8,2.5l0.7,2.5l0.5,2.5l0.3,2.5l0.2,2.4l0.1,2.4l0,2.3l-0.1,2.2l-0.2,2.1l-0.2,2l-0.3,1.8l-0.3,1.6l-0.3,1.4l-0.3,1.2l-0.2,1
		l-0.2,0.7l-0.1,0.4l0,0.2l-1.8,0.7l-1.7,0.6l-1.5,0.6l-1.4,0.5l-1.2,0.5l-1.1,0.4l-1.1,0.3l-1.1,0.3l-1,0.2l-1,0.2l-1,0.1l-0.9,0.1
		l-0.9,0.1l-0.8,0l-0.8,0l-0.7,0l-0.7,0l-0.6,0l-0.5,0l-0.5-0.1l-0.4-0.1l-0.3,0l-0.2,0l-0.1,0l0,0l-9.8-5.8l-9.1-6.3l-8.5-6.6
		l-7.9-6.9l-7.3-7.1l-6.7-7.3l-6.1-7.3l-5.5-7.3l-5-7.2l-4.5-7l-4-6.7l-3.5-6.3l-3-5.9l-2.6-5.4l-2.1-4.8l-1.7-4.1l-1.3-3.3
		l-0.9-2.5l2.4-7.3l3.6-7.6l4.7-7.8l5.7-8l6.5-8.1l7.1-8.1l7.7-8l8-7.9l8.2-7.7l8.3-7.4l8.2-7l8-6.6l7.6-6.1l7.1-5.5l6.4-4.8
		l5.5-4.1l4.6-3.3l3.4-2.5l2.9,0.1l2.9,0.2l2.9,0.4l3,0.5l2.9,0.6l2.9,0.7l2.8,0.8l2.8,0.8l2.7,0.9l2.5,0.9l2.4,0.9l2.2,0.9l2.1,0.8
		l1.8,0.8l1.6,0.7l1.4,0.6L174.4,149.8z M174.4,149.8"/>
	<path class="st2" d="M306.5,493.7L306.5,493.7l-1.2-13l-0.3-3.5l-0.3-3.1l-0.3-2.7l-0.2-2.4l-0.2-2l-0.2-1.7l-0.2-1.5l-0.2-1.2
		l2.4-0.6l2.4-0.5l2.3-0.4l2.3-0.4l2.2-0.3l2.1-0.3l2.1-0.2l2-0.2l1.9-0.2l1.7-0.1l1.6-0.1l1.5-0.1l2.5-0.1l1-0.1l0.9-0.1l0.7-0.1
		l0.9-0.2l0.3,0.8l0.4,0.9l0.4,0.9l0.4,0.8l0.4,0.8l0.4,0.7l0.3,0.7l0.3,0.7l0.2,0.6l0.2,0.6l0.1,0.5l0,0.5l0,2.9l-0.1,2.7l-0.1,2.5
		l-0.2,2.3l-0.2,2.2l-0.3,2l-0.3,1.8l-0.3,1.7l-0.3,1.5l-0.3,1.4l-0.5,0.8l-0.4,0.7l-0.4,0.7l-0.3,0.6l-0.2,0.5l-0.2,0.4l-0.2,0.4
		l-0.1,0.3l-0.1,0.2l-0.1,0.2l-0.1,0.2l-0.1,0.2l-0.1,0.1l-0.1,0.1l-0.2,0.1l-0.2,0.1l-0.3,0.1l-0.3,0.2l-0.4,0.2l-0.5,0.2l-1.2,0.5
		l-1.3,0.6l-1.3,0.7l-1.4,0.7l-1.4,0.8l-1.4,0.8l-1.4,0.8l-1.3,0.8l-1.3,0.8l-1.2,0.8l-1.1,0.7l-1.9,1.3l-0.7,0.5l-0.6,0.4l-0.4,0.2
		l0,0l0,0l0,0l0,0l0,0l0,0l0,0l0,0l0,0l0,0l0,0l0,0l-0.3-0.5l-0.3-0.6l-0.2-0.6l-0.1-0.6l-0.1-0.6l0-0.6l0-0.6l0-0.5l0.1-0.5
		l0.1-0.5l0.1-0.5l0.1-0.4l0.1-0.4l0.1-0.4l0.1-0.3l0.1-0.3l-0.5,0l-0.5,0.1l-0.5,0.1l-0.5,0.1l-0.4,0.1l-0.4,0.1l-0.4,0.2l-0.4,0.2
		l-0.3,0.2l-0.3,0.2l-0.3,0.2l-0.3,0.2l-0.6,0.1l-0.5,0l-0.5,0l-0.4-0.1l-0.3-0.1l-0.3-0.2l-0.2-0.2l-0.2-0.2l-0.1-0.2l-0.1-0.3
		l-0.1-0.3l-0.1-0.3l0-0.3l0-0.2l0-0.2l0-0.2l0-0.2l0-0.1l0-0.1l0,0l0.4-0.4l0.3-0.4l0.3-0.3l0.3-0.3l0.3-0.2l0.2-0.2l0.2-0.2
		l0.2-0.1l0.2-0.1l0.1-0.1l0.1-0.1l0.1,0l0.1,0L306.5,493.7L306.5,493.7L306.5,493.7z M318.7,471.3L318.7,471.3l0-0.1l0.1-0.7
		l0.2-1.7l0.1-1.8l0-1.9l-0.2-0.2l-0.2-0.2l-0.3-0.2l-0.3-0.2l-0.3-0.2l-0.3-0.1l-0.4-0.1l-0.4,0l-0.4,0L316,464l-0.4,0.1l-0.4,0.2
		l-0.4,0.3l-0.4,0.4l-0.4,0.5l-0.1,0.4l-0.1,0.5l-0.1,0.6l-0.1,0.8l-0.1,0.9l-0.1,1l-0.1,1.1l-0.1,1.2l-0.1,1.2l-0.1,1.3l0,5.8
		l0.1,1.5l0.1,1.6l0,0l0.1-0.1l0.2-0.2l0.3-0.3l0.3-0.4l0.3-0.5l0.4-0.6l0.4-0.6l0.4-0.7l0.4-0.8l0.4-0.9l0.2-0.5l0.2-0.5l0.2-0.5
		l0.2-0.5l0.2-0.5l0.1-0.5l0.1-0.5l0.1-0.5l0.1-0.4l0.1-0.4l0.1-0.4l0.1-0.4l0.1-0.3l0.1-0.3l0-0.3l0-0.2l0-0.2l0-0.1L318.7,471.3
		L318.7,471.3z M314,490.3l0.4,0.1l0.4,0.1l0.4,0.1l0.4,0l0.4,0l0.5,0l0.5,0l0.5,0l0.5,0l0.5-0.1l0.7-0.2l0.7-0.2l0.5-0.3l0.1,0l0,0
		l0.6-0.4l0.6-0.4l0.6-0.5l0.1-0.2l0.1-0.3l0.1-0.4l0.1-0.5l0.2-0.6l0.2-0.7l0.2-0.7l0.1-0.8l0.1-0.9l0.1-0.9l0.1-1l0-1l0-1.1
		l-0.1-1.1l-0.1-1.1l-0.2-1.1L323,475l-0.3-1.2l-0.4-1.2l0,0.2l0,0.4l-0.1,0.5l-0.1,0.6l-0.1,0.7l-0.2,0.8l-0.2,0.8l-0.3,0.9
		l-0.3,0.9l-0.4,1l-0.4,1l-0.5,1l-0.6,0.9l-0.7,0.9l-0.7,0.8l-0.8,0.8l-3.1,1.8l-0.2,0.5l-0.2,0.5l-0.3,0.6l-0.3,0.6l-0.4,0.6
		l-0.1,0.2l0,0l0.1,0l0.1,0l0.1,0.1l0.2,0.1l0.2,0.1l0.2,0.1l0.3,0.1l0.3,0.1L314,490.3z M314,490.3"/>
	<path class="st2" d="M154.7,330.6l1.9,0l1.7,0l1.5,0.1l1.3,0.1l1.1,0.1l1,0.1l0.8,0.1l0.7,0.1l0.6,0.1l1.7,0.8l1.7,0.8l1.7,0.7
		l1.6,0.7l1.6,0.6l1.5,0.6l1.4,0.6l1.4,0.5l1.3,0.5l1.2,0.4l1.1,0.4l1,0.4l0.9,0.3l0.8,0.3l0.7,0.2l0.6,0.2l1,0.6l0.9,0.6l0.7,0.6
		l0.5,0.6l0.4,0.5l0.3,0.5l0.1,0.5l0,0.5l-0.1,0.4l-0.1,0.4l-0.2,0.4l-0.3,0.3l-0.3,0.3l-0.4,0.3l-0.4,0.2l-0.4,0.2l-0.4,0.1
		l-0.4,0.1l-1.8-0.3l-1.7-0.3l-1.7-0.3l-1.6-0.4l-1.6-0.4l-1.5-0.4l-1.5-0.4l-1.4-0.4l-1.3-0.4l-1.2-0.4l-1.1-0.4l-1-0.4l-0.9-0.3
		l-0.8-0.3l-0.7-0.3l-0.6-0.2l-0.5-0.2l-10.8,0.9l0,0l0-0.1l0-0.1l0-0.2l0-0.3l0.1-0.3l0.1-0.4l0.1-0.4l0-0.5l0-0.5l0-0.6l0-0.6
		l0-0.7l0-0.7l0-0.8l0-0.8l-0.1-0.9l-0.1-0.9l-0.1-1L154.7,330.6z M154.7,330.6"/>
	<path class="st4" d="M154.7,330.6l0.2,1l0.1,1l0.1,0.9l0.1,0.9l0,0.8l0,0.8l0,0.7l0,0.7l0,0.6l0,0.6l0,0.5l0,0.5L155,340l-0.1,0.4
		l-0.1,0.3l0,0.3l0,0.2l0,0.1l0,0.1l0,0l-1.9,0.2l0-0.3l0-0.2l0-0.3l0-0.3l0-0.4l0-0.4l0-0.5l0-0.5l0-0.6l0-0.6l0-0.7l0-0.7l0-0.8
		l0-0.8l0-0.9l0-0.9l0.1-1l0.1-1L154.7,330.6z M154.7,330.6"/>
	<path class="st5" d="M213.9,807.5l0.1-2.8l0-2.5l-0.1-2.2l-0.1-2l-0.2-1.7l-1.2-6.9l-0.3-1.8l6,0.8l5.7,0.6l5.5,0.4l5.2,0.2l4.9,0
		l4.6-0.2l4.3-0.3l4-0.4l3.7-0.5l3.4-0.6l3.1-0.6l2.8-0.7l2.5-0.7l2.1-0.6l1.8-0.6l1.5-0.5l1.2-0.5l0.8-0.4l0.5-0.2l0.2-0.1l0.9,2.1
		l2.4,3.8l2.9,3.4l3.3,3l1.8,1.3l-0.3,0l-0.7,0l-1.2,0l-1.7,0.1l-2.1,0.1l-2.5,0.1l-2.9,0.2l-3.2,0.2l-3.6,0.3l-3.9,0.4l-4.2,0.5
		l-4.5,0.6l-4.7,0.7l-4.9,0.8l-5.1,0.9l-5.3,1l-5.5,1.1l-5.6,1.3l-5.8,1.4L213.9,807.5z M213.9,807.5"/>
	<path class="st6" d="M213.9,807.5l5.9-1.6l5.8-1.4l5.6-1.3l5.5-1.1l5.3-1l5.1-0.9l4.9-0.8l4.7-0.7l4.5-0.6l4.2-0.5l3.9-0.4l3.6-0.3
		l3.2-0.2l2.9-0.2l2.5-0.1l2.1-0.1l1.7-0.1l1.2,0l0.7,0l0.3,0l1.8,1.3l3.9,2.3l4.1,2l4.2,1.7l4.2,1.4l4.1,1.2l3.9,0.9l3.7,0.7
		l3.3,0.6l2.5,0.2l2.3,0.4l2.1,0.7l1.9,0.9l1.7,1.1l1.5,1.3l1.4,1.4l1.2,1.5l1,1.6l0.9,1.6l0.8,1.6l0.6,1.6l0.5,1.5l0.4,1.4l0.3,1.3
		l0.3,1.1l0.2,0.9l-2.5,1.6l-2.7,1.4l-2.8,1.3l-3,1.2l-3.1,1.1l-3.1,1l-3.1,0.9l-3.1,0.8l-3.1,0.7l-3,0.6l-2.9,0.5l-2.7,0.5
		l-2.5,0.4l-2.3,0.3l-5.2-0.8l-5.3-0.7l-5.4-0.7l-5.4-0.6l-5.3-0.5l-5.3-0.4l-5.2-0.4l-5-0.3l-4.9-0.2l-4.7-0.2l-4.4-0.2l-4.1-0.1
		l-3.8-0.1l-3.4-0.1l-3,0l-1.7-0.1l-1.7-0.2l-1.6-0.4l-1.6-0.5l-1.5-0.6l-1.4-0.7l-1.4-0.7l-1.3-0.8l-1.2-0.8l-1.1-0.8l-1-0.8
		l-0.9-0.8l-0.9-0.8l-0.8-0.7l-0.6-0.7l0.9-4.4l0.7-4l0.5-3.7l0.4-3.4L213.9,807.5z M213.9,807.5"/>
	<path class="st6" d="M275.9,782.6l-0.2,0.1l-0.5,0.2l-0.8,0.4l-1.2,0.5l-1.5,0.5l-1.8,0.6l-2.1,0.6l-2.5,0.7l-2.8,0.7l-3.1,0.6
		l-3.4,0.6l-3.7,0.5l-4,0.4l-4.3,0.3l-4.6,0.2l-4.9,0l-5.2-0.2l-5.5-0.4l-5.7-0.6l-6-0.8l-0.7-4.6l-0.7-5.8l-0.5-5.3l4.5,0.6
		l4.5,0.4l4.5,0.3l4.5,0.2l4.4,0l4.4-0.1l4.2-0.1l4.1-0.2l3.9-0.3l3.7-0.3l3.5-0.4l3.3-0.4l3-0.4l2.7-0.4l2.3-0.4l2-0.4l1.6-0.4
		l1.2-0.3l0.7-0.2l0.3-0.2l-0.1,0.9l0,0.6l0,0.2l0.4,5.2l1.2,4.7L275.9,782.6z M275.9,782.6"/>
	<path class="st5" d="M214.8,772.5l-4.5-0.6l-0.3-4.8l-0.2-4.3l0-3.8l0.1-3.4l0.2-3l0.3-2.6l0.3-2.2l0.4-1.9l0.6-5.4l3.3,1.5
		l3.3,1.3l3.3,1.2l3.4,1l3.4,0.9l3.4,0.8l3.4,0.6l3.3,0.5l3.3,0.4l3.3,0.3l3.3,0.2l3.2,0.1l3.2,0l3.1-0.1l3-0.2l3-0.2l2.9-0.3
		l2.8-0.4l2.7-0.4l2.6-0.5l-0.1,1.5l-0.2,2.9l-0.2,2.8l-0.2,2.7l-0.1,2.5l-0.1,2.3l-0.1,2.1l-0.2,4.6l-0.3,0.2l-0.7,0.2l-1.2,0.3
		l-1.6,0.4l-2,0.4l-2.3,0.4l-2.7,0.4l-3,0.4l-3.3,0.4l-3.5,0.4l-3.7,0.3l-3.9,0.3l-4.1,0.2l-4.2,0.1l-4.4,0.1l-4.4,0l-4.5-0.2
		l-4.5-0.3L214.8,772.5z M214.8,772.5"/>
	<path class="st5" d="M130.2,805.8l-0.2-5.4l4.8-0.2l4.7-0.3l4.5-0.4l4.3-0.5l4.1-0.5l3.9-0.6l3.7-0.6l3.5-0.6l3.2-0.6l3-0.6
		l2.7-0.6l2.5-0.6l2.2-0.6l1.9-0.6l1.7-0.5l1.4-0.5l1.1-0.4l0.8-0.3l0.5-0.3l0.1-0.2l0.2,0.9l1.4,4.3l1.6,4l1.8,3.8l2,3.5l1,1.6
		l-0.1,0l-0.3,0l-0.6,0l-0.8,0l-1.1,0l-1.4,0l-1.7,0.1l-2,0.1l-2.4,0.2l-2.7,0.2l-3.1,0.3l-3.4,0.4l-3.8,0.5l-4.2,0.7l-4.6,0.8
		l-5.1,0.9l-5.5,1.1l-6,1.3l-6.5,1.4l-6.9,1.6l0.1-6.7L130.2,805.8z M130.2,805.8"/>
	<path class="st6" d="M134.9,800.2l-4.8,0.2l-0.3-4.8l-0.4-4.3l-0.5-3.7l-0.6-3.2l-0.6-2.8l4.7,0.2l4.6,0.1l4.4-0.1l4.3-0.2l4.1-0.3
		l3.9-0.4l3.7-0.5l3.5-0.5l3.3-0.6l3-0.6l2.8-0.6l2.6-0.6l2.3-0.6l2-0.6l1.7-0.5l1.4-0.5l1.1-0.4l0.8-0.3l0.5-0.2l0.2-0.1l0,2.7
		l0.4,5.2l0.7,4.9l0.9,3.7l-0.1,0.2l-0.5,0.3l-0.8,0.3l-1.1,0.4l-1.4,0.5l-1.7,0.5l-1.9,0.6l-2.2,0.6l-2.5,0.6l-2.7,0.6l-3,0.6
		l-3.2,0.6l-3.5,0.6l-3.7,0.6l-3.9,0.6l-4.1,0.5l-4.3,0.5l-4.5,0.4L134.9,800.2z M134.9,800.2"/>
	<path class="st6" d="M130.1,818.6l6.9-1.6l6.5-1.4l6-1.3l5.5-1.1l5.1-0.9l4.6-0.8l4.2-0.7l3.8-0.5l3.4-0.4l3.1-0.3l2.7-0.2l2.4-0.2
		l2-0.1l1.7-0.1l1.4,0l1.1,0l0.8,0l0.6,0l0.3,0l0.1,0l1,1.6l2.1,2.9l2.2,2.6l2.1,2.4l2,2.1l1.9,1.8l1.7,1.5l1.5,1.2l1.3,1l1,0.7
		l2,1.2l1.8,1.4l1.6,1.5l1.4,1.6l1.2,1.7l1,1.8l0.9,1.8l0.7,1.8l0.6,1.8l0.5,1.8l0.4,1.7l0.3,1.6l0.2,1.5l0,0.2l0,0.2l0,0.2l0,0.2
		l0,0.2l0,0.1l0,0.1l-0.1,0.2l-0.1,0.2l-0.1,0.2l-0.1,0.2l-0.2,0.2l-0.2,0.2l-0.3,0.3l-0.3,0.3l-0.3,0.3l-0.4,0.3l-0.4,0.4l-1,0.9
		l-3.9,0.9l-3.9,0.8l-3.9,0.7l-3.9,0.5L199,856l-3.8,0.3l-3.6,0.2l-3.5,0.2l-3.3,0.1l-3.2,0l-2.9,0l-2.7,0l-2.4-0.1l-2.1-0.1
		l-1.8-0.1l-1.4-0.1l-3.8-1.1l-3.6-1.1l-3.5-1l-3.3-1l-3.1-1l-2.9-1l-2.7-0.9l-2.5-0.9l-2.4-0.9l-2.2-0.8l-2-0.8l-1.8-0.7l-1.6-0.7
		l-1.4-0.6l-1.2-0.5l-0.9-0.5l-0.7-0.4l-0.7-2l-0.2-0.7l-0.2-0.6l-0.1-0.5l-0.1-0.5l0-0.4l0-0.4l0.1-0.5l0.1-0.6l0.1-0.7l0.2-0.8
		l0.2-1l0.2-1.2l0.3-1.5l0.3-1.8l0.3-2.1l0.3-2.4l0.3-2.8L130.1,818.6z M130.1,818.6"/>
	<path class="st5" d="M132.3,781.9l-4.7-0.2l-0.6-2.3l-0.6-1.9l-0.6-1.6l-0.6-1.2l-3-9l-2.5-9.7l-0.3-1.5l5.5-0.3l5.2-0.4l5-0.5
		l4.8-0.6l4.5-0.6l4.3-0.7l4-0.7l3.7-0.7l3.5-0.7l3.2-0.7l2.9-0.7l2.6-0.7l2.4-0.6l2.1-0.6l1.8-0.5l1.5-0.5l1.1-0.4l0.8-0.3l0.5-0.2
		l0.2-0.1l1,2.9l0.8,2.9l0.7,2.8l0.5,2.7l0.4,2.6l0.3,2.4l0.2,2.3l0.1,2.1l0,2l0,1.8l-0.1,1.6l-0.1,1.4l0,2.7l-0.2,0.1l-0.5,0.2
		l-0.8,0.3l-1.1,0.4l-1.4,0.5l-1.7,0.5l-2,0.6l-2.3,0.6l-2.6,0.6l-2.8,0.6l-3,0.6l-3.3,0.6l-3.5,0.5l-3.7,0.5l-3.9,0.4l-4.1,0.3
		l-4.3,0.2l-4.4,0.1L132.3,781.9z M132.3,781.9"/>
	<path class="st2" d="M165.4,348.6l1.7,0.6l1.6,0.6l1.5,0.6l1.4,0.5l1.3,0.5l1.1,0.5l1,0.4l0.9,0.4l0.7,0.3l0.7,0.5l0.5,0.5l0.4,0.5
		l0.3,0.5l0.2,0.4l0.1,0.4l0,0.4l0,0.4l-0.1,0.3l-0.2,0.3l-0.2,0.3l-0.3,0.3l-0.3,0.2l-0.3,0.2l-0.3,0.2l-0.3,0.1l-0.3,0.1l-1.4,0
		l-1.4-0.1l-1.4-0.2l-1.4-0.2l-1.3-0.2l-1.3-0.3l-1.3-0.3l-1.2-0.3l-1.1-0.3l-1.1-0.4l-1-0.4l-0.9-0.3l-0.9-0.3L160,355l-0.7-0.3
		l-0.6-0.2l-0.7-0.2l-0.7-0.2l-0.7-0.2l-0.7-0.1l-0.7-0.1l-0.7-0.1l-0.7-0.1l-0.6-0.1l-0.6-0.1l-0.6-0.1l-0.5-0.1l-0.5,0l-0.5,0
		l-0.4,0l-1.2,0.3l-1.4,0.4l-1.6,0.5l-1.7,0.6l-1.8,0.6l-1.9,0.7l-1.9,0.7l-1.9,0.7l-1.9,0.7l-1.9,0.7l-1.8,0.7l0-0.2l0.1-0.4
		l0.2-0.7l0.2-1l0.3-1.2l0.3-1.4l0.3-1.6l0.3-1.8l0.2-2l0.2-2.1l0.1-2.2l0-2.3l-0.1-2.4l-0.2-2.4l-0.3-2.5l-0.5-2.5l-0.7-2.5
		l-0.8-2.5l-1-2.5l-1.2-2.4l1.6-0.5l3.1-1.1l3.1-1.1l3-1.1l2.9-1.1l2.8-1.1l2.7-1.1l2.5-1l2.3-1l2.1-0.9l1.8-0.8l1.5-0.7l1.2-0.6
		l0.9-0.4l0.5-0.3l0.1-0.1l3,0l2.7,0l2.4,0l2.1,0l1.9,0l1.7,0l1.4,0l1.2,0l1.1-0.1l0.9-0.1l2.1,0.7l1.6,0.7l1.3,0.7l0.9,0.7l0.6,0.6
		l0.3,0.6l0,0.6l-0.2,0.5l-0.4,0.5l-0.5,0.5l-0.6,0.4l-0.7,0.4l-0.8,0.4l-0.8,0.3l-0.7,0.3l-0.7,0.2l-1,0l-1.1,0l-1.1,0l-1.1,0
		l-1.1,0l-1.1-0.1l-1.1-0.1l-1-0.1l-1-0.1l-1-0.1l-0.9-0.1l-0.9-0.1l-0.8-0.1l-0.7-0.1l-0.6-0.1l-0.5,0l-0.4,0l-0.3,0l-0.2,0l-0.1,0
		l-13.7,4.5l14.8-2.3l4.2,1.3l3.7,1.2l3.3,1l2.8,0.9l2.4,0.8l2,0.6l1.2,0.2l1,0.3l0.9,0.3l0.8,0.3l0.7,0.4l0.6,0.4l0.5,0.4l0.4,0.4
		l0.3,0.4l0.3,0.4l0.2,0.4l0.1,0.4l0.1,0.3l0.1,0.3l0,0.3l0,0.2l0,0.2l0,0.2l0,0.1l0,0l-0.2,0.5l-0.2,0.4l-0.3,0.4l-0.3,0.3
		l-0.4,0.3l-0.4,0.3l-0.4,0.2l-0.4,0.2l-0.4,0.2l-0.4,0.1l-0.4,0.1l-0.4,0.1l-1.6-0.3l-1.6-0.3l-1.5-0.3l-1.5-0.4l-1.4-0.4l-1.3-0.4
		l-1.3-0.4l-1.2-0.4l-1.1-0.4l-1.1-0.4l-1-0.4l-0.9-0.4l-0.8-0.4l-0.7-0.3l-0.6-0.3l-0.5-0.3l-0.4-0.2l-0.8-0.1l-0.9,0l-0.9,0
		l-1,0.1l-1,0.1l-1,0.1l-1,0.1l-1,0.2l-1,0.2l-1,0.2l-0.9,0.2l-0.9,0.2l-0.8,0.2l-0.8,0.2l-0.7,0.2l-0.6,0.1l-0.5,0.1l-0.3,0.1
		l-0.2,0.1l-0.1,1l-0.1,1l0,0.9l0,0.9l0,0.8l0,0.8l0,0.7l0,0.7l0,0.6l0,0.6l0,0.5l0,0.5l0,0.4l0,0.4l-0.1,1.9l-0.1,0.4l0,0.3l0,0.3
		l0,0.3l0.1,0.2l0.1,0.2l0.1,0.2l0.1,0.1l0.1,0.1l0.2,0.1l0.2,0.1l0.1,0.1l0.1,0l0.1,0l0.1,0l0.1,0l0.1,0l0,0l1.5,0.5l2.1,0.7
		l2.1,0.7l2,0.6l1.9,0.6L165.4,348.6z M165.4,348.6"/>
	<path class="st7" d="M152.5,342.4l0.1-1.9l0,0.3l0,0.3l0,0.2l-0.1,0.7L152.5,342.4z M152.5,342.4"/>
	<path class="st7" d="M160.2,435.8l-0.6,1.1l-0.9-1.1L160.2,435.8z M160.2,435.8"/>
	<path class="st8" d="M298.7,497.9l-0.1-0.9l4.8,23.7L298.7,497.9z M298.7,497.9"/>
	<path class="st8" d="M291.1,462.5l-8.6-29.7l0.7,2.4l0.7,2.4l1.8,6.1l1.7,5.8l1.5,5.5l1.4,5.2L291.1,462.5z M291.1,462.5"/>
	<path class="st9" d="M239.4,598.7l-0.6-1.1 M239.9,600l-0.6-1.2 M240.5,601.3l-0.5-1.3 M241,602.6l-0.5-1.4 M241.4,604.1l-0.4-1.4
		 M241.7,605.6l-0.3-1.5 M241.9,607.1l-0.2-1.5 M242,608.6l-0.1-1.5 M242,610.2l0-1.6 M240.2,616.3l0.7-1.5 M241.4,613.3l0.4-1.5
		 M241.8,611.7l0.2-1.6 M240.9,614.8l0.5-1.5 M159,53l5.3-4.7 M164.3,48.3l5.1-3.7 M169.4,44.6l4.8-2.9 M174.2,41.7l4.6-2.1
		 M178.8,39.6l4.4-1.4 M183.2,38.2l4.1-0.7 M187.3,37.5l3.9-0.2 M191.2,37.3l3.6,0.3 M194.9,37.6l3.4,0.7 M198.2,38.4l3.1,1.1
		 M201.3,39.4l2.8,1.3 M204.2,40.8l2.6,1.5 M206.8,42.3l2.3,1.7 M209.1,44l2,1.7 M211.1,45.7l1.7,1.7 M212.8,47.4l1.4,1.6 M214.3,49
		l1.2,1.4 M215.4,50.5l0.9,1.2 M216.3,51.7l0.6,0.9 M216.8,52.5l0.3,0.5 M217.1,53l1.8,5.2 M218.9,58.2l2,6.7 M220.9,64.9l1.5,6.4
		 M222.4,71.3l1.1,6.1 M223.5,77.4l0.7,5.8 M224.2,83.2l0.4,5.5 M224.5,88.6l0,5.1 M224.6,93.7l-0.2,4.8 M224.4,98.5l-0.4,4.5
		 M223.9,103l-0.6,4.1 M223.3,107.1l-0.8,3.7 M222.6,110.8l-0.8,3.4 M221.7,114.2l-0.9,3 M220.8,117.2l-0.9,2.6 M219.9,119.9
		l-0.9,2.3 M219,122.1l-0.8,1.9 M218.2,124l-0.7,1.5 M217.5,125.4l-0.6,1.1 M216.9,126.5l-0.4,0.6 M216.6,127.1l-0.1,0.2
		 M216.4,127.4l-2.3,2.3 M214.2,129.6l-2.4,1.9 M211.8,131.5l-2.5,1.5 M209.3,133l-2.6,1.2 M206.7,134.2L204,135 M204,135l-2.7,0.6
		 M201.4,135.6l-2.7,0.3 M198.7,135.9l-2.6,0.1 M196.1,136l-2.6-0.1 M193.5,135.9l-2.5-0.3 M190.9,135.6l-2.4-0.4 M188.5,135.2
		l-2.3-0.5 M186.2,134.6l-2.1-0.6 M184.1,134l-2-0.7 M182.1,133.4l-1.8-0.7 M180.4,132.7l-1.5-0.7 M178.8,132l-1.3-0.7 M177.6,131.3
		l-1-0.6 M176.6,130.7l-0.7-0.5 M175.9,130.2l-0.3-0.4 M175.6,129.8l-1.2-2.1 M174.3,127.7l-1.3-1.9 M173,125.8l-1.4-1.8 M171.7,124
		l-1.4-1.6 M170.3,122.4l-1.3-1.5 M169,120.9l-2.9-1.9 M166.1,119l-2.4-2.6 M163.7,116.4l-2-3.3 M161.8,113.1l-1.6-3.9 M160.2,109.2
		l-1.2-4.4 M159,104.9l-0.9-4.8 M158.1,100.1l-0.6-5.1 M157.5,95l-0.4-5.3 M157.1,89.7l-0.1-5.4 M157,84.4l0-5.4 M157,78.9l0.2-5.3
		 M157.2,73.6l0.3-5.2 M157.5,68.4l0.4-4.9 M157.9,63.5l0.4-4.6 M158.4,58.9l0.4-4.1 M158.8,54.8L159,53 M122.5,115.9l-1,0.1
		 M123.7,115.7l-1.2,0.2 M125.9,115.1l-2.1,0.6 M127.9,114.3l-2.1,0.9 M129.9,113.2l-1.9,1.1 M131.7,111.9l-1.8,1.3 M133.3,110.4
		l-1.6,1.5 M134.8,108.7l-1.5,1.7 M136,106.8l-1.2,1.9 M137,104.8l-1,2 M137.8,102.7l-0.8,2.1 M138.3,100.6l-0.5,2.2 M138.6,98.4
		l-0.3,2.2 M138.5,96.4l0.1,2 M138.6,94.1l0,2.3 M138.7,91.6l-0.1,2.5 M139,88.8l-0.3,2.8 M139.4,85.8l-0.5,3 M140.1,82.7l-0.6,3.1
		 M141,79.4l-0.9,3.3 M142.1,76l-1.1,3.4 M143.5,72.5l-1.4,3.5 M145.2,69l-1.7,3.5 M147.2,65.5l-2,3.5 M149.6,62l-2.4,3.5
		 M152.4,58.5l-2.8,3.5 M155.6,55.1l-3.2,3.4 M156.5,54.5l-0.9,0.6 M157.5,53.7l-1,0.8 M158.5,52.8l-1.1,0.9 M159.6,51.7l-1.1,1.1
		 M160.7,50.4l-1.1,1.3 M161.9,48.9l-1.1,1.5 M163,47.1l-1.1,1.8 M164.1,45.1l-1.1,2 M165.1,42.8l-1,2.3 M166.1,40.3l-1,2.5
		 M167,37.5l-0.9,2.8 M167.8,34.3l-0.8,3.1 M168.6,30.8l-0.7,3.5 M168.7,30.1l-0.1,0.7 M168.8,29.6l-0.2,0.6 M169,29.1l-0.2,0.5
		 M169.2,28.7l-0.2,0.4 M169.3,28.3l-0.2,0.3 M169.5,28l-0.2,0.3 M169.8,27.8l-0.2,0.2 M170,27.7l-0.3,0.2 M170.3,27.5l-0.3,0.1
		 M170.6,27.5l-0.3,0.1 M171,27.5l-0.4,0 M171.4,27.5l-0.4,0 M171.8,27.5l-0.5,0 M172.4,27.6l-0.5-0.1 M172.9,27.7l-0.6-0.1
		 M173.5,27.8l-0.6-0.1 M174.5,28.2l-0.9-0.5 M175.3,28.8l-0.9-0.6 M176.1,29.7l-0.8-0.8 M176.9,30.7l-0.7-1 M177.5,31.9l-0.7-1.2
		 M178.1,33.4l-0.5-1.5 M178.5,35.2l-0.4-1.8 M178.8,37.2l-0.3-2.1 M178.8,39.6l-0.1-2.4 M176.7,132l-1.1-2.2 M177.7,134.3l-1-2.3
		 M178.4,136.7l-0.8-2.4 M179,139.2l-0.6-2.5 M179.3,141.7l-0.3-2.6 M179.3,144.3l0-2.6 M179,147l0.3-2.6 M178.3,149.7l0.7-2.7
		 M177.2,152.4l1.1-2.7 M174.4,149.8l2.9,2.5 M173.2,149.3l1.1,0.5 M171.9,148.7l1.4,0.6 M170.3,147.9l1.6,0.7 M168.4,147.2l1.8,0.8
		 M166.4,146.3l2.1,0.8 M164.1,145.4l2.2,0.9 M161.7,144.5l2.4,0.9 M159.2,143.6l2.5,0.9 M156.5,142.8l2.7,0.9 M153.8,141.9l2.8,0.8
		 M150.9,141.1l2.8,0.8 M148,140.4l2.9,0.7 M145.1,139.8l2.9,0.6 M142.1,139.3l3,0.5 M139.2,138.9l2.9,0.4 M136.3,138.6l2.9,0.2
		 M133.4,138.5l2.9,0.1 M133.4,138.5l-9.2-4.9 M117.1,127.9l-4.3-5.5 M112.8,122.3L112.8,122.3 M112.8,122.2l-0.1,0.1 M113,122
		l-0.1,0.2 M113.1,121.7L113,122 M113.3,121.4l-0.2,0.3 M113.6,121.1l-0.3,0.4 M113.9,120.7l-0.3,0.4 M114.2,120.3l-0.4,0.4
		 M114.6,119.8l-0.4,0.4 M115.1,119.3l-0.5,0.5 M115.6,118.9l-0.5,0.5 M116.1,118.4l-0.6,0.5"/>
	<path class="st9" d="M116.7,118l-0.6,0.4 M117.4,117.6l-0.7,0.4 M118.1,117.2l-0.7,0.4 M118.9,116.8l-0.8,0.4 M119.7,116.5
		l-0.8,0.3 M120.6,116.2l-0.9,0.3 M121.6,116.1l-0.9,0.2 M112.8,122.4l-0.9-1.1 M111.9,121.3l-3.4-7.3 M108.5,114l-1.8-7.8
		 M106.7,106.1l-0.3-8.3 M106.4,97.9l1-8.5 M107.4,89.3l2.1-8.7 M109.5,80.6l3.1-8.7 M112.6,71.9l3.9-8.6 M116.5,63.4l4.6-8.3
		 M121.1,55l5.1-8 M126.3,47.1l5.5-7.4 M131.7,39.6l5.7-6.8 M137.4,32.8l5.7-6 M143.1,26.8l5.6-5.1 M148.7,21.7l5.3-4.1 M154,17.7
		l4.9-2.9 M158.8,14.8l7.2-2.3 M166.1,12.5l6.7-1.4 M172.8,11l6.3-0.6 M179.1,10.4l5.8,0.1 M184.9,10.5l5.3,0.7 M190.2,11.2l4.9,1.3
		 M195.1,12.4l2.2,0.9 M197.3,13.3l0.3,1.5 M197.7,14.8l0.2,1.6 M197.9,16.4L198,18 M198,18l0,1.6 M198.1,19.6l0,1.6 M198,21.3
		l-0.1,1.6 M197.9,22.9l-0.2,1.6 M197.8,24.5l-0.2,1.6 M197.6,26.1l-0.2,1.5 M197.3,27.7l-0.3,1.5 M197.1,29.2l-0.3,1.4 M196.8,30.6
		l-0.3,1.3 M196.5,31.9l-0.3,1.2 M196.2,33.1l-0.3,1.1 M195.9,34.2l-0.3,1 M195.6,35.2l-0.2,0.8 M195.4,36l-0.2,0.7 M195.2,36.7
		l-0.2,0.5 M195,37.2l-0.1,0.3 M194.9,37.5l0,0.1 M168.7,30.1l-0.2,0.6 M168.5,30.8l-0.2,0.7 M168.4,31.5l-0.2,0.8 M168.2,32.3
		l-0.2,0.9 M168,33.3l-0.2,1 M216.4,127.4l0.1,3.9 M197.3,13.3l2.2,0.9 M199.6,14.2l4.1,2.1 M203.6,16.3l3.6,2.4 M207.3,18.7
		l3.3,2.6 M210.5,21.4l2.9,2.8 M213.4,24.1l2.5,2.8 M215.9,27l2.2,2.8 M218.1,29.8l1.8,2.7 M220,32.5l1.5,2.5 M221.5,35l6.8,11.6
		 M228.2,46.6l5.8,10.5 M234,57.1l4.8,9.6 M238.8,66.7l3.9,8.7 M242.8,75.4l3.1,7.8 M245.9,83.2l2.4,7 M248.3,90.2l1.8,6.3
		 M250.1,96.5l1.2,5.6 M251.2,102.2l0.7,5 M251.9,107.2l0.2,4.5 M252.1,111.7l-0.1,4 M252,115.7l-0.4,3.6 M251.5,119.4l-0.7,3.3
		 M250.9,122.6l-0.8,3 M250.1,125.6l-0.9,2.7 M249.2,128.3l-0.9,2.6 M248.3,130.9l-0.8,2.5 M247.5,133.3l-0.7,2.4 M246.8,135.7
		l-0.5,2.4 M246.4,138.2l-0.2,2.5 M245.9,141l0.2-0.3 M245.2,141.9l0.7-0.9 M244,143.4l1.2-1.5 M242.4,145.3l1.6-1.9 M240.4,147.5
		l2-2.2 M238,149.9l2.4-2.4 M235.2,152.4l2.8-2.5 M232,154.9l3.2-2.5 M228.5,157.3l3.5-2.4 M228.4,157.3L228.4,157.3 M228.2,157.2
		l0.3,0.1 M227.8,157.1l0.4,0.1 M227.3,156.8l0.5,0.2 M226.6,156.5l0.6,0.3 M225.9,156l0.7,0.5 M225.1,155.4l0.8,0.6 M224.3,154.7
		l0.8,0.8 M223.4,153.8l0.9,0.9 M222.5,152.6l0.9,1.1 M221.6,151.3l0.9,1.3 M220.7,149.8l0.9,1.5 M219.8,148l0.8,1.8 M219,145.9
		l0.8,2 M218.3,143.6l0.7,2.3 M217.7,141l0.6,2.6 M217.2,138.1l0.5,2.9 M216.8,134.9l0.4,3.2 M216.5,131.3l0.3,3.6 M224.7,159.5
		l3.8-2.2 M220.7,161.5l4.1-2 M216.3,163.1l4.4-1.6 M211.7,164.2l4.6-1.1 M206.9,164.7l4.8-0.5 M201.8,164.5l5,0.2 M196.6,163.5
		l5.2,1 M191.3,161.7l5.4,1.9 M185.7,158.8l5.5,2.8 M180.1,154.9l5.6,3.9 M177.2,152.4l2.9,2.5 M306.5,493.7L306.5,493.7
		 M306.5,493.7L306.5,493.7 M306.5,493.7L306.5,493.7 M306.4,493.7L306.4,493.7 M306.3,493.8L306.3,493.8 M306.2,493.8L306.2,493.8
		 M306.1,493.9l0.1-0.1 M305.9,493.9l0.1-0.1 M305.8,494l0.2-0.1 M305.6,494.2l0.2-0.1 M305.4,494.3l0.2-0.2 M305.2,494.5l0.2-0.2
		 M304.9,494.8l0.3-0.2 M304.7,495l0.3-0.3 M304.4,495.4l0.3-0.3 M304,495.7l0.3-0.4 M303.7,496.1l0.4-0.4 M303.7,496.2L303.7,496.2
		 M303.6,496.2L303.6,496.2 M303.6,496.4l0-0.1 M303.6,496.5l0-0.2 M303.6,496.7l0-0.2 M303.6,497l0-0.2 M303.6,497.2l0-0.2
		 M303.6,497.5l0-0.3 M303.7,497.7l-0.1-0.3 M303.8,498l-0.1-0.3 M303.9,498.2l-0.1-0.3 M304,498.5l-0.1-0.2 M304.2,498.7l-0.2-0.2
		 M304.5,498.9l-0.2-0.2 M304.7,499.1l-0.3-0.2 M305.1,499.2l-0.3-0.1 M305.5,499.2l-0.4-0.1 M305.9,499.3l-0.5,0 M306.5,499.2
		l-0.5,0 M307,499.1l-0.6,0.1 M307.3,498.9l-0.3,0.2 M307.6,498.8l-0.3,0.2 M307.9,498.6l-0.3,0.2 M308.3,498.4l-0.3,0.2
		 M308.6,498.2l-0.4,0.2 M309,498.1l-0.4,0.2 M309.4,497.9l-0.4,0.1 M309.9,497.8l-0.4,0.1 M310.4,497.7l-0.5,0.1 M310.8,497.6
		l-0.5,0.1 M311.3,497.5l-0.5,0.1 M311.9,497.5l-0.5,0 M311.8,497.8l0.1-0.3 M311.6,498.1l0.1-0.3 M311.5,498.5l0.1-0.4
		 M311.4,498.9l0.1-0.4 M311.3,499.3l0.1-0.4 M311.2,499.8l0.1-0.5 M311.1,500.3l0.1-0.5 M311,500.8l0.1-0.5 M311,501.3l0-0.5
		 M311,501.9l0-0.6 M311,502.4l0-0.6 M311.1,503l-0.1-0.6 M311.3,503.6l-0.1-0.6 M311.5,504.2l-0.2-0.6 M311.8,504.7l-0.3-0.6
		 M312.1,505.2l-0.3-0.5 M312.1,505.2L312.1,505.2 M312.1,505.2L312.1,505.2 M312.1,505.3L312.1,505.3 M312.1,505.3L312.1,505.3
		 M312.1,505.3L312.1,505.3 M312.2,505.3L312.2,505.3 M312.2,505.3L312.2,505.3 M312.2,505.3L312.2,505.3 M312.2,505.2L312.2,505.2
		 M312.2,505.2L312.2,505.2 M312.3,505.2L312.3,505.2"/>
	<path class="st9" d="M312.3,505.2L312.3,505.2 M313.3,504.6l-0.6,0.4 M314,504.1l-0.7,0.5 M317,502.1l-1.1,0.7 M318.2,501.3
		l-1.2,0.8 M319.5,500.5l-1.3,0.8 M320.8,499.6l-1.3,0.8 M322.2,498.8l-1.4,0.8 M323.6,498l-1.4,0.8 M325,497.2l-1.4,0.8
		 M326.4,496.4l-1.4,0.7 M327.7,495.7l-1.3,0.7 M329,495.2l-1.3,0.6 M330.2,494.7l-1.2,0.5 M330.2,494.7l0.5-0.2 M330.7,494.4
		l0.4-0.2 M331.1,494.2l0.3-0.2 M331.4,494.1l0.3-0.1 M331.7,493.9l0.2-0.1 M331.9,493.8l0.2-0.1 M332.1,493.7l0.1-0.1 M332.2,493.6
		l0.1-0.1 M332.4,493.4l0.1-0.2 M332.5,493.3l0.1-0.2 M332.6,493.1l0.1-0.2 M332.7,492.9l0.1-0.2 M332.8,492.7l0.1-0.3 M332.9,492.4
		l0.2-0.4 M333.1,492l0.2-0.4 M333.2,491.6l0.2-0.5 M333.5,491.1l0.3-0.6 M333.8,490.5l0.4-0.7 M334.2,489.9l0.4-0.7 M334.6,489.1
		l0.5-0.8 M335.4,486.9l-0.3,1.4 M335.7,485.4l-0.3,1.5 M336,483.7l-0.3,1.7 M336.3,481.9l-0.3,1.8 M336.6,479.9l-0.3,2
		 M336.8,477.7l-0.2,2.2 M337,475.4l-0.2,2.3 M337.1,472.9l-0.1,2.5 M337.2,470.2l-0.1,2.7 M337.2,467.3l0,2.9 M337.2,466.8l0,0.5
		 M337.1,466.3l0.1,0.5 M336.9,465.7l0.2,0.6 M336.6,465.1l0.2,0.6 M336.3,464.5l0.3,0.7 M336,463.8l0.3,0.7 M335.6,463l0.4,0.7
		 M335.3,462.2l0.4,0.8 M334.9,461.4l0.4,0.8 M334.5,460.5l0.4,0.9 M334.2,459.6l0.4,0.9 M333.9,458.8l0.3,0.8 M332.3,459l0.7-0.1
		 M331.5,459.1l0.9-0.1 M330.5,459.1l1-0.1 M326.5,459.4l1.5-0.1 M324.8,459.5l1.6-0.1 M323.1,459.6l1.7-0.1 M321.2,459.8l1.9-0.2
		 M319.3,459.9l2-0.2 M317.2,460.2l2.1-0.2 M315.1,460.5l2.1-0.3 M312.9,460.8l2.2-0.3 M310.6,461.2l2.3-0.4 M308.2,461.6l2.3-0.4
		 M305.9,462.1l2.4-0.5 M303.4,462.7l2.4-0.6 M303.6,463.9l-0.2-1.2 M303.8,465.4l-0.2-1.5 M304,467.1l-0.2-1.7 M304.2,469.1l-0.2-2
		 M304.5,471.5l-0.2-2.4 M304.7,474.2l-0.3-2.7 M305,477.3l-0.3-3.1 M305.4,480.7l-0.3-3.5 M318.8,471.2L318.8,471.2 M318.7,471.3
		L318.7,471.3 M318.7,471.4L318.7,471.4 M318.7,471.5l0-0.1 M318.7,471.7l0-0.2 M318.6,471.9l0-0.2 M318.6,472.2l0-0.3 M318.5,472.5
		l0.1-0.3 M318.5,472.8l0.1-0.3 M318.4,473.2l0.1-0.4 M318.3,473.6l0.1-0.4 M318.2,474l0.1-0.4 M318.1,474.5l0.1-0.4 M318,474.9
		l0.1-0.5 M317.8,475.4l0.1-0.5 M317.7,475.9l0.1-0.5 M317.5,476.4l0.2-0.5 M317.3,476.9l0.2-0.5 M317.2,477.4l0.2-0.5 M317,477.8
		l0.2-0.5 M316.8,478.3l0.2-0.5 M316.8,478.3l-0.4,0.9 M316.3,479.2l-0.4,0.8 M315.9,480.1l-0.4,0.7 M315.5,480.8l-0.4,0.6
		 M315,481.5l-0.4,0.6 M314.7,482l-0.3,0.5 M314.3,482.5l-0.3,0.4 M314,482.9l-0.3,0.3 M313.8,483.1l-0.2,0.2 M313.6,483.3l-0.1,0.1
		 M313.5,483.5L313.5,483.5 M313.4,483.5l-0.1-1.6 M313.3,481.9l-0.1-1.5 M313.2,474.6l0,5.8 M313.2,474.6l0.1-1.3 M313.3,473.3
		l0.1-1.2 M313.3,472l0.1-1.2 M313.4,470.9l0.1-1.1 M313.5,469.8l0.1-1 M313.6,468.8l0.1-0.9 M313.7,467.9l0.1-0.8 M313.8,467.2
		l0.1-0.6 M313.9,466.5l0.1-0.5 M313.9,466l0.1-0.4 M314,465.6l0.4-0.5 M314.4,465.1l0.4-0.4 M314.8,464.6l0.4-0.3 M315.2,464.3
		l0.4-0.2 M315.6,464.1l0.4-0.1 M316,464l0.4-0.1 M316.4,463.9l0.4,0 M316.8,463.9l0.4,0 M317.2,463.9l0.4,0.1 M317.5,464l0.3,0.1
		 M317.9,464.1l0.3,0.2 M318.2,464.3l0.3,0.2 M318.5,464.5l0.3,0.2 M318.8,464.7l0.2,0.2 M319,464.9l0.2,0.2 M319.2,465l0,1.9
		 M319.2,467l-0.1,1.8 M319.1,468.8l-0.2,1.7 M318.9,470.5l-0.1,0.7 M318.8,471.1L318.8,471.1 M314.4,490.4l-0.4-0.1 M314,490.3
		l-0.3-0.1 M313.7,490.3l-0.3-0.1 M313.4,490.2l-0.3-0.1 M313.1,490.1l-0.2-0.1 M312.9,490l-0.2-0.1 M312.7,489.9l-0.2-0.1
		 M312.5,489.9l-0.1-0.1 M312.4,489.8l-0.1,0 M312.3,489.8L312.3,489.8 M312.2,489.8L312.2,489.8 M312.2,489.7l0.1-0.2 M313,488.3
		l-0.3,0.6 M313,488.3l0.3-0.6 M313.3,487.7l0.2-0.5 M313.5,487.2l0.2-0.5 M316.9,484.9l-3.1,1.8 M316.9,484.9l0.8-0.8 M317.7,484.1
		l0.7-0.8 M318.4,483.2l0.7-0.9 M319.1,482.3l0.6-0.9 M319.7,481.4l0.5-1 M320.2,480.5l0.4-1 M320.6,479.5l0.4-1 M321,478.5l0.3-0.9
		 M321.3,477.6l0.3-0.9 M321.5,476.7l0.2-0.8 M321.7,475.9l0.2-0.8 M321.9,475.1l0.1-0.7 M322,474.4l0.1-0.6 M322.1,473.8l0.1-0.5
		 M322.2,473.3l0-0.4 M322.2,472.9l0-0.2 M322.2,472.7l0.4,1.2 M322.6,473.8l0.3,1.2 M323,475l0.3,1.1 M323.2,476.1l0.2,1.1
		 M323.4,477.3l0.1,1.1 M323.5,478.4l0.1,1.1 M323.6,479.5l0,1.1 M323.6,480.6l0,1 M323.6,481.6l-0.1,1 M323.5,482.6l-0.1,0.9
		 M323.4,483.5l-0.1,0.9 M323.3,484.4l-0.1,0.8 M323.1,485.2l-0.2,0.7 M323,485.9l-0.2,0.7 M322.8,486.6l-0.2,0.6 M322.7,487.1
		l-0.1,0.5 M322.5,487.6l-0.1,0.4 M322.4,488l-0.1,0.3 M322.3,488.3l-0.1,0.2 M322.2,488.4l-0.6,0.5 M321.7,489l-0.6,0.4
		 M321.1,489.4l-0.6,0.4 M320.5,489.8L320.5,489.8"/>
	<path class="st9" d="M320.4,489.8L320.4,489.8 M320.3,489.8l-0.5,0.3 M319.8,490.1l-0.7,0.2 M319.1,490.3l-0.7,0.2 M317.4,490.6
		l-0.5,0 M317,490.6l-0.5,0 M316.5,490.6l-0.5,0 M316,490.6l-0.4,0 M315.6,490.6l-0.4,0 M315.2,490.5l-0.4-0.1 M154.7,330.6l1.9,0
		 M154.7,330.6l0.2,1 M154.8,331.6l0.1,1 M155,332.6l0.1,0.9 M155.1,333.5l0.1,0.9 M155.1,334.4l0,0.8 M155.2,335.2l0,0.8
		 M155.2,336l0,0.7 M155.2,336.7l0,0.7 M155.2,337.4l0,0.6 M155.2,338l0,0.6 M155.1,338.6l0,0.5 M155.1,339.1l0,0.5 M155,339.6
		L155,340 M155,340l-0.1,0.4 M154.9,340.4l-0.1,0.3 M154.9,340.7l0,0.3 M154.8,341l0,0.2 M154.8,341.2l0,0.1 M154.8,341.3
		L154.8,341.3 M154.7,341.4L154.7,341.4 M166,340.7l-0.5-0.2 M166.5,340.9l-0.6-0.2 M167.2,341.2l-0.7-0.3 M168.1,341.5l-0.8-0.3
		 M169,341.8l-0.9-0.3 M170,342.2l-1-0.4 M171.1,342.6l-1.1-0.4 M172.4,343l-1.2-0.4 M173.7,343.4l-1.3-0.4 M175,343.8l-1.4-0.4
		 M176.5,344.2l-1.5-0.4 M178,344.5l-1.5-0.4 M179.6,344.9l-1.6-0.4 M181.3,345.3l-1.6-0.4 M183,345.6l-1.7-0.3 M184.7,345.9
		l-1.7-0.3 M186.5,346.2l-1.8-0.3 M186.9,346.1l-0.4,0.1 M187.4,346l-0.4,0.1 M187.8,345.8l-0.4,0.2 M188.2,345.6l-0.4,0.2
		 M188.6,345.4l-0.4,0.3 M189,345.1l-0.3,0.3 M189.2,344.8l-0.3,0.3 M189.5,344.4l-0.2,0.4 M189.6,344l-0.1,0.4 M189.7,343.6
		l-0.1,0.4 M189.6,343.1l0,0.5 M189.5,342.6l0.1,0.5 M189.2,342.1l0.3,0.5 M188.8,341.6l0.4,0.5 M188.3,341l0.5,0.6 M187.6,340.4
		l0.7,0.6 M186.7,339.9l0.9,0.6 M185.7,339.2l1,0.6 M185,339.1l0.6,0.2 M184.3,338.8l0.7,0.2 M183.5,338.6l0.8,0.3 M182.5,338.3
		l0.9,0.3 M181.5,337.9l1,0.4 M180.4,337.5l1.1,0.4 M179.2,337.1l1.2,0.4 M177.9,336.6l1.3,0.5 M176.5,336.1l1.4,0.5 M175.1,335.5
		l1.4,0.6 M173.6,334.9l1.5,0.6 M172.1,334.3l1.6,0.6 M170.5,333.6l1.6,0.7 M168.8,332.9l1.7,0.7 M167.1,332.1l1.7,0.8 M165.4,331.3
		l1.7,0.8 M164.8,331.2l0.6,0.1 M164.1,331.1l0.7,0.1 M163.2,331l0.8,0.1 M162.2,330.9l1,0.1 M161.1,330.8l1.1,0.1 M159.8,330.7
		l1.3,0.1 M158.3,330.7l1.5,0.1 M156.6,330.6l1.7,0 M213.9,807.5l0.1-2.8 M213.9,807.5l5.9-1.6 M219.7,805.9l5.8-1.4 M225.5,804.5
		l5.6-1.3 M231.1,803.2l5.5-1.1 M236.6,802.1l5.3-1 M241.9,801l5.1-0.9 M247.1,800.2l4.9-0.8 M252,799.4l4.7-0.7 M256.7,798.7
		l4.5-0.6 M261.2,798.2l4.2-0.5 M265.3,797.7l3.9-0.4 M269.2,797.3l3.6-0.3 M272.8,797l3.2-0.2 M276,796.8l2.9-0.2 M278.9,796.6
		l2.5-0.1 M281.4,796.5l2.1-0.1 M283.5,796.4l1.7-0.1 M285.1,796.4l1.2,0 M286.3,796.3l0.7,0 M287.1,796.3l0.3,0 M285.5,795l1.8,1.3
		 M282.2,792l3.3,3 M279.2,788.6l2.9,3.4 M276.8,784.8l2.4,3.8 M275.9,782.6l0.9,2.1 M275.7,782.7l0.2-0.1 M275.2,782.9l0.5-0.2
		 M274.4,783.3l0.8-0.4 M273.2,783.8l1.2-0.5 M271.7,784.3l1.5-0.5 M269.9,784.9l1.8-0.6 M267.8,785.6l2.1-0.6 M265.3,786.2l2.5-0.7
		 M262.5,786.9l2.8-0.7 M259.4,787.5l3.1-0.6 M256,788.1l3.4-0.6 M252.3,788.6l3.7-0.5 M248.3,789l4-0.4 M244,789.4l4.3-0.3
		 M239.4,789.5l4.6-0.2 M234.6,789.6l4.9,0 M229.4,789.4l5.2,0.2 M223.9,789l5.5,0.4 M218.2,788.5l5.7,0.6 M212.2,787.6l6,0.8
		 M212.4,789.4l-0.3-1.8 M213.6,796.3l-1.2-6.9 M213.8,798.1l-0.2-1.7 M213.9,800l-0.1-2 M214,802.2l-0.1-2.2 M214,804.7l0-2.5
		 M210.3,772l4.5,0.6 M210.8,777.2l-0.5-5.3 M211.5,783l-0.7-5.8 M212.2,787.6l-0.7-4.6 M275,780.5l0.9,2.1 M273.8,775.8l1.2,4.7
		 M273.4,770.6l0.4,5.2 M273.5,770.4l0,0.2 M273.5,769.8l0,0.6 M273.6,768.9l-0.1,0.9 M273.3,769l0.3-0.2 M272.6,769.3l0.7-0.2
		 M271.4,769.6l1.2-0.3 M269.8,769.9l1.6-0.4 M267.9,770.3l2-0.4 M265.5,770.7l2.3-0.4 M262.9,771.2l2.7-0.4 M259.9,771.6l3-0.4
		 M256.7,772l3.3-0.4 M253.2,772.4l3.5-0.4 M249.4,772.7l3.7-0.3 M245.5,773l3.9-0.3 M241.4,773.2l4.1-0.2 M237.2,773.4l4.2-0.1
		 M232.8,773.4l4.4-0.1 M228.4,773.4l4.4,0 M223.9,773.2l4.5,0.2 M219.4,772.9l4.5,0.3 M214.8,772.5l4.5,0.4 M211.8,740.8l3.3,1.5
		 M211.1,746.2l0.6-5.4 M210.7,748l0.4-1.9 M210.4,750.3l0.3-2.2 M210.1,752.8l0.3-2.6 M209.9,755.8l0.2-3 M209.8,759.1l0.1-3.4
		 M209.8,762.9l0-3.8 M210,767.2l-0.2-4.3 M210.3,772l-0.3-4.8 M273.9,762.2l-0.1,2.1 M274,759.9l-0.1,2.3 M274.2,757.4l-0.1,2.5
		 M274.3,754.7l-0.2,2.7 M274.5,751.9l-0.2,2.8 M274.7,749l-0.2,2.9 M274.8,747.5l-0.1,1.5 M272.2,748l2.6-0.5 M269.5,748.4l2.7-0.4
		 M266.7,748.8l2.8-0.4 M263.9,749.1l2.9-0.3 M260.9,749.3l3-0.2 M257.8,749.5l3-0.2 M254.7,749.6l3.1-0.1 M251.6,749.6l3.2,0
		 M248.4,749.5l3.2,0.1 M245.1,749.3l3.3,0.2 M241.8,749l3.3,0.3 M238.5,748.6l3.3,0.4"/>
	<path class="st9" d="M235.2,748.1l3.3,0.5 M231.8,747.5l3.4,0.6 M228.4,746.7l3.4,0.8 M225.1,745.8l3.4,0.9 M221.7,744.8l3.4,1
		 M218.4,743.6l3.3,1.2 M215.1,742.3l3.3,1.3 M287.3,796.3l1.8,1.3 M213.6,810.6l0.2-3.1 M213.2,814l0.4-3.4 M212.7,817.7l0.5-3.7
		 M212.1,821.7l0.7-4 M211.2,826.1l0.9-4.4 M211.8,826.7l-0.6-0.7 M212.6,827.5l-0.8-0.7 M213.5,828.3l-0.9-0.8 M214.4,829.1
		l-0.9-0.8 M215.4,829.9l-1-0.8 M216.6,830.8l-1.1-0.8 M217.8,831.6l-1.2-0.8 M219.1,832.4l-1.3-0.8 M220.4,833.2l-1.4-0.7
		 M221.9,833.8l-1.4-0.7 M223.4,834.4l-1.5-0.6 M224.9,834.9l-1.6-0.5 M226.5,835.3l-1.6-0.4 M228.2,835.5l-1.7-0.2 M229.9,835.6
		l-1.7-0.1 M232.9,835.6l-3,0 M236.4,835.7l-3.4-0.1 M240.2,835.8l-3.8-0.1 M244.3,835.9l-4.1-0.1 M248.7,836l-4.4-0.2 M253.3,836.2
		l-4.7-0.2 M258.2,836.5l-4.9-0.2 M263.3,836.8l-5-0.3 M268.5,837.2l-5.2-0.4 M273.7,837.6l-5.3-0.4 M279.1,838.1l-5.3-0.5
		 M284.4,838.7l-5.4-0.6 M289.8,839.3l-5.4-0.7 M295.1,840.1l-5.3-0.7 M300.3,840.9l-5.2-0.8 M302.6,840.6l-2.3,0.3 M305.1,840.2
		l-2.5,0.4 M307.9,839.7l-2.7,0.5 M310.7,839.2l-2.9,0.5 M313.7,838.5l-3,0.6 M316.8,837.8l-3.1,0.7 M319.9,837l-3.1,0.8
		 M323.1,836.1l-3.1,0.9 M326.2,835.1l-3.1,1 M329.2,834l-3.1,1.1 M332.2,832.8l-3,1.2 M335,831.5l-2.8,1.3 M337.7,830.1l-2.7,1.4
		 M340.2,828.5l-2.5,1.6 M340,827.6l0.2,0.9 M339.7,826.4l0.3,1.1 M339.4,825.2l0.3,1.3 M339,823.8l0.4,1.4 M338.4,822.3l0.5,1.5
		 M337.8,820.7l0.6,1.6 M337,819.1l0.8,1.6 M336.1,817.5l0.9,1.6 M335.1,816l1,1.6 M333.9,814.5l1.2,1.5 M332.5,813.1l1.4,1.4
		 M331,811.8l1.5,1.3 M329.3,810.7l1.7,1.1 M327.4,809.7l1.9,0.9 M325.3,809l2.1,0.7 M323,808.6l2.3,0.4 M320.5,808.4l2.5,0.2
		 M317.2,807.9l3.3,0.6 M313.5,807.1l3.7,0.7 M309.6,806.2l3.9,0.9 M305.5,805l4.1,1.2 M301.3,803.6l4.2,1.4 M297.2,801.9l4.2,1.7
		 M293.1,800l4.1,2 M289.2,797.6l3.9,2.3 M130,800.4l4.8-0.2 M130.2,805.8l-0.2-5.4 M130.3,811.9l0-6.1 M130.1,818.6l0.1-6.7
		 M130.1,818.6l6.9-1.6 M137.1,817l6.5-1.4 M143.5,815.5l6-1.3 M149.5,814.3l5.5-1.1 M155,813.2l5.1-0.9 M160.1,812.2l4.6-0.8
		 M164.8,811.4l4.2-0.7 M169,810.8l3.8-0.5 M172.8,810.2l3.4-0.4 M176.3,809.8l3.1-0.3 M179.3,809.5l2.7-0.2 M182,809.2l2.4-0.2
		 M184.4,809l2-0.1 M186.4,808.9l1.7-0.1 M188.1,808.9l1.4,0 M189.5,808.8l1.1,0 M190.7,808.9l0.8,0 M191.5,808.9l0.6,0
		 M192.1,808.9l0.3,0 M192.4,808.9l0.1,0 M191.5,807.4l1,1.6 M189.6,803.9l2,3.5 M187.7,800.1l1.8,3.8 M186.1,796.1l1.6,4
		 M184.8,791.7l1.4,4.3 M184.6,790.8l0.2,0.9 M184.4,791l0.1-0.2 M184,791.3l0.5-0.3 M183.2,791.6l0.8-0.3 M182.1,792.1l1.1-0.4
		 M180.7,792.5l1.4-0.5 M179.1,793.1l1.7-0.5 M177.1,793.6l1.9-0.6 M174.9,794.2l2.2-0.6 M172.4,794.8l2.5-0.6 M169.7,795.5l2.7-0.6
		 M166.7,796.1l3-0.6 M163.5,796.7l3.2-0.6 M160,797.4l3.5-0.6 M156.4,797.9l3.7-0.6 M152.5,798.5l3.9-0.6 M148.4,799l4.1-0.5
		 M144.1,799.5l4.3-0.5 M139.6,799.9l4.5-0.4 M134.9,800.2l4.7-0.3 M127.6,781.6l4.7,0.2 M128.2,784.4l-0.6-2.8 M128.8,787.6
		l-0.6-3.2 M129.3,791.3l-0.5-3.7 M129.7,795.6l-0.4-4.3 M130,800.4l-0.3-4.8 M183.7,787.1l0.9,3.7 M182.9,782.2l0.7,4.9 M182.6,777
		l0.4,5.2 M182.6,774.3l0,2.7 M182.4,774.4l0.2-0.1 M181.9,774.6l0.5-0.2 M181.1,774.9l0.8-0.3 M180,775.3l1.1-0.4 M178.5,775.7
		l1.4-0.5 M176.8,776.3l1.7-0.5 M174.8,776.9l2-0.6 M172.5,777.5l2.3-0.6 M169.9,778.1l2.6-0.6 M167.1,778.8l2.8-0.6 M164.1,779.4
		l3-0.6 M160.8,780l3.3-0.6 M157.3,780.5l3.5-0.5 M153.6,781l3.7-0.5 M149.7,781.4l3.9-0.4 M145.6,781.7l4.1-0.3 M141.3,781.9
		l4.3-0.2 M136.9,782l4.4-0.1 M132.3,781.9l4.6,0.1 M119.4,754.5l5.5-0.3 M119.7,756l-0.3-1.5 M122.1,765.7l-2.5-9.7 M125.1,774.6
		l-3-9 M125.7,775.8l-0.6-1.2 M126.3,777.4l-0.6-1.6 M127,779.3l-0.6-1.9 M127.6,781.6l-0.6-2.3 M182.7,771.6l0,2.7 M182.8,770.2
		l-0.1,1.4 M182.8,768.6l-0.1,1.6 M182.9,766.8l0,1.8 M182.8,764.8l0,2 M182.7,762.7l0.1,2.1 M182.5,760.4l0.2,2.3 M182.3,758
		l0.3,2.4 M181.9,755.4l0.4,2.6 M181.4,752.7l0.5,2.7 M180.7,750l0.7,2.8 M179.9,747.1l0.8,2.9 M178.9,744.2l1,2.9 M178.7,744.2
		l0.2-0.1 M178.2,744.4l0.5-0.2 M177.4,744.7l0.8-0.3 M176.3,745.1l1.1-0.4 M174.8,745.5l1.5-0.5 M173.1,746l1.8-0.5 M171,746.6
		l2.1-0.6 M168.7,747.3l2.4-0.6 M166,747.9l2.6-0.7 M163.1,748.6l2.9-0.7 M159.9,749.3l3.2-0.7 M156.4,750l3.5-0.7 M152.7,750.8
		l3.7-0.7 M148.6,751.4l4-0.7 M144.4,752.1l4.3-0.7 M139.9,752.7l4.5-0.6 M135.1,753.3l4.8-0.6 M130.1,753.8l5-0.5 M124.9,754.2
		l5.2-0.4"/>
	<path class="st9" d="M134.4,845.2l-1.6-0.7 M136.2,845.9l-1.8-0.7 M138.2,846.7l-2-0.8 M140.3,847.5l-2.2-0.8 M142.7,848.4
		l-2.4-0.9 M145.2,849.3l-2.5-0.9 M148,850.2l-2.7-0.9 M150.9,851.2l-2.9-1 M154,852.2l-3.1-1 M157.3,853.3l-3.3-1 M160.7,854.3
		l-3.5-1 M164.4,855.4l-3.6-1.1 M168.2,856.4l-3.8-1.1 M169.6,856.5l-1.4-0.1 M171.4,856.6l-1.8-0.1 M173.5,856.7l-2.1-0.1
		 M175.9,856.8l-2.4-0.1 M178.6,856.8l-2.7,0 M181.6,856.8l-2.9,0 M184.7,856.8l-3.2,0 M188.1,856.7l-3.3,0.1 M191.6,856.5l-3.5,0.2
		 M195.2,856.3l-3.6,0.2 M199,856l-3.8,0.3 M202.8,855.5L199,856 M206.7,855l-3.9,0.5 M210.7,854.4l-3.9,0.7 M214.6,853.6l-3.9,0.8
		 M218.5,852.7l-3.9,0.9 M219.6,851.7l0.4-0.4 M220,851.3l0.4-0.3 M220.4,851l0.3-0.3 M220.7,850.7l0.3-0.3 M221,850.4l0.3-0.3
		 M221.2,850.2l0.2-0.2 M221.5,849.9l0.2-0.2 M221.6,849.7l0.1-0.2 M221.8,849.5l0.1-0.2 M221.9,849.4l0.1-0.2 M222,849.2l0.1-0.2
		 M222.1,849.1l0-0.1 M222.1,848.9l0-0.1 M222.1,848.8l0-0.2 M222.2,848.6l0-0.2 M222.2,848.5l0-0.2 M222.1,848.3l0-0.2
		 M222.1,847.9l0,0.2 M221.9,846.4l0.2,1.5 M221.6,844.8l0.3,1.6 M221.2,843.1l0.4,1.7 M220.7,841.3l0.5,1.8 M220,839.5l0.6,1.8
		 M219.3,837.7l0.7,1.8 M218.4,836l0.9,1.8 M217.4,834.2l1,1.8 M216.2,832.5l1.2,1.7 M214.8,830.9l1.4,1.6 M213.2,829.4l1.6,1.5
		 M211.5,828l1.8,1.4 M209.5,826.8l2,1.2 M208.5,826.1l1,0.7 M207.2,825.1l1.3,1 M205.7,823.9l1.5,1.2 M204,822.4l1.7,1.5
		 M202,820.6l1.9,1.8 M200,818.5l2,2.1 M197.9,816.1l2.1,2.4 M195.7,813.5l2.2,2.6 M193.6,810.6l2.1,2.9 M192.6,809l1,1.6
		 M129.8,821.9l0.3-3.3 M129.5,824.7l0.3-2.8 M129.1,827.2l0.3-2.4 M128.8,829.2l0.3-2.1 M128.6,831l0.3-1.8 M128.3,832.5l0.3-1.5
		 M128.1,833.7l0.2-1.2 M127.9,834.7l0.2-1 M127.7,835.5l0.2-0.8 M127.5,836.2l0.1-0.7 M127.4,836.7l0.1-0.6 M127.4,837.2l0.1-0.5
		 M127.3,837.6l0-0.4 M127.4,838.1l0-0.4 M127.4,838.5l-0.1-0.5 M127.6,839l-0.1-0.5 M127.7,839.7l-0.2-0.6 M128,840.4l-0.2-0.7
		 M129.4,842.9l-0.7-0.4 M130.3,843.3l-0.9-0.5 M131.5,843.9l-1.2-0.5 M132.9,844.5l-1.4-0.6 M165.4,348.6l1.7,0.6 M163.6,347.9
		l1.8,0.6 M161.7,347.3l1.9,0.6 M159.8,346.7l2,0.6 M157.7,346l2.1,0.7 M155.6,345.3l2.1,0.7 M154,344.9l1.5,0.5 M154,344.9
		L154,344.9 M154,344.9L154,344.9 M153.9,344.8L153.9,344.8 M153.8,344.8l0.1,0 M153.6,344.8l0.1,0 M153.5,344.7l0.1,0 M153.4,344.7
		l0.1,0.1 M153.2,344.6l0.2,0.1 M153.1,344.5l0.2,0.1 M152.9,344.4l0.1,0.1 M152.8,344.3l0.1,0.1 M152.7,344.1l0.1,0.2 M152.6,343.9
		l0.1,0.2 M152.5,343.7l0.1,0.2 M152.4,343.4l0,0.3 M152.4,343.1l0,0.3 M152.5,342.8l0,0.3 M152.5,342.4l-0.1,0.4 M152.5,342.4
		l0.1-1.9 M152.6,340.1l0,0.4 M152.6,339.7l0,0.4 M152.5,339.2l0,0.5 M152.5,338.7l0,0.5 M152.5,338.1l0,0.6 M152.4,337.5l0,0.6
		 M152.4,336.8l0,0.7 M152.4,336l0,0.7 M152.4,335.2l0,0.8 M152.4,334.4l0,0.8 M152.4,333.5l0,0.9 M152.5,332.6l0,0.9 M152.5,331.6
		l-0.1,1 M152.6,330.6l-0.1,1 M152.8,330.5l-0.2,0.1 M153.1,330.5l-0.3,0.1 M153.6,330.3l-0.5,0.1 M154.2,330.2l-0.6,0.1 M154.8,330
		l-0.7,0.2 M155.6,329.8l-0.8,0.2 M156.4,329.6l-0.8,0.2 M157.3,329.4l-0.9,0.2 M158.2,329.3l-0.9,0.2 M159.2,329.1l-1,0.2
		 M160.2,328.9l-1,0.2 M161.3,328.7l-1,0.2 M162.3,328.6l-1,0.1 M163.3,328.5l-1,0.1 M164.3,328.4l-1,0.1 M165.3,328.3l-1,0.1
		 M166.2,328.3l-0.9,0 M167.1,328.3l-0.9,0 M167.9,328.4l-0.8-0.1 M168.3,328.6l-0.4-0.2 M168.8,328.9l-0.5-0.3 M169.5,329.2
		l-0.6-0.3 M170.2,329.6l-0.7-0.3 M171,329.9l-0.8-0.4 M171.9,330.3l-0.9-0.4 M172.8,330.7l-1-0.4 M173.9,331.2l-1.1-0.4 M175,331.6
		l-1.1-0.4 M176.2,332l-1.2-0.4 M177.5,332.4l-1.3-0.4 M178.9,332.8l-1.3-0.4 M180.3,333.2l-1.4-0.4 M181.7,333.6l-1.5-0.4
		 M183.3,333.9l-1.5-0.3 M184.9,334.2l-1.6-0.3 M186.5,334.5l-1.6-0.3 M186.9,334.4l-0.4,0.1 M187.3,334.3l-0.4,0.1 M187.8,334.1
		l-0.4,0.1 M188.2,333.9l-0.4,0.2 M188.6,333.7l-0.4,0.2 M189,333.5l-0.4,0.2 M189.4,333.2l-0.4,0.3 M189.8,332.9l-0.4,0.3
		 M190.1,332.6l-0.3,0.3 M190.4,332.2l-0.3,0.4 M190.7,331.7l-0.2,0.4 M190.9,331.3l-0.2,0.5 M190.9,331.2L190.9,331.2 M190.9,331.1
		L190.9,331.1 M190.9,331l0,0.2 M190.9,330.8l0,0.2 M190.9,330.5l0,0.2 M190.8,330.2l0,0.3 M190.8,329.9l0.1,0.3 M190.7,329.6
		l0.1,0.3 M190.5,329.2l0.1,0.4 M190.3,328.8l0.2,0.4 M190,328.5l0.3,0.4 M189.7,328.1l0.3,0.4 M189.3,327.7l0.4,0.4 M188.8,327.3
		l0.5,0.4 M188.2,326.9l0.6,0.4 M187.5,326.5l0.7,0.4 M186.8,326.2l0.8,0.3 M185.8,325.9l0.9,0.3 M184.8,325.6l1,0.3 M183.7,325.4
		l1.2,0.2"/>
	<path class="st9" d="M164.2,317.3l-13.7,4.5 M164.3,317.3L164.3,317.3 M164.4,317.3l-0.2,0 M164.8,317.4l-0.3,0 M165.2,317.4
		l-0.4,0 M165.7,317.4l-0.5,0 M166.3,317.5l-0.6-0.1 M167,317.5l-0.7-0.1 M167.8,317.6l-0.8-0.1 M168.7,317.7l-0.9-0.1 M169.6,317.7
		l-0.9-0.1 M170.6,317.8l-1-0.1 M171.6,317.9l-1-0.1 M172.6,317.9l-1-0.1 M173.7,318l-1.1-0.1 M174.8,318l-1.1-0.1 M175.9,318.1
		l-1.1,0 M177,318.1l-1.1,0 M178.1,318.1l-1.1,0 M179.1,318.1l-1.1,0 M180.2,318.2l-1,0 M180.9,317.9l-0.7,0.2 M181.6,317.7
		l-0.7,0.3 M182.4,317.3l-0.8,0.3 M183.1,317l-0.8,0.4 M183.8,316.6l-0.7,0.4 M184.4,316.2l-0.6,0.4 M184.9,315.7l-0.5,0.5
		 M185.3,315.2l-0.4,0.5 M185.5,314.6l-0.2,0.5 M185.4,314l0,0.6 M185.2,313.4l0.3,0.6 M184.6,312.8l0.6,0.6 M183.7,312.1l0.9,0.7
		 M182.4,311.4l1.3,0.7 M180.8,310.7l1.6,0.7 M178.7,310l2.1,0.7 M177.8,310l0.9-0.1 M176.8,310.1l1.1-0.1 M175.5,310.1l1.2,0
		 M174.1,310.1l1.4,0 M172.4,310.2l1.7,0 M170.5,310.2l1.9,0 M168.4,310.2l2.1,0 M166,310.2l2.4,0 M163.3,310.2l2.7,0 M160.3,310.2
		l3,0 M160.2,310.3l0.1-0.1 M159.7,310.5l0.5-0.3 M158.8,311l0.9-0.4 M157.6,311.5l1.2-0.6 M156.1,312.2l1.5-0.7 M154.3,313l1.8-0.8
		 M152.2,313.9l2.1-0.9 M149.9,314.9l2.3-1 M147.5,315.9l2.5-1 M144.8,317l2.7-1.1 M142,318.1l2.8-1.1 M139.1,319.2l2.9-1.1
		 M136.1,320.4l3-1.1 M133,321.5l3.1-1.1 M129.9,322.5l3.1-1.1 M128.3,323l1.6-0.5 M128.3,323l1.2,2.4 M129.6,325.4l1,2.5
		 M130.6,327.9l0.8,2.5 M131.4,330.4l0.7,2.5 M132.1,332.9l0.5,2.5 M132.6,335.4l0.3,2.5 M132.9,337.9l0.2,2.4 M133.1,340.3l0.1,2.4
		 M133.2,342.7l0,2.3 M133.2,345l-0.1,2.2 M133.1,347.2l-0.2,2.1 M132.9,349.3l-0.2,2 M132.7,351.3l-0.3,1.8 M132.4,353.1l-0.3,1.6
		 M132.2,354.7l-0.3,1.4 M131.9,356.1l-0.3,1.2 M131.6,357.3l-0.2,1 M131.4,358.3l-0.2,0.7 M131.2,359l-0.1,0.4 M131.1,359.5l0,0.2
		 M132.9,358.9l-1.8,0.7 M134.8,358.2l-1.9,0.7 M136.7,357.5l-1.9,0.7 M138.6,356.8l-1.9,0.7 M140.5,356.1l-1.9,0.7 M142.4,355.4
		l-1.9,0.7 M144.2,354.8l-1.8,0.6 M145.8,354.3l-1.7,0.6 M147.4,353.8l-1.6,0.5 M148.8,353.3l-1.4,0.4 M150,353l-1.2,0.3 M150.4,353
		l-0.4,0 M150.9,353.1l-0.5,0 M151.4,353.1l-0.5,0 M152,353.2l-0.5-0.1 M152.5,353.2l-0.6-0.1 M153.1,353.3l-0.6-0.1 M153.8,353.4
		l-0.6-0.1 M154.4,353.5l-0.7-0.1 M155.1,353.6l-0.7-0.1 M155.8,353.7l-0.7-0.1 M156.5,353.9l-0.7-0.1 M157.2,354.1l-0.7-0.2
		 M158,354.2l-0.7-0.2 M158.7,354.4l-0.7-0.2 M159.3,354.7l-0.6-0.2 M160,355l-0.7-0.3 M160.8,355.3L160,355 M161.7,355.6l-0.9-0.3
		 M162.6,356l-0.9-0.3 M163.7,356.3l-1-0.4 M164.7,356.7l-1.1-0.4 M165.9,357l-1.1-0.3 M167.1,357.3l-1.2-0.3 M168.3,357.6l-1.3-0.3
		 M169.6,357.9l-1.3-0.3 M171,358.2l-1.3-0.2 M172.3,358.4l-1.4-0.2 M173.7,358.5l-1.4-0.2 M175.1,358.6l-1.4-0.1 M176.6,358.7
		l-1.4,0 M176.9,358.6l-0.3,0.1 M177.2,358.4l-0.3,0.1 M177.6,358.3l-0.3,0.2 M177.9,358.1l-0.3,0.2 M178.2,357.8l-0.3,0.2
		 M178.4,357.6l-0.3,0.3 M178.6,357.3l-0.2,0.3 M178.8,356.9l-0.2,0.3 M178.9,356.6l-0.1,0.3 M178.9,356.2l0,0.4 M178.9,355.8l0,0.4
		 M178.7,355.4l0.1,0.4 M178.5,354.9l0.2,0.4 M178.2,354.5l0.3,0.5 M177.8,354l0.4,0.5 M177.2,353.5l0.5,0.5 M176.5,353l0.7,0.5
		 M175.8,352.6l0.7,0.3 M174.9,352.2l0.9,0.4 M173.9,351.8l1,0.4 M172.8,351.4l1.1,0.5 M171.5,350.9l1.3,0.5 M170.2,350.3l1.4,0.5
		 M168.7,349.8l1.5,0.6 M167.1,349.2l1.6,0.6 M152.8,344.3l0.4,0.3 M152.7,342l0.1-0.7 M152.7,341.1l0,0.2 M152.7,340.8l0,0.3
		 M152.7,340.5l0,0.3 M152.7,342l-0.1,0.4 M159.6,436.9l0.6-1.1 M158.6,435.8l1.6,0.1 M158.6,435.8l0.9,1.1 M277.8,397.2l0,3.9
		 M278,393.3l-0.2,3.9 M278.4,389.4l-0.4,3.9 M279.1,385.6l-0.6,3.8 M280,381.9l-0.9,3.7 M281.2,378.4l-1.2,3.5 M282.6,375l-1.5,3.3
		 M283,376.6l-0.4-1.5 M283.5,378.6l-0.5-2.1 M285.6,387.4l-0.8-3.3 M286.5,391l-0.9-3.6 M287.4,394.9l-1-3.8 M288.5,398.9l-1-4
		 M289.6,403.1l-1.1-4.2 M290.8,407.3l-1.2-4.3 M292,411.6l-1.2-4.3 M293.3,415.9l-1.3-4.3 M294.6,420.1l-1.4-4.2 M296,424.1l-1.4-4
		 M297.5,428l-1.4-3.9 M299,431.6l-1.5-3.6 M300.5,434.9l-1.5-3.3 M302,437.8l-1.5-2.9 M301.7,438.9l0.3-1.1 M301.4,440.2l0.3-1.3
		 M301.1,441.6l0.3-1.4 M300.8,443.1l0.3-1.5 M300.6,444.7l0.2-1.6 M300.4,446.4l0.2-1.7 M300.4,448.2l0.1-1.8 M300.4,450l0-1.8
		 M300.5,451.9l-0.1-1.9 M300.8,453.8l-0.2-1.9 M301.1,455.8l-0.4-2 M301.7,457.7l-0.5-2 M302.4,459.7l-0.7-2 M303.3,461.7l-0.9-2
		 M303.4,462.7l-0.2-1 M333.8,458.6l0.1,0.2 M333.5,457.5l0.3,1 M333.3,456.4l0.2,1.1 M333.1,455.3l0.2,1.2"/>
	<path class="st9" d="M333,454.1l0.1,1.2 M332.9,452.8l0,1.3 M332.3,451.2l0.7,1.6 M331.5,449.3l0.7,1.9 M330.8,447.2l0.8,2.1
		 M330,444.8l0.8,2.3 M329.3,442.3l0.7,2.6 M328.6,439.5l0.7,2.7 M327.9,436.6l0.7,2.9 M327.3,433.5l0.6,3.1 M326.9,430.2l0.5,3.3
		 M326.5,426.8l0.3,3.4 M326.3,423.3l0.2,3.5 M326.3,419.6l0,3.6 M326.5,415.9l-0.2,3.7 M326.8,412l-0.4,3.8 M327.4,408.1l-0.6,3.9
		 M327.5,407.9l0,0.2 M327.6,407.3l-0.1,0.6 M327.6,406.4l-0.1,1 M327.7,405l-0.1,1.3 M327.8,403.4l-0.1,1.7 M327.9,401.3l-0.1,2
		 M328,399l-0.1,2.3 M328,396.4l0,2.6 M328,393.5l0,2.9 M328,390.3l0,3.2 M327.9,386.9l0.1,3.4 M327.8,383.3l0.1,3.6 M327.6,379.4
		l0.2,3.9 M327.4,375.4l0.2,4.1 M327.1,371.1l0.3,4.2 M326.7,366.7l0.4,4.4 M326.2,362.2l0.5,4.5 M325.7,357.5l0.6,4.7 M325,352.7
		l0.7,4.8 M324.2,347.8l0.8,4.9 M324.2,347.7l0,0.2 M324.2,347.2l0,0.5 M324.1,346.3l0.1,0.9 M324,345l0.1,1.3 M323.9,343.3l0.2,1.7
		 M323.6,341.1l0.2,2.2 M323.3,338.4l0.3,2.7 M323,335.2l0.4,3.2 M322.5,331.5l0.5,3.7 M322,327.2l0.5,4.3 M321.3,322.3l0.7,4.9
		 M320.6,316.7l0.8,5.5 M319.7,310.5l0.9,6.2 M318.7,303.6l1,6.9 M317.5,296l1.2,7.6 M316.2,287.7l1.3,8.3 M314.7,278.6l1.5,9.1
		 M313.1,268.7l1.6,9.9 M311.3,258l1.8,10.7 M309.3,246.4l2,11.6 M309.3,246l0,0.3 M309.3,245l0,1 M309.2,243.4l0.1,1.6 M309,241.2
		l0.1,2.2 M308.8,238.4l0.2,2.8 M308.5,235.2l0.3,3.2 M308.2,231.5l0.4,3.7 M307.7,227.4l0.5,4.1 M307.1,222.9l0.6,4.5 M306.4,218.2
		l0.7,4.8 M305.6,213.1l0.8,5 M304.6,207.8l1,5.3 M303.5,202.4l1.1,5.5 M302.2,196.8l1.3,5.6 M300.8,191.1l1.4,5.7 M299.2,185.3
		l1.6,5.7 M297.3,179.6l1.8,5.8 M295.3,173.9l2,5.7 M293.1,168.2l2.2,5.6 M290.7,162.7l2.5,5.5 M290.6,162.6L290.6,162.6
		 M290.5,162.4l0.1,0.3 M290.3,161.9l0.2,0.4 M289.9,161.3l0.4,0.6 M289.4,160.6l0.5,0.8 M288.7,159.7l0.7,0.9 M287.7,158.7l0.9,1
		 M286.6,157.6l1.2,1.1 M285.2,156.3l1.4,1.2 M283.5,155.1l1.7,1.3 M281.5,153.7l2,1.4 M279.2,152.3l2.3,1.4 M276.5,150.8l2.7,1.4
		 M273.5,149.4l3,1.5 M270,147.9l3.4,1.5 M266.2,146.4l3.8,1.5 M261.9,144.9l4.3,1.5 M257.2,143.4l4.7,1.5 M251.9,142l5.2,1.4
		 M246.2,140.7l5.7,1.4 M130,141l3.4-2.5 M125.4,144.3l4.6-3.3 M119.8,148.5l5.5-4.1 M113.5,153.3l6.4-4.8 M98.8,164.9l7.6-6.1
		 M90.8,171.5l8-6.6 M82.6,178.5l8.2-7 M74.3,185.8l8.3-7.4 M66.1,193.5l8.2-7.7 M58.1,201.4l8-7.9 M50.4,209.4l7.7-8 M43.3,217.4
		l7.1-8.1 M36.8,225.5l6.5-8.1 M31.1,233.5l5.7-8 M26.4,241.3l4.7-7.8 M22.8,249l3.6-7.6 M20.4,256.3l2.4-7.3 M21.3,258.8l-0.9-2.5
		 M22.6,262.1l-1.3-3.3 M24.3,266.2l-1.7-4.1 M26.4,270.9l-2.1-4.8 M28.9,276.3l-2.6-5.4 M31.9,282.2l-3-5.9 M35.4,288.5l-3.5-6.3
		 M39.4,295.2l-4-6.7 M43.9,302.2l-4.5-7 M48.9,309.3l-5-7.2 M54.4,316.6l-5.5-7.3 M60.5,323.9l-6.1-7.3 M67.2,331.2l-6.7-7.3
		 M74.4,338.3l-7.3-7.1 M82.3,345.2l-7.9-6.9 M90.8,351.9l-8.5-6.6 M99.9,358.1l-9.1-6.3 M109.7,364l-9.8-5.8 M109.7,364L109.7,364
		 M109.9,364l-0.1,0 M110.1,364l-0.2,0 M110.4,364.1l-0.3,0 M110.8,364.1l-0.4-0.1 M111.3,364.2l-0.5-0.1 M111.9,364.2l-0.5,0
		 M112.5,364.3l-0.6,0 M113.2,364.3l-0.7,0 M113.9,364.3l-0.7,0 M114.7,364.3l-0.8,0 M115.5,364.2l-0.8,0 M116.4,364.2l-0.9,0.1
		 M117.4,364.1l-0.9,0.1 M118.3,363.9l-1,0.1 M119.3,363.7l-1,0.2 M120.4,363.5l-1,0.2 M121.4,363.2l-1.1,0.3 M122.5,362.9l-1.1,0.3
		 M123.6,362.5l-1.1,0.4 M124.8,362l-1.2,0.5 M126.1,361.5l-1.4,0.5 M127.6,360.9l-1.5,0.6 M129.3,360.3l-1.7,0.6 M131.1,359.6
		l-1.8,0.7 M128.3,323L128.3,323 M128.2,323.1L128.2,323.1 M128.1,323.1l0.1-0.1 M128,323.2l0.1-0.1 M127.8,323.3l0.2-0.1
		 M127.6,323.5l0.2-0.1 M127.3,323.6l0.3-0.1 M127,323.8l0.3-0.2 M126.6,324l0.4-0.2 M126.2,324.2l0.4-0.2 M125.7,324.3l0.5-0.2
		 M125.1,324.5l0.5-0.2 M124.6,324.7l0.6-0.2 M123.9,324.9l0.6-0.2 M123.2,325.1l0.7-0.2 M122.5,325.3l0.8-0.2 M121.7,325.5l0.8-0.2
		 M120.8,325.7l0.9-0.2 M119.8,325.9l0.9-0.2 M118.8,326l1-0.2 M118.8,326l-2.1,0.7 M116.7,326.7l-2.1,0 M114.7,326.7l-2-0.5
		 M112.7,326.2l-1.9-1 M110.8,325.2l-1.8-1.4 M109,323.8l-1.7-1.7 M107.3,322.1L107.3,322.1 M107.2,322.1l0.1,0 M107,322.1l0.2,0.1
		 M106.7,321.9l0.3,0.1 M106.4,321.7l0.3,0.2 M106,321.5l0.4,0.3 M105.5,321.1l0.5,0.4 M104.9,320.5l0.6,0.5 M104.3,319.9l0.6,0.7
		 M103.6,319l0.7,0.8 M102.8,318l0.8,1 M102,316.7l0.8,1.2 M101.1,315.3l0.9,1.5 M100.1,313.6l1,1.7 M99,311.6l1.1,2 M97.9,309.3
		l1.1,2.3 M96.7,306.8l1.2,2.6"/>
	<path class="st9" d="M95.4,303.9l1.3,2.9 M94.1,300.7l1.3,3.2 M92.7,297.1l1.4,3.6 M92.7,297.1L91,294 M91,294l-1.6-3.2
		 M89.4,290.8l-1.5-3.2 M87.9,287.6l-1.4-3.1 M86.5,284.4l-1.3-3.1 M85.2,281.3l-1.2-3 M84,278.3l-1.1-2.9 M83,275.5l-0.9-2.7
		 M82,272.7l-0.8-2.6 M81.2,270.2l-0.7-2.4 M80.5,267.8l-0.6-2.1 M79.8,265.7l-0.5-1.9 M79.3,263.8l-0.4-1.6 M78.9,262.2l-0.3-1.3
		 M78.5,260.9l1.7-2.5 M80.2,258.5l1.7-2.3 M81.9,256.2l1.7-2.1 M83.5,254.2l1.7-1.9 M85.2,252.3l1.6-1.7 M86.8,250.6l1.6-1.5
		 M88.4,249.1l1.6-1.3 M90,247.8l1.5-1.2 M91.5,246.6l1.4-1 M92.9,245.5l1.4-0.9 M94.3,244.6l1.3-0.8 M95.5,243.9l1.2-0.7
		 M96.7,243.2l1.1-0.5 M97.8,242.6l1-0.4 M98.8,242.2l0.8-0.4 M99.6,241.8l0.7-0.3 M100.3,241.6l0.6-0.2 M100.9,241.4l0.4-0.1
		 M101.3,241.3l3.5,9.8 M104.8,251.1l3.1,9 M107.9,260l2.8,8.2 M110.7,268.2l2.5,7.4 M113.2,275.6l2.2,6.7 M115.4,282.3l1.9,6
		 M117.3,288.2l1.7,5.3 M119,293.6l1.4,4.7 M120.4,298.3l1.2,4.1 M121.6,302.4l1,3.6 M122.6,306l0.8,3.1 M123.4,309.1l0.7,2.6
		 M124.1,311.6l0.5,2.2 M124.6,313.8l0.4,1.7 M125,315.5l0.3,1.4 M125.3,316.9l0.2,1 M125.5,318l0.1,0.8 M125.6,318.7l0.1,0.5
		 M125.6,319.2l0,0.3 M125.7,319.5L125.7,319.5 M125.7,319.6l-2.3,3 M123.3,322.5l-2.3,2.1 M121.1,324.7l-2.2,1.4 M152.6,330.6
		l2.1,0 M152.8,341.3l0,0.3 M109.4,364.4l0.3-0.4 M109,364.9l0.4-0.5 M108.5,365.6l0.5-0.7 M107.9,366.4l0.6-0.8 M107.3,367.4l0.6-1
		 M106.5,368.6l0.7-1.2 M105.7,370l0.8-1.4 M104.8,371.5l0.9-1.6 M103.7,373.3l1-1.8 M102.6,375.3l1.2-2 M101.3,377.5l1.3-2.2
		 M99.9,379.9l1.4-2.4 M98.3,382.6l1.5-2.7 M96.7,385.5l1.7-2.9 M90.8,395.9l2.1-3.7 M90.2,398.2l0.6-2.3 M89.6,401l0.6-2.9
		 M89,404.4l0.6-3.4 M88.4,408.3l0.6-3.8 M87.8,412.5l0.6-4.3 M87.3,417.2l0.4-4.6 M87,422.1l0.3-5 M91.7,429.9l13.2,1.6
		 M104.9,431.5l16,1.6 M120.9,433.1l15.5,1.3 M136.4,434.4l14.9,1 M160.2,435.8l5.5,0.3 M165.7,436.1l13.7,0.5 M179.4,436.6l13,0.3
		 M192.5,436.9l12.3,0.1 M216.4,436.8l10.8-0.3 M227.2,436.6l9.9-0.4 M237.1,436.2l9.1-0.5 M246.2,435.7l8.1-0.6 M254.3,435.2
		l7.2-0.6 M261.5,434.6l6.2-0.6 M267.7,434l5.1-0.6 M272.8,433.3l4-0.6 M276.8,432.7l2.9-0.6 M279.7,432.1l1.7-0.5 M281.5,431.6
		l0.5-0.4 M281.6,429.5l0.4,1.7 M281.1,427.4l0.5,2.1 M280.6,425l0.5,2.5 M280,422.2l0.5,2.8 M279.5,419.2l0.5,3.1 M279,415.9
		l0.5,3.3 M278.5,412.4l0.4,3.5 M278.2,408.7l0.4,3.7 M277.9,405l0.3,3.8 M277.8,401.1l0.1,3.9 M184.6,615.6l-1.5,11.1 M184.8,615.1
		l-0.2,0.5 M185.2,613.7l-0.4,1.4 M185.9,611.5l-0.7,2.2 M186.8,608.5l-0.9,3 M188,604.8l-1.2,3.7 M189.4,600.3l-1.4,4.4
		 M190.9,595.3l-1.5,5 M192.6,589.7l-1.7,5.6 M194.4,583.6l-1.8,6.1 M196.3,577.1l-1.9,6.5 M198.3,570.2l-2,6.9 M200.4,563l-2.1,7.2
		 M202.5,555.5l-2.1,7.5 M204.6,547.8l-2.1,7.7 M206.7,540l-2.1,7.8 M208.8,532.1l-2.1,7.9 M210.9,524.1l-2,8 M212.9,516.2l-2,7.9
		 M214.8,508.3l-1.9,7.8 M216.5,500.6l-1.8,7.7 M216.9,502.7l-0.4-2 M217.4,505.4l-0.5-2.8 M218,508.8l-0.5-3.4 M220.1,522.4l-0.8-5
		 M221,527.8l-0.9-5.4 M222,533.6l-1-5.8 M223.1,539.6l-1.1-6.1 M224.3,545.9l-1.2-6.3 M225.6,552.4l-1.3-6.5 M227.1,559l-1.5-6.6
		 M228.7,565.7l-1.6-6.6 M230.4,572.3l-1.7-6.6 M232.3,578.9l-1.9-6.6 M234.3,585.3l-2-6.5 M236.4,591.6l-2.2-6.3 M238.8,597.6
		l-2.3-6 M238.6,621l1.6-4.7 M236.8,626.4l1.8-5.4 M234.9,632.5l1.9-6.1 M232.9,639.3l2-6.8 M230.8,646.6l2.1-7.4 M228.6,654.6
		l2.2-8 M226.4,663.1l2.2-8.5 M224.1,672.1l2.2-9 M221.9,681.6l2.2-9.5 M219.8,691.5l2.1-9.9 M217.8,701.8l2-10.3 M215.8,712.4
		l1.9-10.7 M214.1,723.4l1.8-11 M212.5,734.7l1.6-11.3 M275,746l-0.1,1.5 M275.3,743L275,746 M275.6,739.9l-0.3,3.1 M275.9,736.8
		l-0.4,3.1 M276.3,733.7l-0.4,3.1 M276.7,730.6l-0.4,3 M277.2,727.7l-0.5,3 M277.7,724.8l-0.5,2.9 M277.8,724.5l-0.1,0.2 M278,723.8
		l-0.2,0.7 M278.3,722.6l-0.3,1.2 M280.3,714l-0.6,2.7 M280.9,711l-0.7,3 M281.7,707.8l-0.8,3.2 M282.6,704.4l-0.8,3.4 M283.5,700.8
		l-0.9,3.6 M284.4,697.1l-1,3.7 M285.5,693.2l-1,3.9 M286.6,689.3l-1.1,3.9 M287.8,685.3l-1.2,4 M289,681.3l-1.2,4 M290.3,677.3
		l-1.3,4 M291.6,673.5l-1.3,3.9 M293,669.7l-1.4,3.8 M294.4,666l-1.4,3.7 M296.7,657.9l-2.3,8.1 M298.6,650.8l-2,7.1 M300.3,644.5
		l-1.7,6.2 M301.8,639.2l-1.5,5.4 M303,634.5l-1.2,4.6 M304.1,630.6l-1,3.9 M306.8,620.1l-0.5,2 M307.3,618.5l-0.5,1.7 M307.7,617
		l-0.4,1.4 M308.1,615.8l-0.4,1.3 M308.5,614.6l-0.4,1.2 M308.9,613.3l-0.4,1.2 M309.4,612.1l-0.5,1.3"/>
	<path class="st9" d="M309.9,610.6l-0.5,1.4 M310.6,609l-0.6,1.7 M313.1,602.3l-0.5,1.2 M313.6,601l-0.5,1.4 M314.1,599.5l-0.5,1.5
		 M314.5,597.9l-0.4,1.6 M314.9,596.2l-0.4,1.7 M315.3,594.4l-0.4,1.8 M315.6,592.6l-0.3,1.9 M315.8,590.6l-0.3,2 M316,588.6l-0.2,2
		 M316.1,586.5l-0.1,2.1 M316.1,584.3l0,2.2 M298.6,497l0.1,0.9 M298.5,495.7l0.2,1.2 M298.2,494.2l0.3,1.6 M297.9,492.2l0.3,1.9
		 M297.4,490l0.4,2.3 M296.9,487.4l0.5,2.6 M296.3,484.4l0.6,2.9 M295.6,481.2l0.7,3.3 M294.8,477.6l0.8,3.6 M293.9,473.7l0.9,3.9
		 M292.9,469.5l1,4.2 M291.7,464.9l1.2,4.5 M291.1,462.5l0.6,2.4 M291.1,462.5l-8.6-29.7 M282.5,432.8l0.7,2.4 M281.6,429.5l1.7,5.7
		 M87.5,438.6l-0.4-5.7 M88.2,444.5l-0.7-5.9 M89.3,450.5l-1.1-6 M90.7,456.5l-1.5-6 M92.7,462.5l-1.9-6.1 M95.1,468.6l-2.4-6
		 M98,474.5l-2.9-6 M100.3,478.3l-2.2-3.7 M100.3,478.3l1.7,5.3 M102,483.5l0.4,3.1 M102.4,486.7l0.9,6.2 M103.3,492.9l1,6.1
		 M104.3,499.1l1.1,6 M105.4,505.1l1.2,5.9 M106.6,511l1.2,5.7 M107.8,516.7l1.2,5.5 M109,522.2l1.2,5.3 M110.2,527.4l1.2,5
		 M111.4,532.4l1.2,4.7 M112.6,537.1l1.2,4.4 M113.8,541.5l1.1,4.1 M114.9,545.6l1,3.7 M116,549.3l1,3.3 M116.9,552.6l0.9,2.9
		 M117.8,555.4l0.7,2.4 M118.5,557.8l0.6,1.9 M119.1,559.7l0.5,1.4 M119.6,561.1l0.3,0.9 M119.9,562l0.1,0.3 M120.6,567.4l-0.6-5.1
		 M121.4,577.5l-0.8-10.1 M121.8,587.4l-0.4-9.9 M121.6,597l0.1-9.6 M120.9,606.2l0.7-9.1 M119.5,614.8l1.4-8.6 M117.5,622.7
		l2.1-7.9 M116.7,630.1l0.7-7.4 M116,638.5l0.7-8.4 M115.3,647.7l0.7-9.2 M114.7,657.5l0.6-9.9 M114.2,667.9l0.5-10.4 M113.9,678.8
		l0.3-10.8 M113.8,689.9l0.1-11.1 M113.9,701.2l-0.1-11.3 M114.3,712.6l-0.4-11.4 M115.1,723.9l-0.7-11.3 M116.2,735l-1.1-11.1
		 M117.7,745.7l-1.5-10.7 M119.4,754.5l-1.7-8.8 M177.7,741.2l1.2,3 M176.4,738.1l1.4,3 M174.8,735l1.6,3.1 M174.8,732.7l0,2.4
		 M174.8,729.6l0,3 M174.9,725.9l-0.1,3.7 M175,721.6l-0.1,4.3 M175.2,716.7l-0.2,4.9 M175.4,711.2l-0.2,5.5 M175.7,705.1l-0.3,6.1
		 M176.1,698.5l-0.4,6.7 M176.5,691.3l-0.5,7.2 M177.1,683.5l-0.6,7.7 M177.7,675.3l-0.7,8.3 M178.5,666.5l-0.8,8.8 M179.5,657.3
		l-0.9,9.3 M180.5,647.5l-1.1,9.7 M181.7,637.3l-1.2,10.2 M183.1,626.7l-1.4,10.6 M283.2,435.2l0.7,2.4 M284,437.6l1.8,6.1
		 M285.8,443.7l1.7,5.8 M287.5,449.4l1.5,5.5 M289,454.9l1.4,5.2 M290.4,460.1l0.6,2.4 M303.4,520.7l-4.8-23.7 M124.2,133.7
		l-7.1-5.8 M312.3,505.2l0.4-0.2 M314,504.1l1.9-1.3 M333.9,458.8l-0.9,0.2 M330.5,459.1l-2.5,0.1 M306.5,493.7l-1.2-13
		 M314.8,490.5l-0.4-0.1 M312.3,489.5l0.4-0.6 M318.4,490.5l-0.5,0.1 M317.9,490.6l-0.5,0 M165.5,340.5l-10.8,0.9 M218.5,852.7
		l1-0.9 M128,840.4l0.7,2 M183.7,325.4l-2-0.6 M181.7,324.7l-2.4-0.8 M179.3,323.9l-2.8-0.9 M176.4,323l-3.3-1 M173.1,322l-3.7-1.2
		 M169.4,320.8l-4.2-1.3 M150.4,321.8l14.8-2.3 M283.5,378.6l1.3,5.5 M113.5,153.3l-7.1,5.5 M154.7,341.4l-1.9,0.2 M96.7,385.5
		l-3.8,6.6 M87,422.1l-0.1,5.3 M91.7,429.9l-4.8-2.5 M151.4,435.4l7.3,0.4 M204.8,436.9l11.6-0.1 M218,508.8l1.3,8.5 M212.5,734.7
		l-0.7,6.1 M279.6,716.7l-1.4,6 M306.3,622.1l-2.2,8.5 M312.7,603.6l-2.1,5.4 M316.1,584.3l-0.1-2.2 M303.4,520.7l12.6,61.4
		 M303.4,520.7l-4.7-22.8 M86.9,427.4l0.1,5.5 M273.6,768.9l0.2-4.6 M306.5,493.7l0.8-0.1 M307.3,493.7l0.7-0.2 M308,493.5l0.7-0.3
		 M308.7,493.2l0.6-0.4 M309.3,492.9l0.6-0.4 M309.9,492.4l0.6-0.5 M310.5,491.9l0.5-0.6 M311,491.4l0.5-0.6 M311.5,490.8l0.4-0.6
		 M311.9,490.2l0.3-0.4 M313.7,486.7l-0.2-1.6 M313.6,485.1l-0.1-1.6 M313.2,480.4l0-1.5 M313.2,478.9l0-1.5 M313.2,477.4l0-1.4
		 M313.2,476l0-1.4 M322.2,488.4L322.2,488.4 M101.3,241.3l0.2-0.1 M101.5,241.2L101.5,241.2 M122.5,115.9l-1,0.2 M152.5,330.6
		L152.5,330.6 M269.8,249.5l-0.1-0.4 M216.2,499.4l-0.3-0.4 M216.5,500.6l-0.3-1.3"/>
</g>
</svg>
