<?xml version="1.0" encoding="utf-8"?>
<!-- Generator: Adobe Illustrator 20.0.0, SVG Export Plug-In . SVG Version: 6.00 Build 0)  -->
<svg version="1.1" id="Layer_1" xmlns="http://www.w3.org/2000/svg" xmlns:xlink="http://www.w3.org/1999/xlink" x="0px" y="0px"
	 viewBox="0 0 319.5 859.5" style="enable-background:new 0 0 319.5 859.5;" xml:space="preserve">
<style type="text/css">
	.st0{fill:#404A57;}
	.st1{fill:#FFE2C8;}
	.st2{fill:#555555;}
	.st3{fill:#E7DCC9;}
	.st4{fill:#212121;}
	.st5{fill:#FFFFFF;}
	.st6{fill:#746953;}
	.st7{fill:none;stroke:#000000;stroke-miterlimit:10;}
</style>
<g>
	<path class="st0" d="M255.1,639.5l0.8,3.5l-0.2,3.1l0.7,2.9l2.4,4.4l1.3,5.5l-0.2,4.4l2.5,10.7l1.2,43.3l-1.8,9.3l1.9,6.5l-0.5,4.9
		l0.2,1.1l-0.8,2.6l-0.1,3.4l-3.7,12.6l0.1,5.3l1.3,7.5l2.8,1.9l1.4,5.7l-0.1,2l-1.8,1.1l-0.3,4.8L261,787l-5.4-0.3l-5-1.5l-3.8-0.2
		l-5.8-0.9l-2.8,1.2l-5.1,3.3l-4.2,3.7l-5.9,6.6l-1.7,2.7l-2.2,2.5l-2.5-0.1l-3.2-0.9l-2.6-2.3l-0.9-0.8l0.3-2.5l-4.8-5.3l0.1-2.3
		l-2.3-4.7l-1.7-7.4l0.4-7.8l2.8-8.6l1.3-2.4l-0.8-2.9l-0.8-4.2l-1.4-4.9l-0.9-3.8l-0.3-2.3l-0.5-2.9l0.1-2l-1.3-3.2l-1.9-35.7
		l0.6-0.9l-0.8-11l0.6-10.7l-2.2-8.7l2.3-9.4l0.1-1.3l-2.5-4.2l-3.8-14.8l0.1-9.9l-3.4-4.5l-0.9-4.9l-6.5-13.4l-2.3-7.5l0.1-2.8
		l-20.6-70.7l0.1-1.4l-0.7-1.8l-0.5-3.3l-0.5-0.7l-1,0.7l-1,0.2l0.8,1.2l1.1,5.4l-1.1,9.4l-0.1,1.6l-2.8,6.5l0.9,14.7l0.7,2.5
		l0.4,3.9l1.3,4.4l0.2,2.6l-1.3,8.9l2.1,30.8l-1.6,5.1l2.3,4.4l-0.2,3.5l3.4,8.6l-0.2,3.6l1.4,11.4l-0.2,3.5l1.8,4l4.6,34.4
		l7.2,30.4l-0.5,9.2l-0.7,1.4l1,7.5l3.2,7.2l2.4,2l2.4,2.6l1.8,2.6l1.3,3.7l-0.2,4.1l2.3,2.3l-0.1,2l4.4,12.3l-0.2,4.1l0.5,1.4
		l0,0.1l-8,10l-3,1l-2.3-0.1l-19.8-15.8l-7.7-2.9l-2.9-0.2l-15.5,5.6l-4.4,3l0.1-1.2l-0.8-3.4l1.3-4.9l1.8-3.8l0.2-3.8l-2.8-8
		l-1.6-11.4l-3.7-8.8l0.7-6.9l-1.4-4l-0.6-4.4l2.3-2l0.4-1.1l-7.9-19.1l-1.1-1.2l-4.3-9l-2.4-13.3l-5.4-8.4l-2.3-6l-0.4-3.9l-2-5.4
		l-0.5-14.9l1.2-2.2l-0.3-2.4l1.4-7.5l-2.5-4.7l-0.5-3.1l-1.5-3.5l0.2-3L90,581.7l-0.3-12.9l-13-57.5l0.3-5.2l-5.7-35.7l0.8-66.9
		l-0.4-3.2l1.9-9.6l2.8-5.5l0.1-1.4l-0.7-2.3l0.8-4.4l1.3-1.6l2.4-2.6l2.6,0.1l11.7,3l35.5,1.9l5.2,1.3l8,0.4l9.6,2.5l4.1,0.7
		l0.9,0.2l0.3,0l1.6,0.3l0.2,0l6.3,1.6l34.7,5.5l6.3,0.3l0.2-0.1l0.5-0.1l0.7-0.2l0.8-0.2l0.8-0.2l2.1,0.1l6.8,1.7l6.2,0.3l1.8,0.2
		l-1.1,0.8l-0.3,0.7l0.8,0.6l1.1,3.8l-0.5,2.1l-0.2,3.4l-0.3,1.3l-0.2,1.1l-0.1,0.4l-0.1,0.3l0,0.1l0.2,3.2l1.1,4.3l1,2.8l-4.6,7.8
		l-3.4,10.7l-1.4,2.3l-1.5,4.9l-0.1,2l-1,3.1l-2.5,1.8l-0.5,1.5l0,0.1l0.2,0.7l0.1,0.3l0.1,0.3l0.1,0.2l0,0.2l0,0.1l0.7,1l1.5,0.5
		l1.3,0.1l2.1-0.7l4.6-4l1.3-2.4l-0.3,4.7l-1.3,2.4l-2.5,6l-2.8,5.2l-1.3,3.2l2.5,3.8l4.5,0.2l1.5-1.8l2.3,0.7l2.4,0.1l2.2-0.6
		l3.5-2.4l0,0l1.1-0.4l0.7,0.3l0.5,0.8l1.5,7.8l-0.1,1.6l1.1,6l-0.1,1.4l-0.9,3.4l0.4,10.6l-0.6,2.3l1.3,30.8l3.3,20.7l-0.3,4.7
		l1.7,8.4l-1.8,14.5l-1.1,2.3l-0.2,3.6l1.5,1.5l0.9,2l1,16.3l3.9,9l0.4,4.4l2,5.7l-0.1,2.6l1,4.4l-0.1,2.4L255.1,639.5z
		 M255.1,639.5"/>
	<path class="st1" d="M236,469.3L236,469.3l-3.6,2.4l-2.2,0.6l-2.4-0.1l-2.3-0.7l-1.5,1.8l-4.5-0.2l-2.5-3.8l1.3-3.2l2.8-5.2l2.5-6
		l1.3-2.4l0.3-4.7l-1.3,2.4l-4.6,4l-2.1,0.7l-1.3-0.1l-1.5-0.5l-0.7-1l0-0.1l0-0.2l-0.1-0.2l-0.1-0.3l-0.1-0.3l-0.2-0.7l0-0.1
		l0.5-1.5l2.5-1.8l1-3.1l0.1-2l1.5-4.9l1.4-2.3l3.4-10.7l4.6-7.8l0.8,0l2.4-2.8l1.7-2.5l1.3-2l4.4-4.6l1.5-1.8l0.7-2.6l0.8-1.9
		l0-0.9l0.8-2.1l0.4-1l2.4-1.1l1.6-0.4l1.1,0.1l0,0l0.1,0l0.1,0l0.1,0l0.1,0l0.1,0l1.1,0.1l0.9,0l2.2,0.8l1.2,0.8l0.4,0l0.7,0.4
		l1.2,1l1.5,0.1l1,0.8l0.9,1.6l1.5,1.2l0.8,1.6l0.3,1.9l0.2,1.3l-0.1,0.9l1,2l1.2,1l0.6,0.3l0.2,0.1l0.2,0.1l0.2,0.1l0.1,0.1l0.1,0
		l1.3,0.1l1.4,0.4l-0.1,1.2l-1.5,6.1l-0.9,8l-0.4,6.7l-0.6,4.8l-0.5,5.7l-1.6,3.3l-0.2,3.1l-1.4,3.6l-2.4,7.3L257,461l-13.9,6.4
		l-3.2,0.9l-2.3,0.4l-0.3,0.1L236,469.3z M236,469.3"/>
	<path class="st2" d="M226.9,392.4l-1.8-0.2l-6.2-0.3l-6.8-1.7L210,390l-0.8,0.2l-0.8,0.2l-0.7,0.2l-0.5,0.1l-0.2,0.1l-6.3-0.3
		l-34.7-5.5l-6.3-1.6l-0.2,0l-1.6-0.3l-0.3,0l-0.9-0.2l-4.1-0.7l-9.6-2.5l-8-0.4l-5.2-1.3l-35.5-1.9l-11.7-3l-2.6-0.1l-2.4,2.6
		l-0.4-0.1l-1.1-1l0.3-1.2l0.6-1.2l-0.5-0.9l0.4-1.4l-0.3-1.8l0.2-3.5l-0.5-0.5l0.1-1.6l0.8-3l0.9-0.9l3.7-7.5l0-0.8l-0.3-2.9
		l-0.6-1.9l0.1-2l0.8-4l0.7-6.8l0.2-3.6l1-6.1l1.3-6.8l1.1-2.7l0-0.1l0.1-0.3l0.2-0.4l0.2-0.5l0.3-0.5l0.3-0.5l0.2-0.4l0.2-0.3
		l0.1-0.1l2.3-5.4l1.9-3.7l1-3l-0.2-1l-0.5-0.9l-0.9,0l-0.4,0.6l0.2,0.7l-0.2,1.5l-0.7,0.6l-1.3,0.9l-2.4,1.3l-2.2,0.9l0,0.5
		l-0.2,1.3l-0.4,3.8l0.6,1.5l-0.1,1.3l-0.6,2.4l-4,3.7l0.3,1.4l-0.1,1l-0.5,0.7l-2.3,2.8l-6.4,15.3l-1.9,3.5l-1.3,1.3l-1.3,4.3
		l-1.7,6l-1.6,3.7l-1.8,2.2l-0.6-1.7l-1-2.6l-3.8-4l-2.8-1.6l-1.4-0.9l-1.6-0.1l-1.6-1.1l-5.4-1.3l-1.7,0.2l-1.4-0.1l-4.5,1.1
		l-2.8,1.9l-0.8,1.1L31,351l-0.4-0.1l0-0.5l0.6-2.1l0.1-2.3l0.7-1.7l0.8-1.8l0.3-1.1l0.2-3.2l0.4-1.3l0.7-3.8l0.6-3l2.4-8.5l1-3.5
		l1.2-5.6l0.9-2.7l1.9-5.1l0.4-1.5l1.3-3.1l1.5-4.5l0.2-3.5l0.9-2l-0.4-3l0.5-1.7l2.7-1.3l-0.7-1.4l0.1-1.5l-0.8-1.6l3.1-4.2
		l0.1-1.8l1.9-1.7l-0.4-1.6l0.9-1.8l2.8,0.2l0.1-1l-2.8-4.1l-0.5-1.4l0.1-2.7l0.6-1.7l1.1-6.5l2.3-7.4l0.1-1l0.5-1l0.1-1.6l3.4-12.9
		l2.3-7.1l0.1-2.8l0.7-5l1-8l7.8-23.2l3.8-8.4l5.3-11.8l7.1-4.2l3.8-2l6.8-2.6l9.9-3.4l4.4-1.9l2.1-0.4l7.5-1.2l7.4-2.3l9.2-4
		l3.5,0.2l1.8-1.5l-0.1,1.4l-0.6,2.1l-0.8,1.2l-0.4,1.5l-0.1,1.9l1.6,2.9l2.4,2.4l1.6,1.1l6.3,2.4l1.5,0.1l1.3,0.5l0.1,0l0.2,0.1
		l2.3,0.5l3.4,0.2l1.6,0.6l6.6,0.4l9.4-0.3l1.2-0.3l0.2,0l4.2-0.3l9.3-2.2l2.8-1l0.2-0.1l0.4-0.2l4.2-1.7l0.3-0.2l1.4-0.7l3.9-2.3
		l2.5-1.2l1.3-0.9l1-1.1l0.4-0.6l-0.5-0.3l-0.8-0.5l-0.9-1.7l2.5,0.4l1.3,0.3l0.4,0.6l1.5,0.8l2.3,0.3l1.4,1.1l1.2,0.1l4.7,0.5
		l1.1,0.5l2.4,1.9l1.3,0.5l2.8,1l8.8,3.3l4.9,2.7l2.8,0.9l0.3,0.1l0.1,0l6.1,2.7l1.8,1l0.6,0l4.9,2.5l3,1.6l1.2,0.5l1.4,1.7l1.6,1.7
		l0.7,1.4l2,1.4l3.3,6.8l2.1,5.9l1.5,5.8l1.1,6.6l-0.1,1.5l1.7,5.9l0.4,2.5l1.6,8.4l1.9,11.1l1.6,11l-0.3,10.1l0.8,4l0.4,6.9l0,5.2
		l1.4,5.3l1.1,6.5l0.7,4.5l0,4.2l-0.4,2.9l-0.1,1l-0.3,0.9l0,0.8l1,0.7l1.4,1.6l0.2,1.5l-0.1,1.1l0.6,1.4l-0.1,2.4l0,2.2l0.3,1.4
		l0.2,0.6l-0.1,1.6l-1,1l-0.2,4.5l1.2,2.9l0.1,2.9l-0.4,1.6l-1.5,2.1l0.3,0.7l-0.6,12l-0.4,1.8l0,0.1l0,0.2l0,0.2l0,0.2l-0.1,0.3
		l-0.1,0.3l-0.1,0.3l-0.1,0.3l-0.4,2.3l-0.3,2.2l-0.3,0.7l-0.7,0.7l0.5,1.4l-0.1,2.3l-0.5,1.2l-1,1l-0.7,4.4l-1.1,4.4l-1.4,2.7
		l-0.1,1.4l-0.8,1.5l-0.2,4.2l-0.6,1.1l-0.9,1.2l-0.1,1.1l-1.3,1l-0.7-2.6l-0.4-0.6l-0.3-0.4l-0.3-0.4l-0.3-0.4l-0.2-0.3l-0.2-0.2
		l-0.1-0.1l-1.8-2.3l-4.3-3.5l-0.4-0.2l-0.4-0.2l-0.5-0.2l-0.5-0.2l-0.5-0.2l-0.4-0.2l-0.3-0.1l-0.1-0.1l-1-0.5l-0.4-0.2l-0.4-0.2
		l-0.3-0.2l-0.2-0.1l-0.1,0l-2-1.3l-2.1-0.1l-2-0.6l-1.7-0.1l-1.2-0.1l-2.1,0.4l-1-0.1l-1.5,0.8l-1.1,0.6l-1.8,2.3l-0.1,0.1
		l-1.1,1.2l-0.1-2.2l0.3-2.6l1.3-3l-0.6-2.4l0.2-4.6l0.6-1.2l0.4-0.9l0.2-0.4l0.1-0.3l0.1-0.1l1.3-1.6l1.1-4.3l0.1-1.6l0.6-1.1
		l0.1-2.2l-0.3-1.9l0-0.9l0.7-1.6l-0.4-2.2l-0.2-0.6l-0.2-3l-0.8-1.6l-0.6-1.8l-1.3-1.7l-1.3-2.5l-0.1-2.4l0-0.3l0-0.1l-0.3-2.6
		l-0.9-2.4l-1-1.1l-0.5-0.9l0.2-1.7l0.2-0.6l-1-1.2l-0.2-1.1l0.8-2.7l0.6-1.5l-0.4-1.9l-0.4-0.9l0.3-1.4l-0.7-0.6l-0.3-5.4l-0.6-1.5
		l0.3-6.2l-0.5-1l-1.1-0.8l-0.9,1.3l-0.8,1.3l-0.1,0.2l-0.1,0.2l0,0.1l-0.9,2.7l-1,1.3l-0.7,0.9l-2,3.3l-1.4,4.6l-0.2,4l-0.2,6.3
		l-0.8,10.1l0,3.6l-0.1,2.4l-0.5,4.6l-1.2,10.5l-0.4,4l-0.6,2.5l-0.2,1.1l0,0.2l0,0.1l0,0.1l-1.1,3.3l-0.2,2.6l-1.6,4.5l-0.3,3.1
		l-0.5,1.4l-0.3,2.8l-0.9,2.8l-0.5,2.6l-0.2,4.1l-0.9,2.4l-0.4,3.8l0.5,1l-0.3,1.2l-0.4,6.2l-0.3,0.8l-0.1,1.8l-1.4,1.6l-0.4,2.4
		l-0.7,0.7L226.9,392.4z M226.9,392.4"/>
	<path class="st3" d="M210,799.9l0.9,0.8l2.6,2.3l3.2,0.9l2.5,0.1l2.2-2.5l1.7-2.7l5.9-6.6l4.2-3.7l5.1-3.3l2.8-1.2l5.8,0.9l3.8,0.2
		l5,1.5l-0.1,1.3l2.1,3.5l2.9,4.8l1.2,2.9l0.6,3.1l6.2,7.7l1.5,1.1l0.9,0.5l1,0.9l2.8,2.9l3.7,1.5l4.3,3.5l3.2,5.4l-0.1,1.3
		l-3.6,0.4l-2.2-0.1l-3.4,0.4l-3.6-0.2l-7.8,2.2l-0.8,0.2l-0.3,0.1l-3.7,1.4l-12.6,2.8l-7.7-0.4l-4.7-1.3l-6-3.3l-1.9-2.1l-4.8-2.6
		l-3.4-0.9l-2.1-0.1l-3.2-0.8l-3.2-1.5l-0.9-2.9l-0.9-13.5L210,799.9z M210,799.9"/>
	<path class="st1" d="M59.5,354.8l1,2.6l0.6,1.7l0.1,0.3l-2.2,1.6l0,0.7l-2.5,5.8l-1.4,1.4l-8.5,19.7l-1.3,3.3l-0.1,1.6l0.4,3.5
		l1.2,1.9l2,1.6l1.7,2.5l1.6,7.6l-0.3,6.3l-3.6,6.4l-0.4,7.6l-1.9,6.1l-1.3,2.4l-2.1,0.9l-1.5-0.1l-1.8-0.8l-2.2-2.6l-1.2-2.6
		l0.4-7.9l-2.2,1l-1,4.3l-0.7,4.3l0.2,2.8l-1.4,5.8l3.9,6.1l4.1,2.8l2.1,1.9l1.1,1.6l0.7,0.7l1.5,1.6l0.4,1.3l-0.1,1.3l-0.1,1.3
		l-0.6,1.9l-0.9,1.4l-1.2-0.1l-3.9-2.6l-2.8-0.1l-8.8-5.8l-2.9-2.3l-4.5-4.6l-1.4-13.1l-1.6-5.4l-2-3l-0.7-2.5l2.4-5.3l1.1-4.5
		l0.4-6.8l1-4.1l2.1-6.6l1.7-5l0.9-7.8l2.5-7l6.2-26.4L31,351l0.8-0.9l0.8-1.1l2.8-1.9l4.5-1.1l1.4,0.1l1.7-0.2l5.4,1.3l1.6,1.1
		l1.6,0.1l1.4,0.9l2.8,1.6L59.5,354.8z M59.5,354.8"/>
	<path class="st4" d="M248.3,393.9L248.3,393.9l-1.1,0l-1.6,0.4l-2.4,1.1l-0.4,1l-0.8,2.1l0,0.9l-0.8,1.9l-0.9-2.2l0-0.1l-1-2.4
		l0.6-0.6l0.7-1.6l0.5-1.7l0.5-1.8l0.6-1.5l0-0.1l0.4-0.9l0.9-0.7l1.2,0.2l0.8-0.7l0.8-1.2l1.3-0.6l2.6-0.6l3.2,0.2l4.1,0.8l0.2,0
		l3.5,1l4,0.2l1.8,1.1l0.8,0.5l-1,1.1l-1.2,1.6l-0.8,0.9l-0.4,0.4l-0.3,1l0,0.2l-0.1,1.2l-2.2-1.1l-1.1-0.1l-0.4,0.1l-1,0.6
		l-0.1,2.2l-0.1,1l-1-0.8l-1.5-0.1l-1.2-1l-0.7-0.4l-0.4,0l-1.2-0.8l-2.2-0.8l-0.9,0l-1.1-0.1l-0.1,0l-0.1,0l-0.1,0L248.3,393.9
		L248.3,393.9z M248.3,393.9"/>
	<path class="st2" d="M92,813.6l1.1-1.8l8.2,1.5l4.8,2.2l4.3,1.2l10.4,1.5l6.6,0.3l6.4-0.8l18.1-5.1l10.3-2.2l6.5-2.6l2.6,0.1
		l16.1-2.7l6.3-2.8l3.2-1.5l1.1,2.2l-0.1,1.9l0.4,1.9l0.6,1.2l-0.1,2.4l-1.7,1.8l-1.1-0.1l-1.9,2l-8.7,3l-1.7-0.1l-3.8,1.3l-1.9-0.1
		l-8.5,2.9l-2.9-0.2l-5.2,1.8l-2.1-0.1l-4.5,1.5l-2.2-0.1l-11.4,3.9l-13.9,0.9l-3.5-0.2l-5,0.3l-11.7-0.6l-6.7-1.4l-6.6-3.1
		l-2.8-1.9l-0.9-1.3l0.2-3.3L92,813.6z M92,813.6"/>
	<path class="st3" d="M120.9,818.2l-10.4-1.5l-4.3-1.2l-4.8-2.2l-8.2-1.5l0.8-2.1l0.5-2l0.8-1.2l4.1-3.3l3.1-1.3l4-0.8l5.7,0.3
		l4.7-2.6l2.2-1l3.2-0.9l4-1.6l6.3-5l3.7-5.2l-2.2-1.6l-1.4-0.1l-0.7-1.4l-1.6-0.6l0.1-1.2l4.4-3l15.5-5.6l2.9,0.2l7.7,2.9
		l19.8,15.8l2.3,0.1l3-1l8-10l3.7,10.4l0.3,4.3l0.1,5.3l-1.1,1.4l-3.2,1.5l-6.3,2.8l-16.1,2.7l-2.6-0.1l-6.5,2.6l-10.3,2.2
		l-18.1,5.1l-6.4,0.8L120.9,818.2z M120.9,818.2"/>
	<path class="st5" d="M266.1,410.2L266.1,410.2l-0.2-0.1l-0.2-0.1l-0.2-0.1l-0.2-0.1l-0.6-0.3l-1.2-1l-1-2l0.1-0.9l-0.2-1.3
		l-0.3-1.9l-0.8-1.6l-1.5-1.2l-0.9-1.6l0.1-1l0.1-2.2l1-0.6l0.4-0.1l1.1,0.1l2.2,1.1l0.1-1.2l0-0.2l0.3-1l0.4-0.4l0.8-0.9l1.2-1.6
		l1-1.1l-0.8-0.5l-1.8-1.1l1.3-0.8l1.9,0.1l1.4,0.9l1.7,0.1l1,0.7l0.6,1l0.4,0.6l0.8,0.6l0.8,0.8l0.7,0.8l0,0.8l1.3,4.2l0.2,1.5
		l-0.2,2.1l-0.1,1l-0.3,1l0,0.2l0,0.1l0,0.1l-0.4,0.7L276,404l-0.4,0.6l0,0.4l-0.9,0.8l-0.3,0.3l-0.5,0.9l-0.5,1.1l-0.8,1.6
		l-0.6,0.9l-0.8,0.3l-1-0.3l-0.6-0.4l-0.8,0.6l-1.4-0.4L266.1,410.2z M269.7,405.4l0.8,0.6l1.1,0l0.1,0l0.1,0l0.2,0l0.2,0l0.4-0.1
		l0.9-0.5l1.7-2.5l0.6-3l0.2-2.9l0-0.1l-1.6-4l-0.8-1l-0.5-0.6l-1.6-0.7l-1.2-0.1l-0.9,0.4l-0.3,0.4l0,0.1l-0.2,0.3l-0.7,1.1
		l-0.2,0.6l-0.2,0.7l0,0.7l-0.6,1.9l0,0.8l0.1,0.6l0,0.7l1,5L269.7,405.4z M269.7,405.4"/>
	<path class="st1" d="M246.3,386l0.4-1.7l0.8-0.7l1.9-4.7l1-3.8l1.2-3.8l0.1-1.8l1.6-3.9l0.5-1.7l-0.6-2.1l0.2-2.3l1.1-1.2l0.1-0.1
		l1.8-2.3l1.1-0.6l1.5-0.8l1,0.1l2.1-0.4l1.2,0.1l1.7,0.1l2,0.6l2.1,0.1l2,1.3l0.1,0l0.2,0.1l0.3,0.2l0.4,0.2l0.4,0.2l1,0.5l0.1,0.1
		l0.3,0.1l0.4,0.2l0.5,0.2l0.5,0.2l0.5,0.2l0.4,0.2l0.4,0.2l4.3,3.5l1.8,2.3l0.1,0.1l0.2,0.2l0.2,0.3l0.3,0.4l0.3,0.4l0.3,0.4
		l0.4,0.6l0.7,2.6l-0.1,1.2l-0.6,0.5l-0.7,0.5l-2,4.1l-0.1,1.8l-0.8,2.4l-1.1,2.6l-0.9,2.1l-1,2.5l0,0.6l-0.3,1l-1.4,2l-0.2,0.8
		l-0.7-0.8l-0.8-0.8l-0.8-0.6l-0.4-0.6l-0.6-1l-1-0.7l-1.7-0.1l-1.4-0.9l-1.9-0.1l-1.3,0.8l-4-0.2l-3.5-1l-0.2,0l-4.1-0.8l-3.2-0.2
		l-2.6,0.6L246.3,386z M246.3,386"/>
	<path class="st1" d="M145.6,139.1l0.1-1.4l0.5-0.3l0.2-3.1l0.9-3.1l0.2-3.3l-0.2-4.4l0-0.8l6.4,0.3l8-0.9l13.6-3l21.6-11.9l1.9-1.4
		l2.1-0.6l5-2.8l0.6-0.3l-1.3,2.3l-2,3.2l-2.1,4.9l-0.2,3.9l0.2,4.8l1,5.7l1,4.8l2.9,6l1.3,1.4l2.4,1.6l1.6,0.6l2.3,0.3l0.9,1.7
		l0.8,0.5l0.5,0.3l-0.4,0.6l-1,1.1l-1.3,0.9l-2.5,1.2l-3.9,2.3l-1.4,0.7l-0.3,0.2l-4.2,1.7l-0.4,0.2l-0.2,0.1l-2.8,1l-9.3,2.2
		l-4.2,0.3l-0.2,0l-1.2,0.3l-9.4,0.3l-6.6-0.4l-1.6-0.6l-3.4-0.2l-2.3-0.5l-0.2-0.1l-0.1,0l-1.3-0.5l-1.5-0.1l-6.3-2.4l-1.6-1.1
		l-2.4-2.4l-1.6-2.9l0.1-1.9l0.4-1.5l0.8-1.2L145.6,139.1z M145.6,139.1"/>
	<path class="st1" d="M219.3,69.7l0.1,0.1l0.5,1.3l1.2,2.1l0.4,3.9l-1.5,6.6l-1.1,2.9l-0.6,2.4l-0.8,0.9l-1.3,1.3l-2.7,2L212,94
		l-1.9,2.3l-0.1,1.3l-2.2,2.8l-0.9,1.3l-0.7,0.4l0,0.1l-0.6,0.3l-5,2.8l-2.1,0.6l-1.9,1.4l-21.6,11.9l-13.6,3l-8,0.9l-6.4-0.3
		l-3.6-3.8l-8.6-27.8l-0.4-2.1l-0.7-5.8l0.3-4.8l2.1-6.5l-0.5-3.9l-0.1-1.8l0.5-10.3l2.2-4.4l0.2-3.9l2-3.9l5.4-9.9l1.6-1.9l1.7-3
		l1.5-1.5l3.9-2.1l3.7,0.2l9.5-1.2l2.9,0.2l2.2,0.7l3.7,0.2l1,0.7l2.4,0.1l4.4,1.3l4.3,0.2l4.7,3l2.3,0.7l1.5,2.7l0.9,4.8l-1.3,4.2
		l0.9,1.1l-0.1,2.4l0.7,2.9l-0.1,1.8l1.3,1.4l-0.1,3.8l-0.1,1.1l0.3,2.7l0.1,1.1l-0.2,3.4l0.4,2.4l-0.1,1.1l0.4,1.7l0,0.9l-0.5,1.6
		l-1.4,4.1l2.2,0.4l2.2,0.4l0.2-0.2l0.6-1.3l0.1-1.6l0.7-1.4l1.4-1.6l2.5-1.7l2.3-0.3l0.9,0l2.2-0.4l1,0.1l1.3,0.5l1-0.2l1.5-0.1
		l0.6,0.2L219.3,69.7z M219.3,69.7"/>
	<path class="st6" d="M176.6,25.5l-3.7-0.2l-2.2-0.7l-2.9-0.2l-9.5,1.2l-3.7-0.2l-3.9,2.1l-1.5,1.5l-1.7,3l-1.6,1.9l-5.4,9.9
		l-0.8-1.5l0.3-3.6l0.7-3.7l1.6-0.9l0.4-7.4l0.6-1.3l3.6-1.5l0.8-3l0.5-5.2l4.1-0.4l6.5,0l-3.1-3l12.1,1.4l-3-3.3l7.9,0.4l3.6-0.3
		l4.9,3.1l4.7,1.1l5.8-0.6l2.5,2.6l0.1,0.1l6.1,4l3,1l2.6,2.2l1.9,1l0.1,0.2l0.4,0.5l0.5,0.8l0.6,0.9l0.7,0.9l0.7,0.8l0.6,0.6
		l0.5,0.3l0.3-0.1l0.2-0.3l0.1-0.4l0.1-0.4l0.1-0.4l0.1-0.4l0.1-0.3l0-0.3l0-0.2l2.1,3l1.5,2.6l1-0.1l-0.2,6.6l0,1l1.2,2l1,1.4
		l1.4,2.4l-1.6,0.8l0.9,1.3l0.2,1.1l-0.4,2l0.2,1.8l0.3,1.4l0.5,0.8l-0.1,1.7l-0.4,1l-0.1,1.8l0.4,1.3l-0.2,4.2l0,0.7l-0.8,2.2
		l-0.3,1.1l-0.2-0.2l-0.6-0.2l-1.5,0.1l-1,0.2l-1.3-0.5l-1-0.1l-2.2,0.4l-0.9,0l-2.3,0.3l-2.5,1.7l-1.4,1.6l-0.7,1.4l-0.1,1.6
		l-0.6,1.3l-0.2,0.2l-2.2-0.4l-2.2-0.4l1.4-4.1l0.5-1.6l0-0.9l-0.4-1.7l0.1-1.1l-0.4-2.4l0.2-3.4l-0.1-1.1l-0.3-2.7l0.1-1.1l0.1-3.8
		l-1.3-1.4l0.1-1.8l-0.7-2.9l0.1-2.4l-0.9-1.1l1.3-4.2l-0.9-4.8l-1.5-2.7l-2.3-0.7l-4.7-3l-4.3-0.2l-4.4-1.3l-2.4-0.1L176.6,25.5z
		 M176.6,25.5"/>
	<path class="st2" d="M282.3,827.4l3.6-0.4l2.6,2.4l0.7,1.8l0.6,2.9l-0.1,1.7l0.2,0.7l-5.9,0.8l-3.6-0.1l-3.3,0.5l-19.3,4l-8.5,2.5
		l-1.8,0.2l-2.6-0.1l-5.4-1l-4.5-1.2l-5.4-2.1l-3.6-0.8l-4.2-1.9l-5.9-1.4l-4-1.8l-0.7-1.1l-0.6-4.2l0-4l0.1-3.9l3.2,1.5l3.2,0.8
		l2.1,0.1l3.4,0.9l4.8,2.6l1.9,2.1l6,3.3l4.7,1.3l7.7,0.4l12.6-2.8l3.7-1.4l0.3-0.1l0.8-0.2l7.8-2.2l3.6,0.2l3.4-0.4L282.3,827.4z
		 M282.3,827.4"/>
	<path class="st6" d="M249.2,844.2l8.5-2.5l19.3-4l3.3-0.5l3.6,0.1l5.9-0.8l-0.8,1l-1.9,1.5l-4.5,1.4l-12.2,2.5l-14.3,1.6
		L249.2,844.2z M249.2,844.2"/>
	<path class="st6" d="M270.5,406l-0.8-0.6l-1.4-1.8l-1-5l0-0.7l-0.1-0.6l0-0.8l0.6-1.9l0-0.7l0.2-0.7l0.2-0.6l0.7-1.1l0.2-0.3l0-0.1
		l0.3-0.4l0.9-0.4l1.2,0.1l1.6,0.7l0.5,0.6l0.8,1l1.6,4l0,0.1l-0.2,2.9l-0.6,3l-1.7,2.5l-0.9,0.5l-0.4,0.1l-0.2,0l-0.2,0l-0.1,0
		l-0.1,0L270.5,406z M270.5,406"/>
	<path class="st7" d="M255.9,643.1l-0.8-3.5 M253.1,636.5l0.1-2.4 M253.3,634.1l-1-4.4 M252.3,629.7l0.1-2.6 M252.4,627.1l-2-5.7
		 M250.4,621.4L250,617 M250,617l-3.9-9 M246,608l-1-16.3 M245,591.7l-0.9-2 M242.7,588.2l1.5,1.5 M242.7,588.2l0.2-3.6
		 M243.9,582.3l-1.1,2.3 M245.7,567.7l-1.8,14.5 M244.1,559.3l1.7,8.4 M244.1,559.3l0.3-4.7 M241.1,533.9l3.3,20.7 M239.7,503.2
		l1.3,30.8 M240.4,500.8l-0.6,2.3 M239.9,490.2l0.4,10.6 M240.8,486.9l-0.9,3.4 M240.9,485.5l-0.1,1.4 M239.8,479.4l1.1,6
		 M238.4,470l-0.5-0.8 M237.9,469.2l-0.7-0.3 M236,469.3L236,469.3 M230.3,472.3l2.2-0.6 M225.7,471.5l2.3,0.7 M224.2,473.3l1.5-1.8
		 M219.7,473.1l4.5,0.2 M218.4,466.2l-1.3,3.2 M225.1,452.5l-1.3,2.4 M224.1,450.2l1.3-2.4 M217.4,455l2.1-0.7 M216.1,454.9l1.3,0.1
		 M214.6,454.4l1.5,0.5 M213.9,453.4l0.7,1 M213.8,453.3L213.8,453.3 M213.8,453.2l0,0.2 M213.7,452.9l0.1,0.2 M213.7,452.6l0.1,0.3
		 M213.6,452.3l0.1,0.3 M213.4,451.6L213.4,451.6 M213.9,450.1l-0.5,1.5 M216.4,448.3l-2.5,1.8 M217.4,445.2l-1,3.1 M217.5,443.2
		l-0.1,2 M219,438.3l-1.5,4.9 M220.4,436l-1.4,2.3 M227.4,414.7l1,2.8 M226.3,410.4l1.1,4.3 M226.1,407.2l0.2,3.2 M226.2,407l0,0.1
		 M226.2,406.7l-0.1,0.3 M226.3,406.3l-0.1,0.4 M226.9,400.4l-0.2,3.4 M227.5,398.3l-0.5,2.1 M226.4,394.5l1.1,3.8 M225.5,393.9
		l0.8,0.6 M225.9,393.2l-0.3,0.7 M226.9,392.4l-1.1,0.8 M225.1,392.2l1.8,0.2 M210,390l2.1,0.1 M209.2,390.2l0.8-0.2 M208.4,390.4
		l0.8-0.2 M207.7,390.6l0.7-0.2 M207.2,390.7l0.5-0.1 M207.1,390.8l0.2-0.1 M200.8,390.5l6.3,0.3 M159.5,383.3l0.2,0 M157.7,382.9
		l0.3,0 M156.8,382.8l0.9,0.2 M135.2,379.2l8,0.4 M77.8,375.4l2.4-2.6 M76.5,377l1.3-1.6 M76.5,377l-0.8,4.4 M75.7,381.4l0.7,2.3
		 M76.4,383.7l-0.1,1.4 M76.4,385.2l-2.8,5.5 M73.6,390.7l-1.9,9.6 M71.7,400.3l0.4,3.2 M77,506.1l-0.3,5.2 M76.7,511.3l13,57.5
		 M97.9,608.9L90,581.7 M97.8,611.9l0.2-3 M99.3,615.4l-1.5-3.5 M99.8,618.5l-0.5-3.1 M102.3,623.2l-2.5-4.7 M100.9,630.7l1.4-7.5
		 M101.2,633.2l-0.3-2.4 M100,635.4l1.2-2.2 M100.4,650.3l-0.5-14.9 M102.4,655.7l-2-5.4 M102.8,659.6l-0.4-3.9 M105.1,665.6l-2.3-6
		 M110.4,674l-5.4-8.4 M112.8,687.4l-2.4-13.3 M117.1,696.3l-4.3-9 M118.2,697.6l-1.1-1.2 M126.1,716.6l-7.9-19.1 M125.7,717.7
		l0.4-1.1 M123.5,719.6l2.3-2 M124.1,724.1l-0.6-4.4 M125.5,728.1l-1.4-4 M124.8,735l0.7-6.9 M128.5,743.8l-3.7-8.8 M130,755.1
		l-1.6-11.4 M132.9,763.2l-2.8-8 M132.7,766.9l0.2-3.8 M130.9,770.7l1.8-3.8 M129.6,775.7l1.3-4.9 M130.4,779l-0.8-3.4 M130.4,780.2
		l0.1-1.2 M193.9,779.6L193.9,779.6 M193.6,774l-0.2,4.1 M189.3,759.7l-0.1,2 M189.3,759.7l-2.3-2.3 M187.2,753.3l-0.2,4.1
		 M185.9,749.5l1.3,3.7 M184.1,746.9l1.8,2.6 M181.7,744.2l2.4,2.6 M179.3,742.2l2.4,2 M176.1,735l3.2,7.2 M175.1,727.5l1,7.5
		 M175.8,726.1l-0.7,1.4 M176.3,716.9l-0.5,9.2 M169,686.5l7.2,30.4 M164.4,652.1l4.6,34.4 M162.6,648.1l1.8,4 M162.8,644.6
		l-0.2,3.5 M161.4,633.2l1.4,11.4 M161.6,629.7l-0.2,3.6 M158.2,621l3.4,8.6 M158.2,621l0.2-3.5 M156.1,613.2l2.3,4.4 M157.7,608.1
		l-1.6,5.1 M155.6,577.3l2.1,30.8 M156.9,568.3l-1.3,8.9 M156.7,565.8l0.2,2.6 M155.4,561.3l1.3,4.4 M155.1,557.4l0.4,3.9
		 M154.3,554.9l0.7,2.5 M153.4,540.2l0.9,14.7 M156.2,533.7l-2.8,6.5 M156.3,532.1l-0.1,1.6 M157.4,522.7l-1.1,9.4 M156.3,517.3
		l1.1,5.4 M155.5,516.1l0.8,1.2 M156.5,515.9l-1,0.2 M157.5,515.2l-1,0.7 M157.9,515.8l-0.5-0.7 M158.5,519.1l-0.5-3.3 M159.1,520.9
		l-0.7-1.8 M159.1,522.3l0.1-1.4 M179.5,595.8l0.1-2.8 M181.9,603.3l-2.3-7.5 M188.4,616.6l-6.5-13.4 M189.2,621.5l-0.9-4.9
		 M192.7,626l-3.4-4.5 M192.6,636l0.1-9.9 M196.4,650.8l-3.8-14.8 M198.9,655l-2.5-4.2 M198.8,656.3l0.1-1.3 M196.5,665.7l2.3-9.4
		 M198.7,674.4l-2.2-8.7 M198.2,685.1l0.6-10.7 M199,696l-0.8-11 M198.4,697l0.6-0.9 M201.5,735.9l-1.3-3.2 M201.4,737.8l0.1-2
		 M201.9,740.7l-0.5-2.9 M202.2,743.1l-0.3-2.3 M203.1,746.9l-0.9-3.8 M204.5,751.7l-1.4-4.9 M205.3,756l-0.8-4.2 M204.8,761.2
		l1.3-2.4 M202,769.8l2.8-8.6 M201.6,777.6l0.4-7.8 M203.2,785.1l-1.7-7.4 M205.6,789.8l-2.3-4.7 M205.4,792.1l0.1-2.3 M210.3,797.4
		l-4.8-5.3 M210,799.9l0.3-2.5 M210,799.9l0.9,0.8 M213.5,803l3.2,0.9 M216.7,803.9l2.5,0.1 M219.2,804l2.2-2.5 M221.4,801.6
		l1.7-2.7 M229,792.3l4.2-3.7 M233.2,788.6l5.1-3.3 M238.3,785.3l2.8-1.2 M246.8,785l3.8,0.2 M250.6,785.2l5,1.5 M261,787l1.2-0.7
		 M262.4,781.4l1.8-1.1 M264.3,778.3l-1.4-5.7 M262.9,772.6l-2.8-1.9 M258.8,763.1l-0.1-5.3 M258.7,757.8l3.7-12.6 M262.4,745.2
		l0.1-3.4 M262.6,741.9l0.8-2.6"/>
	<path class="st7" d="M263.4,739.3l-0.2-1.1 M263.2,738.1l0.5-4.9 M263.7,733.3l-1.9-6.5 M261.8,726.7l1.8-9.3 M263.6,717.4
		l-1.2-43.3 M60.5,357.4l-1-2.6 M61.1,359l-0.6-1.7 M270.5,406l-0.8-0.6 M271.6,406.1l-1.1,0 M271.7,406L271.7,406 M271.8,406
		l-0.1,0 M269.5,390.8l-0.3,0.4 M269.2,391.2L269.2,391.2 M268,393.2l0.2-0.6 M267.2,396.5l0,0.8 M267.2,397.3l0.1,0.6 M267.3,397.9
		l0,0.7 M248.3,394L248.3,394 M248.5,393.9L248.5,393.9 M14.1,429.2l2,3 M23.7,455.4l2.9,2.3 M19.1,450.8l4.5,4.6 M13.4,426.7
		l0.7,2.5 M92,813.6l1.1-1.8 M90.6,817.6l1.4-4 M90.4,820.9l0.2-3.3 M91.3,822.2l-0.9-1.3 M94.1,824.1l-2.8-1.9 M100.7,827.2
		l-6.6-3.1 M107.4,828.6l-6.7-1.4 M119,829.2l-11.7-0.6 M124.1,828.8l-5,0.3 M127.5,829l-3.5-0.2 M141.4,828.1l-13.9,0.9
		 M152.8,824.2l-11.4,3.9 M155,824.3l-2.2-0.1 M159.5,822.8l-4.5,1.5 M161.6,822.9l-2.1-0.1 M166.8,821.1l-5.2,1.8 M169.6,821.3
		l-2.9-0.2 M178.1,818.4l-8.5,2.9 M180,818.5l-1.9-0.1 M183.8,817.2l-3.8,1.3 M185.5,817.3l-1.7-0.1 M194.2,814.3l-8.7,3
		 M196.1,812.3l-1.9,2 M197.2,812.3l-1.1-0.1 M198.9,810.5l-1.7,1.8 M199,808.1l-0.1,2.4 M198,805.1l0.4,1.9 M198.1,803.2l-0.1,1.9
		 M196.9,801l1.1,2.2 M110.4,816.7l10.4,1.5 M120.9,818.2l6.6,0.3 M127.5,818.6l6.4-0.8 M151.9,812.6l10.3-2.2 M162.2,810.5l6.5-2.6
		 M187.4,805.3l6.3-2.8 M193.7,802.6l3.2-1.5 M198,799.6l-1.1,1.4 M197.9,794.3l0.1,5.3 M197.6,790l0.3,4.3 M185.9,789.6l-3,1
		 M153.2,771.9l-2.9-0.2 M130.3,781.5l0.1-1.2 M131.9,782.1l-1.6-0.6 M132.6,783.5l-0.7-1.4 M134,783.6l-1.4-0.1 M136.2,785.1
		l-2.2-1.6 M122.2,796.9l4-1.6 M119,797.8l3.2-0.9 M116.8,798.9l2.2-1 M102.4,801.9l4-0.8 M99.3,803.2l3.1-1.3 M95.2,806.5l4.1-3.3
		 M94.4,807.7l0.8-1.2 M94,809.7l0.5-2 M93.1,811.8l0.8-2.1 M101.3,813.3l4.8,2.2 M106.1,815.5l4.3,1.2 M61.1,359l1.8-2.2
		 M67.5,342.9l1.3-1.3 M90.9,296.4l0.4-0.6 M91.3,295.8l0.9,0 M68.7,341.6l1.9-3.5 M91.1,297.1l-0.2-0.7 M64.5,353.2l1.7-6
		 M90.9,298.6l0.2-1.5 M90.2,299.3l0.7-0.6 M88.9,300.2l1.3-0.9 M86.5,301.5l2.4-1.3 M84.2,302.4l2.2-0.9 M84,304.3l0.2-1.3
		 M83.6,308l0.4-3.8 M84.2,309.5l-0.6-1.5 M62.9,356.8l1.6-3.7 M83.6,313.2l0.6-2.4 M84.2,302.9l0-0.5 M79.9,318.2l-0.3-1.4
		 M79.8,319.3l0.1-1 M79.3,320l0.5-0.7 M77,322.8l2.3-2.8 M89.9,304.5l-2.3,5.4 M81.2,343l-0.1,2 M87,311.2l-0.3,0.5 M86.3,312.9
		l0,0.1 M86.3,312.6l-0.1,0.3 M92.8,297.8l-1,3 M91.8,300.8l-1.9,3.7 M86.7,311.7l-0.2,0.5 M85.2,315.8l-1.3,6.8 M82.7,332.2L82,339
		 M92.6,296.8l0.2,1 M82,339l-0.8,4 M81.9,349.9l0,0.8 M87.7,309.8l-0.1,0.1 M86.3,313.1l-1.1,2.7 M76.5,363.7l0.5,0.5 M92.2,295.8
		l0.5,0.9 M87.2,310.7l-0.3,0.5 M77.3,359.1l-0.8,3 M82.9,328.6l-0.2,3.6 M83.9,322.5l-1,6.1 M76.2,374.3l1.1,1 M87.5,310.2
		l-0.2,0.4 M87.6,310l-0.2,0.3 M86.5,312.2l-0.2,0.4 M77.1,371.8l-0.6,1.2 M76.7,370.9l0.5,0.9 M77,364.2l-0.2,3.5 M77.4,375.3
		l0.4,0.1 M76.5,373.1l-0.3,1.2 M76.6,362.1l-0.1,1.6 M76.8,367.7l0.3,1.8 M78.2,358.2l-0.9,0.9 M248.6,393.8l1.1,0.1 M248.6,393.8
		L248.6,393.8 M248.4,393.9L248.4,393.9 M266.1,410.2L266.1,410.2 M248.4,393.9L248.4,393.9 M265.8,410l0.2,0.1 M265.9,410.1
		l0.1,0.1 M248.3,393.9L248.3,393.9 M254.5,395.5l0.7,0.4 M130,377.8l5.2,1.3 M260.9,160.1l0.6,0 M259.1,159.1l1.8,1 M253,156.4
		l6.1,2.7 M252.9,156.4l0.1,0 M252.6,156.3l0.3,0.1 M228.5,145.6l1.1,0.5 M223.9,145.1l4.7,0.5 M222.7,145.1l1.2,0.1 M221.3,144
		l1.4,1.1 M219,143.7l2.3,0.3 M217.5,142.9l1.5,0.8 M140.4,139l3.5,0.2 M131.2,143l9.2-4 M123.7,145.3l7.4-2.3 M213.2,141.5l2.5,0.4
		 M215.7,141.9l1.3,0.3 M294.7,274.7l0.7,4.5 M293.6,268.1l1.1,6.5 M297.8,295.4l-0.1,2.4 M297.2,294l0.6,1.4 M297.3,292.9l-0.1,1.1
		 M297,291.4l0.2,1.5 M295.7,289.8l1.4,1.6 M294.7,289.1l1,0.7 M294.7,288.2l0,0.8 M295,287.3l-0.3,0.9 M295.1,286.3l-0.1,1
		 M295.5,283.4l-0.4,2.9 M295.4,279.2l0,4.2 M246.3,386l0.4-1.7 M253.3,361.7l0.2-2.3 M251.7,369.5l1.6-3.9 M253.8,363.9l-0.6-2.1
		 M253.5,359.4l1.1-1.2 M145.6,137.7l-0.1,1.4 M145,141.2l-0.8,1.2 M144.1,142.4l-0.4,1.5 M143.7,143.9l-0.1,1.9 M147.6,151.1
		l1.6,1.1 M155.5,154.6l1.5,0.1 M158.2,155.1l0.1,0 M158.4,155.2l0.2,0.1 M160.9,155.7l3.4,0.2 M164.4,155.9l1.6,0.6 M183.1,156.2
		l0.2,0 M196.9,153.7l2.8-1 M199.8,152.7l0.2-0.1 M199.9,152.7l0.4-0.2 M204.6,150.8l0.3-0.2 M205,150.6l1.4-0.7 M214,145.6
		l-1.3,0.9 M215.1,144.5l-1,1.1 M215.4,143.9l-0.4,0.6 M214.9,143.7l0.5,0.3 M214.2,143.2l0.8,0.5"/>
	<path class="st7" d="M213.2,141.5l0.9,1.7 M210.9,141.2l2.3,0.3 M209.4,140.6l1.6,0.6 M207,139l2.4,1.6 M205.7,137.6l1.3,1.4
		 M202.8,131.6l2.9,6 M201.8,126.9l1,4.8 M200.8,121.2l1,5.7 M200.6,116.4l0.2,4.8 M200.8,112.5l-0.2,3.9 M203,107.7l-2.1,4.9
		 M203,107.7l2-3.2 M147.2,123.5l0-0.8 M147.3,127.9l-0.2-4.4 M147.2,131.1l0.2-3.3 M146.3,134.2l0.9-3.1 M146.2,137.4l0.2-3.1
		 M146.2,137.4l-0.5,0.3 M287.4,366.6l0.6-1.1 M255.8,342l0.1-0.3 M286.4,367.7l0.9-1.2 M254.3,349.1l0.2-4.6 M255.6,342.4l0.2-0.4
		 M252.2,292.6l-0.4-0.9 M254.8,310.4l-0.3-2.6 M259.3,324.3l-0.2-0.6 M256,341.7l1.3-1.6 M252.5,301.1l-1-1.2 M251.8,291.7l0.3-1.4
		 M258.9,329l0-0.9 M257.5,317.4l-1.3-1.7 M257.3,340.1l1.1-4.3 M258.9,320.8l-0.8-1.6 M250.4,275.7l-1.1-0.8 M251.5,289.7l-0.3-5.4
		 M258.1,319.2l-0.6-1.8 M254.5,307.8l-0.9-2.4 M251,276.7l-0.5-1 M258.5,334.1l0.6-1.1 M254.8,310.5l0-0.1 M256.2,315.6l-1.3-2.5
		 M259.7,326.5l-0.4-2.2 M251.2,284.4l-0.6-1.5 M255.9,341.8l0.1-0.1 M254.8,310.7l0-0.3 M259.1,323.8l-0.2-3 M259,328.1l0.7-1.6
		 M250.7,282.9l0.3-6.2 M258.4,335.8l0.1-1.6 M259.1,333.1l0.1-2.2 M259.2,330.9l-0.3-1.9 M252.2,290.3l-0.7-0.6 M284.9,371
		l-0.6,0.5 M172.9,25.3l3.7,0.2 M176.6,25.5l1,0.7 M177.6,26.2l2.4,0.1 M180,26.3l4.4,1.3 M188.7,27.9l4.7,3 M193.4,30.9l2.3,0.7
		 M195.7,31.6l1.5,2.7 M197.2,34.3l0.9,4.8 M196.8,43.3l0.9,1.1 M197.7,44.4l-0.1,2.4 M197.6,46.8l0.7,2.9 M198.3,49.6l-0.1,1.8
		 M198.2,51.5l1.3,1.4 M199.5,52.8l-0.1,3.8 M199.4,56.6l-0.1,1.1 M199.4,57.7l0.3,2.7 M199.7,60.4l0.1,1.1 M199.6,64.9l0.4,2.4
		 M200.1,67.3l-0.1,1.1 M200,68.4l0.4,1.7 M203,77.6l0.2-0.2 M203.2,77.4l0.6-1.3 M203.8,76.1l0.1-1.6 M203.9,74.5l0.7-1.4
		 M204.6,73.1l1.4-1.6 M206,71.5l2.5-1.7 M219.4,69.8l-0.1-0.1 M219.3,69.7l0.3-1.1 M219.7,68.6l0.8-2.2 M220.5,65.6l0.2-4.2
		 M220.3,60.1l0.1-1.8 M220.4,58.4l0.4-1 M220.8,57.3l0.1-1.7 M220.4,54.8l-0.3-1.4 M220.1,53.5l-0.2-1.8 M219.9,51.7l0.4-2
		 M220,48.6l-0.9-1.3 M220.8,46.5l-1.4-2.4 M219.4,44l-1-1.4 M218.4,42.6l-1.2-2 M217.1,40.6l0-1 M217.1,39.6l0.2-6.6 M217.3,33.1
		l-1,0.1 M216.3,33.1l-1.5-2.6 M212.7,27.5l2.1,3 M212.7,27.5l0,0.2 M212.6,27.7l0,0.3 M212.6,28.3l0.1-0.3 M212.6,28.3l-0.1,0.4
		 M212.4,29l0.1-0.4 M212.4,29l-0.1,0.4 M212.1,29.8l0.1-0.4 M212,30.1l0.2-0.3 M212,30.1l-0.3,0.1 M211.2,29.8l0.5,0.3 M210.7,29.1
		l0.6,0.6 M210,28.3l0.7,0.8 M210,28.3l-0.7-0.9 M209.3,27.4l-0.6-0.9 M208.2,25.7l0.5,0.8 M207.8,25.2l0.4,0.5 M207.7,25l0.1,0.2
		 M205.9,23.9l1.9,1 M205.9,23.9l-2.6-2.2 M203.2,21.7l-3-1 M200.3,20.8l-6.1-4 M194.2,16.8l-0.1-0.1 M191.6,14l-5.8,0.6
		 M181.2,13.6l4.7,1.1 M164.8,10.4l3,3.3 M167.8,13.7l-12.1-1.4 M158.8,15.2l-3.1-3 M152.3,15.3l6.5,0 M148.2,15.7l4.1-0.4
		 M147.8,20.9l0.5-5.2 M147.8,20.9l-0.8,3 M147,23.8l-3.6,1.5 M143.4,25.4l-0.6,1.3 M140.8,35l1.6-0.9 M140.1,38.7l0.7-3.7
		 M139.8,42.4l0.3-3.6 M140.6,43.8l-0.8-1.5 M146,33.9l1.6-1.9 M149.3,29l1.5-1.5 M150.8,27.5l3.9-2.1 M154.7,25.5l3.7,0.2
		 M158.4,25.6l9.5-1.2 M167.9,24.5l2.9,0.2 M170.8,24.6l2.2,0.7 M31,351l0.8-0.9 M138.6,47.7l-0.2,3.9 M138.4,51.6l-2.2,4.4
		 M136.1,56l-0.5,10.3 M135.6,66.3l0.1,1.8 M136.1,72l-2.1,6.5 M134.1,78.5l-0.3,4.8 M133.8,83.2l0.7,5.8 M143.5,118.9l3.6,3.8
		 M161.5,122.1l-8,0.9 M198.6,105.9l-1.9,1.4 M200.7,105.3l-2.1,0.6 M206.3,102.2l-0.6,0.3 M206.3,102.1l0.7-0.4 M207,101.7l0.9-1.3
		 M210.1,97.7l0.1-1.3 M210.2,96.4L212,94 M212,94l1.7-0.9 M213.8,93.2l2.7-2 M216.5,91.2l1.3-1.3 M217.7,89.9l0.8-0.9 M218.6,89
		l0.6-2.4 M219.3,69.7l-0.2-0.2 M218.6,69.3l0.6,0.2 M217.1,69.4l1.5-0.1 M216.2,69.6l1-0.2 M214.9,69.1l1.3,0.5 M213.8,69l1,0.1
		 M211.6,69.4l2.2-0.4 M210.7,69.4l0.9,0 M208.4,69.8l2.3-0.3 M198.5,76.8l2.2,0.4 M199.9,72.6l-1.4,4.1 M200.4,71l-0.5,1.6
		 M200.4,70.1l0,0.9 M265.5,409.9l0.2,0.1 M261.2,400.7l0.8,1.6 M272.1,405.9l-0.2,0 M286.2,206.1l1.6,8.4 M285.8,203.5l0.4,2.5
		 M284.1,197.6l1.7,5.9 M273.5,405.3l-0.9,0.5 M273.6,391.8l0.8,1 M272,406l-0.2,0 M267.8,393.9l0.2-0.7 M276,396.8L276,396.8
		 M273.1,391.2l0.5,0.6 M256.4,649l-0.7-2.9 M260.2,659l-1.3-5.5 M266.4,426l-0.4,6.7 M259.9,663.4l0.2-4.4 M255.1,639.5l-2-3
		 M258.9,653.5l-2.4-4.4 M259.3,460.5L257,461 M261.7,453.2l-2.4,7.3 M263.3,446.6l-0.2,3.1 M263.1,449.6l-1.4,3.6 M255.8,646.2
		l0.2-3.1"/>
	<path class="st7" d="M262.4,674.1l-2.5-10.7 M264.9,443.2l-1.6,3.3 M265.5,437.5l-0.5,5.7 M266,432.7l-0.6,4.8 M239.8,468.4
		l-2.3,0.4 M243,467.4l-3.2,0.9 M237.5,468.8l-0.3,0.1 M228.4,417.5l0.8,0 M229.2,417.6l2.4-2.8 M231.6,414.8l1.7-2.5 M233.3,412.3
		l1.3-2 M239,405.6l1.5-1.8 M242,399.3l0-0.9 M242.9,396.4l0.4-1 M245.7,394.3l1.6-0.4 M247.2,393.9l1.1,0.1 M249.7,393.9l0.9,0
		 M252.8,394.7l1.2,0.8 M254.1,395.5l0.4,0 M261.2,400.7l-1.5-1.2 M262.1,402.3l0.3,1.9 M262.4,404.2l0.2,1.3 M263.6,408.4l1.2,1
		 M265.3,409.8l0.2,0.1 M267.4,410.3l-1.3-0.1 M268.8,410.7l-0.1,1.2 M268.8,411.9l-1.5,6.1 M267.3,418l-0.9,8 M45.6,397l-0.4-3.5
		 M46.8,398.8l-1.2-1.9 M48.8,400.4l-2-1.6 M50.5,402.9l-1.7-2.5 M52,410.4l-1.6-7.6 M47.7,430.7l0.4-7.6 M44.5,439.1l1.3-2.4
		 M42.4,440l2.1-0.9 M40.9,439.9l1.5,0.1 M39.1,439.2l1.8,0.8 M36.9,436.6l2.2,2.6 M35.7,434l1.2,2.6 M36.1,426.1l-0.4,7.9
		 M36.1,426.1l-2.2,1 M32.9,431.5l-0.7,4.3 M32.2,435.7l0.2,2.8 M32.5,438.6l-1.4,5.8 M31.1,444.4l3.9,6.1 M35,450.4l4.1,2.8
		 M39.1,453.3l2.1,1.9 M41.2,455.2l1.1,1.6 M42.4,456.8l0.7,0.7 M43,457.6l1.5,1.6 M44.5,459.1l0.4,1.3 M44.8,460.4l-0.1,1.3
		 M44.8,461.7l-0.1,1.3 M44.7,463l-0.6,1.9 M44.1,464.8l-0.9,1.4 M43.2,466.2l-1.2-0.1 M42.1,466.2l-3.9-2.6 M38.1,463.6l-2.8-0.1
		 M16.8,416.9l-1.1,4.5 M18.1,406l-1,4.1 M22,394.4l-1.7,5 M22.8,386.6l-0.9,7.8 M25.3,379.7l-2.5,7 M31,351l0.6,2.3 M41.2,346
		l-1.4-0.1 M42.9,345.9l-1.7,0.2 M48.2,347.2l-5.4-1.3 M49.9,348.2l-1.6-1.1 M51.5,348.3l-1.6-0.1 M52.9,349.2l-1.4-0.9 M55.7,350.8
		l-2.8-1.6 M61.2,359.3l-0.1-0.3 M58.9,360.9l2.2-1.6 M58.9,361.7l0-0.7 M55,368.9l1.4-1.4 M45.2,391.9l1.3-3.3 M45.1,393.5l0.1-1.6
		 M281.7,183.6l1.5,5.8 M265.4,391.4l1.2-1.6 M266.4,386.3l-1.3,0.8 M268.3,386.4l-1.9-0.1 M269.6,387.3l-1.4-0.9 M271.4,387.4
		l-1.7-0.1 M272.4,388.1l-1-0.7 M273,389.1l-0.6-1 M273.4,389.8l-0.4-0.6 M275,391.1l-0.8-0.8 M275.7,391.8l-0.7-0.8 M275.7,391.8
		l0,0.8 M277,396.8l0.2,1.5 M277.2,398.3l-0.2,2.1 M277,400.3l-0.1,1 M276.7,402.3l0,0.2 M276.7,402.5l0,0.1 M276.7,402.6
		L276.7,402.6 M276.7,402.7l-0.4,0.7 M276.3,403.4L276,404 M276,404l-0.4,0.6 M275.5,405l-0.9,0.8 M274.4,406.1l0.3-0.3 M273.8,407
		l0.5-0.9 M273.4,408l-0.8,1.6 M271.9,410.6l0.6-0.9 M271.1,410.8l0.8-0.3 M271.1,410.8l-1-0.3 M269.6,410.1l0.6,0.4 M268.8,410.7
		l0.8-0.6 M258.9,397.9l0.1-1 M259.1,394.7l1-0.6 M260.2,394.1l0.4-0.1 M260.6,394l1.1,0.1 M263.9,395.2l0.1-1.2 M263.9,393.9l0-0.2
		 M264.3,392.7l0.4-0.4 M240.4,399l0.9,2.2 M240.4,398.9L240.4,398.9 M239.9,396l-0.6,0.6 M241.1,392.6l-0.5,1.7 M241.6,390.9
		l-0.5,1.8 M242.2,389.4l-0.6,1.5 M242.3,389.3l0,0.1 M243.5,387.7l-0.9,0.7 M245.5,387.3l-0.8,0.7 M247.6,385.5l-1.3,0.6
		 M250.2,384.9l-2.6,0.6 M253.4,385l-3.2-0.2 M257.6,385.8l-0.2,0 M261.1,386.9l-3.5-1 M265.1,387.1l-4-0.2 M221.2,73.3l0.4,3.9
		 M253.4,357.2l0.3-2.6 M253.5,359.4l-0.1-2.2 M286.4,367.7l-0.1,1.1 M140.6,43.8l-2,3.9 M220.2,83.7l-1.1,2.9 M219.4,69.8l0.5,1.3
		 M221.6,77.1l-1.5,6.6 M253.7,354.5l1.3-3 M255,351.5l-0.6-2.4 M221.2,73.3l-1.2-2.1 M206.3,102.2L206.3,102.2 M291.4,236.6
		l-0.3,10.1 M291.1,246.7l0.8,4 M291.9,250.7l0.4,6.9 M292.3,257.6l0,5.2 M229.7,146.1l2.4,1.9 M232.1,148l1.3,0.5 M233.3,148.4
		l2.8,1 M236.2,149.4l8.8,3.3 M297.7,300l0.3,1.4 M298.1,302l-0.1,1.6 M296.8,309.2l1.2,2.9 M298,312.1l0.1,2.9 M298.1,314.9
		l-0.4,1.6 M296.2,318.7l0.3,0.7 M296.5,319.4l-0.6,12 M295.9,331.3l-0.4,1.8 M295.5,333.2l0,0.1 M295.5,333.3l0,0.2 M295.5,333.5
		l0,0.2 M295.4,333.7l0,0.2 M295.4,333.9l-0.1,0.3 M295.4,334.2l-0.1,0.3 M295.3,334.5l-0.1,0.3 M295.2,334.8l-0.1,0.3 M295.1,335.1
		l-0.4,2.3 M294.7,337.4l-0.3,2.2 M294.3,339.6l-0.3,0.7 M294,340.3l-0.7,0.7 M293.3,341.1l0.5,1.4 M293.2,345.9l-1,1 M292.2,346.9
		l-0.7,4.4 M291.5,351.3l-1.1,4.4 M290.4,355.7l-1.4,2.7 M145.6,137.7l-1.8,1.5 M280.8,362.4l1.8,2.3 M280.7,380.4l-1.1,2.6
		 M253.3,365.6l0.5-1.7 M277.7,388.1l-0.3,1 M281.5,378l-0.8,2.4 M249.4,378.9l1-3.8 M251.6,371.3l0.1-1.8 M246.7,384.3l0.8-0.7
		 M277.7,387.5l0,0.6 M284.3,367.3l0.7,2.6 M277.3,389.1l-1.4,2 M275.9,391.1l-0.2,0.8 M284.3,371.6l-0.7,0.5 M285.1,369.9l-0.1,1.2
		 M281.6,376.2l-0.1,1.8 M262.2,354.1l1.2,0.1 M274.8,358.1l0.5,0.2 M279.6,383l-0.9,2.1 M283.6,366.2l0.3,0.4 M260.1,354.5l2.1-0.4
		 M278.7,385l-1,2.5 M254.6,358.2L254.6,358.2 M283,365.4l-0.2-0.3 M282.8,365.1l-0.2-0.2"/>
	<path class="st7" d="M276.2,358.7l-0.4-0.2 M275.8,358.5l-0.5-0.2 M274.8,358.1l-0.5-0.2 M274.4,357.8l-0.4-0.2 M274,357.7
		l-0.3-0.1 M272.6,357l-0.4-0.2 M272.2,356.8l-0.4-0.2 M271.8,356.6l-0.3-0.2 M271.5,356.4l-0.2-0.1 M271.2,356.3L271.2,356.3
		 M271.1,356.3l-2-1.3 M269.1,355l-2.1-0.1 M267,354.8l-2-0.6 M265.1,354.2l-1.7-0.1 M257.6,355.2l-1.1,0.6 M259.1,354.5l-1.5,0.8
		 M283.6,366.2l-0.3-0.4 M283.3,365.8l-0.3-0.4 M273.8,357.5L273.8,357.5 M282.6,364.7l0.1,0.1 M286.4,368.9l-1.3,1 M252.3,301.8
		l0.2-0.6 M252.6,294.6l-0.4-1.9 M251.3,298.8l0.8-2.7 M253.6,305.4l-1-1.1 M252.6,304.4l-0.5-0.9 M251.5,299.9l-0.2-1.1
		 M252.1,303.5l0.2-1.7 M252.1,296.1l0.6-1.5 M289,358.4l-0.1,1.4 M288.1,361.2l0.8-1.5 M31,351l-0.4-0.1 M30.5,350.9l0-0.5
		 M30.5,350.3l0.6-2.1 M31.1,348.2l0.1-2.3 M31.2,345.9l0.7-1.7 M31.9,344.2l0.8-1.8 M32.6,342.4l0.3-1.1 M32.9,341.3l0.2-3.2
		 M33.1,338l0.4-1.3 M33.5,336.7l0.7-3.8 M34.2,332.9l0.6-3 M39.3,312.3l0.9-2.7 M40.2,309.6l1.9-5.1 M42.2,304.5l0.4-1.5
		 M43.8,299.9l1.5-4.5 M46.4,289.9l-0.4-3 M46,286.9l0.5-1.7 M49.1,283.9l-0.7-1.4 M48.5,281.1l-0.8-1.6 M50.8,275.3l0.1-1.8
		 M50.9,273.5l1.9-1.7 M52.8,271.8l-0.4-1.6 M52.4,270.2l0.9-1.8 M56.2,268.5l-2.8-0.2 M56.2,267.5l-0.1,1 M52.9,262l0.5,1.4
		 M53.1,259.3l-0.1,2.7 M53.6,257.6l-0.6,1.7 M54.7,251.1l-1.1,6.5 M57,243.7l-2.3,7.4 M57.1,242.7l-0.1,1 M57.6,241.7l-0.5,1
		 M57.7,240.1l-0.1,1.6 M61.1,227.2l-3.4,12.9 M63.4,220.1l-2.3,7.1 M63.5,217.4l-0.1,2.8 M64.3,212.4l-0.7,5 M65.2,204.4l-1,8
		 M76.8,172.8l-3.8,8.4 M82.2,161l-5.3,11.8 M89.3,156.8l-7.1,4.2 M93,154.8l-3.8,2 M109.7,148.8l-9.9,3.4 M114.1,146.9l-4.4,1.9
		 M266.4,162.7l3,1.6 M269.4,164.3l1.2,0.5 M270.6,164.9l1.4,1.7 M271.9,166.5l1.6,1.7 M273.5,168.3l0.7,1.4 M274.2,169.6l2,1.4
		 M276.2,171l3.3,6.8 M247.7,277.5l-0.1,0.2 M247.6,277.8l-0.1,0.2 M247.5,278L247.5,278 M247.4,278l-0.9,2.7 M244.9,283l-2,3.3
		 M242.9,286.3l-1.4,4.6 M241.5,290.9l-0.2,4 M241.2,294.9l-0.2,6.3 M241,301.1l-0.8,10.1 M240.3,311.3l0,3.6 M240.2,314.9l-0.1,2.4
		 M240.2,317.3l-0.5,4.6 M238.4,332.5l-0.4,4 M238.1,336.5l-0.6,2.5 M237.3,340.1l0,0.2 M237.2,340.3l0,0.1 M237.2,340.5
		L237.2,340.5 M237.2,340.5l-1.1,3.3 M236.1,343.8l-0.2,2.6 M236,346.4l-1.6,4.5 M234.4,350.9l-0.3,3.1 M234.1,354.1l-0.5,1.4
		 M233.2,358.2l-0.9,2.8 M232.3,361l-0.5,2.6 M231.5,367.7l-0.9,2.4 M230.6,370.1l-0.4,3.8 M230.2,373.9l0.5,1 M230.7,374.9
		l-0.3,1.2 M230.1,382.2l-0.3,0.8 M229.7,383.1l-0.1,1.8 M229.6,384.9l-1.4,1.6 M228.2,386.5l-0.4,2.4 M227.8,388.9l-0.7,0.7
		 M227.1,389.5l-0.2,2.9 M262.3,802.3l6.2,7.7 M255.6,788l2.1,3.5 M260.6,796.3l1.2,2.9 M261.8,799.2l0.6,3.1 M268.6,810l1.5,1.1
		 M270.1,811.1l0.9,0.5 M271,811.6l1,0.9 M272,812.5l2.8,2.9 M274.8,815.4l3.7,1.5 M286,825.8l-0.1,1.3 M285.9,827l-3.6,0.4
		 M282.3,827.4l-2.2-0.1 M280.2,827.3l-3.4,0.4 M276.7,827.7l-3.6-0.2 M265.4,829.6l-0.8,0.2 M264.5,829.9l-0.3,0.1 M264.2,829.9
		l-3.7,1.4 M240.1,833.7l-4.7-1.3 M229.4,829.2l-1.9-2.1 M222.6,824.4l-3.4-0.9 M219.2,823.5l-2.1-0.1 M217.1,823.4l-3.2-0.8
		 M213.9,822.6l-3.2-1.5 M210.8,821.1l-0.9-2.9 M209,804.6l1-4.7 M249.2,844.2l8.5-2.5 M277.1,837.7l3.3-0.5 M280.4,837.2l3.6,0.1
		 M284,837.4l5.9-0.8 M249.2,844.2l6.9,0.4 M282.7,840.5l4.5-1.4 M287.1,839.1l1.9-1.5 M289.1,837.6l0.8-1 M288.5,829.5l-2.6-2.4
		 M289.7,835.9l0.1-1.7 M289.8,834.1l-0.6-2.9 M289.2,831.2l-0.7-1.8 M289.9,836.6l-0.2-0.7 M249.2,844.2l-1.8,0.2 M247.5,844.4
		l-2.6-0.1 M244.9,844.3l-5.4-1 M239.5,843.3l-4.5-1.2 M235.1,842.1l-5.4-2.1 M229.6,840.1l-3.6-0.8 M226,839.2l-4.2-1.9
		 M221.9,837.4l-5.9-1.4 M215.9,836l-4-1.8 M211.9,834.2l-0.7-1.1 M210.7,824.9l0.1-3.9 M239.8,477.8l-0.1,1.6 M238.4,470l1.5,7.8
		 M237.1,468.9l-1.1,0.4 M230.3,472.3l-2.4-0.1 M217.1,469.4l2.5,3.8 M221.3,461l-2.8,5.2 M223.8,455l-2.5,6 M225.1,452.5l0.3-4.7
		 M219.5,454.2l4.6-4 M213.4,451.7l0.2,0.7 M223.8,425.3l-3.4,10.7 M228.4,417.5l-4.6,7.8 M226.3,406.3l0.2-1.1 M226.8,403.9
		l-0.3,1.3 M218.9,391.9l6.2,0.3 M212.1,390.1l6.8,1.7 M166.1,385l34.7,5.5 M130,377.8l-35.5-1.9 M80.2,372.8l2.6,0.1 M72.1,403.5
		l-0.8,66.9 M71.3,470.4l5.7,35.7 M89.8,568.8l0.3,12.9 M193.4,778.2l0.5,1.4 M193.6,774l-4.4-12.3 M179.7,593l-20.6-70.7
		 M198.4,697l1.9,35.7 M206.1,758.9l-0.8-2.9 M210.9,800.7l2.6,2.3 M229,792.3l-5.9,6.6 M241,784.1l5.8,0.9 M255.6,786.7l5.4,0.3
		 M262.2,786.3l0.3-4.8 M264.3,778.3l-0.1,2 M258.8,763.1l1.3,7.5 M59.5,354.8l-3.8-4"/>
	<path class="st7" d="M268.3,403.6l1.4,1.8 M272.5,405.8l-0.4,0.1 M273.5,405.3l1.7-2.5 M275.2,402.7l0.6-3 M271.5,390.5l1.6,0.7
		 M271.5,390.5l-1.2-0.1 M269.5,390.8l0.9-0.4 M269,391.5l0.2-0.3 M268.2,392.6l0.7-1.1 M267.8,394.6l0-0.7 M267.8,394.6l-0.6,1.9
		 M267.3,398.6l1,5 M242.9,396.4l-0.8,2.1 M19.1,450.8l-1.4-13.1 M25.3,379.7l6.2-26.4 M17.7,437.6l-1.6-5.4 M26.6,457.7l8.8,5.8
		 M198.4,806.9l0.6,1.2 M133.8,817.8l18.1-5.1 M171.3,808l-2.6-0.1 M187.4,805.3l-16.1,2.7 M197.6,790l-3.7-10.4 M185.9,789.6l8-10
		 M180.7,790.6l2.3,0.1 M160.9,774.7l19.8,15.8 M160.9,774.7l-7.7-2.9 M134.8,777.3l15.5-5.6 M134.8,777.3l-4.4,3 M136.2,785.1
		l-3.7,5.2 M132.5,790.3l-6.3,5 M112.1,801.4l4.7-2.6 M112.1,801.4l-5.7-0.3 M93.1,811.8l8.2,1.5 M67.5,342.9l-1.3,4.3 M79.5,316.9
		l4-3.7 M84.2,309.5l-0.1,1.3 M70.6,338.1l6.4-15.3 M81.9,350.7l-3.7,7.5 M81.7,346.9l-0.6-1.9 M81.7,346.9l0.3,2.9 M76.7,370.9
		l0.4-1.4 M263.6,408.4l-1-2 M262.6,406.5l0.1-0.9 M258.9,397.9l-1-0.8 M252.8,394.7l-2.2-0.8 M166.1,385l-6.3-1.6 M157.9,383
		l1.6,0.3 M152.7,382l4.1,0.7 M152.7,382l-9.6-2.5 M94.5,375.9l-11.7-3 M261.5,160.2l4.9,2.5 M252.6,156.3l-2.8-0.9 M116.2,146.5
		l7.5-1.2 M217.1,142.2l0.4,0.6 M293.6,268.1l-1.4-5.3 M247.5,383.6l1.9-4.7 M145.6,139.1l-0.6,2.1 M143.6,145.8l1.6,2.9
		 M145.2,148.7l2.4,2.4 M149.2,152.2l6.3,2.4 M158.2,155.1l-1.3-0.5 M160.9,155.7l-2.3-0.5 M165.9,156.5l6.6,0.4 M181.9,156.5
		l-9.4,0.3 M183.1,156.2l-1.2,0.3 M187.6,155.9l-4.2,0.3 M196.9,153.7l-9.3,2.2 M204.6,150.8l-4.2,1.7 M206.4,150l3.9-2.3
		 M210.3,147.7l2.5-1.2 M206.3,102.2l-1.3,2.3 M288.1,361.2l-0.2,4.2 M255.6,342.4l-0.4,0.9 M254.9,313.1l-0.1-2.4 M254.6,344.5
		l0.6-1.2 M281.6,376.2l2-4.1 M188.7,27.9l-4.3-0.2 M196.8,43.3l1.3-4.2 M199.8,61.5l-0.2,3.4 M220.5,65.6l0,0.7 M220.3,60.1
		l0.4,1.3 M220.4,54.8l0.5,0.8 M220,48.6l0.2,1.1 M220.8,46.5l-1.6,0.8 M191.6,14l2.5,2.6 M176.3,10.5l4.9,3.1 M172.7,10.8l3.6-0.3
		 M164.8,10.4l7.9,0.4 M142.4,34.1l0.4-7.4 M146,33.9l-5.4,9.9 M149.3,29l-1.7,3 M31.7,350.1l0.8-1.1 M136.1,72l-0.5-3.9
		 M134.9,91.2l-0.4-2.1 M143.5,118.9l-8.6-27.8 M147.1,122.7l6.4,0.3 M175.1,119.2l-13.6,3 M196.7,107.3l-21.6,11.9 M200.7,105.3
		l5-2.8 M207.9,100.4l2.2-2.8 M249.4,274.9l-0.9,1.3 M287.9,214.5l1.9,11.1 M203,77.6l-2.2-0.4 M276,396.8l-1.6-4 M276,396.9
		l-0.2,2.9 M257,461l-13.9,6.4 M234.6,410.2l4.4-4.6 M240.5,403.8l0.7-2.6 M241.3,401.2l0.8-1.9 M243.3,395.4l2.4-1.1 M255.2,396
		l1.2,1 M256.4,397l1.5,0.1 M259.8,399.5l-0.9-1.6 M265.3,409.8l-0.6-0.3 M267.4,410.3l1.4,0.4 M52,410.4l-0.3,6.3 M51.7,416.7
		l-3.6,6.4 M45.8,436.7l1.9-6.1 M33.9,427.2l-1,4.3 M15.8,421.4l-2.4,5.3 M16.8,416.9l0.4-6.8 M18.1,406l2.1-6.6 M35.3,347.1
		l-2.8,1.9 M39.8,346l-4.5,1.1 M58.9,361.7l-2.5,5.8 M46.5,388.6l8.5-19.7 M265.4,391.4l-0.8,0.9 M267.6,388.7l-1,1.1 M266.8,388.2
		l0.8,0.5 M265.1,387.1l1.8,1.1 M274.2,390.3l-0.8-0.6 M277,396.8l-1.3-4.2 M276.7,402.3l0.3-1 M275.5,405l0-0.4 M273.4,408l0.5-1.1
		 M259.1,394.7l-0.1,2.2 M261.6,394l2.2,1.1 M264.3,392.7l-0.3,1 M239.3,396.5l1,2.4 M240.6,394.3l-0.7,1.6 M242.6,388.4l-0.4,0.9
		 M244.7,387.9l-1.2-0.2 M246.3,386l-0.8,1.2 M257.5,385.8l-4.1-0.8 M249.8,155.4l-4.9-2.7 M298.1,302l-0.2-0.6 M297.1,304.7l1-1
		 M297.1,304.7l-0.2,4.5 M296.2,318.7l1.5-2.1 M293.7,344.7l0.1-2.3 M293.2,345.9l0.5-1.2 M251.6,371.3l-1.2,3.8 M284.3,367.3
		l-0.4-0.6 M259.1,354.5l1,0.1 M276.5,358.9l-0.4-0.2 M272.6,357l1,0.5 M276.5,358.9l4.3,3.5 M254.6,358.2l1.8-2.3 M34.7,329.9
		l2.4-8.5 M38.1,317.9l-1,3.5 M38.1,317.9l1.2-5.6 M43.8,299.9l-1.3,3.1 M45.5,292l-0.2,3.5 M46.4,289.9l-0.9,2 M49.1,283.9
		l-2.7,1.3 M48.5,281.1l-0.1,1.5 M47.7,279.5l3.1-4.2 M56.2,267.5l-2.8-4.1 M73.1,181.2l-7.8,23.2 M99.9,152.2l-6.8,2.6
		 M116.2,146.5l-2.1,0.4 M281.7,183.6l-2.1-5.9 M283.1,189.4l1.1,6.6 M284.1,197.6l0.1-1.5 M291.4,236.6l-1.6-11 M297.7,300l0-2.2
		 M247.7,277.5l0.8-1.3 M245.5,282l1-1.3 M244.9,283l0.7-0.9 M238.4,332.5l1.2-10.5 M237.3,340.1l0.2-1.1 M233.2,358.2l0.3-2.8
		 M231.5,367.7l0.2-4.1 M230.4,376l-0.4,6.2 M255.6,788l0.1-1.3 M257.7,791.5l2.9,4.8 M278.5,816.9l4.3,3.5 M282.8,820.4l3.2,5.4
		 M265.4,829.6l7.8-2.2 M247.8,834.1l12.6-2.8 M247.8,834.1l-7.7-0.4 M235.4,832.4l-6-3.3 M227.5,827l-4.8-2.6 M209.9,818.1
		l-0.9-13.5 M210.7,824.9l0,4 M277.1,837.7l-19.3,4 M270.5,843.1l-14.3,1.6 M282.7,840.5l-12.2,2.5 M211.3,833.2l-0.6-4.2
		 M236,469.3l-3.5,2.4"/>
	<path class="st7" d="M249.6,448.7l-0.2,0.4 M248.9,450.2l-1,2 M248,452.2l-0.6,2.3 M246.9,456.8l-1.1,2.8 M249.9,448l-0.1,0.3
		 M250,447.8l-0.1,0.2 M249.4,449.1l-0.2,0.4 M249,450.1l0,0.1 M249.8,448.3l-0.2,0.4 M243.1,465.7l-1.3,1.2 M244.4,463.2l-0.5,1.2
		 M249.1,449.9l-0.1,0.2 M247.4,454.6l-0.5,2.2 M243.9,464.4l-0.8,1.3 M249.2,449.5l-0.1,0.3 M245,461.7l-0.6,1.6 M245.8,459.6
		l-0.8,2.1 M250,447.7L250,447.7 M253,461.3l0.5-1.9 M227.1,444.8l0.1-1.3 M92.2,251.1l0.3-8 M90,221.9l-0.8-3.7 M93.8,228.5l-2-2.7
		 M91.5,283.8l-0.1-8.6 M92.5,289l-1-5.1 M91.3,265.6l0.7-9.3 M92,256.3l0.2-5.2 M92.5,243.1l1-9.7 M92.2,295.8l0.4-6.9 M91.8,225.8
		l-1.8-3.9 M253,461.3l-0.7,1.9 M254,457.2l-0.6,2.2 M34.6,462.6l-0.8-0.9 M35.4,463.4l-0.2-0.2 M35.2,463.2l-0.5-0.6 M33.9,461.7
		l-0.9-1.1 M33,460.6l-1-1.1 M32,459.5l-0.9-1.1 M31.1,458.4l-0.8-0.9 M30.3,457.5l-0.5-0.6 M29.8,456.8l-0.2-0.2 M29.5,456.6
		l-3.2-4 M26.3,452.6l-2.6-3.2 M23.7,449.3l-1.3-1.4 M22.4,447.9l-1.2-3.5 M21.2,444.4l-0.5-3.3 M20.8,441l-0.3-5 M20.4,436l0.7-2
		 M21.2,434l-0.7-3.2 M20.4,430.9l0.1-2.2 M37.8,415.4l0-0.4 M37.7,416.8L37.7,416.8 M37.8,414.5L37.8,414.5 M36.6,422.5l1.1-5.7
		 M37.8,414.4l0.1-2.2 M37.7,416.7l0-0.2 M37.8,414.7l0-0.2 M37.7,415.8l0-0.4 M37.8,415l0-0.3 M37.7,416.2l0-0.4 M37.9,412.1l1-1.9
		 M36.3,424.3l0.3-1.8 M36.1,426.1l0.3-1.8 M37.7,416.5l0-0.3 M250.8,269.6l0.2-3.3 M249.4,274.9l1.4-5.3 M249.9,249.2l-2-13.5
		 M245.2,222.6l-1.9-12.7 M247.9,235.7l-2.7-13 M251.5,259.1l-1.6-9.9 M152.4,482.1l5.6,33.7 M147.3,466.5l3.3,4.6 M150.6,471.1
		l1.8,11 M89.9,573.8l-0.4,0 M214.8,30.5l-2.1-3.1 M212.7,27.5L212.7,27.5 M89.2,218.2l0.3-4.9 M91.4,275.2l-0.1-9.6 M93.5,233.4
		l0.3-4.9 M254.5,455.3l-0.5,1.9 M250.9,266.3l0.6-7.2 M225.3,447.8l1.7-3.1 M227.2,443.5l0.6-2.3 M227.8,441.2l0.8-3 M228.6,438.2
		l0.1-2.7 M228.8,435.5l0.1-1.6 M228.8,433.9l-0.3-3.1 M240.6,444.5l-1.8,2.8 M238.8,447.3l-1.2,4 M237.7,451.3l0,0.1 M237.6,451.4
		l-0.1,0.3 M237.5,451.8l-0.1,0.5 M237.4,452.2l-0.2,0.6 M237.2,452.8l-0.2,0.6 M237.1,453.4l-0.2,0.6 M236.9,454l-0.1,0.5
		 M236.7,454.5l-0.1,0.4 M236.6,454.9l0,0.1 M236.6,455l-0.8,2.7 M235.8,457.8l-1.5,2.4 M234.3,460.1l-1.4,2.1 M232.9,462.3l-2,1.7
		 M230.8,464l-1.8,2.8 M229,466.8l-1.9,2.9 M227.2,469.6l-1.5,1.8 M256.7,449.5l-1.5,3.1 M255.2,452.7l-0.7,2.7 M258.6,763.1l-0.1,0
		 M258.8,763.1L258.8,763.1 M258.7,763.1L258.7,763.1 M258.5,763.1l-0.3,0 M258.2,763.2l-1.8,0.3 M256.4,763.4l-1.6,0.3
		 M254.8,763.7l-1.4,0.3 M253.4,764.1l-1.2,0.4 M252.2,764.4l-1,0.3 M251.2,764.8l-0.8,0.3 M250.4,765.1l-0.6,0.2 M249.8,765.3
		l-0.3,0.2 M249.5,765.5l-0.1,0.1"/>
</g>
</svg>
