<?xml version="1.0" encoding="utf-8"?>
<!-- Generator: Adobe Illustrator 20.0.0, SVG Export Plug-In . SVG Version: 6.00 Build 0)  -->
<svg version="1.1" id="Layer_1" xmlns="http://www.w3.org/2000/svg" xmlns:xlink="http://www.w3.org/1999/xlink" x="0px" y="0px"
	 viewBox="0 0 310.5 876" style="enable-background:new 0 0 310.5 876;" xml:space="preserve">
<style type="text/css">
	.st0{fill:#574213;}
	.st1{fill:#705D3C;}
	.st2{fill:#646158;}
	.st3{fill:#2B2921;}
	.st4{fill:#E7B399;}
	.st5{fill:#AACCB4;}
	.st6{fill:#D8D1B8;}
	.st7{fill:#5C3512;}
	.st8{fill:#ACCCB7;}
	.st9{fill:#FFFFFF;}
	.st10{fill:none;stroke:#000000;stroke-miterlimit:10;}
</style>
<g>
	<path class="st0" d="M219.5,828.8v11l-2.6,1.6l-2.6,2.6l-7.6,1.8l-15.5-4.4l-14,0.9l-7,2.3l-2.9-2.3l-1.9-4.2v-22.1l0.6-11
		l-0.8-12.1l5.9,1.9l6.6,0l26.8,1l6.2,1.3l1.1,9l5,11L219.5,828.8z M219.5,828.8"/>
	<path class="st1" d="M216.8,841.4l2.6-1.6l0.3,5.6l-2.9,1.8l-2.6,2.6l-7.6,1.8l-15.5-4.4l-14,0.9l-7,2.3l-2.9-2.3l-2.6-5.9l0.8-4
		l1.9,4.2l2.9,2.3l7-2.3l14-0.9l15.5,4.4l7.6-1.8L216.8,841.4z M216.8,841.4"/>
	<path class="st2" d="M171,794.8l-5.9-1.9l-0.3-12.5l-0.9-6.5l-2.2-6.2l-5-12.5l0.6-6.2l3.1-5.9l8.8-10.6l-0.9-12.8l-2.5-13.5
		l-3.7-27l0.4-13.5l-1-13.7l-0.4-4.2l-1-2.5l0-3.4l2.3-4.4l3.2-3.6l1.3-2.3l0-1.7l-1.5-3.6l-1.7-4.4l-0.6-4.7l-0.6-8.9l-0.8-8.7
		l-1.5-8.1l-2.1-8.9l0.1-32.7l-1-4.7l-3.4-7.7l-1.3-4.3l-0.4-4.3l-0.2-4.3l-0.2-1.7l-1-0.9l-1.8,14.4l-4.9,12.6l-1.4,7.2l0,6
		l-0.3,12.3l-1.2,8l0,14.6l-1.2,6l-0.9,8l-2.6,6.6l-2.6,2.8l-0.6,2.3l1.8,6.9l3.4,3.4l1.4,2.7l0,5.8l-2,6.3l-0.5,6.1l2.2,6.8
		l1.2,2.9l0,3.4l0.7,12.8l3,27.6l1.2,6.8l0,6.3l1.6,12.8l2.6,7.7l1.2,6.5l-2,13l-5.6,13.2l-0.3,12l-1.7,3.6L139,791l-3.1,0.7
		l-2.9-0.5l-7-1.7l-6.7,0l-13.2,2.1l-12.8-0.9l1-7.6l1.7-6.7l0-1.9l-1.2-1.7l-1.9-2.6l-6.5-3.8l-2.4-3.6l1-3.8l5.1-6l1-3.8l0-2.9
		l-1.7-4.3l-0.2-2.9l-2.4-15.9l-1.2-7.5l-0.5-7.2l-2.6-14.5l-1.4-7.2l-1.2-7.5L78.4,668l-0.3-11.4l-0.6-11.7l-0.9-5.7l-1.1-3.4
		l1.7-13.7l2.6-11.7l-0.3-5.7l-2-5.7l-0.9-6l-2-4.9l0-12.6l1.4-12.6l-0.6-12.1l-2-11.5l-4-24.5L68,502.2l0-5.8l0.7-5.1l1.9,0.5
		l3.8-0.2l3.3-2.4l-1.9-3.6l-4.3-8.1l-2.8-7.6l-3.1-7.6l5.2-6.9l7.1,7.8l19.1,10.7l20.1,3.9l21.1,0.1l2.3-0.2l0.9-0.5l1-1.7l1.4,3.4
		l6.2,0l14.9,0.5l28.8,2l14.4-2.4l13.9-5.3l5.3-4.4l4.8-6.8l7.8-12l1.7,6l0.6,3.1l0.2,1.3l0.9,1.1l-1.3,4.9l-0.6,9.8l-1,4.2
		l-0.6,2.1v4.5l-0.9,2.5l-1.6,4.5l0.6,1.9l1.8,1.1l-8.4,23.6l-1.6,22.8l-6,21.3l-3.7,12.5l0,13.1l-1.8,6.2l-0.3,7.4l0.9,3.5l1.8,2.1
		l4.9,23.3l0.2,24.8l-1.9,23.8l-3.5,50.7l0.8,12l0,6.7l-1.5,5.3l-3,5.8l-1.5,5.8l-2.7,5.8l1.4,3.5l1.2,4.1l-0.3,4l-2.2,6.5l-0.3,3.7
		l-0.6,1.2l-1.2-0.3l-6.2-1.3l-26.8-1L171,794.8z M171,794.8"/>
	<path class="st3" d="M163.7,847l0.9-4.8l2.6,5.9l2.9,2.3l7-2.3l14-0.9l15.5,4.4l7.6-1.8l2.6-2.6l2.9-1.8l0.3,5.5l-5,5.5l-3.9,2.8
		l-11,2.2h-20.4l-10.5-4.4l-5-5.5L163.7,847z M163.7,847"/>
	<path class="st4" d="M57.4,510.7l0.9,1.8l0.6,1l-0.1,1.1l-1.7,1.7l-1.7-0.1l-9.6-4.8l-4.5-2.8l-3.4-3l-7.6-6.7l-1.5-2l-1-2.2
		l-1.7-3.9l-2.7-8.4l-1.3-4.5l-0.4-2.2v-1.7l2-8.9l2.5-1.1l6-2.5l7.1-1.4l12.8-3.2l5.7-0.7l2.8-0.7l3.5,3.5l1.4,3.6l3.1,7.6l2.8,7.6
		l4.3,8.1l1.9,3.6l-3.3,2.4l-3.8,0.2l-1.9-0.5l-0.9-1.9l-9-15.9l-5.2,3.1l-2.8,1.4l-1.2,1.4l-0.7,4.7l-0.2,1.9l0.9,2.8l0.7,4.7v1.9
		l1.7,2.4l1.7,1.2l1.4,2.6l4.3,4.3l0.5,4.7H57.4z M57.4,510.7"/>
	<path class="st5" d="M26.3,463.9l-2.5,1.1l-1.1-1.4l-0.7-2.8l-0.4-5.7l0.3-20.3l0.6-0.6l2.7-1.3l4.5-2.2l5-1.8l4.3-0.8H44l4.3,0.5
		l7.2,0.9l2.8,11.3l3.2,8.5l1.4,5.5l-2.1,0.5l-2.8,0.7l-5.7,0.7L39.4,460l-7.1,1.4L26.3,463.9z M26.3,463.9"/>
	<path class="st0" d="M131.7,828.2l-1.7,5.5l-3,3.1l-2.6,3l-2.6,2.3l-2,0.9h-2.1l-14.9-3l-7.1-1.1l-7.7-0.3H81l-3.2,0.5l-4.4-1.5
		l1.4-5.5l11-18.2l6.6-11.6l3.3-6.6l-2.4-4.8l12.8,0.9l13.2-2.1l6.7,0l7,1.7l2.9,0.5l3.1-0.7l0.4,22.2l-3.9,12.1L131.7,828.2z
		 M131.7,828.2"/>
	<path class="st1" d="M127,836.8l3-3.1l-1.7,5.5l-0.2,0.5l-2.6,2.7l-2.6,3l-2.6,2.3l-2,0.9h-2.1l-14.9-3l-7.1-1.1l-7.7-0.3h-7.1
		l-3.2,0.5l-4.2-1.4l-0.1-0.2l1.4-5.5l4.4,1.5l3.2-0.5h7.1l7.7,0.3l7.1,1.1l14.9,3h2.1l2-0.9l2.6-2.3L127,836.8z M127,836.8"/>
	<path class="st4" d="M275.5,501.5l-1.5,0.8l-1.5,0.6l-0.5,0.3l-0.6-1l1.3-5l0.1-0.8l3.6,0.4l0.9,0l0.9-0.3l1.6-0.8l-0.7,2
		L275.5,501.5z M275.5,501.5"/>
	<path class="st4" d="M272.7,496.3l-0.1,0.8l-1.3,5l-1.3,2.4l-2.1,3l-5.3,2.9l-5.2,3.8l-2.3,1.6l-2.4,1l-2.5,0.1l-0.9-1.3l-0.6-1.3
		l-2.3-0.1l-0.6-0.9v-1l0.3-2.5l0.9-2.1l1.6-2.4l1-0.5l0.5-0.9l0.5-2.5l1-2l0.5-4.3l0.4-9.2l0.5-5.4l-1.8-4l-1.1-4.5v-0.5l-0.3,2.3
		l-0.5,11.6l-0.9,3.9l-1,2.3l-3.3,4.9l-2.3,1.8l-2-0.5l-1.8-1.1l-0.6-1.9l1.6-4.5l0.9-2.5v-4.5l0.6-2.1l1-4.2l0.6-9.8l1.3-4.9
		l1.1-1.9l2-2.4l2.3,0.5l2.6,0.8l4.9,1.3l5.8,1.4l5.8,1.5l6.8,2.2l6.6,2.6l2.3,1.2l-0.6,2.4l-0.1,1l0.6,0.9l1.1,3.4l0.1,3.9l0.1,1.5
		l-0.4,2l-1,3.8l-0.4,3.5l-0.6,3.5l-1.1,1.4l-2.5,1.3l0.7-2l0.2-0.5l0.9-3.2l-2.6,2.3h-1.6L273,494L272.7,496.3z M272.7,496.3"/>
	<path class="st6" d="M276.3,496.7l-3.6-0.4l0.3-2.4l3.4,0.4h1.6l2.6-2.3l-0.9,3.2l-0.2,0.5l-1.6,0.8l-0.9,0.3L276.3,496.7z
		 M276.3,496.7"/>
	<path class="st3" d="M125.5,842.5l2.6-2.7l-3.6,7.8l-7.7,8.8l-11,1.1l-11-0.6l-19.9-5.5l-2.7-8.1l4.2,1.4l3.2-0.5h7.1l7.7,0.3
		l7.1,1.1l14.9,3h2.1l2-0.9l2.6-2.3L125.5,842.5z M125.5,842.5"/>
	<path class="st4" d="M198,66.1l-0.2,0.8l0.4,0.2l0.8-0.7l0.9-1.3l1.2-0.8l1.6-0.6l1.2-0.1l1.6,0.5l1.2,0.6l0.6,1.2l0.5,1.3l0.3,1.6
		v1.3l0.1,2.7l-0.5,3.1l-0.2,1.2l-0.5,1.2l-1.2,2.9l-0.9,2.8l-2,5.9l-1.3,2.8l-1.1,1.4l-1.2,0.6l-0.8,0.2l-0.9-0.1l-1.2-0.5
		l-1.2-0.1l-0.7,0.2l-0.1,0.5l0.5,1.9l0.1,2.2l-0.3,2.7l-0.6,2.6l-2.7,6.3l-2.9,5.4l-0.2,0.8l-0.6,1.9v1.4l0.1,3.4l0.1,3.5l0.1,3.5
		v12.6l-1.1,1.7l-1.7,4.2l-2.9,2.9l-2.8,2.7l-2.8,2.7l-4.9,6.4l-5.6,5.1l-2.9,3.2l-0.5,2.9v3.9l-0.2,2l-1.9,0.3l-3-9.6l-4.8-6
		l-9.6-7.3l-3-2.3l-10.8-10.8l-3-7.2v-4.8l1.5-3.2l1.7-1.8l-0.2-1.8v-3.6l0.7-7.2l-1.7-2.5l-1.3-2.5l-1.7-5.3l-0.4-1.4l-0.1-1.4
		l0.1-2.4l0.3-5l0-0.7l-0.6-0.2l-0.6,0.1l-1.9,0.1l-1.7-1.4l-0.8-2.3l-1.4-4.4l-2.3-4.8l-2.4-4.5l-0.5-0.8l-0.3-1.2l-0.8-2.3
		l-0.1-2.2l0.7-2.5l0.9-2.2l1.1-0.8l1.3-0.5L117,65l1.4,0.6l2.5,1.9l-0.1-0.8l-0.1-0.4l5.4,1.7l2.1,1.6l0.8,1.5l0.1,1.5v5l0.5,2.5
		l0.8,1.5l1.1,1.1l2.8,1.4l2.5,0.5l6,0.1l5.3-0.5l2.5-0.9l2.8-2.4l3-6.1l0.8-2.5l1.1-1.1l1.5-0.4l0.5-0.1l0.5,0.1l1.5,0.4l1.1,1.1
		l0.8,2.5l3,6.1l2.8,2.4l2.5,0.9l5.3,0.5l6-0.1l2.5-0.5l2.8-1.4l1.1-1.1l0.8-1.5l0.5-2.5v-5l0.1-1.5l0.8-1.5l2.1-1.6L198,66.1z
		 M198,66.1"/>
	<path class="st7" d="M194.3,67.9l-2.1,1.6l-0.8,1.5l-0.1,1.5v5l-0.5,2.5l-0.8,1.5l-1.1,1.1l-2.8,1.4l-2.5,0.5l-6,0.1l-5.3-0.5
		l-2.5-0.9l-2.8-2.4l-3-6.1l-0.8-2.5l-1.1-1.1l-1.5-0.4l-0.5-0.1l-0.5,0.1l-1.5,0.4l-1.1,1.1l-0.8,2.5l-3,6.1l-2.8,2.4l-2.5,0.9
		l-5.3,0.5l-6-0.1l-2.5-0.5l-2.8-1.4l-1.1-1.1l-0.8-1.5l-0.5-2.5v-5l-0.1-1.5l-0.8-1.5l-2.1-1.6l0.1-2.5v-1l0.5-0.3h1l26.4-0.6
		l1.5,1l0.6,0.5l0.5,1l0.5,0.6l1.1,0.2l1.9,0.1l1.9-0.1l1.1-0.2l0.5-0.6l0.5-1l0.6-0.5l1.5-1l26.4,0.6h1l0.5,0.3v1L194.3,67.9z
		 M152.7,65.2l-0.3-0.2l-19.6,0.4l-1.2,1.5l-0.8,2l-0.4,4v4.5l0.4,2.2l0.6,1.1l0.8,0.8l2.4,1.2l2.2,0.4l5.8,0.1l5-0.5l2.1-0.7l2.4-2
		l2.8-5.8l0.4-1.4l0-0.8l0.1-0.6l-0.4-2.5l-0.3-1.2l-0.5-1.1l-0.7-0.9L152.7,65.2z M167.9,65l-0.3,0.2l-0.9,0.6l-0.7,0.9l-0.5,1.1
		l-0.3,1.2l-0.4,2.5l0.1,0.6l0,0.8l0.4,1.4l2.8,5.8l2.4,2l2.1,0.7l5,0.5l5.8-0.1l2.2-0.4l2.4-1.2l0.8-0.8l0.6-1.1l0.4-2.2V73l-0.4-4
		l-0.8-2l-1.2-1.5L167.9,65z M167.9,65"/>
	<path class="st4" d="M160.2,67l-1.9-0.1l-1.1-0.2l-0.5-0.6l-0.5-1l-0.6-0.5l-1.5-1l-26.4,0.6h-1l-0.5,0.3l-6.9-1.4l-0.6-2.8
		l-0.2-8.2l2-7.9l1.7-5.5l3.1-3.7l6.7-8.7l8.1-5.1l9.1-3.9l9.7-2.2l1.5-0.2l2.2,0.3l3.5,1.1l3.6,1.1l3.4,1.9l7.4,3.8l6,5.8l5.7,6.4
		l2.3,4.4l1.6,6l2.2,11l0.5,5l-0.1,0.8l-4.3,1.9l-0.5-0.3h-1l-26.4-0.6l-1.5,1l-0.6,0.5l-0.5,1l-0.5,0.6l-1.1,0.2L160.2,67z
		 M160.2,67"/>
	<path class="st7" d="M194.2,65.4v-1l4.3-1.9l-0.5,3.6l-3.7,1.8L194.2,65.4z M194.2,65.4"/>
	<path class="st7" d="M126.2,65.4l-0.1,2.5l-5.4-1.7l-0.8-1.2l-0.3-0.9l-0.3-1.1l6.9,1.4V65.4z M126.2,65.4"/>
	<path class="st8" d="M187.8,130.9l-0.1-3.5l2,0.2l1.1,0.5l1,1.1l0.1,0.1l0.1,0.1l1.1,1.5l2.7,3.9l2.9,6.1l0.5,5.4l-0.5,6.4
		l-2.7,4.9l-6.6,9l-5.9,8.3l-1.5,2.9l-1.7-0.7l-1.5-3.7l0.5-5.1l1.5-3.9l0.5-8.1l-0.4-0.9l-1.6-0.3l2.8-2.7l2.9-2.9l1.7-4.2l1.1-1.7
		V130.9z M183.7,170.7l-0.2-0.4l-0.3-0.3l-0.3-0.3l-0.4-0.2l-0.4-0.1l-0.4,0.1l-0.4,0.2L181,170l-0.3,0.3l-0.2,0.4l-0.1,0.4l0.1,0.4
		l0.2,0.4l0.3,0.3l0.3,0.3l0.4,0.2l0.4,0.1l0.4-0.1l0.4-0.2l0.3-0.3l0.3-0.3l0.2-0.4l0.1-0.4L183.7,170.7z M183.7,170.7"/>
	<path class="st5" d="M176.5,157.7l2.8-2.7l1.6,0.3l0.4,0.9l-0.5,8.1l-1.5,3.9l-0.5,5.1l1.5,3.7l1.7,0.7l1.5-2.9l5.9-8.3l6.6-9
		l2.7-4.9l0.5-6.4l5.6,5.4l7.8,3.1l16.2,8.3l16.2,6.8l15.6,8.9l15.4,36.4l4.1,35.9l4.1,18.4l2.6,18.9l4.6,17.9l2,8.2l1,11.3l1,17.4
		l-3.1,18.4l-4.1,18.9l-1.5,8.7l1,10.8l1,19.5l-2,16.9l-0.1,4.1l-8.4-4.3l-4.5-1.7l-5.7-1.1l-4-0.7l-14.7,0.6l1.1-7.5l-1-4.8
		l0.2-5.3l2.1-12l-7.2-32.8l-0.3-8.4l-1-5.7l0.4-5.7l-4.4-22l-1.9-19.9l-0.4-4.8l-2.1,1.9l-1,3.4l-1.7,4.1l-0.2,4.6l1.5,3.9l2.8,8
		l1.6,46.7l1.3,4.2l0.3,4.2l0.1,8l0.6,16.5l1.9,19.6l0.2,17.9l-2.1,3.3l-7.8,12l-4.8,6.8l-5.3,4.4l-13.9,5.3l-14.4,2.4l-28.8-2
		l-14.9-0.5l-6.2,0l-1.4-3.4l0.8-2.2l5.1-145.9l4.1-73l-1-36.5l8.7-36.6l1.9-0.3l0.2-2v-3.9l0.5-2.9l2.9-3.2l5.6-5.1L176.5,157.7z
		 M157.3,397.5l-0.5-0.4l-0.6-0.2l-0.6-0.1l-0.6,0.1l-0.6,0.2l-0.5,0.4l-0.4,0.5l-0.2,0.6l-0.1,0.6l0.1,0.6l0.2,0.6l0.4,0.5l0.5,0.4
		l0.6,0.2l0.6,0.1l0.6-0.1l0.6-0.2l0.5-0.4l0.4-0.5l0.2-0.6l0.1-0.6l-0.1-0.6l-0.2-0.6L157.3,397.5z M156.1,364.6l0.6,0.1l0.6-0.1
		l0.6-0.2l0.5-0.4l0.4-0.5l0.2-0.6l0.1-0.6l-0.1-0.6l-0.2-0.6l-0.4-0.5l-0.5-0.4l-0.6-0.2l-0.6-0.1l-0.6,0.1l-0.6,0.2l-0.5,0.4
		l-0.4,0.5l-0.2,0.6l-0.1,0.6l0.1,0.6l0.2,0.6l0.4,0.5l0.5,0.4L156.1,364.6z M155.8,321.5l-0.4,0.5l-0.2,0.6l-0.1,0.6l0.1,0.6
		l0.2,0.6l0.4,0.5l0.5,0.4l0.6,0.2l0.6,0.1l0.6-0.1l0.6-0.2l0.5-0.4l0.4-0.5l0.2-0.6l0.1-0.6l-0.1-0.6l-0.2-0.6l-0.4-0.5l-0.5-0.4
		l-0.6-0.2l-0.6-0.1l-0.6,0.1l-0.6,0.2L155.8,321.5z M161.3,199.2l-0.6-0.2l-0.6-0.1l-0.6,0.1l-0.6,0.2l-0.5,0.4l-0.4,0.5l-0.2,0.6
		l-0.1,0.6l0.1,0.6l0.2,0.6l0.4,0.5l0.5,0.4l0.6,0.2l0.6,0.1l0.6-0.1l0.6-0.2l0.5-0.4l0.4-0.5l0.2-0.6l0.1-0.6l-0.1-0.6l-0.2-0.6
		l-0.4-0.5L161.3,199.2z M158.8,236.3l-0.6,0.2l-0.5,0.4l-0.4,0.5l-0.2,0.6l-0.1,0.6l0.1,0.6l0.2,0.6l0.4,0.5l0.5,0.4l0.6,0.2
		l0.6,0.1l0.6-0.1l0.6-0.2l0.5-0.4l0.4-0.5l0.2-0.6l0.1-0.6l-0.1-0.6l-0.2-0.6l-0.4-0.5l-0.5-0.4l-0.6-0.2l-0.6-0.1L158.8,236.3z
		 M158.4,283.1l0.6-0.1l0.6-0.2l0.5-0.4l0.4-0.5l0.2-0.6l0.1-0.6l-0.1-0.6l-0.2-0.6l-0.4-0.5l-0.5-0.4l-0.6-0.2l-0.6-0.1l-0.6,0.1
		l-0.6,0.2l-0.5,0.4l-0.4,0.5L156,280l-0.1,0.6l0.1,0.6l0.2,0.6l0.4,0.5l0.5,0.4l0.6,0.2L158.4,283.1z M158.4,283.1"/>
	<path class="st5" d="M157.4,171.7l3,9.6l-8.7,36.6l1,36.5l-4.1,73l-5.1,145.9l-0.8,2.2l-1,1.7l-0.9,0.5l-2.3,0.2l-21.1-0.1
		l-20.1-3.9l-19.1-10.7l-7.1-7.8l-3.3-11.5l8.1-52.7l3-53.7l1-28.4l-4.2-20.1l-2.3,3.3v4.3l0.7,8.5l-1.1,8.5l0.7,8.9l-1.1,17.4
		l-4.3,17.4v6l-1.8,4.3l0.4,4.6l-1.1,4.3l-1.1,8.5l-3.6,8.5l-1.4,8.5l-2.5,8.5l-2.5,3.9v4.6l1.4,4.3l-1.1,4.3l0.4,1.5l-7.2-0.9
		L44,428h-4.9l-4.3,0.8l-5,1.8l-4.5,2.2l-2.7,1.3l-0.6,0.6l0.1-5.9l-4.1-32.4l1-32.4l-4.1-32.4l6.1-28.4l7.1-32.4l4.1-32.4l7.1-34.5
		l5.1-17.2l9.3-9.5l5.2-4.7l8.3-2.1l15.6-5.7l36.5-19.6l-1.7,2l2.4,7.8l4.2,9l5.6,8.1l2.4,3.7l1.2,1.7l0.5,1l1.7,0.2l0.5-1l0.7-0.6
		l1.2-1.4l1.6-3l0.5-3l-0.7-1.7l-0.8-1.3l-1.1-1.6l-0.8-1.4l-0.5-1.9l0.3-1.4l0.9-1.6l1.3-1l2,0.5l1.2,0.7l0.4,0l0.2-0.1l0.2-0.3
		l9.6,7.3L157.4,171.7z M143.3,164l-0.6,0.2l-0.5,0.4l-0.4,0.5l-0.2,0.6l-0.1,0.6l0.1,0.6l0.2,0.6l0.4,0.5l0.5,0.4l0.6,0.2l0.6,0.1
		l0.6-0.1l0.6-0.2l0.5-0.4l0.4-0.5l0.2-0.6l0.1-0.6l-0.1-0.6l-0.2-0.6l-0.4-0.5l-0.5-0.4l-0.6-0.2l-0.6-0.1L143.3,164z M143.3,164"
		/>
	<path class="st8" d="M139.9,156.1l3,2.3l-0.2,0.3l-0.2,0.1l-0.4,0l-1.2-0.7l-2-0.5l-1.3,1l-0.9,1.6l-0.3,1.4l0.5,1.9l0.8,1.4
		l1.1,1.6l0.8,1.3l0.7,1.7l-0.5,3l-1.6,3l-1.2,1.4l-0.7,0.6l-0.5,1l-1.7-0.2l-0.5-1l-1.2-1.7l-2.4-3.7l-5.6-8.1l-4.2-9l-2.4-7.8
		l1.7-2l2.9-8.8l0.7-2.9l2-2.4l1.7-0.7h1l-1.5,3.2v4.8l3,7.2L139.9,156.1z M136.6,171.9l-0.3-0.3l-0.3-0.3l-0.4-0.2l-0.4-0.1
		l-0.4,0.1l-0.4,0.2l-0.3,0.3l-0.3,0.3l-0.2,0.4l-0.1,0.4l0.1,0.4l0.2,0.4l0.3,0.3l0.3,0.3l0.4,0.2l0.4,0.1l0.4-0.1l0.4-0.2l0.3-0.3
		l0.3-0.3l0.2-0.4l0.1-0.4l-0.1-0.4L136.6,171.9z M136.6,171.9"/>
	<path class="st5" d="M283.7,469.2l-2.3-1.2l-6.6-2.6l-6.8-2.2l-5.8-1.5l-5.8-1.4l-4.9-1.3l-2.6-0.8l-2.3-0.5l-2.5-0.9l-0.6-0.8
		l0.3-1.1l2.2-4.6l1-4.6l2.1-10.6l0.3-2.1l14.7-0.6l4,0.7l5.7,1.1l4.5,1.7l8.4,4.3l-0.5,31.3l-1.3-1.7L283.7,469.2z M283.7,469.2"/>
	<path class="st4" d="M152.5,65l0.3,0.2l0.9,0.6l0.7,0.9l0.5,1.1l0.3,1.2l0.4,2.5l-0.1,0.6l0,0.8l-0.4,1.4l-2.8,5.8l-2.4,2l-2.1,0.7
		l-5,0.5l-5.8-0.1l-2.2-0.4l-2.4-1.2l-0.8-0.8l-0.6-1.1l-0.4-2.2V73l0.4-4l0.8-2l1.2-1.5L152.5,65z M152.5,65"/>
	<path class="st4" d="M167.7,65.2l0.3-0.2l19.6,0.4l1.2,1.5l0.8,2l0.4,4v4.5l-0.4,2.2l-0.6,1.1l-0.8,0.8l-2.4,1.2l-2.2,0.4l-5.8,0.1
		l-5-0.5l-2.1-0.7l-2.4-2l-2.8-5.8l-0.4-1.4l0-0.8l-0.1-0.6l0.4-2.5l0.3-1.2l0.5-1.1l0.7-0.9L167.7,65.2z M167.7,65.2"/>
	<path class="st9" d="M183.5,170.3l0.2,0.4l0.1,0.4l-0.1,0.4l-0.2,0.4l-0.3,0.3l-0.3,0.3l-0.4,0.2l-0.4,0.1l-0.4-0.1l-0.4-0.2
		l-0.3-0.3l-0.3-0.3l-0.2-0.4l-0.1-0.4l0.1-0.4l0.2-0.4l0.3-0.3l0.3-0.3l0.4-0.2l0.4-0.1l0.4,0.1l0.4,0.2l0.3,0.3L183.5,170.3z
		 M183.5,170.3"/>
	<path class="st9" d="M136.4,171.6l0.3,0.3l0.2,0.4l0.1,0.4l-0.1,0.4l-0.2,0.4l-0.3,0.3l-0.3,0.3l-0.4,0.2l-0.4,0.1l-0.4-0.1
		l-0.4-0.2l-0.3-0.3l-0.3-0.3l-0.2-0.4l-0.1-0.4l0.1-0.4l0.2-0.4l0.3-0.3l0.3-0.3l0.4-0.2l0.4-0.1l0.4,0.1l0.4,0.2L136.4,171.6z
		 M136.4,171.6"/>
	<path class="st9" d="M156.8,397.1l0.5,0.4l0.4,0.5l0.2,0.6l0.1,0.6l-0.1,0.6l-0.2,0.6l-0.4,0.5l-0.5,0.4l-0.6,0.2l-0.6,0.1
		l-0.6-0.1l-0.6-0.2l-0.5-0.4l-0.4-0.5l-0.2-0.6l-0.1-0.6l0.1-0.6l0.2-0.6l0.4-0.5l0.5-0.4l0.6-0.2l0.6-0.1l0.6,0.1L156.8,397.1z
		 M156.8,397.1"/>
	<path class="st9" d="M156.8,364.6l-0.6-0.1l-0.6-0.2l-0.5-0.4l-0.4-0.5l-0.2-0.6l-0.1-0.6l0.1-0.6l0.2-0.6l0.4-0.5l0.5-0.4l0.6-0.2
		l0.6-0.1l0.6,0.1l0.6,0.2l0.5,0.4l0.4,0.5l0.2,0.6l0.1,0.6l-0.1,0.6l-0.2,0.6l-0.4,0.5l-0.5,0.4l-0.6,0.2L156.8,364.6z
		 M156.8,364.6"/>
	<path class="st9" d="M155.5,322l0.4-0.5l0.5-0.4l0.6-0.2l0.6-0.1l0.6,0.1l0.6,0.2l0.5,0.4l0.4,0.5l0.2,0.6l0.1,0.6l-0.1,0.6
		l-0.2,0.6l-0.4,0.5l-0.5,0.4l-0.6,0.2l-0.6,0.1l-0.6-0.1l-0.6-0.2l-0.5-0.4l-0.4-0.5l-0.2-0.6l-0.1-0.6l0.1-0.6L155.5,322z
		 M155.5,322"/>
	<path class="st9" d="M160.7,198.9l0.6,0.2l0.5,0.4l0.4,0.5l0.2,0.6l0.1,0.6l-0.1,0.6l-0.2,0.6l-0.4,0.5l-0.5,0.4l-0.6,0.2l-0.6,0.1
		l-0.6-0.1l-0.6-0.2l-0.5-0.4l-0.4-0.5l-0.2-0.6l-0.1-0.6l0.1-0.6l0.2-0.6l0.4-0.5l0.5-0.4l0.6-0.2l0.6-0.1L160.7,198.9z
		 M160.7,198.9"/>
	<path class="st9" d="M158.2,236.6l0.6-0.2l0.6-0.1l0.6,0.1l0.6,0.2l0.5,0.4l0.4,0.5l0.2,0.6l0.1,0.6l-0.1,0.6l-0.2,0.6l-0.4,0.5
		l-0.5,0.4l-0.6,0.2l-0.6,0.1l-0.6-0.1l-0.6-0.2l-0.5-0.4l-0.4-0.5l-0.2-0.6l-0.1-0.6l0.1-0.6l0.2-0.6l0.4-0.5L158.2,236.6z
		 M158.2,236.6"/>
	<path class="st9" d="M159,283l-0.6,0.1l-0.6-0.1l-0.6-0.2l-0.5-0.4l-0.4-0.5l-0.2-0.6l-0.1-0.6l0.1-0.6l0.2-0.6l0.4-0.5l0.5-0.4
		l0.6-0.2l0.6-0.1l0.6,0.1l0.6,0.2l0.5,0.4l0.4,0.5l0.2,0.6l0.1,0.6l-0.1,0.6l-0.2,0.6l-0.4,0.5l-0.5,0.4L159,283z M159,283"/>
	<path class="st9" d="M142.7,164.3l0.6-0.2l0.6-0.1l0.6,0.1l0.6,0.2l0.5,0.4l0.4,0.5l0.2,0.6l0.1,0.6l-0.1,0.6l-0.2,0.6l-0.4,0.5
		l-0.5,0.4l-0.6,0.2l-0.6,0.1l-0.6-0.1l-0.6-0.2l-0.5-0.4l-0.4-0.5l-0.2-0.6l-0.1-0.6l0.1-0.6l0.2-0.6l0.4-0.5L142.7,164.3z
		 M142.7,164.3"/>
	<path class="st10" d="M219.5,839.8v-11 M219.5,839.8l-2.6,1.6 M216.8,841.4l-2.6,2.6 M214.2,844.1l-7.6,1.8 M206.6,845.8l-15.5-4.4
		 M191.1,841.4l-14,0.9 M177.1,842.3l-7,2.3 M170.1,844.7l-2.9-2.3 M167.2,842.3l-1.9-4.2 M165.3,816.1v22.1 M165.9,805l-0.6,11
		 M165,792.9l0.8,12.1 M165,792.9l5.9,1.9 M171,794.8l6.6,0 M177.5,794.8l26.8,1 M204.3,795.8l6.2,1.3 M211.7,806.1l-1.1-9
		 M216.7,817.2l-5-11 M219.5,828.8l-2.8-11.6 M164.6,842.2l-0.9,4.8 M170.1,850.4l-2.9-2.3 M177.1,848l-7,2.3 M191.1,847.2l-14,0.9
		 M206.6,851.5l-15.5-4.4 M214.2,849.8l-7.6,1.8 M216.8,847.2l-2.6,2.6 M220,850.8l-0.3-5.5 M215,856.4l5-5.5 M211.2,859.1l3.9-2.8
		 M200.1,861.3l11-2.2 M169.2,856.9l10.5,4.4 M164.2,851.4l5,5.5 M163.7,847l0.6,4.4 M58.3,512.5l-0.9-1.8 M58.9,513.5l-0.6-1
		 M58.8,514.6l0.1-1.1 M57.1,516.3l1.7-1.7 M55.4,516.2l1.7,0.1 M45.8,511.4l9.6,4.8 M41.3,508.6l4.5,2.8 M38,505.6l3.4,3
		 M30.4,498.9l7.6,6.7 M28.8,496.9l1.5,2 M27.8,494.7l1,2.2 M26.1,490.7l1.7,3.9 M23.5,482.3l2.7,8.4 M22.2,477.8l1.3,4.5
		 M21.8,475.6l0.4,2.2 M21.8,473.9v1.7 M23.8,464.9l-2,8.9 M23.8,464.9l2.5-1.1 M26.3,463.9l6-2.5 M32.3,461.4l7.1-1.4 M39.4,460
		l12.8-3.2 M52.2,456.8l5.7-0.7 M57.9,456l2.8-0.7 M60.8,455.3l3.5,3.5 M64.3,458.8l1.4,3.6 M65.7,462.4l3.1,7.6 M68.8,470l2.8,7.6
		 M71.6,477.6l4.3,8.1 M75.9,485.6l1.9,3.6 M77.8,489.2l-3.3,2.4 M74.5,491.5l-3.8,0.2 M70.7,491.8l-1.9-0.5 M68.8,491.3l-0.9-1.9
		 M67.8,489.4l-9-15.9 M58.8,473.5l-5.2,3.1 M50.8,478l-1.2,1.4 M49.6,479.5l-0.7,4.7 M48.9,484.2l-0.2,1.9 M48.6,486.1l0.9,2.8
		 M49.6,488.9l0.7,4.7 M50.3,493.7v1.9 M50.3,495.6l1.7,2.4 M51.9,497.9l1.7,1.2 M53.6,499.1l1.4,2.6 M55,501.7l4.3,4.3 M59.3,506
		l0.5,4.7 M59.8,510.7h-2.4 M131.7,828.2l-1.7,5.5 M130,833.7l-3,3.1 M127,836.8l-2.6,3 M124.4,839.8l-2.6,2.3 M121.8,842.1l-2,0.9
		 M119.9,843h-2.1 M117.8,843l-14.9-3 M102.8,840l-7.1-1.1 M95.8,838.9l-7.7-0.3 M88.1,838.6H81 M81,838.6l-3.2,0.5 M77.8,839.1
		l-4.4-1.5 M73.4,837.6l1.4-5.5 M74.8,832.1l11-18.2 M85.8,813.8l6.6-11.6 M95.8,795.6l-2.4-4.8 M93.4,790.8l12.8,0.9 M106.1,791.7
		l13.2-2.1 M119.3,789.6l6.7,0 M126,789.6l7,1.7 M133,791.3l2.9,0.5 M135.9,791.8l3.1-0.7 M139,791l0.4,22.2 M139.4,813.3l-3.9,12.1
		 M135.5,825.4l-3.9,2.8 M272.7,496.3l-0.1,0.8 M272.7,496.3l3.6,0.4 M276.3,496.7l0.9,0 M277.2,496.8l0.9-0.3 M278.1,496.5l1.6-0.8
		 M279.7,495.7l-0.7,2 M275.5,501.5l-1.5,0.8 M274,502.3l-1.5,0.6 M272.5,502.9l-0.5,0.3 M272,503.2l-0.6-1 M272.6,497.1l-1.3,5
		 M128.3,839.2l-0.2,0.5 M128.1,839.7l-2.6,2.7 M125.5,842.5l-2.6,3 M122.9,845.5l-2.6,2.3 M120.3,847.7l-2,0.9 M118.4,848.6h-2.1
		 M116.3,848.6l-14.9-3 M101.3,845.6l-7.1-1.1 M94.3,844.6l-7.7-0.3 M86.6,844.3h-7.1 M79.5,844.3l-3.2,0.5 M76.3,844.7l-4.2-1.4
		 M72.1,843.3l-0.1-0.2 M72,843.1l1.4-5.5 M130,833.7l-1.7,5.5 M152.5,65l0.3,0.2 M152.7,65.2l0.9,0.6 M153.6,65.9l0.7,0.9
		 M154.3,66.8l0.5,1.1 M154.7,67.9l0.3,1.2 M155.5,71.6l-0.1,0.6 M155.5,72.2l0,0.8 M155,74.3l-2.8,5.8 M152.2,80.1l-2.4,2
		 M149.9,82.1l-2.1,0.7 M147.7,82.9l-5,0.5 M142.7,83.4l-5.8-0.1 M136.9,83.2l-2.2-0.4 M134.7,82.8l-2.4-1.2 M132.3,81.6l-0.8-0.8
		 M131.5,80.8l-0.6-1.1 M130.9,79.6l-0.4-2.2 M130.5,77.4V73 M130.9,69l-0.4,4 M131.6,66.9l-0.8,2 M132.8,65.4l-1.2,1.5 M158.3,66.9
		l1.9,0.1 M162.1,66.9l-1.9,0.1 M163.2,66.7l-1.1,0.2 M163.6,66.1l-0.5,0.6 M164.2,65.1l-0.5,1 M164.8,64.6l-0.6,0.5 M166.3,63.6
		l-1.5,1 M192.7,64.2h1 M193.7,64.2l0.5,0.3 M194.2,64.4v1 M194.2,65.4l0.1,2.5 M194.3,67.9l-2.1,1.6 M192.2,69.5l-0.8,1.5
		 M191.4,71.1l-0.1,1.5 M191.3,72.6v5 M191.3,77.6l-0.5,2.5 M190.8,80.1l-0.8,1.5 M190.1,81.6l-1.1,1.1 M188.9,82.7l-2.8,1.4
		 M186.2,84.1l-2.5,0.5 M183.7,84.6l-6,0.1 M177.6,84.7l-5.3-0.5 M172.4,84.2l-2.5-0.9 M169.8,83.4l-2.8-2.4 M167.1,81l-3-6.1
		 M164.1,74.8l-0.8-2.5 M163.3,72.3l-1.1-1.1 M162.2,71.2l-1.5-0.4 M160.2,70.7l0.5,0.1 M160.2,70.7l-0.5,0.1 M158.2,71.2l1.5-0.4
		 M157.1,72.3l1.1-1.1 M156.3,74.8l0.8-2.5 M153.3,81l3-6.1 M150.6,83.4l2.8-2.4 M148,84.2l2.5-0.9 M142.8,84.7l5.3-0.5 M136.7,84.6
		l6,0.1 M134.2,84.1l2.5,0.5 M131.5,82.7l2.8,1.4 M130.3,81.6l1.1,1.1 M129.6,80.1l0.8,1.5 M129.1,77.6l0.5,2.5 M129.1,72.6v5
		 M129,71.1l0.1,1.5 M128.2,69.5l0.8,1.5 M126.1,67.9l2.1,1.6 M126.2,65.4l-0.1,2.5"/>
	<path class="st10" d="M126.2,64.4v1 M126.7,64.2l-0.5,0.3 M127.7,64.2h-1 M154.1,63.6l1.5,1 M155.6,64.6l0.6,0.5 M156.2,65.1l0.5,1
		 M156.8,66.1l0.5,0.6 M157.2,66.7l1.1,0.2 M167.9,65l-0.3,0.2 M167.7,65.2l-0.9,0.6 M166.8,65.9l-0.7,0.9 M166.1,66.8l-0.5,1.1
		 M165.7,67.9l-0.3,1.2 M164.9,71.6l0.1,0.6 M164.9,72.2l0,0.8 M165.4,74.3l2.8,5.8 M168.2,80.1l2.4,2 M170.5,82.1l2.1,0.7
		 M172.7,82.9l5,0.5 M177.7,83.4l5.8-0.1 M183.5,83.2l2.2-0.4 M185.7,82.8l2.4-1.2 M188.1,81.6l0.8-0.8 M188.9,80.8l0.6-1.1
		 M189.5,79.6l0.4-2.2 M189.9,77.4V73 M189.5,69l0.4,4 M188.7,66.9l0.8,2 M187.6,65.4l1.2,1.5 M194.3,67.9l3.7-1.8 M198,66.1
		l-0.2,0.8 M197.8,66.9l0.4,0.2 M198.2,67.1l0.8-0.7 M199.9,65.1l-0.9,1.3 M201.1,64.4l-1.2,0.8 M202.7,63.8l-1.6,0.6 M203.9,63.7
		l-1.2,0.1 M205.5,64.2l-1.6-0.5 M206.6,64.8l-1.2-0.6 M207.3,66l-0.6-1.2 M207.7,67.3l-0.5-1.3 M208,68.9l-0.3-1.6 M208,70.3v-1.3
		 M208.1,73l-0.1-2.7 M207.7,76.1l0.5-3.1 M207.5,77.3l0.2-1.2 M207,78.6l0.5-1.2 M205.8,81.4l1.2-2.9 M204.9,84.2l0.9-2.8
		 M202.8,90.1l2-5.9 M201.5,92.9l1.3-2.8 M200.5,94.3l1.1-1.4 M199.3,95l1.2-0.6 M198.4,95.2l0.8-0.2 M197.6,95.2l0.9,0.1
		 M196.3,94.7l1.2,0.5 M195.2,94.6l1.2,0.1 M194.5,94.8l0.7-0.2 M194.4,95.3l0.1-0.5 M194.4,95.3l0.5,1.9 M194.9,97.2l0.1,2.2
		 M195,99.4l-0.3,2.7 M194.7,102.1l-0.6,2.6 M194.1,104.7l-2.7,6.3 M191.3,111l-2.9,5.4 M188.4,116.4l-0.2,0.8 M187.6,119.1l0.6-1.9
		 M187.6,120.5v-1.4 M187.7,123.9l-0.1-3.4 M187.8,127.4l-0.1-3.5 M187.8,130.9l-0.1-3.5 M187.8,130.9v12.6 M186.8,145.2l1.1-1.7
		 M185,149.4l1.7-4.2 M182.1,152.3l2.9-2.9 M179.3,155l2.8-2.7 M176.5,157.7l2.8-2.7 M171.6,164l4.9-6.4 M166,169.2l5.6-5.1
		 M163,172.3l2.9-3.2 M162.6,175.3l0.5-2.9 M162.6,179.2v-3.9 M162.3,181.1l0.2-2 M160.4,181.4l1.9-0.3 M157.4,171.7l3,9.6
		 M152.6,165.7l4.8,6 M142.9,158.4l9.6,7.3 M139.9,156.1l3,2.3 M129.1,145.2l10.8,10.8 M126.1,138l3,7.2 M126.1,133.2v4.8
		 M126.1,133.2l1.5-3.2 M127.6,130l1.7-1.8 M129.3,128.2l-0.2-1.8 M129.1,126.4v-3.6 M129.1,122.9l0.7-7.2 M128.1,113.2l1.7,2.5
		 M126.8,110.7l1.3,2.5 M125.1,105.3l1.7,5.3 M124.7,103.9l0.4,1.4 M124.6,102.5l0.1,1.4 M124.7,100.1l-0.1,2.4 M125,95.1l-0.3,5
		 M125,95.1l0-0.7 M125,94.4l-0.6-0.2 M124.4,94.2l-0.6,0.1 M123.9,94.4l-1.9,0.1 M121.9,94.5l-1.7-1.4 M120.3,93.1l-0.8-2.3
		 M119.4,90.8l-1.4-4.4 M118,86.4l-2.3-4.8 M115.7,81.6l-2.4-4.5 M113.3,77l-0.5-0.8 M112.8,76.3l-0.3-1.2 M112.5,75.1l-0.8-2.3
		 M111.8,72.8l-0.1-2.2 M111.7,70.6l0.7-2.5 M112.4,68.1l0.9-2.2 M113.3,65.9l1.1-0.8 M114.4,65.1l1.3-0.5 M115.7,64.6L117,65
		 M117,65l1.4,0.6 M120.9,67.5l-0.1-0.8 M120.8,66.7l-0.1-0.4 M126.1,67.9l-5.4-1.7 M119.9,65l0.8,1.2 M119.9,65l-0.3-0.9
		 M119.6,64.2l-0.3-1.1 M126.2,64.4l-6.9-1.4 M281.5,467.9l2.3,1.2 M283.7,469.2l-0.6,2.4 M283.1,471.5l-0.1,1 M283,472.5l0.6,0.9
		 M283.6,473.4l1.1,3.4 M284.7,476.8l0.1,3.9 M284.9,480.7l0.1,1.5 M285,482.2l-0.4,2 M284.6,484.2l-1,3.8 M283.6,488l-0.4,3.5
		 M283.2,491.6l-0.6,3.5 M282.6,495.1l-1.1,1.4 M281.5,496.5l-2.5,1.3 M279.8,495.2l-0.2,0.5 M280.7,492.1l-0.9,3.2 M278.1,494.3
		l2.6-2.3 M276.4,494.3h1.6 M273,494l3.4,0.4 M273,494l-0.3,2.4 M271.4,502.2l-1.3,2.4 M270.1,504.6l-2.1,3 M268,507.6l-5.3,2.9
		 M262.7,510.5l-5.2,3.8 M257.5,514.3l-2.3,1.6 M255.2,515.9l-2.4,1 M252.8,516.9l-2.5,0.1 M250.3,517.1l-0.9-1.3 M249.4,515.8
		l-0.6-1.3 M246.5,514.4l2.3,0.1 M245.9,513.5l0.6,0.9 M245.9,512.5v1 M246.1,510l-0.3,2.5 M247,507.8l-0.9,2.1 M248.7,505.4
		l-1.6,2.4 M249.7,504.9l-1,0.5 M250.2,504.1l-0.5,0.9 M250.7,501.5l-0.5,2.5 M251.7,499.5l-1,2 M252.2,495.2l-0.5,4.3 M252.6,486
		l-0.4,9.2 M253.1,480.6l-0.5,5.4 M251.3,476.5l1.8,4 M250.2,472l1.1,4.5 M250.2,471.5v0.5 M249.9,473.8l0.3-2.3 M249.4,485.4
		l0.5-11.6 M248.5,489.3l0.9-3.9 M247.5,491.6l1-2.3 M244.2,496.5l3.3-4.9 M242,498.3l2.3-1.8 M240,497.7l2,0.5 M238.2,496.6
		l1.8,1.1 M237.6,494.7l0.6,1.9 M239.2,490.2l-1.6,4.5 M240.1,487.7l-0.9,2.5 M240.7,481l-0.6,2.1 M241.7,476.8l-1,4.2 M242.3,467
		l-0.6,9.8 M243.6,462l-1.3,4.9 M244.7,460.1l-1.1,1.9 M246.7,457.7l-2,2.4 M246.7,457.7l2.3,0.5 M249,458.2l2.6,0.8 M251.6,459
		l4.9,1.3 M256.5,460.3l5.8,1.4 M262.4,461.7l5.8,1.5 M268.1,463.2l6.8,2.2 M198.6,61.7l-0.1,0.8 M194.2,64.4l4.3-1.9 M119.3,63
		l-0.6-2.8 M118.7,60.2l-0.2-8.2"/>
	<path class="st10" d="M118.5,52.1l2-7.9 M120.5,44.2l1.7-5.5 M122.2,38.8l3.1-3.7 M125.3,35.1l6.7-8.7 M131.9,26.3l8.1-5.1
		 M140,21.2l9.1-3.9 M149,17.3l9.7-2.2 M158.7,15.1l1.5-0.2 M160.3,14.9l2.2,0.3 M162.4,15.2l3.5,1.1 M165.9,16.3l3.6,1.1
		 M169.5,17.4l3.4,1.9 M172.9,19.2l7.4,3.8 M180.3,23.1l6,5.8 M186.3,28.8l5.7,6.4 M192,35.3l2.3,4.4 M194.3,39.6l1.6,6 M195.9,45.6
		l2.2,11 M198.1,56.6l0.5,5 M74.8,851.4l-2.7-8.1 M128.1,839.7l-3.6,7.8 M124.5,847.5l-7.7,8.8 M116.7,856.4l-11,1.1 M105.7,857.5
		l-11-0.6 M94.7,856.9l-19.9-5.5 M219.7,845.4l-0.3-5.6 M165.3,838.1l-0.8,4 M232.4,462.6l7.8-12 M240.3,450.6l1.7,6 M242,456.6
		l0.6,3.1 M242.6,459.7l0.2,1.3 M242.7,461l0.9,1.1 M231.5,521.3l8.4-23.6 M230,544.1l1.6-22.8 M224,565.4l6-21.3 M220.3,577.9
		l3.7-12.5 M220.3,591l0-13.1 M218.5,597.2l1.8-6.2 M218.2,604.6l0.3-7.4 M219.1,608.1l-0.9-3.5 M220.8,610.2l-1.8-2.1 M225.7,633.5
		l-4.9-23.3 M225.9,658.3l-0.2-24.8 M224,682.1l1.9-23.8 M220.5,732.9l3.5-50.7 M221.3,744.9l-0.8-12 M221.3,751.6l0-6.7
		 M219.8,756.8l1.5-5.3 M216.8,762.7l3-5.8 M215.3,768.5l1.5-5.8 M212.7,774.3l2.7-5.8 M214.1,777.8l-1.4-3.5 M215.3,781.8l-1.2-4.1
		 M215,785.9l0.3-4 M212.8,792.4l2.2-6.5 M212.5,796.2l0.3-3.7 M211.8,797.4l0.6-1.2 M210.6,797.1l1.2,0.3 M164.8,780.5l0.3,12.5
		 M163.8,773.9l0.9,6.5 M161.7,767.7l2.2,6.2 M156.7,755.2l5,12.5 M157.4,748.9l-0.6,6.2 M160.5,743l-3.1,5.9 M169.3,732.4
		l-8.8,10.6 M168.4,719.6l0.9,12.8 M165.9,706.1l2.5,13.5 M162.3,679.2l3.7,27 M162.6,665.7l-0.4,13.5 M161.6,652l1,13.7
		 M161.2,647.8l0.4,4.2 M160.1,645.3l1,2.5 M160.2,641.9l0,3.4 M162.5,637.5l-2.3,4.4 M165.7,633.9l-3.2,3.6 M166.9,631.6l-1.3,2.3
		 M167,629.9l0,1.7 M165.5,626.3l1.5,3.6 M163.8,621.8l1.7,4.4 M163.2,617.2l0.6,4.7 M162.6,608.3l0.6,8.9 M161.8,599.6l0.8,8.7
		 M160.3,591.6l1.5,8.1 M158.2,582.6l2.1,8.9 M157.3,545.2l1,4.7 M153.9,537.5l3.4,7.7 M152.6,533.3l1.3,4.3 M152.2,529l0.4,4.3
		 M152,524.7l0.2,4.3 M151.8,523l0.2,1.7 M150.8,522.1l1,0.9 M144.2,549.1l4.9-12.6 M142.7,556.3l1.4-7.2 M142.7,562.3l0-6
		 M142.4,574.6l0.3-12.3 M141.2,582.6l1.2-8 M140,603.2l1.2-6 M139.1,611.3l0.9-8 M136.6,617.8l2.6-6.6 M134,620.7l2.6-2.8
		 M133.4,623l0.6-2.3 M135.2,629.9l-1.8-6.9 M138.5,633.3l-3.4-3.4 M140,636l-1.4-2.7 M140,641.8l0-5.8 M138,648.1l2-6.3
		 M137.5,654.2l0.5-6.1 M139.7,661l-2.2-6.8 M140.9,663.9l-1.2-2.9 M140.8,667.3l0-3.4 M141.5,680.1l-0.7-12.8 M144.6,707.6l-3-27.6
		 M145.7,714.4l-1.2-6.8 M145.7,720.7l0-6.3 M147.4,733.4l-1.6-12.8 M150,741.2l-2.6-7.7 M151.2,747.7l-1.2-6.5 M149.2,760.6l2-13
		 M143.6,773.8l5.6-13.2 M143.3,785.8l0.3-12 M141.6,789.4l1.7-3.6 M139,791l2.6-1.7 M94.3,783.2l-1,7.6 M96,776.5l-1.7,6.7
		 M96,774.6l0,1.9 M94.8,772.9l1.2,1.7 M92.9,770.2l1.9,2.6 M86.4,766.4l6.5,3.8 M84.1,762.8l2.4,3.6 M85,759l-1,3.8 M90.1,753
		l-5.1,6 M91,749.2l-1,3.8 M91.1,746.3l0,2.9 M89.4,742l1.7,4.3 M89.1,739.1l0.2,2.9 M86.8,723.2l2.4,15.9 M85.6,715.8l1.2,7.5
		 M85.1,708.6l0.5,7.2 M82.5,694.1l2.6,14.5 M81,686.9l1.4,7.2 M79.8,679.4l1.2,7.5 M78.4,668l1.4,11.4 M78.1,656.6l0.3,11.4
		 M77.5,644.9l0.6,11.7 M76.7,639.1l0.9,5.7 M75.5,635.7l1.1,3.4 M79.8,610.3L77.3,622 M79.6,604.6l0.3,5.7 M77.5,598.8l2,5.7
		 M76.7,592.8l0.9,6 M74.7,587.9l2,4.9 M74.7,575.3l0,12.6 M76.1,562.7l-1.4,12.6 M75.5,550.6l0.6,12.1 M73.5,539.1l2,11.5
		 M69.5,514.6l4,24.5 M68,502.2l1.4,12.4 M68,496.4l0,5.8 M68.8,491.3l-0.7,5.1 M70.9,455.4l-5.2,6.9 M70.9,455.4l7.1,7.8
		 M78.1,463.2l19.1,10.7 M97.2,473.9l20.1,3.9 M117.3,477.9l21.1,0.1 M138.4,477.9l2.3-0.2 M140.8,477.8l0.9-0.5 M141.7,477.3l1-1.7
		 M142.8,475.5l1.4,3.4 M144.2,478.9l6.2,0 M150.4,478.9l14.9,0.5 M165.3,479.5l28.8,2 M194.1,481.5l14.4-2.4 M208.5,479.1l13.9-5.3
		 M222.4,473.8l5.3-4.4 M227.7,469.4l4.8-6.8 M249.2,435.2l0.3-2.1 M268.2,433.3l-4-0.7 M273.9,434.4l-5.7-1.1 M278.4,436.1
		l-4.5-1.7 M286.8,440.4l-8.4-4.3 M286.8,440.4l-0.5,31.3 M285,469.9l1.3,1.7 M283.7,469.2l1.2,0.8 M244.3,456.9l2.5,0.9
		 M243.6,456.1l0.6,0.8 M243.9,455l-0.3,1.1 M243.9,455l2.2-4.6 M246.1,450.4l1-4.6 M247.1,445.8l2.1-10.6 M22.5,434.1l-0.6,0.6
		 M25.2,432.8l-2.7,1.3 M29.8,430.6l-4.5,2.2 M34.8,428.8l-5,1.8 M39.1,428l-4.3,0.8 M44,428h-4.9 M48.3,428.5L44,428 M55.5,429.4
		l-7.2-0.9 M58.3,440.7l-2.8-11.3 M61.5,449.3l-3.2-8.5 M61.5,449.3l1.4,5.5"/>
	<path class="st10" d="M60.8,455.3l2.1-0.5 M22.7,463.5l1.1,1.4 M22,460.7l0.7,2.8 M21.7,455l0.4,5.7 M183.5,170.3l0.2,0.4
		 M183.7,170.7l0.1,0.4 M183.8,171.1l-0.1,0.4 M183.7,171.5l-0.2,0.4 M183.5,171.9l-0.3,0.3 M183.3,172.2l-0.3,0.3 M183,172.5
		l-0.4,0.2 M182.6,172.6l-0.4,0.1 M182.2,172.7l-0.4-0.1 M181.8,172.6l-0.4-0.2 M181.4,172.5l-0.3-0.3 M181,172.2l-0.3-0.3
		 M180.8,171.9l-0.2-0.4 M180.6,171.5l-0.1-0.4 M180.6,171.1l0.1-0.4 M180.6,170.7l0.2-0.4 M180.8,170.3l0.3-0.3 M181,170l0.3-0.3
		 M181.4,169.7l0.4-0.2 M181.8,169.6l0.4-0.1 M182.2,169.5l0.4,0.1 M182.6,169.6l0.4,0.2 M183,169.7l0.3,0.3 M183.3,170l0.3,0.3
		 M136.4,171.6l0.3,0.3 M136.6,171.9l0.2,0.4 M136.8,172.3l0.1,0.4 M136.8,172.7l-0.1,0.4 M136.8,173.1l-0.2,0.4 M136.6,173.5
		l-0.3,0.3 M136.4,173.8l-0.3,0.3 M136,174.1l-0.4,0.2 M135.7,174.2l-0.4,0.1 M135.3,174.3l-0.4-0.1 M134.8,174.2l-0.4-0.2
		 M134.5,174.1l-0.3-0.3 M134.1,173.8l-0.3-0.3 M133.9,173.5l-0.2-0.4 M133.7,173.1l-0.1-0.4 M133.7,172.7l0.1-0.4 M133.7,172.3
		l0.2-0.4 M133.9,171.9l0.3-0.3 M134.1,171.6l0.3-0.3 M134.5,171.3l0.4-0.2 M134.8,171.2l0.4-0.1 M135.3,171.1l0.4,0.1 M135.7,171.2
		l0.4,0.2 M136,171.3l0.3,0.3 M156.8,397.1l0.5,0.4 M157.3,397.5l0.4,0.5 M157.7,398l0.2,0.6 M157.9,398.6l0.1,0.6 M158,399.2
		l-0.1,0.6 M157.9,399.8l-0.2,0.6 M157.7,400.4l-0.4,0.5 M157.3,400.9l-0.5,0.4 M156.8,401.3l-0.6,0.2 M156.2,401.6l-0.6,0.1
		 M155.6,401.6l-0.6-0.1 M154.9,401.6l-0.6-0.2 M154.4,401.3l-0.5-0.4 M153.8,400.9l-0.4-0.5 M153.5,400.4l-0.2-0.6 M153.2,399.8
		l-0.1-0.6 M153.1,399.2l0.1-0.6 M153.2,398.6l0.2-0.6 M153.5,398l0.4-0.5 M153.8,397.5l0.5-0.4 M154.4,397.1l0.6-0.2 M154.9,396.9
		l0.6-0.1 M155.6,396.8l0.6,0.1 M156.2,396.9l0.6,0.2 M156.8,364.6l-0.6-0.1 M156.1,364.6l-0.6-0.2 M155.5,364.3l-0.5-0.4
		 M155,363.9l-0.4-0.5 M154.6,363.4l-0.2-0.6 M154.4,362.8l-0.1-0.6 M154.3,362.2l0.1-0.6 M154.4,361.6l0.2-0.6 M154.6,361l0.4-0.5
		 M155,360.5l0.5-0.4 M155.5,360.1l0.6-0.2 M156.1,359.8l0.6-0.1 M156.8,359.8l0.6,0.1 M157.4,359.8l0.6,0.2 M158,360.1l0.5,0.4
		 M158.5,360.5l0.4,0.5 M158.9,361l0.2,0.6 M159.1,361.6l0.1,0.6 M159.2,362.2l-0.1,0.6 M159.1,362.8l-0.2,0.6 M158.9,363.4
		l-0.4,0.5 M158.5,363.9l-0.5,0.4 M158,364.3l-0.6,0.2 M157.4,364.6l-0.6,0.1 M155.5,322l0.4-0.5 M155.8,321.5l0.5-0.4 M156.3,321.1
		l0.6-0.2 M156.9,320.8l0.6-0.1 M157.6,320.7l0.6,0.1 M158.2,320.8l0.6,0.2 M158.8,321.1l0.5,0.4 M159.3,321.5l0.4,0.5 M159.7,322
		l0.2,0.6 M159.9,322.5l0.1,0.6 M160,323.2l-0.1,0.6 M159.9,323.8l-0.2,0.6 M159.7,324.4l-0.4,0.5 M159.3,324.9l-0.5,0.4
		 M158.8,325.3l-0.6,0.2 M158.2,325.5l-0.6,0.1 M157.6,325.6l-0.6-0.1 M156.9,325.5l-0.6-0.2 M156.3,325.3l-0.5-0.4 M155.8,324.9
		l-0.4-0.5 M155.5,324.4l-0.2-0.6 M155.2,323.8l-0.1-0.6 M155.1,323.2l0.1-0.6 M155.2,322.5l0.2-0.6 M286.8,436.3l-0.1,4.1
		 M249.5,433.2l1.1-7.5 M250.6,425.7l-1-4.8 M249.6,420.9l0.2-5.3 M249.8,415.6l2.1-12 M244.7,370.8l-0.3-8.4 M244.4,362.4l-1-5.7
		 M243.3,356.7l0.4-5.7 M243.8,351.1l-4.4-22 M239.4,329l-1.9-19.9 M237.5,309.1l-0.4-4.8 M235.1,306.2l2.1-1.9 M234.1,309.6l1-3.4
		 M232.4,313.7l1.7-4.1 M232.2,318.3l0.2-4.6 M233.7,322.2l-1.5-3.9 M236.5,330.2l-2.8-8 M238.1,377l-1.6-46.7 M239.3,381.2
		l-1.3-4.2 M239.6,385.4l-0.3-4.2 M239.7,393.3l-0.1-8 M240.3,409.8l-0.6-16.5 M242.2,429.4l-1.9-19.6 M242.4,447.3l-0.2-17.9
		 M240.3,450.6l2.1-3.3 M143.6,473.3l-0.8,2.2 M148.7,327.4l-5.1,145.9 M152.7,254.4l-4.1,73 M151.7,218l1,36.5 M160.4,181.4
		l-8.7,36.6 M180.9,155.3l-1.6-0.3 M181.4,156.2l-0.4-0.9 M181.4,156.2l-0.5,8.1 M180.9,164.3l-1.5,3.9 M179.4,168.2l-0.5,5.1
		 M178.9,173.3l1.5,3.7 M180.4,177l1.7,0.7 M182.1,177.7l1.5-2.9 M183.6,174.8l5.9-8.3 M189.4,166.5l6.6-9 M196,157.4l2.7-4.9
		 M198.7,152.5l0.5-6.4 M199.2,146.2l5.6,5.4 M204.9,151.5l7.8,3.1 M212.7,154.7l16.2,8.3 M228.8,163l16.2,6.8 M245,169.8l15.6,8.9
		 M260.7,178.7l15.4,36.4 M276.1,215l4.1,35.9 M280.2,250.9l4.1,18.4 M284.3,269.3l2.6,18.9 M286.8,288.3l4.6,17.9 M291.4,306.2
		l2,8.2 M293.5,314.4l1,11.3 M294.5,325.7l1,17.4 M295.5,343.1l-3.1,18.4 M292.5,361.5l-4.1,18.9 M288.4,380.5l-1.5,8.7
		 M286.8,389.2l1,10.8 M287.9,399.9l1,19.5 M288.9,419.4l-2,16.9 M160.7,198.9l0.6,0.2 M160.1,198.8l0.6,0.1 M159.5,198.9l0.6-0.1
		 M158.9,199.2l0.6-0.2 M158.4,199.5l0.5-0.4 M158,200.1l0.4-0.5 M157.8,200.6l0.2-0.6 M157.7,201.3l0.1-0.6 M157.8,201.9l-0.1-0.6
		 M158,202.5l-0.2-0.6 M158.4,203l-0.4-0.5 M158.9,203.4l-0.5-0.4 M159.5,203.6l-0.6-0.2 M160.1,203.7l-0.6-0.1 M160.7,203.6
		l-0.6,0.1"/>
	<path class="st10" d="M161.3,203.4l-0.6,0.2 M161.8,203l-0.5,0.4 M162.2,202.5l-0.4,0.5 M162.5,201.9l-0.2,0.6 M162.6,201.3
		l-0.1,0.6 M162.5,200.6l0.1,0.6 M162.2,200.1l0.2,0.6 M161.8,199.5l0.4,0.5 M161.3,199.2l0.5,0.4 M158.2,236.6l0.6-0.2 M157.7,237
		l0.5-0.4 M157.3,237.5l0.4-0.5 M157.1,238.1l0.2-0.6 M157,238.7l0.1-0.6 M157.1,239.3l-0.1-0.6 M157.3,239.9l-0.2-0.6 M157.7,240.4
		l-0.4-0.5 M158.2,240.8l-0.5-0.4 M158.8,241.1l-0.6-0.2 M159.5,241.1l-0.6-0.1 M160.1,241.1l-0.6,0.1 M160.7,240.8l-0.6,0.2
		 M161.2,240.4l-0.5,0.4 M161.6,239.9l-0.4,0.5 M161.8,239.3l-0.2,0.6 M161.9,238.7l-0.1,0.6 M161.8,238.1l0.1,0.6 M161.6,237.5
		l0.2,0.6 M161.2,237l0.4,0.5 M160.7,236.6l0.5,0.4 M160.1,236.3l0.6,0.2 M159.5,236.3l0.6,0.1 M158.8,236.3l0.6-0.1 M159,283
		l-0.6,0.1 M159.6,282.8L159,283 M160.1,282.4l-0.5,0.4 M160.5,281.9l-0.4,0.5 M160.7,281.3l-0.2,0.6 M160.8,280.6l-0.1,0.6
		 M160.7,280l0.1,0.6 M160.5,279.4l0.2,0.6 M160.1,278.9l0.4,0.5 M159.6,278.5l0.5,0.4 M159,278.3l0.6,0.2 M158.4,278.2l0.6,0.1
		 M157.7,278.3l0.6-0.1 M157.1,278.5l0.6-0.2 M156.6,278.9l0.5-0.4 M156.2,279.4l0.4-0.5 M156,280l0.2-0.6 M155.9,280.6l0.1-0.6
		 M156,281.3l-0.1-0.6 M156.2,281.9l-0.2-0.6 M156.6,282.4l-0.4-0.5 M157.1,282.8l-0.5-0.4 M157.7,283l-0.6-0.2 M158.4,283.1
		l-0.6-0.1 M55.5,429.4l-0.4-1.5 M22,428.7l-0.1,5.9 M17.9,396.3l4.1,32.4 M19,363.9l-1,32.4 M14.9,331.5l4.1,32.4 M21,303.1
		l-6.1,28.4 M28.1,270.7L21,303.1 M32.1,238.2l-4.1,32.4 M39.2,203.8l-7.1,34.5 M44.3,186.6l-5.1,17.2 M53.6,177.1l-9.3,9.5
		 M53.6,177.1l5.2-4.7 M58.8,172.4l8.3-2.1 M67.2,170.3l15.6-5.7 M82.8,164.6l36.5-19.6 M119.3,145l-1.7,2 M117.6,146.9l2.4,7.8
		 M120,154.7l4.2,9 M124.2,163.8l5.6,8.1 M129.8,171.8l2.4,3.7 M132.2,175.5l1.2,1.7 M133.5,177.2l0.5,1 M134,178.2l1.7,0.2
		 M136.2,177.4l-0.5,1 M136.9,176.8l-0.7,0.6 M138.1,175.4l-1.2,1.4 M139.7,172.4l-1.6,3 M140.3,169.4l-0.5,3 M139.6,167.7l0.7,1.7
		 M138.8,166.4l0.8,1.3 M137.7,164.8l1.1,1.6 M136.9,163.3l0.8,1.4 M136.3,161.5l0.5,1.9 M136.7,160l-0.3,1.4 M137.6,158.5l-0.9,1.6
		 M138.9,157.5l-1.3,1 M140.9,158l-2-0.5 M142.1,158.7l-1.2-0.7 M142.1,158.7l0.4,0 M142.5,158.7l0.2-0.1 M142.7,158.6l0.2-0.3
		 M67.6,443.9l3.3,11.5 M75.7,391.2l-8.1,52.7 M78.7,337.5l-3,53.7 M79.8,309.2l-1,28.4 M75.6,289.1l4.2,20.1 M73.2,292.4l2.3-3.3
		 M73.2,296.7v-4.3 M73.9,305.2l-0.7-8.5 M72.9,313.8l1.1-8.5 M73.6,322.7l-0.7-8.9 M72.5,340.1l1.1-17.4 M68.3,357.5l4.3-17.4
		 M68.3,363.6v-6 M66.5,367.8l1.8-4.3 M66.8,372.4l-0.4-4.6 M65.8,376.7l1.1-4.3 M64.7,385.3l1.1-8.5 M61.1,393.8l3.6-8.5
		 M59.7,402.3l1.4-8.5 M57.2,410.9l2.5-8.5 M54.7,414.8l2.5-3.9 M54.7,419.4v-4.6 M56.2,423.7l-1.4-4.3 M55.1,427.9l1.1-4.3
		 M142.7,164.3l0.6-0.2 M142.2,164.7l0.5-0.4 M141.8,165.2l0.4-0.5 M141.6,165.7l0.2-0.6 M141.5,166.4l0.1-0.6 M141.6,167l-0.1-0.6
		 M141.8,167.6l-0.2-0.6 M142.2,168.1l-0.4-0.5 M142.7,168.5l-0.5-0.4 M143.3,168.7l-0.6-0.2 M143.9,168.8l-0.6-0.1 M144.5,168.7
		l-0.6,0.1 M145.1,168.5l-0.6,0.2 M145.6,168.1l-0.5,0.4 M146,167.6l-0.4,0.5 M146.3,167l-0.2,0.6 M146.3,166.4l-0.1,0.6
		 M146.3,165.7l0.1,0.6 M146,165.2l0.2,0.6 M145.6,164.7l0.4,0.5 M145.1,164.3l0.5,0.4 M144.5,164l0.6,0.2 M143.9,163.9l0.6,0.1
		 M143.3,164l0.6-0.1 M123,133.2l-0.7,2.9 M124.9,130.8l-2,2.4 M126.6,130l-1.7,0.7 M127.6,130h-1 M187.8,127.4l2,0.2 M189.8,127.6
		l1.1,0.5 M190.8,128l1,1.1 M191.9,129.2l-0.1-0.1 M192,129.3l-0.1-0.1 M193.1,130.8l-1.1-1.5 M195.8,134.7l-2.7-3.9 M198.7,140.8
		l-2.9-6.1 M199.2,146.2l-0.5-5.4 M164.6,842.2l2.6,5.9 M216.8,847.2l2.9-1.8 M200.1,861.3h-20.4 M53.6,476.6l-2.8,1.4 M92.4,802.2
		l3.3-6.6 M278.9,497.7l-3.4,3.8 M152.5,65l-19.6,0.4 M155.1,69.1l0.4,2.5 M155.5,73l-0.4,1.4 M166.3,63.6l26.4,0.6 M127.7,64.2
		l26.4-0.6 M167.9,65l19.6,0.4 M165.3,69.1l-0.4,2.5 M164.9,73l0.4,1.4 M118.4,65.6l2.5,1.9 M274.9,465.3l6.6,2.6 M240.1,487.7v-4.5
		 M198,66.1l0.5-3.6 M158.3,549.9l-0.1,32.7 M149.1,536.4l1.8-14.4 M141.2,582.6l0,14.6 M75.5,635.7l1.7-13.7 M249.5,433.2l14.7-0.6
		 M21.9,434.6L21.7,455 M251.9,403.6l-7.2-32.8 M119.3,145l2.9-8.8 M280.8,489.5l-0.1,2.5 M280.6,486.4l0.3,3.2 M280,483.9l0.6,2.5
		 M248.8,514.5l2.1,0.1 M273.4,490.8L273,494 M274.4,485.3l-1,5.6 M265.3,489.5v-5.3 M264.6,494.7l0.8-5.2 M264.1,498.3l0.5-3.5
		 M263,500.5l1-2.3 M259.6,504.9l3.4-4.4 M256.9,509.2l2.8-4.3 M255.2,512.3l1.6-3 M253.5,513.9l1.8-1.6 M251.9,514.7l1.5-0.8"/>
	<path class="st10" d="M250.9,514.7h1 M57.4,510.7H55 M40.3,494.9l-3.6-10.2 M42.5,499.6l-2.1-4.7 M46,503.9l-3.6-4.3 M55,510.7
		l-9-6.9"/>
</g>
</svg>
