<?xml version="1.0" encoding="utf-8"?>
<!-- Generator: Adobe Illustrator 20.1.0, SVG Export Plug-In . SVG Version: 6.00 Build 0)  -->
<svg version="1.1" id="Layer_1" xmlns="http://www.w3.org/2000/svg" xmlns:xlink="http://www.w3.org/1999/xlink" x="0px" y="0px"
	 viewBox="0 0 358 852" style="enable-background:new 0 0 358 852;" xml:space="preserve">
<style type="text/css">
	.st0{fill:#F9CEBC;}
	.st1{fill:#CED1DD;}
	.st2{fill:#5C3000;}
	.st3{fill:#050000;}
	.st4{fill:#490400;}
	.st5{fill:none;stroke:#000000;stroke-miterlimit:10;}
</style>
<g>
	<path class="st0" d="M275.8,471.5l-3.1,3.2h-2.3l-1.7-2.4l2.4-8.7h-0.9l-3.1,8.7l-1.8,1.5l-3.7-1.3l0.7-5.7l1.9-10.7v-9.5h-1.6v5.8
		l-1.8,3.5l-1.9,7.9l-2.7,2.2l-3-2.9l1.4-11.9l-0.8-7.1l-2.2-5.6l-6.6-14.2l-3.2-15.4l-2.6-7.3l-2.3-17.4l2.5-41.9l10.6,26.4
		l7.5,15.1l7.3,16.2l18,20.8l6.8,10.7l1.8,13.5l2.5,3.1l-1.6,2.3l-0.7,4.6l-5.2,12.9l-2.7,2.8l-3.7-1.3l1.8-8.4v-1.7L275.8,471.5z
		 M275.8,471.5"/>
	<path class="st1" d="M225.1,148.8l2.4,5.5l-2,6.2l8.2,10l4.7,13.1l-2.1,12.8l3,14l3,34.3l-4,33.5l1.4,17.5l-11.2,4.3h-10.2
		l0.8-21.2l-3.2-42.6l-9.3-75.9l6.4-23.4l0.1-1.1L225.1,148.8z M225.1,148.8"/>
	<path class="st2" d="M144.9,70l-1.8-0.5l4.6-25.5l22.1-24.2l29.7-4.3L230.3,27l4.3,10.2l-4.6,7.2l8.2,5.6l3.1,17.3l-8.5,9.5l-6.3,7
		V63.3l-4.6-13.1L205.2,39h-26.1l-14.3,12.7l-6.2,10.9v20.1l-4.5-3.6l-2.3-7.3L144.9,70z M144.9,70"/>
	<path class="st1" d="M74.4,284l5.4-5h7.9l19-7.4h26l3.9,4.9l0.3,15h-32.6l-13.8,1.7l-4,11.8l2,18.6l6.9,9.5l44.4,6.4H159l64.7-9.6
		l16.2,2.6l-0.6,9.5l-2.5,41.9l2.3,17.4l6.1,45.8l-9.6,11.3l-10.2-2.2l-11.3,2.5h-30l-46.6-20.8l-35-12.6L86,433.4l-22.6,13.5v2.8
		l-5.6-1.6l14.8-53l1.7-20.7l8.7-30.9L82,325.6l-3.5-28.9L74.4,284z M74.4,284"/>
	<path class="st3" d="M262.9,696.1v18l-7,15.6l7.7,19.3l-5.9,10.7l-3.7,6.7l-17.5,14.3h-36.8h-1.3l6.2-29.9l5.1-3.7l-3.9-37.5
		l5.9-33.7l6.8-49l7.1-34.4l-15.9-25.2l-48.1-66.8l-13.5,9.7l-20.4,56l-6.6,32.4l-21.2,28.6l-3,13.1l-7.2,5.9L80,704.3l-3,51.2
		l-1.7-0.5l-4.7-1.5l-8.8,4.5l-2.3,8.7l-18.8,6.4l-9.5-2.1l-2.4-7.5l4.3-24.1l-2.8-22V670l9.6-39.3l17.6-43l12.6-66.1v-47.6
		l-5.4-14.3l-1.6-10.3v-2.8L86,433.4l16.6-8.1l35,12.6l46.6,20.8h30l11.3-2.5l10.2,2.2l9.6-11.3l10.5,24.7l12.4,40.7l17.3,48.5
		l2.9,10.7l-1.2,18l-6.3,20.3l-10.7,59.6L262.9,696.1z M262.9,696.1"/>
	<path class="st0" d="M247.6,334.4l-7.7-2l-16.2-2.6l-64.7,9.6h-19.2l-44.4-6.4l-6.9-9.5l-2-18.6l4-11.8l13.8-1.7h32.6l35.7,8.5
		h45.6h10.2l11.2-4.3l12.4-9.6l15.7,0.5l6.2,0.9l5.7-0.8l1.5,2.6l-2.5,4.1l3.1,4.1v3.7l-2.1,2.5l2.8,2.4l0.8,5.3l-2.2,2.4l-4.7,1.1
		l5.2,1.6l1.9,4.2l-2.3,3.7l-7.1,0.9h-0.5l1.6,1.6h1.6l2.6,3.3l-2.2,4.6l-3.1,1.6l-5.9-1.7H247.6z M247.6,334.4"/>
	<path class="st0" d="M205.2,39l16.7,11.2l4.6,13.1v20.4l6.3-7l1.1,1.3l0.7,6l-0.7,3.6l-6.5,15.6H224l-2.2-3l-7.4,21.4l-1.3,14.1
		l-0.1,1.1l-6.4,23.4v-5.3l-3-4.1l-5.3-2.9l-17.4-14.1l-27-16.5v-4v-15l-6.5-4.3l-5.2-13.4l2.8-10.5l6.8,1.8l2.3,7.3l4.5,3.6V62.6
		l6.2-10.9L179.1,39H205.2z M205.2,39"/>
	<path class="st4" d="M76.7,762l4.8,5.9l2.4,12.2l21.6,21.5l17.1,8.6l8.4,6.9v5.5l-20,5.7H76l-21.9-4.7L41,817.9v3l-13.4-2.4l-3.1-4
		l1.5-12.6l2.3-1l2.5-24.1l0.4-5.7l9.5,2.1l18.8-6.4l2.3-8.7l8.8-4.5l4.7,1.5L76.7,762z M76.7,762"/>
	<path class="st1" d="M77,212.3l4.1-26l13.3-18l47.9-35.8l4.8-19.3h6.7v4l27,16.5l17.4,14.1l5.3,2.9l3,4.1v5.3l9.3,75.9l3.2,42.6
		l-0.8,21.2h-45.6l-35.7-8.5l-0.3-15l-3.9-4.9h-26l-19,7.4h-7.9L76,260.4l2.7-8.1v-17.6L77,212.3z M77,212.3"/>
	<path class="st4" d="M200.6,820.4l-8.2-3.2l1.8-11.9l2.2-1.7l3.3-22.9h36.8l17.5-14.3l3.7-6.7l3.2,9.6l9.8,14l19.9,19.9l29.9,5.9
		l8.9,5.9v8.5l-16,3.7h-41.6l-38-7.8l-1.5,4.6L200.6,820.4z M200.6,820.4"/>
	<path class="st5" d="M275.8,471.5l-3.1,3.2 M227.5,154.3l-2.4-5.5 M144.9,70l-1.8-0.5 M272.7,474.6h-2.3 M270.2,463.5l-3.1,8.7
		 M79.8,278.9l-5.4,5 M262.9,696.1v18 M225.6,592.7l-15.9-25.2 M247.6,334.4l-7.7-2 M281.6,460.6v-1.7 M221.9,50.2L205.2,39
		 M281.7,301.1l-2.1,2.5 M268.6,472.2l2.4-8.7 M283.5,470.3l-3.7-1.3 M76.7,762l4.8,5.9 M81.1,186.3l-4.1,26 M286.2,467.5l-2.7,2.8
		 M70.3,474.1l-5.4-14.3 M206.5,160.2l6.4-23.4 M199.5,15.5L230.3,27 M158.6,62.6v20.1 M28.9,763.5l4.3-24.1 M281.7,297.4v3.7
		 M206.5,154.9v5.3 M245,424.1l-3.2-15.4 M267.8,286.5l6.2,0.9 M41,820.9l-13.4-2.4 M280.9,610l-10.7,59.6 M253.9,443.9l-2.2-5.6
		 M205.7,709.8l5.9-33.7 M192.4,817.2l8.2,3.2 M239.6,295.6l12.4-9.6 M218.5,627.1l7.1-34.4 M132.7,271.6l3.9,4.9 M84,780.1
		l21.6,21.5 M268.2,512.4l17.3,48.5 M279.4,330l-2.2,4.6 M273.5,325.1l1.6,1.6 M252.1,286l15.7,0.5 M329.4,823.6v-8.5 M283.2,311.2
		l-2.2,2.4 M63.3,446.8L86,433.4 M288.3,571.7l-1.2,18 M74.3,374.3l-1.7,20.7 M212.9,136.8l0.1-1.1 M214.3,121.6l7.4-21.4 M234.7,84
		l-0.7-6 M41,817.9v3 M153.9,98.2v15 M153.9,117.2l27,16.5 M74.4,284l4.2,12.7 M271.8,827.2h41.6 M57.7,587.8l12.6-66.1 M226.5,63.3
		l-4.6-13.1 M262.6,446.6v5.8 M81.6,767.9l2.4,12.2 M238.3,50l3.1,17.3 M40.1,630.7l17.6-43 M30.5,670l9.6-39.3 M275.2,326.7h1.6
		 M281,313.6l-4.7,1.1 M40.8,773.1l-9.5-2.1 M164.8,51.8l-6.2,10.9 M226.5,83.7V63.3 M254.6,451l-0.8-7.1 M236.5,780.8h-36.8
		 M30.8,776.7l0.4-5.7 M179.1,39l-14.3,12.7 M169.8,19.8l29.7-4.3 M279.7,286.6l1.5,2.6 M282.7,420.5l6.8,10.7 M234.6,37.2l-4.6,7.2
		 M281.1,324.2l-7.1,0.9 M159,339.5h-19.2 M260.8,769.4l-3.2-9.6 M283.4,320.5l-2.3,3.7 M198.3,147.9l5.3,2.9 M274,325.1h-0.5
		 M158.6,82.7l-4.5-3.6 M151.8,71.8l-6.8-1.8 M147.7,44.1l22.1-24.2 M106.6,271.6h26 M239.3,342l0.6-9.5 M143.1,69.5l4.6-25.5
		 M230.3,27l4.3,10.2 M230,44.4l8.2,5.6 M232.8,76.7l-6.3,7 M205.2,39h-26.1 M154.1,79.1l-2.3-7.3 M63.3,449.6v-2.8 M225.5,456.1
		l10.2,2.2 M235.7,458.4l9.6-11.3 M313.4,827.2l16-3.7 M236.8,383.9l2.5-41.9 M136.9,291.5l35.7,8.5 M99.8,627.5l-3,13.1 M279.8,469
		l1.8-8.4 M277.2,334.5l-3.1,1.6 M86,433.4l16.6-8.1 M228.4,299.9l11.2-4.3 M238.4,183.5l-4.7-13.1 M86.5,304.9l4-11.8 M257.7,759.7
		l-3.7,6.7 M225.5,160.5l2-6.2 M254,766.4l-17.5,14.3 M70.3,521.7v-47.6 M239.3,342l10.6,26.4 M241.8,408.7l-2.6-7.3 M268.2,334.4
		h-20.6 M290.6,803.3l-19.9-19.9 M77.1,755.5l-1.7-0.5 M278.6,293.3l3.1,4.1 M121,598.9l-21.2,28.6 M270.7,783.4l-9.8-14
		 M320.6,809.2l-29.9-5.9 M329.4,815.1l-8.9-5.9 M233.8,819.5l38,7.8 M232.3,824l1.5-4.6 M200.6,820.4l31.7,3.6 M194.2,805.3
		l-1.8,11.9 M196.4,803.6l-2.2,1.7 M199.7,780.8l-3.3,22.9 M274.1,336.2l-5.9-1.7 M292.1,450l-0.7,4.6 M239.1,401.3l-2.3-17.4
		 M204.6,750.9l5.1-3.7 M111.1,828.4H76 M285.4,561l2.9,10.7 M264.2,446.6h-1.6 M76.7,762l-1.3-7.1 M249.9,368.4l7.5,15.1
		 M257.4,383.5l7.3,16.2 M291.3,444.7l2.5,3.1 M293.7,447.8l-1.6,2.3 M291.4,454.6l-5.2,12.9 M281.6,458.9l-5.8,12.6 M270.4,474.6
		l-1.7-2.4 M267.1,472.2l-1.8,1.5 M265.3,473.7l-3.7-1.3 M261.6,472.5l0.7-5.7 M262.3,466.8l1.9-10.7 M264.2,456.1v-9.5
		 M262.6,452.4l-1.8,3.5 M260.7,455.8l-1.9,7.9 M258.9,463.7l-2.7,2.2 M256.2,465.8l-3-2.9 M253.2,462.9l1.4-11.9 M251.6,438.3
		l-6.6-14.2 M75.4,755l-4.7-1.5 M54.1,823.7L41,817.9 M105.6,801.7l17.1,8.6 M131.1,817.2v5.5 M131.1,822.7l-20,5.7 M76,828.4
		l-21.9-4.7 M27.6,818.5l-3.1-4 M24.5,814.4l1.5-12.6 M26,801.8l2.3-1 M28.3,800.8l2.5-24.1 M59.6,766.7l-18.8,6.4 M61.9,758
		l-2.3,8.7 M70.7,753.4l-8.8,4.5 M78.7,234.7v17.6 M214.3,458.7l11.3-2.5 M213,135.7l1.3-14.1 M211.7,676.1l6.8-49 M88.5,323.5
		l-2-18.6 M82.9,343.4l-8.7,30.9 M153.9,113.2v4 M142.3,132.5l-47.9,35.8 M236.3,196.3l2.1-12.8 M224,103.1h3.5 M270.2,669.6
		l-7.3,26.5 M242.3,244.6l-3-34.3 M281.5,316.3l1.9,4.2 M218.2,299.9h10.2 M76,260.4l3.8,18.6 M276.3,314.7l5.2,1.6 M87.7,278.9
		l19-7.4 M219,278.7l-0.8,21.2 M234,87.6l0.7-3.6 M89.7,646.4L80,704.3 M215.9,236.1l3.2,42.6 M96.8,640.5l-7.2,5.9 M95.4,333.1
		l-6.9-9.5 M78.7,252.3l-2.7,8.1 M209.6,747.2l-3.9-37.5 M287.2,589.7l-6.3,20.3 M30.5,717.4V670 M233.9,78l-1.1-1.3 M227.4,103.1
		l6.5-15.6 M221.7,100.2l2.2,3 M203.5,150.7l3,4.1 M180.9,133.7l17.4,14.1 M147.3,93.9l6.5,4.3 M142.1,80.5l5.2,13.4 M199.7,780.8
		h-1.3 M239.9,332.5l-16.2-2.6 M153.9,113.2h-6.7 M209.6,567.5l-48.1-66.8 M79.8,278.9h7.9"/>
	<path class="st5" d="M136.6,276.4l0.3,15 M90.5,293.1l13.8-1.7 M184.2,458.7h30 M137.6,437.9l46.6,20.8 M102.6,425.3l35,12.6
		 M57.8,448l5.6,1.6 M72.6,395.1l-14.8,53 M82,325.6l0.9,17.8 M78.6,296.7l3.5,28.9 M238.3,278.1l4-33.5 M262.9,714.1l-7,15.6
		 M225.1,148.8L213,135.7 M233.7,170.5l-8.2-10 M239.3,210.3l-3-14 M239.6,295.6l-1.4-17.5 M161.5,500.8l-13.5,9.7 M148,510.5
		l-20.4,56 M255.8,471.8l12.4,40.7 M282.4,305.9l0.8,5.3 M127.6,566.5l-6.6,32.4 M94.4,168.3l-13.3,18 M279.6,303.6l2.8,2.4
		 M33.2,739.4l-2.8-22 M31.3,771l-2.4-7.5 M263.6,749l-5.9,10.7 M276.8,326.7l2.6,3.3 M245.3,447.1l10.5,24.7 M64.9,459.8l-1.6-10.3
		 M80,704.3l-3,51.2 M281.2,289.2l-2.5,4.1 M273.9,287.4l5.7-0.8 M255.9,729.7l7.7,19.3 M77,212.3l1.7,22.3 M198.4,780.8l6.2-29.9
		 M245.3,447.1l-6.1-45.8 M147.2,113.2l-4.8,19.3 M241.3,67.2l-8.5,9.5 M144.9,70l-2.8,10.5 M271.1,463.5h-0.9 M215.9,236.1
		l-9.3-75.9 M218.2,299.9h-45.6 M139.8,339.5l-44.4-6.4 M131.1,817.2l-8.4-6.9 M264.6,399.7l18,20.8 M289.5,431.2l1.8,13.5
		 M136.9,291.5h-32.6 M159,339.5l64.7-9.6 M194.3,152.4v6.5 M274.4,427.7l6.2,8.3 M136.6,276.4l10.3-20.2 M284.3,448.1l4.8,2.7
		 M161,143l28.7,24.1 M216.8,409.8l-2.1,33.9 M213.7,353.4l1.6,19.3 M281.6,458.9l1.2-6.8 M197.1,149l-2.8,3.4 M273.4,291.2l5.2,2.1
		 M175.8,124.9L192,131 M157.2,96.9l6.5,19.5 M274,302.4l5.7,1.2 M211.9,181.3l-0.1,21.5 M267.1,289.6l6.3,1.6 M153.4,238.5
		l-2.5-31.1 M272.2,456.3l0.7-9 M289.1,450.8l3-0.7 M276.3,314.7h-1.6 M215.9,331.1l-2.1,22.3 M163.7,116.4l12.1,8.5 M259.7,289.9
		l7.4-0.3 M194.3,158.8l-4.6,8.2 M223.5,163.4l-8,3.6 M214.7,443.7l-2.2,11.8 M280.6,436l3.7,12.1 M215.4,372.7l-2.3,19.3 M192,131
		h11.8 M215.5,167l-3.6,14.3 M161.5,500.8l18.7-18.5 M282.8,452.1l-1.7-5.3 M273,447.3l0.1-1.8 M213.1,392l3.7,17.9 M142.9,130.2
		L161,143 M146.9,256.3l6.6-17.8 M270.6,463.5l1.6-7.2"/>
</g>
</svg>
