<?xml version="1.0" encoding="utf-8"?>
<!-- Generator: Adobe Illustrator 20.0.0, SVG Export Plug-In . SVG Version: 6.00 Build 0)  -->
<svg version="1.1" id="Layer_1" xmlns="http://www.w3.org/2000/svg" xmlns:xlink="http://www.w3.org/1999/xlink" x="0px" y="0px"
	 viewBox="0 0 556.5 867" style="enable-background:new 0 0 556.5 867;" xml:space="preserve">
<style type="text/css">
	.st0{fill:#582612;}
	.st1{fill:#DCA17B;}
	.st2{fill:#E6363A;}
	.st3{fill:#312318;}
	.st4{fill:#A02225;}
	.st5{fill:#465262;}
	.st6{fill:#FFFFFF;}
	.st7{fill:#B8B8B8;}
	.st8{fill:none;stroke:#000000;stroke-miterlimit:10;}
</style>
<g>
	<path class="st0" d="M69.4,851.8l-2.7-1l-2.9-7.7l0.9-8.8l2.9-8.5l8.9-19l7.4-11.4l8.8-9.9l10.1-7.7l20.1-11l8.9-11.5l-1.7-6.6
		l3.6-5.4l8.2-4.4l12.2-8.9l7.5-6.2l4.5,3.1l-15.5,12.4l-24,30.1l-12,8l-13,7.2l-9,9.5l-7.7,9.3l-8.2,12.1l-6.6,14.1l-2.8,10.8v3.1
		l1.1,5.8L69.4,851.8z M69.4,851.8"/>
	<path class="st1" d="M527.1,279.3l0.3,2.2l1.2,5l2.5,9l5.9,22.9l1.1,8.5l1.6,9.9l-0.3,8.6l-2,4.4l-3.2,2.9l-3.7,2.4l-3.5,2.7
		l-9.6,9l-9.3,7.1l-10.8,5.7l-14,4.9l-6,3l-21.7,3.6l-4.6,1.6l-1.8,1.9l-2.7,4.4l-1.5,2.2l-1.7,1.4l-4.1,2.4l-1.5,1.4l-9.5,5.6
		l-4.9,2.5h-10.9l-3.9-0.7l-2.4-1.6l-2.5-3l-2.1-3.8v-2.5l-1.7-0.4l-2.9-1l-2-1.7l-1.2-2.3l-0.5-3.5l0.6-1.9l1.7-1h-2l-2.3-0.7
		l-2-1.7l-0.9-2.2v-2.7l0.8-1.6l4.8-3.4l4.4-2.8l12.4-5H408l-9.8,3l-3.8,2.2l-5.1,3.8l-5.5,2.1h-3.1l-2.3-1.2l-1-3.1v-2.8l1.8-2.2
		l4.9-4.6l7.1-4.9l9.8-5.1l12.8-3.5l5.5-0.8l5.7,0.2l6.3,0.3h5.7l17.9-8.1l8.4-2.7l9.5-6l7.9-7.4l4.6-5.7l-0.1-1.8l-6.3-9.4l-6-12.1
		l-2.1-6.1l-1.7-5.2l-0.7-3l2.7-5.1l5.7-4.4l8.3-4l4.3-1l12-1.1h12.2l8.1,2l3.2,2.7L527.1,279.3z M415.6,384.6l-4,1.7l0.6,3.1
		l1.2,4.2l1.5,3.3l2,2.9l4.1-1.6l-1.5-2.2l-1.5-3.2l-1.6-4.9L415.6,384.6z M415.6,384.6"/>
	<path class="st2" d="M428.2,411.8l9.5-5.6l-3.6,12.1l-5.4,10.9l-0.7,3l-0.5,6.2l-0.6,2.8l-7.5,16.3v6.6l-2.4,3.6l1.2,5.4l-2.1,2.4
		l-1.2,6.3l-6.9,7.2l0.7,2.2l0.8,1.9l0.6,1.9l0,2.3l-0.9,0.3h-9l-16.1,0.2l-14.6-4.6l-6.8-5.5l-4.3-1.9l-2.3-2.6l-2.6-0.8L337,470.6
		l-5.3-6.1l-6.6-1.4l-26.6-15.4l-13.9-13.3l-7.2-10.4l-10.5-7.1l-13.8-8l-17.5-9h-15.6l3.5-3.9l9-4.3l7.8-8.4l-0.3-4.6l0.2-5.3
		l0.8-5.2l1.5-4.5l4.8-5.1l1.8-13.6l2.1-4l4.9-7.1l2.1-3.7l0.9-9.7l5.4-8.4l0.5-2.4l0.3-4.5l3-13.9l0.5-6.7l-0.9-9.8l0-5.5l-0.7-2.2
		l-3.6-2.1l-7,1.8l-19.5,8.7l-1.5,0.1l-2.6-0.9l-1.7,0.2l-16.1-0.1l-4.2-1.8l-7.6-4.3l-7.8-5.2l-5.2-5l-3-5.1l-1.1-4.7v-2.7l3.6-6
		l8.4-7.2l18.7-19.9l20.3-18.2l6.2-6.5l3-6.9l15.4-16.6l5.1-1l15.7-0.5l6.5-1.1l12.2-6.5l6.7-2.8l22-5.7l1.2-2.4l1.1-0.3l0.2,2.4
		l-0.4,1.8v3.7l0.8,5.2l3.4,11.3l3.7,8.9l2.7,3.7l5.8,3l9.7,1.6h10.3l12.3-3.3l10.8-5.7l7.6-8.5l5-9l2.1-7.6v-7.7V144h1l2.9,2
		l6.1,6.3l5,1.4l10.4,1.5l5.1,1.3l3.5,1.6l6.6,3.8l3.2,1.6l7.2,0.3l3,2.7l3.7,1.2l7.8,0.6l4.1,0.9l3.6,3.3l5.1,1.8l1.8,2.4l1.7,5.9
		l1.4,2.8l2.1,2.6l6.9,7.3l1.4,2.4l1.6,5.5l1.2,2.7l3.6,3.6l3.6,10.3l3,3.6l1.2,4.8l1.6,10.3l-0.1,5.4l0.8,3.3l4.1,8.8l1.2,6.6
		l2.4,6.4l2.1,5l1.1,3.1l-0.5,2.2l-2.1-3.8l-3.2-2.7l-8.1-2h-12.2l-12,1.1l-4.3,1l-8.3,4l-5.7,4.4l-2.7,5.1l-0.9,2l-0.3,2l-1,5.2
		l-4.1,14.7l-0.6,4.6l-0.4,8.3l-0.8,4.6l-4.7,13.3l-0.7,4.8L437,354h-5.7l-6.3-0.3l-5.7-0.2l-5.5,0.8l-12.8,3.5l-9.8,5.1l-7.1,4.9
		l-4.9,4.6l-1.8,2.2v2.8l1,3.1l2.3,1.2h3.1l5.5-2.1l5.1-3.8l3.8-2.2l9.8-3h2.8l-12.4,5l-4.4,2.8l-4.8,3.4l-0.8,1.6v2.7l0.9,2.2
		l2,1.7l2.3,0.7h2l-1.7,1l-0.6,1.9l0.5,3.5l1.2,2.3l2,1.7l2.9,1l1.7,0.4v2.5l2.1,3.8l2.5,3l2.4,1.6l3.9,0.7h10.9L428.2,411.8z
		 M411.3,251.4l-9.3-8.6l-10.5-8.9l-10.8-9.9l-1.5-0.3l-28,1.3l-15.2,1.9l-21.8,1.6v35.2l1.4,3.9v14.7l2.8,5.7l2.9,13.7l4.5,12.1
		v3.7l6.8,3.9h8.1l8-1.3l7.3-2.3h17.5l15.2-3l8.8-2.8L411.3,251.4z M411.3,251.4"/>
	<path class="st1" d="M186.2,248.8l1.1,4.7l3,5.1l5.2,5l7.8,5.2l7.6,4.3l4.2,1.8l16.1,0.1l-21.7,13.3l-30.5,23.5l-2.2,1.4l-4.8,2.1
		l-2.4,1.3l-14.2,11.5l-40.7,21.1l-13.3,8.1l-15,4.8l-4.9,2.1l-5,3.2l-4.1,3.9l-3.4,4.7l-2.9,5.4l-0.7,2.1l-0.8,4.2l-0.9,1.8
		l-7.5,9.4l-2.7,2.7l-2.1,1.2l-4.8,1.7l-2.1,1.3l-14.5,13.6l0.9,4.4l0.1,1.8l-0.4,2.5l-1.4,0.1l-2.8-0.3l-1.5,0.3l-1.4,1l-0.8,1.3
		l-0.6,1.4l-0.9,1.5l-4.8-2.4l-2.5-7.9l-0.5-9.7l1.2-8l4.8-10.6l4.2-11.7l1.8-3.4l4.5-3.6l9.3-8.7l10-7.9l7.2-4.2l73.6-74.8
		l13.3-10.5l15.7-9.4l11.2-3.9l16-10.6V248.8z M186.2,248.8"/>
	<path class="st3" d="M180.1,799.2l-3.9,2.1l-10.3,2.1l-3,2.2L157,811l-3.1,2.1l-3.6-0.3l-5.4,3.6l-18.1,4.2l-2.9,1.5l-2.7,2.1
		l-4.9,4.5l-31.6,21l-9.8,4l-5.4-2l-1-2.5l-1.1-5.8v-3.1l2.8-10.8l6.6-14.1l8.2-12.1l7.7-9.3l9-9.5l13-7.2l12-8l24-30.1l15.5-12.4
		l15.7,9.6l5.2,2.1v14.7l0.1,1.2l-10.7,19.8l-3.7,13.7l2.4,5.9L180.1,799.2z M180.1,799.2"/>
	<path class="st4" d="M180.1,799.2l-5-5.3l-2.4-5.9l3.7-13.7l10.7-19.8l1.7,14.4l2.7,12.6l5.1,10.2l-7,1l-4.6,2.7l-3.9,3.2
		L180.1,799.2z M180.1,799.2"/>
	<path class="st5" d="M187.2,754.5l-0.1-1.2v-14.7l0.7-8l0.8-4.4l0.9-2.3l10.9-1.8l1.8-1l4.8-3.8l3.6-1.7l13.9-5.2l19.3-4.2l7.2-0.3
		l22.3-8.4l3.9-3.6l9.4-3.6l7.8-4.8l9-1.6l5.7-0.6l3.4,0.1l0.8,0.5l0.6,0.5l0.7,0.5l1.3,0.3l2-0.8l1.6-0.9l1.4-1.1l1.4-1.4l-0.7-7.5
		l-2-6.1L315,656l-0.6-19.9l-2.4-4.8l-2.1-10.3l-5.1-10.3l-3.5-11.1l-20.2-46.1l-2.9-4.9l-1.5-4.8l-3.6-3.9l-5.6-4.6l-6-4.2
		l-4.9-2.7l-11.6-3.1l-57.3-2l-11.8,1l-14.1-1.4l-6.1,0v0.3l2.1,7.5l3.6,25v13.9l5.2,11.7l1.4,4l-0.3,14l-0.8,10.9l2,5.8l-5.5,8.2
		l-10.1,6.9l-8.2,3.1l-13.3,6.7l-6.7,5.7l-1.8,1.1l-3.8,3.1l-4.2,4.6l-4.7,3.9l-5.2,1.1l-7.5-3.3l-2.7-14.5L93,602.9L85.5,570
		l-1.6-15.4l-1.7-7.8l-4.5-13.9l-3-1.2l-1.4-2.4l-2.2-9.1l-5.4-10.5l-1.5-3.9v-23.5L68,478l1.7-4.4l2.6-9l2.3-3.8l1.6-1.1l4.2-1.4
		l1.7-0.9L93,447l11.9-8.2l12.8-7.4l13.8-6.4l14.6-5.2l37.1-7.2l14.2-0.9l2.4,0.6l1.5,0.2l1.5-0.2l1.7-1l3.5-3l1.7-1.1l6.6-1.5
		l0.6-0.3l2.9-5.4h15.6l17.5,9l13.8,8l10.5,7.1l7.2,10.4l13.9,13.3l26.6,15.4l6.6,1.4l5.3,6.1l16.4,11.8l2.6,0.8l2.3,2.6l4.3,1.9
		l6.8,5.5l14.6,4.6l16.1-0.2l-1.8,10.9l1.5,35.6l2.1,13.5l10.3,32l0.6,3.3l0.2,6.3l3.2,19.6l1.2,18.2l-0.5,18.5l-2.3,17.3l-1.2,19.9
		l-1.8,3v5.4l-3.2,18l-2.4,8.7l-3.7,6.7l-9.5,8.2l-11.6,6.1l-26.3,9.2l-15.1,3l-50.1,15.7l-56.1,23.5l-9.2,5.6l-5.6,2.2l-6.3-0.6
		l-4.6-3.1l-11.1-12.9l-5.1-10.2l-2.7-12.6L187.2,754.5z M187.2,754.5"/>
	<path class="st1" d="M408.3,54.9l0.4,10.5L407,77.6l2.9-1.5l2.2-0.7l2.1,0.6l1.5,0.9l-0.3,7.9l-0.8,3.7l-2,4.2l-2.9,10.7l-0.1,6.5
		l-0.7,1.8l-0.7,0.7l-0.7,0.2l-0.7,0.2l-1.8-0.4l-1.5,7.5l-2.1,9.1l1,6.8l0.5,4.1l0.8,2.2l2.7,2.5v7.7l-2.1,7.6l-5,9l-7.6,8.5
		l-10.8,5.7l-12.3,3.3h-10.3l-9.7-1.6l-5.8-3l-2.7-3.7l-3.7-8.9l-3.4-11.3l-0.8-5.2v-3.7l0.4-1.8l-0.2-2.4l-1-6.7l-4.2-9.5l-3.5-9.3
		l-2.9-5.9l-0.8,0.5l-0.9,0.2l-1.1-0.2l-1.6-1.8l-1-4.2l-1-9l-0.8-3.5l-2-4.8l-1.8-5.5l-0.6-7.9l1.9-3l2.5-0.7l2.1,0.6l3,2.3l-0.1-5
		l-0.4-10.6l0.9-12.7l2.7-8.8l8.2-11l6.4-5.6l5.9-4.3l6.3-2.8l11.8-2.1l12.6,0.8l12.1,4l7.8,5.3l8.5,9.1l5.3,10.3L408.3,54.9z
		 M408.3,54.9"/>
	<path class="st3" d="M166.7,610.3l0.8-10.9l4.1-0.3l7.2-0.5l12.6,1.3l10.7,3.8l2.1,6.9v9l-4.4,10.9l-10.1,18.7l-8.4,13.3l-6.9,16.3
		l-6.3,24.6l-5.7,12l-9,10.4l-11.4,8.2l-7.7,4.6l-8.2,3.6l-7.1,2.3l-2.1-2.1l-1.8-2.3l-1.2-1.9l0.1-7.6l4-9.5l8.5-15.1l-0.3-6l1-2.8
		l2.8-6l1-3.2l-0.6-19.9l-3.6-7.2l-0.2-3.9l0.7-3.4l0-3l-2.4-3.7l6.7-5.7l13.3-6.7l8.2-3.1l10.1-6.9l5.5-8.2L166.7,610.3z
		 M166.7,610.3"/>
	<path class="st0" d="M162.2,715.5l5.7-12l6.3-24.6l6.9-16.3l8.4-13.3l10.1-18.7l4.4-10.9v-9l-2.1-6.9l7,1.3l1.9,4.4l0.4,4.6
		l0.1,5.3l-0.5,5.1l-5.3,14.3l-4.8,8.8l-3.9,5.8l-4.5,0.1l-2,2.6l-1.9,2.1l-3.1,4.5l-4.2,9l-7.5,31.4l-2.4,5.8l-6.4,9.9l-3.4,5.1
		l-7.5,6.2L142,739l-8.2,4.4l-8.5,2.7l-4.6-0.3l-1.8-1.2l7.1-2.3l8.2-3.6l7.7-4.6l11.4-8.2L162.2,715.5z M162.2,715.5"/>
	<path class="st2" d="M374.2,273l-22.6,2.3l-4.1-10.1l-11.6,0.6l-9.5,1.5l-2.8-10.1l9.8-0.7h29.1L374.2,273z M374.2,273"/>
	<path class="st6" d="M402,242.8l9.3,8.6L397.4,312l-8.8,2.8l-15.2,3H356l-7.3,2.3l-8,1.3h-8.1l-6.8-3.9v-3.7l-4.5-12.1l-2.9-13.7
		l-2.8-5.7v-14.7l-1.4-3.9v-35.2l21.8-1.6l15.2-1.9l28-1.3l1.5,0.3l10.8,9.9L402,242.8z M351.6,275.3l22.6-2.3l-11.7-16.6h-29.1
		l-9.8,0.7l2.8,10.1l9.5-1.5l11.6-0.6L351.6,275.3z M339.7,285.9l-11.3,0.8l2.8,9.3l9.7-1.7l10.9-0.5l-5.1-9.4L339.7,285.9z
		 M320.7,234l0,0.7l2.2,6.9l26.7-0.7l15.1-2l13.6,16.2l23.9-2.3l-24.5-22.1H357l-17.5,2.7L320.7,234z M320.7,234"/>
	<path class="st7" d="M411.6,386.3l4-1.7l0.7,3.4l1.6,4.9l1.5,3.2l1.5,2.2l-4.1,1.6l-2-2.9l-1.5-3.3l-1.2-4.2L411.6,386.3z
		 M411.6,386.3"/>
	<path class="st2" d="M328.4,286.8l11.3-0.8l7.1-1.5l5.1,9.4l-10.9,0.5l-9.7,1.7L328.4,286.8z M328.4,286.8"/>
	<path class="st2" d="M320.6,234.7l0-0.7l18.8-0.6l17.5-2.7h20.7l24.5,22.1l-23.9,2.3l-13.6-16.2l-15.1,2l-26.7,0.7L320.6,234.7z
		 M320.6,234.7"/>
	<path class="st8" d="M69.4,851.8l-2.7-1 M186.2,248.8l1.1,4.7 M351.6,275.3l22.6-2.3 M437.7,406.2l-9.5,5.6 M527.1,279.3l0.3,2.2
		 M411.3,251.4l-9.3-8.6 M411.6,386.3l4-1.7 M412.2,389.4l-0.6-3.1 M413.9,354.3l-12.8,3.5 M168,703.4l-5.7,12 M339.7,285.9
		l-11.3,0.8 M328.4,286.8l2.8,9.3 M331.2,296l9.7-1.7 M340.9,294.3l10.9-0.5 M351.8,293.8l-5.1-9.4 M346.7,284.4l-7.1,1.5
		 M326.4,267.3l9.5-1.5 M399.8,402.3l1.7,0.4 M420.9,398.2l-4.1,1.6 M175.2,794l5,5.3 M162.2,715.5l-9,10.4 M180.1,799.2l-3.9,2.1
		 M166.2,727l15.7,9.6 M166.2,727l-15.5,12.4 M126.6,769.5l-12,8 M114.6,777.5l-13,7.2 M101.6,784.7l-9,9.5 M92.6,794.2l-7.7,9.3
		 M84.9,803.5l-8.2,12.1 M76.7,815.6l-6.6,14.1 M70.1,829.7l-2.8,10.8 M67.3,840.4v3.1 M67.3,843.5l1.1,5.8 M68.4,849.3l1,2.5
		 M74.8,853.8l-5.4-2 M84.6,849.9l-9.8,4 M116.2,828.8l-31.6,21 M121.1,824.3l-4.9,4.5 M123.9,822.1l-2.7,2.1 M126.8,820.7l-2.9,1.5
		 M144.9,816.5l-18.1,4.2 M150.3,812.8l-5.4,3.6 M153.9,813.1l-3.6-0.3 M157,811l-3.1,2.1 M163,805.7L157,811 M166,803.5l-3,2.2
		 M176.2,801.4l-10.3,2.1 M172.8,788.1l2.4,5.9 M176.6,774.4l-3.7,13.7 M187.2,754.5l-10.7,19.8 M187.1,753.3l0.1,1.2 M187.1,738.6
		v14.7 M181.9,736.5l5.2,2.1 M408.3,54.9l0.4,10.5 M86.4,362.2l-4.9,2.1 M332.2,152.4l0.8,5.2 M266.7,417l10.5,7.1 M485.4,324.1
		l-0.1-1.8 M320.7,234l0,0.7 M351.3,225l-15.2,1.9 M408.5,413.5l3.9,0.7 M379.2,372.4l-1.8,2.2 M284.5,434.4l13.9,13.3 M402.8,139.7
		l-0.5-4.1 M388.4,386.1l0.9,2.2 M389.3,388.4l2,1.7 M377.7,230.6H357 M380.8,381.7h3.1 M485.2,273l-8.3,4 M190.2,258.6l5.2,5
		 M215.1,275l16.1,0.1 M357,230.6l-17.5,2.7 M502.9,206l3.6,3.6 M414.2,76l1.5,0.9 M393.6,390.8h2 M439.3,404.9l-1.5,1.4
		 M421.3,153.7l10.4,1.5 M402.2,252.8l-24.5-22.1 M72.4,371.4l-3.4,4.7 M69,376.1l-2.9,5.4 M166.7,610.3l0.8-10.9 M168.6,616.1
		l-2-5.8 M416.4,388l1.6,4.9 M369.3,493.3l14.6,4.6 M479,312.9l-6-12.1 M408.1,112.2l-0.7,0.2 M398.5,375.6l-4.4,2.8 M336.1,226.8
		l-21.8,1.6 M489.5,272l-4.3,1 M195.4,263.6l7.8,5.2 M380.7,224l-1.5-0.3 M513.7,270.9h-12.2 M373.5,317.7l15.2-3 M325.8,317.4
		l6.8,3.9 M318.1,60.5l0.9-12.7 M356,317.7h17.5 M314.2,228.4v35.2 M314.2,263.6l1.4,3.9 M315.6,267.6v14.7 M318.4,287.9l2.9,13.7
		 M321.3,301.6l4.5,12.1 M325.8,313.7v3.7 M332.6,321.3h8.1 M340.7,321.3l8-1.3 M348.7,320l7.3-2.3 M388.7,314.7l8.8-2.8 M402,242.8
		l-10.5-8.9 M391.5,233.9l-10.8-9.9 M379.2,223.7l-28,1.3 M333.4,256.4l-9.8,0.7 M362.5,256.4h-29.1 M374.2,273l-11.7-16.6
		 M347.5,265.1l4.1,10.1 M335.9,265.8l11.6-0.6 M323.6,257.1l2.8,10.1 M339.5,233.3l-18.8,0.6 M378.2,255.1l23.9-2.3 M364.6,238.9
		l13.6,16.2 M349.5,240.9l15.1-2 M322.8,241.6l26.7-0.7 M320.6,234.7l2.2,6.9 M144.9,634.4l8.2-3.1 M153.2,725.9l-11.4,8.2
		 M189.5,649.2l-8.4,13.3 M358.3,186.1h10.3 M210.8,273.1l4.2,1.8 M413.4,393.6l-1.2-4.2 M393.8,397.1l1.2,2.3 M174.3,678.9
		l-6.3,24.6 M318.5,71.1l-0.4-10.6 M368.6,186.1l12.3-3.3 M203.2,268.8l7.6,4.3 M401.3,32.6l5.3,10.3 M49.3,359.5l7.2-4.2
		 M56.5,355.3l73.6-74.8 M130.1,280.5l13.3-10.5 M486.6,176.7l1.7,5.9 M64.7,387.9l-0.9,1.8 M63.7,389.7l-7.5,9.4 M56.2,399
		l-2.7,2.7 M53.5,401.7l-2.1,1.2 M178.9,311.8l-2.2,1.4 M526.5,274l1.1,3.1 M401.5,405.1l2.1,3.8 M44.4,405.9l-14.5,13.6
		 M29.9,419.5l0.9,4.4 M436.8,156.5l3.5,1.6 M409.6,103.3l-0.1,6.5 M114.7,349.2l-13.3,8.1 M101.4,357.4l-15,4.8 M235.4,275.7
		l-2.6-0.9 M232.8,274.8l-1.7,0.2 M450.1,163.4l7.2,0.3 M415.7,76.9l-0.3,7.9 M409.5,109.8l-0.7,1.8 M457.3,163.7l3,2.7
		 M534.2,352.6l-3.7,2.4 M231.1,275l-21.7,13.3 M209.4,288.4l-30.5,23.5 M81.5,364.3l-5,3.2 M406.3,144h1 M76.5,367.5l-4.1,3.9
		 M531.1,295.5l5.9,22.9 M484.8,174.3l1.8,2.4 M256.4,266.9l-19.5,8.7 M236.9,275.6l-1.5,0.1 M66.1,381.5l-0.7,2.1 M65.5,383.6
		l-0.8,4.2 M392.8,23.5l8.5,9.1 M189,768.9l2.7,12.6 M325,463.1l6.6,1.4 M513.1,223.5l1.2,4.8 M491.8,188.1l6.9,7.3 M527.6,277.1
		l-0.5,2.2 M30.8,423.9l0.1,1.8 M30.9,425.8l-0.4,2.5 M30.6,428.3l-1.4,0.1 M476.1,169.2l3.6,3.3 M13.9,423l-0.5-9.7 M13.4,413.3
		l1.2-8 M14.6,405.3l4.8-10.6 M331.6,464.6l5.3,6.1 M427.9,432.2l-0.5,6.2 M497.3,379.6l-14,4.9 M51.3,403l-4.8,1.7 M46.5,404.7
		l-2.1,1.3 M483.3,384.5l-6,3 M21.2,433.4l-4.8-2.4 M16.4,430.9l-2.5-7.9 M377.4,374.6v2.8 M29.1,428.3l-2.8-0.3 M26.3,428l-1.5,0.3
		 M528.6,286.5l2.5,9 M24.8,428.3l-1.4,1 M23.4,429.3l-0.8,1.3 M19.4,394.8l4.2-11.7 M23.6,383.1l1.8-3.4 M25.4,379.7l4.5-3.6
		 M29.9,376.1l9.3-8.7 M39.3,367.4l10-7.9"/>
	<path class="st8" d="M237.3,194.7l6.2-6.5 M243.5,188.2l3-6.9 M500.1,197.8l1.6,5.5 M189.8,240l8.4-7.2 M198.3,232.8l18.7-19.9
		 M154.2,730.1L142,739 M217,212.9l20.3-18.2 M527.1,279.3l-2.1-3.8 M506.5,209.6l3.6,10.3 M202,603.7l7,1.3 M202,603.7l2.1,6.9
		 M204.1,610.7v9 M204.1,619.6l-4.4,10.9 M181.2,662.6l-6.9,16.3 M141.9,734.1l-7.7,4.6 M134.2,738.7l-8.2,3.6 M126,742.3l-7.1,2.3
		 M120.7,745.9l-1.8-1.2 M125.4,746.2l-4.6-0.3 M133.8,743.5l-8.5,2.7 M133.8,743.5l8.2-4.4 M161.7,723.9l-7.5,6.2 M165.1,718.7
		l-3.4,5.1 M171.4,708.8l-6.4,9.9 M173.8,703l-2.4,5.8 M181.4,671.7l-7.5,31.4 M185.6,662.6l-4.2,9 M188.7,658.1l-3.1,4.5
		 M190.5,656l-1.9,2.1 M192.5,653.4l-2,2.6 M197,653.3l-4.5,0.1 M200.9,647.5l-3.9,5.8 M205.7,638.7l-4.8,8.8 M210.9,624.4
		l-5.3,14.3 M211.4,619.3l-0.5,5.1 M211.3,614l0.1,5.3 M210.9,609.4l0.4,4.6 M209,605l1.9,4.4 M22.7,430.5l-0.6,1.4 M22.1,431.9
		l-0.9,1.5 M159,260.6l11.2-3.9 M170.2,256.6l16-10.6 M186.2,246.1l3.6-6 M477.3,387.5l-21.7,3.6 M510.1,219.8l3,3.6 M377.4,377.4
		l1,3.1 M434.1,418.3l-5.4,10.9 M428.7,429.2l-0.7,3 M412.7,593l0.2,6.3 M412.9,599.2l3.2,19.6 M416.1,618.9l1.2,18.2 M417.3,637.1
		l-0.5,18.5 M416.8,655.5l-2.3,17.3 M414.5,672.9l-1.2,19.9 M413.3,692.8l-1.8,3 M411.5,695.8v5.4 M411.5,701.2l-3.2,18
		 M479.7,172.5l5.1,1.8 M470.9,294.6l-1.7-5.2 M469.2,289.4l-0.7-3 M181.2,798.7l-1,0.6 M464.1,167.7l7.8,0.6 M520.8,256l1.2,6.6
		 M264.8,309.7l0.3-4.5 M265.1,305.2l3-13.9 M268.1,291.3l0.5-6.7 M402.2,734.7l-9.5,8.2 M392.6,743l-11.6,6.1 M381.1,749.1
		l-26.3,9.2 M354.8,758.2l-15.1,3 M339.7,761.3l-50.1,15.7 M398.3,508.6l1.5,35.6 M399.8,544.2l2.1,13.5 M401.9,557.7l10.3,32
		 M412.1,589.6l0.6,3.3 M517.5,366.7l-9.3,7.1 M508.1,373.8l-10.8,5.7 M446.5,399l-1.5,2.2 M515.9,244l0.8,3.3 M440.3,158.1l6.6,3.8
		 M323.6,118.9l-2.9-5.9 M320.7,113l-0.8,0.5 M308.1,152.8l22-5.7 M330.1,147.1l1.2-2.4 M425,353.7l-5.7-0.2 M331.3,137.7l-4.2-9.5
		 M327.1,128.2l-3.5-9.3 M515.9,238.6l-0.1,5.4 M126.5,706.1l-0.3-6 M126.2,700l1-2.8 M127.2,697.2l2.8-6 M255.9,333.9l2.1-3.7
		 M258,330.2l0.9-9.7 M258.9,320.6l5.4-8.4 M264.3,312.1l0.5-2.4 M401.3,128.8l1,6.8 M437.7,406.2l-3.6,12.1 M92.8,785.6l10.1-7.7
		 M102.9,777.8l20.1-11 M169.6,316.7l-14.2,11.5 M155.4,328.1l-40.7,21.1 M267.7,269.4l-0.7-2.2 M267,267.2l-3.6-2.1 M263.4,265.1
		l-7,1.8 M282.7,163.1l6.5-1.1 M289.2,162.1l12.2-6.5 M301.4,155.6l6.7-2.8 M66.7,850.8l-2.9-7.7 M63.9,843.2l0.9-8.8 M64,505.8
		v-23.5 M64,482.3L68,478 M68,478l1.7-4.4 M69.7,473.6l2.6-9 M72.3,464.6l2.3-3.8 M74.6,460.8l1.6-1.1 M76.2,459.8l4.2-1.4
		 M80.4,458.4l1.7-0.9 M82.1,457.5L93,447 M93,447l11.9-8.2 M104.8,438.8l12.8-7.4 M117.7,431.4l13.8-6.4 M131.5,425l14.6-5.2
		 M406.7,112.6l-1.8-0.4 M372.9,14.2l12.1,4 M360.3,13.4l12.6,0.8 M416.3,152.3l5,1.4 M385,18.2l7.8,5.3 M446.9,161.9l3.2,1.6
		 M415.4,84.8l-0.8,3.7 M414.5,88.4l-2,4.2 M527.4,281.5l1.2,5 M412.4,414.3h10.9 M127.3,650.5l-2.4-3.7 M125,646.8l-1.8,1.1
		 M123.1,647.8l-3.8,3.1 M427.5,438.4l-0.6,2.8 M118.9,744.7l-2.1-2.1 M130,691.2l1-3.2 M131,688l-0.6-19.9 M130.4,668.1l-3.6-7.2
		 M126.8,660.8l-0.2-3.9 M289.6,776.9l-56.1,23.5 M233.5,800.5l-9.2,5.6 M224.4,806.1l-5.6,2.2 M218.7,808.3l-6.3-0.6 M212.4,807.7
		l-4.6-3.1 M207.8,804.6l-11.1-12.9 M196.7,791.7l-7,1 M189.8,792.8l-4.6,2.7 M185.1,795.4l-3.9,3.2 M445,401.1l-1.7,1.4
		 M443.3,402.5l-4.1,2.4 M408.3,719.2l-2.4,8.7 M405.9,728l-3.7,6.7 M176.8,313.3l-4.8,2.1 M172,315.4l-2.4,1.3 M320,113.5l-0.9,0.2
		 M319.1,113.7l-1.1-0.2 M318,113.5l-1.6-1.8 M316.3,111.7l-1-4.2 M315.3,107.6l-1-9 M314.3,98.6l-0.8-3.5 M309.1,76.9l1.9-3
		 M311,73.9l2.5-0.7 M406.2,412l2.4,1.6 M313.4,73.2l2.1,0.6 M315.6,73.9l3,2.3 M318.6,76.1l-0.1-5 M319,47.8l2.7-8.8 M321.7,39.1
		l8.2-11 M329.9,28l6.4-5.6 M110.6,659.4l-5.2,1.1 M105.4,660.5l-7.5-3.3 M191.3,600l10.7,3.8 M178.8,598.7l12.6,1.3 M171.6,599.2
		l7.2-0.5 M167.5,599.4l4.1-0.3 M163.2,624.3l5.5-8.2 M153.1,631.2l10.1-6.9 M131.6,641.1l13.3-6.7 M125,646.8l6.7-5.7 M127.3,653.5
		l0-3 M126.6,656.9l0.7-3.4 M117.9,721.2l8.5-15.1 M113.9,730.7l4-9.5 M113.8,738.3l0.1-7.6 M115,740.2l-1.2-1.9 M116.8,742.6
		l-1.8-2.3 M97.8,657.2l-2.7-14.5 M95.1,642.7L93,602.9 M93,602.9L85.5,570 M85.5,570l-1.6-15.4 M83.8,554.6l-1.7-7.8 M82.1,546.8
		l-4.5-13.9 M77.6,532.9l-3-1.2 M74.6,531.7l-1.4-2.4 M73.2,529.4l-2.2-9.1 M71,520.3l-5.4-10.5 M65.5,509.7l-1.5-3.9 M202.8,412.3
		l1.7-1"/>
	<path class="st8" d="M204.5,411.3l3.5-3 M208,408.3l1.7-1.1 M209.7,407.1l6.6-1.5 M216.4,405.6l0.6-0.3 M217,405.3l2.9-5.4
		 M219.8,399.9l3.5-3.9 M223.3,396.1l9-4.3 M232.3,391.8l7.8-8.4 M240.2,383.3l-0.3-4.6 M239.9,378.7l0.2-5.3 M240,373.5l0.8-5.2
		 M240.8,368.2l1.5-4.5 M419.3,464.2l-2.4,3.6 M416.9,467.8l1.2,5.4 M418.1,473.2l-2.1,2.4 M416,475.6l-1.2,6.3 M414.8,482l-6.9,7.2
		 M407.9,489.2l0.7,2.2 M408.5,491.3l0.8,1.9 M409.4,493.2l0.6,1.9 M410,495.1l0,2.3 M410,497.3l-0.9,0.3 M409.1,497.6h-9
		 M400,497.6l-1.8,10.9 M336.3,22.5l5.9-4.3 M399.2,168.6l5-9 M342.2,18.2l6.3-2.8 M348.5,15.4l11.8-2.1 M454.9,345.9l8.4-2.7
		 M187.8,730.6l0.8-4.4 M188.6,726.2l0.9-2.3 M463.3,343.2l9.5-6 M472.9,337.2l7.9-7.4 M480.8,329.8l4.6-5.7 M473,300.7l-2.1-6.1
		 M488.3,182.6l1.4,2.8 M187.3,253.5l3,5.1 M186.2,246.1v2.7 M143.4,270l15.7-9.4 M539.7,336.7l-0.3,8.6 M539.4,345.3l-2,4.4
		 M64.8,834.4l2.9-8.5 M67.7,825.9l8.9-19 M76.6,806.9l7.4-11.4 M84,795.5l8.8-9.9 M521.9,262.7l2.4,6.4 M408.8,111.6l-0.7,0.7
		 M119.4,651l-4.2,4.6 M115.2,655.5l-4.7,3.9 M455.6,391.1l-4.6,1.6 M451,392.7l-1.8,1.9 M409.9,76.1l2.2-0.7 M248.9,345l2.1-4
		 M251,341l4.9-7.1 M407,77.6l2.9-1.5 M412.1,75.4l2.1,0.6 M408.7,65.4L407,77.6 M406.6,42.9l1.7,12 M426.9,441.2l-7.5,16.3
		 M419.3,457.5v6.6 M242.3,363.7l4.8-5.1 M247.1,358.6l1.8-13.6 M404.9,112.2l-1.5,7.5 M401.1,357.8l-9.8,5.1 M123,766.9l8.9-11.5
		 M131.9,755.4l-1.7-6.6 M277.3,424l7.2,10.4 M146.1,419.8l37.1-7.2 M183.2,412.6l14.2-0.9 M537.4,349.7l-3.2,2.9 M460.4,166.5
		l3.7,1.2 M407.4,112.4l-0.7,0.2 M538.1,326.9l1.6,9.9 M449.2,394.6l-2.7,4.4 M403.4,119.7l-2.1,9.1 M501.7,203.3l1.2,2.7
		 M537,318.4l1.1,8.5 M527,357.7l-9.6,9 M524.4,269.1l2.1,5 M514.3,228.3l1.6,10.3 M391.7,177.1l7.6-8.5 M530.6,354.9l-3.5,2.7
		 M431.7,155.2l5.1,1.3 M197.3,411.7l2.4,0.6 M199.8,412.3l1.5,0.2 M201.3,412.5l1.5-0.2 M498.7,195.4l1.4,2.4 M471.9,168.3l4.1,0.9
		 M412.5,92.6l-2.9,10.7 M419.4,353.5l-5.5,0.8 M516.7,247.3l4.1,8.8 M246.5,181.2l15.4-16.6 M261.9,164.6l5.1-1 M267,163.7
		l15.7-0.5 M489.6,185.5l2.1,2.6 M268.6,284.6l-0.9-9.8 M267.7,274.9l0-5.5 M468.5,286.4l-0.9,2 M467.6,288.4l-0.3,2 M467.3,290.4
		l-1,5.2 M466.3,295.6l-4.1,14.7 M462.2,310.3l-0.6,4.6 M461.5,314.9l-0.4,8.3 M461.2,323.2l-0.8,4.6 M460.4,327.8l-4.7,13.3
		 M455.6,341.1l-0.7,4.8 M187.1,738.6l0.7-8 M189.5,723.9l10.9-1.8 M200.4,722l1.8-1 M202.2,721l4.8-3.8 M207,717.2l3.6-1.7
		 M210.6,715.5l13.9-5.2 M224.5,710.3l19.3-4.2 M243.8,706.1l7.2-0.3 M251,705.8l22.3-8.4 M273.4,697.3l3.9-3.6 M277.3,693.7
		l9.4-3.6 M286.6,690.1l7.8-4.8 M294.5,685.2l9-1.6 M303.5,683.6l5.7-0.6 M309.1,683l3.4,0.1 M312.6,683.1l0.8,0.5 M313.3,683.6
		l0.6,0.5 M313.9,684.1l0.7,0.5 M314.6,684.6l1.3,0.3 M315.9,684.9l2-0.8 M317.9,684.1l1.6-0.9 M319.5,683.2l1.4-1.1 M320.9,682.1
		l1.4-1.4 M322.2,680.7l-0.7-7.5 M321.5,673.2l-2-6.1 M319.6,667.1L315,656 M315,656l-0.6-19.9 M314.4,636.1l-2.4-4.8 M312,631.3
		l-2.1-10.3 M309.9,621l-5.1-10.3 M304.7,610.7l-3.5-11.1 M301.2,599.7l-20.2-46.1 M281.1,553.6l-2.9-4.9 M278.2,548.6l-1.5-4.8
		 M276.7,543.8l-3.6-3.9 M273,539.8l-5.6-4.6 M267.4,535.3l-6-4.2 M261.4,531.1l-4.9-2.7 M362.5,487.8l-4.3-1.9 M256.5,528.4
		l-11.6-3.1 M244.8,525.3l-57.3-2 M187.5,523.4l-11.8,1 M175.7,524.4l-14.1-1.4 M340.1,177.8l2.7,3.7 M161.5,523l-6.1,0 M155.4,523
		v0.3 M155.4,523.3l2.1,7.5 M157.6,530.8l3.6,25 M161.2,555.8v13.9 M161.2,569.7l5.2,11.7 M166.3,581.4l1.4,4 M167.8,585.4l-0.3,14
		 M161.7,723.9l4.5,3.1 M219.8,399.9h15.6 M235.4,399.9l17.5,9 M358.2,485.9l-2.3-2.6 M187.2,754.5l1.7,14.4 M191.7,781.5l5.1,10.2
		 M383.9,497.9l16.1-0.2 M355.9,483.2l-2.6-0.8 M253,408.9l13.8,8 M476.9,277l-5.7,4.4 M525,275.5l-3.2-2.7 M521.8,272.8l-8.1-2
		 M391.3,390.1l2.3,0.7 M401.5,402.6v2.5 M313.5,95.1l-2-4.8 M431.3,354l-6.3-0.3 M332.4,144.4l-1-6.7 M311.5,90.3l-1.8-5.5
		 M423.3,414.3l4.9-2.5 M403.6,408.9l2.5,3 M396.9,401.2l2.9,1 M394.9,399.5l2,1.7 M393.3,393.7l0.5,3.5 M393.8,391.8l-0.6,1.9
		 M395.5,390.8l-1.7,1 M388.4,383.4v2.7 M389.2,381.8l-0.8,1.6 M394.1,378.5l-4.8,3.4 M410.9,370.6l-12.4,5 M408,370.6h2.8
		 M398.2,373.7l9.8-3 M394.4,375.8l3.8-2.2 M389.3,379.6l5.1-3.8 M383.8,381.7l5.5-2.1 M378.4,380.6l2.3,1.2 M384.2,367.8l-4.9,4.6
		 M391.3,362.9l-7.1,4.9 M437,354h-5.7 M501.5,270.9l-12,1.1 M410.2,146l6.1,6.3 M407.3,144l2.9,2 M406.3,144.4V144"/>
	<path class="st8" d="M404.3,159.7l2.1-7.6 M380.8,182.8l10.8-5.7 M348.6,184.5l9.7,1.6 M342.8,181.5l5.8,3 M336.4,168.9l3.7,8.9
		 M332.2,148.7v3.7 M332.6,146.8l-0.4,1.8 M332.4,144.4l0.2,2.4 M331.3,144.8l1.1-0.3 M485.3,322.3l-6.3-9.4 M309.7,84.8l-0.6-7.9
		 M402.8,139.7l0.8,2.2 M403.6,141.9l2.7,2.5 M416.9,399.8l-2-2.9 M414.9,396.9l-1.5-3.3 M419.4,396.1l1.5,2.2 M417.9,392.9l1.5,3.2
		 M415.6,384.6l0.7,3.4 M130.3,748.8l3.6-5.4 M406.3,152.1v-7.7 M336.4,168.9l-3.4-11.3 M189.5,649.2l10.1-18.7 M150.7,739.4
		l-24,30.1 M369.3,493.3l-6.8-5.5 M353.3,482.4L337,470.6 M437,354l17.9-8.1 M411.3,251.4L397.4,312 M315.6,282.2l2.8,5.7
		 M471.2,281.3l-2.7,5.1 M298.4,447.7l26.6,15.4 M406.3,144.4L406.3,144.4"/>
</g>
</svg>
