<?xml version="1.0" encoding="utf-8"?>
<!-- Generator: Adobe Illustrator 20.0.0, SVG Export Plug-In . SVG Version: 6.00 Build 0)  -->
<svg version="1.1" id="Layer_1" xmlns="http://www.w3.org/2000/svg" xmlns:xlink="http://www.w3.org/1999/xlink" x="0px" y="0px"
	 viewBox="0 0 370.5 886.5" style="enable-background:new 0 0 370.5 886.5;" xml:space="preserve">
<style type="text/css">
	.st0{fill:#715D42;}
	.st1{fill:#4F421C;}
	.st2{fill:#384962;}
	.st3{fill:#DBC526;}
	.st4{fill:#FDE6B9;}
	.st5{fill:#5B7E02;}
	.st6{fill:#A8A600;}
	.st7{fill:#D3C298;}
	.st8{fill:#C2F34C;}
	.st9{fill:#878964;}
	.st10{fill:none;stroke:#000000;stroke-miterlimit:10;}
</style>
<g>
	<path class="st0" d="M138.4,848.4l0.7,4.6l1.1,4.3l0.3,1.2l-29.9-3.8l-16.2,1.9l-5.3-9.2l10.2,0.4L125,845l12.8-1.4L138.4,848.4z
		 M138.4,848.4"/>
	<path class="st0" d="M139,853l-0.7-4.6l-0.5-4.7l10.2-1.1l21.4-3.4l14.8-6.8l10.9-8.5l11.7-9l14.6,9l27,4.9l4.9,2.7l2.2,9
		L236.8,853l-19.6,7.1l-53.4-6.3l-23.7,3.5L139,853z M139,853"/>
	<path class="st1" d="M167.3,864.3l-20.5,1.6l-2.8-2.1l-2.8-2.1l-0.8-3.1l-0.3-1.2l23.7-3.5l53.4,6.3l19.6-7.1l18.6-12.6l-6.1,11.4
		l-8,6.8l-19.9,6.3l-16.3,1l-19-0.7L167.3,864.3z M167.3,864.3"/>
	<path class="st2" d="M169.5,839.1l-21.4,3.4l-10.2,1.1L125,845l-11.7-194.1l2.3-22.2l-2-32.5l-11.7-52.9l-11.7-52.9l-9.2-24.8
		l38.9-23.7l36.3-39.4l2.3-10.9l10.2-0.3l-1.4-2.8l20.6,3.6v9.7l3.4,30.2l-1.7,30.7L176.3,536l3.4,90l4.6,10.2l-9,37.9l13.9,88.2
		l5.5,33.1l13.7,18.3l-1.5,1.2l-11.7,9l-10.9,8.5L169.5,839.1z M169.5,839.1"/>
	<path class="st2" d="M113.6,596.2l2,32.5l-2.3,22.2L125,845l-25.7,2.8l-10.2-0.4l-7.7-0.3l6.3-49.8l2.5-85.7l6.6-110.5l5.8-27
		l-0.8-30.7L113.6,596.2z M113.6,596.2"/>
	<path class="st1" d="M105.4,864.2l-9-4l-2-3.6l16.2-1.9l29.9,3.8l0.8,3.1l2.8,2.1l-33.1,2.1L105.4,864.2z M105.4,864.2"/>
	<path class="st3" d="M61.2,23l7.6-0.5l10.9-3.1l9.9,0.6l12.4,3.5l9.4,6.2l9.2,11.8l3.4,10.5l0.3,6.9l0.2,0.8l-5.9-10.9l-4-7.6
		l-5.2-3.9l-1.6-0.6l-8.3,7L87.8,59.5L74.3,73.9l-7,2.9L64.5,88l3.5,23.1l8.3,20.5l4.2,4.3l1.5,1.4l1.8,5.4l-1.9-1.1l-2.4-0.3
		l0.2,3.1l-1.9,3.6l-5.1,2.4l-7.2,0.6L55,154l-5.6,2.7l-16.7,22.2l-3.3,14.6l-2.2,25.4l-2.8-2.6l-0.6-4l0.3-7.9l-1.5-7.3l0.1-7.6
		l-2,3.8l0.2,3.2l1.1,4.5l-2.6-5l-0.3-3.3l0.7-2.3l3.4-5.3l1.3-7l-2.2,1.6l-1.8,2l-0.1,2.4l1.8,1.3h-2.4l-2.1-2.9l-0.2-4.6l3.7-7.5
		l2.4-9.7l-2.1-7.3l-3.5-8.4l-0.6-7.2l1.1-8.4l5.4-16.8l4.1-13.1l-0.8-8.3l-0.8-7.1l2.4-9.5l3.7-11.8l10.9-24.9l12.1-12.3L61.2,23z
		 M61.2,23"/>
	<path class="st4" d="M118.6,48.9l5.9,10.9l0.8,9.5l4.9,8.9l2.5,9.2l0.1,10.2l-2.2,10.7l-0.5,9.8l-1.8,7.8l-4.1,3l-4.9,2L117,136
		l-2.9,11.2l-1.6,17.9l0.5,2.5l-3.8,2.2L105,162l2.4-5.8l-10.1-3.8l-5.4-5.2L83.6,136h-3.3l-4.2-4.3L68,111.2L64.5,88l2.9-11.2
		l7-2.9l13.5-14.4l11.7-15.7l8.3-7l1.6,0.6l5.2,3.9L118.6,48.9z M118.6,48.9"/>
	<path class="st3" d="M130.7,108.2l2.2-10.7l1,6.9l1.8,12.1l-0.6,14l2,3.8l4.5,3.5l3.8,3.8h-4.2l2.5,5.5l-0.5,3.4l-3.1,5.2l2.3,4
		l5.1,7.7l1.2,6.8l-4,12l-3.1-8.7l-1.7-4.7l-2.7,8.4l-3.7,4.4l2.8-7.8v-9.9l-5.4-5.6l-2.5,5.4l-2.7-0.6l-11.5-20.2L117,136l2.5-5.2
		l4.9-2l4.1-3l1.8-7.8L130.7,108.2z M130.7,108.2"/>
	<path class="st5" d="M147.6,167.6l-5.1-7.7l9.6,5.9l20.4,7.6l36.5,14.7l27.5,7.5l3.2,5l5.5,2.7l13.4,6.1l15.8,11.2l1.4,3.9l15,10.5
		l-57.8,1.3l-7.7-3l-21.5-3.4l-48.2-5.3l2.4,11.4l-11-11l-5.3-47.4l3.1,8.7l4-12L147.6,167.6z M147.6,167.6"/>
	<path class="st6" d="M139.9,173l1.7,4.7l5.3,47.4l-5.5-5.5l-4.2-38.3L139.9,173z M139.9,173"/>
	<path class="st5" d="M133.5,185.8l3.7-4.4l4.2,38.3l-5.5-5.5l-4.4-4.4l-3.7-11.4l-3.7-11.4l-1.4-11.6l4.4-5.6l-1.3-2.3l2.7,0.6
		l2.5-5.4l5.4,5.6v9.9L133.5,185.8z M133.5,185.8"/>
	<path class="st5" d="M112.6,165.1l1.6-17.9l11.5,20.2l1.3,2.3l-4.4,5.6L112.6,165.1z M112.6,165.1"/>
	<path class="st5" d="M146.9,225.1l11,11l3.2,0.4l12,11l3.4,0.4l4.4,4.4l2.8-0.2l6,3.3l20.6,5.5l11.8,0.9l19.1,3.2l14,4.7l8.7-0.7
		l13.5,2.3l7.5-2.7l13.1,0.6l10.7-0.3l8.1-3.7l4.2,0.7l1.5,1.3l4.4,4l2.2,8.7l-0.4,10.2l-2.8,9.4l-2.5,4.5l-2.5,4.5l-31.7-1.9
		l-39.7,1l-27.3,1.6l-38.7-7.9l-4-1.2l-22.8-6.8l-13.6-8.9l-6.6-4.3l-4.8,36.4l-11.1-1.4l-43.3,16.6l-17.9,11.6l-3-10.2l-16.2-57.2
		L32.2,250l-5-31.1l2.2-25.4l3.3-14.6l16.7-22.2L55,154l10.2-2.9l7.2-0.6l14.7,1.5l12.1,6.7l5.8,3.4l4.2,7.7l10.7,19.5l4.7,12.5
		l2.5,3.6l4.4,4.4l4.4,4.4l5.5,5.5L146.9,225.1z M146.9,225.1"/>
	<path class="st7" d="M316.8,265.1l-8.1,3.7l-10.7,0.3l-13.1-0.6l-7.5,2.7l-13.5-2.3l-8.7,0.7l-14-4.7l-19.1-3.2l99-27.6l5.9,24.3
		l1.6,6.4l-6.1,2.4l-1.5-1.3L316.8,265.1z M316.8,265.1"/>
	<path class="st7" d="M222,261.7l-11.8-0.9l-20.6-5.5l-6-3.3l49.2-15.7l57.8-1.3l30.4-0.9L222,261.7z M222,261.7"/>
	<path class="st8" d="M127.2,205.3l-2.5-3.6l-4.7-12.5l-10.7-19.5l3.8-2.2l14.8,30.7l3.7,11.4L127.2,205.3z M127.2,205.3"/>
	<path class="st7" d="M156.6,293.1l22.8,6.8l15.8,48.3l-9.7-1.5l-9.7-1.5l-3.9-11.8L156.6,293.1z M156.6,293.1"/>
	<path class="st7" d="M183.4,301.1l38.7,7.9l27.3-1.6l39.7-1l31.7,1.9l-125.6,39.8l-15.8-48.3L183.4,301.1z M183.4,301.1"/>
	<path class="st7" d="M320.8,308.4l2.5-4.5l11.7-0.4L320.8,308.4z M320.8,308.4"/>
	<path class="st4" d="M325.9,299.4l2.8-9.4l0.4-10.2l-2.2-8.7l-4.4-4l6.1-2.4l2.6,0.8l11.5,3.4l-0.2,4.2l2.2-0.3l3,2.4v5.4l-0.9,1.5
		l0.5,3.4l-3.1,2.9v3.3l-1.3,3.2v3.2l-2.1,3.2l-5.5,2.4l-11.7,0.4L325.9,299.4z M325.9,299.4"/>
	<path class="st6" d="M77.2,331.6l43.3-16.6v15.6v15.6L85,360.8l-45,28.6l-8.1,4.2l-8.1,4.2l-6.9-23.5L48,350.6l11.3-7.4L77.2,331.6
		z M77.2,331.6"/>
	<path class="st6" d="M85,360.8l35.5-14.7v-15.6l16.1,50.2l-1.4,9.5L60,446.4l-13.1,1.8l-5-30.8l-10-23.8l8.1-4.2L85,360.8z
		 M85,360.8"/>
	<path class="st6" d="M59.5,455.5l-12.7-7.3l13.1-1.8l75.3-56.2l1.4-9.5l-16.1-50.2V315l11.1,1.4l2.7,13.6l13.1,5l10.9,56.6
		l-2.3,10.9l-36.3,39.4l-38.9,23.7L59.5,455.5z M59.5,455.5"/>
	<path class="st6" d="M131.6,316.4l4.8-36.4l6.6,4.3l-1.5,16.7l5.9,34l-13.1-5L131.6,316.4z M131.6,316.4"/>
	<path class="st5" d="M147.5,334.9l-5.9-34l1.5-16.7l6.8,24.3l10.1,58.1l1.8,10.4l5.5,11.4l1.4,2.8l-10.2,0.3L147.5,334.9z
		 M147.5,334.9"/>
	<path class="st9" d="M193.3,390.4l-5.6,1.6l-1.1-22.3h5l0.9,10.4L193.3,390.4z M193.3,390.4"/>
	<path class="st5" d="M191.6,369.7h-5l-3.7-0.4l-3.2-12.2l-3.9-11.8l9.7,1.5l5.7,14.7l12.4,14.4l-11.1,4.2L191.6,369.7z
		 M191.6,369.7"/>
	<path class="st9" d="M186.7,369.7l1.1,22.3l-20.6-3.6l-5.5-11.4l-1.8-10.4l23,2.6L186.7,369.7z M186.7,369.7"/>
	<path class="st8" d="M179.8,357.1l3.2,12.2l-23-2.6l-10.1-58.1l-6.8-24.3l13.6,8.9l15.3,40.3l3.9,11.8L179.8,357.1z M179.8,357.1"
		/>
	<path class="st4" d="M331.1,265.6l-2.6-0.8l-1.6-6.4l5.5-2.4l2.6,2.4l-1.5,4.1L331.1,265.6z M331.1,265.6"/>
	<path class="st5" d="M87.1,152l-14.7-1.5l5.1-2.4l1.9-3.6l-0.2-3.1l2.4,0.3l1.9,1.1l-1.8-5.4l-1.5-1.4h3.3l8.4,11.2l5.4,5.2
		l10.1,3.8L105,162l-5.8-3.4L87.1,152z M87.1,152"/>
	<path class="st5" d="M113,167.6l-0.5-2.5l10.1,10.2l1.4,11.6l3.7,11.4L113,167.6z M113,167.6"/>
	<path class="st10" d="M138.4,848.4l0.7,4.6 M146.8,865.8l20.5-1.6 M167.3,864.3l19,0.9 M186.2,865.2l19,0.7 M205.2,865.8l16.3-1
		 M221.4,864.9l19.9-6.3 M241.4,858.6l8-6.8 M249.4,851.8l6.1-11.4 M255.5,840.3l-2.2-9 M253.3,831.4l-4.9-2.7 M248.4,828.7l-27-4.9
		 M221.4,823.8l-14.6-9 M148.1,842.5l21.4-3.4 M169.5,839.1l14.8-6.8 M184.3,832.3l10.9-8.5 M195.2,823.8l11.7-9 M206.9,814.8
		l1.5-1.2 M208.4,813.7l-13.7-18.3 M194.7,795.4l-5.5-33.1 M189.2,762.2l-13.9-88.2 M175.3,674.1l9-37.9 M184.3,636.2l-4.6-10.2
		 M179.8,626l-3.4-90 M80.9,465.6l9.2,24.8 M90.2,490.4l11.7,52.9 M113.6,596.2l2,32.5 M115.6,628.7l-2.3,22.2 M113.3,650.9L125,845
		 M101.9,543.3l0.8,30.7 M102.7,574l-5.8,27 M96.8,601.1l-6.6,110.5 M90.2,711.5l-2.5,85.7 M99.3,847.8L125,845 M96.4,860.2l9,4
		 M189.4,462.7l1.7-30.7 M191.1,432l-3.4-30.2 M187.8,401.8V392 M68.9,22.5L61.2,23 M61.2,23l-5.9,2.5 M55.3,25.5L43.2,37.8
		 M43.2,37.8L32.3,62.7 M32.3,62.7l-3.7,11.8 M28.6,74.6l-2.4,9.5 M26.3,84.1l0.8,7.1 M27.1,91.2l0.8,8.3 M27.9,99.5l-4.1,13.1
		 M23.8,112.6l-5.4,16.8 M18.4,129.4l-1.1,8.4 M17.2,137.8l0.6,7.2 M17.9,144.9l3.5,8.4 M21.4,153.4l2.1,7.3 M23.4,160.7l-2.4,9.7
		 M21.1,170.4l-3.7,7.5 M17.3,177.9l0.2,4.6 M17.5,182.6l2.1,2.9 M19.6,185.4H22 M22,185.4l-1.8-1.3 M20.2,184.2l0.1-2.4
		 M20.3,181.7l1.8-2 M22.2,179.7l2.2-1.6 M24.3,178.1l-1.3,7 M23,185.1l-3.4,5.3 M19.6,190.4l-0.7,2.3 M18.9,192.6l0.3,3.3
		 M19.2,195.9l2.6,5 M21.9,200.9l-1.1-4.5 M20.8,196.3l-0.2-3.2 M20.6,193.2l2-3.8 M22.6,189.4l-0.1,7.6 M22.5,197l1.5,7.3
		 M24,204.4l-0.3,7.9 M23.7,212.3l0.6,4 M24.4,216.2l2.8,2.6 M79.7,19.4l9.9,0.6 M89.6,20l12.4,3.5 M102,23.5l9.4,6.2 M124.6,59.8
		l-5.9-10.9 M118.6,48.9l-4-7.6 M114.6,41.3l-5.2-3.9 M109.4,37.5l-1.6-0.6 M107.8,36.9l-8.3,7 M99.5,43.8L87.8,59.5 M87.8,59.5
		L74.3,73.9 M74.3,73.9l-7,2.9 M124.6,59.8l0.8,9.5 M125.4,69.3l4.9,8.9 M132.9,97.5l-2.2,10.7 M130.7,108.2l-0.5,9.8 M130.2,118
		l-1.8,7.8 M128.5,125.8l-4.1,3 M124.4,59l-0.3-6.9 M124.1,52l-3.4-10.5 M120.7,41.5l-9.2-11.8 M132.9,97.5l1,6.9 M133.9,104.5
		l1.8,12.1 M135.7,116.6l-0.6,14 M135.1,130.6l2,3.8 M137.1,134.4l4.5,3.5 M141.6,138l3.8,3.8 M145.4,141.8h-4.2 M141.3,141.8
		l2.5,5.5 M143.7,147.4l-0.5,3.4 M143.3,150.7l-3.1,5.2 M140.2,156l2.3,4 M142.5,160l5.1,7.7 M147.6,167.6l1.2,6.8 M144.8,186.4
		l-3.1-8.7 M141.6,177.7l-1.7-4.7 M139.9,173l-2.7,8.4 M137.2,181.3l-3.7,4.4 M133.5,185.8l2.8-7.8 M136.3,178v-9.9 M136.3,168.1
		l-5.4-5.6 M130.9,162.5l-2.5,5.4 M128.4,167.9l-2.7-0.6 M124.4,128.8l-4.9,2 M119.5,130.7L117,136 M117,136l-2.9,11.2 M114.2,147.1
		l-1.6,17.9 M125.7,167.3l1.3,2.3 M127,169.6l-4.4,5.6 M316.8,265.1l-8.1,3.7 M308.7,268.8l-10.7,0.3 M298,269.1l-13.1-0.6
		 M284.9,268.5l-7.5,2.7 M277.3,271.2l-13.5-2.3 M263.8,269l-8.7,0.7 M255.1,269.7l-14-4.7 M241.1,265l-19.1-3.2 M222,261.7
		l-11.8-0.9 M210.2,260.8l-20.6-5.5 M189.6,255.3l-6-3.3 M183.7,252l-2.8,0.2 M180.9,252.2l-4.4-4.4 M176.5,247.8l-3.4-0.4
		 M173.1,247.4l-12-11 M161,236.4l-3.2-0.4 M157.8,236l-11-11 M135.9,214.1l-4.4-4.4 M127.2,205.3l-2.5-3.6 M156.6,293.1l22.8,6.8
		 M183.4,301.1l38.7,7.9 M222.1,309l27.3-1.6 M249.4,307.4l39.7-1 M289.1,306.5l31.7,1.9 M320.8,308.4l2.5-4.5 M325.9,299.4l2.8-9.4
		 M328.7,290.1l0.4-10.2 M329.1,279.9l-2.2-8.7 M326.9,271.2l-4.4-4 M321,265.9l-4.2-0.7 M120.5,315l-43.3,16.6 M77.2,331.6
		l-17.9,11.6 M48,350.6l-31.2,23.9 M16.9,374.4l6.9,23.5 M23.8,397.9l8.1-4.2 M85,360.8l35.5-14.7 M120.5,346.1v-15.6 M31.9,393.6
		l10,23.8 M41.8,417.4l5,30.8 M46.8,448.2l12.7,7.3 M59.5,455.5l21.4,10.1 M80.9,465.6l38.9-23.7 M119.8,441.9l36.3-39.4
		 M46.8,448.2l13.1-1.8 M60,446.4l75.3-56.2 M135.2,390.2l1.4-9.5 M136.6,380.7l-16.1-50.2 M120.5,315l11.1,1.4 M131.6,316.4
		l4.8-36.4 M131.6,316.4l2.7,13.6 M134.3,330l13.1,5 M147.5,334.9l-5.9-34 M141.6,301l1.5-16.7 M156.1,402.5l2.3-10.9 M27.2,218.9
		l5,31.1 M32.2,250l7.9,25.8 M40.1,275.8L56.3,333 M56.3,333l3,10.2 M187.8,392l5.6-1.6 M193.3,390.4l-0.9-10.4 M191.6,369.7h-5
		 M186.7,369.7l1.1,22.3 M186.7,369.7l-3.7-0.4 M183,369.3l-3.2-12.2 M179.8,357.1l-3.9-11.8 M175.9,345.3l9.7,1.5 M195.3,348.2
		l-15.8-48.3 M195.3,348.2l125.6-39.8 M222,261.7l99-27.6 M321,234.1l-30.4,0.9 M322.4,267.2l6.1-2.4 M328.5,264.8l2.6,0.8
		 M342.6,268.9l-0.2,4.2 M342.4,273.1l2.2-0.3 M344.5,272.8l3,2.4 M347.5,275.2v5.4 M347.5,280.5l-0.9,1.5 M346.6,282l0.5,3.4
		 M347,285.5l-3.1,2.9"/>
	<path class="st10" d="M344,288.3v3.3 M344,291.6l-1.3,3.2 M321,234.1l5.9,24.3 M157.8,236l-2.4-11.4 M225.1,233.4l7.7,3 M290.6,235
		l-15-10.5 M275.6,224.5l-1.4-3.9 M258.5,209.4l-13.4-6.1 M245.1,203.3l-5.5-2.7 M239.7,200.6l-3.2-5 M236.5,195.6l-27.5-7.5
		 M172.5,173.4l-20.4-7.6 M152.1,165.8l-9.6-5.9 M326.9,258.4l5.5-2.4 M332.5,256l2.6,2.4 M335.1,258.4l-1.5,4.1 M333.6,262.5
		l-2.4,3.1 M72.5,150.5l14.7,1.5 M87.1,152l12.1,6.7 M99.2,158.7l5.8,3.4 M112.6,165.1l0.5,2.5 M122.6,175.3l1.4,11.6 M27.2,218.9
		l2.2-25.4 M29.4,193.5l3.3-14.6 M49.4,156.7L55,154 M55,154l10.2-2.9 M65.3,151l7.2-0.6 M72.5,150.5l5.1-2.4 M77.6,148.1l1.9-3.6
		 M79.5,144.5l-0.2-3.1 M79.3,141.4l2.4,0.3 M67.3,76.8L64.5,88 M76.2,131.7l4.2,4.3 M101.9,543.3l11.7,52.9 M124.4,59l0.2,0.8
		 M136.4,279.9l6.6,4.3 M179.5,299.9l4,1.2 M322.4,267.2l-1.5-1.3 M59.3,343.2L48,350.6 M31.9,393.6l8.1-4.2 M120.5,330.5V315
		 M158.3,391.6l-10.9-56.6 M183,369.3l-23-2.6 M175.9,345.3l-3.9-11.8 M290.6,235l-57.8,1.3 M326.9,258.4l1.6,6.4 M80.4,136l1.5,1.4
		 M143,284.2l13.6,8.9 M148.1,842.5l-10.2,1.1 M137.8,843.6L125,845 M137.8,843.6l0.5,4.7 M110.9,865.8l-5.5-1.7 M139,853l1.1,4.3
		 M141.2,861.7l2.8,2.1 M236.8,853l18.6-12.6 M140.1,857.3l0.3,1.2 M140.1,857.3l23.7-3.5 M163.8,853.8l53.4,6.3 M217.2,860.1
		l19.6-7.1 M171.9,333.4l-15.3-40.3 M185.6,346.7l9.7,1.5 M185.6,346.7l5.7,14.7 M191.3,361.5l12.4,14.4 M192.5,380.1l-0.9-10.4
		 M203.6,375.8l-11.1,4.2 M232.8,236.3L183.7,252 M155.4,224.6l48.2,5.3 M203.6,229.9l21.5,3.4 M92,147.2l5.4,5.2 M92,147.2
		L83.6,136 M83.6,136h-3.3 M81.8,137.4l1.8,5.4 M83.6,142.8l-1.9-1.1 M76.2,131.7L68,111.2 M68,111.2L64.5,88 M342.7,294.8v3.2
		 M342.7,298l-2.1,3.2 M340.6,301.2l-5.5,2.4 M323.3,303.9l2.5-4.5 M335.1,303.5l-11.7,0.4 M320.8,308.4l14.2-4.9 M105,162l2.4-5.8
		 M107.5,156.2l-10.1-3.8 M143,284.2l6.8,24.3 M149.8,308.6l10.1,58.1 M160,366.7l1.8,10.4 M161.8,377l5.5,11.4 M168.6,391.3
		l-10.2,0.3 M167.2,388.4l20.6,3.6 M167.2,388.4l1.4,2.8 M146.9,225.1l-5.5-5.5 M146.9,225.1l-5.3-47.4 M141.4,219.6l-5.5-5.5
		 M141.4,219.6l-4.2-38.3 M105,162l4.2,7.7 M120,189.2l4.7,12.5 M122.6,175.3l-10.1-10.2 M131.5,209.7l-4.4-4.4 M124.1,186.9
		l3.7,11.4 M109.3,169.7l10.7,19.5 M113,167.6l-3.8,2.2 M144,863.7l-33.1,2.1 M144,863.7l2.8,2.1 M140.4,858.5l0.8,3.1 M140.4,858.5
		l-29.9-3.8 M94.4,856.6l2,3.6 M110.5,854.7l-16.2,1.9 M87.7,797.3l-6.3,49.8 M81.4,847.1l7.7,0.3 M89.1,847.4l10.2,0.4 M89.1,847.4
		l5.3,9.2 M132.8,87.4l0.1,10.2 M130.3,78.2l2.5,9.2 M127.8,198.3l3.7,11.4 M113,167.6l14.8,30.7 M176.3,536l13.1-73.3 M68.9,22.5
		l10.9-3.1 M148.8,174.4l-4,12 M114.2,147.1l11.5,20.2 M39.9,389.4l45-28.6 M342.6,268.9l-11.5-3.4 M274.2,220.6l-15.8-11.2
		 M209,188.1l-36.5-14.7 M32.7,178.9l16.7-22.2 M176.3,536l-4.2-96.5 M154.8,222l-8.4-27.1 M119.5,130.7h-5.4 M114.2,130.7L98.8,127
		 M98.8,127l-13.5-8.2 M136.4,279.9l-20.3-13.2 M155.4,224.6l-0.6-2.7 M94.4,256.4l21.7,10.4 M53.2,232.4l17.2,9.3 M70.4,241.7
		l24,14.7 M124.7,201.6L105,173.7"/>
</g>
</svg>
