<?xml version="1.0" encoding="utf-8"?>
<!-- Generator: Adobe Illustrator 20.0.0, SVG Export Plug-In . SVG Version: 6.00 Build 0)  -->
<svg version="1.1" id="Layer_1" xmlns="http://www.w3.org/2000/svg" xmlns:xlink="http://www.w3.org/1999/xlink" x="0px" y="0px"
	 viewBox="0 0 333 792" style="enable-background:new 0 0 333 792;" xml:space="preserve">
<style type="text/css">
	.st0{fill:#422305;}
	.st1{fill:#704010;}
	.st2{fill:#FFE0D4;}
	.st3{fill:#FFFFFF;}
	.st4{fill:#F8E399;}
	.st5{fill:#89BAC0;}
	.st6{fill:#844D16;}
	.st7{fill:#AC857A;}
	.st8{fill:#637AA8;}
	.st9{fill:none;stroke:#000000;stroke-miterlimit:10;}
</style>
<g>
	<path class="st0" d="M139.8,754.4l-8.4-1.9l0.2-1l0.2-0.9l0.2-0.8l0.2-0.7l0.2-0.6l1.3-1.9l1.3-1.8l1.4-1.8l1.4-1.7l1.4-1.7
		l1.4-1.6l1.4-1.6L139.8,754.4z M139.8,754.4"/>
	<path class="st1" d="M139.8,754.4l2-17.9l1.4-1.5l1.3-1.5l1.3-1.4l1.2-1.3l1.2-1.3l2.2-2.3l1-1l0.9-1l0.8-0.9l0.7-0.8l-6.1,26.7
		L139.8,754.4z M139.8,754.4"/>
	<path class="st1" d="M141.7,736.5l-1.4,1.6l-1.4,1.6l-1.4,1.7l-1.4,1.7l-1.4,1.8l-1.3,1.8l-1.3,1.9l-0.2,0.6l-0.2,0.7l-0.2,0.8
		l-0.2,0.9l-0.2,1l-0.1,1l-0.1,1.1l-0.1,1.1l-0.3,2.2l-0.1,1.1l-0.1,1.1l-0.1,1l-0.2,1l-0.2,0.9l-0.2,0.8l-0.2,0.7l-0.2,0.6
		l-0.2,0.5l-0.2,0.3l-0.7,0.7l-0.8,0.8l-1,0.9l-1.2,1l-1.4,1.1l-1.6,1.1l-1.9,1.1l-2.1,1l-2.3,0.9l-2.5,0.8l-2.8,0.7l-3,0.5
		l-3.3,0.3l-3.5,0.1l-3.8-0.1l-4.1-0.4l-4.4-0.8l0-1l-0.1-1l-0.1-0.9l0-0.9l0-0.9l0-0.9l0.1-1l0.2-1l0.3-1.1l0.4-1.2l0.6-1.3
		l0.7-1.5l0.9-1.7l1.1-1.9l1.3-2.1l1.6-2.3l1.8-2.6l2.1-2.8l2.4-3.1l2.7-3.4l0.6-1.5l0.6-1.5l0.6-1.4l0.6-1.3l0.6-1.3l0.6-1.2
		l0.5-1.2l0.5-1.1l0.5-1.1l0.4-1.1l0.4-1.1l0.3-1.1l0.2-1.1l0.2-1.1l0.1-1.1l0-4.2l2.5,0.8l3.1,0.7l3,0.5l3,0.2l2.9,0l2.9-0.2
		l2.8-0.4l2.7-0.6l2.6-0.8l2.5-0.9l2.4-1.1l2.2-1.2l2.1-1.3l1.9-1.4l1.7-1.5l1.5-1.5l1.3-1.6l1.1-1.6l0.9-1.7l0.7-1.7l0.2,0.1
		l0.2,0.3l0.1,0.5l0.1,0.7l0.1,0.9l0.1,1l0,1.1l0,1.2l0,1.2l0,1.2l0,1.2l0,1.2l-0.1,1.2l-0.1,1.1l-0.1,1l-0.1,0.9l-0.1,0.7l-0.1,0.5
		l-0.1,0.3l-0.1,0.1l-0.4,0.6l-0.6,0.7l-0.7,0.8l-0.8,0.9l-0.9,1l-1,1l-2.2,2.3l-1.2,1.3l-1.2,1.3l-1.3,1.4l-1.3,1.5L141.7,736.5z
		 M141.7,736.5"/>
	<path class="st2" d="M280.8,118.5L280.8,118.5l0.5-4.7l0.4-4.6l0.2-4.5l0.1-4.4l-0.1-4.2l-0.2-4.1l-0.3-4l-0.4-3.8l-0.4-3.6
		l-0.5-3.4l-0.5-3.3l-0.5-3.1l-0.5-2.8l-0.5-2.6l-0.9-4.6l-0.4-1.9l-0.3-1.6l-0.2-1.4l-0.1-1.1l-0.2,0l-0.2,0l-0.2,0l-0.2,0l-0.2,0
		l-0.2,0l-0.2,0l-0.2,0l-0.2,0l-0.2,0.1l-0.2,0.1L274,55l-0.2,0.1l-0.2,0.1l-0.3,0.1l-0.3,0.2l-0.3,0.2l-0.3,0.2l-0.4,0.2l-0.4,0.3
		l-0.6,0l-1-0.1l-1.1-0.3l-1.2-0.4l-1.3-0.5l-1.4-0.5l-1.5-0.6l-1.6-0.7l-1.6-0.7l-3.4-1.5l-1.7-0.8l-1.7-0.8l-1.7-0.7l-1.7-0.7
		l-1.7-0.6l-1.7-0.6l-1.6-0.5l-1.6-0.4l-1.5-0.3l-1.5-0.2l-1-0.1l-1.2-0.1l-1.4-0.1l-1.6-0.1l-1.8-0.1l-1.9-0.1l-2.1-0.1l-2.3-0.1
		l-2.5-0.1l-2.6,0l-2.8,0l-3,0l-3.2,0l-3.3,0.1l-2.7,0.1l-0.4,0.3l-0.4,0.4l-0.4,0.4l-0.4,0.4l-0.4,0.5l-0.4,0.5l-0.4,0.5l-0.3,0.5
		l-0.3,0.5l-0.3,0.5l-0.3,0.5l-0.2,0.5l-0.2,0.5l-0.2,0.4l-0.2,0.4l-0.1,0.3l-0.1,0.3l-0.1,0.2l0,1l0,1l0.1,0.9l0.1,0.9l0.1,0.8
		l0.1,0.8l0.1,0.8l0.1,0.7l0.1,0.5l0,0.2l0.3,1.4l0.1,0.7L203,63l0.1,0.8l0.1,0.8l0.1,0.8l0.1,0.9l0.1,0.9l0,1l0,1l0,2l0,1.8l0,1.6
		l-0.1,1.5l-0.1,1.4l-0.1,1.2l-0.1,1.1l-0.1,1l-0.1,0.8l-0.1,0.7l-0.2,0.6l-0.2,0.5l-0.2,0.4l-0.2,0.4l-0.2,0.3l-0.2,0.2l-0.2,0.2
		l-0.2,0.1l-0.2,0l-0.5,0l0,0.2l-0.3,1.8l-0.4,1.7l-0.4,1.5l0,0.1l-0.5,1.6l-0.5,1.5l-0.6,1.4l-0.6,1.4l-0.6,1.3l-0.4,0.7l-0.3,0.6
		l-0.1,0.3l-0.9,1.9l-1,2.1l0,0.1l-0.1,0.1l-0.1,0.1l-0.1,0.2l-0.1,0.2l-0.2,0.2l-0.2,0.2l-0.2,0.2l-0.2,0.2l-0.2,0.2l-0.2,0.2
		l-0.3,0.2l-0.3,0.2l-0.3,0.1l-0.3,0.1L191,106l-0.3,0l-0.3,0l0.2-0.4l0.2-0.4l0.2-0.5l0.2-0.5l0.2-0.6l0.2-0.6l0.2-0.6l0.2-0.6
		l0.2-0.7l0.2-0.7l0.2-0.7l0.2-0.7l0.1-0.6l0.1-0.6l0.1-0.6l0-0.6l0.1-0.6l0.1-0.6l0-0.6l0-0.6l0-0.6l0-0.5l0-0.5l0-0.2l0.3-2.9
		v-1.5l-0.6,1.4l-1.1,2l-1.2,2l-1.5,1.9l-1.7,1.9l-1.9,1.8l-2.2,1.7l-2.5,1.6l-2.8,1.5l-3.1,1.3l-0.5,0.2l-0.5,0.1l-0.5,0l-0.5-0.1
		l-0.5-0.1l-0.5-0.2l-0.4-0.3l-0.4-0.3l-0.3-0.4L171,104l-0.2-0.5l-0.1-0.5l0-0.5l0-0.5l0.1-0.5l0.2-0.5l0.3-0.5l0.5-0.5l0.6-0.5
		l0.3-0.2l0.3-0.2l1.2-0.8l1.2-0.8l1.2-0.7l1.1-0.7l1.1-0.6l1-0.6l1-0.6l0.9-0.7l0.9-0.7l0.8-0.7l0.8-0.8l0.7-0.9l0.6-1l0.6-1.1
		l0.5-1.2l0.4-1.4l0.3-1.5l0.2-1.7l0.1-1.9l0-2.1l-1,0.1l-1.1,0.1l-1.2,0.1l-1.3,0.1l-1.4,0l-1.5,0l-1.7,0l-1.8-0.1l-1.9-0.1l-2-0.1
		l-1.6-0.8l-1.4-0.7l-1.3-0.6l-1.1-0.6l-1-0.5l-0.9-0.5l-0.8-0.5l-0.7-0.4l-0.6-0.4l-0.5-0.3l-0.4-0.3l-0.3-0.2l-0.3-0.2l-0.2-0.2
		l-0.2-0.1l-1.1-0.8l-1-0.7l-0.9-0.7l-0.7-0.6l-0.6-0.6l-0.6-0.5l-0.5-0.4l-0.4-0.4l-0.3-0.3l-0.2-0.3l-0.2-0.3l-0.1-0.2l-0.2-0.3
		l-0.1-0.3l-0.1-0.2l-0.1-0.2l0-0.2l0-0.2l0-0.2l0.1-0.1l0.1-0.1l0.1-0.1l0.2-0.1l0.2-0.1l0.2-0.1l0.3,0l0.3,0l0.3,0l0.1,0l0.2,0
		l0.4,0l0.1,0l0.4,0l0.4,0l0.8,0l0.7,0l0.6,0l0,0l0.1,0l0.1,0l0.1,0l0.2,0l0.2,0l0.2,0.1l0.2,0.1l0.3,0.1l0.3,0.1l0.3,0.1l0.7,0.4
		l0.4,0.2l0.4,0.2l0.4,0.3l0.4,0.3l0.4,0.3l1.7,1.1l1.6,0.9l1.5,0.7l1.4,0.6l1.3,0.5l1.2,0.3l1.1,0.2l1.1,0.1l1,0l0.2,0l0.3-0.1
		l0.3-0.1l0.4-0.1l0.5-0.2l0.5-0.2l0.5-0.2l0.5-0.3l0.6-0.3l0.5-0.4l0.5-0.4l0.5-0.5l0.5-0.5l0.4-0.6l0.3-0.6l0.3-0.7l0.2-0.7
		l0.1-0.8l0-0.9l-0.2-0.9l-0.6-0.5l-0.6-0.5l-0.7-0.5l-0.8-0.5l-0.9-0.5l-1-0.4l-1.1-0.3l-1.2-0.2l-1.3-0.1l-1.4,0l-1.5,0.2
		l-1.6,0.3l-1.8,0.5l-1.9,0.7l-2,1l-2.1,1.2l-2.3,1.5l-0.1,0l-0.1,0l-0.1,0l0,0l-0.6,0l-0.7,0l-0.8,0l-0.4,0l-0.4,0l-0.1,0l-0.4,0
		l-0.6,0l-1.1-0.1l-0.2,0l-0.3-0.1l-0.3-0.1l-0.3-0.2l-0.3-0.2l-0.3-0.3l-0.2-0.3l-0.2-0.4l-0.2-0.4l-0.1-0.4l-0.1-0.5l0-0.5
		l0.1-0.5l0.2-0.5l0,0l0,0l0,0L153,59l0.4-0.5l0.9-0.6l0.9-0.6l1-0.6l1.1-0.6l1.1-0.6l1.1-0.6l1.2-0.5l1.2-0.5l1.2-0.5l2.4-1
		l1.2-0.5l1.1-0.5l1.1-0.5l1-0.5l1-0.5l0.9-0.5l0.8-0.5l0.8-0.5l0.7-0.5l0.3-0.4l0.6-1.3l0.6-1.2l0.5-1l0.5-0.9L177,42l0.5-0.7
		l0.5-0.6l0.5-0.6l0.5-0.5l0.5-0.5l0.5-0.5l0.6-0.4l0.6-0.4l0.6-0.5l1.5-1l0.8-0.6L185,35l1-0.7l1.1-0.8l0.7-0.6l0.7-0.6l0.6-0.6
		l0.6-0.6l0.6-0.6l1.1-1.1l0.6-0.6l0.6-0.5l0.6-0.5l0.6-0.5l0.6-0.5l0.7-0.5l0.7-0.4l0.8-0.4l0.9-0.4l1-0.4l1-0.3l1.1-0.3l1.2-0.3
		l4.4-0.8l8.4-1.3l7.9-1l7.5-0.8l7.1-0.6l6.8-0.4l6.4-0.2l6.1,0l5.7,0.1l5.4,0.2l5.2,0.3l4.9,0.4l4.7,0.5l4.4,0.5l4.2,0.6l4,0.6
		l3.8,0.5l3.7,0.5l3.5,0.4l3.4,0.4l1.1,0.2l1,0.5l0.9,0.7l0.8,0.8l0.7,1l0.6,1.1l0.5,1.2l0.5,1.3l0.4,1.3l0.3,1.3l0.3,1.3l0.2,1.3
		l0.2,1.3l0,0.6l0,0.7l0,0.7l0,0.7l-0.1,0.8l-0.1,0.8l-0.1,0.8l-0.1,0.8l-0.1,0.8l-0.1,0.8l-0.1,0.7l-0.1,0.7l-0.1,0.6l-0.1,0.6
		l-0.1,0.5l-0.1,0.4l-0.1,0.4l-0.1,0.3l0,0.2l0,0.1l-2,6.5l-2.1,6.2l-2.2,5.9l-2.3,5.7l-2.3,5.4l-2.4,5l-2.4,4.7l-2.3,4.4l-2.3,4.1
		l-2.2,3.7l-2.1,3.4l-1.9,3l-1.8,2.7l-1.6,2.3l-1.4,1.9l-1.1,1.5l-0.8,1.1l-0.5,0.7l-0.2,0.3l0,0l0,0l0,0l0,0.1l-0.1,0.1l-0.1,0.1
		l-0.1,0.1l-0.1,0.1l-0.1,0.1l-0.1,0.1l-0.1,0.1l-0.1,0.1l-0.1,0.1l-0.1,0.1L280.8,118.5L280.8,118.5L280.8,118.5z M280.8,118.5"/>
	<path class="st2" d="M152.6,61.9l0.2,0.4l-0.1,0.2l-0.1,0.2l-0.1,0.1l-0.1,0.1l-0.1,0.1l-0.1,0.1l-0.1,0.1l-0.1,0.1l-0.1,0l-0.1,0
		l-0.1,0l-0.1,0l-0.1,0l-0.1,0l-0.6,0.1l-0.1,0l-0.1,0l-0.2,0l-0.2,0l-0.3,0l-0.8,0l-0.7,0l-0.7,0.1l-0.5-0.1l-0.7-0.2l-0.8-0.2
		l-0.8-0.3l-0.9-0.4l-2-0.8l-1.1-0.4l-1.1-0.4l-1.2-0.4l-1.2-0.4l-1.3-0.3l-1.3-0.3l-1.4-0.2l-1.4-0.1l-1.5,0l-1.5,0.1l-1.5,0.3v0.3
		l0,0.4l0,0.5l0.1,0.6l0.1,0.7l0.2,0.7l0.2,0.7l0.3,0.8l0.3,0.8l0.4,0.8l0.4,0.7l0.5,0.7l0.6,0.7l0.6,0.6l0.7,0.5l0.8,0.4l0.9,0.3
		l0.9,0.1l1,0l1.1-0.2l0.1,0.2l0.2-0.2l1-0.3l0.4-0.2l0.4-0.2l0.4-0.2l0.4-0.3l0.4-0.3l0.4-0.3l0.4-0.4l0.4-0.4l0.4-0.4l0.4-0.5
		l0.1-0.1l0.1-0.1l0.2-0.2l0.2-0.2l0.2-0.2l0.3-0.2l0.3-0.2l0.4-0.2l0.4-0.2l0.4-0.2l0.5-0.2l0.5-0.2l0.6-0.1l0.6-0.1l0.6-0.1l0.1,0
		l0.6-0.1l0.7,0l0.8,0l0.3,0l0.2,0l0.2,0l0.1,0l0.1,0l0.2,0l0.2,0l0.2,0.1l0.2,0.1l0.1,0.1l0.1,0.1l0.1,0.1l0.1,0.1l0.1,0.1l0.1,0.1
		l0.1,0.1l0,0.1l0,0.1l0,0.1l0,0.1l0,0.1l0,0.1l0,0.1l0,0.1l0,0.1l0,0.2l0,0.2l0,0.2l-0.1,0.2l-0.1,0.2l-0.1,0.1l-0.1,0.1l-0.1,0.1
		l-0.1,0.1l-0.1,0.1l-0.1,0.1l-0.1,0.1l-0.1,0.1l-0.1,0.1l-0.1,0l-0.1,0l0,0l0,0l0,0l-0.4,0.2l-0.4,0.2l-0.4,0.2l-0.4,0.3l-0.4,0.3
		l-0.4,0.3l-0.4,0.3l-0.4,0.3l-0.4,0.3l-0.4,0.3l-0.4,0.4l-0.4,0.4l-0.4,0.4l-0.4,0.4l-1.3,1.1l-0.4,0.4l-0.4,0.3l-0.4,0.3l-0.7,0.6
		l-0.1,0.1l-0.2,0.1l-0.2,0.2l-0.3,0.2l-0.3,0.2l-0.3,0.2l-0.4,0.2l-0.4,0.2l-0.4,0.2l-0.4,0.2l-0.5,0.2l-0.5,0.2l-0.5,0.2l-0.5,0.2
		L137,77l-0.5,0.1l-0.5,0.1l-0.5,0l-0.5,0l-0.5,0l-2-0.2l-0.6-0.1l-1-0.1l-0.9-0.1l-0.9-0.1l-0.8-0.1l-0.8-0.1l-0.7-0.1l-0.1,0
		l-0.6-0.1l-0.6-0.2l-0.6-0.3l-0.6-0.3l-0.5-0.4l-0.5-0.5l-0.5-0.6l-0.5-0.7l-0.5-0.8l-0.5-0.9l-0.5-1.1l-0.5-1.2l-0.5-1.4l-0.5-1.5
		l-0.4-1.2l-0.4-1.4l-0.5-1.5l-0.6-1.6l-0.6-1.7l-0.7-1.7l-0.7-1.7l-0.7-1.7l-0.8-1.7l-0.8-1.6l-0.8-1.5l-0.8-1.4l-0.8-1.3l-0.7-1.1
		l-0.7-0.9l-0.7-0.7l-0.6-0.4l0,0l0,0l-0.1-0.1l-0.1-0.1l-0.2-0.1l-0.3-0.1l-0.4-0.1l-0.5-0.1l-0.6-0.1l-0.8-0.1l-1-0.1l-1.2-0.1
		l-1.4-0.1l-1.6-0.1l-1.9-0.1l-2.1-0.1l-2.4-0.1l-2.7-0.1l-3,0l-3.4,0l-0.8,0l-0.8,0.1l-0.9,0.3l-0.9,0.4l-1,0.5l-1,0.5l-1,0.6
		l-1,0.6l-1,0.7l-0.8,0.6l-2,1.4l-0.9,0.5L71.3,48l-1.2,0.5l-1.2,0.4l-1.3,0.4l-1.3,0.3L65,49.8l-1.4,0.1l-1.4,0l-1.4-0.1l-1.1-0.1
		l-1-0.1l-1-0.1L56.3,50l-1.3,0.6l-1.2,0.9l-1.1,1.2l-1,1.4L51,55.8l-0.8,1.8l-0.7,1.9l-0.6,2l-0.5,2.1l-0.4,2.2l-0.4,2.2l-0.3,2.1
		L47,72.3l-0.1,2L46.8,76l0,1.7l0.1,1.5l0.2,2.2l-0.7-1.1l-1-1.5l-1.2-1.9l-1.4-2.2l-1.5-2.4l-1.6-2.7L38,66.7l-1.8-3l-1.8-3.1
		l-1.8-3.1l-1.7-3.1l-1.7-3.1l-1.6-3l-1.4-2.8L25,42.9l-1-2.4l-0.8-2.1l-0.5-1.8l-0.2-1.4l0-1l0-1.1l0-1.2l0-1.3l0-1.4l0.1-1.5
		l0.1-1.5l0.1-1.5l0.2-1.4l0.3-1.4l0.3-1.3l0.4-1.2l0.5-1.1l0.5-0.9l0.6-0.7l0.7-0.5l0.6-0.3l1-0.3l1.4-0.3l1.7-0.3l2-0.3l2.3-0.3
		l2.5-0.2l2.8-0.2l3-0.2l3.1-0.2l3.3-0.1l3.4-0.1l3.5-0.1l3.5,0l3.6,0l3.6,0.1l3.5,0.1l3.5,0.2l3.4,0.2l3.3,0.3l1.4,0.2l1.6,0.2
		l1.8,0.3l2,0.4l2.2,0.4l2.4,0.5l2.5,0.6l2.6,0.6l2.6,0.7l2.7,0.7l2.7,0.8l2.7,0.8l2.6,0.8l2.6,0.9l2.5,0.9l2.3,0.9l2.2,0.9l2,0.9
		l1.8,1l1.6,1l0,0l0.1,0l0.1,0l0.1,0.1l0.2,0.1l0.2,0.1l0.2,0.1l0.2,0.2l0.3,0.2l0.3,0.2l0.3,0.3l0.3,0.3l0.3,0.4l0.4,0.4l0.4,0.5
		l0.4,0.5l0.4,0.6l0.4,0.6l-0.5,2.6l-0.3,2.8l-0.1,3.1l0.6,0.8l0.6,0.7l0.5,0.7l0.5,0.7l0.4,0.7l0.4,0.7l0.3,0.6l0.3,0.6l0.3,0.6
		l0.2,0.5l0.2,0.5l0.2,0.4l0.1,0.4l0.1,0.4l0.1,0.3l0.1,0.3l0.1,0.2l0,0.2l0,0.1l0,0l2.2,0.8l2,0.7l1.8,0.7l1.6,0.6l1.4,0.6L145,54
		l1.1,0.5l1,0.5l0.9,0.4l0.7,0.4l0.6,0.3l0.5,0.3l0.4,0.3l0.4,0.2l0.3,0.2l0.2,0.2l0.2,0.1l0.1,0.1l0.1,0.1l0,0l0.2,0.2l0.2,0.2
		l0.1,0.2l0.1,0.2l0.1,0.2l0.1,0.2l0.1,0.1l0.1,0.1l0,0.1l0,0.1l0,0.1l0,0.1l0,0.1l0,0.1l0,0l0,0l0,0l0,0l0,0l-0.2,0.5l-0.1,0.5
		l0,0.5l0.1,0.5L152.6,61.9z M152.6,61.9"/>
	<path class="st3" d="M137.1,69.5l-0.1-0.2l0.2-0.1L137.1,69.5z M137.1,69.5"/>
	<path class="st2" d="M137.3,69.3l-0.2,0.1l-1.1,0.2l-1,0l-0.9-0.1l-0.9-0.3l-0.8-0.4l-0.7-0.5l-0.6-0.6l-0.6-0.7l-0.5-0.7l-0.4-0.7
		l-0.4-0.8l-0.3-0.8l-0.3-0.8l-0.2-0.7l-0.2-0.7l-0.1-0.7l-0.1-0.6l0-0.5l0-0.4v-0.3l1.5-0.3l1.5-0.1l1.5,0l1.4,0.1l1.4,0.2l1.3,0.3
		l1.3,0.3l1.2,0.4l1.2,0.4l1.1,0.4l1.1,0.4l2,0.8l0.9,0.4l0.8,0.3l0.8,0.2l0.7,0.2l0.5,0.1l-0.6,0.1l-0.6,0.1l-0.6,0.1l-0.5,0.2
		l-0.5,0.2l-0.4,0.2l-0.4,0.2l-0.4,0.2l-0.3,0.2l-0.3,0.2l-0.2,0.2l-0.2,0.2l-0.2,0.2l-0.1,0.1l-0.1,0.1l-0.4,0.5l-0.4,0.4l-0.4,0.4
		l-0.4,0.4l-0.4,0.3l-0.4,0.3l-0.4,0.3l-0.4,0.2l-0.4,0.2l-0.4,0.2L137.3,69.3z M137.3,69.3"/>
	<path class="st2" d="M129.9,76.8l0.9,0.1l1,0.1l0.6,0.1l0,0.6l0,0.6l0.3,1.4l0.4,1.4l0.4,1.3l0.5,1.3l0.5,1.2l0.6,1.2l0.6,1.1
		l0.7,1.1l0.7,1.1l0.8,1l0.8,1l0.8,1l0.8,0.9l0.9,0.9l0.9,0.9l0.9,0.8l0.9,0.8l0.9,0.8l0.9,0.8l0.8,0.7l0.4,0.4l0.4,0.4l0.3,0.4
		l0.3,0.4l0.2,0.3l0.1,0.2l0.1,0.3l0.1,0.3l0.1,0.4l0.1,0.4l0.1,0.4l0.1,0.4l0,0.4l0,0.4l-0.1,0.4l-0.1,0.4l-0.2,0.3l-0.2,0.3
		l-0.3,0.2l-0.4,0.2l-0.5,0.1l-0.6,0l-0.7-0.1l0,0l-0.1,0l-0.1,0l-0.1,0l-0.1,0l-0.1-0.1l-0.2-0.1l-0.2-0.1l-0.2-0.1l-0.2-0.1
		l-0.2-0.2L144,105l-0.3-0.2l-0.3-0.2l-0.3-0.3l-0.3-0.3l-0.6-0.6l-0.2-0.2l-0.4-0.4l-0.6-0.7l-0.7-0.7l-0.7-0.8l-0.8-0.9l-0.8-0.9
		l-0.9-1l-0.9-1.1l-0.9-1.1l-0.9-1.2l-1-1.2l-1-1.3l-0.8-1l-0.2-0.3l-0.1-0.1l-0.1-0.1l-0.1-0.2l0,0l-0.1-0.1l-0.1-0.2l-0.1-0.2
		l-0.1-0.3l-0.2-0.4l-0.2-0.4l-0.2-0.5l-0.2-0.6l-0.2-0.6l-0.3-0.7l-0.3-0.8l-0.3-0.9l-0.3-0.9l-0.3-1l-0.3-1.1l-0.3-1.1l-0.3-1.2
		l-0.3-1.3l-0.3-1.4l0.1,0l0.7,0.1l0.8,0.1l0.8,0.1L129.9,76.8z M129.9,76.8"/>
	<path class="st2" d="M143.7,104.8l0.3,0.2l0.3,0.2l0.2,0.2l0.2,0.1l0.2,0.1l0.2,0.1l0.2,0.1l0.1,0.1l0.1,0l0.1,0l0.1,0l0.1,0l0,0
		l0.7,0.1l0.6,0l0.5-0.1l0.4-0.2l0.3-0.2l0.2-0.3l0.2-0.3l0.1-0.4l0.1-0.4l0-0.4l0-0.4l-0.1-0.4l-0.1-0.4l-0.1-0.4l-0.1-0.4
		l-0.1-0.3l-0.1-0.3l-0.1-0.2l-0.2-0.3l-0.3-0.4l-0.3-0.4l-0.4-0.4l-0.4-0.4l-0.8-0.7l-0.9-0.8l-0.9-0.8l-0.9-0.8l-0.9-0.8l-0.9-0.9
		l-0.9-0.9l-0.8-0.9l-0.8-1l-0.8-1l-0.8-1l-0.7-1.1l-0.7-1.1l-0.6-1.1l-0.6-1.2l-0.5-1.2l-0.5-1.3l-0.4-1.3l-0.4-1.4l-0.3-1.4l0-0.6
		l0-0.6l2,0.2l0.5,0l0.5,0l0.5,0l0.5-0.1L137,77l0.5-0.1l0.5-0.2l0.5-0.2l0.5-0.2l0.5-0.2l0.4-0.2l0.4-0.2l0.4-0.2l0.4-0.2l0.3-0.2
		l0.3-0.2l0.3-0.2l0.2-0.2l0.2-0.1l0.1-0.1l0.7-0.6l0.4-0.3l0.4-0.3l0.4-0.4l1.3-1.1l0.4-0.4l0.4-0.4l0.4-0.4l0.4-0.4l0.4-0.3
		l0.4-0.3l0.4-0.3l0.4-0.3l0.4-0.3l0.4-0.3l0.4-0.3l0.4-0.2l0.4-0.2l0.4-0.2l0,0l0,0l0,0l0.1,0l0.1,0l0.1-0.1l0.1-0.1l0.1-0.1
		l0.1-0.1l0.1-0.1l0.1-0.1l0.1-0.1l0.1-0.1l0.1-0.1l0.1-0.2l0.1-0.2l0-0.2l0-0.2l0-0.2l0-0.1l0-0.1l0-0.1l0-0.1l0-0.1l0-0.1l0-0.1
		l0-0.1l0-0.1l-0.1-0.1l-0.1-0.1l-0.1-0.1l-0.1-0.1l-0.1-0.1l-0.1-0.1l-0.1-0.1l-0.2-0.1l-0.2-0.1l-0.2,0l-0.2,0l0.6-0.1l0.1,0
		l0.1,0l0.1,0l0.1,0l0.1,0l0.1,0l0.1-0.1l0.1-0.1l0.1-0.1l0.1-0.1l0.1-0.1l0.1-0.1l0.1-0.2l0.1-0.2l0.2,0.4l0.2,0.3l0.3,0.3l0.3,0.2
		l0.3,0.2l0.3,0.1l0.3,0.1l0.2,0l1.1,0.1l0.6,0l-0.2,0l-0.1,0l-0.3,0l-0.3,0l-0.3,0l-0.2,0.1l-0.2,0.1l-0.2,0.1l-0.1,0.1l-0.1,0.1
		l-0.1,0.1l0,0.2l0,0.2l0,0.2l0.1,0.2l0.1,0.2l0.1,0.3l0.2,0.3l0.1,0.2l0.2,0.3l0.2,0.3l0.3,0.3l0.4,0.4l0.5,0.4l0.6,0.5l0.6,0.6
		l0.7,0.6l0.9,0.7l1,0.7l1.1,0.8l0.2,0.1l0.2,0.2l0.3,0.2l0.3,0.2l0.4,0.3l0.5,0.3l0.6,0.4l0.7,0.4l0.8,0.5l0.9,0.5l1,0.5l1.1,0.6
		l1.3,0.6l1.4,0.7l1.6,0.8l2,0.1l1.9,0.1l1.8,0.1l1.7,0l1.5,0l1.4,0l1.3-0.1l1.2-0.1l1.1-0.1l1-0.1l0,2.1l-0.1,1.9l-0.2,1.7
		l-0.3,1.5l-0.4,1.4l-0.5,1.2l-0.6,1.1l-0.6,1l-0.7,0.9l-0.8,0.8l-0.8,0.7l-0.9,0.7l-0.9,0.7l-1,0.6l-1,0.6l-1.1,0.6l-1.1,0.7
		l-1.2,0.7l-1.2,0.8l-1.2,0.8l-0.3,0.2l-0.3,0.2l-0.6,0.5l-0.5,0.5l-0.3,0.5l-0.2,0.5l-0.1,0.5l0,0.5l0,0.5l0.1,0.5l0.2,0.5l0.3,0.4
		l0.3,0.4l0.4,0.3l0.4,0.3l0.5,0.2l0.5,0.1l0.5,0.1l0.5,0l0.5-0.1l0.5-0.2l3.1-1.3l2.8-1.5l2.5-1.6l2.2-1.7l1.9-1.8l1.7-1.9l1.5-1.9
		l1.2-2l1.1-2l0.6-1.4v1.5l-0.3,2.9l0,0.2l0,0.5l0,0.5l0,0.6l0,0.6l0,0.6l-0.1,0.6l-0.1,0.6l0,0.6l-0.1,0.6l-0.1,0.6l-0.1,0.6
		l-0.2,0.7l-0.2,0.7l-0.2,0.7l-0.2,0.7l-0.2,0.6l-0.2,0.6l-0.2,0.6l-0.2,0.6l-0.2,0.5l-0.2,0.5l-0.2,0.4l-0.2,0.4l-0.1,0.3l-0.1,0.2
		l-0.1,0.1l0,0l-0.6,1l-0.8,1l-1,1l-1.1,1l-1.2,0.9l-1.4,0.9l-1.4,0.9l-1.5,0.8l-1.5,0.8l-1.5,0.7l-1.5,0.7l-1.5,0.6l-1.4,0.6
		l-1.3,0.5l-1.2,0.4l-1,0.4l-0.8,0.3l-0.6,0.2l-0.3,0.1l-0.4,0l-0.5,0l-0.6,0l-0.6,0l-0.7,0l-0.8,0l-0.8,0l-0.8,0l-0.8,0l-0.8,0
		l-0.8,0l-0.8-0.1l-0.7-0.1l-0.6-0.1l-0.6-0.1l-0.5-0.1l-0.4-0.1l-0.3,0l-0.1,0l-0.2,0l-0.7-0.2l-0.7-0.3l-0.7-0.4l-0.7-0.5
		l-0.7-0.5l-0.7-0.6l-0.7-0.7l-0.3-0.3l-0.5-0.4l-0.7-0.8l-0.7-0.8l-0.7-0.9l-0.7-0.9l-0.7-0.9l-0.7-0.9l-0.7-1l-0.6-1l-0.6-1
		l-0.6-1L143.7,104.8z M143.7,104.8"/>
	<path class="st2" d="M160.3,64.2l2.3-1.5l2.1-1.2l2-1l1.9-0.7l1.8-0.5l1.6-0.3l1.5-0.2l1.4,0l1.3,0.1l1.2,0.2l1.1,0.3l1,0.4
		l0.9,0.5l0.8,0.5l0.7,0.5l0.6,0.5l0.6,0.5l0.2,0.9l0,0.9l-0.1,0.8l-0.2,0.7l-0.3,0.7l-0.3,0.6l-0.4,0.6l-0.5,0.5l-0.5,0.5l-0.5,0.4
		l-0.5,0.4l-0.6,0.3l-0.5,0.3l-0.5,0.2l-0.5,0.2l-0.5,0.2l-0.4,0.1l-0.3,0.1l-0.3,0.1l-0.2,0l-1,0l-1.1-0.1l-1.1-0.2l-1.2-0.3
		l-1.3-0.5l-1.4-0.6l-1.5-0.7l-1.6-0.9l-1.7-1.1l-0.4-0.3l-0.4-0.3l-0.4-0.3l-0.4-0.2l-0.4-0.2l-0.7-0.4l-0.3-0.1l-0.3-0.1l-0.3-0.1
		l-0.2-0.1l-0.2-0.1l-0.2,0L160.3,64.2z M160.3,64.2"/>
	<path class="st2" d="M190.4,106.1l0.3,0l0.3,0l0.3-0.1l0.3-0.1l0.3-0.1l0.3-0.2l0.3-0.2l0.2-0.2l0.2-0.2l0.2-0.2l0.2-0.2l0.2-0.2
		l0.2-0.2l0.1-0.2l0.1-0.2l0.1-0.1l0.1-0.1l0-0.1l1-2.1l0.9-1.9l0.1-0.3l0.3-0.6l0,1.2l0,1.3l0.1,1.3l0.1,1.2l0.1,1.2l0.1,1.2
		l0.1,1.2l0.2,1.2l0.2,1.1l0.2,1.1l0.2,1l0.3,1l0.3,0.9l0.3,0.8l0.3,0.8l0.4,0.7l0.4,0.6l0.4,0.5l0.4,0.4l0.1,0.1l-0.2,0.4l-0.5,1.2
		l-0.5,1.3l-0.6,1.3l-0.6,1.3l-0.7,1.3l-0.7,1.2l-0.8,1.2l-0.9,1.1l-1,1l-1.1,0.9l-1.2,0.8l-1.3,0.7l-0.5,0.2l-0.5,0.3l-0.5,0.3
		l-0.4,0.3l-0.4,0.4l-0.4,0.4l-0.4,0.4l-0.4,0.5l-0.4,0.5l-0.4,0.5l-0.4,0.5l-0.4,0.6l-0.5,0.6l-0.5,0.6l-0.5,0.6l-0.5,0.6l-0.6,0.6
		l-0.6,0.7l-0.7,0.7l-0.7,0.7l-0.8,1.2l-1.6,2.4l-1.6,2.4l-1.6,2.4l-1.6,2.3l-1.7,2.2l-1.8,2.1l-1.9,2l-2.1,1.8l-2.2,1.5l-2.4,1.3
		l-2.6,1l-2.9,0.7l-3.2,0.3l-3.5,0l-2.1-0.3l-0.9-0.1l0.3-0.1l0.3-0.2l0.2-0.4l0.2-0.5l0.2-0.6l0.1-0.7l0.1-0.8l0.1-0.9l0.1-1
		l0.1-1.1l0-1.2l0.1-2.6l0-1.4l0.1-1.4l0.1-1.5l0.1-1.5l0.1-1.5l0.1-1.5l0.2-1.5l0.3-2.7l0.2-1.4l0.2-1.4l0.2-1.4l0.2-1.4l0.3-1.4
		l0.3-1.3l0.3-1.3l0.4-1.2l0.4-1.1l0.5-1l0.5-0.9l0.6-0.8l0-0.8l0-0.8l0-0.9l0-0.9l-0.1-1l-0.1-1l-0.1-1l0,0l0,0l-0.1-0.9l-0.2-1
		l-0.2-1l-0.3-1l-0.2-0.6l0.3,0.3l0.7,0.7l0.7,0.6l0.7,0.5l0.7,0.5l0.7,0.4l0.7,0.3l0.7,0.2l0.2,0l0.1,0l0.3,0l0.4,0.1l0.5,0.1
		l0.6,0.1l0.6,0.1l0.7,0.1l0.8,0.1l0.8,0l0.8,0l0.8,0l0.8,0l0.8,0l0.8,0l0.7,0l0.6,0l0.6,0l0.5,0l0.4,0l0.3-0.1l0.6-0.2l0.8-0.3
		l1-0.4l1.2-0.4l1.3-0.5l1.4-0.6l1.5-0.6l1.5-0.7l1.5-0.7l1.5-0.8l1.5-0.8l1.4-0.9l1.4-0.9l1.2-0.9l1.1-1l1-1l0.8-1l0.6-1l0,0
		l0.1-0.1l0.1-0.2L190.4,106.1z M190.4,106.1"/>
	<path class="st4" d="M196.3,98.5l0.4-0.7l0.6-1.3l0.6-1.4l0.6-1.4l0.5-1.5l0.5-1.6l0-0.1l1.8,2.3l1.2,1.9l0.9,1.9l0.6,1.8l0.4,1.8
		l0.2,1.7l0,1.6l-0.2,1.5l-0.4,1.4l-0.5,1.3l-0.6,1.2l-0.6,1.1l-0.7,0.9l-0.7,0.8l-0.7,0.7l-0.6,0.5l-0.6,0.4l-0.5,0.2l-0.3,0
		l-0.2-0.2l-0.3-0.9l-0.3-1l-0.2-1l-0.2-1.1l-0.2-1.1l-0.2-1.2l-0.1-1.2l-0.1-1.2l-0.1-1.2l-0.1-1.2l-0.1-1.3l0-1.3L196.3,98.5z
		 M196.3,98.5"/>
	<path class="st2" d="M202.7,82.3l0.1-0.7l0.1-0.8l0.1-1l0.1-1.1l0.1-1.2l0.1-1.4l0.1-1.5l0-1.6l0-1.8l0-2l0-1l0-1l-0.1-0.9
		l-0.1-0.9l-0.1-0.8l-0.1-0.8L203,63l-0.1-0.7l-0.1-0.7l-0.3-1.4l0-0.2l1.9-0.6l0.1,0l0.1,0l0.2,0l0.2,0l0.2,0l0.3,0l0.3,0l0.3,0.1
		l0.3,0.1l0.3,0.1l0.3,0.2l0.3,0.2l0.3,0.3l0.3,0.3l0.3,0.4l0.3,0.5l0.3,0.5l0.3,0.6l0.3,0.7l0.1,0.3l0.1,0.3l0.1,0.4l0,0.5l0,0.7
		l-0.1,0.8l-0.1,0.9l-0.2,1l-0.7,2.5l-0.2,0.9l-0.2,0.8l-0.2,0.7l-0.2,0.6l-0.2,0.6l-0.2,0.5l-0.2,0.5l-0.2,0.5l-0.3,0.5l-0.3,0.5
		l-0.3,0.5l-0.3,0.5l-0.4,0.6l-0.4,0.6l-0.5,0.7l-0.6,0.8L202.7,82.3z M202.7,82.3"/>
	<path class="st4" d="M202.4,59.9l-0.1-0.5l-0.1-0.7l-0.1-0.8l-0.1-0.8l-0.1-0.8l-0.1-0.9l-0.1-0.9l0-1l0-1l0.1-0.2l0.1-0.3l0.1-0.3
		l0.2-0.4l0.2-0.4l0.2-0.5l0.2-0.5l0.3-0.5l0.3-0.5l0.3-0.5l0.3-0.5l0.4-0.5l0.4-0.5l0.4-0.5l0.4-0.4l0.1,0.3l0.1,0.5l0,0.6l0,0.7
		l0,0.8l0,0.8l0,0.9l0,0.9l0,0.9l0,1l0,0.9l0,0.9l0,0.9l0,0.8l0,0.7l0,1.1l0,0.7l-0.3-0.1l-0.3,0l-0.3,0l-0.2,0l-0.2,0l-0.2,0
		l-0.1,0l-0.1,0L202.4,59.9z M202.4,59.9"/>
	<path class="st5" d="M271.6,56.4l0.4-0.3l0.4-0.2l0.3-0.2l0.3-0.2l0.3-0.2l0.3-0.1l0.2-0.1L274,55l0.2-0.1l0.2-0.1l0.2-0.1l0.2,0
		l0.2,0l0.2,0l0.2,0l0.2,0l0.2,0l0.2,0l0.2,0l0.2,0l0.1,1.1l0.2,1.4l0.3,1.6l0.4,1.9l0.9,4.6l0.5,2.6l0.5,2.8l0.5,3.1l0.5,3.3
		l0.5,3.4l0.4,3.6l0.4,3.8l0.3,4l0.2,4.1l0.1,4.2l-0.1,4.4l-0.2,4.5l-0.4,4.6l-0.5,4.7l-0.1,0.7l-0.3,0.9l-0.5,1.1l-0.7,1.2
		l-0.8,1.3l-1,1.4l-1.1,1.5l-1.1,1.6l-1.2,1.7l-2.5,3.5l-1.3,1.8l-1.3,1.8l-1.2,1.8l-1.1,1.7l-1.1,1.7l-1,1.6l-0.8,1.5l-0.7,1.5
		l-0.5,1.3l-1.5,3l-1.4,2.9l-1.3,2.7l-1.2,2.6l-1.1,2.5l-1.1,2.3l-1,2.2l-0.9,2.1l-0.8,2l-0.7,1.9l-0.7,1.8l-0.6,1.7l-0.5,1.6
		l-0.4,1.5l-0.4,1.4l-0.3,1.4l-0.2,1.3l-1.7,5.1l-1.6,5.4l-1.5,5.8l-1.4,6l-1.4,6.3l-1.3,6.5l-1.3,6.7l-1.3,6.8l-1.3,6.9l-3.8,21
		l-1.3,7l-1.3,6.9l-1.3,6.8l-1.4,6.6l-1.5,6.5l-1.5,6.3l-1.6,6l-0.9,3.3l-0.8,3.1l-0.8,3l-0.8,2.8l-0.8,2.7l-0.8,2.5l-0.8,2.4
		l-0.8,2.3l-0.9,2.2l-0.9,2.1l-1,2l-1,1.9l-1.1,1.8l-1.2,1.7l-1.3,1.6l-1.4,1.6l-1.6,1.5l-1,0.9l-0.7,0.6l-1.8,1.4l-2,1.4l-5,3.4
		l-5.9,3.4l-6.7,3.4l-7.4,3.2l-8,3l-8.4,2.6l-8.8,2.2l-9,1.6l-9.1,0.9l-9.1,0.1l-9-0.7l-8.7-1.7l-8.3-2.8l-7.8-4.1l-7.2-5.4
		l-6.4-6.8l-5.5-8.3l-4.5-10L61,320.3l0.2-2.7l0.5-2.5l0.8-2.5l1.1-2.6l1.3-2.8l1.6-3.2l1.7-3.7l1.9-4.3l2-5.1l2.2-6l2.2-7l2.3-8.2
		l2.3-9.6l2.3-11l2.3-12.6l2.3-14.3l2.2-16.2l2.1-18.2l2-20.3l1.8-22.6l-0.2-2.1l-0.9-2.3l-1.5-2.5l-2-2.7l-2.5-2.8l-2.9-3l-3.2-3.1
		l-3.4-3.2l-7.3-6.8l-3.7-3.5l-3.6-3.6l-3.5-3.6l-3.3-3.6l-3-3.6l-2.6-3.6l-2.2-3.5L48.6,88l-1-3.4l-0.4-3.3l-0.2-2.2l-0.1-1.5
		l0-1.7l0.1-1.8l0.1-2l0.2-2.1l0.3-2.1l0.4-2.2l0.4-2.2l0.5-2.1l0.6-2l0.7-1.9l0.8-1.8l0.9-1.6l1-1.4l1.1-1.2l1.2-0.9l1.3-0.6
		l1.4-0.4l1,0.1l1,0.1l1.1,0.1l1.4,0.1l1.4,0l1.4-0.1l1.3-0.2l1.3-0.3l1.3-0.4l1.2-0.4l1.2-0.5l0.8,0.3l1.1,0.8l1.5,1.2l1.8,1.5
		l2,1.8l2.2,2.1l2.4,2.3l2.5,2.4l2.6,2.6l8,7.8l2.6,2.5l2.4,2.3l2.3,2.2l2.1,1.9l1.8,1.6l1.6,1.3l1.2,0.9l0.9,0.5l0.9,0.6l0.6,0.8
		l0.4,0.9l0.2,1l0,1.1l3.7,4.1l1.6,1.7l1.4,1.5l1.3,1.3l1.2,1.2l1.1,1l1,0.9l0.9,0.7l0.9,0.6l0.8,0.5l0.8,0.4l0.8,0.3l0.9,0.3
		l0.9,0.2l1,0.2l1.1,0.1l2.4,0.4l1.6,0.6l0.9,0.9l0.3,1.1l-0.3,1.2l2.8,0.9l2.3,0.9l1.8,1l1.4,1l1,1.1l0.7,1.1l0.4,1.1l0.1,1.1
		l-0.1,1l-0.3,1l-0.4,1l0.7-0.1l0.6-0.1l0.6,0l0.5,0l0.5,0l0.4,0.1l0.4,0.1l0.3,0.1l0.3,0.1l0.2,0.1l0.2,0.1l0.2,0.1l0.1,0.1
		l0.1,0.1l0.1,0.1l0.1,0.1l0,0.1l0,0.1l0,0l0,0l0.1,1l0.1,1l0.1,1l0,0.9l0,0.9l0,0.8l0,0.8l-0.6,0.8l-0.5,0.9l-0.5,1l-0.4,1.1
		l-0.4,1.2l-0.3,1.3l-0.3,1.3l-0.3,1.4l-0.2,1.4l-0.2,1.4l-0.2,1.4l-0.2,1.4l-0.3,2.7l-0.2,1.5l-0.1,1.5l-0.1,1.5l-0.1,1.5l-0.1,1.5
		l-0.1,1.4l0,1.4l-0.1,2.6l0,1.2l-0.1,1.1l-0.1,1l-0.1,0.9l-0.1,0.8l-0.1,0.7l-0.2,0.6l-0.2,0.5l-0.2,0.4l-0.3,0.2l-0.3,0.1l0.9,0.1
		l2.1,0.3l3.5,0l3.2-0.3l2.9-0.7l2.6-1l2.4-1.3l2.2-1.5l2.1-1.8l1.9-2l1.8-2.1l1.7-2.2l1.6-2.3l1.6-2.4l1.6-2.4l1.6-2.4l0.8-1.2
		l0.7-0.7l0.7-0.7l0.6-0.7l0.6-0.6l0.5-0.6l0.5-0.6l0.5-0.6l0.5-0.6l0.4-0.6l0.4-0.5l0.4-0.5l0.4-0.5l0.4-0.5l0.4-0.4l0.4-0.4
		l0.4-0.4l0.4-0.3l0.5-0.3l0.5-0.3l0.5-0.2l1.3-0.7l1.2-0.8l1.1-0.9l1-1l0.9-1.1l0.8-1.2l0.7-1.2l0.7-1.3l0.6-1.3l0.6-1.3l0.5-1.3
		l0.5-1.2l0.2-0.4l0.3-0.8l0.4-1.1l0.4-1.1l0.4-1l0.4-0.9l0.4-0.8l0.5-0.6l0.3-0.2l0.4-0.2l0.6-0.1l0.7-0.1l0.8,0l0.9,0l1,0l2.2,0
		l1.2,0l1.2,0l1.2,0l1.2-0.1l1.2-0.1l1.2-0.1l1.1-0.2l1.1-0.3l1-0.3l0.9-0.4l0.8-0.5l1-1.3l1-1.3l1-1.2l1-1.1l1-1.1l1-1l1-1l1-0.9
		l1-0.9l1-0.8l1-0.8l1-0.7l1-0.7l1.1-0.7l1.1-0.6l1.1-0.6l1.1-0.6l1.1-0.6l1.1-0.6l1.1-0.6l0.1-1.9l0.1-2.5l0.2-2.6l0.3-2.6l0.5-2.6
		l0.7-2.6l0.8-2.5l1.1-2.4l1.3-2.2l1.6-2l1.9-1.8l2.2-1.5l0.9-0.4l0.8-0.3l0.8-0.3l0.8-0.2l0.7-0.2l0.7-0.1l0.7-0.1l0.6,0l0.6,0
		l0.5,0l0.5,0.1l0.5,0.1l0.4,0.1l0.4,0.1l0.3,0.1l0.3,0.1l0.2,0.1l0.2,0.1l0.1,0l0,0l0.1,0l0.4-0.7l0.5-0.8l0.5-0.7l0.6-0.6l0.6-0.5
		l0.6-0.5l0.6-0.4l0.6-0.4l0.6-0.3l0.5-0.3l0.5-0.3l0.5-0.3l0.5-0.4l0.4-0.4L271.6,56.4z M271.6,56.4"/>
	<path class="st4" d="M198.4,24.7l-1,0.4l-0.9,0.4l-0.8,0.4l-0.7,0.4l-0.7,0.5l-0.6,0.5l-0.6,0.5l-0.6,0.5l-0.6,0.5l-0.6,0.6
		l-1.1,1.1l-0.6,0.6l-0.6,0.6l-0.6,0.6l-0.7,0.6l-0.7,0.6l-1.1,0.8l-1,0.7l-0.9,0.6l-0.8,0.6l-1.5,1l-0.6,0.5l-0.6,0.4l-0.6,0.4
		l0-0.1l-0.1-0.2l-0.2-0.3l-0.2-0.4l-0.3-0.5l-0.4-0.5l-0.5-0.6l-0.5-0.6l-0.6-0.6l-0.7-0.7l-0.8-0.7l-0.9-0.7l-1-0.6l-1.1-0.6
		l-1.2-0.6l-1.3-0.5l-1.4-0.5l-1.5-0.4l-1.6-0.3l-1.7-0.2l-1.8,0.6l-1.7,0.7l-1.7,0.8l-1.7,0.8l-1.6,0.9l-1.6,0.9l-1.6,0.9l-1.6,0.8
		l-1.6,0.7l-1.6,0.6l-1.6,0.5l-1.6,0.4l-1.6,0.2l-1.6,0l-0.2,0.1l-0.2,0.1l-0.3,0.2l-0.4,0.2l-0.4,0.3l-0.4,0.3l-0.5,0.4l-0.5,0.4
		l-0.5,0.4l-0.5,0.5l-0.5,0.5l-0.5,0.6l-0.5,0.6l-0.5,0.7l-0.4,0.7l-0.4,0.8l-0.3,0.8l-0.2,0.8l-0.2,0.9l-0.2-0.5l-0.3-0.6l-0.3-0.6
		l-0.3-0.6l-0.4-0.7l-0.4-0.7l-0.5-0.7l-0.5-0.7l-0.6-0.7l-0.6-0.8l0.1-3.1l0.3-2.8l0.5-2.6l0.7-2.4l0.8-2.2l0.9-2l1-1.8l1.1-1.6
		l1.1-1.4l1.1-1.2l1.1-1.1l1.1-0.9l1-0.8l1-0.7l0.9-0.5l0.7-0.4l0.6-0.3l0.4-0.2l0.2-0.1l2.9-1.5l2.7-1.3l2.5-1.1l2.3-1l2.1-0.8
		l2-0.7l1.9-0.6l1.8-0.4l1.7-0.3l1.6-0.2l1.5-0.1l1.5,0l1.5,0.1l1.4,0.2L173,7l1.5,0.3l1.5,0.4l1.6,0.5l1.7,0.5l1.8,0.6l1.4,0.5
		l1.3,0.6l1.3,0.6l1.2,0.7l1.2,0.7l1.1,0.7l1.1,0.8l1,0.8l1,0.8l0.9,0.8l0.9,0.8l0.8,0.9l0.7,0.9l0.7,0.9l0.6,0.9l0.6,0.8l0.5,0.8
		l0.4,0.8l0.4,0.8L198.4,24.7z M198.4,24.7"/>
	<path class="st2" d="M180,38.6l-0.5,0.5l-0.5,0.5l-0.5,0.5l-0.5,0.6l-0.5,0.6L177,42l-0.5,0.8l-0.5,0.9l-0.5,1l-0.6,1.2l-0.6,1.3
		l-0.3,0.4l-0.7,0.5l-0.8,0.5l-0.8,0.5l-0.9,0.5l-1,0.5l-1,0.5l-1.1,0.5l-1.1,0.5l-1.2,0.5l-2.4,1l-1.2,0.5l-1.2,0.5l-1.2,0.5
		l-1.1,0.6l-1.1,0.6l-1.1,0.6l-1,0.6l-0.9,0.6l-0.9,0.6L153,59l-0.3,0.5l0,0l0,0l0-0.1l0-0.1l0-0.1l0-0.1l0-0.1l0-0.1l-0.1-0.1
		l-0.1-0.1l-0.1-0.2l-0.1-0.2l-0.1-0.2l-0.1-0.2l-0.2-0.2l-0.2-0.2l0,0l-0.1-0.1l-0.1-0.1l-0.2-0.1l-0.2-0.2l-0.3-0.2l-0.4-0.2
		l-0.4-0.3l-0.5-0.3l-0.6-0.3l-0.7-0.4l-0.9-0.4l-1-0.5L145,54l-1.3-0.6l-1.4-0.6l-1.6-0.6l-1.8-0.7l-2-0.7l-2.2-0.8l0,0l0-0.1
		l0-0.2l-0.1-0.2l-0.1-0.3l-0.1-0.3l-0.1-0.4l-0.1-0.4l-0.2-0.4l-0.2-0.5l0.2-0.9l0.2-0.8l0.3-0.8l0.4-0.8l0.4-0.7l0.5-0.7l0.5-0.6
		l0.5-0.6l0.5-0.5l0.5-0.5l0.5-0.4l0.5-0.4l0.5-0.4l0.4-0.3l0.4-0.3l0.4-0.2l0.3-0.2l0.2-0.1l0.2-0.1l1.6,0l1.6-0.2l1.6-0.4l1.6-0.5
		l1.6-0.6l1.6-0.7l1.6-0.8l1.6-0.9l1.6-0.9l1.6-0.9l1.7-0.8l1.7-0.8l1.7-0.7l1.8-0.6l1.7,0.2l1.6,0.3l1.5,0.4l1.4,0.5l1.3,0.5
		l1.2,0.6l1.1,0.6l1,0.6l0.9,0.7l0.8,0.7l0.7,0.7l0.6,0.6l0.5,0.6l0.5,0.6l0.4,0.5l0.3,0.5l0.2,0.4l0.2,0.3l0.1,0.2L180,38.6z
		 M180,38.6"/>
	<path class="st6" d="M113.4,721.9l-2.5-0.8l-0.5-0.2l0-0.1l-0.1-0.2l-0.1-0.3L110,720l-0.1-0.5l-0.1-0.6l-0.1-0.7l-0.1-0.8
		l-0.1-0.8l-0.1-0.9l0-1l0-1.1l0.1-1.1l0.1-1.2l0.2-1.3l0.3-1.3l0.4-1.4l0.5-1.4l0.6-1.5l0.7-1.5l-0.4-2.5l-0.5-2.4l-0.5-2.4
		l-0.5-2.3l-0.4-2.1l-0.3-2l-0.2-1.7l-0.1-1.5l0.1-1.2l0.2-0.9l0.5-0.6l0.7-0.3l0.3,0.5l0.5,0.4l0.7,0.3l0.8,0.3l1,0.2l1.1,0.2
		l1.2,0.2l1.3,0.1l1.4,0.1l1.5,0l1.6,0l1.6,0l1.7,0l1.7-0.1l1.7-0.1l1.7-0.1l1.7-0.1l1.7-0.1l1.7-0.1l1.9-0.2l1.7-0.3l1.5-0.4
		l1.3-0.5l1.1-0.6l1-0.6l0.8-0.7l0.7-0.7l0.5-0.7l0.4-0.7v-4.8l0.8-0.1l0.7,0.2l0.5,0.5l0.4,0.7l0.3,1l0.2,1.2l0.1,1.4l0.1,1.6
		l0,1.7l0,1.9l0,2l0.1,2.1l0.1,2.1l0.2,2.2l0.3,2.2l0.5,2.2l0.6,2.2l0.8,2.1l1,2.1l1.2,2l-0.7,1.7l-0.9,1.7l-1.1,1.6l-1.3,1.6
		l-1.5,1.5l-1.7,1.5l-1.9,1.4l-2.1,1.3l-2.2,1.2l-2.4,1.1l-2.5,0.9l-2.6,0.8l-2.7,0.6l-2.8,0.4l-2.9,0.2l-2.9,0l-3-0.2l-3-0.5
		L113.4,721.9z M113.4,721.9"/>
	<path class="st7" d="M88.3,775.9l4.4,0.8l4.1,0.4l3.8,0.1l3.5-0.1l3.3-0.3l3-0.5l2.8-0.7l2.5-0.8l2.3-0.9l2.1-1l1.9-1.1l1.6-1.1
		l1.4-1.1l1.2-1l1-0.9l0.8-0.8l0.7-0.7l0.2-0.3l0.2-0.5l0.1,0.1l0.1,0.1l0.1,0.2l0.1,0.2l0.1,0.3l0.1,0.3l0,0.4l0,0.4l0,0.4l0,0.4
		l0,0.4l0,0.4l0,0.4l0,0.4l0,0.4l-0.1,0.3l-0.1,0.3l-0.1,0.2l-0.1,0.2l-0.1,0.1l-0.1,0.1l-0.2,0.3l-0.4,0.4l-0.6,0.6l-0.8,0.7
		l-1,0.8l-1.2,0.9l-1.4,0.9l-1.6,0.9l-1.8,0.9l-2.1,0.9l-2.3,0.9l-2.5,0.8l-2.8,0.7l-3.1,0.6l-3.3,0.5l-3.6,0.3l-3.9,0.2l-4.2-0.1
		l-3.4-0.2l-0.2,0l-0.2-0.1l-0.2-0.2l-0.2-0.2l-0.2-0.3l-0.1-0.4l-0.1-0.4l-0.1-0.4l-0.1-0.4l-0.1-0.5l0-0.5l0-0.5l0-0.5l0-0.4
		l0.1-0.4l0.1-0.4l0.1-0.3l0.1-0.3l0.2-0.2L88.3,775.9z M88.3,775.9"/>
	<path class="st8" d="M64.3,332l4.5,10l5.5,8.3l6.4,6.8l7.2,5.4l7.8,4.1l8.3,2.8l8.7,1.7l9,0.7l9.1-0.1l9.1-0.9l9-1.6l8.8-2.2
		l8.4-2.6l8-3l7.4-3.2l6.7-3.4l5.9-3.4l5-3.4l2-1.4l1.8-1.4l0.7-0.6v8.8l0,3.2l-0.1,3.2l-0.2,3.3l-0.2,3.3l-0.3,3.3l-0.3,3.2
		l-0.4,3.2l-0.4,3.1l-0.4,3l-0.4,2.9l-0.4,2.7l-0.4,2.5l-0.4,2.3l-0.4,2.1l-0.3,1.9l-0.3,1.6l-0.2,1.3l-0.2,0.9l-0.2,0.8l-0.3,7.5
		l-0.9,8l-1.3,8.4l-1.8,8.7l-2.1,8.9l-2.4,9.1l-2.7,9.2l-2.8,9.2l-2.9,9.1l-2.9,8.9l-5.7,17.1l-2.6,8l-2.4,7.5l-2.1,6.9l-1.7,6.2
		l-1.2,5.5l-0.7,4.6l-0.1,3.7l0.6,2.7l1,1.1l0.4,1.2l-0.2,1.2l-0.8,1.3l-1.2,1.3l0,0.7l0.1,0.8l0.1,0.8l0.1,0.9l0.2,0.9l0.2,1l0.2,1
		l0.4,2.1l0.2,1l0.2,1l0.2,1l0.1,1l0.1,0.9l0.1,0.9l0,0.8l0,0.7l-0.1,0.7l-0.1,0.6l-0.2,0.5l1.2,0.5l0.9,0.6l0.6,0.8l0.3,0.9l0.1,1
		l-0.1,1.1l-0.3,1.1l1.7,0.7l1.1,1l0.6,1.3l0.1,1.5l-0.3,1.7l0.3,0.8l3.4,2.5l3.1,3l2.8,3.4l2.5,3.8l2.3,4.1l2,4.3l1.8,4.5l1.5,4.7
		l1.3,4.7l1.1,4.7l0.9,4.7l0.7,4.6l0.5,4.4l0.4,4.2l0.2,3.9l0.1,3.5l1.6,2.6l1.2,2.4l1,2.2l0.7,2l0.5,1.8l0.3,1.7l0.2,1.5l0,1.4
		l0,1.3l-0.1,1.1l-0.1,1.1l0,0.2l0,0.2l0,0.2l0,0.2l0,0.2l0,0.2l0,0.7l0,0.9l0.1,0.8l0.3,0.8l0.4,0.8l0.6,0.8l0.9,0.8l1.1,0.8
		l0.3,0.8l0.3,0.8l0.3,0.8l0.2,0.8l0.1,0.8l0,0.9l-0.1,0.9l-0.2,0.9l-0.3,0.9l-0.5,1l-0.7,1l-0.9,1l-1.1,1.1l-1.3,1.1l-1.5,1.2
		l-1.8,1.2l-2,1.3l-2.3,1.3l-2.6,1.4l-1.2,0.4l-1.3,0.4l-1.4,0.4l-1.5,0.4l-1.6,0.4l-1.6,0.3l-1.6,0.3l-1.6,0.2l-1.6,0.1l-1.5,0
		l-1.4-0.1l-1.3-0.3l-1.2-0.4l-1.1-0.6l-0.9-0.8l-0.7-0.9l-0.4-1l-0.1-0.2l-0.3-1.4l0-1.6l0.3-1.8l-0.9-0.7l-0.7-0.9l-0.6-1.1
		l-0.4-1.2l-0.1-1.4l-1.2-1l-0.9-1.3l-0.6-1.6l-0.1-1.9l0.3-2.3l-1.1-2.6l-1.1-2.5l-1.1-2.5l-1.1-2.5l-1.1-2.5l-1.2-2.6l-1.3-2.6
		l-1.4-2.8l-1.5-2.9l-1.6-3.1l-1.7-3.4l-1.1-2.1v8.2l0.8,0.7l0.5,0.7l0.2,0.6l-0.1,0.6l-0.3,0.6l-0.5,0.6l-0.7,0.6l-0.4,0.3v8.1
		l1.6,0.4l1.2,0.5l0.9,0.5l0.5,0.6l0.2,0.6l-0.1,0.7l-0.3,0.7l-0.5,0.7l-0.7,0.7l-0.9,0.7l-0.5,0.3l0,0.2v1.8v4.8l-0.4,0.7l-0.5,0.7
		l-0.7,0.7l-0.8,0.7l-1,0.6l-1.1,0.6l-1.3,0.5l-1.5,0.4l-1.7,0.3l-1.9,0.2l-1.7,0.1l-1.7,0.1l-1.7,0.1l-1.7,0.1l-1.7,0.1l-1.7,0.1
		l-1.7,0l-1.6,0l-1.6,0l-1.5,0l-1.4-0.1l-1.3-0.1l-1.2-0.2l-1.1-0.2l-1-0.2l-0.8-0.3l-0.7-0.3l-0.5-0.4l-0.3-0.5l-0.1-0.5v-5.1
		l-1.2-0.4l-1-0.5l-0.7-0.6l-0.4-0.6l-0.1-0.7l0.3-0.8l0.8-0.9l0.3-0.3l0.3-0.4l0.2-0.5l0.2-0.5l0.1-0.6l0.1-0.6l0.1-0.7l0-0.7
		l0-0.7l-0.1-0.7l-0.1-0.7l-0.1-0.7l-0.1-0.7l-0.2-0.7l-0.2-0.7l-0.2-0.6l-0.2-0.6l-0.3-0.6l-0.3-0.5l-0.3-0.4l-0.7-0.3l-0.5-0.4
		l-0.3-0.4l0-0.5l0.2-0.5l0.5-0.6l0.8-0.7l0-0.3l0-0.3l0-0.2l0-0.2l0-0.2l0-0.2l0-0.2l0-0.2l0-0.2l0-0.2l0-0.2l0-0.2l0-0.2l0-0.3
		l0-0.3l0-0.3l0-0.4l0-0.4l0-0.5l0-0.5l-0.1-5l-0.3-4.8l-0.4-4.6l-0.5-4.4l-0.6-4.3l-0.7-4.2l-0.7-4.2l-1.5-8.3l-0.7-4.2l-0.7-4.2
		l-0.6-4.3l-0.6-4.4l-0.4-4.6l-0.3-4.7l-0.2-4.9l0-5.2l0.2-5.4l0.4-5.7l0.7-6l-0.5-0.3l-0.5-0.3l-0.4-0.3l-0.4-0.3l-0.3-0.3
		l-0.3-0.3l-0.2-0.3l-0.1-0.3l0-0.3l0-0.4l0.1-0.4l0.1-0.4l0.1-0.4l0.2-0.3l0.2-0.3l0.2-0.3l0.2-0.3l0.2-0.3l0.3-0.3l0.3-0.3
		l0.2-0.3l0.2-0.3l0.2-0.4l0.2-0.4l0.2-0.4l0.1-0.4l0.1-0.5l0.1-0.5l0-0.5l-0.6-1.1l-0.6-1.1l-0.6-1.1l-0.5-1.1l-0.5-1.2l-0.5-1.1
		l-0.4-1.1l-0.4-1.1l-0.3-1.1l-0.3-1.1l-0.2-1l-0.1-1l-0.1-1l0-0.9l0.1-0.9l0.2-0.8l0.3-0.7l0.4-0.7l0.5-0.6l-1.3-3.8l-2.1-5.5
		l-2.7-7l-3.2-8.3l-3.6-9.5l-3.8-10.5l-4-11.4l-4-12L69,448.7l-3.6-12.9l-3.3-13.1l-2.8-13.1l-2.2-13l-1.4-12.6l-0.5-12.1l0.5-11.4
		l1.6-10.6l2.8-9.5L64.3,332z M64.3,332"/>
	<path class="st5" d="M203.7,344.5l1-0.9l1.6-1.5l1.4-1.6l1.3-1.6l1.2-1.7l1.1-1.8l1-1.9l1-2l0.9-2.1l0.9-2.2l0.8-2.3l0.8-2.4
		l0.8-2.5l0.8-2.7l0.8-2.8l0.8-3l0.8-3.1l0.9-3.3l-0.1,4.6l-0.1,1.1l0.2,4.8l0,2l0,2l0,2l-0.1,2l-0.1,2l-0.2,2l-0.3,2l-0.4,2l-0.5,2
		l-0.6,2l-0.7,1.9l-0.9,1.9l-1.1,1.9l-1.2,1.8l-1.4,1.8l-1.6,1.7l-1.8,1.7l-2.1,1.6l-2.3,1.6l-2.6,1.5V344.5z M203.7,344.5"/>
	<path class="st1" d="M150.9,777.7l-0.1-0.5l-0.1-0.5l0-0.6l0-0.7l0.1-0.8l0.1-1l0.2-1.1l0.3-1.2l0.4-1.3l0.5-1.4l0.6-1.6l0.8-1.7
		l0.9-1.8l1.1-2l1.3-2.1l0.5-0.9l0.6-1l0.6-1.1l0.6-1.2l0.6-1.3l0.6-1.4l0.6-1.5l0.6-1.6l0.6-1.6l0.6-1.7l0.6-1.7l0.6-1.8l0.6-1.8
		l0.6-1.8l0.5-1.8l0.5-1.8l0.5-1.8l0.5-1.8l0.5-1.8l0.5-1.7l0.5,0.4l0.7,0.2l2.4,0.1l1.6,0l1.7,0l1.8,0l1.8,0l1.9,0l1.9-0.1l1.9-0.1
		l1.9-0.2l1.9-0.2l1.8-0.3l1.8-0.4l1.7-0.5l1.7-0.6l1.6-0.7l1.5-0.8l1.3-0.9l1.2-1l1.1-1.1l0.9-1.3l0.4-0.6l0.4-0.6l0.4-0.6l0.3-0.5
		l0.3-0.5l0.3-0.5l0.2-0.5l0.2-0.5l0.2-0.5l0.2-0.5l0.1-0.6l0.1-0.6l0.1-0.6l0.1-0.6l0.1-0.7l0-0.7l0-0.8l0-0.8l0-0.9l0-0.9l0.3,0.9
		l0.3,1l0.2,1.1l0.2,1.2l0.1,1.2l0.1,1.3l0,1.4l0,1.4l-0.1,1.5l-0.1,1.5l-0.2,1.6l-0.3,1.6l-0.3,1.7l-0.4,1.7l-0.4,1.8l-0.5,1.8
		l-0.6,1.8l-0.6,1.9l-0.7,1.9l-0.8,1.9l-0.3,0.8l-0.3,0.8l-0.9,2.1l-0.3,0.6l-0.3,0.6l-0.2,0.6l-0.2,0.6l-0.2,0.6l-0.2,0.6l-0.2,0.5
		l-0.2,0.5l-0.1,0.5l-0.1,0.5l-0.1,0.5l-0.1,0.5l-0.1,0.6l0,0.6l0,0.6l0,0.8l-0.1,0.9l-0.1,0.9l-0.2,1l-0.2,1l-0.2,1l-0.3,1.1
		l-0.3,1.1l-0.3,1.1l-0.3,1l-0.3,1l-0.3,1l-0.3,0.9l-0.3,0.9l-0.3,0.8l-0.3,0.7l-0.2,0.6l-0.2,0.5l-0.2,0.4l-0.1,0.3l-0.5,0.8
		l-0.8,0.9l-1,1.1l-1.3,1.1l-1.5,1.2l-1.7,1.2l-1.9,1.3l-2.1,1.2l-2.3,1.2l-2.4,1.1l-2.5,1l-2.6,0.9l-2.7,0.7l-2.7,0.5l-2.8,0.3
		l-2.8,0l-2.8-0.3l-2.7-0.6l-2.7-0.9l-2.6-1.3l0-0.1l-0.1-0.1l-0.1-0.2l-0.1-0.3L150.9,777.7z M150.9,777.7"/>
	<path class="st6" d="M205.9,708.1l0,0.9l0,0.9l0,0.8l0,0.8l0,0.7l-0.1,0.7l-0.1,0.6l-0.1,0.6l-0.1,0.6l-0.1,0.6l-0.2,0.5l-0.2,0.5
		l-0.2,0.5l-0.2,0.5l-0.3,0.5l-0.3,0.5l-0.3,0.5l-0.4,0.6l-0.4,0.6l-0.4,0.6l-0.9,1.3l-1.1,1.1l-1.2,1L198,725l-1.5,0.8l-1.6,0.7
		l-1.7,0.6l-1.7,0.5l-1.8,0.4l-1.8,0.3l-1.9,0.2l-1.9,0.2l-1.9,0.1l-1.9,0.1l-1.9,0l-1.8,0l-1.8,0l-1.7,0l-1.6,0l-2.4-0.1l-0.7-0.2
		l-0.5-0.4l-0.4-0.5l-0.2-0.7l-0.1-0.8l0-0.9l0.1-1l0.1-1l0.2-1.1l0.2-1.1l0.2-1.1l0.4-2l0.2-0.9l0.2-0.8l0.1-0.7l0-0.6l-0.1-0.5
		l-0.2-0.3l-0.9-0.8l-0.6-1l-0.4-1.1l-0.1-1.2l0.3-1.4l0.6-1.5l1-1.7l-0.1-0.6l-0.2-0.6l-0.2-0.6l-0.2-0.5l-0.2-0.5l-0.2-0.5
		l-0.2-0.5l-0.2-0.5l-0.2-0.5l-0.2-0.5l-0.2-0.5l-0.1-0.5l-0.1-0.5l-0.1-0.6l-0.1-0.6l0-0.6l0-0.6v-0.4l0.4,1l0.7,0.9l0.9,0.8
		l1.1,0.6l1.2,0.4l1.3,0.3l1.4,0.1l1.5,0l1.6-0.1l1.6-0.2l1.6-0.3l1.6-0.3l1.6-0.4l1.5-0.4l1.4-0.4l1.3-0.4l1.2-0.4l2.6-1.4l2.3-1.3
		l2-1.3l1.8-1.2l1.5-1.2l1.3-1.1l1.1-1.1l0.6,0l0.5,0.5l0.4,0.9l0.3,1.3l0.3,1.6l0.2,1.9l0.1,2.1l0.1,2.3l0,2.4l0,2.5l0.3,0.1
		l0.3,0.2l0.3,0.4l0.3,0.5l0.3,0.6l0.3,0.7l0.3,0.8L205.9,708.1z M205.9,708.1"/>
	<path class="st7" d="M151.2,778.8l2.6,1.3l2.7,0.9l2.7,0.6l2.8,0.3l2.8,0l2.8-0.3l2.7-0.5l2.7-0.7l2.6-0.9l2.5-1l2.4-1.1l2.3-1.2
		l2.1-1.2l1.9-1.3l1.7-1.2l1.5-1.2l1.3-1.1l1-1.1l0.8-0.9l0.5-0.8l0.1,0l0.1,0.1l0.1,0.1l0.1,0.2l0.1,0.2l0.1,0.2l0,0.3l0,0.3l0,0.3
		l0,0.3l0,0.3l0,0.3l-0.1,0.3l-0.1,0.3l-0.1,0.3l-0.1,0.3l-0.1,0.3l-0.1,0.3l-0.2,0.2l-0.2,0.2l-1.4,1.2l-1.5,1.2l-1.5,1.3l-1.6,1.3
		l-1.7,1.2l-1.8,1.2l-1.9,1.2l-2,1.1l-2.1,1l-2.1,0.9l-2.2,0.8l-2.3,0.6l-2.4,0.5l-2.5,0.3l-2.6,0.1l-2.7-0.1l-2.8-0.4l-2.9-0.6
		l-3.1-0.9l-0.2,0l-0.2-0.1l-0.2-0.1l-0.2-0.2l-0.2-0.2L151,783l-0.1-0.3l-0.1-0.3l-0.1-0.3l-0.1-0.3l0-0.4l0-0.4l0-0.4l0-0.3l0-0.3
		l0.1-0.3l0.1-0.3l0.1-0.2l0.1-0.2L151.2,778.8z M151.2,778.8"/>
	<path class="st9" d="M139.8,754.4l-8.4-1.9 M139.8,754.4l2-17.9 M140.4,738.1l1.4-1.6 M139,739.7l1.4-1.6 M137.6,741.4l1.4-1.7
		 M136.2,743.1l1.4-1.7 M134.9,744.9l1.4-1.8 M133.5,746.7l1.3-1.8 M132.2,748.6l1.3-1.9 M132.1,749.2l0.2-0.6 M131.9,749.9l0.2-0.7
		 M131.7,750.7l0.2-0.8 M131.5,751.6l0.2-0.9 M131.4,752.5l0.2-1 M137.1,69.4l0.1,0.2 M137.3,69.3l-0.2,0.2 M137.3,69.3l-0.2,0.1
		 M129.9,76.8l0.9,0.1 M129,76.8l0.9,0.1 M128.2,76.7l0.8,0.1 M127.4,76.6l0.8,0.1 M126.7,76.5l0.7,0.1 M126.7,76.5L126.7,76.5
		 M126.7,76.5l0.3,1.4 M127,77.8l0.3,1.3 M127.3,79.2l0.3,1.2 M127.6,80.4l0.3,1.1 M127.9,81.5l0.3,1.1 M128.2,82.6l0.3,1
		 M128.5,83.6l0.3,0.9 M128.8,84.5l0.3,0.9 M129.1,85.4l0.3,0.8 M129.4,86.2l0.3,0.7 M129.7,86.9l0.2,0.6 M129.9,87.5l0.2,0.6
		 M130.1,88.1l0.2,0.5 M130.4,88.6l0.2,0.4 M130.6,89l0.2,0.4 M130.7,89.4l0.1,0.3 M130.9,89.7l0.1,0.2 M131,89.9l0.1,0.2
		 M131.1,90.1L131.1,90.1 M131.1,90.2L131.1,90.2 M131.1,90.2l0.1,0.2 M131.2,90.4l0.1,0.1 M131.3,90.5L131.3,90.5 M131.4,90.6
		l0.2,0.3 M131.6,91l0.8,1 M133.3,93.3l1,1.2 M134.3,94.5l0.9,1.2 M136.2,96.8l0.9,1.1 M137.1,97.9l0.9,1 M137.9,98.9l0.8,0.9
		 M138.8,99.8l0.8,0.9 M139.6,100.7l0.7,0.8 M140.3,101.5l0.7,0.7 M141,102.2l0.6,0.7 M141.6,102.9l0.4,0.4 M142,103.3l0.2,0.2
		 M142.8,104l0.3,0.3 M143.1,104.3l0.3,0.3 M143.4,104.6l0.3,0.2 M143.7,104.8l0.3,0.2 M144,105l0.3,0.2 M144.3,105.2l0.2,0.2
		 M144.5,105.3l0.2,0.1 M144.8,105.5l0.2,0.1 M145,105.6l0.2,0.1 M145.2,105.7l0.2,0.1 M145.3,105.7l0.1,0.1 M145.5,105.8l0.1,0
		 M145.6,105.8L145.6,105.8 M145.7,105.9L145.7,105.9 M145.7,105.9L145.7,105.9 M145.8,105.9L145.8,105.9 M146.5,106l0.6,0
		 M147,105.9l0.5-0.1 M147.5,105.8l0.4-0.2 M147.9,105.7l0.3-0.2 M148.2,105.4l0.2-0.3 M148.4,105.2l0.2-0.3 M148.6,104.9l0.1-0.4
		 M148.7,104.1l0-0.4 M148.7,103.7l0-0.4 M148.7,103.3l-0.1-0.4 M148.6,102.9l-0.1-0.4 M148.6,102.5l-0.1-0.4 M148.4,102.1l-0.1-0.4
		 M148.3,101.8l-0.1-0.3 M148.2,101.4l-0.1-0.3 M148.1,101.2l-0.1-0.2 M147.9,100.9l-0.2-0.3 M147.8,100.6l-0.3-0.4 M147.5,100.3
		l-0.3-0.4 M147.2,99.9l-0.4-0.4 M146.8,99.5l-0.4-0.4 M145.6,98.3l0.8,0.7 M144.7,97.6l0.9,0.8 M143.8,96.8l0.9,0.8 M143,95.9
		l0.9,0.8 M142.1,95.1l0.9,0.8 M141.2,94.2l0.9,0.9 M140.4,93.3l0.9,0.9 M139.6,92.4l0.8,0.9 M138.7,91.4l0.8,1 M137.9,90.4l0.8,1
		 M137.2,89.4l0.8,1 M136.4,88.3l0.7,1.1 M135.8,87.2l0.7,1.1 M135.1,86.1l0.6,1.1 M134.5,84.9l0.6,1.2 M134,83.6l0.5,1.2
		 M133.5,82.4l0.5,1.3 M133.1,81.1l0.4,1.3 M132.7,79.7l0.4,1.4 M132.4,78.3l0.3,1.4 M132.4,78.3l0-0.6 M132.4,77.7l0-0.6 M131.8,77
		l0.6,0.1 M152.6,61.9l0.2,0.4 M152.8,62.3l0.2,0.4 M153,62.7l0.2,0.3 M153.2,63l0.3,0.3 M153.5,63.3l0.3,0.2 M153.8,63.5l0.3,0.2
		 M154,63.7l0.3,0.1 M154.3,63.8l0.3,0.1 M154.6,63.9l0.2,0 M154.8,63.9l1.1,0.1 M155.9,64l0.6,0 M156.5,64.1l0.4,0 M156.9,64.1
		L156.9,64.1 M157,64.1l0.4,0 M157.4,64.1l0.4,0 M157.8,64.1l0.8,0 M158.6,64.1l0.7,0 M159.4,64.1l0.6,0 M160,64.1L160,64.1
		 M160,64.1L160,64.1 M160.2,64.2L160.2,64.2 M160.3,64.2l-0.1,0 M160.3,64.2l2.3-1.5 M162.6,62.7l2.1-1.2 M164.7,61.4l2-1
		 M166.8,60.5l1.9-0.7 M168.6,59.7l1.8-0.5 M170.4,59.2l1.6-0.3 M172.1,58.8l1.5-0.2 M173.6,58.7l1.4,0 M175,58.7l1.3,0.1
		 M176.3,58.8l1.2,0.2 M177.5,59l1.1,0.3 M178.6,59.4l1,0.4 M179.6,59.8l0.9,0.5 M180.5,60.3l0.8,0.5 M181.3,60.8l0.7,0.5
		 M182.1,61.3l0.6,0.5 M182.7,61.9l0.6,0.5 M183.3,62.4l0.2,0.9 M183.4,63.3l0,0.9 M183.5,64.2l-0.1,0.8 M183.4,65l-0.2,0.7
		 M183.2,65.7l-0.3,0.7 M183,66.4l-0.3,0.6 M182.6,67l-0.4,0.6 M182.2,67.6l-0.5,0.5 M181.7,68.1l-0.5,0.5 M181.2,68.6l-0.5,0.4
		 M180.7,69l-0.5,0.4 M180.2,69.4l-0.6,0.3 M179.6,69.7l-0.5,0.3 M179.1,70l-0.5,0.2 M178.5,70.2l-0.5,0.2 M178,70.4l-0.5,0.2
		 M177.6,70.6l-0.4,0.1 M177.2,70.7l-0.3,0.1 M176.8,70.8l-0.3,0.1 M176.4,70.9l0.2,0 M175.4,70.9l1,0 M174.3,70.8l1.1,0.1
		 M173.2,70.6l1.1,0.2 M172,70.3l1.2,0.3 M170.7,69.8l1.3,0.5 M169.3,69.2l1.4,0.6 M167.8,68.5l1.5,0.7 M166.2,67.6l1.6,0.9
		 M164.6,66.5l1.7,1.1 M164.6,66.5l-0.4-0.3 M164.2,66.2l-0.4-0.3 M163.8,65.9l-0.4-0.3 M163.4,65.6l-0.4-0.2 M163.1,65.3l-0.4-0.2
		 M162.7,65.1l-0.7-0.4 M162,64.8l-0.3-0.1 M161.7,64.6l-0.3-0.1 M161.4,64.5l-0.3-0.1 M161.2,64.4l-0.2-0.1 M160.9,64.3l-0.2-0.1
		 M160.7,64.3l-0.2,0 M160.5,64.2l-0.2,0"/>
	<path class="st9" d="M156.3,64.1l0.2,0 M156.2,64.1L156.2,64.1 M155.9,64.1l0.3,0 M155.6,64.1l0.3,0 M155.4,64.2l0.3,0 M155.2,64.2
		l0.2-0.1 M155,64.3l0.2-0.1 M154.8,64.4l0.2-0.1 M154.7,64.5l0.1-0.1 M154.6,64.6l0.1-0.1 M154.5,64.7l0.1-0.1 M154.5,64.9l0-0.2
		 M154.5,65l0-0.2 M154.5,65.2l0-0.2 M154.6,65.4l-0.1-0.2 M154.6,65.7l-0.1-0.2 M154.8,65.9l-0.1-0.3 M154.9,66.2l-0.2-0.3
		 M155.1,66.4l-0.1-0.2 M155.2,66.7l-0.2-0.3 M155.5,67l-0.2-0.3 M155.8,67.3l-0.3-0.3 M156.2,67.7l-0.4-0.4 M156.6,68.2l-0.5-0.4
		 M157.2,68.7l-0.6-0.5 M158.6,69.8l-0.7-0.6 M159.4,70.5l-0.9-0.7 M160.4,71.2l-1-0.7 M161.7,72.2l-0.2-0.1 M161.9,72.4l-0.2-0.2
		 M162.5,72.8l-0.3-0.2 M162.9,73.1l-0.4-0.3 M163.3,73.4l-0.5-0.3 M163.9,73.8l-0.6-0.4 M165.4,74.7l-0.8-0.5 M166.2,75.2l-0.9-0.5
		 M168.4,76.3l-1.1-0.6 M169.7,76.9l-1.3-0.6 M171.1,77.6l-1.4-0.7 M172.7,78.4l-1.6-0.8 M172.7,78.4l2,0.1 M174.7,78.6l1.9,0.1
		 M176.6,78.7l1.8,0.1 M180.1,78.7l1.5,0 M181.6,78.7l1.4,0 M183,78.7l1.3-0.1 M184.3,78.6l1.2-0.1 M185.5,78.5l1.1-0.1 M187.6,78.3
		l0,2.1 M187.5,80.4l-0.1,1.9 M187.4,82.3l-0.2,1.7 M187.2,84l-0.3,1.5 M186.9,85.5l-0.4,1.4 M186.5,86.9l-0.5,1.2 M186,88.1
		l-0.6,1.1 M185.4,89.2l-0.6,1 M184.8,90.2l-0.7,0.9 M184.1,91.1l-0.8,0.8 M183.4,91.9l-0.8,0.7 M182.5,92.6l-0.9,0.7 M181.7,93.3
		l-0.9,0.7 M180.7,94l-1,0.6 M179.7,94.6l-1,0.6 M178.7,95.2l-1.1,0.6 M177.6,95.9l-1.1,0.7 M176.5,96.5l-1.2,0.7 M175.3,97.3
		l-1.2,0.8 M174.1,98l-1.2,0.8 M172.9,98.9l-0.3,0.2 M172.6,99.1l-0.3,0.2 M172.4,99.3l-0.6,0.5 M171.8,99.8l-0.5,0.5 M171.3,100.4
		l-0.3,0.5 M171,100.9l-0.2,0.5 M170.8,101.5l-0.1,0.5 M170.6,102l0,0.5 M170.6,102.5l0,0.5 M170.6,103l0.1,0.5 M170.8,103.5
		l0.2,0.5 M171,104l0.3,0.4 M171.2,104.4l0.3,0.4 M171.5,104.7l0.4,0.3 M171.9,105.1l0.4,0.3 M172.3,105.3l0.5,0.2 M172.8,105.5
		l0.5,0.1 M173.3,105.7l0.5,0.1 M173.8,105.7l0.5,0 M174.3,105.7l0.5-0.1 M174.8,105.6l0.5-0.2 M175.4,105.4l3.1-1.3 M178.4,104.1
		l2.8-1.5 M181.2,102.6l2.5-1.6 M183.6,101l2.2-1.7 M185.8,99.3l1.9-1.8 M187.7,97.4l1.7-1.9 M189.4,95.5l1.5-1.9 M190.9,93.6l1.2-2
		 M192.1,91.6l1.1-2 M193.2,89.6l0.6-1.4 M193.8,89.8v-1.5 M193.5,92.7l0.3-2.9 M193.5,92.7l0,0.2 M193.5,92.9l0,0.5 M193.5,93.4
		l0,0.5 M193.5,94l0,0.6 M193.5,94.5l0,0.6 M193.5,95.1l0,0.6 M193.4,95.7l-0.1,0.6 M193.4,96.2l-0.1,0.6 M193.3,96.8l0,0.6
		 M193.3,97.4l-0.1,0.6 M193.2,98l-0.1,0.6 M193.1,98.6l-0.1,0.6 M193,99.2l-0.2,0.7 M192.8,99.9l-0.2,0.7 M192.6,100.6l-0.2,0.7
		 M192.4,101.2l-0.2,0.7 M192.2,101.9l-0.2,0.6 M191.9,102.5l-0.2,0.6 M191.7,103.1l-0.2,0.6 M191.4,103.7l-0.2,0.6 M191.2,104.3
		l-0.2,0.5 M191,104.8l-0.2,0.5 M190.8,105.3l-0.2,0.4 M190.6,105.7l-0.2,0.4 M190.4,106.1l0.3,0 M190.7,106.1l0.3,0 M191,106
		l0.3-0.1 M191.3,105.9l0.3-0.1 M191.6,105.8l0.3-0.1 M191.9,105.7l0.3-0.2 M192.1,105.5l0.3-0.2 M192.4,105.3l0.2-0.2 M192.6,105.1
		l0.2-0.2 M192.9,104.9l0.2-0.2 M193.1,104.7l0.2-0.2 M193.3,104.5l0.2-0.2 M193.4,104.3l0.2-0.2 M193.6,104.1l0.1-0.2 M193.7,103.9
		l0.1-0.2 M193.8,103.7l0.1-0.1 M193.9,103.6l0.1-0.1 M194,103.5L194,103.5 M194,103.4l1-2.1 M195,101.3l0.9-1.9 M195.9,99.3
		l0.1-0.3 M196.1,99.1l0.3-0.6 M196.3,98.5l0.4-0.7 M197.3,96.5l-0.6,1.3 M197.9,95.1l-0.6,1.4 M198.5,93.7l-0.6,1.4 M199,92.1
		l-0.5,1.5 M199.5,90.6l-0.5,1.6 M199.5,90.5l0,0.1 M199.9,88.9l-0.4,1.5 M200.3,87.2l-0.4,1.7 M200.6,85.3l-0.3,1.8 M200.6,85.1
		l0,0.2 M201.3,85l-0.2,0 M201.5,84.9l-0.2,0.1 M201.7,84.8l-0.2,0.2 M201.9,84.6l-0.2,0.2 M202,84.3l-0.2,0.3 M202.2,83.9l-0.2,0.4
		 M202.4,83.5l-0.2,0.4 M202.6,82.9l-0.2,0.5 M202.7,82.3l-0.2,0.6 M202.8,81.6l-0.1,0.7 M203,80.7l-0.1,0.8 M203.1,79.8l-0.1,1
		 M203.2,78.7l-0.1,1.1 M203.3,77.5l-0.1,1.2 M203.4,76.1l-0.1,1.4 M203.4,74.6l-0.1,1.5 M203.5,73l0,1.6 M203.5,71.2l0,1.8
		 M203.5,69.2l0,2 M203.5,67.2l0,1 M203.4,66.3l0.1,0.9 M203.3,65.4l0.1,0.9 M203.2,64.6l0.1,0.8 M203.1,63.8l0.1,0.8 M203,63
		l0.1,0.8 M202.9,62.3L203,63 M202.8,61.6l0.1,0.7 M202.4,59.9l0,0.2 M202.4,59.4l0.1,0.5 M202.1,57.9l0.1,0.8 M202,57.1l0.1,0.8
		 M201.8,55.4l0.1,0.9 M201.8,53.5l0,1 M201.9,52l-0.1,0.3 M202.2,51.4l-0.2,0.4 M202.4,50.9l-0.2,0.4 M202.6,50.5l-0.2,0.5
		 M202.9,50l-0.2,0.5 M203.1,49.5l-0.3,0.5 M203.4,49l-0.3,0.5 M203.8,48.4l-0.3,0.5 M204.1,47.9l-0.3,0.5"/>
	<path class="st9" d="M204.4,47.4l-0.4,0.5 M204.8,46.9l-0.4,0.5 M205.2,46.4l-0.4,0.5 M205.6,45.9l-0.4,0.4 M206,45.5l-0.4,0.4
		 M206.4,45.2l-0.4,0.4 M206.8,44.9l-0.4,0.3 M206.8,44.9l2.7-0.1 M212.8,44.8l3.2,0 M216,44.7l3,0 M218.9,44.7l2.8,0 M221.8,44.7
		l2.6,0 M224.4,44.8l2.5,0.1 M226.9,44.8l2.3,0.1 M231.3,45l1.9,0.1 M233.2,45.1l1.8,0.1 M234.9,45.2l1.6,0.1 M236.5,45.3l1.4,0.1
		 M237.9,45.4l1.2,0.1 M239.1,45.5l1,0.1 M240.1,45.6l1.5,0.2 M241.6,45.8l1.5,0.3 M243.1,46.1l1.6,0.4 M244.7,46.5l1.6,0.5
		 M246.4,47l1.7,0.6 M248.1,47.6l1.7,0.6 M249.8,48.2l1.7,0.7 M251.5,48.9l1.7,0.7 M253.3,49.7l1.7,0.8 M255,50.4l1.7,0.8
		 M260.1,52.7l1.6,0.7 M261.7,53.4l1.6,0.7 M263.3,54l1.5,0.6 M264.8,54.7l1.4,0.5 M266.2,55.2l1.3,0.5 M267.6,55.7l1.2,0.4
		 M268.8,56l1.1,0.3 M270,56.3l1,0.1 M271,56.4l0.6,0 M271.6,56.4l0.4-0.3 M272,56.2l0.4-0.2 M272.4,55.9l0.3-0.2 M272.7,55.7
		l0.3-0.2 M273,55.6l0.3-0.2 M273.3,55.4l0.3-0.1 M273.5,55.3l0.2-0.1 M273.8,55.1L274,55 M274,55l0.2-0.1 M274.2,54.9l0.2-0.1
		 M274.4,54.9l0.2-0.1 M274.5,54.8l0.2,0 M274.7,54.8l0.2,0 M274.9,54.8l0.2,0 M275.1,54.7l0.2,0 M275.2,54.7l0.2,0 M275.4,54.7
		l0.2,0 M275.6,54.7l0.2,0 M275.8,54.8l0.2,0 M276,54.8l0.2,0 M276.3,55.9l-0.1-1.1 M276.5,57.3l-0.2-1.4 M276.8,58.9l-0.3-1.6
		 M277.1,60.8l-0.4-1.9 M278.5,68l-0.5-2.6 M279,70.9l-0.5-2.8 M279.6,73.9l-0.5-3.1 M280.1,77.2l-0.5-3.3 M280.5,80.6l-0.5-3.4
		 M281,84.2l-0.4-3.6 M281.3,88l-0.4-3.8 M281.6,92l-0.3-4 M281.8,96.1l-0.2-4.1 M281.9,100.3l-0.1-4.2 M281.8,104.7l0.1-4.4
		 M281.6,109.2l0.2-4.5 M281.3,113.8l0.4-4.6 M280.7,118.5l0.5-4.7 M280.8,118.5L280.8,118.5 M280.8,118.5L280.8,118.5 M280.9,118.5
		L280.9,118.5 M280.9,118.4L280.9,118.4 M281,118.3L281,118.3 M281,118.3L281,118.3 M281.1,118.2L281.1,118.2 M281.2,118.1
		L281.2,118.1 M281.2,118.1L281.2,118.1 M281.3,118L281.3,118 M281.4,117.9L281.4,117.9 M281.4,117.8L281.4,117.8 M281.5,117.8
		L281.5,117.8 M281.5,117.7L281.5,117.7 M281.6,117.6L281.6,117.6 M281.6,117.6L281.6,117.6 M281.6,117.6L281.6,117.6 M281.7,117.5
		L281.7,117.5 M281.9,117.3l-0.2,0.3 M282.4,116.6l-0.5,0.7 M283.2,115.5l-0.8,1.1 M284.3,114l-1.1,1.5 M285.7,112.1l-1.4,1.9
		 M287.3,109.9l-1.6,2.3 M289.1,107.2l-1.8,2.7 M291,104.2l-1.9,3 M293.1,100.8l-2.1,3.4 M295.3,97.1l-2.2,3.7 M297.6,93l-2.3,4.1
		 M299.9,88.6l-2.3,4.4 M302.3,83.9l-2.4,4.7 M304.7,78.8l-2.4,5 M309.3,67.8l-2.3,5.7 M311.5,61.9l-2.2,5.9 M315.6,49.1l-2,6.5
		 M315.6,49.1L315.6,49.1 M315.7,48.9l0,0.2 M315.7,48.7l-0.1,0.3 M315.8,48.3l-0.1,0.4 M315.9,47.9l-0.1,0.4 M316,47.3l-0.1,0.5
		 M316.1,46.8l-0.1,0.6 M316.2,46.1l-0.1,0.6 M316.3,45.4l-0.1,0.7 M316.4,44.7l-0.1,0.7 M316.6,44l-0.1,0.8 M316.7,43.2l-0.1,0.8
		 M316.8,42.4l-0.1,0.8 M316.9,41.6l-0.1,0.8 M316.9,40.8l-0.1,0.8 M317,40.1l-0.1,0.8 M317,39.3l0,0.7 M317,38.6l0,0.7 M317,37.9
		l0,0.7 M317,37.3l0,0.6 M316.8,36.1l0.2,1.3 M316.5,34.7l0.2,1.3 M316.3,33.4l0.3,1.3 M315.9,32.1l0.3,1.3 M315.5,30.7l0.4,1.3
		 M315,29.5l0.5,1.3 M314.5,28.3l0.5,1.2 M313.9,27.1l0.6,1.1 M313.1,26.2l0.7,1 M312.3,25.3l0.8,0.8 M311.4,24.7l0.9,0.7
		 M310.5,24.2l1,0.5 M309.4,24l1.1,0.2 M306,23.6l3.4,0.4 M302.4,23.1l3.5,0.4 M298.8,22.6l3.7,0.5 M294.9,22.1l3.8,0.5 M290.9,21.5
		l4,0.6 M282.3,20.5l4.4,0.5 M277.6,20l4.7,0.5 M272.7,19.5l4.9,0.4 M267.6,19.2l5.2,0.3 M262.1,18.9l5.4,0.2 M256.4,18.8l5.7,0.1
		 M250.3,18.8l6.1,0 M243.9,19l6.4-0.2 M237.2,19.4l6.8-0.4 M230.1,19.9l7.1-0.6 M214.6,21.7l7.9-1 M206.2,23l8.4-1.3 M201.8,23.8
		l4.4-0.8 M201.8,23.8l-1.2,0.3 M200.6,24.1l-1.1,0.3 M199.5,24.4l-1,0.3 M198.4,24.7l-1,0.4 M197.5,25.1l-0.9,0.4 M196.6,25.5
		l-0.8,0.4 M195.8,25.9l-0.7,0.4 M195,26.3l-0.7,0.5 M194.3,26.8l-0.6,0.5 M193.7,27.3l-0.6,0.5 M193.1,27.8l-0.6,0.5 M191.9,28.9
		l-0.6,0.6 M190.2,30.6l-0.6,0.6 M189.7,31.2l-0.6,0.6 M189.1,31.7l-0.6,0.6 M188.4,32.3l-0.7,0.6 M187.7,32.9l-0.7,0.6 M187,33.5
		l-1.1,0.8 M186,34.3l-1,0.7 M185,35l-0.9,0.6 M181.8,37.3l-0.6,0.5 M181.1,37.7l-0.6,0.4 M180.5,38.2l-0.6,0.4 M180,38.6l-0.5,0.5
		 M179.4,39.1l-0.5,0.5 M178.9,39.5l-0.5,0.5 M178.4,40.1l-0.5,0.6 M178,40.6l-0.5,0.6 M177.5,41.3L177,42 M177,42l-0.5,0.8
		 M176,43.7l-0.5,1 M175.5,44.7l-0.6,1.2 M174.9,45.9l-0.6,1.3 M174.1,47.6l0.3-0.4 M174.1,47.6l-0.7,0.5 M173.4,48.1l-0.8,0.5
		 M172.7,48.7l-0.8,0.5"/>
	<path class="st9" d="M171.8,49.2l-0.9,0.5 M170.9,49.7l-1,0.5 M169.9,50.2l-1,0.5 M168.9,50.7l-1.1,0.5 M167.8,51.2l-1.1,0.5
		 M166.6,51.8l-1.2,0.5 M163.1,53.3l-1.2,0.5 M161.9,53.8l-1.2,0.5 M160.7,54.4l-1.2,0.5 M159.5,54.9l-1.1,0.6 M158.4,55.5l-1.1,0.6
		 M157.2,56.1l-1.1,0.6 M156.2,56.6l-1,0.6 M155.2,57.2l-0.9,0.6 M154.2,57.9l-0.9,0.6 M153.4,58.5L153,59 M153,59l-0.3,0.5
		 M152.7,59.5L152.7,59.5 M152.7,59.5L152.7,59.5 M152.7,59.5L152.7,59.5 M152.7,59.5l-0.2,0.5 M152.5,60.1l-0.1,0.5 M152.4,60.6
		l0,0.5 M152.4,61l0.1,0.5 M152.5,61.5l0.1,0.4 M110.9,721.1l2.5,0.8 M110.9,725.3l0-4.2 M110.9,725.3l-0.1,1.1 M110.8,726.3
		l-0.2,1.1 M110.7,727.4l-0.2,1.1 M110.4,728.5l-0.3,1.1 M110.1,729.5l-0.4,1.1 M109.8,730.6l-0.4,1.1 M109.3,731.7l-0.5,1.1
		 M108.9,732.8l-0.5,1.1 M108.3,733.9l-0.5,1.2 M107.8,735.1l-0.6,1.2 M107.2,736.3l-0.6,1.3 M106.7,737.6l-0.6,1.3 M106.1,738.9
		l-0.6,1.4 M105.5,740.3l-0.6,1.5 M104.9,741.7l-0.6,1.5 M104.3,743.3l-2.7,3.4 M101.6,746.7l-2.4,3.1 M99.3,749.8l-2.1,2.8
		 M97.2,752.7l-1.8,2.6 M95.4,755.2l-1.6,2.3 M93.9,757.5l-1.3,2.1 M92.5,759.6l-1.1,1.9 M91.4,761.4l-0.9,1.7 M90.5,763.1l-0.7,1.5
		 M89.8,764.6l-0.6,1.3 M89.2,765.9l-0.4,1.2 M88.8,767.2l-0.3,1.1 M88.5,768.3l-0.2,1 M88.3,769.3l-0.1,1 M88.2,770.2l0,0.9
		 M88.1,771.2l0,0.9 M88.2,772.1l0,0.9 M88.2,773l0.1,0.9 M88.3,773.9l0.1,1 M88.3,774.8l0,1 M88.3,775.9l4.4,0.8 M92.7,776.6
		l4.1,0.4 M96.8,777.1l3.8,0.1 M100.6,777.2l3.5-0.1 M104.1,777.1l3.3-0.3 M107.4,776.8l3-0.5 M110.5,776.2l2.8-0.7 M113.3,775.5
		l2.5-0.8 M115.8,774.7l2.3-0.9 M118.1,773.8l2.1-1 M120.2,772.8l1.9-1.1 M122.1,771.7l1.6-1.1 M123.7,770.6l1.4-1.1 M125.2,769.6
		l1.2-1 M126.4,768.5l1-0.9 M127.4,767.6l0.8-0.8 M128.3,766.8l0.7-0.7 M128.9,766.1l0.2-0.3 M129.2,765.7l0.2-0.5 M129.4,765.3
		l0.2-0.6 M129.6,764.7l0.2-0.7 M129.7,763.9l0.2-0.8 M129.9,763.1l0.2-0.9 M130.1,762.2l0.2-1 M130.2,761.2l0.1-1 M130.4,760.2
		l0.1-1.1 M130.5,759.1l0.1-1.1 M130.9,755.8l0.1-1.1 M131.1,754.6l0.1-1.1 M131.2,753.6l0.1-1 M141.7,736.5l1.4-1.5 M143.1,735
		l1.3-1.5 M144.4,733.5l1.3-1.4 M145.7,732.1l1.2-1.3 M146.9,730.8l1.2-1.3 M150.3,727.2l1-1 M151.3,726.2l0.9-1 M152.2,725.2
		l0.8-0.9 M153,724.3l0.7-0.8 M153.7,723.5l0.6-0.7 M154.2,722.8l0.4-0.6 M154.8,722l-0.1,0.1 M154.9,721.7l-0.1,0.3 M155,721.2
		l-0.1,0.5 M155.1,720.4l-0.1,0.7 M155.2,719.6l-0.1,0.9 M155.2,718.6l-0.1,1 M155.3,717.5l-0.1,1.1 M155.4,716.3l-0.1,1.2
		 M155.4,715.1l0,1.2 M155.4,713.9l0,1.2 M155.4,712.7l0,1.2 M155.4,711.5l0,1.2 M155.4,710.3l0,1.2 M155.4,709.3l0,1.1
		 M155.3,708.3l0.1,1 M155.2,707.4l0.1,0.9 M155.1,706.7l0.1,0.7 M155,706.2l0.1,0.5 M154.8,705.9l0.2,0.3 M154.6,705.8l0.2,0.1
		 M153.9,707.5l0.7-1.7 M153,709.1l0.9-1.7 M151.9,710.8l1.1-1.6 M150.6,712.4l1.3-1.6 M149,713.9l1.5-1.5 M147.3,715.4l1.7-1.5
		 M145.4,716.8l1.9-1.4 M143.4,718.1l2.1-1.3 M141.1,719.3l2.2-1.2 M138.8,720.3l2.4-1.1 M136.3,721.2l2.5-0.9 M133.7,722l2.6-0.8
		 M131,722.6l2.7-0.6 M128.2,723l2.8-0.4 M125.4,723.2l2.9-0.2 M122.4,723.2l2.9,0 M119.5,723l3,0.2 M116.4,722.6l3,0.5
		 M113.4,721.9l3.1,0.7 M129.9,66.3l-0.4-0.7 M130.4,67l-0.5-0.7 M131,67.7l-0.6-0.7 M131.6,68.3l-0.6-0.6 M132.3,68.8l-0.7-0.5
		 M133.1,69.2l-0.8-0.4 M134,69.4l-0.9-0.3 M134.9,69.6l-0.9-0.1 M136,69.6l-1,0 M137.1,69.4l-1.1,0.2 M138.3,69l-1,0.3 M138.7,68.8
		l-0.4,0.2 M139.1,68.7l-0.4,0.2 M139.6,68.4l-0.4,0.2 M140,68.2l-0.4,0.3 M140.5,67.9l-0.4,0.3 M140.9,67.6l-0.4,0.3 M141.4,67.2
		l-0.4,0.4 M141.8,66.8l-0.4,0.4 M142.2,66.4l-0.4,0.4 M142.6,65.9l-0.4,0.5 M142.7,65.9L142.7,65.9 M142.8,65.7l-0.1,0.1
		 M142.9,65.6l-0.2,0.2 M143.1,65.4l-0.2,0.2 M143.4,65.2l-0.2,0.2 M143.7,65l-0.3,0.2 M144,64.8l-0.3,0.2 M144.4,64.6l-0.4,0.2
		 M144.8,64.4l-0.4,0.2 M145.2,64.2l-0.4,0.2 M145.7,64l-0.5,0.2 M146.2,63.8l-0.5,0.2 M146.8,63.7l-0.6,0.1 M147.4,63.5l-0.6,0.1
		 M148,63.5l-0.6,0.1 M148,63.5l-0.5-0.1 M147.5,63.4l-0.7-0.2 M146.8,63.2l-0.8-0.2 M146.1,63l-0.8-0.3 M145.2,62.7l-0.9-0.4
		 M142.4,61.5l-1.1-0.4 M141.3,61.1l-1.1-0.4 M140.2,60.7l-1.2-0.4 M139,60.3l-1.2-0.4 M137.8,59.9l-1.3-0.3 M136.5,59.6l-1.3-0.3
		 M135.1,59.3l-1.4-0.2 M132.4,59l-1.5,0 M130.9,59.1l-1.5,0.1 M129.4,59.2l-1.5,0.3 M127.9,59.7v-0.3 M127.9,60.1l0-0.4 M128,60.6
		l0-0.5 M128.1,61.2l-0.1-0.6 M128.2,61.8l-0.1-0.7 M128.3,62.5l-0.2-0.7 M128.6,63.3l-0.2-0.7"/>
	<path class="st9" d="M128.8,64l-0.3-0.8 M129.1,64.8l-0.3-0.8 M196.3,99.7l0-1.2 M190.4,106.1l-0.1,0.3 M190.3,106.3l-0.1,0.2
		 M190.2,106.5l-0.1,0.1 M190.1,106.7L190.1,106.7 M190.1,106.7l-0.6,1 M189.5,107.7l-0.8,1 M187.8,109.7l-1.1,1 M186.7,110.7
		l-1.2,0.9 M185.4,111.6l-1.4,0.9 M184.1,112.5l-1.4,0.9 M182.6,113.4l-1.5,0.8 M181.1,114.2l-1.5,0.8 M179.6,115l-1.5,0.7
		 M178.1,115.7l-1.5,0.7 M176.6,116.4l-1.5,0.6 M175.1,117l-1.4,0.6 M173.8,117.5l-1.3,0.5 M172.5,118l-1.2,0.4 M171.3,118.5l-1,0.4
		 M170.3,118.8l-0.8,0.3 M169.5,119.1l-0.6,0.2 M168.8,119.3l-0.3,0.1 M168.6,119.4l-0.4,0 M168.2,119.4l-0.5,0 M167.7,119.5l-0.6,0
		 M167.2,119.5l-0.6,0 M166.5,119.5l-0.7,0 M165.8,119.5l-0.8,0 M165,119.5l-0.8,0 M164.3,119.4l-0.8,0 M163.4,119.4l-0.8,0
		 M162.6,119.4l-0.8,0 M161,119.3l-0.8-0.1 M160.3,119.2l-0.7-0.1 M159.6,119.2l-0.6-0.1 M158.9,119.1l-0.6-0.1 M158.3,119l-0.5-0.1
		 M157.8,119l-0.4-0.1 M157.5,118.9l-0.3,0 M157.1,118.9l-0.2,0 M156.8,118.8l-0.7-0.2 M156.2,118.6l-0.7-0.3 M155.5,118.3l-0.7-0.4
		 M154.8,117.9l-0.7-0.5 M154,117.4l-0.7-0.5 M153.3,116.9l-0.7-0.6 M152.6,116.3l-0.7-0.7 M151.8,115.6l-0.3-0.3 M151.5,115.4
		l0.2,0.6 M151.7,115.9l0.3,1 M152,116.9l0.2,1 M152.2,117.9l0.2,1 M152.4,118.9l0.1,0.9 M152.5,119.9L152.5,119.9 M152.5,119.9
		L152.5,119.9 M152.5,119.9l0.1,1 M152.7,120.9l0.1,1 M152.8,121.9l0.1,1 M152.8,122.9l0,0.9 M152.9,123.8l0,0.9 M152.9,124.7l0,0.8
		 M152.9,125.5l0,0.8 M152.9,126.3l-0.6,0.8 M152.3,127.1l-0.5,0.9 M151.8,128l-0.5,1 M151.4,129l-0.4,1.1 M150.9,130.2l-0.4,1.2
		 M150.6,131.4l-0.3,1.3 M150.2,132.7l-0.3,1.3 M149.9,134l-0.3,1.4 M149.7,135.4l-0.2,1.4 M149.4,136.8l-0.2,1.4 M149.2,138.2
		l-0.2,1.4 M149,139.6l-0.2,1.4 M148.5,143.7l-0.2,1.5 M148.3,145.2l-0.1,1.5 M148.1,146.8l-0.1,1.5 M148,148.2l-0.1,1.5
		 M147.9,149.7l-0.1,1.5 M147.9,151.2l-0.1,1.4 M147.8,152.6l0,1.4 M147.7,156.5l0,1.2 M147.6,157.7l-0.1,1.1 M147.6,158.9l-0.1,1
		 M147.5,159.9l-0.1,0.9 M147.4,160.8l-0.1,0.8 M147.4,161.7l-0.1,0.7 M147.2,162.4l-0.2,0.6 M147.1,163l-0.2,0.5 M146.9,163.5
		l-0.2,0.4 M146.7,163.9l-0.3,0.2 M146.4,164.1l-0.3,0.1 M146.1,164.1l0.9,0.1 M147,164.2l2.1,0.3 M149.1,164.5l3.5,0 M152.6,164.5
		l3.2-0.3 M155.8,164.2l2.9-0.7 M158.7,163.5l2.6-1 M161.3,162.5l2.4-1.3 M163.7,161.2l2.2-1.5 M165.9,159.6l2.1-1.8 M168,157.9
		l1.9-2 M169.9,155.9l1.8-2.1 M171.7,153.8l1.7-2.2 M173.4,151.6l1.6-2.3 M175,149.3l1.6-2.4 M176.7,146.9l1.6-2.4 M178.3,144.5
		l1.6-2.4 M179.9,142.1l0.8-1.2 M181.4,140.2l-0.7,0.7 M182.1,139.6l-0.7,0.7 M182.8,138.9l-0.6,0.7 M183.3,138.3l-0.6,0.6
		 M183.9,137.6l-0.5,0.6 M184.4,137l-0.5,0.6 M184.9,136.4l-0.5,0.6 M185.3,135.8l-0.5,0.6 M185.8,135.3l-0.4,0.6 M186.2,134.7
		l-0.4,0.5 M186.6,134.2l-0.4,0.5 M187,133.7l-0.4,0.5 M187.4,133.2l-0.4,0.5 M187.8,132.8l-0.4,0.4 M188.2,132.4l-0.4,0.4
		 M188.6,132l-0.4,0.4 M189.1,131.7l-0.4,0.3 M189.5,131.4l-0.5,0.3 M190,131.1l-0.5,0.3 M190.6,130.9l-0.5,0.2 M190.6,130.9
		l1.3-0.7 M191.9,130.2l1.2-0.8 M193,129.4l1.1-0.9 M194.1,128.5l1-1 M195.1,127.5l0.9-1.1 M196,126.4l0.8-1.2 M196.8,125.2l0.7-1.2
		 M197.5,124l0.7-1.3 M198.1,122.8l0.6-1.3 M198.7,121.5l0.6-1.3 M199.3,120.2l0.5-1.3 M199.8,118.9l0.5-1.2 M200.3,117.7l0.2-0.4
		 M200.4,117.3L200.4,117.3 M200.3,117.2l-0.4-0.4 M199.9,116.8l-0.4-0.5 M199.5,116.3l-0.4-0.6 M199.1,115.7l-0.4-0.7 M198.8,115
		l-0.3-0.8 M198.5,114.2l-0.3-0.8 M198.2,113.4l-0.3-0.9 M197.9,112.5l-0.3-1 M197.6,111.5l-0.2-1 M197.4,110.4l-0.2-1.1
		 M197.2,109.4l-0.2-1.1 M197,108.2l-0.2-1.2 M196.9,107.1l-0.1-1.2 M196.7,105.9l-0.1-1.2 M196.6,104.7l-0.1-1.2 M196.5,103.5
		l-0.1-1.2 M196.4,102.2l-0.1-1.3 M196.4,101l0-1.3 M271.2,56.9l0.4-0.4 M270.8,57.3l0.4-0.4 M270.3,57.6l0.5-0.4 M269.8,57.9
		l0.5-0.3 M269.3,58.3l0.5-0.3 M268.7,58.6l0.5-0.3 M268.2,58.9l0.6-0.3 M267.6,59.3l0.6-0.4 M267,59.7l0.6-0.4 M266.4,60.1l0.6-0.5
		 M265.9,60.7l0.6-0.5 M265.3,61.3l0.6-0.6 M264.8,62l0.5-0.7 M264.3,62.8l0.5-0.8 M263.9,63.6l0.4-0.7 M263.9,63.5L263.9,63.5
		 M263.8,63.5L263.8,63.5 M263.7,63.5L263.7,63.5 M263.6,63.4l0.2,0.1 M263.4,63.3l0.2,0.1 M263.1,63.2l0.3,0.1 M262.8,63.1l0.3,0.1
		 M262.4,63l0.4,0.1 M262,62.9l0.4,0.1 M261.6,62.8l0.5,0.1 M261.1,62.8l0.5,0.1 M260.5,62.7l0.5,0 M259.9,62.7l0.6,0 M259.3,62.7
		l0.6,0 M258.6,62.8l0.7-0.1 M257.9,62.9l0.7-0.1 M257.2,63l0.7-0.2 M256.4,63.3l0.8-0.2 M255.6,63.5l0.8-0.3 M254.8,63.9l0.8-0.3
		 M254,64.3l0.9-0.4"/>
	<path class="st9" d="M251.8,65.8l2.2-1.5 M249.9,67.6l1.9-1.8 M248.3,69.6l1.6-2 M247,71.8l1.3-2.2 M246,74.2l1.1-2.4 M245.1,76.7
		l0.8-2.5 M244.5,79.3l0.7-2.6 M244,81.9l0.5-2.6 M243.7,84.5l0.3-2.6 M243.4,87.1l0.2-2.6 M243.3,89.6l0.1-2.5 M243.2,91.5l0.1-1.9
		 M242.1,92l1.1-0.6 M241,92.6l1.1-0.6 M239.9,93.2l1.1-0.6 M238.9,93.8l1.1-0.6 M237.8,94.4l1.1-0.6 M236.7,95l1.1-0.6 M235.7,95.7
		l1.1-0.7 M234.6,96.4l1-0.7 M233.6,97.2l1-0.7 M232.5,97.9l1-0.8 M231.5,98.7l1-0.8 M230.5,99.6l1-0.9 M229.4,100.5l1-0.9
		 M228.4,101.5l1-1 M227.4,102.5l1-1 M226.4,103.6l1-1.1 M225.3,104.7l1-1.1 M224.3,105.9l1-1.2 M223.3,107.2l1-1.3 M222.2,108.5
		l1-1.3 M221.5,109l0.8-0.5 M220.6,109.4l0.9-0.4 M219.6,109.7l1-0.3 M218.5,110l1.1-0.3 M217.4,110.2l1.1-0.2 M216.2,110.3l1.2-0.1
		 M215,110.4l1.2-0.1 M213.8,110.4l1.2-0.1 M212.6,110.5l1.2,0 M211.4,110.5l1.2,0 M210.3,110.5l1.2,0 M207.1,110.4l1,0
		 M206.2,110.4l0.9,0 M205.3,110.5l0.8,0 M204.6,110.5l0.7-0.1 M204.1,110.6l0.6-0.1 M203.7,110.8l0.4-0.2 M203.4,111l0.3-0.2
		 M202.9,111.6l0.5-0.6 M202.5,112.4l0.4-0.8 M202,113.3l0.4-0.9 M201.6,114.3l0.4-1 M201.2,115.3l0.4-1.1 M200.7,116.5l0.4-1.1
		 M200.4,117.3l0.3-0.8 M152.5,119.8L152.5,119.8 M152.5,119.7L152.5,119.7 M152.4,119.6L152.4,119.6 M152.3,119.5l0.1,0.1
		 M152.2,119.4l0.1,0.1 M152.1,119.3l0.1,0.1 M152,119.1l0.2,0.1 M151.8,119l0.2,0.1 M151.5,118.9l0.2,0.1 M151.3,118.8l0.3,0.1
		 M151,118.7l0.3,0.1 M150.6,118.6l0.4,0.1 M150.2,118.5l0.4,0.1 M149.7,118.5l0.5,0 M149.2,118.5l0.5,0 M148.7,118.5l0.6,0
		 M148,118.6l0.6-0.1 M147.3,118.6l0.7-0.1 M147.7,117.7l-0.4,1 M148,116.6l-0.3,1 M148.1,115.6l-0.1,1 M148,114.5l0.1,1.1
		 M147.6,113.5l0.4,1.1 M146.9,112.4l0.7,1.1 M145.8,111.4l1,1.1 M144.4,110.3l1.4,1 M142.6,109.3l1.8,1 M140.3,108.4l2.3,0.9
		 M137.6,107.5l2.8,0.9 M137.9,106.3l-0.3,1.2 M137.6,105.2l0.3,1.1 M136.7,104.4l0.9,0.9 M135,103.7l1.6,0.6 M132.6,103.4l2.4,0.4
		 M131.5,103.3l1.1,0.1 M130.5,103.1l1,0.2 M129.6,102.9l0.9,0.2 M128.7,102.6l0.9,0.3 M127.8,102.3l0.8,0.3 M127,101.8l0.8,0.4
		 M126.1,101.3l0.8,0.5 M125.3,100.7l0.9,0.6 M124.4,100l0.9,0.7 M123.4,99.1l1,0.9 M122.4,98.1l1.1,1 M121.2,96.9l1.2,1.2
		 M119.9,95.5l1.3,1.3 M118.5,94l1.4,1.5 M116.9,92.3l1.6,1.7 M113.2,87.2l0,1.1 M113.1,86.2l0.2,1 M112.7,85.3l0.4,0.9 M112.1,84.5
		l0.6,0.8 M111.3,83.9l0.9,0.6 M110.4,83.5l0.9,0.5 M109.2,82.6l1.2,0.9 M107.6,81.3l1.6,1.3 M105.7,79.6l1.8,1.6 M103.7,77.7
		l2.1,1.9 M101.4,75.6l2.3,2.2 M98.9,73.2l2.4,2.3 M96.3,70.7l2.6,2.5 M85.7,60.4l2.6,2.6 M83.1,57.9l2.5,2.4 M80.7,55.6l2.4,2.3
		 M78.5,53.5l2.2,2.1 M76.4,51.7l2,1.8 M74.7,50.2l1.8,1.5 M73.2,49l1.5,1.2 M72,48.3l1.1,0.8 M71.3,48l0.8,0.3 M70.1,48.5l1.2-0.5
		 M68.9,48.9l1.2-0.4 M67.6,49.3l1.3-0.4 M66.3,49.6l1.3-0.3 M63.6,49.9l1.4-0.1 M62.3,50l1.4,0 M60.8,49.9l1.4,0.1 M58.7,49.7
		l1,0.1 M57.7,49.6l1,0.1 M56.3,50l1.4-0.4 M56.3,50l-1.3,0.6 M55.1,50.7l-1.2,0.9 M53.9,51.6l-1.1,1.2 M52.8,52.8l-1,1.4
		 M51.9,54.2L51,55.8 M51,55.8l-0.8,1.8 M50.2,57.6l-0.7,1.9 M49.5,59.6l-0.6,2 M48.9,61.6l-0.5,2.1 M48.3,63.8l-0.4,2.2 M47.9,65.9
		l-0.4,2.2 M47.5,68.1l-0.3,2.1 M47.2,70.2L47,72.3 M47,72.3l-0.1,2 M46.9,74.2L46.8,76 M46.8,76l0,1.7 M46.8,77.7l0.1,1.5
		 M47.1,81.3l-0.2-2.2 M47.5,84.6l-0.4-3.3 M48.6,88l-1-3.4 M50.2,91.5L48.6,88 M52.4,95.1l-2.2-3.5 M55,98.7l-2.6-3.6 M58,102.3
		l-3-3.6 M61.3,105.9l-3.3-3.6 M64.8,109.4l-3.5-3.6 M68.5,113l-3.6-3.6 M72.2,116.5l-3.7-3.5 M82.9,126.5l-3.4-3.2 M86.1,129.7
		l-3.2-3.1 M89,132.7l-2.9-3 M91.4,135.5l-2.5-2.8 M93.5,138.2l-2-2.7 M95,140.7l-1.5-2.5 M95.9,143l-0.9-2.3 M96.1,145.1l-0.2-2.1
		 M94.3,167.6l1.8-22.6 M88.1,222.3l2.2-16.2 M85.8,236.6l2.3-14.3 M83.5,249.2l2.3-12.6 M81.2,260.2l2.3-11 M78.8,269.8l2.3-9.6
		 M76.5,278l2.3-8.2 M74.3,285.1l2.2-7 M72.1,291.1l2.2-6 M70.1,296.2l2-5.1 M68.2,300.5l1.9-4.3 M66.4,304.1l1.7-3.7 M64.9,307.3
		l1.6-3.2 M63.6,310.1l1.3-2.8 M62.5,312.6l1.1-2.6 M61.7,315.1l0.8-2.5 M61.2,317.6l0.5-2.5 M61,320.3l0.2-2.7 M61,320.3l3.3,11.7
		 M64.3,332l4.5,10 M68.7,341.9l5.5,8.3 M74.2,350.3l6.4,6.8 M80.7,357.1l7.2,5.4 M87.8,362.5l7.8,4.1 M95.7,366.5l8.3,2.8
		 M104,369.4l8.7,1.7"/>
	<path class="st9" d="M112.7,371.1l9,0.7 M121.7,371.8l9.1-0.1 M130.8,371.7l9.1-0.9 M139.9,370.8l9-1.6 M148.9,369.2l8.8-2.2
		 M157.7,367l8.4-2.6 M166.1,364.4l8-3 M174.1,361.5l7.4-3.2 M181.5,358.2l6.7-3.4 M188.2,354.8l5.9-3.4 M194.2,351.4l5-3.4
		 M199.2,348l2-1.4 M201.2,346.6l1.8-1.4 M203,345.1l0.7-0.6 M203.7,344.5l1-0.9 M204.7,343.7l1.6-1.5 M206.3,342.1l1.4-1.6
		 M207.7,340.6l1.3-1.6 M209,338.9l1.2-1.7 M210.3,337.2l1.1-1.8 M211.4,335.4l1-1.9 M212.4,333.6l1-2 M213.4,331.6l0.9-2.1
		 M214.3,329.6l0.9-2.2 M215.2,327.4l0.8-2.3 M216,325.1l0.8-2.4 M216.8,322.7l0.8-2.5 M217.6,320.2l0.8-2.7 M218.4,317.5l0.8-2.8
		 M219.2,314.7l0.8-3 M220,311.7l0.8-3.1 M220.9,308.6l0.9-3.3 M223.4,299.3l-1.6,6 M224.9,293l-1.5,6.3 M226.4,286.6l-1.5,6.5
		 M227.8,279.9l-1.4,6.6 M229.1,273.1l-1.3,6.8 M230.4,266.2l-1.3,6.9 M231.7,259.3l-1.3,7 M236.7,231.4l-1.3,6.9 M238,224.6
		l-1.3,6.8 M239.3,218l-1.3,6.7 M240.6,211.5l-1.3,6.5 M242,205.2l-1.4,6.3 M243.4,199.2l-1.4,6 M245,193.5l-1.5,5.8 M246.5,188
		l-1.6,5.4 M248.2,182.9l-1.7,5.1 M248.4,181.6l-0.2,1.3 M248.8,180.3l-0.3,1.4 M249.1,178.9l-0.4,1.4 M249.6,177.4l-0.4,1.5
		 M250.1,175.8l-0.5,1.6 M250.7,174.1l-0.6,1.7 M251.4,172.3l-0.7,1.8 M252.1,170.4l-0.7,1.9 M252.9,168.5l-0.8,2 M253.8,166.4
		l-0.9,2.1 M254.8,164.2l-1,2.2 M255.8,161.8l-1.1,2.3 M257,159.4l-1.1,2.5 M258.2,156.8l-1.2,2.6 M259.5,154l-1.3,2.7 M260.9,151.2
		l-1.4,2.9 M262.4,148.1l-1.5,3 M262.9,146.8l-0.5,1.3 M263.6,145.3l-0.7,1.5 M264.4,143.8l-0.8,1.5 M265.4,142.1l-1,1.6
		 M266.4,140.5l-1.1,1.7 M267.6,138.7l-1.1,1.7 M268.8,137l-1.2,1.8 M270,135.2l-1.3,1.8 M271.3,133.4l-1.3,1.8 M275.1,128.3
		l-1.2,1.7 M276.2,126.7l-1.1,1.6 M277.3,125.1l-1.1,1.5 M278.2,123.7l-1,1.4 M279.1,122.4l-0.8,1.3 M279.7,121.2l-0.7,1.2
		 M280.3,120.2l-0.5,1.1 M280.6,119.3l-0.3,0.9 M280.7,118.5l-0.1,0.7 M88.3,775.9l-0.2,0.1 M88.2,776l-0.2,0.2 M88,776.2l-0.1,0.3
		 M87.9,776.5l-0.1,0.3 M87.8,776.8l-0.1,0.4 M87.7,777.2l-0.1,0.4 M87.6,777.6l0,0.4 M87.6,778.1l0,0.5 M87.6,778.5l0,0.5
		 M87.6,779l0,0.5 M87.7,779.5l0.1,0.5 M87.7,779.9l0.1,0.4 M87.8,780.4l0.1,0.4 M87.9,780.8l0.1,0.4 M88.1,781.2l0.1,0.4
		 M88.2,781.6l0.2,0.3 M88.3,781.9l0.2,0.2 M88.5,782.1l0.2,0.2 M88.7,782.3l0.2,0.1 M88.9,782.4l0.2,0 M89.1,782.4l3.4,0.2
		 M92.5,782.6l4.2,0.1 M96.6,782.7l3.9-0.2 M100.5,782.5l3.6-0.3 M104.1,782.2l3.3-0.5 M107.4,781.7l3.1-0.6 M110.5,781.1l2.8-0.7
		 M113.3,780.4l2.5-0.8 M115.9,779.6l2.3-0.9 M118.2,778.7l2.1-0.9 M120.2,777.8l1.8-0.9 M122.1,776.8l1.6-0.9 M123.7,775.9l1.4-0.9
		 M125.1,775l1.2-0.9 M126.3,774.1l1-0.8 M127.3,773.3l0.8-0.7 M128.1,772.6l0.6-0.6 M128.7,772l0.4-0.4 M129.1,771.6l0.2-0.3
		 M129.3,771.3l0.1-0.1 M129.5,771l-0.1,0.1 M129.6,770.9l-0.1,0.2 M129.7,770.6l-0.1,0.2 M129.8,770.4l-0.1,0.3 M129.8,770
		l-0.1,0.3 M129.9,769.7l0,0.4 M129.9,769.3l0,0.4 M129.9,768.9l0,0.4 M129.9,768.5l0,0.4 M129.9,768.1l0,0.4 M129.9,767.7l0,0.4
		 M129.9,767.3l0,0.4 M129.9,766.9l0,0.4 M129.8,766.5l0,0.4 M129.8,766.2l0.1,0.3 M129.7,765.9l0.1,0.3 M129.7,765.7l0.1,0.2
		 M129.6,765.5l0.1,0.2 M129.5,765.3l0.1,0.1 M129.4,765.3l0.1,0.1 M88.2,504.6l3.2,8.3 M107.7,655.4l0,0.2 M150.8,777.3l0.1,0.5
		 M202,738.3l-0.3,0.8 M202,738.3l0.8-1.9 M202.8,736.3l0.7-1.9 M203.5,734.4l0.6-1.9 M204.1,732.6l0.6-1.8 M204.7,730.7l0.5-1.8
		 M205.2,728.9l0.4-1.8 M205.6,727.2l0.4-1.7 M206,725.5l0.3-1.7 M206.3,723.8l0.3-1.6 M206.6,722.1l0.2-1.6 M206.8,720.6l0.1-1.5
		 M206.9,719l0.1-1.5 M207,717.6l0-1.4 M207,716.1l0-1.4 M207,714.8l-0.1-1.3 M207,713.5l-0.1-1.2 M206.8,712.3l-0.2-1.2
		 M206.7,711.1l-0.2-1.1 M206.5,710.1l-0.3-1 M206.2,709.1l-0.3-0.9 M205.9,709.1l0-0.9 M205.9,709.9l0-0.9 M205.9,710.7l0-0.8
		 M205.8,711.5l0-0.8 M205.8,712.2l0-0.7 M205.7,712.9l0.1-0.7 M205.7,713.5l0.1-0.6 M205.6,714.1l0.1-0.6 M205.5,714.7l0.1-0.6
		 M205.3,715.3l0.1-0.6 M205.2,715.8l0.2-0.5 M205,716.3l0.2-0.5 M204.8,716.8l0.2-0.5 M204.6,717.3l0.2-0.5 M204.3,717.9l0.3-0.5
		 M204,718.4l0.3-0.5 M203.7,718.9l0.3-0.5 M203.3,719.5l0.4-0.6 M202.9,720.1l0.4-0.6 M202.5,720.7l0.4-0.6 M201.6,722l0.9-1.3
		 M200.6,723.1l1.1-1.1 M199.4,724.1l1.2-1 M198,725l1.3-0.9 M196.6,725.7l1.5-0.8 M195,726.4l1.6-0.7 M193.4,727l1.7-0.6
		 M191.6,727.4l1.7-0.5 M189.8,727.8l1.8-0.4 M188,728.1l1.8-0.3 M186.1,728.4l1.9-0.2 M184.2,728.5l1.9-0.2 M182.3,728.7l1.9-0.1"
		/>
	<path class="st9" d="M180.5,728.7l1.9-0.1 M178.6,728.8l1.9,0 M176.8,728.8l1.8,0 M175,728.8l1.8,0 M173.3,728.7l1.7,0
		 M171.7,728.7l1.6,0 M168.7,728.4l0.7,0.2 M168.2,728l0.5,0.4 M168.2,728l-0.5,1.7 M167.7,729.8l-0.5,1.8 M167.2,731.5l-0.5,1.8
		 M166.7,733.3l-0.5,1.8 M166.2,735.1l-0.5,1.8 M165.6,737l-0.5,1.8 M165.1,738.8l-0.6,1.8 M164.5,740.6l-0.6,1.8 M164,742.4
		l-0.6,1.8 M163.4,744.2l-0.6,1.7 M162.8,745.9l-0.6,1.7 M162.2,747.6l-0.6,1.6 M161.7,749.3l-0.6,1.6 M161.1,750.8l-0.6,1.5
		 M160.5,752.3l-0.6,1.4 M159.9,753.8l-0.6,1.3 M159.3,755.1l-0.6,1.2 M158.7,756.3l-0.6,1.1 M158.2,757.5l-0.6,1 M157.6,758.5
		l-0.5,0.9 M157.1,759.4l-1.3,2.1 M155.8,761.5l-1.1,2 M154.7,763.5l-0.9,1.8 M153.8,765.3L153,767 M153,767l-0.6,1.6 M152.3,768.5
		l-0.5,1.4 M151.8,770l-0.4,1.3 M151.4,771.3l-0.3,1.2 M151.1,772.5l-0.2,1.1 M150.9,773.5l-0.1,1 M150.7,774.5l-0.1,0.8
		 M150.7,775.4l0,0.7 M150.7,776.1l0,0.6 M150.7,776.7l0.1,0.5 M150.9,777.7l0.1,0.4 M151,778.1l0.1,0.3 M151.1,778.4l0.1,0.2
		 M151.1,778.6l0.1,0.1 M151.2,778.8L151.2,778.8 M151.2,778.8l2.6,1.3 M153.8,780.1l2.7,0.9 M156.5,781l2.7,0.6 M159.2,781.6
		l2.8,0.3 M162,781.9l2.8,0 M164.8,781.8l2.8-0.3 M167.5,781.6l2.7-0.5 M170.3,781.1l2.7-0.7 M173,780.4l2.6-0.9 M175.6,779.5l2.5-1
		 M178.1,778.5l2.4-1.1 M180.5,777.4l2.3-1.2 M182.8,776.2l2.1-1.2 M184.9,775l1.9-1.3 M186.9,773.7l1.7-1.2 M188.6,772.5l1.5-1.2
		 M190.2,771.2l1.3-1.1 M191.4,770.1l1-1.1 M192.5,769l0.8-0.9 M193.2,768.1l0.5-0.8 M193.8,767.1l-0.1,0.3 M194,766.7l-0.2,0.4
		 M194.2,766.2l-0.2,0.5 M194.4,765.6l-0.2,0.6 M194.7,764.8l-0.3,0.7 M195,764.1l-0.3,0.8 M195.2,763.2l-0.3,0.9 M195.5,762.3
		l-0.3,0.9 M195.8,761.3l-0.3,1 M196.2,760.3l-0.3,1 M196.4,759.2l-0.3,1 M196.7,758.2l-0.3,1.1 M197,757.1l-0.3,1.1 M197.3,756.1
		l-0.3,1.1 M197.5,755l-0.2,1 M197.7,754l-0.2,1 M197.8,753l-0.2,1 M198,752.1l-0.1,0.9 M198,751.2l-0.1,0.9 M198.1,750.4l0,0.8
		 M198.1,749.9l0,0.6 M198.1,749.3l0,0.6 M198.2,748.7l-0.1,0.6 M198.3,748.2l-0.1,0.5 M198.4,747.7l-0.1,0.5 M198.5,747.1l-0.1,0.5
		 M198.7,746.6l-0.1,0.5 M198.8,746l-0.2,0.5 M199,745.5l-0.2,0.5 M199.2,744.9l-0.2,0.6 M199.4,744.4l-0.2,0.6 M199.7,743.8
		l-0.2,0.6 M199.9,743.2l-0.2,0.6 M200.2,742.5l-0.3,0.6 M200.4,741.9l-0.3,0.6 M201.6,739.1l-0.3,0.8 M152.8,62.3l-0.1,0.2
		 M152.7,62.5l-0.1,0.2 M152.6,62.6l-0.1,0.1 M152.5,62.8l-0.1,0.1 M152.4,62.9L152.4,62.9 M152.3,63L152.3,63 M152.2,63.1
		L152.2,63.1 M152.2,63.1L152.2,63.1 M152.1,63.2L152.1,63.2 M152,63.2L152,63.2 M151.9,63.3L151.9,63.3 M151.9,63.3L151.9,63.3
		 M151.7,63.3L151.7,63.3 M151.7,63.3L151.7,63.3 M151.1,63.5l0.6-0.1 M151.1,63.5l0.2,0 M151.3,63.5l0.2,0 M151.5,63.5l0.2,0.1
		 M151.7,63.6l0.2,0.1 M151.9,63.7l0.1,0.1 M152,63.8l0.1,0.1 M152.1,63.9l0.1,0.1 M152.3,64l0.1,0.1 M152.4,64.1l0.1,0.1
		 M152.4,64.3l0.1,0.1 M152.5,64.4l0.1,0.1 M152.5,64.6l0,0.1 M152.6,64.7l0,0.1 M152.6,64.9l0,0.1 M152.6,65l0,0.1 M152.6,65.1
		l0,0.1 M152.6,65.3l0,0.1 M152.6,65.4l0,0.1 M152.6,65.5L152.6,65.5 M152.6,65.6L152.6,65.6 M152.5,65.6l0,0.2 M152.5,65.9l0,0.2
		 M152.5,66.1l0,0.2 M152.5,66.2l-0.1,0.2 M152.4,66.4l-0.1,0.2 M152.4,66.6l-0.1,0.1 M152.3,66.7l-0.1,0.1 M152.2,66.8l-0.1,0.1
		 M152.1,67l-0.1,0.1 M152,67.1L152,67.1 M151.9,67.2L151.9,67.2 M151.9,67.2L151.9,67.2 M151.8,67.3L151.8,67.3 M151.7,67.4
		L151.7,67.4 M151.6,67.4L151.6,67.4 M151.6,67.5L151.6,67.5 M151.5,67.5L151.5,67.5 M151.5,67.5L151.5,67.5 M151.4,67.5L151.4,67.5
		 M151,67.7l0.4-0.2 M150.7,67.9l0.4-0.2 M150.3,68.2l0.4-0.2 M149.9,68.4l0.4-0.3 M149.5,68.7l0.4-0.3 M149.1,69l0.4-0.3
		 M148.6,69.3l0.4-0.3 M148.2,69.6l0.4-0.3 M147.8,70l0.4-0.3 M147.4,70.3l0.4-0.3 M147,70.7l0.4-0.4 M146.5,71l0.4-0.4 M146.1,71.4
		l0.4-0.4 M145.7,71.7l0.4-0.4 M144,73.2l0.4-0.4 M143.6,73.5l0.4-0.3 M143.2,73.9l0.4-0.3 M142.5,74.5l0.7-0.6 M142.4,74.6l0.1-0.1
		 M142.2,74.7l0.2-0.1 M142,74.8l0.2-0.2 M141.7,75l0.3-0.2 M141.4,75.2l0.3-0.2 M141.1,75.4l0.3-0.2 M140.7,75.6l0.4-0.2
		 M140.3,75.8l0.4-0.2 M139.9,76l0.4-0.2 M139.4,76.2l0.4-0.2 M139,76.4l0.5-0.2 M138.5,76.6l0.5-0.2 M138,76.7l0.5-0.2 M137.5,76.9
		l0.5-0.2 M137,77l0.5-0.1 M136.5,77.1L137,77 M136,77.2l0.5-0.1 M135.5,77.3l0.5,0 M134.9,77.3l0.5,0 M134.4,77.2l0.5,0
		 M144.3,105.8l-0.5-1 M144.9,106.8l-0.6-1 M145.5,107.8l-0.6-1 M146.1,108.8l-0.6-1 M146.8,109.7l-0.7-1"/>
	<path class="st9" d="M147.4,110.7l-0.7-0.9 M148.1,111.6l-0.7-0.9 M148.9,112.5l-0.7-0.9 M149.6,113.3l-0.7-0.9 M150.3,114.2
		l-0.7-0.8 M151.1,114.9l-0.7-0.8 M151.5,115.4l-0.5-0.4 M142.9,37.9l1.6-0.2 M144.4,37.7l1.6-0.4 M147.6,36.8l1.6-0.6 M149.1,36.2
		l1.6-0.7 M150.7,35.4l1.6-0.8 M152.3,34.6l1.6-0.9 M153.9,33.7l1.6-0.9 M155.5,32.8l1.6-0.9 M157.1,32l1.7-0.8 M160.5,30.3l1.7-0.7
		 M162.2,29.6l1.8-0.6 M163.9,29l1.7,0.2 M165.7,29.3l1.6,0.3 M167.3,29.6l1.5,0.4 M168.8,30l1.4,0.5 M170.2,30.4l1.3,0.5
		 M172.6,31.5l1.1,0.6 M173.7,32.1l1,0.6 M174.7,32.7l0.9,0.7 M175.6,33.4l0.8,0.7 M176.4,34.1l0.7,0.7 M177.1,34.7l0.6,0.6
		 M177.8,35.3l0.5,0.6 M178.3,36l0.5,0.6 M178.8,36.5l0.4,0.5 M179.1,37.1l0.3,0.5 M179.4,37.5l0.2,0.4 M179.7,37.9l0.2,0.3
		 M179.8,38.2l0.1,0.2 M179.9,38.5l0,0.1 M198.1,23.9l0.3,0.8 M197.8,23.1l0.4,0.8 M197.4,22.3l0.4,0.8 M196.9,21.5l0.5,0.8
		 M196.3,20.6l0.6,0.8 M195.7,19.8l0.6,0.9 M195,18.9l0.7,0.9 M194.3,18.1l0.7,0.9 M193.5,17.2l0.8,0.9 M192.6,16.4l0.9,0.8
		 M191.7,15.6l0.9,0.8 M190.7,14.7l1,0.8 M189.7,14l1,0.8 M188.6,13.2l1.1,0.8 M187.4,12.5l1.1,0.7 M185,11.1l1.2,0.7 M183.7,10.5
		l1.3,0.6 M182.4,9.9l1.3,0.6 M181,9.4l1.4,0.5 M179.2,8.8l1.8,0.6 M177.5,8.3l1.7,0.5 M176,7.8l1.6,0.5 M174.4,7.4l1.5,0.4 M173,7
		l1.5,0.3 M171.5,6.8L173,7 M170.1,6.6l1.4,0.2 M168.6,6.5l1.5,0.1 M167.1,6.5l1.5,0 M165.6,6.6l1.5-0.1 M164,6.8l1.6-0.2
		 M162.4,7.1l1.7-0.3 M160.6,7.6l1.8-0.4 M156.7,8.8l2-0.7 M154.6,9.7l2.1-0.8 M152.3,10.7l2.3-1 M149.8,11.8l2.5-1.1 M147.1,13.1
		l2.7-1.3 M144.2,14.6l2.9-1.5 M144,14.7l0.2-0.1 M143.6,14.9l0.4-0.2 M143,15.2l0.6-0.3 M142.3,15.6l0.7-0.4 M141.4,16.1l0.9-0.5
		 M140.5,16.8l1-0.7 M139.5,17.6l1-0.8 M137.3,19.6l1.1-1.1 M136.1,20.8l1.1-1.2 M135,22.2l1.1-1.4 M133,25.6l1-1.8 M132.1,27.5
		l0.9-2 M130.6,32.1l0.7-2.4 M130.1,34.7l0.5-2.6 M129.7,40.6l0.1-3.1 M129.7,40.6l0.6,0.8 M130.3,41.3l0.6,0.7 M130.9,42.1l0.5,0.7
		 M131.4,42.8l0.5,0.7 M131.9,43.5l0.4,0.7 M132.3,44.2l0.4,0.7 M132.7,44.8l0.3,0.6 M133.1,45.5l0.3,0.6 M133.4,46l0.3,0.6
		 M133.6,46.6l0.2,0.5 M133.9,47.1l0.2-0.9 M134,46.2l0.2-0.8 M134.3,45.4l0.3-0.8 M134.6,44.6l0.4-0.8 M135,43.8l0.4-0.7
		 M135.4,43.1l0.5-0.7 M135.9,42.5l0.5-0.6 M136.3,41.8l0.5-0.6 M136.9,41.3l0.5-0.5 M137.4,40.7l0.5-0.5 M138.4,39.8l0.5-0.4
		 M138.9,39.4l0.5-0.4 M139.4,39l0.4-0.3 M139.8,38.7l0.4-0.3 M140.3,38.5l0.4-0.2 M140.6,38.2l0.3-0.2 M140.9,38.1l0.2-0.1
		 M141.1,37.9l0.2-0.1 M203.7,353.4v-8.8 M203.7,353.4l2.6-1.5 M206.3,351.9l2.3-1.6 M208.6,350.3l2.1-1.6 M210.7,348.6l1.8-1.7
		 M212.5,346.9l1.6-1.7 M214.2,345.2l1.4-1.8 M215.6,343.4l1.2-1.8 M216.8,341.6l1.1-1.9 M217.9,339.7l0.9-1.9 M218.8,337.8l0.7-1.9
		 M219.5,335.9l0.6-2 M220.1,334l0.5-2 M220.6,332l0.4-2 M221,330l0.3-2 M221.3,328l0.2-2 M221.5,326l0.1-2 M221.6,323.9l0.1-2
		 M221.7,321.9l0-2 M221.7,319.9l0-2 M221.8,317.9l0-2 M221.8,315.8l-0.2-4.8 M221.6,310l-0.1,1.1 M221.8,305.3l-0.1,4.6
		 M145.4,666.2v-8.1 M145.8,657.8l-0.4,0.3 M146.5,657.3l-0.7,0.6 M147,656.7l-0.5,0.6 M147.3,656.1l-0.3,0.6 M147.4,655.5l-0.1,0.6
		 M147.2,654.8l0.2,0.6 M146.7,654.2l0.5,0.7 M146,653.5l0.8,0.7 M146,653.5v-8.2 M146,645.3l1.1,2.1 M148.7,650.8l1.6,3.1
		 M150.3,653.9l1.5,2.9 M151.7,656.8l1.4,2.8 M153.1,659.6l1.3,2.6 M154.4,662.3l1.2,2.6 M155.6,664.8l1.1,2.5 M156.7,667.3l1.1,2.5
		 M157.8,669.8l1.1,2.5 M158.9,672.2l1.1,2.5 M160,674.7l1.1,2.6 M161,677.3l-0.3,2.3 M160.7,679.6l0.1,1.9 M160.9,681.5l0.6,1.6
		 M161.4,683.1l0.9,1.3 M162.3,684.4l1.2,1 M163.6,685.4l0.1,1.4 M163.7,686.9l0.4,1.2 M164,688.1l0.6,1.1 M164.6,689.2l0.7,0.9
		 M165.3,690l0.9,0.7 M166.2,690.8l-0.3,1.8 M166,692.6l0,1.6 M166,694.2l0.3,1.4 M166.3,695.5l0.1,0.2 M166.4,695.7l0.4,1
		 M166.8,696.6l0.7,0.9 M167.5,697.6l0.9,0.8 M168.4,698.3l1.1,0.6 M169.4,698.9l1.2,0.4 M170.7,699.3l1.3,0.3 M172,699.6l1.4,0.1
		 M173.4,699.7l1.5,0 M174.9,699.8l1.6-0.1 M176.5,699.7l1.6-0.2 M178.1,699.5l1.6-0.3 M179.7,699.3l1.6-0.3 M181.3,698.9l1.6-0.4
		 M182.8,698.6l1.5-0.4 M184.3,698.2l1.4-0.4 M185.8,697.8l1.3-0.4 M187.1,697.3l1.2-0.4 M188.4,696.9l2.6-1.4 M191,695.5l2.3-1.3
		 M193.3,694.2l2-1.3 M195.4,693l1.8-1.2 M197.1,691.8l1.5-1.2 M198.6,690.6l1.3-1.1"/>
	<path class="st9" d="M199.9,689.5l1.1-1.1 M201,688.4l0.9-1 M201.8,687.4l0.7-1 M202.5,686.4l0.5-1 M203,685.5l0.3-0.9
		 M203.3,684.5l0.2-0.9 M203.5,683.6l0.1-0.9 M203.6,682.8l0-0.9 M203.5,681.9l-0.1-0.8 M203.4,681.1l-0.2-0.8 M203.2,680.2
		l-0.3-0.8 M203,679.4l-0.3-0.8 M202.7,678.6l-0.3-0.8 M202.3,677.8l-1.1-0.8 M201.2,677l-0.9-0.8 M200.3,676.2l-0.6-0.8
		 M199.7,675.4l-0.4-0.8 M199.3,674.6l-0.3-0.8 M199,673.8l-0.1-0.8 M198.9,673l0-0.9 M198.9,672.2l0-0.7 M198.9,671.5l0-0.2
		 M199,671.2l0-0.2 M199,671.1l0-0.2 M199,670.9l0-0.2 M199,670.7l0-0.2 M199,670.5l0-0.2 M199.1,670.3l0.1-1.1 M199.2,669.2
		l0.1-1.1 M199.3,668.1l0-1.3 M199.3,666.8l0-1.4 M199.3,665.5l-0.2-1.5 M199.1,663.9l-0.3-1.7 M198.8,662.3l-0.5-1.8 M198.3,660.5
		l-0.7-2 M197.6,658.5l-1-2.2 M196.6,656.3l-1.2-2.4 M195.4,653.9l-1.6-2.6 M193.7,647.8l0.1,3.5 M193.5,644l0.2,3.9 M193.1,639.8
		l0.4,4.2 M192.6,635.4l0.5,4.4 M191.9,630.9l0.7,4.6 M191,626.2l0.9,4.7 M189.9,621.5l1.1,4.7 M188.6,616.8l1.3,4.7 M187.1,612.1
		l1.5,4.7 M185.3,607.6l1.8,4.5 M183.3,603.2l2,4.3 M181,599.1l2.3,4.1 M178.5,595.3l2.5,3.8 M175.7,591.9l2.8,3.4 M172.6,588.9
		l3.1,3 M169.2,586.3l3.4,2.5 M169.2,586.3l-0.3-0.8 M169.2,583.9l-0.3,1.7 M169.1,582.4l0.1,1.5 M168.5,581.1l0.6,1.3 M167.4,580.1
		l1.1,1 M165.7,579.4l1.7,0.7 M166,578.3l-0.3,1.1 M166.1,577.2l-0.1,1.1 M166,576.3l0.1,1 M165.7,575.4l0.3,0.9 M165.1,574.6
		l0.6,0.8 M164.2,574l0.9,0.6 M163,573.5l1.2,0.5 M163.2,573.1l-0.2,0.5 M163.3,572.5l-0.1,0.6 M163.4,571.9l-0.1,0.7 M163.4,571.1
		l0,0.7 M163.4,570.3l0,0.8 M163.3,569.4l0.1,0.9 M163.2,568.5l0.1,0.9 M163,567.6l0.1,1 M162.9,566.6l0.2,1 M162.7,565.6l0.2,1
		 M162.5,564.5l0.2,1 M161.9,561.5l0.2,1 M161.7,560.5l0.2,1 M161.6,559.5l0.2,0.9 M161.4,558.7l0.1,0.9 M161.3,557.8l0.1,0.8
		 M161.3,557l0.1,0.8 M161.2,556.3l0,0.7 M162.5,555l-1.2,1.3 M163.2,553.7l-0.8,1.3 M163.4,552.5l-0.2,1.2 M163,551.3l0.4,1.2
		 M162,550.2l1,1.1 M161.4,547.5l0.6,2.7 M161.6,543.8l-0.1,3.7 M162.2,539.2l-0.7,4.6 M163.5,533.7l-1.2,5.5 M165.1,527.5l-1.7,6.2
		 M167.2,520.6l-2.1,6.9 M169.5,513.1l-2.4,7.5 M172.2,505.2l-2.6,8 M180.8,479.1l-2.9,8.9 M183.7,470l-2.9,9.1 M186.5,460.9
		l-2.8,9.2 M189.2,451.7l-2.7,9.2 M191.6,442.6l-2.4,9.1 M193.7,433.7l-2.1,8.9 M195.5,425l-1.8,8.7 M196.8,416.6l-1.3,8.4
		 M197.7,408.7l-0.9,8 M198,401.2l-0.3,7.5 M198.3,399.4l-0.2,0.9 M198.6,398.2l-0.2,1.3 M198.9,396.6l-0.3,1.6 M199.2,394.7
		l-0.3,1.9 M199.6,392.6l-0.4,2.1 M200,390.3l-0.4,2.3 M200.4,387.8l-0.4,2.5 M200.9,385l-0.4,2.7 M201.3,382.2l-0.4,2.9
		 M201.7,379.2l-0.4,3 M202.1,376l-0.4,3.1 M202.5,372.9l-0.4,3.2 M202.8,369.6l-0.3,3.2 M203.1,366.3l-0.3,3.3 M203.4,363l-0.2,3.3
		 M203.6,359.8l-0.2,3.3 M203.7,356.5l-0.1,3.2 M203.7,353.4l0,3.2 M64.3,332l-4.2,8.3 M60.1,340.3l-2.8,9.5 M57.3,349.8l-1.6,10.6
		 M55.7,360.3l-0.5,11.4 M55.2,371.8l0.5,12.1 M55.8,383.9l1.4,12.6 M57.2,396.5l2.2,13 M59.3,409.5l2.8,13.1 M62.1,422.6l3.3,13.1
		 M65.4,435.8l3.6,12.9 M69,448.7l3.9,12.6 M72.8,461.3l4,12 M76.8,473.3l4,11.4 M80.8,484.7l3.8,10.5 M84.6,495.2l3.6,9.5
		 M91.4,512.9l2.7,7 M94.1,519.9l2.1,5.5 M96.2,525.4l1.3,3.8 M97.5,529.2l-0.5,0.6 M97,529.8l-0.4,0.7 M96.6,530.4l-0.3,0.7
		 M96.3,531.1l-0.2,0.8 M96.1,531.9l-0.1,0.9 M96,532.8l0,0.9 M95.9,533.7l0.1,1 M96,534.7l0.1,1 M96.1,535.7l0.2,1 M96.3,536.7
		l0.3,1.1 M96.6,537.8l0.3,1.1 M96.9,538.9l0.4,1.1 M97.3,540l0.4,1.1 M97.8,541.2l0.5,1.1 M98.2,542.3l0.5,1.2 M98.7,543.5l0.5,1.1
		 M99.3,544.6l0.6,1.1 M99.9,545.7l0.6,1.1 M100.5,546.9l0.6,1.1 M101.1,548l0,0.5 M101.1,548.5L101,549 M101,549l-0.1,0.5
		 M100.9,549.5l-0.1,0.4 M100.7,549.9l-0.2,0.4 M100.6,550.3l-0.2,0.4 M100.4,550.7l-0.2,0.4 M100.1,551l-0.2,0.3 M99.9,551.4
		l-0.2,0.3 M99.6,551.7l-0.3,0.3 M99.4,552l-0.3,0.3 M99.1,552.3l-0.2,0.3 M98.9,552.6l-0.2,0.3 M98.7,552.9l-0.2,0.3 M98.4,553.3
		l-0.2,0.3 M98.2,553.6l-0.2,0.3 M98,553.9l-0.1,0.4 M97.9,554.3l-0.1,0.4 M97.8,554.7l-0.1,0.4 M97.7,555.1l0,0.4 M97.7,555.5
		l0,0.3 M97.7,555.9l0.1,0.3 M97.9,556.2l0.2,0.3 M98.1,556.5l0.3,0.3 M98.4,556.9l0.3,0.3 M98.7,557.2l0.4,0.3 M99.1,557.5l0.4,0.3
		 M99.5,557.8l0.5,0.3 M100,558.1l0.5,0.3 M100.5,558.4l-0.7,6 M99.8,564.4l-0.4,5.7 M99.4,570.1l-0.2,5.4 M99.1,575.5l0,5.2
		 M99.1,580.7l0.2,4.9 M99.3,585.6l0.3,4.7 M99.6,590.4l0.4,4.6 M100,594.9l0.6,4.4"/>
	<path class="st9" d="M100.6,599.4l0.6,4.3 M101.2,603.7l0.7,4.2 M101.9,607.9l0.7,4.2 M104.2,620.4l0.7,4.2 M105,624.6l0.7,4.2
		 M105.6,628.9l0.6,4.3 M106.2,633.2l0.5,4.4 M106.8,637.6l0.4,4.6 M107.2,642.2l0.3,4.8 M107.4,647l0.1,5 M107.5,652l0,0.5
		 M107.5,652.5l0,0.5 M107.5,653l0,0.4 M107.5,653.4l0,0.4 M107.5,653.7l0,0.3 M107.6,654.1l0,0.3 M107.6,654.4l0,0.3 M107.6,654.6
		l0,0.2 M107.6,654.8l0,0.2 M107.6,655.1l0,0.2 M107.7,655.3l0,0.2 M107.7,655.6l0,0.2 M107.7,655.8l0,0.2 M107.8,656l0,0.2
		 M107.8,656.2l0,0.2 M107.8,656.4l0,0.2 M107.8,656.6l0,0.2 M107.8,656.8l0,0.3 M107.8,657.1l0,0.3 M107.8,657.4l-0.8,0.7
		 M107,658.1l-0.5,0.6 M106.5,658.7l-0.2,0.5 M106.3,659.3l0,0.5 M106.3,659.8l0.3,0.4 M106.6,660.2l0.5,0.4 M107.1,660.6l0.7,0.3
		 M107.8,660.9l0.3,0.4 M108.1,661.3l0.3,0.5 M108.4,661.8l0.3,0.6 M108.6,662.3l0.2,0.6 M108.9,662.9l0.2,0.6 M109.1,663.6l0.2,0.7
		 M109.3,664.3l0.2,0.7 M109.5,665l0.1,0.7 M109.6,665.7l0.1,0.7 M109.8,666.5l0.1,0.7 M109.9,667.2l0.1,0.7 M109.9,667.9l0,0.7
		 M109.9,668.7l0,0.7 M109.9,669.4l-0.1,0.7 M109.9,670l-0.1,0.6 M109.8,670.7l-0.1,0.6 M109.6,671.3l-0.2,0.5 M109.4,671.8
		l-0.2,0.5 M109.2,672.2l-0.3,0.4 M108.9,672.6l-0.3,0.3 M108.6,672.9l-0.8,0.9 M107.8,673.8l-0.3,0.8 M107.5,674.6l0.1,0.7
		 M107.5,675.3l0.4,0.6 M107.9,675.9l0.7,0.6 M108.6,676.5l1,0.5 M109.6,677l1.2,0.4 M110.8,677.4v5.1 M110.8,682.6l0.1,0.5
		 M110.9,683.1l0.3,0.5 M111.2,683.6l0.5,0.4 M111.7,684l0.7,0.3 M112.3,684.3l0.8,0.3 M113.2,684.6l1,0.2 M114.1,684.8l1.1,0.2
		 M115.2,685l1.2,0.2 M116.5,685.2l1.3,0.1 M117.8,685.3l1.4,0.1 M119.2,685.4l1.5,0 M120.7,685.4l1.6,0 M122.3,685.4l1.6,0
		 M123.9,685.4l1.7,0 M125.6,685.4l1.7-0.1 M127.3,685.3l1.7-0.1 M129,685.2l1.7-0.1 M130.7,685.1l1.7-0.1 M132.4,685l1.7-0.1
		 M134.1,684.9l1.7-0.1 M135.8,684.8l1.9-0.2 M137.7,684.6l1.7-0.3 M139.4,684.3l1.5-0.4 M140.9,683.9l1.3-0.5 M142.2,683.4l1.1-0.6
		 M143.3,682.8l1-0.6 M144.3,682.2l0.8-0.7 M145.1,681.5l0.7-0.7 M145.8,680.8l0.5-0.7 M146.3,680.1l0.4-0.7 M146.8,679.4v-4.8
		 M146.8,674.6v-1.8 M146.8,672.8l0-0.2 M147.3,672.3l-0.5,0.3 M148.1,671.6l-0.9,0.7 M148.9,670.9l-0.7,0.7 M149.4,670.2l-0.5,0.7
		 M149.7,669.5l-0.3,0.7 M149.8,668.8l-0.1,0.7 M149.6,668.2l0.2,0.6 M149.1,667.6l0.5,0.6 M148.2,667.1l0.9,0.5 M147,666.6l1.2,0.5
		 M145.4,666.2l1.6,0.4 M117.6,60.8l0.6,1.6 M118.2,62.4l0.5,1.5 M118.7,63.9l0.4,1.4 M119.1,65.3l0.4,1.2 M119.5,66.5l0.5,1.5
		 M119.9,68l0.5,1.4 M120.4,69.4l0.5,1.2 M120.8,70.6l0.5,1.1 M121.3,71.7l0.5,0.9 M121.8,72.6l0.5,0.8 M122.2,73.4l0.5,0.7
		 M122.7,74.1l0.5,0.6 M123.2,74.7l0.5,0.5 M123.7,75.2l0.5,0.4 M124.3,75.6l0.6,0.3 M124.8,75.9l0.6,0.3 M151,63.5L151,63.5
		 M150.8,63.5l0.1,0 M150.7,63.5l0.2,0 M150.5,63.5l0.2,0 M150.2,63.4l0.3,0 M150.2,63.4l-0.8,0 M149.4,63.4l-0.7,0 M148.7,63.4
		l-0.6,0.1 M148.2,63.5l-0.1,0 M148.7,63.4l-0.7,0.1 M152.7,59.4L152.7,59.4 M152.7,59.4L152.7,59.4 M152.7,59.3L152.7,59.3
		 M152.7,59.3L152.7,59.3 M152.7,59.2L152.7,59.2 M152.7,59.1L152.7,59.1 M152.6,59l0,0.1 M152.6,58.9l0,0.1 M152.5,58.8l0.1,0.1
		 M152.4,58.6l0.1,0.1 M152.4,58.5l0.1,0.2 M152.2,58.3l0.1,0.2 M152.1,58.1l0.1,0.2 M152,57.9l0.1,0.2 M151.8,57.7l0.2,0.2
		 M151.6,57.5l0.2,0.2 M151.6,57.5L151.6,57.5 M151.5,57.4L151.5,57.4 M151.4,57.3l0.1,0.1 M151.2,57.2l0.2,0.1 M151,57.1l0.2,0.2
		 M150.7,56.9l0.3,0.2 M150.4,56.7l0.4,0.2 M149.9,56.4l0.4,0.3 M149.4,56.1l0.5,0.3 M148.8,55.8l0.6,0.3 M148,55.4l0.7,0.4
		 M147.2,55l0.9,0.4 M146.2,54.5l1,0.5 M145,54l1.1,0.5 M143.7,53.4L145,54 M142.3,52.8l1.4,0.6 M140.7,52.2l1.6,0.6 M138.9,51.5
		l1.8,0.7 M136.9,50.7l2,0.7 M134.8,49.9l2.2,0.8 M134.7,49.9L134.7,49.9 M134.7,49.8l0,0.1 M134.7,49.6l0,0.2 M134.6,49.4l0.1,0.2
		 M134.6,49.2l0.1,0.3 M134.5,48.8l0.1,0.3 M134.4,48.5l0.1,0.4 M134.2,48.1l0.1,0.4 M134.1,47.6l0.2,0.4 M133.9,47.1l0.2,0.5
		 M130.6,32.1l-0.4-0.6 M130.2,31.4l-0.4-0.6 M129.8,30.9l-0.4-0.5 M129.4,30.3l-0.4-0.5 M129,29.9l-0.4-0.4 M128.7,29.4l-0.3-0.4
		 M128.3,29.1l-0.3-0.3 M128,28.7l-0.3-0.3 M127.7,28.5l-0.3-0.2 M127.4,28.2l-0.3-0.2 M127.2,28l-0.2-0.2 M126.9,27.8l-0.2-0.1
		 M126.7,27.7l-0.2-0.1 M126.6,27.6l-0.2-0.1 M126.4,27.5l-0.1-0.1 M126.3,27.5l-0.1,0 M126.2,27.4L126.2,27.4 M126.1,27.4
		L126.1,27.4 M126,27.4l-1.6-1 M124.4,26.5l-1.8-1"/>
	<path class="st9" d="M122.6,25.5l-2-0.9 M120.5,24.6l-2.2-0.9 M118.3,23.6l-2.3-0.9 M116,22.7l-2.5-0.9 M113.5,21.9l-2.6-0.9
		 M108.3,20.2l-2.7-0.8 M105.7,19.4l-2.7-0.8 M103,18.6l-2.7-0.7 M100.3,17.9l-2.6-0.7 M97.7,17.2l-2.6-0.6 M95.1,16.6l-2.5-0.6
		 M92.7,16.1l-2.4-0.5 M90.3,15.6l-2.2-0.4 M88.1,15.1l-2-0.4 M86.1,14.7l-1.8-0.3 M84.2,14.4l-1.6-0.2 M82.6,14.2L81.2,14 M81.2,14
		l-3.3-0.3 M77.9,13.7l-3.4-0.2 M74.5,13.5l-3.5-0.2 M71.1,13.3l-3.5-0.1 M67.5,13.2L64,13.2 M60.4,13.1l-3.5,0 M56.9,13.2l-3.5,0.1
		 M53.4,13.2l-3.4,0.1 M50.1,13.3l-3.3,0.1 M46.8,13.5l-3.1,0.2 M43.6,13.7l-3,0.2 M40.7,13.8l-2.8,0.2 M37.9,14.1l-2.5,0.2
		 M35.4,14.3l-2.3,0.3 M33.1,14.6l-2,0.3 M31,14.9l-1.7,0.3 M29.3,15.2L28,15.5 M28,15.5l-1,0.3 M27,15.8l-0.6,0.3 M26.3,16.1
		l-0.7,0.5 M25.6,16.6L25,17.3 M25,17.3l-0.5,0.9 M24.4,18.2L24,19.3 M24,19.3l-0.4,1.2 M23.6,20.5l-0.3,1.3 M23.3,21.8L23,23.2
		 M23,23.2l-0.2,1.4 M22.8,24.6l-0.1,1.5 M22.7,26.1l-0.1,1.5 M22.6,27.6L22.5,29 M22.5,29l0,1.4 M22.5,30.5l0,1.3 M22.5,31.8l0,1.2
		 M22.5,33l0,1.1 M22.6,34.2l0,1 M22.6,35.1l0.2,1.4 M23.3,38.4l0.8,2.1 M24,40.5l1,2.4 M25,42.9l1.2,2.6 M26.3,45.6l1.4,2.8
		 M27.7,48.4l1.6,3 M29.2,51.4l1.7,3.1 M30.9,54.4l1.7,3.1 M32.6,57.5l1.8,3.1 M34.4,60.6l1.8,3.1 M36.2,63.7l1.8,3 M38,66.7
		l1.7,2.8 M39.7,69.5l1.6,2.7 M41.4,72.2l1.5,2.4 M42.9,74.6l1.4,2.2 M44.3,76.8l1.2,1.9 M45.5,78.7l1,1.5 M46.4,80.2l0.7,1.1
		 M71.3,48l1.1-0.5 M72.4,47.5l0.9-0.5 M73.3,47l2-1.4 M77.2,44.4l1-0.6 M78.2,43.8l1-0.6 M79.2,43.2l1-0.5 M81.2,42.2l0.9-0.4
		 M82.2,41.8l0.9-0.3 M83.1,41.5l0.8-0.1 M83.9,41.4l0.8,0 M88.1,41.4l3,0 M91.1,41.5l2.7,0.1 M93.8,41.5l2.4,0.1 M96.2,41.6
		l2.1,0.1 M98.3,41.7l1.9,0.1 M100.2,41.8l1.6,0.1 M101.8,42l1.4,0.1 M103.2,42.1l1.2,0.1 M104.3,42.3l1,0.1 M106.1,42.6l0.6,0.1
		 M106.7,42.7l0.5,0.1 M107.2,42.8l0.4,0.1 M107.6,43l0.3,0.1 M107.8,43.1l0.2,0.1 M108,43.2l0.1,0.1 M108.1,43.3L108.1,43.3
		 M108.2,43.3L108.2,43.3 M108.2,43.4L108.2,43.4 M108.2,43.4l0.6,0.4 M108.8,43.8l0.7,0.7 M109.5,44.5l0.7,0.9 M110.2,45.4l0.7,1.1
		 M111,46.5l0.8,1.3 M111.8,47.8l0.8,1.4 M112.5,49.2l0.8,1.5 M113.3,50.7l0.8,1.6 M114.1,52.3l0.8,1.7 M114.8,54l0.7,1.7
		 M115.6,55.7l0.7,1.7 M116.3,57.5l0.7,1.7 M117,59.2l0.6,1.7 M205.6,707.2l0.3,0.9 M205.3,706.4l0.3,0.8 M205,705.7l0.3,0.7
		 M204.7,705.1l0.3,0.6 M204.4,704.6l0.3,0.5 M204.1,704.2l0.3,0.4 M203.8,704l0.3,0.2 M203.5,704l0.3,0.1 M203.5,699.1l0,2.4
		 M203.5,696.8l0.1,2.3 M203.3,694.7l0.1,2.1 M203.2,692.8l0.2,1.9 M202.9,691.2l0.3,1.6 M202.6,689.9l0.3,1.3 M202.1,688.9l0.4,0.9
		 M201.6,688.4l0.5,0.5 M201,688.4l0.6,0 M166.4,696.1v-0.4 M166.4,696.1l0,0.6 M166.3,696.7l0,0.6 M166.3,697.3l0.1,0.6
		 M166.4,697.9l0.1,0.6 M166.5,698.4l0.1,0.5 M166.6,699l0.1,0.5 M166.8,699.5l0.2,0.5 M166.9,700l0.2,0.5 M167.1,700.5l0.2,0.5
		 M167.3,701.1l0.2,0.5 M167.5,701.6l0.2,0.5 M167.7,702.1l0.2,0.5 M167.9,702.6l0.2,0.5 M168.1,703.2l0.2,0.5 M168.3,703.7l0.2,0.6
		 M168.5,704.3l0.2,0.6 M168.6,704.8l0.1,0.6 M168.8,705.4l-1,1.7 M167.8,707.1l-0.6,1.5 M167.2,708.6l-0.3,1.4 M166.9,710l0.1,1.2
		 M167,711.2l0.4,1.1 M167.4,712.3l0.6,1 M168,713.2l0.9,0.8 M168.8,714.1l0.2,0.3 M169,714.4l0.1,0.5 M169.1,714.8l0,0.6
		 M169,715.4l-0.1,0.7 M169,716.2l-0.2,0.8 M168.8,717l-0.2,0.9 M168.2,720l-0.2,1.1 M167.9,721l-0.2,1.1 M167.7,722.1l-0.2,1.1
		 M167.6,723.1l-0.1,1 M167.4,724.2l-0.1,1 M167.4,725.1l0,0.9 M167.4,726l0.1,0.8 M167.6,726.8l0.2,0.7 M167.8,727.5l0.4,0.5
		 M147.5,750.2l-7.8,4.2 M153.7,723.5l-6.1,26.7 M204.5,59.3L204.5,59.3 M204.6,59.3l-0.1,0 M204.7,59.3l-0.2,0 M204.9,59.3l-0.2,0
		 M205.1,59.3l-0.2,0 M205.4,59.3l-0.3,0 M205.7,59.3l-0.3,0 M206,59.4l-0.3-0.1 M206,56.8l0,0.7 M206,56l0,0.8 M206,55.1l0,0.9
		 M205.9,54.2l0,0.9 M205.9,53.3l0,0.9 M205.9,52.3l0,1 M205.9,51.4l0,0.9 M205.9,50.4l0,0.9 M205.8,49.6l0,0.9 M205.8,48.7l0,0.8
		 M205.8,48l0,0.8 M205.7,47.3l0,0.7 M205.7,46.7l0,0.6 M205.6,46.3l0.1,0.5 M205.6,45.9l0.1,0.3 M209.8,66.3l0.1-0.8 M209.9,65.5
		l0-0.7 M209.9,64.8l0-0.5 M209.8,64.3l-0.1-0.4 M209.8,63.8l-0.1-0.3 M209.7,63.5l-0.1-0.3 M209.6,63.2l-0.3-0.7"/>
	<path class="st9" d="M209.3,62.5l-0.3-0.6 M209,61.9l-0.3-0.5 M208.7,61.4l-0.3-0.5 M208.4,61l-0.3-0.4 M208,60.6l-0.3-0.3
		 M207.7,60.3l-0.3-0.3 M207.3,60l-0.3-0.2 M207,59.8l-0.3-0.2 M206.6,59.6l-0.3-0.1 M206.3,59.5l-0.3-0.1 M204.6,79.8l-0.6,0.8
		 M205.1,79.1l-0.5,0.7 M205.5,78.4l-0.4,0.6 M205.9,77.9l-0.4,0.6 M206.2,77.3l-0.3,0.5 M206.6,76.8l-0.3,0.5 M206.8,76.3l-0.3,0.5
		 M207.1,75.8l-0.3,0.5 M207.3,75.3l-0.2,0.5 M207.5,74.8l-0.2,0.5 M207.7,74.2l-0.2,0.5 M207.9,73.7l-0.2,0.6 M208.1,73l-0.2,0.6
		 M208.3,72.3l-0.2,0.7 M208.6,71.5l-0.2,0.8 M208.8,70.7l-0.2,0.9 M209.5,68.2l0.2-1 M209.7,67.2l0.1-0.9 M111.9,700.6l0.4,2.5
		 M112.3,703.1l-0.7,1.5 M111.6,704.6L111,706 M111,706l-0.5,1.4 M110.6,707.4l-0.4,1.4 M110.2,708.8l-0.3,1.3 M109.9,710.1
		l-0.2,1.3 M109.7,711.4l-0.1,1.2 M109.5,712.6l-0.1,1.1 M109.4,713.7l0,1.1 M109.4,714.8l0,1 M109.4,715.8l0.1,0.9 M109.5,716.7
		l0.1,0.8 M109.6,717.5l0.1,0.8 M109.7,718.3l0.1,0.7 M109.8,719l0.1,0.6 M109.9,719.5l0.1,0.5 M110,720l0.1,0.4 M110.1,720.4
		l0.1,0.3 M110.2,720.7l0.1,0.2 M110.3,720.8L110.3,720.8 M110.3,720.9l0.5,0.2 M153.4,703.8l1.2,2 M152.5,701.8l1,2.1 M151.7,699.6
		l0.8,2.1 M151.1,697.5l0.6,2.2 M150.6,695.3l0.5,2.2 M150.3,693.1l0.3,2.2 M150,690.9l0.2,2.2 M149.9,688.8l0.1,2.1 M149.8,686.7
		l0.1,2.1 M149.8,684.7l0,2 M149.7,682.8l0,1.9 M149.7,681.1l0,1.7 M149.7,679.5l0.1,1.6 M149.6,678.1l0.1,1.4 M149.4,676.9l0.2,1.2
		 M149.1,675.9l0.3,1 M148.8,675.2l0.4,0.7 M148.3,674.7l0.5,0.5 M147.6,674.5l0.7,0.2 M146.8,674.6l0.8-0.1 M110.9,683.1l-0.7,0.3
		 M110.2,683.4l-0.5,0.6 M109.7,684l-0.2,0.9 M109.4,684.9l-0.1,1.2 M109.4,686.2l0.1,1.5 M109.5,687.7l0.2,1.7 M109.7,689.4l0.3,2
		 M110.1,691.4l0.4,2.1 M110.5,693.5l0.5,2.3 M111,695.8l0.5,2.4 M111.5,698.1l0.5,2.4 M198.3,113.5l-0.2-0.2 M198.7,113.5l-0.3,0
		 M199.1,113.3l-0.5,0.2 M199.7,112.9l-0.6,0.4 M200.3,112.4l-0.6,0.5 M201,111.7l-0.7,0.7 M201.7,110.9l-0.7,0.8 M202.4,110
		l-0.7,0.9 M203,108.9l-0.6,1.1 M203.6,107.7l-0.6,1.2 M204.1,106.4l-0.5,1.3 M204.4,105l-0.4,1.4 M204.6,103.4l-0.2,1.5
		 M204.7,101.8l0,1.6 M204.5,100.2l0.2,1.7 M204.1,98.4l0.4,1.8 M203.5,96.6l0.6,1.8 M202.6,94.7l0.9,1.9 M201.3,92.7l1.2,1.9
		 M193.3,772.3l0.2-0.2 M193.5,772.1l0.2-0.2 M193.7,771.9l0.1-0.3 M193.8,771.7l0.1-0.3 M194,771.4l0.1-0.3 M194.1,771.1l0.1-0.3
		 M194.2,770.7l0.1-0.3 M194.2,770.4l0.1-0.3 M194.3,770.1l0-0.3 M194.3,769.7l0-0.3 M194.3,769.4l0-0.3 M194.4,769l0-0.3
		 M194.3,768.7l0-0.3 M194.3,768.4l0-0.3 M194.3,768.2l-0.1-0.2 M194.2,767.9l-0.1-0.2 M194.1,767.7l-0.1-0.2 M194,767.5l-0.1-0.1
		 M193.9,767.4l-0.1-0.1 M193.8,767.3l-0.1,0 M151.2,778.8L151,779 M151,779l-0.1,0.2 M150.9,779.2l-0.1,0.2 M150.8,779.5l-0.1,0.3
		 M150.7,779.7l-0.1,0.3 M150.6,780l0,0.3 M150.6,780.4l0,0.3 M150.6,780.7l0,0.4 M150.6,781.1l0,0.4 M150.6,781.4l0,0.4
		 M150.6,781.8l0.1,0.3 M150.7,782.1l0.1,0.3 M150.8,782.4l0.1,0.3 M150.8,782.8l0.1,0.3 M151,783l0.1,0.3 M151.1,783.3l0.2,0.2
		 M151.3,783.5l0.2,0.2 M151.4,783.7l0.2,0.1 M151.6,783.8l0.2,0.1 M151.8,783.9l0.2,0 M152,783.9l3.1,0.9 M155.1,784.9l2.9,0.6
		 M158,785.5l2.8,0.4 M160.9,785.9l2.7,0.1 M163.6,786l2.6-0.1 M166.2,786l2.5-0.3 M168.8,785.7l2.4-0.5 M171.2,785.2l2.3-0.6
		 M173.5,784.6l2.2-0.8 M175.8,783.8l2.1-0.9 M177.9,783l2.1-1 M180,782l2-1.1 M181.9,780.9l1.9-1.2 M183.8,779.7l1.8-1.2
		 M185.6,778.5l1.7-1.2 M187.3,777.3l1.6-1.3 M188.9,776l1.5-1.3 M190.5,774.7l1.5-1.2 M191.9,773.5l1.4-1.2 M130.8,76.9l1,0.1
		 M132.4,92l1,1.3 M135.3,95.7l0.9,1.1 M142.2,103.4l0.6,0.6 M145.8,105.9l0.7,0.1 M148.7,104.5l0.1-0.4 M157.2,68.7l0.6,0.6
		 M160.4,71.2l1.1,0.8 M161.9,72.4l0.3,0.2 M163.9,73.8l0.7,0.4 M166.2,75.2l1,0.5 M178.4,78.7l1.7,0 M186.6,78.4l1-0.1 M200.6,85.1
		l0.5,0 M203.5,69.2l0-1 M202.8,61.6l-0.3-1.4 M202.4,59.4l-0.1-0.7 M202,57.1l-0.1-0.8 M201.8,55.4l-0.1-0.9 M201.8,53.5l0-1
		 M201.7,52.5l0.1-0.2 M201.9,52l0.1-0.3 M209.5,44.8l3.3-0.1 M229.1,44.9l2.1,0.1 M256.7,51.2l3.4,1.5 M278,65.4l-0.9-4.6
		 M304.7,78.8l2.3-5.4 M311.5,61.9l2.1-6.2 M290.9,21.5l-4.2-0.6 M230.1,19.9l-7.5,0.8 M192.5,28.3l-0.6,0.5 M191.4,29.4l-1.1,1.1
		 M184.1,35.7l-0.8,0.6 M183.2,36.2l-1.5,1 M176,43.7l0.5-0.9 M165.5,52.3l-2.4,1 M130.7,758l0.3-2.2 M148.1,729.5l2.2-2.3
		 M129.1,64.8l0.4,0.8 M142.4,61.5l2,0.8 M133.8,59.1l-1.4-0.1"/>
	<path class="st9" d="M188.7,108.7l-1,1 M161.8,119.3l-0.8,0 M157.2,118.9l-0.1,0 M148.8,141l-0.3,2.7 M147.8,154l-0.1,2.6
		 M210.3,110.5l-2.2,0 M116.9,92.3l-3.7-4.1 M88.3,62.9l8,7.8 M66.3,49.6L65,49.8 M60.8,49.9l-1.1-0.1 M72.2,116.5l7.3,6.8
		 M94.3,167.6l-2,20.3 M92.3,188l-2.1,18.2 M271.3,133.4l2.5-3.5 M171.7,728.7l-2.4-0.1 M201.3,739.8l-0.9,2.1 M144.4,72.8l1.3-1.1
		 M134.4,77.2l-2-0.2 M142.9,37.9l-1.6,0 M146,37.3l1.6-0.5 M158.8,31.1l1.7-0.8 M171.5,30.9l1.2,0.6 M187.4,12.5l-1.2-0.7
		 M160.6,7.6l-1.9,0.6 M139.5,17.6l-1.1,0.9 M135,22.2l-1.1,1.6 M132.1,27.5l-0.8,2.2 M130.1,34.7l-0.3,2.8 M137.9,40.2l0.5-0.4
		 M147,647.4l1.7,3.4 M162.5,564.5l-0.4-2.1 M172.2,505.2l5.7-17.1 M198,401.2l0.2-0.8 M102.7,612.1l1.5,8.3 M125.4,76.1l0.6,0.2
		 M126,76.3l0.6,0.1 M110.9,21l-2.6-0.8 M64,13.2l-3.6,0 M22.8,36.6l0.5,1.8 M75.3,45.6l0.8-0.6 M76.2,45.1l1-0.7 M80.3,42.6l1-0.5
		 M84.7,41.4l3.4,0 M105.3,42.4l0.8,0.1 M203.5,704l0-2.5 M168.6,717.9l-0.4,2 M202.4,59.9l1.9-0.6 M206,58.7l0,0.7 M206,58.7l0-1.1
		 M202.7,82.3l1.3-1.8 M209.5,68.2l-0.7,2.5 M201.3,92.7l-1.8-2.3 M231.7,259.3l3.8-21 M143.3,123.6L143.3,123.6 M195.8,82.4
		l0.3-1.5 M136.5,661.3l-0.9,0.1 M185,64.7l-0.1-0.2 M242.6,102l0.3-1 M170.4,26.6l1.2-0.6 M144.8,652.9l1.1,0.7 M134.8,661.5
		l-0.6,0 M243.1,98.2l0.1-1.8 M243.1,96.3l0-2.1 M243.2,94.3l0-2.3 M197.9,675.3l0.2-0.5 M108.4,571.5l1.4,6.2 M198.3,674.3l0.1-0.4
		 M145,121.9l-0.6,0.6 M198.8,672.4l0.1-0.3 M198.9,671.5l0-0.2 M112.9,587.9l1.7,4.2 M56.7,49.5l1,0.1 M195.4,84.1l0.4-1.7
		 M198.4,673.8l0.1-0.4 M175.2,687l1.8-0.2 M197.7,675.9l0.2-0.6 M183.8,62.9l0.4,0.4 M163.9,29l1.9-0.7 M147.3,118.6l-0.5,0.9
		 M143.5,123.4l-0.2,0.2 M53.6,48.8l1.1,0.3 M51.3,48.1l1.2,0.4 M243.2,92l0-0.5 M127,608.3l3.3,6.4 M142.8,163.7l-1.3-0.2
		 M185.2,65.2l0-0.2 M118.6,678.6l1.6,0 M184.6,63.7L184.6,63.7 M124.6,678.3l1.1-0.2 M125.7,678.1l0.8-0.3 M126.5,677.9l0.6-0.3
		 M137.4,661.1l-1,0.2 M157.7,559l-2.2,1.3 M138.5,660.8l-1.1,0.3 M143,659.3l-1.1,0.4 M144,658.9l-1,0.5 M111.3,583.1l1.6,4.8
		 M193.8,651.3l0,3.1 M48.6,47l1.4,0.6 M140.7,660.2l-1.1,0.3 M141.9,659.8l-1.1,0.4 M118.1,599l1.8,2.7 M193.6,657.1l-0.2,2.1
		 M116.3,595.8l1.8,3.2 M127.1,158.7l-0.9-0.5 M47.8,46.6l0.9,0.4 M184.4,63.5L184.4,63.5 M41.9,43.8l1.9,1 M143.9,123l-0.4,0.4
		 M144.9,658.4l-0.9,0.5 M50,47.6l1.3,0.5 M43.8,44.8l1.7,0.9 M198.7,672.7l0.1-0.3 M144.2,14.6L144.2,14.6 M174.9,24.4l0.9-0.5
		 M135.6,661.4l-0.7,0.1 M184.5,63.6L184.5,63.6 M193.4,659.2l-0.3,1.5 M168.9,706.1l0.1,0.6 M198.5,673.4l0.1-0.4 M183.3,62.4
		l0.5,0.5 M198.9,671.9l0-0.2 M107.2,564.6l1.3,6.9 M169.1,27.1l1.3-0.6 M184.8,64.2l-0.1-0.1 M184.8,64.1l-0.1-0.1 M185.2,65.7
		l0-0.2 M113.7,678.1l1.6,0.2 M144.4,122.5l-0.5,0.5 M114.6,592.2l1.7,3.7 M194.1,87.7l0.7-1.9 M146.8,119.6l-0.6,0.9 M124.8,157.2
		l-0.5-0.5 M125.5,157.7l-0.6-0.5 M109.8,672l-1.3,0.9 M196.1,80.9l0.2-1.4 M194.8,85.9l0.6-1.8 M145.2,164l0.9,0.1 M119.9,601.7
		l1.8,2.2 M121.7,603.9l1.8,1.8 M123.5,605.7l1.8,1.5 M125.3,607.2l1.7,1.1 M54.7,49.1l1,0.2 M126,27.4L126,27.4 M197.2,677.2
		l0.3-0.7 M184.4,63.5L184.4,63.5 M184.3,63.3L184.3,63.3 M172.8,25.4l1.1-0.5 M117,678.5l0.7,0 M184.3,63.4L184.3,63.4 M184.2,63.3
		L184.2,63.3 M185.1,64.9l-0.1-0.2 M185,64.5l-0.1-0.2 M185.1,65l0-0.2 M139.6,660.5l-1.1,0.3 M198.9,671.7l0-0.2 M107.5,534
		l-0.6,7.5 M47.2,46.4l0.6,0.3 M52.5,48.5l1.1,0.3 M45.6,45.6l1.6,0.7 M146.8,672.6l-0.5,0.3 M124.3,156.7l-0.4-0.5 M127.9,59.5
		l-1.6,0.4 M196.6,77.4l0.1-0.7 M112.2,677.8l1.5,0.3 M145.6,121.2l-0.6,0.7 M159.6,557.7l-2,1.3 M146.2,120.4l-0.6,0.8
		 M198.6,673.1l0.1-0.3 M161.2,556.3l-1.6,1.3 M196.7,76.7l0-0.4 M175.8,23.9l0.8-0.4 M184.9,64.3l-0.1-0.1 M167.6,27.7l1.5-0.6
		 M184.6,63.8l-0.1-0.1 M197.5,676.5l0.2-0.6 M198.8,672.2l0-0.2 M199,671.3l0-0.2 M243,99.8l0.1-1.6 M196.7,76.2l0-0.2 M196.4,79.5
		l0.2-1.2 M168.8,705.4l0.1,0.6 M196.6,78.4l0.1-1 M165.9,28.4l1.7-0.6 M168.9,706.7l0,0.7 M176.6,23.5l0.7-0.4 M184.7,63.9
		l-0.1-0.1 M241.7,102.8l0.5-0.2 M180.9,686.1l1.8-0.4 M172.4,692.3l1.4,0 M145.2,164l-1.2-0.2 M169.7,692l1.3,0.2 M120.4,121.5
		l-2.2,1.3 M177,686.8l2-0.3 M161,677.3l1.1,2.7 M139.6,676.2l-0.9,0.3 M130.1,160.1l-1.1-0.5 M185.2,65.4l0-0.2 M198.1,674.8
		l0.2-0.5 M110.8,677.4l1.4,0.4"/>
	<path class="st9" d="M242.8,101.1l0.2-1.3 M126.2,158.2l-0.8-0.5 M242.2,102.6l0.4-0.6 M144.1,163.9l-1.2-0.2 M155.4,560.3
		l-1.2,0.6 M132.5,161l-1.2-0.4 M133.7,161.4l-1.2-0.4 M129,159.6l-1-0.5 M128,159.2l-0.9-0.5 M135,161.8l-1.3-0.4 M131.3,160.6
		l-1.2-0.5 M136.3,162.2l-1.3-0.4 M137.6,162.6l-1.3-0.4 M138.9,162.9l-1.3-0.3 M140.3,163.2l-1.3-0.3 M141.6,163.5l-1.3-0.3
		 M130.3,614.7l3,5.9 M133.3,620.6l0.7,1.3 M136.1,626.1l2.6,5 M138.6,631.1l2.4,4.6 M143.2,639.9l2,3.9 M141,635.7l2.2,4.2
		 M145.2,643.8l0.8,1.5 M163.6,685.4l1.5,0.8 M165.1,686.2l1.7,0.5 M166.8,686.7l1.9,0.3 M168.7,687l2,0.1 M170.7,687.1l2.1,0
		 M172.8,687.1l2.1-0.1 M174.9,687l0.3,0 M179,686.5l1.9-0.4 M182.7,685.7l1.6-0.4 M184.3,685.3l1.3-0.3 M185.7,685l1-0.3
		 M186.7,684.7l0.7-0.2 M187.4,684.5l0.3-0.1 M166.2,690.8l1,0.6 M167.3,691.3l1.2,0.4 M168.4,691.7l1.2,0.3 M171,692.2l1.4,0.1
		 M173.7,692.3l1.4-0.1 M175.1,692.2l1.4-0.1 M176.5,692.1l1.3-0.2 M177.8,691.9l1.2-0.2 M179,691.6l1.2-0.3 M180.2,691.4l1-0.3
		 M181.2,691.1l0.9-0.3 M182.1,690.8l0.7-0.3 M182.9,690.5l0.6-0.3 M278.7,53.4l0.8-0.5 M277.9,53.9l0.8-0.5 M279.5,52.9l0.4-0.2
		 M280.8,52l0.6-0.4 M276.3,54.8l0.8-0.4 M277.1,54.3l0.8-0.5 M280.2,52.4l0.7-0.5 M281.4,51.5l0.5-0.4 M282.3,50.8l0.3-0.3
		 M282.7,50.5l0.2-0.2 M282.9,50.3l0.1-0.1 M283,50.1L283,50.1 M281.9,51.1l0.4-0.4 M125.2,118.5l-2.4,1.5 M127.6,116.9l-2.4,1.6
		 M145.2,673.6l-1.1,0.6 M129.9,115.3l-2.3,1.6 M132,113.6l-2.1,1.7 M133.9,112l-1.9,1.6 M135.5,110.4l-1.6,1.6 M136.8,108.9
		l-1.2,1.5 M137.6,107.5l-0.8,1.4 M141.8,675.3l-1.1,0.5 M142.9,674.8l-1.1,0.5 M113,125.6l-1,0.5 M146.3,673l-1.1,0.7 M140.6,675.8
		l-1,0.4 M145.4,658.1l-0.4,0.3 M193.8,88.3l0.3-0.6 M116.2,123.9l-1.8,0.9 M114.4,124.9l-1.4,0.7 M138.7,676.5l-0.8,0.2
		 M137.9,676.6l-0.6,0.1 M144.1,674.3l-1.2,0.6 M116.3,464.7l-1.1,8.7 M122.8,120l-2.3,1.4 M118.2,122.8l-2,1.1 M112,126.1l-0.5,0.2
		 M263,66.1l0.4-1.2 M101.1,548l0.6,1.1 M111.5,93.2l-0.7,1.3 M201,76.9l0,2.3 M181.4,717.1l1.3,0 M108.4,98.2l-0.9,1.2
		 M107.8,660.9l0.8,0.3 M108.6,661.2l1,0.2 M120,662l0.8,0 M112.1,91.9l-0.6,1.3 M110.8,94.4l-0.8,1.3 M111.9,661.7l1.2,0.1
		 M262.3,69.1l0.3-1.6 M110,95.7l-0.8,1.3 M106.6,100.4l-0.8,1 M117.9,662l1.1,0 M168.1,587.3l-1,1.9 M201.1,79.2l-0.1,2.2
		 M113,89.4l-0.4,1.2 M107.5,99.4l-0.9,1.1 M109.2,97l-0.9,1.2 M263.8,63.8l0.1-0.2 M115.6,662l1.2,0 M183.9,717l1-0.1 M201,81.3
		l-0.2,2 M114.3,661.9l1.2,0.1 M263.4,64.9l0.4-1.1 M168.8,714.1l1.1,0.7 M167.1,589.3l-1.3,2 M165.9,591.3l-1.5,2.1 M162.7,595.5
		l-1.8,2.1 M164.4,593.4l-1.7,2.1 M200.7,72l0.2,2.5 M113.2,88.2l-0.2,1.2 M112.6,90.6l-0.5,1.3 M200.8,83.4l-0.2,1.7 M109.6,661.4
		l1.1,0.2 M120.8,662l0.7,0 M200.9,74.5l0.1,2.4 M105,102.3l-0.7,0.7 M110.7,661.6l1.2,0.2 M159.1,599.5l-1.8,1.9 M262.1,70.9
		l0.2-1.8 M113.1,661.8l1.2,0.1 M116.8,662l0.6,0 M157.3,601.4l-1.8,1.8 M119,662l1,0 M103.7,103.6l-0.5,0.4 M104.3,103l-0.6,0.6
		 M262.6,67.5l0.3-1.4 M105.8,101.4l-0.8,0.9 M178.5,717l1.5,0.1 M172.5,715.9l1.4,0.4 M168.8,585.5l-0.7,1.8 M175.4,716.6l1.5,0.2
		 M171.1,715.4l1.3,0.5 M173.9,716.3l1.5,0.3 M179.9,717.1l1.4,0 M176.9,716.9l1.5,0.2 M182.7,717.1l1.2-0.1 M169.9,714.8l1.2,0.6
		 M184.9,716.9l0.8-0.2 M106.9,560.7l0.3,3.9 M161,597.5l-1.8,2 M108.6,523l-1,9.5 M159,589.4l-0.6,0.7 M117.7,678.5l1,0.1
		 M99.5,532.4l0.2,0.2 M109.8,513.2l-1.2,9.8 M111.1,503.2l-1.3,10 M113.8,483.2l-1.4,10 M117.8,421.3l0.8,4.8 M115.2,473.4
		l-1.3,9.8 M99.7,532.6l0.2,0.2 M111.9,414.7l2.7,0.8 M118.9,432l-0.1,6.9 M97.7,529.6l0.2,0.4 M279.8,52.7l0.4-0.2 M107,541.5
		l-0.4,8.5 M142.6,66L142.6,66 M142.6,65.9L142.6,65.9 M98.8,531.6l0.2,0.3 M157.5,591.2l-0.2,0.3 M127,608.3l2.9,1.9 M165.7,579.4
		l-0.5,1.2 M157.8,590.7l-0.4,0.4 M98,530.3l0.2,0.3 M100.2,533.1l0.2,0.2 M126,27.4L126,27.4 M101.3,533.8l0.2,0.1 M158.4,590.1
		l-0.5,0.6 M98.6,531.3l0.2,0.3 M97.8,530l0.2,0.4 M100.4,533.2l0.2,0.2 M100.7,533.4l0.2,0.2 M118.6,426.1l0.3,5.9 M112.5,493.2
		l-1.4,10.1 M101.5,533.9l0.2,0.1 M163.1,584.2l-0.8,1.2 M98.2,530.7l0.2,0.3 M118.3,446.6l-0.8,8.4 M97.5,529.2l0.2,0.4 M99,531.9
		l0.2,0.3 M100.9,533.6l0.2,0.1 M117.4,662l0.5,0 M100,532.9l0.2,0.2 M118.8,438.9l-0.5,7.7 M116.4,464l-0.1,0.7 M116.5,417.7
		l1.3,3.6 M160.5,587.5l-0.8,1 M133.9,621.9l2.1,4.1 M159.7,588.5l-0.7,0.9 M99.3,532.2l0.2,0.2"/>
	<path class="st9" d="M161.4,586.5l-0.8,1.1 M162.2,585.4l-0.9,1.1 M165.2,580.6l-0.6,1.2 M117.5,455l-1,9 M106.6,550l0,7.7
		 M98.4,531l0.2,0.3 M164.6,581.8l-0.7,1.2 M163.9,583l-0.8,1.2 M101.1,533.7l0.2,0.1 M114.5,415.5l2,2.2 M106.7,557.7l0.2,3
		 M107.7,532.5l-0.1,1.5 M55.7,49.3l1,0.2 M173.9,24.9l1-0.5 M187.6,78.3l0.9-0.1 M109.8,577.6l1.5,5.5 M171.6,26l1.2-0.6
		 M127.9,59.5L127.9,59.5 M115.3,678.3l1.7,0.2 M188.5,78.2l0.8-0.1 M189.3,78.1l0.7-0.1 M192,77.4l0.2,0 M190.5,77.8l0.5-0.1
		 M191.4,77.6l0.3-0.1 M123.3,678.5l1.3-0.2 M191,77.7l0.4-0.1 M191.8,77.5l0.2-0.1 M189.9,77.9l0.6-0.1 M120.3,678.6l1.6,0
		 M121.9,678.6l1.5-0.1 M193.8,654.5l-0.1,2.6"/>
</g>
</svg>
