<?xml version="1.0" encoding="utf-8"?>
<!-- Generator: Adobe Illustrator 20.0.0, SVG Export Plug-In . SVG Version: 6.00 Build 0)  -->
<svg version="1.1" id="Layer_1" xmlns="http://www.w3.org/2000/svg" xmlns:xlink="http://www.w3.org/1999/xlink" x="0px" y="0px"
	 viewBox="0 0 319 792" style="enable-background:new 0 0 319 792;" xml:space="preserve">
<style type="text/css">
	.st0{fill:#746B64;}
	.st1{fill:#F4D1AD;}
	.st2{fill:#435874;}
	.st3{fill:#7B6E68;}
	.st4{fill:#5C5C5C;}
	.st5{fill:#8A8A8A;}
	.st6{fill:none;stroke:#000000;stroke-miterlimit:10;}
</style>
<g>
	<path class="st0" d="M102.6,272.2l-0.5,0.2l-0.5,0.2l-0.5,0.3l-0.5,0.4l-0.5,0.5l-0.5,0.5l-0.5,0.6l-0.5,0.7l-0.5,0.7l-0.5,0.8
		l-0.5,0.9l-0.4,0.9l-0.4,1l-0.4,1l-0.3,1.1l-0.2,1.2l-0.2,1.2l-0.1,1.3l-0.1,1.3l0,1.4l0.3,0.6l0.2,0.5l0.1,0.5l-0.1,0.4l-0.2,0.4
		l-0.2,0.4l-0.3,0.4l-0.4,0.5l-0.4,0.5l-0.4,0.6l-0.4,0.6l-0.4,0.7l-0.4,0.8l-0.3,1l-0.2,1.1l-0.1,1.3l0,1.5l0.1,1.7l0.2,1.9
		l0.4,2.1l0.1,0.5l0,0.5l-0.1,0.5l-0.2,0.5l-0.3,0.6l-0.4,0.7l-0.5,0.7l-0.5,0.8l-0.6,0.9l-0.6,1l-0.6,1.1l-0.6,1.2l-0.6,1.4
		l-0.6,1.5l-0.6,1.7l-0.6,1.8l-0.5,2l-0.5,2.2l-0.4,2.4l-0.3,2.6l-1.9-3l-2-2.6l-2-2.2l-2-1.8l-2.1-1.5l-2.1-1.2l-2-0.9l-2-0.6
		l-2-0.3l-1.9-0.1l-1.8,0.1l-1.8,0.3l-1.7,0.5l-1.6,0.6l-1.4,0.7l-1.3,0.9l-1.2,0.9l-1,1l-0.8,1l-0.7,1l-1-0.1l-0.9-0.1l-0.8-0.2
		l-0.6-0.3l-0.5-0.4l-0.4-0.4l-0.3-0.5l-0.3-0.5l-0.2-0.6l-0.1-0.6l0-0.6l0-0.6l0.1-0.6l0.1-0.6l0.1-0.6l0.2-0.6l0.2-0.5l0.2-0.5
		l0.2-0.4l0.2-0.4l0.4-0.6l0.3-0.8l0.2-0.9l0.1-1l0-1.1l-0.1-1.2l-0.1-1.3l-0.1-1.3l-0.1-1.3l-0.1-1.3l-0.1-1.3l-0.1-1.3l0-1.3
		l0-1.2l0.1-1.2l0.2-1.1l0.3-1l0.5-0.9l0.6-0.7l0.8-0.6l0.4-0.4l0.3-0.5l0.2-0.5l0.2-0.6l0.2-0.7l0.1-0.8l0.1-0.8l0.1-0.9l0-0.9
		l0-0.9l0-0.9l0-0.9l0-0.9l0-0.9l0-0.9l0.1-0.8l0.1-0.8l0.1-0.8l0.2-0.7l0.2-0.6l0.4-1.2l0.3-1.3l0.2-1.5l0.1-1.6l0.1-1.8l0-1.9l0-2
		l0-2.1l0-2.1l0.1-2.2l0.1-2.2l0.2-2.2l0.2-2.2l0.3-2.2l0.5-2.2l0.6-2.2l0.7-2.1l0.9-2l1.1-1.9l1.3-1.8l0.6-0.9l0.5-1.1l0.5-1.3
		l0.5-1.5l0.5-1.7l0.5-1.9l0.5-2.1l0.6-2.2l0.6-2.4l0.7-2.5l0.7-2.6l0.8-2.8l0.9-2.9l1-3l1.1-3.1l1.2-3.2l1.3-3.3l1.5-3.3l1.6-3.4
		l1.8-3.4l1.2-3l1-2.8l0.9-2.6l0.9-2.5l0.8-2.3l0.8-2.2l0.9-2.1l0.9-1.9l1-1.9l1.2-1.8l1.3-1.7l1.5-1.7l1.8-1.6l2.1-1.6l2.4-1.6
		l2.7-1.6l3.1-1.6l3.5-1.6l4-1.7l4.4-1.7l9.6-5.7l7.1-3.5l4.3-3l-0.6,1.1l-0.6,1.2l-0.6,1.2l-0.6,1.3l-0.6,1.4l-0.5,1.5l-0.5,1.5
		l-0.5,1.6l-0.4,1.7l-0.4,1.8l-0.4,1.8l-0.3,1.9l-0.2,1.9l-0.2,2l-0.1,2.1l0,2.1l0,2.2l0.1,2.2l0.2,2.3l0.3,2.3l1.1-1.5l0.9-1.3
		l0.8-1.1l0.6-0.9l0.5-0.8l0.4-0.6l0.3-0.6l0.2-0.5l0.2-0.5l0.2-0.5l0.2-0.5l0.2-0.5l0.3-0.6l0.3-0.7l0.5-0.9l0.6-1l0.7-1.2l0.9-1.5
		l1.1-1.7l1.3-2l0.8-0.3l0.9-0.2l0.9,0l1,0.2l1,0.3l1.1,0.5l1.1,0.6l1.2,0.8l1.2,0.9l1.3,1l1.3,1.1l1.4,1.2l1.4,1.3l1.4,1.4l1.5,1.5
		l1.5,1.6l1.5,1.7l1.6,1.7l1.6,1.8l1.6,1.8l-2.1,1.5l-1.8,1.8l-1.5,2.1l-1.3,2.4l-1.1,2.6l-0.9,2.9l-0.7,3.2l-0.5,3.5l-0.4,3.8
		l-0.3,4.2l-0.2,4.5l-0.2,4.8l-0.2,5.1l-0.2,5.4l-0.2,5.8l-0.2,6.1l-0.3,6.4L152,247l-0.6,7.1l-0.7,7.5l-0.2,1.6l-0.3,1.9l-0.3,2.3
		l-0.3,2.6l-0.3,3l-0.3,3.3l-0.3,3.6l-0.2,3.8l-0.2,4.1l-0.2,4.3l-0.2,4.5l-0.2,4.6l-0.2,4.8l-0.1,4.9l-0.1,5l-0.1,5.1l-0.1,5.2
		l0,5.2l0,5.3l0.1,5.3l0.3,0.8l0.1,0.9l-0.1,0.9l-0.2,1l-0.3,1.1l-0.4,1.2l-0.5,1.3l-0.6,1.4l-0.6,1.5l-0.6,1.6l-0.6,1.7l-0.6,1.9
		l-0.5,2l-0.5,2.2l-0.4,2.4l-0.3,2.5l-0.1,2.7l0,2.9l0.2,3.1l0.4,3.3l0.4,3.1l0.3,3.1l0.3,3l0.9,8.5l0.3,2.7l0.1,0.8l-0.9,1.1
		l-0.8,1.1l-0.8,1.1l-0.8,1.1l-0.7,1.1l-0.7,1.1l-0.7,1.1l-0.6,1.2l-0.6,1.2l-0.6,1.2l-0.6,1.2l-0.6,1.3l-0.5,1.3l-0.5,1.4l-0.5,1.4
		l-0.5,1.5l-0.5,1.5l-0.5,1.6l-0.5,1.7l-0.5,1.8l-2.5-1.8l-2.4-1.7l-2.2-1.7l-2-1.7l-1.8-1.6l-1.7-1.6l-1.5-1.6l-1.4-1.6l-1.3-1.5
		l-1.1-1.5l-1-1.5l-0.9-1.5l-0.8-1.5l-0.7-1.5l-0.6-1.5l-0.5-1.5l-0.4-1.4l-0.4-1.4l-0.3-1.5L108,395l-0.3-0.7l-0.2-0.7l-0.2-0.8
		l-0.2-0.8l-0.2-0.8l-0.2-0.9l-0.2-0.9l-0.2-0.9l-0.3-0.9l-0.3-0.9l-0.3-0.9l-0.3-0.9l-0.3-0.9l-0.3-0.8l-0.3-0.8l-0.4-0.8l-0.4-0.7
		l-0.4-0.6l-0.5-0.6l-0.5-0.5l1.1,0.3l1.3,0.4l1.4,0.4l1.5,0.4l1.6,0.3l1.6,0.3l1.6,0.2l1.6,0.2l1.6,0.1l1.5,0l1.4-0.1l1.3-0.2
		l1.1-0.4l0.9-0.5l0.7-0.7l0.5-0.9l0.2-1.1l-0.1-1.3l-0.4-1.5l-0.7-1.7l-2.1-0.2l-2-0.3l-1.9-0.3l-1.8-0.4l-1.7-0.4l-1.6-0.5
		l-1.5-0.5l-1.5-0.5l-1.4-0.5l-1.3-0.5l-1.2-0.5l-1.1-0.5l-1-0.5l-1-0.4l-0.9-0.4l-0.8-0.3l-0.7-0.3l-0.7-0.2l-0.6-0.1l-0.5,0
		l-0.6-3.8l-0.3-3.8l-0.1-3.8l0.1-3.7l0.3-3.7l0.5-3.6l0.6-3.6l0.7-3.5l0.8-3.4l0.9-3.2l0.9-3.1l0.9-2.9l1.6-5.2l0.7-2.3l0.6-2.1
		l0.4-1.8l0.2-1.5l0-1.2l-0.2-0.9l-0.8-1.9l-0.6-1.8l-0.4-1.8l-0.3-1.8l-0.1-1.8l0-1.8l0.1-1.7l0.2-1.7l0.3-1.7l0.3-1.6l0.3-1.6
		l0.7-3l0.3-1.4l0.3-1.4l0.2-1.3l0.1-1.3l0-1.2l-0.1-1.1L102.6,272.2z M102.6,272.2"/>
	<path class="st1" d="M96.3,366.1l0.5,0l0.6,0.1l0.7,0.2l0.7,0.3l0.8,0.3l0.9,0.4l1,0.4l1,0.5l1.1,0.5l1.2,0.5l1.3,0.5l1.4,0.5
		l1.5,0.5l1.5,0.5l1.6,0.5l1.7,0.4l1.8,0.4l1.9,0.3l2,0.3l2.1,0.2l0.7,1.7l0.4,1.5l0.1,1.3l-0.2,1.1l-0.5,0.9l-0.7,0.7l-0.9,0.5
		l-1.1,0.4l-1.3,0.2l-1.4,0.1l-1.5,0l-1.6-0.1l-1.6-0.2l-1.6-0.2l-1.6-0.3l-1.6-0.3l-1.5-0.4l-1.4-0.4l-1.3-0.4l-1.1-0.3l0.5,0.5
		l0.5,0.6l0.4,0.6l0.4,0.7l0.4,0.8l0.3,0.8l0.3,0.8l0.3,0.9l0.3,0.9l0.3,0.9l0.3,0.9l0.3,0.9l0.2,0.9l0.2,0.9l0.2,0.9l0.2,0.8
		l0.2,0.8l0.2,0.8l0.2,0.7l0.3,0.7l0,0.6l-0.2,0.6l-0.3,0.6l-0.5,0.7l-0.6,0.6l-0.7,0.6l-0.8,0.6l-0.9,0.6l-1,0.5l-1,0.5l-1.1,0.4
		l-1.1,0.3l-1.2,0.2l-1.2,0.1l-1.2,0L95,402l-1.2-0.2l-1.2-0.4l-1.2-0.5l-1.1-0.7l-3.1-1.2l-3-1.2l-2.9-1.3l-2.8-1.3l-2.6-1.3
		l-2.5-1.3l-2.4-1.3l-2.2-1.3l-2.1-1.3l-1.9-1.3l-1.7-1.3l-1.6-1.3l-1.4-1.3L59,382l-1-1.4l-0.8-1.4l-0.5-1.4l-0.3-1.4l-0.1-1.4
		l0.2-1.4l0.1-1.9l-0.1-2.2l-0.2-2.4l-0.3-2.6l-0.4-2.7l-0.5-2.9l-0.6-3l-0.6-3l-1.2-6.2l-0.6-3l-0.6-3l-0.5-2.9l-0.4-2.8l-0.3-2.6
		l-0.2-2.4l-0.1-2.2l0.1-1.9l0.2-1.6l0.4-1.3l0.7-1l0.8-1l1-1l1.2-0.9l1.3-0.9l1.4-0.7l1.6-0.6l1.7-0.5l1.8-0.3l1.8-0.1l1.9,0.1
		l2,0.3l2,0.6l2,0.9l2.1,1.2l2.1,1.5l2,1.8l2,2.2l2,2.6l1.9,3l-0.3,0.5l-0.3,0.5l-0.3,0.4l-0.3,0.4l-0.2,0.4l-0.2,0.4l-0.2,0.4
		l-0.2,0.4l-0.2,0.4l-0.1,0.4l-0.1,0.3l-0.1,0.3l-0.1,0.3l-0.1,0.3l-0.1,0.3l-0.1,0.3l-0.1,0.3l-0.1,0.3l0,0.3l0,0.3l0,0.9l-0.1,1
		l-0.1,1l-0.2,1l-0.3,1.1l-0.3,1.2l-0.4,1.2l-0.9,2.6l-0.4,1.4l-0.4,1.5l-0.4,1.5l-0.4,1.6l-0.4,1.7l-0.3,1.7l-0.2,1.8l-0.2,1.9
		l-0.1,2l0,2l0.1,2.1l0.4-0.3l0.5-0.2l0.6-0.2l0.7-0.2l0.8-0.2l0.9-0.2l0.9-0.2l1-0.1l1.1-0.1l1.1-0.1l1.2-0.1l1.2,0l1.2,0l1.3,0
		l1.3,0.1l1.3,0.1l1.3,0.2l1.3,0.2l1.3,0.3L96.3,366.1z M96.3,366.1"/>
	<path class="st2" d="M108,395l0.2,1.5l0.3,1.5l0.4,1.4l0.4,1.4l0.5,1.5l0.6,1.5l0.7,1.5l0.8,1.5l0.9,1.5l1,1.5l1.1,1.5l1.3,1.5
		l1.4,1.6l1.5,1.6l1.7,1.6l1.8,1.6l2,1.7l2.2,1.7l2.4,1.7l2.5,1.8l0.5-1.8l0.5-1.7l0.5-1.6l0.5-1.5l0.5-1.5l0.5-1.4l0.5-1.4l0.5-1.3
		l0.6-1.3l0.6-1.2l0.6-1.2l0.6-1.2l0.6-1.2l0.7-1.1l0.7-1.1l0.7-1.1l0.8-1.1l0.8-1.1l0.8-1.1l0.9-1.1l0.2,1.6l0.2,1.6l0.2,1.6
		l0.2,1.6l0.2,1.6l0.2,1.5l0.2,1.5l0.3,1.5l0.3,1.5l0.3,1.4l0.3,1.4l0.4,1.3l0.4,1.3l0.4,1.2l0.5,1.2l0.5,1.1l0.5,1l0.6,0.9l0.6,0.9
		l0.7,0.8l2.9,0.7l3,0.3l3,0l3.1-0.3l3-0.6l3-0.9l3-1.1l2.9-1.3l2.8-1.5l2.7-1.6l2.6-1.7l2.4-1.8l2.3-1.8l2.1-1.8l1.9-1.8l1.6-1.7
		l1.4-1.6l1.1-1.5l0.8-1.3l0.5-1.1l2,1.1l2.2,0.9l2.3,0.6l2.4,0.4l2.6,0.2l2.7,0l2.7-0.2l2.8-0.4l2.8-0.6l2.8-0.7l2.8-0.9l2.7-1
		l2.7-1.1l2.6-1.2l2.5-1.3l2.3-1.4l2.2-1.5l2-1.6l1.8-1.6l1.6-1.7v3.9l-2.8,4.4v9.8l2.5,19.5l-5.8,69.3l-2.2,3.3v12.1l-1.8,3.5
		l1.4,8.4v16.5l-1.8,7.7l1.9,7l-1.8,7l1.7,9.7l-2.3,14.2l-3.1,10v7.9l-2.1,8.3l1.4,4.4l-2.2,7.6v8.3l1.8,11l-4.5,33.8l12.9,20.6
		l0.5,1.6l0.4,1.7l0.3,1.7l0.2,1.7l0,1.8l-0.1,1.8l-0.2,1.8l-0.3,1.8l-0.4,1.8l-0.5,1.8l-0.6,1.8l-0.8,1.8l-0.9,1.8l-1,1.8l-1.1,1.8
		l-1.2,1.7l-1.4,1.7l-1.5,1.7l-1.6,1.6l-1.7,1.6l-1.7-0.4l-1.9-0.4l-2.1-0.4l-2.3-0.4l-2.4-0.4l-2.5-0.4l-2.6-0.4l-2.7-0.3l-2.7-0.3
		l-2.7-0.3l-2.7-0.2l-2.6-0.1l-2.6-0.1l-2.5,0l-2.4,0.1l-2.2,0.2l-2,0.3l-1.8,0.4l-1.6,0.5l-1.4,0.6l-1.1-2.4l-1-2.2l-0.9-2.1
		l-0.8-1.9l-0.6-1.8l-0.5-1.6l-0.4-1.5l-0.3-1.4l-0.3-1.2l-0.2-1.1l-0.1-1l0-0.9l0.1-0.8l0.2-0.7l0.3-0.6l0.3-0.5l0.4-0.5l0.5-0.4
		l0.5-0.3l0.6-0.3l-2.4-4.7l-2-4.3l-1.7-3.9l-1.3-3.6l-1-3.2l-0.7-2.9l-0.5-2.7l-0.2-2.4l0-2.2l0.2-2.1l0.3-1.9l0.5-1.8l0.6-1.7
		l0.8-1.6l0.8-1.6l0.9-1.5l1-1.6l1-1.6l1-1.7l1-1.8l1.1-5.3l1-5.3l0.9-5.3l0.8-5.2l0.7-5.1l0.6-5l0.5-4.8l0.5-4.5l0.4-4.2l0.4-3.9
		l0.4-3.5l0.4-3.1l0.4-2.6l0.4-2.1l0.5-1.6l0.5-2.7l0.3-2.7l0.2-2.8l0-2.8l-0.1-2.9l-0.2-2.9l-0.3-2.9l-0.4-2.9l-0.4-2.9l-0.4-2.8
		l-0.9-5.6l-0.4-2.7l-0.4-2.6l-0.3-2.5l-0.2-2.4l-0.1-2.3l0-2.2l0.1-2.1l0.2-1.9l-1-4.4l-1-4.5l-0.9-4.5l-0.9-4.5l-0.8-4.5l-0.8-4.5
		l-1.6-8.7l-0.8-4.2l-0.8-4.1l-0.8-4l-0.8-3.8l-0.8-3.6l-0.9-3.4l-0.9-3.2l-0.9-2.9l-1-2.7l-1-2.4l-1.1-2.1l-1.2-1.7l-0.1,1.5
		l-0.3,1.6l-0.5,1.6l-0.6,1.7l-0.7,1.7l-0.8,1.8l-0.9,1.8l-1,1.8l-1,1.8l-1,1.8l-1,1.8l-1,1.8l-1,1.7l-0.9,1.7l-0.8,1.6l-0.7,1.6
		l-0.6,1.5l-0.5,1.4l-0.3,1.3l-0.1,1.2l0.1,2.5l-0.2,2.9l-0.5,3.3l-0.8,3.7l-1,4l-1.2,4.2l-1.4,4.3l-1.5,4.4l-1.6,4.5l-1.6,4.4
		l-1.6,4.4l-3,8.2l-1.4,3.7l-1.2,3.4l-1,3l-0.8,2.6l-0.5,2.1l-0.2,1.5l0.1,0.8l0.8,1.3l0.5,1.3l0.2,1.3l0,1.3l-0.2,1.2l-0.3,1.2
		l-0.5,1.2l-0.5,1.2l-0.6,1.2l-0.7,1.1l-0.7,1.1l-0.6,1.1l-0.6,1.1l-0.5,1l-0.4,1l-0.2,1l-0.1,1l0.1,1l0.4,0.9l0.6,0.9l0.7,1.2
		l0.5,1.3l0.3,1.3l0.2,1.3l0.1,1.3l-0.1,1.3l-0.1,1.2l-0.2,1.2l-0.3,1.2l-0.3,1.2l-0.3,1.1l-0.4,1.1l-0.3,1l-0.3,1l-0.3,0.9
		l-0.2,0.8l-0.1,0.7l-0.1,0.7l0.1,0.6l0.2,0.5l0.5,1l0.4,1.3l0.2,1.6l0.1,1.9l0,2.1l-0.2,2.3l-0.2,2.5l-0.3,2.6l-0.4,2.7l-0.4,2.7
		l-0.4,2.7l-0.4,2.6l-0.9,5l-0.4,2.3l-0.3,2.1l-0.3,1.8l-0.2,1.6l-0.1,1.2l0,0.9l0.2,1.8l0.1,2l0,2.3l-0.1,2.5l-0.1,2.6l-0.2,2.8
		l-0.3,2.9l-0.3,2.9l-0.3,2.9l-1,8.7l-0.3,2.7l-0.3,2.6l-0.2,2.4l-0.2,2.2l-0.1,2l0,1.8l0.1,1.5l0.2,1.1l0,0.5l-0.1,0.4l-0.2,0.4
		l-0.3,0.4l-0.4,0.4l-0.4,0.4l-0.5,0.4l-0.5,0.4l-0.5,0.4l-0.5,0.5l-0.5,0.5l-0.4,0.5l-0.4,0.5l-0.3,0.5l-0.3,0.5l-0.2,0.5l-0.1,0.5
		l0,0.5l0.1,0.6l0.3,0.6l1,1l0.9,1.1l0.8,1.1l0.7,1.2l0.6,1.3l0.5,1.3l0.4,1.4l0.3,1.4l0.2,1.4l0.2,1.4l0.1,1.4l0,1.4l0,1.4
		l-0.1,1.4l-0.1,1.4l-0.2,1.4l-0.2,1.3l-0.2,1.3l-0.2,1.2l-0.3,1.2l-3.8,1.6l-3.8,1.2l-3.8,0.9l-3.8,0.6l-3.7,0.3l-3.7,0l-3.6-0.2
		l-3.6-0.4l-3.5-0.6l-3.4-0.8l-3.3-1l-3.2-1.1l-3.1-1.2l-3-1.3l-2.9-1.4l-2.8-1.4l-2.7-1.5l-2.5-1.5l-2.4-1.5l-0.5-0.3l-1.7-1.1
		l0-0.9l0.1-0.9l0.1-0.9l0.2-0.9l0.2-0.9l0.3-0.9l0.3-0.9l0.4-0.9l0.4-0.9l0.5-0.8l0.5-0.8l0.5-0.8l0.6-0.8l0.6-0.8l0.6-0.8l0.7-0.8
		l0.7-0.8l0.7-0.7l0.7-0.7l0.8-0.7l-0.7-0.4l-0.7-0.4l-0.7-0.5l-0.7-0.6l-0.6-0.6l-0.6-0.7l-0.6-0.8l-0.5-0.8l-0.5-0.9l-0.4-0.9
		l-0.3-1l-0.3-1l-0.2-1.1l-0.1-1.1l0-1.1l0.1-1.2l0.2-1.2l0.3-1.2l0.5-1.3l0.6-1.3l0.9-2.6l0.8-3.3l0.7-4l0.6-4.6l0.5-5.1l0.5-5.5
		l0.4-5.8l0.9-12.3l0.5-6.3l0.5-6.3l0.6-6.2l0.7-6l0.8-5.8l1-5.4l1.1-5l1.3-4.5l1.5-3.9l1.8-3.2l2-2.4l0.8-1.2l0.6-1.4l0.5-1.6
		l0.4-1.8l0.2-1.9l0.1-2l0.1-2.2l0-2.2l-0.1-2.3l-0.1-2.3l-0.2-4.7l-0.1-2.3l-0.1-2.3l0-2.2l0.1-2.2l0.1-2.1l0.2-1.9l0.4-1.8
		l0.5-1.6l0.4-2.1l0.3-2.8l0.2-3.4l0.1-4.1l0-4.7l0-5.3l-0.1-12.1l-0.1-6.8l0-7.2l0-7.6l0.1-8l0.2-8.3l0.3-8.6l0.5-8.9l0.6-9.1
		l0.8-9.3l1-9.5l1.3-9.6l1.5-9.7l0.2-0.6l0.1-0.7l0.1-0.9l0.1-0.9l0.1-1l0.1-1.1l0-1.1l0-1.2l0.1-1.2l0.1-1.2l0.1-1.2l0.1-1.2
		l0.1-1.2l0.1-1.1l0.2-1.1l0.2-1l0.2-0.9l0.3-0.8l0.3-0.7l0.4-0.6l1.1,0.7l1.2,0.5l1.2,0.4L95,402l1.2,0.1l1.2,0l1.2-0.1l1.2-0.2
		l1.1-0.3l1.1-0.4l1-0.5l1-0.5l0.9-0.6l0.8-0.6l0.7-0.6l0.6-0.6l0.5-0.7l0.3-0.6l0.2-0.6L108,395z M108,395"/>
	<path class="st0" d="M144.4,399.6l-0.1-0.8l-0.3-2.7l-0.9-8.5l-0.3-3l-0.3-3.1l-0.4-3.1l-0.4-3.3l-0.2-3.1l0-2.9l0.1-2.7l0.3-2.5
		l0.4-2.4l0.5-2.2l0.5-2l0.6-1.9l0.6-1.7l0.6-1.6l0.6-1.5l0.6-1.4l0.5-1.3l0.4-1.2l0.3-1.1l0.2-1l0.1-0.9l-0.1-0.9l-0.3-0.8
		l-0.1-5.3l0-5.3l0-5.2l0.1-5.2l0.1-5.1l0.1-5l0.1-4.9l0.2-4.8l0.2-4.6l0.2-4.5l0.2-4.3l0.2-4.1l0.2-3.8l0.3-3.6l0.3-3.3l0.3-3
		l0.3-2.6l0.3-2.3l0.3-1.9l0.2-1.6l0.7-7.5l0.6-7.1l0.4-6.8l0.3-6.4l0.2-6.1l0.2-5.8l0.2-5.4l0.2-5.1l0.2-4.8l0.2-4.5l0.3-4.2
		l0.4-3.8l0.5-3.5l0.7-3.2l0.9-2.9l1.1-2.6l1.3-2.4l1.5-2.1l1.8-1.8l2.1-1.5l0.3-0.2l0.3-0.3l0.3-0.3l0.3-0.3l0.3-0.3l0.3-0.3
		l0.3-0.3l0.3-0.3l0.2-0.3l0.2-0.3l0.2-0.3l0.2-0.3l0.2-0.3l0.2-0.3l0.1-0.3l0.1-0.3l0.1-0.3l0.1-0.3l0-0.3l0-0.3l0.2-1.9l0.2-1.8
		l0.2-1.6l0.2-1.5l0.3-1.3l0.3-1.2l0.4-1.1l0.4-1l0.4-0.9l0.5-0.8l0.6-0.7l0.6-0.6l0.7-0.5l0.7-0.4l0.8-0.4l0.9-0.3l1-0.3l1.1-0.2
		l1.1-0.2l1.2-0.2l0.2,1.5l0.3,1.4l0.4,1.4l0.5,1.3l0.6,1.2l0.7,1.2l0.8,1.1l0.8,1l0.9,0.9l1,0.8l1,0.7l1.1,0.5l1.1,0.4l1.1,0.3
		l1.2,0.1l1.2,0l1.2-0.2l1.2-0.4l1.2-0.5l1.2-0.7l0-1.8l0.1-1.8l0.1-1.8l0.2-1.8l0.2-1.8l0.3-1.8l0.3-1.7l0.3-1.7l0.4-1.6l0.4-1.6
		l0.4-1.5l0.4-1.5l0.4-1.4l0.4-1.3l0.4-1.2l0.4-1.2l0.4-1.1l0.4-1l0.4-0.9l0.4-0.8l2.4,0.6l2.5,0.8l2.6,0.9l2.7,1l2.8,1.1l2.8,1.2
		l2.9,1.3l2.9,1.4l2.9,1.6l3,1.7l3,1.8l3,1.9l3,2l3,2.1l2.9,2.2l2.9,2.3l2.9,2.3l2.8,2.4l2.8,2.5l2.7,2.6l2.1,1.8l2,2.3l1.9,2.7
		l1.9,3.1l1.8,3.5l1.8,3.9l1.7,4.2l1.7,4.6l1.7,4.9l1.6,5.2l1.6,5.5l1.6,5.8l1.6,6l1.6,6.3l1.6,6.5l1.6,6.7l1.6,6.9l5.1,21.7
		l6.2,40.9l-7.1,7.7v5.9l-7.4,7.4l-6.7,10.5h-3.5l-1.3-1.2l-1.3-1.1l-1.4-1.1l-1.4-1l-1.4-1l-1.4-0.9l-1.4-0.8l-1.5-0.8l-1.5-0.7
		l-1.5-0.6l-1.5-0.5l-1.5-0.4l-1.5-0.3l-1.5-0.3l-1.5-0.2l-1.5,0l-1.5,0.1l-1.5,0.2l-1.5,0.3l-1.5,0.4l-1-0.7l-0.8-0.7l-0.6-0.7
		l-0.4-0.8l-0.2-0.8L245,327l0.1-0.8l0.2-0.8l0.3-0.8l0.4-0.8l0.5-0.8l0.6-0.8l0.6-0.7l0.7-0.7l0.7-0.7l0.7-0.6l0.7-0.6l0.7-0.5
		l0.7-0.5l0.6-0.4l0.6-0.8l0.5-0.8l0.4-0.8l0.3-0.8l0.3-0.8l0.2-0.8l0.2-0.8l0.1-0.8l0.1-0.8l0.1-0.7l0.1-0.7l0.1-1.3l0-0.6l0.1-0.5
		l0.1-0.5l0.1-0.4l0.1-0.3l0.2-0.3l0.2-0.2l0.4-1.1l0.2-1l0.1-1l0-0.9l-0.1-0.9l-0.2-0.8l-0.3-0.8l-0.3-0.7l-0.4-0.7l-0.4-0.6
		l-0.4-0.6l-0.4-0.6l-0.3-0.5l-0.3-0.5l-0.2-0.5l-0.2-0.4l-0.1-0.4l0-0.4l0.1-0.4l0.3-0.4l0-0.6l-0.1-0.6l-0.2-0.5l-0.3-0.5
		l-0.3-0.5l-0.4-0.5l-0.4-0.5l-0.5-0.5l-0.5-0.5l-0.5-0.5l-0.5-0.5l-0.5-0.5l-0.5-0.5l-0.5-0.5l-0.5-0.5l0.1,2.2l-0.1,2.3l-0.2,2.4
		l-0.3,2.5l-0.4,2.5l-0.5,2.6l-0.6,2.6l-0.6,2.7l-1.2,5.3l-0.6,2.7l-0.5,2.6l-0.5,2.6l-0.4,2.5l-0.3,2.5l-0.2,2.4l0,2.3l0.1,2.2
		l0.3,2.1l0.5,1.9l0.1,0.3l0.1,0.3l0.1,0.4l0.1,0.4l0.1,0.4l0.1,0.4l0.1,0.5l0.1,0.5l0.1,0.5l0.1,0.5l0.4,1.5l0.1,0.5l0.1,0.5
		l0.1,0.5l0.1,0.5l0.1,0.4l0.1,0.4l0.1,0.4l-0.4,1L244,345l-1,2.3l-1.1,2.4l-1.2,2.4l-1.3,2.5l-1.4,2.5l-1.4,2.6l-1.5,2.6l-1.5,2.6
		l-1.6,2.5l-1.6,2.5l-1.7,2.4l-0.1,0.4l-0.4,0.3l-0.6,0.2l-0.8,0.1l-1,0l-1.1-0.1l-1.3-0.1l-1.4-0.2l-1.5-0.2l-1.6-0.2l-1.6-0.2
		l-1.6-0.1l-1.7-0.1l-1.6,0l-1.6,0.1l-1.5,0.2l-1.5,0.3l-1.4,0.5L205,374l-1.1,0.8l-1.6,0.5l-1.7,0.4l-1.8,0.3l-1.9,0.2l-1.9,0.1
		l-1.9,0.1l-3.7,0.2l-1.8,0.1l-1.7,0.1l-1.5,0.2l-1.4,0.2l-1.2,0.3l-1,0.4l-0.8,0.6l-0.5,0.7l-0.3,0.9l0,1l0.3,1.2l0.7,1.4l0.9,1
		l1,0.8l1,0.7l1,0.6l1.1,0.5l1.1,0.4l1.1,0.2l1.1,0.2l1.1,0.1l1.2,0l1.2-0.1l1.2-0.2l1.2-0.2l1.2-0.3l1.2-0.3l1.2-0.3l1.2-0.4
		l1.2-0.4l1.1-0.4l1.1-0.4l-1.4,0.9l-1.2,1l-1,1l-0.9,1l-0.7,1l-0.6,1l-0.5,1l-0.3,1l-0.2,1l-0.1,1l0,1l0.1,0.9l0.1,0.9l0.2,0.9
		l0.3,0.9l0.3,0.9l0.3,0.8l0.3,0.8l0.4,0.8l0.4,0.7l-0.5,1.1l-0.8,1.3l-1.1,1.5l-1.4,1.6l-1.6,1.7l-1.9,1.8l-2.1,1.8l-2.3,1.8
		l-2.4,1.8l-2.6,1.7l-2.7,1.6l-2.8,1.5l-2.9,1.3l-3,1.1l-3,0.9l-3,0.6l-3.1,0.3l-3,0l-3-0.3l-2.9-0.7l-0.7-0.8l-0.6-0.9l-0.6-0.9
		l-0.5-1l-0.5-1.1l-0.5-1.2l-0.4-1.2l-0.4-1.3l-0.4-1.3l-0.3-1.4l-0.3-1.4l-0.3-1.5l-0.3-1.5l-0.2-1.5l-0.2-1.5l-0.2-1.6l-0.2-1.6
		l-0.2-1.6l-0.2-1.6L144.4,399.6z M144.4,399.6"/>
	<path d="M164.6,174l-1.6-1.8l-1.6-1.8l-1.6-1.7l-1.5-1.7l-1.5-1.6l-1.5-1.5l-1.4-1.4l-1.4-1.3l1.6,0.3l2.6,0.6l1.1,0.2l0.9,0.2
		l0.8,0.1l0.7,0.1l0.6,0.1l0.6,0l0.5,0l0.5-0.1l0.5-0.1l0.5-0.2l0.6-0.2l0.6-0.2l0.7-0.3l0.8-0.3l1-0.4l1.1-0.4l1.3-0.5l-0.3,1.3
		l-0.2,1.5l-0.2,1.6l-0.2,1.8l-0.2,1.9l0,0.3l0,0.3l-0.1,0.3l-0.1,0.3l-0.1,0.3l-0.1,0.3l-0.2,0.3l-0.2,0.3l-0.2,0.3l-0.2,0.3
		l-0.2,0.3l-0.2,0.3l-0.3,0.3l-0.3,0.3l-0.3,0.3l-0.3,0.3l-0.3,0.3l-0.3,0.3l-0.3,0.3L164.6,174z M164.6,174"/>
	<path class="st1" d="M152.5,161.1l-1.4-1.2l-1.3-1.1l-1.8-1.9l-1.6-1.8l-1.5-1.8l-1.3-1.7l-1.2-1.7l-1-1.6l-0.9-1.6l-0.7-1.6
		l-0.6-1.5l-0.5-1.5l-0.4-1.5l-0.3-1.5l-0.2-1.4l-0.1-1.4l0-1.4l0.1-1.4l0.2-1.4l0.3-1.4l0.4-1.4l0.4-1.4v-12.5l-1.2-1.1L137,113
		l-1-1.1l-1-1.2l-0.9-1.2l-0.8-1.2l-0.7-1.2l-0.7-1.2l-0.6-1.2l-0.6-1.3l-0.5-1.3l-0.5-1.3l-0.4-1.3l-0.4-1.3l-0.4-1.4l-0.4-1.4
		l-0.4-1.4l-0.3-1.4l-0.3-1.4l-0.3-1.5l-1-1l-0.9-1l-0.8-1l-0.7-1l-0.6-1l-0.5-1l-0.4-1l-0.3-1l-0.3-1l-0.2-0.9l-0.1-0.9l-0.1-0.9
		l0-0.8l0.1-0.8l0.1-0.7l0.2-0.7l0.2-0.6l0.2-0.5l0.3-0.5l0.3-0.4l0.2-0.2l0.2-0.2l0.2-0.2l0.2-0.1l0.2-0.1l0.2-0.1l0.2-0.1l0.2,0
		l0.2,0l0.2,0l0.2,0l0.2,0l0.2,0.1l0.2,0.1l0.2,0.1l0.2,0.1l0.2,0.1l0.2,0.1l0.2,0.2l0.2,0.2l0.1,0.2l0.1,0.2l0.1,0.3l0.1,0.3
		l0.1,0.4l0.1,0.4l0,0.5l0,0.5l0,0.5l0.1,1.1l0,0.6l0.1,0.6l0.1,0.6l0.1,0.6l0.1,0.6l0.1,0.6l0.1,0.6l0.1,0.6l0.1,0.6l0-0.9l0-0.9
		l0-0.9l0-0.9l0-0.8l0-0.8l0-0.8l-0.1-0.8l-0.1-0.7l-0.1-0.7l-0.1-0.7l-0.1-1.2l0-0.5l0-0.5l0-0.4l0-0.4l0-0.3l0-0.3l0-0.2l0.2-2
		l0.2-1.9l0.1-1.8l0.1-1.7l0-1.5l0-1.4l0-1.3l-0.1-1.2L127,56l-0.1-1l-0.1-1l-0.1-0.9l-0.1-0.8l-0.1-0.8l-0.1-0.7l0-0.6l0-0.6l0-0.6
		l0-0.5l0.1-0.5l0.6-0.7l0.5-0.7l0.5-0.7l0.4-0.7l0.4-0.7l0.3-0.7l0.3-0.7l0.2-0.7l0.2-0.7l0.2-0.6l0.2-0.6l0.2-0.5l0.2-0.5l0.2-0.4
		l0.2-0.4l0.2-0.3l0.2-0.2l0.3-0.1l0.3,0l0.4,0.1l0.5,0.1l0.6,0l0.8-0.1l1-0.2l1.1-0.3l1.2-0.3l1.3-0.4l1.4-0.4l1.5-0.4l1.5-0.4
		l1.6-0.3l1.6-0.3l1.6-0.2l1.6-0.1l1.5,0l1.5,0.1l1.4,0.2l1.3,0.4l1.2,0.5l1.1,0.7l0.6,0.3L159,37l0.7,0.3l0.7,0.2l0.7,0.2l0.7,0.2
		l0.7,0.1l0.7,0.1l0.7,0.1l0.7,0.1l0.7,0l0.7,0l0.7,0l0.7-0.1l0.7-0.1l0.7-0.1l0.7-0.1l0.7-0.2l0.7-0.2l0.6-0.2l0.9-0.2l0.8,0.1
		l0.7,0.3l0.6,0.6l0.6,0.8l0.5,1L176,41l0.5,1.3l0.4,1.4l0.4,1.5l0.4,1.6l0.4,1.7l0.5,1.8l0.5,1.8l0.5,1.8l0.6,1.8l0.6,1.8l0.7,1.7
		l0.8,1.7l0.9,1.6l0.3,0.3l0.2,0.4l0.2,0.4l0.2,0.5l0.2,0.5l0.2,0.6l0.2,0.7l0.1,0.7l0.1,0.8l0.1,0.8l0.1,0.9l0.1,0.9l0.1,1l0,1.1
		l0,1.1l0,1.2l0,1.2l0,1.3l0,1.3l0,1.4l1.7-1.3l0-1.6l0.1-1.5l0.1-1.4l0.2-1.3l0.2-1.3l0.3-1.2l0.3-1.1l0.3-1l0.4-0.9l0.4-0.8
		l0.5-0.7l0.5-0.6l0.5-0.5l0.6-0.4l0.6-0.3l0.7-0.2l0.7-0.1l0.7,0l0.8,0.1l0.8,0.2l1.6,1l1.3,1l1.1,1.1l0.8,1.1l0.6,1.2l0.4,1.2
		l0.2,1.2l0,1.3l-0.2,1.3l-0.4,1.3l-0.5,1.4l-0.7,1.4l-0.8,1.4l-0.9,1.5l-1.1,1.5l-1.2,1.5l-1.2,1.5l-1.3,1.6l-1.4,1.6l-1.4,1.6
		l-0.4,0.5l-0.4,0.6l-0.3,0.8l-0.3,0.9l-0.3,1l-0.2,1.1l-0.2,1.2l-0.2,1.3l-0.2,1.4l-0.1,1.4l-0.1,1.5l-0.1,1.6l0,1.6l0,1.7l0.1,1.7
		l0.1,1.7l0.1,1.8l0.2,1.8l0.2,1.8l0.3,1.8l0,1l0,1l0.1,0.9l0.1,0.8l0.1,0.8l0.2,0.7l0.2,0.7l0.2,0.6l0.2,0.6l0.3,0.6l0.3,0.5
		l0.3,0.5l0.4,0.5l0.4,0.5l0.4,0.5l0.5,0.4l0.5,0.4l0.5,0.4l0.6,0.5l0.6,0.5l-0.7,1.6l-0.8,1.6l-0.8,1.6l-0.9,1.6l-1,1.6l-1,1.6
		l-1.1,1.6l-1.1,1.6l-1.1,1.5l-1.2,1.5l-1.2,1.5l-1.2,1.5l-1.1,1.5l-1.1,1.5l-1.2,0.2l-1.1,0.2l-1.1,0.2l-1,0.3l-0.9,0.3l-0.8,0.4
		l-0.7,0.4l-0.7,0.5l-0.6,0.6l-0.6,0.7l-0.5,0.8l-0.4,0.9l-0.4,1l-0.4,1.1l-0.3,1.2l-1.3,0.5l-1.1,0.4l-1,0.4l-0.8,0.3l-0.7,0.3
		l-0.6,0.2l-0.6,0.2l-0.5,0.2l-0.5,0.1l-0.5,0.1l-0.5,0l-0.6,0l-0.6-0.1l-0.7-0.1l-0.8-0.1l-0.9-0.2l-1.1-0.2l-2.6-0.6L152.5,161.1z
		 M152.5,161.1"/>
	<path class="st0" d="M149.8,158.7l-1.3-1l-1.2-0.9l-1.2-0.8l-1.1-0.6L144,155l-1-0.3l-1-0.2l-0.9,0l-0.9,0.2l-0.8,0.3l-1.3,2
		l-1.1,1.7l-0.9,1.5l-0.7,1.2l-0.6,1l-0.5,0.9l-0.3,0.7l-0.3,0.6l-0.2,0.5l-0.2,0.5l-0.2,0.5l-0.2,0.5l-0.2,0.5l-0.3,0.6l-0.4,0.6
		l-0.5,0.8L131,170l-0.8,1.1l-0.9,1.3l-1.1,1.5l-0.3-2.3l-0.2-2.3l-0.1-2.2l0-2.2l0-2.1l0.1-2.1l0.2-2l0.2-1.9l0.3-1.9l0.4-1.8
		l0.4-1.8l0.4-1.7l0.5-1.6l0.5-1.5l0.5-1.5l0.6-1.4l0.6-1.3l0.6-1.2l0.6-1.2l0.6-1.1l2.3-6.8l3.2-4.1l-0.4,1.4l-0.4,1.4l-0.3,1.4
		l-0.2,1.4l-0.1,1.4l0,1.4l0.1,1.4l0.2,1.4l0.3,1.5l0.4,1.5l0.5,1.5l0.6,1.5l0.7,1.6l0.9,1.6l1,1.6l1.2,1.7l1.3,1.7l1.5,1.8l1.6,1.8
		L149.8,158.7z M149.8,158.7"/>
	<path class="st3" d="M125.9,73l-0.5-1.6l-0.9-2.8l-0.4-1.3l-0.4-1.3l-0.3-1.2l-0.3-1.2l-0.3-1.2l-0.2-1.2l-0.2-1.3l-0.1-1.3l0-1.4
		l0-1.5l0.1-1.6l0.1-1.7l0.2-1.8l0.3-2l0.4-2.1l0.5-2.3l0.5-2.5l-0.1-0.6l0-0.6l0.1-0.6l0.2-0.6l0.2-0.6l0.3-0.6l0.3-0.6l0.4-0.6
		l0.4-0.6l0.4-0.6l0.5-0.6l0.5-0.6l0.5-0.7l0.6-0.7l0.6-0.7l0.6-0.8l0.6-0.8l0.6-0.9l0.6-0.9l0.6-1l0.4-0.7l0.5-0.7l0.7-0.8l0.8-0.8
		l0.9-0.8l1-0.8l1.1-0.8l1.2-0.8l1.3-0.8l1.4-0.7l1.5-0.7l1.5-0.7l1.6-0.6l1.7-0.6l1.7-0.5l1.7-0.5l1.8-0.4l1.8-0.4l1.8-0.3l1.8-0.2
		l0.7-0.1l0.8,0l0.9,0.1l1,0.2l1,0.3l1.1,0.4l1.1,0.4l1.1,0.5l1.2,0.5l2.3,1l1.1,0.5l1.1,0.4l1.1,0.4l1,0.3l0.9,0.3l0.9,0.2l0.8,0.1
		l0.7,0l0.6-0.2l0.8,0.1l0.8,0.2l0.8,0.3l0.9,0.4l0.9,0.5l0.9,0.6l0.9,0.7l0.9,0.8l0.8,0.8l0.8,0.8l0.8,0.9l0.8,0.9l0.7,0.9l0.7,0.9
		l0.6,0.9l0.6,0.8l0.5,0.8l0.4,0.7l0.4,0.7l0.3,0.6l0.6,1l0.5,1.1l0.5,1.2l0.4,1.2l0.4,1.3l0.3,1.4l0.2,1.4l0.2,1.5l0.2,1.5l0.1,1.5
		l0.1,1.6l0.1,1.6l0,1.6l0,1.6l0,1.6l0,1.6l0,3.3l0,1.6l0,1.6l-0.8-0.2l-0.8-0.1l-0.7,0l-0.7,0.1l-0.7,0.2l-0.6,0.3l-0.6,0.4
		l-0.5,0.5l-0.5,0.6l-0.5,0.7l-0.4,0.8l-0.4,0.9l-0.3,1l-0.3,1.1l-0.3,1.2l-0.2,1.3l-0.2,1.3l-0.1,1.4l-0.1,1.5l0,1.6l-1.7,1.3
		l0-1.4l0-1.3l0-1.3l0-1.2l0-1.2l0-1.1l0-1.1l-0.1-1l-0.1-0.9l-0.1-0.9l-0.1-0.8l-0.1-0.8l-0.1-0.7l-0.2-0.7l-0.2-0.6l-0.2-0.5
		l-0.2-0.5l-0.2-0.4l-0.2-0.4l-0.3-0.3l-0.9-1.6l-0.8-1.7l-0.7-1.7l-0.6-1.8l-0.6-1.8l-0.5-1.8l-0.5-1.8l-0.5-1.8l-0.4-1.7l-0.4-1.6
		l-0.4-1.5l-0.4-1.4L176,41l-0.5-1.1l-0.5-1l-0.6-0.8l-0.6-0.6l-0.7-0.3l-0.8-0.1l-0.9,0.2l-0.6,0.2l-0.7,0.2l-0.7,0.2l-0.7,0.1
		l-0.7,0.1l-0.7,0.1l-0.7,0.1l-0.7,0l-0.7,0l-0.7,0l-0.7-0.1l-0.7-0.1l-0.7-0.1l-0.7-0.1l-0.7-0.2l-0.7-0.2l-0.7-0.2L159,37
		l-0.6-0.3l-0.6-0.3l-1.1-0.7l-1.2-0.5l-1.3-0.4l-1.4-0.2l-1.5-0.1l-1.5,0l-1.6,0.1l-1.6,0.2l-1.6,0.3l-1.6,0.3l-1.5,0.4l-1.5,0.4
		l-1.4,0.4l-1.3,0.4l-1.2,0.3l-1.1,0.3l-1,0.2l-0.8,0.1l-0.6,0l-0.5-0.1l-0.4-0.1l-0.3,0l-0.3,0.1l-0.2,0.2l-0.2,0.3l-0.2,0.4
		l-0.2,0.4l-0.2,0.5l-0.2,0.5l-0.2,0.6l-0.2,0.6l-0.2,0.7l-0.2,0.7l-0.3,0.7l-0.3,0.7l-0.4,0.7l-0.4,0.7l-0.5,0.7l-0.5,0.7l-0.6,0.7
		l-0.1,0.5l0,0.5l0,0.6l0,0.6l0,0.6l0.1,0.7l0.1,0.8l0.1,0.8l0.1,0.9l0.1,1l0.1,1l0.1,1.1l0.1,1.2l0,1.3l0,1.4l0,1.5l-0.1,1.7
		l-0.1,1.8l-0.2,1.9l-0.2,2l0,0.2l0,0.3l0,0.3l0,0.4l0,0.4l0,0.5l0,0.5l0.1,1.2l0.1,0.7l0.1,0.7l0.1,0.7l0.1,0.8l0,0.8l0,0.8l0,0.8
		l0,0.9l0,0.9l0,0.9l0,0.9l-0.1-0.6l-0.1-0.6l-0.1-0.6l-0.1-0.6l-0.1-0.6l-0.1-0.6l-0.1-0.6l-0.1-0.6l0-0.6l-0.1-1.1l0-0.5l0-0.5
		l0-0.5l-0.1-0.4l-0.1-0.4l-0.1-0.3l-0.1-0.3l-0.1-0.2L125.9,73z M125.9,73"/>
	<path class="st4" d="M116.9,742l3.8-1.6l-0.4,1.8l-0.6,1.7l-0.7,1.5l-0.8,1.4l-1,1.3l-1.1,1.1l-1.2,1l-1.4,0.9l-1.5,0.8l-1.7,0.8
		l-1.8,0.7l-2,0.6l-2.1,0.6l-2.3,0.6l-2.4,0.5l-2.6,0.5l-2.7,0.5l-2.9,0.5l-6.2,1.1l-0.8,1.5l-0.9,1.5l-1,1.4l-1.1,1.4l-1.3,1.3
		l-1.4,1.3l-1.5,1.2l-1.6,1.2l-1.8,1.1l-1.9,1l-2.1,1l-2.2,0.9l-2.3,0.8l-2.5,0.7l-2.6,0.7l-2.8,0.6l-2.9,0.5l-3,0.4l-3.2,0.3
		l-3.3,0.2l-3.1-0.4l-2.9-0.4l-2.6-0.5l-2.4-0.5l-2.2-0.5l-2-0.6l-1.8-0.6l-1.6-0.6l-1.4-0.7l-1.2-0.7l-1-0.8l-0.9-0.8l-0.7-0.8
		l-0.5-0.8l-0.4-0.9l-0.2-0.9l-0.1-0.9l1.8,1.1l1.9,1l1.9,0.9l2,0.8l2,0.7l2,0.5l2,0.4l2,0.3l2,0.2l1.9,0.1l1.9,0l1.8-0.1l1.7-0.2
		l1.6-0.2l1.5-0.3l1.4-0.4l1.3-0.5l1.1-0.5l1-0.6l0.8-0.7l3.3-2.2l3.4-2l3.4-1.9l3.5-1.8l3.5-1.6l3.5-1.5l3.5-1.4l3.5-1.3l3.5-1.3
		l3.4-1.2l3.4-1.1l3.3-1.1l3.2-1l3.1-1l3-1l2.8-1l2.7-1l2.5-1l2.4-1L116.9,742z M116.9,742"/>
	<path class="st5" d="M116.9,742l-2.2,1.1l-2.4,1l-2.5,1l-2.7,1l-2.8,1l-3,1l-3.1,1l-3.2,1l-3.3,1.1l-3.4,1.1l-3.4,1.2l-3.5,1.3
		l-3.5,1.3l-3.5,1.4l-3.5,1.5l-3.5,1.6l-3.5,1.8l-3.4,1.9l-3.4,2l-3.3,2.2l-0.8,0.7l-1,0.6l-1.1,0.5l-1.3,0.5l-1.4,0.4l-1.5,0.3
		l-1.6,0.2l-1.7,0.2l-1.8,0.1l-1.9,0l-1.9-0.1l-2-0.2l-2-0.3l-2-0.4l-2-0.5l-2-0.7l-2-0.8l-1.9-0.9l-1.9-1l-1.8-1.1l0-1l0.1-1l0.3-1
		l0.4-1.1l0.5-1.1l0.6-1.1l0.8-1l0.9-1l1-1l1.1-0.9l1.2-0.9l1.2-0.9l1.3-0.9l1.4-0.8l1.4-0.8l1.5-0.8l1.5-0.8l1.6-0.8l1.6-0.8
		l1.6-0.8l1.6-0.8l3.2-1.5l0.7-0.6l0.7-0.7l0.7-0.7l0.7-0.8l0.7-0.8l0.7-0.8l0.7-0.9l0.7-0.9l0.7-0.9l0.7-0.9l0.7-0.9l1.3-1.6
		l0.6-0.8l0.6-0.7l0.5-0.7l0.5-0.6l0.5-0.5l0.4-0.5l0.4-0.4l0.5,0.3l2.4,1.5l2.5,1.5l2.7,1.5l2.8,1.4l2.9,1.4l3,1.3l3.1,1.2l3.2,1.1
		l3.3,1l3.4,0.8l3.5,0.6l3.6,0.4l3.6,0.2l3.7,0l3.7-0.3l3.8-0.6l3.8-0.9L116.9,742z M116.9,742"/>
	<path class="st1" d="M248,331.5l1.5-0.4l1.5-0.3l1.5-0.2l1.5-0.1l1.5,0l1.5,0.2l1.5,0.3l1.5,0.3l1.5,0.4l1.5,0.5l1.5,0.6l1.5,0.7
		l1.5,0.8l1.4,0.8l1.4,0.9l1.4,1l1.4,1l1.4,1.1l1.3,1.1l1.3,1.2L267,361.3l-14.9,20l-2.2,6.2l-3.7,3.8l-1.6,1.7l-1.8,1.6l-2,1.6
		l-2.2,1.5l-2.3,1.4l-2.5,1.3l-2.6,1.2l-2.7,1.1l-2.7,1l-2.8,0.9l-2.8,0.7l-2.8,0.6l-2.8,0.4l-2.7,0.2l-2.7,0l-2.6-0.2l-2.4-0.4
		l-2.3-0.6l-2.2-0.9l-2-1.1l-0.4-0.7l-0.4-0.8l-0.3-0.8l-0.3-0.8l-0.3-0.9l-0.3-0.9l-0.2-0.9l-0.1-0.9l-0.1-0.9l0-1l0.1-1l0.2-1
		l0.3-1l0.5-1l0.6-1l0.7-1l0.9-1l1-1l1.2-1l1.4-0.9l-1.1,0.4l-1.1,0.4l-1.2,0.4l-1.2,0.4l-1.2,0.3l-1.2,0.3l-1.2,0.3l-1.2,0.2
		l-1.2,0.2l-1.2,0.1l-1.2,0l-1.1-0.1l-1.1-0.2l-1.1-0.2l-1.1-0.4l-1.1-0.5l-1-0.6l-1-0.7l-1-0.8l-0.9-1l-0.7-1.4l-0.3-1.2l0-1
		l0.3-0.9l0.5-0.7l0.8-0.6l1-0.4l1.2-0.3l1.4-0.2l1.5-0.2l1.7-0.1l1.8-0.1l3.7-0.2l1.9-0.1l1.9-0.1l1.9-0.2l1.8-0.3l1.7-0.4l1.6-0.5
		l1.1-0.8l1.2-0.6l1.4-0.5l1.5-0.3l1.5-0.2l1.6-0.1l1.6,0l1.7,0.1l1.6,0.1l1.6,0.2l1.6,0.2l1.5,0.2l1.4,0.2l1.3,0.1l1.1,0.1l1,0
		l0.8-0.1l0.6-0.2l0.4-0.3l0.1-0.4l1.7-2.4l1.6-2.5l1.6-2.5l1.5-2.6l1.5-2.6l1.4-2.6l1.4-2.5l1.3-2.5l1.2-2.4l1.1-2.4l1-2.3l0.9-2.2
		l0.4-1l0.4-1l0.7-1.9l0.6-1.7l0.5-1.6l0.3-1.4l0.2-1.2l0.1-0.9L248,331.5z M248,331.5"/>
	<path class="st0" d="M204.4,134l-0.4,0.8l-0.4,0.9l-0.4,1l-0.4,1.1l-0.4,1.2L202,140l-0.4,1.3l-0.4,1.4l-0.4,1.5l-0.4,1.5l-0.4,1.6
		l-0.4,1.6l-0.3,1.7l-0.3,1.7l-0.3,1.8l-0.2,1.8l-0.2,1.8l-0.1,1.8l-0.1,1.8l0,1.8l-1.2,0.7l-1.2,0.5l-1.2,0.4l-1.2,0.2l-1.2,0
		l-1.2-0.1l-1.1-0.3l-1.1-0.4l-1.1-0.5l-1-0.7l-1-0.8l-0.9-0.9l-0.8-1l-0.8-1.1l-0.7-1.2l-0.6-1.2l-0.5-1.3l-0.4-1.4l-0.3-1.4
		l-0.2-1.5l1.1-1.5l1.1-1.5l1.2-1.5l1.2-1.5l1.2-1.5l1.1-1.5l1.1-1.6l1.1-1.6l1-1.6l1-1.6l0.9-1.6l0.8-1.6l0.8-1.6l0.7-1.6l0.6-1.6
		l0.4-1.6l0.3-1.6l0.2-1.6l0-1.5l-0.1-1.5l0.7,0.9l0.7,1l0.8,1.1l0.8,1.2l0.8,1.3l0.8,1.4l0.9,1.5l0.9,1.6L204.4,134z M204.4,134"/>
	<path class="st0" d="M188.8,117.3l0.8-0.2l0.8-0.1l0.8,0l0.7,0.1l0.7,0.3l0.7,0.4l0.7,0.5l0.7,0.6l0.7,0.7l0.7,0.8l0.1,1.5l0,1.5
		l-0.2,1.6l-0.3,1.6l-0.4,1.6l-0.6,1.6l-0.6-0.5l-0.6-0.5l-0.5-0.4l-0.5-0.4l-0.5-0.4l-0.4-0.5l-0.4-0.5l-0.4-0.5l-0.3-0.5l-0.3-0.5
		l-0.3-0.6l-0.2-0.6l-0.2-0.6l-0.2-0.7l-0.2-0.7L189,121l-0.1-0.8l-0.1-0.9l0-1L188.8,117.3z M188.8,117.3"/>
	<path class="st4" d="M221.7,733l2.1,0.4l1.9,0.4l1.7,0.4l-3.9,2.9l0.2,0.6l0.2,0.7l0.2,0.8l0.1,0.9l0.1,0.9l0.1,1l0.1,1l0.1,1.1
		l0,1.1l0,1.1l0,1.2l0,1.2l0,1.2l-0.1,1.2l-0.1,1.2l-0.1,1.1l-0.1,1.1l-0.2,1.1l-0.2,1l-0.2,1l0.2,2.6l-0.5,2.5l-1.2,2.3l-1.8,2.2
		l-2.3,2l-2.8,1.8l-3.1,1.6l-3.4,1.4l-3.6,1.2l-3.8,1l-3.8,0.7l-3.8,0.5l-3.7,0.2l-3.5-0.1l-3.2-0.3l-2.8-0.6l-2.4-1l-1.9-1.3
		l-1.3-1.6l-0.6-2l-0.2-2.6l-0.1-1.3l1.2,1.3l1.4,1.1l1.6,1l1.8,0.8l1.9,0.6l2,0.5l2.1,0.3l2.2,0.2l2.3,0l2.3-0.2l2.4-0.3l2.4-0.5
		l2.4-0.6l2.3-0.8l2.3-0.9l2.2-1.1l2.1-1.2l2-1.4l1.8-1.5l1.7-1.7l0.8-1.3l0.7-1.4l0.6-1.4l0.5-1.4l0.4-1.4l0.3-1.4l0.3-1.5l0.2-1.5
		l0.2-1.5l0.2-1.5l0.2-1.5l0.2-1.5l0.2-1.5l0.2-1.5l0.3-1.5l0.3-1.5l0.4-1.5l0.5-1.5l0.5-1.5L221.7,733z M221.7,733"/>
	<path class="st5" d="M221.7,733l-0.6,1.5l-0.5,1.5l-0.5,1.5l-0.4,1.5l-0.3,1.5l-0.3,1.5l-0.2,1.5l-0.2,1.5l-0.2,1.5l-0.2,1.5
		l-0.2,1.5l-0.2,1.5l-0.2,1.5l-0.3,1.5l-0.3,1.4l-0.4,1.4l-0.5,1.4l-0.6,1.4l-0.7,1.4l-0.8,1.3l-1.7,1.7l-1.8,1.5l-2,1.4l-2.1,1.2
		l-2.2,1.1l-2.3,0.9l-2.3,0.8l-2.4,0.6l-2.4,0.5l-2.4,0.3l-2.3,0.2l-2.3,0l-2.2-0.2l-2.1-0.3l-2-0.5l-1.9-0.6l-1.8-0.8l-1.6-1
		l-1.4-1.1l-1.2-1.3l-0.1-1.3l-0.1-2.5l0-2.4l0.1-2.3l0.1-2.2l0.2-2.2l0.3-2.1l0.3-2l0.4-2l0.4-1.9l0.5-1.8l0.6-1.7l0.6-1.7l0.7-1.6
		l0.7-1.5l0.8-1.5l0.8-1.4l0.9-1.3l1-1.3l1.4-0.6l1.6-0.5l1.8-0.4l2-0.3l2.2-0.2l2.4-0.1l2.5,0l2.6,0.1l2.6,0.1l2.7,0.2l2.7,0.3
		l2.7,0.3l2.7,0.3l2.6,0.4l2.5,0.4l2.4,0.4L221.7,733z M221.7,733"/>
	<path class="st6" d="M102.6,272.2l-0.5,0.2 M104.5,279l0.1,1.1 M104.6,280.2l0,1.2 M104.6,281.4l-0.1,1.3 M104.5,282.6l-0.2,1.3
		 M104.3,283.9l-0.3,1.4 M104.1,285.3l-0.3,1.4 M103.1,289.8l-0.3,1.6 M102.7,291.4l-0.3,1.6 M102.4,293l-0.3,1.7 M102.2,294.7
		l-0.2,1.7 M102,296.4l-0.1,1.7 M101.8,298.1l0,1.8 M101.8,299.9l0.1,1.8 M102,301.7l0.3,1.8 M102.3,303.5l0.4,1.8 M102.7,305.3
		l0.6,1.8 M103.3,307.2l0.8,1.9 M104.2,309l0.2,0.9 M104.4,310l0,1.2 M104.4,311.2l-0.2,1.5 M104.2,312.7l-0.4,1.8 M103.8,314.5
		l-0.6,2.1 M103.2,316.6l-0.7,2.3 M100.9,324.1l-0.9,2.9 M100.1,327l-0.9,3.1 M99.2,330.1l-0.9,3.2 M98.3,333.3l-0.8,3.4
		 M97.5,336.7l-0.7,3.5 M96.8,340.2l-0.6,3.6 M96.2,343.7l-0.5,3.6 M95.7,347.4l-0.3,3.7 M95.4,351.1l-0.1,3.7 M95.2,354.8l0.1,3.8
		 M95.3,358.6l0.3,3.8 M95.6,362.3l0.6,3.8 M96.3,366.1l0.5,0 M96.8,366.1l0.6,0.1 M97.4,366.3l0.7,0.2 M98,366.5l0.7,0.3
		 M98.8,366.7l0.8,0.3 M99.6,367.1l0.9,0.4 M100.4,367.5l1,0.4 M101.4,367.9l1,0.5 M102.4,368.3l1.1,0.5 M103.5,368.8l1.2,0.5
		 M104.7,369.3l1.3,0.5 M106,369.8l1.4,0.5 M107.4,370.4l1.5,0.5 M108.8,370.9l1.5,0.5 M110.4,371.3l1.6,0.5 M112,371.8l1.7,0.4
		 M113.7,372.2l1.8,0.4 M115.6,372.6l1.9,0.3 M117.5,372.9l2,0.3 M119.5,373.2l2.1,0.2 M122.4,375.1l-0.7-1.7 M122.8,376.6l-0.4-1.5
		 M122.9,377.9l-0.1-1.3 M122.6,378.9l0.2-1.1 M122.1,379.8l0.5-0.9 M121.4,380.5l0.7-0.7 M120.5,381l0.9-0.5 M119.3,381.4l1.1-0.4
		 M118.1,381.6l1.3-0.2 M116.7,381.7l1.4-0.1 M115.2,381.7l1.5,0 M113.6,381.6l1.6,0.1 M112,381.5l1.6,0.2 M110.4,381.2l1.6,0.2
		 M108.8,381l1.6,0.3 M107.2,380.6l1.6,0.3 M105.7,380.3l1.5,0.4 M104.3,379.9l1.4,0.4 M103,379.6l1.3,0.4 M101.9,379.2l1.1,0.3
		 M101.9,379.2l0.5,0.5 M102.4,379.7l0.5,0.6 M102.9,380.3l0.4,0.6 M103.3,380.9l0.4,0.7 M103.7,381.7l0.4,0.8 M104.1,382.4l0.3,0.8
		 M104.4,383.2l0.3,0.8 M104.7,384l0.3,0.9 M105,384.9l0.3,0.9 M105.3,385.8l0.3,0.9 M105.6,386.7l0.3,0.9 M105.9,387.6l0.3,0.9
		 M106.1,388.5l0.2,0.9 M106.4,389.4l0.2,0.9 M106.6,390.3l0.2,0.9 M106.8,391.1l0.2,0.8 M107.1,392l0.2,0.8 M107.3,392.8l0.2,0.8
		 M107.5,393.6l0.2,0.7 M107.8,394.3l0.3,0.7 M108,395l0.2,1.5 M108.3,396.4l0.3,1.5 M108.6,397.9l0.4,1.4 M108.9,399.3l0.4,1.4
		 M109.4,400.8l0.5,1.5 M109.9,402.2l0.6,1.5 M110.5,403.7l0.7,1.5 M111.2,405.1l0.8,1.5 M112,406.6l0.9,1.5 M112.8,408.1l1,1.5
		 M113.9,409.6l1.1,1.5 M115,411.1l1.3,1.5 M116.2,412.6l1.4,1.6 M117.6,414.2l1.5,1.6 M119.2,415.7l1.7,1.6 M120.9,417.3l1.8,1.6
		 M122.7,419l2,1.7 M124.7,420.6l2.2,1.7 M126.9,422.3l2.4,1.7 M129.2,424l2.5,1.8 M132.3,424.1l-0.5,1.8 M132.9,422.4l-0.5,1.7
		 M133.4,420.8l-0.5,1.6 M133.9,419.2l-0.5,1.5 M134.4,417.8l-0.5,1.5 M135,416.3l-0.5,1.4 M135.5,415l-0.5,1.4 M136,413.6l-0.5,1.3
		 M136.6,412.4l-0.6,1.3 M137.2,411.1l-0.6,1.2 M137.8,409.9l-0.6,1.2 M138.4,408.7l-0.6,1.2 M139,407.5l-0.6,1.2 M139.7,406.4
		l-0.7,1.1 M140.4,405.2l-0.7,1.1 M141.1,404.1l-0.7,1.1 M141.9,403l-0.8,1.1 M142.7,401.9l-0.8,1.1 M143.5,400.7l-0.8,1.1
		 M144.4,399.6l-0.9,1.1 M144.4,399.6l-0.1-0.8 M144.3,398.8l-0.3-2.7 M143.1,387.6l-0.3-3 M142.8,384.6l-0.3-3.1 M142.4,381.5
		l-0.4-3.1 M141.7,375.1l0.4,3.3 M141.5,372l0.2,3.1 M141.5,369.1l0,2.9 M141.7,366.4l-0.1,2.7 M141.9,363.9l-0.3,2.5 M142.3,361.5
		l-0.4,2.4 M142.8,359.3l-0.5,2.2 M143.3,357.3l-0.5,2 M143.9,355.4l-0.6,1.9 M144.5,353.6l-0.6,1.7 M145.2,352l-0.6,1.6
		 M145.8,350.5l-0.6,1.5 M146.3,349.2l-0.6,1.4 M146.8,347.9l-0.5,1.3 M147.3,346.7l-0.4,1.2 M147.6,345.6l-0.3,1.1 M147.8,344.6
		l-0.2,1 M147.8,343.7l-0.1,0.9 M147.7,342.8l0.1,0.9 M147.4,342l0.3,0.8 M147.4,336.7l0.1,5.3 M147.3,331.4l0,5.3 M147.3,326.2
		l0,5.2 M147.4,321l-0.1,5.2 M147.5,315.9l-0.1,5.1 M147.6,310.8l-0.1,5 M147.7,305.9l-0.1,4.9 M147.9,301.1l-0.2,4.8 M148.1,296.5
		l-0.2,4.6 M148.3,292l-0.2,4.5 M148.5,287.7l-0.2,4.3 M148.7,283.7l-0.2,4.1 M149,279.9l-0.2,3.8 M149.2,276.3l-0.3,3.6 M149.5,273
		l-0.3,3.3 M150,267.4l-0.3,2.6 M150.3,265.1l-0.3,2.3 M150.5,263.2l-0.3,1.9 M150.8,261.6l-0.2,1.6 M151.5,254.1l-0.7,7.5 M152,247
		l-0.6,7.1 M152.5,240.2L152,247 M152.8,233.8l-0.3,6.4 M153,227.7l-0.2,6.1 M153.2,221.9l-0.2,5.8 M153.4,216.5l-0.2,5.4
		 M153.5,211.4l-0.2,5.1 M153.7,206.6l-0.2,4.8 M154,202.1l-0.2,4.5 M154.3,197.9l-0.3,4.2 M154.7,194.1l-0.4,3.8 M155.2,190.5
		l-0.5,3.5 M155.9,187.3l-0.7,3.2 M156.8,184.4l-0.9,2.9 M157.8,181.7l-1.1,2.6 M159.1,179.4l-1.3,2.4 M160.7,177.3l-1.5,2.1
		 M162.5,175.5l-1.8,1.8 M164.6,174l-2.1,1.5"/>
	<path class="st6" d="M163,172.2l1.6,1.8 M161.4,170.4l1.6,1.8 M159.8,168.6l1.6,1.7 M158.3,167l1.5,1.7 M156.8,165.4l1.5,1.6
		 M155.3,163.9l1.5,1.5 M153.9,162.4l1.4,1.4 M152.5,161.1l1.4,1.3 M151.2,159.9l1.4,1.2 M149.8,158.7l1.3,1.1 M148.6,157.7l1.3,1
		 M147.4,156.8l1.2,0.9 M146.2,156.1l1.2,0.8 M145,155.4l1.1,0.6 M144,155l1.1,0.5 M142.9,154.6l1,0.3 M142,154.4l1,0.2
		 M141.1,154.4l0.9,0 M140.2,154.6l0.9-0.2 M139.4,154.9l0.8-0.3 M138.1,157l1.3-2 M136.9,158.7l1.1-1.7 M136,160.2l0.9-1.5
		 M135.3,161.4l0.7-1.2 M134.7,162.5l0.6-1 M134.3,163.3l0.5-0.9 M133.9,164.1l0.3-0.7 M133.6,164.7l0.3-0.6 M133.4,165.2l0.2-0.5
		 M133.3,165.7l0.2-0.5 M133.1,166.2l0.2-0.5 M132.9,166.6l0.2-0.5 M132.7,167.1l0.2-0.5 M132.4,167.7l0.3-0.6 M132.1,168.3l0.4-0.6
		 M131.6,169.1l0.5-0.8 M131,170l0.6-0.9 M130.3,171.1l0.8-1.1 M129.3,172.4l0.9-1.3 M128.2,173.9l1.1-1.5 M127.9,171.6l0.3,2.3
		 M127.6,169.3l0.2,2.3 M127.5,167.1l0.1,2.2 M127.5,164.9l0,2.2 M127.5,162.8l0,2.1 M127.6,160.7l-0.1,2.1 M127.8,158.7l-0.2,2
		 M128,156.7l-0.2,1.9 M128.4,154.9l-0.3,1.9 M128.7,153.1l-0.4,1.8 M129.1,151.3l-0.4,1.8 M129.6,149.6l-0.4,1.7 M130.1,148
		l-0.5,1.6 M130.6,146.5l-0.5,1.5 M131.1,145l-0.5,1.5 M131.6,143.6l-0.6,1.4 M132.2,142.3l-0.6,1.3 M132.8,141l-0.6,1.2
		 M133.3,139.8l-0.6,1.2 M133.9,138.8l-0.6,1.1 M129.6,141.7l4.3-3 M122.5,145.2l7.1-3.5 M112.9,150.9l-4.4,1.7 M108.5,152.6l-4,1.7
		 M104.5,154.3l-3.5,1.6 M101,155.9l-3.1,1.6 M97.9,157.6l-2.7,1.6 M95.2,159.1l-2.4,1.6 M92.8,160.7l-2.1,1.6 M90.8,162.3l-1.8,1.6
		 M89,163.9l-1.5,1.7 M87.4,165.6l-1.3,1.7 M86.1,167.3l-1.2,1.8 M84.9,169.1l-1,1.9 M83.9,170.9l-0.9,1.9 M83,172.9l-0.9,2.1
		 M82.1,174.9l-0.8,2.2 M81.3,177.1l-0.8,2.3 M80.4,179.4l-0.9,2.5 M79.6,181.9l-0.9,2.6 M78.6,184.5l-1,2.8 M77.6,187.3l-1.2,3
		 M74.6,193.7l1.8-3.4 M73,197.1l1.6-3.4 M71.5,200.5l1.5-3.3 M70.2,203.7l1.3-3.3 M69,206.9l1.2-3.2 M67.9,210l1.1-3.1 M66.9,213
		l1-3 M66,215.8l0.9-2.9 M65.2,218.6l0.8-2.8 M64.5,221.3l0.7-2.6 M63.8,223.8l0.7-2.5 M63.2,226.1l0.6-2.4 M62.7,228.4l0.6-2.2
		 M62.1,230.4l0.5-2.1 M61.6,232.3l0.5-1.9 M61.1,234l0.5-1.7 M60.6,235.5l0.5-1.5 M60.1,236.9l0.5-1.3 M59.6,238l0.5-1.1
		 M59.1,238.9l0.6-0.9 M57.8,240.7l1.3-1.8 M56.7,242.7l1.1-1.9 M55.8,244.7l0.9-2 M55,246.8l0.7-2.1 M54.4,248.9l0.6-2.2 M54,251.1
		l0.5-2.2 M53.6,253.3l0.3-2.2 M53.4,255.6l0.2-2.2 M53.2,257.8l0.2-2.2 M53.1,260l0.1-2.2 M53.1,262.2l0.1-2.2 M53.1,264.3l0-2.1
		 M53.1,266.3l0-2.1 M53,268.3l0-2 M53,270.2l0-1.9 M52.9,272l0.1-1.8 M52.8,273.6l0.1-1.6 M52.6,275.1l0.2-1.5 M52.3,276.4l0.3-1.3
		 M51.8,277.6l0.4-1.2 M51.6,278.2l0.2-0.6 M51.5,278.9l0.2-0.7 M51.4,279.7l0.1-0.8 M51.3,280.5l0.1-0.8 M51.2,281.3l0.1-0.8
		 M51.2,282.2l0-0.9 M51.1,283.1l0-0.9 M51.1,284l0-0.9 M51.1,285l0-0.9 M51.1,285.9l0-0.9 M51.1,286.8l0-0.9 M51,287.7l0-0.9
		 M51,288.5l0.1-0.9 M50.9,289.3l0.1-0.8 M50.8,290.1l0.1-0.8 M50.6,290.8l0.2-0.7 M50.4,291.4l0.2-0.6 M50.2,291.9l0.2-0.5
		 M49.9,292.4l0.3-0.5 M49.5,292.7l0.4-0.4 M48.8,293.3l0.8-0.6 M48.2,294l0.6-0.7 M47.7,294.9l0.5-0.9 M47.4,295.9l0.3-1 M47.2,297
		l0.2-1.1 M47,298.1l0.1-1.2 M47,299.4l0-1.2 M47,300.7l0-1.3 M47.1,302l-0.1-1.3 M47.2,303.3l-0.1-1.3 M47.4,304.7l-0.1-1.3
		 M47.5,306l-0.1-1.3 M47.6,307.3l-0.1-1.3 M47.7,308.6l-0.1-1.3 M47.8,309.8l-0.1-1.2 M47.8,310.9l0-1.1 M47.7,311.9l0.1-1
		 M47.6,312.8l0.2-0.9 M47.3,313.5l0.3-0.8 M46.9,314.1l0.4-0.6 M46.7,314.5l0.2-0.4 M46.5,315l0.2-0.4 M46.3,315.4l0.2-0.5
		 M46.1,316l0.2-0.5 M46,316.5l0.2-0.6 M45.8,317.1l0.1-0.6 M45.7,317.7l0.1-0.6 M45.6,318.4l0.1-0.6 M45.6,319l0-0.6 M45.6,319.6
		l0-0.6 M45.7,320.2l-0.1-0.6 M45.9,320.7l-0.2-0.6 M46.2,321.3l-0.3-0.5 M46.5,321.8l-0.3-0.5 M46.9,322.2l-0.4-0.4 M47.5,322.6
		l-0.5-0.4 M48.1,322.9l-0.6-0.3 M48.9,323.1l-0.8-0.2 M49.7,323.3l-0.9-0.1 M50.7,323.3l-1-0.1 M51.4,322.3l-0.7,1 M52.2,321.2
		l-0.8,1 M53.2,320.2l-1,1 M54.4,319.3l-1.2,0.9 M55.7,318.5l-1.3,0.9 M57.2,317.7l-1.4,0.7 M58.7,317.1l-1.6,0.6 M60.4,316.6
		l-1.7,0.5 M62.2,316.3l-1.8,0.3 M64,316.2l-1.8,0.1 M65.9,316.3l-1.9-0.1 M67.9,316.6l-2-0.3 M69.9,317.2l-2-0.6 M71.9,318.1
		l-2-0.9 M74,319.2l-2.1-1.2 M76,320.7l-2.1-1.5 M78.1,322.6l-2-1.8 M80.1,324.8l-2-2.2"/>
	<path class="st6" d="M82.1,327.4l-2-2.6 M84,330.4l-1.9-3 M84.3,327.8l-0.3,2.6 M84.7,325.4l-0.4,2.4 M85.2,323.3l-0.5,2.2
		 M85.7,321.3l-0.5,2 M86.2,319.5l-0.6,1.8 M86.8,317.8l-0.6,1.7 M87.4,316.3l-0.6,1.5 M88.1,314.9l-0.6,1.4 M88.7,313.7l-0.6,1.2
		 M89.3,312.6l-0.6,1.1 M89.9,311.6l-0.6,1 M90.4,310.7l-0.6,0.9 M91,309.9l-0.5,0.8 M91.4,309.2l-0.5,0.7 M91.8,308.5l-0.4,0.7
		 M92.1,307.9l-0.3,0.6 M92.3,307.4l-0.2,0.5 M92.4,306.9l-0.1,0.5 M92.4,306.4l0,0.5 M92.3,305.9l0.1,0.5 M91.9,303.8l0.4,2.1
		 M91.7,301.9l0.2,1.9 M91.6,300.3l0.1,1.7 M91.6,298.8l0,1.5 M91.8,297.5l-0.1,1.3 M92,296.4l-0.2,1.1 M92.3,295.4l-0.3,1
		 M92.7,294.6l-0.4,0.8 M93,293.8l-0.4,0.7 M93.4,293.2l-0.4,0.6 M93.9,292.6l-0.4,0.6 M94.2,292.1l-0.4,0.5 M94.6,291.7l-0.4,0.5
		 M94.9,291.3l-0.3,0.4 M95.2,290.8l-0.2,0.4 M95.3,290.4l-0.2,0.4 M95.4,290l-0.1,0.4 M95.3,289.5l0.1,0.5 M95.1,288.9l0.2,0.5
		 M94.8,288.3l0.3,0.6 M94.8,286.9l0,1.4 M94.8,285.6l-0.1,1.3 M94.9,284.4l-0.1,1.3 M95.1,283.1l-0.2,1.2 M95.4,282l-0.2,1.2
		 M95.7,280.9l-0.3,1.1 M96,279.8l-0.4,1 M96.4,278.9l-0.4,1 M96.9,277.9l-0.4,0.9 M97.3,277.1l-0.5,0.9 M97.8,276.3l-0.5,0.8
		 M98.4,275.6l-0.5,0.7 M98.9,274.9l-0.5,0.7 M99.4,274.3l-0.5,0.6 M100,273.8l-0.5,0.5 M100.5,273.3l-0.5,0.5 M101.1,272.9
		l-0.5,0.4 M101.6,272.6l-0.5,0.3 M102.1,272.4l-0.5,0.2 M125.4,71.4l0.5,1.6 M125.9,73l0.1,0.2 M126,73.2l0.1,0.2 M126.1,73.4
		l0.1,0.3 M126.2,73.7l0.1,0.3 M126.2,74l0.1,0.4 M126.3,74.4l0.1,0.4 M126.3,74.8l0,0.5 M126.4,75.3l0,0.5 M126.4,75.8l0,0.5
		 M126.5,77.4l0,0.6 M126.6,78l0.1,0.6 M126.6,78.6l0.1,0.6 M126.7,79.2l0.1,0.6 M126.8,79.8l0.1,0.6 M126.8,80.4l0.1,0.6 M126.9,81
		l0.1,0.6 M127,81.6l0.1,0.6 M127.1,82.2l0.1,0.6 M127.3,81.8l0,0.9 M127.3,80.9l0,0.9 M127.3,80l0,0.9 M127.3,79.2l0,0.9
		 M127.2,78.3l0,0.8 M127.2,77.5l0,0.8 M127.2,76.7l0,0.8 M127.1,76l0.1,0.8 M127,75.3l0.1,0.7 M127,74.6l0.1,0.7 M126.9,73.9
		l0.1,0.7 M126.8,72.2l0,0.5 M126.7,71.7l0,0.5 M126.7,71.3l0,0.4 M126.7,70.9l0,0.4 M126.7,70.5l0,0.3 M126.7,70.3l0,0.3 M126.7,70
		l0,0.2 M126.9,68l-0.2,2 M127,66.1l-0.2,1.9 M127.1,64.3l-0.1,1.8 M127.2,62.6l-0.1,1.7 M127.2,61.1l0,1.5 M127.2,59.7l0,1.4
		 M127.2,58.3l0,1.3 M127.1,57.1l0.1,1.2 M127,56l0.1,1.1 M126.9,54.9l0.1,1 M126.9,54l0.1,1 M126.8,53.1l0.1,0.9 M126.7,52.3
		l0.1,0.8 M126.6,51.5l0.1,0.8 M126.5,50.8l0.1,0.7 M126.5,50.2l0,0.6 M126.5,49.6l0,0.6 M126.5,49l0,0.6 M126.5,48.5l0,0.5
		 M126.6,48l-0.1,0.5 M127.2,47.3l-0.6,0.7 M127.8,46.6l-0.5,0.7 M128.2,45.8l-0.5,0.7 M128.7,45.1l-0.4,0.7 M129,44.3l-0.4,0.7
		 M129.3,43.6l-0.3,0.7 M129.6,42.9l-0.3,0.7 M129.9,42.2l-0.2,0.7 M130.1,41.6l-0.2,0.7 M130.3,40.9l-0.2,0.6 M130.5,40.4l-0.2,0.6
		 M130.6,39.8l-0.2,0.5 M130.8,39.3l-0.2,0.5 M131,38.9l-0.2,0.4 M131.2,38.6l-0.2,0.4 M131.4,38.3l-0.2,0.3 M131.6,38.1l-0.2,0.2
		 M131.9,37.9l-0.3,0.1 M132.2,37.9l-0.3,0 M132.6,38l-0.4-0.1 M132.6,38l0.5,0.1 M133,38.1l0.6,0 M133.7,38l0.8-0.1 M134.5,37.9
		l1-0.2 M135.4,37.7l1.1-0.3 M136.5,37.4l1.2-0.3 M137.8,37.1l1.3-0.4 M139.1,36.7l1.4-0.4 M140.5,36.3l1.5-0.4 M141.9,35.9l1.5-0.4
		 M143.5,35.6l1.6-0.3 M145,35.2l1.6-0.3 M146.6,34.9l1.6-0.2 M148.2,34.7l1.6-0.1 M149.7,34.6l1.5,0 M151.2,34.5l1.5,0.1
		 M152.7,34.6l1.4,0.2 M154.1,34.8l1.3,0.4 M155.4,35.2l1.2,0.5 M156.6,35.7l1.1,0.7 M157.7,36.4l0.6,0.3 M158.4,36.7L159,37
		 M159,37l0.7,0.3 M159.6,37.3l0.7,0.2 M160.3,37.5l0.7,0.2 M161,37.7l0.7,0.2 M161.7,37.9l0.7,0.1 M162.4,38l0.7,0.1 M163.1,38.1
		l0.7,0.1 M163.8,38.2l0.7,0.1 M164.5,38.3l0.7,0 M165.2,38.3l0.7,0 M165.9,38.3l0.7,0 M166.6,38.3l0.7-0.1 M167.3,38.2l0.7-0.1
		 M168,38.1l0.7-0.1 M168.7,38l0.7-0.1 M169.4,37.9l0.7-0.2 M170.1,37.7l0.7-0.2 M170.7,37.5l0.6-0.2 M171.4,37.3l0.9-0.2
		 M172.3,37.1l0.8,0.1 M173.1,37.2l0.7,0.3 M173.8,37.6l0.6,0.6 M174.4,38.1l0.6,0.8 M175,38.9l0.5,1 M175.5,39.9L176,41 M176,41
		l0.5,1.3 M176.5,42.3l0.4,1.4 M176.9,43.7l0.4,1.5 M177.3,45.2l0.4,1.6 M177.7,46.9l0.4,1.7 M178.2,48.6l0.5,1.8 M178.6,50.3
		l0.5,1.8 M179.1,52.1l0.5,1.8 M179.6,53.9l0.6,1.8 M180.2,55.7l0.6,1.8 M180.9,57.5l0.7,1.7 M181.6,59.3l0.8,1.7 M182.4,61l0.9,1.6
		 M183.3,62.6l0.3,0.3 M183.6,62.9l0.2,0.4"/>
	<path class="st6" d="M183.8,63.3l0.2,0.4 M184,63.7l0.2,0.5 M184.2,64.2l0.2,0.5 M184.4,64.7l0.2,0.6 M184.6,65.3l0.2,0.7
		 M184.8,66l0.1,0.7 M184.9,66.7l0.1,0.8 M185,67.5l0.1,0.8 M185.1,68.3l0.1,0.9 M185.2,69.2l0.1,0.9 M185.3,70.2l0.1,1 M185.4,71.2
		l0,1.1 M185.4,72.2l0,1.1 M185.4,73.3l0,1.2 M185.4,74.5l0,1.2 M185.4,75.7l0,1.3 M185.4,77l0,1.3 M185.4,78.3l0,1.4 M187.1,78.4
		l-1.7,1.3 M187.1,76.9l0,1.6 M187.2,75.4l-0.1,1.5 M187.3,74l-0.1,1.4 M187.5,72.6l-0.2,1.3 M187.7,71.4l-0.2,1.3 M188,70.2
		l-0.3,1.2 M188.3,69.1l-0.3,1.1 M188.6,68.1l-0.3,1 M189,67.2l-0.4,0.9 M189.4,66.4l-0.4,0.8 M189.8,65.6l-0.5,0.7 M190.4,65
		l-0.5,0.6 M190.9,64.5l-0.5,0.5 M191.5,64l-0.6,0.4 M192.1,63.7l-0.6,0.3 M192.8,63.4l-0.7,0.2 M193.5,63.3l-0.7,0.1 M194.2,63.3
		l-0.7,0 M195,63.4l-0.8-0.1 M195.9,63.6l-0.8-0.2 M195.9,61.9l0,1.6 M195.9,60.3l0,1.6 M195.9,55.4l0,1.6 M195.9,53.8l0,1.6
		 M195.9,52.1l0,1.6 M195.9,50.5l0,1.6 M195.8,48.9l0.1,1.6 M195.7,47.3l0.1,1.6 M195.6,45.8l0.1,1.5 M195.4,44.3l0.2,1.5
		 M195.2,42.8l0.2,1.5 M195,41.4l0.2,1.4 M194.7,40l0.3,1.4 M194.3,38.7l0.4,1.3 M193.9,37.5l0.4,1.2 M193.5,36.3l0.5,1.2
		 M192.9,35.2l0.5,1.1 M192.3,34.1l0.6,1 M192,33.6l0.3,0.6 M191.7,32.9l0.4,0.7 M191.2,32.2l0.4,0.7 M190.7,31.4l0.5,0.8
		 M190.2,30.5l0.6,0.8 M189.5,29.7l0.6,0.9 M188.9,28.8l0.7,0.9 M188.2,27.9l0.7,0.9 M187.4,27l0.8,0.9 M186.6,26.1l0.8,0.9
		 M185.8,25.3l0.8,0.8 M184.9,24.5l0.8,0.8 M184.1,23.7l0.9,0.8 M183.2,23l0.9,0.7 M182.4,22.4l0.9,0.6 M181.5,21.9l0.9,0.5
		 M180.6,21.4l0.9,0.4 M179.8,21.1l0.8,0.3 M178.9,20.9l0.8,0.2 M178.1,20.8l0.8,0.1 M177.6,21l0.6-0.2 M176.9,21l0.7,0 M176.1,20.9
		l0.8,0.1 M175.3,20.7l0.9,0.2 M174.3,20.5l0.9,0.3 M173.3,20.1l1,0.3 M172.2,19.7l1.1,0.4 M171.1,19.3l1.1,0.4 M170,18.8l1.1,0.5
		 M166.5,17.3l1.2,0.5 M165.4,16.9l1.1,0.5 M164.3,16.5l1.1,0.4 M163.2,16.1l1.1,0.4 M162.2,15.8l1,0.3 M161.2,15.6l1,0.2
		 M160.3,15.5l0.9,0.1 M159.5,15.5l0.8,0 M158.8,15.6l0.7-0.1 M157,15.8l1.8-0.2 M155.1,16.1l1.8-0.3 M153.3,16.5l1.8-0.4
		 M151.6,16.9l1.8-0.4 M149.8,17.4l1.7-0.5 M148.1,17.9l1.7-0.5 M146.5,18.5l1.7-0.6 M144.9,19.1l1.6-0.6 M143.3,19.8l1.5-0.7
		 M141.8,20.5l1.5-0.7 M140.4,21.2l1.4-0.7 M139.1,22l1.3-0.8 M137.9,22.8l1.2-0.8 M136.7,23.6l1.1-0.8 M135.7,24.4l1-0.8
		 M134.8,25.2l0.9-0.8 M134,25.9l0.8-0.8 M133.3,26.7l0.7-0.8 M132.7,27.5l0.5-0.7 M132.3,28.2l0.4-0.7 M131.8,29.1l0.6-1
		 M131.2,30.1l0.6-0.9 M130.6,30.9l0.6-0.9 M130,31.7l0.6-0.8 M129.4,32.5l0.6-0.8 M128.8,33.3l0.6-0.7 M128.3,34l0.6-0.7
		 M127.8,34.6l0.5-0.7 M127.2,35.3l0.5-0.6 M126.8,35.9l0.5-0.6 M126.3,36.5l0.4-0.6 M125.9,37.1l0.4-0.6 M125.5,37.7l0.4-0.6
		 M125.2,38.2l0.3-0.6 M125,38.8l0.3-0.6 M124.7,39.3l0.2-0.6 M124.6,39.9l0.2-0.6 M124.5,40.4l0.1-0.6 M124.5,41l0-0.6 M124.5,41.6
		l-0.1-0.6 M124.5,41.6l-0.5,2.5 M124,44.1l-0.5,2.3 M123.5,46.4l-0.4,2.1 M123.2,48.5l-0.3,2 M122.9,50.5l-0.2,1.8 M122.7,52.3
		l-0.1,1.7 M122.5,54l-0.1,1.6 M122.4,55.5l0,1.5 M122.4,57l0,1.4 M122.5,58.4l0.1,1.3 M122.6,59.7l0.2,1.3 M122.7,61l0.2,1.2
		 M122.9,62.3l0.3,1.2 M123.2,63.5l0.3,1.2 M123.5,64.7l0.3,1.2 M123.8,66l0.4,1.3 M124.2,67.2l0.4,1.3 M120.8,740.4l-3.8,1.6
		 M116.9,742l-2.2,1.1 M114.7,743.1l-2.4,1 M112.4,744.1l-2.5,1 M109.8,745.1l-2.7,1 M107.1,746.1l-2.8,1 M104.3,747.1l-3,1
		 M101.3,748.1l-3.1,1 M98.2,749.2l-3.2,1 M95,750.2l-3.3,1.1 M91.7,751.3l-3.4,1.1 M88.4,752.4l-3.4,1.2 M85,753.6l-3.5,1.3
		 M81.5,754.9l-3.5,1.3 M78,756.2l-3.5,1.4 M74.5,757.7l-3.5,1.5 M71,759.2l-3.5,1.6 M67.6,760.8l-3.5,1.8 M64.1,762.6l-3.4,1.9
		 M60.7,764.5l-3.4,2 M57.3,766.6l-3.3,2.2 M54.1,768.8l-0.8,0.7 M53.3,769.4l-1,0.6 M52.3,770l-1.1,0.5 M51.2,770.6l-1.3,0.5
		 M49.9,771l-1.4,0.4 M48.5,771.4l-1.5,0.3 M47,771.7l-1.6,0.2 M45.4,771.9l-1.7,0.2 M43.6,772.1l-1.8,0.1 M41.9,772.2l-1.9,0
		 M40,772.1l-1.9-0.1 M38.1,772l-2-0.2 M36.1,771.8l-2-0.3 M34.1,771.5l-2-0.4 M32.1,771l-2-0.5 M30.1,770.5l-2-0.7 M28.1,769.8
		l-2-0.8 M26.2,769.1l-1.9-0.9 M24.2,768.2l-1.9-1 M22.3,767.2l-1.8-1.1 M20.6,767l-0.1-0.9 M20.8,767.9l-0.2-0.9 M21.2,768.7
		l-0.4-0.9 M21.8,769.6l-0.5-0.8 M22.5,770.4l-0.7-0.8 M23.3,771.2l-0.9-0.8 M24.3,771.9l-1-0.8"/>
	<path class="st6" d="M25.5,772.7l-1.2-0.7 M26.9,773.3l-1.4-0.7 M28.5,774l-1.6-0.6 M30.2,774.6l-1.8-0.6 M32.2,775.2l-2-0.6
		 M34.4,775.7l-2.2-0.5 M36.8,776.2l-2.4-0.5 M39.4,776.7l-2.6-0.5 M42.3,777.1l-2.9-0.4 M45.4,777.5l-3.1-0.4 M48.7,777.3l-3.3,0.2
		 M51.9,777l-3.2,0.3 M55,776.5l-3,0.4 M57.9,776l-2.9,0.5 M60.6,775.5l-2.8,0.6 M63.2,774.8l-2.6,0.7 M65.7,774l-2.5,0.7 M68,773.2
		l-2.3,0.8 M70.2,772.3l-2.2,0.9 M72.2,771.3l-2.1,1 M74.2,770.3l-1.9,1 M75.9,769.2l-1.8,1.1 M77.6,768.1l-1.6,1.2 M79.1,766.8
		l-1.5,1.2 M80.5,765.6l-1.4,1.3 M81.7,764.2l-1.3,1.3 M82.9,762.9l-1.1,1.4 M83.9,761.5l-1,1.4 M84.8,760l-0.9,1.5 M85.5,758.5
		l-0.8,1.5 M94.5,756.9l-2.9,0.5 M97.2,756.3l-2.7,0.5 M99.8,755.8l-2.6,0.5 M102.2,755.3l-2.4,0.5 M104.4,754.7l-2.3,0.6
		 M106.5,754.1l-2.1,0.6 M108.5,753.5l-2,0.6 M110.3,752.8l-1.8,0.7 M112,752.1l-1.7,0.8 M113.5,751.2l-1.5,0.8 M114.9,750.3
		l-1.4,0.9 M116.2,749.3l-1.2,1 M117.3,748.1l-1.1,1.1 M118.2,746.9l-1,1.3 M119.1,745.5l-0.8,1.4 M119.8,743.9l-0.7,1.5
		 M120.3,742.2l-0.6,1.7 M120.8,740.4l-0.4,1.8 M247.8,284.1l0.1,2.2 M247.8,284.1l0.5,0.5 M248.3,284.6l0.5,0.5 M248.8,285l0.5,0.5
		 M249.3,285.5l0.5,0.5 M249.8,286l0.5,0.5 M250.3,286.4l0.5,0.5 M250.8,286.9l0.5,0.5 M251.3,287.4l0.5,0.5 M251.8,287.9l0.4,0.5
		 M252.2,288.3l0.4,0.5 M252.6,288.8l0.3,0.5 M253,289.4l0.3,0.5 M253.3,289.9l0.2,0.5 M253.5,290.4l0.1,0.6 M253.6,291l0,0.6
		 M253.7,291.6l-0.3,0.4 M253.4,291.9l-0.1,0.4 M253.3,292.3l0,0.4 M253.3,292.7l0.1,0.4 M253.4,293.2l0.2,0.4 M253.5,293.6l0.2,0.5
		 M253.8,294.1l0.3,0.5 M254.1,294.6l0.3,0.5 M254.4,295.1l0.4,0.6 M254.8,295.6l0.4,0.6 M255.2,296.2l0.4,0.6 M255.6,296.9l0.4,0.7
		 M255.9,297.5l0.3,0.7 M256.2,298.2l0.3,0.8 M256.5,299l0.2,0.8 M256.7,299.8l0.1,0.9 M256.8,300.7l0,0.9 M256.9,301.6l-0.1,1
		 M256.8,302.6l-0.2,1 M256.6,303.6l-0.4,1.1 M256.2,304.7l-0.2,0.2 M256,304.9l-0.2,0.3 M255.8,305.2l-0.1,0.3 M255.7,305.6
		l-0.1,0.4 M255.6,306l-0.1,0.5 M255.5,306.4l-0.1,0.5 M255.5,307l0,0.6 M255.3,308.8l-0.1,0.7 M255.3,309.5l-0.1,0.7 M255.2,310.3
		l-0.1,0.8 M255.1,311l-0.1,0.8 M255,311.8l-0.2,0.8 M254.8,312.6l-0.2,0.8 M254.6,313.5l-0.3,0.8 M254.3,314.3l-0.3,0.8 M254,315.1
		l-0.4,0.8 M253.5,316l-0.5,0.8 M253.1,316.8l-0.6,0.8 M252.5,317.6l-0.6,0.4 M251.9,318l-0.7,0.5 M251.2,318.5l-0.7,0.5 M250.5,319
		l-0.7,0.6 M249.8,319.6l-0.7,0.6 M249.1,320.2l-0.7,0.7 M248.4,320.8l-0.7,0.7 M247.7,321.5l-0.6,0.7 M247.1,322.3l-0.6,0.8
		 M246.5,323l-0.5,0.8 M246,323.8l-0.4,0.8 M245.6,324.6l-0.3,0.8 M245.3,325.4l-0.2,0.8 M245,326.2L245,327 M245,327l0.1,0.8
		 M245,327.8l0.2,0.8 M245.3,328.6l0.4,0.8 M245.7,329.4l0.6,0.7 M246.2,330.1l0.8,0.7 M247,330.8l1,0.7 M248,331.5l1.5-0.4
		 M249.5,331l1.5-0.3 M251,330.8l1.5-0.2 M252.5,330.6l1.5-0.1 M254,330.5l1.5,0 M255.6,330.6l1.5,0.2 M257.1,330.7l1.5,0.3
		 M258.6,331l1.5,0.3 M260.1,331.3l1.5,0.4 M261.6,331.8l1.5,0.5 M263.1,332.3l1.5,0.6 M264.5,332.9l1.5,0.7 M266,333.6l1.5,0.8
		 M267.5,334.3l1.4,0.8 M268.9,335.2l1.4,0.9 M270.3,336.1l1.4,1 M271.7,337l1.4,1 M273.1,338.1l1.4,1.1 M274.5,339.1l1.3,1.1
		 M275.8,340.3l1.3,1.2 M280.6,341.4h-3.5 M287.4,331l-6.7,10.5 M294.8,323.5l-7.4,7.4 M294.8,317.7v5.9 M301.9,310l-7.1,7.7
		 M288.9,240.6l1.6,6.9 M287.3,233.9l1.6,6.7 M285.7,227.4l1.6,6.5 M284.1,221.1l1.6,6.3 M282.5,215.1l1.6,6 M280.8,209.3l1.6,5.8
		 M279.2,203.8l1.6,5.5 M277.6,198.6l1.6,5.2 M275.9,193.7l1.7,4.9 M274.2,189.1l1.7,4.6 M272.4,184.9l1.7,4.2 M270.7,181l1.8,3.9
		 M268.8,177.5l1.8,3.5 M267,174.4l1.9,3.1 M265,171.7l1.9,2.7 M263,169.4l2,2.3 M261,167.6l2.1,1.8 M258.2,165l2.7,2.6
		 M255.5,162.4l2.8,2.5 M252.7,160l2.8,2.4 M249.8,157.7l2.9,2.3 M246.9,155.4l2.9,2.3 M243.9,153.2l2.9,2.2 M241,151.2l3,2.1
		 M238,149.2l3,2 M235,147.4l3,1.9 M232,145.6l3,1.8 M229,143.9l3,1.7 M226.1,142.4l2.9,1.6 M223.2,140.9l2.9,1.4 M220.3,139.6
		l2.9,1.3 M217.5,138.4l2.8,1.2 M214.7,137.3l2.8,1.1 M212,136.3l2.7,1 M209.4,135.4l2.6,0.9 M206.9,134.6l2.5,0.8 M204.4,134
		l2.4,0.6 M204.4,134l-0.4,0.8 M204.1,134.7l-0.4,0.9 M203.7,135.6l-0.4,1 M203.3,136.6l-0.4,1.1 M202.9,137.6l-0.4,1.2
		 M202.5,138.8L202,140 M202,140l-0.4,1.3 M201.6,141.4l-0.4,1.4 M201.2,142.8l-0.4,1.5 M200.8,144.2l-0.4,1.5 M200.4,145.8
		l-0.4,1.6 M200,147.4l-0.4,1.6 M199.6,149l-0.3,1.7 M199.3,150.7l-0.3,1.7 M199,152.4l-0.3,1.8 M198.7,154.2l-0.2,1.8"/>
	<path class="st6" d="M198.5,155.9l-0.2,1.8 M198.3,157.7l-0.1,1.8 M198.2,159.6l-0.1,1.8 M198.1,161.4l0,1.8 M198.1,163.2l-1.2,0.7
		 M196.8,164l-1.2,0.5 M195.6,164.5l-1.2,0.4 M194.4,164.9l-1.2,0.2 M193.2,165.1l-1.2,0 M192,165.1l-1.2-0.1 M190.8,165l-1.1-0.3
		 M189.7,164.7l-1.1-0.4 M188.5,164.3l-1.1-0.5 M187.5,163.7l-1-0.7 M186.5,163.1l-1-0.8 M185.5,162.3l-0.9-0.9 M184.6,161.4l-0.8-1
		 M183.8,160.4l-0.8-1.1 M183,159.3l-0.7-1.2 M182.3,158.1l-0.6-1.2 M181.7,156.9l-0.5-1.3 M181.3,155.6l-0.4-1.4 M180.9,154.2
		l-0.3-1.4 M180.6,152.8l-0.2-1.5 M180.4,151.4l-1.2,0.2 M179.2,151.5l-1.1,0.2 M178.1,151.7l-1.1,0.2 M177,151.9l-1,0.3 M176,152.2
		l-0.9,0.3 M175.1,152.5l-0.8,0.4 M174.3,152.9l-0.7,0.4 M173.6,153.3l-0.7,0.5 M172.9,153.9l-0.6,0.6 M172.3,154.5l-0.6,0.7
		 M171.7,155.1l-0.5,0.8 M171.2,155.9l-0.4,0.9 M170.8,156.8l-0.4,1 M170.4,157.8l-0.4,1.1 M170,158.9l-0.3,1.2 M169.7,160.1
		l-0.3,1.3 M169.4,161.5l-0.2,1.5 M169.2,162.9l-0.2,1.6 M169,164.5l-0.2,1.8 M168.8,166.3l-0.2,1.9 M168.6,168.2l0,0.3
		 M168.6,168.5l0,0.3 M168.5,168.8l-0.1,0.3 M168.5,169.1l-0.1,0.3 M168.4,169.4l-0.1,0.3 M168.3,169.7l-0.1,0.3 M168.1,170
		l-0.2,0.3 M168,170.3l-0.2,0.3 M167.8,170.6l-0.2,0.3 M167.6,171l-0.2,0.3 M167.4,171.3l-0.2,0.3 M167.2,171.5l-0.2,0.3
		 M166.9,171.8l-0.3,0.3 M166.7,172.1l-0.3,0.3 M166.4,172.4l-0.3,0.3 M166.1,172.7l-0.3,0.3 M165.8,173l-0.3,0.3 M165.5,173.2
		l-0.3,0.3 M165.2,173.5l-0.3,0.3 M164.9,173.8l-0.3,0.2 M144.4,399.6l0.2,1.6 M144.6,401.1l0.2,1.6 M144.8,402.7l0.2,1.6
		 M144.9,404.3l0.2,1.6 M145.1,405.9l0.2,1.6 M145.4,407.4l0.2,1.5 M145.6,408.9l0.2,1.5 M145.8,410.5l0.3,1.5 M146.1,411.9l0.3,1.5
		 M146.4,413.4l0.3,1.4 M146.7,414.8l0.3,1.4 M147.1,416.2l0.4,1.3 M147.4,417.5l0.4,1.3 M147.8,418.8l0.4,1.2 M148.3,420l0.5,1.2
		 M148.7,421.2l0.5,1.1 M149.2,422.2l0.5,1 M149.7,423.3l0.6,0.9 M150.3,424.2l0.6,0.9 M150.9,425l0.7,0.8 M151.6,425.8l2.9,0.7
		 M154.5,426.5l3,0.3 M157.5,426.8l3,0 M160.6,426.8l3.1-0.3 M163.6,426.5l3-0.6 M166.7,425.8l3-0.9 M169.7,424.9l3-1.1
		 M172.7,423.8l2.9-1.3 M175.6,422.5l2.8-1.5 M178.4,421l2.7-1.6 M181.1,419.4l2.6-1.7 M183.7,417.7l2.4-1.8 M186.2,416l2.3-1.8
		 M188.4,414.2l2.1-1.8 M190.5,412.4l1.9-1.8 M192.4,410.6l1.6-1.7 M194,408.9l1.4-1.6 M195.4,407.3l1.1-1.5 M196.5,405.8l0.8-1.3
		 M197.3,404.5l0.5-1.1 M197.5,402.6l0.4,0.7 M197.1,401.9l0.4,0.8 M196.8,401.1l0.3,0.8 M196.4,400.3l0.3,0.8 M196.1,399.4l0.3,0.9
		 M195.9,398.5l0.3,0.9 M195.7,397.6l0.2,0.9 M195.6,396.7l0.1,0.9 M195.5,395.7l0.1,0.9 M195.5,394.8l0,1 M195.6,393.8l-0.1,1
		 M195.8,392.8l-0.2,1 M196.2,391.8l-0.3,1 M196.6,390.8l-0.5,1 M197.2,389.9l-0.6,1 M197.9,388.9l-0.7,1 M198.8,387.9l-0.9,1
		 M199.9,386.9l-1,1 M201.1,385.9l-1.2,1 M202.5,385l-1.4,0.9 M201.4,385.4l1.1-0.4 M200.2,385.8l1.1-0.4 M199.1,386.2l1.2-0.4
		 M197.9,386.6l1.2-0.4 M196.7,387l1.2-0.3 M195.6,387.3l1.2-0.3 M194.4,387.5l1.2-0.3 M193.2,387.8l1.2-0.2 M192,387.9l1.2-0.2
		 M190.8,388l1.2-0.1 M189.7,388l1.2,0 M188.5,388l1.1,0.1 M187.4,387.8l1.1,0.2 M186.3,387.6l1.1,0.2 M185.2,387.2l1.1,0.4
		 M184.2,386.8l1.1,0.5 M183.1,386.2l1,0.6 M182.1,385.5l1,0.7 M181.2,384.6l1,0.8 M180.3,383.7l0.9,1 M179.6,382.2l0.7,1.4
		 M179.2,381l0.3,1.2 M179.2,380l0,1 M179.5,379.1l-0.3,0.9 M180,378.4l-0.5,0.7 M180.8,377.9l-0.8,0.6 M181.8,377.4l-1,0.4
		 M183,377.1l-1.2,0.3 M184.4,376.8l-1.4,0.2 M185.9,376.7l-1.5,0.2 M187.6,376.5l-1.7,0.1 M189.3,376.5l-1.8,0.1 M194.9,376.2
		l-1.9,0.1 M196.8,376.1l-1.9,0.1 M198.7,375.9l-1.9,0.2 M200.5,375.6l-1.8,0.3 M202.3,375.2l-1.7,0.4 M203.9,374.8l-1.6,0.5
		 M205,374l-1.1,0.8 M206.2,373.3L205,374 M207.6,372.8l-1.4,0.5 M209.1,372.5l-1.5,0.3 M210.6,372.3l-1.5,0.2 M212.2,372.2
		l-1.6,0.1 M213.9,372.2l-1.6,0 M215.5,372.2l-1.7-0.1 M217.2,372.4l-1.6-0.1 M218.8,372.5l-1.6-0.2 M220.3,372.7l-1.6-0.2
		 M221.8,372.9l-1.5-0.2 M223.2,373l-1.4-0.2 M224.5,373.2l-1.3-0.1 M225.7,373.3l-1.1-0.1 M226.7,373.3l-1,0 M227.5,373.2l-0.8,0.1
		 M228.1,373.1l-0.6,0.2 M228.5,372.8l-0.4,0.3 M228.6,372.4l-0.1,0.4 M230.3,369.9l-1.7,2.4 M231.9,367.4l-1.6,2.5 M233.5,364.9
		l-1.6,2.5 M235.1,362.3l-1.5,2.6 M236.6,359.7l-1.5,2.6 M238,357.2l-1.4,2.6 M239.3,354.6l-1.4,2.5 M240.6,352.1l-1.3,2.5
		 M241.8,349.7l-1.2,2.4 M242.9,347.3l-1.1,2.4 M244,345l-1,2.3 M244.9,342.9L244,345 M245.3,341.9l-0.4,1 M245.2,341.5l0.1,0.4
		 M245,341.1l0.1,0.4 M244.9,340.6l0.1,0.4 M244.7,340.2l0.1,0.5 M244.6,339.7l0.1,0.5"/>
	<path class="st6" d="M244.4,339.2l0.1,0.5 M244.3,338.7l0.1,0.5 M243.7,336.7l0.1,0.5 M243.5,336.2l0.1,0.5 M243.4,335.7l0.1,0.5
		 M243.3,335.2l0.1,0.5 M243.1,334.8l0.1,0.4 M243,334.4l0.1,0.4 M242.8,334l0.1,0.4 M242.7,333.6l0.1,0.4 M242.6,333.3l0.1,0.3
		 M242.4,333l0.1,0.3 M241.9,331.1l0.5,1.9 M241.6,329l0.3,2.1 M241.5,326.8l0.1,2.2 M241.5,324.5l0,2.3 M241.7,322.1l-0.2,2.4
		 M242,319.7l-0.3,2.5 M242.4,317.1l-0.4,2.5 M242.9,314.5l-0.5,2.6 M243.4,311.9l-0.5,2.6 M244,309.3l-0.6,2.7 M245.8,301.3
		l-0.6,2.7 M246.4,298.6l-0.6,2.6 M246.9,296l-0.5,2.6 M247.3,293.5l-0.4,2.5 M247.6,291l-0.3,2.5 M247.8,288.6l-0.2,2.4
		 M247.9,286.3l-0.1,2.3 M199.8,404.5l-2-1.1 M202,405.4l-2.2-0.9 M204.3,406l-2.3-0.6 M206.7,406.4l-2.4-0.4 M209.3,406.6l-2.6-0.2
		 M212,406.6l-2.7,0 M214.7,406.4l-2.7,0.2 M217.4,406l-2.8,0.4 M220.2,405.4l-2.8,0.6 M223,404.7l-2.8,0.7 M225.8,403.8l-2.8,0.9
		 M228.5,402.8l-2.7,1 M231.2,401.7l-2.7,1.1 M233.8,400.4l-2.6,1.2 M236.3,399.1l-2.5,1.3 M238.6,397.7l-2.3,1.4 M240.8,396.1
		l-2.2,1.5 M242.8,394.6l-2,1.6 M244.6,392.9l-1.8,1.6 M246.2,391.2l-1.6,1.7 M249.9,387.5l-3.7,3.8 M252.1,381.3l-2.2,6.2
		 M277.1,341.4L267,361.3 M248,331.5l0.1,0.7 M248.1,332.2l-0.1,0.9 M248,333.1l-0.2,1.2 M247.8,334.3l-0.3,1.4 M247.5,335.6
		l-0.5,1.6 M247,337.2l-0.6,1.7 M246.4,338.9l-0.7,1.9 M245.7,340.8l-0.4,1 M188.8,117.3l0.8-0.2 M188.8,117.3l0,1 M188.8,118.3l0,1
		 M188.8,119.3l0.1,0.9 M188.9,120.2l0.1,0.8 M189,121l0.1,0.8 M189.1,121.8l0.2,0.7 M189.3,122.5l0.2,0.7 M189.5,123.2l0.2,0.6
		 M189.7,123.9l0.2,0.6 M189.9,124.5l0.3,0.6 M190.2,125l0.3,0.5 M190.5,125.5l0.3,0.5 M190.8,126l0.4,0.5 M191.2,126.5l0.4,0.5
		 M191.6,127l0.4,0.5 M192,127.4l0.5,0.4 M192.5,127.9l0.5,0.4 M193,128.3l0.5,0.4 M193.6,128.8l0.6,0.5 M194.1,129.2l0.6,0.5
		 M195.3,128.1l-0.6,1.6 M195.7,126.6l-0.4,1.6 M196.1,125l-0.3,1.6 M196.3,123.5l-0.2,1.6 M196.3,121.9l0,1.5 M196.2,120.4l0.1,1.5
		 M195.5,119.6l0.7,0.8 M194.8,118.8l0.7,0.7 M194.1,118.2l0.7,0.6 M193.3,117.7l0.7,0.5 M192.6,117.4l0.7,0.4 M191.9,117.1l0.7,0.3
		 M191.2,116.9l0.7,0.1 M190.4,116.9l0.8,0 M189.6,117l0.8-0.1 M139.4,127.8l-0.4,1.4 M136.2,131.9l3.2-4.1 M133.9,138.8l2.3-6.8
		 M148.1,156.9l1.8,1.9 M146.5,155l1.6,1.8 M145,153.3l1.5,1.8 M143.7,151.6l1.3,1.7 M142.5,149.9l1.2,1.7 M141.5,148.2l1,1.6
		 M140.7,146.6l0.9,1.6 M139.9,145.1l0.7,1.6 M139.3,143.5l0.6,1.5 M138.8,142l0.5,1.5 M138.4,140.5l0.4,1.5 M138.1,139.1l0.3,1.5
		 M138,137.6l0.2,1.4 M137.9,136.2l0.1,1.4 M138,134.8l0,1.4 M138.1,133.4l-0.1,1.4 M138.3,132l-0.2,1.4 M138.6,130.6l-0.3,1.4
		 M138.9,129.2l-0.4,1.4 M223.8,733.4l-2.1-0.4 M221.1,734.5l0.6-1.5 M220.5,736l0.5-1.5 M220.1,737.5l0.5-1.5 M219.7,739.1l0.4-1.5
		 M219.4,740.6l0.3-1.5 M219.1,742.1l0.3-1.5 M218.9,743.6l0.2-1.5 M218.7,745.2l0.2-1.5 M218.5,746.7l0.2-1.5 M218.3,748.2l0.2-1.5
		 M218.1,749.7l0.2-1.5 M217.9,751.2l0.2-1.5 M217.7,752.6l0.2-1.5 M217.4,754.1l0.3-1.5 M217.1,755.5l0.3-1.4 M216.7,757l0.4-1.4
		 M216.2,758.4l0.5-1.4 M215.7,759.8l0.6-1.4 M215,761.1l0.7-1.4 M214.2,762.5l0.8-1.3 M212.6,764.2l1.7-1.7 M210.7,765.7l1.8-1.5
		 M208.8,767.1l2-1.4 M206.7,768.3l2.1-1.2 M204.5,769.4l2.2-1.1 M202.2,770.3l2.3-0.9 M199.9,771.1l2.3-0.8 M197.5,771.8l2.4-0.6
		 M195.2,772.2l2.4-0.5 M192.8,772.6l2.4-0.3 M190.4,772.7l2.3-0.2 M188.1,772.7l2.3,0 M185.9,772.6l2.2,0.2 M183.8,772.3l2.1,0.3
		 M181.7,771.8l2,0.5 M179.8,771.2l1.9,0.6 M178,770.4l1.8,0.8 M176.5,769.4l1.6,1 M175.1,768.2l1.4,1.1 M173.9,766.9l1.2,1.3
		 M173.9,766.9l0.1,1.3 M173.9,768.2l0.2,2.6 M174.2,770.8l0.6,2 M174.8,772.8l1.3,1.6 M176.1,774.4l1.9,1.3 M178,775.7l2.4,1
		 M180.4,776.6l2.8,0.6 M183.3,777.3l3.2,0.3 M186.5,777.6l3.5,0.1 M189.9,777.7l3.7-0.2 M193.6,777.5l3.8-0.5 M197.3,777l3.8-0.7
		 M201.1,776.2l3.8-1 M204.9,775.3l3.6-1.2 M208.5,774.1l3.4-1.4 M212,772.6l3.1-1.6 M215.1,771l2.8-1.8 M217.9,769.2l2.3-2
		 M220.2,767.2l1.8-2.2 M222.1,765l1.2-2.3 M223.3,762.6l0.5-2.5 M223.8,760.2l-0.2-2.6 M223.6,757.5l0.2-1 M223.8,756.5l0.2-1
		 M224,755.5l0.2-1.1 M224.2,754.4l0.1-1.1 M224.3,753.3l0.1-1.1 M224.4,752.2l0.1-1.2 M224.5,751l0.1-1.2 M224.6,749.9l0-1.2
		 M224.7,748.7l0-1.2 M224.7,747.5l0-1.2 M224.7,746.4l0-1.1 M224.7,745.2l0-1.1 M224.6,744.1l-0.1-1.1 M224.6,743l-0.1-1
		 M224.5,742l-0.1-1 M224.4,741l-0.1-0.9 M224.3,740.1l-0.1-0.9 M224.1,739.3l-0.2-0.8 M224,738.5l-0.2-0.7"/>
	<path class="st6" d="M223.8,737.8l-0.2-0.6 M223.6,737.2l3.9-2.9 M227.5,734.3l-1.7-0.4 M225.8,733.8l-1.9-0.4 M173.8,765.6
		l0.1,1.3 M221.7,733l-2.3-0.4 M219.4,732.5l-2.4-0.4 M217,732.1l-2.5-0.4 M211.9,731.3l-2.7-0.3 M209.2,731l-2.7-0.3 M206.5,730.7
		l-2.7-0.3 M203.8,730.4l-2.7-0.2 M201.1,730.2l-2.6-0.1 M198.5,730.1l-2.6-0.1 M195.9,730l-2.5,0 M193.4,730.1l-2.4,0.1
		 M191.1,730.2l-2.2,0.2 M188.9,730.4l-2,0.3 M186.8,730.7l-1.8,0.4 M185,731.1l-1.6,0.5 M183.4,731.6l-1.4,0.6 M182,732.2l-1,1.3
		 M181.1,733.5l-0.9,1.3 M180.2,734.8l-0.8,1.4 M179.3,736.2l-0.8,1.5 M178.5,737.7l-0.7,1.5 M177.8,739.2l-0.7,1.6 M177.1,740.8
		l-0.6,1.7 M176.5,742.5l-0.6,1.7 M175.9,744.3l-0.5,1.8 M175.4,746.1L175,748 M175,748l-0.4,2 M174.6,749.9l-0.3,2 M174.3,752
		l-0.3,2.1 M174,754.1l-0.2,2.2 M173.9,756.2l-0.1,2.2 M173.7,758.5l-0.1,2.3 M173.7,760.8l0,2.4 M173.7,763.2l0.1,2.5 M196.2,120.4
		l0.7,0.9 M194.7,129.7l-0.7,1.6 M194.1,131.3l-0.8,1.6 M193.3,132.9l-0.8,1.6 M192.5,134.4l-0.9,1.6 M191.5,136l-1,1.6
		 M190.6,137.6l-1,1.6 M189.5,139.1l-1.1,1.6 M188.4,140.7l-1.1,1.6 M187.3,142.3l-1.1,1.5 M186.2,143.8l-1.2,1.5 M185,145.3
		l-1.2,1.5 M183.8,146.9l-1.2,1.5 M182.7,148.4l-1.1,1.5 M181.5,149.9l-1.1,1.5 M201.6,128.9l0.9,1.6 M200.8,127.4l0.9,1.5 M200,126
		l0.8,1.4 M199.2,124.7l0.8,1.3 M198.4,123.5l0.8,1.2 M197.6,122.3l0.8,1.1 M196.9,121.3l0.7,1 M165.2,473.8l0.1-1.5 M165.3,472.3
		l1.2,1.7 M166.4,474.1l1.1,2.1 M167.5,476.2l1,2.4 M168.6,478.5l1,2.7 M169.5,481.2l0.9,2.9 M170.5,484.2l0.9,3.2 M171.4,487.3
		l0.9,3.4 M172.2,490.8l0.8,3.6 M173,494.4l0.8,3.8 M173.8,498.2l0.8,4 M174.6,502.2l0.8,4.1 M175.4,506.3l0.8,4.2 M177.8,519.3
		l0.8,4.5 M178.6,523.7l0.8,4.5 M179.5,528.2l0.9,4.5 M180.3,532.7l0.9,4.5 M181.3,537.2l1,4.5 M182.2,541.7l1,4.4 M183.2,546.1
		L183,548 M183,548l-0.1,2.1 M182.9,550.1l0,2.2 M182.9,552.3l0.1,2.3 M183.1,554.6l0.2,2.4 M183.3,557.1l0.3,2.5 M183.6,559.6
		l0.4,2.6 M184,562.2l0.4,2.7 M185.3,570.5l0.4,2.8 M185.8,573.3l0.4,2.9 M186.2,576.2l0.4,2.9 M186.6,579.1l0.3,2.9 M186.8,582
		l0.2,2.9 M187,584.9l0.1,2.9 M187.1,587.7l0,2.8 M187.1,590.5l-0.2,2.8 M186.9,593.3l-0.3,2.7 M186.6,596.1l-0.5,2.7 M186.1,598.7
		l-0.5,1.6 M185.6,600.3l-0.4,2.1 M185.2,602.4l-0.4,2.6 M184.8,605l-0.4,3.1 M184.3,608.1l-0.4,3.5 M183.9,611.7l-0.4,3.9
		 M183.5,615.5l-0.4,4.2 M183.1,619.8l-0.5,4.5 M182.6,624.3L182,629 M182,629l-0.6,5 M181.4,634l-0.7,5.1 M180.8,639.1l-0.8,5.2
		 M180,644.3l-0.9,5.3 M179.1,649.6l-1,5.3 M178.2,654.9l-1.1,5.3 M177.1,660.2l-1,1.8 M176.1,661.9l-1,1.7 M175,663.6l-1,1.6
		 M174,665.2l-1,1.6 M173.1,666.7l-0.9,1.5 M172.1,668.3l-0.8,1.6 M171.3,669.8l-0.8,1.6 M170.6,671.4l-0.6,1.7 M169.9,673.1
		l-0.5,1.8 M169.4,674.9l-0.3,1.9 M169.1,676.8l-0.2,2.1 M168.9,678.8l0,2.2 M168.9,681l0.2,2.4 M169.2,683.5l0.5,2.7 M169.7,686.2
		l0.7,2.9 M170.4,689.1l1,3.2 M171.5,692.4l1.3,3.6 M172.8,695.9l1.7,3.9 M174.4,699.8l2,4.3 M176.4,704.1l2.4,4.7 M178.8,708.8
		l-0.6,0.3 M178.2,709.1l-0.5,0.3 M177.6,709.4l-0.5,0.4 M177.2,709.8l-0.4,0.5 M176.8,710.3l-0.3,0.5 M176.4,710.8l-0.3,0.6
		 M176.2,711.5l-0.2,0.7 M176,712.2l-0.1,0.8 M175.9,713l0,0.9 M175.9,713.9l0.1,1 M175.9,714.9l0.2,1.1 M176.1,716l0.3,1.2
		 M176.4,717.3l0.3,1.4 M176.7,718.6l0.4,1.5 M177.1,720.1l0.5,1.6 M177.7,721.8l0.6,1.8 M178.3,723.5l0.8,1.9 M179.1,725.5l0.9,2.1
		 M180,727.6l1,2.2 M180.9,729.8l1.1,2.4 M229.2,732.7l-1.7,1.6 M230.9,731.1l-1.6,1.6 M232.3,729.4l-1.5,1.7 M233.7,727.7l-1.4,1.7
		 M234.9,726l-1.2,1.7 M236,724.2l-1.1,1.8 M237,722.5l-1,1.8 M237.9,720.6l-0.9,1.8 M238.7,718.8l-0.8,1.8 M239.3,717l-0.6,1.8
		 M239.9,715.2l-0.5,1.8 M240.3,713.3l-0.4,1.8 M240.6,711.5l-0.3,1.8 M240.7,709.7l-0.2,1.8 M240.8,707.9l-0.1,1.8 M240.8,706.2
		l0,1.8 M240.6,704.4l0.2,1.7 M240.3,702.7l0.3,1.7 M239.9,701.1l0.4,1.7 M239.4,699.5l0.5,1.6 M226.6,678.9l12.9,20.6 M231.1,645.1
		l-4.5,33.8 M229.3,634.1l1.8,11 M229.3,625.8v8.3 M231.4,618.2l-2.2,7.6 M230.1,613.9l1.4,4.4 M232.2,605.6l-2.1,8.3 M232.2,597.7
		v7.9 M235.3,587.7l-3.1,10 M237.6,573.5l-2.3,14.2 M235.9,563.8l1.7,9.7 M237.7,556.8l-1.8,7 M235.8,549.8l1.9,7 M237.7,542.2
		l-1.8,7.7 M237.7,525.6v16.5 M236.3,517.2l1.4,8.4 M238,513.7l-1.8,3.5 M238,501.5v12.1 M240.2,498.2l-2.2,3.3 M243.4,409.4
		l2.5,19.5 M243.4,399.6v9.8 M246.2,395.2l-2.8,4.4 M246.2,391.2v3.9 M108,395.6l0-0.6 M107.8,396.2l0.2-0.6 M107.5,396.9l0.3-0.6
		 M107,397.5l0.5-0.7"/>
	<path class="st6" d="M106.4,398.1l0.6-0.6 M105.8,398.8l0.7-0.6 M105,399.4l0.8-0.6 M104.1,399.9l0.9-0.6 M103.1,400.5l1-0.5
		 M102.1,400.9l1-0.5 M101,401.3l1.1-0.4 M99.9,401.6l1.1-0.3 M98.7,401.9l1.2-0.2 M97.5,402l1.2-0.1 M96.3,402l1.2,0 M95,402
		l1.2,0.1 M93.8,401.7L95,402 M92.6,401.4l1.2,0.4 M91.4,400.9l1.2,0.5 M90.3,400.2l1.1,0.7 M89.9,400.8l0.4-0.6 M89.5,401.5
		l0.3-0.7 M89.2,402.3l0.3-0.8 M89,403.2l0.2-0.9 M88.8,404.2l0.2-1 M88.6,405.2l0.2-1.1 M88.5,406.3l0.1-1.1 M88.4,407.5l0.1-1.2
		 M88.3,408.7l0.1-1.2 M88.2,409.9l0.1-1.2 M88.1,411.1l0.1-1.2 M88.1,412.3l0.1-1.2 M88,413.5l0-1.2 M88,414.7l0-1.1 M87.9,415.8
		l0.1-1.1 M87.9,416.8l0.1-1 M87.8,417.7l0.1-0.9 M87.7,418.6l0.1-0.9 M87.6,419.3l0.1-0.7 M87.4,420l0.2-0.6 M85.9,429.7l1.5-9.7
		 M84.6,439.3l1.3-9.6 M83.6,448.7l1-9.5 M82.8,458l0.8-9.3 M82.2,467.1l0.6-9.1 M81.7,476l0.5-8.9 M81.4,484.6l0.3-8.6 M81.1,492.9
		l0.2-8.3 M81,500.9l0.1-8 M81,508.5l0-7.6 M81,515.8l0-7.2 M81.1,522.5l-0.1-6.8 M81.3,539.9l0-5.3 M81.3,544.6l0-4.7 M81.2,548.7
		l0.1-4.1 M81,552.2l0.2-3.4 M80.7,554.9l0.3-2.8 M80.3,557l0.4-2.1 M79.8,558.6l0.5-1.6 M79.5,560.4l0.4-1.8 M79.2,562.3l0.2-1.9
		 M79.1,564.3l0.1-2.1 M79,566.5l0.1-2.2 M79,568.7l0-2.2 M79.1,571.1l-0.1-2.3 M79.2,573.4l-0.1-2.3 M79.4,580.5l-0.1-2.3
		 M79.5,582.8l-0.1-2.3 M79.5,585l0-2.2 M79.4,587.2l0.1-2.2 M79.3,589.2l0.1-2 M79.1,591.1l0.2-1.9 M78.7,592.9l0.4-1.8
		 M78.2,594.5l0.5-1.6 M77.6,595.9l0.6-1.4 M76.8,597.1l0.8-1.2 M74.8,599.5l2-2.4 M73,602.7l1.8-3.2 M71.5,606.6l1.5-3.9 M70.2,611
		l1.3-4.5 M69,616l1.1-5 M68,621.5l1-5.4 M67.2,627.2l0.8-5.8 M66.5,633.3l0.7-6 M65.8,639.5l0.6-6.2 M65.3,645.8l0.5-6.3
		 M64.8,652.1l0.5-6.3 M63.5,670.2l0.4-5.8 M63.1,675.7l0.5-5.5 M62.5,680.7l0.5-5.1 M62,685.3l0.6-4.6 M61.3,689.3l0.7-4
		 M60.5,692.6l0.8-3.3 M59.6,695.2l0.9-2.6 M59.1,696.4l0.6-1.3 M58.6,697.7l0.5-1.3 M58.3,698.9l0.3-1.2 M58.1,700.1l0.2-1.2
		 M58,701.3l0.1-1.2 M58,702.4l0-1.1 M58,703.5l-0.1-1.1 M58.2,704.6l-0.2-1.1 M58.5,705.6l-0.3-1 M58.8,706.6l-0.3-1 M59.2,707.5
		l-0.4-0.9 M59.7,708.3l-0.5-0.9 M60.2,709.2l-0.5-0.8 M60.8,709.9l-0.6-0.8 M61.4,710.6l-0.6-0.7 M62.1,711.3l-0.6-0.6 M62.7,711.8
		l-0.7-0.6 M63.4,712.3l-0.7-0.5 M64.1,712.8l-0.7-0.4 M64.8,713.2l-0.7-0.4 M64.1,713.9l0.8-0.7 M63.3,714.6l0.7-0.7 M62.6,715.3
		l0.7-0.7 M61.9,716.1l0.7-0.8 M61.2,716.8l0.7-0.8 M60.6,717.6l0.6-0.8 M60,718.4l0.6-0.8 M59.4,719.2l0.6-0.8 M58.9,720.1l0.5-0.8
		 M58.4,720.9l0.5-0.8 M58,721.7l0.5-0.8 M57.6,722.6l0.4-0.9 M57.2,723.5l0.4-0.9 M56.9,724.3l0.3-0.9 M56.6,725.2l0.3-0.9
		 M56.3,726.1l0.2-0.9 M56.2,727l0.2-0.9 M56,727.8l0.1-0.9 M55.9,728.7l0.1-0.9 M55.9,729.6l0-0.9 M57.7,730.7l-1.7-1.1
		 M58.1,731.1l-0.5-0.3 M60.5,732.5l-2.4-1.5 M63.1,734l-2.5-1.5 M65.7,735.5l-2.7-1.5 M68.5,736.9l-2.8-1.4 M74.5,739.7l-3-1.3
		 M77.6,740.9l-3.1-1.2 M80.8,742l-3.2-1.1 M84.1,743l-3.3-1 M87.5,743.8l-3.4-0.8 M91,744.4l-3.5-0.6 M94.6,744.9l-3.6-0.4
		 M98.2,745.1l-3.6-0.2 M101.9,745l-3.7,0 M105.6,744.7l-3.7,0.3 M109.3,744.1l-3.8,0.6 M113.1,743.2l-3.8,0.9 M116.9,742l-3.8,1.2
		 M120.8,740.4l0.3-1.2 M121,739.2l0.2-1.2 M121.3,738l0.2-1.3 M121.5,736.7l0.2-1.3 M121.7,735.3l0.2-1.4 M121.8,734l0.1-1.4
		 M121.9,732.6l0.1-1.4 M122,731.1l0-1.4 M122,729.7l0-1.4 M122,728.3l-0.1-1.4 M121.9,726.8l-0.2-1.4 M121.7,725.4l-0.2-1.4
		 M121.5,724l-0.3-1.4 M121.2,722.6l-0.4-1.4 M120.8,721.2l-0.5-1.3 M120.3,719.9l-0.6-1.3 M119.8,718.7l-0.7-1.2 M119.1,717.5
		l-0.8-1.1 M118.4,716.3l-0.9-1.1 M117.5,715.2l-1-1 M116.5,714.2l-0.3-0.6 M116.2,713.6l-0.1-0.6 M116.1,713.1l0-0.5 M116.1,712.5
		l0.1-0.5 M116.2,712l0.2-0.5 M116.4,711.5l0.3-0.5 M116.6,711l0.3-0.5 M117,710.5l0.4-0.5 M117.4,710l0.4-0.5 M117.8,709.6l0.5-0.5
		 M118.3,709.1l0.5-0.5 M118.8,708.7l0.5-0.4 M119.3,708.2l0.5-0.4 M119.8,707.8l0.5-0.4 M120.2,707.3l0.4-0.4 M120.6,706.9l0.4-0.4
		 M121,706.5l0.3-0.4 M121.3,706l0.2-0.4 M121.6,705.6l0.1-0.4 M121.7,705.1l0-0.5 M121.7,704.7l-0.2-1.1 M121.6,703.5l-0.1-1.5
		 M121.5,702.1l0-1.8 M121.5,700.3l0.1-2 M121.6,698.3l0.2-2.2 M121.7,696.1l0.2-2.4 M121.9,693.6l0.3-2.6 M122.2,691l0.3-2.7
		 M123.5,679.6l0.3-2.9 M123.8,676.6l0.3-2.9 M124.1,673.7l0.3-2.9"/>
	<path class="st6" d="M124.4,670.9l0.2-2.8 M124.6,668.1l0.1-2.6 M124.7,665.5l0.1-2.5 M124.8,663l0-2.3 M124.8,660.7l-0.1-2
		 M124.7,658.7l-0.2-1.8 M124.5,656l0,0.9 M124.5,654.8l-0.1,1.2 M124.7,653.2l-0.2,1.6 M125,651.4l-0.3,1.8 M125.3,649.3l-0.3,2.1
		 M125.7,647.1l-0.4,2.3 M127,639.4l-0.4,2.6 M127.4,636.7l-0.4,2.7 M127.8,634l-0.4,2.7 M128.2,631.3l-0.4,2.7 M128.5,628.8
		l-0.3,2.6 M128.7,626.3l-0.2,2.5 M128.9,624l-0.2,2.3 M128.9,621.8l0,2.1 M128.9,619.9l0.1,1.9 M128.6,618.3l0.2,1.6 M128.3,617
		l0.4,1.3 M127.8,616l0.5,1 M127.8,616l-0.2-0.5 M127.6,615.6l-0.1-0.6 M127.5,615l0.1-0.7 M127.6,614.3l0.1-0.7 M127.7,613.6
		l0.2-0.8 M128,612.8l0.3-0.9 M128.2,611.9l0.3-1 M128.6,610.9l0.3-1 M128.9,609.9l0.4-1.1 M129.3,608.8l0.3-1.1 M129.6,607.7
		l0.3-1.2 M129.9,606.6l0.3-1.2 M130.2,605.4l0.2-1.2 M130.4,604.1l0.1-1.2 M130.6,602.9l0.1-1.3 M130.6,601.6l-0.1-1.3
		 M130.6,600.4l-0.2-1.3 M130.4,599.1l-0.3-1.3 M130.1,597.8l-0.5-1.3 M129.6,596.6l-0.7-1.2 M128.9,595.3l-0.6-0.9 M128.3,594.4
		l-0.4-0.9 M127.9,593.5l-0.1-1 M127.8,592.6l0.1-1 M127.9,591.6l0.2-1 M128.1,590.6l0.4-1 M128.5,589.6l0.5-1 M129,588.5l0.6-1.1
		 M129.6,587.4l0.6-1.1 M130.2,586.4l0.7-1.1 M130.8,585.2l0.7-1.1 M131.5,584.1l0.6-1.2 M132.1,583l0.5-1.2 M132.7,581.8l0.5-1.2
		 M133.1,580.6l0.3-1.2 M133.4,579.4l0.2-1.2 M133.6,578.1l0-1.3 M133.6,576.9l-0.2-1.3 M133.4,575.6l-0.5-1.3 M132.9,574.3
		l-0.8-1.3 M132.1,573l-0.1-0.8 M132,572.1l0.2-1.5 M132.2,570.7l0.5-2.1 M132.8,568.6l0.8-2.6 M133.6,566l1-3 M134.6,563l1.2-3.4
		 M135.8,559.6l1.4-3.7 M140.2,547.6l1.6-4.4 M141.8,543.3l1.6-4.4 M143.4,538.8l1.6-4.5 M145,534.3l1.5-4.4 M146.4,529.9l1.4-4.3
		 M147.8,525.6l1.2-4.2 M149,521.4l1-4 M150,517.4l0.8-3.7 M150.8,513.8l0.5-3.3 M151.3,510.4l0.2-2.9 M151.5,507.5l-0.1-2.5
		 M151.4,505l0.1-1.2 M151.5,503.8l0.3-1.3 M151.8,502.5l0.5-1.4 M152.2,501l0.6-1.5 M152.8,499.5l0.7-1.6 M153.6,497.9l0.8-1.6
		 M154.4,496.3l0.9-1.7 M155.3,494.6l1-1.7 M156.3,492.9l1-1.8 M157.3,491.1l1-1.8 M158.3,489.3l1-1.8 M159.4,487.5l1-1.8
		 M160.4,485.7l1-1.8 M161.4,483.9l0.9-1.8 M162.3,482.1l0.8-1.8 M163.1,480.4l0.7-1.7 M163.8,478.7l0.6-1.7 M164.4,477l0.5-1.6
		 M164.9,475.4l0.3-1.6 M168.4,160.6l1.3-0.5 M167.3,161l1.1-0.4 M166.3,161.4l1-0.4 M165.5,161.7l0.8-0.3 M164.7,162l0.7-0.3
		 M164.1,162.2l0.6-0.2 M163.5,162.4l0.6-0.2 M163,162.5l0.5-0.2 M162.5,162.6l0.5-0.1 M161.9,162.7l0.5-0.1 M161.4,162.7l0.5,0
		 M160.9,162.7l0.6,0 M160.3,162.7l0.6,0.1 M159.6,162.6l0.7,0.1 M158.8,162.4l0.8,0.1 M157.8,162.2l0.9,0.2 M156.8,162l1.1,0.2
		 M152.5,161.1l1.6,0.3 M56.6,373.8l0.1-1.9 M56.4,375.2l0.2-1.4 M56.5,376.5l-0.1-1.4 M56.8,377.9l-0.3-1.4 M57.3,379.3l-0.5-1.4
		 M58,380.6l-0.8-1.4 M59,382l-1-1.4 M60.2,383.3L59,382 M61.6,384.7l-1.4-1.3 M63.1,386l-1.6-1.3 M64.9,387.4l-1.7-1.3 M66.8,388.7
		l-1.9-1.3 M68.8,390l-2.1-1.3 M71.1,391.3l-2.2-1.3 M73.4,392.6l-2.4-1.3 M76,393.9l-2.5-1.3 M78.6,395.2l-2.6-1.3 M81.4,396.5
		l-2.8-1.3 M84.2,397.8l-2.9-1.3 M87.2,399l-3-1.2 M90.3,400.2l-3.1-1.2 M95,365.8l1.2,0.3 M93.7,365.5l1.3,0.3 M92.5,365.3l1.3,0.2
		 M91.2,365.1l1.3,0.2 M89.9,365l1.3,0.1 M88.6,364.9l1.3,0.1 M87.4,364.9l1.3,0 M86.1,364.9l1.2,0 M84.9,364.9l1.2,0 M83.8,364.9
		l1.2-0.1 M82.6,365l1.1-0.1 M81.6,365.1l1.1-0.1 M80.6,365.3l1-0.1 M79.6,365.4l0.9-0.2 M78.8,365.6l0.9-0.2 M78,365.8l0.8-0.2
		 M77.3,366l0.7-0.2 M76.8,366.3l0.6-0.2 M76.3,366.5l0.5-0.2 M75.9,366.8l0.4-0.3 M75.8,364.6l0.1,2.1 M75.8,362.6l0,2 M75.9,360.6
		l-0.1,2 M76,358.7l-0.2,1.9 M76.3,356.9l-0.2,1.8 M76.6,355.2l-0.3,1.7 M76.9,353.5l-0.4,1.7 M77.3,351.9l-0.4,1.6 M77.7,350.4
		l-0.4,1.5 M78.2,348.9l-0.4,1.5 M78.6,347.6l-0.4,1.4 M79.8,343.7l-0.4,1.2 M80.2,342.6l-0.3,1.2 M80.5,341.5l-0.3,1.1 M80.7,340.4
		l-0.2,1 M80.8,339.4l-0.1,1 M80.9,338.5l-0.1,1 M80.9,337.6l0,0.9 M80.9,337.3l0,0.3 M80.9,337l0,0.3 M81,336.7l-0.1,0.3 M81,336.4
		l-0.1,0.3 M81.1,336.1l-0.1,0.3 M81.2,335.8l-0.1,0.3 M81.3,335.5l-0.1,0.3 M81.4,335.2l-0.1,0.3 M81.5,334.8l-0.1,0.3 M81.7,334.5
		l-0.1,0.3 M81.8,334.1l-0.1,0.4 M82,333.8l-0.2,0.4 M82.2,333.4l-0.2,0.4 M82.4,333l-0.2,0.4 M82.6,332.6l-0.2,0.4 M82.8,332.2
		l-0.2,0.4 M83.1,331.7l-0.3,0.4 M83.4,331.3l-0.3,0.4 M83.7,330.8l-0.3,0.5 M84,330.4l-0.3,0.5 M50.3,324.6l0.4-1.3 M50.1,326.2
		l0.2-1.6"/>
	<path class="st6" d="M50,328.1l0.1-1.9 M50.1,330.3l-0.1-2.2 M50.4,332.7l-0.2-2.4 M50.7,335.3l-0.3-2.6 M51.1,338.1l-0.4-2.8
		 M51.6,341l-0.5-2.9 M52.2,343.9l-0.6-3 M52.8,347l-0.6-3 M54.6,356.2l-0.6-3 M55.2,359.2l-0.6-3 M55.7,362l-0.5-2.9 M56.1,364.8
		l-0.4-2.7 M56.4,367.4l-0.3-2.6 M56.6,369.8l-0.2-2.4 M56.7,371.9l-0.1-2.2 M20.5,766l0-1 M57.3,731.1l0.4-0.4 M56.8,731.6l0.4-0.5
		 M56.4,732.1l0.5-0.5 M55.9,732.7l0.5-0.6 M55.3,733.4l0.5-0.7 M54.7,734.1l0.6-0.7 M54.1,734.9l0.6-0.8 M52.2,737.4l0.7-0.9
		 M51.5,738.3l0.7-0.9 M50.8,739.1l0.7-0.9 M50.1,740l0.7-0.9 M49.4,740.9l0.7-0.9 M48.7,741.7l0.7-0.8 M48,742.5l0.7-0.8
		 M47.2,743.3l0.7-0.8 M46.5,744l0.7-0.7 M45.8,744.7l0.7-0.7 M45.2,745.3l0.7-0.6 M40.4,747.5l1.6-0.8 M38.8,748.3l1.6-0.8
		 M37.2,749.1l1.6-0.8 M35.6,749.9l1.6-0.8 M34.1,750.7l1.5-0.8 M32.6,751.5l1.5-0.8 M31.2,752.3l1.4-0.8 M29.8,753.1l1.4-0.8
		 M28.5,754l1.3-0.9 M27.2,754.9l1.2-0.9 M26.1,755.8l1.2-0.9 M25,756.7l1.1-0.9 M24,757.7l1-1 M23.1,758.7l0.9-1 M22.4,759.7l0.8-1
		 M21.8,760.8l0.6-1.1 M21.3,761.9l0.5-1.1 M20.9,763l0.4-1.1 M20.7,764l0.3-1 M20.5,765l0.1-1 M188.5,115.5l0.3,1.8 M188.3,113.7
		l0.2,1.8 M188.1,112l0.2,1.8 M188,110.2l0.1,1.8 M187.9,108.5l0.1,1.7 M187.8,106.8l0.1,1.7 M187.8,105.1l0,1.7 M187.8,103.5l0,1.6
		 M187.9,101.9l-0.1,1.6 M188,100.4l-0.1,1.5 M188.1,99l-0.1,1.4 M188.2,97.6l-0.2,1.4 M188.4,96.3l-0.2,1.3 M188.6,95.1l-0.2,1.2
		 M188.9,94l-0.2,1.1 M189.2,93l-0.3,1 M189.5,92.2l-0.3,0.9 M189.8,91.4l-0.3,0.8 M190.2,90.7l-0.4,0.6 M190.5,90.2l-0.4,0.5
		 M192,88.6l-1.4,1.6 M193.4,87l-1.4,1.6 M194.7,85.4l-1.3,1.6 M195.9,83.9l-1.2,1.5 M197.1,82.4l-1.2,1.5 M198.1,80.9l-1.1,1.5
		 M199.1,79.4l-0.9,1.5 M199.9,78l-0.8,1.4 M200.6,76.6l-0.7,1.4 M201.1,75.2l-0.5,1.4 M201.5,73.9l-0.4,1.3 M201.7,72.6l-0.2,1.3
		 M201.7,71.4l0,1.3 M201.6,70.1l0.2,1.2 M201.2,69l0.4,1.2 M200.6,67.8l0.6,1.2 M199.8,66.7l0.8,1.1 M198.7,65.6l1.1,1.1
		 M197.4,64.6l1.3,1 M195.9,63.6l1.6,1 M125.7,72.8l0.2,0.2 M125.4,72.6l0.2,0.2 M125.2,72.5l0.2,0.1 M125,72.3l0.2,0.1 M124.8,72.2
		l0.2,0.1 M124.6,72.1l0.2,0.1 M124.5,72l0.2,0.1 M124.3,72l0.2,0.1 M124.1,71.9l0.2,0 M123.9,71.9l0.2,0 M123.8,71.9l0.2,0
		 M123.6,71.9l0.2,0 M123.4,72l0.2,0 M123.3,72l0.2-0.1 M123.1,72.1l0.2-0.1 M122.9,72.2l0.2-0.1 M122.8,72.4l0.2-0.1 M122.6,72.5
		l0.2-0.2 M122.4,72.7l0.2-0.2 M122.3,73l0.2-0.2 M122,73.4l0.3-0.4 M121.7,73.8l0.3-0.5 M121.5,74.4l0.2-0.5 M121.3,75l0.2-0.6
		 M121.1,75.6l0.2-0.7 M121,76.3l0.1-0.7 M121,77.1l0.1-0.8 M121,77.9l0-0.8 M121,78.8l-0.1-0.9 M121.1,79.7l-0.1-0.9 M121.3,80.6
		l-0.2-0.9 M121.6,81.6l-0.3-1 M121.9,82.6l-0.3-1 M122.3,83.6l-0.4-1 M122.8,84.6l-0.5-1 M123.4,85.6l-0.6-1 M124.1,86.7l-0.7-1
		 M124.9,87.7l-0.8-1 M125.8,88.8l-0.9-1 M126.8,89.8l-1-1 M127.1,91.2l-0.3-1.5 M127.4,92.7l-0.3-1.4 M127.8,94.1l-0.3-1.4
		 M128.1,95.5l-0.4-1.4 M128.5,96.9l-0.4-1.4 M128.9,98.2l-0.4-1.4 M129.3,99.6l-0.4-1.3 M129.7,100.9l-0.4-1.3 M130.2,102.2
		l-0.5-1.3 M130.7,103.4l-0.5-1.3 M131.3,104.7l-0.6-1.3 M131.9,105.9l-0.6-1.2 M132.6,107.2l-0.7-1.2 M133.4,108.4l-0.7-1.2
		 M134.2,109.6l-0.8-1.2 M135,110.7l-0.9-1.2 M136,111.9l-1-1.2 M137,113l-1-1.1 M138.2,114.1L137,113 M139.4,115.2l-1.2-1.1
		 M139.4,127.8v-12.5 M102.6,272.2l1.9,6.8 M103.8,286.8l-0.7,3 M102.5,318.9l-1.6,5.2 M149.5,273l0.3-3 M122.5,145.2l-9.6,5.7
		 M126.5,76.3l0.1,1.1 M126.9,73.9l-0.1-1.2 M195.9,60.3l0-3.3 M170,18.8l-2.3-1 M124.6,68.6l0.9,2.8 M85.5,758.5l6.2-1.1
		 M255.4,307.5l-0.1,1.3 M301.9,310l-6.2-40.9 M290.6,247.5l5.1,21.7 M189.3,376.5l3.7-0.2 M243.8,337.2l0.4,1.5 M244,309.3l1.2-5.3
		 M252.1,381.3l14.9-20 M214.5,731.7l-2.6-0.4 M204.4,134l-1.9-3.4 M176.2,510.5l1.6,8.7 M184.5,564.9l0.9,5.6 M240.2,498.2
		l5.8-69.3 M81.1,522.5l0.1,12.1 M79.2,573.4l0.2,4.7 M64.8,652.1l-0.9,12.3 M68.5,736.9l2.9,1.4 M123.5,679.6l-1,8.7 M125.7,647.1
		l0.9-5 M137.2,555.8l3-8.2 M156.8,162l-2.6-0.6 M78.6,347.6l0.9-2.6 M52.8,347l1.2,6.2 M54.1,734.9l-1.3,1.6 M45.2,745.3l-3.2,1.5
		 M144,396.1l-0.9-8.5 M181.3,110.6l1.3-2 M182.6,108.6l1-1.9 M145.5,121.6l1.3,0.9 M157.9,125l2.8-0.4 M160.7,124.6l2.8-0.8
		 M208.6,743.5l-1.2,1.9 M152.2,124.7l2.8,0.4 M149.5,123.9l2.8,0.8 M199.8,756.9l-0.9,1.9"/>
	<path class="st6" d="M209.7,741.6l-1.1,1.9 M146.8,122.5l2.7,1.3 M163.5,123.8l2.7-1 M206,747.3l-1.3,1.9 M171.3,120l2.4-1.7
		 M155,125l2.8,0 M207.3,745.4l-1.3,1.9 M200.8,755l-1.1,1.9 M179.7,112.6l1.5-2 M191.1,730.2l-0.3,1.3 M203.3,751.1l-1.3,1.9
		 M57,746.8l-3.1,1.4 M210.7,739.8l-1,1.8 M202,753.1l-1.2,1.9 M198.1,760.6l-0.5,1.8 M183.5,106.7l0.6-1.8 M154.1,447.3l-0.3-1.1
		 M204.7,749.2l-1.3,1.9 M197.6,762.4l-0.3,1.8 M154.5,448.5l-0.4-1.2 M154.9,449.7l-0.4-1.3 M212.7,733l-0.1,1.6 M197.4,766
		l0.4,1.7 M155.4,451.1l-0.5-1.3 M155.9,452.4l-0.5-1.4 M197.3,764.2l0,1.7 M212.5,731.4l0.2,1.6 M156.5,453.8l-0.6-1.4
		 M157.1,455.3l-0.6-1.4 M198.8,758.8l-0.7,1.9 M211.5,738l-0.8,1.8 M157.7,456.7l-0.6-1.4 M212.6,734.6l-0.4,1.7 M158.3,458.2
		l-0.6-1.5 M159,459.6l-0.7-1.5 M159.6,461.1l-0.7-1.4 M160.3,462.5l-0.7-1.4 M164.7,471.3l-0.6-1.1 M166.2,122.8l2.6-1.3
		 M212.2,736.3l-0.6,1.7 M173.7,118.3l2.2-1.8 M161,463.9l-0.7-1.4 M161.6,465.3l-0.7-1.4 M99.5,259.3l0.8,3.7 M101.3,267.3l1.3,5
		 M177.9,114.5l1.8-2 M175.9,116.4l2-1.9 M98.4,253.4l0.4,2.8 M168.8,121.5l2.5-1.5 M184.7,745.8l-0.8,1.8 M44.2,752.4l-3,1.5
		 M164.2,470.3l-0.6-1.2 M30.6,763.8l0.2,1.8 M30.8,765.6l1,1.9 M162.3,466.6l-0.7-1.3 M163.6,469.1l-0.6-1.2 M68.7,740.2l-1.5,1.3
		 M91.5,205.5l1.5,6.8 M53.8,748.2l-3.2,1.4 M32.2,760.3l-1.1,1.7 M41.2,753.9l-2.8,1.5 M93,212.3l1.2,5.9 M38.4,755.5l-2.5,1.6
		 M94.2,218.3l1,5.1 M95.1,223.4l0.8,4.4 M65.1,742.8l-2.4,1.3 M95.9,227.8l0.6,3.8 M35.9,757l-2.1,1.6 M31.1,762l-0.5,1.8
		 M96.9,234.8l0.3,2.8 M67.1,741.5l-2,1.3 M97.2,237.7l0.2,2.5 M98.1,250.9l0.3,2.4 M97.4,240.2l0.1,2.3 M181.1,757.1l-0.3,2
		 M60,745.4l-3,1.3 M62.7,744.1l-2.7,1.3 M69.6,738.9l-1,1.3 M182.6,751.3l-0.6,1.9 M97.6,244.6l0.1,2.1 M100.3,263l1,4.3
		 M183.2,749.4l-0.7,1.9 M182,753.2l-0.5,1.9 M181.5,755.2l-0.4,2 M70,737.6l-0.3,1.3 M97.5,242.4l0.1,2.1 M183.9,747.6l-0.7,1.9
		 M33.8,758.6l-1.6,1.7 M185.5,744l-0.8,1.8 M97.7,246.6l0.2,2.1 M96.5,231.6l0.4,3.3 M180.6,761.1l0,2 M98.9,256.1l0.6,3.2
		 M141.7,118.3l2.5,2.4 M180.8,759.1l-0.2,2 M186.3,742.2l-0.8,1.7 M139.4,115.2l2.3,3 M144.2,120.7l1.3,0.9 M180.6,763.1l0.2,2
		 M187.8,738.9l-0.8,1.7 M233.7,196l0,3.4 M233.7,199.4l0,3.4 M187,740.5l-0.8,1.7 M190.3,732.8l-0.5,1.4 M233.7,202.8l0,3.5
		 M233.8,206.3l0,3.6 M188.5,737.3l-0.7,1.6 M189.8,734.2l-0.6,1.5 M233.8,209.9l0.1,3.7 M233.9,213.6l0.1,1.9 M189.2,735.7
		l-0.7,1.5 M233.9,215.4l0.1,1.9 M234,217.3l0.2,3.8 M47.4,751l-3.2,1.5 M234.2,221.1l0.2,3.9 M234.4,225.1l0.3,4 M234.7,229.1
		l0.4,4.1 M235.1,233.2l0.5,4.2 M165.3,472.3l-0.5-1 M190.8,731.4l-0.4,1.4 M50.6,749.6l-3.2,1.4 M162.9,467.9l-0.6-1.3
		 M235.6,237.5l0.6,4.4 M236.3,241.8l0.7,4.5 M237.8,250.9l1,4.7 M238.8,255.7l1.1,4.9 M237,246.3l0.9,4.6 M241.3,265.5l1.5,5.2
		 M240,260.5l1.3,5 M243.6,273.3l0.8,2.7 M242.8,270.7l0.8,2.7 M246.3,281.5l0.2,0.6 M244.4,276l1.9,5.5 M246.7,282.6l0.3,0.5
		 M246.5,282l0.3,0.5 M247.4,283.6l0.4,0.5 M247.1,283.1l0.4,0.5 M97.9,248.7l0.2,2.2"/>
</g>
</svg>
