<?xml version="1.0" encoding="utf-8"?>
<!-- Generator: Adobe Illustrator 19.2.0, SVG Export Plug-In . SVG Version: 6.00 Build 0)  -->
<svg version="1.1" id="Layer_1" xmlns="http://www.w3.org/2000/svg" xmlns:xlink="http://www.w3.org/1999/xlink" x="0px" y="0px"
	 viewBox="0 200 720 720" style="enable-background:new 0 0 720 720;" xml:space="preserve">
<style type="text/css">
	.st0{fill:#FFFFFF;}
</style>
<g>
	<g>
		<path class="st0" d="M311.4,348.7h13v6.2h0.2c1.6-5.1,7.5-7.2,12.8-7.2v13.4c-1.8-0.7-3.5-1.1-5.4-1.1c-4.4,0-5.8,1.1-7.3,3.2
			v26.6h-13.2V348.7z"/>
		<path class="st0" d="M340.8,348.7H354v41h-13.2V348.7z"/>
		<path class="st0" d="M358.5,348.7h13.2v5.5h0.2c2.8-4.2,6.9-6.5,11.7-6.5c4,0,8,2.5,8.3,6.5h0.2c2.8-4.2,6.9-6.5,11.7-6.5
			c5.3,0,9.2,2.9,9.2,8.7v33.3h-13.2v-29c0-2.2-0.7-3.7-3.2-3.7c-1.4,0-2.5,0.6-3.4,1.7l-0.7,1v30h-13.2v-29c0-2.2-0.7-3.7-3.2-3.7
			c-1.4,0-2.5,0.6-3.4,1.7l-0.7,1v30h-13.2V348.7z"/>
		<path class="st0" d="M417.4,331.5h13.2V351h0.2c1.9-2,5.3-3.4,8-3.4c9.2,0,14.1,9.2,14.1,21c0,9.4-3.9,21.5-15,21.5
			c-5.2,0-8.5-2.4-11.1-6.4l-2.5,5.9h-6.9V331.5z M430.6,376.5c-0.2,3.4,1.8,5.3,4.3,5.3c3.7,0,4.2-3.7,4.2-11.3v-3.1
			c0-8.2,0-12.4-4.1-12.4c-1.6,0-2.9,1-3.7,1.6l-0.7,0.7V376.5z"/>
		<path class="st0" d="M456.3,331.5h13.2v58.2h-13.2V331.5z"/>
		<path class="st0" d="M486.3,370.9c0,3.6,0.7,9.7,6,9.7c3.2,0,5.9-2.3,6.7-5.6l8.9,3.3c-0.6,1.9-4.7,11.2-16.4,11.2
			c-12.7,0-18.4-10.2-18.4-21.6c0-11.6,6-21.4,18.2-21.4c12.8,0,17.2,11,17.2,21.7v2.8H486.3z M496.1,363c-0.1-3.8-0.4-8.3-5-8.3
			c-3.8,0-4.9,4.4-4.9,8.3H496.1z"/>
		<rect x="340.7" y="331.2" class="st0" width="13.3" height="11.8"/>
		<path class="st0" d="M276.1,331.3h41v11.3H304l0,47.1h-14.7l0-47.1h-13.2V331.3z"/>
		<path class="st0" d="M249.5,375.1c-0.2,0.9-0.4,1.7-0.8,2.4c-0.1,0.3-0.2,0.5-0.2,0.8c-0.6,0.6-1,0.9-1.1,1
			c-3.1,2.6-5.5,3.9-9.2,5.1c-1.4,0.4-4.2,1.2-7.9,1.1l-5.7,3.1c6.9,1.5,12.5,0.1,14.8-0.6c4.2-1.4,7-2.9,10.4-5.8
			c0.7-0.6,4.3-3.7,6.8-8.6c0.5-0.9,0.9-1.9,1.3-3L249.5,375.1z"/>
		<path class="st0" d="M229.6,335.1c0.2,0,0.4,0,0.6,0c0.4,0,0.8,0,1.1,0c-0.7,0.2-1.3,0.4-1.9,0.6l5.1,2.7c4-0.1,8,1.6,10.7,4.5
			c-0.6,0.1-1.3,0.1-1.9,0.2l8.6,4.6c0-0.1,0-0.2,0-0.3c0.4,0.2,0.7,0.5,0.9,0.8l5.7,3.1c-0.1-0.2-0.1-0.4-0.2-0.6
			c0-0.1-0.1-0.2-0.2-0.4c-0.1-0.2-0.1-0.4-0.2-0.5c-1.6-4.7-4.8-8.8-8.8-12c-0.1-0.2-0.2-0.3-0.4-0.4c-6.1-4.8-12.3-5.8-15.4-6.1
			c-0.2,0-0.3,0-0.5,0c-1.9-0.1-3.8-0.1-5.7,0.2c-0.1,0-0.2,0-0.3,0.1c-0.8,0.1-1.5,0.2-2.1,0.4c-0.5,0.1-1,0.2-1.4,0.4l5.3,2.9
			C228.9,335.1,229.2,335.1,229.6,335.1z"/>
		<path class="st0" d="M207.4,369.7c-0.8-2-1.4-4.5-1.5-5.5c-0.3-2.3-0.3-2.3-0.3-4.6c0-0.7,0.1-1.8,0.2-2.6
			c0.3-1.8,0.6-3.8,1.8-6.5v-7.5c-0.9,1.2-1.8,2.6-2.5,4.1c-2.1,4.2-2.6,7.2-3,9.4c-0.2,1-0.3,2.3-0.3,3.2c0,2.5,0,2.5,0.3,5
			c0.2,1.5,1,4.9,2.1,7.3c0.9,1.9,1.7,3.3,2.6,4.7c0.1,0.2,0.2,0.3,0.3,0.4c0.1,0.2,0.3,0.3,0.4,0.5v-8.3
			C207.5,369.4,207.4,369.5,207.4,369.7z"/>
		<path class="st0" d="M250.5,356.1c-0.4,0.6-0.8,1.1-1.2,1.6c1.4,2.6,2.5,5.2,3.2,7.7c0.3-0.4,0.6-0.8,0.8-1.2
			c2.3-3.7,2.7-8.3,1.2-12.9c-0.1-0.1-0.2-0.3-0.3-0.5c-0.1-0.4-0.3-0.8-0.5-1.1c-0.2-0.2-0.3-0.4-0.4-0.6c-0.1-0.3-0.3-0.6-0.6-0.9
			l-0.9-0.5C252.4,350.7,252,353.6,250.5,356.1z"/>
		<path class="st0" d="M227.7,335.2c-0.1,0-0.2,0-0.3,0c-1.3,0.2-2.4,0.5-3.6,0.9c1,0.2,2,0.5,3,0.9c0.8-0.5,1.7-1,2.6-1.4l-0.9-0.5
			C228.3,335.2,228,335.2,227.7,335.2z"/>
		<path class="st0" d="M257.9,370.5l18-9.7l-17.5-9.5C260.9,359,259.8,365.7,257.9,370.5z"/>
		<path class="st0" d="M233.2,338.5C233.2,338.5,233.2,338.5,233.2,338.5c-0.7,0.1-1.4,0.3-2.1,0.5c2.4,1.4,4.9,3.1,7.3,5.3
			c1.7-0.5,3.3-0.9,4.8-1.1l-8.8-4.7C234.1,338.4,233.6,338.4,233.2,338.5z"/>
		<path class="st0" d="M241.7,375.4c-10,1.4-20.6-3.3-26.7-11c-2.3,2.8-3.9,5.6-4.5,8.1c-0.2,1-0.3,1.8-0.2,2.6
			c0.4,0.6,0.8,1.1,1.4,1.7c1.4,1.7,5.4,5.9,12.1,7.8c2.3,0.7,4.6,1,6.5,1l19.2-10.4c0.1-0.8,0.2-1.6,0.2-2.4
			C247.4,374,244.7,374.9,241.7,375.4z"/>
		<path class="st0" d="M215.5,358.2c2.3-2.2,4.9-4.4,7.7-6.3c-0.2-0.4-0.4-0.8-0.5-1.2c0,0,0,0,0,0c-1.3-3.6-0.9-7.2,0.9-10.2
			c0.1-0.2,0.2-0.3,0.4-0.5c-2.1-0.6-4-0.8-5.7-0.6c-1,0.9-2,2-2.7,3.2c-1.4,2.3-2.1,4.8-2.1,7.5c0,1.9,0.3,3.8,1,5.7
			C214.7,356.6,215.1,357.4,215.5,358.2z"/>
		<path class="st0" d="M226.2,349.4c0.1,0.1,0.1,0.3,0.2,0.4c2.6-1.5,5.3-2.9,8-4.1c-2.3-1.8-4.6-3.3-6.8-4.4
			c-0.3,0.3-0.6,0.7-0.8,1C225.5,344.4,225.3,346.9,226.2,349.4C226.2,349.4,226.2,349.4,226.2,349.4z"/>
		<path class="st0" d="M240.8,358c1.3-0.2,2.5-0.6,3.5-1.1c-1.9-2.9-4.2-5.8-6.8-8.3c-0.4,0.2-0.9,0.3-1.3,0.5
			c-2.7,1.1-5.3,2.4-7.9,4C231.3,356.6,236.2,358.7,240.8,358z"/>
		<path class="st0" d="M216,335.4c2-1.1,3.9-2.1,7.3-3.1l-15.7-8.5v19.1C211.2,338.1,215.4,335.7,216,335.4z"/>
		<path class="st0" d="M247.3,354.1c1.2-2,1.4-4.5,0.5-7c0,0,0,0,0,0c-0.1-0.2-0.2-0.4-0.3-0.6c-1.7,0-3.7,0.2-6,0.8
			c2.1,2.2,4,4.6,5.6,7C247.2,354.2,247.2,354.2,247.3,354.1z"/>
		<path class="st0" d="M241.2,371.6c3.1-0.4,5.9-1.5,8.1-3.1c-0.6-2.7-1.6-5.5-3.1-8.4c-1.4,0.8-3.1,1.4-4.8,1.6
			c-6,0.8-12.4-2-16.1-6.6c-2.8,2-5.5,4.2-7.7,6.4C222.8,368.6,232.2,372.9,241.2,371.6z"/>
		<path class="st0" d="M212.8,361.1c-0.7-1.3-1.4-2.6-1.9-4v0c-1.4-3.9-1.6-7.8-0.7-11.4c-0.7,0.9-1.3,1.9-1.8,3.1c0,0,0,0,0,0
			c-0.3,0.6-0.6,1.2-0.8,1.8v18.8C208.6,366.6,210.4,363.8,212.8,361.1z"/>
		<path class="st0" d="M254.6,368.8c-0.4,0.4-0.8,0.9-1.2,1.3c0.1,0.5,0.1,0.9,0.1,1.4C253.9,370.6,254.2,369.7,254.6,368.8z"/>
		<path class="st0" d="M208.8,379.1c-0.5-0.5-0.8-1.1-1.2-1.6v20.2l17-9.2c-0.6-0.1-1.3-0.3-1.9-0.5
			C215.1,385.9,210.4,381.1,208.8,379.1z"/>
	</g>
	<path class="st0" d="M259.6,385.6c0-2.4,2.1-4.4,4.6-4.4c2.5,0,4.6,2,4.6,4.4c0,2.5-2,4.5-4.6,4.5
		C261.7,390.1,259.6,388.1,259.6,385.6z M260.5,385.6c0,2,1.6,3.6,3.7,3.6c2,0,3.7-1.6,3.7-3.6c0-2-1.7-3.6-3.7-3.6
		C262.1,382,260.5,383.6,260.5,385.6z M266.5,388.1h-0.9l-1.5-2.3h-0.9v2.3h-0.8v-5h2.2c0.4,0,0.9,0,1.2,0.2
		c0.4,0.2,0.6,0.7,0.6,1.1c0,1-0.7,1.4-1.6,1.4L266.5,388.1z M264.1,385.2c0.7,0,1.7,0.1,1.7-0.8c0-0.6-0.6-0.7-1.2-0.7h-1.3v1.5
		H264.1z"/>
	<path class="st0" d="M508.3,385.6c0-2.4,2.1-4.4,4.6-4.4c2.5,0,4.6,2,4.6,4.4c0,2.5-2,4.5-4.6,4.5
		C510.4,390.1,508.3,388.1,508.3,385.6z M509.2,385.6c0,2,1.6,3.6,3.7,3.6c2,0,3.7-1.6,3.7-3.6c0-2-1.7-3.6-3.7-3.6
		C510.8,382,509.2,383.6,509.2,385.6z M515.2,388.1h-0.9l-1.5-2.3h-0.9v2.3h-0.8v-5h2.2c0.4,0,0.9,0,1.2,0.2
		c0.4,0.2,0.6,0.7,0.6,1.1c0,1-0.7,1.4-1.6,1.4L515.2,388.1z M512.8,385.2c0.7,0,1.7,0.1,1.7-0.8c0-0.6-0.6-0.7-1.2-0.7h-1.3v1.5
		H512.8z"/>
</g>
</svg>
