<?xml version="1.0" encoding="utf-8"?>
<!-- Generator: Adobe Illustrator 20.0.0, SVG Export Plug-In . SVG Version: 6.00 Build 0)  -->
<svg version="1.1" id="Layer_1" xmlns="http://www.w3.org/2000/svg" xmlns:xlink="http://www.w3.org/1999/xlink" x="0px" y="0px"
	 viewBox="0 0 339 919.5" style="enable-background:new 0 0 339 919.5;" xml:space="preserve">
<style type="text/css">
	.st0{fill:#4F5C5D;}
	.st1{fill:#475154;}
	.st2{fill:#593121;}
	.st3{fill:#6E0A00;}
	.st4{fill:#9E775C;}
	.st5{fill:#FFE2C8;}
	.st6{fill:#56748E;}
	.st7{fill:none;stroke:#000000;stroke-miterlimit:10;}
</style>
<g>
	<path class="st0" d="M150.1,696.6l-0.4,3.5l-0.4,3.5l-0.4,3.6l-0.4,3.6l-0.4,3.6l-0.3,3.5l-0.2,3.2l-0.2,3.2l-0.1,2.6l0.1,1.8
		l-0.1,1.8l-1,3.3l-1,5.8l-1.1,5.8l-1.5,3.7l-0.2,1.5l-0.1,1.6l-0.5,2.8l-0.9,4.4l-0.8,4.4l-0.5,3.5l0,2.2l0.1,2.3l-0.5,4.7l-2,16.3
		l-1.1,9.7l0.6,3.4l1.4,2.3l0.1,1.2l-0.1,1.4l-0.2,1.3l-0.3,1.3l-0.3,1.3l-0.7,3.6l-1.2,7.2l-1.2,7.2l-0.7,5.1l0.2,1.8l0.5,1.8
		l0.5,1.6l-6.4,4.1l-7.7,2.1l-15.8,2.8l-8.7,0.1l-8.8-1l-9.5-1.1l-3.5-1.2l-2-0.8l-2.5-0.1l0.7-5l0.4-6.7l0-6.7l-0.9-6.7l-0.8-6.6
		l0.4-6.5l1.8-4.9l0.3-1.2l0.1-1.3l0.3-2.1l0.6-4.3l0.7-4.3l1-5.8l1.8-9.7l4.1-22.2l0.8-4.4l0.7-4l0.4-3l0.4-3l0.6-3.4l1.1-4.7
		l1-4.7l0.7-5.8l0.7-8.6l1.1-8.5l1.8-7.3l1.3-4.1l1.3-4.1l1.5-3.9l0.9-3.2l-0.3-3.1L92,675l-1.9-3.6l0.4-3.7l2.3-3.8l1.6-3.3
		l0.7-3.5l-0.1-3.2l0.2-1.7l0.8-1.5l1.1-1.3l1-1.2l0.7-1.3l0.1-2l-0.3-4.2l-0.5-4.2l-0.9-5.2L94,613.9l-1.4-8.4l-0.8-7.2l-0.6-7.3
		l-0.8-7.3l-2-14.6l-0.9-9l-1.1-14.8l-0.5-14.9l0.4-12.3l0.1-2.9l0.1-2.9l0-2.4l-0.1-0.6v-2.2l0.6,0.2l1.3-0.3l0.8-0.9l-0.3-1.7
		l-1.2-2.3l1.6,2.2l3.6,5l2,1.9l2.3,1.3h1.3l0.9-1l0.3-2l-0.5-0.8l-0.5-1.1l-0.3-0.5l-0.2-0.7l-0.4-1.4l-2.7-4.7l3.3,3l0.7,1
		l1.8,1.9l1.2,1h1.4l0.9-2.4l-0.4-1.7l-0.2-1.8l-1.3-2.4l-2.1-2.6l-2.6-3l3.5,3.3l4.3,3.3l2.6,0.3l0.3-2.7l-0.7-3.7l-1.7-3.6
		l-4.6-6.4l-5.1-8.9l10.3-1.5l7.2-1.7l1.8-0.4l1.4-0.8l3.3-2.7l2.6-3.2l1.3-1.2l1.1-1.8l7.6,2.1l9,0.7l9.2-0.1l4.1-0.6l-0.1-1.2
		l0.8-2.8l1.3-3.8l0-2l0-0.8l1.2,1.2l2.4,3.1l1.3,1.3l0.5,3.1l1.7,3.3l1.4,0.5l2.3-0.8l7.5-0.6l3.3,0l3.9,0.6l7.5-0.1l7.8-1.5
		l7.4-3.7l0,1.8l0.1,1.2l0.9,0.9l1.4,0.7l1.9-0.1l2.7-0.9l3.4-0.9l1.4,0.8l0.7,2.5l2.4,3.6l4.9,7.2l5.9,6.3l7.7,6.4l5,4.6l2.8,2
		l3.6,1.3l3.5,0.7l3.5-0.6l7.8-1.9l0.7,2.5l0.7,2.7l0.7,2.8l0.7,2.8l0.4,1.4l0.5,0.9l0.3,0.9l0.1,2.6l0,3.1l-0.2,3l-0.5,4.6l-0.7,5
		l-0.9,6.3l-0.1,0.3l-0.1,0.3l-0.6,2.7l-0.7,3.5l-0.6,3.5l-0.5,4.8l-0.4,5.2l-0.3,5.2l-0.4,10.2l-0.4,11.7l-0.4,11.7l-0.2,5.1
		l-0.3,3l-0.5,3l-1,3.8l-1.2,4.1l-1.1,4.1l-0.5,3.2l0,2.9l0.5,2.7l0.9,1.9l0.7,1.7l0.5,1.8l0.1,0.8l0.2,0.4l0.2,0.4l0.7,1.9l1.3,2.3
		l0.6,2.5l-0.5,2.9l0.1,2.9l0.4,2.9l0.2,2.3l0.3,2.1l0.5,1.9l1.3,2.9l1,3.4l0.2,3.6l0,4l1,3.9l1.3,3.8l0.9,2.5l1.1,1.9l0.8,1.9
		l0,3.7l-0.3,4.4l-0.4,4.4l-0.1,1.7l0.2,0.7l0.3,0.6l1.2,2.2l1.1,3l0.5,3.2l-0.1,4.5l0,5l0,5l0,2l0,0.7l0.1,0.7l0.8,5.4l0.1,7.5
		l-0.3,23.5l1.6,7.8l0.8,8l0.2,6.9l0.1,6.4l0.1,6.4l0,5.4l-0.3,4.8l-1.1,4.7l-0.9,2.5l-0.4,1.5l-0.3,1.5l-0.1,1.1l0.2,0.9l0.4,0.8
		l-0.3,2.1l-0.8,1.2l-1.1,0.9L272,823l-5.5,0.9l-5.9-0.3l-5.6-2.1l-2.7-1.7l-2.3-1.8l-5.9-2.5l-3.1-0.6l-3.1,0.2l-7.3,1.6l-1.8-1.7
		l-1.8-3.1l-0.8-4.2l0.1-4.3l0.4-6.5l-0.8-7.7l-2.2-7.5l-1.6-3.6l-0.4-1.1l-0.3-1.1l-0.3-2.9l-0.4-4.1l-0.3-4.1l-3.5-31.8l-0.2-2.5
		L216,728l-2-6.2l-2.1-9.4l-1-9.6l-0.1-5.3l-0.2-1.9l-0.3-1.9l-0.8-4.7l-1.3-7l-1.3-7l-0.8-5.2l-0.4-3.8l-0.3-3.8l-0.5-5.5l-0.6-6.9
		l-0.7-6.9l-0.8-6.1l-0.8-5.5l-0.9-5.4l-0.9-4.7l-0.9-4.1l-1-4.1l-0.9-3.8l-0.9-3.5l-0.9-3.5l-1-4l-1-4.5l-1.1-4.4l-1.3-4.4
		l-1.4-4.3l-1.5-4.3l-1.5-4.5l-1.5-4.7l-1.6-4.6l-2.6-6.4l-3.4-8.1l-3.5-8.1l-2.1-5.1l-0.8-2.2l-0.7-2.3l-0.7-1l-0.4,0.2l-0.2,0.2
		l-0.4,1.8l-0.8,3.3l-0.6,3.4l-0.4,4.4l-0.2,5.5l-0.1,5.5l-0.2,3.8l-0.2,2.2l-0.4,2.2l-1.1,4.3l-1.8,6.4l-1.6,6.4l-1.2,7.4l-0.8,8.4
		l-0.6,8.4l-0.4,7.7l-0.2,6.9l-0.1,6.9l-0.3,5.3l-0.4,3.5l-0.7,3.5l-0.8,2.9l-0.6,2.3l0,2.3l0.5,1.4l-0.1,0.3l-0.1,0.4l-0.5,2.1
		l-1,4.1l-0.9,4.2l-0.8,4.3l-0.7,4.4l-0.7,4.4l-0.4,3l0,1.3l0.1,1.3l0.3,2.2l0.1,3.2l-0.5,3.1l-0.9,2.2l-0.2,1.3l0,1.3l0.1,1.6
		l0.2,1.9l0.2,1.9L150.1,696.6z M150.1,696.6"/>
	<path class="st1" d="M233.8,820.7l-1.1-2.2l-2.1-1.7l7.3-1.6l3.1-0.2l3.1,0.6l5.9,2.5l2.3,1.8l2.7,1.7l5.6,2.1l5.9,0.3l5.5-0.9
		l1.4-0.3l1.1-0.9l0.8-1.2l0.3-2.1l1.4,1.7l-0.1,2.3l-0.9,1.4l-1.8,2l-5.4,1l-5.6,0.4l-3.6-0.3l-3.4-1.3l-5.8-2.8l-6.4-3.8l-5.4,0.4
		l-2.4,0.3l-1.5,0l-0.7,0.1L233.8,820.7z M233.8,820.7"/>
	<path class="st2" d="M230.2,837.5l1.3-6.2l2.4-10.6l-0.1-1.1l0.7-0.1l1.5,0l2.4-0.3l5.4-0.4l6.4,3.8l5.8,2.8l3.4,1.3l3.6,0.3
		l5.6-0.4l5.4-1l1.8-2l0.9-1.4l-1,15.1l0.7,15l-1.8,10.7l-1.9,4.6l-2.9,3.7l-3.2,3.4l-3.9,2.8l-4,1.5l-3.9,0.6l-9.5,0.3l-7.9-1.4
		l-5.2-0.9l-4-2.3l-3.6-3.7l-1,0.4l-1.1-5.3l0.9-3.5l0.9-4.4l1-4.9l1.3-4.8l1.9-5.5L230.2,837.5z M230.2,837.5"/>
	<path d="M238,883.6l-4.7-0.7l-2.4-0.8l-2.3-0.9l-1.7-1.7l-1.3-2.2l-1-2.6l-0.7-2.7l1-0.4l3.6,3.7l4,2.3l5.2,0.9l7.9,1.4l9.5-0.3
		l3.9-0.6l4-1.5l3.9-2.8l3.2-3.4l2.9-3.7l1.9-4.6l1.8-10.7l-0.7-15l1-15.1l0.1-2.3l1.2,2.5l0.4,2.7l-0.3,6.3l-0.5,8.1l-0.4,8.1
		l-0.1,3.9l0.2,1.6l0.4,1.5l1.3,3.7l0.2,4.8l-1.6,4.6l-2.5,3.4l-2.4,2.8l-2.4,2.8l-3.8,3.8l-5.4,2.8l-5.8,1.4l-5.8,0.3l-5.8-0.6
		L238,883.6z M238,883.6"/>
	<path class="st1" d="M68.2,851.4l1.8-3.4l2.5,0.1l2,0.8l3.5,1.2l9.5,1.1l8.8,1l8.7-0.1l15.8-2.8l7.7-2.1l6.4-4.1l0.5,1.1l0.5,1.1
		l-2.6,3.9l-3.6,2.7l-4.3,1.6l-3.5,0.7l-8.2,0.9l-8.3,0.1l-9.5,0.6l-5-0.1l-3.7-0.5l-9.7-2l-4.2-1l-2.6-0.9l-1-0.4L68.2,851.4z
		 M68.2,851.4"/>
	<path class="st2" d="M65.5,854.1l2.7-2.7l1.3-0.2l1,0.4l2.6,0.9l4.2,1l9.7,2l3.7,0.5l5,0.1l9.5-0.6l8.3-0.1l8.2-0.9l3.5-0.7
		l4.3-1.6l3.6-2.7l2.6-3.9l1,2.8l0.9,5.5l0.1,5.5l-2.7,4.2l-4.1,1.7l-8.9,3.3l-8.9,2.8l-5.5,1.2l-1.4,1.5l-2.6,1.2l-6,1.9l-2.3,1.3
		l-2.1,1.7l-7.8,8.3l-6.3,3.3l-5.7,2.2l-12.3,5.4l-12.8,3.5l-5.1,0.5l-3.2,0.2l-2.8-1l-2.3-0.5l-2.6-1.2l-2.3-0.8l-3.3-2.3l-3.5-4.1
		l0.5-5.3l1.4-4.2l2.5-3.6l3.4-2.6l2.8-2.2l2.8-2.3l3.8-2.8l5.5-4.7l5.9-4l4.9-1.5l0.1-0.1l0.1-0.1l0.9-0.6l4.9-3.6L65.5,854.1z
		 M65.5,854.1"/>
	<path d="M28.5,901.7l-3.5-3.4l-1.7-4.4l3.5,4.1l3.3,2.3l2.3,0.8l2.6,1.2l2.3,0.5l2.8,1l3.2-0.2l5.1-0.5l12.8-3.5l12.3-5.4l5.7-2.2
		l6.3-3.3l7.8-8.3l2.1-1.7l2.3-1.3l6-1.9l2.6-1.2l1.4-1.5l5.5-1.2l8.9-2.8l8.9-3.3l4.1-1.7l2.7-4.2l-0.1,5.5l-1,3.9l-2.9,2.4
		l-3.2,1.2l-0.3,0.1l-0.3,0.1l-1.8,0.6l-12.7,4.1l-3.6,0.9l-3.7,0.1l-2.7-0.5l-0.8,0.1l-0.8,0.3l-1.5,1.4l-3.1,3.2l-3.2,3.2
		l-3.3,2.8l-3.4,2.4l-3.6,1.9l-12.9,5l-0.7,0.3l-2.3,0.9l-2.1,0.7l-15.3,5.7l-8.5,1.3l-8.2-1.7L28.5,901.7z M28.5,901.7"/>
	<path class="st3" d="M272.5,184.8l3.6,3.1l2.4,1.9l2.2,1.8l2,2l2.9,4.6l2,5.3l1.5,5.5l1.6,6.1l1.5,6.3l1.5,6.3l1.7,6.5l1.7,6.6
		l1.7,6.6l1,4.2l0.9,3.9l0.9,3.9l1.3,5l1.4,5.2l1.3,5.2l0.9,4.2l0.8,4l0.8,4l1.3,6l1.4,6.3l1.3,6.4l1.2,6.9l2.1,13.9l1.2,6.9
		l1.2,6.9l0.8,6.9l0.1,6.4l-0.4,6.3l-0.5,6.3l-0.3,4.2l-0.4,3.8l-0.4,3.8l-0.1,0.7l0,0.2l-0.1,0.2l-2.9,11.8l-0.5,2.3l-0.4,1.9
		l-0.5,1.9l-1.6,4.3l-1.8,4.8l-1.6,4.8l-2.3,7.5l-2.9,7.8l-3.7,7.5l-2,3.2l-1.5,2.3l-1.4,2.4l-2.1,4.3l-2.2,4.8l-2.1,4.8l-1.3,3.1
		l-1.1,2.7l-1.1,2.7l-0.8,1.9l-0.8,1.7l-0.6,1.7l-1.2,3l-2.1,1.5l-3.1-0.5l-0.8-7.2l-9.5-8.6l-9.5-5.1l-12.5-5l0.2-0.3l4.4-6.4
		l5.2-9.4l1.7-2.5l4.2-5.3l2.9-5.4l0.4-0.5l0.4-0.5l0.4-0.5l0.4-0.5l0.5-0.7l0.5-0.9l0.5-0.9l0.6-0.8l0.7-0.6l1.4-1l0.9-1.2l0.5-1.4
		l0.2-1.6l0-3.1l0-5.5l0.2-5.5l0.5-5.5l0.9-5.5l0.5-2.6l0-2l-0.4-1.9l-0.9-1.9l-1.3-1.6l-0.9-1.3l-0.7-1.5l-0.5-1.5l-0.2-1.5l0-2.9
		l0.2-3.4l0.3-3.4l0.3-3.4l0.3-3.5l0.4-3.8l0.4-3.8l0.4-3.8l0.4-3.8l0.5-3.6l0.6-3.5l0.5-3.5l0-3.6l-0.9-3.6l-1-3.1l-0.7-3.2
		l-0.6-3.2l-0.7-3.2l-0.4-1.7l-0.2-0.5l-0.3-0.4l-0.3-0.4l-0.3-0.4l-0.8,0.4l-0.2,0.4l-0.3,1.7l-0.2,0.9l-0.2,0.9l-0.8,3.1l-0.8,3.3
		l-0.9,3.3l-1,3.3l-1,2.8l-0.8,2.2l-0.8,2.2l-0.5,2.2l0,2.3l0.3,1.7l0.3,1.5l0.3,1.5l0.3,1.5l1.6,11.6l0.6,4.6l0.4,4.6l0.2,4.3
		l0.1,4.2l0,4.2l-0.1,4.2l-0.2,4.1l-0.3,3.5l-0.4,3.5l-0.4,3.5l-0.3,3.5l0,3.2l0.2,3l0.3,3l0.3,3l0.2,2.9l0.1,2.1l0,2.1l0,2.1l0,2.1
		l0.1,1.3l0.2,0.6l0.3,0.6l0.4,0.6l0.3,0.6l-2.9,5.4l-4.2,5.3l-1.7,2.5l-5.2,9.4l-4.4,6.4l-1.2-0.2l-2-0.5l-5.2-1.7l-1.8-0.6
		l-11.2,1.5l-4.3,1.4l-4.3,2.7l-3.1,2.9l-2.3,2.9l-1.1,1.8l-0.7,2.5l-7.4,3.7l-7.8,1.5l-7.5,0.1l-3.9-0.6l-3.3,0l-7.5,0.6l-2.3,0.8
		l-1.4-0.5l-1.7-3.3l-0.5-3.1l-1.3-1.3l-2.4-3.1l-1.2-1.2l0.6-23.8l5.6-26.4l1.7-26.5l6.3-27.2l11.9-62l3.7-16.4l1-17.7l-2.5-30.5
		l2.6-0.3l0.9-0.1l0.8-0.6l4-4.1l4.5-4.2l4-4.4l7.3-10.8l3.8-6.6l2.5-5.4l1.3-4.5l0.2,3.4l1.1,2.2l1,6.3l0.4,10l-0.5,5.3l-0.4,2.1
		l0.6,0.1l0.4-0.6l1.3-1l3-4.4l3.4-6.7l2.2-5.4l1.3-5.8l0.6-11.3l-1.1-13.2l9.7,5.8l1.1,0.7l0.9,1l1.1,0.7l3.3,1.1l3.5,1.1l3.5,1.1
		l3.9,1.3l3.9,1.4l3.7,1.8l3.8,2.6L272.5,184.8z M272.5,184.8"/>
	<path class="st4" d="M215.1,133.2l-0.4,1.4l-1.1,3l-1.1,3.1l-1.2,3.1l-0.5,1.8l-4.5,6.9l-2.4,3.1l-2.8,2.7l-7.6,2.9l-7.6,0.3
		l-6.6-1.3l-8.2-2.8l-2.9-1.5l-3.2-2.6l-3.2-2.7l-0.9-1.2l-0.4-1.9l-4.2-13.8l-2-6.5l0.2-1.4l-0.3-1.5l-0.3-3.7l-1-6.6l-0.8-7.5
		l-1.4-6.5l0.8-0.2l0.7,0.1l1.9,0l1.8,9.5l0.9,5.9l1.2,4.9l2.8,10.4l1.1,2.7l1.7,2.4l2.4,1.7l2.5,0.9l0.2-2.8l0.4-3.5l0.9-2.7
		l0.8-1.2l1.2-1.2l1.1-1l1.8-1.1l3.4-1.2l6.7-0.4l5.3,0.2l2.9,0.8l3.1,1.1l1.3,0.7l0.9,0.9l0.7,1.2l0.8,1.7l0.5,3.2l0.7,2.6l3.1-3
		l2.7-3.5l2.8-4.2l1.7-2.5l1.2-2.2l1.5-4.5l0.8-4.5l0.9-3.8l0.6-4.3l0.5-1.9l0.1-0.4l0.6-0.1l1,0l1.5,0l-0.1,0.5l-0.2,1.8l-0.6,0.8
		l-0.2,0.9l-0.1,2.4l-0.2,4.5l-0.5,8.3l-0.2,3.7l-0.2,2l-0.4,1.4l-0.9,1.5l-1,3L215.1,133.2z M172.9,137.5l0.4,4.5l0.8,1.3l0,0.1
		l3.7,2.8l2.4,1.1l2.3,0.7l1.9,0.4l2.3,0.2l2.3,0l1.1-0.2l1.2-0.6l1.8-1l1.8-1.7l1.2-2.1l0.8-2.1l0.3-2.5l0-2.3l-0.3-2l-0.8-2.4
		l-0.6-0.4l-1.1-0.5l-2.6-0.9l-4.7-1.3l-4.4-0.2l-2.6,0.1l-0.9,0.2l-0.9,0.3l-3.9,1.6l-0.8,0.4l-0.7,1.6l-0.2,1.3L172.9,137.5z
		 M172.9,137.5"/>
	<path class="st4" d="M208.2,47.1l3.1,2.2l3,2.3l2.9,2.4l2.5,2.8l1.8,3.3l1.5,3.9l1.3,4l1.2,4l0.5,2.5l0.3,2.5l0.1,2.5l-0.1,2.3
		l-0.3,2.2l-0.5,2.2l-0.6,1.6l-0.8,1.5l-0.5,1.6l-0.3,2.3l0,1.1l-3,0l-1.4-0.2l0-4l-1.1-6.3l-2.1-6.9l-1.6-3.4l-2.1-2.4l-5.4-4.5
		l-3-2.4l-1.3-0.9l-0.9-1.3l-0.2-1l-0.5-0.2l-1.7-0.1l-3.3,0.1l-6.3,0.2l-7.2,0.3l-6.4-0.1l-4.3-0.6l-3.7,0.7l-3.2,0.6l-1.4,0.5
		l-0.9,1.1l-1.7,3.5l-2,3l-1.9,3.4l-0.4,2.5l-1.6,7l-0.3,6.4l0.2,4.1l0,0.6v0.3l0.2,0.2l-1.1,0.4l-2.1,0.7l-1.2,0.1l-0.5,0l-0.4,0.1
		l0-0.5l0.1-1.4l0.3-0.9l-0.8-3.9l-2-3.3l-0.1-0.2l-0.1-0.3l0-0.4l-0.3-5.2l-0.3-5.2l-0.2-5.2l0.1-1.7l0.3-1.7l0.6-1.6l4.1-6.2
		l5.2-5.2l5.7-4.6l5.1-3.5l5.6-2.6l6.1-1.4h7.5l1.9,0.4l1.9,0.4l1.9,0.3l4.5,0.5l4.4,1l4.1,1.8L208.2,47.1z M208.2,47.1"/>
	<path class="st5" d="M225.5,99.4l0.8,2.2l0.1,2.4l-1.2,7l-2.3,6.9l-2.7,6.8l-0.4,0.9l-0.4,0.5l-0.5,0.3l-1.6,0.9l0.4-1.4l0.2-2
		l0.2-3.7l0.5-8.3l0.2-4.5l0.1-2.4l0.2-0.9l0.6-0.8l0.2-1.8l0.1-0.5l0.3-1.2l0.9-1.4l2.7-0.9L225.5,99.4z M225.5,99.4"/>
	<path class="st5" d="M263.8,489.8l-0.2,0.5l-1.6-0.1l-1.2,0.7l-2.2,2.8l-3.4,0.5l-2.6-0.5l-4.4-1.7l-3.9-2.3l-6.4-5.4l-5.6-5.7
		l-2.7-2.7l-0.5-1.5l0.9-1.6l0.6-2.4l-0.2-1.7l-0.8-3.5l-1.3-2.1l-1.4-1.1l-3.1-0.3l-3.9,0.1l-4.3,0.6l-3.4,0.9l-2.7,0.9l-1.9,0.1
		l-1.4-0.7l-0.9-0.9l-0.1-1.2l0-1.8l0.7-2.5l1.1-1.8l2.3-2.9l3.1-2.9l4.3-2.7l4.3-1.4l11.2-1.5l1.8,0.6l5.2,1.7l2,0.5l1.2,0.2
		l-0.2,0.3l12.5,5l9.5,5.1l9.5,8.6l0.8,7.2l-2,1.6l-1.6,2.4l-1.5,2.5l-1.7,2.9l-1.7,3l-1.7,3.1L263.8,489.8z M263.8,489.8"/>
	<path class="st1" d="M262,490.3l1.6,0.1l0,0.5l0.5,2.1l0.7,2.5l-7.8,1.9l-3.5,0.6l-3.5-0.7l-3.6-1.3l-2.8-2l-5-4.6l-7.7-6.4
		l-5.9-6.3l-4.9-7.2l-2.4-3.6l-0.7-2.5l-1.4-0.8l4.3-0.6l4.7,8.6l5,5.5l2.7,2.7l5.6,5.7l6.4,5.4l3.9,2.3l4.4,1.7l2.6,0.5l3.4-0.5
		l2.2-2.8L262,490.3z M262,490.3"/>
	<path class="st1" d="M229.1,474.5l0.5,1.5l-5-5.5l-4.7-8.6l3.9-0.1l3.1,0.3l1.4,1.1l1.3,2.1l0.8,3.5l0.2,1.7l-0.6,2.4L229.1,474.5z
		 M229.1,474.5"/>
	<path class="st6" d="M219,94.2l1.4,0.2l3,0l0,1.1l0.3,0.8l-2.7-0.1l-1.5,0l-0.5,0.2l-0.7-0.2l-6.6,0l-0.1,1.7l-0.4,1.7l-0.5,1.5
		l-0.9,1.8l-0.5,0.9l-0.6,0.6l-1.3,1l-1.6,0.8l-1,0.6l-0.9,0.2l-1.1,0.4l-0.9,0.1l-1.9,0l-2-0.3l-1.9-0.7l-1.8-1l-0.7-0.5l-0.7-0.7
		l-1.5-1.8l-1.2-1.7l-1-2.1l-0.6-2l-0.3-2l-0.2-0.6l-0.3-0.3l-1-0.3l-2.2,0.1l-0.9,0.2l-0.9,0.3l-0.5,0.4l-0.1,0.5l-0.1,0.9
		l-0.3,2.2l-0.7,2.4l-1.3,2.1l-0.7,1.1l-0.7,0.7l-1.4,1.5l-2,1.4l-1.9,0.7l-2.1,0.1l-2.3-0.1l-2.2-0.5l-1.8-0.7l-2-1.3l-1.3-1.6
		l-1.2-1.9l-0.8-2l-0.7-2.4l-0.2-1.1l0-1l-1.3,0.2l-1.4,0.4l-1.1,0.5l-1,0.2l-2.2,0.7l-2.2,0.3l0.1-2.4l0.4-0.1l0.5,0l1.2-0.1
		l2.1-0.7l1.1-0.4l1.1-0.4l2.7-0.8l0.2-0.6l0.6-0.6l1.1-0.9l3.2-1.6l1.6-0.6l1.3-0.2l3.2,0l1.4,0l1.5,0.3l1.7,0.2l1.9,0.4l2.8,1
		l1.4,0.6l1.4,0.3l1.7-0.5l1.8-0.1l1,0l0.9,0.3l1.6-0.2l1.8-0.8l1.7-0.7l3.8-1.3l2.1-0.2l2.1,0l2.3,0.2l2,0.5l2.2,0.8l1.9,1l1.8,1.3
		l0.8,0.7l0.3,0.6l6.3,0.5L219,94.2z M191.5,93.5l-0.2,0.3l0,1.1l0,1.3l0,0.8l0.2,0.8l0.5,1.3l1.7,3l1.1,1.3l1.4,0.8l1.6,0.4
		l1.7,0.1l3.4-0.1l1.6-0.3l1.4-0.6l1.2-1.3l0.8-1.3l0.8-1.4l0.1-1.6l0-1.6l-0.2-1.3l-0.5-1.5l-0.9-0.9l-1.4-1l-1.4-0.5l-1.8-0.2
		l-1.7,0l-3.5,0.2l-1.9,0.3l-1.7,0.4l-0.8,0.4l-0.5,0.4l-0.7,0.7L191.5,93.5z M161.6,98.8l0.2,0.8l0.3,0.8l0.8,1.6l2.3,2.6l1.3,1.1
		l0.7,0.4l1,0.2l3.7,0.1l0.7,0l1-0.3l1.7-0.9l0.6-0.5l0.7-0.7l1-1.5l0.6-1.6l0.5-1.5l0.4-1.8l0.1-1.6l0.1-1.7l0-0.7l-0.1-0.3
		l-0.4-0.3l-1.5-1l-1.7-0.6l-1.8-0.1l-1.7-0.3l-3.3-0.2l-1.7,0l-0.8,0.1l-0.9,0.3l-1.7,0.5l-1.5,0.9l-0.7,0.5l-0.3,0.2l-0.4,0.4
		l-0.3,1.7l-0.1-0.2L161.6,98.8z M161.6,98.8"/>
	<path class="st5" d="M219,90.2l0,4l-1.1-0.1l-6.3-0.5l-0.3-0.6l-0.8-0.7l-1.8-1.3l-1.9-1l-2.2-0.8l-2-0.5l-2.3-0.2l-2.1,0l-2.1,0.2
		l-3.8,1.3l-1.7,0.7l-1.8,0.8l-1.6,0.2l-0.9-0.3l-1,0l-1.8,0.1l-1.7,0.5l-1.4-0.3l-1.4-0.6l-2.8-1l-1.9-0.4l-1.7-0.2l-1.5-0.3
		l-1.4,0l-3.2,0l-1.3,0.2l-1.6,0.6l-3.2,1.6l-1.1,0.9l-0.6,0.6l-0.2,0.6l-2.7,0.8l-1.1,0.4l-0.2-0.2v-0.3l0-0.6l-0.2-4.1l0.3-6.4
		l1.6-7l0.4-2.5l1.9-3.4l2-3l1.7-3.5l0.9-1.1l1.4-0.5l3.2-0.6l3.7-0.7l4.3,0.6l6.4,0.1l7.2-0.3l6.3-0.2l3.3-0.1l1.7,0.1l0.5,0.2
		l0.2,1l0.9,1.3l1.3,0.9l3,2.4l5.4,4.5l2.1,2.4l1.6,3.4l2.1,6.9L219,90.2z M219,90.2"/>
	<path class="st3" d="M230.6,163.1l1.1,13.2l-0.6,11.3l-1.3,5.8l-2.2,5.4l-3.4,6.7l-3,4.4l-1.3,1l-0.4,0.6l-0.6-0.1l0.4-2.1l0.5-5.3
		l-0.4-10l-1-6.3l-1.1-2.2l-0.2-3.4l1.4-5.5l-0.3-11.8l-1.5-5.5l-3.1-4.3l-1.7-0.4l-0.7-1.1l-0.7-2l0.6-5.9l0.6,1l1.5,0.4l1.7,0.2
		l0.8,0.7l0.6,0.2l0.3,0.2l1.8,1.1l1.3,0.6l1.2,1l2.5,2l1.2,0.8l0.8,1.1l1.1,1.5l3.3,4.2L230.6,163.1z M230.6,163.1"/>
	<path class="st3" d="M157.6,429.7l-0.6,23.8l-0.1-0.1l0.1,1l0,2l-1.3,3.8l-0.8,2.8l0.1,1.2l-4.1,0.6l-9.2,0.1l-9-0.7l-7.6-2.1
		l-1.8-0.5l-2.4-0.9l-5.7-2l-8.3-3.2l-8.3-3.5L96,450l-1.9-0.3l-2.9-3.4l3.2-2.4l2.1,0.6l11.5,4.1l3.2,0.3l2.6-0.2l0.3-4.8l-2.1-2.4
		l-10.7-6.4l-5.7-1.9l-3.1-0.8l-3-2.2l0.8-0.7l0.3-1.1l0-1.1l-0.1-0.8l0-0.7l0-0.7l0.8-3.9l1.2-4.4l1.5-4.3l1.9-4l1.3-3.7l0.9-3.9
		l0.8-4l0.4-1.6l0.1-0.7l0-0.7l0-1l0.2-2.6l0.2-2.6l0-2.6l-0.4-3.4l-0.4-4l0.1-4l0.9-4l0.7-2.7l0.6-2.8l0.6-2.8l1-3.8l1.8-5.1l2.1-5
		l2.4-4.9l1.7-3.2l1.4-3.1l0.9-3.3l0-4.1l-0.1-5.5l0-5.5l0-5.5l0-2l0-0.5l-0.1-0.5l-0.4-0.9l-1.6-3.9l-0.8-4l-0.4-4.1l-0.1-2.2
		l0-0.8l-0.1-0.8l-0.1-0.9l-2.2,0.5l-1.7,1l-1.1,1.5l-0.5,2.3l-0.3,2.8l-0.3,2.8l-0.4,2.7l-0.7,3.8l-1.1,3.9l-1.6,3.7l-1.6,2.7
		l-0.3,0.8l-0.1,0.8l0.1,0.7l1.5,2.5l0.7,3.4l-0.3,3.5l-0.9,3.4l-2.1,6.4l-0.8,3.2l-0.4,3.1l-0.8,2.9l-1.1,2.7l-1.1,2.7l-1,1.9
		l-1.1,1.9l-0.7,2.1l0.2,3.9l0.1,5.9l-0.5,5.9l-1.3,5.8l-1.1,3.5l-0.8,3.2l-0.8,3.2l-0.8,3.1l-0.8,2.9l-0.8,3l-0.5,3l-0.3,4.8
		l-0.1,5.5l0,5.5l-0.1,4.8l-0.1,1l-0.2,1.1l-0.3,1.1l-2.4-4.4l-2.2-1.3l-2.2-0.7l-2.6-0.5l-2,0l-2.4,0.3l-1.9,0.8l-5.7,8.2l-2.5,4.2
		l-0.6,2.9l0.1,1.7l-0.3,1.7l-0.7,0.5l-2.7-1.2l-1.7-2.2l-0.3-3.2l0.4-5.2l0.4-5.2l0.2-4.7l-0.1-2.1l-0.3-2.1l-0.4-2l-0.5-1.4
		l-0.5-1.4l-0.2-2.5l-0.1-8l-0.3-8l-0.7-7.5l-0.3-4.6l0.1-4.7l0.2-5.1l0.3-7.1l0.8-13.2l0.1-0.3l0.1-0.3l0.1-0.5l0.1-1.7l0.1-3.5
		l0-2.2l0.1-2.1l0.3-2.2l1.2-2.9l1-3l-0.3-3.1l-0.1-1.6l0.4-1.8l0.7-1.8l0.5-2.3l-0.5-2.1l-1.4-1.9l-0.6-0.9l-0.4-1.1l-0.3-1.4
		l0.4-3.5l1.5-3.1l2.3-3.3l4.2-8.2l2.7-8.6l2.1-8.3l1.1-4.3l1.1-4.3l1.1-4.1l1-3.1l1-3l1-3.2l1.2-4.7l1.1-4.7l1.3-4.8l1.7-5.7
		l1.8-5.6l1.9-5.6l2-5.8l2.1-5.8l2.4-5.8l3.1-6.3l3.3-6.2l3-5.7l0.3-0.5l0.4-0.4l0.4-0.5l0.5-0.8l0.5-0.7l0.5-0.7l1.5-1.2l1.4-1.1
		l1.5-1l2.4-1.4l2.4-1.3l2.5-1.3l2.9-1.7l3-1.6l3.3-1.3l6-1.7l6.1-1.5l6.1-1.4l4.7-1.9l0.3,9.7l1.7,9.5l2.1,8.9l3.2,8.5l2.3,3.9
		l0.5,1.1l0.9-0.4l0.5-0.9l2.3-7.6l3.6-6.8l4.3-2.6l2.3-0.3l1.4,1l4.6,11.7l5.8,10l7.2,8l0.1,1.6l2.5,30.5l-1,17.7l-3.7,16.4
		l-11.9,62l-6.3,27.2l-1.7,26.5L157.6,429.7z M157.6,429.7"/>
	<path d="M187.9,222.8l-2.6,0.3l-0.1-1.6l-7.2-8l-5.8-10l-4.6-11.7l-0.7-2.3l-2.8-1.5l-4.7-2.9l-1.5-1.7l-1.1-3.1l-0.2-6.6l0.3-3.6
		l2.6,3.6l8.9,9l4.2,2.8l2.5,1.1l2.6,0.2l4.6-0.3l2.3-0.3l2.4,0.4l8.4-0.8l4.5-1.3l2.2-1l2.3-1.9l7.2-8.6l3.2-4.3l1.7-3l1.6-1
		l0.3,11.8l-1.4,5.5l-1.3,4.5l-2.5,5.4l-3.8,6.6l-7.3,10.8l-4,4.4l-4.5,4.2l-4,4.1l-0.8,0.6L187.9,222.8z M187.9,222.8"/>
	<path class="st4" d="M153.7,97.2l1-0.2l0.2,0.3l0,0.3l-0.2,0.5l-0.5,1.7l-1.9,0l-0.7-0.1l-0.8,0.2l-0.6-1l-0.8-0.7l2.2-0.3
		L153.7,97.2z M153.7,97.2"/>
	<path class="st5" d="M154.9,97.3l-0.2-0.3l1.1-0.5l1.4-0.4l1.3-0.2l0,1l0.2,1.1l0.7,2.4l0.8,2l1.2,1.9l1.3,1.6l2,1.3l1.8,0.7
		l2.2,0.5l2.3,0.1l2.1-0.1l1.9-0.7l2-1.4l1.4-1.5l0.7-0.7l0.7-1.1l1.3-2.1l0.7-2.4l0.3-2.2l0.1-0.9l0.1-0.5l0.5-0.4l0.9-0.3l0.9-0.2
		l2.2-0.1l1,0.3l0.3,0.3l0.2,0.6l0.3,2l0.6,2l1,2.1l1.2,1.7l1.5,1.8l0.7,0.7l0.7,0.5l1.8,1l1.9,0.7l2,0.3l1.9,0l0.9-0.1l1.1-0.4
		l0.9-0.2l1-0.6l1.6-0.8l1.3-1l0.6-0.6l0.5-0.9l0.9-1.8l0.5-1.5l0.4-1.7l0.1-1.7l6.6,0l0.7,0.2l-0.2,2.7l-0.2,1.2l0,0.3l-1,0
		l-0.6,0.1l-0.1,0.4l-0.5,1.9l-0.6,4.3l-0.9,3.8l-0.8,4.5l-1.5,4.5l-1.2,2.2l-1.7,2.5l-2.8,4.2l-2.7,3.5l-3.1,3l-0.7-2.6l-0.5-3.2
		L199,128l-0.7-1.2l-0.9-0.9l-1.3-0.7L193,124l-2.9-0.8l-5.3-0.2l-6.7,0.4l-3.4,1.2l-1.8,1.1l-1.1,1l-1.2,1.2l-0.8,1.2l-0.9,2.7
		l-0.4,3.5l-0.2,2.8l-2.5-0.9l-2.4-1.7l-1.7-2.4l-1.1-2.7l-2.8-10.4l-1.2-4.9l-0.9-5.9l-1.8-9.5l0.5-1.7l0.2-0.5L154.9,97.3z
		 M154.9,97.3"/>
	<path class="st5" d="M150.1,98.9l0.6,1l1.4,6.5l0.8,7.5l1,6.6l0.3,3.7l0.3,1.5l-0.2,1.4l-1.4-1.3l-1.3-1.2l-1-1.5l-2.2-4.9l-2-5
		l-1.8-5l-0.6-3.7l0.7-3.5l2.2-3l1.2-0.1l0.5,0l0.6,0.2L150.1,98.9z M150.1,98.9"/>
	<path class="st4" d="M220.4,99.6l-0.3,1.2l-1.5,0l0-0.3l0.2-1.2l0.2-2.7l0.5-0.2l1.5,0l2.7,0.1l0.3,0.8l-2.7,0.9L220.4,99.6z
		 M220.4,99.6"/>
	<path class="st5" d="M216.5,159.2l1.5,5.5l-1.6,1l-1.7,3l-3.2,4.3l-7.2,8.6l-2.3,1.9l-2.2,1l-4.5,1.3l-8.4,0.8l-2.4-0.4l-2.3,0.3
		l-4.6,0.3l-2.6-0.2l-2.5-1.1l-4.2-2.8l-8.9-9l-2.6-3.6l0.8-9.5l1.1-7l1.3-2.9l1.1-1.3l0.9,1.2l3.2,2.7l3.2,2.6l2.9,1.5l8.2,2.8
		l6.6,1.3l7.6-0.3l7.6-2.9l2.8-2.7l2.4-3.1l4.5-6.9l-0.6,5.9l0.7,2l0.7,1.1l1.7,0.4L216.5,159.2z M216.5,159.2"/>
	<path class="st3" d="M160.5,147.5l0.4,1.9l-1.1,1.3l-1.3,2.9l-1.1,7l-0.8,9.5l-0.3,3.6l0.2,6.6l1.1,3.1l1.5,1.7l4.7,2.9l2.8,1.5
		l0.7,2.3l-1.4-1l-2.3,0.3l-4.3,2.6l-3.6,6.8l-2.3,7.6l-0.5,0.9l-0.9,0.4l-0.5-1.1l-2.3-3.9l-3.2-8.5l-2.1-8.9l-1.7-9.5l-0.3-9.7
		l3.4-3.2l2-4.4l1.9-3.7l2.6-2.9l2.7-2.6l1.7-1.2l2-1L160.5,147.5z M160.5,147.5"/>
	<path class="st5" d="M79.5,424.4l2.4,4.4l0.9,0.7l1.8,0.3l1.9,0.3l1.9,0.3l1.3-0.1l3,2.2l3.1,0.8l5.7,1.9l10.7,6.4l2.1,2.4
		l-0.3,4.8l-2.6,0.2l-3.2-0.3l-11.5-4.1l-2.1-0.6l-3.2,2.4l-1.4,2.8l-1.1,5.1l-0.3,3.5l1.4,4.4l3.8,8.3l2.7,4.7l5.1,8.9l4.6,6.4
		l1.7,3.6l0.7,3.7l-0.3,2.7l-2.6-0.3l-4.3-3.3l-3.5-3.3l2.6,3l2.1,2.6l1.3,2.4l0.2,1.8l0.4,1.7l-0.9,2.4H102l-1.2-1l-1.8-1.9l-0.7-1
		l-3.3-3l2.7,4.7l0.4,1.4l0.2,0.7l0.3,0.5l0.5,1.1l0.5,0.8l-0.3,2l-0.9,1h-1.3l-2.3-1.3l-2-1.9l-3.6-5l-1.6-2.2l1.2,2.3l0.3,1.7
		l-0.8,0.9l-1.3,0.3l-0.6-0.2L85,507l-0.9-0.8l-0.8-1.3l-1.5-1.8l-2.1-2l-1.2-1.5l-2.4-3.1l-2.4-3.8l-3.3-6l-3.2-6.1l-2.7-5.1
		l-0.6-1.3l-0.5-1.3l-0.4-2.2l-0.8-5.7l-0.8-5.7l-0.9-5.5l-0.9-4.9l-1-5l-0.9-4l-0.1-1.7l0.6-2.9l2.5-4.2l5.7-8.2l1.9-0.8l2.4-0.3
		l2,0l2.6,0.5l2.2,0.7L79.5,424.4z M79.5,424.4"/>
	<path class="st1" d="M123.4,461.3l1.8,0.5l-1.1,1.8l-1.3,1.2l-2.6,3.2l-3.3,2.7l-1.4,0.8l-1.8,0.4l-7.2,1.7l-10.3,1.5l-2.7-4.7
		l10.4-0.9l6.9-1.2l2.9-1l3-1.8l2.9-2.5l0.9-1.4l0.4-1.2L123.4,461.3z M123.4,461.3"/>
	<path class="st0" d="M115.3,458.4l5.7,2l-0.4,1.2l-0.9,1.4l-2.9,2.5l-3,1.8l-2.9,1l-6.9,1.2l-10.4,0.9l-3.8-8.3l-1.4-4.4l0.3-3.5
		l1.1-5.1l1.4-2.8l2.9,3.4L96,450l2.6,1.7l8.3,3.5L115.3,458.4z M115.3,458.4"/>
	<path class="st5" d="M191.3,93.9l0.2-0.3l0.3-0.3l0.7-0.7l0.5-0.4l0.8-0.4l1.7-0.4l1.9-0.3l3.5-0.2l1.7,0l1.8,0.2l1.4,0.5l1.4,1
		l0.9,0.9l0.5,1.5l0.2,1.3l0,1.6l-0.1,1.6l-0.8,1.4l-0.8,1.3l-1.2,1.3l-1.4,0.6l-1.6,0.3l-3.4,0.1l-1.7-0.1l-1.6-0.4l-1.4-0.8
		l-1.1-1.3l-1.7-3l-0.5-1.3l-0.2-0.8l0-0.8l0-1.3L191.3,93.9z M191.3,93.9"/>
	<path class="st5" d="M173.3,142l-0.4-4.5l0-3.4l0.2-1.3l0.7-1.6l0.8-0.4l3.9-1.6l0.9-0.3l0.9-0.2l2.6-0.1l4.4,0.2l4.7,1.3l2.6,0.9
		l1.1,0.5l0.6,0.4l0.8,2.4l0.3,2l0,2.3l-0.3,2.5l-0.8,2.1l-1.2,2.1l-1.8,1.7l-1.8,1l-1.2,0.6l-1.1,0.2l-2.3,0l-2.3-0.2l-1.9-0.4
		l-2.3-0.7l-2.4-1.1l-3.7-2.8l0-0.1L173.3,142z M173.3,142"/>
	<path class="st5" d="M161.8,99.7l-0.2-0.8l-1-3.4l0.1,0.2l0.3-1.7l0.4-0.4l0.3-0.2l0.7-0.5l1.5-0.9l1.7-0.5l0.9-0.3l0.8-0.1l1.7,0
		l3.3,0.2l1.7,0.3l1.8,0.1l1.7,0.6l1.5,1l0.4,0.3l0.1,0.3l0,0.7l-0.1,1.7l-0.1,1.6l-0.4,1.8l-0.5,1.5l-0.6,1.6l-1,1.5l-0.7,0.7
		l-0.6,0.5l-1.7,0.9l-1,0.3l-0.7,0l-3.7-0.1l-1-0.2l-0.7-0.4l-1.3-1.1l-2.3-2.6l-0.8-1.6L161.8,99.7z M161.8,99.7"/>
	<path class="st7" d="M150.1,696.6l-0.4,3.5 M149.7,700.1l-0.4,3.5 M92.4,688.5l1.5-3.9 M144.3,745.6l-1.5,3.7 M145.4,739.8
		l-1.1,5.8 M142.7,749.3l-0.2,1.5 M142.5,750.8l-0.1,1.6 M142,755.1l-0.9,4.4 M141.1,759.6l-0.8,4.4 M142.4,752.4l-0.5,2.8
		 M139.8,767.5l0,2.2 M140.3,764l-0.5,3.5 M139.8,769.8l0.1,2.3 M139.9,772l-0.5,4.7 M136.8,806.2l1.4,2.3 M136.2,802.8l0.6,3.4
		 M138.2,808.5l0.1,1.2 M91.1,692.7l1.3-4.1 M138.4,809.7l-0.1,1.4 M159.1,602.8l-0.4,7.7 M167.1,547.7l-0.1,5.5 M156,645.5
		l-0.1,0.3 M155.3,648.3l-1,4.1 M155.8,646.2l-0.5,2.1 M155.5,644.1l0.5,1.4 M155.9,645.8l-0.1,0.4 M84.6,731.7l1-4.7 M148.9,707.2
		l-0.4,3.6 M153.4,656.6l-0.8,4.3 M154.3,652.5l-0.9,4.2 M87,712.6l1.1-8.5 M88,704.1l1.8-7.3 M85.6,727l0.7-5.8 M86.3,721.2
		l0.7-8.6 M83.5,736.4l1.1-4.7 M226.2,807.8l0.1-4.3 M202.9,636.7l-0.8-5.5 M89.8,696.8l1.3-4.1 M82.9,739.9l0.6-3.4 M275,759.6
		l1.6,7.8 M276.6,767.5l0.8,8 M216.5,730.5L216,728 M277.8,788.7l0.1,6.4 M216.7,733l-0.2-2.5 M192.6,589.1l-1.3-4.4 M208.3,682.1
		l-1.3-7 M166.5,559.2l-0.4,2.2 M172.3,534.5l-0.8-2.2 M167.3,542.3l-0.2,5.5 M212,712.4l-1-9.6 M171.5,532.3l-0.7-2.3 M183.8,562.2
		l-2.6-6.4 M188.5,576l-1.5-4.5 M202.1,631.3l-0.9-5.4 M211,702.9l-0.1-5.3 M207,675l-0.8-5.2 M158.4,624.2l-0.3,5.3 M160.5,585.9
		l-0.8,8.4 M227,811.9l-0.8-4.2 M221,773.1l-0.4-4.1 M221.3,775.9l-0.3-2.9 M226.7,797l-0.8-7.7 M226.4,803.4l0.4-6.5 M166.2,561.4
		l-1.1,4.3 M193.7,593.5l-1.1-4.4 M187,571.5l-1.5-4.7 M159.7,594.3l-0.6,8.4 M277.9,795.1l0,5.4 M277.6,782.3l0.1,6.4 M277.5,775.4
		l0.2,6.9 M277.9,800.5l-0.3,4.8 M161.7,578.5l-1.2,7.4 M174.4,539.6l-2.1-5.1 M170.8,530l-0.7-1 M185.4,566.9l-1.6-4.6
		 M158.1,629.5l-0.4,3.5 M167,553.2l-0.2,3.8 M166.8,557l-0.2,2.2 M206.2,669.8l-0.4-3.8 M205.8,666l-0.3-3.8 M222,778.1l-0.4-1.1
		 M221.6,777.1l-0.3-1.1 M168.3,534.5l-0.6,3.4 M167.7,537.9l-0.4,4.4 M165.1,565.7l-1.8,6.4 M163.3,572.1l-1.6,6.4 M170.1,529
		l-0.4,0.2 M169.7,529.2l-0.2,0.2 M169.5,529.4l-0.4,1.8 M169,531.2l-0.8,3.3 M191.4,584.7l-1.4-4.3 M189.9,580.4l-1.5-4.3
		 M195.7,602l-1-4 M194.8,598l-1-4.5 M225.9,789.2l-2.2-7.5 M223.6,781.8l-1.6-3.6 M210.4,693.8l-0.8-4.7 M209.5,689.1l-1.3-7
		 M204.3,649.8l-0.7-6.9 M203.6,642.8l-0.8-6.1 M199.3,616.9l-1-4.1 M198.4,612.8l-0.9-3.8 M230.6,816.8l-1.8-1.7 M228.8,815
		l-1.8-3.1 M216,728l-2-6.2 M214.1,721.8l-2.1-9.4 M158.7,610.4l-0.2,6.9 M158.5,617.3l-0.1,6.9 M197.5,609l-0.9-3.5 M196.6,605.5
		l-0.9-3.5 M220.5,769l-0.3-4.1 M181.2,555.8l-3.4-8.1 M205.5,662.2l-0.5-5.5 M177.8,547.7l-3.5-8.1 M205,656.7l-0.6-6.9
		 M210.9,697.6l-0.2-1.9 M210.7,695.7l-0.3-1.9 M201.1,625.8l-0.9-4.7 M200.2,621.1l-0.9-4.1 M233.8,820.7l-1.1-2.2 M232.7,818.5
		l-2.1-1.7 M230.2,837.5l1.3-6.2 M228.7,843.6l1.5-6.1 M226.8,849.1l1.9-5.5 M225.5,854l1.3-4.8 M224.5,858.8l1-4.9 M223.6,863.2
		l0.9-4.4 M222.7,866.8l0.9-3.5 M238,883.6l-4.7-0.7 M243.7,884.5l-5.8-1 M249.5,885.1l-5.8-0.6 M255.3,884.8l-5.8,0.3 M261.1,883.4
		l-5.8,1.4 M266.5,880.6l-5.4,2.8 M270.3,876.8l-3.8,3.8 M272.7,874l-2.4,2.8 M275,871.2l-2.4,2.8 M277.6,867.8l-2.5,3.4
		 M279.2,863.2l-1.6,4.6 M279,858.4l0.2,4.8 M277.7,854.7l1.3,3.7 M277.3,853.2l0.4,1.5 M277.1,851.6l0.2,1.6 M277.3,847.7l-0.1,3.9
		 M277.7,839.6l-0.4,8.1 M278.2,831.5l-0.5,8.1 M278.5,825.2l-0.3,6.3 M278.1,822.5l0.4,2.7 M276.9,820l1.2,2.5 M275.5,818.4
		l1.4,1.7 M275.1,817.5l0.4,0.8 M274.8,816.6l0.2,0.9 M274.9,815.5l-0.1,1.1 M275.2,814l-0.3,1.5 M275.6,812.6l-0.4,1.5 M276.5,810
		l-0.9,2.5 M277.6,805.3l-1.1,4.7 M146.4,734l-1,5.8 M147.4,730.6l-1,3.3 M82.5,742.8l0.4-3 M81.4,749.7l0.7-4 M80.6,754.1l0.8-4.4
		 M74.7,786l1.8-9.7 M73.7,791.8l1-5.8 M73,796.1l0.7-4.3 M72.4,800.5l0.6-4.3 M82.1,745.8l0.4-3 M72.1,802.6l0.3-2.1 M71.9,803.9
		l0.1-1.3 M71.6,805.1l0.3-1.2 M69.9,810l1.8-4.9 M69.4,816.5l0.4-6.5 M70.3,823.1l-0.8-6.6 M71.1,829.8l-0.9-6.7 M71.1,836.4l0-6.7
		 M70.7,843.1l0.4-6.7 M70,848.1l0.7-5 M68.2,851.4l1.8-3.4 M65.5,854.1l2.7-2.7 M62.8,856.2l2.7-2 M57.1,860.5l0.9-0.6 M57,860.6
		l0.1-0.1 M56.8,860.7l0.1-0.1 M51.9,862.2l4.9-1.5 M46.1,866.2l5.9-4 M40.6,870.8l5.5-4.7 M36.8,873.6l3.8-2.8 M34,875.9l2.8-2.3
		 M31.2,878.1l2.8-2.2 M27.8,880.8l3.4-2.6 M147.4,728.9l-0.1,1.8 M147.8,718l-0.2,3.2 M147.6,721.2l-0.2,3.2 M147.4,727.1l0.1,1.8
		 M147.5,724.4l-0.1,2.6 M156.2,639.4l-0.6,2.3 M155.5,641.7l0,2.3 M28.5,901.7l-3.5-3.4 M23.9,888.6l1.4-4.2 M23.4,893.8l0.5-5.3"
		/>
	<path class="st7" d="M35.3,905.5l-6.8-3.9 M43.6,907.2l-8.2-1.7 M52.1,905.9l-8.5,1.3 M152.6,660.9l-0.7,4.4 M151.8,665.3l-0.7,4.4
		 M150.8,672.6l0,1.3 M150.8,674l0.1,1.3 M151.2,669.7l-0.4,3 M148.5,710.9l-0.4,3.6 M69.5,899.5l-2.1,0.7 M71.9,898.6l-2.3,0.9
		 M72.6,898.3l-0.7,0.3 M151.2,677.5l0.1,3.2 M150.8,683.8l-0.9,2.2 M149.9,686l-0.2,1.3 M151,675.3l0.3,2.2 M151.3,680.7l-0.5,3.1
		 M149.8,690.1l0.2,1.9 M150.1,692l0.2,1.9 M149.7,687.2l0,1.3 M150.3,693.9l-0.1,2.6 M149.7,688.6l0.1,1.6 M102.2,879.7l-3.1,3.2
		 M99.1,882.9l-3.2,3.2 M92.5,888.8l-3.4,2.4 M89.1,891.3l-3.6,1.9 M95.9,886.1l-3.3,2.8 M103.7,878.3l-1.5,1.4 M148.1,714.5
		l-0.3,3.5 M107.9,878.4l-2.7-0.5 M104.5,878l-0.8,0.3 M105.3,877.9l-0.8,0.1 M111.6,878.2l-3.7,0.1 M115.3,877.4l-3.6,0.9
		 M157,636.5l-0.8,2.9 M157.7,633l-0.7,3.5 M129.8,872.7l-1.8,0.6 M130.5,872.4l-0.3,0.1 M130.2,872.6l-0.3,0.1 M136.6,868.9
		l-2.9,2.4 M133.7,871.2l-3.2,1.2 M137.6,865l-1,3.9 M137.7,859.4l-0.1,5.5 M137.7,853.9l0.1,5.5 M136.8,848.4l0.9,5.5 M135.3,844.5
		l0.5,1.1 M135.8,845.7l1,2.8 M134.8,843.4l0.5,1.1 M134.4,841.8l0.5,1.6 M133.9,840l0.5,1.8 M133.6,838.2l0.2,1.8 M134.3,833
		l-0.7,5.1 M135.5,825.8l-1.2,7.2 M136.7,818.6l-1.2,7.2 M137.4,815l-0.7,3.6 M137.7,813.7l-0.3,1.3 M138,812.4l-0.3,1.3 M138.2,811
		l-0.2,1.3 M275.3,728.6l0.1,7.5 M274.4,723.2l0.8,5.4 M274.3,722.5l0.1,0.7 M274.3,721.8l0,0.7 M274.3,719.7l0,2 M274.3,714.8l0,5
		 M274.3,709.8l0,5 M274.4,705.3l-0.1,4.5 M273.9,702.1l0.5,3.2 M272.8,699.1l1.1,3 M271.7,696.9l1.2,2.2 M271.4,696.2l0.3,0.6
		 M271.2,695.6l0.2,0.7 M271.3,693.8l-0.1,1.7 M271.7,689.4l-0.4,4.4 M272,685l-0.3,4.4 M271.9,681.3l0,3.7 M271.1,679.5l0.8,1.9
		 M270,677.6l1.1,1.9 M269.1,675.1l0.9,2.5 M267.8,671.3l1.3,3.8 M266.8,667.4l1,3.9 M266.8,663.4l0,4 M266.6,659.8l0.2,3.6
		 M265.6,656.4l1,3.4 M264.3,653.5l1.3,2.9 M263.8,651.5l0.5,1.9 M263.5,649.5l0.3,2.1 M263.3,647.2l0.2,2.3 M262.9,644.3l0.4,2.9
		 M262.8,641.3l0.1,2.9 M263.4,638.4l-0.5,2.9 M262.8,635.9l0.6,2.5 M261.5,633.6l1.3,2.3 M260.8,631.8l0.7,1.9 M260.6,631.4
		l0.2,0.4 M260.4,631l0.2,0.4 M260.2,630.2l0.1,0.8 M259.8,628.4l0.5,1.8 M259,626.8l0.7,1.7 M258.2,624.9l0.9,1.9 M257.6,622.2
		l0.5,2.7 M257.7,619.3l0,2.9 M258.2,616.1l-0.5,3.2 M259.2,612l-1.1,4.1 M260.4,607.9l-1.2,4.1 M261.4,604.1l-1,3.8 M261.9,601.1
		l-0.5,3 M262.3,598.1l-0.3,3 M262.5,593l-0.2,5.1 M262.9,581.3l-0.4,11.7 M263.2,569.6l-0.4,11.7 M263.6,559.4l-0.4,10.2
		 M264.7,544.4l-0.5,4.8 M272.5,184.8l3.6,3.1 M263.9,554.3l-0.3,5.2 M264.3,549.1l-0.4,5.2 M300.6,255.3l0.9,3.9 M268.9,515.1
		l-0.2,3 M317.4,340.1l0.8,6.9 M268.8,509.5l0.1,2.6 M215.1,133.2l-0.4,1.4 M208.2,47.1l3.1,2.2 M224.4,68l1.2,4 M225.5,99.4
		l0.8,2.2 M298.7,247.2l1,4.2 M315.1,326.3l1.2,6.9 M318.3,347l0.1,6.4 M302.7,264.2l1.4,5.2 M223.4,93.3l0,1.1 M268.5,508.6
		l0.3,0.9 M267.6,506.3l0.4,1.4 M282.7,193.5l2.9,4.6 M310.6,299.2l1.3,6.4 M226.4,81.9l-0.3,2.2 M219.7,56.8l1.8,3.3 M261.4,177.4
		l3.7,1.8 M223.1,64l1.3,4 M316.4,377.7l-0.1,0.7 M214.7,134.6l-1.1,3 M311.8,305.5l1.2,6.9 M196.5,42.3l4.4,1 M225.6,86.3l-0.6,1.6
		 M268.1,507.6l0.5,0.9 M250.1,173.5l3.5,1.1 M224,97.3l1.5,2.1 M268.9,512.1l0,3.1 M241.4,169.5l0.9,1 M268.3,522.8l-0.7,5
		 M211.3,143.7l-0.5,1.8 M268.8,518.2l-0.5,4.6 M301.5,426l-3.7,7.5 M295.8,436.7l-1.5,2.3 M294.3,439l-1.4,2.4 M293,441.4l-2.1,4.3
		 M290.9,445.7l-2.2,4.8 M288.7,450.5l-2.1,4.8 M286.6,455.3l-1.3,3.1 M263.8,489.8l-0.2,0.5 M262,490.3l1.6,0.1 M260.8,491l1.2-0.7
		 M258.6,493.9l2.2-2.8 M255.1,494.3l3.4-0.5 M252.6,493.8l2.6,0.5 M248.2,492.1l4.4,1.7 M244.3,489.7l3.9,2.3 M237.9,484.4l6.4,5.4
		 M232.3,478.7l5.6,5.7 M229.6,476l2.7,2.7 M229.1,474.5l0.5,1.5 M230,472.9l-0.9,1.6 M230.7,470.5l-0.6,2.4 M230.4,468.8l0.2,1.7
		 M229.7,465.3l0.8,3.5 M228.4,463.2l1.3,2.1 M226.9,462.1l1.4,1.1 M223.8,461.8l3.1,0.3 M219.9,461.9l3.9-0.1 M215.6,462.5l4.3-0.6
		 M212.2,463.4l3.4-0.9 M209.6,464.3l2.7-0.9 M207.7,464.4l1.9-0.1 M206.2,463.7l1.4,0.7 M205.3,462.8l0.9,0.9 M205.2,461.7l0.1,1.2
		 M205.2,459.9l0,1.8 M205.9,457.4l-0.7,2.5 M207,455.6l-1.1,1.8 M209.3,452.6l-2.3,2.9 M212.3,449.7l-3.1,2.9 M216.6,447l-4.3,2.7
		 M220.9,445.6l-4.3,1.4 M233.9,444.7l-1.8-0.6 M239.1,446.4l-5.2-1.7 M241.1,446.9l-2-0.5 M242.3,447.1l-1.2-0.2 M242.3,447.1
		l-0.2,0.3 M242.1,447.4l12.5,5 M254.6,452.4l9.5,5.1 M264.1,457.5l9.5,8.6 M273.7,466l0.8,7.2 M274.4,473.3l-2,1.6"/>
	<path class="st7" d="M272.4,474.9l-1.6,2.4 M270.9,477.3l-1.5,2.5 M269.3,479.8l-1.7,2.9 M267.6,482.7l-1.7,3 M266,485.8l-1.7,3.1
		 M264.3,488.8l-0.5,1 M52.1,905.9l15.3-5.7 M23.4,893.8l1.7,4.4 M23.4,893.8l3.5,4.1 M26.9,898l3.3,2.3 M30.2,900.2l2.3,0.8
		 M32.5,901l2.6,1.2 M35.1,902.2l2.3,0.5 M37.4,902.7l2.8,1 M40.2,903.6l3.2-0.2 M43.4,903.4l5.1-0.5 M48.5,902.9l12.8-3.5
		 M61.2,899.4l12.3-5.4 M73.5,894l5.7-2.2 M79.3,891.7l6.3-3.3 M85.5,888.5l7.8-8.3 M93.3,880.2l2.1-1.7 M95.5,878.4l2.3-1.3
		 M97.8,877.2l6-1.9 M103.7,875.3l2.6-1.2 M106.4,874.1l1.4-1.5 M107.7,872.6l5.5-1.2 M113.2,871.4l8.9-2.8 M122.1,868.6l8.9-3.3
		 M131,865.3l4.1-1.7 M135.1,863.6l2.7-4.2 M72.6,898.3l12.9-5 M219,94.2l1.4,0.2 M219,90.2l0,4 M217.9,84l1.1,6.3 M215.8,77.1
		l2.1,6.9 M214.2,73.7l1.6,3.4 M212,71.4l2.1,2.4 M206.6,66.9l5.4,4.5 M203.7,64.5l3,2.4 M202.3,63.5l1.3,0.9 M201.4,62.2l0.9,1.3
		 M201.2,61.2l0.2,1 M200.7,61l0.5,0.2 M199,60.9l1.7,0.1 M195.7,61l3.3-0.1 M189.5,61.1l6.3-0.2 M182.2,61.5l7.2-0.3 M175.8,61.3
		l6.4,0.1 M171.5,60.8l4.3,0.6 M167.8,61.4l3.7-0.7 M164.6,62l3.2-0.6 M163.3,62.5l1.4-0.5 M162.4,63.5l0.9-1.1 M160.6,67l1.7-3.5
		 M158.6,70.1l2-3 M156.7,73.4l1.9-3.4 M156.3,76l0.4-2.5 M154.7,83l1.6-7 M154.4,89.4l0.3-6.4 M154.6,93.5l-0.2-4.1 M154.6,93.5
		l0,0.6 M154.7,94.1v0.3 M154.7,94.4l0.2,0.2 M154.8,94.6l-1.1,0.4 M153.7,95l-2.1,0.7 M151.6,95.6l-1.2,0.1 M150.4,95.7l-0.5,0
		 M149.8,95.7l-0.4,0.1 M149.4,95.7l0-0.5 M149.4,95.2l0.1-1.4 M149.5,93.9l0.3-0.9 M149.8,93l-0.8-3.9 M149,89.2l-2-3.3
		 M147.1,85.8l-0.1-0.2 M146.9,85.6l-0.1-0.3 M146.9,85.4l0-0.4 M146.9,85l-0.3-5.2 M146.5,79.7l-0.3-5.2 M146.2,74.5l-0.2-5.2
		 M146,69.3l0.1-1.7 M146,67.6l0.3-1.7 M146.3,66l0.6-1.6 M146.9,64.4l4.1-6.2 M151,58.2l5.2-5.2 M156.2,53l5.7-4.6 M161.9,48.4
		l5.1-3.5 M167,44.9l5.6-2.6 M172.6,42.3l6.1-1.4 M186.2,40.9l1.9,0.4 M188.1,41.2l1.9,0.4 M190.1,41.6l1.9,0.3 M192,41.8l4.5,0.5
		 M200.9,43.3l4.1,1.8 M205,45.1l3.2,2 M211.3,49.4l3,2.3 M214.3,51.6l2.9,2.4 M217.2,54l2.5,2.8 M221.6,60.1l1.5,3.9 M225.6,72
		l0.5,2.5 M226.1,74.5l0.3,2.5 M226.4,77.1l0.1,2.5 M226.5,79.6l-0.1,2.3 M226.1,84.1l-0.5,2.2 M225,87.9l-0.8,1.5 M224.2,89.5
		l-0.5,1.6 M223.7,91.1l-0.3,2.3 M220.4,94.4l3,0 M229.6,476l-5-5.5 M224.6,470.5l-4.7-8.6 M231.6,176.3l-1.1-13.2 M230.6,163.1
		l9.7,5.8 M241.4,169.5l-1.1-0.7 M242.3,170.6l1.1,0.7 M243.3,171.2l3.3,1.1 M246.6,172.4l3.5,1.1 M253.7,174.6l3.9,1.3
		 M257.5,175.9l3.9,1.4 M265.1,179.2l3.8,2.6 M268.9,181.8l3.6,3 M276.1,187.8l2.4,1.9 M278.5,189.7l2.2,1.8 M280.7,191.5l2,2
		 M285.6,198.1l2,5.3 M287.6,203.4l1.5,5.5 M289.1,208.9l1.6,6.1 M290.7,215l1.5,6.3 M292.2,221.3l1.5,6.3 M293.6,227.5l1.7,6.5
		 M295.3,234l1.7,6.6 M297,240.6l1.7,6.6 M299.7,251.4l0.9,3.9 M301.5,259.2l1.3,5 M304.1,269.4l1.3,5.2 M305.4,274.6l0.9,4.2
		 M306.3,278.7l0.8,4 M307.1,282.8l0.8,4 M307.9,286.8l1.3,6 M309.2,292.8l1.4,6.3 M316.2,333.2l1.2,6.9 M318.4,353.4l-0.4,6.3
		 M318,359.7l-0.5,6.3 M317.5,366l-0.3,4.2 M317.2,370.2l-0.4,3.8 M316.8,373.9l-0.4,3.8 M316.3,378.4l0,0.2 M316.3,378.6l-0.1,0.2
		 M313.3,390.6l-0.5,2.3 M312.8,392.9l-0.4,1.9 M312.3,394.8l-0.5,1.9 M311.8,396.7l-1.6,4.3 M310.2,401l-1.8,4.8 M308.4,405.8
		l-1.6,4.8 M306.8,410.6l-2.3,7.5 M304.5,418.1l-2.9,7.8 M297.8,433.5l-2,3.2 M285.3,458.4l-1.1,2.7 M284.2,461.1l-1.1,2.7
		 M283.2,463.9l-0.8,1.9 M282.3,465.8l-0.8,1.7 M281.6,467.5l-0.6,1.7 M280.9,469.2l-1.2,3 M279.7,472.2l-2.1,1.5 M277.6,473.8
		l-3.1-0.5 M246.6,440.7l-4.4,6.4 M251.9,431.3l-5.2,9.4 M253.6,428.7l-1.7,2.5 M257.8,423.5l-4.2,5.3 M260.7,418.1l-2.9,5.4
		 M260.7,418.1l0.4-0.5 M261.1,417.6l0.4-0.5 M261.6,417.2l0.4-0.5 M262,416.7l0.4-0.5 M262.4,416.2l0.5-0.7 M262.9,415.5l0.5-0.9
		 M263.4,414.6l0.5-0.9 M263.9,413.7l0.6-0.8 M264.5,412.8l0.7-0.6 M265.2,412.2l1.4-1 M266.6,411.2l0.9-1.2 M267.5,410l0.5-1.4
		 M268,408.7l0.2-1.6 M268.2,407.1l0-3.1 M268.2,404l0-5.5 M268.2,398.5l0.2-5.5 M268.4,392.9l0.5-5.5 M268.9,387.4l0.9-5.5
		 M269.8,381.9l0.5-2.6 M270.3,379.3l0-2 M270.3,377.4l-0.4-1.9 M269.9,375.4l-0.9-1.9 M269,373.6l-1.3-1.6 M267.7,371.9l-0.9-1.3
		 M266.8,370.7l-0.7-1.5 M266.1,369.2l-0.5-1.5 M265.7,367.7l-0.2-1.5 M265.5,366.2l0-2.9 M265.5,363.3l0.2-3.4 M265.7,359.9
		l0.3-3.4 M266,356.5l0.3-3.4"/>
	<path class="st7" d="M266.3,353.1l0.3-3.5 M266.7,349.6l0.4-3.8 M267,345.8l0.4-3.8 M267.4,342.1l0.4-3.8 M267.8,338.3l0.4-3.8
		 M268.2,334.5l0.5-3.6 M268.7,330.9l0.6-3.5 M269.3,327.4l0.5-3.5 M269.8,323.9l0-3.6 M269.7,320.3l-0.9-3.6 M268.8,316.6l-1-3.1
		 M267.9,313.5l-0.7-3.2 M267.1,310.3l-0.6-3.2 M266.5,307.1l-0.7-3.2 M265.8,303.9l-0.4-1.7 M265.4,302.1l-0.2-0.5 M265.2,301.7
		l-0.3-0.4 M264.8,301.3l-0.3-0.4 M264.5,300.8l-0.3-0.4 M263.3,300.8l-0.2,0.4 M262.8,302.9l-0.2,0.9 M262.7,303.8l-0.2,0.9
		 M262.5,304.6l-0.8,3.1 M261.7,307.7l-0.8,3.3 M260.8,311l-0.9,3.3 M259.9,314.3l-1,3.3 M259,317.6l-1,2.8 M258,320.4l-0.8,2.2
		 M257.1,322.6l-0.8,2.2 M256.4,324.7l-0.5,2.2 M255.9,327l0,2.3 M255.9,329.3l0.3,1.7 M256.2,331l0.3,1.5 M256.5,332.5l0.3,1.5
		 M256.7,334l0.3,1.5 M258.6,347l0.6,4.6 M259.2,351.6l0.4,4.6 M259.6,356.2l0.2,4.3 M259.9,360.5l0.1,4.2 M260,364.7l0,4.2
		 M259.9,368.9l-0.1,4.2 M259.8,373.1l-0.2,4.1 M259.6,377.2l-0.3,3.5 M259.3,380.7l-0.4,3.5 M258.9,384.2l-0.4,3.5 M258.5,387.7
		l-0.3,3.5 M258.3,391.2l0,3.2 M258.2,394.4l0.2,3 M258.4,397.4l0.3,3 M258.7,400.4l0.3,3 M259,403.4l0.2,2.9 M259.2,406.3l0.1,2.1
		 M259.3,408.4l0,2.1 M259.3,410.5l0,2.1 M259.3,412.5l0,2.1 M259.3,414.6l0.1,1.3 M259.4,415.9l0.2,0.6 M259.6,416.4l0.3,0.6
		 M260,417l0.4,0.6 M260.3,417.6l0.3,0.6 M197.8,463.7l7.4-3.7 M190,465.2l7.8-1.5 M182.5,465.3l7.5-0.1 M178.6,464.6l3.9,0.6
		 M175.3,464.6l3.3,0 M167.7,465.2l7.5-0.6 M165.4,465.9l2.3-0.8 M164.1,465.4l1.4,0.5 M162.4,462.1l1.7,3.3 M161.9,459l0.5,3.1
		 M160.6,457.7l1.3,1.3 M158.2,454.6l2.4,3.1 M157,453.4l1.2,1.2 M157.6,429.7l-0.6,23.8 M163.2,403.3l-5.6,26.4 M165,376.8
		l-1.7,26.5 M171.3,349.6l-6.3,27.2 M183.1,287.6l-11.9,62 M186.8,271.3l-3.7,16.4 M187.8,253.6l-1,17.7 M185.3,223.1l2.5,30.5
		 M187.9,222.8l-2.6,0.3 M188.8,222.7l-0.9,0.1 M189.6,222.1l-0.8,0.6 M193.6,218l-4,4.1 M198.1,213.8l-4.5,4.2 M202,209.4l-4,4.4
		 M209.3,198.5l-7.3,10.8 M213.1,191.9l-3.8,6.6 M215.6,186.5l-2.5,5.4 M215.6,186.5l1.3-4.5 M216.9,182.1l0.2,3.4 M217.1,185.4
		l1.1,2.2 M218.3,187.6l1,6.3 M219.2,194l0.4,10 M219.7,203.9l-0.5,5.3 M219.2,209.3l-0.4,2.1 M218.7,211.4l0.6,0.1 M219.4,211.5
		l0.4-0.6 M219.8,210.9l1.3-1 M221,209.9l3-4.4 M224.1,205.5l3.4-6.7 M227.5,198.8l2.2-5.4 M229.7,193.4l1.3-5.8 M231,187.6
		l0.6-11.3 M25.3,884.3l2.5-3.6 M68.2,851.4l1.3-0.2 M69.5,851.3l1,0.4 M70.5,851.7l2.6,0.9 M73.2,852.6l4.2,1 M77.4,853.6l9.7,2
		 M87.1,855.6l3.7,0.5 M90.7,856l5,0.1 M95.8,856.2l9.5-0.6 M105.2,855.6l8.3-0.1 M113.6,855.5l8.2-0.9 M121.8,854.6l3.5-0.7
		 M125.3,853.8l4.3-1.6 M129.6,852.3l3.6-2.7 M133.2,849.5l2.6-3.9 M154.7,97l-1,0.2 M154.9,97.3l-0.2-0.3 M154.8,97.6l0-0.3
		 M154.7,98.1l0.2-0.5 M154.1,99.8l0.5-1.7 M152.2,99.8l1.9,0 M151.6,99.7l0.7,0.1 M150.7,99.9l0.8-0.2 M150.1,98.9l0.6,1
		 M149.3,98.2l0.8,0.7 M151.5,97.9l-2.2,0.3 M153.7,97.2l-2.2,0.7 M219,126.5l-1.6,0.9 M217.7,125.9l-0.4,1.4 M218,123.9l-0.2,2
		 M218.2,120.1l-0.2,3.7 M218.7,111.8l-0.5,8.3 M218.9,107.3l-0.2,4.5 M219,104.9l-0.1,2.4 M219.2,104l-0.2,0.9 M219.8,103.2
		l-0.6,0.8 M220.1,101.4l-0.2,1.8 M220.2,100.8l-0.1,0.5 M220.2,100.8l0.3-1.2 M220.4,99.6l0.9-1.4 M221.3,98.2l2.7-0.9
		 M226.3,101.6l0.1,2.4 M226.4,104l-1.2,7 M225.2,111l-2.3,6.9 M222.9,117.9l-2.7,6.8 M220.2,124.7l-0.4,0.9 M219.8,125.6l-0.4,0.5
		 M219.4,126.1l-0.5,0.3 M191.3,93.9l0.2-0.3 M191.5,93.5l0.3-0.3 M191.8,93.3l0.7-0.7 M192.4,92.6l0.5-0.4 M192.9,92.2l0.8-0.4
		 M193.7,91.9l1.7-0.4 M195.5,91.5l1.9-0.3 M197.4,91.2l3.5-0.2 M200.9,91.1l1.7,0 M202.6,91.1l1.8,0.2 M204.4,91.3l1.4,0.5
		 M205.8,91.8l1.4,1 M207.2,92.9l0.9,0.9 M208.2,93.8l0.5,1.5 M208.7,95.3l0.2,1.3 M208.9,96.6l0,1.6 M208.9,98.2l-0.1,1.6
		 M208.8,99.8l-0.8,1.4 M207.9,101.3l-0.8,1.3 M207.1,102.6l-1.2,1.3 M205.9,103.8l-1.4,0.6 M204.5,104.4l-1.6,0.3 M202.9,104.7
		l-3.4,0.1 M199.6,104.8l-1.7-0.1 M197.9,104.7l-1.6-0.4 M196.2,104.3l-1.4-0.8 M194.9,103.4l-1.1-1.3 M193.8,102.1l-1.7-3
		 M192.1,99.1l-0.5-1.3 M191.6,97.8l-0.2-0.8 M191.4,97.1l0-0.8 M191.3,96.3l0-1.3 M223.8,872.1l0.7,2.7 M223.8,872.1l1-0.4
		 M224.8,871.6l3.6,3.7 M228.3,875.3l4,2.3 M232.3,877.6l5.2,0.9 M237.5,878.5l7.9,1.4 M245.4,879.9l9.5-0.3 M254.9,879.7l3.9-0.6
		 M258.8,879l4-1.5 M262.8,877.5l3.9-2.8 M266.7,874.8l3.2-3.4 M269.9,871.4l2.9-3.7 M272.8,867.7l1.9-4.6 M274.7,863.1l1.8-10.7
		 M276.4,852.5l-0.7-15"/>
	<path class="st7" d="M275.8,837.4l1-15.1 M276.7,822.3l0.1-2.3 M230.9,882.1l2.4,0.8 M228.6,881.2l2.3,0.9 M226.9,879.5l1.7,1.7
		 M225.5,877.4l1.3,2.2 M224.5,874.8l1,2.6 M172.9,137.5l0.4,4.5 M172.9,137.5l0-3.4 M172.9,134.1l0.2-1.3 M173.1,132.8l0.7-1.6
		 M174.6,130.7l-0.8,0.4 M178.4,129.1l-3.9,1.6 M179.4,128.8l-0.9,0.3 M180.3,128.6l-0.9,0.2 M182.9,128.5l-2.6,0.1 M187.3,128.7
		l-4.4-0.2 M192,129.9l-4.7-1.3 M194.5,130.8l-2.6-0.9 M195.6,131.3l-1.1-0.5 M196.2,131.7l-0.6-0.4 M197,134l-0.8-2.4 M197.3,136.1
		l-0.3-2 M197.2,138.4l0-2.3 M196.9,140.9l0.3-2.5 M196.1,143l0.8-2.1 M194.8,145.1l1.2-2.1 M193,146.8l1.8-1.7 M191.2,147.8l1.8-1
		 M190,148.3l1.2-0.6 M188.9,148.5l1.1-0.2 M186.6,148.5l2.3,0 M184.3,148.4l2.3,0.2 M182.5,147.9l1.9,0.4 M180.1,147.2l2.3,0.7
		 M177.8,146.2l2.4,1.1 M174,143.4l3.7,2.8 M174,143.3L174,143.3 M174,143.3l-0.8-1.3 M218.6,100.5l0,0.3 M217.7,100.8l1,0
		 M217.1,100.9l0.6-0.1 M217,101.3l0.1-0.4 M216.5,103.2l0.5-1.9 M215.8,107.5l0.6-4.3 M214.9,111.2l0.9-3.8 M214.1,115.7l0.8-4.5
		 M212.6,120.2l1.5-4.5 M211.4,122.4l1.2-2.2 M209.7,124.9l1.7-2.5 M206.9,129l2.8-4.2 M204.2,132.5l2.7-3.5 M201.1,135.5l3.1-3
		 M200.3,133l0.7,2.6 M199.8,129.7l0.5,3.2 M199,128l0.8,1.7 M198.3,126.7l0.7,1.2 M197.4,125.8l0.9,0.9 M196.1,125.1l1.3,0.7
		 M193,124l3.1,1.1 M190.1,123.2l2.9,0.8 M184.9,123l5.3,0.2 M178.2,123.4l6.7-0.4 M174.8,124.6l3.4-1.2 M173,125.6l1.8-1.1
		 M171.9,126.6l1.1-1 M170.7,127.8l1.2-1.2 M169.9,129l0.8-1.2 M169,131.7l0.9-2.7 M168.6,135.3l0.4-3.5 M168.4,138.1l0.2-2.8
		 M168.4,138.1l-2.5-0.9 M166,137.2l-2.4-1.7 M163.6,135.5l-1.7-2.4 M161.9,133.2l-1.1-2.7 M160.9,130.5l-2.8-10.4 M158,120.1
		l-1.2-4.9 M156.8,115.2l-0.9-5.9 M155.9,109.3l-1.8-9.5 M155.8,96.5l-1.1,0.5 M157.2,96.2l-1.4,0.4 M158.5,96l-1.3,0.2 M158.5,96
		l0,1 M158.6,97l0.2,1.1 M158.8,98.1l0.7,2.4 M159.5,100.5l0.8,2 M160.3,102.5l1.2,1.9 M161.5,104.4l1.3,1.6 M162.8,106l2,1.3
		 M164.8,107.3l1.8,0.7 M166.7,108.1l2.2,0.5 M168.9,108.6l2.3,0.1 M171.2,108.7l2.1-0.1 M173.3,108.5l1.9-0.7 M175.2,107.8l2-1.4
		 M177.3,106.4l1.4-1.5 M178.7,104.9l0.7-0.7 M179.4,104.2l0.7-1.1 M180.1,103.1l1.3-2.1 M181.3,101l0.7-2.4 M182,98.5l0.3-2.2
		 M182.3,96.3l0.1-0.9 M182.4,95.4l0.1-0.5 M182.6,94.9l0.5-0.4 M183,94.5l0.9-0.3 M183.9,94.1l0.9-0.2 M184.8,93.9l2.2-0.1
		 M187,93.9l1,0.3 M188.1,94.2l0.3,0.3 M188.4,94.5l0.2,0.6 M188.6,95.1l0.3,2 M188.8,97l0.6,2 M189.4,99l1,2.1 M190.4,101.1
		l1.2,1.7 M191.6,102.9l1.5,1.8 M193.1,104.6l0.7,0.7 M193.7,105.3l0.7,0.5 M194.5,105.8l1.8,1 M196.3,106.8l1.9,0.7 M198.2,107.5
		l2,0.3 M200.2,107.7l1.9,0 M202.1,107.7l0.9-0.1 M203,107.7l1.1-0.4 M204,107.2l0.9-0.2 M204.9,107l1-0.6 M205.9,106.4l1.6-0.8
		 M207.5,105.6l1.3-1 M208.7,104.5l0.6-0.6 M209.3,104l0.5-0.9 M209.8,103.1l0.9-1.8 M210.7,101.3l0.5-1.5 M211.2,99.8l0.4-1.7
		 M211.6,98l0.1-1.7 M211.7,96.3l6.6,0 M218.3,96.4l0.7,0.2 M219,96.6l-0.2,2.7 M218.8,99.3l-0.2,1.2 M229.6,160.6l-3.3-4.2
		 M230.6,163.1l-1-2.5 M218.3,176.5l-1.4,5.5 M218,164.7l0.3,11.8 M216.5,159.2l1.5,5.5 M213.3,154.9l3.1,4.3 M211.6,154.5l1.7,0.4
		 M211,153.4l0.7,1.1 M210.2,151.4l0.7,2 M210.8,145.5l-0.6,5.9 M210.8,145.5l0.6,1 M211.4,146.5l1.5,0.4 M213,146.9l1.7,0.2
		 M214.6,147.1l0.8,0.7 M215.4,147.8l0.6,0.2 M216,148.1l0.3,0.2 M216.3,148.3l1.8,1.1 M218.1,149.4l1.3,0.6 M219.4,150l1.2,1
		 M220.6,151l2.5,2 M223.1,153l1.2,0.8 M224.3,153.8l0.8,1.1 M225.1,154.9l1.1,1.5 M150.7,99.9l1.4,6.5 M152.2,106.5l0.8,7.5
		 M153,114l1,6.6 M154,120.6l0.3,3.7 M154.3,124.2l0.3,1.5 M154.6,125.8l-0.2,1.4 M154.4,127.2l-1.4-1.3 M152.9,125.9l-1.3-1.2
		 M151.7,124.7l-1-1.5 M150.7,123.2l-2.2-4.9 M148.5,118.3l-2-5 M146.5,113.3l-1.8-5 M144.7,108.3l-0.6-3.7 M144,104.6l0.7-3.5
		 M144.8,101.1l2.2-3 M147,98.1l1.2-0.1 M148.3,98l0.5,0 M148.8,98l0.6,0.2 M156.3,133.6l-2-6.5 M217.4,127.3l-0.9,1.5 M215.5,131.8
		l-0.4,1.4 M213.6,137.6l-1.1,3.1 M212.5,140.7l-1.2,3.1 M210.8,145.5l-4.5,6.9 M206.3,152.4l-2.4,3.1 M204,155.5l-2.8,2.7
		 M201.1,158.2l-7.6,2.9 M193.6,161.1l-7.6,0.3 M185.9,161.4l-6.6-1.3 M179.3,160.1l-8.2-2.8 M171.1,157.3l-2.9-1.5 M168.2,155.8
		l-3.2-2.6 M165,153.2l-3.2-2.7 M161.9,150.6l-0.9-1.2 M160.9,149.4l-0.4-1.9 M159.9,150.7l1.1-1.3 M158.6,153.6l1.3-2.9
		 M157.5,160.6l1.1-7 M156.4,173.7l0.3-3.6 M156.7,180.3l-0.2-6.6"/>
	<path class="st7" d="M157.8,183.5l-1.1-3.1 M159.3,185.2l-1.5-1.7 M164,188.1l-4.7-2.9 M166.8,189.6l-2.8-1.5 M167.6,191.8
		l-0.7-2.3 M167.6,191.8l-1.4-1 M166.1,190.9l-2.3,0.3 M163.8,191.2l-4.3,2.6 M159.5,193.7l-3.6,6.8 M155.9,200.5l-2.3,7.6
		 M153.6,208.1l-0.5,0.9 M153.1,209l-0.9,0.4 M152.3,209.4l-0.5-1.1 M151.8,208.4l-2.3-3.9 M149.5,204.4l-3.2-8.5 M146.3,195.9
		l-2.1-8.9 M144.2,187l-1.7-9.5 M142.5,177.5l-0.3-9.7 M142.2,167.8l3.4-3.2 M145.7,164.6l2-4.4 M147.7,160.2l1.9-3.7 M149.5,156.6
		l2.6-2.9 M152.2,153.7l2.7-2.6 M154.9,151.1l1.7-1.2 M156.6,149.8l2-1 M158.6,148.8l1.9-1.3 M216.3,165.7l1.6-1 M214.6,168.6l1.7-3
		 M211.4,173l3.2-4.3 M204.3,181.6l7.2-8.6 M202,183.6l2.3-1.9 M199.7,184.5l2.2-1 M195.2,185.8l4.5-1.3 M186.8,186.6l8.4-0.8
		 M184.4,186.2l2.4,0.4 M182.1,186.5l2.3-0.3 M177.5,186.8l4.6-0.3 M174.9,186.7l2.6,0.2 M172.4,185.6l2.5,1.1 M168.2,182.7l4.2,2.8
		 M159.3,173.7l8.9,9 M156.7,170.1l2.6,3.6 M185.2,221.5l0.1,1.6 M185.2,221.5l-7.2-8 M178,213.5l-5.8-10 M172.2,203.5l-4.6-11.7
		 M161.6,98.8l0.2,0.8 M160.6,95.4l1,3.4 M160.7,95.6l-0.1-0.2 M161,93.9l-0.3,1.7 M161.3,93.5l-0.4,0.4 M161.6,93.3l-0.3,0.2
		 M162.3,92.8l-0.7,0.5 M163.8,91.9l-1.5,0.9 M165.5,91.4l-1.7,0.5 M166.3,91.1l-0.9,0.3 M167.1,91l-0.8,0.1 M168.8,91l-1.7,0
		 M172.1,91.2l-3.3-0.2 M173.8,91.5l-1.7-0.3 M175.5,91.6l-1.8-0.1 M177.3,92.1l-1.7-0.6 M178.8,93.2l-1.5-1 M179.2,93.5l-0.4-0.3
		 M179.3,93.8l-0.1-0.3 M179.3,94.4l0-0.7 M179.3,96.1l0.1-1.7 M179.1,97.8l0.1-1.6 M178.8,99.6l0.4-1.8 M178.3,101.1l0.5-1.5
		 M177.6,102.6l0.6-1.6 M176.6,104.1l1-1.5 M175.9,104.8l0.7-0.7 M175.3,105.3l0.6-0.5 M173.6,106.2l1.7-0.9 M172.6,106.5l1-0.3
		 M171.8,106.5l0.7,0 M168.1,106.4l3.7,0.1 M167.2,106.2l1,0.2 M166.5,105.8l0.7,0.4 M165.1,104.7l1.3,1.1 M162.9,102.1l2.3,2.6
		 M162.1,100.5l0.8,1.6 M161.8,99.7l0.3,0.8 M155.9,94.2l-1.1,0.4 M217.9,94.1l1.1,0.1 M211.6,93.6l6.3,0.5 M211.6,93.6l-0.3-0.6
		 M211.3,93l-0.8-0.7 M210.6,92.3l-1.8-1.3 M208.7,91l-1.9-1 M206.9,90l-2.2-0.8 M204.7,89.2l-2-0.5 M202.6,88.6l-2.3-0.2
		 M200.3,88.4l-2.1,0 M198.2,88.4l-2.1,0.2 M196.1,88.6l-3.8,1.3 M192.3,89.9l-1.7,0.7 M190.6,90.6l-1.8,0.8 M188.9,91.4l-1.6,0.2
		 M187.3,91.5l-0.9-0.3 M186.4,91.2l-1,0 M185.3,91.2l-1.8,0.1 M183.6,91.3l-1.7,0.5 M180.4,91.5l1.4,0.3 M179.1,90.8l1.4,0.6
		 M176.2,89.8l2.8,1 M174.4,89.4l1.9,0.4 M172.7,89.2l1.7,0.2 M171.2,88.9l1.5,0.3 M169.8,88.9l1.4,0 M166.6,88.9l3.2,0 M165.4,89.1
		l1.3-0.2 M163.8,89.7l1.6-0.6 M160.6,91.3l3.2-1.6 M159.5,92.2l1.1-0.9 M158.9,92.8l0.6-0.6 M158.6,93.4l0.2-0.6 M158.6,93.4
		l-2.7,0.8 M223.4,94.5l0,1.1 M223.4,95.6l0.3,0.8 M221,96.4l2.7,0.1 M219.4,96.4l1.5,0 M219,96.6l0.5-0.2 M82.3,427.8l-0.3,1.1
		 M79.5,424.4l2.4,4.4 M77.3,423.1l2.2,1.3 M75.1,422.4l2.2,0.7 M72.5,421.8l2.6,0.5 M70.5,421.8l2,0 M68.1,422.1l2.4-0.3
		 M66.2,422.9l1.9-0.8 M60.5,431.1l5.7-8.2 M58,435.3l2.5-4.2 M57.4,438.2l0.6-2.9 M57.5,439.9l-0.1-1.7 M57.1,441.6l-0.7,0.5
		 M56.4,442.1l-2.7-1.2 M53.8,441l-1.7-2.2 M52.1,438.8l-0.3-3.2 M51.7,435.5l0.4-5.2 M52.1,430.3l0.4-5.2 M52.5,425.2l0.2-4.7
		 M52.7,420.5l-0.1-2.1 M52.5,418.4l-0.3-2.1 M52.2,416.3l-0.4-2 M51.8,414.3l-0.5-1.4 M51.4,412.9l-0.5-1.4 M50.9,411.5l-0.2-2.5
		 M50.7,409l-0.1-8 M50.6,400.9l-0.3-8 M50.3,392.9l-0.7-7.5 M49.6,385.5l-0.3-4.6 M49.3,380.8l0.1-4.7 M49.4,376.1l0.2-5.1
		 M49.6,371.1l0.3-7.1 M50.7,350.8l0.1-0.3 M50.7,350.4l0.1-0.3 M50.8,350.1l0.1-0.5 M50.9,349.5l0.1-1.7 M51.1,344.3l0-2.2
		 M51.2,342.1l0.1-2.1 M51.2,340l0.3-2.2 M51.6,337.8l1.2-2.9 M52.7,334.8l1-3 M53.7,331.9l-0.3-3.1 M53.4,328.7l-0.1-1.6
		 M53.3,327.1l0.4-1.8 M53.8,325.3l0.7-1.8 M54.4,323.5l0.5-2.3 M54.9,321.2l-0.5-2.1 M54.5,319.1l-1.4-1.9 M53.1,317.2l-0.6-0.9
		 M52.5,316.2l-0.4-1.1 M52.1,315.1l-0.3-1.4 M51.8,313.7l0.4-3.5 M52.1,310.2l1.5-3.1 M53.7,307l2.3-3.3 M56,303.7l4.2-8.2
		 M60.2,295.5l2.7-8.6 M62.9,286.9l2.1-8.3 M65,278.6l1.1-4.3 M66.1,274.3l1.1-4.3 M67.2,270.1l1.1-4.1 M68.3,265.9l1-3.1
		 M69.2,262.9l1-3 M70.3,259.8l1-3.2 M71.2,256.6l1.2-4.7 M72.4,251.9l1.1-4.7 M73.5,247.1l1.3-4.8 M74.7,242.3l1.7-5.7 M76.4,236.7
		l1.8-5.6 M78.2,231.1l1.9-5.6 M80.1,225.5l2-5.8 M82.1,219.6l2.1-5.8 M84.2,213.8l2.4-5.8 M86.6,208l3.1-6.3 M89.7,201.7l3.3-6.2
		 M92.9,195.5l3-5.7 M95.9,189.7l0.3-0.5"/>
	<path class="st7" d="M96.3,189.3l0.4-0.4 M96.6,188.8l0.4-0.5 M97,188.3l0.5-0.8 M97.6,187.5l0.5-0.7 M98.1,186.8l0.5-0.7
		 M98.6,186.1l1.5-1.2 M100,184.9l1.4-1.1 M101.4,183.8l1.5-1 M102.9,182.8l2.4-1.4 M105.3,181.5l2.4-1.3 M107.7,180.2l2.5-1.3
		 M110.2,178.9l2.9-1.7 M113.1,177.2l3-1.6 M116.1,175.6l3.3-1.3 M119.3,174.4l6-1.7 M125.3,172.6l6.1-1.5 M131.4,171.1l6.1-1.4
		 M137.5,169.7l4.7-1.9 M156.9,453.3l0.1,0.1 M157,454.3l-0.1-1 M157,456.2l0-2 M155.8,460.1l1.3-3.8 M155,462.9l0.8-2.8 M155.1,464
		l-0.1-1.2 M141.9,464.6l9.2-0.1 M132.9,463.9l9,0.7 M125.2,461.8l7.6,2.1 M123.4,461.3l1.8,0.5 M115.3,458.4l5.7,2 M107,455.3
		l8.3,3.2 M98.7,451.8l8.3,3.5 M96,450l2.6,1.7 M94.2,449.7L96,450 M91.3,446.4l2.9,3.4 M94.5,444l-3.2,2.4 M96.6,444.6l-2.1-0.6
		 M108.1,448.6l-11.5-4.1 M111.3,448.9l-3.2-0.3 M113.9,448.7l-2.6,0.2 M114.2,444l-0.3,4.8 M112.2,441.6l2.1,2.4 M101.5,435.2
		l10.7,6.4 M95.8,433.3l5.7,1.9 M92.8,432.5l3.1,0.8 M89.8,430.3l3,2.2 M89.8,430.3l0.8-0.7 M90.6,429.6l0.3-1.1 M90.9,428.6l0-1.1
		 M91,427.5l-0.1-0.8 M90.9,426.8l0-0.7 M90.9,426l0-0.7 M90.9,425.3l0.8-3.9 M91.8,421.4l1.2-4.4 M92.9,417l1.5-4.3 M94.5,412.7
		l1.9-4 M96.4,408.6l1.3-3.7 M97.7,404.9l0.9-3.9 M98.6,401l0.8-4 M99.4,397l0.4-1.6 M99.8,395.5l0.1-0.7 M99.9,394.8l0-0.7
		 M99.9,394.1l0-1 M100,393.2l0.2-2.6 M100.2,390.5l0.2-2.6 M100.4,387.9l0-2.6 M100.4,385.2l-0.4-3.4 M100,381.8l-0.4-4
		 M99.6,377.8l0.1-4 M99.7,373.8l0.9-4 M100.6,369.8l0.7-2.7 M101.3,367.1l0.6-2.8 M101.9,364.3l0.6-2.8 M102.5,361.6l1-3.8
		 M103.5,357.8l1.8-5.1 M105.3,352.7l2.1-5 M107.3,347.7l2.4-4.9 M109.7,342.9l1.7-3.2 M111.4,339.6l1.4-3.1 M112.8,336.6l0.9-3.3
		 M113.6,333.3l0-4.1 M113.7,329.1l-0.1-5.5 M113.6,323.6l0-5.5 M113.6,318.1l0-5.5 M113.6,312.6l0-2 M113.6,310.7l0-0.5
		 M113.6,310.1l-0.1-0.5 M113.6,309.6l-0.4-0.9 M113.1,308.7l-1.6-3.9 M111.6,304.8l-0.8-4 M110.8,300.8l-0.4-4.1 M110.4,296.7
		l-0.1-2.2 M110.3,294.5l0-0.8 M110.3,293.8l-0.1-0.8 M110.2,292.9l-0.1-0.9 M110.2,292l-2.2,0.5 M107.9,292.6l-1.7,1 M106.2,293.5
		l-1.1,1.5 M105.1,295.1l-0.5,2.3 M104.7,297.4l-0.3,2.8 M104.4,300.1l-0.3,2.8 M104.1,302.9l-0.4,2.7 M103.8,305.6l-0.7,3.8
		 M103,309.4l-1.1,3.9 M101.9,313.3l-1.6,3.7 M100.4,317l-1.6,2.7 M98.8,319.7l-0.3,0.8 M98.5,320.5l-0.1,0.8 M98.4,321.3l0.1,0.7
		 M98.5,322l1.5,2.5 M99.9,324.5l0.7,3.4 M100.6,327.9l-0.3,3.5 M100.3,331.4l-0.9,3.4 M97.3,341.2l-0.8,3.2 M96.5,344.4l-0.4,3.1
		 M96.1,347.6l-0.8,2.9 M95.3,350.5l-1.1,2.7 M94.2,353.2l-1.1,2.7 M93.1,355.9l-1,1.9 M92.1,357.9l-1.1,1.9 M91,359.7l-0.7,2.1
		 M90.4,361.8l0.2,3.9 M90.5,365.7l0.1,5.9 M90.7,371.6l-0.5,5.9 M90.2,377.5l-1.3,5.8 M88.8,383.3l-1.1,3.5 M87.7,386.8l-0.8,3.2
		 M86.9,389.9l-0.8,3.2 M86.1,393.1l-0.8,3.1 M85.3,396.2l-0.8,2.9 M84.5,399.2l-0.8,3 M83.7,402.1l-0.5,3 M83.2,405.1l-0.3,4.8
		 M82.9,409.9l-0.1,5.5 M82.8,415.3l0,5.5 M82.7,420.8l-0.1,4.8 M82.6,425.7l-0.1,1 M82.5,426.7l-0.2,1.1 M233.8,820.7l-0.1-1.1
		 M233.7,819.6l0.7-0.1 M234.4,819.5l1.5,0 M235.9,819.5l2.4-0.3 M238.4,819.2l5.4-0.4 M243.8,818.8l6.4,3.8 M250.2,822.6l5.8,2.8
		 M256,825.4l3.4,1.3 M259.4,826.8l3.6,0.3 M262.9,827.1l5.6-0.4 M268.6,826.6l5.4-1 M274,825.7l1.8-2 M275.8,823.7l0.9-1.4
		 M78.5,499.6l-2.4-3.1 M76.1,496.5l-2.4-3.8 M73.7,492.7l-3.3-6 M70.3,486.6l-3.2-6.1 M67.1,480.5l-2.7-5.1 M64.5,475.4l-0.6-1.3
		 M63.8,474.1l-0.5-1.3 M63.3,472.8l-0.4-2.2 M62.9,470.7l-0.8-5.7 M62.1,465l-0.8-5.7 M61.3,459.2l-0.9-5.5 M60.4,453.7l-0.9-4.9
		 M59.4,448.8l-1-5 M58.4,443.9l-0.9-4 M82,428.9l0.9,0.7 M82.9,429.5l1.8,0.3 M84.7,429.8l1.9,0.3 M86.6,430.1l1.9,0.3 M88.5,430.4
		l1.3-0.1 M91.3,446.4l-1.4,2.8 M89.8,449.2l-1.1,5.1 M88.8,454.2l-0.3,3.5 M88.5,457.7l1.4,4.4 M89.9,462.1l3.8,8.3 M93.6,470.5
		l2.7,4.7 M96.3,475.2l5.1,8.9 M101.4,484.1l4.6,6.4 M106,490.5l1.7,3.6 M107.7,494.1l0.7,3.7 M108.4,497.9l-0.3,2.7 M108.1,500.6
		l-2.6-0.3 M105.6,500.4l-4.3-3.3 M98.3,506.7l-0.4-1.4 M98.4,507.4l-0.2-0.7 M98.7,507.9l-0.3-0.5 M99.2,509l-0.5-1.1 M99.7,509.9
		l-0.5-0.8 M99.4,511.8l0.3-2 M98.5,512.8l0.9-1 M97.1,512.8h1.3 M94.8,511.5l2.3,1.3 M94.8,511.5l-2-1.9 M92.8,509.6l-3.6-5
		 M87.5,502.4l1.6,2.2 M223.7,96.5l0.3,0.8 M263.6,490.9l0.5,2.1 M264.1,492.9l0.7,2.5 M263.6,490.4l0,0.5 M266.9,503.4l0.7,2.8
		 M264.8,495.4l0.7,2.5"/>
	<path class="st7" d="M265.5,497.9l0.7,2.7 M266.2,500.6l0.7,2.8 M266.6,534.4l-0.1,0.3 M266.6,534.6l-0.6,2.7 M265.3,540.9
		l-0.6,3.5 M266,537.4l-0.7,3.5 M266.7,534.1l-0.1,0.3 M90.5,667.8l2.3-3.8 M92,675l-1.9-3.6 M149.3,703.6l-0.4,3.6 M92.8,663.9
		l1.6-3.3 M94.5,678.4L92,675 M90.1,671.4l0.4-3.7 M93.9,684.7l0.9-3.2 M94.8,681.5l-0.3-3.1 M94.4,660.6l0.7-3.5 M95.1,657.2
		l-0.1-3.2 M95,653.9l0.2-1.7 M95.3,652.2l0.8-1.5 M96,650.7l1.1-1.3 M97.2,649.4l1-1.2 M98.2,648.1l0.7-1.3 M98.9,646.8l0.1-2
		 M99.1,644.9l-0.3-4.2 M98.8,640.7l-0.5-4.2 M98.3,636.5l-0.9-5.2 M94,613.9l-1.4-8.4 M92.6,605.6l-0.8-7.2 M91.8,598.3l-0.6-7.3
		 M91.1,591.1l-0.8-7.3 M88.4,569.2l-0.9-9 M87.5,560.3l-1.1-14.8 M86.4,545.4l-0.5-14.9 M85.9,530.6l0.4-12.3 M86.2,518.3l0.1-2.9
		 M86.4,515.4l0.1-2.9 M86.4,512.6l0-2.4 M86.4,510.2l-0.1-0.6 M157,453.4l0,0.8 M93.6,470.5l10.4-0.9 M120.6,461.7l0.4-1.2
		 M119.7,463l0.9-1.4 M116.8,465.5l2.9-2.5 M113.8,467.4l3-1.8 M110.9,468.4l2.9-1 M104,469.6l6.9-1.2 M70,848.1l2.5,0.1
		 M72.5,848.2l2,0.8 M74.5,849l3.5,1.2 M77.9,850.3l9.5,1.1 M87.4,851.3l8.8,1 M96.2,852.4l8.7-0.1 M105,852.3l15.8-2.8
		 M120.7,849.5l7.7-2.1 M128.4,847.4l6.4-4.1 M216.7,733l3.5,31.8 M96.3,475.2l10.3-1.5 M106.6,473.7l7.2-1.7 M113.8,472.1l1.8-0.4
		 M115.5,471.6l1.4-0.8 M116.9,470.8l3.3-2.7 M120.2,468.1l2.6-3.2 M122.8,464.9l1.3-1.2 M124.1,463.7l1.1-1.8 M215.6,462.5l1.4,0.8
		 M217.1,463.3l0.7,2.5 M217.8,465.8l2.4,3.6 M220.1,469.4l4.9,7.2 M225,476.6l5.9,6.3 M230.9,482.9l7.7,6.4 M238.6,489.3l5,4.6
		 M243.6,494l2.8,2 M246.4,496l3.6,1.3 M250.1,497.3l3.5,0.7 M253.5,498l3.5-0.6 M257.1,497.3l7.8-1.9 M275.4,736.1l-0.3,23.5
		 M275.2,820.5l0.3-2.1 M274.4,821.7l0.8-1.2 M273.3,822.6l1.1-0.9 M272,823l1.4-0.3 M266.5,823.8l5.5-0.9 M260.5,823.5l5.9,0.3
		 M255,821.4l5.6,2.1 M252.3,819.7l2.7,1.7 M250,817.9l2.3,1.8 M244.1,815.4l5.9,2.5 M241,814.9l3.1,0.6 M237.9,815.1l3.1-0.2
		 M230.6,816.8l7.3-1.6 M99.1,504.7l1.8,1.9 M100.9,506.6l1.2,1 M102,507.6h1.4 M103.4,507.6l0.9-2.4 M104.3,505.2l-0.4-1.7
		 M99.1,504.7l-0.7-1 M97.9,505.4l-2.7-4.7 M95.1,500.7l3.3,3 M103.9,503.5l-0.2-1.8 M103.7,501.7l-1.3-2.4 M102.4,499.3l-2.1-2.6
		 M100.3,496.7l-2.6-3 M88.2,507.3l-1.3,0.3 M88.8,504.7l0.3,1.7 M85,507l-0.9-0.8 M87.5,502.4l1.2,2.3 M88.2,507.3l0.8-0.9
		 M86.9,507.6l-0.6-0.2 M79.7,501.2l-1.2-1.5 M83.3,504.9l-1.5-1.8 M81.8,503.1l-2.1-2 M86.3,507.4L85,507 M86.3,509.6v-2.2
		 M84.1,506.2l-0.8-1.3 M139.4,776.7l-2,16.3 M137.4,793l-1.1,9.7 M76.5,776.3l4.1-22.2 M62.8,856.2l-4.9,3.6 M128,873.3l-12.7,4.1
		 M313,312.4l2.1,13.9 M186.2,40.9h-7.5 M267.6,527.8l-0.9,6.3 M232.1,444.1l-11.2,1.5 M313.3,390.6l2.9-11.8 M263.3,300.8l0.8-0.4
		 M263.2,301.2l-0.3,1.7 M258.6,347l-1.6-11.6 M191.3,95l0-1.1 M218.6,100.8l1.5,0 M216.5,128.8l-1,3 M160.5,147.5l-4.2-13.8
		 M157.5,160.6l-0.8,9.5 M149.4,95.7l-0.1,2.4 M57.5,439.9l-0.3,1.7 M49.9,364l0.8-13.2 M51,347.8l0.1-3.5 M155.1,464l-4.1,0.6
		 M123.4,461.3l-2.4-0.9 M99.4,334.8l-2.1,6.4 M223.8,872.1l-1.1-5.3 M101.2,497l-3.5-3.3 M97.4,631.3L94,613.9 M90.4,583.8l-2-14.6
		 M233.8,820.7l-2.4,10.6 M99.7,509.9l-0.2,0 M92.2,486.6l-2.7-5.2 M89.5,481.4l-3.6-4.7 M85.8,476.7l-2.8-5.7 M83.1,471l-1.9-6.5
		 M87.5,502.4l-2.5-2.3 M85,500.1l-1.6-3.1 M83.4,497l-2-2.9 M81.4,494l-2-2.5 M79.4,491.6l-2.9-5.1 M76.5,486.5l-1.7-2.8
		 M95.1,500.7l-4.4-5.1 M90.7,495.5l-2.8-4.6 M87.9,490.9l-5.3-7 M82.6,483.9l-4.2-7 M78.5,476.9l-2-4.3 M97.7,493.7l-5.5-7.1"/>
</g>
</svg>
