<?xml version="1.0" encoding="utf-8"?>
<!-- Generator: Adobe Illustrator 20.0.0, SVG Export Plug-In . SVG Version: 6.00 Build 0)  -->
<svg version="1.1" id="Layer_1" xmlns="http://www.w3.org/2000/svg" xmlns:xlink="http://www.w3.org/1999/xlink" x="0px" y="0px"
	 viewBox="0 0 280.5 870" style="enable-background:new 0 0 280.5 870;" xml:space="preserve">
<style type="text/css">
	.st0{fill:#A8A8A8;}
	.st1{fill:#D3D3D3;}
	.st2{fill:#98754D;}
	.st3{fill:#FCDEB5;}
	.st4{fill:#7CD0AB;}
	.st5{fill:#FFFFFF;}
	.st6{fill:#365771;}
	.st7{fill:#FF7E76;}
	.st8{fill:none;stroke:#000000;stroke-miterlimit:10;}
</style>
<g>
	<path class="st0" d="M148.1,37.7l-4.8,10.3l-7.5-7.5h-13l-17.1,5.5l-5.5,7.5l-2.4,1.5l-6.5,4L77.6,61l-10.3,6.2l7.1-7.1l21.9-11
		l5.3-5.3l18.3-7.3l16.9-0.2L148.1,37.7z M148.1,37.7"/>
	<path class="st1" d="M146.8,25.3l1.4,12.3l-11.4-1.4l-16.9,0.2l-18.3,7.3l-5.3,5.3L74.4,60l-7.1,7.1l-2.1,10.3L54.9,89l1.9,6.7
		l0.4,1.5l-10.6-0.7L38.5,87l-4.1-26.7L44,41.8l15.8-19.9l35.6-13l26.7,4.1L146.8,25.3z M57.2,42.1L44.5,49L38,57.4l3.6,1.5L52,53.6
		l7.4-2.6l-0.3-5.8L57.2,42.1z M72.6,19.5l-15.1,8.2L50,37.3l2.6,1l14-8l7.9-5.7L72.6,19.5z M72.8,34.7l-5.8,5.7l0.7,4.6l9.1-1.4
		l14-4.8l9.6-3.8L99.7,32l-16.4-0.3L72.8,34.7z M84.2,17.8l-4.6,2.9l-0.3,3.1l24.8,0.2l11.6-0.2l-3.3-3.4l-17.1-3.1L84.2,17.8z
		 M133.9,23.3l-9.8,0.9l-9.2,5.1l4.5,2.2h19l6,1.2l1.5,0.9l-0.9-5.7l-5.8-4.1L133.9,23.3z M98.8,10.4l-2.9,0.9l3.9,2.6l12.7,2.1
		l8.9,0.7l-5.5-2.9l-11.5-2.7L98.8,10.4z M98.8,10.4"/>
	<path d="M46.7,96.6l10.6,0.7l-0.4-1.5L74.8,99l6.2-0.3l14.4-0.7l-2.6-24.8l-0.4-3.6l-1.1-10.6l6.5-4l1.3,11.5l0.3,2.8l3.2,26.7
		l3.4,8.2l8.6,8.6l13.4,14.4l10.6,12l2.4-7.9l2.7-3.8l2.4,13.4l-9.2,5.8l-15.8-15.8L106.3,114l-13.7-11.6l-8.6,0.6l-19.5,1.4
		l-5.8-2.6L46.7,96.6z M46.7,96.6"/>
	<path class="st2" d="M54.9,89l10.3-11.6l2.1-10.3L77.6,61l13.7-2.1l1.1,10.6L85.1,74l-4.8,1.4l-5.1,6.5l2.7,8.2l3.1,3.4v5.2
		L74.8,99l-17.9-3.3L54.9,89z M54.9,89"/>
	<path class="st3" d="M100.2,53.4l5.5-7.5l17.1-5.5h13l7.5,7.5l2.4,6.3l-2.4-0.2l-4.8-2.1l-8.9-1.4l-11,2.1l-8.9,6.9l-10.7,6.8
		l-1.3-11.5L100.2,53.4z M100.2,53.4"/>
	<path class="st2" d="M64.5,104.5l19.5-1.4l5.5,4.9v1.5l-1.5,1.4l-1.5,2.9l1.5,1.7h-2.2l-0.9,2.1l1.4,2.2l-2.2-0.2l-2.7,1.5l-1,10.1
		l-3.4-0.9l-6.3-7.5l-7-11.5l-4.8-9.4L64.5,104.5z M64.5,104.5"/>
	<path class="st3" d="M92.6,102.4l13.7,11.6l14.7,16.8l-10.4-5.5l-16.4-5l-7.9-0.6l-1.4-2.2l0.9-2.1H88l-1.5-1.7l1.5-2.9l1.5-1.4
		v-1.5l-5.5-4.9L92.6,102.4z M92.6,102.4"/>
	<path class="st4" d="M121.1,130.8l15.8,15.8l-1.4,5.5l10.3,7.2l4.1,6.2l12,7.9l8.9,4.8l-7.2,3.4l-12,10.3l-10.3,15.8l1,9.6l5.8,4.5
		l-18.5-5.5L117,210l-26.8-4.9l-9.8-5L78,261.2l1.5,35.4l-42.1,9.5l-0.9-39.7l-0.9-35.4l0.7-11.4l3.2-19.6l7.3-26.9l4.8-13l8-8
		L73,141.8l4.8-5l2.5-5.6l1-10.1l2.7-1.5l2.2,0.2l7.9,0.6l16.4,5L121.1,130.8z M121.1,130.8"/>
	<path class="st3" d="M143.7,127.4l-2.7,3.8l-2.4,7.9l-10.6-12l-13.4-14.4l-8.6-8.6l-3.4-8.2l-3.2-26.7l13.8-6.5l9.6-0.3l3.4,2.1
		l6.2,2.7l7.5-2.1l4.5-4.5l5.8,3.1l7.5,5.1l1,5.5l-2.1,4.1l-1.7,2.1l5.1,3.1l-0.7,4.1l-3.8,2.7l5.8,3.1h2.4l-0.4,1.8l-0.4,5.5
		l2.2,9.5l-0.7,8.6l-6.2,3.4l-11,1.4L143.7,127.4z M143.7,127.4"/>
	<path class="st3" d="M95.4,97.9L81,98.7v-5.2l-3.1-3.4l-2.7-8.2l5.1-6.5l4.8-1.4l4.8,1l2.9-1.9L95.4,97.9z M95.4,97.9"/>
	<path d="M99.1,66.3l10.7-6.8l8.9-6.9l11-2.1l8.9,1.4l4.8,2.1l2.4,0.2l2.4,0.2l2.4,4.1l-0.3,5.1l-5.8-3.1l-4.5,4.5l-7.5,2.1
		l-6.2-2.7l-3.4-2.1l-9.6,0.3l-13.8,6.5L99.1,66.3z M99.1,66.3"/>
	<path d="M159.4,87.7l0.7-4.1l2.1-1l1.7-6.2l3.8-2.1l1.7,0.7l-0.3,8.4l3.3,8.4l5,5.8l-2.1,1l-7.5,1l-3.8-6.2h-2.4l-5.8-3.1
		L159.4,87.7z M159.4,87.7"/>
	<path class="st5" d="M182.4,92.8l-3.1,3.8l-2.1,1l-5-5.8l-3.3-8.4l0.3-8.4l1.7,0.7l5.5-1l1-6.5L181,64l2.7-0.3l-3.4,7.9l0.3,1.7
		l2.1,11.6l7.3,12h-2.5L182.4,92.8z M182.4,92.8"/>
	<path class="st5" d="M222.1,49l8.9-2.4l4.8-1.4l4.5,1.4l5.1,7.9l3.4,10.6v8.2l-0.7,5.8l-7.5,2.1l-8.2,2.7l-2.4-3.8l-9.6-8.9
		l-0.7-8.2l1-4.3l0.7-3.3L222.1,49z M222.1,49"/>
	<path d="M85.1,74l7.3-4.5l0.4,3.6L89.9,75L85.1,74z M85.1,74"/>
	<path class="st6" d="M39,321.7l-1.6-15.5l42.1-9.5l1.7,41.7l7.5,49.3l-16.2,3.4l-16.2,9.2l-4.4,2.5l-9.4-11.2l-0.2-14.8l-4.6-14.4
		L39,321.7z M39,321.7"/>
	<path class="st6" d="M72.5,391.2l16.2-3.4l21.5-4.6l17.1-1.2l23.4-1.7l-2.8,54.9l0.9,31.1l5.7,32.4l-2.9,29.3l-13.2,46.6l-4.2,0.9
		l-14.4,1.4l-27.1-0.3l-21.5,0.8v-2.7v-23.8l2.1-20.1L84.4,512l9.6-20.1l3.7-26l-8.2-21.9l-35.8-33.5l2.7-10L72.5,391.2z
		 M72.5,391.2"/>
	<path class="st7" d="M127.3,382l-17.1,1.2l-21.5,4.6l-7.5-49.3l-1.7-41.7L78,261.2l2.3-61.2l9.8,5L117,210l2.2,7l-0.8,76l-0.1,8.5
		L127.3,382z M127.3,382"/>
	<path class="st6" d="M166.4,339.6l2.7,37.2l-10.5,3l-7.9,0.6l-23.4,1.7l-9.1-80.5l0.1-8.5l27.4,3.7L158,302l0.6,7.9l2.4,9.1
		l1.2,4.8L166.4,339.6z M166.4,339.6"/>
	<path d="M158.6,379.8l10.5-3l-2.1,18.7v35.2l-10,23.7l-0.9,27.9l-1.6,16.4l-5.7-32.4l-0.9-31.1l2.8-54.9L158.6,379.8z M158.6,379.8
		"/>
	<path class="st3" d="M158.6,309.9L158,302l5.2-6.4l1.6,0.2l4.3-0.7l-2.2,8.8l-1.1,14.8L161,319L158.6,309.9z M158.6,309.9"/>
	<path class="st4" d="M155.2,246.6l0.5,26.9l1.7,21.2l0.6,7.2l-12.3-5.3l-27.4-3.7l0.8-76l-2.2-7l12.7,6.2l18.5,5.5l3.2,0.7
		L155.2,246.6z M155.2,246.6"/>
	<path d="M157.4,294.7l5.8,0.8L158,302L157.4,294.7z M157.4,294.7"/>
	<path d="M169,295.1l7.7-3.1l8.9-4.1l11,0.9l4.9,2.4l-7,4.1l1.2,6.2l11.6,0.5l1.7-7l9.4,4.8l1.3,2.9l-7.7,1.2l-0.5,6.5l0.2,5.5
		l-7.4,1.9l-3.4,1.4l-0.9,4.1l-5.5-0.9l-0.2,5.7l2.2,2.1l-1.2,4.5l-7.5-0.7l-10.3-1.4l-8.1-4.6l-7.4-4L161,319l4.7-0.2l1.1-14.8
		L169,295.1z M169,295.1"/>
	<path class="st3" d="M221.1,305.4l-1,8.4l0.9,6.7l-5,2.4v6.7l-6.7,1l0.2,5.5l-8.4,2.4l-5.5-3.9l1.2-4.5l-2.2-2.1l0.2-5.7l5.5,0.9
		l0.9-4.1l3.4-1.4l7.4-1.9l-0.2-5.5l0.5-6.5l7.7-1.2L221.1,305.4z M221.1,305.4"/>
	<path class="st3" d="M194.5,295.3l7-4.1l7.6,3.7l-1.7,7l-11.6-0.5L194.5,295.3z M194.5,295.3"/>
	<path d="M53.8,453.5l-4.1-28.3l4-14.8l35.8,33.5l8.2,21.9l-3.7,26L84.4,512l-11.2,18.7l1.6-15.5l-1.7-41.4l-10.3-6.9L53.8,453.5z
		 M53.8,453.5"/>
	<path d="M73.1,473.7l1.7,41.4l-1.6,15.5l-2.1,20.1v23.8l-6.5-2.9l-1.1-0.5l3.3-62.6L73.1,473.7z M73.1,473.7"/>
	<path class="st3" d="M105.9,744.9l0.9,31.1l-10.5,7.3l-18.7,6.4l-5.9-1.4l-5-44.3l-7.8-38.4l-2.7-26l5.9-32.4l8.2-33.3l0.9-36.5
		l21.5-0.8l27.1,0.3l14.4-1.4l4.2-0.9l-6.4,27.9l-2.3,24.2l-14.6,32l-2.7,20.1L105.9,744.9z M105.9,744.9"/>
	<path class="st3" d="M71.2,577.3l-0.9,36.5L62,647.2l-5.9,32.4l2.7,26l7.8,38.4l5,44.3l-0.2,3.6l-13.9,3.4l-6.2-2.7l2.2-16.4
		l-1.4-45.4l-3.9-40.6l-3.4-35.2l4.6-20.3l8.5-23.5l5-18l1.7-21.4l6.5,2.9V577.3z M71.2,577.3"/>
	<path class="st1" d="M71.6,788.3l5.9,1.4l18.7-6.4l10.5-7.3l3.3,10.5l4.8,6.2l-2.4,5.8l-9.2,8.2l-0.3,6.5l0.3,3.8l-12,11L80,827.2
		l-7.5-11.6h-2.9l1.9-23.7L71.6,788.3z M71.6,788.3"/>
	<path d="M131.7,855.3l-29.1-3.1l-8.7,3.1H74l-6.4-10.3l-2.1-28.4l1.1-1h2.8h2.9l7.5,11.6l11.3,0.7l12-11l-0.3-3.8l0.3-6.5l9.2-8.2
		l2.4-5.8l2.7,1l44.2,27.1l24.3-0.3l5.8,3.4l-1,10.3l-23.3,16.8l-7.7,1.6L131.7,855.3z M131.7,855.3"/>
	<path d="M65.6,816.6l2.1,28.4l6.4,10.3H51.3l-4.5-8.6l-1.1-20.6l0.5-12.4l1.8,1.1l4.1,3.2l7.8-1.4l3.2-2.7l3.8,1.6L65.6,816.6z
		 M65.6,816.6"/>
	<path d="M163.5,181.5l7.2-3.4l15.8,5.1l10.3,3.4l7.5-13.4l6.2-18.2l-0.3-16.1l0.3-22.3l11.6-11.1l10.5,0.5l5.3,1.9v6l2.4,32.9
		l3.4,24l-3.8,31.5l-0.7,23.3l-12,8.6l-28.1-1l-30.8-7.5l-17-3.5l-3.2-0.7l-5.8-4.5l-1-9.6l10.3-15.8L163.5,181.5z M163.5,181.5"/>
	<path d="M235.5,88.7l2.4,13.4l-11.9,0.7l-3.9,3l-11.6,11.1l-7.2-5.8l-12.7-13l-0.6-1l-7.3-12l-2.1-11.6l6-1.9l1-6.7l6.2-0.5
		l1.7-0.2l2.1-3.6l8.1,1l5.5-4.1l9.5,1.4l-1,4.3l0.7,8.2l9.6,8.9l2.4,3.8L235.5,88.7z M235.5,88.7"/>
	<path class="st3" d="M186.7,71.4l-6,1.9l-0.3-1.7l3.4-7.9l1-2.4l5.5-1.4l9.2-4.5l2.7-0.3l8.2-4.8l4.8-0.7l3.4-1.7l3.4,1l-0.7,6.5
		l-0.7,3.3l-9.5-1.4l-5.5,4.1l-8.1-1l-2.1,3.6l-7.9,0.7L186.7,71.4z M186.7,71.4"/>
	<path class="st3" d="M226,102.7l11.9-0.7v6l-5.3-1.9l-10.5-0.5L226,102.7z M226,102.7"/>
	<path class="st1" d="M47.9,814.9l3.2-19.4l0.3-2.9l6.2,2.7l13.9-3.4l-1.9,23.7h-2.8l-3.8-1.6l-3.2,2.7l-7.8,1.4L47.9,814.9z
		 M47.9,814.9"/>
	<path d="M44.5,49l12.7-6.9l1.9,3.1l0.3,5.8L52,53.6l-10.4,5.3L38,57.4L44.5,49z M44.5,49"/>
	<path d="M57.5,27.7l15.1-8.2l1.9,5.1l-7.9,5.7l-14,8l-2.6-1L57.5,27.7z M57.5,27.7"/>
	<path d="M66.9,40.4l5.8-5.7l10.4-3.1L99.7,32l0.7,3.1l-9.6,3.8l-14,4.8L67.6,45L66.9,40.4z M66.9,40.4"/>
	<path d="M79.6,20.7l4.6-2.9l11.1-0.5l17.1,3.1l3.3,3.4L104.1,24l-24.8-0.2L79.6,20.7z M79.6,20.7"/>
	<path d="M124.1,24.1l9.8-0.9l5.3,0.5l5.8,4.1l0.9,5.7l-1.5-0.9l-6-1.2h-19l-4.5-2.2L124.1,24.1z M124.1,24.1"/>
	<path d="M95.9,11.3l2.9-0.9l5.7,0.5l11.5,2.7l5.5,2.9l-8.9-0.7l-12.7-2.1L95.9,11.3z M95.9,11.3"/>
	<path class="st8" d="M143.3,47.9l4.8-10.3 M148.1,37.7l-1.4-12.3 M146.8,25.3L122.1,13 M122.1,13L95.4,8.9 M95.4,8.9l-35.6,13
		 M59.7,21.9L44,41.8 M44,41.8l-9.6,18.5 M34.4,60.3L38.5,87 M38.5,87l8.2,9.6 M46.7,96.6l10.6,0.7 M57.3,97.3l-0.4-1.5 M54.9,89
		l10.3-11.6 M65.2,77.4l2.1-10.3 M67.3,67.1L77.6,61 M77.6,61l13.7-2.1 M91.3,58.9l6.5-4 M100.2,53.4l5.5-7.5 M105.6,45.9l17.1-5.5
		 M122.8,40.4h13 M135.8,40.4l7.5,7.5 M46.7,96.6l12,5.3 M64.5,104.5l19.5-1.4 M92.6,102.4l13.7,11.6 M106.3,114l14.7,16.8
		 M121.1,130.8l15.8,15.8 M136.8,146.6l9.2-5.8 M146.1,140.8l-2.4-13.4 M143.7,127.4l-2.7,3.8 M140.9,131.2l-2.4,7.9 M138.5,139.1
		l-10.6-12 M127.9,127.1l-13.4-14.4 M114.6,112.7l-8.6-8.6 M106,104.1l-3.4-8.2 M102.6,95.9l-3.2-26.7 M91.3,58.9l1.1,10.6
		 M95.4,97.9L81,98.7 M74.8,99l-17.9-3.3 M99.1,66.3l10.7-6.8 M109.8,59.6l8.9-6.9 M118.7,52.7l11-2.1 M129.6,50.7l8.9,1.4
		 M138.5,52l4.8,2.1 M143.3,54.1l2.4,0.2 M148.1,54.4l2.4,4.1 M150.5,58.6l-0.3,5.1 M150.2,63.7l-5.8-3.1 M144.4,60.6l-4.5,4.5
		 M139.9,65.1l-7.5,2.1 M132.4,67.1l-6.2-2.7 M126.2,64.4l-3.4-2.1 M122.8,62.3l-9.6,0.3 M113.2,62.7l-13.8,6.5 M150.2,63.7l7.5,5.1
		 M157.7,68.8l1,5.5 M158.7,74.3l-2.1,4.1 M156.7,78.4l-1.7,2.1 M155,80.5l5.1,3.1 M160.1,83.6l-0.7,4.1 M159.4,87.7l-3.8,2.7
		 M155.7,90.4l5.8,3.1 M161.5,93.5h2.4 M163.9,93.5l3.8,6.2 M167.7,99.7l7.5-1 M175.2,98.6l2.1-1 M179.3,96.6l3.1-3.8 M182.4,92.8
		l5.1,4.1 M187.5,96.9h2.5 M160.1,83.6l2.1-1 M162.2,82.5l1.7-6.2 M163.9,76.4l3.8-2.1 M167.7,74.3l1.7,0.7 M171.1,75.7l5.5-1
		 M176.6,74.7l1-6.5 M177.6,68.1L181,64 M181,64l2.7-0.3 M164.6,118.8l-6.2,3.4 M158.4,122.3l-11,1.4 M147.4,123.6l-3.8,3.8
		 M222.1,49l8.9-2.4 M231,46.6l4.8-1.4 M235.8,45.2l4.5,1.4 M240.3,46.6l5.1,7.9 M245.4,54.4l3.4,10.6 M248.8,65.1v8.2 M248.8,73.3
		l-0.7,5.8 M248.2,79.1l-7.5,2.1 M240.6,81.2l-8.2,2.7 M92.4,69.5L85.1,74 M85.1,74l-4.8,1.4 M80.3,75.3l-5.1,6.5 M75.2,81.8
		l2.7,8.2 M77.9,90.1l3.1,3.4 M81,93.5v5.2 M85.1,74l4.8,1 M89.9,75l2.9-1.9 M84.1,103l5.5,4.9 M84.1,119.5l-2.7,1.5 M81.3,121.1
		l-1,10.1 M80.3,131.2l-3.4-0.9 M76.9,130.3l-6.3-7.5 M70.5,122.8l-7-11.5 M63.5,111.3l-4.8-9.4 M143.3,47.9l2.4,6.3 M84.1,119.5
		l2.2,0.2 M94.2,120.3l16.4,5 M110.7,125.4l10.4,5.5 M80.3,131.2l-2.5,5.6 M77.8,136.8l-4.8,5 M73,141.8l-13.5,10.3 M59.5,152.1
		l-8,8 M51.5,160.1l-4.8,13 M46.7,173.1L39.4,200 M39.4,200l-3.2,19.6 M36.2,219.7l-0.7,11.4 M35.5,231.1l0.9,35.4 M36.5,266.5
		l0.9,39.7 M37.4,306.2l1.6,15.5 M37.8,362.4l4.6,14.4 M42.4,376.8l0.2,14.8 M42.6,391.6l9.4,11.2 M52,402.8l4.4-2.5 M72.5,391.2
		l16.2-3.4 M110.2,383.2l17.1-1.2 M158.6,379.8l10.5-3 M169.1,376.8l-2.7-37.2 M166.4,339.6l-4.1-15.8 M158.6,309.9L158,302
		 M155.7,273.6l-0.5-26.9 M155.2,246.6l-3.9-24.4 M157.4,294.7l5.8,0.8 M164.7,295.8l4.3-0.7 M169,295.1l7.7-3.1 M176.7,292l8.9-4.1
		 M185.6,287.9l11,0.9 M196.6,288.7l4.9,2.4 M218.5,299.7l1.3,2.9 M221.1,305.4l-1,8.4 M220.1,313.8l0.9,6.7 M220.9,320.4l-5,2.4
		 M216,322.8v6.7 M216,329.5l-6.7,1 M209.3,330.5l0.2,5.5 M209.4,336l-8.4,2.4 M201,338.4l-5.5-3.9 M195.6,334.5l-7.5-0.7
		 M188,333.8l-10.3-1.4 M177.8,332.4l-8.1-4.6 M169.7,327.8l-7.4-4 M201.5,291.2l-7,4.1 M194.5,295.3l1.2,6.2 M195.7,301.4l11.6,0.5
		 M207.4,301.9l1.7-7 M219.8,302.6l-7.7,1.2 M212.2,303.8l-0.5,6.5 M211.7,310.3l0.2,5.5 M211.8,315.8l-7.4,1.9 M204.5,317.7
		l-3.4,1.4 M201,319.1l-0.9,4.1 M200.2,323.2l-5.5-0.9 M194.7,322.3l-0.2,5.7 M194.5,328l2.2,2.1 M196.8,330l-1.2,4.5 M180.6,73.3
		l6-1.9 M186.7,71.4l1-6.7 M187.7,64.7l6.2-0.5 M193.9,64.2l1.7-0.2 M195.6,64l2.1-3.6 M197.6,60.4l8.1,1 M205.7,61.5l5.5-4.1
		 M211.2,57.4l9.5,1.4 M49.7,425.2l4.1,28.3 M53.8,453.5l9,13.4 M62.8,466.9l10.3,6.9 M73.1,473.7l1.7,41.4 M74.8,515.2l-1.6,15.5
		 M71.2,550.8v23.8 M71.2,577.3l-0.9,36.5 M70.3,613.8L62,647.2 M62,647.2l-5.9,32.4 M56.1,679.6l2.7,26 M58.8,705.6l7.8,38.4
		 M66.6,744l5,44.3 M71.6,788.3l5.9,1.4 M77.6,789.7l18.7-6.4 M96.3,783.3l10.5-7.3 M106.8,776l-0.9-31.1 M105.9,744.9l6.4-66.2
		 M112.3,678.7l2.7-20.1 M115,658.6l14.6-32 M129.6,626.6l2.3-24.2 M131.9,602.4l6.4-27.9 M138.3,574.6l13.2-46.6 M151.6,528
		l2.9-29.3 M156.1,482.3l0.9-27.9 M157,454.4l10-23.7 M167.1,430.7v-35.2 M167.1,395.5l2.1-18.7 M71.2,577.3l21.5-0.8 M92.6,576.5
		l27.1,0.3 M119.7,576.8l14.4-1.4"/>
	<path class="st8" d="M134.1,575.5l4.2-0.9 M65.6,816.6l2.1,28.4 M67.6,845.1l6.4,10.3 M102.6,852.2l29.1,3.1 M167.7,850.9
		l23.3-16.8 M190.9,834.1l1-10.3 M192,823.8l-5.8-3.4 M186.1,820.4l-24.3,0.3 M161.8,820.7l-44.2-27.1 M117.6,793.7l-2.7-1
		 M114.9,792.6l-2.4,5.8 M112.5,798.5l-9.2,8.2 M103.2,806.7l-0.3,6.5 M102.9,813.2l0.3,3.8 M103.2,817l-12,11 M91.3,827.9L80,827.2
		 M80,827.2l-7.5-11.6 M72.4,815.6h-2.9 M106.8,776l3.3,10.5 M110.1,786.5l4.8,6.2 M73.1,473.7l-6.3,34.8 M66.8,508.6l-3.3,62.6
		 M63.5,571.2l1.1,0.5 M170.7,178.1l-7.2,3.4 M163.5,181.5l-12,10.3 M151.6,191.8l-10.3,15.8 M141.3,207.6l1,9.6 M142.3,217.2
		l5.8,4.5 M169.4,75l-0.3,8.4 M169,83.4l3.3,8.4 M172.3,91.8l5,5.8 M88.7,387.7l-7.5-49.3 M81.2,338.4l-1.7-41.7 M78,261.2l2.3-61.2
		 M127.3,382l-9.1-80.5 M118.2,301.4l0.1-8.5 M119.1,216.9l-2.2-7 M117,210l12.7,6.2 M129.6,216.1l18.5,5.5 M148.1,221.6l3.2,0.7
		 M168.3,225.7l30.8,7.5 M199.2,233.3l28.1,1 M227.3,234.3l12-8.6 M239.2,225.7l0.7-23.3 M239.9,202.4l3.8-31.5 M243.7,170.9
		l-3.4-24 M240.3,146.9l-2.4-32.9 M237.9,114v-6 M237.9,102.1l-2.4-13.4 M235.5,88.7l-3.1-4.8 M230,80.1l-9.6-8.9 M220.4,71.2
		l-0.7-8.2 M219.7,63l1-4.3 M221.4,55.5l0.7-6.5 M222.1,49l-3.4-1 M218.7,47.9l-3.4,1.7 M215.3,49.6l-4.8,0.7 M210.5,50.3l-8.2,4.8
		 M202.2,55.1l-2.7,0.3 M199.5,55.5l-9.2,4.5 M190.3,59.9l-5.5,1.4 M184.8,61.3l-1,2.4 M180.3,71.6l0.3,1.7 M182.7,84.9l7.3,12
		 M190.6,97.9l12.7,13 M203.3,111l7.2,5.8 M210.5,116.8l-0.3,22.3 M210.1,139.1l0.3,16.1 M210.5,155.2l-6.2,18.2 M204.3,173.3
		l-7.5,13.4 M196.8,186.7l-10.3-3.4 M186.5,183.2l-15.8-5.1 M170.7,178.1l-8.9-4.8 M161.8,173.3l-12-7.9 M149.8,165.4l-4.1-6.2
		 M145.7,159.3l-10.3-7.2 M135.4,152.1l1.4-5.5 M117,210l-26.8-4.9 M90.1,205.1l-9.8-5 M237.9,102.1l-11.9,0.7 M226,102.7l-3.9,3
		 M237.9,108.1l-5.3-1.9 M232.6,106.2l-10.5-0.5 M163.2,295.6L158,302 M169,295.1l-2.2,8.8 M166.9,303.9l-1.1,14.8 M165.7,318.8
		L161,319 M57.2,42.1L44.5,49 M44.5,49L38,57.4 M38,57.4l3.6,1.5 M41.6,58.9L52,53.6 M52,53.6l7.4-2.6 M59.4,51l-0.3-5.8 M59.1,45.2
		l-1.9-3.1 M72.6,19.5l-15.1,8.2 M57.5,27.7L50,37.3 M50,37.3l2.6,1 M52.6,38.3l14-8 M66.6,30.3l7.9-5.7 M74.5,24.6l-1.9-5.1
		 M72.8,34.7l-5.8,5.7 M66.9,40.4l0.7,4.6 M67.6,45l9.1-1.4 M76.7,43.7l14-4.8 M90.7,38.9l9.6-3.8 M100.3,35.1L99.7,32 M99.7,32
		l-16.4-0.3 M83.2,31.7l-10.4,3.1 M84.2,17.8l-4.6,2.9 M79.6,20.7l-0.3,3.1 M79.3,23.8l24.8,0.2 M104.1,24l11.6-0.2 M115.8,23.8
		l-3.3-3.4 M112.5,20.4l-17.1-3.1 M95.4,17.3l-11.1,0.5 M133.9,23.3l-9.8,0.9 M124.1,24.1l-9.2,5.1 M114.9,29.3l4.5,2.2 M119.3,31.5
		h19 M138.4,31.5l6,1.2 M144.4,32.7l1.5,0.9 M145.9,33.5l-0.9-5.7 M145,27.9l-5.8-4.1 M139.2,23.8l-5.3-0.5 M98.8,10.4l-2.9,0.9
		 M95.9,11.3l3.9,2.6 M99.8,13.8l12.7,2.1 M112.5,15.9l8.9,0.7 M121.4,16.6l-5.5-2.9 M115.9,13.7l-11.5-2.7 M104.4,10.9l-5.7-0.5
		 M148.1,37.7l-11.4-1.4 M136.7,36.3l-16.9,0.2 M119.8,36.5l-18.3,7.3 M101.5,43.8l-5.3,5.3 M96.3,49.1L74.4,60 M74.4,60l-7.1,7.1
		 M147.9,435.2l0.9,31.1 M148.8,466.3l5.7,32.4 M89.4,443.9l8.2,21.9 M97.7,465.8l-3.7,26 M94,491.9L84.4,512 M84.4,512l-11.2,18.7
		 M150.7,380.3l7.9-0.6 M150.7,380.3l-2.8,54.9 M56.3,400.4l16.2-9.2 M56.3,400.4l-2.7,10 M73.2,530.7l-2.1,20.1 M154.5,498.7
		l1.6-16.4 M71.2,574.6v2.7 M66.7,815.6l-1.1,1 M127.3,382l23.4-1.7 M88.7,387.7l21.5-4.6 M84.1,103l8.6-0.6 M81,98.7L74.8,99
		 M92.4,69.5l0.4,3.6 M92.8,73.1l2.6,24.8 M99.4,69.2l-0.3-2.8 M99.1,66.3l-1.3-11.5 M222.1,105.7l-11.6,11.1 M237.9,108.1v-6
		 M201.5,291.2l7.6,3.7 M209.1,294.9l9.4,4.8 M219.8,302.6l1.2,2.7 M163.2,295.6l1.6,0.2 M158,302l-0.6-7.2 M157.4,294.7l-1.7-21.2
		 M162.3,323.8L161,319 M161,319l-2.4-9.1 M220.7,58.7l0.7-3.3 M180.6,73.3l2.1,11.6 M177.2,97.6l2.1-1 M183.7,63.7l-3.4,7.9
		 M232.4,83.9l-2.4-3.8 M195.6,64l-7.9,0.7 M97.8,54.9l2.4-1.5 M56.9,95.7L54.9,89 M145.7,54.3l2.4,0.2 M169.4,75l1.7,0.7 M190,96.9
		l0.6,1 M58.7,101.9l5.8,2.6 M151.3,222.3l17,3.5 M118.3,293l0.8-76 M118.3,293l27.4,3.7 M145.7,296.7L158,302 M79.5,296.7L78,261.2
		 M79.5,296.7l-42.1,9.5 M46.7,846.8l-1.1-20.6 M45.6,826.2l0.5-12.4 M46,813.8l1.8,1.1 M47.9,814.9l3.2-19.4 M51.1,795.5l0.3-2.9
		 M47.9,814.9l4.1,3.2 M52,818.1l7.8-1.4 M59.7,816.7l3.2-2.7 M62.9,814l3.8,1.6 M57.5,795.3l13.9-3.4 M51.3,792.6l6.2,2.7
		 M71.4,791.9l-1.9,23.7 M53.6,776.2l-1.4-45.4"/>
	<path class="st8" d="M52.2,730.8l-3.9-40.6 M48.3,690.1l-3.4-35.2 M44.9,654.9l4.6-20.3 M49.5,634.6l8.5-23.5 M57.9,611.1l5-18
		 M62.9,593l1.7-21.4 M51.3,792.6l2.2-16.4 M64.7,571.7l6.5,2.9 M69.5,815.6h-2.8 M71.4,791.9l0.2-3.6 M163.9,93.5l-0.4,1.8
		 M165.3,110.3l-2.2-9.5 M163.1,100.8l0.4-5.5 M165.3,110.3l-0.7,8.6 M89.5,107.9v1.5 M88,110.8l-1.5,2.9 M89.5,109.4l-1.5,1.4
		 M86.5,113.7l1.5,1.7 M85.8,115.4l-0.9,2.1 M88,115.4h-2.2 M86.3,119.7l7.9,0.6 M84.9,117.5l1.4,2.2 M159.9,852.5l7.7-1.6
		 M131.7,855.3l28.2-2.8 M74,855.3H51.3 M46.7,846.8l4.5,8.6 M93.9,855.3H74 M93.9,855.3l8.7-3.1 M53.7,410.4l-4,14.8 M89.4,443.9
		l-35.8-33.5 M39,321.7l-1.1,40.6 M135.4,152.1l-11.1-5.3 M124.4,146.8l-18.5-5.3 M105.9,141.6l-9.1,1.1 M96.7,142.7L82.1,147
		 M82.1,147l-4.6,2.7 M80.3,200l-13.7-16.9"/>
</g>
</svg>
