<?xml version="1.0" standalone="no"?>
<!DOCTYPE svg PUBLIC "-//W3C//DTD SVG 1.1//EN" "http://www.w3.org/Graphics/SVG/1.1/DTD/svg11.dtd" >
<svg>
<metadata>
Created by FontForge 20090622 at Thu Oct  6 16:08:30 2016
 By deploy user
Copyright (c) 2014 by Charter Communications. All rights reserved.
</metadata>
<defs>
<font id="Rutledge-LightItalic" horiz-adv-x="771" >
  <font-face 
    font-family="Rutledge Light"
    font-weight="300"
    font-style="italic"
    font-stretch="normal"
    units-per-em="1000"
    panose-1="0 0 0 0 0 0 0 0 0 0"
    ascent="767"
    descent="-233"
    x-height="461"
    cap-height="691"
    bbox="-24 -241 1087 885"
    underline-thickness="50"
    underline-position="-50"
    slope="-8"
    unicode-range="U+000D-U+25CA"
  />
<missing-glyph horiz-adv-x="550" 
 />
    <glyph glyph-name=".notdef" horiz-adv-x="550" 
 />
    <glyph glyph-name="NULL" horiz-adv-x="0" 
 />
    <glyph glyph-name="NULL" horiz-adv-x="0" 
 />
    <glyph glyph-name="nonmarkingreturn" unicode="&#xd;" horiz-adv-x="550" 
 />
    <glyph glyph-name="space" unicode=" " horiz-adv-x="253" 
 />
    <glyph glyph-name="f" unicode="f" horiz-adv-x="351" 
d="M349 672q-36 0 -61.5 -21.5t-33.5 -79.5l-16 -110h126l-20 -40h-110l-60 -421h-45l60 421h-113l4 40h114l15 103q4 30 12 56.5t24 47t42 32t66 11.5q24 0 44.5 -6.5t31.5 -14.5l-20 -38q-10 7 -23.5 13.5t-36.5 6.5z" />
    <glyph glyph-name="g" unicode="g" horiz-adv-x="549" 
d="M456 -35q-5 -33 -20 -64.5t-39 -55.5t-58 -38.5t-78 -14.5q-35 0 -59.5 8t-41 20t-27 26t-17.5 25l41 24q4 -9 11.5 -20t20 -20.5t30 -15.5t41.5 -6q27 0 52 9t45.5 26.5t34 42t17.5 54.5l11 78q-13 -8 -26 -14.5t-27 -11.5q-24 -10 -54 -17.5t-61 -7.5q-79 0 -117 49
t-38 143q0 74 26 126.5t67.5 86t92 49t99.5 15.5h123l15 -31zM258 32q31 0 60.5 9.5t53 21.5t38.5 22.5t18 11.5l49 324h-101q-48 0 -90.5 -17t-74 -49t-50 -77.5t-18.5 -102.5q0 -26 5 -52t18 -46t35 -32.5t57 -12.5z" />
    <glyph glyph-name="h" unicode="h" horiz-adv-x="537" 
d="M452 0h-45l44 319q1 7 1.5 13.5t0.5 13.5q0 37 -19 59.5t-67 22.5q-52 0 -100 -21.5t-86 -43.5l-52 -363h-44l104 738h44l-47 -327q38 20 85 39t99 19q37 0 61.5 -8t39.5 -23t21.5 -36t6.5 -46q0 -19 -3 -40z" />
    <glyph glyph-name="i" unicode="i" horiz-adv-x="235" 
d="M139 0h-43l64 461h43zM234 612q0 -14 -9.5 -25t-26.5 -11q-14 0 -21.5 8.5t-7.5 19.5q0 13 11 24.5t26 11.5q28 0 28 -28z" />
    <glyph glyph-name="j" unicode="j" horiz-adv-x="317" 
d="M210 -68q-4 -26 -15 -51.5t-30 -45t-47.5 -31.5t-67.5 -12q-15 0 -29.5 3.5t-32.5 11.5l15 44q9 -8 23 -13.5t29 -5.5q51 0 77.5 27t33.5 75l73 527h45zM316 612q0 -17 -11.5 -26.5t-25.5 -9.5q-28 0 -28 28q0 13 11 24.5t25 11.5t21.5 -8.5t7.5 -19.5z" />
    <glyph glyph-name="k" unicode="k" horiz-adv-x="486" 
d="M202 245l268 -245h-64l-245 228l-32 -228h-44l104 738h44l-68 -473l270 196h62z" />
    <glyph glyph-name="l" unicode="l" horiz-adv-x="222" 
d="M134 0h-44l104 738l44 -7z" />
    <glyph glyph-name="m" unicode="m" horiz-adv-x="859" 
d="M452 0h-45l44 319q1 7 1.5 13.5t0.5 12.5q0 38 -19 60.5t-67 22.5q-32 0 -65 -10t-60 -22t-44 -22.5l-17 -10.5l-52 -363h-44l64 461h29l21 -43q8 5 24.5 13.5t39 17t50 14.5t57.5 6q51 0 77 -20t40 -49q17 11 41 23t51.5 22.5t57 17t56.5 6.5q72 0 100 -32t28 -83
q0 -9 -0.5 -16t-2 -19t-4.5 -32.5l-8 -56.5l-13 -92l-19 -138h-44l18.5 138t13 92.5t8 56.5t4 31t2 16t0.5 11q0 38 -19.5 60.5t-67.5 22.5q-30 0 -62.5 -10t-60 -22t-45 -22t-17.5 -11z" />
    <glyph glyph-name="n" unicode="n" horiz-adv-x="537" 
d="M129 0h-44l64 461h29l21 -43l25.5 13.5t39 17t49.5 14.5t57 6q37 0 62 -9.5t40 -26t21 -38.5t6 -46q0 -5 -0.5 -10.5t-2 -17t-4.5 -32.5l-8 -58l-13 -93l-19 -138h-45l18.5 138t13 93t8 57.5t4 31.5t2 16t0.5 10q0 37 -19 59.5t-67 22.5q-32 0 -65 -10t-60 -22t-44 -22.5
l-17 -10.5z" />
    <glyph glyph-name="o" unicode="o" horiz-adv-x="553" 
d="M342 469q43 0 79.5 -15t62.5 -42t40.5 -65t14.5 -84q0 -59 -21 -108.5t-57 -85.5t-84 -56t-101 -20q-44 0 -80.5 15t-62.5 42t-40.5 65t-14.5 84q0 58 21 107.5t57 85.5t84 56.5t102 20.5zM121 203q0 -38 11.5 -69t33 -53.5t51 -35t65.5 -12.5q43 0 82 16.5t68.5 46.5
t46.5 71.5t17 91.5q0 37 -11.5 68t-32.5 53.5t-50.5 35t-64.5 12.5q-45 0 -84 -16.5t-68.5 -46.5t-46.5 -71.5t-17 -90.5z" />
    <glyph glyph-name="p" unicode="p" horiz-adv-x="546" 
d="M57 -205l92 666h29l24 -46q94 54 171 54q161 0 161 -191q0 -73 -18.5 -126.5t-50 -89t-73 -52.5t-87.5 -17q-24 0 -47.5 5.5t-45 14.5t-41 19.5t-34.5 20.5l-36 -258h-44zM365 428q-30 0 -60.5 -9t-57 -20.5t-44.5 -22t-22 -13.5l-36 -261q1 -3 16.5 -14t39.5 -23
t52.5 -22t55.5 -10q51 0 85.5 23.5t55.5 59t30 76t9 75.5q0 29 -5.5 58t-19.5 52t-38 37t-61 14z" />
    <glyph glyph-name="q" unicode="q" horiz-adv-x="546" 
d="M521 430l-88 -635h-45l34 251q-24 -17 -51 -27q-23 -11 -53 -19t-62 -8q-78 0 -117.5 49t-39.5 134q0 77 26.5 131.5t68 89t93 50.5t101.5 16h118zM477 421h-101q-45 0 -87 -17t-73.5 -48t-50.5 -75t-19 -99q0 -26 4.5 -52.5t17 -48t34 -35t56.5 -13.5q31 0 60.5 10
t53.5 22t39 22.5t17 11.5z" />
    <glyph glyph-name="r" unicode="r" horiz-adv-x="380" 
d="M129 0h-44l64 461h29l21 -43q48 25 88 38t82 13q33 0 59 -9l-20 -39q-13 7 -43 7q-31 0 -62.5 -9.5t-57.5 -21t-43.5 -22t-20.5 -12.5z" />
    <glyph glyph-name="s" unicode="s" horiz-adv-x="408" 
d="M240 267q33 -12 59 -24t44 -27t28 -33.5t10 -42.5t-11.5 -50t-34 -47.5t-56 -35.5t-78.5 -14q-33 0 -59.5 5.5t-46 12.5t-31.5 14t-16 11l17 50q4 -5 16 -14t30.5 -17.5t42.5 -15t53 -6.5q15 0 37 6t41.5 18t33.5 30t14 43q0 19 -8.5 32t-23 23t-34 18l-41.5 17
q-63 23 -97.5 52.5t-34.5 71.5q0 21 9 43t28.5 40t50 30t74.5 12q48 0 84.5 -10.5t53.5 -21.5l-23 -44l-12 8t-24 12.5t-34.5 11.5t-42.5 5q-54 0 -86 -23t-32 -56q0 -22 21.5 -43t78.5 -41z" />
    <glyph glyph-name="t" unicode="t" horiz-adv-x="350" 
d="M76 421l4 40h113l24 168l49 7l-28 -175h126l-20 -40h-110l-22 -159.5l-12.5 -90t-6 -43.5t-1.5 -20q0 -34 17 -54.5t62 -20.5q17 0 34.5 4.5t30.5 13.5l2 -43q-31 -16 -75 -16q-51 0 -83.5 28t-32.5 82q0 6 1 17t5 43t12.5 93l23.5 166h-113z" />
    <glyph glyph-name="u" unicode="u" horiz-adv-x="535" 
d="M470 461h44l-64 -461h-27l-23 44q-9 -6 -27 -14.5t-41.5 -17t-51.5 -14t-56 -5.5q-35 0 -58.5 9t-37.5 24.5t-20 36.5t-6 45v8t1.5 17t4 34t8 60.5l13.5 95l20 138.5h43q-26 -175 -36 -260t-10 -90q0 -14 4 -28t13.5 -25t26 -18t41.5 -7q32 0 65 10t60 22t44 22t18 10z
" />
    <glyph glyph-name="v" unicode="v" horiz-adv-x="454" 
d="M451 461h44l-246 -461h-44l-118 461h45l100 -408z" />
    <glyph glyph-name="w" unicode="w" horiz-adv-x="745" 
d="M743 461h43l-227 -461h-44l-87 395l-197 -395h-47l-97 461h43l82 -408l202 408h45l84 -408z" />
    <glyph glyph-name="y" unicode="y" horiz-adv-x="477" 
d="M38 -162q40 6 67 22t46 38t34 48t32 52l-130 463h48l106 -414l232 414h45l-285 -512q-32 -57 -76 -97.5t-113 -56.5z" />
    <glyph glyph-name="z" unicode="z" horiz-adv-x="476" 
d="M485 461l-8 -51l-372 -369h322l-4 -41h-370l8 49l374 372h-309l4 40h355z" />
    <glyph glyph-name="x" unicode="x" horiz-adv-x="444" 
d="M278 229l143 -229h-53l-119 198l-175 -198h-51l204 231l-139 230h52l115 -198l176 198h53z" />
    <glyph glyph-name="c" unicode="c" horiz-adv-x="473" 
d="M266 33q54 0 92 16.5t68 34.5l5 -44q-30 -17 -74 -32t-96 -15q-46 0 -80.5 14.5t-57.5 41t-34.5 62.5t-11.5 80q0 62 18.5 113.5t51.5 88t79 56.5t102 20q51 0 90 -15.5t66 -32.5l-17 -45q-24 18 -58 35t-88 17q-22 0 -56 -8.5t-66 -33.5t-55 -70.5t-23 -118.5
q0 -51 17 -83t40 -50t48 -24.5t40 -6.5z" />
    <glyph glyph-name="A" unicode="A" horiz-adv-x="685" 
d="M669 0h-48l-64 217h-367l-127 -217h-47l401 691h43zM547 257l-116 380l-221 -380h337z" />
    <glyph glyph-name="B" unicode="B" horiz-adv-x="546" 
d="M186 691h166q91 0 138.5 -39.5t47.5 -106.5q0 -69 -40.5 -116t-109.5 -64q69 -12 104 -52.5t35 -103.5q0 -48 -17 -86.5t-50 -65.5t-80.5 -42t-107.5 -15h-182zM186 381h125q40 0 73.5 12t57.5 33t37 50t13 64q0 51 -37 81t-104 30h-125zM282 41q90 0 144 44t54 125
q0 61 -41 95.5t-113 34.5h-144l-44 -299h144z" />
    <glyph glyph-name="C" unicode="C" horiz-adv-x="618" 
d="M372 34q60 0 109 17.5t97 49.5v-45q-33 -21 -65 -33.5t-59.5 -19t-50 -8.5t-35.5 -2q-75 0 -127 27.5t-83.5 71t-45.5 97t-14 106.5q0 82 25 156t72.5 129t116.5 87.5t156 32.5q12 0 33 -2t47 -8.5t54 -18.5t54 -33l-12 -45q-37 32 -79.5 48.5t-105.5 16.5
q-53 0 -108.5 -21.5t-101.5 -66t-75 -113.5t-29 -163q0 -68 19.5 -117t51.5 -81t73 -47t83 -15z" />
    <glyph glyph-name="D" unicode="D" horiz-adv-x="716" 
d="M186 691h237q70 0 124.5 -24.5t91 -65.5t55.5 -95.5t19 -114.5q0 -77 -27 -147.5t-77.5 -124.5t-122.5 -86.5t-162 -32.5h-234zM327 41q52 0 112 20t110 62t83.5 108t33.5 159q0 67 -23 116.5t-59.5 81.5t-81 47.5t-86.5 15.5h-190l-88 -610h189z" />
    <glyph glyph-name="E" unicode="E" horiz-adv-x="511" 
d="M464 0h-374l96 691h374l-11 -40h-323l-36 -263h252l-15 -41h-245l-44 -306h330z" />
    <glyph glyph-name="F" unicode="F" horiz-adv-x="506" 
d="M134 0h-44l96 691h369l-11 -40h-318l-36 -263h247l-15 -41h-240z" />
    <glyph glyph-name="G" unicode="G" horiz-adv-x="670" 
d="M648 339l-40 -286q-8 -5 -28.5 -15t-50.5 -20t-67.5 -17.5t-78.5 -7.5q-80 0 -134 27.5t-87.5 71t-48 98t-14.5 108.5q0 78 26.5 150.5t76 128.5t120.5 89.5t160 33.5q13 0 35 -2t49 -8t56.5 -18.5t58.5 -33.5l-13 -44q-38 32 -82.5 48t-109.5 16q-55 0 -113 -21.5
t-105.5 -65.5t-78 -112.5t-30.5 -162.5q0 -68 21 -117.5t55.5 -81.5t77 -47.5t86.5 -15.5q54 0 96 11t81 32l32 220h-130l13 42h167z" />
    <glyph glyph-name="H" unicode="H" horiz-adv-x="695" 
d="M658 691h43l-96 -691h-43l48 344h-428l-48 -344h-44l96 691h44l-44 -305h428z" />
    <glyph glyph-name="I" unicode="I" horiz-adv-x="224" 
d="M134 0h-44l96 691h44z" />
    <glyph glyph-name="J" unicode="J" horiz-adv-x="390" 
d="M352 691h44l-72 -509q-5 -32 -18.5 -63.5t-37.5 -57.5t-58.5 -44t-81.5 -23q-31 -3 -59.5 1t-52.5 17l15 45q14 -11 37.5 -17.5t46.5 -6.5q30 0 58 10.5t50.5 29.5t37.5 46.5t20 60.5z" />
    <glyph glyph-name="K" unicode="K" horiz-adv-x="580" 
d="M564 0h-61l-321 352l-48 -352h-44l96 691h44l-44 -313l392 313h61l-408 -329z" />
    <glyph glyph-name="L" unicode="L" horiz-adv-x="443" 
d="M138 41h293l-4 -41h-337l96 691h44z" />
    <glyph glyph-name="M" unicode="M" horiz-adv-x="828" 
d="M768 691h68l-96 -691h-44l88 626l-346 -626h-47l-171 626l-88 -626h-44l96 691h69l169 -631z" />
    <glyph glyph-name="N" unicode="N" horiz-adv-x="725" 
d="M733 691l-96 -691h-39l-382 609l-85 -609h-43l96 691h39l382 -609l84 609h44z" />
    <glyph glyph-name="O" unicode="O" 
d="M477 700q80 0 135.5 -26.5t90.5 -70t50.5 -98.5t15.5 -113q0 -75 -24.5 -146.5t-72 -127.5t-118 -90.5t-161.5 -34.5q-80 0 -136 26.5t-91 69t-51 97t-16 111.5q0 72 24 144t71.5 129.5t118.5 93.5t164 36zM391 34q53 0 112 20t108 62.5t81 109.5t32 161q0 75 -21 127.5
t-55 85.5t-78 48t-90 15q-57 0 -116.5 -22t-108 -67t-79.5 -112.5t-31 -157.5q0 -77 22.5 -128.5t57.5 -83t79 -45t87 -13.5z" />
    <glyph glyph-name="P" unicode="P" horiz-adv-x="542" 
d="M369 691q97 0 149 -43.5t52 -124.5q0 -53 -18 -95t-51.5 -71t-81 -44.5t-106.5 -15.5h-139l-40 -297h-44l96 691h183zM326 337q90 0 144.5 47.5t54.5 133.5q0 64 -41.5 98.5t-113.5 34.5h-144l-44 -314h144z" />
    <glyph glyph-name="Q" unicode="Q" 
d="M477 700q80 0 135.5 -26.5t90.5 -70t50.5 -98.5t15.5 -113q0 -52 -12 -103t-35 -96.5t-58 -84t-80 -65.5l92 -141h-56l-76 120q-84 -29 -151 -29q-80 0 -136 26.5t-91 69t-51 97t-16 111.5q0 72 24 144t71.5 129.5t118.5 93.5t164 36zM391 34q53 0 112 20t108 62.5
t81 109.5t32 161q0 75 -21 127.5t-55 85.5t-78 48t-90 15q-57 0 -116.5 -22t-108 -67t-79.5 -112.5t-31 -157.5q0 -77 22.5 -128.5t57.5 -83t79 -45t87 -13.5z" />
    <glyph glyph-name="R" unicode="R" horiz-adv-x="543" 
d="M357 287l48 -84l50 -86l43.5 -72.5t28.5 -44.5h-55q-11 21 -30 52.5l-41.5 67.5l-45.5 74l-42 72q-9 15 -18.5 24t-24 14t-36.5 6.5t-56 1.5l-44 -312h-44l96 691h183q97 0 150 -41t53 -120q0 -52 -18.5 -92.5t-51.5 -68.5t-77 -42.5t-95 -14.5q7 -3 14 -8.5t13 -16.5z
M326 352q90 0 145 43t55 129q0 66 -42 96.5t-114 30.5h-144l-44 -299h144z" />
    <glyph glyph-name="S" unicode="S" horiz-adv-x="528" 
d="M336 376q95 -38 135 -83t40 -98q0 -51 -24.5 -89t-63 -63t-84 -37.5t-87.5 -12.5q-37 0 -66 3.5t-53 11t-43.5 18.5t-37.5 26l15 50q30 -25 73.5 -45.5t106.5 -20.5q21 0 56.5 6.5t70.5 24t60.5 47t25.5 74.5q0 50 -36 82.5t-98 60.5l-59 26t-62.5 34.5t-50 49.5
t-20.5 70q0 49 21 84.5t54.5 58.5t76 34.5t84.5 11.5q57 0 100 -17t70 -42l-14 -45q-6 8 -19 19t-33 21.5t-46.5 17.5t-58.5 7q-33 0 -66 -9.5t-60 -28t-43.5 -45t-16.5 -60.5q0 -51 41.5 -82.5t111.5 -59.5z" />
    <glyph glyph-name="T" unicode="T" horiz-adv-x="555" 
d="M347 651h-239l4 40h523l-11 -40h-233l-92 -651h-44z" />
    <glyph glyph-name="U" unicode="U" horiz-adv-x="708" 
d="M650 226q-8 -53 -29 -91t-49 -64t-60.5 -41t-63 -23.5t-56 -11t-40.5 -2.5q-13 0 -35.5 2t-49 8.5t-53 19.5t-48.5 34t-36 52.5t-14 75.5q0 20 3 41l64 465h46l-65 -475q-2 -10 -2 -17v-9q0 -47 17 -77t45 -47t63.5 -23t72.5 -6q40 0 80.5 10.5t75 33.5t59 59t31.5 87
l65 464h44z" />
    <glyph glyph-name="V" unicode="V" horiz-adv-x="656" 
d="M689 691h47l-387 -691h-40l-197 691h47l177 -628z" />
    <glyph glyph-name="W" unicode="W" horiz-adv-x="984" 
d="M1017 691h47l-316 -691h-28l-139 636l-317 -636h-28l-124 691h47l103 -594l293 594h65l124 -594z" />
    <glyph glyph-name="X" unicode="X" horiz-adv-x="628" 
d="M394 369l218 -369h-54l-195 334l-292 -334h-55l324 369l-192 322h53l167 -287l251 287h53z" />
    <glyph glyph-name="Y" unicode="Y" horiz-adv-x="538" 
d="M618 691l-287 -392l-40 -299h-44l40 299l-175 392h45l156 -350l260 350h45z" />
    <glyph glyph-name="Z" unicode="Z" horiz-adv-x="584" 
d="M632 691l-4 -40l-522 -610h435l-4 -41h-490l4 40l524 611h-436l4 40h489z" />
    <glyph glyph-name="one" unicode="1" horiz-adv-x="316" 
d="M266 691h47l-96 -691h-45l92 637l-102 -72l8 56z" />
    <glyph glyph-name="two" unicode="2" horiz-adv-x="590" 
d="M552 538q0 28 -11.5 50.5t-31 38.5t-45.5 25t-54 9q-29 0 -57 -7.5t-55 -19t-52.5 -25.5l-48.5 -27l8 52q45 26 100.5 45.5t109.5 19.5q38 0 70.5 -13t56.5 -35t37.5 -51.5t13.5 -62.5q0 -54 -38.5 -106.5t-110.5 -113.5l-320 -275h379l-4 -42h-428l8 49l343 301
q37 32 62 58t40 48.5t21.5 42t6.5 39.5z" />
    <glyph glyph-name="three" unicode="3" horiz-adv-x="563" 
d="M401 366q55 -20 83.5 -60.5t28.5 -94.5q0 -46 -22 -85.5t-59 -69t-84 -46.5t-98 -17t-96 13t-85 38l8 50l31.5 -21t37 -20t46.5 -15t60 -6q45 0 84.5 13.5t69.5 37t47 55t17 67.5q0 28 -11 53.5t-33 45t-53.5 31t-71.5 11.5h-81l4 40h80q43 1 81 11.5t66 29.5t44 46.5
t16 63.5q0 25 -13 48t-36 39.5t-53.5 26.5t-65.5 10q-57 0 -98.5 -12.5t-76.5 -28.5l8 46q67 34 167 34q45 0 83.5 -12.5t66.5 -34t44 -50.5t16 -62q0 -60 -40 -105.5t-112 -69.5z" />
    <glyph glyph-name="four" unicode="4" horiz-adv-x="630" 
d="M444 184h-349l4 40l404 467h47l-406 -468h304l20 131l44 7l-20 -138h102l-17 -39h-89l-24 -184h-44z" />
    <glyph glyph-name="five" unicode="5" horiz-adv-x="580" 
d="M536 236q0 -52 -22.5 -96.5t-60 -77t-86.5 -51t-101 -18.5q-97 0 -181 54l8 48q18 -14 35.5 -25.5t38 -20t46 -13t60.5 -4.5q45 0 85 16.5t69.5 44.5t47 64.5t17.5 76.5q0 69 -43 108.5t-124 39.5q-24 0 -45 -4.5t-37 -10t-25.5 -10.5t-10.5 -6h-31l44 340h346l-11 -40
h-295l-32 -246q24 8 49.5 13.5t51.5 5.5q49 0 88 -14t65 -39t40 -59.5t14 -75.5z" />
    <glyph glyph-name="six" unicode="6" horiz-adv-x="625" 
d="M99 193q0 82 41 158t105.5 141t143.5 118t156 90l-4 -49q-78 -38 -138.5 -79t-104.5 -81t-71.5 -77t-39.5 -67q40 30 85 47t99 17q46 0 85.5 -14.5t67.5 -39.5t44 -59.5t16 -74.5q0 -47 -22.5 -88.5t-59.5 -73t-86 -50t-101 -18.5q-48 0 -87.5 15.5t-68 42.5t-44.5 63.5
t-16 78.5zM146 186q0 -35 14 -63t37.5 -48.5t55 -31.5t66.5 -11q44 0 84.5 14.5t71 39.5t49 59t18.5 72q0 32 -13 60t-36.5 49t-55.5 33t-70 12t-77.5 -12.5t-71.5 -36t-52 -58t-20 -78.5z" />
    <glyph glyph-name="seven" unicode="7" horiz-adv-x="550" 
d="M174 0l366 651h-393l4 40h440l-4 -40l-364 -651h-49z" />
    <glyph glyph-name="eight" unicode="8" horiz-adv-x="601" 
d="M441 368q54 -20 85 -62.5t31 -97.5q0 -45 -21 -84t-57 -68t-83 -46t-98 -17q-44 0 -81 14t-64 38t-42.5 55.5t-15.5 67.5q0 33 12 63.5t34 56.5t52.5 46.5t68.5 33.5q-45 22 -67.5 60t-22.5 90q0 35 18.5 68t49 58.5t71 40.5t85.5 15q39 0 71.5 -12.5t56.5 -34.5
t37 -50.5t13 -61.5q0 -57 -36.5 -102.5t-96.5 -70.5zM214 509q0 -27 11 -49.5t30 -39t44 -25.5t54 -9q35 0 67.5 12t57 32t39.5 47.5t15 59.5q0 25 -10 48t-28.5 40t-44.5 27t-57 10q-38 0 -70.5 -12.5t-56.5 -34t-37.5 -49t-13.5 -57.5zM304 32q40 0 78.5 14t67.5 37.5
t47 55t18 66.5q0 29 -12.5 54.5t-35 44.5t-53 30t-66.5 11q-41 0 -79.5 -14t-68 -37t-47 -54.5t-17.5 -65.5q0 -29 13 -55t36 -45.5t53.5 -30.5t65.5 -11z" />
    <glyph glyph-name="nine" unicode="9" horiz-adv-x="625" 
d="M622 499q0 -83 -40.5 -158.5t-105 -140.5t-144 -118t-157.5 -90l7 49q77 38 137 79t104 81t71.5 77t39.5 67q-38 -30 -84.5 -47t-100.5 -17q-45 0 -84 14.5t-67 39.5t-44 59.5t-16 75.5q0 46 22.5 87.5t60 73t86 50t101.5 18.5q48 0 87 -15.5t67.5 -42.5t44 -63.5
t15.5 -78.5zM576 506q0 34 -14 62.5t-38 49t-55.5 31.5t-66.5 11q-44 0 -84.5 -14.5t-71 -39.5t-49 -59t-18.5 -72q0 -32 13.5 -60t37 -49t55.5 -33t70 -12q37 0 76.5 12.5t71.5 36t52.5 58t20.5 78.5z" />
    <glyph glyph-name="zero" unicode="0" horiz-adv-x="661" 
d="M429 700q65 0 107 -24.5t66.5 -64.5t34 -91t9.5 -103q0 -80 -17 -156.5t-54 -136t-96.5 -95.5t-143.5 -36q-65 0 -108 24t-68.5 63.5t-36.5 90t-11 103.5q0 80 19.5 156.5t59 136.5t99 96.5t140.5 36.5zM332 32q51 0 99.5 21.5t87 67t61.5 115.5t23 167q0 91 -20 143
t-48 77.5t-56.5 31.5t-46.5 6q-47 0 -96 -20t-89.5 -64.5t-66.5 -115.5t-26 -173q0 -88 19.5 -139t47 -77t58 -33t53.5 -7z" />
    <glyph glyph-name="at" unicode="@" horiz-adv-x="894" 
d="M532 611q78 0 142 -24t110 -66.5t71.5 -101.5t25.5 -128q0 -108 -54 -170.5t-151 -62.5q-14 0 -29.5 2t-30.5 8t-27.5 16.5t-19.5 27.5q-39 -29 -82.5 -41.5t-85.5 -9.5q-17 1 -38 9t-39 24.5t-30 43.5t-12 66q0 48 16 88.5t44.5 70.5t66 47t81.5 18h147l14 -32l-32 -227
q-1 -6 0 -18.5t8.5 -24.5t24.5 -21.5t49 -9.5q35 0 61.5 16t44 42.5t26.5 61.5t9 73q0 63 -23 116.5t-64.5 92.5t-99 61.5t-127.5 22.5q-83 0 -156.5 -29t-129 -79.5t-87.5 -119t-32 -147.5q0 -64 22 -117t63 -91t99 -59t129 -21q46 0 91 11t88 31l11 -31q-45 -20 -93 -31
t-102 -11q-80 0 -145 23t-110.5 65t-70 100t-24.5 128q0 87 35.5 162t97 129.5t143.5 85.5t175 31zM603 389h-117q-60 0 -99 -36.5t-50 -96.5q-16 -72 10.5 -112t86.5 -40q34 0 72.5 15.5t63.5 38.5z" />
    <glyph glyph-name="registered" unicode="&#xae;" horiz-adv-x="894" 
d="M508 301l28 -48.5l29.5 -49l25.5 -42l16 -26.5h-31q-25 38 -46.5 77t-45.5 77q-6 9 -11.5 14t-14 8t-21.5 3.5t-33 0.5l-24 -180h-25l56 401h106q23 0 44 -5.5t37 -17.5t25.5 -30t9.5 -43q0 -57 -37 -90.5t-103 -33.5q9 -5 15 -15zM495 339q51 0 80.5 24t29.5 75
q0 37 -23.5 55t-65.5 18h-84l-24 -172h87zM122 299q0 76 34 143.5t91.5 118.5t132.5 81t158 30q70 0 130.5 -23.5t104.5 -64.5t69 -96t25 -117q0 -77 -34.5 -144.5t-93 -118.5t-134.5 -80.5t-159 -29.5q-71 0 -130 23.5t-102.5 64.5t-67.5 95.5t-24 117.5zM538 650
q-78 0 -149 -27.5t-125 -74.5t-86 -110t-32 -134q0 -59 22.5 -110.5t63 -89.5t96.5 -60t122 -22q78 0 149 27.5t124.5 74.5t85.5 110t32 134q0 59 -22.5 110.5t-63 89.5t-96 60t-121.5 22z" />
    <glyph glyph-name="copyright" unicode="&#xa9;" horiz-adv-x="894" 
d="M592 167q-38 -23 -72.5 -30t-48.5 -7q-44 0 -74 16t-48.5 41t-26.5 56.5t-8 62.5q0 45 15 87.5t43 75t67.5 52t88.5 19.5q15 0 46 -6t63 -30l-6 -26q-21 18 -46.5 28t-60.5 10q-30 0 -62.5 -12t-59.5 -38t-44 -66t-17 -95q0 -39 11.5 -67.5t30.5 -47t42.5 -27.5t47.5 -9
q34 0 62.5 10.5t57.5 28.5zM541 672q70 0 130 -23.5t103.5 -64.5t68 -96t24.5 -117q0 -77 -34.5 -144.5t-93 -118.5t-134.5 -80.5t-159 -29.5q-71 0 -130 23.5t-102.5 64.5t-67.5 95.5t-24 117.5q0 76 34.5 143.5t92.5 118.5t133.5 81t158.5 30zM146 304q0 -59 23 -110.5
t63.5 -89.5t96 -60t121.5 -22q78 0 149 27.5t125 74.5t86 110t32 134q0 59 -23 110.5t-63.5 89.5t-96 60t-121.5 22q-78 0 -149 -27.5t-125 -74.5t-86 -110t-32 -134z" />
    <glyph glyph-name="trademark" unicode="&#x2122;" horiz-adv-x="897" 
d="M886 297h-26l48 336l-196 -336h-27l-100 336l-48 -336h-25l52 372h39l100 -340l195 340h40zM451 669l-4 -23h-137l-48 -349h-25l48 349h-138l4 23h300z" />
    <glyph glyph-name="dollar" unicode="$" horiz-adv-x="521" 
d="M328 376q91 -40 130.5 -83.5t39.5 -97.5q0 -55 -25.5 -93.5t-64 -62.5t-83.5 -35t-84 -11l-13 -65h-48l15 67q-45 5 -77 19t-60 37l15 51q27 -23 58 -40.5t76 -22.5l69 308q-23 10 -47 24.5t-43.5 34t-32 45t-12.5 57.5q0 49 20 84.5t52 59t70.5 35t76.5 12.5l14 65h46
l-14 -68q39 -5 69.5 -19.5t51.5 -35.5l-14 -45q-10 14 -39 33t-80 24zM186 516q0 -40 27 -68.5t75 -51.5l61 257q-27 -3 -56 -13t-52.5 -27t-39 -41.5t-15.5 -55.5zM249 36q22 0 56.5 8t66 26t54.5 47t23 71q0 50 -34.5 81.5t-94.5 58.5z" />
    <glyph glyph-name="question" unicode="?" horiz-adv-x="466" 
d="M247 0h-55l8 67h55zM218 148q8 50 15.5 88t21.5 70t38 61.5t65 63.5q18 13 34 27.5t29 30.5t20.5 33.5t7.5 37.5q0 48 -28.5 72t-79.5 24q-27 0 -56.5 -7.5t-57.5 -19.5t-53.5 -26.5t-43.5 -27.5l8 51q65 38 111.5 55.5t96.5 17.5q70 0 108.5 -34.5t38.5 -97.5
q0 -48 -26 -84.5t-58 -62.5q-36 -30 -60.5 -53.5t-40.5 -51.5t-26.5 -67t-19.5 -100h-44z" />
    <glyph glyph-name="exclam" unicode="!" horiz-adv-x="156" 
d="M83 148l66 543h50l-86 -543h-30zM106 0h-56l8 67h56z" />
    <glyph glyph-name="less" unicode="&#x3c;" horiz-adv-x="566" 
d="M143 359l397 -207l-8 -48l-434 233l8 44l498 233l-8 -48z" />
    <glyph glyph-name="greater" unicode="&#x3e;" horiz-adv-x="566" 
d="M527 359l-397 207l8 48l434 -233l-8 -44l-498 -233l8 48z" />
    <glyph glyph-name="slash" unicode="/" horiz-adv-x="594" 
d="M617 691h46l-602 -779h-46z" />
    <glyph glyph-name="percent" unicode="%" horiz-adv-x="904" 
d="M415 516q0 -36 -9.5 -75t-30.5 -71.5t-54 -53t-81 -20.5q-36 0 -60 12.5t-38.5 33.5t-20.5 47.5t-6 54.5q0 35 8 74.5t28.5 72.5t54.5 54.5t86 21.5q35 0 58.5 -13t38 -34t20.5 -48.5t6 -55.5zM245 333q10 0 32 5t44 23.5t38.5 55t16.5 99.5q0 39 -10 61.5t-24.5 34
t-30 15t-25.5 3.5q-14 0 -36.5 -5.5t-44.5 -24t-37.5 -54.5t-15.5 -96q0 -40 11.5 -63t26.5 -35t30.5 -15.5t24.5 -3.5zM268 0h-48l505 674h48zM885 235q0 -36 -8.5 -75.5t-29 -72t-54.5 -54t-84 -21.5q-35 0 -59 13t-38.5 34t-20.5 48t-6 55q0 36 9 75t29.5 72t54.5 54.5
t84 21.5q36 0 59.5 -13t37.5 -34t20 -48t6 -55zM715 51q11 0 33.5 5t44.5 23.5t38.5 54.5t16.5 98q0 39 -10.5 62t-25 34.5t-30.5 15t-26 3.5q-14 0 -36.5 -5.5t-44 -24t-37 -54.5t-15.5 -96q0 -39 11 -62t26 -35t30.5 -15.5t24.5 -3.5z" />
    <glyph glyph-name="plus" unicode="+" horiz-adv-x="614" 
d="M620 386l-8 -43h-235l-28 -213h-45l28 213h-234l8 43h234l28 214h45l-28 -214h235z" />
    <glyph glyph-name="asciitilde" unicode="~" horiz-adv-x="557" 
d="M567 411q-2 -14 -8.5 -35.5t-21 -42.5t-39 -36t-62.5 -15q-23 0 -55.5 10.5t-65.5 23l-62 23t-46 10.5q-20 0 -33.5 -6t-21.5 -16t-12.5 -24t-7.5 -30h-42q1 14 7.5 36t21.5 42.5t39.5 35.5t62.5 15q26 0 58.5 -10.5t64.5 -23l60.5 -23t46.5 -10.5q21 0 34 6t21 16t12 24
t7 30h42z" />
    <glyph glyph-name="braceleft" unicode="{" horiz-adv-x="416" 
d="M94 322q45 1 76 28.5t36 69.5l17 134q9 70 49.5 103.5t124.5 33.5h65l-4 -41h-72q-54 0 -80.5 -21t-32.5 -69l-18 -140q-6 -46 -33.5 -74.5t-62.5 -43.5q28 -14 45.5 -36t17.5 -62q0 -8 -3.5 -34t-8 -56t-8 -57.5t-3.5 -37.5q0 -35 19.5 -50.5t67.5 -15.5h72l-4 -41h-65
q-75 0 -105.5 26t-30.5 80q0 8 3 34.5t7 56.5t7 56t3 34q0 36 -20.5 59.5t-62.5 23.5z" />
    <glyph glyph-name="braceright" unicode="}" horiz-adv-x="416" 
d="M406 281q-45 -1 -76 -28.5t-36 -69.5l-17 -134q-9 -70 -49.5 -103.5t-124.5 -33.5h-65l4 41h72q54 0 80.5 21t32.5 69l18 140q6 46 33.5 74.5t62.5 43.5q-28 14 -45.5 36t-17.5 62q0 7 3.5 33t8 56t8 57.5t3.5 38.5q0 35 -19.5 50.5t-67.5 15.5h-72l4 41h65
q75 0 105.5 -26t30.5 -80q0 -8 -3 -34.5t-7 -56.5t-7 -56.5t-3 -33.5q0 -36 20.5 -59.5t62.5 -23.5z" />
    <glyph glyph-name="bracketleft" unicode="[" horiz-adv-x="351" 
d="M38 -88l116 821h251l-8 -41h-201l-104 -739h201l-4 -41h-251z" />
    <glyph glyph-name="bracketright" unicode="]" horiz-adv-x="351" 
d="M289 -88h-251l4 41h200l104 739h-200l8 41h251z" />
    <glyph glyph-name="parenleft" unicode="(" horiz-adv-x="328" 
d="M210 -78q-57 63 -88.5 149t-31.5 183q0 70 16.5 134t46.5 122t72.5 109t94.5 95h58q-8 -6 -29 -24t-48 -46.5t-56 -67.5t-53 -87.5t-39.5 -106.5t-15.5 -124q0 -62 13 -115t32.5 -96t42.5 -74.5t43 -50.5h-58z" />
    <glyph glyph-name="parenright" unicode=")" horiz-adv-x="328" 
d="M208 714q58 -63 88 -147.5t30 -181.5q0 -148 -60.5 -261.5t-169.5 -201.5h-58q8 6 29 24t48 46.5t56 67.5t53 87.5t39.5 106.5t15.5 124q0 61 -13 113.5t-32.5 95.5t-42 75t-41.5 52h58z" />
    <glyph glyph-name="guilsinglleft" unicode="&#x2039;" horiz-adv-x="308" 
d="M258 0h-51l-125 231l189 230h51l-183 -230z" />
    <glyph glyph-name="guilsinglright" unicode="&#x203a;" horiz-adv-x="308" 
d="M50 0l183 231l-119 230h50l126 -230l-190 -231h-50z" />
    <glyph glyph-name="bar" unicode="|" horiz-adv-x="139" 
d="M150 738h39l-124 -901h-39z" />
    <glyph glyph-name="degree" unicode="&#xb0;" horiz-adv-x="402" 
d="M252 371q-29 0 -53 9.5t-41.5 26.5t-27.5 39.5t-10 48.5q0 32 14 60.5t37 49.5t54 33.5t66 12.5q28 0 52.5 -9.5t42.5 -26.5t28 -39.5t10 -48.5q0 -32 -14 -60.5t-38 -49.5t-55 -33.5t-65 -12.5zM287 616q-24 0 -46 -9.5t-39 -25.5t-27.5 -37.5t-10.5 -44.5
q0 -37 26 -64.5t68 -27.5q24 0 46 9.5t39 25t27 36.5t10 45q0 39 -25.5 66t-67.5 27z" />
    <glyph glyph-name="underscore" unicode="_" horiz-adv-x="638" 
d="M42 -58l4 31h538l-4 -31h-538z" />
    <glyph glyph-name="hyphen" unicode="-" horiz-adv-x="382" 
d="M90 273l8 51h282l-8 -51h-282z" />
    <glyph glyph-name="endash" unicode="&#x2013;" horiz-adv-x="728" 
d="M90 273l4 39h628l-4 -39h-628z" />
    <glyph glyph-name="emdash" unicode="&#x2014;" horiz-adv-x="988" 
d="M90 273l4 39h888l-4 -39h-888z" />
    <glyph glyph-name="asterisk" unicode="*" horiz-adv-x="387" 
d="M421 609l-126 -61l110 -61l-19 -22l-107 61l-16 -121h-28l16 121l-123 -61l-10 22l126 61l-110 62l18 22l107 -62l16 121h28l-16 -121l124 61z" />
    <glyph glyph-name="periodcentered" unicode="&#xb7;" horiz-adv-x="216" 
d="M98 348q0 24 21 41.5t45 17.5q23 0 37.5 -13t14.5 -33q0 -25 -20 -43t-48 -18q-21 0 -35.5 13.5t-14.5 34.5z" />
    <glyph glyph-name="bullet" unicode="&#x2022;" horiz-adv-x="304" 
d="M102 359q0 21 9.5 40t25 32.5t36 21.5t43.5 8q40 0 65 -24t25 -59q0 -22 -9 -41t-25 -33t-36.5 -22t-43.5 -8q-39 0 -64.5 25t-25.5 60z" />
    <glyph glyph-name="ellipsis" unicode="&#x2026;" horiz-adv-x="561" 
d="M50 0l8 67h56l-8 -67h-56zM455 0l8 67h56l-8 -67h-56zM253 0l8 67h56l-8 -67h-56z" />
    <glyph glyph-name="colon" unicode=":" horiz-adv-x="156" 
d="M170 461l-8 -66h-56l8 66h56zM106 0h-56l8 67h56z" />
    <glyph glyph-name="semicolon" unicode=";" horiz-adv-x="188" 
d="M194 395h-56l8 66h56zM38 -87l48 154h60l-74 -154h-34z" />
    <glyph glyph-name="comma" unicode="," horiz-adv-x="188" 
d="M38 -87l48 154h60l-74 -154h-34z" />
    <glyph glyph-name="period" unicode="." horiz-adv-x="156" 
d="M106 0h-56l8 67h56z" />
    <glyph glyph-name="quotedblleft" unicode="&#x201c;" horiz-adv-x="341" 
d="M387 691l-47 -154h-62l76 154h33zM234 691l-48 -154h-60l75 154h33z" />
    <glyph glyph-name="quotedblright" unicode="&#x201d;" horiz-adv-x="316" 
d="M254 536l46 155h62l-76 -155h-32zM234 691l-75 -155h-33l48 155h60z" />
    <glyph glyph-name="quoteleft" unicode="&#x2018;" horiz-adv-x="188" 
d="M234 691l-48 -154h-60l75 154h33z" />
    <glyph glyph-name="quoteright" unicode="&#x2019;" horiz-adv-x="188" 
d="M126 537l48 154h60l-75 -154h-33z" />
    <glyph glyph-name="b" unicode="b" horiz-adv-x="546" 
d="M233 738l-47 -330l40.5 21t44.5 20t47.5 14.5t50.5 5.5q51 0 83.5 -19.5t51 -48.5t25 -62.5t6.5 -61.5q0 -81 -21.5 -135.5t-55 -87.5t-74 -47t-79.5 -14q-79 0 -158 54l-35 -47h-27l104 738h44zM145 102q0 -3 15.5 -14t39.5 -23.5t53 -22t56 -9.5q28 0 59.5 12t58.5 39
t45 70.5t18 107.5q0 18 -4 46t-17 54.5t-38 46t-66 19.5q-29 0 -59 -9t-56.5 -20t-45 -21.5t-23.5 -14.5z" />
    <glyph glyph-name="a" unicode="a" horiz-adv-x="503" 
d="M464 462l15 -32l-59 -430h-27l-19 40q-45 -25 -85 -36t-78 -11q-79 0 -117 49t-38 143q0 75 27 128t69 86.5t93.5 48.5t100.5 15zM335 422q-48 0 -90.5 -17t-74 -49t-50 -77.5t-18.5 -102.5q0 -26 5 -52t18 -46t35 -32.5t57 -12.5q31 0 60.5 9.5t53 21.5t38.5 22.5
t18 11.5l49 324h-101z" />
    <glyph glyph-name="e" unicode="e" horiz-adv-x="503" 
d="M317 428q-30 0 -59 -11.5t-54.5 -32.5t-45 -52t-29.5 -70h318q0 78 -33.5 122t-96.5 44zM267 33q54 0 91 15t68 34l8 -43q-37 -18 -77.5 -32t-94.5 -14q-32 0 -64.5 9.5t-58.5 32t-42.5 59.5t-16.5 92q0 64 20 116.5t53 89.5t76.5 57t91.5 20q37 0 68.5 -13.5t54.5 -39
t36 -61.5t13 -81v-16l-32 -37h-336q-1 -7 -1.5 -14t-0.5 -15q0 -29 8 -57.5t25.5 -51t44.5 -36.5t66 -14z" />
    <glyph glyph-name="d" unicode="d" horiz-adv-x="546" 
d="M241 -7q-30 0 -59.5 9.5t-52.5 32.5t-37 61t-14 94q0 20 3.5 49t13 60t25.5 61.5t41.5 54.5t61.5 39t84 15q25 0 48.5 -5.5t44.5 -14.5t39.5 -20l34.5 -21l47 330l42 -7l-102 -731h-27l-23 47q-95 -54 -170 -54zM301 428q-40 0 -73 -19.5t-56.5 -52t-36.5 -74t-13 -85.5
q0 -47 11 -78.5t28.5 -50.5t39.5 -27t44 -8q27 0 58.5 9.5t59 22t47 23.5t21.5 14l36 261q-4 4 -20 14.5t-39 22t-51 20t-56 8.5z" />
    <glyph glyph-name="ampersand" unicode="&#x26;" horiz-adv-x="629" 
d="M579 0h-47l-54 82q-54 -48 -107 -68.5t-98 -20.5q-36 0 -71.5 10.5t-64 31.5t-46 51.5t-17.5 71.5q0 93 93 155l110 75l-43 62q-21 30 -28 52.5t-7 39.5q0 45 17.5 75t44.5 48.5t58 26t58 7.5q63 0 95.5 -33t32.5 -88q0 -22 -8.5 -43t-28.5 -44t-54.5 -50.5t-86.5 -61.5
l156 -230q21 24 35.5 53t27.5 65h46q-19 -51 -40 -87.5t-47 -67.5zM311 410q47 33 77 56.5t47 41.5t23.5 33t6.5 31q0 40 -23 64.5t-68 24.5q-29 0 -53.5 -8.5t-42.5 -23.5t-28 -36t-10 -46q0 -24 17 -56zM279 37q38 0 84 19t91 61l-158 238l-123 -86q-29 -20 -42.5 -49
t-13.5 -60q0 -23 10.5 -45.5t30.5 -39.5t50.5 -27.5t70.5 -10.5z" />
    <glyph glyph-name="numbersign" unicode="#" horiz-adv-x="708" 
d="M718 431h-157l-39 -161h137l-4 -42h-141l-52 -228h-42l51 228h-185l-52 -228h-43l52 228h-161l4 42h165l38 161h-144l8 41h147l48 219h44l-49 -219h186l48 219h43l-48 -219h154zM480 270l38 161h-186l-38 -161h186z" />
    <glyph glyph-name="equal" unicode="=" horiz-adv-x="614" 
d="M82 228l8 44h514l-8 -44h-514zM628 446h-514l4 43h514z" />
    <glyph glyph-name="quotesingle" unicode="'" horiz-adv-x="188" 
d="M126 537l48 154h60l-74 -154h-34z" />
    <glyph glyph-name="quotedbl" unicode="&#x22;" horiz-adv-x="341" 
d="M126 537l48 154h60l-74 -154h-34zM278 537l47 154h62l-75 -154h-34z" />
    <glyph glyph-name="ogonek" unicode="&#x2db;" horiz-adv-x="270" 
d="M157 -38q-16 -3 -30.5 -12.5t-25.5 -22.5t-17.5 -27t-6.5 -27q0 -18 12.5 -28t29.5 -10q26 0 64 21l10 -37q-44 -24 -86 -24q-35 0 -55.5 16.5t-20.5 50.5q0 36 27 72t84 62z" />
    <glyph glyph-name="ntilde" unicode="&#xf1;" horiz-adv-x="535" 
d="M279 594q-24 0 -33.5 -16t-13.5 -35h-29q1 12 6 28t14.5 30.5t25 25t37.5 10.5q16 0 36.5 -8t40.5 -17.5l38 -17.5t29 -8q22 0 31.5 14t13.5 37h29q-2 -12 -6.5 -28t-14 -30.5t-24.5 -24.5t-38 -10q-14 0 -34 8t-40 17l-38.5 17t-29.5 8zM373 469q43 0 70 -13t40.5 -34.5
t16.5 -49.5t-1 -58l-44 -314h-45l44 319q7 48 -11 78.5t-73 30.5q-32 0 -65 -10t-60 -22t-44 -22.5l-17 -10.5l-52 -363h-44l64 461h29l21 -43q2 0 3 1l25.5 13.5t39 16.5t48.5 14t55 6z" />
    <glyph glyph-name="Ntilde" unicode="&#xd1;" horiz-adv-x="733" 
d="M401 806q-24 0 -33.5 -16.5t-13.5 -34.5h-29q1 12 6.5 28t16 30.5t26.5 24.5t38 10q16 0 36.5 -8t40.5 -17l38 -17t29 -8q22 0 31.5 14t13.5 37h29q-2 -12 -7 -28t-15 -30.5t-26 -25t-39 -10.5q-14 0 -34 8t-40 17.5l-38.5 17.5t-29.5 8zM736 691l-96 -691h-39l-383 609
l-84 -609h-43l96 691h39l382 -609l84 609h44z" />
    <glyph glyph-name="ugrave" unicode="&#xf9;" horiz-adv-x="541" 
d="M360 543l-46 131h66q2 -8 5 -38l9 -93h-34zM470 461h44l-64 -461h-27l-23 44q-9 -6 -27 -14.5t-41.5 -17t-51.5 -14t-56 -5.5q-35 0 -58.5 9t-37.5 24.5t-20 36.5t-6 45q0 20 3 41l44 312h43l-44 -319q-1 -8 -1.5 -14t-0.5 -13q0 -37 18.5 -59.5t66.5 -22.5q32 0 65 10
t60 22t44 22t18 10z" />
    <glyph glyph-name="uacute" unicode="&#xfa;" horiz-adv-x="541" 
d="M332 543h-34l46 131h66zM470 461h44l-64 -461h-27l-23 44q-9 -6 -27 -14.5t-41.5 -17t-51.5 -14t-56 -5.5q-35 0 -58.5 9t-37.5 24.5t-20 36.5t-6 45q0 20 3 41l44 312h43l-44 -319q-1 -8 -1.5 -14t-0.5 -13q0 -37 18.5 -59.5t66.5 -22.5q32 0 65 10t60 22t44 22t18 10z
" />
    <glyph glyph-name="ucircumflex" unicode="&#xfb;" horiz-adv-x="541" 
d="M305 543h-52l88 112h40l57 -112h-53l-32 82zM470 461h44l-64 -461h-27l-23 44q-9 -6 -27 -14.5t-41.5 -17t-51.5 -14t-56 -5.5q-35 0 -58.5 9t-37.5 24.5t-20 36.5t-6 45q0 20 3 41l44 312h43l-44 -319q-1 -8 -1.5 -14t-0.5 -13q0 -37 18.5 -59.5t66.5 -22.5q32 0 65 10
t60 22t44 22t18 10z" />
    <glyph glyph-name="udieresis" unicode="&#xfc;" horiz-adv-x="541" 
d="M471 543h-68l8 80h68zM290 543h-68l8 80h68zM470 461h44l-64 -461h-27l-23 44q-9 -6 -27 -14.5t-41.5 -17t-51.5 -14t-56 -5.5q-35 0 -58.5 9t-37.5 24.5t-20 36.5t-6 45q0 20 3 41l44 312h43l-44 -319q-1 -8 -1.5 -14t-0.5 -13q0 -37 18.5 -59.5t66.5 -22.5q32 0 65 10
t60 22t44 22t18 10z" />
    <glyph glyph-name="Ucircumflex" unicode="&#xdb;" horiz-adv-x="714" 
d="M422 755h-53l89 112h40l57 -112h-53l-28 82zM650 226q-8 -53 -29 -91t-49 -64t-60.5 -41t-63 -23.5t-56 -11t-40.5 -2.5q-13 0 -35.5 2t-49 8.5t-53 19.5t-48.5 34t-36 52.5t-14 75.5q0 20 3 41l64 465h46l-65 -475q-2 -10 -2 -17v-9q0 -47 17 -77t45 -47t63.5 -23
t72.5 -6q40 0 80.5 10.5t75 33.5t59 59t31.5 87l65 464h44z" />
    <glyph glyph-name="Uacute" unicode="&#xda;" horiz-adv-x="714" 
d="M448 755h-34q24 63 34 92.5t12 37.5h66zM650 226q-8 -53 -29 -91t-49 -64t-60.5 -41t-63 -23.5t-56 -11t-40.5 -2.5q-13 0 -35.5 2t-49 8.5t-53 19.5t-48.5 34t-36 52.5t-14 75.5q0 20 3 41l64 465h46l-65 -475q-2 -10 -2 -17v-9q0 -47 17 -77t45 -47t63.5 -23t72.5 -6
q40 0 80.5 10.5t75 33.5t59 59t31.5 87l65 464h44z" />
    <glyph glyph-name="Ugrave" unicode="&#xd9;" horiz-adv-x="714" 
d="M476 755l-46 130h66q2 -8 5 -37.5l9 -92.5h-34zM650 226q-8 -53 -29 -91t-49 -64t-60.5 -41t-63 -23.5t-56 -11t-40.5 -2.5q-13 0 -35.5 2t-49 8.5t-53 19.5t-48.5 34t-36 52.5t-14 75.5q0 20 3 41l64 465h46l-65 -475q-2 -10 -2 -17v-9q0 -47 17 -77t45 -47t63.5 -23
t72.5 -6q40 0 80.5 10.5t75 33.5t59 59t31.5 87l65 464h44z" />
    <glyph glyph-name="Udieresis" unicode="&#xdc;" horiz-adv-x="714" 
d="M586 755h-68l12 80h68zM406 755h-68l12 80h68zM718 691l-65 -465q-7 -53 -28 -91t-49.5 -64t-61 -41t-63 -23.5t-56 -11t-39.5 -2.5t-39 2.5t-53.5 10.5t-57 23.5t-50 41t-32 63.5t-2.5 92l64 465h46l-65 -463q-7 -51 7 -87.5t42 -59.5t66.5 -33.5t79.5 -10.5
q40 0 81 10.5t75.5 33.5t59 59t31.5 87l65 464h44z" />
    <glyph glyph-name="oslash" unicode="&#xf8;" horiz-adv-x="555" 
d="M472 428q34 -27 52 -68t18 -95q0 -59 -21.5 -109t-57.5 -86t-84 -56.5t-102 -20.5q-29 0 -53.5 6.5t-46.5 17.5l-45 -63h-48l61 84q-32 27 -49 68t-17 92q0 58 21 107.5t57.5 86t84.5 57t102 20.5q18 0 31.5 -1.5t24 -4t19.5 -6t20 -8.5l46 64h48zM122 202
q0 -40 13 -72.5t36 -54.5l241 337q-28 16 -73 16q-44 0 -83.5 -17t-69 -47t-47 -71.5t-17.5 -90.5zM283 33q43 0 82 17t68.5 47t47 71t17.5 89q0 42 -14 77t-39 57l-242 -339q34 -19 80 -19z" />
    <glyph glyph-name="ocircumflex" unicode="&#xf4;" horiz-adv-x="553" 
d="M311 543h-52l88 112h40l57 -112h-53l-29 82zM342 469q43 0 79.5 -15t62.5 -42t40.5 -65t14.5 -84q0 -59 -21 -108.5t-57 -85.5t-84 -56t-101 -20q-44 0 -80.5 15t-62.5 42t-40.5 65t-14.5 84q0 58 21 107.5t57 85.5t84 56.5t102 20.5zM121 203q0 -38 11.5 -69t33 -53.5
t51 -35t65.5 -12.5q43 0 82 16.5t68.5 46.5t46.5 71.5t17 91.5q0 37 -11.5 68t-32.5 53.5t-50.5 35t-64.5 12.5q-45 0 -84 -16.5t-68.5 -46.5t-46.5 -71.5t-17 -90.5z" />
    <glyph glyph-name="oacute" unicode="&#xf3;" horiz-adv-x="553" 
d="M339 543h-35l49 131h66zM342 469q43 0 79.5 -15t62.5 -42t40.5 -65t14.5 -84q0 -59 -21 -108.5t-57 -85.5t-84 -56t-101 -20q-44 0 -80.5 15t-62.5 42t-40.5 65t-14.5 84q0 58 21 107.5t57 85.5t84 56.5t102 20.5zM121 203q0 -38 11.5 -69t33 -53.5t51 -35t65.5 -12.5
q43 0 82 16.5t68.5 46.5t46.5 71.5t17 91.5q0 37 -11.5 68t-32.5 53.5t-50.5 35t-64.5 12.5q-45 0 -84 -16.5t-68.5 -46.5t-46.5 -71.5t-17 -90.5z" />
    <glyph glyph-name="ograve" unicode="&#xf2;" horiz-adv-x="553" 
d="M366 543l-44 131h66l13 -131h-35zM342 469q43 0 79.5 -15t62.5 -42t40.5 -65t14.5 -84q0 -59 -21 -108.5t-57 -85.5t-84 -56t-101 -20q-44 0 -80.5 15t-62.5 42t-40.5 65t-14.5 84q0 58 21 107.5t57 85.5t84 56.5t102 20.5zM121 203q0 -38 11.5 -69t33 -53.5t51 -35
t65.5 -12.5q43 0 82 16.5t68.5 46.5t46.5 71.5t17 91.5q0 37 -11.5 68t-32.5 53.5t-50.5 35t-64.5 12.5q-45 0 -84 -16.5t-68.5 -46.5t-46.5 -71.5t-17 -90.5z" />
    <glyph glyph-name="odieresis" unicode="&#xf6;" horiz-adv-x="553" 
d="M477 543h-68l11 81h68zM297 543h-68l11 81h68zM342 469q43 0 79.5 -15t62.5 -42t40.5 -65t14.5 -84q0 -59 -21 -108.5t-57 -85.5t-84 -56t-101 -20q-44 0 -80.5 15t-62.5 42t-40.5 65t-14.5 84q0 58 21 107.5t57 85.5t84 56.5t102 20.5zM121 203q0 -38 11.5 -69t33 -53.5
t51 -35t65.5 -12.5q43 0 82 16.5t68.5 46.5t46.5 71.5t17 91.5q0 37 -11.5 68t-32.5 53.5t-50.5 35t-64.5 12.5q-45 0 -84 -16.5t-68.5 -46.5t-46.5 -71.5t-17 -90.5z" />
    <glyph glyph-name="otilde" unicode="&#xf5;" horiz-adv-x="553" 
d="M282 595q-24 0 -33 -16.5t-13 -35.5h-29q1 12 6 28t14.5 31t25 25t38.5 10q16 0 36.5 -8t41 -17.5l38.5 -17.5t29 -8q22 0 31 14.5t13 37.5h29q-2 -12 -6.5 -28t-14 -31t-25 -25t-38.5 -10q-14 0 -34 8t-40.5 17.5l-39 17.5t-29.5 8zM342 469q43 0 79.5 -15t62.5 -42
t40.5 -65t14.5 -84q0 -59 -21 -108.5t-57 -85.5t-84 -56t-101 -20q-44 0 -80.5 15t-62.5 42t-40.5 65t-14.5 84q0 58 21 107.5t57 85.5t84 56.5t102 20.5zM121 203q0 -38 11.5 -69t33 -53.5t51 -35t65.5 -12.5q43 0 82 16.5t68.5 46.5t46.5 71.5t17 91.5q0 37 -11.5 68
t-32.5 53.5t-50.5 35t-64.5 12.5q-45 0 -84 -16.5t-68.5 -46.5t-46.5 -71.5t-17 -90.5z" />
    <glyph glyph-name="Oslash" unicode="&#xd8;" 
d="M477 700q48 0 86.5 -10t70.5 -28l53 75h52l-71 -99q54 -45 77.5 -109.5t23.5 -136.5q0 -75 -24.5 -146.5t-72 -127.5t-118 -90.5t-161.5 -34.5q-49 0 -88.5 10t-70.5 27l-53 -73h-52l70 98q-54 45 -77 109t-23 133q0 72 24 144t71.5 129.5t118.5 93.5t164 36zM145 304
q0 -78 22.5 -129t57.5 -83l385 537q-29 17 -62.5 25.5t-67.5 8.5q-57 0 -116.5 -22t-108 -67t-79.5 -112.5t-31 -157.5zM391 34q53 0 112 20t108 62.5t81 109.5t32 161q0 78 -22.5 130.5t-58.5 85.5l-383 -536q30 -18 64 -25.5t67 -7.5z" />
    <glyph glyph-name="Ocircumflex" unicode="&#xd4;" 
d="M451 756h-52l87 112h40l58 -112h-53l-29 82zM477 700q80 0 135.5 -26.5t90.5 -70t50.5 -98.5t15.5 -113q0 -75 -24.5 -146.5t-72 -127.5t-118 -90.5t-161.5 -34.5q-80 0 -136 26.5t-91 69t-51 97t-16 111.5q0 72 24 144t71.5 129.5t118.5 93.5t164 36zM391 34
q53 0 112 20t108 62.5t81 109.5t32 161q0 75 -21 127.5t-55 85.5t-78 48t-90 15q-57 0 -116.5 -22t-108 -67t-79.5 -112.5t-31 -157.5q0 -77 22.5 -128.5t57.5 -83t79 -45t87 -13.5z" />
    <glyph glyph-name="Otilde" unicode="&#xd5;" 
d="M422 806q-24 0 -33.5 -16.5t-12.5 -34.5h-29q1 12 6 28t14.5 30.5t25 24.5t38.5 10q16 0 36.5 -8t40.5 -17l38 -17t29 -8q22 0 31.5 14t13.5 37h29q-2 -12 -6.5 -28t-14 -30.5t-25 -25t-38.5 -10.5q-14 0 -34 8t-40.5 17.5l-39 17.5t-29.5 8zM477 700q80 0 135.5 -26.5
t90.5 -70t50.5 -98.5t15.5 -113q0 -75 -24.5 -146.5t-72 -127.5t-118 -90.5t-161.5 -34.5q-80 0 -136 26.5t-91 69t-51 97t-16 111.5q0 72 24 144t71.5 129.5t118.5 93.5t164 36zM391 34q53 0 112 20t108 62.5t81 109.5t32 161q0 75 -21 127.5t-55 85.5t-78 48t-90 15
q-57 0 -116.5 -22t-108 -67t-79.5 -112.5t-31 -157.5q0 -77 22.5 -128.5t57.5 -83t79 -45t87 -13.5z" />
    <glyph glyph-name="Ograve" unicode="&#xd2;" 
d="M505 755l-45 130h66l13 -130h-34zM477 700q80 0 135.5 -26.5t90.5 -70t50.5 -98.5t15.5 -113q0 -75 -24.5 -146.5t-72 -127.5t-118 -90.5t-161.5 -34.5q-80 0 -136 26.5t-91 69t-51 97t-16 111.5q0 72 24 144t71.5 129.5t118.5 93.5t164 36zM391 34q53 0 112 20t108 62.5
t81 109.5t32 161q0 75 -21 127.5t-55 85.5t-78 48t-90 15q-57 0 -116.5 -22t-108 -67t-79.5 -112.5t-31 -157.5q0 -77 22.5 -128.5t57.5 -83t79 -45t87 -13.5z" />
    <glyph glyph-name="Oacute" unicode="&#xd3;" 
d="M479 755h-34l47 130h66zM477 700q80 0 135.5 -26.5t90.5 -70t50.5 -98.5t15.5 -113q0 -75 -24.5 -146.5t-72 -127.5t-118 -90.5t-161.5 -34.5q-80 0 -136 26.5t-91 69t-51 97t-16 111.5q0 72 24 144t71.5 129.5t118.5 93.5t164 36zM391 34q53 0 112 20t108 62.5t81 109.5
t32 161q0 75 -21 127.5t-55 85.5t-78 48t-90 15q-57 0 -116.5 -22t-108 -67t-79.5 -112.5t-31 -157.5q0 -77 22.5 -128.5t57.5 -83t79 -45t87 -13.5z" />
    <glyph glyph-name="Odieresis" unicode="&#xd6;" 
d="M616 755h-68l11 80h68zM436 755h-68l11 80h68zM484 700q75 0 129 -26.5t88.5 -69.5t51 -97.5t16.5 -111.5q0 -70 -24.5 -141.5t-73 -129.5t-120.5 -94.5t-166 -36.5q-76 0 -130 26.5t-88.5 69.5t-51 98t-16.5 112q0 69 24.5 140.5t73 129t120.5 94.5t167 37zM391 34
q53 0 112 19t108 62t81 112t32 170q0 69 -21 119t-55 82.5t-78.5 48.5t-90.5 16q-57 0 -116.5 -21.5t-107.5 -66.5t-79 -114.5t-31 -165.5q0 -71 22.5 -121t57.5 -81t79 -45t87 -14z" />
    <glyph glyph-name="iacute" unicode="&#xed;" horiz-adv-x="241" 
d="M182 544h-35l51 130h66zM163 461h43l-64 -461h-43z" />
    <glyph glyph-name="Idieresis" unicode="&#xcf;" horiz-adv-x="230" 
d="M356 835l-12 -80h-69l12 80h69zM107 835h68l-12 -80h-68zM189 691h44l-96 -691h-44z" />
    <glyph glyph-name="Icircumflex" unicode="&#xce;" horiz-adv-x="230" 
d="M311 755h-52l-28 82l-53 -82h-52l88 112h41zM189 691h44l-96 -691h-44z" />
    <glyph glyph-name="Iacute" unicode="&#xcd;" horiz-adv-x="230" 
d="M204 755h-34l35.5 93t14.5 37h66zM189 691h44l-96 -691h-44z" />
    <glyph glyph-name="Igrave" unicode="&#xcc;" horiz-adv-x="230" 
d="M233 755l-43 130h66l11 -130h-34zM189 691h44l-96 -691h-44z" />
    <glyph glyph-name="eacute" unicode="&#xe9;" horiz-adv-x="503" 
d="M314 543h-34l49 131h66zM317 428q-30 0 -59 -11.5t-54.5 -32.5t-45 -52t-29.5 -70h318q0 78 -33.5 122t-96.5 44zM267 33q54 0 91 15t68 34l8 -43q-37 -18 -77.5 -32t-94.5 -14q-32 0 -64.5 9.5t-58.5 32t-42.5 59.5t-16.5 92q0 64 20 116.5t53 89.5t76.5 57t91.5 20
q37 0 68.5 -13.5t54.5 -39t36 -61.5t13 -81v-16l-32 -37h-336q-1 -7 -1.5 -14t-0.5 -15q0 -29 8 -57.5t25.5 -51t44.5 -36.5t66 -14z" />
    <glyph glyph-name="egrave" unicode="&#xe8;" horiz-adv-x="503" 
d="M341 543l-44 131h66l12 -131h-34zM317 428q-30 0 -59 -11.5t-54.5 -32.5t-45 -52t-29.5 -70h318q0 78 -33.5 122t-96.5 44zM267 33q54 0 91 15t68 34l8 -43q-37 -18 -77.5 -32t-94.5 -14q-32 0 -64.5 9.5t-58.5 32t-42.5 59.5t-16.5 92q0 64 20 116.5t53 89.5t76.5 57
t91.5 20q37 0 68.5 -13.5t54.5 -39t36 -61.5t13 -81v-16l-32 -37h-336q-1 -7 -1.5 -14t-0.5 -15q0 -29 8 -57.5t25.5 -51t44.5 -36.5t66 -14z" />
    <glyph glyph-name="ecircumflex" unicode="&#xea;" horiz-adv-x="503" 
d="M288 543h-53l89 113h40l57 -113h-53l-29 83zM317 428q-30 0 -59 -11.5t-54.5 -32.5t-45 -52t-29.5 -70h318q0 78 -33.5 122t-96.5 44zM267 33q54 0 91 15t68 34l8 -43q-37 -18 -77.5 -32t-94.5 -14q-32 0 -64.5 9.5t-58.5 32t-42.5 59.5t-16.5 92q0 64 20 116.5t53 89.5
t76.5 57t91.5 20q37 0 68.5 -13.5t54.5 -39t36 -61.5t13 -81v-16l-32 -37h-336q-1 -7 -1.5 -14t-0.5 -15q0 -29 8 -57.5t25.5 -51t44.5 -36.5t66 -14z" />
    <glyph glyph-name="edieresis" unicode="&#xeb;" horiz-adv-x="503" 
d="M452 543h-68l11 81h68zM271 543h-68l11 81h68zM317 428q-30 0 -59 -11.5t-54.5 -32.5t-45 -52t-29.5 -70h318q0 78 -33.5 122t-96.5 44zM267 33q54 0 91 15t68 34l8 -43q-37 -18 -77.5 -32t-94.5 -14q-32 0 -64.5 9.5t-58.5 32t-42.5 59.5t-16.5 92q0 64 20 116.5
t53 89.5t76.5 57t91.5 20q37 0 68.5 -13.5t54.5 -39t36 -61.5t13 -81v-16l-32 -37h-336q-1 -7 -1.5 -14t-0.5 -15q0 -29 8 -57.5t25.5 -51t44.5 -36.5t66 -14z" />
    <glyph glyph-name="acircumflex" unicode="&#xe2;" horiz-adv-x="506" 
d="M269 543h-53l88 112h40l58 -112h-53l-29 82zM464 462l15 -32l-59 -430h-27l-19 40q-45 -25 -85 -36t-78 -11q-79 0 -117 49t-38 143q0 75 27 128t69 86.5t93.5 48.5t100.5 15zM335 422q-48 0 -90.5 -17t-74 -49t-50 -77.5t-18.5 -102.5q0 -26 5 -52t18 -46t35 -32.5
t57 -12.5q31 0 60.5 9.5t53 21.5t38.5 22.5t18 11.5l49 324h-101z" />
    <glyph glyph-name="atilde" unicode="&#xe3;" horiz-adv-x="506" 
d="M239 594q-25 0 -34 -16t-11 -35h-30q2 12 7 28t15 30.5t25.5 25t38.5 10.5q15 0 35 -8t40.5 -17.5l38.5 -17.5t29 -8q22 0 31.5 14t13.5 37h30q-2 -12 -7 -28t-15 -30.5t-25.5 -24.5t-38.5 -10q-14 0 -33.5 8l-40.5 17l-39.5 17t-29.5 8zM464 462l15 -32l-59 -430h-27
l-19 40q-45 -25 -85 -36t-78 -11q-79 0 -117 49t-38 143q0 75 27 128t69 86.5t93.5 48.5t100.5 15zM335 422q-48 0 -90.5 -17t-74 -49t-50 -77.5t-18.5 -102.5q0 -26 5 -52t18 -46t35 -32.5t57 -12.5q31 0 60.5 9.5t53 21.5t38.5 22.5t18 11.5l49 324h-101z" />
    <glyph glyph-name="aacute" unicode="&#xe1;" horiz-adv-x="506" 
d="M296 543h-35l49 131h66zM464 462l15 -32l-59 -430h-27l-19 40q-45 -25 -85 -36t-78 -11q-79 0 -117 49t-38 143q0 75 27 128t69 86.5t93.5 48.5t100.5 15zM335 422q-48 0 -90.5 -17t-74 -49t-50 -77.5t-18.5 -102.5q0 -26 5 -52t18 -46t35 -32.5t57 -12.5q31 0 60.5 9.5
t53 21.5t38.5 22.5t18 11.5l49 324h-101z" />
    <glyph glyph-name="agrave" unicode="&#xe0;" horiz-adv-x="506" 
d="M323 543l-44 131h66l12 -131h-34zM464 462l15 -32l-59 -430h-27l-19 40q-45 -25 -85 -36t-78 -11q-79 0 -117 49t-38 143q0 75 27 128t69 86.5t93.5 48.5t100.5 15zM335 422q-48 0 -90.5 -17t-74 -49t-50 -77.5t-18.5 -102.5q0 -26 5 -52t18 -46t35 -32.5t57 -12.5
q31 0 60.5 9.5t53 21.5t38.5 22.5t18 11.5l49 324h-101z" />
    <glyph glyph-name="aring" unicode="&#xe5;" horiz-adv-x="506" 
d="M309 543q-36 0 -58.5 25t-22.5 59q0 22 9 42t23.5 34t34 22.5t40.5 8.5q37 0 60.5 -25t23.5 -59q0 -23 -9 -42.5t-24.5 -33.5t-35.5 -22.5t-41 -8.5zM331 708q-32 0 -54.5 -22.5t-22.5 -54.5q0 -26 16 -43.5t43 -17.5q16 0 30 6t25 16.5t17.5 24.5t6.5 30
q0 26 -17.5 43.5t-43.5 17.5zM464 462l15 -32l-59 -430h-27l-19 40q-45 -25 -85 -36t-78 -11q-79 0 -117 49t-38 143q0 75 27 128t69 86.5t93.5 48.5t100.5 15zM335 422q-48 0 -90.5 -17t-74 -49t-50 -77.5t-18.5 -102.5q0 -26 5 -52t18 -46t35 -32.5t57 -12.5
q31 0 60.5 9.5t53 21.5t38.5 22.5t18 11.5l49 324h-101z" />
    <glyph glyph-name="adieresis" unicode="&#xe4;" horiz-adv-x="506" 
d="M439 543h-68l11 80h68zM259 543h-68l11 80h68zM464 462l15 -32l-59 -430h-27l-19 40q-45 -25 -85 -36t-78 -11q-79 0 -117 49t-38 143q0 75 27 128t69 86.5t93.5 48.5t100.5 15zM335 422q-48 0 -90.5 -17t-74 -49t-50 -77.5t-18.5 -102.5q0 -26 5 -52t18 -46t35 -32.5
t57 -12.5q31 0 60.5 9.5t53 21.5t38.5 22.5t18 11.5l49 324h-101z" />
    <glyph glyph-name="Aring" unicode="&#xc5;" horiz-adv-x="685" 
d="M669 0h-48l-64 217h-366l-128 -217h-47l388 670q-23 9 -38 30t-15 48q0 22 9.5 42t25 34t35.5 22.5t41 8.5q37 0 60.5 -25t23.5 -59q0 -35 -23 -63.5t-58 -37.5zM378 752q0 -26 17.5 -43.5t43.5 -17.5q15 0 29.5 6t26 16.5t18 24.5t6.5 30q0 26 -17.5 43t-43.5 17
q-15 0 -29.5 -6t-26 -16t-18 -24t-6.5 -30zM547 257l-117 380l-221 -380h338z" />
    <glyph glyph-name="Acircumflex" unicode="&#xc2;" horiz-adv-x="685" 
d="M406 755h-53l89 112h40l57 -112h-53l-28 82zM669 0h-48l-64 217h-367l-127 -217h-47l401 691h43zM547 257l-116 380l-221 -380h337z" />
    <glyph glyph-name="Aacute" unicode="&#xc1;" horiz-adv-x="685" 
d="M432 755h-34l36 92.5t14 37.5h66zM669 0h-48l-64 217h-367l-127 -217h-47l401 691h43zM547 257l-116 380l-221 -380h337z" />
    <glyph glyph-name="Atilde" unicode="&#xc3;" horiz-adv-x="685" 
d="M374 806q-25 0 -34.5 -16.5t-12.5 -34.5h-30q1 12 6.5 28t16 30.5t26.5 24.5t39 10q15 0 35 -8l40.5 -17l38.5 -17t29 -8q22 0 31.5 14t13.5 37h30q-2 -12 -7.5 -28t-16 -30.5t-26.5 -25t-38 -10.5q-14 0 -33.5 8t-39.5 17.5l-38.5 17.5t-29.5 8zM669 0h-48l-64 217h-367
l-127 -217h-47l401 691h43zM547 257l-116 380l-221 -380h337z" />
    <glyph glyph-name="Agrave" unicode="&#xc0;" horiz-adv-x="685" 
d="M460 755l-42 130h66q2 -8 3 -37.5t7 -92.5h-34zM669 0h-48l-64 217h-367l-127 -217h-47l401 691h43zM547 257l-116 380l-221 -380h337z" />
    <glyph glyph-name="Adieresis" unicode="&#xc4;" horiz-adv-x="685" 
d="M570 755h-68l12 80h68zM390 755h-68l12 80h68zM669 0h-48l-64 217h-367l-127 -217h-47l401 691h43zM547 257l-116 380l-221 -380h337z" />
    <glyph glyph-name="Ecircumflex" unicode="&#xca;" horiz-adv-x="514" 
d="M467 0h-374l96 691h374l-11 -40h-323l-36 -263h252l-15 -41h-245l-44 -306h330zM344 755h-53l89 112h40l57 -112h-53l-28 82z" />
    <glyph glyph-name="Egrave" unicode="&#xc8;" horiz-adv-x="514" 
d="M471 41l-4 -41h-374l96 691h374l-11 -40h-323l-36 -263h252l-15 -41h-245l-44 -306h330zM398 755l-42 130h66q2 -8 3 -37.5t7 -92.5h-34z" />
    <glyph glyph-name="Edieresis" unicode="&#xcb;" horiz-adv-x="514" 
d="M471 41l-4 -41h-374l96 691h374l-11 -40h-323l-36 -263h252l-15 -41h-245l-44 -306h330zM505 755h-68l12 80h68zM324 755h-68l12 80h68z" />
    <glyph glyph-name="Eacute" unicode="&#xc9;" horiz-adv-x="514" 
d="M471 41l-4 -41h-374l96 691h374l-11 -40h-323l-36 -263h252l-15 -41h-245l-44 -306h330zM370 755h-34l36 92.5t14 37.5h66z" />
    <glyph glyph-name="igrave" unicode="&#xec;" horiz-adv-x="230" 
d="M211 544l-42 130h66q0 -7 2 -37t8 -93h-34zM164 461h43l-65 -461h-43z" />
    <glyph glyph-name="icircumflex" unicode="&#xee;" horiz-adv-x="230" 
d="M283 544h-52l-28 82l-53 -82h-52l88 112h41zM163 461h43l-64 -461h-43z" />
    <glyph glyph-name="idieresis" unicode="&#xef;" horiz-adv-x="230" 
d="M258 624h68l-12 -80h-68zM77 624h69l-12 -80h-69zM163 461h43l-64 -461h-43z" />
    <glyph glyph-name="dotlessi" unicode="&#x131;" horiz-adv-x="342" 
d="M300 0h-51l56 414h-220l8 52h271z" />
    <glyph glyph-name="Ydieresis" unicode="&#x178;" horiz-adv-x="538" 
d="M497 755h-68l12 80h68zM317 755h-68l12 80h68zM618 691l-287 -392l-40 -299h-44l40 299l-175 392h45l156 -350l260 350h45z" />
    <glyph glyph-name="ydieresis" unicode="&#xff;" horiz-adv-x="477" 
d="M436 538h-68l11 80h68zM255 538h-68l11 80h68zM518 462l-285 -512q-32 -57 -76 -97.5t-113 -56.5l-6 43q40 6 67 22t46 38t34 48t32 52l-130 463h48l106 -414l232 414h45z" />
    <glyph glyph-name="Ccedilla" unicode="&#xc7;" horiz-adv-x="618" 
d="M333 -60q20 0 32.5 -6t19 -14.5t9 -18t2.5 -15.5q0 -14 -6.5 -28t-19 -26t-31.5 -19.5t-43 -7.5h-80l6 34h80q9 0 19.5 3t19 9t14.5 15t6 21q0 8 -7 14.5t-27 6.5h-64l28 93q-48 12 -80.5 41.5t-53 69.5t-29.5 86.5t-9 91.5q0 79 24 153t68.5 131t108 91.5t142.5 34.5
q12 0 32 -2t44 -8.5t49 -18.5t47 -33l-12 -45q-32 32 -71 48.5t-96 16.5q-50 0 -101 -22t-93 -67.5t-68.5 -115.5t-26.5 -166q0 -66 17 -114t45 -78.5t64.5 -45.5t74.5 -15q54 0 101 17.5t89 49.5v-45q-29 -21 -58 -33t-55.5 -19t-48 -9t-33.5 -2q-11 0 -20 0.5t-17 1.5
l-17 -55h25z" />
    <glyph glyph-name="uni03A9" unicode="&#x3a9;" horiz-adv-x="711" 
d="M457 87q78 38 120.5 119t42.5 185q0 40 -9 82t-29.5 76.5t-54 56.5t-82.5 22q-65 0 -113 -30.5t-80 -78.5t-48 -107.5t-16 -117.5q0 -69 22.5 -125t67.5 -82l-12 -87h-216l8 67h165q-19 10 -36.5 23.5t-31.5 31.5q-20 25 -33.5 66.5t-13.5 99.5q0 86 27 159.5t74.5 127
t111 84t135.5 30.5q57 0 102.5 -20t77 -57t48.5 -88.5t17 -114.5q0 -56 -10.5 -101t-27 -80.5t-37 -61.5t-41.5 -44q-20 -19 -40.5 -32.5t-45.5 -22.5h170l-8 -67h-216z" />
    <glyph glyph-name="ccedilla" unicode="&#xe7;" horiz-adv-x="447" 
d="M249 34q49 0 85.5 16t63.5 34l7 -44q-28 -18 -70.5 -32.5t-90.5 -14.5h-8l-16 -53h25q20 0 32.5 -6t19 -14.5t8.5 -18t2 -15.5q0 -14 -6 -28t-18 -26t-30 -19.5t-42 -7.5h-80l5 34h80q26 0 42 13t16 33q0 8 -6.5 15.5t-26.5 7.5h-65l26 90q-63 14 -94 66.5t-31 128.5
q0 63 16.5 115t46.5 89t72.5 57.5t94.5 20.5q48 0 88.5 -16.5t61.5 -37.5l-19 -43q-5 7 -17.5 16.5t-31 18t-41 14.5t-47.5 6q-20 0 -51 -8.5t-60.5 -33.5t-51 -71t-21.5 -120q0 -52 15.5 -84.5t36.5 -50.5t43.5 -24.5t36.5 -6.5z" />
    <glyph glyph-name="cedilla" unicode="&#xb8;" horiz-adv-x="268" 
d="M27 -168h80q9 0 20 3t20 9t15 14.5t6 20.5q0 8 -7 15.5t-27 7.5h-64l28 97l32 -6l-17 -59h25q20 0 32.5 -6.5t19 -15t9 -18t2.5 -15.5q0 -12 -6 -26t-18 -26.5t-31 -20.5t-44 -8h-80z" />
    <glyph glyph-name="mu" unicode="&#xb5;" horiz-adv-x="435" 
d="M449 461l-64 -461h-27l-16 44l-3 -2l-27 -14.5t-36 -16t-44 -13t-50 -5.5q-29 0 -50 9t-34 23l-32 -230h-44l92 666h44l-18.5 -139t-13 -95t-8 -60t-4 -33.5l-2 -15.5t-0.5 -6q0 -36 16 -57.5t58 -21.5q28 0 58 10t54 22t40 22t17 10l52 364h42z" />
    <glyph glyph-name="integral" unicode="&#x222b;" horiz-adv-x="374" 
d="M46 -19h32q75 0 87 84l92 673q9 66 47 102.5t98 36.5h42l-8 -54h-31q-75 0 -87 -84l-92 -673q-9 -66 -47 -102.5t-98 -36.5h-43z" />
    <glyph glyph-name="asciicircum" unicode="^" horiz-adv-x="285" 
d="M250 770l-52 -82h-52l88 112h41l56 -112h-52z" />
    <glyph glyph-name="sterling" unicode="&#xa3;" horiz-adv-x="511" 
d="M189 351h-91l8 44h87l8 54q36 246 250 246q37 0 64.5 -6.5t37.5 -12.5l-12 -51q-11 6 -35.5 13t-62.5 7q-50 0 -82.5 -18t-53.5 -47t-31.5 -65t-15.5 -72l-7 -48h147l-25 -44h-127l-44 -301h246l-4 -50h-305z" />
    <glyph glyph-name="tilde" unicode="&#x2dc;" horiz-adv-x="444" 
d="M130 577q1 14 6.5 33.5t17 37.5t30.5 30.5t48 12.5q23 0 44.5 -9t42.5 -20.5t41.5 -20.5t41.5 -9q22 0 32.5 13.5t17.5 46.5h38q-2 -14 -7.5 -33.5t-17 -37.5t-30.5 -30.5t-47 -12.5q-22 0 -44 9.5t-43 20.5t-41.5 20.5t-39.5 9.5q-45 0 -52 -61h-38z" />
    <glyph glyph-name="breve" unicode="&#x2d8;" horiz-adv-x="377" 
d="M190 692q-4 -40 19 -67.5t63 -27.5q19 0 38 7.5t34.5 20t26.5 30t15 37.5h41q-6 -29 -21 -53.5t-36 -43t-47.5 -29t-54.5 -10.5t-51.5 10.5t-40 29t-24 43t-2.5 53.5h40z" />
    <glyph glyph-name="ordmasculine" unicode="&#xba;" horiz-adv-x="418" 
d="M307 697q31 0 56 -11t43 -31t28 -47.5t10 -60.5q0 -42 -15 -78t-40.5 -62.5t-59.5 -42t-71 -15.5q-31 0 -56 11t-43 31t-27.5 47.5t-9.5 60.5q0 42 15 78t40 62.5t58.5 42t71.5 15.5zM264 389q27 0 50.5 12t41.5 33t28.5 49t10.5 60q0 49 -25.5 81.5t-68.5 32.5
q-27 0 -50.5 -12t-41.5 -33t-28.5 -49t-10.5 -60q0 -49 25.5 -81.5t68.5 -32.5z" />
    <glyph glyph-name="ring" unicode="&#x2da;" horiz-adv-x="291" 
d="M243 692q37 0 60 -25t23 -58q0 -23 -9 -42.5t-24 -34t-35 -23t-41 -8.5q-37 0 -60.5 25t-23.5 59q0 22 9 42t24.5 34t35.5 22.5t41 8.5zM221 528q32 0 55 22.5t23 54.5q0 26 -16.5 43.5t-42.5 17.5q-32 0 -56 -22.5t-24 -54.5q0 -26 17.5 -43.5t43.5 -17.5z" />
    <glyph glyph-name="germandbls" unicode="&#xdf;" horiz-adv-x="524" 
d="M126 536q14 103 71.5 157t154.5 54q78 0 121.5 -41.5t43.5 -111.5q0 -79 -38 -127t-129 -71q86 -9 121.5 -45t35.5 -100q0 -56 -19 -101.5t-52 -78.5t-78.5 -51t-99.5 -18q-9 0 -34 1.5t-48 9.5l12 54q18 -9 41.5 -11.5t37.5 -2.5q41 0 75 13.5t58 38t37.5 59t13.5 77.5
q0 66 -43.5 94.5t-139.5 28.5l8 54q88 0 136.5 45.5t48.5 120.5q0 51 -31.5 84t-85.5 33q-140 0 -165 -187l-72 -514h-57z" />
    <glyph glyph-name="dieresis" unicode="&#xa8;" horiz-adv-x="349" 
d="M383 612h-68l12 80h68zM202 612h-68l12 80h68z" />
    <glyph glyph-name="acute" unicode="&#xb4;" horiz-adv-x="183" 
d="M126 537l46 154h57l-72 -154h-31z" />
    <glyph glyph-name="grave" unicode="`" horiz-adv-x="186" 
d="M178 538l-32 154h60l6 -154h-34z" />
    <glyph glyph-name="Euro" unicode="&#x20ac;" horiz-adv-x="730" 
d="M688 55q-29 -21 -58 -33t-55 -19t-47 -9t-33 -2q-62 0 -108 22.5t-76 61.5t-45 90.5t-15 110.5h-161l23 40h138q1 14 4 31t8 32h-109l23 40h95q16 58 46 109t71.5 88.5t93.5 59.5t112 22q11 0 31 -2t44 -8t50 -18.5t49 -33.5l-14 -45q-31 32 -71.5 48.5t-97.5 16.5
q-38 0 -77.5 -14t-75.5 -43t-66 -74t-48 -106h339l-22 -40h-326q-4 -13 -8 -32.5t-4 -30.5h296l-22 -40h-274q0 -64 17 -110t45 -76t64 -44t74 -14q54 0 101 17.5t90 49.5z" />
    <glyph glyph-name="fraction" unicode="&#x2044;" horiz-adv-x="555" 
d="M552 682h49l-502 -682h-49z" />
    <glyph glyph-name="lozenge" unicode="&#x25ca;" horiz-adv-x="500" 
d="M86 261l244 323l156 -323l-244 -323zM137 261l113 -245l185 245l-117 243z" />
    <glyph glyph-name="summation" unicode="&#x2211;" horiz-adv-x="613" 
d="M26 -179l378 401l-266 400l8 62h513l-8 -59h-443l270 -403l-386 -404h447l-8 -58h-513z" />
    <glyph glyph-name="product" unicode="&#x220f;" horiz-adv-x="613" 
d="M592 623h-395l-120 -864h-59l128 923h513l-128 -923h-59z" />
    <glyph glyph-name="radical" unicode="&#x221a;" horiz-adv-x="616" 
d="M114 453h65l63 -355l281 600h143l-8 -50h-100l-302 -648h-47z" />
    <glyph glyph-name="daggerdbl" unicode="&#x2021;" horiz-adv-x="454" 
d="M224 157h-154l8 48h153l33 245h-154l8 48h153l20 157h48l-20 -157h153l-8 -48h-153l-32 -245h153l-8 -48h-153l-20 -157h-48z" />
    <glyph glyph-name="guillemotright" unicode="&#xbb;" horiz-adv-x="439" 
d="M278 226l-173 -226h-55l167 226l-103 225h55zM421 226l-173 -226h-55l168 226l-103 225h54z" />
    <glyph glyph-name="guillemotleft" unicode="&#xab;" horiz-adv-x="439" 
d="M389 0h-55l-108 226l172 225h55l-167 -225zM143 226l103 -226h-55l-109 226l173 225h55z" />
    <glyph glyph-name="approxequal" unicode="&#x2248;" horiz-adv-x="523" 
d="M207 402q-29 0 -43 -16t-21 -53h-45q1 16 7.5 37.5t20.5 41.5t36.5 34t56.5 14q28 0 56 -10.5t54.5 -23.5t52 -23.5t49.5 -10.5q28 0 42.5 16t18.5 53h45q-2 -15 -7.5 -37t-18.5 -42t-36 -34t-59 -14q-28 0 -54 10.5t-51.5 23.5t-51 23.5t-52.5 10.5zM407 226
q28 0 42.5 15.5t18.5 53.5h45q-2 -16 -7.5 -37.5t-18.5 -41.5t-36 -34t-59 -14q-27 0 -54 10.5t-53.5 23.5t-52 23.5t-49.5 10.5q-29 0 -43 -16.5t-21 -52.5h-45q1 16 7.5 37.5t20.5 41.5t36.5 34t56.5 14q28 0 55.5 -10.5t54.5 -23.5t52.5 -23.5t49.5 -10.5z" />
    <glyph glyph-name="pi" unicode="&#x3c0;" horiz-adv-x="619" 
d="M457 410h-156l-58 -410h-59l58 410h-5q-27 0 -40 -3.5t-24 -12.5q-9 -8 -14 -21t-9 -41l-1 -7l-56 -14l3 19q5 36 15 59t27 38t36 22t60 7h399l-29 -46h-88l-57 -410h-59z" />
    <glyph glyph-name="logicalnot" unicode="&#xac;" horiz-adv-x="535" 
d="M482 402h-376l8 59h435l-36 -260h-59z" />
    <glyph glyph-name="yen" unicode="&#xa5;" horiz-adv-x="584" 
d="M364 299l-12 -88h210l-4 -39h-210l-24 -172h-44l24 172h-230l4 39h230l12 88h-230l8 39h209l-141 353h45l139 -350l235 350h45l-237 -353h189l-8 -39h-210z" />
    <glyph glyph-name="greaterequal" unicode="&#x2265;" horiz-adv-x="438" 
d="M58 51h338l-8 -51h-338zM432 320l-4 -38l-366 -184l8 50l312 153l-268 153l8 50z" />
    <glyph glyph-name="lessequal" unicode="&#x2264;" horiz-adv-x="438" 
d="M58 51h338l-8 -51h-338zM452 454l-308 -153l264 -154l-8 -50l-310 185l4 38l366 184z" />
    <glyph glyph-name="infinity" unicode="&#x221e;" horiz-adv-x="872" 
d="M387 223q-62 -53 -136 -53q-34 0 -62.5 12t-49 32.5t-32 48t-11.5 58.5q0 40 16.5 74.5t44.5 60.5t64.5 41t77.5 15q35 0 66 -12.5t53 -37.5l70 -82l94 82q28 25 62.5 37t70.5 13q34 0 62.5 -12t49.5 -32.5t32.5 -48t11.5 -58.5q0 -40 -16.5 -74.5t-45 -60.5t-65.5 -41
t-77 -15q-76 0 -121 53l-68 79zM672 224q28 0 54 10.5t46 28.5t32 41t12 49q0 46 -30 75.5t-78 29.5q-52 0 -93 -35l-93 -83l68 -79q14 -17 35 -27t47 -10zM259 224q52 0 95 37l91 81l-70 81q-14 17 -36 26t-47 9q-29 0 -54.5 -10.5t-45 -28t-31 -41t-11.5 -49.5
q0 -45 30.5 -75t78.5 -30z" />
    <glyph glyph-name="plusminus" unicode="&#xb1;" horiz-adv-x="454" 
d="M449 325l-5 -48h-153l-23 -157h-48l23 157h-153l5 48h153l23 157h48l-23 -157h153zM72 51h326l-8 -51h-326z" />
    <glyph glyph-name="notequal" unicode="&#x2260;" horiz-adv-x="574" 
d="M215 205h-137l8 49h167l127 168h-270l4 49h299l162 213h32l-161 -213h142l-4 -49h-172l-126 -168h274l-8 -49h-304l-153 -205h-33z" />
    <glyph glyph-name="section" unicode="&#xa7;" horiz-adv-x="549" 
d="M35 -106q24 -23 48 -36.5t47.5 -20.5t45 -9t40.5 -2q31 0 65.5 9.5t63 27.5t47 44.5t18.5 61.5q0 43 -33 74t-105 60q-32 12 -61.5 27t-52 35t-36 45t-13.5 57q0 39 17 73.5t47 63.5q-23 23 -34 50t-11 53q0 52 23 88.5t59 60t79 34.5t83 11q36 0 83 -11t89 -47l-19 -52
q-36 36 -79 47.5t-78 11.5q-30 0 -60 -8.5t-54.5 -25t-40 -41.5t-15.5 -57q0 -26 11 -45.5t30 -35t43.5 -27.5t51.5 -23q88 -35 127 -75.5t39 -94.5q0 -75 -63 -136q45 -45 45 -97q0 -55 -25 -95t-63.5 -66.5t-85.5 -39.5t-91 -13q-137 0 -204 61zM389 117q41 41 41 90
q0 17 -6.5 33t-22.5 32t-43.5 32.5t-69.5 34.5q-15 6 -32 13.5t-35 18.5q-42 -39 -42 -90q0 -33 16 -53t44.5 -35.5t67 -32t82.5 -43.5z" />
    <glyph glyph-name="paragraph" unicode="&#xb6;" horiz-adv-x="610" 
d="M506 633h-122l-121 -864h-59l78 557h-5q-35 0 -64 12.5t-50 34t-33 51.5t-12 65q0 41 17.5 78t47 64.5t67.5 44t79 16.5h327l-9 -59h-82l-121 -864h-59z" />
    <glyph glyph-name="dagger" unicode="&#x2020;" horiz-adv-x="588" 
d="M610 516l-8 -57h-215l-88 -625h-58l88 625h-215l8 57h215l32 226h58l-32 -226h215z" />
    <glyph glyph-name="circumflex" unicode="&#x2c6;" horiz-adv-x="286" 
d="M235 662l-52 -82h-53l88 112h41l57 -112h-53z" />
    <glyph glyph-name="cent" unicode="&#xa2;" horiz-adv-x="480" 
d="M416 39q-33 -23 -76.5 -36.5t-85.5 -13.5h-13t-9 0.5t-8 1.5t-10 2l-63 -156l-37 13l59 156q-26 12 -43.5 31t-28.5 43.5t-16 52t-5 55.5q0 52 15 102t45 89t74.5 63t103.5 24q8 0 14 -0.5t19 -2.5l56 147l41 -14l-55 -142q18 -4 39.5 -15t35.5 -24l-21 -48
q-10 8 -28 19.5t-46 20.5l-143 -366q7 -4 33 -4q25 0 48.5 6t43 14.5t33.5 17t21 13.5zM316 416q-48 0 -82 -20t-55.5 -52.5t-32 -74.5t-10.5 -85q0 -38 9 -70t48 -58l138 359q-5 1 -8 1h-7z" />
    <glyph glyph-name="backslash" unicode="\" horiz-adv-x="604" 
d="M221 682h57l172 -682h-57z" />
    <glyph glyph-name="questiondown" unicode="&#xbf;" horiz-adv-x="489" 
d="M345 419h-53l9 67h53zM218 -170q24 0 49.5 7.5t49.5 19t46 26t39 28.5l-7 -51q-57 -38 -102.5 -55.5t-90.5 -17.5q-63 0 -97.5 36.5t-34.5 97.5q0 36 13 62.5t33.5 49t45.5 45t48 51t41.5 66.5t26.5 93l7 50h43l-7 -50q-6 -42 -16 -73t-25.5 -57.5t-37.5 -52.5t-53 -59
q-15 -16 -29 -28.5t-24.5 -26t-16.5 -29t-6 -37.5q0 -45 26.5 -70t78.5 -25z" />
    <glyph glyph-name="exclamdown" unicode="&#xa1;" horiz-adv-x="185" 
d="M153 338l-64 -543h-54l88 543h30zM185 486l-8 -67h-54l8 67h54z" />
    <glyph glyph-name="oe" unicode="&#x153;" horiz-adv-x="968" 
d="M849 222h-304l-2 -15.5t-1 -15.5q0 -28 7 -56t22 -50.5t39.5 -36.5t59.5 -14q48 0 83 15t63 34l4 -43q-32 -18 -69.5 -32t-85.5 -14q-22 0 -46.5 6.5t-47 21t-40 38.5t-25.5 60q-35 -60 -88 -93t-116 -33q-40 0 -73 14.5t-57 41.5t-37 64t-13 82q0 59 20 109.5t53.5 87
t78 57t94.5 20.5q63 0 106.5 -33.5t61.5 -91.5q32 60 81 92.5t106 32.5q40 0 70 -17t49 -45t28.5 -63.5t9.5 -71.5v-14zM307 34q36 0 71 17.5t63 48t45 72t17 90.5q0 36 -10 67t-29 53t-45 34.5t-57 12.5q-41 0 -76.5 -17.5t-62.5 -48t-42.5 -72t-15.5 -90.5q0 -36 10 -67
t29 -53t45 -34.5t58 -12.5zM836 263v11q0 73 -33 114t-87 41t-99.5 -44t-65.5 -122h285z" />
    <glyph glyph-name="OE" unicode="&#x152;" horiz-adv-x="1054" 
d="M707 651l-37 -263h229l-13 -41h-222l-43 -306h300l-6 -41h-344l17 122q-35 -57 -87 -93t-127 -36q-56 0 -94 23.5t-61 62.5t-33 88.5t-10 102.5q0 72 15.5 148.5t50.5 139t91.5 102.5t139.5 40q74 0 116.5 -37t61.5 -94l17 122h344l-5 -40h-300zM380 32q17 0 42 6
t52 22.5t54 46t48 76.5t34.5 113.5t13.5 157.5q0 51 -9 86t-23 58t-31.5 36t-35 19t-33 7t-24.5 1q-14 0 -37.5 -3.5t-51.5 -16.5t-56.5 -38.5t-52 -69.5t-38 -109.5t-14.5 -158.5q0 -80 18 -126t43.5 -70t53 -30.5t47.5 -6.5z" />
    <glyph glyph-name="ae" unicode="&#xe6;" horiz-adv-x="772" 
d="M726 218h-304q-1 -7 -1.5 -13.5t-0.5 -13.5q0 -28 7 -56.5t22.5 -51t40 -37t60.5 -14.5q48 0 82 15t61 34l6 -43q-34 -18 -71.5 -32t-85.5 -14q-38 0 -77.5 18t-64.5 64q-37 -31 -67 -47.5t-54 -24t-42.5 -9t-31.5 -1.5q-63 0 -101 35t-38 92q0 94 77 138.5t246 45.5
q3 18 4.5 28.5t2.5 15.5t1 7v4q0 32 -31 52.5t-88 20.5q-23 0 -44.5 -5t-39.5 -12t-31 -13.5t-19 -10.5l-4 42q32 17 69.5 26.5t76.5 9.5q27 0 53.5 -6t47.5 -17t35.5 -27t17.5 -35q32 42 73.5 63.5t87.5 21.5q34 0 63 -13.5t50 -38.5t32.5 -61t11.5 -80v-18zM385 262
q-66 0 -112.5 -7.5t-77 -19.5t-47.5 -27t-25.5 -30.5t-10.5 -30t-2 -24.5q0 -23 8.5 -40t23 -28t32.5 -17t37 -6q27 0 66 15.5t84 53.5zM714 261v9q0 75 -33 116t-87 41q-27 0 -52.5 -11.5t-47.5 -32.5t-39 -52t-26 -70h285z" />
    <glyph glyph-name="AE" unicode="&#xc6;" horiz-adv-x="1121" 
d="M783 651l-36 -263h229l-15 -41h-222l-43 -306h299l-4 -41h-347l32 217h-331l-204 -217h-55l648 691h353l-4 -40h-300zM734 637l-355 -380h303z" />
    <glyph glyph-name="quotesinglbase" unicode="&#x201a;" horiz-adv-x="205" 
d="M55 -87l46 154h57l-71 -154h-32z" />
    <glyph glyph-name="hungarumlaut" unicode="&#x2dd;" horiz-adv-x="333" 
d="M304 691h58l-73 -155h-30zM173 536h-31l46 155h57z" />
    <glyph glyph-name="quotedblbase" unicode="&#x201e;" horiz-adv-x="264" 
d="M180 67h58l-73 -155h-30zM49 -88h-31l46 155h57z" />
    <glyph glyph-name="dotaccent" unicode="&#x2d9;" horiz-adv-x="251" 
d="M186 692h69l-12 -80h-69z" />
    <glyph glyph-name="caron" unicode="&#x2c7;" horiz-adv-x="311" 
d="M241 610l52 82h53l-88 -112h-41l-57 112h53z" />
    <glyph glyph-name="divide" unicode="&#xf7;" horiz-adv-x="508" 
d="M234 106h70l-12 -82h-70zM534 252l-4 -37h-488l4 37h488zM340 361h-70l12 82h70z" />
    <glyph glyph-name="florin" unicode="&#x192;" horiz-adv-x="511" 
d="M16 -156q4 -3 23 -3q26 0 44 10.5t30 27t20 36t14 36.5l128 384h-112l19 60h112l39 120q11 35 24 67t33 56t49.5 38.5t74.5 14.5q18 0 33 -3.5t32 -11.5l-22 -60q-13 7 -25.5 9t-17.5 2q-25 0 -42.5 -8.5t-29.5 -22.5t-20 -32.5t-14 -38.5l-41 -130h126l-20 -60h-126
l-122 -372q-14 -43 -29.5 -78.5t-38 -61t-55.5 -40t-82 -14.5q-15 0 -25 0.5t-19 2.5z" />
    <glyph glyph-name="ordfeminine" unicode="&#xaa;" horiz-adv-x="427" 
d="M306 695q31 0 54 -7.5t37.5 -19.5t21.5 -27t7 -30l-36 -258h-33l-11 31q-23 -13 -50.5 -25t-58.5 -12q-48 0 -73 24t-25 66q0 34 14 57.5t36 39t49 24t53 12.5t47.5 4.5t33.5 0.5l4 30q0 4 -1.5 13t-9 17t-23.5 14.5t-44 6.5q-31 0 -57.5 -10t-42.5 -18l-6 38
q10 5 39.5 17t74.5 12zM367 537q-23 0 -54 -2.5t-59 -11.5t-47 -27t-19 -48q0 -26 15 -43t41 -17q32 0 59 12.5t49 29.5z" />
    <glyph glyph-name="perthousand" unicode="&#x2030;" horiz-adv-x="1090" 
d="M379 560q0 -33 -7.5 -70.5t-25.5 -69.5t-48 -53.5t-74 -21.5q-35 0 -56.5 15t-33 36.5t-15.5 44.5t-4 40q0 10 1.5 30.5t7 45.5t15.5 51t27 47.5t41.5 35.5t59.5 14q37 0 59 -15t34 -37.5t15.5 -47.5t3.5 -45zM226 380q21 0 41 9.5t36.5 30t26.5 53.5t10 80q0 42 -8 66
t-19 35.5t-23 14t-19 2.5q-29 0 -48.5 -11.5t-32.5 -29.5t-20.5 -39.5t-11 -42t-4.5 -36.5t-1 -23q0 -35 7 -56t18 -33t24 -16t24 -4zM630 688l-340 -686h-46l341 686h45zM647 354q36 0 58 -15t34 -36.5t15.5 -46.5t3.5 -45q0 -34 -7 -72t-25 -70.5t-48 -53.5t-76 -21
q-35 0 -56 15.5t-32 37t-15 45t-4 39.5q0 11 2 32t7.5 46t16 50.5t27 46.5t41 34.5t58.5 13.5zM606 30q16 0 36 7.5t37 26.5t29 52t12 85q0 40 -7.5 64t-18.5 36t-24 15.5t-23 3.5q-39 0 -62 -23.5t-34 -54.5t-14 -61.5t-3 -44.5q0 -33 7 -54t18 -32.5t23.5 -15.5t23.5 -4z
M970 354q36 0 58 -15t34 -36.5t15.5 -47t3.5 -46.5q0 -28 -7 -65t-24.5 -70.5t-47.5 -56.5t-76 -23q-35 0 -56 15t-32.5 36t-15.5 44t-4 40q0 10 1.5 31t7 46t15.5 51t27 47.5t41.5 35.5t59.5 14zM929 30q21 0 41 9.5t36 30t26 53t10 78.5q0 40 -7.5 64t-18.5 36t-24 15.5
t-23 3.5q-27 0 -45.5 -11t-31 -28t-20 -38.5t-11 -41.5t-4.5 -37.5t-1 -26.5q0 -34 7 -55t18 -32.5t24 -15.5t24 -4z" />
    <glyph glyph-name="Delta" unicode="&#x2206;" horiz-adv-x="498" 
d="M461 97h-394l232 363h36zM113 113h312l-111 325z" />
    </font>
</defs>
</svg>
