<?xml version="1.0" standalone="no"?>
<!DOCTYPE svg PUBLIC "-//W3C//DTD SVG 1.1//EN" "http://www.w3.org/Graphics/SVG/1.1/DTD/svg11.dtd" >
<svg>
<metadata>
Created by FontForge 20090622 at Thu Oct  6 16:07:38 2016
 By deploy user
Copyright (c) 2015 by Charter Communications. All rights reserved.
</metadata>
<defs>
<font id="Rutledge-Regular" horiz-adv-x="795" >
  <font-face 
    font-family="Rutledge Regular"
    font-weight="400"
    font-style="italic"
    font-stretch="normal"
    units-per-em="1000"
    panose-1="0 0 0 0 0 0 0 0 0 0"
    ascent="767"
    descent="-233"
    x-height="466"
    cap-height="692"
    bbox="1 -242 1054 891"
    underline-thickness="50"
    underline-position="-50"
    slope="-8"
    unicode-range="U+000D-U+25CA"
  />
<missing-glyph horiz-adv-x="550" 
 />
    <glyph glyph-name=".notdef" horiz-adv-x="550" 
 />
    <glyph glyph-name="NULL" horiz-adv-x="0" 
 />
    <glyph glyph-name="NULL" horiz-adv-x="0" 
 />
    <glyph glyph-name="nonmarkingreturn" unicode="&#xd;" horiz-adv-x="550" 
 />
    <glyph glyph-name="space" unicode=" " horiz-adv-x="253" 
 />
    <glyph glyph-name="percent" unicode="%" horiz-adv-x="937" 
d="M209 295q-75 0 -117 51.5t-42 145.5t42 146t117 52t116.5 -52t41.5 -146t-41.5 -145.5t-116.5 -51.5zM108 493q0 -49 12.5 -77t29 -42t33.5 -17.5t26 -3.5q8 0 24.5 3.5t33 17.5t29 42t12.5 77q0 47 -11.5 74.5t-27 42t-32.5 18.5t-28 4t-28 -4t-33.5 -18.5t-28 -42
t-11.5 -74.5zM728 407q75 0 117 -52t42 -146t-42 -145.5t-117 -51.5t-117 51.5t-42 145.5t42 146t117 52zM827 211q0 47 -11.5 74.5t-27.5 41.5t-33 18t-27 4q-11 0 -28 -4t-33 -18t-27.5 -41.5t-11.5 -74.5q0 -49 12.5 -77t29 -42.5t33 -18t25.5 -3.5q8 0 24.5 3.5t33 18
t29 42.5t12.5 77zM287 0h-68l422 696h69z" />
    <glyph glyph-name="ampersand" unicode="&#x26;" horiz-adv-x="657" 
d="M607 0h-74l-61 72q-42 -38 -92.5 -59t-101.5 -21q-27 0 -66 8t-75 29t-61.5 58t-25.5 96q0 42 19.5 77t56.5 62l90 65l-45 53q-25 29 -36 58t-12 53q0 44 16.5 72.5t40.5 45.5t51.5 23.5t50.5 6.5q72 0 117 -38.5t45 -104.5q0 -40 -25 -73t-70 -68l-51 -39l170 -200
q19 29 27 56.5t12 47.5h66q-5 -35 -18 -75t-45 -85zM154 263q-26 -20 -32.5 -45.5t-6.5 -50.5q0 -21 11.5 -41t33.5 -35.5t52.5 -25t69.5 -9.5q30 0 71 15.5t79 52.5l-179 214zM264 424l74 53q20 15 32.5 34.5t12.5 41.5q0 39 -27.5 64.5t-72.5 25.5t-72 -25.5t-27 -64.5
q0 -14 5 -29t18 -32z" />
    <glyph glyph-name="quotesingle" unicode="'" horiz-adv-x="210" 
d="M50 496l34 195h76l-68 -195h-42z" />
    <glyph glyph-name="parenleft" unicode="(" horiz-adv-x="347" 
d="M297 714q-25 -23 -57 -60t-60 -87.5t-47.5 -114t-19.5 -139.5q0 -87 24.5 -157.5t56.5 -122t62 -82.5t41 -39h-74q-81 75 -127 177.5t-46 223.5q0 118 46 222t127 179h74z" />
    <glyph glyph-name="parenright" unicode=")" horiz-adv-x="347" 
d="M124 714q81 -75 127 -179t46 -222q0 -121 -46 -223.5t-127 -177.5h-74q6 5 22.5 21t37 41t42.5 59.5t40 77.5t30 93.5t12 108.5q0 76 -19 139.5t-47 114t-60 87.5t-58 60h74z" />
    <glyph glyph-name="asterisk" unicode="*" horiz-adv-x="390" 
d="M226 557l114 -59l-17 -28l-111 60v-117h-34v117l-111 -59l-17 28l113 58l-113 59l17 28l111 -60v116h34v-116l111 59l17 -28z" />
    <glyph glyph-name="plus" unicode="+" horiz-adv-x="629" 
d="M579 394v-58h-235v-213h-60v213h-234v58h234v213h60v-213h235z" />
    <glyph glyph-name="comma" unicode="," horiz-adv-x="210" 
d="M50 -109l34 195h76l-68 -195h-42z" />
    <glyph glyph-name="hyphen" unicode="-" horiz-adv-x="382" 
d="M50 273v61h282v-61h-282z" />
    <glyph glyph-name="period" unicode="." horiz-adv-x="176" 
d="M50 0v86h76v-86h-76z" />
    <glyph glyph-name="slash" unicode="/" horiz-adv-x="616" 
d="M522 692h66l-494 -780h-66z" />
    <glyph glyph-name="zero" unicode="0" horiz-adv-x="688" 
d="M344 699q64 0 109.5 -20.5t76 -52.5t48.5 -72t27 -79.5t11.5 -73.5t2.5 -55t-2.5 -55t-12 -73.5t-27.5 -79.5t-48.5 -72.5t-75.5 -53t-109 -20.5t-109 20.5t-75.5 53t-48.5 72.5t-27.5 79.5t-12 73.5t-2.5 55t2.5 55t12 73.5t27.5 79.5t48.5 72t75.5 52.5t109 20.5z
M550 344q0 67 -11 114.5t-28.5 80.5t-40 52.5t-45.5 30t-44.5 14t-36.5 3.5q-16 0 -37 -3.5t-44 -14t-45.5 -30t-40 -52.5t-28.5 -80.5t-11 -114.5q0 -94 21.5 -151t53 -87.5t67 -40.5t64.5 -10q28 0 64 10t67.5 40.5t53 87.5t21.5 151z" />
    <glyph glyph-name="one" unicode="1" horiz-adv-x="348" 
d="M184 692h64v-692h-70v607l-95 -72v79z" />
    <glyph glyph-name="two" unicode="2" horiz-adv-x="608" 
d="M160 66h357v-66h-445v69l300 289q54 51 76.5 88.5t22.5 71.5q0 27 -11.5 49t-32 38.5t-47.5 25.5t-57 9q-27 0 -55 -7.5t-54.5 -20.5t-51 -29t-45.5 -34v81q43 31 98.5 50t112.5 19q43 0 81 -14.5t66 -39.5t44.5 -58.5t16.5 -71.5q0 -46 -29.5 -95t-89.5 -109z" />
    <glyph glyph-name="three" unicode="3" horiz-adv-x="588" 
d="M391 365q55 -26 85.5 -71.5t30.5 -100.5q0 -41 -20 -77.5t-53.5 -64t-78.5 -43.5t-94 -16q-51 0 -102.5 13t-96.5 42v77q39 -32 88 -50.5t103 -18.5q39 0 72.5 10.5t58.5 29.5t39.5 44t14.5 55q0 25 -10.5 50t-32.5 45.5t-56 33t-80 12.5h-85v60h85q81 3 127 36t46 87
q0 26 -14.5 48t-39 38.5t-56.5 25.5t-67 9q-45 0 -90 -12.5t-84 -36.5v73q38 20 83 28t90 8q51 0 96 -14t78.5 -39t53 -58t19.5 -70q0 -49 -28 -89t-82 -64z" />
    <glyph glyph-name="four" unicode="4" horiz-adv-x="660" 
d="M421 359l69 12v-135h105l-23 -64h-82v-172h-69v172h-349v65l328 455h75l-324 -456h270v123z" />
    <glyph glyph-name="five" unicode="5" horiz-adv-x="602" 
d="M190 625v-206q22 6 45.5 9.5t44.5 3.5q55 0 100 -15.5t77 -44t49.5 -69t17.5 -90.5q0 -46 -20 -86t-53.5 -70t-78.5 -47.5t-96 -17.5q-104 0 -198 58v71q6 -5 21.5 -16t40 -22t58.5 -19.5t77 -8.5q39 0 72 12.5t58 34t39 50t14 61.5q0 73 -45.5 114t-133.5 41
q-29 0 -55.5 -8t-54.5 -22h-49v354h370l-12 -67h-288z" />
    <glyph glyph-name="six" unicode="6" horiz-adv-x="645" 
d="M325 416q51 0 96.5 -16.5t79 -45.5t53 -67.5t19.5 -82.5t-19.5 -82.5t-53 -67.5t-79 -45.5t-96.5 -16.5q-53 0 -99 16t-80 46t-54 72t-20 93q0 85 34.5 157.5t91 132.5t128 107.5t145.5 82.5v-73q-44 -21 -85.5 -44.5t-78 -53t-69 -66t-58.5 -82.5q63 36 145 36zM325 54
q38 0 71.5 11.5t58 31.5t38.5 47t14 59q0 31 -14 58.5t-38.5 47.5t-58 32t-71.5 12q-32 0 -64 -8.5t-58.5 -26.5t-43 -45t-16.5 -64q1 -35 17 -63.5t41 -49t57.5 -31.5t66.5 -11z" />
    <glyph glyph-name="seven" unicode="7" horiz-adv-x="578" 
d="M56 692h466v-68l-277 -624h-76l276 625h-389v67z" />
    <glyph glyph-name="eight" unicode="8" horiz-adv-x="629" 
d="M431 368q58 -27 92 -73.5t34 -100.5q0 -42 -19 -78.5t-52 -64t-77.5 -43.5t-94.5 -16t-94 16t-77 43.5t-52 64t-19 78.5q0 54 34 100.5t92 73.5q-45 26 -70.5 65t-25.5 84q0 37 17 70.5t45.5 58t67 39t82.5 14.5q43 0 82 -14.5t68 -39t46 -58t17 -70.5q0 -45 -25.5 -84
t-70.5 -65zM314 336q-36 0 -67.5 -11t-55.5 -30t-38 -44.5t-14 -53.5q0 -29 14.5 -54.5t38.5 -45.5t55.5 -31.5t66.5 -11.5t67 11.5t56 31.5t38.5 45.5t14.5 54.5q0 28 -14 53.5t-38 44.5t-56 30t-68 11zM168 517q0 -24 11.5 -46.5t31.5 -39t46.5 -26.5t56.5 -10t57 10
t47 26.5t31.5 39t11.5 46.5q0 27 -11 49.5t-31 39.5t-47 26.5t-58 9.5t-57.5 -9.5t-46 -26.5t-31 -39.5t-11.5 -49.5z" />
    <glyph glyph-name="nine" unicode="9" horiz-adv-x="645" 
d="M321 275q-51 0 -96.5 16.5t-79 45.5t-53 67.5t-19.5 82.5t19 82.5t53 67.5t79.5 45.5t98.5 16.5q52 0 98 -16t80 -46t53.5 -72t19.5 -93q0 -84 -34.5 -157t-91 -133.5t-128 -108t-145.5 -81.5v73q44 21 85 44.5t78.5 52.5t69.5 65.5t58 83.5q-63 -36 -145 -36zM321 637
q-38 0 -71.5 -11.5t-58 -31.5t-38.5 -47.5t-14 -58.5t14 -58.5t38.5 -47.5t58 -32t71.5 -12q31 0 63.5 8.5t59 26.5t43 45t16.5 64q-1 35 -17 63.5t-41 49t-57.5 31.5t-66.5 11z" />
    <glyph glyph-name="colon" unicode=":" horiz-adv-x="176" 
d="M126 467v-87h-76v87h76zM126 86v-86h-76v86h76z" />
    <glyph glyph-name="semicolon" unicode=";" horiz-adv-x="210" 
d="M85 467h75v-87h-75v87zM50 -109l34 195h76l-68 -195h-42z" />
    <glyph glyph-name="less" unicode="&#x3c;" horiz-adv-x="583" 
d="M50 387l483 241v-68l-415 -201l415 -202v-68l-483 242v56z" />
    <glyph glyph-name="equal" unicode="=" horiz-adv-x="629" 
d="M50 221v59h529v-59h-529zM579 438h-529v59h529v-59z" />
    <glyph glyph-name="greater" unicode="&#x3e;" horiz-adv-x="583" 
d="M533 387v-56l-483 -242v68l415 202l-415 201v68z" />
    <glyph glyph-name="question" unicode="?" horiz-adv-x="485" 
d="M190 86h77v-86h-77v86zM343 382q-32 -30 -49 -55.5t-24.5 -50.5t-8.5 -51.5t-1 -57.5h-64q0 45 2.5 77.5t12.5 60.5t29 54.5t51 58.5l36 37t24.5 28.5t13.5 24.5t4 26q0 49 -32 76.5t-89 27.5q-54 0 -104.5 -25.5t-93.5 -63.5v72q43 33 96.5 55.5t111.5 22.5
q39 0 71.5 -12t56 -34t36.5 -53t13 -68q0 -21 -6.5 -39.5t-18.5 -36t-29 -35.5z" />
    <glyph glyph-name="at" unicode="@" horiz-adv-x="917" 
d="M459 623q87 0 161.5 -28.5t129.5 -78.5t86 -118.5t31 -148.5q0 -94 -48.5 -148t-136.5 -54q-66 0 -119 50q-39 -26 -80.5 -38t-80.5 -9q-18 1 -42.5 10t-47 28.5t-39.5 50.5t-21 77q-4 44 8 84t37.5 70t62 48t81.5 19h153l25 -40v-228q0 -6 2 -17t10.5 -21t24.5 -17.5
t44 -7.5q27 0 47 12.5t33 32.5t19 45.5t6 52.5q0 69 -26 127.5t-72.5 101.5t-110 67.5t-137.5 24.5t-136.5 -24.5t-108.5 -67.5t-72 -101.5t-26 -127.5q0 -71 25 -129.5t70 -101t108 -66t140 -23.5q87 0 167 41l29 -51q-85 -43 -196 -43q-90 0 -165.5 27.5t-129.5 76.5
t-84 117.5t-30 151.5q0 80 31 148.5t86 118.5t130 78.5t162 28.5zM444 375q-52 0 -84 -31.5t-36 -88.5q-4 -66 24 -103t83 -37q17 0 35.5 6t35 14t29 16l18.5 12v212h-105z" />
    <glyph glyph-name="A" unicode="A" horiz-adv-x="716" 
d="M395 692l304 -692h-72l-91 202h-356l-91 -202h-72l305 692h73zM205 267h306l-153 346z" />
    <glyph glyph-name="B" unicode="B" horiz-adv-x="579" 
d="M91 692h181q48 0 89 -12t70.5 -34t46 -53.5t16.5 -70.5q0 -60 -33.5 -101.5t-93.5 -55.5q81 -13 122.5 -61t41.5 -120q0 -43 -18 -77t-50.5 -58t-77 -36.5t-97.5 -12.5h-197v692zM160 392h115q72 0 110 36.5t38 90.5q0 48 -38 77t-110 29h-115v-233zM294 66
q81 0 122 34.5t41 94.5t-41 96t-122 36h-134v-261h134z" />
    <glyph glyph-name="C" unicode="C" horiz-adv-x="648" 
d="M388 51q41 0 72 7.5t55 19t42.5 24l33.5 22.5l9 -63q-45 -34 -100 -51.5t-115 -17.5q-65 0 -114.5 17t-86 45t-61.5 64.5t-40 76t-21.5 78.5t-6.5 73q0 61 19 123.5t59 113.5t102.5 83.5t149.5 32.5q57 0 111 -15.5t100 -50.5l-7 -63l-34.5 22.5t-42.5 23t-54.5 18
t-69.5 7.5q-55 0 -101.5 -22t-80.5 -61t-53 -93.5t-19 -118.5q0 -59 17.5 -112.5t50.5 -94t80 -64.5t106 -24z" />
    <glyph glyph-name="D" unicode="D" horiz-adv-x="741" 
d="M91 692h248q78 0 141.5 -25.5t109.5 -71t71 -109.5t25 -141q0 -71 -24.5 -133.5t-70 -109.5t-111 -74.5t-146.5 -27.5h-243v692zM333 74q48 0 98 13.5t90.5 45.5t66.5 84.5t26 130.5q0 74 -26 126.5t-67 86t-90.5 49t-96.5 15.5h-174v-551h173z" />
    <glyph glyph-name="E" unicode="E" horiz-adv-x="538" 
d="M490 0h-399v692h399l-11 -67h-319v-224h252l-13 -67h-239v-268h330v-66z" />
    <glyph glyph-name="F" unicode="F" horiz-adv-x="533" 
d="M160 0h-69v692h394l-12 -67h-313v-224h247l-12 -67h-235v-334z" />
    <glyph glyph-name="G" unicode="G" horiz-adv-x="699" 
d="M629 351v-291q-1 -1 -17 -11.5t-45.5 -23t-71.5 -23t-95 -10.5q-67 0 -119 17t-90.5 45t-64.5 64.5t-41.5 76t-22.5 78.5t-7 73q0 61 20 123.5t62 113.5t107 83.5t156 32.5q57 0 115 -15.5t106 -50.5l-8 -63l-34.5 22t-45.5 23t-58 18.5t-71 7.5q-58 0 -107 -22t-85 -61
t-56 -93.5t-20 -118.5q0 -59 19 -112.5t53.5 -94t84 -64.5t111.5 -24q54 0 91 10.5t64 24.5v198h-131l11 67h190z" />
    <glyph glyph-name="H" unicode="H" horiz-adv-x="723" 
d="M160 692v-294h402v294h70v-692h-70v332h-402v-332h-69v692h69z" />
    <glyph glyph-name="I" unicode="I" horiz-adv-x="251" 
d="M160 0h-69v692h69v-692z" />
    <glyph glyph-name="J" unicode="J" horiz-adv-x="419" 
d="M260 692h68v-498q0 -43 -15.5 -80t-43 -64t-65 -42.5t-82.5 -15.5q-28 0 -53.5 6.5t-51.5 18.5l12 72q16 -16 41 -24.5t48 -8.5q66 0 103.5 38t37.5 98z" />
    <glyph glyph-name="K" unicode="K" horiz-adv-x="610" 
d="M593 0h-94l-339 348v-348h-69v692h69v-311l318 311h95l-339 -327z" />
    <glyph glyph-name="L" unicode="L" horiz-adv-x="467" 
d="M160 66h290v-66h-359v692h69v-626z" />
    <glyph glyph-name="M" unicode="M" horiz-adv-x="857" 
d="M429 88l242 604h96v-692h-69v573l-232 -573h-75l-232 573v-573h-69v692h96z" />
    <glyph glyph-name="N" unicode="N" horiz-adv-x="756" 
d="M666 692v-692h-71l-436 571v-571h-69v692h69l439 -572v572h68z" />
    <glyph glyph-name="O" unicode="O" 
d="M397 699q88 0 153 -31.5t107 -81.5t62.5 -113t20.5 -127t-20.5 -127t-62.5 -113.5t-107 -82t-153 -31.5q-90 0 -154.5 31.5t-106 82t-61.5 113.5t-20 127t20 127t61.5 113t106 81.5t154.5 31.5zM397 56q47 0 95 15.5t86.5 50t62.5 90t24 135.5q0 75 -23.5 130t-62 91
t-86.5 54t-96 18t-96.5 -18t-86.5 -54t-62 -91t-24 -130q0 -80 24.5 -135.5t63 -90t86.5 -50t95 -15.5z" />
    <glyph glyph-name="P" unicode="P" horiz-adv-x="571" 
d="M160 279v-279h-69v692h194q112 -1 177 -55.5t65 -151.5t-65 -151.5t-177 -54.5h-125zM160 345h134q50 0 81.5 15.5t49 37.5t23.5 46t6 42q0 16 -5 40t-22 46t-49 37.5t-86 15.5h-132v-280z" />
    <glyph glyph-name="Q" unicode="Q" 
d="M740 346q0 -41 -8.5 -82.5t-26.5 -80.5t-44.5 -72.5t-62.5 -58.5l117 -150h-86l-88 116q-32 -12 -67 -19t-77 -7q-90 0 -154.5 31.5t-106 82t-61.5 113.5t-20 127t20 127t61.5 113t106 81.5t154.5 31.5q88 0 153 -31.5t107 -81.5t62.5 -113t20.5 -127zM128 347
q0 -80 24.5 -135t63 -89.5t86.5 -50t95 -15.5t95 15.5t86.5 50t62.5 89.5t24 135q0 75 -23.5 130t-62 91t-86.5 54t-96 18t-96.5 -18t-86.5 -54t-62 -91t-24 -130z" />
    <glyph glyph-name="R" unicode="R" horiz-adv-x="572" 
d="M160 0h-69v692h194q112 0 177 -51t65 -148q0 -44 -14 -80t-40.5 -62t-64 -40.5t-85.5 -14.5q11 -5 24.5 -19t38 -46l65 -87.5l104.5 -143.5h-84l-39 52.5l-46.5 64l-49.5 68l-48 64.5q-10 13 -20.5 21.5t-25 13.5t-34.5 7.5t-48 2.5v-294zM294 360q50 0 81.5 14t49 34.5
t23.5 43.5t6 41q0 16 -5 39t-22 43.5t-49 35t-86 14.5h-132v-265h134z" />
    <glyph glyph-name="S" unicode="S" horiz-adv-x="557" 
d="M303 386q109 -42 159 -90.5t50 -114.5q0 -48 -24 -84t-60.5 -59t-79 -34.5t-78.5 -11.5q-92 0 -148 21.5t-77 42.5l12 74q15 -12 34.5 -24.5t44.5 -23t55.5 -17.5t67.5 -7q30 0 61 8t56.5 23t42 37t16.5 51q0 26 -10.5 46t-31.5 37t-52.5 32.5t-74.5 32.5
q-31 12 -66.5 27.5t-65.5 38.5t-50 54.5t-20 75.5q0 46 19.5 79.5t50.5 55.5t70.5 32.5t80.5 10.5q35 0 65 -6t54 -15t42 -19.5t30 -20.5l-11 -64l-19.5 16t-35 21.5t-51.5 18.5t-70 8q-30 0 -57.5 -7.5t-48.5 -21.5t-33 -34.5t-12 -46.5q0 -27 12 -47.5t34 -37t52.5 -30.5
t66.5 -27z" />
    <glyph glyph-name="T" unicode="T" horiz-adv-x="577" 
d="M254 0v625h-237v67h543l-12 -67h-226v-625h-68z" />
    <glyph glyph-name="U" unicode="U" horiz-adv-x="735" 
d="M577 692h69v-454q0 -59 -18.5 -100.5t-47 -69t-62 -43t-64.5 -23t-54 -9t-30 -1.5t-30.5 1.5t-54.5 9t-65.5 23t-63 43t-47 68.5t-18.5 101v454h69v-451q0 -50 18 -84.5t47.5 -56t67 -31t76.5 -9.5q38 0 75.5 10t67 31.5t47.5 55.5t18 83v452z" />
    <glyph glyph-name="V" unicode="V" horiz-adv-x="688" 
d="M594 692h77l-293 -692h-68l-293 692h77l250 -599z" />
    <glyph glyph-name="W" unicode="W" horiz-adv-x="1015" 
d="M922 692h76l-219 -692h-58l-213 601l-213 -601h-58l-220 692h76l173 -557l194 557h95l194 -557z" />
    <glyph glyph-name="X" unicode="X" horiz-adv-x="661" 
d="M374 369l270 -369h-85l-229 314l-228 -314h-85l271 369l-235 323h83l194 -268l195 268h82z" />
    <glyph glyph-name="Y" unicode="Y" horiz-adv-x="570" 
d="M553 692l-234 -393v-299h-68v299l-234 393h75l193 -326l193 326h75z" />
    <glyph glyph-name="Z" unicode="Z" horiz-adv-x="611" 
d="M563 692v-55l-424 -571h422v-66h-513v55l427 570h-425v67h513z" />
    <glyph glyph-name="bracketleft" unicode="[" horiz-adv-x="364" 
d="M50 -95v793h264v-55h-201v-683h201v-55h-264z" />
    <glyph glyph-name="bracketright" unicode="]" horiz-adv-x="364" 
d="M314 -95h-264v55h201v683h-201v55h264v-793z" />
    <glyph glyph-name="underscore" unicode="_" horiz-adv-x="638" 
d="M50 -69v41h538v-41h-538z" />
    <glyph glyph-name="a" unicode="a" horiz-adv-x="532" 
d="M213 -8q-78 0 -122 40.5t-44 106.5q0 167 329 172v37q0 7 -4 19t-17.5 24t-40 21t-71.5 9q-53 0 -88 -13.5t-59 -26.5l-18 54q24 13 64.5 28t104.5 15q37 0 72.5 -8t63.5 -23.5t45.5 -37.5t17.5 -49v-360h-47l-25 43q-35 -20 -77 -35.5t-84 -15.5zM376 256
q-96 0 -148.5 -13t-77 -31t-29 -36t-4.5 -28q0 -45 27.5 -71t72.5 -26q12 0 30 3t39.5 10t44.5 18t45 27v147z" />
    <glyph glyph-name="b" unicode="b" horiz-adv-x="573" 
d="M317 478q100 0 153 -60.5t54 -169.5q-1 -121 -53.5 -188.5t-152.5 -67.5q-40 0 -78.5 14t-81.5 37l-25 -43h-47v738h70v-311q29 18 71 34.5t90 16.5zM318 51q32 0 54.5 12.5t38 31.5t24 42.5t13 46t6 40.5t1.5 27q0 15 -4 43t-18 55.5t-41.5 48.5t-73.5 21q-28 0 -54 -7
t-47.5 -16.5t-37.5 -19.5t-23 -15v-252q6 -5 22 -15t38 -19.5t48.5 -16.5t53.5 -7z" />
    <glyph glyph-name="c" unicode="c" horiz-adv-x="502" 
d="M281 50q32 0 59 8t47.5 18t33 18.5t15.5 9.5l18 -59q-36 -26 -83 -39.5t-95 -13.5q-50 0 -92 17.5t-72 48.5t-46.5 74t-16.5 95v15q0 52 16.5 95.5t46.5 74.5t72 48.5t92 17.5q45 0 90.5 -13.5t87.5 -39.5l-18 -60q-2 1 -15 9.5t-34 18.5t-48.5 18t-57.5 8
q-50 0 -81.5 -18.5t-49.5 -45.5t-24.5 -58t-6.5 -55v-15q0 -24 6.5 -54.5t24.5 -58t49.5 -46t81.5 -18.5z" />
    <glyph glyph-name="d" unicode="d" horiz-adv-x="573" 
d="M487 726v-726h-47l-24 43q-45 -23 -82 -37t-79 -14q-100 0 -153 67.5t-53 188.5q0 109 53.5 169.5t153.5 60.5q48 0 90.5 -16.5t71.5 -34.5v311zM418 361l-25 14.5t-38 19.5t-47.5 17t-53.5 7q-47 0 -74 -21t-40.5 -48.5t-17 -55.5t-3.5 -43q0 -9 1 -27t5.5 -40.5
t13.5 -46t24 -42.5t37.5 -31.5t54.5 -12.5q27 0 53 7t47.5 16.5t38 19.5l24.5 15v252z" />
    <glyph glyph-name="e" unicode="e" horiz-adv-x="530" 
d="M281 50q57 0 95 16t55 28l14 -57l-27.5 -13t-38 -15t-48 -12t-56.5 -5q-32 0 -71 11.5t-73.5 40t-58 77t-23.5 123.5q1 52 17.5 95t45.5 74t68 48t86 17q67 0 109 -28.5t66 -66t33 -73.5t9 -52l-34 -40h-330q2 -26 12 -55.5t29.5 -54.5t49 -41.5t71.5 -16.5zM266 420
q-63 0 -99 -40.5t-47 -106.5h290q-11 66 -47 106.5t-97 40.5z" />
    <glyph glyph-name="f" unicode="f" horiz-adv-x="380" 
d="M272 655q-11 0 -23.5 -2.5t-23.5 -12t-18 -27.5t-7 -48v-99h128l-20 -54h-108v-412h-69v412h-114v54h114v97q0 33 6.5 61t22 48.5t42 31.5t66.5 11q34 0 58 -8t37 -16l-29 -53q-6 4 -20.5 10.5t-41.5 6.5z" />
    <glyph glyph-name="g" unicode="g" horiz-adv-x="572" 
d="M486 466v-497q0 -29 -9.5 -61t-32 -59t-58.5 -44.5t-88 -17.5q-37 0 -65.5 9t-49.5 21.5t-34 26t-19 23.5l55 31q5 -7 14 -15.5t22 -16.5t30.5 -13.5t40.5 -5.5q58 0 91 33t33 87v76q-42 -24 -83 -37.5t-79 -13.5q-97 0 -151 61.5t-54 176.5q0 121 52.5 184.5t152.5 63.5
q51 0 91 -17.5t70 -33.5l24 39h47zM416 361q-8 6 -24.5 15.5t-38 19.5t-47.5 17t-51 7q-47 0 -74.5 -23.5t-41.5 -55t-17.5 -63.5t-3.5 -48q0 -6 0.5 -22t4.5 -35.5t12.5 -41t24 -39.5t39.5 -29.5t59 -11.5q45 0 86.5 19t71.5 39v252z" />
    <glyph glyph-name="h" unicode="h" horiz-adv-x="564" 
d="M478 0h-70v323q0 14 -3 31t-13 31.5t-27.5 24.5t-46.5 10q-26 0 -51.5 -7.5t-47.5 -17t-38.5 -19.5l-24.5 -15v-361h-70v738h70v-311l28.5 14.5t37.5 17t45.5 14t52.5 5.5q30 0 58.5 -10t50.5 -30t35.5 -50.5t13.5 -70.5v-317z" />
    <glyph glyph-name="i" unicode="i" horiz-adv-x="263" 
d="M166 0h-69v466h69v-466zM131 662q20 0 33 -12.5t13 -31.5t-13 -32t-33 -13q-18 0 -31.5 13t-13.5 32q0 18 13.5 31t31.5 13z" />
    <glyph glyph-name="j" unicode="j" horiz-adv-x="348" 
d="M248 -61q0 -25 -7.5 -51.5t-25.5 -49t-46.5 -37t-70.5 -14.5q-26 0 -47.5 6.5t-33.5 14.5l12 67q10 -9 25 -18.5t39 -9.5q45 0 65 25.5t20 70.5v523h70v-527zM259 618q0 -19 -13.5 -32t-31.5 -13q-20 0 -33.5 13t-13.5 32q0 18 14 31t33 13q18 0 31.5 -12.5t13.5 -31.5z
" />
    <glyph glyph-name="k" unicode="k" horiz-adv-x="517" 
d="M203 247l297 -247h-90l-254 214v-214h-70v738h70v-455l225 183h90z" />
    <glyph glyph-name="l" unicode="l" horiz-adv-x="252" 
d="M161 727v-727h-70v739z" />
    <glyph glyph-name="m" unicode="m" horiz-adv-x="886" 
d="M478 0h-70v323q0 13 -3 29.5t-13 31.5t-27.5 25t-46.5 10q-26 0 -52 -7t-48 -17t-38.5 -19.5t-23.5 -14.5v-361h-70v466h47l25 -39l29 14.5t38 17t45 14t50 5.5q54 0 85.5 -19.5t46.5 -42.5l25.5 14t45 20.5t57.5 19t63 8.5q30 0 58.5 -9.5t50.5 -29.5t35 -50.5t13 -72.5
v-316h-69v323q0 15 -3.5 32t-13.5 31.5t-28 24t-46 9.5q-26 0 -51.5 -7.5t-47.5 -17t-38.5 -19.5l-24.5 -15v-361z" />
    <glyph glyph-name="n" unicode="n" horiz-adv-x="564" 
d="M320 478q31 0 59.5 -9.5t50.5 -30t35 -51t13 -72.5v-315h-70v323q0 13 -3 29.5t-13 31.5t-27.5 25t-46.5 10q-26 0 -52 -7t-48 -17t-38.5 -19.5t-23.5 -14.5v-361h-70v466h47l25 -39l29.5 14.5t38.5 17t45 14t49 5.5z" />
    <glyph glyph-name="o" unicode="o" horiz-adv-x="580" 
d="M290 478q52 0 96 -18.5t76 -51t50.5 -77t18.5 -96.5t-18.5 -96.5t-50.5 -77t-76 -51t-96 -18.5t-96 18.5t-76.5 51t-50.5 77t-18 96.5t18 96.5t50.5 77t76.5 51t96 18.5zM462 235q0 40 -13 73.5t-35.5 58t-54.5 38.5t-69 14q-38 0 -69 -14t-54 -38.5t-35.5 -58
t-12.5 -73.5t12.5 -74t35.5 -58.5t54 -38.5t69 -14q37 0 69 14t54.5 38.5t35.5 58.5t13 74z" />
    <glyph glyph-name="p" unicode="p" horiz-adv-x="573" 
d="M524 222q0 -53 -14.5 -95.5t-41.5 -72.5t-65.5 -46t-85.5 -16q-48 0 -90 16.5t-71 34.5v-253h-70v676h47l25 -39q39 22 78.5 36.5t81.5 14.5q205 0 206 -256zM455 219q0 9 -1 27.5t-5.5 40.5t-13 45.5t-24 42.5t-38.5 31.5t-55 12.5q-27 0 -53.5 -7t-48.5 -17t-38 -19.5
t-22 -14.5v-252q7 -6 24.5 -15.5t40.5 -19t48.5 -16.5t48.5 -7q45 0 72.5 21t41.5 49.5t18.5 56t4.5 41.5z" />
    <glyph glyph-name="q" unicode="q" horiz-adv-x="573" 
d="M487 466v-664l-69 -12v253q-29 -18 -71.5 -34.5t-90.5 -16.5q-47 0 -85 16t-65 46t-42 72.5t-15 95.5q1 256 206 256q42 0 81.5 -14.5t79.5 -36.5l24 39h47zM418 361q-6 5 -22.5 14.5t-39 19.5t-49 17t-52.5 7q-33 0 -56 -12.5t-38 -31.5t-23.5 -42.5t-12.5 -45.5
t-5 -40.5t-1 -27.5q0 -14 4 -41.5t18 -56t40.5 -49.5t72.5 -21q25 0 50.5 7t47.5 16t39.5 19t26.5 16v252z" />
    <glyph glyph-name="r" unicode="r" horiz-adv-x="406" 
d="M318 478q23 0 40 -3.5t31 -8.5l-26 -57q-9 4 -17.5 7t-28.5 3q-25 0 -50 -7t-46.5 -16t-38.5 -19t-26 -16v-361h-70v466h47l25 -39q43 23 82.5 37t77.5 14z" />
    <glyph glyph-name="s" unicode="s" horiz-adv-x="433" 
d="M220 278l62.5 -24t54 -28t37.5 -38.5t14 -56.5q0 -25 -11 -50t-32.5 -44.5t-53 -32t-73.5 -12.5q-45 0 -90 11.5t-83 37.5l14 66q35 -24 71 -41.5t83 -17.5q45 0 76 21.5t31 58.5q0 33 -30 50.5t-81 35.5q-26 9 -54 20.5t-52 28t-39.5 39t-15.5 54.5q0 18 8.5 39.5t28 40
t50.5 30.5t75 12q39 0 76 -10t75 -27l-20 -55l-20.5 10.5t-28.5 12.5t-36 10.5t-44 4.5q-27 0 -45 -6t-29.5 -16t-16 -21.5t-4.5 -23.5q0 -7 3 -15.5t13.5 -18.5t31 -21.5t55.5 -23.5z" />
    <glyph glyph-name="t" unicode="t" horiz-adv-x="380" 
d="M200 412v-264q0 -45 20.5 -70t66.5 -25q19 0 36 6.5t28 14.5l12 -61q-13 -8 -35 -14.5t-48 -6.5q-53 0 -83 17.5t-44.5 42.5t-18 52.5t-3.5 48.5v259h-114v54h114v164l69 12v-176h128l-20 -54h-108z" />
    <glyph glyph-name="u" unicode="u" horiz-adv-x="563" 
d="M157 147q0 -17 3 -34t12 -31t26.5 -23t46.5 -9q25 0 51 7.5t48 17t38.5 19.5l24.5 15v357h70v-466h-46l-26 43l-30 -14.5t-39.5 -17t-46.5 -14t-50 -5.5q-83 0 -117.5 41.5t-34.5 115.5v317h70v-319z" />
    <glyph glyph-name="v" unicode="v" horiz-adv-x="492" 
d="M397 466h71l-191 -466h-62l-191 466h73l149 -373z" />
    <glyph glyph-name="w" unicode="w" horiz-adv-x="787" 
d="M692 466h71l-171 -466h-68l-131 351l-131 -351h-67l-171 466h70l134 -373l134 373h62l134 -373z" />
    <glyph glyph-name="x" unicode="x" horiz-adv-x="476" 
d="M451 466l-174 -233l175 -233h-81l-133 183l-133 -183h-81l175 233l-174 233h81l132 -182l132 182h81z" />
    <glyph glyph-name="y" unicode="y" horiz-adv-x="507" 
d="M409 466h74l-217 -511q-12 -27 -27 -54t-36.5 -49.5t-51.5 -39t-72 -22.5l-20 63q29 3 51.5 11t41 24t35 42.5t33.5 66.5l-196 469h74l156 -383z" />
    <glyph glyph-name="z" unicode="z" horiz-adv-x="498" 
d="M127 57h317v-57h-390v63l318 349h-305v54h375v-65z" />
    <glyph glyph-name="braceleft" unicode="{" horiz-adv-x="423" 
d="M51 274l-1 55q42 0 69.5 26t27.5 72v134q0 69 35.5 103t116.5 34h74v-57h-63q-52 0 -74.5 -18t-22.5 -72v-132q0 -45 -23 -73.5t-55 -43.5q32 -17 55 -44.5t23 -73.5v-132q0 -29 5 -46.5t16.5 -27t30 -13t45.5 -3.5h63v-57h-72q-84 0 -119 34t-35 103v135
q0 42 -25.5 69.5t-70.5 27.5v55v-55z" />
    <glyph glyph-name="bar" unicode="|" horiz-adv-x="160" 
d="M50 739h60v-902h-60v902z" />
    <glyph glyph-name="braceright" unicode="}" horiz-adv-x="423" 
d="M373 329v-55q-42 0 -69.5 -24.5t-27.5 -72.5v-135q0 -69 -35.5 -103t-116.5 -34h-74v57h63q26 0 44.5 3.5t30.5 13t17.5 27t5.5 46.5v132q0 45 23.5 73.5t55.5 43.5q-32 16 -55.5 44t-23.5 74v132q0 54 -22.5 72t-75.5 18h-63v57h72q84 0 119 -34t35 -103v-134
q0 -42 26 -70t71 -28v-55v55z" />
    <glyph glyph-name="asciitilde" unicode="~" horiz-adv-x="573" 
d="M523 411q0 -15 -3.5 -38.5t-16 -45.5t-36.5 -37.5t-64 -15.5q-29 0 -60.5 10.5t-62 23.5t-60.5 23.5t-56 10.5q-31 0 -44 -16t-13 -53h-57q0 15 3.5 38.5t16 45.5t36 37.5t63.5 15.5q31 0 63 -10.5t63.5 -23.5t61 -23.5t55.5 -10.5q30 0 42 15.5t12 53.5h57z" />
    <glyph glyph-name="degree" unicode="&#xb0;" horiz-adv-x="430" 
d="M380 511q0 -32 -13 -59.5t-35.5 -48t-52.5 -32.5t-64 -12t-64 12t-52.5 32.5t-35.5 48t-13 59.5q0 31 13 59t35.5 49t52.5 33t64 12t64 -12t52.5 -33t35.5 -49t13 -59zM215 615q-46 0 -76 -29.5t-30 -74.5q0 -21 8.5 -40t22.5 -33.5t33.5 -22.5t41.5 -8t41.5 8t33.5 22.5
t22.5 33.5t8.5 40q0 45 -30.5 74.5t-75.5 29.5z" />
    <glyph glyph-name="bullet" unicode="&#x2022;" horiz-adv-x="316" 
d="M50 368q0 21 8.5 39t23.5 31.5t34.5 21t40.5 7.5q23 0 43 -7.5t34.5 -21t23 -31.5t8.5 -39t-8.5 -39.5t-23.5 -32t-35 -21t-42 -7.5q-21 0 -40.5 8t-34.5 21.5t-23.5 31.5t-8.5 39z" />
    <glyph glyph-name="registered" unicode="&#xae;" horiz-adv-x="915" 
d="M493 291l31.5 -42.5l32 -44l29 -39.5l22.5 -30h-50l-22 30.5l-27.5 36.5l-29 39l-26.5 38q-11 16 -27 21t-48 5v-170h-39v400h113q66 0 103 -29t36 -86q0 -51 -32 -82.5t-86 -31.5q5 -2 9.5 -5t10.5 -10zM457 343q29 0 47 8t28 20t13.5 25t3.5 24q0 10 -3 23t-12.5 25
t-28.5 20.5t-50 8.5h-77v-154h79zM78 335q0 72 30 135.5t81.5 110.5t120.5 74.5t148 27.5t148 -27.5t120.5 -74.5t81 -110.5t29.5 -135.5t-29.5 -135.5t-81 -110.5t-120.5 -74.5t-148 -27.5t-148 27.5t-120.5 74.5t-81.5 110.5t-30 135.5zM458 643q-71 0 -133 -24
t-107.5 -65.5t-72 -97.5t-26.5 -120t26.5 -120t72 -97.5t107.5 -65.5t133 -24q70 0 132 24t108 65.5t72.5 97.5t26.5 120t-26.5 120t-72.5 97.5t-108 65.5t-132 24z" />
    <glyph glyph-name="copyright" unicode="&#xa9;" horiz-adv-x="915" 
d="M78 335q0 72 30 135.5t81.5 110.5t120.5 74.5t148 27.5t148 -27.5t120.5 -74.5t81 -110.5t29.5 -135.5t-29.5 -135.5t-81 -110.5t-120.5 -74.5t-148 -27.5t-148 27.5t-120.5 74.5t-81.5 110.5t-30 135.5zM458 643q-71 0 -133 -24t-107.5 -65.5t-72 -97.5t-26.5 -120
t26.5 -120t72 -97.5t107.5 -65.5t133 -24q70 0 132 24t108 65.5t72.5 97.5t26.5 120t-26.5 120t-72.5 97.5t-108 65.5t-132 24zM587 170q-28 -18 -58 -29t-66 -11q-56 0 -93 21t-58.5 52t-30.5 67t-9 65q0 35 11 71.5t34 66t59.5 48.5t86.5 19q34 0 63.5 -10.5t59.5 -28.5
l-5 -36q-18 12 -44 26.5t-71 14.5q-32 0 -59.5 -12.5t-47.5 -35.5t-31 -54.5t-11 -68.5q0 -34 10.5 -65t30 -54.5t47 -37.5t61.5 -14q23 0 41 4.5t32 11t24.5 13.5t18.5 13z" />
    <glyph glyph-name="trademark" unicode="&#x2122;" horiz-adv-x="912" 
d="M856 297h-41v308l-132 -308h-44l-132 308v-308h-40v371h55l140 -324l138 324h56v-371zM368 668v-35h-136v-336h-40v336h-136v35h312z" />
    <glyph glyph-name="ellipsis" unicode="&#x2026;" horiz-adv-x="607" 
d="M126 86v-86h-76v86h76zM482 0v86h75v-86h-75zM265 0v86h77v-86h-77z" />
    <glyph glyph-name="endash" unicode="&#x2013;" horiz-adv-x="728" 
d="M50 273v61h628v-61h-628z" />
    <glyph glyph-name="emdash" unicode="&#x2014;" horiz-adv-x="989" 
d="M50 273v61h889v-61h-889z" />
    <glyph glyph-name="quotedblleft" unicode="&#x201c;" horiz-adv-x="363" 
d="M313 691l-35 -195h-76l69 195h42zM160 691l-33 -195h-77l69 195h41z" />
    <glyph glyph-name="quotedblright" unicode="&#x201d;" horiz-adv-x="363" 
d="M50 496l34 195h76l-69 -195h-41zM202 496l35 195h76l-69 -195h-42z" />
    <glyph glyph-name="quoteleft" unicode="&#x2018;" horiz-adv-x="211" 
d="M161 691l-34 -195h-77l69 195h42z" />
    <glyph glyph-name="quoteright" unicode="&#x2019;" horiz-adv-x="210" 
d="M50 496l34 195h76l-68 -195h-42z" />
    <glyph glyph-name="guilsinglleft" unicode="&#x2039;" horiz-adv-x="326" 
d="M208 462h68l-152 -231l152 -231h-69l-157 231z" />
    <glyph glyph-name="guilsinglright" unicode="&#x203a;" horiz-adv-x="326" 
d="M118 461l158 -230l-158 -231h-68l152 231l-152 230h68z" />
    <glyph glyph-name="periodcentered" unicode="&#xb7;" horiz-adv-x="218" 
d="M50 356q0 23 17 39t42 16t42 -16t17 -39t-17 -39t-42 -16t-42 16t-17 39z" />
    <glyph glyph-name="exclam" unicode="!" horiz-adv-x="180" 
d="M50 692h80l-14 -525h-53zM53 0v86h75v-86h-75z" />
    <glyph glyph-name="quotedbl" unicode="&#x22;" horiz-adv-x="363" 
d="M50 496l34 195h76l-68 -195h-42zM202 496l35 195h76l-69 -195h-42z" />
    <glyph glyph-name="numbersign" unicode="#" horiz-adv-x="730" 
d="M548 691l-20 -208h152v-62h-157l-14 -141h136v-63h-141l-21 -217h-63l21 217h-166l-21 -217h-64l21 217h-161v63h166l12 141h-144v62h149l20 208h65l-19 -208h164l20 208h65zM458 421h-166l-12 -141h166z" />
    <glyph glyph-name="dollar" unicode="$" horiz-adv-x="545" 
d="M495 181q0 -48 -22.5 -83t-57 -58.5t-74.5 -35t-74 -12.5l-7 -65h-60l5 69q-42 5 -81.5 19t-73.5 41l11 74q30 -28 69.5 -44t81.5 -24l25 274q-28 12 -58 27.5t-55 37.5t-41 51.5t-16 68.5q0 45 17.5 78t46.5 54.5t65.5 33t74.5 12.5l6 65h61l-7 -70q74 -11 131 -56
l-10 -62l-16.5 13t-28 18.5t-37 17.5t-44.5 10l-23 -252q101 -41 146.5 -89t45.5 -113zM137 525q0 -43 29.5 -69t77.5 -47l21 225q-57 -4 -92.5 -34t-35.5 -75zM272 59q27 3 54.5 11.5t49 23t35 35.5t13.5 48q0 47 -31.5 76t-97.5 57z" />
    <glyph glyph-name="ntilde" unicode="&#xf1;" horiz-adv-x="562" 
d="M209 601q-19 0 -27 -12t-8 -39h-38q0 12 2.5 29t10 33.5t22.5 28t41 11.5q18 0 42.5 -9t47.5 -20l35 -15t26 -7q18 0 25.5 11.5t7.5 40.5h38q0 -12 -2.5 -29t-10 -33.5t-23 -28t-40.5 -11.5q-16 0 -39 8.5t-47 19.5q-20 8 -35.5 15t-27.5 7zM323 478q31 0 59.5 -9.5
t50.5 -30t35 -51t13 -72.5v-315h-70v323q0 13 -3 29.5t-13 31.5t-27.5 25t-46.5 10q-26 0 -52 -7t-48 -17t-38.5 -19.5t-23.5 -14.5v-361h-70v466h47l25 -39l8 4l30 14t36.5 15.5t41.5 12.5t46 5z" />
    <glyph glyph-name="Ntilde" unicode="&#xd1;" horiz-adv-x="762" 
d="M304 806q-35 0 -35 -52h-38q0 12 2.5 29t10 33.5t22.5 28t41 11.5q18 0 42.5 -9t47.5 -20l35 -14.5t26 -6.5q18 0 25.5 11t7.5 40h38q0 -12 -2.5 -29t-10 -33.5t-23 -28t-40.5 -11.5q-16 0 -39 8.5t-47 19.5q-20 8 -35.5 15.5t-27.5 7.5zM668 692v-692h-71l-436 571v-571
h-69v692h69l439 -572v572h68z" />
    <glyph glyph-name="ucircumflex" unicode="&#xfb;" horiz-adv-x="569" 
d="M247 550h-60l76 118h44l76 -118h-60l-38 79zM480 466v-466h-46l-26 43l-5 -3l-30.5 -14.5t-38.5 -16t-44.5 -12.5t-47.5 -5q-83 0 -117.5 41.5t-34.5 115.5v317h70v-319q0 -17 3 -34t12 -31t26.5 -23t46.5 -9q25 0 51 7.5t48 17t38.5 19.5l24.5 15v357h70z" />
    <glyph glyph-name="uacute" unicode="&#xfa;" horiz-adv-x="569" 
d="M273 550h-41l25 106l7 31h74zM480 466v-466h-46l-26 43l-5 -3l-30.5 -14.5t-38.5 -16t-44.5 -12.5t-47.5 -5q-83 0 -117.5 41.5t-34.5 115.5v317h70v-319q0 -17 3 -34t12 -31t26.5 -23t46.5 -9q25 0 51 7.5t48 17t38.5 19.5l24.5 15v357h70z" />
    <glyph glyph-name="ugrave" unicode="&#xf9;" horiz-adv-x="569" 
d="M297 550l-65 137h74l7 -31l25 -106h-41zM480 466v-466h-46l-26 43l-5 -3l-30.5 -14.5t-38.5 -16t-44.5 -12.5t-47.5 -5q-83 0 -117.5 41.5t-34.5 115.5v317h70v-319q0 -17 3 -34t12 -31t26.5 -23t46.5 -9q25 0 51 7.5t48 17t38.5 19.5l24.5 15v357h70z" />
    <glyph glyph-name="udieresis" unicode="&#xfc;" horiz-adv-x="569" 
d="M412 550h-74v86h74v-86zM232 550h-74v86h74v-86zM480 466v-466h-46l-26 43l-5 -3l-30.5 -14.5t-38.5 -16t-44.5 -12.5t-47.5 -5q-83 0 -117.5 41.5t-34.5 115.5v317h70v-319q0 -17 3 -34t12 -31t26.5 -23t46.5 -9q25 0 51 7.5t48 17t38.5 19.5l24.5 15v357h70z" />
    <glyph glyph-name="Ugrave" unicode="&#xd9;" horiz-adv-x="741" 
d="M384 755l-65 136h73l7 -31l25 -105h-40zM649 692v-454q0 -59 -18.5 -100.5t-47 -69t-62 -43t-64.5 -23t-54 -9t-30 -1.5t-30.5 1.5t-54.5 9t-65.5 23t-63 43t-47 68.5t-18.5 101v454h69v-451q0 -50 18 -84.5t47.5 -56t67 -31t76.5 -9.5q38 0 75.5 10t67 31.5t47.5 55.5
t18 83v452h69z" />
    <glyph glyph-name="Uacute" unicode="&#xda;" horiz-adv-x="741" 
d="M359 755h-40l25 105l7 31h73zM649 692v-454q0 -59 -18.5 -100.5t-47 -69t-62 -43t-64.5 -23t-54 -9t-30 -1.5t-30.5 1.5t-54.5 9t-65.5 23t-63 43t-47 68.5t-18.5 101v454h69v-451q0 -50 18 -84.5t47.5 -56t67 -31t76.5 -9.5q38 0 75.5 10t67 31.5t47.5 55.5t18 83v452
h69z" />
    <glyph glyph-name="Ucircumflex" unicode="&#xdb;" horiz-adv-x="741" 
d="M333 755h-60l77 118h43l77 -118h-60l-39 78zM649 692v-454q0 -59 -18.5 -100.5t-47 -69t-62 -43t-64.5 -23t-54 -9t-30 -1.5t-30.5 1.5t-54.5 9t-65.5 23t-63 43t-47 68.5t-18.5 101v454h69v-451q0 -50 18 -84.5t47.5 -56t67 -31t76.5 -9.5q38 0 75.5 10t67 31.5
t47.5 55.5t18 83v452h69z" />
    <glyph glyph-name="Udieresis" unicode="&#xdc;" horiz-adv-x="741" 
d="M499 755h-74v86h74v-86zM318 755h-74v86h74v-86zM649 692v-454q0 -59 -18.5 -100.5t-47 -69t-62 -43t-64.5 -23t-54 -9t-30 -1.5t-30.5 1.5t-54.5 9t-65.5 23t-63 43t-47 68.5t-18.5 101v454h69v-451q0 -50 18 -84.5t47.5 -56t67 -31t76.5 -9.5q38 0 75.5 10t67 31.5
t47.5 55.5t18 83v452h69z" />
    <glyph glyph-name="oslash" unicode="&#xf8;" horiz-adv-x="580" 
d="M435 432q45 -32 70.5 -83t25.5 -114q0 -52 -18.5 -96.5t-50.5 -77t-76 -51t-96 -18.5q-61 0 -98 19l-30 -52h-64l46 79q-45 32 -70 83t-25 114q0 52 18 96.5t50.5 77t76.5 51t96 18.5q59 0 96 -19l34 59h64zM119 235q0 -45 15 -81t42 -61l180 313q-15 6 -31.5 9.5
t-34.5 3.5q-38 0 -69 -14t-54 -38.5t-35.5 -58t-12.5 -73.5zM290 50q37 0 69 14t54.5 38.5t35.5 58.5t13 74q0 45 -15.5 81t-43.5 61l-181 -314q25 -13 68 -13z" />
    <glyph glyph-name="ocircumflex" unicode="&#xf4;" horiz-adv-x="580" 
d="M252 550h-60l76 118h44l76 -118h-60l-38 79zM290 478q52 0 96 -18.5t76 -51t50.5 -77t18.5 -96.5t-18.5 -96.5t-50.5 -77t-76 -51t-96 -18.5t-96 18.5t-76.5 51t-50.5 77t-18 96.5t18 96.5t50.5 77t76.5 51t96 18.5zM290 50q37 0 69 14t54.5 38.5t35.5 58.5t13 74
t-13 73.5t-35.5 58t-54.5 38.5t-69 14q-38 0 -69 -14t-54 -38.5t-35.5 -58t-12.5 -73.5t12.5 -74t35.5 -58.5t54 -38.5t69 -14z" />
    <glyph glyph-name="oacute" unicode="&#xf3;" horiz-adv-x="580" 
d="M278 550h-41l25 106l7 31h74zM290 478q52 0 96 -18.5t76 -51t50.5 -77t18.5 -96.5t-18.5 -96.5t-50.5 -77t-76 -51t-96 -18.5t-96 18.5t-76.5 51t-50.5 77t-18 96.5t18 96.5t50.5 77t76.5 51t96 18.5zM290 50q37 0 69 14t54.5 38.5t35.5 58.5t13 74t-13 73.5t-35.5 58
t-54.5 38.5t-69 14q-38 0 -69 -14t-54 -38.5t-35.5 -58t-12.5 -73.5t12.5 -74t35.5 -58.5t54 -38.5t69 -14z" />
    <glyph glyph-name="ograve" unicode="&#xf2;" horiz-adv-x="580" 
d="M302 550l-65 137h74l7 -31l25 -106h-41zM290 478q52 0 96 -18.5t76 -51t50.5 -77t18.5 -96.5t-18.5 -96.5t-50.5 -77t-76 -51t-96 -18.5t-96 18.5t-76.5 51t-50.5 77t-18 96.5t18 96.5t50.5 77t76.5 51t96 18.5zM290 50q37 0 69 14t54.5 38.5t35.5 58.5t13 74t-13 73.5
t-35.5 58t-54.5 38.5t-69 14q-38 0 -69 -14t-54 -38.5t-35.5 -58t-12.5 -73.5t12.5 -74t35.5 -58.5t54 -38.5t69 -14z" />
    <glyph glyph-name="odieresis" unicode="&#xf6;" horiz-adv-x="580" 
d="M419 550h-74v86h74v-86zM239 550h-74v86h74v-86zM290 478q52 0 96 -18.5t76 -51t50.5 -77t18.5 -96.5t-18.5 -96.5t-50.5 -77t-76 -51t-96 -18.5t-96 18.5t-76.5 51t-50.5 77t-18 96.5t18 96.5t50.5 77t76.5 51t96 18.5zM290 50q37 0 69 14t54.5 38.5t35.5 58.5t13 74
t-13 73.5t-35.5 58t-54.5 38.5t-69 14q-38 0 -69 -14t-54 -38.5t-35.5 -58t-12.5 -73.5t12.5 -74t35.5 -58.5t54 -38.5t69 -14z" />
    <glyph glyph-name="otilde" unicode="&#xf5;" horiz-adv-x="580" 
d="M214 601q-19 0 -27 -12t-8 -39h-38q0 12 2.5 29t10 33.5t22.5 28t41 11.5q18 0 42.5 -9t47.5 -20l35 -15t26 -7q18 0 25.5 11.5t7.5 39.5h38q0 -11 -2.5 -28.5t-10 -33.5t-23 -27.5t-40.5 -11.5q-16 0 -39 8.5t-47 19.5q-20 8 -35.5 15t-27.5 7zM290 478q52 0 96 -18.5
t76 -51t50.5 -77t18.5 -96.5t-18.5 -96.5t-50.5 -77t-76 -51t-96 -18.5t-96 18.5t-76.5 51t-50.5 77t-18 96.5t18 96.5t50.5 77t76.5 51t96 18.5zM290 50q37 0 69 14t54.5 38.5t35.5 58.5t13 74t-13 73.5t-35.5 58t-54.5 38.5t-69 14q-38 0 -69 -14t-54 -38.5t-35.5 -58
t-12.5 -73.5t12.5 -74t35.5 -58.5t54 -38.5t69 -14z" />
    <glyph glyph-name="Oslash" unicode="&#xd8;" 
d="M597 641q36 -25 63 -58.5t45 -72.5t26.5 -80.5t8.5 -83.5q0 -64 -20.5 -127t-62.5 -113.5t-107 -82t-153 -31.5q-45 0 -84 8.5t-72 23.5l-37 -64h-64l53 92q-36 25 -62 59t-43 72.5t-25 80t-8 82.5q0 64 20 127t61.5 113t106 81.5t154.5 31.5q45 0 82 -8t69 -23l41 72h64
zM516 612q-55 28 -119 28q-48 0 -96.5 -18t-86.5 -54t-62 -91t-24 -130q0 -87 28 -144t72 -92zM397 56q47 0 95 15.5t86.5 50t62.5 90t24 135.5q0 85 -28.5 142.5t-73.5 92.5l-288 -500q29 -14 60 -20t62 -6z" />
    <glyph glyph-name="Ocircumflex" unicode="&#xd4;" 
d="M359 755h-60l77 118h43l77 -118h-60l-39 78zM397 699q88 0 153 -31.5t107 -81.5t62.5 -113t20.5 -127t-20.5 -127t-62.5 -113.5t-107 -82t-153 -31.5q-90 0 -154.5 31.5t-106 82t-61.5 113.5t-20 127t20 127t61.5 113t106 81.5t154.5 31.5zM397 56q47 0 95 15.5t86.5 50
t62.5 90t24 135.5q0 75 -23.5 130t-62 91t-86.5 54t-96 18t-96.5 -18t-86.5 -54t-62 -91t-24 -130q0 -80 24.5 -135.5t63 -90t86.5 -50t95 -15.5z" />
    <glyph glyph-name="Otilde" unicode="&#xd5;" 
d="M321 806q-35 0 -35 -51h-37q0 11 2 28.5t10 33.5t22.5 27.5t40.5 11.5q18 0 42.5 -9t47.5 -20l35.5 -14.5t26.5 -6.5q18 0 25.5 11t7.5 40h37q0 -12 -2 -29t-10 -33.5t-23 -28t-40 -11.5q-17 0 -40 8.5t-47 19.5l-35.5 16t-27.5 7zM397 699q88 0 153 -31.5t107 -81.5
t62.5 -113t20.5 -127t-20.5 -127t-62.5 -113.5t-107 -82t-153 -31.5q-90 0 -154.5 31.5t-106 82t-61.5 113.5t-20 127t20 127t61.5 113t106 81.5t154.5 31.5zM397 56q47 0 95 15.5t86.5 50t62.5 90t24 135.5q0 75 -23.5 130t-62 91t-86.5 54t-96 18t-96.5 -18t-86.5 -54
t-62 -91t-24 -130q0 -80 24.5 -135.5t63 -90t86.5 -50t95 -15.5z" />
    <glyph glyph-name="Ograve" unicode="&#xd2;" 
d="M410 755l-65 136h73l7 -31l25 -105h-40zM397 699q88 0 153 -31.5t107 -81.5t62.5 -113t20.5 -127t-20.5 -127t-62.5 -113.5t-107 -82t-153 -31.5q-90 0 -154.5 31.5t-106 82t-61.5 113.5t-20 127t20 127t61.5 113t106 81.5t154.5 31.5zM397 56q47 0 95 15.5t86.5 50
t62.5 90t24 135.5q0 75 -23.5 130t-62 91t-86.5 54t-96 18t-96.5 -18t-86.5 -54t-62 -91t-24 -130q0 -80 24.5 -135.5t63 -90t86.5 -50t95 -15.5z" />
    <glyph glyph-name="Oacute" unicode="&#xd3;" 
d="M385 755h-40l25 105l7 31h73zM397 699q88 0 153 -31.5t107 -81.5t62.5 -113t20.5 -127t-20.5 -127t-62.5 -113.5t-107 -82t-153 -31.5q-90 0 -154.5 31.5t-106 82t-61.5 113.5t-20 127t20 127t61.5 113t106 81.5t154.5 31.5zM397 56q47 0 95 15.5t86.5 50t62.5 90
t24 135.5q0 75 -23.5 130t-62 91t-86.5 54t-96 18t-96.5 -18t-86.5 -54t-62 -91t-24 -130q0 -80 24.5 -135.5t63 -90t86.5 -50t95 -15.5z" />
    <glyph glyph-name="Odieresis" unicode="&#xd6;" 
d="M526 755h-74v86h74v-86zM346 755h-74v86h74v-86zM397 699q88 0 153 -31.5t107 -81.5t62.5 -113t20.5 -127t-20.5 -127t-62.5 -113.5t-107 -82t-153 -31.5q-90 0 -154.5 31.5t-106 82t-61.5 113.5t-20 127t20 127t61.5 113t106 81.5t154.5 31.5zM397 56q47 0 95 15.5
t86.5 50t62.5 90t24 135.5q0 75 -23.5 130t-62 91t-86.5 54t-96 18t-96.5 -18t-86.5 -54t-62 -91t-24 -130q0 -80 24.5 -135.5t63 -90t86.5 -50t95 -15.5z" />
    <glyph glyph-name="ecircumflex" unicode="&#xea;" horiz-adv-x="530" 
d="M228 550h-60l76 118h44l76 -118h-60l-38 79zM449 218h-330q2 -26 12 -55.5t29.5 -54.5t49 -41.5t71.5 -16.5q57 0 95 16t55 28l14 -57l-27.5 -13t-38 -15t-48 -12t-56.5 -5q-32 0 -71 11.5t-73.5 40t-58 77t-23.5 123.5q0 52 16.5 95t45.5 74t68.5 48t86.5 17
q67 0 109 -28.5t66 -66t33 -73.5t9 -52zM410 273q-11 66 -47 106.5t-97 40.5q-63 0 -99 -40.5t-47 -106.5h290z" />
    <glyph glyph-name="eacute" unicode="&#xe9;" horiz-adv-x="530" 
d="M254 549h-41l25 105l7 31h74zM449 218h-330q2 -26 12 -55.5t29.5 -54.5t49 -41.5t71.5 -16.5q57 0 95 16t55 28l14 -57l-27.5 -13t-38 -15t-48 -12t-56.5 -5q-32 0 -71 11.5t-73.5 40t-58 77t-23.5 123.5q0 52 16.5 95t45.5 74t68.5 48t86.5 17q67 0 109 -28.5t66 -66
t33 -73.5t9 -52zM410 273q-11 66 -47 106.5t-97 40.5q-63 0 -99 -40.5t-47 -106.5h290z" />
    <glyph glyph-name="egrave" unicode="&#xe8;" horiz-adv-x="530" 
d="M278 549l-65 136h74l7 -31l25 -105h-41zM449 218h-330q2 -26 12 -55.5t29.5 -54.5t49 -41.5t71.5 -16.5q57 0 95 16t55 28l14 -57l-27.5 -13t-38 -15t-48 -12t-56.5 -5q-32 0 -71 11.5t-73.5 40t-58 77t-23.5 123.5q0 52 16.5 95t45.5 74t68.5 48t86.5 17q67 0 109 -28.5
t66 -66t33 -73.5t9 -52zM410 273q-11 66 -47 106.5t-97 40.5q-63 0 -99 -40.5t-47 -106.5h290z" />
    <glyph glyph-name="edieresis" unicode="&#xeb;" horiz-adv-x="530" 
d="M393 550h-74v87h74v-87zM213 550h-74v87h74v-87zM450 219h-330q2 -26 12 -55.5t29.5 -54.5t49 -41.5t71.5 -16.5q57 0 95 16t55 28l14 -57l-27.5 -13t-38 -15t-48 -12t-56.5 -5q-32 0 -71 11.5t-73.5 40t-58 77t-23.5 123.5q0 52 16.5 95t45.5 74t68.5 48t86.5 17
q67 0 109 -28.5t66 -66t33 -73.5t9 -52zM411 274q-11 66 -47 106.5t-97 40.5q-63 0 -99 -40.5t-47 -106.5h290z" />
    <glyph glyph-name="acircumflex" unicode="&#xe2;" horiz-adv-x="535" 
d="M210 550h-60l77 118h43l77 -118h-60l-39 79zM246 478q37 0 72.5 -8t63.5 -23.5t45.5 -37.5t17.5 -49v-360h-47l-25 43q-35 -20 -77 -35.5t-84 -15.5q-78 0 -122 40.5t-44 106.5q0 167 329 172v37q0 7 -4 19t-17.5 24t-40 21t-71.5 9q-53 0 -88 -13.5t-59 -26.5l-18 54
q24 13 64.5 28t104.5 15zM375 256q-96 0 -148.5 -13t-77 -31t-29 -36t-4.5 -28q0 -45 27.5 -71t72.5 -26q12 0 30 3t39.5 10t44.5 18t45 27v147z" />
    <glyph glyph-name="aring" unicode="&#xe5;" horiz-adv-x="535" 
d="M247 557q-21 0 -39 7.5t-31.5 21t-21 31t-7.5 38.5t7.5 38.5t21 31t31.5 21t39 7.5q42 0 70 -28t28 -70t-28 -70t-70 -28zM247 721q-28 0 -47 -19.5t-19 -46.5t19 -46.5t47 -19.5q27 0 46 19.5t19 46.5t-19 46.5t-46 19.5zM247 478q37 0 72.5 -8t63.5 -23.5t45.5 -37.5
t17.5 -49v-360h-47l-25 43q-35 -20 -77 -35.5t-84 -15.5q-78 0 -122 40.5t-44 106.5q0 167 329 172v37q0 7 -4 19t-17.5 24t-40 21t-71.5 9q-53 0 -88 -13.5t-59 -26.5l-18 54q24 13 64.5 28t104.5 15zM376 256q-96 0 -148.5 -13t-77 -31t-29 -36t-4.5 -28q0 -45 27.5 -71
t72.5 -26q12 0 30 3t39.5 10t44.5 18t45 27v147z" />
    <glyph glyph-name="agrave" unicode="&#xe0;" horiz-adv-x="535" 
d="M260 550l-65 137h73l7 -31l25 -106h-40zM247 478q37 0 72.5 -8t63.5 -23.5t45.5 -37.5t17.5 -49v-360h-47l-25 43q-35 -20 -77 -35.5t-84 -15.5q-78 0 -122 40.5t-44 106.5q0 167 329 172v37q0 7 -4 19t-17.5 24t-40 21t-71.5 9q-53 0 -88 -13.5t-59 -26.5l-18 54
q24 13 64.5 28t104.5 15zM376 256q-96 0 -148.5 -13t-77 -31t-29 -36t-4.5 -28q0 -45 27.5 -71t72.5 -26q12 0 30 3t39.5 10t44.5 18t45 27v147z" />
    <glyph glyph-name="aacute" unicode="&#xe1;" horiz-adv-x="535" 
d="M235 550h-40l25 106l7 31h73zM247 478q37 0 72.5 -8t63.5 -23.5t45.5 -37.5t17.5 -49v-360h-47l-25 43q-35 -20 -77 -35.5t-84 -15.5q-78 0 -122 40.5t-44 106.5q0 167 329 172v37q0 7 -4 19t-17.5 24t-40 21t-71.5 9q-53 0 -88 -13.5t-59 -26.5l-18 54q24 13 64.5 28
t104.5 15zM376 256q-96 0 -148.5 -13t-77 -31t-29 -36t-4.5 -28q0 -45 27.5 -71t72.5 -26q12 0 30 3t39.5 10t44.5 18t45 27v147z" />
    <glyph glyph-name="atilde" unicode="&#xe3;" horiz-adv-x="535" 
d="M172 601q-19 0 -27.5 -12t-8.5 -39h-37q0 12 2 29t10 33.5t22.5 28t40.5 11.5q18 0 42.5 -9t47.5 -20l5 -2q17 -8 32.5 -14t24.5 -6q18 0 25.5 11.5t7.5 39.5h37q0 -11 -2 -28.5t-10 -33.5t-23 -27.5t-40 -11.5q-17 0 -40 8.5t-47 19.5q-20 8 -35.5 15t-26.5 7zM247 478
q37 0 72.5 -8t63.5 -23.5t45.5 -37.5t17.5 -49v-360h-47l-25 43q-35 -20 -77 -35.5t-84 -15.5q-78 0 -122 40.5t-44 106.5q0 167 329 172v37q0 7 -4 19t-17.5 24t-40 21t-71.5 9q-53 0 -88 -13.5t-59 -26.5l-18 54q24 13 64.5 28t104.5 15zM376 256q-96 0 -148.5 -13
t-77 -31t-29 -36t-4.5 -28q0 -45 27.5 -71t72.5 -26q12 0 30 3t39.5 10t44.5 18t45 27v147z" />
    <glyph glyph-name="adieresis" unicode="&#xe4;" horiz-adv-x="535" 
d="M375 550h-74v86h74v-86zM195 550h-74v86h74v-86zM247 478q37 0 72.5 -8t63.5 -23.5t45.5 -37.5t17.5 -49v-360h-47l-25 43q-35 -20 -77 -35.5t-84 -15.5q-78 0 -122 40.5t-44 106.5q0 167 329 172v37q0 7 -4 19t-17.5 24t-40 21t-71.5 9q-53 0 -88 -13.5t-59 -26.5
l-18 54q24 13 64.5 28t104.5 15zM376 256q-96 0 -148.5 -13t-77 -31t-29 -36t-4.5 -28q0 -45 27.5 -71t72.5 -26q12 0 30 3t39.5 10t44.5 18t45 27v147z" />
    <glyph glyph-name="Aring" unicode="&#xc5;" horiz-adv-x="716" 
d="M699 0h-72l-91 202h-356l-91 -202h-72l296 671q-24 12 -38.5 35t-14.5 52q0 42 28 70t70 28t70 -28t28 -70q0 -29 -14.5 -51.5t-37.5 -35.5zM292 758q0 -26 17 -45t42 -21h13q26 2 43 21t17 45q0 27 -19.5 46.5t-46.5 19.5q-28 0 -47 -19.5t-19 -46.5zM511 267l-153 346
l-153 -346h306z" />
    <glyph glyph-name="Agrave" unicode="&#xc0;" horiz-adv-x="716" 
d="M370 755l-65 136h73l7 -31l25 -105h-40zM699 0h-72l-91 202h-356l-91 -202h-72l305 692h73zM511 267l-153 346l-153 -346h306z" />
    <glyph glyph-name="Atilde" unicode="&#xc3;" horiz-adv-x="716" 
d="M282 806q-35 0 -35 -51h-38q0 11 2 28.5t10 33.5t22.5 27.5t40.5 11.5q18 0 42.5 -9t47.5 -20l35.5 -14.5t26.5 -6.5q18 0 25.5 11t7.5 40h38q0 -12 -2.5 -29t-10 -33.5t-23 -28t-40.5 -11.5q-16 0 -39 8.5t-48 19.5l-35.5 16t-26.5 7zM699 0h-72l-91 202h-356l-91 -202
h-72l305 692h73zM511 267l-153 346l-153 -346h306z" />
    <glyph glyph-name="Aacute" unicode="&#xc1;" horiz-adv-x="716" 
d="M346 755h-41l25 105l7 31h74zM699 0h-72l-91 202h-356l-91 -202h-72l305 692h73zM511 267l-153 346l-153 -346h306z" />
    <glyph glyph-name="Acircumflex" unicode="&#xc2;" horiz-adv-x="716" 
d="M320 755h-60l76 118h44l76 -118h-60l-38 78zM699 0h-72l-91 202h-356l-91 -202h-72l305 692h73zM511 267l-153 346l-153 -346h306z" />
    <glyph glyph-name="Adieresis" unicode="&#xc4;" horiz-adv-x="716" 
d="M485 755h-74v86h74v-86zM305 755h-74v86h74v-86zM699 0h-72l-91 202h-356l-91 -202h-72l305 692h73zM511 267l-153 346l-153 -346h306z" />
    <glyph glyph-name="Icircumflex" unicode="&#xce;" horiz-adv-x="257" 
d="M94 692h69v-692h-69v692zM227 755h-60l-38 78l-39 -78h-60l77 118h43z" />
    <glyph glyph-name="Idieresis" unicode="&#xcf;" horiz-adv-x="257" 
d="M94 692h69v-692h-69v692zM1 841h74v-86h-74v86zM256 841v-86h-75v86h75z" />
    <glyph glyph-name="Igrave" unicode="&#xcc;" horiz-adv-x="257" 
d="M94 692h69v-692h-69v692zM141 755l-65 136h73l7 -31l25 -105h-40z" />
    <glyph glyph-name="Iacute" unicode="&#xcd;" horiz-adv-x="257" 
d="M94 692h69v-692h-69v692zM116 755h-40l25 105l7 31h73z" />
    <glyph glyph-name="iacute" unicode="&#xed;" horiz-adv-x="257" 
d="M100 466h68v-466h-68v466zM121 550h-40l25 106l7 31h73z" />
    <glyph glyph-name="igrave" unicode="&#xec;" horiz-adv-x="257" 
d="M100 466h68v-466h-68v466zM146 550l-65 137h73l7 -31l25 -106h-40z" />
    <glyph glyph-name="icircumflex" unicode="&#xee;" horiz-adv-x="257" 
d="M100 466h68v-466h-68v466zM233 550h-60l-38 79l-39 -79h-60l77 118h43z" />
    <glyph glyph-name="idieresis" unicode="&#xef;" horiz-adv-x="257" 
d="M95 466h68v-466h-68v466zM2 636h74v-86h-74v86zM182 636h74v-86h-74v86z" />
    <glyph glyph-name="Ecircumflex" unicode="&#xca;" horiz-adv-x="541" 
d="M493 66v-66h-399v692h399l-11 -67h-319v-224h252l-13 -67h-239v-268h330zM252 755h-60l77 118h43l76 -118h-59l-39 78z" />
    <glyph glyph-name="Edieresis" unicode="&#xcb;" horiz-adv-x="541" 
d="M493 66v-66h-399v692h399l-11 -67h-319v-224h252l-13 -67h-239v-268h330zM417 755h-74v86h74v-86zM237 755h-74v86h74v-86z" />
    <glyph glyph-name="Egrave" unicode="&#xc8;" horiz-adv-x="541" 
d="M493 66v-66h-399v692h399l-11 -67h-319v-224h252l-13 -67h-239v-268h330zM304 755l-65 136h73l7 -31l25 -105h-40z" />
    <glyph glyph-name="Eacute" unicode="&#xc9;" horiz-adv-x="541" 
d="M278 755h-40l25 105l7 31h73zM493 66v-66h-399v692h399l-11 -67h-319v-224h252l-13 -67h-239v-268h330z" />
    <glyph glyph-name="dotlessi" unicode="&#x131;" horiz-adv-x="342" 
d="M300 1h-69v397h-202v69h271v-466z" />
    <glyph glyph-name="ydieresis" unicode="&#xff;" horiz-adv-x="507" 
d="M382 550h-74v86h74v-86zM202 550h-74v86h74v-86zM483 466l-217 -511q-12 -27 -27 -54t-36.5 -49.5t-51.5 -39t-72 -22.5l-20 63q29 3 51.5 11t41 24t35 42.5t33.5 66.5l-196 469h74l156 -383l155 383h74z" />
    <glyph glyph-name="Ydieresis" unicode="&#x178;" horiz-adv-x="570" 
d="M412 754h-74v86h74v-86zM232 754h-75v86h75v-86zM553 692l-234 -393v-299h-68v299l-234 393h75l193 -326l193 326h75z" />
    <glyph glyph-name="yen" unicode="&#xa5;" horiz-adv-x="594" 
d="M363 358h176v-59h-208v-92h208v-59h-208v-148h-68v148h-208v59h208v92h-208v59h176l-181 334h75l172 -326l172 326h75z" />
    <glyph glyph-name="uni03A9" unicode="&#x3a9;" horiz-adv-x="720" 
d="M657 358q0 -56 -10 -100.5t-29 -78.5t-45 -59t-58 -43h155v-77h-225v94q30 16 53 42t38.5 60t23.5 74t8 84q0 50 -12.5 99t-38.5 88t-65 63t-91 24t-91 -23t-65 -62t-39 -90t-13 -106q0 -84 31 -152t91 -100v-95h-225v77h150q-63 36 -99.5 100.5t-36.5 167.5
q0 80 22.5 145.5t63 112t95.5 71.5t120 25q66 0 120 -25t92.5 -70.5t59 -108t20.5 -137.5z" />
    <glyph glyph-name="integral" unicode="&#x222b;" horiz-adv-x="383" 
d="M297 807q-35 0 -52.5 -21t-17.5 -59v-672q0 -66 -33 -105t-96 -39h-48v64h37q70 0 70 79v672q0 66 33.5 105t96.5 39h46v-63h-36z" />
    <glyph glyph-name="sterling" unicode="&#xa3;" horiz-adv-x="522" 
d="M360 645q-51 0 -80.5 -18t-45 -46t-20 -63.5t-4.5 -69.5v-43h146l-20 -54h-126v-291h246v-60h-315v351h-91v54h91v49q0 48 9.5 93t34 80.5t67 56.5t108.5 21q39 0 69 -7t43 -14l-10 -62q-14 8 -39 15.5t-63 7.5z" />
    <glyph glyph-name="germandbls" unicode="&#xdf;" horiz-adv-x="534" 
d="M329 403q81 -8 118 -55.5t37 -126.5q0 -49 -16 -89.5t-45 -69t-70 -44.5t-90 -16q-9 0 -36 2t-51 10l4 67l3 -2q17 -11 41.5 -13.5t39.5 -2.5q69 0 112 41t43 116q0 78 -45.5 111t-145.5 33h-12v64h20q66 0 105.5 38.5t39.5 105.5q0 28 -10 52t-27.5 41t-40.5 26.5
t-50 9.5q-136 0 -136 -182v-519h-67v540q0 106 53 161.5t150 55.5q44 0 79.5 -13t61 -37t39 -57.5t13.5 -75.5q0 -66 -27 -111t-90 -60z" />
    <glyph glyph-name="Euro" unicode="&#x20ac;" horiz-adv-x="748" 
d="M698 61q-23 -20 -53 -35q-26 -13 -62 -23.5t-84 -10.5q-74 0 -126 25.5t-87 65.5t-54.5 89.5t-27.5 97.5h-154l22 48h126q-1 7 -1 14v14v13.5t1 13.5h-100l22 48h83q9 52 31 102t58 89t87.5 63t119.5 24q48 0 84 -10.5t61 -22.5q28 -15 51 -33l-8 -63l-31.5 22.5
t-39.5 23t-49.5 18t-63.5 7.5q-42 0 -79 -16t-65.5 -45t-48.5 -69.5t-29 -89.5h329l-22 -48h-312q-1 -7 -1 -13.5v-13.5v-14.5t1 -13.5h286l-22 -48h-258q8 -46 26 -86t46 -69.5t65 -46.5t84 -17q37 0 65.5 7.5t50.5 19t39 24l31 22.5z" />
    <glyph glyph-name="daggerdbl" unicode="&#x2021;" horiz-adv-x="464" 
d="M261 215h153v-58h-153v-157h-58v157h-153v58h153v235h-153v58h153v157h58v-157h153v-58h-153v-235z" />
    <glyph glyph-name="fraction" unicode="&#x2044;" horiz-adv-x="613" 
d="M499 692h64l-449 -780h-64z" />
    <glyph glyph-name="lozenge" unicode="&#x25ca;" horiz-adv-x="500" 
d="M50 300l200 323l200 -323l-200 -323zM101 300l149 -245l149 245l-149 244z" />
    <glyph glyph-name="guillemotleft" unicode="&#xab;" horiz-adv-x="453" 
d="M265 231l138 -231h-66l-144 231l144 230h66zM122 231l138 -231h-66l-144 231l144 230h66z" />
    <glyph glyph-name="guillemotright" unicode="&#xbb;" horiz-adv-x="453" 
d="M260 231l-144 -231h-66l138 231l-138 230h66zM403 231l-144 -231h-66l138 231l-138 230h66z" />
    <glyph glyph-name="radical" unicode="&#x221a;" horiz-adv-x="629" 
d="M579 708v-60h-103l-209 -648h-54l-163 463h76l111 -343l190 588h152z" />
    <glyph glyph-name="approxequal" unicode="&#x2248;" horiz-adv-x="533" 
d="M156 398q-27 0 -39 -16t-12 -53h-55q0 15 3.5 38.5t14.5 45.5t33 37.5t59 15.5q28 0 57 -10.5t57.5 -23.5t55 -23.5t50.5 -10.5q26 0 37 15.5t11 53.5h55q0 -15 -3.5 -38.5t-14.5 -45.5t-33 -37.5t-59 -15.5q-27 0 -56 10.5t-57 23.5t-55 23.5t-49 10.5zM380 231
q26 0 37 15.5t11 53.5h55q0 -15 -3.5 -38.5t-14.5 -45.5t-33 -37.5t-59 -15.5q-27 0 -56 10.5t-57 23.5t-55 23.5t-49 10.5q-27 0 -39 -16t-12 -53h-55q0 15 3.5 38.5t14.5 45.5t33 37.5t59 15.5q28 0 57 -10.5t57.5 -23.5t55 -23.5t50.5 -10.5z" />
    <glyph glyph-name="logicalnot" unicode="&#xac;" horiz-adv-x="545" 
d="M495 467v-270h-69v201h-376v69h445z" />
    <glyph glyph-name="pi" unicode="&#x3c0;" horiz-adv-x="632" 
d="M555 410h-86v-410h-69v410h-147v-410h-69v410q-25 0 -37 -3t-20 -11t-10.5 -20.5t-2.5 -38.5v-11l-64 -16v25q0 38 7 61.5t23 39.5t36 23t59 7h407z" />
    <glyph glyph-name="product" unicode="&#x220f;" horiz-adv-x="623" 
d="M573 692v-934h-69v865h-385v-865h-69v934h523z" />
    <glyph glyph-name="summation" unicode="&#x2211;" horiz-adv-x="623" 
d="M573 623h-438l321 -398l-321 -399h438v-68h-523v68l321 399l-321 398v69h523v-69z" />
    <glyph glyph-name="plusminus" unicode="&#xb1;" horiz-adv-x="464" 
d="M64 61h336v-61h-336v61zM414 335v-58h-153v-157h-58v157h-153v58h153v157h58v-157h153z" />
    <glyph glyph-name="greaterequal" unicode="&#x2265;" horiz-adv-x="447" 
d="M50 61h347v-61h-347v61zM397 328v-44l-347 -190v61l282 151l-282 150v61z" />
    <glyph glyph-name="lessequal" unicode="&#x2264;" horiz-adv-x="447" 
d="M397 455l-282 -149l282 -151v-61l-347 190v44l347 189v-62zM50 61h347v-61h-347v61z" />
    <glyph glyph-name="infinity" unicode="&#x221e;" horiz-adv-x="882" 
d="M649 521q38 0 71.5 -14t58 -38t39 -56t14.5 -68t-14.5 -68t-39 -56t-58 -38t-71.5 -14q-78 0 -132 54l-76 76l-76 -76q-54 -54 -132 -54q-38 0 -71.5 14t-58 38t-39 56t-14.5 68t14.5 68t39 56t58 38t71.5 14q35 0 69 -13.5t60 -38.5l79 -78l78 78q26 26 60 38.5t70 13.5
zM395 346l-78 77q-34 34 -84 34q-25 0 -46.5 -9t-37.5 -24t-25.5 -35.5t-9.5 -43.5t9.5 -43.5t25.5 -35.5t37.5 -24t46.5 -9q51 0 86 35zM649 233q24 0 46 9t38 24t25.5 35.5t9.5 43.5t-9.5 43.5t-25.5 35.5t-38 24t-46 9t-46 -8.5t-39 -25.5l-78 -79l76 -76q35 -35 87 -35z
" />
    <glyph glyph-name="notequal" unicode="&#x2260;" horiz-adv-x="584" 
d="M359 438l-96 -158h271v-59h-307l-125 -205h-44l125 205h-133v59h169l96 158h-265v59h301l129 212h44l-129 -212h139v-59h-175z" />
    <glyph glyph-name="paragraph" unicode="&#xb6;" horiz-adv-x="620" 
d="M570 634h-82v-865h-69v865h-112v-865h-69v557q-39 0 -73.5 15t-60 40.5t-40 59.5t-14.5 73t14.5 73.5t40 60t60 40.5t73.5 15h332v-69z" />
    <glyph glyph-name="section" unicode="&#xa7;" horiz-adv-x="559" 
d="M451 94q58 -51 58 -120v-7q-2 -48 -26.5 -84t-60.5 -59t-77.5 -34.5t-76.5 -11.5q-58 0 -115 13t-103 51l15 74q52 -44 100.5 -58t93.5 -14q28 0 58.5 8t55.5 23t41 37t16 51q0 22 -7.5 42t-25.5 38t-48 35t-75 34q-29 11 -62.5 26t-62 37t-47 53t-18.5 73v6q5 70 44 109
q-26 22 -42 50.5t-16 67.5v6q1 46 21.5 79.5t52 55.5t70.5 32.5t78 10.5q46 0 93 -13t92 -48l-13 -64l-19 16t-33.5 21.5t-49.5 18.5t-67 8q-29 0 -55.5 -7.5t-47 -21.5t-33 -34.5t-12.5 -46.5q0 -28 12 -49t32.5 -37.5t48.5 -30t60 -26.5q102 -40 148.5 -87t46.5 -111v-6
q-1 -32 -12.5 -58.5t-31.5 -47.5zM314 171q22 -9 40.5 -18l35.5 -17q11 12 18 27.5t8 32.5v4q0 49 -37.5 81t-118.5 64l-35 15l-37 17q-24 -24 -26 -63v-5q0 -26 11 -46t31.5 -36.5t48.5 -30t61 -25.5z" />
    <glyph glyph-name="cent" unicode="&#xa2;" horiz-adv-x="491" 
d="M264 50q29 0 54 8t43.5 18t30 18.5t13.5 9.5l18 -59q-20 -17 -47 -27q-22 -10 -52 -18t-65 -8q-20 0 -36 3l-40 -157l-50 16l39 156q-57 26 -89.5 82.5t-32.5 134.5v15q0 52 15.5 95.5t43 74.5t66 48.5t84.5 17.5q8 0 15 -0.5t14 -1.5l37 147l50 -16l-35 -142
q10 -4 19 -7t17 -7q25 -10 47 -26l-18 -60q-2 1 -24 16t-55 27l-89 -356q6 -1 12.5 -1.5t14.5 -0.5zM119 227q0 -18 3 -39.5t10.5 -43t21 -41t33.5 -32.5l87 347q-1 1 -10 1q-45 0 -73 -18.5t-44 -45.5t-22 -58t-6 -55v-15z" />
    <glyph glyph-name="circumflex" unicode="&#x2c6;" horiz-adv-x="296" 
d="M110 574h-60l76 118h43l77 -118h-60l-38 78z" />
    <glyph glyph-name="backslash" unicode="\" horiz-adv-x="619" 
d="M397 0l-272 692h68l272 -692h-68z" />
    <glyph glyph-name="ccedilla" unicode="&#xe7;" horiz-adv-x="473" 
d="M264 49q29 0 54 8t43.5 18t30 18.5t13.5 9.5l18 -59q-20 -17 -47 -27q-21 -10 -50 -17.5t-63 -8.5l-8 -49h22q39 0 59 -24q14 -17 14 -38q0 -10 -1 -11q-5 -29 -30 -48.5t-59 -19.5h-83v40h83q19 0 33.5 10t16.5 24v5q0 9 -4 13q-9 11 -29 11h-68l14 90q-39 6 -71 25.5
t-54.5 50t-35 70t-12.5 86.5v15q0 52 15.5 95.5t43 74.5t66 48.5t84.5 17.5q35 0 65 -8.5t52 -18.5q25 -10 47 -26l-18 -60q-2 1 -13.5 9.5t-30.5 18.5t-44 18t-53 8q-45 0 -73 -18.5t-44 -45.5t-22 -58t-6 -55v-15q0 -24 6 -54.5t22 -58t44 -46t73 -18.5z" />
    <glyph glyph-name="Ccedilla" unicode="&#xc7;" horiz-adv-x="648" 
d="M378 -8q-10 0 -19 0.5t-18 1.5l-7 -51h21q39 0 60 -24q14 -17 14 -39q0 -9 -1 -10q-5 -29 -30.5 -48.5t-59.5 -19.5h-83v40h83q20 0 34.5 10t16.5 24v5q0 9 -4 13q-9 11 -30 11h-68l15 95q-66 16 -109.5 55.5t-69.5 89.5t-36.5 103.5t-10.5 97.5q0 61 17 123.5t54 113.5
t94 83.5t137 32.5q48 0 84 -10.5t61 -22.5q28 -15 51 -33l-8 -63l-11 8l-30.5 21t-37.5 20.5t-47 15.5t-58 6q-50 0 -92 -22t-72 -61t-47 -93.5t-17 -118.5q0 -59 15 -112.5t44 -94t71.5 -64.5t97.5 -24q33 0 59.5 6t47.5 15.5t37.5 21l30.5 21.5l11 9l9 -63
q-23 -20 -53 -35q-26 -13 -62 -23.5t-84 -10.5z" />
    <glyph glyph-name="mu" unicode="&#xb5;" horiz-adv-x="460" 
d="M410 466v-466h-46l-23 43l-27.5 -15.5t-34.5 -16.5t-40.5 -13.5t-44.5 -5.5q-46 0 -75 17v-219h-69v676h69v-319q0 -14 3 -31t11 -31.5t23.5 -24.5t41.5 -10q22 0 45 7.5t42.5 17t34 19.5l21.5 15v357h69z" />
    <glyph glyph-name="dagger" unicode="&#x2020;" horiz-adv-x="598" 
d="M548 528v-67h-215v-625h-68v625h-215v67h215v226h68v-226h215z" />
    <glyph glyph-name="ae" unicode="&#xe6;" horiz-adv-x="883" 
d="M748 219h-298q2 -26 11 -55.5t26 -54.5t43.5 -41.5t64.5 -16.5q52 0 86 16t50 28l13 -57l-24.5 -13t-36 -15t-44.5 -12t-51 -5q-18 0 -39.5 3.5t-44 12.5t-43.5 24.5t-38 39.5q-35 -22 -57.5 -37.5t-41.5 -25t-39 -13.5t-51 -4q-72 0 -113.5 40.5t-41.5 106.5
q0 167 299 172v37q0 7 -3.5 19t-15.5 24t-35.5 21t-63.5 9q-35 0 -69 -10.5t-66 -29.5l-18 54q70 43 157 43q52 0 98.5 -19t70.5 -53q26 34 64 53t83 19q61 0 100 -28.5t61 -66t30.5 -73.5t8.5 -52zM378 257q-85 0 -131.5 -13t-68.5 -31t-26 -36.5t-4 -28.5
q0 -43 25.5 -69.5t63.5 -26.5q22 0 61.5 13t79.5 45v147zM708 274q-10 66 -42 106.5t-86 40.5q-55 0 -87 -40.5t-42 -106.5h257z" />
    <glyph glyph-name="oe" unicode="&#x153;" horiz-adv-x="992" 
d="M836 216h-298q2 -26 11 -55.5t26 -54.5t43.5 -41.5t64.5 -16.5q52 0 86 16t50 28l13 -57l-24.5 -13t-36 -15t-44.5 -12t-51 -5q-19 0 -43 5t-48 17.5t-46.5 33t-38.5 51.5q-29 -51 -77.5 -79t-108.5 -28q-48 0 -88.5 18.5t-70 51t-46.5 77t-17 96.5t17 96.5t46.5 77
t70 51t88.5 18.5q60 0 108 -28.5t77 -77.5q26 51 69 78.5t100 27.5q61 0 100 -28.5t61 -66t30.5 -73.5t8.5 -52zM314 48q33 0 61.5 14t48.5 38.5t31.5 58.5t11.5 74t-11.5 73.5t-31.5 58t-48.5 38.5t-61.5 14t-61.5 -14t-48.5 -38.5t-31.5 -58t-11.5 -73.5t11.5 -74
t31.5 -58.5t48.5 -38.5t61.5 -14zM796 271q-10 66 -42 106.5t-86 40.5q-55 0 -87 -40.5t-42 -106.5h257z" />
    <glyph glyph-name="OE" unicode="&#x152;" horiz-adv-x="1079" 
d="M640 625v-224h229l-13 -67h-216v-268h300v-66h-369v83q-29 -39 -73.5 -65t-110.5 -26q-59 0 -100.5 20.5t-69.5 53t-44.5 72.5t-25 79.5t-11 73.5t-2.5 55t2.5 55t11 73.5t25 79.5t44.5 72t69.5 52.5t100.5 20.5q66 0 110.5 -26t73.5 -65v84h369v-67h-300zM387 55
q25 0 57 9.5t59.5 39.5t47 86t20.5 148v11q-1 98 -22.5 155.5t-51 87.5t-60.5 38.5t-50 8.5q-21 0 -52.5 -8.5t-61 -39t-50.5 -89t-21 -158.5q0 -94 19 -151t47.5 -87.5t60.5 -40.5t58 -10z" />
    <glyph glyph-name="acute" unicode="&#xb4;" horiz-adv-x="210" 
d="M50 497l34 195h76l-69 -195h-41z" />
    <glyph glyph-name="asciicircum" unicode="^" horiz-adv-x="297" 
d="M110 682h-60l77 118h43l77 -118h-60l-39 78z" />
    <glyph glyph-name="tilde" unicode="&#x2dc;" horiz-adv-x="450" 
d="M400 692q0 -14 -2.5 -34t-12 -39t-27 -32.5t-47.5 -13.5q-23 0 -45.5 9t-44.5 20.5t-43.5 20.5t-42.5 9q-22 0 -31.5 -14t-9.5 -46h-44q0 13 2.5 33.5t12 40t27 33t47.5 13.5q24 0 46.5 -9.5t44.5 -20.5t43.5 -20.5t43.5 -9.5q21 0 30 13.5t9 46.5h44z" />
    <glyph glyph-name="questiondown" unicode="&#xbf;" horiz-adv-x="508" 
d="M142 60q36 39 55.5 69.5t29 57.5t11 53.5t1.5 58.5h63q0 -44 -3 -77t-12 -61.5t-26 -55t-46 -57.5l-32.5 -37t-21.5 -28.5t-12 -24.5t-4 -26q0 -49 28 -76.5t79 -27.5q26 0 51.5 7.5t49 20t44 28.5t37.5 33v-72q-42 -35 -91 -56.5t-100 -21.5q-36 0 -66 12t-51.5 34
t-33.5 52.5t-12 68.5q0 43 19.5 72.5t42.5 53.5zM307 380h-74v86h74v-86z" />
    <glyph glyph-name="breve" unicode="&#x2d8;" horiz-adv-x="384" 
d="M97 692q0 -20 7.5 -37t20.5 -30t30 -20.5t37 -7.5t37.5 7.5t30 20.5t20 30t7.5 37h47q0 -29 -11 -55t-30.5 -45.5t-45 -30.5t-55.5 -11q-29 0 -55 11t-45.5 30.5t-30.5 45.5t-11 55h47z" />
    <glyph glyph-name="grave" unicode="`" horiz-adv-x="207" 
d="M115 496l-65 194h75l32 -194h-42z" />
    <glyph glyph-name="dieresis" unicode="&#xa8;" horiz-adv-x="355" 
d="M50 606v86h74v-86h-74zM305 606h-74v86h74v-86z" />
    <glyph glyph-name="AE" unicode="&#xc6;" horiz-adv-x="1154" 
d="M723 625v-224h229l-13 -67h-216v-268h300v-66h-369v202h-325l-162 -202h-80l554 692h382v-67h-300zM654 267v346l-274 -346h274z" />
    <glyph glyph-name="cedilla" unicode="&#xb8;" horiz-adv-x="274" 
d="M50 -208v39h83q21 0 36 12t15 28q0 12 -9.5 18t-23.5 6h-69l17 104l39 -7l-9 -59h22q29 0 51 -17t22 -46q0 -33 -27 -55.5t-64 -22.5h-83z" />
    <glyph glyph-name="ogonek" unicode="&#x2db;" horiz-adv-x="274" 
d="M167 -39q-15 -3 -28 -12t-22.5 -21t-14.5 -25.5t-5 -26.5q0 -22 14 -33.5t34 -11.5q28 0 62 22l17 -38q-44 -24 -86 -24q-39 0 -63.5 21t-24.5 60q0 33 22.5 67t73.5 57z" />
    <glyph glyph-name="exclamdown" unicode="&#xa1;" horiz-adv-x="217" 
d="M132 299l17 -525h-86l17 525h52zM70 380v86h73v-86h-73z" />
    <glyph glyph-name="divide" unicode="&#xf7;" horiz-adv-x="506" 
d="M7 213v41h489v-41h-489zM214 359v86h74v-86h-74zM214 22v86h74v-86h-74z" />
    <glyph glyph-name="caron" unicode="&#x2c7;" horiz-adv-x="321" 
d="M200 692h60l-76 -118h-43l-77 118h60l38 -78z" />
    <glyph glyph-name="ring" unicode="&#x2da;" horiz-adv-x="297" 
d="M149 692q42 0 70 -28t28 -70q0 -21 -7.5 -39t-21 -31.5t-31 -21t-38.5 -7.5q-20 0 -38 7.5t-31.5 21t-21.5 31.5t-8 39q0 20 8 38t21.5 31.5t31.5 21t38 7.5zM149 528q27 0 46.5 19t19.5 47q0 27 -19.5 46.5t-46.5 19.5t-46.5 -19.5t-19.5 -46.5q0 -28 19.5 -47t46.5 -19
z" />
    <glyph glyph-name="dotaccent" unicode="&#x2d9;" horiz-adv-x="256" 
d="M164 606h-74v86h74v-86z" />
    <glyph glyph-name="florin" unicode="&#x192;" horiz-adv-x="523" 
d="M310 335l-69 -368q-8 -43 -18 -79t-29.5 -62.5t-51.5 -41.5t-83 -15q-18 0 -29 1.5t-22 3.5l32 81q7 -2 13 -3t17 -1q24 0 39 9t24.5 24t14.5 34t9 39l71 378h-112l13 70h112l21 109q7 37 15.5 70.5t25.5 59.5t45.5 41.5t76.5 15.5q25 0 70 -17l-11 -71q-23 14 -49 14
t-41.5 -8t-25 -23.5t-15 -37.5t-10.5 -49l-19 -104h126l-14 -70h-126z" />
    <glyph glyph-name="Delta" unicode="&#x2206;" horiz-adv-x="504" 
d="M55 95l182 367h38l180 -367h-400zM256 433l-150 -318h298z" />
    <glyph glyph-name="ordfeminine" unicode="&#xaa;" horiz-adv-x="433" 
d="M212 694q31 0 56 -7.5t42.5 -20t26.5 -28t9 -31.5v-261h-37l-16 30q-17 -11 -45.5 -23.5t-57.5 -12.5q-52 0 -82.5 29.5t-30.5 78.5q0 121 215 126v25q0 3 -2 11t-10 17t-24.5 15.5t-46.5 6.5q-26 0 -48 -8t-50 -22l-13 44q26 14 53.5 22.5t60.5 8.5zM130 455
q0 -31 17.5 -49.5t44.5 -18.5q13 0 41.5 8t58.5 32v103q-162 0 -162 -75z" />
    <glyph glyph-name="ordmasculine" unicode="&#xba;" horiz-adv-x="423" 
d="M211 695q35 0 64.5 -13.5t51.5 -37t34 -56t12 -70.5t-12 -70.5t-34 -56t-51.5 -37t-64.5 -13.5t-64 13.5t-51 37t-34 56t-12 70.5t12 70.5t34 56t51 37t64 13.5zM320 518q0 57 -30.5 94t-78.5 37q-23 0 -43 -10t-34.5 -27t-22.5 -41.5t-8 -52.5q0 -29 8 -53t22.5 -41
t34.5 -27t43 -10q48 0 78.5 37t30.5 94z" />
    <glyph glyph-name="quotesinglbase" unicode="&#x201a;" horiz-adv-x="227" 
d="M67 -109l15 91l10 60t5.5 33.5l1.5 10.5h73l-65 -195h-40z" />
    <glyph glyph-name="quotedblbase" unicode="&#x201e;" horiz-adv-x="308" 
d="M30 -109l32 195h73l-65 -195h-40zM168 -109l33 195h73l-66 -195h-40z" />
    <glyph glyph-name="perthousand" unicode="&#x2030;" horiz-adv-x="1090" 
d="M176 711q46 0 72.5 -22.5t40 -53t17 -61t3.5 -46.5q0 -30 -6.5 -62.5t-22.5 -59.5t-41.5 -44.5t-62.5 -17.5q-46 0 -72.5 22.5t-39.5 53t-16.5 61t-3.5 47.5q0 16 3.5 46.5t16.5 61t39.5 53t72.5 22.5zM176 386q12 0 27.5 4.5t29 19.5t22.5 42.5t9 74.5q0 48 -10 76.5
t-24 43.5t-29 19t-25 4q-30 0 -47.5 -16.5t-26.5 -39t-11.5 -47t-2.5 -40.5q0 -47 9 -74.5t22.5 -42.5t29 -19.5t27.5 -4.5zM294 1h-52l247 692h52zM605 360q46 0 72.5 -22.5t40 -53t17 -61t3.5 -46.5q0 -30 -6.5 -62.5t-22.5 -59.5t-41.5 -44.5t-62.5 -17.5
q-46 0 -72.5 22.5t-39.5 53t-16.5 61t-3.5 47.5q0 16 3.5 46.5t16.5 61t39.5 53t72.5 22.5zM605 35q12 0 27.5 4.5t29 19.5t22.5 42.5t9 74.5q0 48 -10 76.5t-24 43.5t-29 19t-25 4q-30 0 -47.5 -16.5t-26.5 -39t-11.5 -47t-2.5 -40.5q0 -47 9 -74.5t22.5 -42.5t29 -19.5
t27.5 -4.5zM921 360q46 0 72.5 -22.5t40 -53t17 -61t3.5 -46.5q0 -30 -6.5 -62.5t-22.5 -59.5t-41.5 -44.5t-62.5 -17.5q-46 0 -72.5 22.5t-39.5 53t-16.5 61t-3.5 47.5q0 16 3.5 46.5t16.5 61t39.5 53t72.5 22.5zM921 35q12 0 27.5 4.5t29 19.5t22.5 42.5t9 74.5
q0 48 -10 76.5t-24 43.5t-29 19t-25 4q-30 0 -47.5 -16.5t-26.5 -39t-11.5 -47t-2.5 -40.5q0 -47 9 -74.5t22.5 -42.5t29 -19.5t27.5 -4.5z" />
    <glyph glyph-name="hungarumlaut" unicode="&#x2dd;" horiz-adv-x="379" 
d="M67 520l32 171h73l-66 -171h-39zM205 520l33 171h73l-66 -171h-40z" />
    </font>
</defs>
</svg>
