<svg width="11" height="10" xmlns="http://www.w3.org/2000/svg" xmlns:xlink="http://www.w3.org/1999/xlink">
  <defs>
    <path id="a" d="M0 0h9.967v9.998H0z"/>
  </defs>
  <g fill="none" fill-rule="evenodd">
    <g transform="translate(.5)">
      <mask id="b" fill="#fff">
        <use xlink:href="#a"/>
      </mask>
      <path fill="#FFFFFE" mask="url(#b)" d="M0 10h9.967V0H0z"/>
      <path d="M9.591 7.063H6.316l-.208-.271v.27h-.71V6.63a.866.866 0 0 1-.306.054h-.115v.379H3.925l-.162-.226-.156.226H1.896V5.406h1.718l.16.222.157-.222h6.036V0H0v4.062l.346-.809h.688l.177.415v-.415h.841l.111.329.11-.329h3.654v.154a.82.82 0 0 1 .508-.154H7.57l.177.415v-.415h.68l.198.308v-.308h.728V4.91h-.716l-.187-.29v.29H7.434l-.096-.246h-.215l-.095.246h-.611a.81.81 0 0 1-.49-.143v.143H4.895l-.208-.271v.27H.897l-.095-.245H.587l-.095.246H0V10h9.967V6.955a.678.678 0 0 1-.376.108" fill="#006FAC" mask="url(#b)"/>
    </g>
    <path d="M3.6 5.91v-.265h-.956v1.179h.957v-.265h-.658v-.2h.643V6.1h-.643v-.19H3.6zm.944.914h.374l-.473-.595.47-.584H4.55l-.277.362-.276-.362h-.374l.47.591-.469.588h.364l.277-.366.279.366zm.4-1.179v1.179h.298V6.44h.352c.259 0 .418-.17.418-.397 0-.236-.156-.398-.408-.398h-.66zm.768.4c0 .072-.047.13-.138.13h-.332V5.91h.332c.09 0 .138.061.138.135zm.726.361h.116l.35.418h.368l-.38-.43c.192-.042.308-.185.308-.368 0-.226-.156-.38-.408-.38H6.14v1.178h.298v-.418zm.324-.497c.09 0 .138.056.138.122 0 .067-.047.12-.138.12h-.324v-.242h.324zm1.514 0v-.264h-.957v1.179h.957v-.265h-.658v-.2h.642V6.1h-.642v-.19h.658zm.74.65h-.608v.265h.606c.255 0 .406-.155.406-.383 0-.213-.133-.338-.366-.338h-.278c-.062 0-.106-.039-.106-.098 0-.058.044-.096.106-.096h.506l.116-.264h-.62c-.254 0-.407.157-.407.37 0 .223.144.35.368.35h.276c.063 0 .108.04.108.098 0 .06-.045.096-.108.096zm1.075 0h-.607v.265h.606c.255 0 .406-.155.406-.383 0-.213-.133-.338-.366-.338h-.28c-.062 0-.106-.039-.106-.098 0-.058.044-.096.106-.096h.507l.116-.264h-.62c-.255 0-.407.157-.407.37 0 .223.144.35.367.35h.277c.062 0 .108.04.108.098 0 .06-.046.096-.108.096zM1.559 4.67h.335l-.501-1.177h-.388L.502 4.671H.83l.097-.24h.534l.097.24zm-.529-.495l.163-.404.165.404H1.03zm1.5.497h.26l.311-.872v.872h.295v-1.18h-.47l-.261.751-.264-.75h-.475V4.67h.296v-.872l.308.872zm2.02-.914v-.265h-.956v1.179h.957v-.265h-.658v-.2h.643V3.95h-.643v-.192h.658zm.467.496h.116l.35.418h.368l-.38-.43c.192-.042.308-.185.308-.368 0-.226-.156-.38-.408-.38H4.72V4.67h.298v-.418zm.324-.496c.09 0 .138.055.138.12 0 .068-.047.12-.138.12h-.324v-.24h.324zm.557.914h.299v-1.18h-.299v1.179zm.988 0h.024l.122-.265h-.095c-.188 0-.299-.114-.299-.316v-.017c0-.177.1-.308.294-.308h.315v-.273h-.339c-.369 0-.567.246-.567.581v.017c0 .362.208.58.545.58zm1.209 0h.335l-.5-1.18h-.39l-.503 1.179h.328l.098-.24h.533l.098.24zm-.529-.497l.163-.404.164.404h-.327zm1.676.497h.363v-1.18h-.297v.731l-.468-.73h-.378V4.67h.297v-.758l.483.758z" fill="#006FAC"/>
  </g>
</svg>