<svg width="17" height="10" xmlns="http://www.w3.org/2000/svg">
  <g fill-rule="nonzero" fill="none">
    <path fill="#FFF" d="M.556.057h15.522v9.886H.556z"/>
    <path d="M16.023 5.555S11.78 8.548 4.013 9.888h12.01V5.555z" fill="#EE7623"/>
    <path d="M16.078 0L.5.002V10h15.634V0h-.056zm-.057.113v9.774H.613V.114H16.02z" fill="#231F20"/>
    <path d="M1.867 3.06H1.22v2.262h.645c.292.017.58-.077.807-.26a1.132 1.132 0 0 0-.804-2.002m.516 1.7a.836.836 0 0 1-.604.18h-.12V3.442h.118a.818.818 0 0 1 .604.183.776.776 0 0 1 0 1.133M3.285 3.06h1v2.262h-1z" fill="#231F20"/>
    <path d="M4.805 3.928c-.265-.098-.343-.163-.343-.285 0-.142.139-.25.33-.25.14.003.27.07.355.183l.23-.303a.99.99 0 0 0-.664-.25.664.664 0 0 0-.706.648c0 .311.143.471.557.62.106.033.208.076.305.129a.27.27 0 0 1 .132.234.322.322 0 0 1-.342.319.522.522 0 0 1-.482-.302l-.285.275a.88.88 0 0 0 .783.43.73.73 0 0 0 .78-.743c0-.359-.148-.522-.65-.705m.79.265a1.172 1.172 0 0 0 1.194 1.18c.192 0 .382-.045.553-.132v-.519a.706.706 0 0 1-.532.248.74.74 0 0 1-.76-.78.752.752 0 0 1 .74-.777.74.74 0 0 1 .553.255v-.52a1.19 1.19 0 0 0-1.748 1.045m5.246.387l-.603-1.52h-.482l.96 2.32h.237l.978-2.32h-.479zm1.289.742h1.252v-.383h-.811v-.61h.781v-.384h-.781v-.502h.811V3.06H12.13zM15.129 3.728c0-.424-.292-.668-.8-.668h-.655v2.262h.44v-.909h.058l.611.91h.543l-.713-.954a.602.602 0 0 0 .516-.641m-.885.373h-.13v-.685h.137c.274 0 .424.115.424.336 0 .227-.15.35-.431.35" fill="#231F20"/>
    <path d="M8.742 3.04a1.22 1.22 0 1 1 0 2.437 1.22 1.22 0 0 1 0-2.438" fill="#EE7623"/>
  </g>
</svg>