<svg width="50" height="52" xmlns="http://www.w3.org/2000/svg" xmlns:xlink="http://www.w3.org/1999/xlink">
  <defs>
    <path d="M49.354 48.488c1.402 1.359.443 3.512-2.12 3.512H2.775C.203 52-.739 49.896.622 48.488c4.396-4.442 15.402-6.939 15.434-6.972 1.09-1.135 1.508-3.76 1.669-4.895-.29-.552-2.346-2.87-2.888-4.023-.739-1.575-1.573-6.014-1.766-6.792L11.15 20.23c-.34-.984.123-2.191 1.061-2.596 0 0-.229-.032.027 0 0 0-.449-2.707-.289-5.237-.676-10.308 5.873-9.63 5.873-9.63C20.164-2.098 29.864.72 32.963 1.747c5.153 1.706 6.065 7.322 5.984 10.665-.07 2.906-.43 5.222-.43 5.222.816.224 1.248 1.206.963 2.205l-1.7 5.966s-1.001 5.214-1.797 6.792c-.543 1.084-2.342 3.082-2.92 4.023.096.842.48 3.631 1.733 4.895.031.033 10.16 2.53 14.558 6.972z" id="a"/>
  </defs>
  <g fill="none" fill-rule="evenodd">
    <mask id="b" fill="#fff">
      <use xlink:href="#a"/>
    </mask>
    <path fill="#0073D1" mask="url(#b)" d="M-5 57h60V-5H-5z"/>
  </g>
</svg>