<svg width="23" height="23" xmlns="http://www.w3.org/2000/svg" xmlns:xlink="http://www.w3.org/1999/xlink">
  <defs>
    <path d="M11.816 2.744c-4.966 0-8.837 3.534-9.258 8.332-.252 3.03 1.347 5.807 2.105 6.817 0 .084.084.084 0 .252-.085.925-1.347 3.619-1.347 3.703 0 .168 2.945.505 5.639-.926.084 0 .084-.084.168-.084 0 0 .168 0 .336.084.758.168 1.515.337 2.357.337a9.23 9.23 0 0 0 9.257-9.258c0-5.05-4.124-9.257-9.257-9.257zm.504 16.832c-.167 0-1.683.084-3.366-.421h-.169c-.084 0-1.599 1.094-3.198 1.43.168-.251 1.095-2.608 1.095-2.777 0-.168 0-.252-.085-.336-1.178-1.178-2.272-3.367-2.272-5.892.084-4.04 3.367-7.153 7.49-7.153a7.543 7.543 0 0 1 7.574 7.575c.001 4.039-3.113 7.32-7.069 7.574zm10.268.925c2.778-3.366 2.441-8.415-.758-11.445-.252-.168-.42-.421-.673-.589.337.673.589 2.609.589 2.946.758 1.094 1.094 2.356 1.094 3.703 0 1.767-.757 3.534-2.104 4.88-.084.085-.084.169-.084.253.084.758.589 1.851 1.01 2.525-.926 0-2.02-.674-2.778-1.263-.084-.084-.252-.084-.337-.084-.504.252-2.609.758-4.46.252-.168.085-1.514.421-2.945.337 1.01 1.01 4.544 2.104 7.237 1.178 2.525 1.346 5.303 1.094 5.303.925.168-.083-1.346-3.28-1.094-3.618z" id="a"/>
  </defs>
  <g transform="translate(-2 -2)" fill="none" fill-rule="evenodd">
    <mask id="b" fill="#fff">
      <use xlink:href="#a"/>
    </mask>
    <g mask="url(#b)" fill="#FFF">
      <path d="M0 0h27v27H0z"/>
    </g>
  </g>
</svg>