<svg width="24" height="20" xmlns="http://www.w3.org/2000/svg" xmlns:xlink="http://www.w3.org/1999/xlink">
  <defs>
    <path d="M6.603 10.57c-.9 3.974 2.63 7.45 6.665 6.564 2.034-.447 3.675-2.064 4.13-4.067.898-3.974-2.63-7.449-6.666-6.564-2.035.446-3.676 2.063-4.13 4.067zm1.799.416c.302-1.336 1.396-2.414 2.752-2.71 2.69-.591 5.044 1.725 4.444 4.375-.303 1.335-1.397 2.413-2.752 2.71-2.69.592-5.044-1.726-4.444-4.375zM0 4.89c0-.692.57-1.253 1.271-1.253H22.73c.702 0 1.271.561 1.271 1.253v13.86C24 19.44 23.431 20 22.729 20H1.27C.57 20 0 19.44 0 18.748V4.888zm15.692-3.07H8.308a.917.917 0 0 1-.923-.91c0-.502.413-.909.923-.909h7.384c.51 0 .923.407.923.91 0 .5-.412.908-.923.908z" id="a"/>
  </defs>
  <g fill="none" fill-rule="evenodd">
    <mask id="b" fill="#fff">
      <use xlink:href="#a"/>
    </mask>
    <path fill="#008CFF" mask="url(#b)" d="M-5-5h34v30H-5z"/>
  </g>
</svg>