<?xml version="1.0" encoding="UTF-8"?>
<svg width="48px" height="36px" viewBox="0 0 48 36" version="1.1" xmlns="http://www.w3.org/2000/svg" xmlns:xlink="http://www.w3.org/1999/xlink">
    <!-- Generator: Sketch 55.2 (78181) - https://sketchapp.com -->
    <title>iconfinder_icon-wifi_211944</title>
    <desc>Created with Sketch.</desc>
    <g id="Page-1" stroke="none" stroke-width="1" fill="none" fill-rule="evenodd">
        <g id="Artboard" transform="translate(-178.000000, -159.000000)" fill="#FFFFFF" fill-rule="nonzero">
            <g id="iconfinder_icon-wifi_211944" transform="translate(178.000000, 159.000000)">
                <path d="M24.0214381,0 L24.0214381,0 C15.4569004,0 7.33184457,3.10165975 1.09334524,8.72406639 L0,9.70954357 L1.06118803,10.7261411 L4.52344797,14.0456432 L5.52032157,15 L6.54935239,14.0871369 C11.319339,9.84439834 17.514962,7.5 24,7.5 C30.485038,7.5 36.6913801,9.84439834 41.4506476,14.0871369 L42.4796784,15 L43.476552,14.0456432 L46.938812,10.7261411 L48,9.70954357 L46.9066548,8.72406639 C40.6895936,3.10165975 32.5538187,0 24.0214381,0 Z" id="Path"></path>
                <path d="M39.8485846,17.661752 C35.6339697,14.008673 30.1919026,12 24.5217248,12 L24.5108624,12 L24.4782752,12 L23.5549704,12 L23.544108,12.0208153 C18.1998025,12.2289679 13.1161949,14.2168257 9.140553,17.661752 L8,18.650477 L9.09710336,19.6912402 L12.6491113,23.0633131 L13.6375905,24 L14.6803818,23.1257589 C17.4285714,20.8152645 20.9154049,19.5351258 24.4891376,19.5351258 C28.0845951,19.5351258 31.5714286,20.8152645 34.3196182,23.1257589 L35.3624095,24 L36.3508887,23.0633131 L39.9028966,19.6912402 L41,18.650477 L39.8485846,17.661752 Z" id="Path"></path>
                <path d="M24.5051335,36 L25.4907598,34.972468 L30.9117043,29.3264503 L32,28.1907571 L30.8090349,27.1632252 C29.2279261,25.9301868 27.4825462,25 24.4948665,25 C21.5174538,25 19.8850103,26.0167158 18.1806982,27.1632252 L17,28.1907571 L18.0882957,29.3264503 L23.5092402,34.972468 L24.5051335,36 Z" id="Path"></path>
            </g>
        </g>
    </g>
</svg>