<?xml version="1.0" encoding="UTF-8"?>
<svg width="32px" height="84px" viewBox="0 0 32 84" version="1.1" xmlns="http://www.w3.org/2000/svg" xmlns:xlink="http://www.w3.org/1999/xlink">
    <!-- Generator: Sketch 55.2 (78181) - https://sketchapp.com -->
    <title>Router-Front-Min</title>
    <desc>Created with Sketch.</desc>
    <g id="x_Exploration" stroke="none" stroke-width="1" fill="none" fill-rule="evenodd">
        <g id="Install_Equipment-Copy" transform="translate(-55.000000, -302.000000)" fill-rule="nonzero">
            <g id="Router-Front-Min" transform="translate(55.000000, 302.000000)">
                <path d="M12.6772414,82.4262069 L12.4793103,82.8268966 L12.3537931,83.077931 L11.9337931,83.077931 L11.9337931,83.5606897 L5.79310345,83.5606897 L5.79310345,83.077931 L5.37310345,83.077931 L5.26206897,82.7593103 L5.11724138,82.3441379 L5.04,82.0689655 C6.10476506,82.3168667 7.19585567,82.4335956 8.28896552,82.4165517 L12.6772414,82.4262069 Z" id="Path" fill="#171B1C"></path>
                <path d="M27.2034483,82.0689655 L26.9717241,82.7496552 L26.8606897,83.0731034 L26.4406897,83.0731034 L26.4406897,83.5558621 L20.3144828,83.5558621 L20.3144828,83.0731034 L19.8944828,83.0731034 L19.7641379,82.8172414 L19.5662069,82.4213793 L23.9593103,82.4213793 C25.0509262,82.4347801 26.1401731,82.3164542 27.2034483,82.0689655 Z" id="Path" fill="#171B1C"></path>
                <path d="M8.28896552,82.4262069 L12.6772414,82.4262069 L12.4793103,82.8268966 L6.75862069,82.8268966 C6.30482759,82.8268966 5.89448276,82.8268966 5.51793103,82.7786207 L5.27655172,82.7786207 L5.13172414,82.3634483 L5.04,82.0689655 C6.10436411,82.3201153 7.19545992,82.4400872 8.28896552,82.4262069 L8.28896552,82.4262069 Z" id="Path" fill="#171B1C"></path>
                <path d="M27.2034483,82.0689655 L26.9717241,82.7496552 C26.5324138,82.7931034 26.0448276,82.8172414 25.4896552,82.8172414 L19.7641379,82.8172414 L19.5662069,82.4213793 L23.9593103,82.4213793 C25.0509262,82.4347801 26.1401731,82.3164542 27.2034483,82.0689655 Z" id="Path" fill="#171B1C"></path>
                <path d="M31.7558621,0.994482759 C31.2731034,5.69172414 29.2551724,27.0055172 29.6993103,64.8731034 L29.6993103,65.8917241 L29.6993103,65.9786207 C29.6993103,66.2537931 29.6993103,66.5289655 29.6993103,66.8089655 L29.6993103,66.9972414 C29.6993103,67.1131034 29.6993103,67.2724138 29.6993103,67.48 C29.6993103,67.7648276 29.6993103,68.1365517 29.7282759,68.5855172 C29.8587183,72.3662297 30.2555644,76.1330406 30.9158621,79.857931 C30.9555488,80.0727024 30.9142726,80.2945619 30.8,80.4806897 C30.4475862,81.0262069 29.8634483,82.0544828 27.077931,82.3489655 C26.5391863,82.4064406 25.9976566,82.4338394 25.4558621,82.4312299 L6.75862069,82.4312299 C6.30482759,82.4312299 5.89448276,82.4312299 5.51793103,82.3827586 L5.13172414,82.3489655 C2.3462069,82.0544828 1.75241379,81.0262069 1.41448276,80.4806897 C1.2960723,80.2961776 1.2544919,80.0726829 1.29862069,79.857931 C1.95536155,76.1326531 2.35057996,72.3659797 2.48137931,68.5855172 C2.48137931,68.1365517 2.50551724,67.7648276 2.51034483,67.48 C2.51034483,67.2772414 2.51034483,67.1131034 2.51034483,66.9972414 L2.51034483,66.8089655 L2.51034483,65.9786207 L2.51034483,65.8917241 C2.51034483,65.5537931 2.51034483,65.2110345 2.51034483,64.8731034 C2.98827586,27.0055172 0.989655172,5.69172414 0.482758621,0.994482759 C0.45672381,0.739605428 0.540212947,0.485670276 0.712416561,0.295970038 C0.884620175,0.106269801 1.12931711,-0.00132623107 1.38551724,-1.21171417e-05 L30.857931,-1.21171417e-05 C31.1132913,-1.21171417e-05 31.3566874,0.108234411 31.5278193,0.297767485 C31.6989511,0.48730056 31.7818078,0.740443979 31.7558621,0.994482759 Z" id="Path" fill="#1D2326"></path>
                <polygon id="Path" fill="#273033" points="23.38 76.6234483 23.38 78.3275862 24.5 77.477931"></polygon>
                <path d="M11.6875862,76.5124138 C11.6050319,76.4157124 11.4984714,76.342452 11.3786207,76.3 C11.2534235,76.2535056 11.1211304,76.2290069 10.9875862,76.2275862 C10.7439114,76.225909 10.5046811,76.2928266 10.2972414,76.4206897 C10.0704146,76.5948799 9.95135732,76.8751224 9.98344828,77.1593103 L9.98344828,79.0903448 L10.2441379,79.0903448 C10.3889143,79.0903448 10.5070229,78.9744076 10.5096552,78.8296552 L10.5096552,78.1441379 C10.5096552,78.1441379 10.5096552,78.2165517 10.6834483,78.2793103 C10.8153553,78.3243142 10.9545827,78.3439698 11.0937931,78.3372414 C11.3273063,78.3391563 11.5477887,78.2298114 11.6875862,78.0427586 C11.8504658,77.8283683 11.9325194,77.5634037 11.9193103,77.2944828 C11.9335784,77.0149881 11.8518107,76.7390218 11.6875862,76.5124138 L11.6875862,76.5124138 Z M11.2724138,77.7241379 C11.2002245,77.8279871 11.080186,77.8880063 10.9537931,77.8834483 C10.8229208,77.8903003 10.6975032,77.8303179 10.6206897,77.7241379 C10.5348861,77.6089798 10.493724,77.4666277 10.5048276,77.3234483 C10.4871073,77.1552785 10.5243716,76.9858952 10.6110345,76.8406897 C10.6823764,76.732783 10.8052702,76.670419 10.9344828,76.6765517 C11.0664548,76.6698624 11.1924852,76.7319643 11.2675862,76.8406897 C11.3576144,76.9847543 11.3982852,77.154216 11.3834483,77.3234483 C11.3930416,77.465748 11.3538797,77.6070714 11.2724138,77.7241379 L11.2724138,77.7241379 Z" id="Shape" fill="#273033"></path>
                <path d="M21.9027586,78.3275862 L21.3717241,78.3275862 L21.3717241,77.0144828 C21.3705901,76.9135265 21.3223793,76.8188905 21.2413793,76.7586207 C21.1698312,76.7022911 21.0814061,76.6716824 20.9903448,76.6717241 C20.9055916,76.6741262 20.8240553,76.7047023 20.7586207,76.7586207 C20.6806856,76.8259235 20.6394539,76.9263136 20.6475862,77.0289655 L20.6475862,78.342069 L20.1117241,78.342069 L20.1117241,77.1351724 C20.0759758,76.8699233 20.1800896,76.6050722 20.3868966,76.4351724 C20.5680231,76.3160582 20.7785076,76.2492377 20.9951724,76.242069 C21.1120524,76.2429883 21.2285276,76.25593 21.3427586,76.2806897 C21.4563861,76.307382 21.5621938,76.3602858 21.6517241,76.4351724 C21.7300255,76.3675061 21.8223563,76.3180432 21.922069,76.2903448 C22.0293666,76.2621346 22.1394684,76.2459431 22.2503448,76.242069 C22.5105753,76.2244294 22.7699801,76.2867539 22.9937931,76.4206897 C23.182069,76.5365517 23.1965517,76.6427586 23.1965517,76.6427586 L23.1965517,78.342069 L22.8924138,78.342069 C22.8220505,78.3463455 22.7532292,78.3202563 22.703383,78.2704101 C22.6535368,78.2205639 22.6274476,78.1517426 22.6317241,78.0813793 L22.6317241,77.0289655 C22.6398564,76.9263136 22.5986248,76.8259235 22.5206897,76.7586207 C22.4491415,76.7022911 22.3607164,76.6716824 22.2696552,76.6717241 C22.1783343,76.6700944 22.0893911,76.7008824 22.0186207,76.7586207 C21.9375427,76.8239346 21.8941391,76.9252098 21.9027586,77.0289655 L21.9027586,78.342069 L21.9027586,78.3275862 Z" id="Path" fill="#273033"></path>
                <path d="M9.80965517,77.1110345 C9.76212188,77.0263417 9.69405874,76.9549584 9.61172414,76.9034483 L9.5537931,76.8648276 C9.48889063,76.8325228 9.42098028,76.8066522 9.35103448,76.7875862 L9.17241379,76.7586207 L8.93103448,76.6910345 L8.72344828,76.637931 C8.42413793,76.5703448 8.2937931,76.4689655 8.2937931,76.3337931 C8.28894947,76.238885 8.33257502,76.1479985 8.40965517,76.0924138 C8.50734433,76.0303195 8.62251386,76.0015271 8.73793103,76.0103448 C8.87031684,76.0037807 9.00158937,76.0374403 9.11448276,76.1068966 C9.16037202,76.1438632 9.19816671,76.1898741 9.22551724,76.242069 C9.25272879,76.2906369 9.26608761,76.345742 9.26413793,76.4013793 L9.78551724,76.4013793 C9.78210575,76.2077983 9.71414313,76.0209011 9.59241379,75.8703448 C9.57049274,75.8353104 9.54273546,75.8042876 9.51034483,75.7786207 C9.30296524,75.6214397 9.04586193,75.5443088 8.7862069,75.5613793 C8.51600967,75.5444754 8.24781402,75.6174654 8.02344828,75.7689655 C7.84905918,75.9156766 7.75273346,76.1350852 7.76275862,76.3627586 C7.75937728,76.4847715 7.78589514,76.6057592 7.84,76.7151724 C7.88643555,76.8169429 7.96204471,76.9026333 8.05724138,76.9613793 C8.22008743,77.049053 8.39622306,77.1093958 8.57862069,77.14 L8.61241379,77.14 L8.66068966,77.14 C9.11931034,77.2413793 9.3462069,77.3668966 9.3462069,77.5406897 C9.35366829,77.6385852 9.30746933,77.7328311 9.22551724,77.7868966 C9.11574219,77.8501956 8.98999477,77.880375 8.86344828,77.8737931 C8.71385755,77.8807028 8.56569994,77.8419798 8.43862069,77.7627586 C8.3343172,77.6893358 8.27008883,77.5715838 8.26482759,77.4441379 L7.72413793,77.4441379 C7.72447532,77.6980207 7.83769209,77.9386064 8.03310345,78.1006897 C8.25833803,78.2672779 8.53575304,78.3477625 8.81517241,78.3275862 C9.09044379,78.3430485 9.36326802,78.2684879 9.59241379,78.1151724 L9.59241379,78.1151724 C9.77947554,77.9538679 9.88112211,77.7149093 9.86758621,77.4682759 C9.88086587,77.3461496 9.86084796,77.2227058 9.80965517,77.1110345 L9.80965517,77.1110345 Z M13.6137931,76.5027586 C13.4267696,76.3118178 13.1660967,76.2114235 12.8993103,76.2275862 C12.6417842,76.2134071 12.3916319,76.3163067 12.2186207,76.5075862 C12.0475454,76.7274715 11.9618082,77.0018308 11.9772414,77.28 C11.9575691,77.5565269 12.0458158,77.8299187 12.2234483,78.0427586 C12.3959596,78.2352437 12.6459515,78.3398502 12.9041379,78.3275862 C13.1179587,78.3360271 13.3285255,78.2731967 13.5027586,78.1489655 C13.6665013,78.0335199 13.781719,77.8615532 13.8262069,77.6662069 L13.3675862,77.6662069 C13.3543189,77.712034 13.3293647,77.7536244 13.2951724,77.7868966 C13.2701398,77.8106915 13.2426259,77.8317315 13.2131034,77.8496552 C13.1248508,77.8806609 13.0313092,77.8937895 12.937931,77.8882759 C12.82452,77.8987765 12.7130262,77.8538193 12.6386207,77.7675862 C12.5578945,77.677915 12.5162024,77.5597871 12.5227586,77.4393103 L13.8551724,77.4393103 C13.8586836,77.4217833 13.8586836,77.4037339 13.8551724,77.3862069 L13.8551724,77.3041379 C13.8764405,77.0163687 13.7904588,76.7309093 13.6137931,76.5027586 L13.6137931,76.5027586 Z M12.5227586,77.0868966 C12.5197642,76.9727653 12.5613194,76.8619514 12.6386207,76.777931 C12.7117733,76.7060956 12.8113473,76.6676635 12.9137931,76.6717241 C13.0198134,76.6629512 13.1242277,76.7018854 13.1986207,76.777931 C13.2705909,76.8647851 13.3098756,76.974099 13.3096561,77.0868966 L12.5227586,77.0868966 Z M15.2841379,77.6613793 C15.2610774,77.7402317 15.2070973,77.8064008 15.1344828,77.8448276 C15.0597013,77.8758966 14.9787109,77.8891196 14.897931,77.8834483 C14.7840737,77.8904127 14.6734541,77.8440238 14.5986207,77.757931 C14.4967335,77.6186199 14.4487181,77.4471364 14.4634483,77.2751724 C14.4428765,77.1027081 14.4914815,76.9291191 14.5986207,76.7924138 C14.6711139,76.7195615 14.7711525,76.6809501 14.8737931,76.6862069 C14.9795334,76.6793963 15.0831545,76.7180347 15.1586207,76.7924138 C15.1893867,76.8274422 15.2153612,76.866404 15.2358621,76.9082759 L15.7717241,76.9082759 C15.7384973,76.7637857 15.6705605,76.629569 15.5737931,76.5172414 C15.3857148,76.3279108 15.1257989,76.2278081 14.8593103,76.242069 C14.6002488,76.2271091 14.3483007,76.3300175 14.1737931,76.522069 C14.0047617,76.731592 13.9203642,76.9968414 13.9372414,77.2655172 C13.918377,77.5508154 14.0061158,77.8329557 14.1834483,78.0572414 C14.3570439,78.2510776 14.6091213,78.355814 14.8689655,78.342069 C15.0822323,78.3519143 15.2927483,78.2907968 15.4675862,78.1682759 C15.6278979,78.049519 15.7421792,77.8789498 15.7910345,77.6855172 L15.2841379,77.6613793 Z M16.5055172,76.2131034 L16.5055172,75.8655172 C16.5080022,75.795984 16.4797491,75.728883 16.4282759,75.682069 C16.3840662,75.6326397 16.3207975,75.6045203 16.2544828,75.6048251 L15.9744828,75.6048251 L15.9744828,77.922069 C15.9744828,78.1586207 16.0758621,78.2841379 16.2737931,78.2986207 L16.5055172,78.2986207 L16.5055172,76.7586207 L16.8193103,76.7586207 L16.8193103,76.2275862 L16.5055172,76.2131034 Z M17.92,76.2131034 C17.7845753,76.2113974 17.6496155,76.2292836 17.5193103,76.2662069 C17.3944116,76.2977031 17.277597,76.3552877 17.1765517,76.4351724 C17.0705702,76.521357 16.9876319,76.6324943 16.9351724,76.7586207 C16.8724505,76.9200335 16.8428969,77.09243 16.8482759,77.2655172 L16.8482759,78.3131034 L17.3793103,78.3131034 L17.3793103,77.2413793 C17.3706142,77.1193473 17.4085744,76.9985651 17.4855172,76.9034483 C17.5779098,76.8249768 17.6978576,76.7867326 17.8186207,76.7972414 L17.9924138,76.7972414 L17.9924138,76.2275862 L17.92,76.2131034 Z M19.6627586,76.2131034 C19.5927315,76.2104395 19.5246765,76.2366145 19.4744828,76.2855172 C19.4269578,76.3365827 19.4010118,76.4040423 19.402069,76.4737931 L19.402069,77.5358621 C19.4127127,77.6388918 19.3710216,77.7404005 19.2910345,77.8062069 C19.1481752,77.914026 18.9511352,77.914026 18.8082759,77.8062069 C18.7333798,77.737085 18.6942491,77.6374795 18.702069,77.5358621 L18.702069,76.2275862 L18.1517241,76.2275862 L18.1517241,77.4441379 C18.114831,77.7085097 18.2170535,77.9731929 18.422069,78.1441379 C18.6044133,78.2554572 18.8120684,78.3185843 19.0255172,78.3276057 C19.2445914,78.3288303 19.4598726,78.2704207 19.6482759,78.1586207 C19.8634784,77.9880259 19.971922,77.7159978 19.9331034,77.4441379 L19.9331034,76.2275862 L19.6627586,76.2131034 Z" id="Shape" fill="#273033"></path>
                <polygon id="Path" fill="#171B1C" points="22.8006897 65.8917241 22.8006897 66.9972414 2.52482759 66.9972414 2.52482759 66.8089655 2.52482759 65.9786207 2.52482759 65.8917241"></polygon>
                <path d="M29.7234483,66.8089655 L29.7234483,66.9972414 L22.8055172,66.9972414 L22.8055172,65.8917241 L29.7137931,65.8917241 L29.7137931,65.9786207 C29.7186207,66.2537931 29.7186207,66.5289655 29.7234483,66.8089655 Z" id="Path" fill="#4176E1"></path>
            </g>
        </g>
    </g>
</svg>