<?xml version="1.0" encoding="UTF-8"?>
<svg width="32px" height="86px" viewBox="0 0 32 86" version="1.1" xmlns="http://www.w3.org/2000/svg" xmlns:xlink="http://www.w3.org/1999/xlink">
    <!-- Generator: Sketch 55.2 (78181) - https://sketchapp.com -->
    <title>Modem-Front-Min</title>
    <desc>Created with Sketch.</desc>
    <g id="x_Exploration" stroke="none" stroke-width="1" fill="none" fill-rule="evenodd">
        <g id="Install_Equipment-Copy" transform="translate(-55.000000, -166.000000)" fill-rule="nonzero">
            <g id="Modem-Front-Min" transform="translate(55.000000, 166.000000)">
                <rect id="Rectangle" fill="#1D2326" x="7.36539877" y="2.08932515" width="17.416319" height="81.1143558"></rect>
                <path d="M4.09423313,-2.76275943e-07 C3.78732392,-2.76275943e-07 3.49355141,0.124518177 3.2805516,0.345480598 C3.06755179,0.566443019 2.95368005,0.864593586 2.96515337,1.17128834 C3.37668712,12.2510429 3.56134969,25.9688344 3.44527607,42.9788957 C3.3397546,58.0368098 2.70662577,72.1608589 0.527607362,84.6229448 C0.470080404,84.9522225 0.56071061,85.2901103 0.775301526,85.546399 C0.989892442,85.8026877 1.30659608,85.9512838 1.6408589,85.9525153 L7.38650307,85.9525153 L7.38650307,-2.76275943e-07 L4.09423313,-2.76275943e-07 Z" id="Path" fill="#232A2D"></path>
                <path d="M28.0581595,0 C28.3646026,0.00126277994 28.6574979,0.126456962 28.870176,0.347085639 C29.0828541,0.567714317 29.1972192,0.865005162 29.1872393,1.17128834 C28.7704294,12.2510429 28.5910429,25.9688344 28.7071166,42.9788957 C28.807362,58.0368098 29.4457669,72.1608589 31.603681,84.6229448 C31.6629876,84.9516196 31.5737388,85.2896867 31.3599283,85.5462593 C31.1461178,85.8028318 30.8296869,85.9515805 30.4957055,85.9525153 L24.797546,85.9525153 L24.797546,0 L28.0581595,0 Z" id="Path" fill="#232A2D"></path>
                <circle id="Oval" fill="#293033" cx="16.0761963" cy="72.1344785" r="3.30282209"></circle>
                <rect id="Rectangle" fill="#171B1C" x="7.36539877" y="2.08932515" width="1.07631902" height="81.1143558"></rect>
                <rect id="Rectangle" fill="#171B1C" x="23.7053988" y="2.08932515" width="1.07631902" height="81.1143558"></rect>
                <rect id="Rectangle" fill="#FFFFFF" x="7.36539877" y="8.10932515" width="1.07631902" height="3.45055215"></rect>
                <rect id="Rectangle" fill="#FFFFFF" x="7.36539877" y="13.3431902" width="1.07631902" height="3.45055215"></rect>
                <rect id="Rectangle" fill="#FFFFFF" x="7.36539877" y="18.5770552" width="1.07631902" height="3.45055215"></rect>
                <rect id="Rectangle" fill="#FFFFFF" x="7.36539877" y="23.8109202" width="1.07631902" height="3.45055215"></rect>
                <circle id="Oval" fill="#1D2326" cx="16.0761963" cy="72.1344785" r="2.63276074"></circle>
                <path d="M17.3107975,71.664908 L16.7831902,72.1344785 L17.1366871,72.1344785 C17.1366871,72.7172575 16.6642514,73.1896933 16.0814724,73.1896933 C15.9082685,73.1888278 15.7379406,73.1453398 15.5855215,73.0630675 L15.3006135,73.3374233 C15.7351228,73.6157141 16.2870101,73.634181 16.7391507,73.3855587 C17.1912912,73.1369364 17.4713247,72.6610143 17.4690798,72.1450307 L17.8173006,72.1450307 L17.3107975,71.664908 Z M15.0157055,72.1344785 C15.0157055,71.5516995 15.4881412,71.0792638 16.0709202,71.0792638 C16.2441241,71.0801293 16.414452,71.1236172 16.5668712,71.2058896 L16.8201227,70.947362 C16.38645,70.6681094 15.8345438,70.6492507 15.3828207,70.8982493 C14.9310976,71.1472479 14.6523655,71.6239705 14.6569325,72.1397546 L14.3034356,72.1397546 L14.8310429,72.6093252 L15.3586503,72.1397546 L15.0157055,72.1344785 Z" id="Shape" fill="#F1F2F6"></path>
            </g>
        </g>
    </g>
</svg>