<svg xmlns="http://www.w3.org/2000/svg" xmlns:xlink="http://www.w3.org/1999/xlink" id="Layer_1" viewBox="0 0 98 75">
  <style>
    .st149{fill:#eceff2}.st150{fill:#3db4a6}.st151{fill:#74d7c4}.st152{opacity:.2;fill:#3db4a6}.st155{opacity:.25}.st156{fill:#616e80}.st158{fill:#fff}.st159{fill:#eaedf0}.st160{fill:none;stroke:#0a2e40;stroke-width:.4743;stroke-linecap:round;stroke-linejoin:round;stroke-miterlimit:10}.st163{fill:#002a4e}
  </style>
  <path d="M65.2 21h-1v-1.2c0-.1-.1-.3-.3-.3h-7.2c-.2 0-.3.1-.3.3V21h-1c-.2 0-.3.1-.3.3v52.4c0 .1.1.3.3.3h9.9c.2 0 .3-.1.3-.3V21.2c-.1-.1-.2-.2-.4-.2zM92.1 10.8h-4.6V.5c0-.1-.1-.3-.3-.3H70.5c-.2 0-.3.1-.3.3v73.2c0 .1.1.3.3.3h21.6c.2 0 .3-.1.3-.3V11.1c0-.2-.1-.3-.3-.3zM33.9 8.7H15.7c-.2 0-.3.1-.3.3v8.2H5.9c-.2 0-.3.1-.3.3v56.3c0 .1.1.3.3.3h28c.2 0 .3-.1.3-.3V8.9c0-.1-.2-.2-.3-.2z" class="st149"/>
  <path d="M22 74h2.3c0-.1.1-.1.1-.2 1.1-2.7 2.1-5.7 2.3-9.2.1-.8 0-1.2-.1-1.2S23 72.8 22 74zM20.3 71.6v1.3c0 .4 0 .7.1 1.1H22v-1.1-.1-4.5c.1-3.8 0-5-.1-5s-.6.4-1.1 2.5c-.3 1.4-.5 3.2-.5 5.8zM16.3 69.2c.1 1.1.2 2.4.3 3.8v1.1H19V73c0-3.7-.6-6.3-1.3-8.2-1.2-3.1-2.7-4.1-2.8-4.1-.4.1.9 2.4 1.4 8.5z" class="st150"/>
  <path d="M15 71c.2.6.4 1.3.7 1.9 0 0 0 .1.1.1.1.3.2.5.3.8 0 .1.1.1.1.2h2v-.1c-.2-.3-.3-.7-.5-1l-.3-.6c-.1-.2-.2-.5-.3-.7-.4-.9-.7-1.7-.9-2.4-1.2-3.3-1.4-4.5-1.6-4.4-.1 0-.7 2.5.4 6.2z" class="st151"/>
  <path d="M18.1 72.9c0 .4-.1.7-.1 1.1h3.3v-1.1c0-1-.1-1.9-.2-2.9 0-.3-.1-.7-.1-1v-.1c-.1-1.1-.3-2.1-.5-3.1-1-5.2-2.7-8.5-2.9-8.5-.3 0 .4 2.8.7 7.3.1 2.1.1 4.7-.1 7.5-.1.4-.1.6-.1.8z" class="st151"/>
  <path d="M19.1 74h2.1v-1.1c0-1-.1-1.9-.2-2.9 0-.3-.1-.7-.1-1v-.1c-.3.8-.6 1.6-.9 2.6-.2.4-.3.9-.5 1.3-.1.5-.2.9-.4 1.2z" class="st152"/>
  <path d="M19.6 74h3.1c.1-.4.2-.8.3-1.1.7-2.6 1.1-4.8 1.2-6.6.2-2.9.2-4.6.1-4.7-.3-.1-1 1.7-2.7 6.6-.2.5-.4 1.1-.6 1.7-.3.8-.6 1.7-1 2.7 0 0 0 .1-.1.1 0 .6-.1 1-.3 1.3z" class="st151"/>
  <path d="M15.7 72.9s0 .1.1.1c.1.3.2.5.3.8 0 .1.1.1.1.2h8.2c0-.1 0-.1.1-.2l.3-.9h-9.1z" class="st152"/>
  <path d="M77.7 74h-2.3c0-.1-.1-.1-.1-.2-1.1-2.7-2.1-5.7-2.3-9.2-.1-.8 0-1.2.1-1.2.2 0 3.7 9.4 4.6 10.6zM79.4 71.6v1.3c0 .4 0 .7-.1 1.1h-1.6v-1.1-.1-4.5c-.1-3.8 0-5 .1-5s.6.4 1.1 2.5c.3 1.4.6 3.2.5 5.8zM83.4 69.2c-.1 1.1-.2 2.4-.3 3.8v1.1h-2.3V73c0-3.7.6-6.3 1.3-8.2 1.2-3.1 2.7-4.1 2.8-4.1.3.1-.9 2.4-1.5 8.5z" class="st150"/>
  <path d="M84.7 71c-.2.6-.4 1.3-.7 1.9 0 0 0 .1-.1.1-.1.3-.2.5-.3.8 0 .1-.1.1-.1.2h-2v-.1c.2-.3.3-.7.5-1l.3-.6c.1-.2.2-.5.3-.7.4-.9.7-1.7.9-2.4 1.2-3.3 1.4-4.5 1.6-4.4.1 0 .7 2.5-.4 6.2z" class="st151"/>
  <path d="M81.7 72.9c0 .4.1.7.1 1.1h-3.3v-1.1c0-1 .1-1.9.2-2.9 0-.3.1-.7.1-1v-.1c.1-1.1.3-2.1.5-3.1 1-5.2 2.7-8.5 2.9-8.5.3 0-.4 2.8-.7 7.3-.1 2.1-.1 4.7.1 7.5 0 .4.1.6.1.8z" class="st151"/>
  <path d="M80.6 74h-2.1v-1.1c0-1 .1-1.9.2-2.9 0-.3.1-.7.1-1v-.1c.3.8.6 1.6.9 2.6.2.4.3.9.5 1.3.1.5.3.9.4 1.2z" class="st152"/>
  <path d="M80.1 74H77c-.1-.4-.2-.8-.3-1.1-.7-2.6-1.1-4.8-1.2-6.6-.2-2.9-.2-4.6-.1-4.7.3-.1 1 1.7 2.7 6.6.2.5.4 1.1.6 1.7.3.8.6 1.7 1 2.7 0 0 0 .1.1.1.1.6.2 1 .3 1.3z" class="st151"/>
  <path d="M84 72.9s0 .1-.1.1c-.1.3-.2.5-.3.8 0 .1-.1.1-.1.2h-8.2c0-.1 0-.1-.1-.2l-.3-.9H84z" class="st152"/>
  <path fill="#dee2e9" stroke="#0a2e40" stroke-linecap="round" stroke-linejoin="round" stroke-miterlimit="10" stroke-width=".407" d="M23.1 27.9h54.1v46.4H23.1z"/>
  <path fill="#616e80" stroke="#0a2e40" stroke-linecap="round" stroke-linejoin="round" stroke-miterlimit="10" stroke-width=".474" d="M79.967 27.899h-59.6v-4.3h59.6z"/>
  <g class="st155">
    <path d="M23.1 71.4h8.5v2.9h-8.5z" class="st156" transform="rotate(-180 27.383 72.852)"/>
    <path d="M31.6 71.4h8.5v2.9h-8.5z" class="st156" transform="rotate(-180 35.907 72.852)"/>
    <path d="M35.9 71.4v-3h-8.5v3" class="st156"/>
    <path d="M23.1 68.4h4.3v2.9h-4.3z" class="st156" transform="rotate(-180 25.252 69.915)"/>
    <path d="M35.9 68.4h4.3v2.9h-4.3z" class="st156" transform="rotate(-180 38.038 69.915)"/>
  </g>
  <g class="st155">
    <path d="M60.2 71.4h8.5v2.9h-8.5z" class="st156" transform="rotate(-180 64.46 72.852)"/>
    <path d="M68.7 71.4h8.5v2.9h-8.5z" class="st156" transform="rotate(-180 72.984 72.852)"/>
    <path d="M64.5 68.4H73v2.9h-8.5z" class="st156" transform="rotate(-180 68.722 69.915)"/>
    <path d="M60.2 68.4h4.3v2.9h-4.3z" class="st156" transform="rotate(-180 62.329 69.915)"/>
    <path d="M73 68.4h4.3v2.9H73z" class="st156" transform="rotate(-180 75.115 69.915)"/>
  </g>
  <path fill="#4176e1" stroke="#0a2e40" stroke-linecap="round" stroke-linejoin="round" stroke-miterlimit="10" stroke-width=".474" d="M40.3 57.7h19.9v16.7H40.3z"/>
  <g>
    <path d="M27.3 48.7H36v10.5h-8.7zM64.4 48.7h8.7v10.5h-8.7z" class="st158"/>
  </g>
  <g>
    <path d="M27.3 33.1H36v10.5h-8.7zM64.4 33.1h8.7v10.5h-8.7zM45.8 33.1h8.7v10.5h-8.7z" class="st158"/>
  </g>
  <g>
    <path d="M36 33.4h-8.7v10.5l.9-4.3c.3-1.7 1.8-3 3.6-3h.7c1.7-.2 3.2-1.5 3.5-3.2zM54.5 33.4h-8.7v10.5l.9-4.3c.3-1.7 1.8-3 3.6-3h.7c1.7-.2 3.2-1.5 3.5-3.2zM64.4 33.4h8.7v10.5l-.9-4.3c-.3-1.7-1.8-3-3.6-3h-.7c-1.7-.2-3.2-1.5-3.5-3.2zM64.4 48.7h8.7v10.5l-.9-4.3c-.3-1.7-1.8-3-3.6-3h-.7c-1.7-.2-3.2-1.5-3.5-3.2zM36 48.7h-8.7v10.5l.9-4.3c.3-1.7 1.8-3 3.6-3h.7c1.7-.2 3.2-1.5 3.5-3.2z" class="st159"/>
  </g>
  <g>
    <path d="M27.3 48.7H36v10.5h-8.7zM64.4 48.7h8.7v10.5h-8.7z" class="st160"/>
  </g>
  <g>
    <path d="M27.3 33.1H36v10.5h-8.7zM64.4 33.1h8.7v10.5h-8.7zM45.8 33.1h8.7v10.5h-8.7z" class="st160"/>
  </g>
  <path fill="#fff" stroke="#001019" stroke-linecap="round" stroke-miterlimit="10" stroke-width=".474" d="M50.2 74.3V58.2"/>
  <g>
    <defs>
      <path id="SVGID_297_" d="M40.1 50.5H61v4.4H40.1z"/>
    </defs>
    <clipPath id="SVGID_2_">
      <use overflow="visible" xlink:href="#SVGID_297_"/>
    </clipPath>
    <path fill="#002a4e" d="M40.4 53.7c.2.2.5.3 1 .3.4 0 .7-.1 1-.3.2-.2.3-.5.3-.8 0-.2 0-.3-.1-.4l-.3-.3c-.1 0-.1-.1-.3-.1-.1 0-.7-.2-.8-.2-.3-.1-.5-.2-.5-.4 0-.4.4-.4.6-.4.2 0 .4 0 .5.1.2.2.2.4.2.4h.6c0-.3-.1-.6-.3-.8-.2-.2-.5-.3-.9-.3s-.7.1-.9.3c-.2.2-.3.4-.3.7 0 .4.2.6.4.7.1.1.3.2.7.2l.3.1c.4.1.7.2.7.5 0 .1-.1.2-.2.3-.1.1-.3.1-.4.1-.2 0-.4 0-.5-.1-.1-.1-.2-.2-.2-.4h-.7c-.2.4-.1.6.1.8" clip-path="url(#SVGID_2_)"/>
    <path d="M44.6 52.7c0-.2 0-.8-.6-.8-.5 0-.5.5-.5.8 0 .7.4.7.6.7.4 0 .5-.5.5-.7zm-1.1 1.9c0 .2-.1.3-.3.3h-.3v-2.4c0-.6.3-1.1 1.2-1.2.4 0 .7.2.9.4.2.2.3.6.3 1s-.1.7-.3 1c-.2.2-.4.4-.7.4-.5 0-.7-.2-.7-.2-.1-.1-.1.7-.1.7zM46.6 53.4c-.2 0-.5 0-.5-.6h1.7v-.2c0-.4-.1-.7-.3-1-.2-.2-.5-.3-.9-.3s-.6.1-.9.4c-.2.2-.3.5-.3 1 0 .4.1.8.3 1 .2.2.5.4.9.4.3 0 .5-.1.7-.2.2-.1.3-.3.4-.6h-.6c0 .1-.2.1-.5.1zm0-1.5c.4 0 .5.3.5.5h-1s0-.5.5-.5zM49.6 53.2h.6s-.2.8-1.1.8c-.9 0-1.2-.8-1.2-1.3s.1-1.4 1.1-1.4 1.1.8 1.1.8h-.7s-.1-.3-.5-.3-.5.4-.5.7c0 .4.1.8.5.8.6.1.7-.1.7-.1zM51 52.1h.4v-.7H51V51c0-.1-.1-.3-.3-.3h-.3v2.8c0 .3.1.5.4.5h.3l-.1-1.9zM52.1 53.9v-1.3c0-.2 0-.3.1-.4.1-.1.2-.1.4-.1h.2v-.7s-.3 0-.6.1c-.2 0-.3.1-.4.2-.1.1-.2.2-.3.4-.1.2-.1.4-.1.6v1.2h.7zM53.1 51.4h.7V53s0 .4.4.4.4-.4.4-.4v-1.3s0-.3.3-.3h.3v1.5c0 .1.1 1.1-1.1 1.1-1.2 0-1.1-1-1.1-1.1v-1.5h.1zM57.7 53.9H57v-1.6c0-.2-.1-.4-.5-.4s-.4.3-.4.4v1.6h-.7v-1.5c0-.4.1-.7.3-.9.2-.2.5-.2.8-.2h.4c.1 0 .3.1.4.2.1-.1.2-.1.3-.2.1 0 .3-.1.4-.1.8 0 1.2.4 1.2.5v2.1H59c-.1 0-.3-.1-.3-.3v-1.3c0-.2-.1-.4-.5-.4s-.5.3-.5.4v1.7z" class="st163"/>
    <path fill="#0099d8" d="M59.5 51.8v2.1l1.4-1-1.4-1.1z"/>
  </g>
  <g>
    <defs>
      <path id="SVGID_299_" d="M97.6 74.7H.4c-.1 0-.1-.2-.1-.3s0-.4.1-.4h97.2c.1 0 .1.2.1.3s0 .4-.1.4z"/>
    </defs>
    <clipPath id="SVGID_4_">
      <use overflow="visible" xlink:href="#SVGID_299_"/>
    </clipPath>
    <g clip-path="url(#SVGID_4_)">
      <defs>
        <path id="SVGID_301_" d="M-140.7-2405h375V706h-375z"/>
      </defs>
      <clipPath id="SVGID_6_">
        <use overflow="visible" xlink:href="#SVGID_301_"/>
      </clipPath>
      <path fill="#0a2e40" d="M-4.7 69h107.4v10.7H-4.7z" clip-path="url(#SVGID_6_)"/>
    </g>
  </g>
</svg>