<?xml version="1.0" encoding="UTF-8"?>
<svg width="375px" height="217px" viewBox="0 0 375 217" version="1.1" xmlns="http://www.w3.org/2000/svg" xmlns:xlink="http://www.w3.org/1999/xlink">
    <!-- Generator: Sketch 55.2 (78181) - https://sketchapp.com -->
    <title>Router-Complete</title>
    <desc>Created with Sketch.</desc>
    <g id="x_Exploration" stroke="none" stroke-width="1" fill="none" fill-rule="evenodd">
        <g id="Install_Equipment-Copy-15" transform="translate(0.000000, -147.000000)" fill-rule="nonzero">
            <g id="Router-Complete" transform="translate(-45.000000, 142.000000)">
                <path d="M462.280894,188.067486 C460.005396,196.954947 454.89354,204.857858 447.72067,210.577542 C440.27933,216.28257 431.287709,219.420335 422.916201,221.094637 L39.2282682,221.094637 C27.433743,214.89352 18.3056983,207.452179 12.2534078,198.770615 C-10.5418994,166.5 5.84145251,124.977318 35.9664804,104.377207 C37.1446927,103.571061 38.3353073,102.789721 39.538324,102.045587 C57.4471508,90.8835754 78.0968715,85.1413408 98.4365363,79.5231285 C140.604134,67.8650279 182.994972,58.1168715 223.934749,42.552067 C243.158212,35.2347486 262.232849,27.4957542 281.691955,20.7985475 C319.059888,7.9498324 359.205922,-0.731731844 397.900894,11.8193296 C411.654972,16.2717318 424.342458,23.4030168 429.787039,37.5787709 C433.582123,47.5005587 433.086034,58.5261453 430.853631,68.8820112 C428.373184,80.552514 423.697542,92.0121788 424.156425,103.943128 C425.396648,137.503575 471.557765,151.518101 462.280894,188.067486 Z" id="Path" fill="#F1F2F6"></path>
                <polygon id="Path" fill="#FFFFFF" points="446.93933 118.428939 440.701006 221.379888 382.546927 221.379888 376.308603 118.428939"></polygon>
                <path d="M450.002682,119.681564 L373.369274,119.681564 L373.369274,115.278771 L376.705475,115.278771 L379.73162,104.588045 L427.368603,104.588045 C427.48627,106.690456 429.225415,108.334989 431.331117,108.334989 C433.436819,108.334989 435.175965,106.690456 435.293631,104.588045 L443.590726,104.588045 L446.654078,115.340782 L449.977877,115.340782 L450.002682,119.681564 Z" id="Path" fill="#616E80"></path>
                <path d="M377.474413,186.430391 L374.12581,134.70067 C374.108554,134.463171 374.191036,134.229222 374.353429,134.055061 C374.515823,133.8809 374.74344,133.782279 374.981564,133.782902 L448.266369,133.782902 C448.50434,133.786044 448.730906,133.885374 448.894454,134.058267 C449.058002,134.231161 449.144602,134.462892 449.134525,134.70067 L445.77352,186.430391 C445.753437,186.886415 445.374175,187.243691 444.917765,187.23665 L378.34257,187.23665 C377.883888,187.243953 377.500947,186.888365 377.474413,186.430391 L377.474413,186.430391 Z" id="Path" fill="#F2A046"></path>
                <path d="M44.6480447,119.185475 C47.5253631,117.039888 47.6989944,104.104358 42.1675978,96.7126257 C36.6362011,89.3208939 25.796648,85.7614525 22.9193296,87.9070391 L44.6480447,119.185475 Z" id="Path" fill="#15B1A3"></path>
                <path d="M73.3468156,155.275978 C73.2351955,157.210726 73.2227933,159.244693 73.3468156,161.365475 C73.3468156,163.11419 73.5328492,164.924916 73.7436872,166.797654 C73.9545251,168.670391 71.461676,166.512402 69.2292737,164.193184 C68.237095,163.151397 67.2821229,162.097207 66.6496089,161.365475 L65.8434637,160.422905 C65.8434637,160.422905 66.3395531,158.438547 67.3317318,155.275978 C68.1750838,152.634302 69.3656983,149.174078 70.9159777,145.35419 C73.9669274,137.912849 78.3573184,129.231285 84.2359777,123.030168 C84.7940782,122.43486 84.2359777,125.237765 84.2359777,125.237765 C84.2359777,125.237765 74.4134078,135.060335 73.3468156,155.275978 Z" id="Path" fill="#15B1A3"></path>
                <path d="M35.4207821,45.2929609 C34.8130726,44.0527374 32.506257,44.0527374 33.1015642,45.2929609 C51.9901676,85.3149721 71.9329609,128.573966 60.9569832,166.028715 C60.5849162,167.268939 68.237095,167.851844 68.5967598,166.562011 C78.543352,130.347486 54.7930726,85.0545251 35.4207821,45.2929609 Z" id="Path" fill="#67D8C5"></path>
                <path d="M81.5943017,61.5026816 C81.5943017,61.5026816 65.6078212,84.992514 61.2174302,105.344581 C60.4856983,108.730391 57.6455866,95.4227933 57.6455866,95.4227933 C57.6455866,95.4227933 71.1516201,71.2012291 81.5943017,59.307486 C82.14,58.6873743 81.5943017,61.5026816 81.5943017,61.5026816 Z" id="Path" fill="#67D8C5"></path>
                <path d="M64.007933,157.880447 C63.5222857,159.069396 62.975867,160.232606 62.370838,161.365475 C62.2588929,161.587192 62.134678,161.802498 61.9987709,162.010391 C61.0313966,163.672291 59.9524022,164.949721 59.3198883,163.821117 L58.5509497,162.469274 C58.3401117,162.084804 58.1168715,161.72514 57.8812291,161.353073 C56.6076478,159.252351 55.2249739,157.219738 53.7388827,155.263575 C49.6110185,149.683331 44.6647174,144.757935 39.0670391,140.653743 C39.0670391,140.653743 37.9632402,138.656983 38.533743,138.991844 C46.992067,144.027151 52.647486,147.785028 56.4301676,150.563128 C58.4378015,152.001219 60.3439893,153.575896 62.1351955,155.275978 C62.5444693,155.685251 62.8545251,156.020112 63.1025698,156.317765 C64.0823464,157.50838 64.007933,157.880447 64.007933,157.880447 Z" id="Path" fill="#15B1A3"></path>
                <path d="M32.8535196,104.414413 C32.8535196,104.414413 57.6579888,136.312961 58.6997765,164.912514 C58.7617877,166.462793 61.6391061,166.152737 63.3258101,164.242793 C64.7700753,162.266043 65.7878959,160.010789 66.3147486,157.62 C66.3147486,157.62 58.1540782,130.806369 32.8287151,102.206816 C32.3078212,101.586704 32.8535196,104.414413 32.8535196,104.414413 Z" id="Path" fill="#67D8C5"></path>
                <path d="M25.1021229,14.8826816 C25.1021229,14.8826816 62.3088268,23.3286034 63.7102793,53.2427933 C64.4916201,68.9440223 49.1128492,75.6536313 49.1128492,75.6536313 L25.1021229,14.8826816 Z" id="Path" fill="#15B1A3"></path>
                <path d="M1.52547486,1.24022346 C0.880558659,0.384469274 8.5947486,1.24022346 18.342905,5.07251397 C19.3846927,5.48178771 22.8201117,14.8330726 23.8991061,15.3043575 C24.9781006,15.7756425 23.7130726,7.39173184 24.8168715,7.9498324 C33.8581006,12.4022346 43.4078212,19.4218994 49.1872626,29.7653631 C49.9934078,31.2040223 45.9998883,35.0859218 46.6324022,36.6362011 C46.7688268,36.9834637 53.7760894,37.2439106 53.9001117,37.5911732 C54.6416984,39.5615116 55.2183181,41.5900517 55.6240223,43.6558659 C59.1214525,61.4282682 43.7798883,69.2540782 43.7798883,69.2540782 C43.7798883,69.2540782 13.530838,17.2267039 1.52547486,1.24022346 Z" id="Path" fill="#67D8C5"></path>
                <path d="M110.962793,41.7087151 C109.139665,38.6205587 98.7093855,36.2145251 90.7967598,40.9273743 C82.8841341,45.6402235 79.9324022,55.2767598 81.767933,58.3649162 L110.962793,41.7087151 Z" id="Path" fill="#15B1A3"></path>
                <path d="M110.789162,41.6094972 C109.958212,40.5801117 91.8013408,44.2883799 82.2640223,51.6056983 C72.7267039,58.9230168 73.5080447,64.4916201 76.3729609,68.1378771 L110.789162,41.6094972 Z" id="Path" fill="#67D8C5"></path>
                <path d="M116.581006,99.6395531 C115.043128,96.1793296 104.78648,93.6368715 95.8692737,97.4443575 C84.5088268,102.306034 79.2998883,119.235084 80.8377654,122.682905 L116.581006,99.6395531 Z" id="Path" fill="#67D8C5"></path>
                <path d="M116.779441,99.7387709 C116.171732,99.0814525 111.979777,98.4985475 106.44838,99.5527374 C105.431397,99.7511732 103.335419,104.513631 102.244022,104.836089 C101.152626,105.158547 101.202235,100.941788 100.135642,101.351061 C96.1662285,102.880952 92.4970701,105.097561 89.2960894,107.899441 C77.4395531,118.255307 80.4781006,128.53676 81.6563128,130.074637 L116.779441,99.7387709 Z" id="Path" fill="#15B1A3"></path>
                <path d="M97.6179888,163.932737 L97.6179888,212.611508 C97.6179888,214.851506 96.7281532,216.999759 95.1442356,218.583677 C93.560318,220.167595 91.4120648,221.05743 89.172067,221.05743 L43.4078212,221.05743 C38.7432674,221.05743 34.9618994,217.276062 34.9618994,212.611508 L34.9618994,163.932737 C34.9618994,163.251857 35.2323781,162.598864 35.7138332,162.117409 C36.1952884,161.635954 36.8482816,161.365475 37.529162,161.365475 L95.0507263,161.365475 C96.4685862,161.365475 97.6179888,162.514877 97.6179888,163.932737 Z" id="Path" fill="#FD8A7A"></path>
                <path d="M97.6179888,210.552737 L97.6179888,211.284469 C95.3359777,212.413073 92.3222346,213.888939 90.176648,214.074972 C89.5441341,214.074972 88.9364246,214.149385 88.2915084,214.149385 C78.915419,214.149385 70.7919553,208.121899 66.5131844,202.664916 C62.2344134,197.207933 57.4843575,186.802458 61.3042458,182.213631 C63.375419,179.733184 66.6992179,180.291285 70.5439106,180.973408 C74.3886034,181.655531 79.1014525,182.461676 83.516648,180.080447 C89.5317318,176.843464 91.863352,167.864246 93.4384358,161.390279 L94.0957542,161.390279 C92.5702793,167.988268 90.2014525,177.252737 83.8887151,180.638547 C79.2750838,183.118994 74.6118436,182.325251 70.4943017,181.618324 C66.6992179,180.961006 63.6978771,180.440112 61.8127374,182.660112 C58.2284916,186.963687 62.8173184,196.922682 67.0464804,202.305251 C71.5112849,207.985475 80.2300559,214.335419 90.1518436,213.467263 C92.2478212,213.293631 95.3359777,211.743352 97.5931844,210.614749 L97.6179888,210.552737 Z" id="Path" fill="#FFFFFF"></path>
                <path d="M51.481676,221.05743 C51.481676,221.05743 51.3700559,221.206257 51.3080447,221.268268 L51.2088268,221.379888 L43.4078212,221.379888 L43.4078212,220.759777 L50.849162,220.759777 C54.5698324,216.356983 56.5789944,211.34648 56.0705028,207.340559 C55.6612291,204.227598 53.8753073,202.379665 51.9653631,200.333296 C49.8321788,198.088492 47.624581,195.769274 47.5005587,191.651732 C47.4907537,189.389747 48.0997617,187.168154 49.261676,185.227374 C50.8169424,182.255085 51.8489927,179.037269 52.3126257,175.71486 C52.9451397,171.448492 53.5528492,167.430168 51.5808939,165.569832 C49.6089385,163.709497 40.9025698,166.090726 34.9246927,168.918436 L34.9246927,168.211508 C41.1258101,165.309385 49.6585475,162.878547 52.0149721,165.11095 C54.3713966,167.343352 53.6396648,171.200447 52.9451397,175.82648 C52.4648562,179.208497 51.4121557,182.484032 49.8321788,185.512626 C48.7314238,187.362427 48.1488131,189.474391 48.1454749,191.626927 C48.2694972,195.496425 50.2786592,197.629609 52.4242458,199.886816 C54.3217877,201.883575 56.2813408,203.942346 56.7030168,207.266145 C57.3107263,211.383687 55.3387709,216.530615 51.481676,221.05743 Z" id="Path" fill="#FFFFFF"></path>
                <path d="M73.9793296,167.244134 L73.7188827,166.934078 C72.5675489,165.63225 71.0359745,164.725454 69.3408939,164.342011 L69.3408939,164.342011 C69.2877549,164.330616 69.2328038,164.330616 69.1796648,164.342011 C68.4465573,164.199176 67.6927723,164.199176 66.9596648,164.342011 C65.1979688,164.677684 63.6143687,165.632243 62.4948603,167.033296 L62.4948603,167.033296 C62.3007127,167.266328 62.1264696,167.515247 61.9739665,167.77743 C61.4772227,168.473864 61.3012589,169.349171 61.4902793,170.183464 C62.0979888,172.031397 65.7194413,172.949162 69.030838,173.035978 L69.5517318,173.035978 C72.0321788,173.035978 74.8102793,172.552291 75.3683799,171.126034 C75.6536313,170.183464 75.1575419,168.670391 73.9793296,167.244134 Z M74.7358659,170.865587 C74.3637989,171.820559 72.0197765,172.453073 69.0184358,172.366257 C67.4355118,172.342094 65.8645707,172.087234 64.3551955,171.609721 C63.1149721,171.175642 62.3088268,170.592737 62.0855866,169.935419 C61.9488547,169.281373 62.0977507,168.600061 62.4948603,168.062682 C62.7007047,167.731069 62.9373974,167.419631 63.2017877,167.132514 C64.2208326,166.010982 65.5727596,165.245904 67.0588827,164.949721 C67.3862056,164.89011 67.7183599,164.861046 68.0510615,164.862905 C68.371442,164.860938 68.6912597,164.890013 69.0060335,164.949721 C69.4301045,165.02331 69.8456324,165.139657 70.246257,165.296983 C71.4437101,165.793649 72.5063051,166.567218 73.3468156,167.55419 L73.4584358,167.678212 C74.3366785,168.498094 74.80479,169.666101 74.7358659,170.865587 Z" id="Shape" fill="#FFFFFF"></path>
                <path d="M67.4805587,211.396089 L67.0836872,211.396089 C65.1861453,211.396089 63.2265922,213.244022 62.532067,215.11676 C61.9596146,217.124141 62.2566177,219.279664 63.3506145,221.05743 L64.0575419,221.05743 C62.9410995,219.368637 62.6066532,217.280607 63.1397765,215.327598 C63.7846927,213.591285 65.7070391,211.805363 67.393743,212.041006 C69.8121788,212.363464 71.9825698,216.704246 73.0367598,221.05743 L73.7064804,221.05743 C72.7267039,217.039106 70.5067039,211.817765 67.4805587,211.396089 Z" id="Path" fill="#FFFFFF"></path>
                <path d="M176.76905,116.804246 C176.466541,116.802092 176.209736,116.581972 176.161341,116.283352 C174.983128,109.015642 169.092067,96.2165363 154.45743,94.3562011 C151.334905,93.8424232 148.130076,94.2743409 145.254972,95.5964246 C148.112443,97.6473394 150.296589,100.500542 151.530503,103.794302 C152.671508,107.217318 152.225028,110.355084 150.290279,112.401453 C148.707637,114.089935 146.331725,114.783701 144.089162,114.212179 C141.28492,113.364783 139.185765,111.026543 138.644581,108.147486 C137.605379,104.331204 138.535491,100.248014 141.125028,97.258324 C141.693471,96.6132048 142.329643,96.0310871 143.02257,95.5220112 C136.912873,91.7409002 129.356714,91.1316071 122.720112,93.8849162 C122.41418,93.9622068 122.09899,93.7974367 121.987847,93.5021143 C121.876705,93.2067918 122.005053,92.8750987 122.286034,92.7315084 C128.504088,90.2767577 135.456626,90.4784755 141.521899,93.2896089 C142.435967,93.7283996 143.318627,94.2298169 144.163575,94.7902793 C147.385908,93.1061757 151.068064,92.5142453 154.655866,93.1035754 C169.985028,95.087933 176.111732,108.469944 177.351955,116.084916 C177.40425,116.419952 177.177735,116.734864 176.843464,116.791844 L176.76905,116.804246 Z M144.089162,96.2785475 C143.323668,96.7904026 142.627514,97.399016 142.017989,98.0892737 C139.686846,100.784428 138.87505,104.474831 139.86,107.899441 C140.303208,110.336988 142.060513,112.328282 144.424022,113.071173 C146.220667,113.518114 148.118528,112.958245 149.384916,111.607709 C150.315084,110.615531 151.666927,108.33352 150.315084,104.240782 C149.112429,101.007107 146.937397,98.2254924 144.089162,96.2785475 L144.089162,96.2785475 Z" id="Shape" fill="#F2A046"></path>
                <circle id="Oval" fill="#64A5FC" cx="171.88257" cy="129.987821" r="3.34860335"></circle>
                <circle id="Oval" fill="#FD8A7A" cx="167.578994" cy="71.0648045" r="2.2572067"></circle>
                <circle id="Oval" fill="#F2A046" cx="152.981564" cy="148.603575" r="2.59206704"></circle>
                <path d="M109.139665,142.104804 C108.844945,142.104804 108.590899,141.89748 108.531955,141.608715 C108.470411,141.274468 108.684009,140.951333 109.015642,140.876983 L152.101006,132.058994 C152.262183,132.026067 152.42984,132.058534 152.567075,132.149248 C152.704309,132.239963 152.799875,132.381491 152.832737,132.542682 C152.869216,132.704179 152.838223,132.873568 152.746924,133.011686 C152.655626,133.149804 152.511927,133.244693 152.34905,133.274413 L109.263687,142.092402 L109.139665,142.104804 Z" id="Path" fill="#15B1A3"></path>
                <path d="M128.102682,119.706369 L128.04067,119.706369 L105.50581,117.585587 C105.342061,117.573087 105.190342,117.494847 105.085208,117.368686 C104.980074,117.242525 104.930475,117.079184 104.947709,116.915866 C104.986632,116.581128 105.281161,116.335687 105.61743,116.357765 L128.152291,118.478547 C128.494769,118.478547 128.772402,118.756181 128.772402,119.098659 C128.772402,119.441137 128.494769,119.718771 128.152291,119.718771 L128.102682,119.706369 Z" id="Path" fill="#67D8C5"></path>
                <path d="M167.578994,156.193743 C167.336298,156.190761 167.115828,156.051769 167.008492,155.834078 C166.867147,155.525742 166.99976,155.161056 167.306145,155.015531 L187.633408,145.441006 C187.835013,145.345741 188.072127,145.365269 188.255431,145.492232 C188.438735,145.619196 188.540381,145.834306 188.522079,146.056534 C188.503778,146.278762 188.368309,146.474345 188.166704,146.569609 L167.839441,156.131732 C167.759724,156.175296 167.669791,156.196709 167.578994,156.193743 Z" id="Path" fill="#FD8A7A"></path>
                <path d="M187.906257,75.2319553 C187.763064,75.2284927 187.624443,75.1808419 187.509385,75.0955307 L170.22067,61.3290503 C170.090005,61.2287379 170.00566,61.0796778 169.986955,60.9160128 C169.968251,60.7523477 170.016789,60.588101 170.121453,60.4608939 C170.221765,60.3302282 170.370825,60.2458833 170.53449,60.2271787 C170.698155,60.2084742 170.862402,60.2570125 170.989609,60.361676 L188.290726,74.1281564 C188.556697,74.3411362 188.601003,74.7288153 188.389944,74.9963128 C188.270744,75.1415753 188.094116,75.2276247 187.906257,75.2319553 Z" id="Path" fill="#64A5FC"></path>
                <path d="M177.525587,88.6883799 C177.455892,88.7011956 177.384444,88.7011956 177.314749,88.6883799 L137.503575,74.3513966 C137.191296,74.2283489 137.033603,73.8791701 137.147769,73.563535 C137.261935,73.2478999 137.606513,73.0803939 137.925251,73.1855866 L177.736425,87.5225698 C178.058254,87.6391219 178.224786,87.9943901 178.108492,88.3163128 C178.002726,88.5428301 177.775579,88.6878177 177.525587,88.6883799 Z" id="Path" fill="#15B1A3"></path>
                <path d="M288.314749,116.804246 L288.215531,116.804246 C287.88126,116.747266 287.654744,116.432354 287.707039,116.097318 C288.947263,108.482346 295.14838,95.1003352 310.46514,93.1283799 C314.052931,92.53357 317.736825,93.12578 320.95743,94.8150838 C321.802379,94.2546214 322.685039,93.7532041 323.599106,93.3144134 C329.664379,90.5032799 336.616917,90.3015622 342.834972,92.7563128 C343.065959,92.8146693 343.243089,93.0001999 343.290689,93.2336408 C343.338288,93.4670817 343.247939,93.7071523 343.058241,93.8512877 C342.868543,93.9954232 342.613042,94.0181352 342.400894,93.9097207 C335.77216,91.14156 328.216343,91.7323631 322.098436,95.4972067 C322.791363,96.0062826 323.427535,96.5884004 323.995978,97.2335196 C326.56377,100.234724 327.470351,104.316663 326.414413,108.122682 C325.87323,111.001739 323.774074,113.339978 320.969832,114.187374 C318.727269,114.758897 316.351357,114.06513 314.768715,112.376648 C312.871173,110.330279 312.424693,107.192514 313.528492,103.769497 C314.762405,100.475738 316.946551,97.6225349 319.804022,95.5716201 C316.928918,94.2495364 313.724089,93.8176187 310.601564,94.3313966 C295.954525,96.1917318 290.075866,108.990838 288.897654,116.246145 C288.867539,116.550456 288.620081,116.787384 288.314749,116.804246 Z M320.994637,96.2785475 C318.163651,98.2162436 315.998402,100.979102 314.79352,104.191173 C313.441676,108.283911 314.79352,110.565922 315.723687,111.558101 C316.990076,112.908637 318.887937,113.468505 320.684581,113.021564 C323.024756,112.279301 324.768279,110.311884 325.223799,107.899441 C326.190819,104.490017 325.380034,100.822847 323.06581,98.1388827 C322.459458,97.4311445 321.763164,96.8057312 320.994637,96.2785475 Z" id="Shape" fill="#F2A046"></path>
                <circle id="Oval" fill="#64A5FC" cx="293.201229" cy="129.987821" r="3.34860335"></circle>
                <circle id="Oval" fill="#FD8A7A" cx="297.504804" cy="71.0648045" r="2.2572067"></circle>
                <circle id="Oval" fill="#F2A046" cx="312.102235" cy="148.603575" r="2.59206704"></circle>
                <path d="M355.944134,142.104811 L355.820112,142.104811 L312.734749,133.286816 C312.571872,133.257095 312.428173,133.162207 312.336874,133.024089 C312.245576,132.88597 312.214583,132.716581 312.251061,132.555084 C312.283924,132.393893 312.379489,132.252365 312.516724,132.161651 C312.653959,132.070936 312.821615,132.03847 312.982793,132.071397 L356.068156,140.889385 C356.39979,140.963735 356.613388,141.28687 356.551844,141.621117 C356.487835,141.904951 356.235093,142.106113 355.944134,142.104811 L355.944134,142.104811 Z" id="Path" fill="#15B1A3"></path>
                <path d="M336.981117,119.706369 C336.638639,119.706369 336.361006,119.428735 336.361006,119.086257 C336.361006,118.743779 336.638639,118.466145 336.981117,118.466145 L359.515978,116.345363 C359.854382,116.316611 360.152955,116.565422 360.185698,116.903464 C360.202932,117.066782 360.153334,117.230123 360.0482,117.356284 C359.943065,117.482445 359.791346,117.560685 359.627598,117.573184 L337.092737,119.693966 L336.981117,119.706369 Z" id="Path" fill="#67D8C5"></path>
                <path d="M297.504804,156.193743 C297.414008,156.196709 297.324075,156.175296 297.244358,156.131732 L276.917095,146.569609 C276.766676,146.499724 276.650521,146.372493 276.594589,146.216348 C276.538656,146.060202 276.547607,145.888157 276.619441,145.738659 C276.769983,145.43064 277.138514,145.298628 277.450391,145.441006 L297.777654,155.027933 C298.084039,155.173458 298.216652,155.538145 298.075307,155.84648 C297.964555,156.059358 297.744768,156.193142 297.504804,156.193743 Z" id="Path" fill="#FD8A7A"></path>
                <path d="M277.177542,75.2319553 C276.989683,75.2276247 276.813055,75.1415753 276.693855,74.9963128 C276.482795,74.7288153 276.527102,74.3411362 276.793073,74.1281564 L294.09419,60.361676 C294.221397,60.2570125 294.385644,60.2084742 294.549309,60.2271787 C294.712974,60.2458833 294.862034,60.3302282 294.962346,60.4608939 C295.06701,60.588101 295.115548,60.7523477 295.096844,60.9160128 C295.078139,61.0796778 294.993794,61.2287379 294.863128,61.3290503 L277.574413,75.0955307 C277.459356,75.1808419 277.320735,75.2284927 277.177542,75.2319553 L277.177542,75.2319553 Z" id="Path" fill="#64A5FC"></path>
                <path d="M287.558212,88.6883799 C287.215734,88.7466011 286.890903,88.5161654 286.832682,88.1736871 C286.77446,87.8312089 287.004896,87.5063778 287.347374,87.4481564 L327.158547,73.1731844 C327.36856,73.090433 327.606951,73.1283367 327.780941,73.2721439 C327.954931,73.4159511 328.037035,73.6429441 327.995299,73.8647801 C327.953563,74.086616 327.794579,74.2682508 327.580223,74.3389944 L287.731844,88.6511732 C287.676206,88.6723701 287.61765,88.6849178 287.558212,88.6883799 L287.558212,88.6883799 Z" id="Path" fill="#15B1A3"></path>
                <path d="M223.686704,218.415754 L223.178212,219.44514 L222.855754,220.090056 L221.77676,220.090056 L221.77676,221.330279 L206.038324,221.330279 L206.038324,220.090056 L204.95933,220.090056 L204.674078,219.271508 L204.302011,218.204916 L204.066369,217.522793 C206.801787,218.15966 209.604836,218.45954 212.413073,218.415754 L223.686704,218.415754 Z" id="Path" fill="#171B1C"></path>
                <path d="M261.005028,217.522793 L260.446927,219.271508 L260.161676,220.102458 L259.082682,220.102458 L259.082682,221.342682 L243.307039,221.342682 L243.307039,220.102458 L242.228045,220.102458 L241.893184,219.44514 L241.384693,218.428156 L252.670726,218.428156 C255.475125,218.462584 258.273438,218.1586 261.005028,217.522793 L261.005028,217.522793 Z" id="Path" fill="#171B1C"></path>
                <path d="M212.413073,218.415754 L223.686704,218.415754 L223.178212,219.44514 L208.481564,219.44514 C207.315754,219.44514 206.261564,219.44514 205.29419,219.321117 L204.674078,219.321117 L204.302011,218.254525 L204.066369,217.572402 C206.803843,218.192586 209.606867,218.475804 212.413073,218.415754 Z" id="Path" fill="#171B1C"></path>
                <path d="M261.005028,217.522793 L260.446927,219.271508 C259.318324,219.383128 258.065698,219.44514 256.639441,219.44514 L241.843575,219.44514 L241.335084,218.428156 L252.621117,218.428156 C255.442087,218.466589 258.257298,218.16258 261.005028,217.522793 L261.005028,217.522793 Z" id="Path" fill="#171B1C"></path>
                <path d="M272.700335,9.21486034 C271.460112,21.2822346 266.275978,76.0381006 267.416983,173.321229 L267.416983,175.938101 L267.416983,176.111732 C267.416983,176.818659 267.416983,177.525587 267.416983,178.244916 L267.416983,178.728603 C267.416983,179.026257 267.416983,179.435531 267.416983,179.968827 C267.416983,180.700559 267.416983,181.655531 267.491397,182.808939 C267.826508,192.521719 268.846019,202.198785 270.542346,211.768156 C270.644303,212.319911 270.538263,212.889876 270.244693,213.368045 C269.33933,214.769497 267.838659,217.411173 260.68257,218.167709 C259.298516,218.315365 257.907308,218.385753 256.515419,218.379049 L208.481564,218.379049 C207.315754,218.379049 206.261564,218.379049 205.29419,218.254525 L204.302011,218.167709 C197.145922,217.411173 195.620447,214.769497 194.752291,213.368045 C194.44809,212.894027 194.341268,212.319861 194.454637,211.768156 C196.141827,202.197789 197.157156,192.521076 197.493184,182.808939 C197.493184,181.655531 197.493184,180.700559 197.567598,179.968827 C197.567598,179.447933 197.567598,179.026257 197.567598,178.728603 L197.567598,178.244916 L197.567598,176.111732 L197.567598,175.888492 C197.567598,175.020335 197.567598,174.139777 197.567598,173.27162 C198.708603,75.9884916 193.574078,21.2326257 192.284246,9.1652514 C192.229716,8.49871315 192.465566,7.84107951 192.931273,7.36111672 C193.396979,6.88115393 194.047205,6.62558657 194.715084,6.66 L270.368715,6.66 C271.029054,6.65304733 271.661043,6.92792585 272.106201,7.41570617 C272.55136,7.9034865 272.767469,8.55790597 272.700335,9.21486034 L272.700335,9.21486034 Z" id="Path" fill="#1D2326"></path>
                <polygon id="Path" fill="#273033" points="251.182458 203.508268 251.182458 207.886257 254.072179 205.703464"></polygon>
                <path d="M221.144246,203.223017 C220.932161,202.974587 220.658403,202.786379 220.350503,202.677318 C220.028867,202.557873 219.689001,202.494935 219.345922,202.491285 C218.719913,202.486976 218.105322,202.65889 217.572402,202.987374 C216.989676,203.434875 216.683814,204.154828 216.766257,204.884916 L216.766257,209.84581 L217.435978,209.84581 C217.807913,209.84581 218.111338,209.547963 218.118101,209.176089 L218.118101,207.414972 C218.118101,207.414972 218.118101,207.601006 218.564581,207.762235 C218.903455,207.877851 219.261135,207.928347 219.618771,207.911061 C220.218674,207.915981 220.785101,207.63507 221.144246,207.154525 C221.562689,206.603749 221.773487,205.923046 221.739553,205.232179 C221.776208,204.514147 221.566144,203.805181 221.144246,203.223017 L221.144246,203.223017 Z M220.077654,206.298771 C219.892197,206.565563 219.583814,206.719754 219.259106,206.708045 C218.927202,206.721395 218.610637,206.567768 218.415754,206.298771 C218.195322,206.002926 218.089575,205.637218 218.118101,205.269385 C218.072576,204.837351 218.16831,204.4022 218.39095,204.029162 C218.574229,203.751946 218.889948,203.591731 219.221899,203.607486 C219.56094,203.590301 219.884717,203.749843 220.077654,204.029162 C220.308939,204.399269 220.413424,204.834622 220.375307,205.269385 C220.39635,205.636414 220.291329,205.999613 220.077654,206.298771 L220.077654,206.298771 Z" id="Shape" fill="#273033"></path>
                <path d="M247.399777,207.886257 L246.035531,207.886257 L246.035531,204.512849 C246.057675,204.246297 245.946169,203.986118 245.737877,203.818324 C245.370867,203.541333 244.864664,203.541333 244.497654,203.818324 C244.300333,203.992502 244.198805,204.250938 244.224804,204.512849 L244.224804,207.886257 L242.835754,207.886257 L242.835754,204.785698 C242.743915,204.104264 243.011387,203.423853 243.542682,202.987374 C244.002732,202.679981 244.539919,202.508081 245.092961,202.491285 C245.393309,202.492272 245.692682,202.525536 245.985922,202.590503 C246.27968,202.653904 246.552689,202.790408 246.779665,202.987374 C246.983696,202.810839 247.22556,202.683542 247.486592,202.615307 C247.762243,202.542834 248.045099,202.501238 248.329944,202.491285 C248.994542,202.44613 249.65696,202.606323 250.227486,202.950168 C250.723575,203.247821 250.760782,203.52067 250.760782,203.52067 L250.760782,207.886257 L249.979441,207.886257 C249.796214,207.890901 249.618346,207.824201 249.483352,207.700223 C249.357719,207.571274 249.290475,207.396438 249.297318,207.216536 L249.297318,204.512849 C249.324662,204.248162 249.217557,203.987383 249.012067,203.818324 C248.829225,203.671849 248.601419,203.592993 248.367151,203.595084 C248.133211,203.594977 247.906044,203.673611 247.722235,203.818324 C247.522017,203.991227 247.416091,204.249133 247.436983,204.512849 L247.436983,207.886257 L247.399777,207.886257 Z" id="Path" fill="#273033"></path>
                <path d="M216.319777,204.760894 C216.197662,204.543315 216.022805,204.359929 215.811285,204.227598 L215.662458,204.12838 C215.495721,204.045388 215.321257,203.978925 215.141564,203.929944 L214.732291,203.805922 L214.112179,203.632291 L213.578883,203.495866 C212.809944,203.322235 212.475084,203.061788 212.475084,202.714525 C212.46264,202.470703 212.574716,202.237212 212.772737,202.094413 C213.023704,201.934891 213.319579,201.860922 213.616089,201.883575 C213.956193,201.866712 214.293437,201.953185 214.583464,202.13162 C214.701355,202.226589 214.798451,202.344792 214.868715,202.478883 C214.938622,202.603655 214.972942,202.745222 214.967933,202.888156 L216.307374,202.888156 C216.29861,202.39084 216.124012,201.910695 215.811285,201.523911 C215.754969,201.433906 215.68366,201.354207 215.600447,201.288268 C215.067682,200.884465 214.407174,200.686313 213.740112,200.730168 C213.045966,200.686741 212.356962,200.874255 211.780559,201.263464 C211.332547,201.640369 211.085083,202.204038 211.110838,202.788939 C211.102151,203.102394 211.170276,203.413215 211.309274,203.694302 C211.428568,203.955754 211.622811,204.175895 211.867374,204.326816 C212.285731,204.552052 212.73823,204.707075 213.206816,204.785698 L213.318436,204.785698 L213.442458,204.785698 C214.62067,205.046145 215.203575,205.368603 215.203575,205.815084 C215.222744,206.066581 215.104057,206.308702 214.89352,206.447598 C214.611504,206.610215 214.288454,206.687747 213.963352,206.670838 C213.579048,206.688589 213.198426,206.589108 212.871955,206.385587 C212.603996,206.196961 212.438991,205.894452 212.425475,205.567039 L211.036425,205.567039 C211.037291,206.219273 211.328149,206.837345 211.830168,207.253743 C212.408803,207.681714 213.121492,207.888482 213.83933,207.836648 C214.546511,207.876371 215.247406,207.684822 215.836089,207.29095 L215.836089,207.29095 C216.316657,206.876553 216.577791,206.26266 216.543017,205.62905 C216.545297,205.325184 216.468356,205.025968 216.319777,204.760894 Z M226.092737,203.198212 C225.612268,202.707679 224.94259,202.449762 224.257207,202.491285 C223.595613,202.454858 222.952963,202.719211 222.508492,203.210615 C222.068993,203.775507 221.848731,204.480346 221.88838,205.194972 C221.837841,205.905379 222.06455,206.607732 222.520894,207.154525 C222.964081,207.649026 223.606319,207.917764 224.269609,207.886257 C224.818922,207.907942 225.359875,207.746529 225.807486,207.427374 C226.228147,207.130791 226.524145,206.689002 226.638436,206.187151 L225.398212,206.187151 C225.364128,206.304882 225.30002,206.411729 225.212179,206.497207 C225.147869,206.558337 225.077185,206.612389 225.001341,206.658436 C224.774617,206.73809 224.534305,206.771818 224.294413,206.757654 C224.003057,206.78463 223.716625,206.669133 223.525475,206.447598 C223.318087,206.217229 223.210978,205.913755 223.227821,205.604246 L226.650838,205.604246 C226.659858,205.559218 226.659858,205.512849 226.650838,205.467821 L226.650838,205.256983 C226.723171,204.525539 226.524586,203.792981 226.092737,203.198212 L226.092737,203.198212 Z M223.240223,204.698883 C223.232531,204.405676 223.339287,204.120991 223.537877,203.90514 C223.725809,203.720592 223.981618,203.621859 224.244804,203.632291 C224.517174,203.609753 224.785418,203.709776 224.976536,203.90514 C225.16143,204.128271 225.262354,204.409102 225.26179,204.698883 L223.240223,204.698883 Z M230.334302,206.174749 C230.275058,206.377323 230.136382,206.547314 229.949832,206.646034 C229.757716,206.725851 229.549649,206.759821 229.342123,206.745251 C229.049619,206.763143 228.765434,206.643969 228.573184,206.422793 C228.311433,206.064898 228.188079,205.624351 228.225922,205.18257 C228.173072,204.739503 228.29794,204.293547 228.573184,203.942346 C228.759422,203.755186 229.016424,203.655992 229.280112,203.669497 C229.551762,203.652001 229.817968,203.751264 230.011844,203.942346 C230.090883,204.032336 230.157612,204.13243 230.210279,204.24 L231.586927,204.24 C231.501567,203.8688 231.327034,203.523993 231.078436,203.235419 C230.595256,202.749022 229.927523,202.491855 229.242905,202.528492 C228.577367,202.490059 227.930104,202.754434 227.481788,203.247821 C227.04754,203.786093 226.83072,204.467528 226.874078,205.157765 C226.825615,205.890706 227.051019,206.615534 227.506592,207.191732 C227.952565,207.689704 228.600161,207.958775 229.267709,207.923464 C229.815599,207.948757 230.356422,207.791744 230.805587,207.476983 C231.217433,207.171893 231.511025,206.733695 231.636536,206.23676 L230.334302,206.174749 Z M233.472067,202.454078 L233.472067,201.561117 C233.478451,201.382484 233.405868,201.210099 233.273631,201.089832 C233.160055,200.962847 232.997516,200.890607 232.827151,200.89139 L232.107821,200.89139 L232.107821,206.844469 C232.107821,207.452179 232.368268,207.774637 232.87676,207.811844 L233.472067,207.811844 L233.472067,203.79352 L234.278212,203.79352 L234.278212,202.416872 L233.472067,202.454078 Z M237.105922,202.454078 C236.758011,202.449695 236.411295,202.495646 236.076536,202.590503 C235.755667,202.671418 235.455566,202.819355 235.195978,203.024581 C234.923707,203.245992 234.710636,203.531508 234.575866,203.855531 C234.422752,204.250838 234.346967,204.671868 234.352626,205.095754 L234.352626,207.787039 L235.729274,207.787039 L235.729274,204.934525 C235.706933,204.621021 235.804454,204.310727 236.002123,204.066369 C236.239483,203.864773 236.547633,203.766522 236.857877,203.79352 L237.304358,203.79352 L237.304358,202.392067 L237.105922,202.454078 Z M241.583128,202.454078 C241.403226,202.447234 241.228391,202.514479 241.099441,202.640112 C240.977348,202.771301 240.910692,202.944607 240.913408,203.123799 L240.913408,205.877095 C240.940752,206.141782 240.833646,206.402561 240.628156,206.57162 C240.261146,206.848611 239.754943,206.848611 239.387933,206.57162 C239.195522,206.394044 239.094994,206.138154 239.115084,205.877095 L239.115084,202.478883 L237.750838,202.478883 L237.750838,205.604246 C237.656058,206.283426 237.918671,206.963406 238.445363,207.40257 C238.913812,207.688553 239.447285,207.850729 239.995642,207.873905 C240.558451,207.877051 241.111516,207.726995 241.595531,207.439777 C242.148393,207.001513 242.426989,206.302663 242.327263,205.604246 L242.327263,202.478883 L241.583128,202.454078 Z" id="Shape" fill="#273033"></path>
                <polygon id="Path" fill="#171B1C" points="249.69419 175.938101 249.69419 178.778212 197.604804 178.778212 197.604804 178.294525 197.604804 176.161341 197.604804 175.938101"></polygon>
                <path d="M267.478994,178.294525 L267.478994,178.778212 L249.706592,178.778212 L249.706592,175.938101 L267.45419,175.938101 L267.45419,176.111732 C267.466592,176.868268 267.466592,177.575196 267.478994,178.294525 Z" id="Path" fill="#4176E1"></path>
                <rect id="Rectangle" fill="#1D2326" x="0" y="220.139665" width="465.083799" height="1.24022346"></rect>
            </g>
        </g>
    </g>
</svg>