<svg xmlns="http://www.w3.org/2000/svg" width="360" height="190.5" viewBox="0 0 360 190.5">
  <defs>
    <style>
      .a {
        fill: #f1f2f6;
      }

      .b {
        fill: #fff;
      }

      .c {
        fill: #616e80;
      }

      .d {
        fill: #0a2e40;
      }

      .e {
        fill: #15b1a3;
      }

      .f {
        fill: #67d8c5;
      }

      .g {
        fill: #d8dde6;
      }

      .h {
        fill: #fcb568;
      }

      .i {
        fill: #4176e1;
      }
    </style>
  </defs>
  <title>my-spec-load copy</title>
  <path class="a" d="M355.84,165.2228a32.1542,32.1542,0,0,1-11.1474,17.2237c-5.7239,4.3688-12.5736,6.7694-18.9731,8.0535H32.0226c-9.0267-4.7874-16.0078-10.4682-20.6432-17.0421-17.4468-24.7433-4.9071-56.527,18.11-72.2966q1.3485-.9239,2.7371-1.7875C45.9357,90.8451,61.7414,86.44,77.3034,82.1387c32.275-8.92,64.7275-16.3843,96.0606-28.3021,14.7178-5.5981,29.3171-11.5212,44.211-16.6449,28.6-9.8389,59.33-16.4824,88.9511-6.8777,10.5271,3.4135,20.2335,8.8652,24.4017,19.7187,2.9053,7.5653,2.5211,16.0331.8183,23.9562-1.9212,8.9391-5.4744,17.7079-5.13,26.8446C327.5856,126.5179,362.9368,137.2418,355.84,165.2228Z"/>
  <g>
    <path class="b" d="M214.2461,45.4V178.2118a7.5086,7.5086,0,0,1-7.5037,7.4986H153.2576a7.5042,7.5042,0,0,1-7.4986-7.4986V45.4a7.5086,7.5086,0,0,1,7.4986-7.5037h53.4848A7.5129,7.5129,0,0,1,214.2461,45.4Z"/>
    <g>
      <path class="c" d="M206.7424,33.6114H153.2576A11.7886,11.7886,0,0,0,141.469,45.4V178.2118A11.7886,11.7886,0,0,0,153.2576,190h53.4848a11.7886,11.7886,0,0,0,11.7886-11.7886V45.4A11.7886,11.7886,0,0,0,206.7424,33.6114Zm7.5037,144.6a7.4986,7.4986,0,0,1-7.4986,7.4986h-53.49a7.4986,7.4986,0,0,1-7.4986-7.4986V45.3949a7.4986,7.4986,0,0,1,7.4986-7.4986h53.4848A7.5037,7.5037,0,0,1,214.2461,45.4Z"/>
      <path class="d" d="M206.7422,190.5H153.2578a12.3025,12.3025,0,0,1-12.289-12.2881V45.4a12.3027,12.3027,0,0,1,12.289-12.2891h53.4844A12.3027,12.3027,0,0,1,219.0312,45.4V178.2119A12.3025,12.3025,0,0,1,206.7422,190.5ZM153.2578,34.1113A11.3021,11.3021,0,0,0,141.9688,45.4V178.2119A11.3012,11.3012,0,0,0,153.2578,189.5h53.4844a11.3012,11.3012,0,0,0,11.289-11.2881V45.4a11.3021,11.3021,0,0,0-11.289-11.2891ZM206.7471,186.21H153.2578a8.0073,8.0073,0,0,1-7.999-7.9981V45.3945a8.0073,8.0073,0,0,1,7.999-7.998h53.4844A8.0133,8.0133,0,0,1,214.7461,45.4V178.2119A8.0073,8.0073,0,0,1,206.7471,186.21ZM153.2578,38.3965a7.0065,7.0065,0,0,0-6.999,6.998V178.2119a7.0066,7.0066,0,0,0,6.999,6.9981h53.4893a7.0067,7.0067,0,0,0,6.999-6.9981V45.4a7.0114,7.0114,0,0,0-7.0039-7.0039Z"/>
    </g>
  </g>
  <g>
    <g>
      <path class="e" d="M270.5835,93.1908c2.0865-1.5523,2.2118-10.9287-1.772-16.2837s-11.86-7.9276-13.9461-6.3753Z"/>
      <path class="e" d="M299.2294,97.6271s-9.8161,9.7453-7.6005,30.0552c.272,2.4935-5.7237-4.6159-5.7237-4.6159s4.3356-17.47,13.3242-27.0332C299.6387,95.5977,299.2294,97.6271,299.2294,97.6271Z"/>
      <path class="f" d="M263.8963,39.6554c-.4362-.8956-2.1066-.9009-1.6814,0,13.6827,28.9931,28.1215,60.3316,20.1822,87.473-.2728.9327,5.2725,1.32,5.53.383C295.137,101.2794,277.9286,68.4639,263.8963,39.6554Z"/>
      <path class="f" d="M297.3451,51.4057s-11.5757,17.0176-14.7634,31.7606c-.53,2.4516-2.5849-7.2008-2.5849-7.2008s9.7857-17.54,17.3483-26.1536C297.74,49.3627,297.3451,51.4057,297.3451,51.4057Z"/>
      <path class="e" d="M266.5349,108.7437a52.4964,52.4964,0,0,1,14.6724,16.7754c.9684,1.7406,3.4054-4.299,3.4054-4.299s.4143-2.4465-18.4635-13.6819C265.7413,107.2955,266.5349,108.7437,266.5349,108.7437Z"/>
      <path class="f" d="M262.0377,82.4856s17.9307,23.1105,18.7276,43.83c.0433,1.126,2.1276.9076,3.344-.4819a12.8393,12.8393,0,0,0,2.1652-4.7987s-5.9076-19.4237-24.2368-40.1437C261.6417,80.4441,262.0377,82.4856,262.0377,82.4856Z"/>
      <path class="e" d="M256.4185,17.5968s26.9283,6.1156,27.9723,27.7877c.55,11.4121-10.5712,16.2689-10.5712,16.2689Z"/>
      <path class="f" d="M239.34,7.7188c-.4637-.6182,5.1279.0028,12.1823,2.7721.7564.2969,3.2456,7.0712,4.03,7.4186s-.1363-5.7321.6647-5.3319c6.546,3.27,13.4592,8.34,17.65,15.82.5847,1.0436-2.3054,3.8581-1.8464,4.9852.1018.25,5.172.4317,5.267.6856a27.8344,27.8344,0,0,1,1.2447,4.3913c2.5317,12.8768-8.58,18.5519-8.58,18.5519S248.0435,19.3239,239.34,7.7188Z"/>
      <path class="f" d="M266.7873,90.5653c2.45-2.3391,2.1937-11.8383-3.8094-18.1249s-15.4806-6.98-17.93-4.6409Z"/>
      <g>
        <path class="e" d="M318.619,37.0611c-1.3316-2.2337-8.87-3.98-14.6025-.5623s-7.8735,10.393-6.5418,12.6268Z"/>
        <path class="f" d="M318.4953,36.9924c-.6029-.7461-13.75,1.9378-20.6355,7.2434s-6.3663,9.2873-4.299,11.97Z"/>
      </g>
      <g>
        <path class="f" d="M322.69,79.0252c-1.1116-2.5005-8.5411-4.3458-14.9975-1.5826-8.23,3.5222-12.0051,15.7785-10.8935,18.2789Z"/>
        <path class="e" d="M322.8323,79.1043c-.44-.481-3.4689-.8917-7.48-.1332-.735.1389-2.2526,3.6017-3.0438,3.826-.7409.21-.7526-2.8243-1.526-2.528a26.2289,26.2289,0,0,0-7.89,4.7436c-8.5915,7.5035-6.39,14.949-5.539,16.0633Z"/>
      </g>
      <path class="e" d="M266.5349,108.7437a24.5974,24.5974,0,0,1-12.5716-2.1287c-5.3545-2.5849-7.9394-8.4932-7.9394-8.4932a8.5451,8.5451,0,0,1,5.8863-2.5973c.5971-.0345,1.18,2.7012,1.8684,2.7819.4156.0488.8438-2.3157,1.2925-2.2156a15.8609,15.8609,0,0,1,4.2466,1.2925C268.18,101.9991,266.5349,108.7437,266.5349,108.7437Z"/>
    </g>
    <path class="g" d="M251.2986,160.6389v.1917a34.63,34.63,0,0,0,.4719,5.6985q.0443.2433.0884.4865a32.97,32.97,0,0,0,.8921,3.7228A34.5131,34.5131,0,0,0,266.6175,189.5h38.3561A34.4776,34.4776,0,0,0,318.84,170.7384a32.9909,32.9909,0,0,0,.892-3.7228l.0886-.4865a33.8514,33.8514,0,0,0,.4717-5.6985v-.1917a26.9641,26.9641,0,0,0-.5751-5.411,27.4165,27.4165,0,0,0-1.2827-4.32c-.2064-.5382-.4274-1.0616-.6634-1.585a30.1591,30.1591,0,0,0-6.679-9.3476c-10.6081-10.0553-12.7313-13.8887-13.1294-16.631H273.6355c-.3981,2.7423-2.5285,6.5757-13.1292,16.631a30.2023,30.2023,0,0,0-6.6938,9.3476c-.2359.5234-.4571,1.0468-.6636,1.585a29.0525,29.0525,0,0,0-1.2679,4.32A26.9684,26.9684,0,0,0,251.2986,160.6389Z"/>
    <path class="b" d="M251.2986,160.6389v.1917a34.63,34.63,0,0,0,.4719,5.6985q.0443.2433.0884.4865h67.8733l.0886-.4865a33.8514,33.8514,0,0,0,.4717-5.6985v-.1917a26.9641,26.9641,0,0,0-.5751-5.411,27.4165,27.4165,0,0,0-1.2827-4.32c-.2064-.5382-.4274-1.0616-.6634-1.585H253.8125c-.2359.5234-.4571,1.0468-.6636,1.585a29.0525,29.0525,0,0,0-1.2679,4.32A26.9684,26.9684,0,0,0,251.2986,160.6389Z"/>
  </g>
  <g>
    <polygon class="b" points="105.908 84.24 99.529 189.5 40.071 189.5 33.691 84.24 105.908 84.24"/>
    <path class="c" d="M109.0386,85.5137H30.6855l.0222-4.5016h3.4067l3.0969-10.9278H85.922a4.0482,4.0482,0,0,0,8.0963,0h8.4946L105.61,81.0121h3.4068Z"/>
    <path class="h" d="M34.8809,153.7667l-3.4276-52.891a.8842.8842,0,0,1,.8824-.9414h74.9281a.8842.8842,0,0,1,.8824.9414l-3.4276,52.891a.8843.8843,0,0,1-.8824.827H35.7633A.8843.8843,0,0,1,34.8809,153.7667Z"/>
  </g>
  <rect class="i" x="157.1692" y="148.7619" width="45.6616" height="14" rx="1"/>
  <g>
    <g>
      <rect class="d" x="152.9697" y="58.3145" width="18.5283" height="1"/>
      <rect class="d" x="176.3945" y="58.3145" width="30.6357" height="1"/>
    </g>
    <g>
      <rect class="d" x="157.0254" y="67.8896" width="28.3213" height="1"/>
      <rect class="d" x="192.4199" y="67.8896" width="10.5547" height="1"/>
    </g>
  </g>
  <rect class="d" x="0.0002" y="189.5" width="360" height="1"/>
  <g>
    <rect class="g" x="170.547" y="84.6008" width="36.4829" height="8.1667" transform="translate(377.5769 177.3682) rotate(180)"/>
    <g>
      <path class="i" d="M158.1517,84.2427a4.4414,4.4414,0,1,1-4.4414,4.4414,4.4414,4.4414,0,0,1,4.4414-4.4414m0-.74a5.1816,5.1816,0,1,0,5.1816,5.1816A5.1816,5.1816,0,0,0,158.1517,83.5025Z"/>
      <path class="i" d="M157.0469,90.9048l-1.7336-1.7332.5208-.5208,1.2128,1.2125,3.4225-3.4221.5207.5208Z"/>
    </g>
  </g>
  <g>
    <rect class="g" x="170.547" y="104.7737" width="36.4829" height="8.1667" transform="translate(377.5769 217.714) rotate(180)"/>
    <g>
      <path class="i" d="M158.1517,104.4156a4.4414,4.4414,0,1,1-4.4414,4.4414,4.4414,4.4414,0,0,1,4.4414-4.4414m0-.74a5.1816,5.1816,0,1,0,5.1816,5.1816A5.1816,5.1816,0,0,0,158.1517,103.6754Z"/>
      <path class="i" d="M157.0469,111.0777l-1.7336-1.7333.5208-.5207,1.2128,1.2125,3.4225-3.4221.5207.5208Z"/>
    </g>
  </g>
  <g>
    <rect class="g" x="170.547" y="124.9465" width="36.4829" height="8.1667" transform="translate(377.5769 258.0598) rotate(180)"/>
    <g>
      <path class="i" d="M158.1517,124.5885A4.4414,4.4414,0,1,1,153.71,129.03a4.4414,4.4414,0,0,1,4.4414-4.4414m0-.74a5.1816,5.1816,0,1,0,5.1816,5.1816A5.1816,5.1816,0,0,0,158.1517,123.8483Z"/>
      <path class="i" d="M160.4694,126.787l.5207.5207-3.9432,3.9429-1.7336-1.7333.5208-.5207,1.2128,1.2125"/>
    </g>
  </g>
</svg>
