<?xml version="1.0" encoding="UTF-8"?>
<svg width="374px" height="175px" viewBox="0 0 374 175" version="1.1" xmlns="http://www.w3.org/2000/svg" xmlns:xlink="http://www.w3.org/1999/xlink">
    <!-- Generator: Sketch 55.2 (78181) - https://sketchapp.com -->
    <title>Activation-Complete</title>
    <desc>Created with Sketch.</desc>
    <g id="x_Exploration" stroke="none" stroke-width="1" fill="none" fill-rule="evenodd">
        <g id="Install_Equipment-Copy-18" transform="translate(-1.000000, -189.000000)">
            <g id="Activation-Complete" transform="translate(1.000000, 189.000000)">
                <path d="M372.74,147.87 C370.90129,155.028744 366.77991,161.393362 361,166 C355,170.6 347.75,173.13 341,174.48 L31.63,174.48 C22.12,169.48 14.76,163.48 9.88,156.53 C-8.5,130.48 4.71,97 29,80.39 C29.95,79.74 30.91,79.11 31.88,78.51 C46.32,69.51 62.97,64.88 79.37,60.35 C113.37,50.95 147.55,43.09 180.56,30.54 C196,24.64 211.4,18.4 227.09,13 C257.22,2.64 289.59,-4.36 320.79,5.76 C331.88,9.35 342.11,15.1 346.5,26.53 C349.56,34.53 349.16,43.42 347.36,51.77 C345.36,61.18 341.59,70.42 341.96,80.04 C343,107.1 380.22,118.4 372.74,147.87 Z" id="Path" fill="#F1F2F6" fill-rule="nonzero"></path>
                <path d="M33.08,172.11 L32.67,172.94 L32.41,173.46 L31.54,173.46 L31.54,174.46 L18.85,174.46 L18.85,173.46 L18,173.46 L17.77,172.8 L17.47,171.94 L17.28,171.39 C19.4855848,171.90351 21.745701,172.145305 24.01,172.11 L33.08,172.11 Z" id="Path" fill="#171B1C" fill-rule="nonzero"></path>
                <path d="M63.17,171.39 L62.69,172.8 L62.46,173.47 L61.59,173.47 L61.59,174.47 L48.9,174.47 L48.9,173.47 L48,173.47 L47.73,172.94 L47.32,172.12 L56.42,172.12 C58.6912254,172.150179 60.9577412,171.90506 63.17,171.39 L63.17,171.39 Z" id="Path" fill="#171B1C" fill-rule="nonzero"></path>
                <path d="M24,172.11 L33.09,172.11 L32.68,172.94 L20.82,172.94 C19.88,172.94 19.03,172.94 18.25,172.84 L17.75,172.84 L17.45,171.98 L17.26,171.43 C19.4704981,171.93087 21.7340017,172.159235 24,172.11 L24,172.11 Z" id="Path" fill="#171B1C" fill-rule="nonzero"></path>
                <path d="M63.17,171.39 L62.69,172.8 C61.78,172.89 60.77,172.94 59.62,172.94 L47.76,172.94 L47.35,172.12 L56.45,172.12 C58.7112042,172.147759 60.9675015,171.902655 63.17,171.39 L63.17,171.39 Z" id="Path" fill="#171B1C" fill-rule="nonzero"></path>
                <path d="M72.6,3.43 C71.6,13.16 67.42,57.31 68.34,135.75 L68.34,137.86 L68.34,138 C68.34,138.57 68.34,139.14 68.34,139.72 L68.34,140.11 C68.34,140.35 68.34,140.68 68.34,141.11 C68.34,141.7 68.34,142.47 68.4,143.4 C68.6702023,151.231476 69.4922405,159.034155 70.86,166.75 C70.9422082,167.194884 70.8567075,167.65445 70.62,168.04 C69.89,169.17 68.68,171.3 62.91,171.91 C61.7940289,172.029055 60.6722887,172.08581 59.55,172.080405 L20.82,172.080405 C19.88,172.080405 19.03,172.080405 18.25,171.98 L17.45,171.91 C11.68,171.3 10.45,169.17 9.75,168.04 C9.5047212,167.657796 9.41859036,167.194843 9.51,166.75 C10.882416,159.044189 11.7144442,151.251861 12,143.43 C12,142.5 12,141.73 12.06,141.14 C12.06,140.72 12.06,140.38 12.06,140.14 L12.06,139.75 L12.06,138.03 L12.06,137.85 C12.06,137.15 12.06,136.44 12.06,135.74 C13,57.31 8.87,13.16 7.83,3.43 C7.77625533,2.90377681 7.9478871,2.3794083 8.30237441,1.98680408 C8.65686172,1.59419985 9.16103939,1.37 9.69,1.37 L70.74,1.37 C71.2689606,1.37 71.7731383,1.59419985 72.1276256,1.98680408 C72.4821129,2.3794083 72.6537447,2.90377681 72.6,3.43 L72.6,3.43 Z" id="Path" fill="#1D2326" fill-rule="nonzero"></path>
                <polygon id="Path" fill="#273033" fill-rule="nonzero" points="55.25 160.09 55.25 163.62 57.57 161.86"></polygon>
                <path d="M31,159.86 C30.8289947,159.65969 30.6082622,159.507936 30.36,159.42 C30.100663,159.32369 29.8266272,159.272943 29.55,159.27 C29.0452451,159.266526 28.5496966,159.405141 28.12,159.67 C27.6501445,160.030823 27.4035259,160.611325 27.47,161.2 L27.47,165.2 L28,165.2 C28.2998938,165.2 28.5445474,164.959844 28.55,164.66 L28.55,163.24 C28.55,163.24 28.55,163.39 28.91,163.52 C29.183236,163.613222 29.4716355,163.653938 29.76,163.64 C30.2526223,163.640209 30.7147977,163.401667 31,163 C31.3373935,162.555906 31.5073615,162.007051 31.48,161.45 C31.5026967,160.881186 31.3336553,160.321236 31,159.86 L31,159.86 Z M30.14,162.34 C29.990465,162.555116 29.7418138,162.679442 29.48,162.67 C29.2123837,162.680764 28.9571353,162.556894 28.8,162.34 C28.6222641,162.101458 28.5369998,161.806586 28.56,161.51 C28.5232936,161.161648 28.600484,160.810783 28.78,160.51 C28.9277796,160.286479 29.1823454,160.157297 29.45,160.17 C29.7233706,160.156144 29.9844336,160.284783 30.14,160.51 C30.326487,160.80842 30.4107336,161.159447 30.38,161.51 C30.4057249,161.802442 30.331709,162.094981 30.17,162.34 L30.14,162.34 Z" id="Shape" fill="#273033" fill-rule="nonzero"></path>
                <path d="M52.2,163.62 L51.09,163.62 L51.09,160.9 C51.1120477,160.686581 51.0256876,160.476313 50.86,160.34 C50.7125737,160.221896 50.5288921,160.158314 50.34,160.16 C50.1541171,160.158128 49.9735277,160.221865 49.83,160.34 C49.6708994,160.480441 49.5890364,160.68882 49.61,160.9 L49.61,163.62 L48.49,163.62 L48.49,161.12 C48.4174582,160.572827 48.6285033,160.026371 49.05,159.67 C49.4251908,159.423263 49.8611942,159.28485 50.31,159.27 C50.5521084,159.271904 50.7933786,159.298712 51.03,159.35 C51.2661589,159.403098 51.485826,159.512932 51.67,159.67 C51.8345117,159.527658 52.0295284,159.425018 52.24,159.37 C52.4620871,159.310726 52.6902508,159.277172 52.92,159.27 C53.4558692,159.233591 53.9899815,159.362756 54.45,159.64 C54.84,159.88 54.88,160.1 54.88,160.1 L54.88,163.62 L54.24,163.62 C54.0942475,163.628858 53.951689,163.574817 53.8484362,163.471564 C53.7451834,163.368311 53.6911416,163.225753 53.7,163.08 L53.7,160.9 C53.7168455,160.687364 53.631437,160.479413 53.47,160.34 C53.3217932,160.223317 53.1386269,160.159914 52.95,160.16 C52.7611079,160.158314 52.5774263,160.221896 52.43,160.34 C52.2643124,160.476313 52.1779523,160.686581 52.2,160.9 L52.2,163.62 L52.2,163.62 Z" id="Path" fill="#273033" fill-rule="nonzero"></path>
                <path d="M27.14,161.1 C27.0415382,160.924565 26.9005503,160.7767 26.73,160.67 L26.61,160.59 C26.4755592,160.523083 26.3348877,160.469494 26.19,160.43 L25.86,160.33 L25.36,160.19 L24.93,160.08 C24.31,159.94 24.04,159.73 24.04,159.45 C24.0299668,159.253405 24.120334,159.06514 24.28,158.95 C24.4823561,158.821376 24.7209216,158.761735 24.96,158.78 C25.2342277,158.766403 25.5061494,158.836126 25.74,158.98 C25.8350563,159.056574 25.9133453,159.151882 25.97,159.26 C26.0263668,159.360605 26.0540386,159.474751 26.05,159.59 L27.13,159.59 C27.1229333,159.189011 26.9821536,158.801867 26.73,158.49 C26.6845921,158.417429 26.6270949,158.353167 26.56,158.3 C26.130428,157.974411 25.5978569,157.81464 25.06,157.85 C24.5003057,157.814985 23.9447576,157.966178 23.48,158.28 C23.1187655,158.583902 22.9192336,159.038391 22.94,159.51 C22.9329958,159.762741 22.9879256,160.013358 23.1,160.24 C23.1961879,160.45081 23.3528069,160.628312 23.55,160.75 C23.887324,160.93161 24.2521763,161.056606 24.63,161.12 L24.7,161.12 L24.8,161.12 C25.75,161.33 26.22,161.59 26.22,161.95 C26.2354557,162.152784 26.1397579,162.348007 25.97,162.46 C25.7426088,162.59112 25.482132,162.653634 25.22,162.64 C24.9101335,162.654313 24.6032356,162.574101 24.34,162.41 C24.1239428,162.25791 23.9908983,162.013995 23.98,161.75 L22.86,161.75 C22.8606989,162.2759 23.0952193,162.774256 23.5,163.11 C23.9665574,163.455076 24.5412027,163.621794 25.12,163.58 C25.690205,163.612029 26.2553409,163.457582 26.73,163.14 L26.73,163.14 C27.117485,162.805869 27.3280387,162.310883 27.3,161.8 C27.3079693,161.556769 27.2528486,161.315616 27.14,161.1 L27.14,161.1 Z M35,159.84 C34.6125942,159.44448 34.0726288,159.23652 33.52,159.27 C32.9865531,159.240629 32.4683804,159.453778 32.11,159.85 C31.7556298,160.305477 31.5780312,160.873792 31.61,161.45 C31.5692502,162.022806 31.752047,162.589117 32.12,163.03 C32.4773448,163.428719 32.9951853,163.645404 33.53,163.62 C33.9729145,163.637485 34.4090885,163.507336 34.77,163.25 C35.1091812,163.010863 35.3478465,162.654646 35.44,162.25 L34.44,162.25 C34.4125178,162.344928 34.3608269,162.431079 34.29,162.5 C34.2381467,162.54929 34.1811537,162.592872 34.12,162.63 C33.937191,162.694226 33.7434262,162.721421 33.55,162.71 C33.3150772,162.731751 33.0841257,162.638626 32.93,162.46 C32.7627816,162.274252 32.6764192,162.029559 32.69,161.78 L35.45,161.78 C35.4572732,161.743694 35.4572732,161.706306 35.45,161.67 L35.45,161.5 C35.5083227,160.910232 35.3482022,160.319565 35,159.84 L35,159.84 Z M32.74,161.05 C32.7337972,160.813585 32.8198759,160.584042 32.98,160.41 C33.1315303,160.261198 33.3377909,160.181589 33.55,160.19 C33.7696134,160.171828 33.9859002,160.252477 34.14,160.41 C34.2890812,160.589912 34.3704565,160.816348 34.3700019,161.05 L32.74,161.05 Z M38.46,162.24 C38.4122317,162.403337 38.3004159,162.540402 38.15,162.62 C37.9950956,162.684357 37.8273297,162.711748 37.66,162.7 C37.4241526,162.714426 37.195012,162.618335 37.04,162.44 C36.8289479,162.151427 36.7294875,161.796211 36.76,161.44 C36.7173871,161.082752 36.8180687,160.723175 37.04,160.44 C37.1901646,160.289092 37.3973872,160.209111 37.61,160.22 C37.8290334,160.205892 38.0436772,160.285929 38.2,160.44 C38.2637297,160.512559 38.317534,160.593265 38.36,160.68 L39.47,160.68 C39.401173,160.380699 39.2604467,160.102679 39.06,159.87 C38.6704092,159.477815 38.132012,159.27046 37.58,159.3 C37.0433725,159.269012 36.52148,159.482179 36.16,159.88 C35.8098635,160.314012 35.63504,160.863457 35.67,161.42 C35.6513777,161.993198 35.8394884,162.55398 36.2,163 C36.559591,163.401518 37.0817513,163.618472 37.62,163.59 C38.061767,163.610394 38.4978358,163.483793 38.86,163.23 C39.1920741,162.984004 39.4287998,162.630682 39.53,162.23 L38.46,162.24 Z M40.99,159.24 L40.99,158.52 C40.9951473,158.375967 40.9366232,158.236972 40.83,158.14 C40.7384229,158.037611 40.6073663,157.979363 40.47,157.979995 L39.89,157.979995 L39.89,162.78 C39.89,163.27 40.1,163.53 40.51,163.56 L40.99,163.56 L40.99,160.32 L41.64,160.32 L41.64,159.21 L40.99,159.24 Z M43.92,159.24 C43.6394774,159.236466 43.3599178,159.273516 43.09,159.35 C42.8312811,159.415242 42.5893081,159.534525 42.38,159.7 C42.1604668,159.878525 41.9886661,160.108738 41.88,160.37 C41.7565433,160.688739 41.695437,161.028218 41.7,161.37 L41.7,163.54 L42.81,163.54 L42.81,161.24 C42.7919866,160.987219 42.8706183,160.737028 43.03,160.54 C43.2213846,160.377452 43.4698479,160.298232 43.72,160.32 L44.08,160.32 L44.08,159.19 L43.92,159.24 Z M47.53,159.24 C47.3849438,159.234482 47.2439729,159.288701 47.14,159.39 C47.0415555,159.495778 46.9878102,159.635516 46.99,159.78 L46.99,162 C47.0120477,162.213419 46.9256876,162.423687 46.76,162.56 C46.4640771,162.78334 46.0559229,162.78334 45.76,162.56 C45.6048582,162.416819 45.5238016,162.210493 45.54,162 L45.54,159.26 L44.42,159.26 L44.42,161.78 C44.3435786,162.327627 44.5553251,162.8759 44.98,163.23 C45.3577133,163.46059 45.787856,163.591353 46.23,163.61004 C46.6837965,163.612577 47.1297361,163.491586 47.52,163.26 C47.9657766,162.906625 48.1904098,162.343138 48.11,161.78 L48.11,159.26 L47.53,159.24 Z" id="Shape" fill="#273033" fill-rule="nonzero"></path>
                <polygon id="Path" fill="#171B1C" fill-rule="nonzero" points="54.05 137.86 54.05 140.15 12 140.15 12 139.76 12 138.04 12 137.86"></polygon>
                <path d="M68.39,139.76 L68.39,140.15 L54.06,140.15 L54.06,137.86 L68.37,137.86 L68.37,138 C68.38,138.61 68.38,139.18 68.39,139.76 Z" id="Path" fill="#4176E1" fill-rule="nonzero"></path>
                <rect id="Rectangle" fill="#1D2326" fill-rule="nonzero" x="317.27" y="31.01" width="29.8" height="138.79"></rect>
                <path d="M311.67,27.4299996 C311.14577,27.4299996 310.643953,27.6425745 310.279926,28.019804 C309.9159,28.3970335 309.720986,28.9061146 309.74,29.4299996 C310.45,48.34 310.74,71.83 310.56,100.96 C310.38,126.72 309.3,150.89 305.56,172.22 C305.459341,172.782453 305.613081,173.360598 305.979824,173.798759 C306.346567,174.236921 306.888611,174.49 307.46,174.49 L317.23,174.49 L317.23,27.4299996 L311.67,27.4299996 Z" id="Path" fill="#232A2D" fill-rule="nonzero"></path>
                <path d="M352.67,27.4299998 C353.195086,27.4299998 353.697848,27.6423567 354.063444,28.0192594 C354.42904,28.3961621 354.62624,28.9051647 354.61,29.4299998 C353.9,48.34 353.61,71.83 353.78,100.96 C353.96,126.72 355.05,150.89 358.78,172.22 C358.877287,172.783593 358.720931,173.361396 358.35271,173.79902 C357.984488,174.236644 357.441928,174.49 356.87,174.49 L347.1,174.49 L347.1,27.4299998 L352.67,27.4299998 Z" id="Path" fill="#232A2D" fill-rule="nonzero"></path>
                <circle id="Oval" stroke="#64A5FC" stroke-width="0.75" cx="332.17" cy="150.86" r="5.65"></circle>
                <rect id="Rectangle" fill="#171B1C" fill-rule="nonzero" x="317.27" y="31.01" width="1.84" height="138.79"></rect>
                <rect id="Rectangle" fill="#171B1C" fill-rule="nonzero" x="345.23" y="31.01" width="1.84" height="138.79"></rect>
                <rect id="Rectangle" fill="#64A5FC" fill-rule="nonzero" x="317.27" y="41.3" width="1.84" height="5.91"></rect>
                <rect id="Rectangle" fill="#64A5FC" fill-rule="nonzero" x="317.27" y="50.26" width="1.84" height="5.91"></rect>
                <rect id="Rectangle" fill="#64A5FC" fill-rule="nonzero" x="317.27" y="59.22" width="1.84" height="5.91"></rect>
                <rect id="Rectangle" fill="#64A5FC" fill-rule="nonzero" x="317.27" y="68.17" width="1.84" height="5.91"></rect>
                <path d="M372.19,47.32 C373.018427,47.32 373.69,46.6484271 373.69,45.82 C373.69,44.9915729 373.018427,44.32 372.19,44.32 C371.361573,44.32 370.69,44.9915729 370.69,45.82 C370.69,46.6484271 371.361573,47.32 372.19,47.32 L372.19,47.32 Z" id="Path" fill="#FFFFFF" fill-rule="nonzero"></path>
                <path d="M107.31,57.0799892 L268.31,57.0799892 C270.519139,57.0799892 272.31,58.870861 272.31,61.08 L272.31,170.16 L102.67,170.16 L102.67,61.71 C102.67,60.4803131 103.159172,59.3011365 104.029629,58.432555 C104.900087,57.5639735 106.080316,57.0773441 107.31,57.0799892 Z" id="Path" fill="#616E80" fill-rule="nonzero"></path>
                <path d="M291.840001,165.62 L291.840001,168.62 C291.840001,170.453647 290.97739,172.180442 289.51,173.28 L289.51,173.28 C288.501144,174.039351 287.272697,174.45 286.01,174.45 L89,174.45 C87.737303,174.45 86.5088558,174.039351 85.5,173.28 L85.5,173.28 C84.0326096,172.180442 83.1699995,170.453647 83.1699995,168.62 L83.1699995,165.62 L176.22,165.62 C176.217342,166.462468 176.55015,167.271341 177.144929,167.867996 C177.739707,168.464651 178.547528,168.800004 179.39,168.8 L195.63,168.8 C196.473293,168.802686 197.282676,168.468191 197.878037,167.870952 C198.473398,167.273713 198.805342,166.46328 198.8,165.62 L291.840001,165.62 Z" id="Path" fill="#9BA9BD" fill-rule="nonzero"></path>
                <rect id="Rectangle" fill="#FFFFFF" fill-rule="nonzero" transform="translate(187.500000, 111.765000) rotate(90.000000) translate(-187.500000, -111.765000) " x="138.395" y="31.855" width="98.21" height="159.82"></rect>
                <rect id="Rectangle" fill="#CBD2DE" fill-rule="nonzero" x="107.59" y="62.66" width="159.82" height="5.31"></rect>
                <circle id="Oval" fill="#F4605A" fill-rule="nonzero" cx="111.28" cy="65.31" r="1"></circle>
                <circle id="Oval" fill="#FCB568" fill-rule="nonzero" cx="114.45" cy="65.31" r="1"></circle>
                <circle id="Oval" fill="#15B1A3" fill-rule="nonzero" cx="117.63" cy="65.31" r="1"></circle>
                <circle id="Oval" fill="#64A5FC" fill-rule="nonzero" cx="187.5" cy="110.41" r="29.92"></circle>
                <polygon id="Path" fill="#FFFFFF" fill-rule="nonzero" points="182.02 122.95 171.6 112.53 174.18 109.95 182.02 117.79 200.81 99 203.4 101.58"></polygon>
                <path d="M122.48,103 C129.62,100.35 135.48,104.53 136.7,108.33 C138.43,113.54 132.13,115.18 130.87,110.33 C129.87,106.48 132.7,102.47 138.5,103.21 C146.66,104.21 149.15,111.64 149.6,114.41" id="Path" stroke="#F2A046" stroke-linecap="round"></path>
                <circle id="Oval" fill="#64A5FC" fill-rule="nonzero" cx="147.16" cy="121.29" r="1.67"></circle>
                <circle id="Oval" fill="#FD8A7A" fill-rule="nonzero" cx="145.01" cy="91.87" r="1.13"></circle>
                <circle id="Oval" fill="#F2A046" fill-rule="nonzero" cx="137.72" cy="130.58" r="1.29"></circle>
                <path d="M115.82,127.03 L137.33,122.63" id="Path" stroke="#15B1A3" stroke-linecap="round"></path>
                <path d="M114.05,114.79 L125.3,115.85" id="Path" stroke="#67D8C5" stroke-linecap="round"></path>
                <path d="M155.16,129.29 L145.01,134.06" id="Path" stroke="#FD8A7A" stroke-linecap="round"></path>
                <path d="M146.52,86.77 L155.16,93.64" id="Path" stroke="#64A5FC" stroke-linecap="round"></path>
                <path d="M130.1,93.2 L149.97,100.36" id="Path" stroke="#15B1A3" stroke-linecap="round"></path>
                <path d="M252.51,103 C245.38,100.35 239.51,104.53 238.3,108.33 C236.57,113.54 242.86,115.18 244.13,110.33 C245.13,106.48 242.3,102.47 236.5,103.21 C228.34,104.21 225.85,111.64 225.4,114.41" id="Path" stroke="#F2A046" stroke-linecap="round"></path>
                <circle id="Oval" fill="#64A5FC" fill-rule="nonzero" cx="227.84" cy="121.29" r="1.67"></circle>
                <circle id="Oval" fill="#FD8A7A" fill-rule="nonzero" cx="229.99" cy="91.87" r="1.13"></circle>
                <circle id="Oval" fill="#F2A046" fill-rule="nonzero" cx="237.28" cy="130.58" r="1.29"></circle>
                <path d="M259.18,127.03 L237.67,122.63" id="Path" stroke="#15B1A3" stroke-linecap="round"></path>
                <path d="M260.95,114.79 L249.7,115.85" id="Path" stroke="#67D8C5" stroke-linecap="round"></path>
                <path d="M219.84,129.29 L229.99,134.06" id="Path" stroke="#FD8A7A" stroke-linecap="round"></path>
                <path d="M228.48,86.77 L219.84,93.64" id="Path" stroke="#64A5FC" stroke-linecap="round"></path>
                <path d="M244.9,93.2 L225.03,100.36" id="Path" stroke="#15B1A3" stroke-linecap="round"></path>
                <rect id="Rectangle" fill="#1D2326" fill-rule="nonzero" x="0" y="173.5" width="375" height="1"></rect>
            </g>
        </g>
    </g>
</svg>