<?xml version="1.0" encoding="UTF-8"?>
<svg width="54px" height="55px" viewBox="0 0 54 55" version="1.1" xmlns="http://www.w3.org/2000/svg" xmlns:xlink="http://www.w3.org/1999/xlink">
    <!-- Generator: Sketch 55.2 (78181) - https://sketchapp.com -->
    <title>Cable-Power-01</title>
    <desc>Created with Sketch.</desc>
    <g id="x_Exploration" stroke="none" stroke-width="1" fill="none" fill-rule="evenodd">
        <g id="Install_Equipment-Copy-5" transform="translate(-41.000000, -352.000000)" fill-rule="nonzero">
            <g id="Cable-Power-01" transform="translate(41.000000, 352.000000)">
                <path d="M32.43125,54.8562513 C26.2221864,54.8587781 20.6231015,51.120474 18.2452438,45.3847727 C15.8673861,39.6490713 17.1791237,33.0457378 21.568701,28.6543726 C25.9582782,24.2630073 32.561077,22.9485805 38.2977462,25.3241022 C44.0344154,27.6996239 47.775,33.2971859 47.775,39.50625 C47.7681127,47.9785268 40.9035233,54.8459123 32.43125,54.8562513 Z M32.43125,26.0374985 C26.9799846,26.0349722 22.0641975,29.3171237 19.9769207,34.352953 C17.8896438,39.3887823 19.0421104,45.1861353 22.8967376,49.0407624 C26.7513647,52.8953896 32.5487177,54.0478562 37.584547,51.9605793 C42.6203763,49.8733025 45.9025278,44.9575154 45.9000015,39.50625 C45.8896722,32.0719469 39.8655531,26.0478278 32.43125,26.0374985 Z" id="Shape" fill="#232A2D"></path>
                <path d="M32.43125,54.85625 C21.0842866,54.818452 11.8990065,45.6220009 11.875,34.275 L11.875,9.65 L13.75,9.65 L13.75,34.275 C13.9364286,44.4746212 22.2580502,52.6455302 32.459375,52.6455302 C42.6606998,52.6455302 50.9823214,44.4746212 51.16875,34.275 L51.16875,11.25 L53.04375,11.25 L53.04375,34.275 C53.0196362,45.6439062 43.8001797,54.8493853 32.43125,54.85625 L32.43125,54.85625 Z" id="Path" fill="#171B1C"></path>
                <rect id="Rectangle" fill="#232A2D" x="6.31875" y="0" width="12.93125" height="24.54375"></rect>
                <rect id="Rectangle" fill="#171B1C" transform="translate(5.950000, 6.559375) rotate(180.000000) translate(-5.950000, -6.559375) " x="5.58125" y="1.9875" width="1" height="9.14375"></rect>
                <path d="M0.875,4.375 L5.58125,4.375 L5.58125,5.125 L0.875,5.125 C0.808695878,5.125 0.745107399,5.09866079 0.698223305,5.0517767 C0.65133921,5.0048926 0.625,4.94130412 0.625,4.875 L0.625,4.625 C0.625,4.48692881 0.736928813,4.375 0.875,4.375 Z" id="Path" fill="#9BA9BD"></path>
                <path d="M0.875,7.97499685 L5.58125,7.97499685 L5.58125,8.75 L0.875,8.75 C0.736928813,8.75 0.625,8.63807119 0.625,8.5 L0.625,8.25 C0.617911826,8.17948251 0.641087296,8.10927031 0.688761525,8.05682866 C0.736435754,8.00438701 0.804128055,7.97464466 0.875,7.97499685 L0.875,7.97499685 Z" id="Path" fill="#9BA9BD"></path>
                <rect id="Rectangle" fill="#171B1C" transform="translate(12.784375, 25.253125) rotate(180.000000) translate(-12.784375, -25.253125) " x="11.1375" y="24.54375" width="3.29375" height="1.41875"></rect>
                <rect id="Rectangle" fill="#D8DDE6" x="51.2" y="0" width="1.75" height="5.3625"></rect>
                <rect id="Rectangle" fill="#232A2D" transform="translate(52.071875, 7.887500) rotate(180.000000) translate(-52.071875, -7.887500) " x="50.4" y="4.5125" width="3.34375" height="6.75"></rect>
                <rect id="Rectangle" fill="#232A2D" x="51.2" y="0" width="1.75" height="1"></rect>
            </g>
        </g>
    </g>
</svg>