<?xml version="1.0" encoding="UTF-8"?>
<svg width="44px" height="53px" viewBox="0 0 44 53" version="1.1" xmlns="http://www.w3.org/2000/svg" xmlns:xlink="http://www.w3.org/1999/xlink">
    <!-- Generator: Sketch 55.2 (78181) - https://sketchapp.com -->
    <title>Cable-Ethernet</title>
    <desc>Created with Sketch.</desc>
    <g id="x_Exploration" stroke="none" stroke-width="1" fill="none" fill-rule="evenodd">
        <g id="Install_Equipment-Copy-17" transform="translate(-50.000000, -237.000000)" fill-rule="nonzero">
            <g id="Cable-Ethernet" transform="translate(50.000000, 237.000000)">
                <rect id="Rectangle" fill="#D8DDE6" x="0" y="0.710681818" width="1.14431818" height="4.61340909"></rect>
                <rect id="Rectangle" fill="#FFFFFF" transform="translate(1.439432, 3.827443) rotate(180.000000) translate(-1.439432, -3.827443) " x="1.14431818" y="2.33079545" width="1" height="2.99329545"></rect>
                <rect id="Rectangle" fill="#D8DDE6" transform="translate(2.035682, 3.827443) rotate(180.000000) translate(-2.035682, -3.827443) " x="1.74056818" y="2.33079545" width="1" height="2.99329545"></rect>
                <rect id="Rectangle" fill="#FFFFFF" transform="translate(2.625909, 3.827443) rotate(180.000000) translate(-2.625909, -3.827443) " x="2.33079545" y="2.33079545" width="1" height="2.99329545"></rect>
                <rect id="Rectangle" fill="#D8DDE6" transform="translate(3.216136, 3.827443) rotate(180.000000) translate(-3.216136, -3.827443) " x="2.92102273" y="2.33079545" width="1" height="2.99329545"></rect>
                <rect id="Rectangle" fill="#FFFFFF" transform="translate(3.806364, 3.827443) rotate(180.000000) translate(-3.806364, -3.827443) " x="3.51125" y="2.33079545" width="1" height="2.99329545"></rect>
                <path d="M1.14431818,-2.55559892e-05 L4.10147727,-2.55559892e-05 L4.10147727,-2.55559892e-05 C4.10147727,0.189507141 4.0257827,0.371190593 3.89119856,0.504643776 C3.75661442,0.638096959 3.57429862,0.712262472 3.38477273,0.710656262 L1.855,0.710656262 C1.46250127,0.710656262 1.14431818,0.392473174 1.14431818,-2.55559892e-05 L1.14431818,-2.55559892e-05 Z" id="Path" fill="#D8DDE6" transform="translate(2.622898, 0.355328) rotate(180.000000) translate(-2.622898, -0.355328) "></path>
                <rect id="Rectangle" fill="#D8DDE6" x="4.10147727" y="0.710681818" width="1.14431818" height="4.61340909"></rect>
                <rect id="Rectangle" fill="#D8DDE6" x="1.14431818" y="2.16818182" width="2.95715909" height="1"></rect>
                <polygon id="Rectangle" fill="#FFFFFF" transform="translate(1.258750, 1.442443) rotate(-90.000000) translate(-1.258750, -1.442443) " points="0.533011364 1.32801136 1.98448864 1.32801136 1.98448864 1.556875 0.533011364 1.556875"></polygon>
                <polygon id="Rectangle" fill="#FEB533" transform="translate(1.487614, 1.442443) rotate(-90.000000) translate(-1.487614, -1.442443) " points="0.761875 1.32801136 2.21335227 1.32801136 2.21335227 1.556875 0.761875 1.556875"></polygon>
                <polygon id="Rectangle" fill="#FFFFFF" transform="translate(1.710455, 1.436420) rotate(-90.000000) translate(-1.710455, -1.436420) " points="0.984715909 1.32198864 2.43619318 1.32198864 2.43619318 1.55085227 0.984715909 1.55085227"></polygon>
                <polygon id="Rectangle" fill="#FEB533" transform="translate(1.939318, 1.442443) rotate(-90.000000) translate(-1.939318, -1.442443) " points="1.21357955 1.32801136 2.66505682 1.32801136 2.66505682 1.556875 1.21357955 1.556875"></polygon>
                <polygon id="Rectangle" fill="#FFFFFF" transform="translate(2.168182, 1.442443) rotate(-90.000000) translate(-2.168182, -1.442443) " points="1.44244318 1.32801136 2.89392045 1.32801136 2.89392045 1.556875 1.44244318 1.556875"></polygon>
                <polygon id="Rectangle" fill="#FEB533" transform="translate(2.397045, 1.442443) rotate(-90.000000) translate(-2.397045, -1.442443) " points="1.67130682 1.32801136 3.12278409 1.32801136 3.12278409 1.556875 1.67130682 1.556875"></polygon>
                <polygon id="Rectangle" fill="#FFFFFF" transform="translate(2.619886, 1.436420) rotate(-90.000000) translate(-2.619886, -1.436420) " points="1.89414773 1.32198864 3.345625 1.32198864 3.345625 1.55085227 1.89414773 1.55085227"></polygon>
                <polygon id="Rectangle" fill="#FEB533" transform="translate(2.848750, 1.442443) rotate(-90.000000) translate(-2.848750, -1.442443) " points="2.12301136 1.32801136 3.57448864 1.32801136 3.57448864 1.556875 2.12301136 1.556875"></polygon>
                <polygon id="Rectangle" fill="#FFFFFF" transform="translate(3.077614, 1.442443) rotate(-90.000000) translate(-3.077614, -1.442443) " points="2.351875 1.32801136 3.80335227 1.32801136 3.80335227 1.556875 2.351875 1.556875"></polygon>
                <polygon id="Rectangle" fill="#FEB533" transform="translate(3.306477, 1.436420) rotate(-90.000000) translate(-3.306477, -1.436420) " points="2.58073864 1.32198864 4.03221591 1.32198864 4.03221591 1.55085227 2.58073864 1.55085227"></polygon>
                <polygon id="Rectangle" fill="#FFFFFF" transform="translate(3.529318, 1.436420) rotate(-90.000000) translate(-3.529318, -1.436420) " points="2.80357955 1.32198864 4.25505682 1.32198864 4.25505682 1.55085227 2.80357955 1.55085227"></polygon>
                <polygon id="Rectangle" fill="#FEB533" transform="translate(3.758182, 1.442443) rotate(-90.000000) translate(-3.758182, -1.442443) " points="3.03244318 1.32801136 4.48392045 1.32801136 4.48392045 1.556875 3.03244318 1.556875"></polygon>
                <polygon id="Rectangle" fill="#FFFFFF" transform="translate(3.987045, 1.442443) rotate(-90.000000) translate(-3.987045, -1.442443) " points="3.26130682 1.32801136 4.71278409 1.32801136 4.71278409 1.556875 3.26130682 1.556875"></polygon>
                <path d="M5.24579545,5.32409091 L5.24579545,10.07 L5.04704545,10.7385227 L4.84829545,11.4010227 L4.65556818,12.0454545 L4.45681818,12.7079545 L4.25806818,13.3764773 L0.987727273,13.3764773 L0.788977273,12.7079545 L0.602272727,12.0454545 L0.3975,11.4010227 L0.19875,10.7385227 L0,10.07 L0,5.32409091 L1.38522727,5.32409091 L1.38522727,3.61363636 C1.38522727,3.4340183 1.53083648,3.28840909 1.71045455,3.28840909 L3.51727273,3.28840909 C3.69689079,3.28840909 3.8425,3.4340183 3.8425,3.61363636 L3.8425,5.3 L5.24579545,5.32409091 Z" id="Path" fill="#FFD400"></path>
                <polygon id="Path" fill="#E0B500" points="5.24579545 10.07 5.04704545 10.7325 0.19875 10.7325 0 10.07"></polygon>
                <polygon id="Path" fill="#E0B500" points="4.84829545 11.4010227 4.65556818 12.0695455 0.590227273 12.0695455 0.3975 11.4010227"></polygon>
                <polygon id="Path" fill="#E0B500" points="4.45681818 12.7320455 4.25806818 13.4005682 0.987727273 13.4005682 0.788977273 12.7320455"></polygon>
                <rect id="Rectangle" fill="#E0B500" x="0.782954545" y="7.42" width="3.67988636" height="1.75863636"></rect>
                <rect id="Rectangle" fill="#D8DDE6" x="37.8588636" y="0.710681818" width="1.14431818" height="4.61340909"></rect>
                <rect id="Rectangle" fill="#FFFFFF" transform="translate(39.304318, 3.827443) rotate(180.000000) translate(-39.304318, -3.827443) " x="39.0092045" y="2.33079545" width="1" height="2.99329545"></rect>
                <rect id="Rectangle" fill="#D8DDE6" transform="translate(39.888523, 3.827443) rotate(180.000000) translate(-39.888523, -3.827443) " x="39.5934091" y="2.33079545" width="1" height="2.99329545"></rect>
                <rect id="Rectangle" fill="#FFFFFF" transform="translate(40.484773, 3.827443) rotate(180.000000) translate(-40.484773, -3.827443) " x="40.1896591" y="2.33079545" width="1" height="2.99329545"></rect>
                <rect id="Rectangle" fill="#D8DDE6" transform="translate(41.081023, 3.827443) rotate(180.000000) translate(-41.081023, -3.827443) " x="40.7859091" y="2.33079545" width="1" height="2.99329545"></rect>
                <rect id="Rectangle" fill="#FFFFFF" transform="translate(41.659205, 3.827443) rotate(180.000000) translate(-41.659205, -3.827443) " x="41.3640909" y="2.33079545" width="1" height="2.99329545"></rect>
                <path d="M39.0031818,-2.55559892e-05 L41.9603409,-2.55559892e-05 L41.9603409,-2.55559892e-05 C41.9603409,0.392473174 41.6421578,0.710656262 41.2496591,0.710656262 L39.7198864,0.710656262 C39.5303605,0.712262472 39.3480447,0.638096959 39.2134605,0.504643776 C39.0788764,0.371190593 39.0031818,0.189507141 39.0031818,-2.55559892e-05 L39.0031818,-2.55559892e-05 Z" id="Path" fill="#D8DDE6" transform="translate(40.481761, 0.355328) rotate(180.000000) translate(-40.481761, -0.355328) "></path>
                <rect id="Rectangle" fill="#D8DDE6" x="41.9603409" y="0.710681818" width="1.14431818" height="4.61340909"></rect>
                <rect id="Rectangle" fill="#D8DDE6" x="39.0031818" y="2.16818182" width="2.95715909" height="1"></rect>
                <polygon id="Rectangle" fill="#FFFFFF" transform="translate(39.117614, 1.442443) rotate(-90.000000) translate(-39.117614, -1.442443) " points="38.391875 1.32801136 39.8433523 1.32801136 39.8433523 1.556875 38.391875 1.556875"></polygon>
                <polygon id="Rectangle" fill="#FEB533" transform="translate(39.346477, 1.442443) rotate(-90.000000) translate(-39.346477, -1.442443) " points="38.6207386 1.32801136 40.0722159 1.32801136 40.0722159 1.556875 38.6207386 1.556875"></polygon>
                <polygon id="Rectangle" fill="#FFFFFF" transform="translate(39.575341, 1.442443) rotate(-90.000000) translate(-39.575341, -1.442443) " points="38.8496023 1.32801136 40.3010795 1.32801136 40.3010795 1.556875 38.8496023 1.556875"></polygon>
                <polygon id="Rectangle" fill="#FEB533" transform="translate(39.798182, 1.436420) rotate(-90.000000) translate(-39.798182, -1.436420) " points="39.0724432 1.32198864 40.5239205 1.32198864 40.5239205 1.55085227 39.0724432 1.55085227"></polygon>
                <polygon id="Rectangle" fill="#FFFFFF" transform="translate(40.027045, 1.442443) rotate(-90.000000) translate(-40.027045, -1.442443) " points="39.3013068 1.32801136 40.7527841 1.32801136 40.7527841 1.556875 39.3013068 1.556875"></polygon>
                <polygon id="Rectangle" fill="#FEB533" transform="translate(40.255909, 1.442443) rotate(-90.000000) translate(-40.255909, -1.442443) " points="39.5301705 1.32801136 40.9816477 1.32801136 40.9816477 1.556875 39.5301705 1.556875"></polygon>
                <polygon id="Rectangle" fill="#FFFFFF" transform="translate(40.484773, 1.436420) rotate(-90.000000) translate(-40.484773, -1.436420) " points="39.7590341 1.32198864 41.2105114 1.32198864 41.2105114 1.55085227 39.7590341 1.55085227"></polygon>
                <polygon id="Rectangle" fill="#FEB533" transform="translate(40.707614, 1.436420) rotate(-90.000000) translate(-40.707614, -1.436420) " points="39.981875 1.32198864 41.4333523 1.32198864 41.4333523 1.55085227 39.981875 1.55085227"></polygon>
                <polygon id="Rectangle" fill="#FFFFFF" transform="translate(40.936477, 1.442443) rotate(-90.000000) translate(-40.936477, -1.442443) " points="40.2107386 1.32801136 41.6622159 1.32801136 41.6622159 1.556875 40.2107386 1.556875"></polygon>
                <polygon id="Rectangle" fill="#FEB533" transform="translate(41.165341, 1.442443) rotate(-90.000000) translate(-41.165341, -1.442443) " points="40.4396023 1.32801136 41.8910795 1.32801136 41.8910795 1.556875 40.4396023 1.556875"></polygon>
                <polygon id="Rectangle" fill="#FFFFFF" transform="translate(41.394205, 1.436420) rotate(-90.000000) translate(-41.394205, -1.436420) " points="40.6684659 1.32198864 42.1199432 1.32198864 42.1199432 1.55085227 40.6684659 1.55085227"></polygon>
                <polygon id="Rectangle" fill="#FEB533" transform="translate(41.617045, 1.436420) rotate(-90.000000) translate(-41.617045, -1.436420) " points="40.8913068 1.32198864 42.3427841 1.32198864 42.3427841 1.55085227 40.8913068 1.55085227"></polygon>
                <polygon id="Rectangle" fill="#FFFFFF" transform="translate(41.845909, 1.442443) rotate(-90.000000) translate(-41.845909, -1.442443) " points="41.1201705 1.32801136 42.5716477 1.32801136 42.5716477 1.556875 41.1201705 1.556875"></polygon>
                <path d="M43.1046591,5.32409091 L43.1046591,10.07 L42.9059091,10.7385227 L42.7131818,11.4010227 L42.5144318,12.0454545 L42.3156818,12.7079545 L42.1169318,13.3764773 L38.8465909,13.3764773 L38.6478409,12.7079545 L38.4490909,12.0454545 L38.2563636,11.3769318 L38.0576136,10.7144318 L37.8588636,10.0459091 L37.8588636,5.32409091 L39.2440909,5.32409091 L39.2440909,3.61363636 C39.2440759,3.52632701 39.2791664,3.4426782 39.3414672,3.38151013 C39.403768,3.32034206 39.4880465,3.28679225 39.5753409,3.28835325 L41.3821591,3.28835325 C41.4684147,3.28835325 41.5511376,3.32267401 41.6121295,3.38366595 C41.6731214,3.4446579 41.7073864,3.52738073 41.7073864,3.61363636 L41.7073864,5.3 L43.1046591,5.32409091 Z" id="Path" fill="#FFD400"></path>
                <polygon id="Path" fill="#E0B500" points="43.1046591 10.07 42.9059091 10.7325 38.0576136 10.7325 37.8588636 10.07"></polygon>
                <polygon id="Path" fill="#E0B500" points="42.7131818 11.4010227 42.5144318 12.0695455 38.4490909 12.0695455 38.2563636 11.4010227"></polygon>
                <polygon id="Path" fill="#E0B500" points="42.3156818 12.7320455 42.1169318 13.4005682 38.8465909 13.4005682 38.6478409 12.7320455"></polygon>
                <rect id="Rectangle" fill="#E0B500" x="38.6418182" y="7.42" width="3.67988636" height="1.75863636"></rect>
                <path d="M21.5553409,52.8614773 C10.6019653,52.8614773 1.7225,43.9820119 1.7225,33.0286364 C1.7225,22.0752608 10.6019653,13.1957955 21.5553409,13.1957955 C32.5087165,13.1957955 41.3881818,22.0752608 41.3881818,33.0286364 C41.3649923,43.9723921 32.4990967,52.8382878 21.5553409,52.8614773 Z M21.5553409,15.0026136 C11.5998435,15.0026136 3.52931818,23.0731389 3.52931818,33.0286364 C3.52931818,42.9841338 11.5998435,51.0546591 21.5553409,51.0546591 C31.5108384,51.0546591 39.5813636,42.9841338 39.5813636,33.0286364 C39.5581835,23.0827562 31.501221,15.0257937 21.5553409,15.0026136 Z" id="Shape" fill="#FFD400"></path>
                <path d="M21.5553409,52.8614773 C10.6092332,52.8415998 1.73967828,43.9747375 1.71647727,33.0286364 L1.71647727,13.4005682 L3.52329545,13.4005682 L3.52329545,33.0286364 C3.70294484,42.8573622 11.721962,50.7311473 21.5523295,50.7311473 C31.3826971,50.7311473 39.4017143,42.8573622 39.5813636,33.0286364 L39.5813636,13.4005682 L41.3881818,13.4005682 L41.3881818,33.0286364 C41.3649923,43.9723921 32.4990967,52.8382878 21.5553409,52.8614773 L21.5553409,52.8614773 Z" id="Path" fill="#E0B500"></path>
            </g>
        </g>
    </g>
</svg>