<?xml version="1.0" encoding="UTF-8"?>
<svg width="44px" height="53px" viewBox="0 0 44 53" version="1.1" xmlns="http://www.w3.org/2000/svg" xmlns:xlink="http://www.w3.org/1999/xlink">
    <!-- Generator: Sketch 55.2 (78181) - https://sketchapp.com -->
    <title>Cable-Coax</title>
    <desc>Created with Sketch.</desc>
    <g id="x_Exploration" stroke="none" stroke-width="1" fill="none" fill-rule="evenodd">
        <g id="Install_Equipment-Copy-5" transform="translate(-50.000000, -237.000000)" fill-rule="nonzero">
            <g id="Cable-Coax" transform="translate(50.000000, 237.000000)">
                <path d="M21.5553409,52.8614773 C10.6019653,52.8614773 1.7225,43.9820119 1.7225,33.0286364 C1.7225,22.0752608 10.6019653,13.1957955 21.5553409,13.1957955 C32.5087165,13.1957955 41.3881818,22.0752608 41.3881818,33.0286364 C41.3649923,43.9723921 32.4990967,52.8382878 21.5553409,52.8614773 Z M21.5553409,15.0026136 C11.5998435,15.0026136 3.52931818,23.0731389 3.52931818,33.0286364 C3.52931818,42.9841338 11.5998435,51.0546591 21.5553409,51.0546591 C31.5108384,51.0546591 39.5813636,42.9841338 39.5813636,33.0286364 C39.5581835,23.0827562 31.501221,15.0257937 21.5553409,15.0026136 Z" id="Shape" fill="#232A2D"></path>
                <path d="M21.5553409,52.8614773 C10.6115851,52.8382878 1.74568951,43.9723921 1.7225,33.0286364 L1.7225,10.8409091 L3.52931818,10.8409091 L3.52931818,33.0286364 C3.52931818,42.9841338 11.5998435,51.0546591 21.5553409,51.0546591 C31.5108384,51.0546591 39.5813636,42.9841338 39.5813636,33.0286364 L39.5813636,10.8409091 L41.3881818,10.8409091 L41.3881818,33.0286364 C41.3649923,43.9723921 32.4990967,52.8382878 21.5553409,52.8614773 L21.5553409,52.8614773 Z" id="Path" fill="#171B1C"></path>
                <rect id="Rectangle" fill="#9BA9BD" x="37.8588636" y="10.2567045" width="5.24579545" height="1"></rect>
                <rect id="Rectangle" fill="#9BA9BD" x="38.3828409" y="0.710681818" width="4.19784091" height="1.02988636"></rect>
                <rect id="Rectangle" fill="#232A2D" x="38.3828409" y="3.43897727" width="4.19784091" height="3.42090909"></rect>
                <rect id="Rectangle" fill="#D8DDE6" x="38.3828409" y="6.83579545" width="4.19784091" height="3.42090909"></rect>
                <rect id="Rectangle" fill="#171B1C" x="38.3828409" y="3.43897727" width="4.19784091" height="1"></rect>
                <path d="M40.4847727,1.67238185e-17 L40.4847727,1.67238185e-17 C40.6078444,2.42590236e-17 40.7076136,0.0997692734 40.7076136,0.222840909 L40.7076136,0.710681818 L40.2559091,0.710681818 L40.2559091,0.222840909 C40.2558871,0.162681367 40.2801899,0.105068718 40.3232924,0.0631004147 C40.366395,0.0211321115 40.4246352,-0.0016259377 40.4847727,1.67238185e-17 Z" id="Path" fill="#FEB533"></path>
                <rect id="Rectangle" fill="#EFF2F4" x="37.8588636" y="1.74056818" width="5.24579545" height="1.69840909"></rect>
                <rect id="Rectangle" fill="#D8DDE6" x="37.8588636" y="1.74056818" width="1" height="1.69840909"></rect>
                <rect id="Rectangle" fill="#D8DDE6" x="42.2915909" y="1.74056818" width="1" height="1.69840909"></rect>
                <rect id="Rectangle" fill="#D8DDE6" x="39.9547727" y="1.74056818" width="1.06" height="1.69840909"></rect>
                <rect id="Rectangle" fill="#9BA9BD" x="0" y="10.2567045" width="5.24579545" height="1"></rect>
                <rect id="Rectangle" fill="#9BA9BD" x="0.523977273" y="0.710681818" width="4.19784091" height="1.02988636"></rect>
                <rect id="Rectangle" fill="#232A2D" x="0.523977273" y="3.43897727" width="4.19784091" height="3.42090909"></rect>
                <rect id="Rectangle" fill="#D8DDE6" x="0.523977273" y="6.83579545" width="4.19784091" height="3.42090909"></rect>
                <rect id="Rectangle" fill="#171B1C" x="0.523977273" y="3.43897727" width="4.19784091" height="1"></rect>
                <path d="M2.61988636,0 L2.61988636,0 C2.742958,0 2.84272727,0.0997692734 2.84272727,0.222840909 L2.84272727,0.710681818 L2.40909091,0.710681818 L2.40909091,0.222840909 C2.40891765,0.104323866 2.50154246,0.00640620687 2.61988636,0 Z" id="Path" fill="#FEB533"></path>
                <rect id="Rectangle" fill="#EFF2F4" x="0" y="1.74056818" width="5.24579545" height="1.69840909"></rect>
                <rect id="Rectangle" fill="#D8DDE6" x="0" y="1.74056818" width="1" height="1.69840909"></rect>
                <rect id="Rectangle" fill="#D8DDE6" x="4.43272727" y="1.74056818" width="1" height="1.69840909"></rect>
                <rect id="Rectangle" fill="#D8DDE6" x="2.09590909" y="1.74056818" width="1.06" height="1.69840909"></rect>
            </g>
        </g>
    </g>
</svg>