<?xml version="1.0" encoding="UTF-8"?>
<svg width="375px" height="252px" viewBox="0 0 375 252" version="1.1" xmlns="http://www.w3.org/2000/svg" xmlns:xlink="http://www.w3.org/1999/xlink">
    <!-- Generator: Sketch 55.2 (78181) - https://sketchapp.com -->
    <title>Modem-Complete</title>
    <desc>Created with Sketch.</desc>
    <g id="x_Exploration" stroke="none" stroke-width="1" fill="none" fill-rule="evenodd">
        <g id="Install_Equipment-Copy-10" transform="translate(0.000000, -112.000000)" fill-rule="nonzero">
            <g id="Modem-Complete" transform="translate(-79.000000, 111.000000)">
                <path d="M529.793371,214.43882 C527.179923,224.613889 521.322007,233.660228 513.106742,240.207865 C504.578652,246.746067 494.273876,250.342079 484.679775,252.260899 L44.9572472,252.260899 C31.4402247,245.154157 20.9791011,236.626067 14.0429213,226.747697 C-12.0814607,189.721573 6.69455056,142.134831 41.2191011,118.526236 C42.569382,117.60236 43.9338764,116.70691 45.3125843,115.854101 C65.8368539,103.061966 89.5023034,96.4811236 112.812416,90.0424157 C161.138258,76.6817416 209.719944,65.5099438 256.638652,47.6720225 C278.58427,39.2860674 300.473034,30.4168539 322.773989,22.741573 C365.599213,8.01640449 411.608258,-1.93303371 455.954326,12.4510112 C471.717079,17.5536517 486.257472,25.7264045 492.497191,41.9724157 C496.846517,53.3432022 496.277978,65.9789888 493.719551,77.8472472 C490.876854,91.2221348 485.518371,104.355393 486.04427,118.028764 C487.522472,156.490449 540.425056,172.551685 529.793371,214.43882 Z" id="Path" fill="#F1F2F6"></path>
                <rect id="Rectangle" fill="#1D2326" x="245.324719" y="48.3400562" width="42.3561798" height="197.268933"></rect>
                <path d="M237.365169,43.2515787 C236.618793,43.247093 235.903131,43.5484604 235.384837,44.0855527 C234.866543,44.622645 234.590853,45.3485854 234.621966,46.0943258 C235.631124,72.9720225 236.043315,106.359494 235.787472,147.763371 C235.531629,184.377303 233.996573,218.731292 228.68073,249.048652 C228.537658,249.848094 228.756177,250.669839 229.277447,251.292619 C229.798716,251.915399 230.569149,252.275112 231.381292,252.275112 L245.267865,252.275112 L245.267865,43.2515787 L237.365169,43.2515787 Z" id="Path" fill="#232A2D"></path>
                <path d="M295.640449,43.2515787 C296.386825,43.247093 297.102487,43.5484604 297.620781,44.0855527 C298.139075,44.622645 298.414765,45.3485854 298.383652,46.0943258 C297.374494,72.9720225 296.962303,106.359494 297.218146,147.763371 C297.473989,184.377303 299.009045,218.731292 304.324888,249.048652 C304.46796,249.848094 304.249441,250.669839 303.728171,251.292619 C303.206902,251.915399 302.436469,252.275112 301.624326,252.275112 L287.680899,252.275112 L287.680899,43.2515787 L295.640449,43.2515787 Z" id="Path" fill="#232A2D"></path>
                <path d="M266.502809,227.245169 C261.792875,227.245169 257.974719,223.427013 257.974719,218.717079 C257.974719,214.007145 261.792875,210.188989 266.502809,210.188989 C271.212743,210.188989 275.030899,214.007145 275.030899,218.717079 C275.030899,223.427013 271.212743,227.245169 266.502809,227.245169 Z M266.502809,211.183919 C263.466147,211.178181 260.725295,213.002996 259.559227,215.806858 C258.393159,218.610719 259.031718,221.840961 261.17693,223.990244 C263.322142,226.139526 266.551168,226.784208 269.357235,225.623457 C272.163301,224.462707 273.993315,221.725319 273.993315,218.688652 C273.993315,214.549454 270.641999,211.191772 266.502809,211.183919 L266.502809,211.183919 Z" id="Shape" fill="#64A5FC"></path>
                <rect id="Rectangle" fill="#171B1C" x="245.324719" y="48.3400562" width="2.6152809" height="197.268933"></rect>
                <rect id="Rectangle" fill="#171B1C" x="285.065618" y="48.3400562" width="2.6152809" height="197.268933"></rect>
                <rect id="Rectangle" fill="#64A5FC" x="245.324719" y="62.9657303" width="2.6152809" height="8.40016854"></rect>
                <rect id="Rectangle" fill="#64A5FC" x="245.324719" y="75.7010112" width="2.6152809" height="8.40016854"></rect>
                <rect id="Rectangle" fill="#64A5FC" x="245.324719" y="88.4362921" width="2.6152809" height="8.40016854"></rect>
                <rect id="Rectangle" fill="#64A5FC" x="245.324719" y="101.15736" width="2.6152809" height="8.40016854"></rect>
                <path d="M209.606236,150.662921 C209.259548,150.660452 208.965238,150.408187 208.909775,150.065955 C207.374719,140.571348 199.671011,123.842079 180.482809,121.39736 C176.337406,120.720639 172.084222,121.320448 168.28764,123.117191 C172.05586,125.786826 174.937288,129.524761 176.559888,133.848371 C177.981236,138.282978 177.469551,142.376461 175.010618,144.977528 C172.969619,147.158488 169.901375,148.052257 167.008427,147.308539 C163.611404,146.45573 161.038764,143.59882 159.901685,139.47691 C158.531294,134.54275 159.709203,129.250157 163.042865,125.362921 C163.80661,124.49246 164.670089,123.714851 165.615506,123.046124 C157.648936,118.046216 147.754088,117.214583 139.064719,120.814607 C138.887638,120.883769 138.690228,120.879099 138.516615,120.801641 C138.343002,120.724183 138.207661,120.580395 138.140843,120.402416 C138.014627,120.030062 138.202009,119.624068 138.567247,119.478539 C146.651795,116.297265 155.686262,116.564345 163.568764,120.21764 C164.772066,120.814196 165.935289,121.48839 167.051067,122.235955 C171.241199,120.029168 176.038757,119.255368 180.710225,120.032865 C200.694382,122.577079 208.710787,139.931742 210.302697,149.88118 C210.335448,150.066236 210.292022,150.256674 210.182283,150.409238 C210.072544,150.561801 209.905807,150.663541 209.719944,150.691348 L209.606236,150.662921 Z M166.965787,123.898933 C165.909228,124.560938 164.952096,125.369714 164.12309,126.301011 C161.077768,129.812247 160.008802,134.622596 161.280393,139.093146 C162.218483,142.689157 164.393146,145.176517 167.278483,145.901404 C169.673717,146.519076 172.214961,145.777425 173.901966,143.968371 C175.991348,141.736854 176.431966,138.197697 175.138539,134.260562 C173.543245,130.07665 170.706283,126.480849 167.008427,123.955787 L166.965787,123.898933 Z" id="Shape" fill="#F2A046"></path>
                <circle id="Oval" fill="#64A5FC" cx="203.238596" cy="168.003371" r="4.36353933"></circle>
                <circle id="Oval" fill="#FD8A7A" cx="197.62427" cy="91.1937079" r="2.94219101"></circle>
                <circle id="Oval" fill="#F2A046" cx="178.592416" cy="192.28" r="3.38280899"></circle>
                <path d="M121.411573,183.709371 C121.071807,183.715042 120.777478,183.474773 120.715112,183.14073 C120.677377,182.956014 120.714585,182.763872 120.818547,182.606595 C120.92251,182.449319 121.084706,182.339797 121.269438,182.302135 L177.441124,170.81764 C177.62584,170.779905 177.817982,170.817113 177.975258,170.921075 C178.132535,171.025038 178.242057,171.187235 178.279719,171.371966 C178.350252,171.755028 178.10546,172.125354 177.725393,172.210562 L121.553708,183.695056 L121.411573,183.709371 Z" id="Path" fill="#15B1A3"></path>
                <path d="M146.157247,154.514775 L146.157247,154.514775 L116.777978,151.75736 C116.388439,151.712648 116.105061,151.366297 116.138371,150.975618 C116.189902,150.589843 116.531772,150.310131 116.920112,150.336011 L146.285169,153.093427 C146.680417,153.130984 146.971909,153.479507 146.938989,153.875169 C146.894277,154.264707 146.547926,154.548086 146.157247,154.514775 Z" id="Path" fill="#67D8C5"></path>
                <path d="M197.567416,202.087303 C197.174921,202.173652 196.786742,201.925472 196.700393,201.532978 C196.614044,201.140483 196.862225,200.752304 197.254719,200.665955 L223.762865,188.20073 C223.995774,188.056805 224.290649,188.059473 224.520916,188.20759 C224.751182,188.355706 224.875886,188.622928 224.841497,188.89455 C224.807109,189.166173 224.619745,189.393886 224.359831,189.479944 L197.865899,201.959382 C197.776667,202.022823 197.674895,202.06644 197.567416,202.087303 L197.567416,202.087303 Z" id="Path" fill="#FD8A7A"></path>
                <path d="M224.118202,96.523764 C223.956862,96.5291187 223.799464,96.4732678 223.677584,96.3674157 L201.120787,78.43 C200.871169,78.1676955 200.853399,77.761423 201.07916,77.4783253 C201.304921,77.1952276 201.704962,77.1221459 202.016236,77.3071348 L224.573034,95.2303371 C224.877848,95.4744209 224.928624,95.9187174 224.686742,96.2252809 C224.558822,96.4133154 224.345619,96.5252472 224.118202,96.523764 L224.118202,96.523764 Z" id="Path" fill="#64A5FC"></path>
                <path d="M210.586966,114.077416 L210.345337,114.077416 L158.45191,95.3440449 C158.198011,95.2577191 158.009452,95.0424971 157.957263,94.7794508 C157.905073,94.5164046 157.997182,94.2454971 158.198892,94.0687767 C158.400602,93.8920562 158.681269,93.8363708 158.935169,93.9226966 L210.828596,112.62764 C211.22109,112.694365 211.485179,113.066635 211.418455,113.459129 C211.351731,113.851624 210.979461,114.115713 210.586966,114.048989 L210.586966,114.077416 Z" id="Path" fill="#15B1A3"></path>
                <path d="M323.399382,150.662921 L323.285674,150.662921 C323.099811,150.635114 322.933074,150.533375 322.823335,150.380811 C322.713596,150.228247 322.67017,150.037809 322.702921,149.852753 C324.294831,139.903315 332.311236,122.548652 352.295393,120.004438 C356.969966,119.23563 361.767694,120.019442 365.954551,122.235955 C367.071492,121.50298 368.23469,120.843044 369.436854,120.260281 C377.319356,116.606985 386.353823,116.339906 394.438371,119.52118 C394.803609,119.666708 394.990991,120.072703 394.864775,120.445056 C394.797957,120.623035 394.662616,120.766823 394.489003,120.844281 C394.31539,120.921739 394.11798,120.926409 393.940899,120.857247 C385.21513,117.212745 375.261265,118.045328 367.262191,123.088764 C368.207608,123.757492 369.071087,124.5351 369.834831,125.405562 C373.168494,129.292797 374.346402,134.585391 372.976011,139.519551 C371.91,143.641461 369.33736,146.498371 365.86927,147.35118 C362.976322,148.094898 359.908078,147.201129 357.867079,145.020169 C355.42236,142.376461 354.85382,138.325618 356.317809,133.891011 C357.940409,129.567402 360.821837,125.829467 364.590056,123.159831 C360.821366,121.38806 356.606056,120.793657 352.494382,121.454213 C333.363034,123.898933 325.659326,140.628202 324.067416,150.122809 C323.991066,150.43229 323.717989,150.653075 323.399382,150.662921 L323.399382,150.662921 Z M366.039831,123.898933 C362.28076,126.426953 359.396129,130.056326 357.781798,134.288989 C356.488371,138.226124 356.928989,141.765281 359.018371,143.996798 C360.705376,145.805852 363.24662,146.547503 365.641854,145.929831 C368.484551,145.204944 370.701854,142.731798 371.639944,139.121573 C372.911536,134.651023 371.842569,129.840674 368.797247,126.329438 C367.979353,125.411311 367.036837,124.612325 365.997191,123.955787 L366.039831,123.898933 Z" id="Shape" fill="#F2A046"></path>
                <circle id="Oval" fill="#64A5FC" cx="329.767022" cy="168.003371" r="4.36353933"></circle>
                <circle id="Oval" fill="#FD8A7A" cx="335.381348" cy="91.1937079" r="2.94219101"></circle>
                <circle id="Oval" fill="#F2A046" cx="354.413202" cy="192.28" r="3.38280899"></circle>
                <path d="M411.594045,183.70927 L411.45191,183.70927 L355.337079,172.210562 C354.944584,172.132063 354.69004,171.750247 354.768539,171.357753 C354.847038,170.965258 355.228854,170.710715 355.621348,170.789213 L411.793034,182.273708 C411.977765,182.31137 412.139962,182.420892 412.243925,182.578169 C412.347887,182.735445 412.385095,182.927587 412.34736,183.112303 C412.295807,183.480444 411.964225,183.743207 411.594045,183.70927 L411.594045,183.70927 Z" id="Path" fill="#15B1A3"></path>
                <path d="M386.848371,154.514775 C386.484522,154.510164 386.180477,154.236523 386.137697,153.875169 C386.104777,153.479507 386.396268,153.130984 386.791517,153.093427 L416.156573,150.336011 C416.544913,150.310131 416.886784,150.589843 416.938315,150.975618 C416.971625,151.366297 416.688247,151.712648 416.298708,151.75736 L386.919438,154.514775 L386.848371,154.514775 Z" id="Path" fill="#67D8C5"></path>
                <path d="M335.438202,202.087303 C335.334939,202.083945 335.233416,202.059773 335.139719,202.016236 L308.645787,189.536798 C308.339172,189.347326 308.222949,188.958324 308.375371,188.631705 C308.527794,188.305086 308.900587,188.144292 309.242753,188.257584 L335.750899,200.722809 C336.004798,200.778667 336.209611,200.965735 336.288187,201.213548 C336.366762,201.46136 336.307162,201.732267 336.131838,201.924222 C335.956514,202.116176 335.692102,202.200015 335.438202,202.144157 L335.438202,202.087303 Z" id="Path" fill="#FD8A7A"></path>
                <path d="M308.887416,96.523764 C308.670181,96.5271425 308.464325,96.4268539 308.33309,96.2537079 C308.202164,96.1084112 308.138366,95.9147594 308.157292,95.7200944 C308.176217,95.5254295 308.276123,95.3476933 308.432584,95.2303371 L330.975169,77.2787079 C331.286443,77.093719 331.686483,77.1668007 331.912244,77.4498983 C332.138006,77.732996 332.120235,78.1392686 331.870618,78.401573 L309.328034,96.3674157 C309.206154,96.4732678 309.048756,96.5291187 308.887416,96.523764 Z" id="Path" fill="#64A5FC"></path>
                <path d="M322.418652,114.077416 C322.026157,114.14414 321.653887,113.880051 321.587163,113.487556 C321.520439,113.095062 321.784528,112.722792 322.177022,112.656067 L374.070449,93.9511236 C374.462944,93.8176755 374.889305,94.0276741 375.022753,94.4201686 C375.156201,94.812663 374.946202,95.2390237 374.553708,95.3724719 L322.646067,114.034775 L322.418652,114.077416 Z" id="Path" fill="#15B1A3"></path>
                <path d="M76.0563483,77.8756742 C76.0563483,79.7660674 96.4242697,81.3011236 121.823764,81.3011236 C147.223258,81.3011236 167.804382,79.7660674 167.804382,77.8756742" id="Path" fill="#15B1A3"></path>
                <path d="M37.068764,240.790618 L27.2188202,240.108371 L42.4556742,21.945618 C42.6043949,19.7051332 43.8997116,17.7003486 45.8811236,16.6439888 L73.2136517,1.93303371 C76.004047,0.426500186 79.4732159,1.13950728 81.4432584,3.6244382 L87.1286517,10.7311798 L79.3538764,16.9140449 L75.4309551,11.9393258 L52.1776966,24.4614045 L37.068764,240.790618 Z" id="Path" fill="#15B1A3"></path>
                <path d="M93.9226966,14.0713483 L90.4119663,8.18696629 C89.9620255,7.42884092 88.9850979,7.1750935 88.2230899,7.61842697 L75.5588764,14.9241573 C74.8304086,15.3667619 74.5643549,16.2948564 74.9476966,17.0561798 L76.8238764,20.5384831 C77.2319311,21.289292 78.1564307,21.5891297 78.9274719,21.2207303 L93.9226966,14.0713483 Z" id="Path" fill="#15B1A3"></path>
                <path d="M99.2385393,12.6926404 C95.3298315,13.5170225 78.6005618,17.2551685 71.5791011,22.6420787 C71.1508791,22.9831585 70.9258813,23.5188674 70.9821348,24.063427 C71.5933146,30.3031461 75.2461798,78.0746629 75.9994944,78.0746629 L167.946517,78.0746629 L100.674101,13.1190449 C100.293906,12.7510422 99.7579786,12.5918559 99.2385393,12.6926404 Z" id="Path" fill="#67D8C5"></path>
                <rect id="Rectangle" fill="#67D8C5" transform="translate(70.662331, 246.191742) rotate(-180.000000) translate(-70.662331, -246.191742) " x="20.5384831" y="240.094157" width="100.247697" height="12.1951685" rx="2"></rect>
                <polygon id="Path" fill="#64A5FC" points="265.081461 222.341517 261.24382 218.503876 262.494607 217.25309 265.081461 219.82573 270.511011 214.410393 271.761798 215.675393"></polygon>
                <rect id="Rectangle" fill="#FFFFFF" x="390.60073" y="216.27236" width="142.404888" height="36.0169663"></rect>
                <rect id="Rectangle" fill="#FD8A7A" x="402.142079" y="216.27236" width="4.23561798" height="36.0169663"></rect>
                <rect id="Rectangle" fill="#FD8A7A" x="433.084831" y="216.27236" width="4.23561798" height="36.0169663"></rect>
                <rect id="Rectangle" fill="#9BA9BD" x="386.47882" y="216.27236" width="146.526798" height="4.34932584"></rect>
                <rect id="Rectangle" fill="#9BA9BD" x="386.47882" y="247.229326" width="146.526798" height="4.34932584"></rect>
                <path d="M533.005618,180.269607 L412.020449,180.269607 C413.583867,192.219606 413.583867,204.32236 412.020449,216.27236 L533.005618,216.27236 L533.005618,180.269607 Z" id="Path" fill="#FD8A7A"></path>
                <rect id="Rectangle" fill="#F4605A" x="408.324944" y="180.269607" width="124.680674" height="5.51483146"></rect>
                <rect id="Rectangle" fill="#F4605A" x="408.324944" y="210.757528" width="124.680674" height="5.51483146"></rect>
                <rect id="Rectangle" fill="#1D2326" x="0" y="250.867978" width="533.005618" height="1.42134831"></rect>
            </g>
        </g>
    </g>
</svg>