<?xml version="1.0" encoding="UTF-8"?>
<svg width="375px" height="298px" viewBox="0 0 375 298" version="1.1" xmlns="http://www.w3.org/2000/svg" xmlns:xlink="http://www.w3.org/1999/xlink">
    <!-- Generator: Sketch 55.2 (78181) - https://sketchapp.com -->
    <title>Connect-Setup-01-B</title>
    <desc>Created with Sketch.</desc>
    <g id="x_Exploration" stroke="none" stroke-width="1" fill="none" fill-rule="evenodd">
        <g id="Install_Equipment-Copy-8" transform="translate(0.000000, -65.000000)">
            <g id="Connect-Setup-01-B" transform="translate(0.000000, 65.000000)">
                <rect id="Rectangle" fill="#FFFFFF" fill-rule="nonzero" x="0" y="0" width="375" height="297"></rect>
                <path d="M143.768404,152.520426 C145.642553,151.133723 145.751809,142.721064 142.18,137.91383 C138.608191,133.106596 131.540213,130.80383 129.674468,132.198936 L143.768404,152.520426 Z" id="Path" fill="#F1F2F6" fill-rule="nonzero"></path>
                <path d="M169.510638,156.504043 C169.510638,156.504043 160.702979,165.244468 162.694787,183.464894 C162.938511,185.700426 157.559787,179.321596 157.559787,179.321596 C157.559787,179.321596 161.450957,163.656064 169.510638,155.075319 C169.838404,154.680319 169.510638,156.504043 169.510638,156.504043 Z" id="Path" fill="#F1F2F6" fill-rule="nonzero"></path>
                <path d="M131.06117,84.7148936 C131.06117,84.7148936 155.223404,90.1944681 156.156277,109.641915 C156.652128,119.878298 146.676277,124.231702 146.676277,124.231702 L131.06117,84.7148936 Z" id="Path" fill="#F1F2F6" fill-rule="nonzero"></path>
                <path d="M140.238617,165.664681 C140.331064,163.874574 139.843617,159.504362 133.666489,156.285532 C132.458049,155.722485 131.176472,155.332071 129.859362,155.125745 C129.455957,155.033298 129.069362,157.159574 128.699574,157.109149 C128.07766,157.041915 127.556596,154.587872 127.018723,154.587872 C125.022405,154.650076 123.129014,155.488233 121.740851,156.924255 C121.740851,156.924255 124.060426,162.218936 128.859255,164.538511 C132.384697,166.158045 136.275802,166.816227 140.137766,166.446277 C145.555903,170.472771 150.04446,175.6177 153.29883,181.531915 C154.139255,183.095106 156.357979,177.674362 156.357979,177.674362 C156.357979,177.674362 156.710957,175.506064 140.238617,165.664681 Z" id="Path" fill="#F1F2F6" fill-rule="nonzero"></path>
                <path d="M141.423617,147.914894 C142.205213,144.427128 141.154681,138.283617 136.952553,133.888191 C131.565426,128.248936 123.060319,127.627021 120.866809,129.686064 L140.364681,150.108404 C140.510952,149.96667 140.640649,149.808778 140.751277,149.637766 C145.566915,157.26883 152.441596,170.169362 152.90383,182.179043 C152.90383,183.187553 154.811596,183.019468 155.904149,181.750426 C156.841518,180.462467 157.502479,178.994617 157.845532,177.439043 C157.845532,177.439043 153.710638,163.882979 141.423617,147.914894 Z" id="Path" fill="#F1F2F6" fill-rule="nonzero"></path>
                <path d="M186.865426,102.170532 C185.663617,100.170319 178.906596,98.5987234 173.763191,101.666277 C168.619787,104.73383 166.703617,110.995 167.880213,112.995213 L186.865426,102.170532 Z" id="Path" fill="#F1F2F6" fill-rule="nonzero"></path>
                <path d="M165.661489,118.365532 L186.747766,102.111702 C186.209894,101.439362 174.418723,103.851383 168.258404,108.608191 C162.703191,112.885957 162.526702,116.172021 163.888191,118.575638 C158.921277,125.441915 153.945957,134.047872 152.592872,136.434681 C150.248085,130.602128 147.59234,124.769574 144.844149,119.01266 C149.817461,115.512388 152.211151,109.374213 150.920426,103.43117 C150.658393,102.088436 150.284501,100.769974 149.80266,99.4895745 C149.718617,99.2626596 145.171915,99.0945745 145.079468,98.8760638 C144.66766,97.8591489 147.25617,95.3378723 146.760319,94.405 C142.995213,87.6815957 136.801277,83.1432979 130.926702,80.2102128 C130.203936,79.8488298 131.035957,85.3031915 130.33,84.992234 C129.624043,84.6812766 127.396915,78.605 126.71617,78.3360638 C120.387766,75.8568085 115.370426,75.2937234 115.790638,75.8147872 C123.606596,86.2276596 143.255745,120.037979 143.255745,120.037979 L143.440638,119.937128 C152.887021,141.334362 160.148298,163.353511 154.416596,182.969043 C154.172872,183.809468 159.148191,184.154043 159.383511,183.313617 C162.812447,170.824894 160.07266,156.680532 154.870426,142.292447 C157.089149,133.17383 162.610745,123.349255 165.661489,118.365532 Z" id="Path" fill="#F1F2F6" fill-rule="nonzero"></path>
                <path d="M190.521277,139.813191 C189.52117,137.569255 182.856596,135.922021 177.074468,138.392872 C169.695532,141.552872 166.308617,152.554043 167.308723,154.797979 L190.521277,139.813191 Z" id="Path" fill="#F1F2F6" fill-rule="nonzero"></path>
                <path d="M190.638936,139.88883 C190.243936,139.451809 187.529362,139.090426 183.915532,139.77117 C183.251596,139.88883 181.890106,142.998404 181.184149,143.200106 C180.478191,143.401809 180.511809,140.67883 179.814255,140.930957 C177.223831,141.921502 174.828362,143.36106 172.737872,145.183511 C165.03117,151.906915 167.00617,158.630319 167.770957,159.596809 L190.638936,139.88883 Z" id="Path" fill="#F1F2F6" fill-rule="nonzero"></path>
                <path d="M186.100638,202.878723 L128.733191,202.878723 C130.178485,199.719885 132.215388,196.86708 134.73383,194.474468 C144.247447,185.456702 146.155213,182.019362 146.499787,179.556915 L168.350851,179.556915 C168.712234,182.019362 170.611596,185.439894 180.116809,194.474468 C182.632221,196.865965 184.663789,199.71929 186.100638,202.878723 Z" id="Path" fill="#F1F2F6" fill-rule="nonzero"></path>
                <path d="M187.865532,218.754362 C187.651071,219.890334 187.370452,221.012813 187.025106,222.116064 C184.960062,228.994989 180.561597,234.938861 174.586809,238.924574 L140.213404,238.924574 C134.241074,234.936279 129.843338,228.993392 127.775106,222.116064 C127.429687,221.012833 127.149067,219.890351 126.934681,218.754362 L187.865532,218.754362 Z" id="Path" fill="#F1F2F6" fill-rule="nonzero"></path>
                <rect id="Rectangle" fill="#D8DDE6" fill-rule="nonzero" x="0.268829787" y="238.91617" width="375" height="58.5692553"></rect>
                <rect id="Rectangle" fill="#293033" fill-rule="nonzero" x="103.991064" y="236.974787" width="11.8752128" height="9.53042553" rx="0.81"></rect>
                <rect id="Rectangle" fill="#1D2326" fill-rule="nonzero" x="86.7791489" y="44.8787234" width="48.4169149" height="225.511383"></rect>
                <path d="M77.6773404,39.0629787 C76.8243815,39.0629787 76.0087318,39.412921 75.4176007,40.0278241 C74.8264696,40.6427272 74.5106225,41.471467 74.5425532,42.3238298 C75.6939362,73.0665957 76.2234043,111.238723 75.8788298,158.554681 C75.5930851,200.416277 73.8281915,239.680957 67.8191489,274.340106 C67.6577374,275.254708 67.9090638,276.19387 68.5056961,276.905614 C69.1023285,277.617357 69.9831801,278.029574 70.9119149,278.029574 L86.7791489,278.029574 L86.7791489,39.0629787 L77.6773404,39.0629787 Z" id="Path" fill="#232A2D" fill-rule="nonzero"></path>
                <path d="M144.297872,39.062978 C145.152291,39.062978 145.970135,39.4096388 146.5631,40.0248002 C147.156065,40.6399617 147.473048,41.4700101 147.441064,42.3238298 C146.289681,73.0665957 145.760213,111.238723 146.104787,158.554681 C146.390532,200.416277 148.155426,239.680957 154.164468,274.340106 C154.32588,275.254708 154.074553,276.19387 153.477921,276.905614 C152.881289,277.617357 152.000437,278.029574 151.071702,278.029574 L135.196064,278.029574 L135.196064,39.062978 L144.297872,39.062978 Z" id="Path" fill="#232A2D" fill-rule="nonzero"></path>
                <rect id="Rectangle" fill="#171B1C" fill-rule="nonzero" x="86.7791489" y="44.8787234" width="2.99191489" height="225.511383"></rect>
                <rect id="Rectangle" fill="#171B1C" fill-rule="nonzero" x="132.204149" y="44.8787234" width="2.99191489" height="225.511383"></rect>
                <circle id="Oval" fill="#9BA9BD" fill-rule="nonzero" cx="110.991809" cy="194.415638" r="4.92489362"></circle>
                <circle id="Oval" fill="#FFFFFF" fill-rule="nonzero" cx="110.991809" cy="194.415638" r="3.77351064"></circle>
                <circle id="Oval" fill="#1B2123" fill-rule="nonzero" cx="110.991809" cy="194.415638" r="1"></circle>
                <circle id="Oval" fill="#293033" fill-rule="nonzero" cx="110.991809" cy="256.07766" r="2.99191489"></circle>
                <circle id="Oval" fill="#0E1314" fill-rule="nonzero" cx="110.991809" cy="256.07766" r="2.15989362"></circle>
                <rect id="Rectangle" fill="#9BA9BD" fill-rule="nonzero" x="104.697021" y="95.8337234" width="12.5895745" height="13.6064894"></rect>
                <rect id="Rectangle" fill="#63738A" fill-rule="nonzero" x="105.671915" y="99.7080851" width="1.84053191" height="5.85776596"></rect>
                <rect id="Rectangle" fill="#63738A" fill-rule="nonzero" x="114.462766" y="99.7080851" width="1.84053191" height="5.85776596"></rect>
                <rect id="Rectangle" fill="#63738A" fill-rule="nonzero" transform="translate(110.987606, 102.636968) rotate(180.000000) translate(-110.987606, -102.636968) " x="107.512447" y="97.6070213" width="6.95031915" height="10.0598936"></rect>
                <rect id="Rectangle" fill="#293033" fill-rule="nonzero" x="106.596383" y="100.245957" width="8.79085106" height="1"></rect>
                <rect id="Rectangle" fill="#293033" fill-rule="nonzero" x="106.596383" y="101.313298" width="8.79085106" height="1"></rect>
                <rect id="Rectangle" fill="#293033" fill-rule="nonzero" x="106.596383" y="102.372234" width="8.79085106" height="1"></rect>
                <rect id="Rectangle" fill="#293033" fill-rule="nonzero" x="106.596383" y="103.439574" width="8.79085106" height="1"></rect>
                <rect id="Rectangle" fill="#293033" fill-rule="nonzero" x="106.596383" y="104.506915" width="8.79085106" height="1"></rect>
                <rect id="Rectangle" fill="#9BA9BD" fill-rule="nonzero" x="104.697021" y="109.448617" width="12.5895745" height="13.6064894"></rect>
                <rect id="Rectangle" fill="#63738A" fill-rule="nonzero" x="105.671915" y="113.322979" width="1.84053191" height="5.85776596"></rect>
                <rect id="Rectangle" fill="#63738A" fill-rule="nonzero" x="114.462766" y="113.322979" width="1.84053191" height="5.85776596"></rect>
                <rect id="Rectangle" fill="#63738A" fill-rule="nonzero" transform="translate(110.987606, 116.251862) rotate(180.000000) translate(-110.987606, -116.251862) " x="107.512447" y="111.221915" width="6.95031915" height="10.0598936"></rect>
                <rect id="Rectangle" fill="#293033" fill-rule="nonzero" x="106.596383" y="113.852447" width="8.79085106" height="1"></rect>
                <rect id="Rectangle" fill="#293033" fill-rule="nonzero" x="106.596383" y="114.919787" width="8.79085106" height="1"></rect>
                <rect id="Rectangle" fill="#293033" fill-rule="nonzero" x="106.596383" y="115.987128" width="8.79085106" height="1"></rect>
                <rect id="Rectangle" fill="#293033" fill-rule="nonzero" x="106.596383" y="117.054468" width="8.79085106" height="1"></rect>
                <rect id="Rectangle" fill="#293033" fill-rule="nonzero" x="106.596383" y="118.113404" width="8.79085106" height="1"></rect>
                <rect id="Rectangle" fill="#FEB533" fill-rule="nonzero" x="105.243298" y="214.123617" width="11.488617" height="14.5981915"></rect>
                <polygon id="Path" fill="#BC812B" fill-rule="nonzero" points="115.43766 219.468723 115.43766 218.502234 113.445851 218.502234 113.445851 215.955745 111.462447 215.955745 111.462447 215.325426 109.084043 215.325426 109.084043 215.955745 107.394787 215.955745 107.394787 226.881277 109.084043 226.881277 109.084043 227.511596 111.462447 227.511596 111.462447 226.881277 113.445851 226.881277 113.445851 224.334787 115.43766 224.334787 115.43766 223.368298 116.219255 223.368298 116.219255 219.468723"></polygon>
                <rect id="Rectangle" fill="#FFFFFF" fill-rule="nonzero" x="114.210638" y="214.686702" width="1.79851064" height="3.27765957"></rect>
                <rect id="Rectangle" fill="#FFFFFF" fill-rule="nonzero" x="114.210638" y="224.881064" width="1.79851064" height="3.27765957"></rect>
                <rect id="Rectangle" fill="#293033" fill-rule="nonzero" x="107.394787" y="222.074043" width="1.68925532" height="1"></rect>
                <rect id="Rectangle" fill="#293033" fill-rule="nonzero" x="107.394787" y="219.451915" width="1.68925532" height="1"></rect>
                <rect id="Rectangle" fill="#293033" fill-rule="nonzero" x="107.394787" y="218.577872" width="1.68925532" height="1"></rect>
                <rect id="Rectangle" fill="#293033" fill-rule="nonzero" x="107.394787" y="217.70383" width="1.68925532" height="1"></rect>
                <rect id="Rectangle" fill="#293033" fill-rule="nonzero" x="107.394787" y="216.829787" width="1.68925532" height="1"></rect>
                <rect id="Rectangle" fill="#293033" fill-rule="nonzero" x="107.394787" y="215.955745" width="1.68925532" height="1"></rect>
                <rect id="Rectangle" fill="#293033" fill-rule="nonzero" x="107.394787" y="220.325957" width="1.68925532" height="1"></rect>
                <rect id="Rectangle" fill="#293033" fill-rule="nonzero" x="107.394787" y="221.2" width="1.68925532" height="1"></rect>
                <rect id="Rectangle" fill="#293033" fill-rule="nonzero" x="107.394787" y="223.822128" width="1.68925532" height="1"></rect>
                <rect id="Rectangle" fill="#293033" fill-rule="nonzero" x="107.394787" y="224.69617" width="1.68925532" height="1"></rect>
                <rect id="Rectangle" fill="#293033" fill-rule="nonzero" x="107.394787" y="225.570213" width="1.68925532" height="1"></rect>
                <rect id="Rectangle" fill="#293033" fill-rule="nonzero" x="107.394787" y="226.444255" width="1.68925532" height="1"></rect>
                <rect id="Rectangle" fill="#293033" fill-rule="nonzero" x="107.394787" y="222.948085" width="1.68925532" height="1"></rect>
                <circle id="Oval" fill="#0E1314" fill-rule="nonzero" cx="110.991809" cy="241.74" r="2.99191489"></circle>
                <circle id="Oval" fill="#FFFFFF" fill-rule="nonzero" cx="110.991809" cy="241.74" r="1"></circle>
                <polygon id="Path" fill="#D8DDE6" fill-rule="nonzero" points="108.016702 93.22 107.092234 91.0096809 107.47883 91.0096809 108.134362 92.6905319 108.781489 91.0096809 109.159681 91.0096809 108.226809 93.22"></polygon>
                <path d="M109.941277,93.287234 C109.791668,93.2860352 109.644586,93.2485437 109.51266,93.1779787 C109.389415,93.101451 109.288079,92.994324 109.218511,92.8670213 C109.141501,92.7315467 109.103674,92.5773286 109.109255,92.4215957 C109.105227,92.2686941 109.143002,92.117592 109.218511,91.9845745 C109.288079,91.8572718 109.389415,91.7501447 109.51266,91.673617 C109.644586,91.6030521 109.791668,91.5655606 109.941277,91.5643617 C110.092525,91.5612752 110.241419,91.6021479 110.369894,91.6820213 C110.495158,91.7550809 110.599387,91.8593099 110.672447,91.9845745 C110.744076,92.1221331 110.781549,92.2749094 110.781702,92.43 C110.781531,92.5824115 110.744018,92.7324598 110.672447,92.8670213 C110.60055,92.9953674 110.496222,93.1025929 110.369894,93.1779787 C110.23934,93.2520157 110.091341,93.2897408 109.941277,93.287234 Z M109.941277,92.9762766 C110.030447,92.9824158 110.119131,92.9587667 110.193404,92.9090426 C110.268185,92.8636736 110.326944,92.7961004 110.361489,92.7157447 C110.405493,92.6269041 110.428496,92.5291409 110.428723,92.43 C110.430456,92.3306392 110.407345,92.2324189 110.361489,92.1442553 C110.32746,92.0613821 110.268782,91.9909695 110.193404,91.9425532 C110.117379,91.8968261 110.029976,91.8735188 109.941277,91.8753191 C109.855366,91.8746451 109.770967,91.8979275 109.697553,91.9425532 C109.622201,91.9896902 109.56117,92.0565329 109.521064,92.1358511 C109.442553,92.3182582 109.442553,92.5249333 109.521064,92.7073404 C109.560967,92.789035 109.621879,92.858648 109.697553,92.9090426 C109.775047,92.9392183 109.859247,92.9479285 109.941277,92.9342553 L109.941277,92.9762766 Z" id="Shape" fill="#D8DDE6" fill-rule="nonzero"></path>
                <path d="M111.351145,91.278617 C111.28491,91.2768673 111.221385,91.2561054 111.171145,91.2197872 C111.122061,91.1772391 111.096639,91.1192481 111.101145,91.0601064 C111.098284,91.0036799 111.123704,90.9488301 111.171222,90.9088943 C111.218741,90.8689586 111.284005,90.8475956 111.351145,90.85 C111.41851,90.8464631 111.484323,90.8679729 111.531145,90.9088298 C111.581322,90.9479294 111.610236,91.0026046 111.611145,91.0601064 C111.611799,91.120324 111.582854,91.1780989 111.531145,91.2197872 C111.481828,91.2573781 111.417724,91.2783295 111.351145,91.278617 Z M111.141145,93.2031915 L111.141145,91.5223404 L111.601145,91.5223404 L111.601145,93.2031915 L111.141145,93.2031915 Z" id="Shape" fill="#D8DDE6" fill-rule="nonzero"></path>
                <path d="M112.714681,93.287234 C112.556122,93.2944007 112.398776,93.256521 112.260851,93.1779787 C112.130448,93.1088715 112.022547,93.0038868 111.949894,92.8754255 C111.877307,92.7382293 111.839775,92.5852122 111.840638,92.43 C111.837603,92.2734637 111.878354,92.1191916 111.958298,91.9845745 C112.033684,91.8582459 112.140909,91.7539184 112.269255,91.6820213 C112.403872,91.6020771 112.558145,91.561326 112.714681,91.5643617 C112.798523,91.5561562 112.882966,91.5561562 112.966809,91.5643617 C113.040213,91.5868689 113.110729,91.6178959 113.176915,91.6568085 L113.101277,91.9509574 C112.996375,91.875248 112.869169,91.8367904 112.739894,91.8417021 C112.640645,91.8409915 112.542668,91.864045 112.454149,91.9089362 C112.375622,91.9610828 112.30961,92.0299643 112.260851,92.1106383 C112.214995,92.1988019 112.191884,92.2970221 112.193617,92.396383 C112.192906,92.4956316 112.21596,92.5936089 112.260851,92.6821277 C112.309695,92.7604614 112.375815,92.8265811 112.454149,92.8754255 C112.541157,92.9243205 112.640212,92.9476277 112.739894,92.9426596 C112.874244,92.9463983 113.006426,92.9082126 113.118085,92.8334043 L113.193723,93.1275532 C113.120889,93.1648478 113.044969,93.1957784 112.966809,93.22 C112.886779,93.2554011 112.801711,93.2780859 112.714681,93.287234 Z" id="Path" fill="#D8DDE6" fill-rule="nonzero"></path>
                <path d="M114.277872,93.287234 C114.114082,93.2931791 113.951655,93.2554729 113.807234,93.1779787 C113.681322,93.1095225 113.576656,93.007764 113.504681,92.8838298 C113.427671,92.7483552 113.389844,92.5941372 113.395426,92.4384043 C113.390924,92.2811086 113.425579,92.1251594 113.496277,91.9845745 C113.558162,91.8572511 113.654172,91.7496032 113.773617,91.673617 C113.899223,91.602431 114.04105,91.5648035 114.185426,91.5643617 C114.315803,91.5618672 114.444154,91.5968719 114.555213,91.6652128 C114.661064,91.7290237 114.74582,91.8225469 114.798936,91.9341489 C114.859992,92.0595594 114.888875,92.1981944 114.882979,92.3375532 L114.882979,92.4468085 L113.74,92.4468085 C113.750476,92.5839614 113.816526,92.710882 113.922844,92.7981581 C114.029162,92.8854342 114.16652,92.9254898 114.303085,92.9090426 C114.384116,92.9173016 114.465777,92.9173016 114.546809,92.9090426 C114.620742,92.8879814 114.691437,92.8568757 114.756915,92.8165957 L114.824149,93.0939362 C114.662968,93.20674 114.47413,93.2735595 114.277872,93.287234 L114.277872,93.287234 Z M114.168617,91.8501064 C114.061154,91.8478978 113.957622,91.8905284 113.882872,91.967766 C113.802666,92.0531005 113.752502,92.1622811 113.74,92.2787234 L114.580426,92.2787234 C114.586908,92.164652 114.547579,92.0527134 114.47117,91.967766 C114.404575,91.8659577 114.290247,91.8056179 114.168617,91.8080851 L114.168617,91.8501064 Z" id="Shape" fill="#D8DDE6" fill-rule="nonzero"></path>
                <path d="M108.159574,187.490532 C107.94871,187.498026 107.739711,187.448679 107.554468,187.34766 C107.386983,187.254589 107.247639,187.118149 107.151064,186.95266 C107.054712,186.7717 107.005572,186.569357 107.008191,186.364362 C107.008576,186.203784 107.037018,186.044509 107.092234,185.893723 C107.150601,185.759322 107.23322,185.636818 107.335957,185.53234 C107.4393,185.430312 107.562231,185.350264 107.69734,185.297021 C107.841123,185.23774 107.995694,185.209115 108.15117,185.212979 C108.273408,185.212634 108.395078,185.229614 108.512553,185.263404 C108.620656,185.29385 108.722914,185.342138 108.815106,185.406277 L108.747872,185.725638 C108.662797,185.664892 108.569383,185.61677 108.470532,185.582766 C108.373232,185.549073 108.270947,185.532025 108.167979,185.53234 C108.027186,185.531636 107.888472,185.566314 107.764574,185.633191 C107.643798,185.700027 107.546855,185.802844 107.487234,185.92734 C107.417564,186.056226 107.382798,186.201086 107.386383,186.347553 C107.38131,186.496849 107.416122,186.6448 107.487234,186.77617 C107.544795,186.89998 107.642537,187.000684 107.764574,187.061915 C107.888155,187.13794 108.031368,187.175935 108.176383,187.17117 C108.28479,187.170808 108.3925,187.153801 108.495745,187.120745 C108.594596,187.086741 108.68801,187.038618 108.773085,186.977872 L108.831915,187.28883 C108.742359,187.35924 108.639423,187.410708 108.529362,187.440106 C108.40902,187.473915 108.284574,187.490885 108.159574,187.490532 L108.159574,187.490532 Z" id="Path" fill="#D8DDE6" fill-rule="nonzero"></path>
                <path d="M109.647128,187.482128 C109.497967,187.489661 109.35129,187.441767 109.235319,187.34766 C109.131659,187.256453 109.073278,187.124329 109.075638,186.986277 C109.070284,186.832563 109.139063,186.685626 109.260532,186.591277 C109.41376,186.487598 109.596917,186.437378 109.781596,186.448404 L110.117766,186.448404 L110.117766,186.448404 C110.117766,186.196277 109.991702,186.078617 109.73117,186.078617 C109.655935,186.067579 109.579491,186.067579 109.504255,186.078617 C109.425328,186.111139 109.3494,186.150509 109.27734,186.196277 L109.201702,185.918936 C109.373882,185.805301 109.575304,185.743999 109.781596,185.742447 C109.963318,185.736025 110.140649,185.799143 110.277447,185.918936 C110.399901,186.050788 110.463593,186.226698 110.453936,186.406383 L110.453936,187.414894 L110.142979,187.414894 L110.142979,187.221596 C110.032296,187.386601 109.845802,187.484589 109.647128,187.482128 L109.647128,187.482128 Z M109.420213,186.969468 C109.417543,187.040896 109.448684,187.109407 109.504255,187.154362 C109.571005,187.199943 109.650363,187.223457 109.73117,187.221596 C109.834017,187.221087 109.93295,187.182113 110.008511,187.11234 C110.081424,187.045756 110.121377,186.950483 110.117766,186.851809 L110.117766,186.683723 L109.840426,186.683723 C109.724442,186.676709 109.60862,186.699874 109.504255,186.750957 C109.442073,186.805584 109.410662,186.887252 109.420213,186.969468 L109.420213,186.969468 Z" id="Shape" fill="#D8DDE6" fill-rule="nonzero"></path>
                <path d="M111.521277,187.490532 L111.218723,187.490532 C111.103817,187.475487 110.991021,187.447287 110.882553,187.406489 L110.882553,185.154149 L111.227128,185.154149 L111.227128,186.036596 C111.282724,185.962453 111.354608,185.902071 111.437234,185.860106 C111.526075,185.816103 111.623838,185.793099 111.722979,185.792872 C111.856787,185.793152 111.987827,185.831008 112.10117,185.902128 C112.208502,185.978845 112.292788,186.083476 112.344894,186.204681 C112.407856,186.33868 112.439471,186.485259 112.43734,186.633298 C112.438902,186.793951 112.401408,186.952579 112.328085,187.095532 C112.255953,187.226526 112.148122,187.334357 112.017128,187.406489 C111.861593,187.475927 111.691005,187.50484 111.521277,187.490532 L111.521277,187.490532 Z M111.521277,187.196383 C111.675796,187.209303 111.827668,187.150414 111.933085,187.036702 C112.030657,186.915634 112.081374,186.763482 112.075957,186.608085 C112.084628,186.470538 112.046084,186.334152 111.966702,186.221489 C111.89013,186.129107 111.775717,186.076539 111.655745,186.078617 C111.530829,186.073149 111.411285,186.129776 111.336383,186.229894 C111.247346,186.351329 111.202831,186.499714 111.210319,186.650106 L111.210319,187.154362 C111.312034,187.18016 111.416362,187.194259 111.521277,187.196383 L111.521277,187.196383 Z" id="Shape" fill="#D8DDE6" fill-rule="nonzero"></path>
                <polygon id="Path" fill="#D8DDE6" fill-rule="nonzero" points="112.798723 187.414894 112.798723 185.095319 113.143298 185.095319 113.143298 187.414894"></polygon>
                <path d="M114.378723,187.490532 C114.218766,187.494698 114.060175,187.460097 113.916489,187.389681 C113.789187,187.320113 113.68206,187.218776 113.605532,187.095532 C113.534123,186.954881 113.496702,186.799441 113.496277,186.641702 C113.491775,186.484406 113.52643,186.328457 113.597128,186.187872 C113.663149,186.06565 113.758437,185.9617 113.874468,185.885319 C113.99773,185.807679 114.140603,185.766859 114.286277,185.76766 C114.416834,185.763685 114.545602,185.798803 114.656064,185.868511 C114.761915,185.932322 114.846671,186.025845 114.899787,186.137447 C114.963748,186.262107 114.995527,186.400779 114.992234,186.540851 L114.992234,186.734149 L113.840851,186.734149 C113.857594,186.863703 113.920209,186.982969 114.01734,187.070319 C114.126005,187.159028 114.263867,187.203983 114.403936,187.196383 C114.484942,187.205134 114.566654,187.205134 114.64766,187.196383 C114.723018,187.179456 114.794374,187.148059 114.857766,187.103936 L114.925,187.381277 C114.755533,187.464656 114.567224,187.502318 114.378723,187.490532 L114.378723,187.490532 Z M114.277872,186.053404 C114.16788,186.050871 114.061626,186.093373 113.983723,186.171064 C113.903517,186.256398 113.853353,186.365579 113.840851,186.482021 L114.681277,186.482021 C114.684305,186.368465 114.645412,186.25777 114.572021,186.171064 C114.495915,186.090687 114.388416,186.047688 114.277872,186.053404 L114.277872,186.053404 Z" id="Shape" fill="#D8DDE6" fill-rule="nonzero"></path>
                <polygon id="Path" fill="#D8DDE6" fill-rule="nonzero" points="104.739043 203.660319 104.739043 201.466809 106.134149 201.466809 106.134149 201.777766 105.092021 201.777766 105.092021 202.382872 105.848404 202.382872 105.848404 202.69383 105.092021 202.69383 105.092021 203.382979 106.159362 203.382979 106.159362 203.685532"></polygon>
                <path d="M107.235106,203.693936 C107.073679,203.703024 106.915627,203.645274 106.798085,203.534255 C106.690253,203.405276 106.636096,203.239797 106.646809,203.072021 L106.646809,202.324043 L106.361064,202.324043 L106.361064,202.029894 L106.646809,202.029894 L106.646809,201.643298 L106.991383,201.492021 L106.991383,202.029894 L107.453617,202.029894 L107.453617,202.324043 L106.991383,202.324043 L106.991383,203.03 C106.985098,203.12713 107.008551,203.223871 107.058617,203.30734 C107.119806,203.364842 107.201649,203.395155 107.285532,203.391383 L107.386383,203.391383 L107.47883,203.391383 L107.47883,203.685532 L107.344362,203.685532 L107.235106,203.693936 Z" id="Path" fill="#D8DDE6" fill-rule="nonzero"></path>
                <path d="M107.848617,203.660319 L107.848617,201.340745 L108.159574,201.340745 L108.159574,202.231596 C108.263085,202.069321 108.446506,201.976001 108.638617,201.987872 C108.798737,201.981328 108.954248,202.042312 109.067234,202.155957 C109.172735,202.289477 109.226457,202.456611 109.218511,202.626596 L109.218511,203.660319 L108.865532,203.660319 L108.865532,202.677021 C108.872426,202.581301 108.845673,202.486179 108.789894,202.408085 C108.730964,202.340305 108.644297,202.303162 108.554574,202.307234 C108.445148,202.303803 108.340065,202.350163 108.26883,202.433298 C108.191633,202.527738 108.152649,202.647688 108.159574,202.769468 L108.159574,203.660319 L107.848617,203.660319 Z" id="Path" fill="#D8DDE6" fill-rule="nonzero"></path>
                <path d="M110.453936,203.710745 C110.293394,203.711324 110.134996,203.673884 109.991702,203.601489 C109.862241,203.537961 109.756298,203.434961 109.689149,203.30734 C109.610607,203.169416 109.572727,203.012069 109.579894,202.853511 C109.577395,202.696412 109.611946,202.540935 109.680745,202.399681 C109.746766,202.277459 109.842055,202.173508 109.958085,202.097128 C110.198205,201.962386 110.491157,201.962386 110.731277,202.097128 C110.837128,202.160939 110.921883,202.254462 110.975,202.366064 C111.037056,202.49141 111.068726,202.629607 111.067447,202.769468 L111.067447,202.962766 L109.924468,202.962766 C109.93467,203.094811 109.994771,203.218017 110.092553,203.30734 C110.204728,203.388501 110.340779,203.429907 110.479149,203.425 C110.559879,203.437885 110.642142,203.437885 110.722872,203.425 C110.799274,203.407318 110.872824,203.379029 110.941383,203.340957 L111.000213,203.609894 C110.831152,203.693987 110.641879,203.728929 110.453936,203.710745 Z M110.353085,202.273617 C110.244309,202.268847 110.138224,202.30825 110.058936,202.382872 C109.981159,202.472235 109.934036,202.584152 109.924468,202.702234 L110.764894,202.702234 C110.767671,202.586166 110.728928,202.472918 110.655638,202.382872 C110.578207,202.299946 110.465634,202.259295 110.353085,202.273617 Z" id="Shape" fill="#D8DDE6" fill-rule="nonzero"></path>
                <path d="M111.437234,203.660319 L111.437234,202.029894 L111.748191,202.029894 L111.748191,202.29883 C111.787661,202.207554 111.851662,202.129007 111.933085,202.071915 C112.012924,202.018916 112.106211,201.989763 112.202021,201.987872 L112.311277,201.987872 L112.386915,201.987872 L112.386915,202.324043 L112.302872,202.324043 L112.21883,202.324043 C112.108269,202.323895 112.003442,202.373225 111.933085,202.458511 C111.856127,202.559577 111.817423,202.68462 111.82383,202.811489 L111.82383,203.651915 L111.437234,203.660319 Z" id="Path" fill="#D8DDE6" fill-rule="nonzero"></path>
                <path d="M112.681064,203.660319 L112.681064,202.029894 L112.992021,202.029894 L112.992021,202.265213 C113.042174,202.179936 113.114875,202.110143 113.202128,202.063511 C113.29418,202.011143 113.398815,201.984985 113.504681,201.987872 C113.662465,201.980513 113.815711,202.041812 113.924894,202.155957 C114.037044,202.286248 114.094285,202.45496 114.084574,202.626596 L114.084574,203.660319 L113.731596,203.660319 L113.731596,202.677021 C113.73849,202.581301 113.711737,202.486179 113.655957,202.408085 C113.594417,202.338961 113.504624,202.301805 113.412234,202.307234 C113.305727,202.306332 113.204246,202.352459 113.134894,202.433298 C113.057697,202.527738 113.018713,202.647688 113.025638,202.769468 L113.025638,203.660319 L112.681064,203.660319 Z" id="Path" fill="#D8DDE6" fill-rule="nonzero"></path>
                <path d="M115.286383,203.710745 C115.125841,203.711324 114.967443,203.673884 114.824149,203.601489 C114.694055,203.535825 114.585977,203.433588 114.513191,203.30734 C114.442494,203.166756 114.407839,203.010806 114.41234,202.853511 C114.409842,202.696412 114.444393,202.540935 114.513191,202.399681 C114.572764,202.273002 114.669502,202.16747 114.790532,202.097128 C115.030652,201.962386 115.323604,201.962386 115.563723,202.097128 C115.669575,202.160939 115.75433,202.254462 115.807447,202.366064 C115.869503,202.49141 115.901173,202.629607 115.899894,202.769468 L115.899894,202.962766 L114.756915,202.962766 C114.767117,203.094811 114.827217,203.218017 114.925,203.30734 C115.037175,203.388501 115.173226,203.429907 115.311596,203.425 C115.392326,203.437885 115.474589,203.437885 115.555319,203.425 C115.629507,203.408754 115.700499,203.380357 115.765426,203.340957 L115.83266,203.609894 C115.663599,203.693987 115.474326,203.728929 115.286383,203.710745 Z M115.185532,202.273617 C115.076756,202.268847 114.970671,202.30825 114.891383,202.382872 C114.813606,202.472235 114.766483,202.584152 114.756915,202.702234 L115.59734,202.702234 C115.600117,202.586166 115.561375,202.472918 115.488085,202.382872 C115.409186,202.302199 115.29777,202.261965 115.185532,202.273617 L115.185532,202.273617 Z" id="Shape" fill="#D8DDE6" fill-rule="nonzero"></path>
                <path d="M116.95883,203.693936 C116.797403,203.703024 116.63935,203.645274 116.521809,203.534255 C116.413976,203.405276 116.35982,203.239797 116.370532,203.072021 L116.370532,202.324043 L116.084787,202.324043 L116.084787,202.029894 L116.370532,202.029894 L116.370532,201.643298 L116.715106,201.492021 L116.715106,202.029894 L117.17734,202.029894 L117.17734,202.324043 L116.715106,202.324043 L116.715106,203.03 C116.708822,203.12713 116.732274,203.223871 116.78234,203.30734 C116.843529,203.364842 116.925372,203.395155 117.009255,203.391383 L117.110106,203.391383 L117.202553,203.391383 L117.202553,203.685532 L117.068085,203.685532 L116.95883,203.693936 Z" id="Path" fill="#D8DDE6" fill-rule="nonzero"></path>
                <polygon id="Path" fill="#D8DDE6" fill-rule="nonzero" points="105.243298 212.115 105.243298 209.921489 105.638298 209.921489 105.638298 212.115"></polygon>
                <path d="M106.083723,212.115 L106.083723,210.484574 L106.394681,210.484574 L106.394681,210.719894 C106.44725,210.636556 106.519374,210.567316 106.604787,210.518191 C106.697577,210.467691 106.801702,210.44166 106.90734,210.442553 C107.065125,210.435194 107.218371,210.496493 107.327553,210.610638 C107.439703,210.740929 107.496945,210.909641 107.487234,211.081277 L107.487234,212.115 L107.134255,212.115 L107.134255,211.131702 C107.141149,211.035982 107.114396,210.940859 107.058617,210.862766 C106.999688,210.794986 106.913021,210.757843 106.823298,210.761915 C106.713871,210.758484 106.608789,210.804844 106.537553,210.887979 C106.461766,210.983182 106.422961,211.10258 106.428298,211.224149 L106.428298,212.115 L106.083723,212.115 Z" id="Path" fill="#D8DDE6" fill-rule="nonzero"></path>
                <path d="M108.596596,212.148617 C108.435169,212.157705 108.277116,212.099955 108.159574,211.988936 C108.051742,211.859957 107.997586,211.694478 108.008298,211.526702 L108.008298,210.778723 L107.722553,210.778723 L107.722553,210.484574 L108.008298,210.484574 L108.008298,210.106383 L108.352872,209.955106 L108.352872,210.492979 L108.815106,210.492979 L108.815106,210.787128 L108.352872,210.787128 L108.352872,211.493085 C108.346588,211.590216 108.37004,211.686956 108.420106,211.770426 C108.481295,211.827928 108.563138,211.85824 108.647021,211.854468 L108.747872,211.854468 L108.840319,211.854468 L108.840319,212.148617 L108.705851,212.148617 L108.596596,212.148617 Z" id="Path" fill="#D8DDE6" fill-rule="nonzero"></path>
                <path d="M109.949681,212.165426 C109.789028,212.166987 109.6304,212.129493 109.487447,212.05617 C109.357353,211.990505 109.249275,211.888269 109.176489,211.762021 C109.102881,211.62219 109.065328,211.466202 109.067234,211.308191 C109.063776,211.153689 109.098412,211.000711 109.168085,210.862766 C109.22997,210.735443 109.325981,210.627795 109.445426,210.551809 C109.569391,210.476683 109.712331,210.43876 109.857234,210.442553 C109.986502,210.440133 110.1141,210.472032 110.227021,210.535 C110.32911,210.603277 110.412815,210.695641 110.470745,210.803936 C110.529901,210.929988 110.558685,211.068152 110.554787,211.20734 L110.554787,211.400638 L109.411809,211.400638 C109.428758,211.532532 109.491171,211.654386 109.588298,211.745213 C109.699873,211.827575 109.836353,211.869112 109.974894,211.862872 C110.055903,211.871559 110.137608,211.871559 110.218617,211.862872 L110.428723,211.770426 L110.495957,212.039362 C110.32944,212.132168 110.140028,212.175879 109.949681,212.165426 L109.949681,212.165426 Z M109.840426,210.728298 C109.73257,210.723932 109.628191,210.766912 109.554681,210.845957 C109.472846,210.930186 109.422411,211.039958 109.411809,211.156915 L110.252234,211.156915 C110.252338,211.043837 110.213788,210.93412 110.142979,210.845957 C110.067215,210.759938 109.954399,210.716065 109.840426,210.728298 L109.840426,210.728298 Z" id="Shape" fill="#D8DDE6" fill-rule="nonzero"></path>
                <path d="M110.924574,212.115 L110.924574,210.484574 L111.235532,210.484574 L111.235532,210.753511 C111.275002,210.662235 111.339003,210.583688 111.420426,210.526596 C111.499843,210.472718 111.593398,210.443483 111.689362,210.442553 L111.790213,210.442553 L111.865851,210.442553 L111.865851,210.778723 L111.781809,210.778723 L111.689362,210.778723 C111.58175,210.781046 111.480492,210.830141 111.412021,210.913191 C111.335063,211.014258 111.29636,211.139301 111.302766,211.26617 L111.302766,212.106596 L110.924574,212.115 Z" id="Path" fill="#D8DDE6" fill-rule="nonzero"></path>
                <path d="M112.168404,212.115 L112.168404,210.484574 L112.479362,210.484574 L112.479362,210.719894 C112.529515,210.634616 112.602216,210.564823 112.689468,210.518191 C112.925108,210.389868 113.216479,210.427136 113.412234,210.610638 C113.517735,210.744158 113.571457,210.911292 113.563511,211.081277 L113.563511,212.115 L113.202128,212.115 L113.202128,211.131702 C113.210703,211.034479 113.180493,210.937808 113.118085,210.862766 C113.059936,210.793924 112.97272,210.756545 112.882766,210.761915 C112.775491,210.757232 112.672434,210.804076 112.605426,210.887979 C112.52729,210.982373 112.485549,211.101632 112.487766,211.224149 L112.487766,212.115 L112.168404,212.115 Z" id="Path" fill="#D8DDE6" fill-rule="nonzero"></path>
                <path d="M114.782128,212.165426 C114.61889,212.166067 114.45775,212.128659 114.311489,212.05617 C114.201068,211.990036 114.108687,211.897656 114.042553,211.787234 C113.968944,211.647403 113.931392,211.491415 113.933298,211.333404 C113.92984,211.178901 113.964476,211.025924 114.034149,210.887979 C114.096034,210.760655 114.192044,210.653007 114.311489,210.577021 C114.43507,210.500996 114.578283,210.463001 114.723298,210.467766 C114.982205,210.452495 115.224643,210.5953 115.336809,210.829149 C115.395964,210.955201 115.424749,211.093365 115.420851,211.232553 L115.420851,211.425851 L114.277872,211.425851 C114.294821,211.557745 114.357235,211.679599 114.454362,211.770426 C114.565292,211.854062 114.702242,211.895743 114.840957,211.888085 C114.921966,211.896772 115.003672,211.896772 115.084681,211.888085 L115.294787,211.795638 L115.362021,212.064574 C115.183052,212.155106 114.981153,212.190219 114.782128,212.165426 Z M114.672872,210.728298 C114.564605,210.721526 114.459236,210.764913 114.387128,210.845957 C114.305293,210.930186 114.254858,211.039958 114.244255,211.156915 L115.084681,211.156915 C115.086208,211.042111 115.044164,210.930995 114.967021,210.845957 C114.895695,210.75881 114.784624,210.714381 114.672872,210.728298 L114.672872,210.728298 Z" id="Shape" fill="#D8DDE6" fill-rule="nonzero"></path>
                <path d="M116.454574,212.148617 C116.290721,212.157092 116.130299,212.099583 116.009149,211.988936 C115.907228,211.857188 115.856474,211.692983 115.866277,211.526702 L115.866277,210.778723 L115.580532,210.778723 L115.580532,210.484574 L115.866277,210.484574 L115.866277,210.106383 L116.210851,209.955106 L116.210851,210.492979 L116.664681,210.492979 L116.664681,210.787128 L116.210851,210.787128 L116.210851,211.493085 C116.200224,211.590544 116.224008,211.688652 116.278085,211.770426 C116.338165,211.829695 116.420808,211.860303 116.505,211.854468 L116.605851,211.854468 L116.689894,211.854468 L116.689894,212.148617 L116.555426,212.148617 L116.454574,212.148617 Z" id="Path" fill="#D8DDE6" fill-rule="nonzero"></path>
                <path d="M106.579574,236.705851 L106.579574,234.478723 L107.260319,234.478723 C107.477942,234.463439 107.693512,234.529307 107.865426,234.663617 C108.005807,234.795465 108.085431,234.979485 108.085431,235.172074 C108.085431,235.364664 108.005807,235.548684 107.865426,235.680532 C107.691101,235.81014 107.477313,235.875463 107.260319,235.865426 L106.932553,235.865426 L106.932553,236.705851 L106.579574,236.705851 Z M107.260319,234.806489 L106.932553,234.806489 L106.932553,235.604894 L107.260319,235.604894 C107.571277,235.604894 107.722553,235.470426 107.722553,235.209894 C107.722553,234.949362 107.571277,234.806489 107.260319,234.806489 Z" id="Shape" fill="#D8DDE6" fill-rule="nonzero"></path>
                <path d="M109.109255,236.747872 C108.95919,236.750379 108.811192,236.712654 108.680638,236.638617 C108.554391,236.565832 108.452154,236.457753 108.386489,236.32766 C108.310981,236.194642 108.273206,236.04354 108.277234,235.890638 C108.271652,235.734905 108.30948,235.580687 108.386489,235.445213 C108.454946,235.319301 108.556704,235.214635 108.680638,235.14266 C108.943548,235.0037 109.258154,235.0037 109.521064,235.14266 C109.647392,235.218045 109.75172,235.325271 109.823617,235.453617 C109.892273,235.588922 109.926891,235.738931 109.924468,235.890638 C109.926917,236.045038 109.892335,236.197777 109.823617,236.336064 C109.750557,236.461328 109.646328,236.565557 109.521064,236.638617 C109.395457,236.709803 109.253631,236.747431 109.109255,236.747872 Z M109.109255,236.445319 C109.198999,236.446082 109.28688,236.419718 109.361383,236.369681 C109.438191,236.326762 109.497631,236.258406 109.529468,236.176383 C109.619443,235.996511 109.619443,235.784766 109.529468,235.604894 C109.494923,235.524538 109.436163,235.456965 109.361383,235.411596 C109.28688,235.361559 109.198999,235.335194 109.109255,235.335957 C109.02197,235.334133 108.936448,235.360674 108.865532,235.411596 C108.788335,235.456484 108.726742,235.523943 108.689043,235.604894 C108.647054,235.69413 108.626889,235.792073 108.630213,235.890638 C108.627817,235.989123 108.647938,236.086854 108.689043,236.176383 C108.729149,236.255701 108.790179,236.322544 108.865532,236.369681 C108.936448,236.420603 109.02197,236.447144 109.109255,236.445319 Z" id="Shape" fill="#D8DDE6" fill-rule="nonzero"></path>
                <path d="M110.680851,236.705851 L110.06734,235.075426 L110.445532,235.075426 L110.806915,236.167979 L111.176702,235.109043 L111.386809,235.109043 L111.765,236.176383 L112.126383,235.075426 L112.49617,235.075426 C112.49617,235.075426 112.49617,235.159468 112.428936,235.235106 C112.361702,235.310745 112.361702,235.42 112.319681,235.529255 C112.27766,235.638511 112.227234,235.764574 112.185213,235.890638 C112.143191,236.016702 112.092766,236.134362 112.050745,236.252021 C112.008723,236.369681 111.966702,236.462128 111.933085,236.54617 L111.874255,236.705851 L111.638936,236.705851 L111.277553,235.663723 L110.907766,236.705851 L110.680851,236.705851 Z" id="Path" fill="#D8DDE6" fill-rule="nonzero"></path>
                <path d="M113.46266,236.747872 C113.302765,236.751382 113.144327,236.716814 113.000426,236.647021 C112.872858,236.580836 112.767624,236.478525 112.697872,236.352872 C112.621378,236.214145 112.583639,236.057384 112.588617,235.899043 C112.586119,235.741944 112.620669,235.586467 112.689468,235.445213 C112.75549,235.322991 112.850778,235.21904 112.966809,235.14266 C113.087583,235.06731 113.22792,235.029302 113.370213,235.033404 C113.499911,235.026912 113.628615,235.059088 113.74,235.125851 C113.845852,235.189662 113.930607,235.283185 113.983723,235.394787 C114.04578,235.520134 114.07745,235.658331 114.07617,235.798191 L114.07617,235.991489 L112.933191,235.991489 C112.944994,236.123094 113.004826,236.24575 113.101277,236.336064 C113.213452,236.417224 113.349503,236.458631 113.487872,236.453723 C113.568603,236.466608 113.650865,236.466608 113.731596,236.453723 C113.809567,236.436825 113.883682,236.405469 113.950106,236.361277 L114.008936,236.638617 C113.840867,236.72604 113.651424,236.763929 113.46266,236.747872 Z M113.361809,235.319149 C113.253032,235.314379 113.146947,235.353782 113.06766,235.428404 C112.989882,235.517767 112.942759,235.629684 112.933191,235.747766 L113.773617,235.747766 C113.776394,235.631698 113.737651,235.51845 113.664362,235.428404 C113.585463,235.347731 113.474047,235.307497 113.361809,235.319149 Z" id="Shape" fill="#D8DDE6" fill-rule="nonzero"></path>
                <path d="M114.445957,236.705851 L114.445957,235.075426 L114.756915,235.075426 L114.756915,235.319149 C114.796385,235.227873 114.860386,235.149326 114.941809,235.092234 C115.019998,235.035858 115.114367,235.006367 115.210745,235.008191 L115.311596,235.008191 L115.395638,235.008191 L115.395638,235.344362 L115.311596,235.344362 L115.227553,235.344362 C115.116162,235.340329 115.009701,235.390429 114.941809,235.47883 C114.864761,235.576613 114.825927,235.69909 114.832553,235.823404 L114.832553,236.66383 L114.445957,236.705851 Z" id="Path" fill="#D8DDE6" fill-rule="nonzero"></path>
                <path d="M105.638298,251.018298 L105.638298,248.824787 L106.361064,248.824787 C106.55236,248.812394 106.742145,248.865771 106.898936,248.976064 C107.026487,249.077457 107.098242,249.233447 107.092234,249.396277 C107.106113,249.593672 106.990493,249.777304 106.806489,249.850106 C106.924915,249.881299 107.028866,249.95258 107.100638,250.051809 C107.288099,250.316214 107.244482,250.679688 106.999787,250.892234 C106.833136,251.009204 106.631445,251.065559 106.428298,251.051915 L105.638298,251.018298 Z M106.361064,249.118936 L105.974468,249.118936 L105.974468,249.75766 L106.344255,249.75766 C106.444011,249.765794 106.543135,249.735756 106.621596,249.673617 C106.689376,249.614688 106.726519,249.528021 106.722447,249.438298 C106.727816,249.348344 106.690438,249.261128 106.621596,249.202979 C106.543135,249.140839 106.444011,249.110802 106.344255,249.118936 L106.361064,249.118936 Z M106.428298,250.026596 L105.974468,250.026596 L105.974468,250.732553 L106.411489,250.732553 C106.520255,250.739797 106.627901,250.706905 106.714043,250.640106 C106.784924,250.57197 106.824984,250.477894 106.824984,250.379574 C106.824984,250.281255 106.784924,250.187179 106.714043,250.119043 C106.627901,250.052244 106.520255,250.019352 106.411489,250.026596 L106.428298,250.026596 Z" id="Shape" fill="#D8DDE6" fill-rule="nonzero"></path>
                <path d="M108.025106,251.060319 C107.874732,251.06633 107.727639,251.015298 107.613298,250.917447 C107.509638,250.826241 107.451257,250.694116 107.453617,250.556064 C107.448263,250.40235 107.517042,250.255414 107.638511,250.161064 C107.792766,250.060342 107.975843,250.013097 108.159574,250.026596 L108.495745,250.026596 C108.510446,249.920933 108.474123,249.814564 108.397864,249.739963 C108.321605,249.665361 108.214463,249.631384 108.109149,249.648404 C108.033913,249.637366 107.95747,249.637366 107.882234,249.648404 C107.803307,249.680926 107.727378,249.720296 107.655319,249.766064 L107.579681,249.497128 C107.750308,249.380225 107.952752,249.318612 108.159574,249.320638 C108.341974,249.309642 108.520993,249.37336 108.655426,249.497128 C108.780514,249.627357 108.844633,249.804449 108.831915,249.984574 L108.831915,250.993085 L108.520957,250.993085 L108.520957,250.799787 C108.410274,250.964793 108.223781,251.062781 108.025106,251.060319 L108.025106,251.060319 Z M107.798191,250.539255 C107.794122,250.610952 107.82554,250.680072 107.882234,250.724149 C107.948984,250.769731 108.028342,250.793244 108.109149,250.791383 C108.21283,250.795488 108.313465,250.755844 108.386489,250.682128 C108.460386,250.616241 108.500543,250.520483 108.495745,250.421596 L108.495745,250.253511 L108.235213,250.253511 C108.119229,250.246497 108.003407,250.269661 107.899043,250.320745 C107.830589,250.371802 107.792634,250.454039 107.798191,250.539255 L107.798191,250.539255 Z" id="Shape" fill="#D8DDE6" fill-rule="nonzero"></path>
                <path d="M109.941277,251.043511 C109.78106,251.054858 109.62317,251.000203 109.504255,250.892234 C109.396423,250.763255 109.342267,250.597776 109.352979,250.43 L109.352979,249.682021 L109.067234,249.682021 L109.067234,249.387872 L109.352979,249.387872 L109.352979,249.001277 L109.697553,248.841596 L109.697553,249.387872 L110.159787,249.387872 L110.159787,249.682021 L109.697553,249.682021 L109.697553,250.387979 C109.691269,250.485109 109.714721,250.58185 109.764787,250.665319 C109.827316,250.719778 109.909004,250.747007 109.991702,250.740957 L110.092553,250.740957 L110.185,250.740957 L110.185,251.035106 L110.050532,251.077128 L109.941277,251.043511 Z" id="Path" fill="#D8DDE6" fill-rule="nonzero"></path>
                <path d="M111.235532,251.043511 C111.075315,251.054858 110.917426,251.000203 110.798511,250.892234 C110.70669,250.762885 110.664887,250.604629 110.680851,250.446809 L110.680851,249.69883 L110.395106,249.69883 L110.395106,249.404681 L110.680851,249.404681 L110.680851,249.018085 L111.025426,248.858404 L111.025426,249.404681 L111.48766,249.404681 L111.48766,249.69883 L111.025426,249.69883 L111.025426,250.404787 C111.019141,250.501918 111.042593,250.598658 111.09266,250.682128 C111.155188,250.736586 111.236877,250.763816 111.319574,250.757766 L111.420426,250.757766 L111.512872,250.757766 L111.512872,251.051915 L111.378404,251.093936 L111.235532,251.043511 Z" id="Path" fill="#D8DDE6" fill-rule="nonzero"></path>
                <path d="M112.588617,251.060319 C112.425958,251.064522 112.264633,251.029953 112.117979,250.959468 C111.993753,250.888744 111.88962,250.787504 111.815426,250.665319 C111.738931,250.526592 111.701192,250.36983 111.70617,250.211489 C111.703672,250.054391 111.738222,249.898914 111.807021,249.75766 C111.873043,249.635438 111.968331,249.531487 112.084362,249.455106 C112.207942,249.379081 112.351155,249.341086 112.49617,249.345851 C112.62577,249.340349 112.754194,249.372456 112.865957,249.438298 C112.969769,249.504556 113.053929,249.597422 113.109681,249.707234 C113.168837,249.833286 113.197621,249.97145 113.193723,250.110638 L113.193723,250.303936 L112.050745,250.303936 C112.061221,250.441089 112.127271,250.56801 112.233589,250.655286 C112.339907,250.742562 112.477264,250.782617 112.61383,250.76617 C112.69456,250.779055 112.776823,250.779055 112.857553,250.76617 C112.932912,250.749243 113.004267,250.717847 113.06766,250.673723 L113.134894,250.951064 C112.966825,251.038487 112.777382,251.076375 112.588617,251.060319 L112.588617,251.060319 Z M112.479362,249.631596 C112.372977,249.626147 112.269228,249.665815 112.193617,249.740851 C112.11329,249.829434 112.06325,249.941289 112.050745,250.060213 L112.89117,250.060213 C112.890857,249.943211 112.849181,249.830089 112.773511,249.740851 C112.702972,249.651102 112.593386,249.601006 112.479362,249.606383 L112.479362,249.631596 Z" id="Shape" fill="#D8DDE6" fill-rule="nonzero"></path>
                <path d="M113.563511,251.018298 L113.563511,249.387872 L113.874468,249.387872 L113.874468,249.656809 C113.913938,249.565533 113.977939,249.486986 114.059362,249.429894 C114.136975,249.372373 114.231743,249.342757 114.328298,249.345851 L114.429149,249.345851 L114.504787,249.345851 L114.504787,249.682021 C114.476984,249.677155 114.448548,249.677155 114.420745,249.682021 L114.336702,249.682021 C114.228244,249.680695 114.125492,249.730514 114.059362,249.816489 C113.979982,249.913462 113.93821,250.035794 113.941702,250.161064 L113.941702,251.001489 L113.563511,251.018298 Z" id="Path" fill="#D8DDE6" fill-rule="nonzero"></path>
                <polygon id="Path" fill="#D8DDE6" fill-rule="nonzero" points="114.975426 251.67383 115.345213 250.833404 114.698085 249.354255 115.076277 249.354255 115.530106 250.472021 115.983936 249.354255 116.353723 249.354255 115.345213 251.640213"></polygon>
                <polygon id="Path" fill="#D8DDE6" fill-rule="nonzero" points="101.074787 103.742128 101.074787 101.943617 100.604149 102.153723 100.595745 101.859574 101.268085 101.548617 101.43617 101.548617 101.43617 103.742128"></polygon>
                <path d="M100.25117,117.37383 L100.25117,117.214149 L100.957128,116.440957 L101.175638,116.172021 C101.224053,116.11059 101.263655,116.042701 101.293298,115.970319 C101.305301,115.912102 101.305301,115.852047 101.293298,115.79383 C101.296745,115.697615 101.256603,115.60498 101.184043,115.541702 C101.102368,115.478737 101.001376,115.446063 100.898298,115.449255 C100.707186,115.449022 100.524558,115.528161 100.394043,115.667766 L100.301596,115.365213 C100.385134,115.286928 100.485888,115.229355 100.595745,115.197128 C100.705535,115.153868 100.82232,115.131081 100.940319,115.129887 C101.068375,115.12937 101.194857,115.158115 101.310106,115.213936 C101.412379,115.266468 101.499257,115.344658 101.562234,115.440851 C101.626804,115.540772 101.659078,115.658134 101.654681,115.777021 C101.665717,115.855073 101.665717,115.934289 101.654681,116.01234 C101.618184,116.106558 101.567138,116.19447 101.503404,116.272872 C101.43617,116.365319 101.335319,116.482979 101.209255,116.625851 L100.814255,117.062872 L101.738723,117.062872 L101.738723,117.37383 L100.25117,117.37383 Z" id="Path" fill="#D8DDE6" fill-rule="nonzero"></path>
                <path d="M254.511277,139.88883 C254.089542,139.885251 253.684564,139.72326 253.376702,139.435 C253.063093,139.123288 252.884941,138.700556 252.880851,138.258404 L252.880851,58.0818085 C252.880851,57.1813494 253.610817,56.4513611 254.511277,56.4513611 L307.046277,56.4513611 C307.479378,56.4491331 307.895392,56.6201869 308.201645,56.9264401 C308.507898,57.2326933 308.678952,57.648707 308.676724,58.0818085 L308.676724,138.258404 C308.676724,139.158863 307.946736,139.88883 307.046277,139.88883 L254.511277,139.88883 Z" id="Path" fill="#BDC1C6" fill-rule="nonzero"></path>
                <path d="M308.25649,58.0818085 L308.25649,138.258404 C308.251909,138.92488 307.712752,139.464036 307.046277,139.468617 L254.511277,139.468617 C254.196914,139.459904 253.897159,139.334007 253.670851,139.115638 L253.670851,139.115638 C253.452715,138.889889 253.329399,138.589118 253.326277,138.275213 L253.326277,58.0818085 C253.330857,57.4153331 253.870014,56.8761765 254.536489,56.8715957 L307.071489,56.8715957 C307.383588,56.8757464 307.68305,56.9955312 307.911915,57.207766 L307.911915,57.207766 C308.13363,57.4447657 308.25649,57.7572683 308.25649,58.0818085 Z" id="Path" fill="#F8F8F8" fill-rule="nonzero"></path>
                <path d="M280.782979,96.5060638 C280.687928,96.4973869 280.592285,96.4973869 280.497234,96.5060638 C279.372446,96.6445147 278.527436,97.5999142 278.527436,98.7331915 C278.527436,99.8664688 279.372446,100.821868 280.497234,100.960319 C280.592285,100.968996 280.687928,100.968996 280.782979,100.960319 C282.026912,100.960319 283.035319,99.951912 283.035319,98.7079787 C283.035319,97.4640455 282.026912,96.4556383 280.782979,96.4556383 L280.782979,96.5060638 Z" id="Path" fill="#D8DDE6" fill-rule="nonzero"></path>
                <path d="M283.035319,98.1701064 C283.03069,99.4107563 282.023637,100.414043 280.782979,100.414043 L280.497234,100.414043 C279.382402,100.260693 278.551822,99.3080418 278.551822,98.1827128 C278.551822,97.0573837 279.382402,96.1047323 280.497234,95.951383 L280.782979,95.951383 C282.026912,95.951383 283.035319,96.9597901 283.035319,98.2037234 L283.035319,98.1701064 Z" id="Path" fill="#FFFFFF" fill-rule="nonzero"></path>
                <path d="M281.119149,95.9429787 L281.119149,100.38883 C281.007247,100.397173 280.89488,100.397173 280.782979,100.38883 L280.497234,100.38883 L280.497234,95.9261702 L280.782979,95.9261702 C280.895297,95.9234119 281.007666,95.9290303 281.119149,95.9429787 Z" id="Path" fill="#D8DDE6" fill-rule="nonzero"></path>
                <path d="M307.903511,57.2245745 L303.407234,61.7124468 L258.158723,61.7124468 L258.158723,134.610957 L253.654043,139.115638 L253.654043,139.115638 C253.435906,138.889889 253.31259,138.589118 253.309468,138.275213 L253.309468,58.0818085 C253.314049,57.4153331 253.853205,56.8761765 254.519681,56.8715957 L307.054681,56.8715957 C307.366779,56.8757464 307.666241,56.9955312 307.895106,57.207766 L307.903511,57.2245745 Z" id="Path" fill="#FFFFFF" fill-rule="nonzero"></path>
                <path d="M253.654043,139.115638 L258.150319,134.627766 L303.39883,134.627766 L303.39883,61.7292553 L307.903511,57.2245745 L307.903511,57.2245745 C308.121647,57.4503241 308.244963,57.7510944 308.248085,58.065 L308.248085,138.241596 C308.243504,138.908071 307.704348,139.447228 307.037872,139.451809 L254.511277,139.451809 C254.19853,139.450952 253.897913,139.330706 253.670851,139.115638 L253.654043,139.115638 Z" id="Path" fill="#EFF2F4" fill-rule="nonzero"></path>
                <path d="M278.480213,89.7154255 L278.480213,89.7070213" id="Path"></path>
                <path d="M271.050851,91.707234 L270.924787,91.5307447 C268.896579,88.7337981 267.765342,85.3869789 267.680745,81.9330851 L267.680745,81.798617 C267.60899,78.0839622 268.747635,74.4467876 270.924787,71.4361702 L271.050851,71.2680851 L290.531915,71.2680851 L290.657979,71.4361702 C292.823478,74.4553381 293.958126,78.0921051 293.893617,81.8070213 L293.893617,81.9162766 C293.804337,85.3771836 292.667328,88.7296012 290.632766,91.5307447 L290.506702,91.707234 L271.050851,91.707234 Z" id="Path" fill="#BDC1C6" fill-rule="nonzero"></path>
                <rect id="Rectangle" fill="#0E1314" fill-rule="nonzero" x="274.908404" y="75.2853191" width="1.51276596" height="8.2193617"></rect>
                <path d="M290.296596,71.7219149 L271.269362,71.7219149 C269.137878,74.6462254 268.02481,78.1891466 268.100957,81.8070213 L268.100957,81.9246809 C268.182278,85.2973097 269.287297,88.5654701 271.269362,91.2954255 L290.296596,91.2954255 C292.283219,88.5667004 293.394001,85.2988332 293.481809,81.9246809 L293.481809,81.8070213 C293.543818,78.1885646 292.425699,74.6483451 290.296596,71.7219149 Z M286.699574,75.2853191 L286.699574,83.5046809 L285.186809,83.5046809 L285.186809,75.2853191 L286.699574,75.2853191 Z M276.429574,75.2853191 L276.429574,83.5046809 L274.916809,83.5046809 L274.916809,75.2853191 L276.429574,75.2853191 Z" id="Shape" fill="#FFFFFF" fill-rule="nonzero"></path>
                <rect id="Rectangle" fill="#0E1314" fill-rule="nonzero" x="285.186809" y="75.2853191" width="1.51276596" height="8.2193617"></rect>
                <path d="M282.757979,85.8998936 C282.683796,85.8173098 282.605243,85.7387576 282.52266,85.6645745 L281.514149,86.6730851 L281.707447,86.8411702 C281.918779,87.0713038 282.040975,87.3693449 282.052021,87.6815957 L282.052021,88.6732979 L279.471915,88.6732979 L278.480213,89.665 L278.480213,89.665 C278.726198,89.9580998 279.089271,90.1273288 279.471915,90.1272341 L282.052021,90.1272341 C282.780743,90.1272341 283.371489,89.5364881 283.371489,88.807766 L283.371489,87.5303191 C283.367197,86.9312128 283.149703,86.3532136 282.757979,85.8998936 L282.757979,85.8998936 Z" id="Path" fill="#FFFFFF" fill-rule="nonzero"></path>
                <path d="M282.060432,87.723617 L282.060432,88.7153191 L279.480306,88.7153191 L279.480306,87.723617 C279.477899,87.196292 279.797687,86.7209426 280.287045,86.5244579 C280.776403,86.3279732 281.336122,86.4501873 281.699043,86.832766 C281.931672,87.0708321 282.061456,87.3907646 282.060432,87.723617 L282.060432,87.723617 Z" id="Path" fill="#0E1314" fill-rule="nonzero"></path>
                <path d="M277.438085,74.2768085 L276.42117,75.2853191 L274.908404,75.2853191 L274.908404,83.5046809 L273.958723,84.462766 L273.958723,84.462766 C273.699197,84.1743848 273.55551,83.8002001 273.555292,83.412234 L273.555292,75.2769149 C273.553114,74.9097143 273.684547,74.5542473 273.925106,74.2768085 C273.951292,74.2367125 273.982344,74.2000146 274.017553,74.1675532 C274.309894,73.8702054 274.709931,73.7035234 275.126915,73.7053048 L276.496809,73.7053048 L276.740532,73.7725532 C276.803071,73.7836492 276.862951,73.8064606 276.917021,73.8397872 C277.094329,73.9163114 277.254396,74.0277861 277.38766,74.1675532 L277.38766,74.1675532 C277.408322,74.202066 277.425227,74.2386935 277.438085,74.2768085 Z" id="Path" fill="#EFF2F4" fill-rule="nonzero"></path>
                <path d="M287.724894,74.2768085 L286.707979,75.2853191 L285.203617,75.2853191 L285.203617,83.5046809 L284.245532,84.462766 L284.245532,84.462766 C283.988361,84.1735588 283.847615,83.7992344 283.850532,83.412234 L283.850532,75.2769149 C283.845222,74.9106678 283.973717,74.5550652 284.211915,74.2768085 C284.238101,74.2367125 284.269153,74.2000146 284.304362,74.1675532 C284.599287,73.8689196 285.002422,73.7022098 285.422128,73.7052764 L286.783617,73.7052764 L287.02734,73.7725532 C287.08988,73.7836492 287.149759,73.8064606 287.20383,73.8397872 C287.382328,73.9141576 287.542812,74.0259232 287.674468,74.1675532 L287.674468,74.1675532 C287.698841,74.1999795 287.716031,74.2372237 287.724894,74.2768085 L287.724894,74.2768085 Z" id="Path" fill="#EFF2F4" fill-rule="nonzero"></path>
                <path d="M281.514149,86.6730851 L279.471915,88.7153191" id="Path"></path>
                <path d="M282.52266,85.6645745 L281.514149,86.6730851 C281.294616,86.5129615 281.029484,86.4275302 280.757766,86.4293617 C280.046253,86.433982 279.4719,87.0120888 279.471915,87.723617 L279.471915,88.7153191 L278.480213,89.7070213 C278.279275,89.4725362 278.166344,89.1753499 278.160851,88.8665957 L278.160851,87.5891489 C278.148556,86.5511012 278.757614,85.6061219 279.708064,85.1885831 C280.658515,84.7710443 281.766476,84.9617259 282.52266,85.6729787 L282.52266,85.6645745 Z" id="Path" fill="#EFF2F4" fill-rule="nonzero"></path>
                <path d="M271.050851,125.038511 L270.924787,124.862021 C268.896579,122.065075 267.765342,118.718255 267.680745,115.264362 L267.680745,115.138298 C267.61509,111.437501 268.753585,107.815553 270.924787,104.817872 L271.050851,104.641383 L290.531915,104.641383 L290.657979,104.817872 C292.816375,107.82151 293.950843,111.440023 293.893617,115.138298 L293.893617,115.255957 C293.805809,118.714542 292.668572,122.0647 290.632766,124.862021 L290.506702,125.038511 L271.050851,125.038511 Z" id="Path" fill="#BDC1C6" fill-rule="nonzero"></path>
                <rect id="Rectangle" fill="#0E1314" fill-rule="nonzero" x="274.908404" y="108.625" width="1.51276596" height="8.2193617"></rect>
                <path d="M290.296596,105.053191 L271.269362,105.053191 C269.139,107.978068 268.026054,111.520601 268.100957,115.138298 L268.100957,115.264362 C268.183971,118.634105 269.288908,121.899091 271.269362,124.626702 L290.296596,124.626702 C292.282086,121.900567 293.392837,118.635721 293.481809,115.264362 L293.481809,115.138298 C293.542594,111.520019 292.424594,107.980179 290.296596,105.053191 Z M286.699574,108.616596 L286.699574,116.819149 L285.186809,116.819149 L285.186809,108.599787 L286.699574,108.616596 Z M276.429574,108.616596 L276.429574,116.819149 L274.916809,116.819149 L274.916809,108.599787 L276.429574,108.616596 Z" id="Shape" fill="#FFFFFF" fill-rule="nonzero"></path>
                <rect id="Rectangle" fill="#0E1314" fill-rule="nonzero" x="285.186809" y="108.616596" width="1.51276596" height="8.2193617"></rect>
                <path d="M282.757979,119.23117 C282.683721,119.151312 282.605165,119.075561 282.52266,119.004255 L281.514149,120.004362 L281.707447,120.172447 C281.917527,120.403373 282.039528,120.700935 282.052021,121.012872 L282.052021,122.004574 L279.471915,122.004574 L278.480213,122.996277 L278.480213,122.996277 C278.727794,123.286245 279.090637,123.452291 279.471915,123.450133 L282.052021,123.450133 C282.401191,123.452345 282.736828,123.315204 282.984521,123.069089 C283.232214,122.822974 283.371489,122.488219 283.371489,122.139043 L283.371489,120.853191 C283.361645,120.25766 283.144719,119.684145 282.757979,119.23117 L282.757979,119.23117 Z" id="Path" fill="#FFFFFF" fill-rule="nonzero"></path>
                <path d="M282.060426,121.021277 L282.060426,122.012979 L279.480319,122.012979 L279.480319,121.021277 C279.478081,120.678794 279.612565,120.349569 279.853952,120.106605 C280.095339,119.86364 280.42368,119.727013 280.76617,119.727013 C281.121468,119.725731 281.460588,119.875433 281.699043,120.13883 C281.932745,120.372762 282.062914,120.690618 282.060426,121.021277 L282.060426,121.021277 Z" id="Path" fill="#0E1314" fill-rule="nonzero"></path>
                <path d="M277.438085,107.574468 L276.42117,108.591383 L274.908404,108.591383 L274.908404,116.819149 L273.958723,117.76883 L273.958723,117.76883 C273.697801,117.481306 273.553899,117.106561 273.555292,116.718298 L273.555292,108.608191 C273.553114,108.240991 273.684547,107.885524 273.925106,107.608085 L274.017553,107.49883 C274.31253,107.205406 274.710861,107.039435 275.126915,107.036596 L276.244681,107.036596 C276.325693,107.027973 276.407392,107.027973 276.488404,107.036596 C276.571368,107.048219 276.652997,107.067923 276.732128,107.095426 C276.796188,107.106066 276.856733,107.132013 276.908617,107.171064 C277.085536,107.24449 277.245664,107.353149 277.379255,107.490426 C277.401626,107.516402 277.421334,107.544557 277.438085,107.574468 Z" id="Path" fill="#EFF2F4" fill-rule="nonzero"></path>
                <path d="M287.724894,107.574468 L286.707979,108.591383 L285.203617,108.591383 L285.203617,116.819149 L284.245532,117.76883 L284.245532,117.76883 C283.986951,117.480476 283.845992,117.105585 283.850532,116.718298 L283.850532,108.608191 C283.845222,108.241944 283.973717,107.886342 284.211915,107.608085 L284.304362,107.49883 C284.601408,107.203367 285.003159,107.037229 285.422128,107.036596 L286.539894,107.036596 C286.620906,107.027973 286.702605,107.027973 286.783617,107.036596 C286.866581,107.048219 286.94821,107.067923 287.02734,107.095426 C287.091401,107.106066 287.151945,107.132013 287.20383,107.171064 C287.381809,107.242511 287.542324,107.351432 287.674468,107.490426 C287.696612,107.514872 287.713744,107.543425 287.724894,107.574468 Z" id="Path" fill="#EFF2F4" fill-rule="nonzero"></path>
                <path d="M281.514149,120.004362 L279.471915,122.046596" id="Path"></path>
                <path d="M282.52266,119.004255 L281.514149,120.004362 C281.292073,119.850305 281.028044,119.768162 280.757766,119.769043 C280.049518,119.773627 279.476499,120.346645 279.471915,121.054894 L279.471915,122.046596 L278.480213,123.038298 C278.277396,122.804933 278.164195,122.507037 278.160837,122.197872 L278.160837,120.912021 C278.158617,120.221822 278.431234,119.559125 278.918492,119.07029 C279.40575,118.581455 280.067563,118.306699 280.757766,118.306699 C281.413479,118.305717 282.044804,118.555241 282.52266,119.004255 L282.52266,119.004255 Z" id="Path" fill="#EFF2F4" fill-rule="nonzero"></path>
                <polygon id="Rectangle" fill="#D8DDE6" fill-rule="nonzero" transform="translate(119.101915, 241.735798) rotate(90.000000) translate(-119.101915, -241.735798) " points="117.164734 236.382287 121.039096 236.382287 121.039096 247.089309 117.164734 247.089309"></polygon>
                <polygon id="Rectangle" fill="#171B1C" fill-rule="nonzero" transform="translate(130.052660, 241.735798) rotate(-90.000000) translate(-130.052660, -241.735798) " points="126.350585 234.264415 133.754734 234.264415 133.754734 249.207181 126.350585 249.207181"></polygon>
                <polygon id="Rectangle" fill="#171B1C" fill-rule="nonzero" transform="translate(113.160106, 241.735798) rotate(90.000000) translate(-113.160106, -241.735798) " points="111.222926 241.164309 115.097287 241.164309 115.097287 242.307287 111.222926 242.307287"></polygon>
                <path d="M271.790425,133.862979 L271.790425,139.334149 C271.789817,140.495625 272.128672,141.631958 272.765319,142.603404 L274.000745,144.460745 C275.027176,146.020613 275.260626,147.972259 274.631064,149.730213 L286.943298,149.730213 C286.306661,147.972033 286.543767,146.015908 287.582021,144.460745 L288.809043,142.603404 C289.448208,141.632673 289.789964,140.496408 289.79234,139.334149 L289.79234,133.862979 L271.790425,133.862979 Z" id="Path" fill="#171B1C" fill-rule="nonzero"></path>
                <rect id="Rectangle" fill="#171B1C" fill-rule="nonzero" transform="translate(280.782979, 150.713511) rotate(-180.000000) translate(-280.782979, -150.713511) " x="272.664468" y="149.730213" width="16.2370213" height="1.96659574"></rect>
                <rect id="Rectangle" fill="#232A2D" fill-rule="nonzero" transform="translate(280.782979, 147.108085) rotate(-180.000000) translate(-280.782979, -147.108085) " x="278.497021" y="146.721489" width="4.57191489" height="1"></rect>
                <rect id="Rectangle" fill="#232A2D" fill-rule="nonzero" transform="translate(280.782979, 145.570106) rotate(-180.000000) translate(-280.782979, -145.570106) " x="278.497021" y="145.183511" width="4.57191489" height="1"></rect>
                <rect id="Rectangle" fill="#232A2D" fill-rule="nonzero" transform="translate(280.782979, 144.015319) rotate(-180.000000) translate(-280.782979, -144.015319) " x="278.497021" y="143.628723" width="4.57191489" height="1"></rect>
                <rect id="Rectangle" fill="#232A2D" fill-rule="nonzero" transform="translate(280.782979, 134.648777) rotate(-180.000000) translate(-280.782979, -134.648777) " x="271.782021" y="133.854574" width="18.0019149" height="1.58840426"></rect>
                <path d="M285.817128,119.844681 L287.044149,119.844681 L287.044149,131.106383 C287.044149,131.310611 286.87859,131.47617 286.674362,131.47617 L286.186915,131.47617 C285.982687,131.47617 285.817128,131.310611 285.817128,131.106383 L285.817128,119.844681 L285.817128,119.844681 Z" id="Path" fill="#9BA9BD" fill-rule="nonzero" transform="translate(286.430638, 125.660426) rotate(180.000000) translate(-286.430638, -125.660426) "></path>
                <path d="M274.505,119.844681 L275.732021,119.844681 L275.732021,131.106383 C275.732021,131.310611 275.566462,131.47617 275.362234,131.47617 L274.874787,131.47617 C274.776714,131.47617 274.682657,131.437211 274.613308,131.367862 C274.54396,131.298513 274.505,131.204457 274.505,131.106383 L274.505,119.844681 Z" id="Path" fill="#9BA9BD" fill-rule="nonzero" transform="translate(275.118511, 125.660426) rotate(-180.000000) translate(-275.118511, -125.660426) "></path>
                <polygon id="Path" fill="#232A2D" fill-rule="nonzero" points="277.160745 151.696809 277.219574 152.453191 277.286809 153.192766 277.345638 153.949149 277.404468 154.697128 277.471702 155.445106 277.530532 156.193085 277.597766 156.941064 277.656596 157.689043 277.72383 158.437021 277.78266 159.185 277.849894 159.932979 283.732872 159.932979 283.791702 159.185 283.858936 158.437021 283.917766 157.689043 283.985 156.941064 284.04383 156.193085 284.10266 155.445106 284.169894 154.697128 284.228723 153.949149 284.295957 153.192766 284.354787 152.453191 284.422021 151.696809"></polygon>
                <polygon id="Path" fill="#171B1C" fill-rule="nonzero" points="277.219574 152.453191 277.286809 153.192766 284.295957 153.192766 284.354787 152.453191"></polygon>
                <polygon id="Path" fill="#171B1C" fill-rule="nonzero" points="277.345638 153.949149 277.404468 154.697128 284.169894 154.697128 284.228723 153.949149"></polygon>
                <polygon id="Path" fill="#171B1C" fill-rule="nonzero" points="277.471702 155.445106 277.530532 156.193085 284.04383 156.193085 284.10266 155.445106"></polygon>
                <polygon id="Path" fill="#171B1C" fill-rule="nonzero" points="277.597766 156.941064 277.656596 157.689043 283.917766 157.689043 283.985 156.941064"></polygon>
                <polygon id="Path" fill="#171B1C" fill-rule="nonzero" points="277.72383 158.437021 277.78266 159.185 283.791702 159.185 283.858936 158.437021"></polygon>
                <rect id="Rectangle" fill="#171B1C" fill-rule="nonzero" transform="translate(280.787181, 132.661170) rotate(-180.000000) translate(-280.787181, -132.661170) " x="268.899362" y="131.467766" width="23.7756383" height="2.38680851"></rect>
                <path d="M280.774574,159.932979 L280.774574,192.264149 C280.774574,196.905691 277.011861,200.668404 272.370319,200.668404 L217.574574,200.668404 C212.933032,200.668404 209.170319,204.431118 209.170319,209.07266 L209.170319,233.335745 C209.170319,237.977287 205.407606,241.74 200.766064,241.74 L137.574468,241.74" id="Path" stroke="#000000" stroke-width="5"></path>
                <circle id="Oval" fill="#FFFFFF" fill-rule="nonzero" cx="280.791383" cy="134.199149" r="58.8297872"></circle>
                <g id="Group" transform="translate(254.393617, 86.563830)">
                    <path d="M7.28648936,40.4580851 L7.0343617,40.1219149 C3.05131232,34.6314093 0.82979383,28.0606382 0.66393617,21.2795745 L0.66393617,21.0106383 C0.539924812,13.7425828 2.77509767,6.630133 7.0343617,0.739574468 L7.28648936,0.403404255 L45.4838298,0.403404255 L45.7275532,0.739574468 C49.9821597,6.6329328 52.2194886,13.7428631 52.106383,21.0106383 L52.106383,21.2291489 C51.9366653,28.0212962 49.7061785,34.6013789 45.7107447,40.0967021 L45.4670213,40.4328723 L7.28648936,40.4580851 Z" id="Path" fill="#BDC1C6" fill-rule="nonzero"></path>
                    <rect id="Rectangle" fill="#0E1314" fill-rule="nonzero" x="14.8587234" y="8.24457447" width="2.96670213" height="16.127766"></rect>
                    <path d="M45.063617,1.23542553 L7.70670213,1.23542553 C3.53548735,6.97721659 1.35190979,13.9233539 1.48755319,21.0190426 L1.48755319,21.2543617 C1.65171559,27.869449 3.82040749,34.2788128 7.70670213,39.6344681 L45.063617,39.6344681 C48.9429749,34.2763563 51.1056475,27.8674608 51.2659574,21.2543617 L51.2659574,21.0106383 C51.3954545,13.9210384 49.2188172,6.98116369 45.063617,1.23542553 L45.063617,1.23542553 Z M37.9956383,8.23617021 L37.9956383,24.3723404 L35.0289362,24.3723404 L35.0289362,8.23617021 L37.9956383,8.23617021 Z M17.8254255,8.23617021 L17.8254255,24.3723404 L14.8587234,24.3723404 L14.8587234,8.23617021 L17.8254255,8.23617021 Z" id="Shape" fill="#FFFFFF" fill-rule="nonzero"></path>
                    <rect id="Rectangle" fill="#0E1314" fill-rule="nonzero" x="35.0205319" y="8.23617021" width="2.97510638" height="16.1361702"></rect>
                    <path d="M30.2553191,29.0703191 C30.1169116,28.9066988 29.9651097,28.7548969 29.8014894,28.6164894 L27.8096809,30.5830851 C27.9452464,30.6839729 28.0717865,30.7964529 28.1878723,30.9192553 C28.63024,31.3871715 28.8768129,32.0066106 28.8770213,32.6505319 L28.8770213,34.5919149 L23.8344681,34.5919149 L21.8510638,36.5417021 L21.8510638,36.5417021 C22.3310052,37.1179149 23.0425379,37.4505796 23.7924468,37.4493755 L28.835,37.4493755 C29.5222006,37.4516038 30.1819019,37.1796066 30.6678287,36.6936798 C31.1537555,36.207753 31.4257527,35.5480517 31.4235106,34.8608511 L31.4235106,32.3395745 C31.43335,31.1459027 31.0194033,29.9874475 30.2553191,29.0703191 L30.2553191,29.0703191 Z" id="Path" fill="#FFFFFF" fill-rule="nonzero"></path>
                    <path d="M28.8854255,32.6421277 L28.8854255,34.5919149 L23.8428723,34.5919149 L23.8428723,32.6421277 C23.8428723,31.249665 24.9716863,30.1208511 26.3641489,30.1208511 C27.7566116,30.1208511 28.8854255,31.249665 28.8854255,32.6421277 Z" id="Path" fill="#0E1314" fill-rule="nonzero"></path>
                    <path d="M19.817234,6.25276596 L17.8254255,8.24457447 L14.8587234,8.24457447 L14.8587234,24.3723404 L12.9845745,26.2464894 L12.9425532,26.1960638 C12.4295408,25.633555 12.1474496,24.8983175 12.1524851,24.1370213 L12.1524851,8.2193617 C12.1528436,7.50036872 12.405681,6.80432221 12.8669149,6.25276596 C12.9241161,6.17383869 12.9888531,6.10065779 13.0602128,6.03425532 C13.6361647,5.45523209 14.4202295,5.13131342 15.2369149,5.135 L17.447234,5.135 C17.6038335,5.12174559 17.7612729,5.12174559 17.9178723,5.135 C18.0802191,5.16243572 18.2403309,5.20176142 18.3969149,5.25265957 C18.5223507,5.27820043 18.6420075,5.32663294 18.7498936,5.39553191 C19.0973957,5.54495787 19.4116628,5.76208791 19.6743617,6.03425532 C19.7356375,6.09719231 19.7841537,6.17139351 19.817234,6.25276596 Z" id="Path" fill="#EFF2F4" fill-rule="nonzero"></path>
                    <path d="M40.0126596,6.25276596 L38.0208511,8.24457447 L35.0541489,8.24457447 L35.0541489,24.3723404 L33.18,26.2464894 L33.1295745,26.1960638 C32.622446,25.6305548 32.3438435,24.8966019 32.3479302,24.1370213 L32.3479302,8.2193617 C32.3439004,7.49960576 32.5972667,6.80210341 33.0623404,6.25276596 C33.1164562,6.17388876 33.1784019,6.10068021 33.247234,6.03425532 C33.8268291,5.45553898 34.6132963,5.13187748 35.4323404,5.135 L37.6342553,5.135 C37.7936612,5.12174785 37.953892,5.12174785 38.1132979,5.135 C38.2729202,5.16229385 38.4302487,5.20162597 38.5839362,5.25265957 C38.7116219,5.27946465 38.833823,5.32777671 38.9453191,5.39553191 C39.2928212,5.54495787 39.6070884,5.76208791 39.8697872,6.03425532 C39.8697872,6.03425532 39.8697872,6.03425532 39.8697872,6.03425532 C39.9301347,6.09793112 39.9785301,6.17194766 40.0126596,6.25276596 L40.0126596,6.25276596 Z" id="Path" fill="#EFF2F4" fill-rule="nonzero"></path>
                    <path d="M27.8096809,30.5830851 L23.8008511,34.5919149" id="Path"></path>
                    <path d="M29.8014894,28.6164894 L27.8096809,30.5830851 C27.380724,30.27624 26.8663423,30.1116379 26.3389362,30.1124468 C24.9464736,30.1124468 23.8176596,31.2412608 23.8176596,32.6337234 L23.8176596,34.5751064 L21.8510638,36.5417021 C21.4502218,36.0733493 21.2296893,35.4773155 21.2291489,34.8608511 L21.2291489,32.3395745 C21.1717464,30.2860148 22.3658781,28.4029342 24.2478696,27.5792167 C26.129861,26.7554991 28.323412,27.1558451 29.7930851,28.5912766 L29.8014894,28.6164894 Z" id="Path" fill="#EFF2F4" fill-rule="nonzero"></path>
                    <path d="M8.72361702,57.7708511 L8.72361702,68.5114894 C8.72361702,70.7951195 9.3959316,73.0282153 10.6565957,74.9323404 L13.068617,78.5797872 C15.0775827,81.6453814 15.5289033,85.4769377 14.287234,88.9254255 L38.4494681,88.9254255 C37.2152021,85.4730368 37.6758898,81.6412355 39.6932979,78.5797872 L42.1137234,74.9323404 C43.3678063,73.0255965 44.0367969,70.79368 44.0382979,68.5114894 L44.0382979,57.7708511 L8.72361702,57.7708511 Z" id="Path" fill="#171B1C" fill-rule="nonzero"></path>
                    <rect id="Rectangle" fill="#171B1C" fill-rule="nonzero" transform="translate(26.393564, 90.850000) rotate(-180.000000) translate(-26.393564, -90.850000) " x="10.4632979" y="88.9170213" width="31.8605319" height="3.86595745"></rect>
                    <rect id="Rectangle" fill="#232A2D" fill-rule="nonzero" transform="translate(26.389362, 83.782021) rotate(-180.000000) translate(-26.389362, -83.782021) " x="21.9014894" y="83.0256383" width="8.97574468" height="1.51276596"></rect>
                    <rect id="Rectangle" fill="#232A2D" fill-rule="nonzero" transform="translate(26.389362, 80.748085) rotate(-180.000000) translate(-26.389362, -80.748085) " x="21.9014894" y="79.9917021" width="8.97574468" height="1.51276596"></rect>
                    <rect id="Rectangle" fill="#232A2D" fill-rule="nonzero" transform="translate(26.389362, 77.722553) rotate(-180.000000) translate(-26.389362, -77.722553) " x="21.9014894" y="76.9661702" width="8.97574468" height="1.51276596"></rect>
                    <rect id="Rectangle" fill="#232A2D" fill-rule="nonzero" transform="translate(26.393564, 59.329840) rotate(-180.000000) translate(-26.393564, -59.329840) " x="8.72361702" y="57.7708511" width="35.3398936" height="3.11797872"></rect>
                    <path d="M36.306383,30.2973404 L38.7015957,30.2973404 L38.7015957,52.7367021 C38.7015957,52.94093 38.5360364,53.1064894 38.3318085,53.1064894 L36.6509574,53.1064894 C36.4467296,53.1064894 36.2811702,52.94093 36.2811702,52.7367021 L36.2811702,30.2973404 L36.306383,30.2973404 Z" id="Path" fill="#9BA9BD" fill-rule="nonzero" transform="translate(37.491383, 41.701915) rotate(180.000000) translate(-37.491383, -41.701915) "></path>
                    <path d="M14.1275532,30.2973404 L16.5395745,30.2973404 L16.5395745,52.7367021 C16.5395745,52.94093 16.3740151,53.1064894 16.1697872,53.1064894 L14.4889362,53.1064894 C14.2847083,53.1064894 14.1191489,52.94093 14.1191489,52.7367021 L14.1191489,30.2973404 L14.1275532,30.2973404 Z" id="Path" fill="#9BA9BD" fill-rule="nonzero" transform="translate(15.329362, 41.701915) rotate(-180.000000) translate(-15.329362, -41.701915) "></path>
                    <polygon id="Path" fill="#232A2D" fill-rule="nonzero" points="19.2709574 92.791383 19.3970213 94.2621277 19.5146809 95.7244681 19.6407447 97.1952128 19.7584043 98.6659574 19.8844681 100.136702 20.0105319 101.599043 20.1281915 103.069787 20.2542553 104.540532 20.3803191 106.011277 20.4979787 107.473617 20.6240426 108.944362 32.1714894 108.944362 32.2975532 107.473617 32.4152128 106.011277 32.5412766 104.540532 32.6589362 103.069787 32.785 101.599043 32.9026596 100.136702 33.0287234 98.6659574 33.1547872 97.1952128 33.2808511 95.7244681 33.3985106 94.2621277 33.5245745 92.791383"></polygon>
                    <polygon id="Path" fill="#171B1C" fill-rule="nonzero" points="19.3970213 94.2621277 19.5146809 95.7244681 33.2808511 95.7244681 33.3985106 94.2621277"></polygon>
                    <polygon id="Path" fill="#171B1C" fill-rule="nonzero" points="19.6407447 97.1952128 19.7584043 98.6659574 33.0287234 98.6659574 33.1547872 97.1952128"></polygon>
                    <polygon id="Path" fill="#171B1C" fill-rule="nonzero" points="19.8844681 100.136702 20.0105319 101.599043 32.785 101.599043 32.9026596 100.136702"></polygon>
                    <polygon id="Path" fill="#171B1C" fill-rule="nonzero" points="20.1281915 103.069787 20.2542553 104.540532 32.5412766 104.540532 32.6589362 103.069787"></polygon>
                    <polygon id="Path" fill="#171B1C" fill-rule="nonzero" points="20.3803191 106.011277 20.4979787 107.473617 32.2975532 107.473617 32.4152128 106.011277"></polygon>
                    <rect id="Rectangle" fill="#171B1C" fill-rule="nonzero" transform="translate(26.389362, 55.426064) rotate(-180.000000) translate(-26.389362, -55.426064) " x="3.05914894" y="53.0812766" width="46.6604255" height="4.68957447"></rect>
                </g>
                <circle id="Oval" stroke="#1D2326" cx="280.791383" cy="134.199149" r="58.8297872"></circle>
                <circle id="Oval" fill="#FFFFFF" fill-rule="nonzero" cx="100.553723" cy="236.445319" r="58.8297872"></circle>
                <g id="Group" transform="translate(56.053191, 211.787234)" fill-rule="nonzero">
                    <path d="M9.74893617,8.79925532 L9.74893617,0.840425532 L12.2197872,0.840425532 C13.0096842,0.790044978 13.7913171,1.02572817 14.4217021,1.5043617 C14.9515949,1.97206601 15.2393388,2.65584472 15.2032979,3.36170213 C15.229993,4.07359867 14.9183224,4.75615723 14.3628723,5.20223404 C13.7376503,5.6783447 12.962176,5.9139696 12.177766,5.86617021 L11.026383,5.86617021 L11.026383,8.81606383 L9.74893617,8.79925532 Z M12.2197872,1.8993617 L11.026383,1.8993617 L11.026383,4.77361702 L12.2197872,4.77361702 C13.3459574,4.77361702 13.9006383,4.30297872 13.9006383,3.34489362 C13.9006383,2.38680851 13.3459574,1.8993617 12.2197872,1.8993617 L12.2197872,1.8993617 Z" id="Shape" fill="#293033"></path>
                    <path d="M18.9431915,8.95893617 C18.3972664,8.96446049 17.8600191,8.82216254 17.3884043,8.54712766 C16.9315933,8.28070616 16.5566075,7.89409286 16.3042553,7.4293617 C15.7781719,6.42387571 15.7781719,5.22442216 16.3042553,4.21893617 C16.5567907,3.75652039 16.9319153,3.37267202 17.3884043,3.10957447 C17.8606936,2.83708515 18.3979984,2.69767634 18.9431915,2.70617021 C20.0324239,2.67592315 21.0486491,3.25199989 21.5821277,4.20212766 C22.0982268,5.20707977 22.0982268,6.39919683 21.5821277,7.40414894 C21.3307008,7.86677928 20.9590442,8.25295371 20.506383,8.52191489 C20.0331977,8.80341 19.4937562,8.9542216 18.9431915,8.95893617 L18.9431915,8.95893617 Z M18.9431915,7.84117021 C19.263592,7.84536119 19.5785148,7.75788263 19.8508511,7.58904255 C20.1190901,7.41171274 20.3340636,7.16478374 20.472766,6.87468085 C20.7637967,6.2104072 20.7637967,5.45469919 20.472766,4.79042553 C20.3314359,4.50431811 20.116857,4.26074205 19.8508511,4.08446809 C19.5814828,3.90810325 19.2650915,3.81728723 18.9431915,3.82393617 C18.622791,3.81974519 18.3078682,3.90722375 18.0355319,4.07606383 C17.7697901,4.25264054 17.5552807,4.49613762 17.413617,4.78202128 C17.2571682,5.10674995 17.1794296,5.46377126 17.1867021,5.82414894 C17.1812839,6.18434358 17.2589306,6.54094344 17.413617,6.8662766 C17.5572719,7.153094 17.7712291,7.39885563 18.0355319,7.5806383 C18.3069731,7.7524321 18.6219585,7.84284458 18.9431915,7.84117021 L18.9431915,7.84117021 Z" id="Shape" fill="#293033"></path>
                    <path d="M24.5908511,8.79925532 L22.3721277,2.86585106 L23.733617,2.86585106 L25.0446809,6.84946809 L26.3893617,3.00031915 L27.1625532,3.00031915 L28.5156383,6.8662766 L29.8435106,2.86585106 L31.171383,2.86585106 C31.171383,2.96670213 31.0621277,3.16 30.9528723,3.45414894 C30.843617,3.74829787 30.7091489,4.10968085 30.5494681,4.52989362 C30.3897872,4.95010638 30.2217021,5.37031915 30.0452128,5.82414894 C29.8687234,6.27797872 29.7174468,6.715 29.557766,7.13521277 C29.3980851,7.55542553 29.2552128,7.90840426 29.1543617,8.21095745 C29.0535106,8.51351064 28.9694681,8.69840426 28.9274468,8.79925532 L28.0870213,8.79925532 L26.7423404,5.04255319 L25.4060638,8.82446809 L24.5908511,8.79925532 Z" id="Path" fill="#293033"></path>
                    <path d="M34.76,8.95893617 C34.1760031,8.97464438 33.5976006,8.84161181 33.0791489,8.57234043 C32.6025526,8.33515874 32.2053777,7.96426739 31.9361702,7.505 C31.663324,6.98787018 31.5300732,6.40851868 31.5495745,5.82414894 C31.5289577,5.24258149 31.6531374,4.66500142 31.9109574,4.14329787 C32.1399778,3.68867125 32.4886607,3.30512002 32.9194681,3.03393617 C33.3665012,2.75989318 33.882784,2.61988429 34.4070213,2.63053191 C34.8783096,2.62039369 35.3433691,2.73956519 35.7517021,2.97510638 C36.1344329,3.20981697 36.4432036,3.54771701 36.6425532,3.95 C36.8628288,4.40843454 36.9722265,4.91223979 36.9619149,5.42074468 L36.9619149,6.10989362 L32.7597872,6.10989362 C32.804174,6.59193899 33.0293661,7.03932065 33.3901064,7.36212766 C33.7863983,7.67284734 34.2824728,7.82824419 34.7852128,7.79914894 C35.0854372,7.79806199 35.3844742,7.76138764 35.6760638,7.68989362 C35.9480026,7.61385705 36.2081765,7.50073798 36.4492553,7.3537234 L36.6845745,8.35382979 C36.1102229,8.72723996 35.4446977,8.93648803 34.76,8.95893617 L34.76,8.95893617 Z M34.3902128,3.73989362 C33.9944168,3.72809875 33.6112914,3.88013262 33.3312766,4.16010638 C33.0402275,4.4740705 32.8627031,4.87645896 32.8270213,5.30308511 L35.8021277,5.30308511 C35.8144888,4.88518086 35.6706614,4.47766974 35.3987234,4.16010638 C35.1384185,3.88181972 34.7711044,3.7287722 34.3902128,3.73989362 L34.3902128,3.73989362 Z" id="Shape" fill="#293033"></path>
                    <path d="M38.3234043,8.79925532 L38.3234043,2.86585106 L39.4495745,2.86585106 L39.4495745,3.83234043 C39.5856836,3.49430864 39.8161602,3.20256609 40.1135106,2.99191489 C40.4025475,2.79173708 40.7452297,2.68336752 41.0968085,2.68095745 C41.2241689,2.67833634 41.3513214,2.6924644 41.475,2.72297872 C41.5740186,2.73605991 41.6704112,2.76441067 41.7607447,2.80702128 L41.6094681,4.0256383 C41.5124739,3.98338186 41.4109624,3.95236446 41.3069149,3.93319149 C41.2036596,3.9203587 41.0992127,3.9203587 40.9959574,3.93319149 C40.5997318,3.92916363 40.2240691,4.10923335 39.9790426,4.4206383 C39.6846785,4.77263938 39.5345392,5.22305731 39.5588298,5.6812766 L39.5588298,8.79085106 L38.3234043,8.79925532 Z" id="Path" fill="#293033"></path>
                    <rect id="Rectangle" fill="#293033" x="0.327765957" y="13.8334043" width="43.1558511" height="34.6591489" rx="0.81"></rect>
                    <circle id="Oval" fill="#0E1314" cx="25.7590426" cy="31.1629787" r="10.8667021"></circle>
                    <circle id="Oval" fill="#FFFFFF" cx="25.7590426" cy="31.1629787" r="2.37840426"></circle>
                    <polygon id="Rectangle" fill="#D8DDE6" transform="translate(55.262181, 31.162979) rotate(90.000000) translate(-55.262181, -31.162979) " points="48.2194149 11.7029255 62.3049468 11.7029255 62.3049468 50.6230319 48.2194149 50.6230319"></polygon>
                    <polygon id="Rectangle" fill="#171B1C" transform="translate(95.077340, 31.154574) rotate(-90.000000) translate(-95.077340, -31.154574) " points="81.6137234 3.99202128 108.540957 3.99202128 108.540957 58.3171277 81.6137234 58.3171277"></polygon>
                    <polygon id="Rectangle" fill="#171B1C" transform="translate(33.654840, 31.162979) rotate(90.000000) translate(-33.654840, -31.162979) " points="26.6120745 29.0829255 40.6976064 29.0829255 40.6976064 33.2430319 26.6120745 33.2430319"></polygon>
                </g>
                <circle id="Oval" stroke="#1D2326" cx="100.553723" cy="236.445319" r="58.8297872"></circle>
            </g>
        </g>
    </g>
</svg>