<svg xmlns="http://www.w3.org/2000/svg" xmlns:xlink="http://www.w3.org/1999/xlink" id="Layer_1" viewBox="0 0 98 75">
  <style>
  </style>
  <defs>
    <path id="SVGID_149_" d="M6.5 65.2c.5 5.4 2.5 7.2 4.4 9H84c9.3-2.4 9.9-16.8 3-27C70.2 22.9 73.4-8.1 44 2.6 34.5 6 8.5 11.3 17.2 43.9c3 11.4-11.9 9.5-10.7 21.3z"/>
  </defs>
  <clipPath id="SVGID_2_">
    <use overflow="visible" xlink:href="#SVGID_149_"/>
  </clipPath>
  <g clip-path="url(#SVGID_2_)">
    <defs>
      <path id="SVGID_151_" d="M-113.2-806.9h329.6v3131h-329.6z"/>
    </defs>
    <clipPath id="SVGID_4_">
      <use overflow="visible" xlink:href="#SVGID_151_"/>
    </clipPath>
    <path fill="#f1f2f6" d="M-7.3-4.4h116.8v83.6H-7.3z" clip-path="url(#SVGID_4_)"/>
  </g>
  <defs>
    <path id="SVGID_153_" d="M17.4 42.6c.9-.7.9-4.6-.8-6.9-1.7-2.3-5-3.4-5.9-2.7l6.7 9.6z"/>
  </defs>
  <clipPath id="SVGID_6_">
    <use overflow="visible" xlink:href="#SVGID_153_"/>
  </clipPath>
  <g clip-path="url(#SVGID_6_)">
    <defs>
      <path id="SVGID_155_" d="M-116.5-751.2h351.3v2932.8h-351.3z"/>
    </defs>
    <clipPath id="SVGID_8_">
      <use overflow="visible" xlink:href="#SVGID_155_"/>
    </clipPath>
    <path fill="#15b1a3" d="M6 28.2h16.6v19.2H6z" clip-path="url(#SVGID_8_)"/>
  </g>
  <defs>
    <path id="SVGID_157_" d="M29.5 44.5s-4.2 4.1-3.2 12.7c.1 1.1-2.4-2-2.4-2s1.8-7.4 5.6-11.5c.2 0 0 .8 0 .8z"/>
  </defs>
  <clipPath id="SVGID_10_">
    <use overflow="visible" xlink:href="#SVGID_157_"/>
  </clipPath>
  <g clip-path="url(#SVGID_10_)">
    <defs>
      <path id="SVGID_159_" d="M-116.5-751.2h351.3v2932.8h-351.3z"/>
    </defs>
    <clipPath id="SVGID_12_">
      <use overflow="visible" xlink:href="#SVGID_159_"/>
    </clipPath>
    <path fill="#15b1a3" d="M19.2 39.1h15.1v23H19.2z" clip-path="url(#SVGID_12_)"/>
  </g>
  <defs>
    <path id="SVGID_161_" d="M14.5 19.9c-.2-.4-.9-.4-.7 0 5.8 12.3 11.9 25.6 8.6 37.1-.1.4 2.2.6 2.3.2 3.1-11.1-4.2-25.1-10.2-37.3z"/>
  </defs>
  <clipPath id="SVGID_14_">
    <use overflow="visible" xlink:href="#SVGID_161_"/>
  </clipPath>
  <g clip-path="url(#SVGID_14_)">
    <defs>
      <path id="SVGID_163_" d="M-116.5-751.2h351.3v2932.8h-351.3z"/>
    </defs>
    <clipPath id="SVGID_16_">
      <use overflow="visible" xlink:href="#SVGID_163_"/>
    </clipPath>
    <path fill="#67d8c5" d="M9.1 15h21v47.1h-21z" clip-path="url(#SVGID_16_)"/>
  </g>
  <defs>
    <path id="SVGID_165_" d="M28.7 24.9s-4.9 7.2-6.3 13.5c-.2 1-1.1-3.1-1.1-3.1s4.1-7.4 7.4-11.1c.2-.2 0 .7 0 .7z"/>
  </defs>
  <clipPath id="SVGID_18_">
    <use overflow="visible" xlink:href="#SVGID_165_"/>
  </clipPath>
  <g clip-path="url(#SVGID_18_)">
    <defs>
      <path id="SVGID_167_" d="M-116.5-751.2h351.3v2932.8h-351.3z"/>
    </defs>
    <clipPath id="SVGID_20_">
      <use overflow="visible" xlink:href="#SVGID_167_"/>
    </clipPath>
    <path fill="#67d8c5" d="M16.7 19.5h16.8v23.7H16.7z" clip-path="url(#SVGID_20_)"/>
  </g>
  <defs>
    <path id="SVGID_169_" d="M15.7 49.2c2.6 1.9 4.7 4.3 6.2 7.1.4.7 1.4-1.8 1.4-1.8s.2-1-7.8-5.8c-.2-.1.2.5.2.5z"/>
  </defs>
  <clipPath id="SVGID_22_">
    <use overflow="visible" xlink:href="#SVGID_169_"/>
  </clipPath>
  <g clip-path="url(#SVGID_22_)">
    <defs>
      <path id="SVGID_171_" d="M-116.5-751.2h351.3v2932.8h-351.3z"/>
    </defs>
    <clipPath id="SVGID_24_">
      <use overflow="visible" xlink:href="#SVGID_171_"/>
    </clipPath>
    <path fill="#15b1a3" d="M10.8 44H28v17.1H10.8z" clip-path="url(#SVGID_24_)"/>
  </g>
  <defs>
    <path id="SVGID_173_" d="M13.8 38.1s7.6 9.8 7.9 18.6c0 .5.9.4 1.4-.2.4-.6.8-1.3.9-2 0 0-2.5-8.2-10.3-17-.1-.3.1.6.1.6z"/>
  </defs>
  <clipPath id="SVGID_26_">
    <use overflow="visible" xlink:href="#SVGID_173_"/>
  </clipPath>
  <g clip-path="url(#SVGID_26_)">
    <defs>
      <path id="SVGID_175_" d="M-116.5-751.2h351.3v2932.8h-351.3z"/>
    </defs>
    <clipPath id="SVGID_28_">
      <use overflow="visible" xlink:href="#SVGID_175_"/>
    </clipPath>
    <path fill="#67d8c5" d="M9 32.7h19.7v29H9z" clip-path="url(#SVGID_28_)"/>
  </g>
  <defs>
    <path id="SVGID_177_" d="M11.4 10.6s11.4 2.6 11.9 11.8c.2 4.8-4.5 6.9-4.5 6.9l-7.4-18.7z"/>
  </defs>
  <clipPath id="SVGID_30_">
    <use overflow="visible" xlink:href="#SVGID_177_"/>
  </clipPath>
  <g clip-path="url(#SVGID_30_)">
    <defs>
      <path id="SVGID_179_" d="M-116.5-751.2h351.3v2932.8h-351.3z"/>
    </defs>
    <clipPath id="SVGID_32_">
      <use overflow="visible" xlink:href="#SVGID_179_"/>
    </clipPath>
    <path fill="#15b1a3" d="M6.7 5.9h21.2v28H6.7z" clip-path="url(#SVGID_32_)"/>
  </g>
  <defs>
    <path id="SVGID_181_" d="M4.1 6.4c-.2-.3 2.2 0 5.2 1.2.3.1 1.4 3 1.7 3.1.3.1-.1-2.4.3-2.3 2.8 1.4 5.7 3.5 7.5 6.7.2.4-1 1.6-.8 2.1 0 .1 2.2.2 2.2.3.2.6.4 1.2.5 1.9 1.1 5.5-3.6 7.9-3.6 7.9s-9.3-16-13-20.9z"/>
  </defs>
  <clipPath id="SVGID_34_">
    <use overflow="visible" xlink:href="#SVGID_181_"/>
  </clipPath>
  <g clip-path="url(#SVGID_34_)">
    <defs>
      <path id="SVGID_183_" d="M-116.5-751.2h351.3v2932.8h-351.3z"/>
    </defs>
    <clipPath id="SVGID_36_">
      <use overflow="visible" xlink:href="#SVGID_183_"/>
    </clipPath>
    <path fill="#67d8c5" d="M-.6 1.6h26.2V32H-.6z" clip-path="url(#SVGID_36_)"/>
  </g>
  <defs>
    <path id="SVGID_185_" d="M15.8 41.5c1-1 .9-5-1.6-7.7s-6.6-3-7.6-2l9.2 9.7z"/>
  </defs>
  <clipPath id="SVGID_38_">
    <use overflow="visible" xlink:href="#SVGID_185_"/>
  </clipPath>
  <g clip-path="url(#SVGID_38_)">
    <defs>
      <path id="SVGID_187_" d="M-116.5-751.2h351.3v2932.8h-351.3z"/>
    </defs>
    <clipPath id="SVGID_40_">
      <use overflow="visible" xlink:href="#SVGID_187_"/>
    </clipPath>
    <path fill="#67d8c5" d="M1.9 26.7h19.2v19.5H1.9z" clip-path="url(#SVGID_40_)"/>
  </g>
  <defs>
    <path id="SVGID_189_" d="M37.7 18.8c-.6-.9-3.8-1.7-6.2-.2-2.4 1.4-3.3 4.4-2.8 5.4l9-5.2z"/>
  </defs>
  <clipPath id="SVGID_42_">
    <use overflow="visible" xlink:href="#SVGID_189_"/>
  </clipPath>
  <g clip-path="url(#SVGID_42_)">
    <defs>
      <path id="SVGID_191_" d="M-116.5-751.2h351.3v2932.8h-351.3z"/>
    </defs>
    <clipPath id="SVGID_44_">
      <use overflow="visible" xlink:href="#SVGID_191_"/>
    </clipPath>
    <path fill="#15b1a3" d="M23.9 13.1h18.5v15.5H23.9z" clip-path="url(#SVGID_44_)"/>
  </g>
  <defs>
    <path id="SVGID_193_" d="M37.7 18.8c-.3-.3-5.8.8-8.7 3.1-2.9 2.2-2.7 3.9-1.8 5.1l10.5-8.2z"/>
  </defs>
  <clipPath id="SVGID_46_">
    <use overflow="visible" xlink:href="#SVGID_193_"/>
  </clipPath>
  <g clip-path="url(#SVGID_46_)">
    <defs>
      <path id="SVGID_195_" d="M-116.5-751.2h351.3v2932.8h-351.3z"/>
    </defs>
    <clipPath id="SVGID_48_">
      <use overflow="visible" xlink:href="#SVGID_195_"/>
    </clipPath>
    <path fill="#67d8c5" d="M21.9 14.1h20.5v17.6H21.9z" clip-path="url(#SVGID_48_)"/>
  </g>
  <defs>
    <path id="SVGID_197_" d="M39.5 36.6c-.5-1.1-3.6-1.8-6.4-.7-3.5 1.5-5.1 6.7-4.6 7.8l11-7.1z"/>
  </defs>
  <clipPath id="SVGID_50_">
    <use overflow="visible" xlink:href="#SVGID_197_"/>
  </clipPath>
  <g clip-path="url(#SVGID_50_)">
    <defs>
      <path id="SVGID_199_" d="M-116.5-751.2h351.3v2932.8h-351.3z"/>
    </defs>
    <clipPath id="SVGID_52_">
      <use overflow="visible" xlink:href="#SVGID_199_"/>
    </clipPath>
    <path fill="#67d8c5" d="M23.7 30.7h20.4v17.7H23.7z" clip-path="url(#SVGID_52_)"/>
  </g>
  <g>
    <defs>
      <path id="SVGID_201_" d="M39.5 36.7c-.2-.2-1.5-.4-3.2-.1-.3.1-1 1.5-1.3 1.6-.3.1-.3-1.2-.6-1.1-1.2.5-2.4 1.1-3.3 2-3.6 3.2-2.7 6.3-2.3 6.8l10.7-9.2z"/>
    </defs>
    <clipPath id="SVGID_54_">
      <use overflow="visible" xlink:href="#SVGID_201_"/>
    </clipPath>
    <g clip-path="url(#SVGID_54_)">
      <defs>
        <path id="SVGID_203_" d="M-116.5-751.2h351.3v2932.8h-351.3z"/>
      </defs>
      <clipPath id="SVGID_56_">
        <use overflow="visible" xlink:href="#SVGID_203_"/>
      </clipPath>
      <path fill="#15b1a3" d="M23.7 31.7h20.5v18.9H23.7z" clip-path="url(#SVGID_56_)"/>
    </g>
  </g>
  <g>
    <defs>
      <path id="SVGID_205_" d="M15.7 49.2c-1.8.2-3.7-.1-5.3-.9-1.5-.8-2.7-2.1-3.4-3.6.7-.7 1.6-1.1 2.5-1.1.3 0 .5 1.1.8 1.2.2 0 .4-1 .5-.9.6.1 1.2.3 1.8.5 3.8 2 3.1 4.8 3.1 4.8z"/>
    </defs>
    <clipPath id="SVGID_58_">
      <use overflow="visible" xlink:href="#SVGID_205_"/>
    </clipPath>
    <g clip-path="url(#SVGID_58_)">
      <defs>
        <path id="SVGID_207_" d="M-116.5-751.2h351.3v2932.8h-351.3z"/>
      </defs>
      <clipPath id="SVGID_60_">
        <use overflow="visible" xlink:href="#SVGID_207_"/>
      </clipPath>
      <path fill="#15b1a3" d="M2.3 38.9h18.1v15H2.3z" clip-path="url(#SVGID_60_)"/>
    </g>
  </g>
  <g>
    <defs>
      <path id="SVGID_209_" d="M15.7 55.6h16.6c.7 0 1.3.6 1.3 1.3v12.7c0 2.4-1.9 4.3-4.3 4.3H18.7c-2.4 0-4.3-1.9-4.3-4.3V56.9c0-.3.1-.7.4-.9.2-.3.6-.4.9-.4z"/>
    </defs>
    <clipPath id="SVGID_62_">
      <use overflow="visible" xlink:href="#SVGID_209_"/>
    </clipPath>
    <g clip-path="url(#SVGID_62_)">
      <defs>
        <path id="SVGID_211_" d="M-116.5-751.2h351.3v2932.8h-351.3z"/>
      </defs>
      <clipPath id="SVGID_64_">
        <use overflow="visible" xlink:href="#SVGID_211_"/>
      </clipPath>
      <path fill="#d8dde6" d="M9.7 50.9h28.6v27.7H9.7z" clip-path="url(#SVGID_64_)"/>
    </g>
  </g>
  <g>
    <defs>
      <path id="SVGID_213_" d="M14.4 60.4h19.2v4.9H14.4z"/>
    </defs>
    <clipPath id="SVGID_66_">
      <use overflow="visible" xlink:href="#SVGID_213_"/>
    </clipPath>
    <g clip-path="url(#SVGID_66_)">
      <defs>
        <path id="SVGID_215_" d="M-116.5-751.2h351.3v2932.8h-351.3z"/>
      </defs>
      <clipPath id="SVGID_68_">
        <use overflow="visible" xlink:href="#SVGID_215_"/>
      </clipPath>
      <path fill="#fff" d="M9.7 55.8h28.6v14.3H9.7z" clip-path="url(#SVGID_68_)"/>
    </g>
  </g>
  <g>
    <defs>
      <path id="SVGID_217_" d="M14.4 66.8h19.2V70H14.4z"/>
    </defs>
    <clipPath id="SVGID_70_">
      <use overflow="visible" xlink:href="#SVGID_217_"/>
    </clipPath>
    <g clip-path="url(#SVGID_70_)">
      <defs>
        <path id="SVGID_219_" d="M-116.5-751.2h351.3v2932.8h-351.3z"/>
      </defs>
      <clipPath id="SVGID_72_">
        <use overflow="visible" xlink:href="#SVGID_219_"/>
      </clipPath>
      <path fill="#fff" d="M9.7 62.1h28.6v12.6H9.7z" clip-path="url(#SVGID_72_)"/>
    </g>
  </g>
  <g>
    <defs>
      <path id="SVGID_221_" d="M32.6 29H81c.9 0 1.7.7 1.7 1.7v42c0 .9-.7 1.7-1.7 1.7H32.6c-.9 0-1.7-.7-1.7-1.7v-42c0-1 .7-1.7 1.7-1.7z"/>
    </defs>
    <clipPath id="SVGID_74_">
      <use overflow="visible" xlink:href="#SVGID_221_"/>
    </clipPath>
    <g clip-path="url(#SVGID_74_)">
      <defs>
        <path id="SVGID_223_" d="M-105.4-661.1h313v2613h-313z"/>
      </defs>
      <clipPath id="SVGID_76_">
        <use overflow="visible" xlink:href="#SVGID_223_"/>
      </clipPath>
      <path fill="#616e80" d="M26.7 24.8h60.1v53.7H26.7z" clip-path="url(#SVGID_76_)"/>
    </g>
  </g>
  <g>
    <defs>
      <path id="SVGID_225_" d="M32 29.3c-.5 0-.9.4-.9.9v43c0 .5.4.9.9.9h49.5c.5 0 .9-.4.9-.9v-43c0-.5-.4-.9-.9-.9H32zm49.5 45.3H32c-.8 0-1.4-.6-1.4-1.4v-43c0-.8.6-1.4 1.4-1.4h49.5c.8 0 1.4.6 1.4 1.4v43c.1.7-.6 1.4-1.4 1.4z"/>
    </defs>
    <clipPath id="SVGID_78_">
      <use overflow="visible" xlink:href="#SVGID_225_"/>
    </clipPath>
    <g clip-path="url(#SVGID_78_)">
      <defs>
        <path id="SVGID_227_" d="M-105.4-661.1h313v2613h-313z"/>
      </defs>
      <clipPath id="SVGID_80_">
        <use overflow="visible" xlink:href="#SVGID_227_"/>
      </clipPath>
      <path fill="#0a2e40" d="M26.4 24.5h60.7v54.3H26.4z" clip-path="url(#SVGID_80_)"/>
    </g>
  </g>
  <g>
    <defs>
      <path id="SVGID_229_" d="M54.1 32h24.4c.3 0 .6.3.6.6v41.7H53.6V32.6c0-.3.2-.6.5-.6z"/>
    </defs>
    <clipPath id="SVGID_82_">
      <use overflow="visible" xlink:href="#SVGID_229_"/>
    </clipPath>
    <g clip-path="url(#SVGID_82_)">
      <defs>
        <path id="SVGID_231_" d="M-105.4-661.1h313v2613h-313z"/>
      </defs>
      <clipPath id="SVGID_84_">
        <use overflow="visible" xlink:href="#SVGID_231_"/>
      </clipPath>
      <path fill="#b6c0d0" d="M49.4 27.8h33.9v50.6H49.4z" clip-path="url(#SVGID_84_)"/>
    </g>
  </g>
  <g>
    <defs>
      <path id="SVGID_233_" d="M53.9 74h25V32.6c0-.2-.1-.3-.3-.3H54.1c-.2 0-.3.1-.3.3V74zm25.2.5H53.6c-.1 0-.2 0-.2-.1-.1-.1-.1-.1-.1-.2V32.6c0-.5.4-.9.9-.9h24.4c.5 0 .9.4.9.9v41.7c0 .1 0 .2-.1.2h-.3z"/>
    </defs>
    <clipPath id="SVGID_86_">
      <use overflow="visible" xlink:href="#SVGID_233_"/>
    </clipPath>
    <g clip-path="url(#SVGID_86_)">
      <defs>
        <path id="SVGID_235_" d="M-105.4-661.1h313v2613h-313z"/>
      </defs>
      <clipPath id="SVGID_88_">
        <use overflow="visible" xlink:href="#SVGID_235_"/>
      </clipPath>
      <path fill="#0a2e40" d="M49.1 27.5h34.5v51.2H49.1z" clip-path="url(#SVGID_88_)"/>
    </g>
  </g>
  <g>
    <defs>
      <path id="SVGID_237_" d="M38.6 23.7h7.7c1.8 0 3.3 1.5 3.3 3.3v38.4c0 1.8-1.5 3.3-3.3 3.3h-7.7c-1.8 0-3.3-1.5-3.3-3.3V27c0-1.8 1.5-3.3 3.3-3.3z"/>
    </defs>
    <clipPath id="SVGID_90_">
      <use overflow="visible" xlink:href="#SVGID_237_"/>
    </clipPath>
    <g clip-path="url(#SVGID_90_)">
      <defs>
        <path id="SVGID_239_" d="M-105.4-661.1h313v2613h-313z"/>
      </defs>
      <clipPath id="SVGID_92_">
        <use overflow="visible" xlink:href="#SVGID_239_"/>
      </clipPath>
      <path fill="#b6c0d0" d="M31.1 19.5h22.7V73H31.1z" clip-path="url(#SVGID_92_)"/>
    </g>
  </g>
  <g>
    <defs>
      <path id="SVGID_241_" d="M37.6 24c-1.1 0-2 .9-2 2v40.5c0 1.1.9 2 2 2h9.8c1.1 0 2-.9 2-2V26c0-1.1-.9-2-2-2h-9.8zm9.7 45.1h-9.8c-1.4 0-2.6-1.2-2.6-2.6V26c0-1.4 1.2-2.6 2.6-2.6h9.8c1.4 0 2.6 1.2 2.6 2.6v40.5c0 1.4-1.1 2.6-2.6 2.6z"/>
    </defs>
    <clipPath id="SVGID_94_">
      <use overflow="visible" xlink:href="#SVGID_241_"/>
    </clipPath>
    <g clip-path="url(#SVGID_94_)">
      <defs>
        <path id="SVGID_243_" d="M-105.4-661.1h313v2613h-313z"/>
      </defs>
      <clipPath id="SVGID_96_">
        <use overflow="visible" xlink:href="#SVGID_243_"/>
      </clipPath>
      <path fill="#0a2e40" d="M30.8 19.2h23.3v54H30.8z" clip-path="url(#SVGID_96_)"/>
    </g>
  </g>
  <g>
    <defs>
      <path id="SVGID_245_" d="M56.9 34.1h19.2c.5 0 .8.4.8.8v12.4c0 .5-.4.8-.8.8H56.9c-.5 0-.8-.4-.8-.8V34.9c0-.5.4-.8.8-.8z"/>
    </defs>
    <clipPath id="SVGID_98_">
      <use overflow="visible" xlink:href="#SVGID_245_"/>
    </clipPath>
    <g clip-path="url(#SVGID_98_)">
      <defs>
        <path id="SVGID_247_" d="M-105.4-661.1h313v2613h-313z"/>
      </defs>
      <clipPath id="SVGID_100_">
        <use overflow="visible" xlink:href="#SVGID_247_"/>
      </clipPath>
      <path fill="#fff" d="M51.9 29.9h29.3v22.4H51.9z" clip-path="url(#SVGID_100_)"/>
    </g>
  </g>
  <g>
    <defs>
      <path id="SVGID_249_" d="M56.7 34.4c-.2 0-.3.1-.3.3v12.9c0 .2.1.3.3.3h19.8c.2 0 .3-.1.3-.3v-13c0-.2-.1-.3-.3-.3H56.7zm19.7 14H56.7c-.5 0-.9-.4-.9-.9V34.6c0-.5.4-.9.9-.9h19.8c.5 0 .9.4.9.9v12.9c-.1.5-.5.9-1 .9z"/>
    </defs>
    <clipPath id="SVGID_102_">
      <use overflow="visible" xlink:href="#SVGID_249_"/>
    </clipPath>
    <g clip-path="url(#SVGID_102_)">
      <defs>
        <path id="SVGID_251_" d="M-105.4-661.1h313v2613h-313z"/>
      </defs>
      <clipPath id="SVGID_104_">
        <use overflow="visible" xlink:href="#SVGID_251_"/>
      </clipPath>
      <path fill="#0a2e40" d="M51.6 29.6h29.8v23H51.6z" clip-path="url(#SVGID_104_)"/>
    </g>
  </g>
  <g>
    <defs>
      <path id="SVGID_253_" d="M59.4 36.1h14.4c.5 0 .8.4.8.8v8.4c0 .5-.4.8-.8.8H59.4c-.5 0-.8-.4-.8-.8v-8.4c-.1-.5.3-.8.8-.8z"/>
    </defs>
    <clipPath id="SVGID_106_">
      <use overflow="visible" xlink:href="#SVGID_253_"/>
    </clipPath>
    <g clip-path="url(#SVGID_106_)">
      <defs>
        <path id="SVGID_255_" d="M-105.4-661.1h313v2613h-313z"/>
      </defs>
      <clipPath id="SVGID_108_">
        <use overflow="visible" xlink:href="#SVGID_255_"/>
      </clipPath>
      <path fill="#4176e1" d="M54.4 31.9h24.4v18.4H54.4z" clip-path="url(#SVGID_108_)"/>
    </g>
  </g>
  <g>
    <defs>
      <path id="SVGID_257_" d="M58.2 52.4h16.4v18H58.2z"/>
    </defs>
    <clipPath id="SVGID_110_">
      <use overflow="visible" xlink:href="#SVGID_257_"/>
    </clipPath>
    <g clip-path="url(#SVGID_110_)">
      <defs>
        <path id="SVGID_259_" d="M-105.4-661.1h313v2613h-313z"/>
      </defs>
      <clipPath id="SVGID_112_">
        <use overflow="visible" xlink:href="#SVGID_259_"/>
      </clipPath>
      <path fill="#fff" d="M54 48.3h24.8v26.3H54z" clip-path="url(#SVGID_112_)"/>
    </g>
  </g>
  <g>
    <defs>
      <path id="SVGID_261_" d="M58.5 70.1h15.9V52.7H58.5v17.4zm16.4.6h-17V52.1h17v18.6z"/>
    </defs>
    <clipPath id="SVGID_114_">
      <use overflow="visible" xlink:href="#SVGID_261_"/>
    </clipPath>
    <g clip-path="url(#SVGID_114_)">
      <defs>
        <path id="SVGID_263_" d="M-105.4-661.1h313v2613h-313z"/>
      </defs>
      <clipPath id="SVGID_116_">
        <use overflow="visible" xlink:href="#SVGID_263_"/>
      </clipPath>
      <path fill="#0a2e40" d="M53.7 48h25.4v26.9H53.7z" clip-path="url(#SVGID_116_)"/>
    </g>
  </g>
  <g>
    <defs>
      <path id="SVGID_265_" d="M63.7 70.7c-.1 0-.2 0-.2-.1-.1-.1-.1-.1-.1-.2V52.5c0-.2.1-.3.3-.3.2 0 .3.1.3.3v17.9c0 .1 0 .2-.1.2-.1.1-.1.1-.2.1z"/>
    </defs>
    <clipPath id="SVGID_118_">
      <use overflow="visible" xlink:href="#SVGID_265_"/>
    </clipPath>
    <g clip-path="url(#SVGID_118_)">
      <defs>
        <path id="SVGID_267_" d="M-105.4-661.1h313v2613h-313z"/>
      </defs>
      <clipPath id="SVGID_120_">
        <use overflow="visible" xlink:href="#SVGID_267_"/>
      </clipPath>
      <path fill="#0a2e40" d="M59.2 48.1h8.9v26.8h-8.9z" clip-path="url(#SVGID_120_)"/>
    </g>
  </g>
  <g>
    <defs>
      <path id="SVGID_269_" d="M74.6 57.4H58.4c-.2 0-.3-.1-.3-.3 0-.2.1-.3.3-.3h16.2c.2 0 .3.1.3.3 0 .1-.2.3-.3.3z"/>
    </defs>
    <clipPath id="SVGID_122_">
      <use overflow="visible" xlink:href="#SVGID_269_"/>
    </clipPath>
    <g clip-path="url(#SVGID_122_)">
      <defs>
        <path id="SVGID_271_" d="M-105.4-661.1h313v2613h-313z"/>
      </defs>
      <clipPath id="SVGID_124_">
        <use overflow="visible" xlink:href="#SVGID_271_"/>
      </clipPath>
      <path fill="#0a2e40" d="M53.9 52.6H79v8.9H53.9z" clip-path="url(#SVGID_124_)"/>
    </g>
  </g>
  <g>
    <defs>
      <path id="SVGID_273_" d="M74.6 62H58.4c-.2 0-.3-.1-.3-.3 0-.2.1-.3.3-.3h16.2c.2 0 .3.1.3.3 0 .1-.2.3-.3.3z"/>
    </defs>
    <clipPath id="SVGID_126_">
      <use overflow="visible" xlink:href="#SVGID_273_"/>
    </clipPath>
    <g clip-path="url(#SVGID_126_)">
      <defs>
        <path id="SVGID_275_" d="M-105.4-661.1h313v2613h-313z"/>
      </defs>
      <clipPath id="SVGID_128_">
        <use overflow="visible" xlink:href="#SVGID_275_"/>
      </clipPath>
      <path fill="#0a2e40" d="M53.9 57.2H79v8.9H53.9z" clip-path="url(#SVGID_128_)"/>
    </g>
  </g>
  <g>
    <defs>
      <path id="SVGID_277_" d="M74.6 66.4H58.4c-.2 0-.3-.1-.3-.3 0-.2.1-.3.3-.3h16.2c.2 0 .3.1.3.3 0 .2-.2.3-.3.3z"/>
    </defs>
    <clipPath id="SVGID_130_">
      <use overflow="visible" xlink:href="#SVGID_277_"/>
    </clipPath>
    <g clip-path="url(#SVGID_130_)">
      <defs>
        <path id="SVGID_279_" d="M-105.4-661.1h313v2613h-313z"/>
      </defs>
      <clipPath id="SVGID_132_">
        <use overflow="visible" xlink:href="#SVGID_279_"/>
      </clipPath>
      <path fill="#0a2e40" d="M53.9 61.6H79v8.9H53.9z" clip-path="url(#SVGID_132_)"/>
    </g>
  </g>
  <g>
    <defs>
      <path id="SVGID_281_" d="M69.1 70.7c-.1 0-.2 0-.2-.1-.1-.1-.1-.1-.1-.2V52.5c0-.2.1-.3.3-.3.2 0 .3.1.3.3v17.9c0 .1 0 .2-.1.2 0 .1-.1.1-.2.1z"/>
    </defs>
    <clipPath id="SVGID_134_">
      <use overflow="visible" xlink:href="#SVGID_281_"/>
    </clipPath>
    <g clip-path="url(#SVGID_134_)">
      <defs>
        <path id="SVGID_283_" d="M-105.4-661.1h313v2613h-313z"/>
      </defs>
      <clipPath id="SVGID_136_">
        <use overflow="visible" xlink:href="#SVGID_283_"/>
      </clipPath>
      <path fill="#0a2e40" d="M64.7 48.1h8.9v26.8h-8.9z" clip-path="url(#SVGID_136_)"/>
    </g>
  </g>
  <g>
    <defs>
      <path id="SVGID_285_" d="M30.9 68.6V73c0 .7.3 1.4.6 1.4h22.1v-5.7H30.9z"/>
    </defs>
    <clipPath id="SVGID_138_">
      <use overflow="visible" xlink:href="#SVGID_285_"/>
    </clipPath>
    <g clip-path="url(#SVGID_138_)">
      <defs>
        <path id="SVGID_287_" d="M-105.4-661.1h313v2613h-313z"/>
      </defs>
      <clipPath id="SVGID_140_">
        <use overflow="visible" xlink:href="#SVGID_287_"/>
      </clipPath>
      <path fill="#b6c0d0" d="M26.7 64.4h31v14.1h-31z" clip-path="url(#SVGID_140_)"/>
    </g>
  </g>
  <g>
    <defs>
      <path id="SVGID_289_" d="M31.2 68.9V73c0 .7.2 1 .3 1.1h21.8V69H31.2zm22.4 5.7H31.5c-.6 0-.9-.8-.9-1.6v-4.4c0-.1 0-.2.1-.2.1-.1.1-.1.2-.1h22.7c.1 0 .2 0 .2.1.1.1.1.1.1.2v5.7c0 .1 0 .2-.1.2s-.2.1-.2.1z"/>
    </defs>
    <clipPath id="SVGID_142_">
      <use overflow="visible" xlink:href="#SVGID_289_"/>
    </clipPath>
    <g clip-path="url(#SVGID_142_)">
      <defs>
        <path id="SVGID_291_" d="M-105.4-661.1h313v2613h-313z"/>
      </defs>
      <clipPath id="SVGID_144_">
        <use overflow="visible" xlink:href="#SVGID_291_"/>
      </clipPath>
      <path fill="#0a2e40" d="M26.4 64.1H58v14.6H26.4z" clip-path="url(#SVGID_144_)"/>
    </g>
  </g>
  <g>
    <defs>
      <path id="SVGID_293_" d="M97.6 74.6H.4c-.1 0-.1-.2-.1-.3 0-.2.1-.3.1-.3h97.2c.1 0 .1.2.1.3 0 .1 0 .3-.1.3z"/>
    </defs>
    <clipPath id="SVGID_146_">
      <use overflow="visible" xlink:href="#SVGID_293_"/>
    </clipPath>
    <g clip-path="url(#SVGID_146_)">
      <defs>
        <path id="SVGID_295_" d="M-140.7-2405.2h375v3111h-375z"/>
      </defs>
      <clipPath id="SVGID_148_">
        <use overflow="visible" xlink:href="#SVGID_295_"/>
      </clipPath>
      <path fill="#0a2e40" d="M-4.7 68.9h107.4v10.7H-4.7z" clip-path="url(#SVGID_148_)"/>
    </g>
  </g>
</svg>