<?xml version="1.0" encoding="UTF-8"?>
<svg width="375px" height="298px" viewBox="0 0 375 298" version="1.1" xmlns="http://www.w3.org/2000/svg" xmlns:xlink="http://www.w3.org/1999/xlink">
    <!-- Generator: Sketch 55.2 (78181) - https://sketchapp.com -->
    <title>Connect-Setup-02-B</title>
    <desc>Created with Sketch.</desc>
    <g id="x_Exploration" stroke="none" stroke-width="1" fill="none" fill-rule="evenodd">
        <g id="Install_Equipment-Copy-6" transform="translate(0.000000, -65.000000)">
            <g id="Connect-Setup-02-B" transform="translate(0.000000, 65.000000)">
                <path d="M271.773617,216.451596 C256.489019,216.451596 244.098404,204.060981 244.098404,188.776383 C244.098404,173.491785 256.489019,161.10117 271.773617,161.10117 C287.058215,161.10117 299.44883,173.491785 299.44883,188.776383 C299.416471,204.047557 287.044791,216.419237 271.773617,216.451596 L271.773617,216.451596 Z M271.773617,163.622447 C257.881482,163.622447 246.619681,174.884248 246.619681,188.776383 C246.619681,202.668518 257.881482,213.930319 271.773617,213.930319 C285.665752,213.930319 296.927553,202.668518 296.927553,188.776383 C296.895207,174.897668 285.652332,163.654793 271.773617,163.622447 Z" id="Shape" fill="#232A2D" fill-rule="nonzero"></path>
                <path d="M271.773617,216.451596 C256.502443,216.419237 244.130763,204.047557 244.098404,188.776383 L244.098404,157.840319 L246.619681,157.840319 L246.619681,188.776383 C246.619681,202.668518 257.881482,213.930319 271.773617,213.930319 C285.665752,213.930319 296.927553,202.668518 296.927553,188.776383 L296.927553,157.840319 L299.44883,157.840319 L299.44883,188.776383 C299.416471,204.047557 287.044791,216.419237 271.773617,216.451596 L271.773617,216.451596 Z" id="Path" fill="#171B1C" fill-rule="nonzero"></path>
                <rect id="Rectangle" fill="#9BA9BD" fill-rule="nonzero" x="294.53234" y="156.999894" width="7.32010638" height="1"></rect>
                <rect id="Rectangle" fill="#9BA9BD" fill-rule="nonzero" x="295.263511" y="143.687553" width="5.85776596" height="1.43712766"></rect>
                <rect id="Rectangle" fill="#232A2D" fill-rule="nonzero" x="295.263511" y="147.486277" width="5.85776596" height="4.77361702"></rect>
                <rect id="Rectangle" fill="#D8DDE6" fill-rule="nonzero" x="295.263511" y="152.226277" width="5.85776596" height="4.77361702"></rect>
                <rect id="Rectangle" fill="#171B1C" fill-rule="nonzero" x="295.263511" y="147.486277" width="5.85776596" height="1"></rect>
                <path d="M298.188191,142.687447 L298.188191,142.687447 C298.359929,142.687447 298.499149,142.826667 298.499149,142.998404 L298.499149,143.712766 L297.86883,143.712766 L297.86883,143.032021 C297.859036,142.942415 297.888607,142.852969 297.949881,142.786858 C298.011154,142.720746 298.098101,142.684477 298.188191,142.687447 L298.188191,142.687447 Z" id="Path" fill="#FEB533" fill-rule="nonzero"></path>
                <rect id="Rectangle" fill="#EFF2F4" fill-rule="nonzero" x="294.53234" y="145.124681" width="7.32010638" height="2.37"></rect>
                <rect id="Rectangle" fill="#D8DDE6" fill-rule="nonzero" x="294.53234" y="145.124681" width="1.13457447" height="2.37"></rect>
                <rect id="Rectangle" fill="#D8DDE6" fill-rule="nonzero" x="300.717872" y="145.124681" width="1.13457447" height="2.37"></rect>
                <rect id="Rectangle" fill="#D8DDE6" fill-rule="nonzero" x="297.457021" y="145.124681" width="1.47914894" height="2.37"></rect>
                <rect id="Rectangle" fill="#9BA9BD" fill-rule="nonzero" x="241.703191" y="156.999894" width="7.32010638" height="1"></rect>
                <rect id="Rectangle" fill="#9BA9BD" fill-rule="nonzero" x="242.434362" y="143.687553" width="5.85776596" height="1.43712766"></rect>
                <rect id="Rectangle" fill="#232A2D" fill-rule="nonzero" x="242.434362" y="147.486277" width="5.85776596" height="4.77361702"></rect>
                <rect id="Rectangle" fill="#D8DDE6" fill-rule="nonzero" x="242.434362" y="152.226277" width="5.85776596" height="4.77361702"></rect>
                <rect id="Rectangle" fill="#171B1C" fill-rule="nonzero" x="242.434362" y="147.486277" width="5.85776596" height="1"></rect>
                <path d="M245.359043,142.687447 L245.359043,142.687447 C245.53078,142.687447 245.67,142.826667 245.67,142.998404 L245.67,143.712766 L245.039681,143.712766 L245.039681,143.032021 C245.029887,142.942415 245.059458,142.852969 245.120732,142.786858 C245.182006,142.720746 245.268952,142.684477 245.359043,142.687447 L245.359043,142.687447 Z" id="Path" fill="#FEB533" fill-rule="nonzero"></path>
                <rect id="Rectangle" fill="#EFF2F4" fill-rule="nonzero" x="241.703191" y="145.124681" width="7.32010638" height="2.37"></rect>
                <rect id="Rectangle" fill="#D8DDE6" fill-rule="nonzero" x="241.703191" y="145.124681" width="1.13457447" height="2.37"></rect>
                <rect id="Rectangle" fill="#D8DDE6" fill-rule="nonzero" x="247.888723" y="145.124681" width="1.13457447" height="2.37"></rect>
                <rect id="Rectangle" fill="#D8DDE6" fill-rule="nonzero" x="244.627872" y="145.124681" width="1.47914894" height="2.37"></rect>
                <rect id="Rectangle" fill="#FFFFFF" fill-rule="nonzero" x="0" y="0" width="375" height="297"></rect>
                <path d="M143.768404,152.520426 C145.642553,151.133723 145.751809,142.721064 142.18,137.91383 C138.608191,133.106596 131.540213,130.80383 129.674468,132.198936 L143.768404,152.520426 Z" id="Path" fill="#F1F2F6" fill-rule="nonzero"></path>
                <path d="M169.510638,156.504043 C169.510638,156.504043 160.702979,165.244468 162.694787,183.464894 C162.938511,185.700426 157.559787,179.321596 157.559787,179.321596 C157.559787,179.321596 161.450957,163.656064 169.510638,155.075319 C169.838404,154.680319 169.510638,156.504043 169.510638,156.504043 Z" id="Path" fill="#F1F2F6" fill-rule="nonzero"></path>
                <path d="M131.06117,84.7148936 C131.06117,84.7148936 155.223404,90.1944681 156.156277,109.641915 C156.652128,119.878298 146.676277,124.231702 146.676277,124.231702 L131.06117,84.7148936 Z" id="Path" fill="#F1F2F6" fill-rule="nonzero"></path>
                <path d="M140.238617,165.664681 C140.331064,163.874574 139.843617,159.504362 133.666489,156.285532 C132.458049,155.722485 131.176472,155.332071 129.859362,155.125745 C129.455957,155.033298 129.069362,157.159574 128.699574,157.109149 C128.07766,157.041915 127.556596,154.587872 127.018723,154.587872 C125.022405,154.650076 123.129014,155.488233 121.740851,156.924255 C121.740851,156.924255 124.060426,162.218936 128.859255,164.538511 C132.384697,166.158045 136.275802,166.816227 140.137766,166.446277 C145.555903,170.472771 150.04446,175.6177 153.29883,181.531915 C154.139255,183.095106 156.357979,177.674362 156.357979,177.674362 C156.357979,177.674362 156.710957,175.506064 140.238617,165.664681 Z" id="Path" fill="#F1F2F6" fill-rule="nonzero"></path>
                <path d="M141.423617,147.914894 C142.205213,144.427128 141.154681,138.283617 136.952553,133.888191 C131.565426,128.248936 123.060319,127.627021 120.866809,129.686064 L140.364681,150.108404 C140.510952,149.96667 140.640649,149.808778 140.751277,149.637766 C145.566915,157.26883 152.441596,170.169362 152.90383,182.179043 C152.90383,183.187553 154.811596,183.019468 155.904149,181.750426 C156.841518,180.462467 157.502479,178.994617 157.845532,177.439043 C157.845532,177.439043 153.710638,163.882979 141.423617,147.914894 Z" id="Path" fill="#F1F2F6" fill-rule="nonzero"></path>
                <path d="M186.865426,102.170532 C185.663617,100.170319 178.906596,98.5987234 173.763191,101.666277 C168.619787,104.73383 166.703617,110.995 167.880213,112.995213 L186.865426,102.170532 Z" id="Path" fill="#F1F2F6" fill-rule="nonzero"></path>
                <path d="M165.661489,118.365532 L186.747766,102.111702 C186.209894,101.439362 174.418723,103.851383 168.258404,108.608191 C162.703191,112.885957 162.526702,116.172021 163.888191,118.575638 C158.921277,125.441915 153.945957,134.047872 152.592872,136.434681 C150.248085,130.602128 147.59234,124.769574 144.844149,119.01266 C149.817461,115.512388 152.211151,109.374213 150.920426,103.43117 C150.658393,102.088436 150.284501,100.769974 149.80266,99.4895745 C149.718617,99.2626596 145.171915,99.0945745 145.079468,98.8760638 C144.66766,97.8591489 147.25617,95.3378723 146.760319,94.405 C142.995213,87.6815957 136.801277,83.1432979 130.926702,80.2102128 C130.203936,79.8488298 131.035957,85.3031915 130.33,84.992234 C129.624043,84.6812766 127.396915,78.605 126.71617,78.3360638 C120.387766,75.8568085 115.370426,75.2937234 115.790638,75.8147872 C123.606596,86.2276596 143.255745,120.037979 143.255745,120.037979 L143.440638,119.937128 C152.887021,141.334362 160.148298,163.353511 154.416596,182.969043 C154.172872,183.809468 159.148191,184.154043 159.383511,183.313617 C162.812447,170.824894 160.07266,156.680532 154.870426,142.292447 C157.089149,133.17383 162.610745,123.349255 165.661489,118.365532 Z" id="Path" fill="#F1F2F6" fill-rule="nonzero"></path>
                <path d="M190.521277,139.813191 C189.52117,137.569255 182.856596,135.922021 177.074468,138.392872 C169.695532,141.552872 166.308617,152.554043 167.308723,154.797979 L190.521277,139.813191 Z" id="Path" fill="#F1F2F6" fill-rule="nonzero"></path>
                <path d="M190.638936,139.88883 C190.243936,139.451809 187.529362,139.090426 183.915532,139.77117 C183.251596,139.88883 181.890106,142.998404 181.184149,143.200106 C180.478191,143.401809 180.511809,140.67883 179.814255,140.930957 C177.223831,141.921502 174.828362,143.36106 172.737872,145.183511 C165.03117,151.906915 167.00617,158.630319 167.770957,159.596809 L190.638936,139.88883 Z" id="Path" fill="#F1F2F6" fill-rule="nonzero"></path>
                <path d="M186.100638,202.878723 L128.733191,202.878723 C130.178485,199.719885 132.215388,196.86708 134.73383,194.474468 C144.247447,185.456702 146.155213,182.019362 146.499787,179.556915 L168.350851,179.556915 C168.712234,182.019362 170.611596,185.439894 180.116809,194.474468 C182.632221,196.865965 184.663789,199.71929 186.100638,202.878723 Z" id="Path" fill="#F1F2F6" fill-rule="nonzero"></path>
                <path d="M187.865532,218.754362 C187.651071,219.890334 187.370452,221.012813 187.025106,222.116064 C184.960062,228.994989 180.561597,234.938861 174.586809,238.924574 L140.213404,238.924574 C134.241074,234.936279 129.843338,228.993392 127.775106,222.116064 C127.429687,221.012833 127.149067,219.890351 126.934681,218.754362 L187.865532,218.754362 Z" id="Path" fill="#F1F2F6" fill-rule="nonzero"></path>
                <rect id="Rectangle" fill="#D8DDE6" fill-rule="nonzero" x="0.268829787" y="238.91617" width="375" height="58.5692553"></rect>
                <rect id="Rectangle" fill="#293033" fill-rule="nonzero" x="103.991064" y="236.974787" width="11.8752128" height="9.53042553" rx="0.81"></rect>
                <rect id="Rectangle" fill="#1D2326" fill-rule="nonzero" x="86.7791489" y="44.8787234" width="48.4169149" height="225.511383"></rect>
                <path d="M77.6773404,39.0629787 C76.8243815,39.0629787 76.0087318,39.412921 75.4176007,40.0278241 C74.8264696,40.6427272 74.5106225,41.471467 74.5425532,42.3238298 C75.6939362,73.0665957 76.2234043,111.238723 75.8788298,158.554681 C75.5930851,200.416277 73.8281915,239.680957 67.8191489,274.340106 C67.6577374,275.254708 67.9090638,276.19387 68.5056961,276.905614 C69.1023285,277.617357 69.9831801,278.029574 70.9119149,278.029574 L86.7791489,278.029574 L86.7791489,39.0629787 L77.6773404,39.0629787 Z" id="Path" fill="#232A2D" fill-rule="nonzero"></path>
                <path d="M144.297872,39.062978 C145.152291,39.062978 145.970135,39.4096388 146.5631,40.0248002 C147.156065,40.6399617 147.473048,41.4700101 147.441064,42.3238298 C146.289681,73.0665957 145.760213,111.238723 146.104787,158.554681 C146.390532,200.416277 148.155426,239.680957 154.164468,274.340106 C154.32588,275.254708 154.074553,276.19387 153.477921,276.905614 C152.881289,277.617357 152.000437,278.029574 151.071702,278.029574 L135.196064,278.029574 L135.196064,39.062978 L144.297872,39.062978 Z" id="Path" fill="#232A2D" fill-rule="nonzero"></path>
                <rect id="Rectangle" fill="#171B1C" fill-rule="nonzero" x="86.7791489" y="44.8787234" width="2.99191489" height="225.511383"></rect>
                <rect id="Rectangle" fill="#171B1C" fill-rule="nonzero" x="132.204149" y="44.8787234" width="2.99191489" height="225.511383"></rect>
                <circle id="Oval" fill="#9BA9BD" fill-rule="nonzero" cx="110.991809" cy="194.415638" r="4.92489362"></circle>
                <circle id="Oval" fill="#FFFFFF" fill-rule="nonzero" cx="110.991809" cy="194.415638" r="3.77351064"></circle>
                <circle id="Oval" fill="#1B2123" fill-rule="nonzero" cx="110.991809" cy="194.415638" r="1"></circle>
                <circle id="Oval" fill="#293033" fill-rule="nonzero" cx="110.991809" cy="256.07766" r="2.99191489"></circle>
                <circle id="Oval" fill="#0E1314" fill-rule="nonzero" cx="110.991809" cy="256.07766" r="2.15989362"></circle>
                <rect id="Rectangle" fill="#9BA9BD" fill-rule="nonzero" x="104.697021" y="95.8337234" width="12.5895745" height="13.6064894"></rect>
                <rect id="Rectangle" fill="#63738A" fill-rule="nonzero" x="105.671915" y="99.7080851" width="1.84053191" height="5.85776596"></rect>
                <rect id="Rectangle" fill="#63738A" fill-rule="nonzero" x="114.462766" y="99.7080851" width="1.84053191" height="5.85776596"></rect>
                <rect id="Rectangle" fill="#63738A" fill-rule="nonzero" transform="translate(110.987606, 102.636968) rotate(180.000000) translate(-110.987606, -102.636968) " x="107.512447" y="97.6070213" width="6.95031915" height="10.0598936"></rect>
                <rect id="Rectangle" fill="#293033" fill-rule="nonzero" x="106.596383" y="100.245957" width="8.79085106" height="1"></rect>
                <rect id="Rectangle" fill="#293033" fill-rule="nonzero" x="106.596383" y="101.313298" width="8.79085106" height="1"></rect>
                <rect id="Rectangle" fill="#293033" fill-rule="nonzero" x="106.596383" y="102.372234" width="8.79085106" height="1"></rect>
                <rect id="Rectangle" fill="#293033" fill-rule="nonzero" x="106.596383" y="103.439574" width="8.79085106" height="1"></rect>
                <rect id="Rectangle" fill="#293033" fill-rule="nonzero" x="106.596383" y="104.506915" width="8.79085106" height="1"></rect>
                <rect id="Rectangle" fill="#9BA9BD" fill-rule="nonzero" x="104.697021" y="109.448617" width="12.5895745" height="13.6064894"></rect>
                <rect id="Rectangle" fill="#63738A" fill-rule="nonzero" x="105.671915" y="113.322979" width="1.84053191" height="5.85776596"></rect>
                <rect id="Rectangle" fill="#63738A" fill-rule="nonzero" x="114.462766" y="113.322979" width="1.84053191" height="5.85776596"></rect>
                <rect id="Rectangle" fill="#63738A" fill-rule="nonzero" transform="translate(110.987606, 116.251862) rotate(180.000000) translate(-110.987606, -116.251862) " x="107.512447" y="111.221915" width="6.95031915" height="10.0598936"></rect>
                <rect id="Rectangle" fill="#293033" fill-rule="nonzero" x="106.596383" y="113.852447" width="8.79085106" height="1"></rect>
                <rect id="Rectangle" fill="#293033" fill-rule="nonzero" x="106.596383" y="114.919787" width="8.79085106" height="1"></rect>
                <rect id="Rectangle" fill="#293033" fill-rule="nonzero" x="106.596383" y="115.987128" width="8.79085106" height="1"></rect>
                <rect id="Rectangle" fill="#293033" fill-rule="nonzero" x="106.596383" y="117.054468" width="8.79085106" height="1"></rect>
                <rect id="Rectangle" fill="#293033" fill-rule="nonzero" x="106.596383" y="118.113404" width="8.79085106" height="1"></rect>
                <rect id="Rectangle" fill="#FEB533" fill-rule="nonzero" x="105.243298" y="214.123617" width="11.488617" height="14.5981915"></rect>
                <polygon id="Path" fill="#BC812B" fill-rule="nonzero" points="115.43766 219.468723 115.43766 218.502234 113.445851 218.502234 113.445851 215.955745 111.462447 215.955745 111.462447 215.325426 109.084043 215.325426 109.084043 215.955745 107.394787 215.955745 107.394787 226.881277 109.084043 226.881277 109.084043 227.511596 111.462447 227.511596 111.462447 226.881277 113.445851 226.881277 113.445851 224.334787 115.43766 224.334787 115.43766 223.368298 116.219255 223.368298 116.219255 219.468723"></polygon>
                <rect id="Rectangle" fill="#FFFFFF" fill-rule="nonzero" x="114.210638" y="214.686702" width="1.79851064" height="3.27765957"></rect>
                <rect id="Rectangle" fill="#FFFFFF" fill-rule="nonzero" x="114.210638" y="224.881064" width="1.79851064" height="3.27765957"></rect>
                <rect id="Rectangle" fill="#293033" fill-rule="nonzero" x="107.394787" y="222.074043" width="1.68925532" height="1"></rect>
                <rect id="Rectangle" fill="#293033" fill-rule="nonzero" x="107.394787" y="219.451915" width="1.68925532" height="1"></rect>
                <rect id="Rectangle" fill="#293033" fill-rule="nonzero" x="107.394787" y="218.577872" width="1.68925532" height="1"></rect>
                <rect id="Rectangle" fill="#293033" fill-rule="nonzero" x="107.394787" y="217.70383" width="1.68925532" height="1"></rect>
                <rect id="Rectangle" fill="#293033" fill-rule="nonzero" x="107.394787" y="216.829787" width="1.68925532" height="1"></rect>
                <rect id="Rectangle" fill="#293033" fill-rule="nonzero" x="107.394787" y="215.955745" width="1.68925532" height="1"></rect>
                <rect id="Rectangle" fill="#293033" fill-rule="nonzero" x="107.394787" y="220.325957" width="1.68925532" height="1"></rect>
                <rect id="Rectangle" fill="#293033" fill-rule="nonzero" x="107.394787" y="221.2" width="1.68925532" height="1"></rect>
                <rect id="Rectangle" fill="#293033" fill-rule="nonzero" x="107.394787" y="223.822128" width="1.68925532" height="1"></rect>
                <rect id="Rectangle" fill="#293033" fill-rule="nonzero" x="107.394787" y="224.69617" width="1.68925532" height="1"></rect>
                <rect id="Rectangle" fill="#293033" fill-rule="nonzero" x="107.394787" y="225.570213" width="1.68925532" height="1"></rect>
                <rect id="Rectangle" fill="#293033" fill-rule="nonzero" x="107.394787" y="226.444255" width="1.68925532" height="1"></rect>
                <rect id="Rectangle" fill="#293033" fill-rule="nonzero" x="107.394787" y="222.948085" width="1.68925532" height="1"></rect>
                <circle id="Oval" fill="#0E1314" fill-rule="nonzero" cx="110.991809" cy="241.74" r="2.99191489"></circle>
                <circle id="Oval" fill="#FFFFFF" fill-rule="nonzero" cx="110.991809" cy="241.74" r="1"></circle>
                <polygon id="Path" fill="#D8DDE6" fill-rule="nonzero" points="108.016702 93.22 107.092234 91.0096809 107.47883 91.0096809 108.134362 92.6905319 108.781489 91.0096809 109.159681 91.0096809 108.226809 93.22"></polygon>
                <path d="M109.941277,93.287234 C109.791668,93.2860352 109.644586,93.2485437 109.51266,93.1779787 C109.389415,93.101451 109.288079,92.994324 109.218511,92.8670213 C109.141501,92.7315467 109.103674,92.5773286 109.109255,92.4215957 C109.105227,92.2686941 109.143002,92.117592 109.218511,91.9845745 C109.288079,91.8572718 109.389415,91.7501447 109.51266,91.673617 C109.644586,91.6030521 109.791668,91.5655606 109.941277,91.5643617 C110.092525,91.5612752 110.241419,91.6021479 110.369894,91.6820213 C110.495158,91.7550809 110.599387,91.8593099 110.672447,91.9845745 C110.744076,92.1221331 110.781549,92.2749094 110.781702,92.43 C110.781531,92.5824115 110.744018,92.7324598 110.672447,92.8670213 C110.60055,92.9953674 110.496222,93.1025929 110.369894,93.1779787 C110.23934,93.2520157 110.091341,93.2897408 109.941277,93.287234 Z M109.941277,92.9762766 C110.030447,92.9824158 110.119131,92.9587667 110.193404,92.9090426 C110.268185,92.8636736 110.326944,92.7961004 110.361489,92.7157447 C110.405493,92.6269041 110.428496,92.5291409 110.428723,92.43 C110.430456,92.3306392 110.407345,92.2324189 110.361489,92.1442553 C110.32746,92.0613821 110.268782,91.9909695 110.193404,91.9425532 C110.117379,91.8968261 110.029976,91.8735188 109.941277,91.8753191 C109.855366,91.8746451 109.770967,91.8979275 109.697553,91.9425532 C109.622201,91.9896902 109.56117,92.0565329 109.521064,92.1358511 C109.442553,92.3182582 109.442553,92.5249333 109.521064,92.7073404 C109.560967,92.789035 109.621879,92.858648 109.697553,92.9090426 C109.775047,92.9392183 109.859247,92.9479285 109.941277,92.9342553 L109.941277,92.9762766 Z" id="Shape" fill="#D8DDE6" fill-rule="nonzero"></path>
                <path d="M111.351145,91.278617 C111.28491,91.2768673 111.221385,91.2561054 111.171145,91.2197872 C111.122061,91.1772391 111.096639,91.1192481 111.101145,91.0601064 C111.098284,91.0036799 111.123704,90.9488301 111.171222,90.9088943 C111.218741,90.8689586 111.284005,90.8475956 111.351145,90.85 C111.41851,90.8464631 111.484323,90.8679729 111.531145,90.9088298 C111.581322,90.9479294 111.610236,91.0026046 111.611145,91.0601064 C111.611799,91.120324 111.582854,91.1780989 111.531145,91.2197872 C111.481828,91.2573781 111.417724,91.2783295 111.351145,91.278617 Z M111.141145,93.2031915 L111.141145,91.5223404 L111.601145,91.5223404 L111.601145,93.2031915 L111.141145,93.2031915 Z" id="Shape" fill="#D8DDE6" fill-rule="nonzero"></path>
                <path d="M112.714681,93.287234 C112.556122,93.2944007 112.398776,93.256521 112.260851,93.1779787 C112.130448,93.1088715 112.022547,93.0038868 111.949894,92.8754255 C111.877307,92.7382293 111.839775,92.5852122 111.840638,92.43 C111.837603,92.2734637 111.878354,92.1191916 111.958298,91.9845745 C112.033684,91.8582459 112.140909,91.7539184 112.269255,91.6820213 C112.403872,91.6020771 112.558145,91.561326 112.714681,91.5643617 C112.798523,91.5561562 112.882966,91.5561562 112.966809,91.5643617 C113.040213,91.5868689 113.110729,91.6178959 113.176915,91.6568085 L113.101277,91.9509574 C112.996375,91.875248 112.869169,91.8367904 112.739894,91.8417021 C112.640645,91.8409915 112.542668,91.864045 112.454149,91.9089362 C112.375622,91.9610828 112.30961,92.0299643 112.260851,92.1106383 C112.214995,92.1988019 112.191884,92.2970221 112.193617,92.396383 C112.192906,92.4956316 112.21596,92.5936089 112.260851,92.6821277 C112.309695,92.7604614 112.375815,92.8265811 112.454149,92.8754255 C112.541157,92.9243205 112.640212,92.9476277 112.739894,92.9426596 C112.874244,92.9463983 113.006426,92.9082126 113.118085,92.8334043 L113.193723,93.1275532 C113.120889,93.1648478 113.044969,93.1957784 112.966809,93.22 C112.886779,93.2554011 112.801711,93.2780859 112.714681,93.287234 Z" id="Path" fill="#D8DDE6" fill-rule="nonzero"></path>
                <path d="M114.277872,93.287234 C114.114082,93.2931791 113.951655,93.2554729 113.807234,93.1779787 C113.681322,93.1095225 113.576656,93.007764 113.504681,92.8838298 C113.427671,92.7483552 113.389844,92.5941372 113.395426,92.4384043 C113.390924,92.2811086 113.425579,92.1251594 113.496277,91.9845745 C113.558162,91.8572511 113.654172,91.7496032 113.773617,91.673617 C113.899223,91.602431 114.04105,91.5648035 114.185426,91.5643617 C114.315803,91.5618672 114.444154,91.5968719 114.555213,91.6652128 C114.661064,91.7290237 114.74582,91.8225469 114.798936,91.9341489 C114.859992,92.0595594 114.888875,92.1981944 114.882979,92.3375532 L114.882979,92.4468085 L113.74,92.4468085 C113.750476,92.5839614 113.816526,92.710882 113.922844,92.7981581 C114.029162,92.8854342 114.16652,92.9254898 114.303085,92.9090426 C114.384116,92.9173016 114.465777,92.9173016 114.546809,92.9090426 C114.620742,92.8879814 114.691437,92.8568757 114.756915,92.8165957 L114.824149,93.0939362 C114.662968,93.20674 114.47413,93.2735595 114.277872,93.287234 L114.277872,93.287234 Z M114.168617,91.8501064 C114.061154,91.8478978 113.957622,91.8905284 113.882872,91.967766 C113.802666,92.0531005 113.752502,92.1622811 113.74,92.2787234 L114.580426,92.2787234 C114.586908,92.164652 114.547579,92.0527134 114.47117,91.967766 C114.404575,91.8659577 114.290247,91.8056179 114.168617,91.8080851 L114.168617,91.8501064 Z" id="Shape" fill="#D8DDE6" fill-rule="nonzero"></path>
                <path d="M108.159574,187.490532 C107.94871,187.498026 107.739711,187.448679 107.554468,187.34766 C107.386983,187.254589 107.247639,187.118149 107.151064,186.95266 C107.054712,186.7717 107.005572,186.569357 107.008191,186.364362 C107.008576,186.203784 107.037018,186.044509 107.092234,185.893723 C107.150601,185.759322 107.23322,185.636818 107.335957,185.53234 C107.4393,185.430312 107.562231,185.350264 107.69734,185.297021 C107.841123,185.23774 107.995694,185.209115 108.15117,185.212979 C108.273408,185.212634 108.395078,185.229614 108.512553,185.263404 C108.620656,185.29385 108.722914,185.342138 108.815106,185.406277 L108.747872,185.725638 C108.662797,185.664892 108.569383,185.61677 108.470532,185.582766 C108.373232,185.549073 108.270947,185.532025 108.167979,185.53234 C108.027186,185.531636 107.888472,185.566314 107.764574,185.633191 C107.643798,185.700027 107.546855,185.802844 107.487234,185.92734 C107.417564,186.056226 107.382798,186.201086 107.386383,186.347553 C107.38131,186.496849 107.416122,186.6448 107.487234,186.77617 C107.544795,186.89998 107.642537,187.000684 107.764574,187.061915 C107.888155,187.13794 108.031368,187.175935 108.176383,187.17117 C108.28479,187.170808 108.3925,187.153801 108.495745,187.120745 C108.594596,187.086741 108.68801,187.038618 108.773085,186.977872 L108.831915,187.28883 C108.742359,187.35924 108.639423,187.410708 108.529362,187.440106 C108.40902,187.473915 108.284574,187.490885 108.159574,187.490532 L108.159574,187.490532 Z" id="Path" fill="#D8DDE6" fill-rule="nonzero"></path>
                <path d="M109.647128,187.482128 C109.497967,187.489661 109.35129,187.441767 109.235319,187.34766 C109.131659,187.256453 109.073278,187.124329 109.075638,186.986277 C109.070284,186.832563 109.139063,186.685626 109.260532,186.591277 C109.41376,186.487598 109.596917,186.437378 109.781596,186.448404 L110.117766,186.448404 L110.117766,186.448404 C110.117766,186.196277 109.991702,186.078617 109.73117,186.078617 C109.655935,186.067579 109.579491,186.067579 109.504255,186.078617 C109.425328,186.111139 109.3494,186.150509 109.27734,186.196277 L109.201702,185.918936 C109.373882,185.805301 109.575304,185.743999 109.781596,185.742447 C109.963318,185.736025 110.140649,185.799143 110.277447,185.918936 C110.399901,186.050788 110.463593,186.226698 110.453936,186.406383 L110.453936,187.414894 L110.142979,187.414894 L110.142979,187.221596 C110.032296,187.386601 109.845802,187.484589 109.647128,187.482128 L109.647128,187.482128 Z M109.420213,186.969468 C109.417543,187.040896 109.448684,187.109407 109.504255,187.154362 C109.571005,187.199943 109.650363,187.223457 109.73117,187.221596 C109.834017,187.221087 109.93295,187.182113 110.008511,187.11234 C110.081424,187.045756 110.121377,186.950483 110.117766,186.851809 L110.117766,186.683723 L109.840426,186.683723 C109.724442,186.676709 109.60862,186.699874 109.504255,186.750957 C109.442073,186.805584 109.410662,186.887252 109.420213,186.969468 L109.420213,186.969468 Z" id="Shape" fill="#D8DDE6" fill-rule="nonzero"></path>
                <path d="M111.521277,187.490532 L111.218723,187.490532 C111.103817,187.475487 110.991021,187.447287 110.882553,187.406489 L110.882553,185.154149 L111.227128,185.154149 L111.227128,186.036596 C111.282724,185.962453 111.354608,185.902071 111.437234,185.860106 C111.526075,185.816103 111.623838,185.793099 111.722979,185.792872 C111.856787,185.793152 111.987827,185.831008 112.10117,185.902128 C112.208502,185.978845 112.292788,186.083476 112.344894,186.204681 C112.407856,186.33868 112.439471,186.485259 112.43734,186.633298 C112.438902,186.793951 112.401408,186.952579 112.328085,187.095532 C112.255953,187.226526 112.148122,187.334357 112.017128,187.406489 C111.861593,187.475927 111.691005,187.50484 111.521277,187.490532 L111.521277,187.490532 Z M111.521277,187.196383 C111.675796,187.209303 111.827668,187.150414 111.933085,187.036702 C112.030657,186.915634 112.081374,186.763482 112.075957,186.608085 C112.084628,186.470538 112.046084,186.334152 111.966702,186.221489 C111.89013,186.129107 111.775717,186.076539 111.655745,186.078617 C111.530829,186.073149 111.411285,186.129776 111.336383,186.229894 C111.247346,186.351329 111.202831,186.499714 111.210319,186.650106 L111.210319,187.154362 C111.312034,187.18016 111.416362,187.194259 111.521277,187.196383 L111.521277,187.196383 Z" id="Shape" fill="#D8DDE6" fill-rule="nonzero"></path>
                <polygon id="Path" fill="#D8DDE6" fill-rule="nonzero" points="112.798723 187.414894 112.798723 185.095319 113.143298 185.095319 113.143298 187.414894"></polygon>
                <path d="M114.378723,187.490532 C114.218766,187.494698 114.060175,187.460097 113.916489,187.389681 C113.789187,187.320113 113.68206,187.218776 113.605532,187.095532 C113.534123,186.954881 113.496702,186.799441 113.496277,186.641702 C113.491775,186.484406 113.52643,186.328457 113.597128,186.187872 C113.663149,186.06565 113.758437,185.9617 113.874468,185.885319 C113.99773,185.807679 114.140603,185.766859 114.286277,185.76766 C114.416834,185.763685 114.545602,185.798803 114.656064,185.868511 C114.761915,185.932322 114.846671,186.025845 114.899787,186.137447 C114.963748,186.262107 114.995527,186.400779 114.992234,186.540851 L114.992234,186.734149 L113.840851,186.734149 C113.857594,186.863703 113.920209,186.982969 114.01734,187.070319 C114.126005,187.159028 114.263867,187.203983 114.403936,187.196383 C114.484942,187.205134 114.566654,187.205134 114.64766,187.196383 C114.723018,187.179456 114.794374,187.148059 114.857766,187.103936 L114.925,187.381277 C114.755533,187.464656 114.567224,187.502318 114.378723,187.490532 L114.378723,187.490532 Z M114.277872,186.053404 C114.16788,186.050871 114.061626,186.093373 113.983723,186.171064 C113.903517,186.256398 113.853353,186.365579 113.840851,186.482021 L114.681277,186.482021 C114.684305,186.368465 114.645412,186.25777 114.572021,186.171064 C114.495915,186.090687 114.388416,186.047688 114.277872,186.053404 L114.277872,186.053404 Z" id="Shape" fill="#D8DDE6" fill-rule="nonzero"></path>
                <polygon id="Path" fill="#D8DDE6" fill-rule="nonzero" points="104.739043 203.660319 104.739043 201.466809 106.134149 201.466809 106.134149 201.777766 105.092021 201.777766 105.092021 202.382872 105.848404 202.382872 105.848404 202.69383 105.092021 202.69383 105.092021 203.382979 106.159362 203.382979 106.159362 203.685532"></polygon>
                <path d="M107.235106,203.693936 C107.073679,203.703024 106.915627,203.645274 106.798085,203.534255 C106.690253,203.405276 106.636096,203.239797 106.646809,203.072021 L106.646809,202.324043 L106.361064,202.324043 L106.361064,202.029894 L106.646809,202.029894 L106.646809,201.643298 L106.991383,201.492021 L106.991383,202.029894 L107.453617,202.029894 L107.453617,202.324043 L106.991383,202.324043 L106.991383,203.03 C106.985098,203.12713 107.008551,203.223871 107.058617,203.30734 C107.119806,203.364842 107.201649,203.395155 107.285532,203.391383 L107.386383,203.391383 L107.47883,203.391383 L107.47883,203.685532 L107.344362,203.685532 L107.235106,203.693936 Z" id="Path" fill="#D8DDE6" fill-rule="nonzero"></path>
                <path d="M107.848617,203.660319 L107.848617,201.340745 L108.159574,201.340745 L108.159574,202.231596 C108.263085,202.069321 108.446506,201.976001 108.638617,201.987872 C108.798737,201.981328 108.954248,202.042312 109.067234,202.155957 C109.172735,202.289477 109.226457,202.456611 109.218511,202.626596 L109.218511,203.660319 L108.865532,203.660319 L108.865532,202.677021 C108.872426,202.581301 108.845673,202.486179 108.789894,202.408085 C108.730964,202.340305 108.644297,202.303162 108.554574,202.307234 C108.445148,202.303803 108.340065,202.350163 108.26883,202.433298 C108.191633,202.527738 108.152649,202.647688 108.159574,202.769468 L108.159574,203.660319 L107.848617,203.660319 Z" id="Path" fill="#D8DDE6" fill-rule="nonzero"></path>
                <path d="M110.453936,203.710745 C110.293394,203.711324 110.134996,203.673884 109.991702,203.601489 C109.862241,203.537961 109.756298,203.434961 109.689149,203.30734 C109.610607,203.169416 109.572727,203.012069 109.579894,202.853511 C109.577395,202.696412 109.611946,202.540935 109.680745,202.399681 C109.746766,202.277459 109.842055,202.173508 109.958085,202.097128 C110.198205,201.962386 110.491157,201.962386 110.731277,202.097128 C110.837128,202.160939 110.921883,202.254462 110.975,202.366064 C111.037056,202.49141 111.068726,202.629607 111.067447,202.769468 L111.067447,202.962766 L109.924468,202.962766 C109.93467,203.094811 109.994771,203.218017 110.092553,203.30734 C110.204728,203.388501 110.340779,203.429907 110.479149,203.425 C110.559879,203.437885 110.642142,203.437885 110.722872,203.425 C110.799274,203.407318 110.872824,203.379029 110.941383,203.340957 L111.000213,203.609894 C110.831152,203.693987 110.641879,203.728929 110.453936,203.710745 Z M110.353085,202.273617 C110.244309,202.268847 110.138224,202.30825 110.058936,202.382872 C109.981159,202.472235 109.934036,202.584152 109.924468,202.702234 L110.764894,202.702234 C110.767671,202.586166 110.728928,202.472918 110.655638,202.382872 C110.578207,202.299946 110.465634,202.259295 110.353085,202.273617 Z" id="Shape" fill="#D8DDE6" fill-rule="nonzero"></path>
                <path d="M111.437234,203.660319 L111.437234,202.029894 L111.748191,202.029894 L111.748191,202.29883 C111.787661,202.207554 111.851662,202.129007 111.933085,202.071915 C112.012924,202.018916 112.106211,201.989763 112.202021,201.987872 L112.311277,201.987872 L112.386915,201.987872 L112.386915,202.324043 L112.302872,202.324043 L112.21883,202.324043 C112.108269,202.323895 112.003442,202.373225 111.933085,202.458511 C111.856127,202.559577 111.817423,202.68462 111.82383,202.811489 L111.82383,203.651915 L111.437234,203.660319 Z" id="Path" fill="#D8DDE6" fill-rule="nonzero"></path>
                <path d="M112.681064,203.660319 L112.681064,202.029894 L112.992021,202.029894 L112.992021,202.265213 C113.042174,202.179936 113.114875,202.110143 113.202128,202.063511 C113.29418,202.011143 113.398815,201.984985 113.504681,201.987872 C113.662465,201.980513 113.815711,202.041812 113.924894,202.155957 C114.037044,202.286248 114.094285,202.45496 114.084574,202.626596 L114.084574,203.660319 L113.731596,203.660319 L113.731596,202.677021 C113.73849,202.581301 113.711737,202.486179 113.655957,202.408085 C113.594417,202.338961 113.504624,202.301805 113.412234,202.307234 C113.305727,202.306332 113.204246,202.352459 113.134894,202.433298 C113.057697,202.527738 113.018713,202.647688 113.025638,202.769468 L113.025638,203.660319 L112.681064,203.660319 Z" id="Path" fill="#D8DDE6" fill-rule="nonzero"></path>
                <path d="M115.286383,203.710745 C115.125841,203.711324 114.967443,203.673884 114.824149,203.601489 C114.694055,203.535825 114.585977,203.433588 114.513191,203.30734 C114.442494,203.166756 114.407839,203.010806 114.41234,202.853511 C114.409842,202.696412 114.444393,202.540935 114.513191,202.399681 C114.572764,202.273002 114.669502,202.16747 114.790532,202.097128 C115.030652,201.962386 115.323604,201.962386 115.563723,202.097128 C115.669575,202.160939 115.75433,202.254462 115.807447,202.366064 C115.869503,202.49141 115.901173,202.629607 115.899894,202.769468 L115.899894,202.962766 L114.756915,202.962766 C114.767117,203.094811 114.827217,203.218017 114.925,203.30734 C115.037175,203.388501 115.173226,203.429907 115.311596,203.425 C115.392326,203.437885 115.474589,203.437885 115.555319,203.425 C115.629507,203.408754 115.700499,203.380357 115.765426,203.340957 L115.83266,203.609894 C115.663599,203.693987 115.474326,203.728929 115.286383,203.710745 Z M115.185532,202.273617 C115.076756,202.268847 114.970671,202.30825 114.891383,202.382872 C114.813606,202.472235 114.766483,202.584152 114.756915,202.702234 L115.59734,202.702234 C115.600117,202.586166 115.561375,202.472918 115.488085,202.382872 C115.409186,202.302199 115.29777,202.261965 115.185532,202.273617 L115.185532,202.273617 Z" id="Shape" fill="#D8DDE6" fill-rule="nonzero"></path>
                <path d="M116.95883,203.693936 C116.797403,203.703024 116.63935,203.645274 116.521809,203.534255 C116.413976,203.405276 116.35982,203.239797 116.370532,203.072021 L116.370532,202.324043 L116.084787,202.324043 L116.084787,202.029894 L116.370532,202.029894 L116.370532,201.643298 L116.715106,201.492021 L116.715106,202.029894 L117.17734,202.029894 L117.17734,202.324043 L116.715106,202.324043 L116.715106,203.03 C116.708822,203.12713 116.732274,203.223871 116.78234,203.30734 C116.843529,203.364842 116.925372,203.395155 117.009255,203.391383 L117.110106,203.391383 L117.202553,203.391383 L117.202553,203.685532 L117.068085,203.685532 L116.95883,203.693936 Z" id="Path" fill="#D8DDE6" fill-rule="nonzero"></path>
                <polygon id="Path" fill="#D8DDE6" fill-rule="nonzero" points="105.243298 212.115 105.243298 209.921489 105.638298 209.921489 105.638298 212.115"></polygon>
                <path d="M106.083723,212.115 L106.083723,210.484574 L106.394681,210.484574 L106.394681,210.719894 C106.44725,210.636556 106.519374,210.567316 106.604787,210.518191 C106.697577,210.467691 106.801702,210.44166 106.90734,210.442553 C107.065125,210.435194 107.218371,210.496493 107.327553,210.610638 C107.439703,210.740929 107.496945,210.909641 107.487234,211.081277 L107.487234,212.115 L107.134255,212.115 L107.134255,211.131702 C107.141149,211.035982 107.114396,210.940859 107.058617,210.862766 C106.999688,210.794986 106.913021,210.757843 106.823298,210.761915 C106.713871,210.758484 106.608789,210.804844 106.537553,210.887979 C106.461766,210.983182 106.422961,211.10258 106.428298,211.224149 L106.428298,212.115 L106.083723,212.115 Z" id="Path" fill="#D8DDE6" fill-rule="nonzero"></path>
                <path d="M108.596596,212.148617 C108.435169,212.157705 108.277116,212.099955 108.159574,211.988936 C108.051742,211.859957 107.997586,211.694478 108.008298,211.526702 L108.008298,210.778723 L107.722553,210.778723 L107.722553,210.484574 L108.008298,210.484574 L108.008298,210.106383 L108.352872,209.955106 L108.352872,210.492979 L108.815106,210.492979 L108.815106,210.787128 L108.352872,210.787128 L108.352872,211.493085 C108.346588,211.590216 108.37004,211.686956 108.420106,211.770426 C108.481295,211.827928 108.563138,211.85824 108.647021,211.854468 L108.747872,211.854468 L108.840319,211.854468 L108.840319,212.148617 L108.705851,212.148617 L108.596596,212.148617 Z" id="Path" fill="#D8DDE6" fill-rule="nonzero"></path>
                <path d="M109.949681,212.165426 C109.789028,212.166987 109.6304,212.129493 109.487447,212.05617 C109.357353,211.990505 109.249275,211.888269 109.176489,211.762021 C109.102881,211.62219 109.065328,211.466202 109.067234,211.308191 C109.063776,211.153689 109.098412,211.000711 109.168085,210.862766 C109.22997,210.735443 109.325981,210.627795 109.445426,210.551809 C109.569391,210.476683 109.712331,210.43876 109.857234,210.442553 C109.986502,210.440133 110.1141,210.472032 110.227021,210.535 C110.32911,210.603277 110.412815,210.695641 110.470745,210.803936 C110.529901,210.929988 110.558685,211.068152 110.554787,211.20734 L110.554787,211.400638 L109.411809,211.400638 C109.428758,211.532532 109.491171,211.654386 109.588298,211.745213 C109.699873,211.827575 109.836353,211.869112 109.974894,211.862872 C110.055903,211.871559 110.137608,211.871559 110.218617,211.862872 L110.428723,211.770426 L110.495957,212.039362 C110.32944,212.132168 110.140028,212.175879 109.949681,212.165426 L109.949681,212.165426 Z M109.840426,210.728298 C109.73257,210.723932 109.628191,210.766912 109.554681,210.845957 C109.472846,210.930186 109.422411,211.039958 109.411809,211.156915 L110.252234,211.156915 C110.252338,211.043837 110.213788,210.93412 110.142979,210.845957 C110.067215,210.759938 109.954399,210.716065 109.840426,210.728298 L109.840426,210.728298 Z" id="Shape" fill="#D8DDE6" fill-rule="nonzero"></path>
                <path d="M110.924574,212.115 L110.924574,210.484574 L111.235532,210.484574 L111.235532,210.753511 C111.275002,210.662235 111.339003,210.583688 111.420426,210.526596 C111.499843,210.472718 111.593398,210.443483 111.689362,210.442553 L111.790213,210.442553 L111.865851,210.442553 L111.865851,210.778723 L111.781809,210.778723 L111.689362,210.778723 C111.58175,210.781046 111.480492,210.830141 111.412021,210.913191 C111.335063,211.014258 111.29636,211.139301 111.302766,211.26617 L111.302766,212.106596 L110.924574,212.115 Z" id="Path" fill="#D8DDE6" fill-rule="nonzero"></path>
                <path d="M112.168404,212.115 L112.168404,210.484574 L112.479362,210.484574 L112.479362,210.719894 C112.529515,210.634616 112.602216,210.564823 112.689468,210.518191 C112.925108,210.389868 113.216479,210.427136 113.412234,210.610638 C113.517735,210.744158 113.571457,210.911292 113.563511,211.081277 L113.563511,212.115 L113.202128,212.115 L113.202128,211.131702 C113.210703,211.034479 113.180493,210.937808 113.118085,210.862766 C113.059936,210.793924 112.97272,210.756545 112.882766,210.761915 C112.775491,210.757232 112.672434,210.804076 112.605426,210.887979 C112.52729,210.982373 112.485549,211.101632 112.487766,211.224149 L112.487766,212.115 L112.168404,212.115 Z" id="Path" fill="#D8DDE6" fill-rule="nonzero"></path>
                <path d="M114.782128,212.165426 C114.61889,212.166067 114.45775,212.128659 114.311489,212.05617 C114.201068,211.990036 114.108687,211.897656 114.042553,211.787234 C113.968944,211.647403 113.931392,211.491415 113.933298,211.333404 C113.92984,211.178901 113.964476,211.025924 114.034149,210.887979 C114.096034,210.760655 114.192044,210.653007 114.311489,210.577021 C114.43507,210.500996 114.578283,210.463001 114.723298,210.467766 C114.982205,210.452495 115.224643,210.5953 115.336809,210.829149 C115.395964,210.955201 115.424749,211.093365 115.420851,211.232553 L115.420851,211.425851 L114.277872,211.425851 C114.294821,211.557745 114.357235,211.679599 114.454362,211.770426 C114.565292,211.854062 114.702242,211.895743 114.840957,211.888085 C114.921966,211.896772 115.003672,211.896772 115.084681,211.888085 L115.294787,211.795638 L115.362021,212.064574 C115.183052,212.155106 114.981153,212.190219 114.782128,212.165426 Z M114.672872,210.728298 C114.564605,210.721526 114.459236,210.764913 114.387128,210.845957 C114.305293,210.930186 114.254858,211.039958 114.244255,211.156915 L115.084681,211.156915 C115.086208,211.042111 115.044164,210.930995 114.967021,210.845957 C114.895695,210.75881 114.784624,210.714381 114.672872,210.728298 L114.672872,210.728298 Z" id="Shape" fill="#D8DDE6" fill-rule="nonzero"></path>
                <path d="M116.454574,212.148617 C116.290721,212.157092 116.130299,212.099583 116.009149,211.988936 C115.907228,211.857188 115.856474,211.692983 115.866277,211.526702 L115.866277,210.778723 L115.580532,210.778723 L115.580532,210.484574 L115.866277,210.484574 L115.866277,210.106383 L116.210851,209.955106 L116.210851,210.492979 L116.664681,210.492979 L116.664681,210.787128 L116.210851,210.787128 L116.210851,211.493085 C116.200224,211.590544 116.224008,211.688652 116.278085,211.770426 C116.338165,211.829695 116.420808,211.860303 116.505,211.854468 L116.605851,211.854468 L116.689894,211.854468 L116.689894,212.148617 L116.555426,212.148617 L116.454574,212.148617 Z" id="Path" fill="#D8DDE6" fill-rule="nonzero"></path>
                <path d="M106.579574,236.705851 L106.579574,234.478723 L107.260319,234.478723 C107.477942,234.463439 107.693512,234.529307 107.865426,234.663617 C108.005807,234.795465 108.085431,234.979485 108.085431,235.172074 C108.085431,235.364664 108.005807,235.548684 107.865426,235.680532 C107.691101,235.81014 107.477313,235.875463 107.260319,235.865426 L106.932553,235.865426 L106.932553,236.705851 L106.579574,236.705851 Z M107.260319,234.806489 L106.932553,234.806489 L106.932553,235.604894 L107.260319,235.604894 C107.571277,235.604894 107.722553,235.470426 107.722553,235.209894 C107.722553,234.949362 107.571277,234.806489 107.260319,234.806489 Z" id="Shape" fill="#D8DDE6" fill-rule="nonzero"></path>
                <path d="M109.109255,236.747872 C108.95919,236.750379 108.811192,236.712654 108.680638,236.638617 C108.554391,236.565832 108.452154,236.457753 108.386489,236.32766 C108.310981,236.194642 108.273206,236.04354 108.277234,235.890638 C108.271652,235.734905 108.30948,235.580687 108.386489,235.445213 C108.454946,235.319301 108.556704,235.214635 108.680638,235.14266 C108.943548,235.0037 109.258154,235.0037 109.521064,235.14266 C109.647392,235.218045 109.75172,235.325271 109.823617,235.453617 C109.892273,235.588922 109.926891,235.738931 109.924468,235.890638 C109.926917,236.045038 109.892335,236.197777 109.823617,236.336064 C109.750557,236.461328 109.646328,236.565557 109.521064,236.638617 C109.395457,236.709803 109.253631,236.747431 109.109255,236.747872 Z M109.109255,236.445319 C109.198999,236.446082 109.28688,236.419718 109.361383,236.369681 C109.438191,236.326762 109.497631,236.258406 109.529468,236.176383 C109.619443,235.996511 109.619443,235.784766 109.529468,235.604894 C109.494923,235.524538 109.436163,235.456965 109.361383,235.411596 C109.28688,235.361559 109.198999,235.335194 109.109255,235.335957 C109.02197,235.334133 108.936448,235.360674 108.865532,235.411596 C108.788335,235.456484 108.726742,235.523943 108.689043,235.604894 C108.647054,235.69413 108.626889,235.792073 108.630213,235.890638 C108.627817,235.989123 108.647938,236.086854 108.689043,236.176383 C108.729149,236.255701 108.790179,236.322544 108.865532,236.369681 C108.936448,236.420603 109.02197,236.447144 109.109255,236.445319 Z" id="Shape" fill="#D8DDE6" fill-rule="nonzero"></path>
                <path d="M110.680851,236.705851 L110.06734,235.075426 L110.445532,235.075426 L110.806915,236.167979 L111.176702,235.109043 L111.386809,235.109043 L111.765,236.176383 L112.126383,235.075426 L112.49617,235.075426 C112.49617,235.075426 112.49617,235.159468 112.428936,235.235106 C112.361702,235.310745 112.361702,235.42 112.319681,235.529255 C112.27766,235.638511 112.227234,235.764574 112.185213,235.890638 C112.143191,236.016702 112.092766,236.134362 112.050745,236.252021 C112.008723,236.369681 111.966702,236.462128 111.933085,236.54617 L111.874255,236.705851 L111.638936,236.705851 L111.277553,235.663723 L110.907766,236.705851 L110.680851,236.705851 Z" id="Path" fill="#D8DDE6" fill-rule="nonzero"></path>
                <path d="M113.46266,236.747872 C113.302765,236.751382 113.144327,236.716814 113.000426,236.647021 C112.872858,236.580836 112.767624,236.478525 112.697872,236.352872 C112.621378,236.214145 112.583639,236.057384 112.588617,235.899043 C112.586119,235.741944 112.620669,235.586467 112.689468,235.445213 C112.75549,235.322991 112.850778,235.21904 112.966809,235.14266 C113.087583,235.06731 113.22792,235.029302 113.370213,235.033404 C113.499911,235.026912 113.628615,235.059088 113.74,235.125851 C113.845852,235.189662 113.930607,235.283185 113.983723,235.394787 C114.04578,235.520134 114.07745,235.658331 114.07617,235.798191 L114.07617,235.991489 L112.933191,235.991489 C112.944994,236.123094 113.004826,236.24575 113.101277,236.336064 C113.213452,236.417224 113.349503,236.458631 113.487872,236.453723 C113.568603,236.466608 113.650865,236.466608 113.731596,236.453723 C113.809567,236.436825 113.883682,236.405469 113.950106,236.361277 L114.008936,236.638617 C113.840867,236.72604 113.651424,236.763929 113.46266,236.747872 Z M113.361809,235.319149 C113.253032,235.314379 113.146947,235.353782 113.06766,235.428404 C112.989882,235.517767 112.942759,235.629684 112.933191,235.747766 L113.773617,235.747766 C113.776394,235.631698 113.737651,235.51845 113.664362,235.428404 C113.585463,235.347731 113.474047,235.307497 113.361809,235.319149 Z" id="Shape" fill="#D8DDE6" fill-rule="nonzero"></path>
                <path d="M114.445957,236.705851 L114.445957,235.075426 L114.756915,235.075426 L114.756915,235.319149 C114.796385,235.227873 114.860386,235.149326 114.941809,235.092234 C115.019998,235.035858 115.114367,235.006367 115.210745,235.008191 L115.311596,235.008191 L115.395638,235.008191 L115.395638,235.344362 L115.311596,235.344362 L115.227553,235.344362 C115.116162,235.340329 115.009701,235.390429 114.941809,235.47883 C114.864761,235.576613 114.825927,235.69909 114.832553,235.823404 L114.832553,236.66383 L114.445957,236.705851 Z" id="Path" fill="#D8DDE6" fill-rule="nonzero"></path>
                <path d="M105.638298,251.018298 L105.638298,248.824787 L106.361064,248.824787 C106.55236,248.812394 106.742145,248.865771 106.898936,248.976064 C107.026487,249.077457 107.098242,249.233447 107.092234,249.396277 C107.106113,249.593672 106.990493,249.777304 106.806489,249.850106 C106.924915,249.881299 107.028866,249.95258 107.100638,250.051809 C107.288099,250.316214 107.244482,250.679688 106.999787,250.892234 C106.833136,251.009204 106.631445,251.065559 106.428298,251.051915 L105.638298,251.018298 Z M106.361064,249.118936 L105.974468,249.118936 L105.974468,249.75766 L106.344255,249.75766 C106.444011,249.765794 106.543135,249.735756 106.621596,249.673617 C106.689376,249.614688 106.726519,249.528021 106.722447,249.438298 C106.727816,249.348344 106.690438,249.261128 106.621596,249.202979 C106.543135,249.140839 106.444011,249.110802 106.344255,249.118936 L106.361064,249.118936 Z M106.428298,250.026596 L105.974468,250.026596 L105.974468,250.732553 L106.411489,250.732553 C106.520255,250.739797 106.627901,250.706905 106.714043,250.640106 C106.784924,250.57197 106.824984,250.477894 106.824984,250.379574 C106.824984,250.281255 106.784924,250.187179 106.714043,250.119043 C106.627901,250.052244 106.520255,250.019352 106.411489,250.026596 L106.428298,250.026596 Z" id="Shape" fill="#D8DDE6" fill-rule="nonzero"></path>
                <path d="M108.025106,251.060319 C107.874732,251.06633 107.727639,251.015298 107.613298,250.917447 C107.509638,250.826241 107.451257,250.694116 107.453617,250.556064 C107.448263,250.40235 107.517042,250.255414 107.638511,250.161064 C107.792766,250.060342 107.975843,250.013097 108.159574,250.026596 L108.495745,250.026596 C108.510446,249.920933 108.474123,249.814564 108.397864,249.739963 C108.321605,249.665361 108.214463,249.631384 108.109149,249.648404 C108.033913,249.637366 107.95747,249.637366 107.882234,249.648404 C107.803307,249.680926 107.727378,249.720296 107.655319,249.766064 L107.579681,249.497128 C107.750308,249.380225 107.952752,249.318612 108.159574,249.320638 C108.341974,249.309642 108.520993,249.37336 108.655426,249.497128 C108.780514,249.627357 108.844633,249.804449 108.831915,249.984574 L108.831915,250.993085 L108.520957,250.993085 L108.520957,250.799787 C108.410274,250.964793 108.223781,251.062781 108.025106,251.060319 L108.025106,251.060319 Z M107.798191,250.539255 C107.794122,250.610952 107.82554,250.680072 107.882234,250.724149 C107.948984,250.769731 108.028342,250.793244 108.109149,250.791383 C108.21283,250.795488 108.313465,250.755844 108.386489,250.682128 C108.460386,250.616241 108.500543,250.520483 108.495745,250.421596 L108.495745,250.253511 L108.235213,250.253511 C108.119229,250.246497 108.003407,250.269661 107.899043,250.320745 C107.830589,250.371802 107.792634,250.454039 107.798191,250.539255 L107.798191,250.539255 Z" id="Shape" fill="#D8DDE6" fill-rule="nonzero"></path>
                <path d="M109.941277,251.043511 C109.78106,251.054858 109.62317,251.000203 109.504255,250.892234 C109.396423,250.763255 109.342267,250.597776 109.352979,250.43 L109.352979,249.682021 L109.067234,249.682021 L109.067234,249.387872 L109.352979,249.387872 L109.352979,249.001277 L109.697553,248.841596 L109.697553,249.387872 L110.159787,249.387872 L110.159787,249.682021 L109.697553,249.682021 L109.697553,250.387979 C109.691269,250.485109 109.714721,250.58185 109.764787,250.665319 C109.827316,250.719778 109.909004,250.747007 109.991702,250.740957 L110.092553,250.740957 L110.185,250.740957 L110.185,251.035106 L110.050532,251.077128 L109.941277,251.043511 Z" id="Path" fill="#D8DDE6" fill-rule="nonzero"></path>
                <path d="M111.235532,251.043511 C111.075315,251.054858 110.917426,251.000203 110.798511,250.892234 C110.70669,250.762885 110.664887,250.604629 110.680851,250.446809 L110.680851,249.69883 L110.395106,249.69883 L110.395106,249.404681 L110.680851,249.404681 L110.680851,249.018085 L111.025426,248.858404 L111.025426,249.404681 L111.48766,249.404681 L111.48766,249.69883 L111.025426,249.69883 L111.025426,250.404787 C111.019141,250.501918 111.042593,250.598658 111.09266,250.682128 C111.155188,250.736586 111.236877,250.763816 111.319574,250.757766 L111.420426,250.757766 L111.512872,250.757766 L111.512872,251.051915 L111.378404,251.093936 L111.235532,251.043511 Z" id="Path" fill="#D8DDE6" fill-rule="nonzero"></path>
                <path d="M112.588617,251.060319 C112.425958,251.064522 112.264633,251.029953 112.117979,250.959468 C111.993753,250.888744 111.88962,250.787504 111.815426,250.665319 C111.738931,250.526592 111.701192,250.36983 111.70617,250.211489 C111.703672,250.054391 111.738222,249.898914 111.807021,249.75766 C111.873043,249.635438 111.968331,249.531487 112.084362,249.455106 C112.207942,249.379081 112.351155,249.341086 112.49617,249.345851 C112.62577,249.340349 112.754194,249.372456 112.865957,249.438298 C112.969769,249.504556 113.053929,249.597422 113.109681,249.707234 C113.168837,249.833286 113.197621,249.97145 113.193723,250.110638 L113.193723,250.303936 L112.050745,250.303936 C112.061221,250.441089 112.127271,250.56801 112.233589,250.655286 C112.339907,250.742562 112.477264,250.782617 112.61383,250.76617 C112.69456,250.779055 112.776823,250.779055 112.857553,250.76617 C112.932912,250.749243 113.004267,250.717847 113.06766,250.673723 L113.134894,250.951064 C112.966825,251.038487 112.777382,251.076375 112.588617,251.060319 L112.588617,251.060319 Z M112.479362,249.631596 C112.372977,249.626147 112.269228,249.665815 112.193617,249.740851 C112.11329,249.829434 112.06325,249.941289 112.050745,250.060213 L112.89117,250.060213 C112.890857,249.943211 112.849181,249.830089 112.773511,249.740851 C112.702972,249.651102 112.593386,249.601006 112.479362,249.606383 L112.479362,249.631596 Z" id="Shape" fill="#D8DDE6" fill-rule="nonzero"></path>
                <path d="M113.563511,251.018298 L113.563511,249.387872 L113.874468,249.387872 L113.874468,249.656809 C113.913938,249.565533 113.977939,249.486986 114.059362,249.429894 C114.136975,249.372373 114.231743,249.342757 114.328298,249.345851 L114.429149,249.345851 L114.504787,249.345851 L114.504787,249.682021 C114.476984,249.677155 114.448548,249.677155 114.420745,249.682021 L114.336702,249.682021 C114.228244,249.680695 114.125492,249.730514 114.059362,249.816489 C113.979982,249.913462 113.93821,250.035794 113.941702,250.161064 L113.941702,251.001489 L113.563511,251.018298 Z" id="Path" fill="#D8DDE6" fill-rule="nonzero"></path>
                <polygon id="Path" fill="#D8DDE6" fill-rule="nonzero" points="114.975426 251.67383 115.345213 250.833404 114.698085 249.354255 115.076277 249.354255 115.530106 250.472021 115.983936 249.354255 116.353723 249.354255 115.345213 251.640213"></polygon>
                <polygon id="Path" fill="#D8DDE6" fill-rule="nonzero" points="101.074787 103.742128 101.074787 101.943617 100.604149 102.153723 100.595745 101.859574 101.268085 101.548617 101.43617 101.548617 101.43617 103.742128"></polygon>
                <path d="M100.25117,117.37383 L100.25117,117.214149 L100.957128,116.440957 L101.175638,116.172021 C101.224053,116.11059 101.263655,116.042701 101.293298,115.970319 C101.305301,115.912102 101.305301,115.852047 101.293298,115.79383 C101.296745,115.697615 101.256603,115.60498 101.184043,115.541702 C101.102368,115.478737 101.001376,115.446063 100.898298,115.449255 C100.707186,115.449022 100.524558,115.528161 100.394043,115.667766 L100.301596,115.365213 C100.385134,115.286928 100.485888,115.229355 100.595745,115.197128 C100.705535,115.153868 100.82232,115.131081 100.940319,115.129887 C101.068375,115.12937 101.194857,115.158115 101.310106,115.213936 C101.412379,115.266468 101.499257,115.344658 101.562234,115.440851 C101.626804,115.540772 101.659078,115.658134 101.654681,115.777021 C101.665717,115.855073 101.665717,115.934289 101.654681,116.01234 C101.618184,116.106558 101.567138,116.19447 101.503404,116.272872 C101.43617,116.365319 101.335319,116.482979 101.209255,116.625851 L100.814255,117.062872 L101.738723,117.062872 L101.738723,117.37383 L100.25117,117.37383 Z" id="Path" fill="#D8DDE6" fill-rule="nonzero"></path>
                <path d="M254.511277,139.888852 C254.078175,139.89108 253.662161,139.720026 253.355908,139.413773 C253.049655,139.107519 252.878601,138.691506 252.880829,138.258404 L252.880829,58.0818085 C252.880829,57.1813494 253.610817,56.4513611 254.511277,56.4513611 L307.046277,56.4513611 C307.479378,56.4491331 307.895392,56.6201869 308.201645,56.9264401 C308.507898,57.2326933 308.678952,57.648707 308.676724,58.0818085 L308.676724,138.258404 C308.676724,139.158863 307.946736,139.888852 307.046277,139.888852 L254.511277,139.888852 Z" id="Path" fill="#BDC1C6" fill-rule="nonzero"></path>
                <path d="M308.25649,58.0818085 L308.25649,138.258404 C308.251909,138.92488 307.712752,139.464036 307.046277,139.468617 L254.511277,139.468617 C254.196914,139.459904 253.897159,139.334007 253.670851,139.115638 L253.670851,139.115638 C253.452715,138.889889 253.329399,138.589118 253.326277,138.275213 L253.326277,58.0818085 C253.330857,57.4153331 253.870014,56.8761765 254.536489,56.8715957 L307.071489,56.8715957 C307.383588,56.8757464 307.68305,56.9955312 307.911915,57.207766 L307.911915,57.207766 C308.13363,57.4447657 308.25649,57.7572683 308.25649,58.0818085 Z" id="Path" fill="#F8F8F8" fill-rule="nonzero"></path>
                <path d="M307.903511,57.2245745 L303.407234,61.7124468 L258.158723,61.7124468 L258.158723,134.610957 L253.654043,139.115638 L253.654043,139.115638 C253.435906,138.889889 253.31259,138.589118 253.309468,138.275213 L253.309468,58.0818085 C253.314049,57.4153331 253.853205,56.8761765 254.519681,56.8715957 L307.054681,56.8715957 C307.366779,56.8757464 307.666241,56.9955312 307.895106,57.207766 L307.903511,57.2245745 Z" id="Path" fill="#FFFFFF" fill-rule="nonzero"></path>
                <path d="M253.654043,139.115638 L258.150319,134.619362 L303.39883,134.619362 L303.39883,61.7292553 L307.903511,57.2245745 L307.903511,57.2245745 C308.121647,57.4503241 308.244963,57.7510944 308.248085,58.065 L308.248085,138.241596 C308.243504,138.908071 307.704348,139.447228 307.037872,139.451809 L254.511277,139.451809 C254.199178,139.447658 253.899716,139.327873 253.670851,139.115638 L253.654043,139.115638 Z" id="Path" fill="#EFF2F4" fill-rule="nonzero"></path>
                <path d="M280.782979,64.78 C280.685117,64.7714042 280.586691,64.7714042 280.48883,64.78 C279.373998,64.9333494 278.543417,65.8860007 278.543417,67.0113298 C278.543417,68.1366588 279.373998,69.0893102 280.48883,69.2426596 L280.782979,69.2426596 C280.892075,69.2509939 281.001648,69.2509939 281.110745,69.2426596 C282.221161,69.0896278 283.048329,68.1406456 283.048329,67.019734 C283.048329,65.8988225 282.221161,64.9498403 281.110745,64.7968085 C281.002077,64.7828686 280.892503,64.7772494 280.782979,64.78 Z" id="Path" fill="#D8DDE6" fill-rule="nonzero"></path>
                <path d="M283.026915,66.4356383 C283.023368,67.548434 282.210545,68.4931625 281.110745,68.662766 C281.00165,68.671133 280.892074,68.671133 280.782979,68.662766 C280.685107,68.6711105 280.586702,68.6711105 280.48883,68.662766 C279.373998,68.5094166 278.543417,67.5567652 278.543417,66.4314362 C278.543417,65.3061071 279.373998,64.3534557 280.48883,64.2001064 L280.782979,64.2001064 C280.892075,64.1917721 281.001648,64.1917721 281.110745,64.2001064 C282.217412,64.3634791 283.034719,65.3170041 283.026915,66.4356383 Z" id="Path" fill="#FFFFFF" fill-rule="nonzero"></path>
                <path d="M281.110745,64.2085106 L281.110745,68.662766 C281.00165,68.671133 280.892074,68.671133 280.782979,68.662766 C280.685107,68.6711105 280.586702,68.6711105 280.48883,68.662766 L280.48883,64.2001064 L280.782979,64.2001064 C280.892289,64.1945667 281.001862,64.1973488 281.110745,64.2085106 Z" id="Path" fill="#D8DDE6" fill-rule="nonzero"></path>
                <path d="M280.782979,124.929255 C280.685117,124.920659 280.586691,124.920659 280.48883,124.929255 C279.373998,125.082605 278.543417,126.035256 278.543417,127.160585 C278.543417,128.285914 279.373998,129.238566 280.48883,129.391915 L280.782979,129.391915 C280.892075,129.400249 281.001648,129.400249 281.110745,129.391915 C282.221161,129.238883 283.048329,128.289901 283.048329,127.168989 C283.048329,126.048078 282.221161,125.099096 281.110745,124.946064 C281.002077,124.932124 280.892503,124.926505 280.782979,124.929255 Z" id="Path" fill="#D8DDE6" fill-rule="nonzero"></path>
                <path d="M283.026915,126.584894 C283.026347,127.697155 282.211077,128.641152 281.110745,128.803617 C281.001648,128.811951 280.892075,128.811951 280.782979,128.803617 C280.685107,128.811962 280.586702,128.811962 280.48883,128.803617 C279.373998,128.650268 278.543417,127.697616 278.543417,126.572287 C278.543417,125.446958 279.373998,124.494307 280.48883,124.340957 L280.782979,124.340957 C280.892075,124.332623 281.001648,124.332623 281.110745,124.340957 C282.220602,124.504763 283.038938,125.463078 283.026915,126.584894 Z" id="Path" fill="#FFFFFF" fill-rule="nonzero"></path>
                <path d="M281.110745,124.382979 L281.110745,128.82883 C281.001648,128.837164 280.892075,128.837164 280.782979,128.82883 C280.685107,128.837174 280.586702,128.837174 280.48883,128.82883 L280.48883,124.382979 L280.782979,124.382979 C280.892075,124.374644 281.001648,124.374644 281.110745,124.382979 Z" id="Path" fill="#D8DDE6" fill-rule="nonzero"></path>
                <rect id="Rectangle" fill="#9BA9BD" fill-rule="nonzero" x="137.179468" y="188.793191" width="1.28585106" height="11.2448936"></rect>
                <polygon id="Rectangle" fill="#9BA9BD" fill-rule="nonzero" transform="translate(117.820266, 194.419840) rotate(-90.000000) translate(-117.820266, -194.419840) " points="113.319787 193.314681 122.320745 193.314681 122.320745 195.525 113.319787 195.525"></polygon>
                <polygon id="Rectangle" fill="#232A2D" fill-rule="nonzero" transform="translate(126.232926, 194.419840) rotate(-90.000000) translate(-126.232926, -194.419840) " points="121.732447 190.751383 130.733404 190.751383 130.733404 198.088298 121.732447 198.088298"></polygon>
                <polygon id="Rectangle" fill="#D8DDE6" fill-rule="nonzero" transform="translate(133.511011, 194.419840) rotate(-90.000000) translate(-133.511011, -194.419840) " points="129.010532 190.751383 138.011489 190.751383 138.011489 198.088298 129.010532 198.088298"></polygon>
                <polygon id="Rectangle" fill="#171B1C" fill-rule="nonzero" transform="translate(123.131755, 194.411436) rotate(-90.000000) translate(-123.131755, -194.411436) " points="118.631277 193.844149 127.632234 193.844149 127.632234 194.978723 118.631277 194.978723"></polygon>
                <path d="M115.782291,193.650908 L116.118461,193.650908 C116.200932,193.650908 116.280025,193.683669 116.338341,193.741985 C116.396657,193.800301 116.429419,193.879394 116.429419,193.961865 L116.429419,195.180482 L115.471333,195.180482 L115.471333,193.97027 C115.469065,193.886352 115.500822,193.805083 115.559385,193.744936 C115.617949,193.68479 115.698343,193.650877 115.782291,193.650908 L115.782291,193.650908 Z" id="Path" fill="#FEB533" fill-rule="nonzero" transform="translate(115.950319, 194.415695) rotate(-90.000000) translate(-115.950319, -194.415695) "></path>
                <rect id="Rectangle" fill="#EFF2F4" fill-rule="nonzero" x="118.925426" y="188.793191" width="3.63904255" height="11.2448936"></rect>
                <rect id="Rectangle" fill="#D8DDE6" fill-rule="nonzero" x="118.925426" y="198.29" width="3.63904255" height="1.74808511"></rect>
                <rect id="Rectangle" fill="#D8DDE6" fill-rule="nonzero" x="118.925426" y="188.793191" width="3.63904255" height="1.74808511"></rect>
                <rect id="Rectangle" fill="#D8DDE6" fill-rule="nonzero" x="118.925426" y="193.27266" width="3.63904255" height="2.27755319"></rect>
                <path d="M138.465319,194.415638 L204.018511,194.415638 C208.660053,194.415638 212.422766,190.652925 212.422766,186.011383 L212.422766,170.043298 C212.422766,165.401756 216.185479,161.639043 220.827021,161.639043 L272.546809,161.639043 C277.188351,161.639043 280.951064,157.876329 280.951064,153.234787 L280.951064,123.231596" id="Path" stroke="#000000" stroke-width="5"></path>
                <path d="M329.552882,108.414894 C329.568113,133.160109 310.930974,153.938906 286.329787,156.604894 C284.596831,156.797811 282.854404,156.89321 281.110745,156.890689 C268.255298,156.899583 255.924421,151.79386 246.838188,142.699744 C237.751955,133.605628 232.656928,121.270327 232.676962,108.414894 C232.676962,81.6641489 251.863936,59.9811702 281.110745,59.9811702 C307.861311,59.9811702 329.548231,81.6643274 329.552882,108.414894 L329.552882,108.414894 Z" id="Path" fill="#FFFFFF" fill-rule="nonzero"></path>
                <polygon id="Path" fill="#BDC1C6" fill-rule="nonzero" points="269.849043 93.8839362 269.849043 80.8825532 281.110745 74.3860638 292.372447 80.8825532 292.372447 93.8839362 281.110745 100.380426"></polygon>
                <polygon id="Path" fill="#FFFFFF" fill-rule="nonzero" points="270.647447 81.3447872 270.647447 93.4217021 281.110745 99.4643617 291.574043 93.4217021 291.574043 81.3447872 281.110745 75.3105319"></polygon>
                <circle id="Oval" fill="#D8DDE6" fill-rule="nonzero" cx="281.110745" cy="87.3874468" r="5.59723404"></circle>
                <circle id="Oval" fill="#0E1314" fill-rule="nonzero" cx="281.110745" cy="87.3874468" r="1.20180851"></circle>
                <rect id="Rectangle" fill="#9BA9BD" fill-rule="nonzero" x="270.420532" y="135.695106" width="21.3720213" height="2.43723404"></rect>
                <rect id="Rectangle" fill="#9BA9BD" fill-rule="nonzero" x="272.555213" y="96.8170213" width="17.0942553" height="4.1937234"></rect>
                <rect id="Rectangle" fill="#232A2D" fill-rule="nonzero" x="272.555213" y="107.919043" width="17.0942553" height="13.9426596"></rect>
                <rect id="Rectangle" fill="#D8DDE6" fill-rule="nonzero" x="272.555213" y="121.752447" width="17.0942553" height="13.9426596"></rect>
                <rect id="Rectangle" fill="#171B1C" fill-rule="nonzero" x="272.555213" y="107.919043" width="17.0942553" height="2.15989362"></rect>
                <path d="M280.505638,93.9091489 L281.707447,93.9091489 C281.879184,93.9091489 282.018404,94.0483693 282.018404,94.2201064 L282.018404,96.808617 L280.194681,96.808617 L280.194681,94.2201064 C280.194681,94.0483693 280.333901,93.9091489 280.505638,93.9091489 Z" id="Path" fill="#FEB533" fill-rule="nonzero"></path>
                <rect id="Rectangle" fill="#EFF2F4" fill-rule="nonzero" x="270.428936" y="101.010745" width="21.3720213" height="6.91670213"></rect>
                <rect id="Rectangle" fill="#D8DDE6" fill-rule="nonzero" x="270.428936" y="101.010745" width="3.31968085" height="6.91670213"></rect>
                <rect id="Rectangle" fill="#D8DDE6" fill-rule="nonzero" x="288.481277" y="101.010745" width="3.31968085" height="6.91670213"></rect>
                <rect id="Rectangle" fill="#D8DDE6" fill-rule="nonzero" x="278.959255" y="101.010745" width="4.31978723" height="6.91670213"></rect>
                <path d="M286.329787,138.13234 L286.329787,156.621702 C284.596831,156.81462 282.854404,156.910018 281.110745,156.907497 C279.370146,156.908599 277.630748,156.816018 275.900106,156.630106 L275.900106,138.140745 L286.329787,138.13234 Z" id="Path" fill="#000000" fill-rule="nonzero"></path>
                <path d="M329.552882,108.414894 C329.568113,133.160109 310.930974,153.938906 286.329787,156.604894 C284.596831,156.797811 282.854404,156.89321 281.110745,156.890689 C268.255298,156.899583 255.924421,151.79386 246.838188,142.699744 C237.751955,133.605628 232.656928,121.270327 232.676962,108.414894 C232.676962,81.6641489 251.863936,59.9811702 281.110745,59.9811702 C307.861311,59.9811702 329.548231,81.6643274 329.552882,108.414894 L329.552882,108.414894 Z" id="Path" stroke="#1D2326"></path>
                <path d="M189.790106,194.407234 C189.788176,219.139601 171.15543,239.899009 146.567021,242.563617 C144.834065,242.756535 143.091638,242.851933 141.347979,242.849412 C128.498365,242.858291 116.172594,237.757181 107.087331,228.670341 C98.0020679,219.583502 92.9030961,207.256846 92.914237,194.407234 C92.914237,167.656489 112.10117,145.973511 141.347979,145.973511 C168.098545,145.973511 189.785465,167.656668 189.790106,194.407234 L189.790106,194.407234 Z" id="Path" fill="#FFFFFF" fill-rule="nonzero"></path>
                <g id="Group" transform="translate(114.042553, 176.489362)" fill-rule="nonzero">
                    <circle id="Oval" fill="#9BA9BD" cx="11.9676596" cy="17.9262766" r="9.36234043"></circle>
                    <circle id="Oval" fill="#FFFFFF" cx="11.9676596" cy="17.9262766" r="7.16042553"></circle>
                    <circle id="Oval" fill="#1B2123" cx="11.9676596" cy="17.9262766" r="1.8237234"></circle>
                    <path d="M6.53851064,4.76521277 C6.13980698,4.77443086 5.74567197,4.67879516 5.39553191,4.48787234 C5.07504035,4.31582932 4.80986638,4.05648335 4.63074468,3.73989362 C4.31724287,3.11450632 4.27767022,2.38697842 4.52148936,1.7312766 C4.72907472,1.20930429 5.14249578,0.795883233 5.66446809,0.588297872 C5.93250089,0.484170015 6.21734859,0.430048952 6.50489362,0.428605845 C6.74109513,0.427897973 6.97612137,0.46187767 7.20244681,0.529468085 C7.4066734,0.586440283 7.59986416,0.677353583 7.77393617,0.798404255 L7.64787234,1.41191489 C7.48532179,1.29499945 7.30707172,1.20163036 7.11840426,1.13457447 C6.93378208,1.07460834 6.74102722,1.04342741 6.54691489,1.04212766 C6.2766314,1.03710299 6.00984429,1.10379977 5.7737234,1.23542553 C5.54916756,1.36758692 5.36583502,1.55964958 5.24425532,1.79010638 C5.10783221,2.04867129 5.04120679,2.33834704 5.05095745,2.63053191 C5.04120679,2.92271679 5.10783221,3.21239254 5.24425532,3.47095745 C5.36368932,3.7007913 5.54773315,3.89067779 5.7737234,4.01723404 C6.0101715,4.15646657 6.28102327,4.2263638 6.55531915,4.21893617 C6.76314319,4.21700715 6.96966545,4.18588735 7.16882979,4.12648936 C7.35456356,4.06460332 7.52805807,3.97074563 7.68148936,3.84914894 L7.80755319,4.45425532 C7.63492898,4.57972452 7.44144321,4.67362203 7.23606383,4.73159574 C7.00623131,4.77510536 6.77146202,4.78641954 6.53851064,4.76521277 L6.53851064,4.76521277 Z" id="Path" fill="#293033"></path>
                    <path d="M9.42117021,4.75680851 C9.13584552,4.77032443 8.85617263,4.6740929 8.63957447,4.48787234 C8.43817048,4.32048907 8.3263031,4.06878745 8.33702128,3.80712766 C8.31536549,3.5131523 8.44930878,3.22932009 8.69,3.05914894 C8.97822829,2.86154599 9.32462241,2.76680572 9.67329787,2.79021277 L10.3120213,2.79021277 L10.3120213,2.79021277 C10.3382137,2.59080737 10.2689575,2.39071166 10.1251015,2.2501627 C9.9812455,2.10961375 9.7795935,2.04502897 9.58085106,2.07585106 C9.43483319,2.07776959 9.29008872,2.10331273 9.15223404,2.15148936 C8.99891083,2.20435366 8.85225275,2.27486235 8.71521277,2.36159574 L8.58074468,1.84893617 C8.89768688,1.62546094 9.27711926,1.50780749 9.66489362,1.51276596 C10.014001,1.49098912 10.3569144,1.6123744 10.6145745,1.84893617 C10.8506561,2.09672349 10.9725205,2.43185061 10.9507447,2.77340426 L10.9507447,4.69797872 L10.3624468,4.69797872 L10.3624468,4.32819149 C10.142459,4.62241696 9.78753343,4.78403484 9.42117021,4.75680851 L9.42117021,4.75680851 Z M8.98414894,3.77351064 C8.97807557,3.90752123 9.03765675,4.03609114 9.14382979,4.11808511 C9.4435663,4.3123684 9.83637786,4.28135696 10.1019149,4.04244681 C10.2416109,3.91620975 10.3184929,3.73476825 10.3120213,3.54659574 L10.3120213,3.2356383 L9.81617021,3.2356383 C9.59846196,3.21878256 9.38032955,3.26240904 9.18585106,3.36170213 C9.0476967,3.45116319 8.97013507,3.6095182 8.98414894,3.77351064 L8.98414894,3.77351064 Z" id="Shape" fill="#293033"></path>
                    <path d="M12.9845745,4.76521277 C12.7874795,4.76336071 12.5908117,4.74650347 12.3962766,4.71478723 C12.182275,4.68225322 11.9714145,4.63164671 11.7659574,4.56351064 L11.7659574,0.277340426 L12.4214894,0.277340426 L12.4214894,1.95819149 C12.5237409,1.81342958 12.6591883,1.69527339 12.8164894,1.61361702 C12.9905868,1.53440567 13.1799075,1.49424673 13.3711702,1.49595745 C13.6214242,1.49062574 13.8674646,1.56092301 14.0771277,1.69765957 C14.2834848,1.84135059 14.4463109,2.03906795 14.547766,2.26914894 C14.6665305,2.53300652 14.7239962,2.82033494 14.7158511,3.10957447 C14.7185384,3.40303886 14.6462167,3.69232545 14.5057447,3.95 C14.3727634,4.20042519 14.167872,4.40531664 13.9174468,4.53829787 C13.6307835,4.69187353 13.3097495,4.76996288 12.9845745,4.76521277 L12.9845745,4.76521277 Z M12.9845745,4.20212766 C13.2796971,4.22309627 13.5689577,4.11231559 13.7745745,3.89957447 C13.9690698,3.66450051 14.0654008,3.36346626 14.0435106,3.05914894 C14.0585509,2.79475439 13.9813152,2.53334128 13.825,2.31957447 C13.6830463,2.14119444 13.4644798,2.04127837 13.2367021,2.0506383 C13.001264,2.04531782 12.7770682,2.15118804 12.6315957,2.33638298 C12.4709917,2.56752706 12.3912224,2.84524223 12.4046809,3.12638298 L12.4046809,4.09287234 C12.5951462,4.15490916 12.7929395,4.1916422 12.9929787,4.20212766 L12.9845745,4.20212766 Z" id="Shape" fill="#293033"></path>
                    <polygon id="Path" fill="#293033" points="15.3965957 4.68117021 15.3965957 0.277340426 16.0521277 0.277340426 16.0521277 4.68117021"></polygon>
                    <path d="M18.4053191,4.76521277 C18.0990014,4.77213449 17.795765,4.70282332 17.5228723,4.56351064 C17.2796848,4.43515945 17.0784254,4.23973373 16.9429787,4.00042553 C16.8064588,3.74158277 16.737105,3.45260874 16.7412766,3.16 C16.7365794,2.8692782 16.7998945,2.58148224 16.9261702,2.31957447 C17.0468423,2.08186337 17.229855,1.88142084 17.4556383,1.73968085 C17.6922523,1.59995829 17.9624551,1.52732312 18.237234,1.52957447 C18.4828574,1.52142084 18.7254504,1.58572259 18.9347872,1.71446809 C19.1357288,1.83266558 19.29671,2.00828144 19.3970213,2.2187234 C19.5163508,2.45850981 19.5741158,2.72422873 19.5651064,2.99191489 L19.5651064,3.36170213 L17.3968085,3.36170213 C17.4195965,3.6113008 17.5368375,3.84277671 17.7245745,4.00882979 C17.9298563,4.17675184 18.191055,4.26081579 18.4557447,4.24414894 C18.6115625,4.24223826 18.7666498,4.22249989 18.9179787,4.18531915 C19.0605413,4.14706573 19.1965331,4.08756931 19.321383,4.00882979 L19.4474468,4.52989362 C19.1282863,4.70258354 18.767717,4.7840024 18.4053191,4.76521277 L18.4053191,4.76521277 Z M18.2120213,2.04223404 C18.0043007,2.0318726 17.8021837,2.11149443 17.6573404,2.26074468 C17.5052786,2.42094914 17.4132419,2.62877405 17.3968085,2.84904255 L18.9515957,2.84904255 C18.9597494,2.63323159 18.8845111,2.42256441 18.7414894,2.26074468 C18.6071101,2.11160874 18.4124691,2.0312807 18.2120213,2.04223404 L18.2120213,2.04223404 Z" id="Shape" fill="#293033"></path>
                    <polygon id="Path" fill="#293033" points="0.0924468085 35.4911702 0.0924468085 31.2890426 2.73978723 31.2890426 2.73978723 31.9361702 0.756382979 31.9361702 0.756382979 33.0959574 2.20191489 33.0959574 2.20191489 33.6170213 0.756382979 33.6170213 0.756382979 34.8776596 2.79861702 34.8776596 2.79861702 35.4659574"></polygon>
                    <path d="M4.83244681,35.5415957 C4.52213976,35.5640215 4.2168307,35.4541102 3.99202128,35.2390426 C3.79301371,35.0056303 3.6907854,34.7049588 3.7062766,34.398617 L3.7062766,32.9446809 L3.16840426,32.9446809 L3.16840426,32.39 L3.7062766,32.39 L3.7062766,31.6588298 L4.36180851,31.3562766 L4.36180851,32.39 L5.20223404,32.39 L5.20223404,32.9446809 L4.36180851,32.9446809 L4.36180851,34.2893617 C4.34427035,34.473434 4.39185552,34.6578266 4.4962766,34.8104255 C4.60654182,34.9213665 4.76081271,34.976904 4.91648936,34.9617021 L5.11819149,34.9617021 L5.2862766,34.8944681 L5.35351064,35.4491489 C5.27363314,35.4865922 5.18868068,35.512078 5.10138298,35.5247872 C5.01278539,35.5415521 4.92244237,35.5471986 4.83244681,35.5415957 L4.83244681,35.5415957 Z" id="Path" fill="#293033"></path>
                    <path d="M6.0006383,35.4911702 L6.0006383,31.0957447 L6.65617021,31.0957447 L6.65617021,32.7765957 C6.75290263,32.6279587 6.88596614,32.5064659 7.04276596,32.423617 C7.20826895,32.3453928 7.38917753,32.3051909 7.57223404,32.3059574 C7.87383209,32.2912577 8.16636493,32.4113502 8.3706383,32.6337234 C8.56903603,32.8679696 8.67380429,33.1673075 8.66478723,33.4741489 L8.66478723,35.4491489 L8.00085106,35.4491489 L8.00085106,33.6170213 C8.00942085,33.4313852 7.95622165,33.2481435 7.84957447,33.0959574 C7.73547307,32.9727305 7.57168594,32.9078337 7.40414894,32.9194681 C7.19803321,32.91007 6.99926274,32.997032 6.8662766,33.1547872 C6.72125746,33.3319876 6.6464751,33.5563346 6.65617021,33.7851064 L6.65617021,35.4659574 L6.0006383,35.4911702 Z" id="Path" fill="#293033"></path>
                    <path d="M10.9255319,35.5752128 C10.6331206,35.5776314 10.3445688,35.508379 10.0851064,35.3735106 C9.83964691,35.2453049 9.63563622,35.0500376 9.49680851,34.8104255 C9.36028854,34.5515828 9.29093478,34.2626087 9.29510638,33.97 C9.29207449,33.6785034 9.3583255,33.3904556 9.48840426,33.1295745 C9.60844573,32.8940726 9.78809958,32.6941352 10.0094681,32.5496809 C10.2444921,32.4062152 10.5157837,32.3332873 10.7910638,32.3395745 C11.2830191,32.3158933 11.7420418,32.5866837 11.9592553,33.0287234 C12.074711,33.2668648 12.132302,33.5289039 12.1273404,33.7935106 L12.1273404,34.1632979 L9.9506383,34.1632979 C9.97738854,34.41174 10.093944,34.6418624 10.2784043,34.8104255 C10.4878191,34.9697724 10.746739,35.0501269 11.0095745,35.0373404 C11.1683863,35.0389959 11.3266949,35.0192073 11.4802128,34.9785106 C11.6225895,34.9437585 11.7586875,34.887051 11.883617,34.8104255 L12.0012766,35.3314894 C11.6736277,35.5145773 11.3000975,35.5992052 10.9255319,35.5752128 L10.9255319,35.5752128 Z M10.732234,32.8438298 C10.5279378,32.838985 10.3305548,32.9179382 10.1859574,33.0623404 C10.0308034,33.224695 9.93589767,33.4352671 9.91702128,33.6590426 L11.4718085,33.6590426 C11.4763556,33.4412593 11.4016969,33.2292287 11.2617021,33.0623404 C11.1305996,32.9235701 10.9483512,32.8445958 10.7574468,32.8438298 L10.732234,32.8438298 Z" id="Shape" fill="#293033"></path>
                    <path d="M12.8164894,35.4911702 L12.8164894,32.39 L13.4047872,32.39 L13.4047872,32.8942553 C13.4785297,32.7224998 13.6013169,32.5763245 13.757766,32.4740426 C13.9055362,32.3631959 14.0857105,32.3041224 14.2704255,32.3059574 C14.3345988,32.2977821 14.3995501,32.2977821 14.4637234,32.3059574 L14.615,32.3479787 L14.5393617,32.9867021 L14.3796809,32.9362766 L14.2115957,32.9362766 C14.0037866,32.9342842 13.8073422,33.0309473 13.6821277,33.1968085 C13.5323842,33.3816885 13.4547502,33.6145904 13.463617,33.8523404 L13.463617,35.482766 L12.8164894,35.4911702 Z" id="Path" fill="#293033"></path>
                    <path d="M15.1780851,35.4911702 L15.1780851,32.39 L15.766383,32.39 L15.766383,32.8270213 C15.8627394,32.6664315 15.9987584,32.5333065 16.161383,32.4404255 C16.3400904,32.3469909 16.5396859,32.3007079 16.7412766,32.3059574 C17.0428746,32.2912577 17.3354075,32.4113502 17.5396809,32.6337234 C17.7404135,32.8671488 17.8481224,33.16634 17.842234,33.4741489 L17.842234,35.4491489 L17.1698936,35.4491489 L17.1698936,33.6170213 C17.1784634,33.4313852 17.1252642,33.2481435 17.018617,33.0959574 C16.9045156,32.9727305 16.7407285,32.9078337 16.5731915,32.9194681 C16.3675514,32.912591 16.1698341,32.9990924 16.0353191,33.1547872 C15.8903,33.3319876 15.8155177,33.5563346 15.8252128,33.7851064 L15.8252128,35.4659574 L15.1780851,35.4911702 Z" id="Path" fill="#293033"></path>
                    <path d="M20.1702128,35.5752128 C19.877956,35.5762907 19.5897204,35.5071142 19.3297872,35.3735106 C19.0848617,35.2475659 18.8829861,35.0515417 18.7498936,34.8104255 C18.6076302,34.5534534 18.5351888,34.2636876 18.5397872,33.97 C18.5367553,33.6785034 18.6030063,33.3904556 18.7330851,33.1295745 C18.8537572,32.8918634 19.0367699,32.6914208 19.2625532,32.5496809 C19.7219874,32.2922001 20.2822679,32.2922001 20.7417021,32.5496809 C20.9390767,32.6758928 21.0987613,32.8529975 21.2039362,33.0623404 C21.3193918,33.3004819 21.3769828,33.5625209 21.3720213,33.8271277 L21.3720213,34.1969149 L19.1953191,34.1969149 C19.2211212,34.4474905 19.3413116,34.678857 19.5314894,34.8440426 C19.7369284,35.0048146 19.9937892,35.085457 20.2542553,35.0709574 C20.4131268,35.0736914 20.5715834,35.0538843 20.7248936,35.0121277 C20.8682278,34.9803463 21.0048036,34.9234397 21.1282979,34.8440426 L21.2543617,35.3651064 C20.920005,35.5359254 20.5441755,35.6087605 20.1702128,35.5752128 Z M19.9685106,32.8438298 C19.7642144,32.838985 19.5668314,32.9179382 19.422234,33.0623404 C19.26708,33.224695 19.1721743,33.4352671 19.1532979,33.6590426 L20.7080851,33.6590426 C20.718439,33.4403685 20.6430574,33.2262848 20.4979787,33.0623404 C20.3531833,32.9078063 20.1460266,32.8274171 19.9348936,32.8438298 L19.9685106,32.8438298 Z" id="Shape" fill="#293033"></path>
                    <path d="M23.3134043,35.5415957 C23.0026532,35.567313 22.6960323,35.4569295 22.4729787,35.2390426 C22.2739712,35.0056303 22.1717428,34.7049588 22.187234,34.398617 L22.187234,32.9446809 L21.6493617,32.9446809 L21.6493617,32.39 L22.187234,32.39 L22.187234,31.6588298 L22.8343617,31.3562766 L22.8343617,32.39 L23.6747872,32.39 L23.6747872,32.9446809 L22.8343617,32.9446809 L22.8343617,34.2893617 C22.8192655,34.4744432 22.8698499,34.6589274 22.977234,34.8104255 C23.0874993,34.9213665 23.2417702,34.976904 23.3974468,34.9617021 L23.5907447,34.9617021 L23.7588298,34.8944681 L23.8344681,35.4491489 C23.7537252,35.4842785 23.669087,35.5096699 23.5823404,35.5247872 C23.493681,35.5410533 23.4033991,35.546696 23.3134043,35.5415957 L23.3134043,35.5415957 Z" id="Path" fill="#293033"></path>
                    <rect id="Rectangle" fill="#9BA9BD" x="61.7292553" y="7.24446809" width="2.43723404" height="21.3720213"></rect>
                    <polygon id="Rectangle" fill="#9BA9BD" transform="translate(24.939628, 17.926277) rotate(-90.000000) translate(-24.939628, -17.926277) " points="16.3925 15.8294149 33.4867553 15.8294149 33.4867553 20.0231383 16.3925 20.0231383"></polygon>
                    <polygon id="Rectangle" fill="#232A2D" transform="translate(40.924521, 17.934681) rotate(-90.000000) translate(-40.924521, -17.934681) " points="32.3773936 10.9633511 49.4716489 10.9633511 49.4716489 24.9060106 32.3773936 24.9060106"></polygon>
                    <polygon id="Rectangle" fill="#D8DDE6" transform="translate(54.749521, 17.926277) rotate(-90.000000) translate(-54.749521, -17.926277) " points="46.2023936 10.9549468 63.2966489 10.9549468 63.2966489 24.8976064 46.2023936 24.8976064"></polygon>
                    <polygon id="Rectangle" fill="#171B1C" transform="translate(35.033138, 17.926277) rotate(-90.000000) translate(-35.033138, -17.926277) " points="26.4860106 16.8463298 43.580266 16.8463298 43.580266 19.0062234 26.4860106 19.0062234"></polygon>
                    <path d="M20.7963298,16.4849468 L21.9981383,16.4849468 C22.1698754,16.4849468 22.3090957,16.6241672 22.3090957,16.7959043 L22.3090957,19.3844149 L20.4769681,19.3844149 L20.4769681,16.821117 C20.4769681,16.64938 20.6161885,16.5101596 20.7879255,16.5101596 L20.7963298,16.4849468 Z" id="Path" fill="#FEB533" transform="translate(21.393032, 17.934681) rotate(-90.000000) translate(-21.393032, -17.934681) "></path>
                    <rect id="Rectangle" fill="#EFF2F4" x="27.0448936" y="7.23606383" width="6.91670213" height="21.3720213"></rect>
                    <rect id="Rectangle" fill="#D8DDE6" x="27.0448936" y="25.2884043" width="6.91670213" height="3.31968085"></rect>
                    <rect id="Rectangle" fill="#D8DDE6" x="27.0448936" y="7.23606383" width="6.91670213" height="3.31968085"></rect>
                    <rect id="Rectangle" fill="#D8DDE6" x="27.0448936" y="15.7579787" width="6.91670213" height="4.31978723"></rect>
                    <path d="M64.1664894,12.6988298 L82.6558511,12.6988298 C82.8487686,14.4317861 82.9441672,16.1742129 82.9416464,17.9178723 C82.9427479,19.6584709 82.850167,21.3978687 82.6642553,23.1285106 L64.1748936,23.1285106 L64.1664894,12.6988298 Z" id="Path" fill="#000000"></path>
                </g>
                <path d="M189.790106,194.407234 C189.788176,219.139601 171.15543,239.899009 146.567021,242.563617 C144.834065,242.756535 143.091638,242.851933 141.347979,242.849412 C128.498365,242.858291 116.172594,237.757181 107.087331,228.670341 C98.0020679,219.583502 92.9030961,207.256846 92.914237,194.407234 C92.914237,167.656489 112.10117,145.973511 141.347979,145.973511 C168.098545,145.973511 189.785465,167.656668 189.790106,194.407234 L189.790106,194.407234 Z" id="Path" stroke="#1D2326"></path>
            </g>
        </g>
    </g>
</svg>