<svg xmlns="http://www.w3.org/2000/svg" width="32" height="32" viewBox="0 0 32 32">
  <title>ki-game-console</title>
  <g>
    <rect width="32" height="32" fill="none"/>
    <path d="M26,28c-3.44434,0-4.76953-1.30273-5.89453-3.55273A1.40616,1.40616,0,0,0,19.78711,24H12.21875a1.40616,1.40616,0,0,0-.31836.44727C10.77539,26.69727,9.4502,28,6.00586,28a3.94629,3.94629,0,0,1-2.93945-1.291,3.8412,3.8412,0,0,1-1.05664-2.793l.99316-12.99219C3.38379,8.46387,5.24805,6,7.72363,6a6.12414,6.12414,0,0,1,4.68848,2h7.17578a6.12414,6.12414,0,0,1,4.68848-2c2.47558,0,4.33984,2.46387,4.71191,4.8457l1.00879,13.07715A3.84128,3.84128,0,0,1,28.93945,26.709,3.9463,3.9463,0,0,1,26,28ZM11.93359,22l8.21.01074a2.51664,2.51664,0,0,1,1.751,1.542C22.72656,25.21582,23.40234,26,26,26a1.95169,1.95169,0,0,0,1.4668-.64355,1.873,1.873,0,0,0,.53711-1.27247l-1.001-13.00683C26.77441,9.63086,25.61816,8,24.27637,8A4.37851,4.37851,0,0,0,20.707,9.707l-.293.293H11.58594l-.293-.293A4.37851,4.37851,0,0,0,7.72363,8c-1.34179,0-2.498,1.63086-2.73535,3.1543L4.00293,24.07617a1.8696,1.8696,0,0,0,.53613,1.28028A1.95169,1.95169,0,0,0,6.00586,26c2.59766,0,3.27344-.78418,4.10547-2.44727a2.51665,2.51665,0,0,1,1.751-1.542Z" fill="#63738a"/>
    <g fill="#63738a">
      <rect x="20" y="12" width="2" height="2"/>
      <rect x="17" y="15" width="2" height="2"/>
      <rect x="20" y="18" width="2" height="2"/>
      <rect x="23" y="15" width="2" height="2"/>
    </g>
    <polygon fill="#63738a" points="13 15 11 15 11 14 11 13 9 13 9 14 9 15 7 15 7 17 9 17 9 18 9 19 11 19 11 18 11 17 13 17 13 15"/>
  </g>
</svg>
