<svg xmlns="http://www.w3.org/2000/svg" width="32" height="32" viewBox="0 0 32 32">
  <title>ki-home-speaker</title>
  <g>
    <rect width="32" height="32" fill="none"/>
    <g  fill="#fff">
      <path d="M24.56836,5.98145a20.06124,20.06124,0,0,0-17.13672,0L6.58008,4.1709a22.06041,22.06041,0,0,1,18.83984,0Z"/>
      <path d="M21.6123,9.125a14.57906,14.57906,0,0,0-11.2246,0L9.62207,7.27734a16.5616,16.5616,0,0,1,12.75586,0Z"/>
    </g>
    <path  fill="#fff" d="M8,11V30H21a2.82447,2.82447,0,0,0,3-2.59961V11Zm14,2v2H10V13ZM21,28H10V17H22V27.40039C22,27.68359,21.57227,28,21,28Z"/>
  </g>
</svg>
