<svg xmlns="http://www.w3.org/2000/svg" width="32" height="32" viewBox="0 0 32 32">
  <title>ki-home-appliance</title>
  <g>
    <rect width="32" height="32" fill="none"/>
    <rect x="18" y="5.07809" width="2" height="2" fill="#63738a"/>
    <path d="M24,3.07809v-2H8v2H4v27H28v-27Zm-14,0H22v8H10Zm0,25v-2H22v2Zm2-8v-1h8v1a4,4,0,1,1-8,0Zm14,8H24v-4H20.44177a5.97655,5.97655,0,0,0,1.4679-3H24v-2H22v-2H10v3a5.96879,5.96879,0,0,0,1.54047,4H8v4H6v-23H8v6a2,2,0,0,0,2,2h5v2h2v-2h5a2,2,0,0,0,2-2v-6h2Z" fill="#63738a"/>
  </g>
</svg>
