<svg xmlns="http://www.w3.org/2000/svg" width="32" height="32" viewBox="0 0 32 32">
  <title>ki-phone</title>
  <g>
    <rect width="32" height="32" fill="none"/>
    <path d="M26.13522,28.99953c-.04395,0-.08838-.001-.13233-.00293-14.3789-.667-22.33252-8.62012-23-23a2.88361,2.88361,0,0,1,.791-2.11377A2.825,2.825,0,0,1,5.85446,3h5.8999l2.40137,8.40576-3.55567,2.52441a19.60619,19.60619,0,0,0,7.57666,7.51367l2.39453-3.60644L29,20.24562V26.145a2.823,2.823,0,0,1-.88379,2.06152A2.88185,2.88185,0,0,1,26.13522,28.99953ZM5.85446,5a.84117.84117,0,0,0-.61377.26416.861.861,0,0,0-.23975.64013C5.622,19.28078,12.7192,26.37843,26.09615,26.99855a.8129.8129,0,0,0,.63917-.23828A.84386.84386,0,0,0,27,26.145V21.75343l-5.57129-1.59179-2.55908,3.85449-.78369-.374a21.15471,21.15471,0,0,1-9.67285-9.5918l-.36621-.76025,3.79736-2.6958L10.24557,5Z" fill="#63738a"/>
  </g>
</svg>
