<svg xmlns="http://www.w3.org/2000/svg" width="32" height="32" viewBox="0 0 32 32">
  <title>ki-smart-watch</title>
  <g>
    <path d="M26,14.07809h-.20154a10.01193,10.01193,0,0,0-3.9696-6.10895l-.98169-5.891H11.15283l-.98169,5.89105a9.96771,9.96771,0,0,0,0,16.21789l.98169,5.89106h9.69434l.98169-5.89106a10.01194,10.01194,0,0,0,3.9696-6.10894H26a1,1,0,0,0,1-1v-2A1,1,0,0,0,26,14.07809Zm-13.15283-10h6.30566l.45477,2.684a9.85546,9.85546,0,0,0-7.2152,0Zm6.30566,24H12.84717l-.45477-2.684a9.85546,9.85546,0,0,0,7.2152,0Zm-3.15283-4a8,8,0,1,1,8-8A8.00917,8.00917,0,0,1,16,24.07809Z"  fill="#fff"/>
    <rect width="32" height="32" fill="none"/>
    <path d="M13,19.07809H12a1,1,0,0,1-1-1v-3h2Z"  fill="#fff"/>
    <path d="M20,19.07809H19v-6h2v5A1,1,0,0,1,20,19.07809Z"  fill="#fff"/>
    <rect x="15" y="11.07809" width="2" height="8"  fill="#fff"/>
  </g>
</svg>
