<svg xmlns="http://www.w3.org/2000/svg" width="32" height="32" viewBox="0 0 32 32">
  <title>ki-tablet</title>
  <rect width="32" height="32" fill="none"/>
  <g fill="#63738a">
    <rect x="13.00045" y="23.99953" width="6" height="2"/>
    <path d="M24.00049,1.99951h-16a3.00328,3.00328,0,0,0-3,3v22a3.00328,3.00328,0,0,0,3,3h16a3.00328,3.00328,0,0,0,3-3v-22A3.00328,3.00328,0,0,0,24.00049,1.99951Zm-16,2h16a1.00067,1.00067,0,0,1,1,1v1h-18v-1A1.00067,1.00067,0,0,1,8.00049,3.99951Zm16,24h-16a1.00067,1.00067,0,0,1-1-1v-19h18v19A1.00067,1.00067,0,0,1,24.00049,27.99951Z"/>
  </g>
</svg>
