<svg xmlns="http://www.w3.org/2000/svg" id="logo-glympse-full" viewBox="0 0 175 39.35">
<g>
    <g>
        <g>
            <path d="M103,31.35a.9.9,0,0,1-.9.9H99.7a3.33,3.33,0,0,1-3.3-3.3v-10c0-3.1-1.4-4.7-3.9-4.7s-4,1.6-4,4.7v10a3.3,3.3,0,0,1-6.6,0v-10c0-3.1-1.4-4.7-3.9-4.7s-4,1.6-4,4.7v10a3.33,3.33,0,0,1-3.3,3.3H68.3a.9.9,0,0,1-.9-.9v-22a.9.9,0,0,1,.9-.9h2.4a3.33,3.33,0,0,1,3.3,3.3V12a8.15,8.15,0,0,1,6.9-3.7A7.07,7.07,0,0,1,87.5,12a9.52,9.52,0,0,1,7.6-3.7c4.9,0,7.9,3,7.9,8.6v14.4Z" style="fill: #396fb6"/>
            <path d="M105.3,36a3.3,3.3,0,0,0,6.6,0v-7.3a8.9,8.9,0,0,0,7.3,3.5c5.5,0,10.6-4.3,10.6-12v-.1c0-7.8-5.2-12-10.6-12a8.75,8.75,0,0,0-7.3,3.8v-.3a3.33,3.33,0,0,0-3.3-3.3h-2.4a.9.9,0,0,0-.9.9Zm17.8-15.9c0,3.9-2.6,6.4-5.7,6.4s-5.6-2.6-5.6-6.4V20c0-3.9,2.6-6.4,5.6-6.4s5.7,2.6,5.7,6.5Z" style="fill: #396fb6"/>
            <path d="M148.1,10.75l-1.9-.9h0a16.63,16.63,0,0,0-7.2-1.5c-4.7.2-8.4,2.9-8.3,7.7v.1c.2,4.5,3.9,5.9,7.2,6.7,2.6.7,4.9,1.1,4.9,2.5v.1c0,1-.8,1.8-2.7,1.8a12.24,12.24,0,0,1-6.4-1.9,2.77,2.77,0,0,0-1.3-.3,2.44,2.44,0,0,0-2.1,1.2h0l-.9,1.7a.8.8,0,0,0,.3,1.1l1.6.9h0a16.47,16.47,0,0,0,8.9,2.3c5-.2,8.8-2.7,8.6-7.8v-.1c-.1-4.3-4-5.7-7.3-6.7-2.5-.8-4.8-1.3-4.8-2.6V15c0-.9.8-1.6,2.4-1.7a14.16,14.16,0,0,1,5.1,1.3,2.38,2.38,0,0,0,1.2.3,2.65,2.65,0,0,0,2.4-1.6l.7-1.5A.86.86,0,0,0,148.1,10.75Z" style="fill: #396fb6"/>
            <path d="M170.8,28.75a1,1,0,0,0,.2-1.3l-1-1.3h0a2.48,2.48,0,0,0-2.1-1.1,2.77,2.77,0,0,0-1.6.5,7.62,7.62,0,0,1-4.7,1.6,5.44,5.44,0,0,1-5.7-4.6H169a3.08,3.08,0,0,0,3.1-3.2c0-4.8-3.4-11.2-11.2-11.2-6.8,0-11.5,5.5-11.5,12.1v.1c0,7.1,5.2,12,12.2,12a12.31,12.31,0,0,0,7.6-2.4Zm-15-10.2c.5-3,2.3-5,5-5s4.5,2,4.9,5Z" style="fill: #396fb6"/>
            <path d="M39,31.35a.9.9,0,0,1-.9.9H35.6a3.31,3.31,0,0,1-3.2-3.3V.95a.9.9,0,0,1,.9-.9h2.5A3.24,3.24,0,0,1,39,3.35Z" style="fill: #396fb6"/>
            <path d="M44.3,37.35a20.33,20.33,0,0,0,8.2,1.6c4.5,0,7.5-1,9.7-3.1,2-2,3-5,3-9.2v-15h0V9.35a.9.9,0,0,0-.9-.9H61.9a3.33,3.33,0,0,0-3.3,3.3h0l.1,7.4v.1a5.3,5.3,0,1,1-10.6,0v-.1h0v-7.3a3.33,3.33,0,0,0-3.3-3.3H42.5a.9.9,0,0,0-.9.9v10.2c.2,6.7,4.6,10.5,10,10.5,3.5,0,5.3-1.4,7.2-3.8v1.1c0,4.2-1.8,6.3-6.3,6.3a13.07,13.07,0,0,1-6.1-1.4,3.59,3.59,0,0,0-1.1-.2,2.72,2.72,0,0,0-2.5,1.7h0l-.7,1.7a.88.88,0,0,0,.5,1.2Z" style="fill: #396fb6"/>
        </g>
        <g>
            <path d="M28,8.55,25,.15q-.15-.3-.3,0l-1.4,2.7a17,17,0,0,0-8-1.7A14.9,14.9,0,0,0,.2,13.85C5.9,6,15.4,7,15.4,7h0a9.87,9.87,0,0,1,5.1,1.3L19,11.25c-.1.2,0,.3.2.2l8.6-2.5C27.9,8.95,28,8.75,28,8.55Z" style="fill: #4fc0ee"/>
            <path d="M.7,13.65a1.07,1.07,0,0,0-.6,1.1c-.1,1.6-.1,2.2-.1,2.2a15.4,15.4,0,1,0,30.8,0,3.12,3.12,0,0,0-3.1-3.1H17.1a3.2,3.2,0,0,0,0,6.4H24a9.18,9.18,0,0,1-17.8-3.2,10.14,10.14,0,0,1,.9-4.5c.5-1.4-1.1-1.1-1.1-1.1A14.58,14.58,0,0,0,.7,13.65ZM1.8,24Z" style="fill: #396fb6"/>
        </g>
    </g>
    <path d="M175,7.55a2.8,2.8,0,0,1-2.8,2.8,2.88,2.88,0,0,1-2.9-2.8,2.85,2.85,0,0,1,5.7,0Zm-5,0a2.15,2.15,0,1,0,4.3,0,2.14,2.14,0,0,0-2.1-2.2A2.22,2.22,0,0,0,170,7.55ZM171.7,9h-.6V6.25c.3,0,.6-.1,1.1-.1a1.44,1.44,0,0,1,.9.2.6.6,0,0,1,.3.6.86.86,0,0,1-.6.7h0c.3.1.4.3.5.7s.2.6.2.7h-.7c-.1-.1-.1-.3-.2-.7s-.2-.4-.6-.4h-.3V9Zm.1-1.6h.3c.4,0,.6-.1.6-.4s-.2-.4-.6-.4h-.4v.8Z" style="fill: #396fb6"/>
</g>
</svg>
