<svg width="25" height="8" xmlns="http://www.w3.org/2000/svg">
  <path d="M8.978 7.909l1.214-7.75h1.941l-1.215 7.75h-1.94zM17.933.326l-.264 1.68-.174-.09a3.331 3.331 0 0 0-1.453-.297c-.76 0-1.111.344-1.111.667-.005.363.41.602 1.09.96 1.12.553 1.637 1.224 1.63 2.106C17.634 6.961 16.31 8 14.27 8c-.871-.01-1.71-.197-2.163-.413l.272-1.735.25.123c.638.29 1.051.407 1.828.407.558 0 1.157-.238 1.162-.757.003-.34-.25-.582-1.007-.962-.736-.37-1.711-.992-1.7-2.105C12.921 1.05 14.273 0 16.191 0c.753 0 1.356.168 1.74.326zm4.996-.168L24.5 7.904h-1.802s-.178-.89-.236-1.162l-2.486-.003c-.076.21-.409 1.165-.409 1.165h-2.039L20.412.8c.204-.505.552-.643 1.016-.643h1.5zM2.553 1.178A7.753 7.753 0 0 0 .5.32L.525.158h3.13c.422.017.763.164.88.655l.661 3.455.03.101.203 1.074 1.9-5.285h2.057L6.33 7.894l-2.054.002-1.723-6.718zm17.995 3.985l.774-2.167c-.012.021.16-.448.257-.74l.132.669.449 2.238h-1.612z" fill="#1661A3" fill-rule="evenodd"/>
</svg>